<svg xmlns="http://www.w3.org/2000/svg" width="1040" height="660" viewBox="0 0 1040 660">
  <defs>
    <linearGradient id="gBg" x1="0" y1="0" x2="1" y2="1">
      <stop offset="0" stop-color="#0B1230"/>
      <stop offset="0.55" stop-color="#2B0B3A"/>
      <stop offset="1" stop-color="#0B3A2B"/>
    </linearGradient>
    <radialGradient id="gVignette" cx="50%" cy="52%" r="78%">
      <stop offset="0" stop-color="#00E57D" stop-opacity="0.08"/>
      <stop offset="0.55" stop-color="#000000" stop-opacity="0.34"/>
      <stop offset="1" stop-color="#000000" stop-opacity="0.72"/>
    </radialGradient>
    <linearGradient id="gGrid" x1="0" y1="0" x2="0" y2="1">
      <stop offset="0" stop-color="#FFFFFF" stop-opacity="0.16"/>
      <stop offset="1" stop-color="#FFFFFF" stop-opacity="0.02"/>
    </linearGradient>
    <linearGradient id="gFrame" x1="0" y1="0" x2="1" y2="0">
      <stop offset="0" stop-color="#FFFFFF" stop-opacity="0.12"/>
      <stop offset="0.35" stop-color="#FFFFFF" stop-opacity="0.34"/>
      <stop offset="1" stop-color="#FFFFFF" stop-opacity="0.10"/>
    </linearGradient>
    <radialGradient id="gGlow" cx="40%" cy="35%" r="85%">
      <stop offset="0" stop-color="#FFFFFF" stop-opacity="0.28"/>
      <stop offset="0.45" stop-color="#FFFFFF" stop-opacity="0.08"/>
      <stop offset="1" stop-color="#FFFFFF" stop-opacity="0"/>
    </radialGradient>
    <radialGradient id="gGlow2" cx="65%" cy="55%" r="95%">
      <stop offset="0" stop-color="#FFFFFF" stop-opacity="0.18"/>
      <stop offset="0.6" stop-color="#FFFFFF" stop-opacity="0.06"/>
      <stop offset="1" stop-color="#FFFFFF" stop-opacity="0"/>
    </radialGradient>
    <linearGradient id="gGlass" x1="0" y1="0" x2="1" y2="1">
      <stop offset="0" stop-color="#FFFFFF" stop-opacity="0.12"/>
      <stop offset="0.35" stop-color="#FFFFFF" stop-opacity="0.06"/>
      <stop offset="1" stop-color="#000000" stop-opacity="0.08"/>
    </linearGradient>
    <linearGradient id="gUp" x1="0" y1="0" x2="0" y2="1">
      <stop offset="0" stop-color="#5BFFB8" stop-opacity="0.95"/>
      <stop offset="1" stop-color="#00E5FF" stop-opacity="0.75"/>
    </linearGradient>
    <linearGradient id="gDn" x1="0" y1="0" x2="0" y2="1">
      <stop offset="0" stop-color="#FF4B91" stop-opacity="0.95"/>
      <stop offset="1" stop-color="#FFB86C" stop-opacity="0.75"/>
    </linearGradient>
    <filter id="fNoise" x="-20%" y="-20%" width="140%" height="140%">
      <feTurbulence type="fractalNoise" baseFrequency="0.8" numOctaves="2" seed="9" />
      <feColorMatrix type="matrix" values="
        1 0 0 0 0
        0 1 0 0 0
        0 0 1 0 0
        0 0 0 0.18 0"/>
    </filter>
    <filter id="fSoft" x="-20%" y="-20%" width="140%" height="140%">
      <feGaussianBlur stdDeviation="4" />
    </filter>
  </defs>

  <rect width="1040" height="660" fill="url(#gBg)"/>
  <rect width="1040" height="660" filter="url(#fNoise)" opacity="0.22"/>
  <g opacity="1">
    <path d="M0 0 V660" stroke="url(#gGrid)" stroke-width="1" opacity="0.10"/><path d="M56 0 V660" stroke="url(#gGrid)" stroke-width="1" opacity="0.10"/><path d="M112 0 V660" stroke="url(#gGrid)" stroke-width="1" opacity="0.10"/><path d="M168 0 V660" stroke="url(#gGrid)" stroke-width="1" opacity="0.10"/><path d="M224 0 V660" stroke="url(#gGrid)" stroke-width="1" opacity="0.10"/><path d="M280 0 V660" stroke="url(#gGrid)" stroke-width="1" opacity="0.10"/><path d="M336 0 V660" stroke="url(#gGrid)" stroke-width="1" opacity="0.10"/><path d="M392 0 V660" stroke="url(#gGrid)" stroke-width="1" opacity="0.10"/><path d="M448 0 V660" stroke="url(#gGrid)" stroke-width="1" opacity="0.10"/><path d="M504 0 V660" stroke="url(#gGrid)" stroke-width="1" opacity="0.10"/><path d="M560 0 V660" stroke="url(#gGrid)" stroke-width="1" opacity="0.10"/><path d="M616 0 V660" stroke="url(#gGrid)" stroke-width="1" opacity="0.10"/><path d="M672 0 V660" stroke="url(#gGrid)" stroke-width="1" opacity="0.10"/><path d="M728 0 V660" stroke="url(#gGrid)" stroke-width="1" opacity="0.10"/><path d="M784 0 V660" stroke="url(#gGrid)" stroke-width="1" opacity="0.10"/><path d="M840 0 V660" stroke="url(#gGrid)" stroke-width="1" opacity="0.10"/><path d="M896 0 V660" stroke="url(#gGrid)" stroke-width="1" opacity="0.10"/><path d="M952 0 V660" stroke="url(#gGrid)" stroke-width="1" opacity="0.10"/><path d="M1008 0 V660" stroke="url(#gGrid)" stroke-width="1" opacity="0.10"/><path d="M0 0 H1040" stroke="url(#gGrid)" stroke-width="1" opacity="0.10"/><path d="M0 56 H1040" stroke="url(#gGrid)" stroke-width="1" opacity="0.10"/><path d="M0 112 H1040" stroke="url(#gGrid)" stroke-width="1" opacity="0.10"/><path d="M0 168 H1040" stroke="url(#gGrid)" stroke-width="1" opacity="0.10"/><path d="M0 224 H1040" stroke="url(#gGrid)" stroke-width="1" opacity="0.10"/><path d="M0 280 H1040" stroke="url(#gGrid)" stroke-width="1" opacity="0.10"/><path d="M0 336 H1040" stroke="url(#gGrid)" stroke-width="1" opacity="0.10"/><path d="M0 392 H1040" stroke="url(#gGrid)" stroke-width="1" opacity="0.10"/><path d="M0 448 H1040" stroke="url(#gGrid)" stroke-width="1" opacity="0.10"/><path d="M0 504 H1040" stroke="url(#gGrid)" stroke-width="1" opacity="0.10"/><path d="M0 560 H1040" stroke="url(#gGrid)" stroke-width="1" opacity="0.10"/><path d="M0 616 H1040" stroke="url(#gGrid)" stroke-width="1" opacity="0.10"/>
  </g>
  <g filter="url(#fSoft)" opacity="0.65">
    <circle cx="1003.5" cy="457.6" r="16.6" fill="url(#gGlow)" opacity="0.050"/><circle cx="821.9" cy="530.3" r="51.3" fill="url(#gGlow)" opacity="0.089"/><circle cx="103.2" cy="110.0" r="53.7" fill="url(#gGlow)" opacity="0.050"/><circle cx="401.3" cy="105.9" r="58.1" fill="url(#gGlow)" opacity="0.058"/><circle cx="363.4" cy="18.6" r="45.7" fill="url(#gGlow)" opacity="0.076"/><circle cx="288.5" cy="279.8" r="45.3" fill="url(#gGlow)" opacity="0.035"/><circle cx="446.7" cy="360.1" r="61.1" fill="url(#gGlow)" opacity="0.075"/><circle cx="333.2" cy="320.9" r="14.8" fill="url(#gGlow)" opacity="0.037"/><circle cx="125.8" cy="198.5" r="19.2" fill="url(#gGlow)" opacity="0.065"/><circle cx="572.3" cy="418.9" r="10.5" fill="url(#gGlow)" opacity="0.076"/>
  </g>
  <g opacity="0.55">
    <rect x="471.7" y="491.4" width="4.0" height="75.3" rx="2.0" fill="url(#gDn)" opacity="0.25"/><rect x="467.7" y="543.2" width="12.0" height="13.8" rx="4.0" fill="url(#gDn)" opacity="0.42"/><rect x="642.1" y="422.3" width="4.4" height="178.2" rx="2.2" fill="url(#gDn)" opacity="0.25"/><rect x="637.7" y="566.1" width="13.2" height="57.6" rx="4.4" fill="url(#gDn)" opacity="0.42"/><rect x="868.0" y="344.8" width="1.9" height="124.9" rx="1.0" fill="url(#gUp)" opacity="0.25"/><rect x="866.1" y="427.7" width="5.8" height="22.0" rx="1.9" fill="url(#gUp)" opacity="0.42"/><rect x="801.8" y="245.6" width="2.5" height="158.9" rx="1.3" fill="url(#gDn)" opacity="0.25"/><rect x="799.3" y="374.8" width="7.5" height="39.0" rx="2.5" fill="url(#gDn)" opacity="0.42"/><rect x="595.1" y="291.6" width="1.7" height="180.9" rx="0.9" fill="url(#gUp)" opacity="0.25"/><rect x="593.4" y="385.4" width="5.1" height="67.1" rx="1.7" fill="url(#gUp)" opacity="0.42"/><rect x="971.0" y="382.7" width="2.1" height="157.8" rx="1.1" fill="url(#gUp)" opacity="0.25"/><rect x="968.9" y="489.9" width="6.4" height="30.6" rx="2.1" fill="url(#gUp)" opacity="0.42"/><rect x="735.8" y="428.9" width="2.9" height="139.5" rx="1.5" fill="url(#gDn)" opacity="0.25"/><rect x="732.8" y="533.9" width="8.8" height="58.4" rx="2.9" fill="url(#gDn)" opacity="0.42"/><rect x="555.6" y="354.8" width="2.0" height="76.9" rx="1.0" fill="url(#gUp)" opacity="0.25"/><rect x="553.6" y="392.5" width="6.0" height="19.3" rx="2.0" fill="url(#gUp)" opacity="0.42"/><rect x="882.1" y="372.4" width="4.4" height="146.1" rx="2.2" fill="url(#gUp)" opacity="0.25"/><rect x="877.7" y="455.6" width="13.3" height="43.0" rx="4.4" fill="url(#gUp)" opacity="0.42"/><rect x="280.6" y="480.3" width="4.5" height="123.4" rx="2.2" fill="url(#gDn)" opacity="0.25"/><rect x="276.1" y="578.3" width="13.4" height="21.5" rx="4.5" fill="url(#gDn)" opacity="0.42"/><rect x="836.9" y="255.9" width="4.2" height="192.7" rx="2.1" fill="url(#gUp)" opacity="0.25"/><rect x="832.7" y="390.3" width="12.5" height="38.2" rx="4.2" fill="url(#gUp)" opacity="0.42"/><rect x="529.8" y="322.8" width="1.8" height="174.7" rx="0.9" fill="url(#gDn)" opacity="0.25"/><rect x="528.0" y="463.1" width="5.3" height="57.9" rx="1.8" fill="url(#gDn)" opacity="0.42"/>
  </g>
  
    <g opacity="0.92">
      <rect x="156.0" y="105.6" width="728.0" height="475.2" rx="32" fill="url(#gGlass)" stroke="url(#gFrame)" stroke-width="1.6" opacity="0.55"/>
      <rect x="166.0" y="115.6" width="708.0" height="455.2" rx="26" fill="none" stroke="url(#gGlow)" stroke-width="2.0" opacity="0.35"/>
      <rect x="176.0" y="125.6" width="688.0" height="435.2" rx="22" fill="none" stroke="url(#gGlow2)" stroke-width="1.4" opacity="0.22"/>
    </g>
    
  <g opacity="0.85">
    <path d="M 22 112 L 22 22 L 112 22" stroke="url(#gFrame)" stroke-width="2.0" fill="none" opacity="0.65"/><path d="M 1018 112 L 1018 22 L 928 22" stroke="url(#gFrame)" stroke-width="2.0" fill="none" opacity="0.65"/><path d="M 22 548 L 22 638 L 112 638" stroke="url(#gFrame)" stroke-width="2.0" fill="none" opacity="0.65"/><path d="M 1018 548 L 1018 638 L 928 638" stroke="url(#gFrame)" stroke-width="2.0" fill="none" opacity="0.65"/>
  </g>
  <rect width="1040" height="660" fill="url(#gVignette)"/>
</svg>