<svg xmlns="http://www.w3.org/2000/svg" width="900" height="1600" viewBox="0 0 900 1600" preserveAspectRatio="xMidYMid slice">
<defs>
  <linearGradient id="g0" x1="0" y1="0" x2="1" y2="1">
    <stop offset="0" stop-color="#0B0F1A"/>
    <stop offset="0.55" stop-color="#A855F7" stop-opacity="0.9"/>
    <stop offset="1" stop-color="#030712"/>
  </linearGradient>
  <radialGradient id="g1" cx="20%" cy="15%" r="70%">
    <stop offset="0" stop-color="#22D3EE" stop-opacity="0.38"/>
    <stop offset="0.6" stop-color="#22D3EE" stop-opacity="0.08"/>
    <stop offset="1" stop-color="#22D3EE" stop-opacity="0"/>
  </radialGradient>
  <radialGradient id="g2" cx="85%" cy="80%" r="75%">
    <stop offset="0" stop-color="#22D3EE" stop-opacity="0.28"/>
    <stop offset="0.65" stop-color="#22D3EE" stop-opacity="0.06"/>
    <stop offset="1" stop-color="#22D3EE" stop-opacity="0"/>
  </radialGradient>
  <filter id="softGlow" x="-30%" y="-30%" width="160%" height="160%">
    <feGaussianBlur stdDeviation="12" result="b"/>
    <feMerge>
      <feMergeNode in="b"/>
      <feMergeNode in="SourceGraphic"/>
    </feMerge>
  </filter>
  <filter id="hardGlow" x="-40%" y="-40%" width="180%" height="180%">
    <feGaussianBlur stdDeviation="6" result="b"/>
    <feColorMatrix in="b" type="matrix" values="1 0 0 0 0  0 1 0 0 0  0 0 1 0 0  0 0 0 18 -7" result="c"/>
    <feMerge>
      <feMergeNode in="c"/>
      <feMergeNode in="SourceGraphic"/>
    </feMerge>
  </filter>
  <linearGradient id="strokeA" x1="0" y1="0" x2="1" y2="0">
    <stop offset="0" stop-color="#22D3EE" stop-opacity="0.9"/>
    <stop offset="0.5" stop-color="#FFFFFF" stop-opacity="0.25"/>
    <stop offset="1" stop-color="#22D3EE" stop-opacity="0.7"/>
  </linearGradient>
  <linearGradient id="strokeB" x1="0" y1="0" x2="0" y2="1">
    <stop offset="0" stop-color="#FFFFFF" stop-opacity="0.18"/>
    <stop offset="1" stop-color="#22D3EE" stop-opacity="0.55"/>
  </linearGradient>
</defs>
<rect x="0" y="0" width="900" height="1600" fill="url(#g0)"/>
<rect x="0" y="0" width="900" height="1600" fill="url(#g1)"/>
<rect x="0" y="0" width="900" height="1600" fill="url(#g2)"/>


<defs>
  <radialGradient id="vign" cx="0.5000" cy="0.5000" r="0.85">
    <stop offset="0" stop-color="#000000" stop-opacity="0"/>
    <stop offset="0.55" stop-color="#000000" stop-opacity="0.217"/>
    <stop offset="1" stop-color="#000000" stop-opacity="0.620"/>
  </radialGradient>
</defs>
<rect x="0" y="0" width="900" height="1600" fill="url(#vign)"/>

<g opacity="0.211" filter="url(#softGlow)"><path d="M 34.1,30.8 L 123.9,30.8 L 123.9,1544.4 L 68.0,1544.4 L 68.0,58.3 " fill="none" stroke="url(#strokeB)" stroke-width="1.58" stroke-linecap="round" stroke-linejoin="round"/><circle cx="123.9" cy="1544.4" r="3.9" fill="#22D3EE" opacity="0.45"/><circle cx="68.0" cy="58.3" r="3.8" fill="#22D3EE" opacity="0.45"/><circle cx="34.1" cy="30.8" r="2.6" fill="#22D3EE" opacity="0.45"/></g>
<g opacity="0.211" filter="url(#softGlow)"><path d="M 159.3,1556.4 L 76.8,1556.4 L 76.8,40.3 L 367.1,40.3 L 367.1,1530.9 " fill="none" stroke="url(#strokeB)" stroke-width="1.32" stroke-linecap="round" stroke-linejoin="round"/><circle cx="159.3" cy="1556.4" r="4.0" fill="#22D3EE" opacity="0.45"/><circle cx="76.8" cy="40.3" r="2.4" fill="#22D3EE" opacity="0.45"/><circle cx="367.1" cy="40.3" r="3.2" fill="#22D3EE" opacity="0.45"/></g>
<g opacity="0.211" filter="url(#softGlow)"><path d="M 10.9,1249.7 L 776.3,1249.7 L 776.3,727.1 L 855.7,727.1 L 855.7,720.8 " fill="none" stroke="url(#strokeB)" stroke-width="1.41" stroke-linecap="round" stroke-linejoin="round"/><circle cx="776.3" cy="1249.7" r="4.1" fill="#22D3EE" opacity="0.45"/><circle cx="855.7" cy="727.1" r="2.3" fill="#22D3EE" opacity="0.45"/><circle cx="855.7" cy="720.8" r="3.9" fill="#22D3EE" opacity="0.45"/></g>
<g opacity="0.211" filter="url(#softGlow)"><path d="M 733.0,1489.2 L 11.8,1489.2 L 11.8,1519.9 L 801.7,1519.9 L 801.7,205.5 " fill="none" stroke="url(#strokeB)" stroke-width="1.46" stroke-linecap="round" stroke-linejoin="round"/><circle cx="11.8" cy="1489.2" r="4.0" fill="#22D3EE" opacity="0.45"/><circle cx="11.8" cy="1519.9" r="3.1" fill="#22D3EE" opacity="0.45"/><circle cx="801.7" cy="205.5" r="4.1" fill="#22D3EE" opacity="0.45"/></g>
<g opacity="0.211" filter="url(#softGlow)"><path d="M 837.3,1424.7 L 139.3,1424.7 L 139.3,63.5 L 119.1,63.5 L 119.1,443.5 " fill="none" stroke="url(#strokeB)" stroke-width="2.09" stroke-linecap="round" stroke-linejoin="round"/><circle cx="139.3" cy="1424.7" r="2.0" fill="#22D3EE" opacity="0.45"/><circle cx="837.3" cy="1424.7" r="3.9" fill="#22D3EE" opacity="0.45"/><circle cx="139.3" cy="63.5" r="3.1" fill="#22D3EE" opacity="0.45"/></g>
<g opacity="0.211" filter="url(#softGlow)"><path d="M 430.5,90.8 L 899.8,90.8 L 899.8,1312.7 L 744.5,1312.7 L 744.5,1351.0 " fill="none" stroke="url(#strokeB)" stroke-width="1.51" stroke-linecap="round" stroke-linejoin="round"/><circle cx="430.5" cy="90.8" r="2.5" fill="#22D3EE" opacity="0.45"/><circle cx="899.8" cy="1312.7" r="3.6" fill="#22D3EE" opacity="0.45"/><circle cx="744.5" cy="1312.7" r="3.3" fill="#22D3EE" opacity="0.45"/></g>
<g opacity="0.211" filter="url(#softGlow)"><path d="M 718.6,1472.3 L 757.1,1472.3 L 757.1,1593.2 L 260.2,1593.2 L 260.2,141.9 " fill="none" stroke="url(#strokeB)" stroke-width="1.89" stroke-linecap="round" stroke-linejoin="round"/><circle cx="260.2" cy="1593.2" r="3.6" fill="#22D3EE" opacity="0.45"/><circle cx="260.2" cy="141.9" r="2.7" fill="#22D3EE" opacity="0.45"/><circle cx="757.1" cy="1472.3" r="2.6" fill="#22D3EE" opacity="0.45"/></g>
<g opacity="0.211" filter="url(#softGlow)"><path d="M 555.0,119.8 L 804.1,119.8 L 804.1,5.6 L 772.3,5.6 L 772.3,169.1 " fill="none" stroke="url(#strokeB)" stroke-width="2.12" stroke-linecap="round" stroke-linejoin="round"/><circle cx="772.3" cy="169.1" r="4.0" fill="#22D3EE" opacity="0.45"/><circle cx="804.1" cy="119.8" r="3.4" fill="#22D3EE" opacity="0.45"/><circle cx="804.1" cy="5.6" r="3.7" fill="#22D3EE" opacity="0.45"/></g>
<g opacity="0.211" filter="url(#softGlow)"><path d="M 408.8,1484.2 L 831.1,1484.2 L 831.1,1280.9 L 815.7,1280.9 L 815.7,732.4 " fill="none" stroke="url(#strokeB)" stroke-width="1.99" stroke-linecap="round" stroke-linejoin="round"/><circle cx="815.7" cy="732.4" r="2.6" fill="#22D3EE" opacity="0.45"/><circle cx="831.1" cy="1484.2" r="3.1" fill="#22D3EE" opacity="0.45"/><circle cx="815.7" cy="1280.9" r="2.6" fill="#22D3EE" opacity="0.45"/></g>
<g opacity="0.211" filter="url(#softGlow)"><path d="M 887.8,1562.8 L 813.3,1562.8 L 813.3,1121.7 L 752.0,1121.7 L 752.0,45.1 " fill="none" stroke="url(#strokeB)" stroke-width="1.56" stroke-linecap="round" stroke-linejoin="round"/><circle cx="752.0" cy="1121.7" r="2.6" fill="#22D3EE" opacity="0.45"/><circle cx="813.3" cy="1562.8" r="4.0" fill="#22D3EE" opacity="0.45"/><circle cx="813.3" cy="1121.7" r="3.9" fill="#22D3EE" opacity="0.45"/></g>
<g opacity="0.211" filter="url(#softGlow)"><path d="M 824.2,174.4 L 100.4,174.4 L 100.4,153.1 L 881.7,153.1 L 881.7,1596.5 " fill="none" stroke="url(#strokeB)" stroke-width="1.99" stroke-linecap="round" stroke-linejoin="round"/><circle cx="100.4" cy="153.1" r="3.3" fill="#22D3EE" opacity="0.45"/><circle cx="824.2" cy="174.4" r="3.0" fill="#22D3EE" opacity="0.45"/><circle cx="881.7" cy="153.1" r="2.4" fill="#22D3EE" opacity="0.45"/></g>
<g opacity="0.211" filter="url(#softGlow)"><path d="M 699.1,1566.2 L 42.5,1566.2 L 42.5,111.0 L 148.4,111.0 L 148.4,1433.3 " fill="none" stroke="url(#strokeB)" stroke-width="1.23" stroke-linecap="round" stroke-linejoin="round"/><circle cx="42.5" cy="1566.2" r="2.9" fill="#22D3EE" opacity="0.45"/><circle cx="148.4" cy="111.0" r="2.3" fill="#22D3EE" opacity="0.45"/><circle cx="148.4" cy="1433.3" r="2.0" fill="#22D3EE" opacity="0.45"/></g>
<g opacity="0.211" filter="url(#softGlow)"><path d="M 537.7,1571.8 L 874.8,1571.8 L 874.8,1508.2 L 655.4,1508.2 L 655.4,93.6 " fill="none" stroke="url(#strokeB)" stroke-width="1.67" stroke-linecap="round" stroke-linejoin="round"/><circle cx="537.7" cy="1571.8" r="2.9" fill="#22D3EE" opacity="0.45"/><circle cx="874.8" cy="1571.8" r="2.8" fill="#22D3EE" opacity="0.45"/><circle cx="655.4" cy="1508.2" r="3.7" fill="#22D3EE" opacity="0.45"/></g>
<g opacity="0.211" filter="url(#softGlow)"><path d="M 247.8,37.9 L 864.4,37.9 L 864.4,21.7 L 115.5,21.7 L 115.5,1544.6 " fill="none" stroke="url(#strokeB)" stroke-width="1.91" stroke-linecap="round" stroke-linejoin="round"/><circle cx="247.8" cy="37.9" r="2.7" fill="#22D3EE" opacity="0.45"/><circle cx="864.4" cy="21.7" r="3.9" fill="#22D3EE" opacity="0.45"/><circle cx="115.5" cy="21.7" r="3.3" fill="#22D3EE" opacity="0.45"/></g>
<g opacity="0.211" filter="url(#softGlow)"><path d="M 103.4,1423.2 L 788.2,1423.2 L 788.2,1537.4 L 464.3,1537.4 L 464.3,1549.8 " fill="none" stroke="url(#strokeB)" stroke-width="1.48" stroke-linecap="round" stroke-linejoin="round"/><circle cx="788.2" cy="1537.4" r="2.1" fill="#22D3EE" opacity="0.45"/><circle cx="788.2" cy="1423.2" r="2.0" fill="#22D3EE" opacity="0.45"/><circle cx="464.3" cy="1537.4" r="4.2" fill="#22D3EE" opacity="0.45"/></g>
<g opacity="0.211" filter="url(#softGlow)"><path d="M 763.4,132.7 L 211.6,132.7 L 211.6,147.9 L 7.4,147.9 L 7.4,1313.8 " fill="none" stroke="url(#strokeB)" stroke-width="1.54" stroke-linecap="round" stroke-linejoin="round"/><circle cx="211.6" cy="147.9" r="2.7" fill="#22D3EE" opacity="0.45"/><circle cx="211.6" cy="132.7" r="3.4" fill="#22D3EE" opacity="0.45"/><circle cx="7.4" cy="1313.8" r="3.4" fill="#22D3EE" opacity="0.45"/></g>
<g opacity="0.211" filter="url(#softGlow)"><path d="M 818.1,604.9 L 730.8,604.9 L 730.8,1582.9 L 848.8,1582.9 L 848.8,164.9 " fill="none" stroke="url(#strokeB)" stroke-width="1.98" stroke-linecap="round" stroke-linejoin="round"/><circle cx="818.1" cy="604.9" r="2.5" fill="#22D3EE" opacity="0.45"/><circle cx="848.8" cy="164.9" r="3.2" fill="#22D3EE" opacity="0.45"/><circle cx="848.8" cy="1582.9" r="3.0" fill="#22D3EE" opacity="0.45"/></g>
<g opacity="0.211" filter="url(#softGlow)"><path d="M 829.8,1495.0 L 848.8,1495.0 L 848.8,905.7 L 742.6,905.7 L 742.6,438.5 " fill="none" stroke="url(#strokeB)" stroke-width="1.61" stroke-linecap="round" stroke-linejoin="round"/><circle cx="848.8" cy="905.7" r="3.7" fill="#22D3EE" opacity="0.45"/><circle cx="848.8" cy="1495.0" r="3.3" fill="#22D3EE" opacity="0.45"/><circle cx="829.8" cy="1495.0" r="2.7" fill="#22D3EE" opacity="0.45"/></g>
<g opacity="0.211" filter="url(#softGlow)"><path d="M 835.7,1429.3 L 69.7,1429.3 L 69.7,763.4 L 868.9,763.4 L 868.9,124.2 " fill="none" stroke="url(#strokeB)" stroke-width="1.64" stroke-linecap="round" stroke-linejoin="round"/><circle cx="868.9" cy="763.4" r="3.7" fill="#22D3EE" opacity="0.45"/><circle cx="868.9" cy="124.2" r="2.6" fill="#22D3EE" opacity="0.45"/><circle cx="69.7" cy="1429.3" r="3.8" fill="#22D3EE" opacity="0.45"/></g>
<g opacity="0.211" filter="url(#softGlow)"><path d="M 15.5,1314.6 L 867.4,1314.6 L 867.4,1455.4 L 680.0,1455.4 L 680.0,1540.3 " fill="none" stroke="url(#strokeB)" stroke-width="1.71" stroke-linecap="round" stroke-linejoin="round"/><circle cx="680.0" cy="1540.3" r="2.8" fill="#22D3EE" opacity="0.45"/><circle cx="680.0" cy="1455.4" r="2.3" fill="#22D3EE" opacity="0.45"/><circle cx="15.5" cy="1314.6" r="3.9" fill="#22D3EE" opacity="0.45"/></g>
<g opacity="0.211" filter="url(#softGlow)"><path d="M 882.9,1555.5 L 476.7,1555.5 L 476.7,1529.8 L 35.8,1529.8 L 35.8,82.7 " fill="none" stroke="url(#strokeB)" stroke-width="1.34" stroke-linecap="round" stroke-linejoin="round"/><circle cx="476.7" cy="1529.8" r="4.0" fill="#22D3EE" opacity="0.45"/><circle cx="476.7" cy="1555.5" r="3.3" fill="#22D3EE" opacity="0.45"/><circle cx="35.8" cy="82.7" r="2.1" fill="#22D3EE" opacity="0.45"/></g>

<g opacity="0.779" filter="url(#hardGlow)">
  <circle cx="10.5" cy="1151.9" r="51.0" fill="#0A1224" opacity="0.65"/>
  <circle cx="10.5" cy="1151.9" r="51.0" fill="none" stroke="url(#strokeA)" stroke-width="4.1" opacity="0.85"/>
  <circle cx="10.5" cy="1151.9" r="43.9" fill="none" stroke="#A855F7" stroke-width="1.5" opacity="0.35"/>
  <polygon points="7.8,1115.2 40.8,1131.2 43.5,1167.8 13.2,1188.5 -19.9,1172.5 -22.6,1135.9" fill="none" stroke="url(#strokeB)" stroke-width="1.3" opacity="0.65"/>
  <polygon points="14.0,1139.5 19.4,1161.1 -2.0,1155.0" fill="#A855F7" opacity="0.22" filter="url(#softGlow)"/>
</g>


<g opacity="0.626" filter="url(#hardGlow)">
  <circle cx="-26.7" cy="1123.3" r="22.9" fill="#0A1224" opacity="0.65"/>
  <circle cx="-26.7" cy="1123.3" r="22.9" fill="none" stroke="url(#strokeA)" stroke-width="2.0" opacity="0.85"/>
  <circle cx="-26.7" cy="1123.3" r="19.7" fill="none" stroke="#22D3EE" stroke-width="1.5" opacity="0.35"/>
  <polygon points="-28.6,1106.9 -13.5,1113.5 -11.6,1129.9 -24.8,1139.7 -39.9,1133.1 -41.8,1116.7" fill="none" stroke="url(#strokeB)" stroke-width="1.2" opacity="0.65"/>
  
</g>


<g opacity="0.870" filter="url(#hardGlow)">
  <circle cx="776.8" cy="77.8" r="42.4" fill="#0A1224" opacity="0.65"/>
  <circle cx="776.8" cy="77.8" r="42.4" fill="none" stroke="url(#strokeA)" stroke-width="3.4" opacity="0.85"/>
  <circle cx="776.8" cy="77.8" r="36.4" fill="none" stroke="#A855F7" stroke-width="1.5" opacity="0.35"/>
  <polygon points="764.2,50.0 794.5,53.0 807.1,80.8 789.4,105.6 759.0,102.6 746.4,74.9" fill="none" stroke="url(#strokeB)" stroke-width="1.2" opacity="0.65"/>
  <polygon points="776.0,67.2 786.4,82.5 768.0,83.9" fill="#A855F7" opacity="0.22" filter="url(#softGlow)"/>
</g>


<g opacity="0.534" filter="url(#hardGlow)">
  <circle cx="716.1" cy="54.9" r="19.7" fill="#0A1224" opacity="0.65"/>
  <circle cx="716.1" cy="54.9" r="19.7" fill="none" stroke="url(#strokeA)" stroke-width="2.0" opacity="0.85"/>
  <circle cx="716.1" cy="54.9" r="16.9" fill="none" stroke="#22D3EE" stroke-width="1.5" opacity="0.35"/>
  <polygon points="713.1,41.0 726.6,45.4 729.5,59.2 719.0,68.7 705.5,64.4 702.6,50.5" fill="none" stroke="url(#strokeB)" stroke-width="1.2" opacity="0.65"/>
  <polygon points="716.7,50.0 720.0,57.9 711.5,56.7" fill="#22D3EE" opacity="0.22" filter="url(#softGlow)"/>
</g>


<g opacity="0.690" filter="url(#hardGlow)">
  <circle cx="847.8" cy="1490.7" r="35.3" fill="#0A1224" opacity="0.65"/>
  <circle cx="847.8" cy="1490.7" r="35.3" fill="none" stroke="url(#strokeA)" stroke-width="2.8" opacity="0.85"/>
  <circle cx="847.8" cy="1490.7" r="30.4" fill="none" stroke="#A855F7" stroke-width="1.5" opacity="0.35"/>
  <polygon points="828.4,1474.3 852.3,1465.7 871.7,1482.2 867.2,1507.2 843.2,1515.7 823.8,1499.3" fill="none" stroke="url(#strokeB)" stroke-width="1.2" opacity="0.65"/>
  <polygon points="843.4,1483.0 856.7,1490.8 843.3,1498.4" fill="#A855F7" opacity="0.22" filter="url(#softGlow)"/>
</g>


<g opacity="0.609" filter="url(#hardGlow)">
  <circle cx="876.1" cy="1518.9" r="16.3" fill="#0A1224" opacity="0.65"/>
  <circle cx="876.1" cy="1518.9" r="16.3" fill="none" stroke="url(#strokeA)" stroke-width="2.0" opacity="0.85"/>
  <circle cx="876.1" cy="1518.9" r="14.1" fill="none" stroke="#22D3EE" stroke-width="1.5" opacity="0.35"/>
  <polygon points="867.0,1511.4 878.1,1507.3 887.1,1514.8 885.2,1526.4 874.2,1530.5 865.1,1523.0" fill="none" stroke="url(#strokeB)" stroke-width="1.2" opacity="0.65"/>
  <polygon points="874.0,1515.3 880.2,1518.9 874.1,1522.5" fill="#22D3EE" opacity="0.22" filter="url(#softGlow)"/>
</g>


<g opacity="0.609" filter="url(#hardGlow)">
  <circle cx="842.6" cy="1458.2" r="13.7" fill="#0A1224" opacity="0.65"/>
  <circle cx="842.6" cy="1458.2" r="13.7" fill="none" stroke="url(#strokeA)" stroke-width="2.0" opacity="0.85"/>
  <circle cx="842.6" cy="1458.2" r="11.8" fill="none" stroke="#22D3EE" stroke-width="1.5" opacity="0.35"/>
  <polygon points="833.3,1461.7 834.9,1452.0 844.1,1448.4 851.8,1454.7 850.2,1464.4 841.0,1468.0" fill="none" stroke="url(#strokeB)" stroke-width="1.2" opacity="0.65"/>
  
</g>


<g opacity="0.785" filter="url(#hardGlow)">
  <circle cx="52.5" cy="1542.8" r="44.8" fill="#0A1224" opacity="0.65"/>
  <circle cx="52.5" cy="1542.8" r="44.8" fill="none" stroke="url(#strokeA)" stroke-width="3.6" opacity="0.85"/>
  <circle cx="52.5" cy="1542.8" r="38.6" fill="none" stroke="#A855F7" stroke-width="1.5" opacity="0.35"/>
  <polygon points="27.0,1562.5 22.7,1530.5 48.3,1510.8 78.1,1523.1 82.4,1555.1 56.8,1574.8" fill="none" stroke="url(#strokeB)" stroke-width="1.2" opacity="0.65"/>
  <polygon points="41.8,1546.2 55.0,1531.7 60.9,1550.4" fill="#A855F7" opacity="0.22" filter="url(#softGlow)"/>
</g>


<g opacity="0.436" filter="url(#hardGlow)">
  <circle cx="50.4" cy="1505.7" r="18.7" fill="#0A1224" opacity="0.65"/>
  <circle cx="50.4" cy="1505.7" r="18.7" fill="none" stroke="url(#strokeA)" stroke-width="2.0" opacity="0.85"/>
  <circle cx="50.4" cy="1505.7" r="16.0" fill="none" stroke="#22D3EE" stroke-width="1.5" opacity="0.35"/>
  <polygon points="62.3,1499.5 61.6,1513.0 49.7,1519.1 38.4,1511.8 39.1,1498.4 51.0,1492.2" fill="none" stroke="url(#strokeB)" stroke-width="1.2" opacity="0.65"/>
  <polygon points="55.0,1505.1 48.5,1510.0 47.5,1501.9" fill="#22D3EE" opacity="0.22" filter="url(#softGlow)"/>
</g>


<g opacity="0.749" filter="url(#hardGlow)">
  <circle cx="891.9" cy="1411.4" r="38.6" fill="#0A1224" opacity="0.65"/>
  <circle cx="891.9" cy="1411.4" r="38.6" fill="none" stroke="url(#strokeA)" stroke-width="3.1" opacity="0.85"/>
  <circle cx="891.9" cy="1411.4" r="33.2" fill="none" stroke="#A855F7" stroke-width="1.5" opacity="0.35"/>
  <polygon points="915.6,1396.9 916.3,1424.7 892.6,1439.2 868.2,1425.9 867.5,1398.1 891.2,1383.6" fill="none" stroke="url(#strokeB)" stroke-width="1.2" opacity="0.65"/>
  <polygon points="901.5,1409.5 888.8,1420.6 885.5,1404.1" fill="#A855F7" opacity="0.22" filter="url(#softGlow)"/>
</g>


<g opacity="0.488" filter="url(#hardGlow)">
  <circle cx="842.5" cy="1407.7" r="19.9" fill="#0A1224" opacity="0.65"/>
  <circle cx="842.5" cy="1407.7" r="19.9" fill="none" stroke="url(#strokeA)" stroke-width="2.0" opacity="0.85"/>
  <circle cx="842.5" cy="1407.7" r="17.1" fill="none" stroke="#22D3EE" stroke-width="1.5" opacity="0.35"/>
  <polygon points="834.6,1419.7 828.2,1406.9 836.0,1394.9 850.4,1395.7 856.8,1408.5 849.0,1420.5" fill="none" stroke="url(#strokeB)" stroke-width="1.2" opacity="0.65"/>
  
</g>


<g opacity="0.783" filter="url(#hardGlow)">
  <circle cx="44.5" cy="28.3" r="50.7" fill="#0A1224" opacity="0.65"/>
  <circle cx="44.5" cy="28.3" r="50.7" fill="none" stroke="url(#strokeA)" stroke-width="4.1" opacity="0.85"/>
  <circle cx="44.5" cy="28.3" r="43.6" fill="none" stroke="#A855F7" stroke-width="1.5" opacity="0.35"/>
  <polygon points="13.5,47.5 12.4,11.0 43.4,-8.2 75.5,9.0 76.7,45.5 45.7,64.7" fill="none" stroke="url(#strokeB)" stroke-width="1.3" opacity="0.65"/>
  <polygon points="32.0,30.9 48.5,16.1 53.1,37.8" fill="#A855F7" opacity="0.22" filter="url(#softGlow)"/>
</g>


<g opacity="0.550" filter="url(#hardGlow)">
  <circle cx="-16.1" cy="41.1" r="27.8" fill="#0A1224" opacity="0.65"/>
  <circle cx="-16.1" cy="41.1" r="27.8" fill="none" stroke="url(#strokeA)" stroke-width="2.2" opacity="0.85"/>
  <circle cx="-16.1" cy="41.1" r="23.9" fill="none" stroke="#22D3EE" stroke-width="1.5" opacity="0.35"/>
  <polygon points="-11.4,60.6 -30.6,54.9 -35.3,35.4 -20.7,21.6 -1.5,27.3 3.2,46.8" fill="none" stroke="url(#strokeB)" stroke-width="1.2" opacity="0.65"/>
  
</g>


<g opacity="0.785" filter="url(#hardGlow)">
  <circle cx="98.5" cy="4.3" r="45.0" fill="#0A1224" opacity="0.65"/>
  <circle cx="98.5" cy="4.3" r="45.0" fill="none" stroke="url(#strokeA)" stroke-width="3.6" opacity="0.85"/>
  <circle cx="98.5" cy="4.3" r="38.7" fill="none" stroke="#A855F7" stroke-width="1.5" opacity="0.35"/>
  <polygon points="129.9,11.8 107.7,35.4 76.2,27.9 67.0,-3.1 89.2,-26.7 120.7,-19.2" fill="none" stroke="url(#strokeB)" stroke-width="1.2" opacity="0.65"/>
  <polygon points="107.9,10.6 88.3,9.4 99.1,-7.0" fill="#A855F7" opacity="0.22" filter="url(#softGlow)"/>
</g>


<g opacity="0.433" filter="url(#hardGlow)">
  <circle cx="117.5" cy="-48.1" r="18.5" fill="#0A1224" opacity="0.65"/>
  <circle cx="117.5" cy="-48.1" r="18.5" fill="none" stroke="url(#strokeA)" stroke-width="2.0" opacity="0.85"/>
  <circle cx="117.5" cy="-48.1" r="15.9" fill="none" stroke="#22D3EE" stroke-width="1.5" opacity="0.35"/>
  <polygon points="105.0,-43.4 107.2,-56.6 119.7,-61.3 130.0,-52.8 127.8,-39.6 115.3,-35.0" fill="none" stroke="url(#strokeB)" stroke-width="1.2" opacity="0.65"/>
  
</g>


<g opacity="0.338" transform="translate(799.6,57.2) rotate(7.3)" filter="url(#softGlow)">
  <rect x="-76.8" y="-59.6" width="153.6" height="119.3" rx="11.9" fill="#050A12" opacity="0.25"/>
  <rect x="-76.8" y="-59.6" width="153.6" height="119.3" rx="11.9" fill="none" stroke="url(#strokeA)" stroke-width="6.0" opacity="0.85"/>
  <rect x="-67.2" y="-50.1" width="134.5" height="100.2" rx="8.3" fill="none" stroke="#F59E0B" stroke-width="2.4" opacity="0.35"/>
</g>


<g opacity="0.436" transform="translate(60.6,1557.9) rotate(-5.9)" filter="url(#softGlow)">
  <rect x="-82.5" y="-71.0" width="165.0" height="141.9" rx="14.2" fill="#050A12" opacity="0.25"/>
  <rect x="-82.5" y="-71.0" width="165.0" height="141.9" rx="14.2" fill="none" stroke="url(#strokeA)" stroke-width="7.1" opacity="0.85"/>
  <rect x="-71.1" y="-59.6" width="142.3" height="119.2" rx="9.9" fill="none" stroke="#F59E0B" stroke-width="2.8" opacity="0.35"/>
</g>


<g opacity="0.284" transform="translate(610.4,130.5) rotate(2.6)" filter="url(#softGlow)">
  <rect x="-75.0" y="-62.2" width="150.0" height="124.3" rx="12.4" fill="#050A12" opacity="0.25"/>
  <rect x="-75.0" y="-62.2" width="150.0" height="124.3" rx="12.4" fill="none" stroke="url(#strokeA)" stroke-width="6.2" opacity="0.85"/>
  <rect x="-65.0" y="-52.2" width="130.1" height="104.4" rx="8.7" fill="none" stroke="#A855F7" stroke-width="2.5" opacity="0.35"/>
</g>


<g opacity="0.306" transform="translate(885.3,1498.9) rotate(-4.7)" filter="url(#softGlow)">
  <rect x="-84.5" y="-65.4" width="169.1" height="130.8" rx="13.1" fill="#050A12" opacity="0.25"/>
  <rect x="-84.5" y="-65.4" width="169.1" height="130.8" rx="13.1" fill="none" stroke="url(#strokeA)" stroke-width="6.5" opacity="0.85"/>
  <rect x="-74.1" y="-54.9" width="148.2" height="109.9" rx="9.2" fill="none" stroke="#A855F7" stroke-width="2.6" opacity="0.35"/>
</g>


<g opacity="0.387" transform="translate(763.7,143.8) rotate(2.4)" filter="url(#softGlow)">
  <rect x="-83.8" y="-71.4" width="167.7" height="142.7" rx="14.3" fill="#050A12" opacity="0.25"/>
  <rect x="-83.8" y="-71.4" width="167.7" height="142.7" rx="14.3" fill="none" stroke="url(#strokeA)" stroke-width="7.1" opacity="0.85"/>
  <rect x="-72.4" y="-59.9" width="144.8" height="119.9" rx="10.0" fill="none" stroke="#A855F7" stroke-width="2.9" opacity="0.35"/>
</g>


<g opacity="0.341" transform="translate(847.8,1566.4) rotate(-0.3)" filter="url(#softGlow)">
  <rect x="-43.3" y="-25.0" width="86.6" height="49.9" rx="15.2" fill="none" stroke="#F59E0B" stroke-width="8.3" opacity="0.55"/>
  <rect x="-19.1" y="-12.5" width="86.6" height="49.9" rx="15.2" fill="none" stroke="url(#strokeA)" stroke-width="6.9" opacity="0.55"/>
</g>


<g opacity="0.446" transform="translate(774.7,1573.7) rotate(-17.3)" filter="url(#softGlow)">
  <rect x="-49.8" y="-28.7" width="99.6" height="57.4" rx="17.5" fill="none" stroke="#22D3EE" stroke-width="9.6" opacity="0.55"/>
  <rect x="-21.9" y="-14.3" width="99.6" height="57.4" rx="17.5" fill="none" stroke="url(#strokeA)" stroke-width="8.0" opacity="0.55"/>
</g>


<g opacity="0.426" transform="translate(663.2,49.6) rotate(3.8)" filter="url(#softGlow)">
  <rect x="-35.3" y="-20.3" width="70.7" height="40.7" rx="12.4" fill="none" stroke="#22D3EE" stroke-width="6.8" opacity="0.55"/>
  <rect x="-15.5" y="-10.2" width="70.7" height="40.7" rx="12.4" fill="none" stroke="url(#strokeA)" stroke-width="5.7" opacity="0.55"/>
</g>


<g opacity="0.222" transform="translate(168.0,1495.7) rotate(10.2)" filter="url(#softGlow)">
  <rect x="-32.6" y="-18.8" width="65.3" height="37.6" rx="11.5" fill="none" stroke="#A855F7" stroke-width="6.3" opacity="0.55"/>
  <rect x="-14.4" y="-9.4" width="65.3" height="37.6" rx="11.5" fill="none" stroke="url(#strokeA)" stroke-width="5.2" opacity="0.55"/>
</g>


<g opacity="0.458" transform="translate(800.2,1501.4) rotate(7.3)" filter="url(#softGlow)">
  <rect x="-45.8" y="-26.4" width="91.5" height="52.7" rx="16.1" fill="none" stroke="#A855F7" stroke-width="8.8" opacity="0.55"/>
  <rect x="-20.1" y="-13.2" width="91.5" height="52.7" rx="16.1" fill="none" stroke="url(#strokeA)" stroke-width="7.3" opacity="0.55"/>
</g>


<g opacity="0.312" transform="translate(146.9,40.2) rotate(-7.0)" filter="url(#softGlow)">
  <rect x="-49.5" y="-28.5" width="99.0" height="57.0" rx="17.4" fill="none" stroke="#A855F7" stroke-width="9.5" opacity="0.55"/>
  <rect x="-21.8" y="-14.3" width="99.0" height="57.0" rx="17.4" fill="none" stroke="url(#strokeA)" stroke-width="7.9" opacity="0.55"/>
</g>


<g opacity="0.261" transform="translate(769.1,1474.5) rotate(11.8)" filter="url(#softGlow)">
  <rect x="-41.7" y="-24.0" width="83.5" height="48.1" rx="14.7" fill="none" stroke="#F59E0B" stroke-width="8.0" opacity="0.55"/>
  <rect x="-18.4" y="-12.0" width="83.5" height="48.1" rx="14.7" fill="none" stroke="url(#strokeA)" stroke-width="6.7" opacity="0.55"/>
</g>


<g opacity="0.396" transform="translate(38.7,1522.2) rotate(11.2)" filter="url(#softGlow)">
  <rect x="-45.4" y="-26.2" width="90.8" height="52.3" rx="16.0" fill="none" stroke="#F59E0B" stroke-width="8.7" opacity="0.55"/>
  <rect x="-20.0" y="-13.1" width="90.8" height="52.3" rx="16.0" fill="none" stroke="url(#strokeA)" stroke-width="7.3" opacity="0.55"/>
</g>


<g opacity="0.214">
  <line x1="167.1" y1="1398.1" x2="167.1" y2="1500.5" stroke="#22D3EE" stroke-width="2.19" opacity="0.45"/>
  <rect x="162.8" y="1452.8" width="8.6" height="54.5" rx="2.9" fill="#0B1020" opacity="0.55" stroke="url(#strokeA)" stroke-width="1.2"/>
</g>

<g opacity="0.214">
  <line x1="526.0" y1="1407.9" x2="526.0" y2="1498.1" stroke="#22D3EE" stroke-width="2.14" opacity="0.45"/>
  <rect x="521.8" y="1460.8" width="8.2" height="38.4" rx="2.7" fill="#0B1020" opacity="0.55" stroke="url(#strokeA)" stroke-width="1.2"/>
</g>

<g opacity="0.214">
  <line x1="332.9" y1="1391.6" x2="332.9" y2="1502.1" stroke="#22D3EE" stroke-width="1.22" opacity="0.45"/>
  <rect x="329.9" y="1452.4" width="6.0" height="55.3" rx="2.0" fill="#0B1020" opacity="0.55" stroke="url(#strokeA)" stroke-width="1.2"/>
</g>

<g opacity="0.214">
  <line x1="286.7" y1="1394.2" x2="286.7" y2="1501.5" stroke="#22D3EE" stroke-width="1.11" opacity="0.45"/>
  <rect x="283.2" y="1450.6" width="7.0" height="58.9" rx="2.3" fill="#0B1020" opacity="0.55" stroke="url(#strokeA)" stroke-width="1.2"/>
</g>

<g opacity="0.214">
  <line x1="732.1" y1="1402.1" x2="732.1" y2="1499.5" stroke="#22D3EE" stroke-width="1.99" opacity="0.45"/>
  <rect x="726.7" y="1452.4" width="10.9" height="55.2" rx="3.6" fill="#0B1020" opacity="0.55" stroke="url(#strokeA)" stroke-width="1.2"/>
</g>

<g opacity="0.214">
  <line x1="615.0" y1="1402.9" x2="615.0" y2="1499.3" stroke="#22D3EE" stroke-width="1.87" opacity="0.45"/>
  <rect x="609.4" y="1454.9" width="11.3" height="50.3" rx="3.8" fill="#0B1020" opacity="0.55" stroke="url(#strokeA)" stroke-width="1.2"/>
</g>

<g opacity="0.214">
  <line x1="502.7" y1="1400.8" x2="502.7" y2="1499.8" stroke="#22D3EE" stroke-width="1.21" opacity="0.45"/>
  <rect x="497.7" y="1459.6" width="10.1" height="40.8" rx="3.4" fill="#0B1020" opacity="0.55" stroke="url(#strokeA)" stroke-width="1.2"/>
</g>

<g opacity="0.214">
  <line x1="676.0" y1="1401.5" x2="676.0" y2="1499.7" stroke="#22D3EE" stroke-width="1.68" opacity="0.45"/>
  <rect x="672.1" y="1451.8" width="7.9" height="56.5" rx="2.6" fill="#0B1020" opacity="0.55" stroke="url(#strokeA)" stroke-width="1.2"/>
</g>

<g opacity="0.214">
  <line x1="63.5" y1="1415.1" x2="63.5" y2="1496.3" stroke="#22D3EE" stroke-width="1.01" opacity="0.45"/>
  <rect x="58.9" y="1452.9" width="9.2" height="54.3" rx="3.1" fill="#0B1020" opacity="0.55" stroke="url(#strokeA)" stroke-width="1.2"/>
</g>

<g opacity="0.214">
  <line x1="460.0" y1="1432.8" x2="460.0" y2="1491.8" stroke="#22D3EE" stroke-width="1.40" opacity="0.45"/>
  <rect x="456.4" y="1467.1" width="7.2" height="25.8" rx="2.4" fill="#0B1020" opacity="0.55" stroke="url(#strokeA)" stroke-width="1.2"/>
</g>

<g opacity="0.214">
  <line x1="61.9" y1="1439.5" x2="61.9" y2="1490.1" stroke="#22D3EE" stroke-width="1.25" opacity="0.45"/>
  <rect x="57.0" y="1470.7" width="9.7" height="18.6" rx="3.2" fill="#0B1020" opacity="0.55" stroke="url(#strokeA)" stroke-width="1.2"/>
</g>

<g opacity="0.214">
  <line x1="635.7" y1="1406.8" x2="635.7" y2="1498.3" stroke="#22D3EE" stroke-width="1.98" opacity="0.45"/>
  <rect x="631.2" y="1454.7" width="8.9" height="50.6" rx="3.0" fill="#0B1020" opacity="0.55" stroke="url(#strokeA)" stroke-width="1.2"/>
</g>

<g opacity="0.214">
  <line x1="694.2" y1="1417.0" x2="694.2" y2="1495.8" stroke="#22D3EE" stroke-width="1.21" opacity="0.45"/>
  <rect x="689.4" y="1460.5" width="9.5" height="39.0" rx="3.2" fill="#0B1020" opacity="0.55" stroke="url(#strokeA)" stroke-width="1.2"/>
</g>
<circle cx="387.2" cy="52.9" r="1.4" fill="#A855F7" opacity="0.10" filter="url(#softGlow)"/>
<circle cx="133.9" cy="1550.4" r="3.0" fill="#A855F7" opacity="0.16" filter="url(#softGlow)"/>
<circle cx="214.2" cy="1420.7" r="2.6" fill="#A855F7" opacity="0.21" filter="url(#softGlow)"/>
<circle cx="114.1" cy="1563.6" r="2.6" fill="#A855F7" opacity="0.24" filter="url(#softGlow)"/>
<circle cx="746.1" cy="1420.5" r="1.6" fill="#A855F7" opacity="0.13" filter="url(#softGlow)"/>
<circle cx="312.8" cy="1431.2" r="2.4" fill="#A855F7" opacity="0.11" filter="url(#softGlow)"/>
<circle cx="124.2" cy="1497.3" r="1.4" fill="#A855F7" opacity="0.22" filter="url(#softGlow)"/>
<circle cx="837.8" cy="1570.6" r="2.7" fill="#A855F7" opacity="0.10" filter="url(#softGlow)"/>
<circle cx="128.2" cy="157.7" r="2.0" fill="#A855F7" opacity="0.14" filter="url(#softGlow)"/>
<circle cx="115.6" cy="72.8" r="2.6" fill="#A855F7" opacity="0.15" filter="url(#softGlow)"/>
<circle cx="119.2" cy="778.6" r="2.7" fill="#A855F7" opacity="0.23" filter="url(#softGlow)"/>
<circle cx="92.5" cy="1468.5" r="2.0" fill="#A855F7" opacity="0.23" filter="url(#softGlow)"/>
<circle cx="24.3" cy="1588.1" r="1.5" fill="#A855F7" opacity="0.27" filter="url(#softGlow)"/>
<circle cx="24.8" cy="98.1" r="1.6" fill="#A855F7" opacity="0.22" filter="url(#softGlow)"/>
<circle cx="135.8" cy="69.5" r="1.4" fill="#A855F7" opacity="0.10" filter="url(#softGlow)"/>
<circle cx="872.8" cy="560.1" r="2.5" fill="#A855F7" opacity="0.21" filter="url(#softGlow)"/>
<circle cx="846.2" cy="892.4" r="1.8" fill="#A855F7" opacity="0.27" filter="url(#softGlow)"/>
<circle cx="893.9" cy="1552.5" r="2.9" fill="#A855F7" opacity="0.17" filter="url(#softGlow)"/>
<circle cx="0.1" cy="892.8" r="1.4" fill="#A855F7" opacity="0.18" filter="url(#softGlow)"/>
<circle cx="883.3" cy="713.4" r="2.6" fill="#A855F7" opacity="0.11" filter="url(#softGlow)"/>
<circle cx="44.5" cy="1505.3" r="2.1" fill="#A855F7" opacity="0.14" filter="url(#softGlow)"/>
<circle cx="53.6" cy="603.1" r="1.8" fill="#A855F7" opacity="0.17" filter="url(#softGlow)"/>
<circle cx="151.2" cy="155.4" r="2.0" fill="#A855F7" opacity="0.20" filter="url(#softGlow)"/>
<circle cx="417.3" cy="1441.8" r="2.9" fill="#A855F7" opacity="0.17" filter="url(#softGlow)"/>
</svg>