<svg xmlns="http://www.w3.org/2000/svg" width="900" height="1600" viewBox="0 0 900 1600" preserveAspectRatio="xMidYMid slice">
<defs>
  <linearGradient id="g0" x1="0" y1="0" x2="1" y2="1">
    <stop offset="0" stop-color="#0B1020"/>
    <stop offset="0.55" stop-color="#2DD4BF" stop-opacity="0.9"/>
    <stop offset="1" stop-color="#020617"/>
  </linearGradient>
  <radialGradient id="g1" cx="20%" cy="15%" r="70%">
    <stop offset="0" stop-color="#60A5FA" stop-opacity="0.38"/>
    <stop offset="0.6" stop-color="#60A5FA" stop-opacity="0.08"/>
    <stop offset="1" stop-color="#60A5FA" stop-opacity="0"/>
  </radialGradient>
  <radialGradient id="g2" cx="85%" cy="80%" r="75%">
    <stop offset="0" stop-color="#60A5FA" stop-opacity="0.28"/>
    <stop offset="0.65" stop-color="#60A5FA" stop-opacity="0.06"/>
    <stop offset="1" stop-color="#60A5FA" stop-opacity="0"/>
  </radialGradient>
  <filter id="softGlow" x="-30%" y="-30%" width="160%" height="160%">
    <feGaussianBlur stdDeviation="12" result="b"/>
    <feMerge>
      <feMergeNode in="b"/>
      <feMergeNode in="SourceGraphic"/>
    </feMerge>
  </filter>
  <filter id="hardGlow" x="-40%" y="-40%" width="180%" height="180%">
    <feGaussianBlur stdDeviation="6" result="b"/>
    <feColorMatrix in="b" type="matrix" values="1 0 0 0 0  0 1 0 0 0  0 0 1 0 0  0 0 0 18 -7" result="c"/>
    <feMerge>
      <feMergeNode in="c"/>
      <feMergeNode in="SourceGraphic"/>
    </feMerge>
  </filter>
  <linearGradient id="strokeA" x1="0" y1="0" x2="1" y2="0">
    <stop offset="0" stop-color="#60A5FA" stop-opacity="0.9"/>
    <stop offset="0.5" stop-color="#FFFFFF" stop-opacity="0.25"/>
    <stop offset="1" stop-color="#60A5FA" stop-opacity="0.7"/>
  </linearGradient>
  <linearGradient id="strokeB" x1="0" y1="0" x2="0" y2="1">
    <stop offset="0" stop-color="#FFFFFF" stop-opacity="0.18"/>
    <stop offset="1" stop-color="#60A5FA" stop-opacity="0.55"/>
  </linearGradient>
</defs>
<rect x="0" y="0" width="900" height="1600" fill="url(#g0)"/>
<rect x="0" y="0" width="900" height="1600" fill="url(#g1)"/>
<rect x="0" y="0" width="900" height="1600" fill="url(#g2)"/>


<defs>
  <radialGradient id="vign" cx="0.5000" cy="0.5000" r="0.85">
    <stop offset="0" stop-color="#000000" stop-opacity="0"/>
    <stop offset="0.55" stop-color="#000000" stop-opacity="0.217"/>
    <stop offset="1" stop-color="#000000" stop-opacity="0.620"/>
  </radialGradient>
</defs>
<rect x="0" y="0" width="900" height="1600" fill="url(#vign)"/>

<g opacity="0.235" filter="url(#softGlow)"><path d="M 768.2,1501.6 L 723.8,1501.6 L 723.8,20.8 L 755.7,20.8 L 755.7,1589.2 " fill="none" stroke="url(#strokeB)" stroke-width="1.38" stroke-linecap="round" stroke-linejoin="round"/><circle cx="723.8" cy="20.8" r="2.8" fill="#60A5FA" opacity="0.45"/><circle cx="768.2" cy="1501.6" r="2.6" fill="#60A5FA" opacity="0.45"/><circle cx="723.8" cy="1501.6" r="3.8" fill="#60A5FA" opacity="0.45"/></g>
<g opacity="0.235" filter="url(#softGlow)"><path d="M 728.4,95.1 L 107.7,95.1 L 107.7,15.6 L 153.0,15.6 L 153.0,654.3 " fill="none" stroke="url(#strokeB)" stroke-width="2.01" stroke-linecap="round" stroke-linejoin="round"/><circle cx="728.4" cy="95.1" r="3.4" fill="#60A5FA" opacity="0.45"/><circle cx="153.0" cy="654.3" r="3.1" fill="#60A5FA" opacity="0.45"/><circle cx="107.7" cy="15.6" r="2.4" fill="#60A5FA" opacity="0.45"/></g>
<g opacity="0.235" filter="url(#softGlow)"><path d="M 814.1,1487.4 L 77.3,1487.4 L 77.3,1106.9 L 770.4,1106.9 L 770.4,83.6 " fill="none" stroke="url(#strokeB)" stroke-width="1.78" stroke-linecap="round" stroke-linejoin="round"/><circle cx="770.4" cy="1106.9" r="3.9" fill="#60A5FA" opacity="0.45"/><circle cx="814.1" cy="1487.4" r="2.1" fill="#60A5FA" opacity="0.45"/><circle cx="77.3" cy="1487.4" r="2.9" fill="#60A5FA" opacity="0.45"/></g>
<g opacity="0.235" filter="url(#softGlow)"><path d="M 846.5,1391.8 L 442.8,1391.8 L 442.8,1570.0 L 507.9,1570.0 L 507.9,1420.8 " fill="none" stroke="url(#strokeB)" stroke-width="1.84" stroke-linecap="round" stroke-linejoin="round"/><circle cx="846.5" cy="1391.8" r="2.9" fill="#60A5FA" opacity="0.45"/><circle cx="442.8" cy="1391.8" r="3.0" fill="#60A5FA" opacity="0.45"/><circle cx="507.9" cy="1420.8" r="2.1" fill="#60A5FA" opacity="0.45"/></g>
<g opacity="0.235" filter="url(#softGlow)"><path d="M 669.2,1538.4 L 425.5,1538.4 L 425.5,62.0 L 137.5,62.0 L 137.5,1178.2 " fill="none" stroke="url(#strokeB)" stroke-width="1.38" stroke-linecap="round" stroke-linejoin="round"/><circle cx="137.5" cy="1178.2" r="3.4" fill="#60A5FA" opacity="0.45"/><circle cx="425.5" cy="1538.4" r="2.4" fill="#60A5FA" opacity="0.45"/><circle cx="137.5" cy="62.0" r="3.7" fill="#60A5FA" opacity="0.45"/></g>
<g opacity="0.235" filter="url(#softGlow)"><path d="M 446.1,1565.6 L 603.0,1565.6 L 603.0,77.0 L 793.5,77.0 L 793.5,874.4 " fill="none" stroke="url(#strokeB)" stroke-width="1.84" stroke-linecap="round" stroke-linejoin="round"/><circle cx="446.1" cy="1565.6" r="3.7" fill="#60A5FA" opacity="0.45"/><circle cx="793.5" cy="874.4" r="2.3" fill="#60A5FA" opacity="0.45"/><circle cx="793.5" cy="77.0" r="2.6" fill="#60A5FA" opacity="0.45"/></g>
<g opacity="0.235" filter="url(#softGlow)"><path d="M 0.4,1578.2 L 168.3,1578.2 L 168.3,1504.0 L 861.0,1504.0 L 861.0,793.5 " fill="none" stroke="url(#strokeB)" stroke-width="2.11" stroke-linecap="round" stroke-linejoin="round"/><circle cx="168.3" cy="1504.0" r="3.7" fill="#60A5FA" opacity="0.45"/><circle cx="0.4" cy="1578.2" r="3.6" fill="#60A5FA" opacity="0.45"/><circle cx="861.0" cy="1504.0" r="3.1" fill="#60A5FA" opacity="0.45"/></g>
<g opacity="0.235" filter="url(#softGlow)"><path d="M 279.9,1580.4 L 889.3,1580.4 L 889.3,1532.1 L 151.7,1532.1 L 151.7,1527.4 " fill="none" stroke="url(#strokeB)" stroke-width="1.29" stroke-linecap="round" stroke-linejoin="round"/><circle cx="151.7" cy="1527.4" r="3.4" fill="#60A5FA" opacity="0.45"/><circle cx="151.7" cy="1532.1" r="3.4" fill="#60A5FA" opacity="0.45"/><circle cx="889.3" cy="1580.4" r="3.1" fill="#60A5FA" opacity="0.45"/></g>
<g opacity="0.235" filter="url(#softGlow)"><path d="M 19.2,152.8 L 759.1,152.8 L 759.1,1510.5 L 827.5,1510.5 L 827.5,110.1 " fill="none" stroke="url(#strokeB)" stroke-width="2.19" stroke-linecap="round" stroke-linejoin="round"/><circle cx="759.1" cy="1510.5" r="2.2" fill="#60A5FA" opacity="0.45"/><circle cx="759.1" cy="152.8" r="3.1" fill="#60A5FA" opacity="0.45"/><circle cx="827.5" cy="1510.5" r="3.7" fill="#60A5FA" opacity="0.45"/></g>
<g opacity="0.235" filter="url(#softGlow)"><path d="M 11.8,4.2 L 337.6,4.2 L 337.6,94.4 L 779.3,94.4 L 779.3,157.9 " fill="none" stroke="url(#strokeB)" stroke-width="1.99" stroke-linecap="round" stroke-linejoin="round"/><circle cx="11.8" cy="4.2" r="2.3" fill="#60A5FA" opacity="0.45"/><circle cx="337.6" cy="4.2" r="2.7" fill="#60A5FA" opacity="0.45"/><circle cx="337.6" cy="94.4" r="3.1" fill="#60A5FA" opacity="0.45"/></g>
<g opacity="0.235" filter="url(#softGlow)"><path d="M 499.3,1509.6 L 885.1,1509.6 L 885.1,1267.2 L 112.0,1267.2 L 112.0,351.6 " fill="none" stroke="url(#strokeB)" stroke-width="1.76" stroke-linecap="round" stroke-linejoin="round"/><circle cx="499.3" cy="1509.6" r="2.9" fill="#60A5FA" opacity="0.45"/><circle cx="112.0" cy="351.6" r="4.2" fill="#60A5FA" opacity="0.45"/><circle cx="885.1" cy="1267.2" r="3.3" fill="#60A5FA" opacity="0.45"/></g>
<g opacity="0.235" filter="url(#softGlow)"><path d="M 509.3,1581.4 L 57.3,1581.4 L 57.3,102.2 L 774.9,102.2 L 774.9,1593.4 " fill="none" stroke="url(#strokeB)" stroke-width="1.58" stroke-linecap="round" stroke-linejoin="round"/><circle cx="57.3" cy="102.2" r="3.0" fill="#60A5FA" opacity="0.45"/><circle cx="57.3" cy="1581.4" r="3.0" fill="#60A5FA" opacity="0.45"/><circle cx="774.9" cy="102.2" r="3.8" fill="#60A5FA" opacity="0.45"/></g>
<g opacity="0.235" filter="url(#softGlow)"><path d="M 879.8,1594.6 L 48.3,1594.6 L 48.3,34.3 L 828.4,34.3 L 828.4,619.0 " fill="none" stroke="url(#strokeB)" stroke-width="1.20" stroke-linecap="round" stroke-linejoin="round"/><circle cx="828.4" cy="619.0" r="3.4" fill="#60A5FA" opacity="0.45"/><circle cx="828.4" cy="34.3" r="2.3" fill="#60A5FA" opacity="0.45"/><circle cx="48.3" cy="1594.6" r="3.4" fill="#60A5FA" opacity="0.45"/></g>
<g opacity="0.235" filter="url(#softGlow)"><path d="M 721.5,1453.6 L 832.5,1453.6 L 832.5,928.0 L 122.5,928.0 L 122.5,1430.8 " fill="none" stroke="url(#strokeB)" stroke-width="2.11" stroke-linecap="round" stroke-linejoin="round"/><circle cx="122.5" cy="1430.8" r="2.4" fill="#60A5FA" opacity="0.45"/><circle cx="122.5" cy="928.0" r="2.0" fill="#60A5FA" opacity="0.45"/><circle cx="832.5" cy="928.0" r="2.7" fill="#60A5FA" opacity="0.45"/></g>
<g opacity="0.235" filter="url(#softGlow)"><path d="M 4.4,1595.9 L 851.9,1595.9 L 851.9,1441.7 L 4.7,1441.7 L 4.7,131.8 " fill="none" stroke="url(#strokeB)" stroke-width="2.07" stroke-linecap="round" stroke-linejoin="round"/><circle cx="851.9" cy="1595.9" r="4.1" fill="#60A5FA" opacity="0.45"/><circle cx="4.7" cy="1441.7" r="2.6" fill="#60A5FA" opacity="0.45"/><circle cx="4.4" cy="1595.9" r="3.0" fill="#60A5FA" opacity="0.45"/></g>

<g opacity="0.675" filter="url(#hardGlow)">
  <circle cx="851.8" cy="54.2" r="57.1" fill="#0A1224" opacity="0.65"/>
  <circle cx="851.8" cy="54.2" r="57.1" fill="none" stroke="url(#strokeA)" stroke-width="4.6" opacity="0.85"/>
  <circle cx="851.8" cy="54.2" r="49.1" fill="none" stroke="#F472B6" stroke-width="1.7" opacity="0.35"/>
  <polygon points="885.6,30.7 889.1,71.7 855.3,95.2 818.1,77.7 814.6,36.7 848.4,13.2" fill="none" stroke="url(#strokeB)" stroke-width="1.4" opacity="0.65"/>
  <polygon points="865.8,50.5 848.1,68.1 841.7,44.0" fill="#F472B6" opacity="0.22" filter="url(#softGlow)"/>
</g>


<g opacity="0.617" filter="url(#hardGlow)">
  <circle cx="852.9" cy="79.9" r="21.4" fill="#0A1224" opacity="0.65"/>
  <circle cx="852.9" cy="79.9" r="21.4" fill="none" stroke="url(#strokeA)" stroke-width="2.0" opacity="0.85"/>
  <circle cx="852.9" cy="79.9" r="18.4" fill="none" stroke="#60A5FA" stroke-width="1.5" opacity="0.35"/>
  <polygon points="866.1,71.9 866.4,87.3 853.2,95.2 839.8,87.8 839.5,72.5 852.6,64.5" fill="none" stroke="url(#strokeB)" stroke-width="1.2" opacity="0.65"/>
  
</g>


<g opacity="0.381" filter="url(#hardGlow)">
  <circle cx="762.1" cy="86.7" r="23.5" fill="#0A1224" opacity="0.65"/>
  <circle cx="762.1" cy="86.7" r="23.5" fill="none" stroke="url(#strokeA)" stroke-width="2.0" opacity="0.85"/>
  <circle cx="762.1" cy="86.7" r="20.2" fill="none" stroke="#60A5FA" stroke-width="1.5" opacity="0.35"/>
  <polygon points="767.8,102.6 751.2,99.6 745.4,83.7 756.4,70.8 773.0,73.8 778.7,89.7" fill="none" stroke="url(#strokeB)" stroke-width="1.2" opacity="0.65"/>
  <polygon points="762.1,92.6 757.0,83.7 767.2,83.7" fill="#60A5FA" opacity="0.22" filter="url(#softGlow)"/>
</g>


<g opacity="0.650" filter="url(#hardGlow)">
  <circle cx="772.2" cy="62.0" r="23.1" fill="#0A1224" opacity="0.65"/>
  <circle cx="772.2" cy="62.0" r="23.1" fill="none" stroke="url(#strokeA)" stroke-width="2.0" opacity="0.85"/>
  <circle cx="772.2" cy="62.0" r="19.9" fill="none" stroke="#60A5FA" stroke-width="1.5" opacity="0.35"/>
  <polygon points="772.6,78.6 758.0,70.7 757.6,54.1 771.8,45.4 786.4,53.3 786.8,70.0" fill="none" stroke="url(#strokeB)" stroke-width="1.2" opacity="0.65"/>
  
</g>


<g opacity="0.692" filter="url(#hardGlow)">
  <circle cx="94.1" cy="78.4" r="44.9" fill="#0A1224" opacity="0.65"/>
  <circle cx="94.1" cy="78.4" r="44.9" fill="none" stroke="url(#strokeA)" stroke-width="3.6" opacity="0.85"/>
  <circle cx="94.1" cy="78.4" r="38.6" fill="none" stroke="#F472B6" stroke-width="1.5" opacity="0.35"/>
  <polygon points="117.7,56.3 125.0,87.8 101.4,109.9 70.5,100.4 63.2,69.0 86.8,46.9" fill="none" stroke="url(#strokeB)" stroke-width="1.2" opacity="0.65"/>
  <polygon points="104.5,73.9 92.7,89.6 85.0,71.6" fill="#F472B6" opacity="0.22" filter="url(#softGlow)"/>
</g>


<g opacity="0.366" filter="url(#hardGlow)">
  <circle cx="32.6" cy="72.9" r="15.8" fill="#0A1224" opacity="0.65"/>
  <circle cx="32.6" cy="72.9" r="15.8" fill="none" stroke="url(#strokeA)" stroke-width="2.0" opacity="0.85"/>
  <circle cx="32.6" cy="72.9" r="13.6" fill="none" stroke="#60A5FA" stroke-width="1.5" opacity="0.35"/>
  <polygon points="21.2,72.9 27.0,63.0 38.4,63.1 44.0,73.0 38.3,82.8 26.9,82.8" fill="none" stroke="url(#strokeB)" stroke-width="1.2" opacity="0.65"/>
  
</g>


<g opacity="0.369" filter="url(#hardGlow)">
  <circle cx="128.0" cy="124.8" r="19.6" fill="#0A1224" opacity="0.65"/>
  <circle cx="128.0" cy="124.8" r="19.6" fill="none" stroke="url(#strokeA)" stroke-width="2.0" opacity="0.85"/>
  <circle cx="128.0" cy="124.8" r="16.8" fill="none" stroke="#60A5FA" stroke-width="1.5" opacity="0.35"/>
  <polygon points="138.5,134.1 125.2,138.6 114.6,129.2 117.4,115.4 130.8,110.9 141.3,120.3" fill="none" stroke="url(#strokeB)" stroke-width="1.2" opacity="0.65"/>
  
</g>


<g opacity="0.806" filter="url(#hardGlow)">
  <circle cx="4.3" cy="1587.0" r="46.9" fill="#0A1224" opacity="0.65"/>
  <circle cx="4.3" cy="1587.0" r="46.9" fill="none" stroke="url(#strokeA)" stroke-width="3.8" opacity="0.85"/>
  <circle cx="4.3" cy="1587.0" r="40.3" fill="none" stroke="#F472B6" stroke-width="1.5" opacity="0.35"/>
  <polygon points="37.0,1578.5 28.0,1611.0 -4.7,1619.5 -28.4,1595.5 -19.4,1562.9 13.3,1554.4" fill="none" stroke="url(#strokeB)" stroke-width="1.2" opacity="0.65"/>
  <polygon points="16.1,1588.1 -2.5,1596.6 -0.6,1576.2" fill="#F472B6" opacity="0.22" filter="url(#softGlow)"/>
</g>


<g opacity="0.362" filter="url(#hardGlow)">
  <circle cx="-14.3" cy="1551.7" r="21.5" fill="#0A1224" opacity="0.65"/>
  <circle cx="-14.3" cy="1551.7" r="21.5" fill="none" stroke="url(#strokeA)" stroke-width="2.0" opacity="0.85"/>
  <circle cx="-14.3" cy="1551.7" r="18.5" fill="none" stroke="#60A5FA" stroke-width="1.5" opacity="0.35"/>
  <polygon points="-28.3,1558.4 -27.1,1543.0 -13.1,1536.3 -0.3,1545.0 -1.5,1560.5 -15.5,1567.2" fill="none" stroke="url(#strokeB)" stroke-width="1.2" opacity="0.65"/>
  <polygon points="-19.7,1552.3 -12.1,1546.8 -11.1,1556.1" fill="#60A5FA" opacity="0.22" filter="url(#softGlow)"/>
</g>


<g opacity="0.375" filter="url(#hardGlow)">
  <circle cx="-23.2" cy="1535.3" r="16.7" fill="#0A1224" opacity="0.65"/>
  <circle cx="-23.2" cy="1535.3" r="16.7" fill="none" stroke="url(#strokeA)" stroke-width="2.0" opacity="0.85"/>
  <circle cx="-23.2" cy="1535.3" r="14.4" fill="none" stroke="#60A5FA" stroke-width="1.5" opacity="0.35"/>
  <polygon points="-23.0,1523.3 -12.7,1529.4 -12.8,1541.4 -23.3,1547.3 -33.6,1541.2 -33.5,1529.2" fill="none" stroke="url(#strokeB)" stroke-width="1.2" opacity="0.65"/>
  
</g>


<g opacity="0.826" filter="url(#hardGlow)">
  <circle cx="528.8" cy="33.4" r="49.6" fill="#0A1224" opacity="0.65"/>
  <circle cx="528.8" cy="33.4" r="49.6" fill="none" stroke="url(#strokeA)" stroke-width="4.0" opacity="0.85"/>
  <circle cx="528.8" cy="33.4" r="42.7" fill="none" stroke="#F472B6" stroke-width="1.5" opacity="0.35"/>
  <polygon points="502.4,9.3 536.4,-1.5 562.8,22.6 555.2,57.4 521.1,68.2 494.7,44.2" fill="none" stroke="url(#strokeB)" stroke-width="1.2" opacity="0.65"/>
  <polygon points="523.0,22.3 541.3,33.9 522.1,43.9" fill="#F472B6" opacity="0.22" filter="url(#softGlow)"/>
</g>


<g opacity="0.634" filter="url(#hardGlow)">
  <circle cx="604.1" cy="41.2" r="26.7" fill="#0A1224" opacity="0.65"/>
  <circle cx="604.1" cy="41.2" r="26.7" fill="none" stroke="url(#strokeA)" stroke-width="2.1" opacity="0.85"/>
  <circle cx="604.1" cy="41.2" r="23.0" fill="none" stroke="#60A5FA" stroke-width="1.5" opacity="0.35"/>
  <polygon points="621.4,32.8 620.0,52.0 602.7,60.4 586.8,49.5 588.2,30.3 605.5,22.0" fill="none" stroke="url(#strokeB)" stroke-width="1.2" opacity="0.65"/>
  <polygon points="610.8,40.5 601.3,47.3 600.2,35.7" fill="#60A5FA" opacity="0.22" filter="url(#softGlow)"/>
</g>


<g opacity="0.808" filter="url(#hardGlow)">
  <circle cx="796.1" cy="1532.4" r="52.4" fill="#0A1224" opacity="0.65"/>
  <circle cx="796.1" cy="1532.4" r="52.4" fill="none" stroke="url(#strokeA)" stroke-width="4.2" opacity="0.85"/>
  <circle cx="796.1" cy="1532.4" r="45.1" fill="none" stroke="#F472B6" stroke-width="1.6" opacity="0.35"/>
  <polygon points="797.6,1494.7 829.5,1514.8 828.0,1552.6 794.6,1570.1 762.7,1550.0 764.2,1512.2" fill="none" stroke="url(#strokeB)" stroke-width="1.3" opacity="0.65"/>
  <polygon points="801.1,1520.2 804.2,1542.8 783.0,1534.2" fill="#F472B6" opacity="0.22" filter="url(#softGlow)"/>
</g>


<g opacity="0.540" filter="url(#hardGlow)">
  <circle cx="759.9" cy="1572.3" r="26.2" fill="#0A1224" opacity="0.65"/>
  <circle cx="759.9" cy="1572.3" r="26.2" fill="none" stroke="url(#strokeA)" stroke-width="2.1" opacity="0.85"/>
  <circle cx="759.9" cy="1572.3" r="22.6" fill="none" stroke="#60A5FA" stroke-width="1.5" opacity="0.35"/>
  <polygon points="764.4,1554.0 778.0,1567.1 773.5,1585.4 755.3,1590.7 741.7,1577.6 746.3,1559.2" fill="none" stroke="url(#strokeB)" stroke-width="1.2" opacity="0.65"/>
  <polygon points="763.6,1566.9 762.8,1578.3 753.3,1571.9" fill="#60A5FA" opacity="0.22" filter="url(#softGlow)"/>
</g>


<g opacity="0.383" filter="url(#hardGlow)">
  <circle cx="801.5" cy="1483.4" r="25.9" fill="#0A1224" opacity="0.65"/>
  <circle cx="801.5" cy="1483.4" r="25.9" fill="none" stroke="url(#strokeA)" stroke-width="2.1" opacity="0.85"/>
  <circle cx="801.5" cy="1483.4" r="22.3" fill="none" stroke="#60A5FA" stroke-width="1.5" opacity="0.35"/>
  <polygon points="816.8,1472.8 818.3,1491.4 803.0,1502.0 786.1,1494.0 784.6,1475.4 800.0,1464.8" fill="none" stroke="url(#strokeB)" stroke-width="1.2" opacity="0.65"/>
  
</g>


<g opacity="0.782" filter="url(#hardGlow)">
  <circle cx="496.1" cy="1517.8" r="53.0" fill="#0A1224" opacity="0.65"/>
  <circle cx="496.1" cy="1517.8" r="53.0" fill="none" stroke="url(#strokeA)" stroke-width="4.2" opacity="0.85"/>
  <circle cx="496.1" cy="1517.8" r="45.6" fill="none" stroke="#F472B6" stroke-width="1.6" opacity="0.35"/>
  <polygon points="464.2,1496.8 498.3,1479.7 530.2,1500.6 528.0,1538.7 493.9,1555.9 462.0,1534.9" fill="none" stroke="url(#strokeB)" stroke-width="1.3" opacity="0.65"/>
  <polygon points="488.1,1507.1 509.3,1516.2 490.8,1530.0" fill="#F472B6" opacity="0.22" filter="url(#softGlow)"/>
</g>


<g opacity="0.457" filter="url(#hardGlow)">
  <circle cx="539.9" cy="1515.0" r="19.4" fill="#0A1224" opacity="0.65"/>
  <circle cx="539.9" cy="1515.0" r="19.4" fill="none" stroke="url(#strokeA)" stroke-width="2.0" opacity="0.85"/>
  <circle cx="539.9" cy="1515.0" r="16.7" fill="none" stroke="#60A5FA" stroke-width="1.5" opacity="0.35"/>
  <polygon points="542.2,1501.2 553.0,1510.1 550.7,1523.9 537.6,1528.8 526.8,1519.9 529.1,1506.1" fill="none" stroke="url(#strokeB)" stroke-width="1.2" opacity="0.65"/>
  
</g>


<g opacity="0.658" filter="url(#hardGlow)">
  <circle cx="463.1" cy="1566.9" r="36.2" fill="#0A1224" opacity="0.65"/>
  <circle cx="463.1" cy="1566.9" r="36.2" fill="none" stroke="url(#strokeA)" stroke-width="2.9" opacity="0.85"/>
  <circle cx="463.1" cy="1566.9" r="31.1" fill="none" stroke="#F472B6" stroke-width="1.5" opacity="0.35"/>
  <polygon points="437.1,1566.9 450.1,1544.3 476.1,1544.3 489.2,1566.9 476.2,1589.5 450.1,1589.5" fill="none" stroke="url(#strokeB)" stroke-width="1.2" opacity="0.65"/>
  <polygon points="454.5,1563.8 470.1,1561.0 464.7,1575.9" fill="#F472B6" opacity="0.22" filter="url(#softGlow)"/>
</g>


<g opacity="0.607" filter="url(#hardGlow)">
  <circle cx="503.6" cy="1578.4" r="13.5" fill="#0A1224" opacity="0.65"/>
  <circle cx="503.6" cy="1578.4" r="13.5" fill="none" stroke="url(#strokeA)" stroke-width="2.0" opacity="0.85"/>
  <circle cx="503.6" cy="1578.4" r="11.6" fill="none" stroke="#60A5FA" stroke-width="1.5" opacity="0.35"/>
  <polygon points="513.3,1577.7 509.1,1586.5 499.4,1587.2 493.9,1579.2 498.1,1570.4 507.8,1569.7" fill="none" stroke="url(#strokeB)" stroke-width="1.2" opacity="0.65"/>
  <polygon points="506.9,1579.4 501.1,1580.8 502.7,1575.1" fill="#60A5FA" opacity="0.22" filter="url(#softGlow)"/>
</g>


<g opacity="0.489" filter="url(#hardGlow)">
  <circle cx="426.4" cy="1554.9" r="14.7" fill="#0A1224" opacity="0.65"/>
  <circle cx="426.4" cy="1554.9" r="14.7" fill="none" stroke="url(#strokeA)" stroke-width="2.0" opacity="0.85"/>
  <circle cx="426.4" cy="1554.9" r="12.6" fill="none" stroke="#60A5FA" stroke-width="1.5" opacity="0.35"/>
  <polygon points="435.4,1560.4 426.1,1565.5 417.1,1559.9 417.4,1549.3 426.7,1544.3 435.7,1549.8" fill="none" stroke="url(#strokeB)" stroke-width="1.2" opacity="0.65"/>
  <polygon points="428.7,1557.8 422.8,1555.4 427.8,1551.4" fill="#60A5FA" opacity="0.22" filter="url(#softGlow)"/>
</g>


<g opacity="0.487" filter="url(#hardGlow)">
  <circle cx="520.0" cy="1582.5" r="18.5" fill="#0A1224" opacity="0.65"/>
  <circle cx="520.0" cy="1582.5" r="18.5" fill="none" stroke="url(#strokeA)" stroke-width="2.0" opacity="0.85"/>
  <circle cx="520.0" cy="1582.5" r="15.9" fill="none" stroke="#60A5FA" stroke-width="1.5" opacity="0.35"/>
  <polygon points="507.9,1576.9 518.8,1569.2 530.9,1574.8 532.1,1588.1 521.2,1595.8 509.1,1590.1" fill="none" stroke="url(#strokeB)" stroke-width="1.2" opacity="0.65"/>
  
</g>


<g opacity="0.287" transform="translate(790.0,1438.3) rotate(3.6)" filter="url(#softGlow)">
  <rect x="-75.0" y="-54.3" width="150.1" height="108.6" rx="10.9" fill="#050A12" opacity="0.25"/>
  <rect x="-75.0" y="-54.3" width="150.1" height="108.6" rx="10.9" fill="none" stroke="url(#strokeA)" stroke-width="5.4" opacity="0.85"/>
  <rect x="-66.3" y="-45.6" width="132.7" height="91.3" rx="7.6" fill="none" stroke="#F472B6" stroke-width="2.2" opacity="0.35"/>
</g>


<g opacity="0.345" transform="translate(890.8,53.6) rotate(7.9)" filter="url(#softGlow)">
  <rect x="-66.7" y="-58.0" width="133.3" height="116.0" rx="11.6" fill="#050A12" opacity="0.25"/>
  <rect x="-66.7" y="-58.0" width="133.3" height="116.0" rx="11.6" fill="none" stroke="url(#strokeA)" stroke-width="5.8" opacity="0.85"/>
  <rect x="-57.4" y="-48.7" width="114.8" height="97.5" rx="8.1" fill="none" stroke="#F472B6" stroke-width="2.3" opacity="0.35"/>
</g>


<g opacity="0.356" transform="translate(257.5,1471.7) rotate(-8.6)" filter="url(#softGlow)">
  <rect x="-71.4" y="-56.1" width="142.9" height="112.2" rx="11.2" fill="#050A12" opacity="0.25"/>
  <rect x="-71.4" y="-56.1" width="142.9" height="112.2" rx="11.2" fill="none" stroke="url(#strokeA)" stroke-width="5.6" opacity="0.85"/>
  <rect x="-62.5" y="-47.1" width="124.9" height="94.3" rx="7.9" fill="none" stroke="#F472B6" stroke-width="2.2" opacity="0.35"/>
</g>


<g opacity="0.402" transform="translate(831.3,1570.5) rotate(3.4)" filter="url(#softGlow)">
  <rect x="-93.7" y="-79.3" width="187.4" height="158.6" rx="15.9" fill="#050A12" opacity="0.25"/>
  <rect x="-93.7" y="-79.3" width="187.4" height="158.6" rx="15.9" fill="none" stroke="url(#strokeA)" stroke-width="7.9" opacity="0.85"/>
  <rect x="-81.0" y="-66.6" width="162.0" height="133.2" rx="11.1" fill="none" stroke="#F472B6" stroke-width="3.2" opacity="0.35"/>
</g>


<g opacity="0.365" transform="translate(125.3,29.6) rotate(3.2)" filter="url(#softGlow)">
  <rect x="-65.2" y="-49.4" width="130.4" height="98.8" rx="9.9" fill="#050A12" opacity="0.25"/>
  <rect x="-65.2" y="-49.4" width="130.4" height="98.8" rx="9.9" fill="none" stroke="url(#strokeA)" stroke-width="4.9" opacity="0.85"/>
  <rect x="-57.3" y="-41.5" width="114.6" height="83.0" rx="6.9" fill="none" stroke="#F472B6" stroke-width="2.0" opacity="0.35"/>
</g>


<g opacity="0.355" transform="translate(787.4,82.1) rotate(-5.4)" filter="url(#softGlow)">
  <rect x="-37.6" y="-21.6" width="75.1" height="43.3" rx="13.2" fill="none" stroke="#F472B6" stroke-width="7.2" opacity="0.55"/>
  <rect x="-16.5" y="-10.8" width="75.1" height="43.3" rx="13.2" fill="none" stroke="url(#strokeA)" stroke-width="6.0" opacity="0.55"/>
</g>


<g opacity="0.340" transform="translate(31.6,1513.4) rotate(-12.3)" filter="url(#softGlow)">
  <rect x="-36.2" y="-20.8" width="72.3" height="41.7" rx="12.7" fill="none" stroke="#F472B6" stroke-width="6.9" opacity="0.55"/>
  <rect x="-15.9" y="-10.4" width="72.3" height="41.7" rx="12.7" fill="none" stroke="url(#strokeA)" stroke-width="5.8" opacity="0.55"/>
</g>


<g opacity="0.356" transform="translate(880.8,1532.4) rotate(14.6)" filter="url(#softGlow)">
  <rect x="-30.8" y="-17.8" width="61.7" height="35.5" rx="10.9" fill="none" stroke="#60A5FA" stroke-width="5.9" opacity="0.55"/>
  <rect x="-13.6" y="-8.9" width="61.7" height="35.5" rx="10.9" fill="none" stroke="url(#strokeA)" stroke-width="4.9" opacity="0.55"/>
</g>


<g opacity="0.474" transform="translate(844.2,1536.2) rotate(-7.4)" filter="url(#softGlow)">
  <rect x="-32.4" y="-18.7" width="64.8" height="37.3" rx="11.4" fill="none" stroke="#60A5FA" stroke-width="6.2" opacity="0.55"/>
  <rect x="-14.3" y="-9.3" width="64.8" height="37.3" rx="11.4" fill="none" stroke="url(#strokeA)" stroke-width="5.2" opacity="0.55"/>
</g>


<g opacity="0.424" transform="translate(280.1,72.4) rotate(15.8)" filter="url(#softGlow)">
  <rect x="-46.5" y="-26.8" width="92.9" height="53.5" rx="16.4" fill="none" stroke="#F472B6" stroke-width="8.9" opacity="0.55"/>
  <rect x="-20.4" y="-13.4" width="92.9" height="53.5" rx="16.4" fill="none" stroke="url(#strokeA)" stroke-width="7.4" opacity="0.55"/>
</g>


<g opacity="0.323" transform="translate(885.3,149.0) rotate(-17.5)" filter="url(#softGlow)">
  <rect x="-40.4" y="-23.3" width="80.7" height="46.5" rx="14.2" fill="none" stroke="#F472B6" stroke-width="7.8" opacity="0.55"/>
  <rect x="-17.8" y="-11.6" width="80.7" height="46.5" rx="14.2" fill="none" stroke="url(#strokeA)" stroke-width="6.5" opacity="0.55"/>
</g>


<g opacity="0.252" transform="translate(812.4,810.5) rotate(16.5)" filter="url(#softGlow)">
  <rect x="-29.0" y="-16.7" width="58.0" height="33.4" rx="10.2" fill="none" stroke="#F472B6" stroke-width="5.6" opacity="0.55"/>
  <rect x="-12.8" y="-8.4" width="58.0" height="33.4" rx="10.2" fill="none" stroke="url(#strokeA)" stroke-width="4.6" opacity="0.55"/>
</g>


<g opacity="0.466" transform="translate(792.9,130.2) rotate(10.4)" filter="url(#softGlow)">
  <rect x="-33.8" y="-19.5" width="67.7" height="39.0" rx="11.9" fill="none" stroke="#60A5FA" stroke-width="6.5" opacity="0.55"/>
  <rect x="-14.9" y="-9.7" width="67.7" height="39.0" rx="11.9" fill="none" stroke="url(#strokeA)" stroke-width="5.4" opacity="0.55"/>
</g>


<g opacity="0.157">
  <line x1="331.9" y1="1425.7" x2="331.9" y2="1526.8" stroke="#60A5FA" stroke-width="1.30" opacity="0.45"/>
  <rect x="327.9" y="1478.7" width="8.0" height="55.7" rx="2.7" fill="#0B1020" opacity="0.55" stroke="url(#strokeA)" stroke-width="1.2"/>
</g>

<g opacity="0.157">
  <line x1="571.6" y1="1439.9" x2="571.6" y2="1523.2" stroke="#60A5FA" stroke-width="1.42" opacity="0.45"/>
  <rect x="567.7" y="1486.9" width="7.7" height="39.3" rx="2.6" fill="#0B1020" opacity="0.55" stroke="url(#strokeA)" stroke-width="1.2"/>
</g>

<g opacity="0.157">
  <line x1="371.7" y1="1455.5" x2="371.7" y2="1519.3" stroke="#60A5FA" stroke-width="1.44" opacity="0.45"/>
  <rect x="367.7" y="1492.7" width="8.0" height="27.8" rx="2.7" fill="#0B1020" opacity="0.55" stroke="url(#strokeA)" stroke-width="1.2"/>
</g>

<g opacity="0.157">
  <line x1="505.7" y1="1432.3" x2="505.7" y2="1525.1" stroke="#60A5FA" stroke-width="1.93" opacity="0.45"/>
  <rect x="501.1" y="1486.5" width="9.2" height="40.2" rx="3.1" fill="#0B1020" opacity="0.55" stroke="url(#strokeA)" stroke-width="1.2"/>
</g>

<g opacity="0.157">
  <line x1="145.0" y1="1430.0" x2="145.0" y2="1525.7" stroke="#60A5FA" stroke-width="1.10" opacity="0.45"/>
  <rect x="140.5" y="1482.8" width="9.0" height="47.4" rx="3.0" fill="#0B1020" opacity="0.55" stroke="url(#strokeA)" stroke-width="1.2"/>
</g>

<g opacity="0.157">
  <line x1="8.2" y1="1436.0" x2="8.2" y2="1524.2" stroke="#60A5FA" stroke-width="1.34" opacity="0.45"/>
  <rect x="2.8" y="1481.8" width="10.9" height="49.5" rx="3.6" fill="#0B1020" opacity="0.55" stroke="url(#strokeA)" stroke-width="1.2"/>
</g>

<g opacity="0.157">
  <line x1="194.6" y1="1421.8" x2="194.6" y2="1527.7" stroke="#60A5FA" stroke-width="1.12" opacity="0.45"/>
  <rect x="191.1" y="1482.6" width="7.0" height="47.9" rx="2.3" fill="#0B1020" opacity="0.55" stroke="url(#strokeA)" stroke-width="1.2"/>
</g>

<g opacity="0.157">
  <line x1="48.5" y1="1451.5" x2="48.5" y2="1520.3" stroke="#60A5FA" stroke-width="1.08" opacity="0.45"/>
  <rect x="44.2" y="1487.0" width="8.6" height="39.1" rx="2.9" fill="#0B1020" opacity="0.55" stroke="url(#strokeA)" stroke-width="1.2"/>
</g>

<g opacity="0.157">
  <line x1="60.1" y1="1424.2" x2="60.1" y2="1527.1" stroke="#60A5FA" stroke-width="2.00" opacity="0.45"/>
  <rect x="54.9" y="1480.4" width="10.4" height="52.3" rx="3.5" fill="#0B1020" opacity="0.55" stroke="url(#strokeA)" stroke-width="1.2"/>
</g>

<g opacity="0.157">
  <line x1="19.3" y1="1430.6" x2="19.3" y2="1525.5" stroke="#60A5FA" stroke-width="1.01" opacity="0.45"/>
  <rect x="15.6" y="1476.5" width="7.4" height="60.0" rx="2.5" fill="#0B1020" opacity="0.55" stroke="url(#strokeA)" stroke-width="1.2"/>
</g>
<circle cx="587.6" cy="113.8" r="1.8" fill="#F472B6" opacity="0.19" filter="url(#softGlow)"/>
<circle cx="724.9" cy="1489.0" r="3.2" fill="#F472B6" opacity="0.12" filter="url(#softGlow)"/>
<circle cx="62.1" cy="1143.9" r="2.8" fill="#F472B6" opacity="0.21" filter="url(#softGlow)"/>
<circle cx="11.4" cy="550.5" r="2.1" fill="#F472B6" opacity="0.28" filter="url(#softGlow)"/>
<circle cx="591.1" cy="60.2" r="2.6" fill="#F472B6" opacity="0.13" filter="url(#softGlow)"/>
<circle cx="165.7" cy="1421.1" r="2.0" fill="#F472B6" opacity="0.27" filter="url(#softGlow)"/>
<circle cx="839.8" cy="67.9" r="3.2" fill="#F472B6" opacity="0.15" filter="url(#softGlow)"/>
<circle cx="48.6" cy="821.1" r="2.2" fill="#F472B6" opacity="0.25" filter="url(#softGlow)"/>
<circle cx="790.9" cy="171.6" r="2.8" fill="#F472B6" opacity="0.16" filter="url(#softGlow)"/>
<circle cx="724.0" cy="1562.4" r="2.0" fill="#F472B6" opacity="0.22" filter="url(#softGlow)"/>
<circle cx="878.0" cy="1511.7" r="1.9" fill="#F472B6" opacity="0.12" filter="url(#softGlow)"/>
<circle cx="151.3" cy="1471.8" r="2.8" fill="#F472B6" opacity="0.23" filter="url(#softGlow)"/>
<circle cx="92.6" cy="1480.0" r="2.1" fill="#F472B6" opacity="0.24" filter="url(#softGlow)"/>
<circle cx="741.9" cy="151.7" r="2.9" fill="#F472B6" opacity="0.10" filter="url(#softGlow)"/>
<circle cx="0.1" cy="1307.7" r="2.7" fill="#F472B6" opacity="0.20" filter="url(#softGlow)"/>
<circle cx="18.8" cy="1569.0" r="2.1" fill="#F472B6" opacity="0.21" filter="url(#softGlow)"/>
<circle cx="127.6" cy="1530.5" r="1.8" fill="#F472B6" opacity="0.19" filter="url(#softGlow)"/>
<circle cx="84.7" cy="479.9" r="2.8" fill="#F472B6" opacity="0.14" filter="url(#softGlow)"/>
<circle cx="136.7" cy="663.6" r="1.9" fill="#F472B6" opacity="0.11" filter="url(#softGlow)"/>
<circle cx="126.1" cy="1491.4" r="2.8" fill="#F472B6" opacity="0.20" filter="url(#softGlow)"/>
<circle cx="607.8" cy="1432.7" r="2.7" fill="#F472B6" opacity="0.12" filter="url(#softGlow)"/>
<circle cx="87.3" cy="1421.7" r="1.5" fill="#F472B6" opacity="0.25" filter="url(#softGlow)"/>
<circle cx="22.1" cy="1563.7" r="1.7" fill="#F472B6" opacity="0.14" filter="url(#softGlow)"/>
<circle cx="773.0" cy="1433.9" r="2.3" fill="#F472B6" opacity="0.25" filter="url(#softGlow)"/>
<circle cx="128.5" cy="1036.2" r="2.3" fill="#F472B6" opacity="0.20" filter="url(#softGlow)"/>
<circle cx="892.5" cy="80.6" r="2.7" fill="#F472B6" opacity="0.25" filter="url(#softGlow)"/>
<circle cx="536.2" cy="83.3" r="3.2" fill="#F472B6" opacity="0.18" filter="url(#softGlow)"/>
<circle cx="895.1" cy="1469.7" r="1.9" fill="#F472B6" opacity="0.26" filter="url(#softGlow)"/>
<circle cx="788.5" cy="931.7" r="1.7" fill="#F472B6" opacity="0.21" filter="url(#softGlow)"/>
<circle cx="457.1" cy="1526.4" r="1.3" fill="#F472B6" opacity="0.19" filter="url(#softGlow)"/>
</svg>