<svg xmlns="http://www.w3.org/2000/svg" width="900" height="1600" viewBox="0 0 900 1600" preserveAspectRatio="xMidYMid slice">
<defs>
  <linearGradient id="g0" x1="0" y1="0" x2="1" y2="1">
    <stop offset="0" stop-color="#0A0F1E"/>
    <stop offset="0.55" stop-color="#00FFA3" stop-opacity="0.9"/>
    <stop offset="1" stop-color="#050A12"/>
  </linearGradient>
  <radialGradient id="g1" cx="20%" cy="15%" r="70%">
    <stop offset="0" stop-color="#14C2FF" stop-opacity="0.38"/>
    <stop offset="0.6" stop-color="#14C2FF" stop-opacity="0.08"/>
    <stop offset="1" stop-color="#14C2FF" stop-opacity="0"/>
  </radialGradient>
  <radialGradient id="g2" cx="85%" cy="80%" r="75%">
    <stop offset="0" stop-color="#14C2FF" stop-opacity="0.28"/>
    <stop offset="0.65" stop-color="#14C2FF" stop-opacity="0.06"/>
    <stop offset="1" stop-color="#14C2FF" stop-opacity="0"/>
  </radialGradient>
  <filter id="softGlow" x="-30%" y="-30%" width="160%" height="160%">
    <feGaussianBlur stdDeviation="12" result="b"/>
    <feMerge>
      <feMergeNode in="b"/>
      <feMergeNode in="SourceGraphic"/>
    </feMerge>
  </filter>
  <filter id="hardGlow" x="-40%" y="-40%" width="180%" height="180%">
    <feGaussianBlur stdDeviation="6" result="b"/>
    <feColorMatrix in="b" type="matrix" values="1 0 0 0 0  0 1 0 0 0  0 0 1 0 0  0 0 0 18 -7" result="c"/>
    <feMerge>
      <feMergeNode in="c"/>
      <feMergeNode in="SourceGraphic"/>
    </feMerge>
  </filter>
  <linearGradient id="strokeA" x1="0" y1="0" x2="1" y2="0">
    <stop offset="0" stop-color="#14C2FF" stop-opacity="0.9"/>
    <stop offset="0.5" stop-color="#FFFFFF" stop-opacity="0.25"/>
    <stop offset="1" stop-color="#14C2FF" stop-opacity="0.7"/>
  </linearGradient>
  <linearGradient id="strokeB" x1="0" y1="0" x2="0" y2="1">
    <stop offset="0" stop-color="#FFFFFF" stop-opacity="0.18"/>
    <stop offset="1" stop-color="#14C2FF" stop-opacity="0.55"/>
  </linearGradient>
</defs>
<rect x="0" y="0" width="900" height="1600" fill="url(#g0)"/>
<rect x="0" y="0" width="900" height="1600" fill="url(#g1)"/>
<rect x="0" y="0" width="900" height="1600" fill="url(#g2)"/>


<defs>
  <radialGradient id="vign" cx="0.5000" cy="0.5000" r="0.85">
    <stop offset="0" stop-color="#000000" stop-opacity="0"/>
    <stop offset="0.55" stop-color="#000000" stop-opacity="0.217"/>
    <stop offset="1" stop-color="#000000" stop-opacity="0.620"/>
  </radialGradient>
</defs>
<rect x="0" y="0" width="900" height="1600" fill="url(#vign)"/>

<g opacity="0.268" filter="url(#softGlow)"><path d="M 33.2,1546.2 L 3.1,1546.2 L 3.1,26.3 L 722.7,26.3 L 722.7,1492.1 " fill="none" stroke="url(#strokeB)" stroke-width="1.27" stroke-linecap="round" stroke-linejoin="round"/><circle cx="722.7" cy="26.3" r="2.7" fill="#00FFA3" opacity="0.45"/><circle cx="33.2" cy="1546.2" r="4.0" fill="#00FFA3" opacity="0.45"/><circle cx="722.7" cy="1492.1" r="3.0" fill="#00FFA3" opacity="0.45"/></g>
<g opacity="0.268" filter="url(#softGlow)"><path d="M 161.2,12.0 L 128.0,12.0 L 128.0,1454.5 L 169.7,1454.5 L 169.7,1547.7 " fill="none" stroke="url(#strokeB)" stroke-width="2.05" stroke-linecap="round" stroke-linejoin="round"/><circle cx="169.7" cy="1454.5" r="3.8" fill="#00FFA3" opacity="0.45"/><circle cx="169.7" cy="1547.7" r="3.0" fill="#00FFA3" opacity="0.45"/><circle cx="161.2" cy="12.0" r="3.0" fill="#00FFA3" opacity="0.45"/></g>
<g opacity="0.268" filter="url(#softGlow)"><path d="M 69.6,75.6 L 32.6,75.6 L 32.6,127.6 L 27.1,127.6 L 27.1,1401.8 " fill="none" stroke="url(#strokeB)" stroke-width="2.00" stroke-linecap="round" stroke-linejoin="round"/><circle cx="69.6" cy="75.6" r="2.9" fill="#00FFA3" opacity="0.45"/><circle cx="27.1" cy="127.6" r="2.7" fill="#00FFA3" opacity="0.45"/><circle cx="27.1" cy="1401.8" r="2.4" fill="#00FFA3" opacity="0.45"/></g>
<g opacity="0.268" filter="url(#softGlow)"><path d="M 833.1,1585.0 L 91.7,1585.0 L 91.7,1568.4 L 336.2,1568.4 L 336.2,1441.2 " fill="none" stroke="url(#strokeB)" stroke-width="1.86" stroke-linecap="round" stroke-linejoin="round"/><circle cx="91.7" cy="1585.0" r="4.1" fill="#00FFA3" opacity="0.45"/><circle cx="336.2" cy="1568.4" r="3.4" fill="#00FFA3" opacity="0.45"/><circle cx="336.2" cy="1441.2" r="3.5" fill="#00FFA3" opacity="0.45"/></g>
<g opacity="0.268" filter="url(#softGlow)"><path d="M 64.7,165.0 L 173.2,165.0 L 173.2,63.3 L 141.8,63.3 L 141.8,1008.5 " fill="none" stroke="url(#strokeB)" stroke-width="1.32" stroke-linecap="round" stroke-linejoin="round"/><circle cx="141.8" cy="63.3" r="2.5" fill="#00FFA3" opacity="0.45"/><circle cx="141.8" cy="1008.5" r="3.8" fill="#00FFA3" opacity="0.45"/><circle cx="173.2" cy="63.3" r="3.7" fill="#00FFA3" opacity="0.45"/></g>
<g opacity="0.268" filter="url(#softGlow)"><path d="M 122.0,1447.8 L 146.6,1447.8 L 146.6,988.8 L 886.2,988.8 L 886.2,1510.0 " fill="none" stroke="url(#strokeB)" stroke-width="1.97" stroke-linecap="round" stroke-linejoin="round"/><circle cx="886.2" cy="1510.0" r="4.1" fill="#00FFA3" opacity="0.45"/><circle cx="146.6" cy="988.8" r="4.1" fill="#00FFA3" opacity="0.45"/><circle cx="122.0" cy="1447.8" r="3.4" fill="#00FFA3" opacity="0.45"/></g>
<g opacity="0.268" filter="url(#softGlow)"><path d="M 751.8,1580.8 L 883.7,1580.8 L 883.7,39.5 L 780.5,39.5 L 780.5,66.9 " fill="none" stroke="url(#strokeB)" stroke-width="1.38" stroke-linecap="round" stroke-linejoin="round"/><circle cx="780.5" cy="66.9" r="3.9" fill="#00FFA3" opacity="0.45"/><circle cx="883.7" cy="39.5" r="4.1" fill="#00FFA3" opacity="0.45"/><circle cx="883.7" cy="1580.8" r="3.4" fill="#00FFA3" opacity="0.45"/></g>
<g opacity="0.268" filter="url(#softGlow)"><path d="M 67.1,22.0 L 185.8,22.0 L 185.8,18.2 L 806.5,18.2 L 806.5,162.8 " fill="none" stroke="url(#strokeB)" stroke-width="2.12" stroke-linecap="round" stroke-linejoin="round"/><circle cx="67.1" cy="22.0" r="2.1" fill="#00FFA3" opacity="0.45"/><circle cx="185.8" cy="22.0" r="2.4" fill="#00FFA3" opacity="0.45"/><circle cx="806.5" cy="162.8" r="3.7" fill="#00FFA3" opacity="0.45"/></g>
<g opacity="0.268" filter="url(#softGlow)"><path d="M 843.3,92.0 L 795.8,92.0 L 795.8,824.6 L 753.4,824.6 L 753.4,138.9 " fill="none" stroke="url(#strokeB)" stroke-width="1.68" stroke-linecap="round" stroke-linejoin="round"/><circle cx="795.8" cy="92.0" r="3.1" fill="#00FFA3" opacity="0.45"/><circle cx="843.3" cy="92.0" r="3.5" fill="#00FFA3" opacity="0.45"/><circle cx="753.4" cy="138.9" r="2.1" fill="#00FFA3" opacity="0.45"/></g>
<g opacity="0.268" filter="url(#softGlow)"><path d="M 55.4,12.3 L 16.4,12.3 L 16.4,1212.1 L 10.5,1212.1 L 10.5,63.2 " fill="none" stroke="url(#strokeB)" stroke-width="2.06" stroke-linecap="round" stroke-linejoin="round"/><circle cx="55.4" cy="12.3" r="4.1" fill="#00FFA3" opacity="0.45"/><circle cx="10.5" cy="1212.1" r="3.5" fill="#00FFA3" opacity="0.45"/><circle cx="16.4" cy="12.3" r="2.4" fill="#00FFA3" opacity="0.45"/></g>
<g opacity="0.268" filter="url(#softGlow)"><path d="M 700.3,109.1 L 149.0,109.1 L 149.0,1452.6 L 322.3,1452.6 L 322.3,1588.7 " fill="none" stroke="url(#strokeB)" stroke-width="1.12" stroke-linecap="round" stroke-linejoin="round"/><circle cx="322.3" cy="1452.6" r="2.0" fill="#00FFA3" opacity="0.45"/><circle cx="322.3" cy="1588.7" r="2.4" fill="#00FFA3" opacity="0.45"/><circle cx="149.0" cy="1452.6" r="3.1" fill="#00FFA3" opacity="0.45"/></g>
<g opacity="0.268" filter="url(#softGlow)"><path d="M 168.3,1576.7 L 140.3,1576.7 L 140.3,171.1 L 77.9,171.1 L 77.9,1527.3 " fill="none" stroke="url(#strokeB)" stroke-width="1.98" stroke-linecap="round" stroke-linejoin="round"/><circle cx="77.9" cy="1527.3" r="3.2" fill="#00FFA3" opacity="0.45"/><circle cx="140.3" cy="171.1" r="2.7" fill="#00FFA3" opacity="0.45"/><circle cx="168.3" cy="1576.7" r="3.3" fill="#00FFA3" opacity="0.45"/></g>
<g opacity="0.268" filter="url(#softGlow)"><path d="M 115.1,840.9 L 872.6,840.9 L 872.6,125.3 L 81.1,125.3 L 81.1,174.2 " fill="none" stroke="url(#strokeB)" stroke-width="2.04" stroke-linecap="round" stroke-linejoin="round"/><circle cx="81.1" cy="174.2" r="2.4" fill="#00FFA3" opacity="0.45"/><circle cx="872.6" cy="125.3" r="3.9" fill="#00FFA3" opacity="0.45"/><circle cx="115.1" cy="840.9" r="3.9" fill="#00FFA3" opacity="0.45"/></g>
<g opacity="0.268" filter="url(#softGlow)"><path d="M 95.6,1545.6 L 802.0,1545.6 L 802.0,1529.5 L 97.4,1529.5 L 97.4,119.2 " fill="none" stroke="url(#strokeB)" stroke-width="1.53" stroke-linecap="round" stroke-linejoin="round"/><circle cx="802.0" cy="1529.5" r="2.2" fill="#00FFA3" opacity="0.45"/><circle cx="95.6" cy="1545.6" r="3.5" fill="#00FFA3" opacity="0.45"/><circle cx="97.4" cy="119.2" r="3.4" fill="#00FFA3" opacity="0.45"/></g>
<g opacity="0.268" filter="url(#softGlow)"><path d="M 51.5,662.7 L 733.5,662.7 L 733.5,35.4 L 733.6,35.4 L 733.6,15.0 " fill="none" stroke="url(#strokeB)" stroke-width="1.81" stroke-linecap="round" stroke-linejoin="round"/><circle cx="733.6" cy="35.4" r="3.1" fill="#00FFA3" opacity="0.45"/><circle cx="733.6" cy="15.0" r="4.1" fill="#00FFA3" opacity="0.45"/><circle cx="733.5" cy="35.4" r="4.2" fill="#00FFA3" opacity="0.45"/></g>
<g opacity="0.268" filter="url(#softGlow)"><path d="M 770.3,1544.6 L 84.0,1544.6 L 84.0,1562.7 L 846.8,1562.7 L 846.8,124.5 " fill="none" stroke="url(#strokeB)" stroke-width="1.52" stroke-linecap="round" stroke-linejoin="round"/><circle cx="84.0" cy="1544.6" r="3.8" fill="#00FFA3" opacity="0.45"/><circle cx="846.8" cy="124.5" r="2.4" fill="#00FFA3" opacity="0.45"/><circle cx="770.3" cy="1544.6" r="2.9" fill="#00FFA3" opacity="0.45"/></g>

<g opacity="0.856" filter="url(#hardGlow)">
  <circle cx="49.4" cy="1545.1" r="41.2" fill="#0A1224" opacity="0.65"/>
  <circle cx="49.4" cy="1545.1" r="41.2" fill="none" stroke="url(#strokeA)" stroke-width="3.3" opacity="0.85"/>
  <circle cx="49.4" cy="1545.1" r="35.4" fill="none" stroke="#FF4D8D" stroke-width="1.5" opacity="0.35"/>
  <polygon points="76.0,1558.1 51.4,1574.6 24.8,1561.6 22.8,1532.0 47.4,1515.5 74.0,1528.5" fill="none" stroke="url(#strokeB)" stroke-width="1.2" opacity="0.65"/>
  <polygon points="56.6,1552.6 39.3,1547.6 52.3,1535.1" fill="#FF4D8D" opacity="0.22" filter="url(#softGlow)"/>
</g>


<g opacity="0.434" filter="url(#hardGlow)">
  <circle cx="-15.9" cy="1517.7" r="20.7" fill="#0A1224" opacity="0.65"/>
  <circle cx="-15.9" cy="1517.7" r="20.7" fill="none" stroke="url(#strokeA)" stroke-width="2.0" opacity="0.85"/>
  <circle cx="-15.9" cy="1517.7" r="17.8" fill="none" stroke="#00FFA3" stroke-width="1.5" opacity="0.35"/>
  <polygon points="-30.1,1522.4 -27.0,1507.8 -12.9,1503.2 -1.8,1513.1 -4.8,1527.7 -18.9,1532.3" fill="none" stroke="url(#strokeB)" stroke-width="1.2" opacity="0.65"/>
  
</g>


<g opacity="0.462" filter="url(#hardGlow)">
  <circle cx="8.8" cy="1495.8" r="21.1" fill="#0A1224" opacity="0.65"/>
  <circle cx="8.8" cy="1495.8" r="21.1" fill="none" stroke="url(#strokeA)" stroke-width="2.0" opacity="0.85"/>
  <circle cx="8.8" cy="1495.8" r="18.1" fill="none" stroke="#00FFA3" stroke-width="1.5" opacity="0.35"/>
  <polygon points="22.9,1501.6 10.8,1510.9 -3.2,1505.1 -5.2,1490.0 6.8,1480.8 20.9,1486.6" fill="none" stroke="url(#strokeB)" stroke-width="1.2" opacity="0.65"/>
  
</g>


<g opacity="0.790" filter="url(#hardGlow)">
  <circle cx="838.2" cy="981.4" r="41.4" fill="#0A1224" opacity="0.65"/>
  <circle cx="838.2" cy="981.4" r="41.4" fill="none" stroke="url(#strokeA)" stroke-width="3.3" opacity="0.85"/>
  <circle cx="838.2" cy="981.4" r="35.6" fill="none" stroke="#FF4D8D" stroke-width="1.5" opacity="0.35"/>
  <polygon points="809.4,973.6 830.5,952.6 859.3,960.4 866.9,989.2 845.8,1010.2 817.0,1002.4" fill="none" stroke="url(#strokeB)" stroke-width="1.2" opacity="0.65"/>
  <polygon points="829.6,975.4 847.6,977.0 837.2,991.8" fill="#FF4D8D" opacity="0.22" filter="url(#softGlow)"/>
</g>


<g opacity="0.495" filter="url(#hardGlow)">
  <circle cx="900.1" cy="987.7" r="16.5" fill="#0A1224" opacity="0.65"/>
  <circle cx="900.1" cy="987.7" r="16.5" fill="none" stroke="url(#strokeA)" stroke-width="2.0" opacity="0.85"/>
  <circle cx="900.1" cy="987.7" r="14.2" fill="none" stroke="#00FFA3" stroke-width="1.5" opacity="0.35"/>
  <polygon points="888.4,990.1 892.2,978.8 903.8,976.4 911.7,985.3 907.9,996.6 896.3,999.0" fill="none" stroke="url(#strokeB)" stroke-width="1.2" opacity="0.65"/>
  
</g>


<g opacity="0.801" filter="url(#hardGlow)">
  <circle cx="118.0" cy="267.5" r="56.4" fill="#0A1224" opacity="0.65"/>
  <circle cx="118.0" cy="267.5" r="56.4" fill="none" stroke="url(#strokeA)" stroke-width="4.5" opacity="0.85"/>
  <circle cx="118.0" cy="267.5" r="48.5" fill="none" stroke="#FF4D8D" stroke-width="1.7" opacity="0.35"/>
  <polygon points="135.0,230.6 158.4,263.8 141.4,300.7 100.9,304.3 77.5,271.1 94.6,234.3" fill="none" stroke="url(#strokeB)" stroke-width="1.4" opacity="0.65"/>
  <polygon points="128.0,257.4 121.7,281.2 104.2,263.8" fill="#FF4D8D" opacity="0.22" filter="url(#softGlow)"/>
</g>


<g opacity="0.434" filter="url(#hardGlow)">
  <circle cx="129.6" cy="252.5" r="29.5" fill="#0A1224" opacity="0.65"/>
  <circle cx="129.6" cy="252.5" r="29.5" fill="none" stroke="url(#strokeA)" stroke-width="2.4" opacity="0.85"/>
  <circle cx="129.6" cy="252.5" r="25.4" fill="none" stroke="#00FFA3" stroke-width="1.5" opacity="0.35"/>
  <polygon points="132.3,231.4 149.2,244.3 146.5,265.4 126.9,273.5 110.0,260.6 112.7,239.6" fill="none" stroke="url(#strokeB)" stroke-width="1.2" opacity="0.65"/>
  <polygon points="133.0,245.8 133.6,258.7 122.2,252.8" fill="#00FFA3" opacity="0.22" filter="url(#softGlow)"/>
</g>


<g opacity="0.548" filter="url(#hardGlow)">
  <circle cx="123.1" cy="238.6" r="22.1" fill="#0A1224" opacity="0.65"/>
  <circle cx="123.1" cy="238.6" r="22.1" fill="none" stroke="url(#strokeA)" stroke-width="2.0" opacity="0.85"/>
  <circle cx="123.1" cy="238.6" r="19.0" fill="none" stroke="#00FFA3" stroke-width="1.5" opacity="0.35"/>
  <polygon points="108.7,245.2 110.1,229.4 124.6,222.7 137.6,231.9 136.2,247.8 121.7,254.5" fill="none" stroke="url(#strokeB)" stroke-width="1.2" opacity="0.65"/>
  <polygon points="117.6,239.0 125.5,233.5 126.3,243.2" fill="#00FFA3" opacity="0.22" filter="url(#softGlow)"/>
</g>


<g opacity="0.858" filter="url(#hardGlow)">
  <circle cx="862.6" cy="1536.8" r="41.0" fill="#0A1224" opacity="0.65"/>
  <circle cx="862.6" cy="1536.8" r="41.0" fill="none" stroke="url(#strokeA)" stroke-width="3.3" opacity="0.85"/>
  <circle cx="862.6" cy="1536.8" r="35.2" fill="none" stroke="#FF4D8D" stroke-width="1.5" opacity="0.35"/>
  <polygon points="883.1,1515.5 891.3,1543.9 870.8,1565.1 842.2,1558.0 834.0,1529.6 854.5,1508.4" fill="none" stroke="url(#strokeB)" stroke-width="1.2" opacity="0.65"/>
  <polygon points="871.9,1532.2 861.9,1547.1 854.1,1531.0" fill="#FF4D8D" opacity="0.22" filter="url(#softGlow)"/>
</g>


<g opacity="0.369" filter="url(#hardGlow)">
  <circle cx="814.8" cy="1554.8" r="17.8" fill="#0A1224" opacity="0.65"/>
  <circle cx="814.8" cy="1554.8" r="17.8" fill="none" stroke="url(#strokeA)" stroke-width="2.0" opacity="0.85"/>
  <circle cx="814.8" cy="1554.8" r="15.3" fill="none" stroke="#00FFA3" stroke-width="1.5" opacity="0.35"/>
  <polygon points="822.6,1544.5 827.6,1556.4 819.8,1566.6 807.1,1565.0 802.1,1553.2 809.8,1542.9" fill="none" stroke="url(#strokeB)" stroke-width="1.2" opacity="0.65"/>
  
</g>


<g opacity="0.807" filter="url(#hardGlow)">
  <circle cx="142.2" cy="1512.7" r="53.6" fill="#0A1224" opacity="0.65"/>
  <circle cx="142.2" cy="1512.7" r="53.6" fill="none" stroke="url(#strokeA)" stroke-width="4.3" opacity="0.85"/>
  <circle cx="142.2" cy="1512.7" r="46.1" fill="none" stroke="#FF4D8D" stroke-width="1.6" opacity="0.35"/>
  <polygon points="160.6,1546.6 122.0,1545.6 103.6,1511.6 123.8,1478.7 162.4,1479.8 180.8,1513.7" fill="none" stroke="url(#strokeB)" stroke-width="1.3" opacity="0.65"/>
  <polygon points="144.2,1526.0 129.6,1507.7 152.8,1504.3" fill="#FF4D8D" opacity="0.22" filter="url(#softGlow)"/>
</g>


<g opacity="0.445" filter="url(#hardGlow)">
  <circle cx="112.7" cy="1539.0" r="22.4" fill="#0A1224" opacity="0.65"/>
  <circle cx="112.7" cy="1539.0" r="22.4" fill="none" stroke="url(#strokeA)" stroke-width="2.0" opacity="0.85"/>
  <circle cx="112.7" cy="1539.0" r="19.3" fill="none" stroke="#00FFA3" stroke-width="1.5" opacity="0.35"/>
  <polygon points="99.5,1548.3 98.1,1532.3 111.3,1523.0 125.9,1529.8 127.4,1545.8 114.2,1555.1" fill="none" stroke="url(#strokeB)" stroke-width="1.2" opacity="0.65"/>
  
</g>


<g opacity="0.535" filter="url(#hardGlow)">
  <circle cx="131.0" cy="1535.1" r="27.7" fill="#0A1224" opacity="0.65"/>
  <circle cx="131.0" cy="1535.1" r="27.7" fill="none" stroke="url(#strokeA)" stroke-width="2.2" opacity="0.85"/>
  <circle cx="131.0" cy="1535.1" r="23.8" fill="none" stroke="#00FFA3" stroke-width="1.5" opacity="0.35"/>
  <polygon points="128.9,1515.3 147.1,1523.4 149.2,1543.2 133.1,1554.9 114.9,1546.8 112.8,1527.0" fill="none" stroke="url(#strokeB)" stroke-width="1.2" opacity="0.65"/>
  
</g>


<g opacity="0.426" filter="url(#hardGlow)">
  <circle cx="202.3" cy="1516.3" r="21.0" fill="#0A1224" opacity="0.65"/>
  <circle cx="202.3" cy="1516.3" r="21.0" fill="none" stroke="url(#strokeA)" stroke-width="2.0" opacity="0.85"/>
  <circle cx="202.3" cy="1516.3" r="18.0" fill="none" stroke="#00FFA3" stroke-width="1.5" opacity="0.35"/>
  <polygon points="216.2,1522.3 204.1,1531.3 190.2,1525.4 188.4,1510.4 200.5,1501.3 214.4,1507.3" fill="none" stroke="url(#strokeB)" stroke-width="1.2" opacity="0.65"/>
  
</g>


<g opacity="0.359" transform="translate(825.5,44.9) rotate(-7.4)" filter="url(#softGlow)">
  <rect x="-83.5" y="-76.8" width="167.1" height="153.6" rx="15.4" fill="#050A12" opacity="0.25"/>
  <rect x="-83.5" y="-76.8" width="167.1" height="153.6" rx="15.4" fill="none" stroke="url(#strokeA)" stroke-width="7.7" opacity="0.85"/>
  <rect x="-71.3" y="-64.5" width="142.5" height="129.1" rx="10.8" fill="none" stroke="#FF4D8D" stroke-width="3.1" opacity="0.35"/>
</g>


<g opacity="0.382" transform="translate(153.4,1507.7) rotate(6.5)" filter="url(#softGlow)">
  <rect x="-85.8" y="-61.7" width="171.5" height="123.3" rx="12.3" fill="#050A12" opacity="0.25"/>
  <rect x="-85.8" y="-61.7" width="171.5" height="123.3" rx="12.3" fill="none" stroke="url(#strokeA)" stroke-width="6.2" opacity="0.85"/>
  <rect x="-75.9" y="-51.8" width="151.8" height="103.6" rx="8.6" fill="none" stroke="#FF4D8D" stroke-width="2.5" opacity="0.35"/>
</g>


<g opacity="0.334" transform="translate(113.5,84.6) rotate(8.3)" filter="url(#softGlow)">
  <rect x="-87.5" y="-66.0" width="175.1" height="132.0" rx="13.2" fill="#050A12" opacity="0.25"/>
  <rect x="-87.5" y="-66.0" width="175.1" height="132.0" rx="13.2" fill="none" stroke="url(#strokeA)" stroke-width="6.6" opacity="0.85"/>
  <rect x="-77.0" y="-55.4" width="154.0" height="110.9" rx="9.2" fill="none" stroke="#FF4D8D" stroke-width="2.6" opacity="0.35"/>
</g>


<g opacity="0.331" transform="translate(11.3,178.8) rotate(9.6)" filter="url(#softGlow)">
  <rect x="-86.5" y="-60.7" width="173.0" height="121.4" rx="12.1" fill="#050A12" opacity="0.25"/>
  <rect x="-86.5" y="-60.7" width="173.0" height="121.4" rx="12.1" fill="none" stroke="url(#strokeA)" stroke-width="6.1" opacity="0.85"/>
  <rect x="-76.8" y="-51.0" width="153.6" height="102.0" rx="8.5" fill="none" stroke="#00FFA3" stroke-width="2.4" opacity="0.35"/>
</g>


<g opacity="0.415" transform="translate(54.8,172.2) rotate(14.9)" filter="url(#softGlow)">
  <rect x="-29.7" y="-17.1" width="59.4" height="34.2" rx="10.5" fill="none" stroke="#FF4D8D" stroke-width="5.7" opacity="0.55"/>
  <rect x="-13.1" y="-8.6" width="59.4" height="34.2" rx="10.5" fill="none" stroke="url(#strokeA)" stroke-width="4.8" opacity="0.55"/>
</g>


<g opacity="0.452" transform="translate(138.2,107.5) rotate(2.7)" filter="url(#softGlow)">
  <rect x="-48.9" y="-28.2" width="97.8" height="56.3" rx="17.2" fill="none" stroke="#FF4D8D" stroke-width="9.4" opacity="0.55"/>
  <rect x="-21.5" y="-14.1" width="97.8" height="56.3" rx="17.2" fill="none" stroke="url(#strokeA)" stroke-width="7.8" opacity="0.55"/>
</g>


<g opacity="0.274" transform="translate(729.6,123.3) rotate(0.5)" filter="url(#softGlow)">
  <rect x="-48.4" y="-27.9" width="96.9" height="55.8" rx="17.0" fill="none" stroke="#FF4D8D" stroke-width="9.3" opacity="0.55"/>
  <rect x="-21.3" y="-13.9" width="96.9" height="55.8" rx="17.0" fill="none" stroke="url(#strokeA)" stroke-width="7.7" opacity="0.55"/>
</g>


<g opacity="0.270" transform="translate(90.3,1550.1) rotate(-15.7)" filter="url(#softGlow)">
  <rect x="-40.3" y="-23.2" width="80.6" height="46.5" rx="14.2" fill="none" stroke="#FF4D8D" stroke-width="7.7" opacity="0.55"/>
  <rect x="-17.7" y="-11.6" width="80.6" height="46.5" rx="14.2" fill="none" stroke="url(#strokeA)" stroke-width="6.5" opacity="0.55"/>
</g>


<g opacity="0.365" transform="translate(848.7,0.7) rotate(11.9)" filter="url(#softGlow)">
  <rect x="-39.7" y="-22.9" width="79.3" height="45.7" rx="14.0" fill="none" stroke="#FF4D8D" stroke-width="7.6" opacity="0.55"/>
  <rect x="-17.5" y="-11.4" width="79.3" height="45.7" rx="14.0" fill="none" stroke="url(#strokeA)" stroke-width="6.3" opacity="0.55"/>
</g>


<g opacity="0.468" transform="translate(771.1,136.8) rotate(-3.0)" filter="url(#softGlow)">
  <rect x="-30.0" y="-17.3" width="60.0" height="34.6" rx="10.6" fill="none" stroke="#00FFA3" stroke-width="5.8" opacity="0.55"/>
  <rect x="-13.2" y="-8.6" width="60.0" height="34.6" rx="10.6" fill="none" stroke="url(#strokeA)" stroke-width="4.8" opacity="0.55"/>
</g>


<g opacity="0.308" transform="translate(168.2,110.2) rotate(-8.0)" filter="url(#softGlow)">
  <rect x="-48.9" y="-28.2" width="97.8" height="56.3" rx="17.2" fill="none" stroke="#00FFA3" stroke-width="9.4" opacity="0.55"/>
  <rect x="-21.5" y="-14.1" width="97.8" height="56.3" rx="17.2" fill="none" stroke="url(#strokeA)" stroke-width="7.8" opacity="0.55"/>
</g>


<g opacity="0.179">
  <line x1="102.8" y1="1455.9" x2="102.8" y2="1520.8" stroke="#00FFA3" stroke-width="1.19" opacity="0.45"/>
  <rect x="97.0" y="1489.6" width="11.5" height="36.4" rx="3.8" fill="#0B1020" opacity="0.55" stroke="url(#strokeA)" stroke-width="1.2"/>
</g>

<g opacity="0.179">
  <line x1="883.9" y1="1422.0" x2="883.9" y2="1529.3" stroke="#00FFA3" stroke-width="1.06" opacity="0.45"/>
  <rect x="878.3" y="1482.5" width="11.2" height="50.6" rx="3.7" fill="#0B1020" opacity="0.55" stroke="url(#strokeA)" stroke-width="1.2"/>
</g>

<g opacity="0.179">
  <line x1="739.2" y1="1449.5" x2="739.2" y2="1522.4" stroke="#00FFA3" stroke-width="1.16" opacity="0.45"/>
  <rect x="733.7" y="1486.4" width="10.9" height="42.8" rx="3.6" fill="#0B1020" opacity="0.55" stroke="url(#strokeA)" stroke-width="1.2"/>
</g>

<g opacity="0.179">
  <line x1="741.3" y1="1420.9" x2="741.3" y2="1529.6" stroke="#00FFA3" stroke-width="1.97" opacity="0.45"/>
  <rect x="736.8" y="1480.9" width="8.9" height="53.9" rx="3.0" fill="#0B1020" opacity="0.55" stroke="url(#strokeA)" stroke-width="1.2"/>
</g>

<g opacity="0.179">
  <line x1="885.3" y1="1467.7" x2="885.3" y2="1517.9" stroke="#00FFA3" stroke-width="1.42" opacity="0.45"/>
  <rect x="882.2" y="1496.5" width="6.1" height="22.8" rx="2.0" fill="#0B1020" opacity="0.55" stroke="url(#strokeA)" stroke-width="1.2"/>
</g>

<g opacity="0.179">
  <line x1="495.6" y1="1460.6" x2="495.6" y2="1519.7" stroke="#00FFA3" stroke-width="1.87" opacity="0.45"/>
  <rect x="492.3" y="1492.6" width="6.5" height="30.4" rx="2.2" fill="#0B1020" opacity="0.55" stroke="url(#strokeA)" stroke-width="1.2"/>
</g>

<g opacity="0.179">
  <line x1="431.7" y1="1433.8" x2="431.7" y2="1526.4" stroke="#00FFA3" stroke-width="1.81" opacity="0.45"/>
  <rect x="427.5" y="1481.2" width="8.5" height="53.3" rx="2.8" fill="#0B1020" opacity="0.55" stroke="url(#strokeA)" stroke-width="1.2"/>
</g>

<g opacity="0.179">
  <line x1="195.0" y1="1447.3" x2="195.0" y2="1523.0" stroke="#00FFA3" stroke-width="1.18" opacity="0.45"/>
  <rect x="189.4" y="1489.6" width="11.2" height="36.6" rx="3.7" fill="#0B1020" opacity="0.55" stroke="url(#strokeA)" stroke-width="1.2"/>
</g>

<g opacity="0.179">
  <line x1="158.4" y1="1465.3" x2="158.4" y2="1518.5" stroke="#00FFA3" stroke-width="1.99" opacity="0.45"/>
  <rect x="154.9" y="1497.4" width="7.0" height="20.9" rx="2.3" fill="#0B1020" opacity="0.55" stroke="url(#strokeA)" stroke-width="1.2"/>
</g>

<g opacity="0.179">
  <line x1="658.6" y1="1452.5" x2="658.6" y2="1521.7" stroke="#00FFA3" stroke-width="1.49" opacity="0.45"/>
  <rect x="653.4" y="1490.4" width="10.4" height="34.9" rx="3.5" fill="#0B1020" opacity="0.55" stroke="url(#strokeA)" stroke-width="1.2"/>
</g>

<g opacity="0.179">
  <line x1="169.9" y1="1453.9" x2="169.9" y2="1521.3" stroke="#00FFA3" stroke-width="1.04" opacity="0.45"/>
  <rect x="166.0" y="1487.9" width="7.9" height="39.9" rx="2.6" fill="#0B1020" opacity="0.55" stroke="url(#strokeA)" stroke-width="1.2"/>
</g>

<g opacity="0.179">
  <line x1="26.7" y1="1475.9" x2="26.7" y2="1515.8" stroke="#00FFA3" stroke-width="1.90" opacity="0.45"/>
  <rect x="22.0" y="1498.6" width="9.3" height="18.6" rx="3.1" fill="#0B1020" opacity="0.55" stroke="url(#strokeA)" stroke-width="1.2"/>
</g>
<circle cx="855.9" cy="1531.1" r="2.0" fill="#FF4D8D" opacity="0.23" filter="url(#softGlow)"/>
<circle cx="386.2" cy="1495.8" r="2.3" fill="#FF4D8D" opacity="0.10" filter="url(#softGlow)"/>
<circle cx="327.3" cy="1541.7" r="1.9" fill="#FF4D8D" opacity="0.21" filter="url(#softGlow)"/>
<circle cx="736.8" cy="161.8" r="3.1" fill="#FF4D8D" opacity="0.21" filter="url(#softGlow)"/>
<circle cx="788.7" cy="1492.6" r="2.4" fill="#FF4D8D" opacity="0.26" filter="url(#softGlow)"/>
<circle cx="839.2" cy="9.0" r="2.8" fill="#FF4D8D" opacity="0.20" filter="url(#softGlow)"/>
<circle cx="183.1" cy="54.7" r="3.0" fill="#FF4D8D" opacity="0.22" filter="url(#softGlow)"/>
<circle cx="776.8" cy="1547.1" r="1.9" fill="#FF4D8D" opacity="0.28" filter="url(#softGlow)"/>
<circle cx="155.2" cy="1530.2" r="2.6" fill="#FF4D8D" opacity="0.10" filter="url(#softGlow)"/>
<circle cx="30.6" cy="1454.3" r="2.3" fill="#FF4D8D" opacity="0.20" filter="url(#softGlow)"/>
<circle cx="845.4" cy="1527.3" r="1.4" fill="#FF4D8D" opacity="0.11" filter="url(#softGlow)"/>
<circle cx="879.9" cy="1523.7" r="1.8" fill="#FF4D8D" opacity="0.13" filter="url(#softGlow)"/>
<circle cx="487.6" cy="1519.8" r="1.8" fill="#FF4D8D" opacity="0.13" filter="url(#softGlow)"/>
<circle cx="79.8" cy="130.2" r="1.6" fill="#FF4D8D" opacity="0.15" filter="url(#softGlow)"/>
<circle cx="580.4" cy="1480.1" r="2.3" fill="#FF4D8D" opacity="0.13" filter="url(#softGlow)"/>
<circle cx="702.7" cy="64.5" r="1.5" fill="#FF4D8D" opacity="0.13" filter="url(#softGlow)"/>
<circle cx="9.7" cy="1438.2" r="2.8" fill="#FF4D8D" opacity="0.17" filter="url(#softGlow)"/>
<circle cx="108.1" cy="1467.7" r="1.9" fill="#FF4D8D" opacity="0.15" filter="url(#softGlow)"/>
<circle cx="25.3" cy="141.1" r="1.6" fill="#FF4D8D" opacity="0.17" filter="url(#softGlow)"/>
<circle cx="481.6" cy="1503.2" r="2.2" fill="#FF4D8D" opacity="0.21" filter="url(#softGlow)"/>
</svg>