<svg xmlns="http://www.w3.org/2000/svg" width="900" height="1600" viewBox="0 0 900 1600" preserveAspectRatio="xMidYMid slice">
<defs>
  <linearGradient id="g0" x1="0" y1="0" x2="1" y2="1">
    <stop offset="0" stop-color="#0B1020"/>
    <stop offset="0.55" stop-color="#F97316" stop-opacity="0.9"/>
    <stop offset="1" stop-color="#020617"/>
  </linearGradient>
  <radialGradient id="g1" cx="20%" cy="15%" r="70%">
    <stop offset="0" stop-color="#06B6D4" stop-opacity="0.38"/>
    <stop offset="0.6" stop-color="#06B6D4" stop-opacity="0.08"/>
    <stop offset="1" stop-color="#06B6D4" stop-opacity="0"/>
  </radialGradient>
  <radialGradient id="g2" cx="85%" cy="80%" r="75%">
    <stop offset="0" stop-color="#06B6D4" stop-opacity="0.28"/>
    <stop offset="0.65" stop-color="#06B6D4" stop-opacity="0.06"/>
    <stop offset="1" stop-color="#06B6D4" stop-opacity="0"/>
  </radialGradient>
  <filter id="softGlow" x="-30%" y="-30%" width="160%" height="160%">
    <feGaussianBlur stdDeviation="12" result="b"/>
    <feMerge>
      <feMergeNode in="b"/>
      <feMergeNode in="SourceGraphic"/>
    </feMerge>
  </filter>
  <filter id="hardGlow" x="-40%" y="-40%" width="180%" height="180%">
    <feGaussianBlur stdDeviation="6" result="b"/>
    <feColorMatrix in="b" type="matrix" values="1 0 0 0 0  0 1 0 0 0  0 0 1 0 0  0 0 0 18 -7" result="c"/>
    <feMerge>
      <feMergeNode in="c"/>
      <feMergeNode in="SourceGraphic"/>
    </feMerge>
  </filter>
  <linearGradient id="strokeA" x1="0" y1="0" x2="1" y2="0">
    <stop offset="0" stop-color="#06B6D4" stop-opacity="0.9"/>
    <stop offset="0.5" stop-color="#FFFFFF" stop-opacity="0.25"/>
    <stop offset="1" stop-color="#06B6D4" stop-opacity="0.7"/>
  </linearGradient>
  <linearGradient id="strokeB" x1="0" y1="0" x2="0" y2="1">
    <stop offset="0" stop-color="#FFFFFF" stop-opacity="0.18"/>
    <stop offset="1" stop-color="#06B6D4" stop-opacity="0.55"/>
  </linearGradient>
</defs>
<rect x="0" y="0" width="900" height="1600" fill="url(#g0)"/>
<rect x="0" y="0" width="900" height="1600" fill="url(#g1)"/>
<rect x="0" y="0" width="900" height="1600" fill="url(#g2)"/>


<defs>
  <radialGradient id="vign" cx="0.5000" cy="0.5000" r="0.85">
    <stop offset="0" stop-color="#000000" stop-opacity="0"/>
    <stop offset="0.55" stop-color="#000000" stop-opacity="0.217"/>
    <stop offset="1" stop-color="#000000" stop-opacity="0.620"/>
  </radialGradient>
</defs>
<rect x="0" y="0" width="900" height="1600" fill="url(#vign)"/>

<g opacity="0.186" filter="url(#softGlow)"><path d="M 824.8,1181.3 L 209.8,1181.3 L 209.8,25.2 L 864.3,25.2 L 864.3,84.5 " fill="none" stroke="url(#strokeB)" stroke-width="1.46" stroke-linecap="round" stroke-linejoin="round"/><circle cx="864.3" cy="84.5" r="4.1" fill="#06B6D4" opacity="0.45"/><circle cx="864.3" cy="25.2" r="3.3" fill="#06B6D4" opacity="0.45"/><circle cx="824.8" cy="1181.3" r="3.8" fill="#06B6D4" opacity="0.45"/></g>
<g opacity="0.186" filter="url(#softGlow)"><path d="M 46.8,25.6 L 186.2,25.6 L 186.2,1550.5 L 737.9,1550.5 L 737.9,1594.4 " fill="none" stroke="url(#strokeB)" stroke-width="1.62" stroke-linecap="round" stroke-linejoin="round"/><circle cx="46.8" cy="25.6" r="3.8" fill="#06B6D4" opacity="0.45"/><circle cx="186.2" cy="1550.5" r="2.9" fill="#06B6D4" opacity="0.45"/><circle cx="737.9" cy="1550.5" r="4.0" fill="#06B6D4" opacity="0.45"/></g>
<g opacity="0.186" filter="url(#softGlow)"><path d="M 763.6,13.6 L 817.5,13.6 L 817.5,5.4 L 235.0,5.4 L 235.0,1491.1 " fill="none" stroke="url(#strokeB)" stroke-width="1.31" stroke-linecap="round" stroke-linejoin="round"/><circle cx="235.0" cy="5.4" r="3.5" fill="#06B6D4" opacity="0.45"/><circle cx="817.5" cy="13.6" r="2.4" fill="#06B6D4" opacity="0.45"/><circle cx="817.5" cy="5.4" r="2.9" fill="#06B6D4" opacity="0.45"/></g>
<g opacity="0.186" filter="url(#softGlow)"><path d="M 172.3,1475.8 L 138.9,1475.8 L 138.9,155.8 L 154.0,155.8 L 154.0,727.8 " fill="none" stroke="url(#strokeB)" stroke-width="1.15" stroke-linecap="round" stroke-linejoin="round"/><circle cx="138.9" cy="1475.8" r="2.3" fill="#06B6D4" opacity="0.45"/><circle cx="154.0" cy="155.8" r="3.9" fill="#06B6D4" opacity="0.45"/><circle cx="138.9" cy="155.8" r="3.8" fill="#06B6D4" opacity="0.45"/></g>
<g opacity="0.186" filter="url(#softGlow)"><path d="M 736.6,33.9 L 125.3,33.9 L 125.3,1531.0 L 840.2,1531.0 L 840.2,127.0 " fill="none" stroke="url(#strokeB)" stroke-width="1.10" stroke-linecap="round" stroke-linejoin="round"/><circle cx="125.3" cy="1531.0" r="2.3" fill="#06B6D4" opacity="0.45"/><circle cx="736.6" cy="33.9" r="2.9" fill="#06B6D4" opacity="0.45"/><circle cx="125.3" cy="33.9" r="3.4" fill="#06B6D4" opacity="0.45"/></g>
<g opacity="0.186" filter="url(#softGlow)"><path d="M 125.7,613.4 L 876.3,613.4 L 876.3,70.6 L 854.1,70.6 L 854.1,1087.2 " fill="none" stroke="url(#strokeB)" stroke-width="1.24" stroke-linecap="round" stroke-linejoin="round"/><circle cx="854.1" cy="1087.2" r="2.7" fill="#06B6D4" opacity="0.45"/><circle cx="876.3" cy="70.6" r="2.8" fill="#06B6D4" opacity="0.45"/><circle cx="876.3" cy="613.4" r="3.5" fill="#06B6D4" opacity="0.45"/></g>
<g opacity="0.186" filter="url(#softGlow)"><path d="M 778.7,1589.5 L 117.0,1589.5 L 117.0,1501.0 L 757.1,1501.0 L 757.1,1427.6 " fill="none" stroke="url(#strokeB)" stroke-width="1.56" stroke-linecap="round" stroke-linejoin="round"/><circle cx="757.1" cy="1501.0" r="2.8" fill="#06B6D4" opacity="0.45"/><circle cx="117.0" cy="1501.0" r="3.2" fill="#06B6D4" opacity="0.45"/><circle cx="757.1" cy="1427.6" r="2.8" fill="#06B6D4" opacity="0.45"/></g>
<g opacity="0.186" filter="url(#softGlow)"><path d="M 854.8,1439.2 L 176.3,1439.2 L 176.3,98.9 L 545.0,98.9 L 545.0,79.0 " fill="none" stroke="url(#strokeB)" stroke-width="2.09" stroke-linecap="round" stroke-linejoin="round"/><circle cx="854.8" cy="1439.2" r="2.5" fill="#06B6D4" opacity="0.45"/><circle cx="545.0" cy="98.9" r="3.7" fill="#06B6D4" opacity="0.45"/><circle cx="176.3" cy="1439.2" r="4.0" fill="#06B6D4" opacity="0.45"/></g>
<g opacity="0.186" filter="url(#softGlow)"><path d="M 857.6,1554.1 L 127.8,1554.1 L 127.8,215.1 L 25.0,215.1 L 25.0,1435.1 " fill="none" stroke="url(#strokeB)" stroke-width="1.39" stroke-linecap="round" stroke-linejoin="round"/><circle cx="25.0" cy="215.1" r="2.8" fill="#06B6D4" opacity="0.45"/><circle cx="857.6" cy="1554.1" r="3.3" fill="#06B6D4" opacity="0.45"/><circle cx="25.0" cy="1435.1" r="4.0" fill="#06B6D4" opacity="0.45"/></g>
<g opacity="0.186" filter="url(#softGlow)"><path d="M 862.5,1432.2 L 806.0,1432.2 L 806.0,419.0 L 284.9,419.0 L 284.9,1443.8 " fill="none" stroke="url(#strokeB)" stroke-width="1.12" stroke-linecap="round" stroke-linejoin="round"/><circle cx="806.0" cy="419.0" r="3.9" fill="#06B6D4" opacity="0.45"/><circle cx="862.5" cy="1432.2" r="3.8" fill="#06B6D4" opacity="0.45"/><circle cx="806.0" cy="1432.2" r="2.5" fill="#06B6D4" opacity="0.45"/></g>
<g opacity="0.186" filter="url(#softGlow)"><path d="M 876.7,1471.5 L 155.1,1471.5 L 155.1,57.4 L 47.1,57.4 L 47.1,685.9 " fill="none" stroke="url(#strokeB)" stroke-width="1.85" stroke-linecap="round" stroke-linejoin="round"/><circle cx="155.1" cy="1471.5" r="2.9" fill="#06B6D4" opacity="0.45"/><circle cx="876.7" cy="1471.5" r="2.2" fill="#06B6D4" opacity="0.45"/><circle cx="155.1" cy="57.4" r="2.5" fill="#06B6D4" opacity="0.45"/></g>
<g opacity="0.186" filter="url(#softGlow)"><path d="M 723.8,50.4 L 739.9,50.4 L 739.9,49.5 L 492.0,49.5 L 492.0,139.2 " fill="none" stroke="url(#strokeB)" stroke-width="1.40" stroke-linecap="round" stroke-linejoin="round"/><circle cx="492.0" cy="139.2" r="2.6" fill="#06B6D4" opacity="0.45"/><circle cx="723.8" cy="50.4" r="2.6" fill="#06B6D4" opacity="0.45"/><circle cx="492.0" cy="49.5" r="3.8" fill="#06B6D4" opacity="0.45"/></g>
<g opacity="0.186" filter="url(#softGlow)"><path d="M 766.1,38.1 L 78.3,38.1 L 78.3,721.4 L 881.2,721.4 L 881.2,1214.3 " fill="none" stroke="url(#strokeB)" stroke-width="1.68" stroke-linecap="round" stroke-linejoin="round"/><circle cx="78.3" cy="38.1" r="3.7" fill="#06B6D4" opacity="0.45"/><circle cx="881.2" cy="1214.3" r="2.7" fill="#06B6D4" opacity="0.45"/><circle cx="881.2" cy="721.4" r="2.3" fill="#06B6D4" opacity="0.45"/></g>
<g opacity="0.186" filter="url(#softGlow)"><path d="M 443.2,1513.3 L 871.8,1513.3 L 871.8,1573.4 L 826.3,1573.4 L 826.3,1469.9 " fill="none" stroke="url(#strokeB)" stroke-width="1.99" stroke-linecap="round" stroke-linejoin="round"/><circle cx="871.8" cy="1573.4" r="3.9" fill="#06B6D4" opacity="0.45"/><circle cx="871.8" cy="1513.3" r="2.4" fill="#06B6D4" opacity="0.45"/><circle cx="826.3" cy="1469.9" r="3.7" fill="#06B6D4" opacity="0.45"/></g>
<g opacity="0.186" filter="url(#softGlow)"><path d="M 82.9,610.0 L 567.5,610.0 L 567.5,111.5 L 768.4,111.5 L 768.4,34.3 " fill="none" stroke="url(#strokeB)" stroke-width="1.28" stroke-linecap="round" stroke-linejoin="round"/><circle cx="82.9" cy="610.0" r="3.4" fill="#06B6D4" opacity="0.45"/><circle cx="768.4" cy="34.3" r="4.0" fill="#06B6D4" opacity="0.45"/><circle cx="567.5" cy="111.5" r="3.1" fill="#06B6D4" opacity="0.45"/></g>

<g opacity="0.690" filter="url(#hardGlow)">
  <circle cx="518.8" cy="45.6" r="36.6" fill="#0A1224" opacity="0.65"/>
  <circle cx="518.8" cy="45.6" r="36.6" fill="none" stroke="url(#strokeA)" stroke-width="2.9" opacity="0.85"/>
  <circle cx="518.8" cy="45.6" r="31.5" fill="none" stroke="#A3E635" stroke-width="1.5" opacity="0.35"/>
  <polygon points="497.2,30.4 521.1,19.3 542.6,34.5 540.3,60.7 516.4,71.8 494.9,56.7" fill="none" stroke="url(#strokeB)" stroke-width="1.2" opacity="0.65"/>
  <polygon points="513.5,38.0 527.9,44.8 514.8,53.9" fill="#A3E635" opacity="0.22" filter="url(#softGlow)"/>
</g>


<g opacity="0.618" filter="url(#hardGlow)">
  <circle cx="556.0" cy="14.7" r="14.6" fill="#0A1224" opacity="0.65"/>
  <circle cx="556.0" cy="14.7" r="14.6" fill="none" stroke="url(#strokeA)" stroke-width="2.0" opacity="0.85"/>
  <circle cx="556.0" cy="14.7" r="12.5" fill="none" stroke="#06B6D4" stroke-width="1.5" opacity="0.35"/>
  <polygon points="552.3,4.9 562.7,6.6 566.4,16.4 559.7,24.5 549.3,22.8 545.6,13.0" fill="none" stroke="url(#strokeB)" stroke-width="1.2" opacity="0.65"/>
  
</g>


<g opacity="0.454" filter="url(#hardGlow)">
  <circle cx="521.4" cy="71.9" r="18.6" fill="#0A1224" opacity="0.65"/>
  <circle cx="521.4" cy="71.9" r="18.6" fill="none" stroke="url(#strokeA)" stroke-width="2.0" opacity="0.85"/>
  <circle cx="521.4" cy="71.9" r="16.0" fill="none" stroke="#06B6D4" stroke-width="1.5" opacity="0.35"/>
  <polygon points="524.5,84.9 511.7,81.1 508.6,68.1 518.3,58.9 531.2,62.7 534.3,75.7" fill="none" stroke="url(#strokeB)" stroke-width="1.2" opacity="0.65"/>
  <polygon points="520.9,76.5 517.7,69.1 525.7,70.0" fill="#06B6D4" opacity="0.22" filter="url(#softGlow)"/>
</g>


<g opacity="0.653" filter="url(#hardGlow)">
  <circle cx="830.6" cy="1172.6" r="54.7" fill="#0A1224" opacity="0.65"/>
  <circle cx="830.6" cy="1172.6" r="54.7" fill="none" stroke="url(#strokeA)" stroke-width="4.4" opacity="0.85"/>
  <circle cx="830.6" cy="1172.6" r="47.1" fill="none" stroke="#A3E635" stroke-width="1.6" opacity="0.35"/>
  <polygon points="818.8,1210.2 792.1,1181.1 804.0,1143.5 842.5,1135.0 869.1,1164.1 857.2,1201.7" fill="none" stroke="url(#strokeB)" stroke-width="1.4" opacity="0.65"/>
  <polygon points="822.2,1183.5 825.4,1159.8 844.3,1174.4" fill="#A3E635" opacity="0.22" filter="url(#softGlow)"/>
</g>


<g opacity="0.443" filter="url(#hardGlow)">
  <circle cx="772.4" cy="1133.2" r="19.6" fill="#0A1224" opacity="0.65"/>
  <circle cx="772.4" cy="1133.2" r="19.6" fill="none" stroke="url(#strokeA)" stroke-width="2.0" opacity="0.85"/>
  <circle cx="772.4" cy="1133.2" r="16.9" fill="none" stroke="#06B6D4" stroke-width="1.5" opacity="0.35"/>
  <polygon points="784.5,1140.5 772.1,1147.3 760.0,1140.0 760.3,1125.8 772.7,1119.1 784.8,1126.4" fill="none" stroke="url(#strokeB)" stroke-width="1.2" opacity="0.65"/>
  <polygon points="775.5,1137.0 767.5,1133.9 774.2,1128.6" fill="#06B6D4" opacity="0.22" filter="url(#softGlow)"/>
</g>


<g opacity="0.518" filter="url(#hardGlow)">
  <circle cx="816.6" cy="1213.2" r="23.5" fill="#0A1224" opacity="0.65"/>
  <circle cx="816.6" cy="1213.2" r="23.5" fill="none" stroke="url(#strokeA)" stroke-width="2.0" opacity="0.85"/>
  <circle cx="816.6" cy="1213.2" r="20.2" fill="none" stroke="#06B6D4" stroke-width="1.5" opacity="0.35"/>
  <polygon points="808.7,1228.1 799.7,1213.8 807.6,1198.9 824.5,1198.3 833.5,1212.6 825.6,1227.5" fill="none" stroke="url(#strokeB)" stroke-width="1.2" opacity="0.65"/>
  <polygon points="812.2,1217.2 815.4,1207.4 822.2,1215.0" fill="#06B6D4" opacity="0.22" filter="url(#softGlow)"/>
</g>


<g opacity="0.915" filter="url(#hardGlow)">
  <circle cx="782.8" cy="8.8" r="45.2" fill="#0A1224" opacity="0.65"/>
  <circle cx="782.8" cy="8.8" r="45.2" fill="none" stroke="url(#strokeA)" stroke-width="3.6" opacity="0.85"/>
  <circle cx="782.8" cy="8.8" r="38.9" fill="none" stroke="#A3E635" stroke-width="1.5" opacity="0.35"/>
  <polygon points="790.1,40.5 759.0,30.9 751.7,-0.8 775.6,-23.0 806.7,-13.4 813.9,18.4" fill="none" stroke="url(#strokeB)" stroke-width="1.2" opacity="0.65"/>
  <polygon points="781.4,20.1 773.7,1.9 793.3,4.3" fill="#A3E635" opacity="0.22" filter="url(#softGlow)"/>
</g>


<g opacity="0.384" filter="url(#hardGlow)">
  <circle cx="821.0" cy="-45.5" r="24.2" fill="#0A1224" opacity="0.65"/>
  <circle cx="821.0" cy="-45.5" r="24.2" fill="none" stroke="url(#strokeA)" stroke-width="2.0" opacity="0.85"/>
  <circle cx="821.0" cy="-45.5" r="20.8" fill="none" stroke="#06B6D4" stroke-width="1.5" opacity="0.35"/>
  <polygon points="833.1,-32.8 816.1,-28.7 804.1,-41.4 809.0,-58.1 826.0,-62.2 838.0,-49.6" fill="none" stroke="url(#strokeB)" stroke-width="1.2" opacity="0.65"/>
  
</g>


<g opacity="0.638" filter="url(#hardGlow)">
  <circle cx="718.7" cy="20.4" r="17.7" fill="#0A1224" opacity="0.65"/>
  <circle cx="718.7" cy="20.4" r="17.7" fill="none" stroke="url(#strokeA)" stroke-width="2.0" opacity="0.85"/>
  <circle cx="718.7" cy="20.4" r="15.3" fill="none" stroke="#06B6D4" stroke-width="1.5" opacity="0.35"/>
  <polygon points="709.7,11.3 722.1,8.0 731.0,17.2 727.6,29.5 715.3,32.7 706.3,23.6" fill="none" stroke="url(#strokeB)" stroke-width="1.2" opacity="0.65"/>
  
</g>


<g opacity="0.569" filter="url(#hardGlow)">
  <circle cx="747.7" cy="-25.6" r="18.4" fill="#0A1224" opacity="0.65"/>
  <circle cx="747.7" cy="-25.6" r="18.4" fill="none" stroke="url(#strokeA)" stroke-width="2.0" opacity="0.85"/>
  <circle cx="747.7" cy="-25.6" r="15.9" fill="none" stroke="#06B6D4" stroke-width="1.5" opacity="0.35"/>
  <polygon points="741.2,-37.1 754.4,-37.1 761.0,-25.5 754.3,-14.1 741.0,-14.1 734.4,-25.7" fill="none" stroke="url(#strokeB)" stroke-width="1.2" opacity="0.65"/>
  <polygon points="746.9,-30.2 752.1,-24.0 744.1,-22.6" fill="#06B6D4" opacity="0.22" filter="url(#softGlow)"/>
</g>


<g opacity="0.880" filter="url(#hardGlow)">
  <circle cx="128.8" cy="130.1" r="51.5" fill="#0A1224" opacity="0.65"/>
  <circle cx="128.8" cy="130.1" r="51.5" fill="none" stroke="url(#strokeA)" stroke-width="4.1" opacity="0.85"/>
  <circle cx="128.8" cy="130.1" r="44.3" fill="none" stroke="#A3E635" stroke-width="1.5" opacity="0.35"/>
  <polygon points="164.0,118.2 156.7,154.6 121.6,166.5 93.7,142.0 101.0,105.6 136.1,93.7" fill="none" stroke="url(#strokeB)" stroke-width="1.3" opacity="0.65"/>
  <polygon points="141.8,130.4 122.1,141.2 122.6,118.7" fill="#A3E635" opacity="0.22" filter="url(#softGlow)"/>
</g>


<g opacity="0.436" filter="url(#hardGlow)">
  <circle cx="197.4" cy="174.4" r="26.6" fill="#0A1224" opacity="0.65"/>
  <circle cx="197.4" cy="174.4" r="26.6" fill="none" stroke="url(#strokeA)" stroke-width="2.1" opacity="0.85"/>
  <circle cx="197.4" cy="174.4" r="22.8" fill="none" stroke="#06B6D4" stroke-width="1.5" opacity="0.35"/>
  <polygon points="210.6,160.6 216.0,178.9 202.7,192.7 184.2,188.2 178.9,169.8 192.1,156.0" fill="none" stroke="url(#strokeB)" stroke-width="1.2" opacity="0.65"/>
  
</g>


<g opacity="0.817" filter="url(#hardGlow)">
  <circle cx="46.4" cy="1519.4" r="40.7" fill="#0A1224" opacity="0.65"/>
  <circle cx="46.4" cy="1519.4" r="40.7" fill="none" stroke="url(#strokeA)" stroke-width="3.3" opacity="0.85"/>
  <circle cx="46.4" cy="1519.4" r="35.0" fill="none" stroke="#A3E635" stroke-width="1.5" opacity="0.35"/>
  <polygon points="17.8,1525.6 26.7,1497.7 55.4,1491.5 75.1,1513.1 66.1,1541.1 37.5,1547.3" fill="none" stroke="url(#strokeB)" stroke-width="1.2" opacity="0.65"/>
  <polygon points="36.3,1518.0 52.7,1511.3 50.3,1528.9" fill="#A3E635" opacity="0.22" filter="url(#softGlow)"/>
</g>


<g opacity="0.396" filter="url(#hardGlow)">
  <circle cx="99.7" cy="1483.4" r="20.3" fill="#0A1224" opacity="0.65"/>
  <circle cx="99.7" cy="1483.4" r="20.3" fill="none" stroke="url(#strokeA)" stroke-width="2.0" opacity="0.85"/>
  <circle cx="99.7" cy="1483.4" r="17.5" fill="none" stroke="#06B6D4" stroke-width="1.5" opacity="0.35"/>
  <polygon points="85.1,1484.3 91.6,1471.2 106.2,1470.3 114.3,1482.6 107.7,1495.6 93.1,1496.5" fill="none" stroke="url(#strokeB)" stroke-width="1.2" opacity="0.65"/>
  
</g>


<g opacity="0.461" filter="url(#hardGlow)">
  <circle cx="16.0" cy="1535.1" r="19.2" fill="#0A1224" opacity="0.65"/>
  <circle cx="16.0" cy="1535.1" r="19.2" fill="none" stroke="url(#strokeA)" stroke-width="2.0" opacity="0.85"/>
  <circle cx="16.0" cy="1535.1" r="16.5" fill="none" stroke="#06B6D4" stroke-width="1.5" opacity="0.35"/>
  <polygon points="6.2,1525.4 19.5,1521.7 29.3,1531.4 25.8,1544.8 12.5,1548.4 2.7,1538.7" fill="none" stroke="url(#strokeB)" stroke-width="1.2" opacity="0.65"/>
  <polygon points="14.0,1530.7 20.8,1535.5 13.3,1539.1" fill="#06B6D4" opacity="0.22" filter="url(#softGlow)"/>
</g>


<g opacity="0.487" filter="url(#hardGlow)">
  <circle cx="3.6" cy="1543.7" r="14.4" fill="#0A1224" opacity="0.65"/>
  <circle cx="3.6" cy="1543.7" r="14.4" fill="none" stroke="url(#strokeA)" stroke-width="2.0" opacity="0.85"/>
  <circle cx="3.6" cy="1543.7" r="12.3" fill="none" stroke="#06B6D4" stroke-width="1.5" opacity="0.35"/>
  <polygon points="3.4,1554.1 -5.4,1548.8 -5.3,1538.4 3.7,1533.4 12.6,1538.7 12.5,1549.0" fill="none" stroke="url(#strokeB)" stroke-width="1.2" opacity="0.65"/>
  
</g>


<g opacity="0.684" filter="url(#hardGlow)">
  <circle cx="72.9" cy="1589.8" r="49.6" fill="#0A1224" opacity="0.65"/>
  <circle cx="72.9" cy="1589.8" r="49.6" fill="none" stroke="url(#strokeA)" stroke-width="4.0" opacity="0.85"/>
  <circle cx="72.9" cy="1589.8" r="42.6" fill="none" stroke="#A3E635" stroke-width="1.5" opacity="0.35"/>
  <polygon points="48.5,1615.8 38.2,1581.6 62.7,1555.6 97.4,1563.8 107.7,1598.0 83.2,1624.0" fill="none" stroke="url(#strokeB)" stroke-width="1.2" opacity="0.65"/>
  <polygon points="61.8,1595.4 73.7,1577.3 83.4,1596.6" fill="#A3E635" opacity="0.22" filter="url(#softGlow)"/>
</g>


<g opacity="0.490" filter="url(#hardGlow)">
  <circle cx="82.4" cy="1630.7" r="20.7" fill="#0A1224" opacity="0.65"/>
  <circle cx="82.4" cy="1630.7" r="20.7" fill="none" stroke="url(#strokeA)" stroke-width="2.0" opacity="0.85"/>
  <circle cx="82.4" cy="1630.7" r="17.8" fill="none" stroke="#06B6D4" stroke-width="1.5" opacity="0.35"/>
  <polygon points="80.5,1616.0 94.2,1621.7 96.1,1636.5 84.3,1645.5 70.6,1639.8 68.6,1625.0" fill="none" stroke="url(#strokeB)" stroke-width="1.2" opacity="0.65"/>
  
</g>


<g opacity="0.633" filter="url(#hardGlow)">
  <circle cx="106.3" cy="1537.9" r="23.3" fill="#0A1224" opacity="0.65"/>
  <circle cx="106.3" cy="1537.9" r="23.3" fill="none" stroke="url(#strokeA)" stroke-width="2.0" opacity="0.85"/>
  <circle cx="106.3" cy="1537.9" r="20.0" fill="none" stroke="#06B6D4" stroke-width="1.5" opacity="0.35"/>
  <polygon points="103.1,1554.4 90.5,1543.4 93.7,1526.9 109.5,1521.5 122.1,1532.5 118.9,1548.9" fill="none" stroke="url(#strokeB)" stroke-width="1.2" opacity="0.65"/>
  <polygon points="103.3,1542.9 103.4,1532.8 112.1,1538.0" fill="#06B6D4" opacity="0.22" filter="url(#softGlow)"/>
</g>


<g opacity="0.428" transform="translate(870.8,287.3) rotate(-9.5)" filter="url(#softGlow)">
  <rect x="-74.0" y="-62.9" width="148.0" height="125.8" rx="12.6" fill="#050A12" opacity="0.25"/>
  <rect x="-74.0" y="-62.9" width="148.0" height="125.8" rx="12.6" fill="none" stroke="url(#strokeA)" stroke-width="6.3" opacity="0.85"/>
  <rect x="-63.9" y="-52.8" width="127.9" height="105.7" rx="8.8" fill="none" stroke="#A3E635" stroke-width="2.5" opacity="0.35"/>
</g>


<g opacity="0.274" transform="translate(898.0,300.4) rotate(2.7)" filter="url(#softGlow)">
  <rect x="-70.4" y="-63.8" width="140.8" height="127.6" rx="12.8" fill="#050A12" opacity="0.25"/>
  <rect x="-70.4" y="-63.8" width="140.8" height="127.6" rx="12.8" fill="none" stroke="url(#strokeA)" stroke-width="6.4" opacity="0.85"/>
  <rect x="-60.2" y="-53.6" width="120.4" height="107.2" rx="8.9" fill="none" stroke="#A3E635" stroke-width="2.6" opacity="0.35"/>
</g>


<g opacity="0.295" transform="translate(880.6,74.6) rotate(-5.0)" filter="url(#softGlow)">
  <rect x="-78.6" y="-63.8" width="157.3" height="127.7" rx="12.8" fill="#050A12" opacity="0.25"/>
  <rect x="-78.6" y="-63.8" width="157.3" height="127.7" rx="12.8" fill="none" stroke="url(#strokeA)" stroke-width="6.4" opacity="0.85"/>
  <rect x="-68.4" y="-53.6" width="136.9" height="107.3" rx="8.9" fill="none" stroke="#A3E635" stroke-width="2.6" opacity="0.35"/>
</g>


<g opacity="0.467" transform="translate(742.8,141.8) rotate(-13.4)" filter="url(#softGlow)">
  <rect x="-49.7" y="-28.6" width="99.4" height="57.3" rx="17.5" fill="none" stroke="#A3E635" stroke-width="9.5" opacity="0.55"/>
  <rect x="-21.9" y="-14.3" width="99.4" height="57.3" rx="17.5" fill="none" stroke="url(#strokeA)" stroke-width="8.0" opacity="0.55"/>
</g>


<g opacity="0.271" transform="translate(66.2,1483.2) rotate(-5.7)" filter="url(#softGlow)">
  <rect x="-32.5" y="-18.7" width="64.9" height="37.4" rx="11.4" fill="none" stroke="#A3E635" stroke-width="6.2" opacity="0.55"/>
  <rect x="-14.3" y="-9.3" width="64.9" height="37.4" rx="11.4" fill="none" stroke="url(#strokeA)" stroke-width="5.2" opacity="0.55"/>
</g>


<g opacity="0.364" transform="translate(69.9,1522.5) rotate(0.6)" filter="url(#softGlow)">
  <rect x="-50.0" y="-28.8" width="100.0" height="57.6" rx="17.6" fill="none" stroke="#A3E635" stroke-width="9.6" opacity="0.55"/>
  <rect x="-22.0" y="-14.4" width="100.0" height="57.6" rx="17.6" fill="none" stroke="url(#strokeA)" stroke-width="8.0" opacity="0.55"/>
</g>


<g opacity="0.376" transform="translate(814.8,1525.4) rotate(-1.2)" filter="url(#softGlow)">
  <rect x="-33.9" y="-19.5" width="67.7" height="39.0" rx="11.9" fill="none" stroke="#06B6D4" stroke-width="6.5" opacity="0.55"/>
  <rect x="-14.9" y="-9.8" width="67.7" height="39.0" rx="11.9" fill="none" stroke="url(#strokeA)" stroke-width="5.4" opacity="0.55"/>
</g>


<g opacity="0.331" transform="translate(799.4,1497.8) rotate(16.5)" filter="url(#softGlow)">
  <rect x="-42.6" y="-24.5" width="85.1" height="49.0" rx="15.0" fill="none" stroke="#A3E635" stroke-width="8.2" opacity="0.55"/>
  <rect x="-18.7" y="-12.3" width="85.1" height="49.0" rx="15.0" fill="none" stroke="url(#strokeA)" stroke-width="6.8" opacity="0.55"/>
</g>


<g opacity="0.392" transform="translate(179.0,112.4) rotate(-4.5)" filter="url(#softGlow)">
  <rect x="-45.3" y="-26.1" width="90.5" height="52.1" rx="15.9" fill="none" stroke="#06B6D4" stroke-width="8.7" opacity="0.55"/>
  <rect x="-19.9" y="-13.0" width="90.5" height="52.1" rx="15.9" fill="none" stroke="url(#strokeA)" stroke-width="7.2" opacity="0.55"/>
</g>


<g opacity="0.344" transform="translate(479.4,1542.7) rotate(14.6)" filter="url(#softGlow)">
  <rect x="-33.0" y="-19.0" width="65.9" height="38.0" rx="11.6" fill="none" stroke="#A3E635" stroke-width="6.3" opacity="0.55"/>
  <rect x="-14.5" y="-9.5" width="65.9" height="38.0" rx="11.6" fill="none" stroke="url(#strokeA)" stroke-width="5.3" opacity="0.55"/>
</g>


<g opacity="0.152">
  <line x1="414.3" y1="1410.2" x2="414.3" y2="1487.8" stroke="#06B6D4" stroke-width="1.80" opacity="0.45"/>
  <rect x="409.5" y="1448.3" width="9.7" height="48.0" rx="3.2" fill="#0B1020" opacity="0.55" stroke="url(#strokeA)" stroke-width="1.2"/>
</g>

<g opacity="0.152">
  <line x1="576.3" y1="1408.5" x2="576.3" y2="1488.2" stroke="#06B6D4" stroke-width="1.41" opacity="0.45"/>
  <rect x="572.4" y="1450.0" width="7.6" height="44.5" rx="2.5" fill="#0B1020" opacity="0.55" stroke="url(#strokeA)" stroke-width="1.2"/>
</g>

<g opacity="0.152">
  <line x1="477.3" y1="1434.1" x2="477.3" y2="1481.8" stroke="#06B6D4" stroke-width="1.55" opacity="0.45"/>
  <rect x="471.7" y="1462.7" width="11.3" height="19.1" rx="3.8" fill="#0B1020" opacity="0.55" stroke="url(#strokeA)" stroke-width="1.2"/>
</g>

<g opacity="0.152">
  <line x1="294.4" y1="1436.2" x2="294.4" y2="1481.3" stroke="#06B6D4" stroke-width="1.65" opacity="0.45"/>
  <rect x="289.8" y="1460.1" width="9.1" height="24.3" rx="3.0" fill="#0B1020" opacity="0.55" stroke="url(#strokeA)" stroke-width="1.2"/>
</g>

<g opacity="0.152">
  <line x1="95.6" y1="1411.8" x2="95.6" y2="1487.4" stroke="#06B6D4" stroke-width="1.23" opacity="0.45"/>
  <rect x="90.4" y="1451.7" width="10.4" height="41.1" rx="3.5" fill="#0B1020" opacity="0.55" stroke="url(#strokeA)" stroke-width="1.2"/>
</g>

<g opacity="0.152">
  <line x1="669.4" y1="1390.5" x2="669.4" y2="1492.7" stroke="#06B6D4" stroke-width="1.51" opacity="0.45"/>
  <rect x="664.8" y="1445.4" width="9.2" height="53.7" rx="3.1" fill="#0B1020" opacity="0.55" stroke="url(#strokeA)" stroke-width="1.2"/>
</g>

<g opacity="0.152">
  <line x1="137.2" y1="1397.9" x2="137.2" y2="1490.9" stroke="#06B6D4" stroke-width="1.53" opacity="0.45"/>
  <rect x="133.7" y="1445.6" width="6.9" height="53.4" rx="2.3" fill="#0B1020" opacity="0.55" stroke="url(#strokeA)" stroke-width="1.2"/>
</g>

<g opacity="0.152">
  <line x1="701.3" y1="1400.7" x2="701.3" y2="1490.2" stroke="#06B6D4" stroke-width="2.17" opacity="0.45"/>
  <rect x="696.0" y="1453.7" width="10.5" height="37.1" rx="3.5" fill="#0B1020" opacity="0.55" stroke="url(#strokeA)" stroke-width="1.2"/>
</g>

<g opacity="0.152">
  <line x1="485.1" y1="1400.7" x2="485.1" y2="1490.2" stroke="#06B6D4" stroke-width="1.91" opacity="0.45"/>
  <rect x="480.0" y="1442.3" width="10.2" height="59.8" rx="3.4" fill="#0B1020" opacity="0.55" stroke="url(#strokeA)" stroke-width="1.2"/>
</g>

<g opacity="0.152">
  <line x1="387.9" y1="1416.9" x2="387.9" y2="1486.1" stroke="#06B6D4" stroke-width="1.23" opacity="0.45"/>
  <rect x="384.0" y="1457.3" width="7.7" height="30.0" rx="2.6" fill="#0B1020" opacity="0.55" stroke="url(#strokeA)" stroke-width="1.2"/>
</g>

<g opacity="0.152">
  <line x1="381.7" y1="1426.5" x2="381.7" y2="1483.7" stroke="#06B6D4" stroke-width="2.13" opacity="0.45"/>
  <rect x="377.3" y="1463.3" width="8.9" height="18.0" rx="3.0" fill="#0B1020" opacity="0.55" stroke="url(#strokeA)" stroke-width="1.2"/>
</g>
<circle cx="49.8" cy="59.8" r="3.1" fill="#A3E635" opacity="0.15" filter="url(#softGlow)"/>
<circle cx="314.9" cy="52.7" r="3.1" fill="#A3E635" opacity="0.21" filter="url(#softGlow)"/>
<circle cx="805.9" cy="1516.5" r="1.4" fill="#A3E635" opacity="0.20" filter="url(#softGlow)"/>
<circle cx="12.0" cy="170.6" r="2.9" fill="#A3E635" opacity="0.23" filter="url(#softGlow)"/>
<circle cx="335.1" cy="147.9" r="2.5" fill="#A3E635" opacity="0.27" filter="url(#softGlow)"/>
<circle cx="726.5" cy="123.8" r="2.5" fill="#A3E635" opacity="0.16" filter="url(#softGlow)"/>
<circle cx="801.2" cy="109.1" r="3.1" fill="#A3E635" opacity="0.27" filter="url(#softGlow)"/>
<circle cx="42.9" cy="47.4" r="1.7" fill="#A3E635" opacity="0.20" filter="url(#softGlow)"/>
<circle cx="897.2" cy="188.5" r="2.4" fill="#A3E635" opacity="0.12" filter="url(#softGlow)"/>
<circle cx="99.6" cy="1463.7" r="1.9" fill="#A3E635" opacity="0.12" filter="url(#softGlow)"/>
<circle cx="669.4" cy="14.5" r="1.8" fill="#A3E635" opacity="0.23" filter="url(#softGlow)"/>
<circle cx="820.3" cy="1211.6" r="1.8" fill="#A3E635" opacity="0.27" filter="url(#softGlow)"/>
<circle cx="17.9" cy="82.3" r="2.4" fill="#A3E635" opacity="0.21" filter="url(#softGlow)"/>
<circle cx="897.4" cy="874.5" r="2.6" fill="#A3E635" opacity="0.19" filter="url(#softGlow)"/>
<circle cx="725.3" cy="34.3" r="1.3" fill="#A3E635" opacity="0.25" filter="url(#softGlow)"/>
<circle cx="829.8" cy="1428.3" r="2.6" fill="#A3E635" opacity="0.11" filter="url(#softGlow)"/>
<circle cx="14.2" cy="31.0" r="1.5" fill="#A3E635" opacity="0.16" filter="url(#softGlow)"/>
<circle cx="115.3" cy="1470.2" r="2.5" fill="#A3E635" opacity="0.27" filter="url(#softGlow)"/>
<circle cx="834.3" cy="1460.5" r="1.8" fill="#A3E635" opacity="0.22" filter="url(#softGlow)"/>
<circle cx="855.1" cy="1421.4" r="1.3" fill="#A3E635" opacity="0.22" filter="url(#softGlow)"/>
<circle cx="14.7" cy="967.9" r="3.0" fill="#A3E635" opacity="0.25" filter="url(#softGlow)"/>
</svg>