<svg xmlns="http://www.w3.org/2000/svg" width="900" height="1600" viewBox="0 0 900 1600" preserveAspectRatio="xMidYMid slice">
<defs>
  <linearGradient id="g0" x1="0" y1="0" x2="1" y2="1">
    <stop offset="0" stop-color="#0B1020"/>
    <stop offset="0.55" stop-color="#00E5FF" stop-opacity="0.9"/>
    <stop offset="1" stop-color="#051018"/>
  </linearGradient>
  <radialGradient id="g1" cx="20%" cy="15%" r="70%">
    <stop offset="0" stop-color="#7C4DFF" stop-opacity="0.38"/>
    <stop offset="0.6" stop-color="#7C4DFF" stop-opacity="0.08"/>
    <stop offset="1" stop-color="#7C4DFF" stop-opacity="0"/>
  </radialGradient>
  <radialGradient id="g2" cx="85%" cy="80%" r="75%">
    <stop offset="0" stop-color="#7C4DFF" stop-opacity="0.28"/>
    <stop offset="0.65" stop-color="#7C4DFF" stop-opacity="0.06"/>
    <stop offset="1" stop-color="#7C4DFF" stop-opacity="0"/>
  </radialGradient>
  <filter id="softGlow" x="-30%" y="-30%" width="160%" height="160%">
    <feGaussianBlur stdDeviation="12" result="b"/>
    <feMerge>
      <feMergeNode in="b"/>
      <feMergeNode in="SourceGraphic"/>
    </feMerge>
  </filter>
  <filter id="hardGlow" x="-40%" y="-40%" width="180%" height="180%">
    <feGaussianBlur stdDeviation="6" result="b"/>
    <feColorMatrix in="b" type="matrix" values="1 0 0 0 0  0 1 0 0 0  0 0 1 0 0  0 0 0 18 -7" result="c"/>
    <feMerge>
      <feMergeNode in="c"/>
      <feMergeNode in="SourceGraphic"/>
    </feMerge>
  </filter>
  <linearGradient id="strokeA" x1="0" y1="0" x2="1" y2="0">
    <stop offset="0" stop-color="#7C4DFF" stop-opacity="0.9"/>
    <stop offset="0.5" stop-color="#FFFFFF" stop-opacity="0.25"/>
    <stop offset="1" stop-color="#7C4DFF" stop-opacity="0.7"/>
  </linearGradient>
  <linearGradient id="strokeB" x1="0" y1="0" x2="0" y2="1">
    <stop offset="0" stop-color="#FFFFFF" stop-opacity="0.18"/>
    <stop offset="1" stop-color="#7C4DFF" stop-opacity="0.55"/>
  </linearGradient>
</defs>
<rect x="0" y="0" width="900" height="1600" fill="url(#g0)"/>
<rect x="0" y="0" width="900" height="1600" fill="url(#g1)"/>
<rect x="0" y="0" width="900" height="1600" fill="url(#g2)"/>


<defs>
  <radialGradient id="vign" cx="0.5000" cy="0.5000" r="0.85">
    <stop offset="0" stop-color="#000000" stop-opacity="0"/>
    <stop offset="0.55" stop-color="#000000" stop-opacity="0.217"/>
    <stop offset="1" stop-color="#000000" stop-opacity="0.620"/>
  </radialGradient>
</defs>
<rect x="0" y="0" width="900" height="1600" fill="url(#vign)"/>

<g opacity="0.233" filter="url(#softGlow)"><path d="M 195.9,1511.1 L 125.2,1511.1 L 125.2,361.5 L 517.0,361.5 L 517.0,1550.7 " fill="none" stroke="url(#strokeB)" stroke-width="1.82" stroke-linecap="round" stroke-linejoin="round"/><circle cx="517.0" cy="1550.7" r="4.1" fill="#00E5FF" opacity="0.45"/><circle cx="125.2" cy="1511.1" r="2.3" fill="#00E5FF" opacity="0.45"/><circle cx="125.2" cy="361.5" r="3.9" fill="#00E5FF" opacity="0.45"/></g>
<g opacity="0.233" filter="url(#softGlow)"><path d="M 592.3,1510.4 L 42.0,1510.4 L 42.0,1016.3 L 120.5,1016.3 L 120.5,31.6 " fill="none" stroke="url(#strokeB)" stroke-width="1.52" stroke-linecap="round" stroke-linejoin="round"/><circle cx="592.3" cy="1510.4" r="3.2" fill="#00E5FF" opacity="0.45"/><circle cx="120.5" cy="31.6" r="3.7" fill="#00E5FF" opacity="0.45"/><circle cx="42.0" cy="1016.3" r="4.0" fill="#00E5FF" opacity="0.45"/></g>
<g opacity="0.233" filter="url(#softGlow)"><path d="M 440.4,44.1 L 96.1,44.1 L 96.1,1582.8 L 796.5,1582.8 L 796.5,53.1 " fill="none" stroke="url(#strokeB)" stroke-width="1.73" stroke-linecap="round" stroke-linejoin="round"/><circle cx="796.5" cy="53.1" r="2.5" fill="#00E5FF" opacity="0.45"/><circle cx="796.5" cy="1582.8" r="2.4" fill="#00E5FF" opacity="0.45"/><circle cx="440.4" cy="44.1" r="3.1" fill="#00E5FF" opacity="0.45"/></g>
<g opacity="0.233" filter="url(#softGlow)"><path d="M 188.3,123.8 L 836.4,123.8 L 836.4,768.9 L 425.4,768.9 L 425.4,1433.7 " fill="none" stroke="url(#strokeB)" stroke-width="1.12" stroke-linecap="round" stroke-linejoin="round"/><circle cx="425.4" cy="1433.7" r="3.0" fill="#00E5FF" opacity="0.45"/><circle cx="425.4" cy="768.9" r="3.7" fill="#00E5FF" opacity="0.45"/><circle cx="188.3" cy="123.8" r="4.0" fill="#00E5FF" opacity="0.45"/></g>
<g opacity="0.233" filter="url(#softGlow)"><path d="M 726.8,96.5 L 75.1,96.5 L 75.1,100.5 L 752.7,100.5 L 752.7,67.0 " fill="none" stroke="url(#strokeB)" stroke-width="1.58" stroke-linecap="round" stroke-linejoin="round"/><circle cx="752.7" cy="67.0" r="2.7" fill="#00E5FF" opacity="0.45"/><circle cx="75.1" cy="100.5" r="3.8" fill="#00E5FF" opacity="0.45"/><circle cx="752.7" cy="100.5" r="3.8" fill="#00E5FF" opacity="0.45"/></g>
<g opacity="0.233" filter="url(#softGlow)"><path d="M 67.1,178.2 L 479.0,178.2 L 479.0,158.3 L 76.6,158.3 L 76.6,127.4 " fill="none" stroke="url(#strokeB)" stroke-width="2.00" stroke-linecap="round" stroke-linejoin="round"/><circle cx="479.0" cy="178.2" r="2.1" fill="#00E5FF" opacity="0.45"/><circle cx="67.1" cy="178.2" r="3.3" fill="#00E5FF" opacity="0.45"/><circle cx="479.0" cy="158.3" r="2.6" fill="#00E5FF" opacity="0.45"/></g>
<g opacity="0.233" filter="url(#softGlow)"><path d="M 807.0,1455.6 L 68.4,1455.6 L 68.4,116.1 L 155.9,116.1 L 155.9,113.3 " fill="none" stroke="url(#strokeB)" stroke-width="1.98" stroke-linecap="round" stroke-linejoin="round"/><circle cx="155.9" cy="116.1" r="3.9" fill="#00E5FF" opacity="0.45"/><circle cx="68.4" cy="1455.6" r="2.6" fill="#00E5FF" opacity="0.45"/><circle cx="68.4" cy="116.1" r="3.5" fill="#00E5FF" opacity="0.45"/></g>
<g opacity="0.233" filter="url(#softGlow)"><path d="M 1.3,1530.9 L 798.1,1530.9 L 798.1,1422.3 L 848.0,1422.3 L 848.0,115.9 " fill="none" stroke="url(#strokeB)" stroke-width="2.13" stroke-linecap="round" stroke-linejoin="round"/><circle cx="848.0" cy="1422.3" r="2.9" fill="#00E5FF" opacity="0.45"/><circle cx="848.0" cy="115.9" r="3.5" fill="#00E5FF" opacity="0.45"/><circle cx="798.1" cy="1530.9" r="3.1" fill="#00E5FF" opacity="0.45"/></g>
<g opacity="0.233" filter="url(#softGlow)"><path d="M 164.0,94.8 L 461.9,94.8 L 461.9,1454.1 L 737.8,1454.1 L 737.8,1470.7 " fill="none" stroke="url(#strokeB)" stroke-width="1.96" stroke-linecap="round" stroke-linejoin="round"/><circle cx="461.9" cy="1454.1" r="4.2" fill="#00E5FF" opacity="0.45"/><circle cx="737.8" cy="1454.1" r="2.1" fill="#00E5FF" opacity="0.45"/><circle cx="461.9" cy="94.8" r="3.1" fill="#00E5FF" opacity="0.45"/></g>
<g opacity="0.233" filter="url(#softGlow)"><path d="M 327.9,1468.8 L 751.7,1468.8 L 751.7,143.4 L 795.7,143.4 L 795.7,85.3 " fill="none" stroke="url(#strokeB)" stroke-width="1.66" stroke-linecap="round" stroke-linejoin="round"/><circle cx="327.9" cy="1468.8" r="3.8" fill="#00E5FF" opacity="0.45"/><circle cx="751.7" cy="143.4" r="2.4" fill="#00E5FF" opacity="0.45"/><circle cx="795.7" cy="143.4" r="4.0" fill="#00E5FF" opacity="0.45"/></g>
<g opacity="0.233" filter="url(#softGlow)"><path d="M 272.9,1488.4 L 735.1,1488.4 L 735.1,2.9 L 848.1,2.9 L 848.1,395.1 " fill="none" stroke="url(#strokeB)" stroke-width="1.26" stroke-linecap="round" stroke-linejoin="round"/><circle cx="735.1" cy="1488.4" r="2.1" fill="#00E5FF" opacity="0.45"/><circle cx="848.1" cy="2.9" r="2.6" fill="#00E5FF" opacity="0.45"/><circle cx="735.1" cy="2.9" r="2.3" fill="#00E5FF" opacity="0.45"/></g>
<g opacity="0.233" filter="url(#softGlow)"><path d="M 852.2,1535.3 L 123.8,1535.3 L 123.8,1526.4 L 851.5,1526.4 L 851.5,129.5 " fill="none" stroke="url(#strokeB)" stroke-width="1.90" stroke-linecap="round" stroke-linejoin="round"/><circle cx="852.2" cy="1535.3" r="2.7" fill="#00E5FF" opacity="0.45"/><circle cx="123.8" cy="1526.4" r="2.3" fill="#00E5FF" opacity="0.45"/><circle cx="851.5" cy="129.5" r="3.4" fill="#00E5FF" opacity="0.45"/></g>
<g opacity="0.233" filter="url(#softGlow)"><path d="M 167.4,1498.3 L 421.0,1498.3 L 421.0,1456.9 L 809.8,1456.9 L 809.8,5.4 " fill="none" stroke="url(#strokeB)" stroke-width="1.63" stroke-linecap="round" stroke-linejoin="round"/><circle cx="421.0" cy="1498.3" r="3.1" fill="#00E5FF" opacity="0.45"/><circle cx="809.8" cy="5.4" r="2.1" fill="#00E5FF" opacity="0.45"/><circle cx="809.8" cy="1456.9" r="3.4" fill="#00E5FF" opacity="0.45"/></g>
<g opacity="0.233" filter="url(#softGlow)"><path d="M 165.1,1529.7 L 846.2,1529.7 L 846.2,68.1 L 658.9,68.1 L 658.9,76.6 " fill="none" stroke="url(#strokeB)" stroke-width="1.88" stroke-linecap="round" stroke-linejoin="round"/><circle cx="658.9" cy="68.1" r="3.3" fill="#00E5FF" opacity="0.45"/><circle cx="846.2" cy="1529.7" r="2.2" fill="#00E5FF" opacity="0.45"/><circle cx="846.2" cy="68.1" r="2.2" fill="#00E5FF" opacity="0.45"/></g>

<g opacity="0.834" filter="url(#hardGlow)">
  <circle cx="769.1" cy="138.2" r="36.9" fill="#0A1224" opacity="0.65"/>
  <circle cx="769.1" cy="138.2" r="36.9" fill="none" stroke="url(#strokeA)" stroke-width="3.0" opacity="0.85"/>
  <circle cx="769.1" cy="138.2" r="31.7" fill="none" stroke="#FFB300" stroke-width="1.5" opacity="0.35"/>
  <polygon points="785.2,117.1 795.5,141.6 779.4,162.7 753.1,159.3 742.8,134.9 758.9,113.7" fill="none" stroke="url(#strokeB)" stroke-width="1.2" opacity="0.65"/>
  <polygon points="777.0,133.2 769.6,147.5 760.9,134.0" fill="#FFB300" opacity="0.22" filter="url(#softGlow)"/>
</g>


<g opacity="0.374" filter="url(#hardGlow)">
  <circle cx="791.3" cy="161.2" r="14.7" fill="#0A1224" opacity="0.65"/>
  <circle cx="791.3" cy="161.2" r="14.7" fill="none" stroke="url(#strokeA)" stroke-width="2.0" opacity="0.85"/>
  <circle cx="791.3" cy="161.2" r="12.6" fill="none" stroke="#00E5FF" stroke-width="1.5" opacity="0.35"/>
  <polygon points="791.5,171.8 782.3,166.6 782.1,156.1 791.2,150.7 800.4,155.9 800.6,166.4" fill="none" stroke="url(#strokeB)" stroke-width="1.2" opacity="0.65"/>
  <polygon points="790.1,164.7 788.9,158.4 795.0,160.6" fill="#00E5FF" opacity="0.22" filter="url(#softGlow)"/>
</g>


<g opacity="0.639" filter="url(#hardGlow)">
  <circle cx="736.6" cy="153.1" r="15.3" fill="#0A1224" opacity="0.65"/>
  <circle cx="736.6" cy="153.1" r="15.3" fill="none" stroke="url(#strokeA)" stroke-width="2.0" opacity="0.85"/>
  <circle cx="736.6" cy="153.1" r="13.2" fill="none" stroke="#00E5FF" stroke-width="1.5" opacity="0.35"/>
  <polygon points="734.7,142.3 745.1,146.0 747.0,156.9 738.6,164.0 728.2,160.2 726.3,149.4" fill="none" stroke="url(#strokeB)" stroke-width="1.2" opacity="0.65"/>
  <polygon points="737.3,149.3 739.6,155.6 733.0,154.5" fill="#00E5FF" opacity="0.22" filter="url(#softGlow)"/>
</g>


<g opacity="0.423" filter="url(#hardGlow)">
  <circle cx="808.4" cy="112.5" r="16.2" fill="#0A1224" opacity="0.65"/>
  <circle cx="808.4" cy="112.5" r="16.2" fill="none" stroke="url(#strokeA)" stroke-width="2.0" opacity="0.85"/>
  <circle cx="808.4" cy="112.5" r="13.9" fill="none" stroke="#00E5FF" stroke-width="1.5" opacity="0.35"/>
  <polygon points="816.3,103.9 819.8,115.1 811.8,123.6 800.5,121.0 797.0,109.9 804.9,101.3" fill="none" stroke="url(#strokeB)" stroke-width="1.2" opacity="0.65"/>
  <polygon points="812.0,110.6 808.2,116.6 805.0,110.3" fill="#00E5FF" opacity="0.22" filter="url(#softGlow)"/>
</g>


<g opacity="0.738" filter="url(#hardGlow)">
  <circle cx="330.1" cy="1474.8" r="47.0" fill="#0A1224" opacity="0.65"/>
  <circle cx="330.1" cy="1474.8" r="47.0" fill="none" stroke="url(#strokeA)" stroke-width="3.8" opacity="0.85"/>
  <circle cx="330.1" cy="1474.8" r="40.4" fill="none" stroke="#FFB300" stroke-width="1.5" opacity="0.35"/>
  <polygon points="363.6,1479.7 342.6,1506.2 309.1,1501.3 296.7,1469.9 317.7,1443.4 351.1,1448.3" fill="none" stroke="url(#strokeB)" stroke-width="1.2" opacity="0.65"/>
  <polygon points="340.5,1480.4 320.1,1481.0 329.8,1463.0" fill="#FFB300" opacity="0.22" filter="url(#softGlow)"/>
</g>


<g opacity="0.374" filter="url(#hardGlow)">
  <circle cx="359.0" cy="1482.4" r="24.7" fill="#0A1224" opacity="0.65"/>
  <circle cx="359.0" cy="1482.4" r="24.7" fill="none" stroke="url(#strokeA)" stroke-width="2.0" opacity="0.85"/>
  <circle cx="359.0" cy="1482.4" r="21.2" fill="none" stroke="#00E5FF" stroke-width="1.5" opacity="0.35"/>
  <polygon points="374.5,1491.0 359.4,1500.2 343.8,1491.7 343.4,1473.9 358.6,1464.7 374.1,1473.2" fill="none" stroke="url(#strokeB)" stroke-width="1.2" opacity="0.65"/>
  
</g>


<g opacity="0.782" filter="url(#hardGlow)">
  <circle cx="44.2" cy="1486.9" r="37.5" fill="#0A1224" opacity="0.65"/>
  <circle cx="44.2" cy="1486.9" r="37.5" fill="none" stroke="url(#strokeA)" stroke-width="3.0" opacity="0.85"/>
  <circle cx="44.2" cy="1486.9" r="32.2" fill="none" stroke="#FFB300" stroke-width="1.5" opacity="0.35"/>
  <polygon points="65.3,1503.7 40.1,1513.5 19.0,1496.7 23.1,1470.0 48.3,1460.2 69.3,1477.1" fill="none" stroke="url(#strokeB)" stroke-width="1.2" opacity="0.65"/>
  <polygon points="49.1,1494.9 34.7,1487.1 48.7,1478.6" fill="#FFB300" opacity="0.22" filter="url(#softGlow)"/>
</g>


<g opacity="0.581" filter="url(#hardGlow)">
  <circle cx="99.7" cy="1481.3" r="16.6" fill="#0A1224" opacity="0.65"/>
  <circle cx="99.7" cy="1481.3" r="16.6" fill="none" stroke="url(#strokeA)" stroke-width="2.0" opacity="0.85"/>
  <circle cx="99.7" cy="1481.3" r="14.3" fill="none" stroke="#00E5FF" stroke-width="1.5" opacity="0.35"/>
  <polygon points="88.2,1484.5 91.2,1472.9 102.6,1469.7 111.2,1478.0 108.3,1489.6 96.8,1492.8" fill="none" stroke="url(#strokeB)" stroke-width="1.2" opacity="0.65"/>
  <polygon points="95.6,1481.0 102.1,1477.8 101.5,1485.0" fill="#00E5FF" opacity="0.22" filter="url(#softGlow)"/>
</g>


<g opacity="0.617" filter="url(#hardGlow)">
  <circle cx="46.1" cy="1471.4" r="13.9" fill="#0A1224" opacity="0.65"/>
  <circle cx="46.1" cy="1471.4" r="13.9" fill="none" stroke="url(#strokeA)" stroke-width="2.0" opacity="0.85"/>
  <circle cx="46.1" cy="1471.4" r="12.0" fill="none" stroke="#00E5FF" stroke-width="1.5" opacity="0.35"/>
  <polygon points="41.8,1480.4 36.1,1472.2 40.3,1463.2 50.3,1462.3 56.0,1470.5 51.8,1479.6" fill="none" stroke="url(#strokeB)" stroke-width="1.2" opacity="0.65"/>
  
</g>


<g opacity="0.492" filter="url(#hardGlow)">
  <circle cx="42.5" cy="1491.2" r="17.3" fill="#0A1224" opacity="0.65"/>
  <circle cx="42.5" cy="1491.2" r="17.3" fill="none" stroke="url(#strokeA)" stroke-width="2.0" opacity="0.85"/>
  <circle cx="42.5" cy="1491.2" r="14.9" fill="none" stroke="#00E5FF" stroke-width="1.5" opacity="0.35"/>
  <polygon points="44.6,1503.5 32.9,1499.2 30.8,1486.9 40.3,1478.9 52.0,1483.2 54.2,1495.5" fill="none" stroke="url(#strokeB)" stroke-width="1.2" opacity="0.65"/>
  
</g>


<g opacity="0.887" filter="url(#hardGlow)">
  <circle cx="723.3" cy="82.9" r="50.0" fill="#0A1224" opacity="0.65"/>
  <circle cx="723.3" cy="82.9" r="50.0" fill="none" stroke="url(#strokeA)" stroke-width="4.0" opacity="0.85"/>
  <circle cx="723.3" cy="82.9" r="43.0" fill="none" stroke="#FFB300" stroke-width="1.5" opacity="0.35"/>
  <polygon points="732.8,117.6 698.0,108.5 688.4,73.8 713.7,48.2 748.6,57.3 758.1,92.0" fill="none" stroke="url(#strokeB)" stroke-width="1.2" opacity="0.65"/>
  <polygon points="722.2,95.5 712.9,75.7 734.6,77.5" fill="#FFB300" opacity="0.22" filter="url(#softGlow)"/>
</g>


<g opacity="0.395" filter="url(#hardGlow)">
  <circle cx="679.2" cy="28.4" r="22.9" fill="#0A1224" opacity="0.65"/>
  <circle cx="679.2" cy="28.4" r="22.9" fill="none" stroke="url(#strokeA)" stroke-width="2.0" opacity="0.85"/>
  <circle cx="679.2" cy="28.4" r="19.7" fill="none" stroke="#00E5FF" stroke-width="1.5" opacity="0.35"/>
  <polygon points="662.9,25.5 673.6,12.9 689.9,15.9 695.4,31.4 684.7,44.0 668.5,41.0" fill="none" stroke="url(#strokeB)" stroke-width="1.2" opacity="0.65"/>
  
</g>


<g opacity="0.604" filter="url(#hardGlow)">
  <circle cx="732.5" cy="84.9" r="26.9" fill="#0A1224" opacity="0.65"/>
  <circle cx="732.5" cy="84.9" r="26.9" fill="none" stroke="url(#strokeA)" stroke-width="2.1" opacity="0.85"/>
  <circle cx="732.5" cy="84.9" r="23.1" fill="none" stroke="#00E5FF" stroke-width="1.5" opacity="0.35"/>
  <polygon points="750.5,77.9 747.6,97.0 729.5,104.0 714.5,91.9 717.4,72.8 735.4,65.8" fill="none" stroke="url(#strokeB)" stroke-width="1.2" opacity="0.65"/>
  
</g>


<g opacity="0.440" filter="url(#hardGlow)">
  <circle cx="787.8" cy="127.1" r="21.8" fill="#0A1224" opacity="0.65"/>
  <circle cx="787.8" cy="127.1" r="21.8" fill="none" stroke="url(#strokeA)" stroke-width="2.0" opacity="0.85"/>
  <circle cx="787.8" cy="127.1" r="18.8" fill="none" stroke="#00E5FF" stroke-width="1.5" opacity="0.35"/>
  <polygon points="778.9,114.1 794.5,112.9 803.5,125.8 796.7,140.0 781.1,141.3 772.1,128.3" fill="none" stroke="url(#strokeB)" stroke-width="1.2" opacity="0.65"/>
  <polygon points="786.4,121.7 793.1,128.5 783.9,130.9" fill="#00E5FF" opacity="0.22" filter="url(#softGlow)"/>
</g>


<g opacity="0.792" filter="url(#hardGlow)">
  <circle cx="461.9" cy="39.4" r="50.5" fill="#0A1224" opacity="0.65"/>
  <circle cx="461.9" cy="39.4" r="50.5" fill="none" stroke="url(#strokeA)" stroke-width="4.0" opacity="0.85"/>
  <circle cx="461.9" cy="39.4" r="43.4" fill="none" stroke="#FFB300" stroke-width="1.5" opacity="0.35"/>
  <polygon points="441.5,69.5 425.6,36.8 446.0,6.6 482.3,9.2 498.2,42.0 477.8,72.1" fill="none" stroke="url(#strokeB)" stroke-width="1.3" opacity="0.65"/>
  <polygon points="451.6,46.8 460.6,26.7 473.5,44.6" fill="#FFB300" opacity="0.22" filter="url(#softGlow)"/>
</g>


<g opacity="0.613" filter="url(#hardGlow)">
  <circle cx="539.7" cy="82.6" r="22.1" fill="#0A1224" opacity="0.65"/>
  <circle cx="539.7" cy="82.6" r="22.1" fill="none" stroke="url(#strokeA)" stroke-width="2.0" opacity="0.85"/>
  <circle cx="539.7" cy="82.6" r="19.0" fill="none" stroke="#00E5FF" stroke-width="1.5" opacity="0.35"/>
  <polygon points="544.5,67.4 555.2,79.2 550.4,94.3 534.9,97.7 524.2,85.9 529.0,70.8" fill="none" stroke="url(#strokeB)" stroke-width="1.2" opacity="0.65"/>
  
</g>


<g opacity="0.402" transform="translate(61.2,843.0) rotate(7.8)" filter="url(#softGlow)">
  <rect x="-96.6" y="-72.0" width="193.2" height="144.0" rx="14.4" fill="#050A12" opacity="0.25"/>
  <rect x="-96.6" y="-72.0" width="193.2" height="144.0" rx="14.4" fill="none" stroke="url(#strokeA)" stroke-width="7.2" opacity="0.85"/>
  <rect x="-85.1" y="-60.5" width="170.2" height="121.0" rx="10.1" fill="none" stroke="#FFB300" stroke-width="2.9" opacity="0.35"/>
</g>


<g opacity="0.314" transform="translate(56.5,1462.5) rotate(-5.7)" filter="url(#softGlow)">
  <rect x="-77.6" y="-69.1" width="155.2" height="138.3" rx="13.8" fill="#050A12" opacity="0.25"/>
  <rect x="-77.6" y="-69.1" width="155.2" height="138.3" rx="13.8" fill="none" stroke="url(#strokeA)" stroke-width="6.9" opacity="0.85"/>
  <rect x="-66.6" y="-58.1" width="133.1" height="116.1" rx="9.7" fill="none" stroke="#FFB300" stroke-width="2.8" opacity="0.35"/>
</g>


<g opacity="0.289" transform="translate(376.7,136.4) rotate(-4.4)" filter="url(#softGlow)">
  <rect x="-77.2" y="-58.3" width="154.3" height="116.6" rx="11.7" fill="#050A12" opacity="0.25"/>
  <rect x="-77.2" y="-58.3" width="154.3" height="116.6" rx="11.7" fill="none" stroke="url(#strokeA)" stroke-width="5.8" opacity="0.85"/>
  <rect x="-67.8" y="-49.0" width="135.7" height="98.0" rx="8.2" fill="none" stroke="#00E5FF" stroke-width="2.3" opacity="0.35"/>
</g>


<g opacity="0.360" transform="translate(747.0,1476.7) rotate(9.8)" filter="url(#softGlow)">
  <rect x="-31.6" y="-18.2" width="63.3" height="36.4" rx="11.1" fill="none" stroke="#FFB300" stroke-width="6.1" opacity="0.55"/>
  <rect x="-13.9" y="-9.1" width="63.3" height="36.4" rx="11.1" fill="none" stroke="url(#strokeA)" stroke-width="5.1" opacity="0.55"/>
</g>


<g opacity="0.251" transform="translate(772.0,81.9) rotate(15.4)" filter="url(#softGlow)">
  <rect x="-30.7" y="-17.7" width="61.4" height="35.3" rx="10.8" fill="none" stroke="#FFB300" stroke-width="5.9" opacity="0.55"/>
  <rect x="-13.5" y="-8.8" width="61.4" height="35.3" rx="10.8" fill="none" stroke="url(#strokeA)" stroke-width="4.9" opacity="0.55"/>
</g>


<g opacity="0.238" transform="translate(838.2,94.2) rotate(3.5)" filter="url(#softGlow)">
  <rect x="-43.8" y="-25.2" width="87.6" height="50.4" rx="15.4" fill="none" stroke="#00E5FF" stroke-width="8.4" opacity="0.55"/>
  <rect x="-19.3" y="-12.6" width="87.6" height="50.4" rx="15.4" fill="none" stroke="url(#strokeA)" stroke-width="7.0" opacity="0.55"/>
</g>


<g opacity="0.315" transform="translate(34.7,1550.0) rotate(6.3)" filter="url(#softGlow)">
  <rect x="-33.4" y="-19.2" width="66.7" height="38.4" rx="11.7" fill="none" stroke="#FFB300" stroke-width="6.4" opacity="0.55"/>
  <rect x="-14.7" y="-9.6" width="66.7" height="38.4" rx="11.7" fill="none" stroke="url(#strokeA)" stroke-width="5.3" opacity="0.55"/>
</g>


<g opacity="0.311" transform="translate(800.7,1397.5) rotate(-12.7)" filter="url(#softGlow)">
  <rect x="-50.5" y="-29.1" width="101.1" height="58.2" rx="17.8" fill="none" stroke="#FFB300" stroke-width="9.7" opacity="0.55"/>
  <rect x="-22.2" y="-14.6" width="101.1" height="58.2" rx="17.8" fill="none" stroke="url(#strokeA)" stroke-width="8.1" opacity="0.55"/>
</g>


<g opacity="0.397" transform="translate(667.6,1427.5) rotate(-17.8)" filter="url(#softGlow)">
  <rect x="-43.7" y="-25.2" width="87.5" height="50.4" rx="15.4" fill="none" stroke="#FFB300" stroke-width="8.4" opacity="0.55"/>
  <rect x="-19.2" y="-12.6" width="87.5" height="50.4" rx="15.4" fill="none" stroke="url(#strokeA)" stroke-width="7.0" opacity="0.55"/>
</g>


<g opacity="0.329" transform="translate(622.9,1421.5) rotate(-4.4)" filter="url(#softGlow)">
  <rect x="-35.8" y="-20.6" width="71.6" height="41.3" rx="12.6" fill="none" stroke="#00E5FF" stroke-width="6.9" opacity="0.55"/>
  <rect x="-15.8" y="-10.3" width="71.6" height="41.3" rx="12.6" fill="none" stroke="url(#strokeA)" stroke-width="5.7" opacity="0.55"/>
</g>


<g opacity="0.310" transform="translate(97.6,225.1) rotate(13.2)" filter="url(#softGlow)">
  <rect x="-45.2" y="-26.0" width="90.4" height="52.1" rx="15.9" fill="none" stroke="#FFB300" stroke-width="8.7" opacity="0.55"/>
  <rect x="-19.9" y="-13.0" width="90.4" height="52.1" rx="15.9" fill="none" stroke="url(#strokeA)" stroke-width="7.2" opacity="0.55"/>
</g>


<g opacity="0.298" transform="translate(97.2,397.3) rotate(2.1)" filter="url(#softGlow)">
  <rect x="-48.3" y="-27.8" width="96.7" height="55.7" rx="17.0" fill="none" stroke="#FFB300" stroke-width="9.3" opacity="0.55"/>
  <rect x="-21.3" y="-13.9" width="96.7" height="55.7" rx="17.0" fill="none" stroke="url(#strokeA)" stroke-width="7.7" opacity="0.55"/>
</g>


<g opacity="0.361" transform="translate(738.2,1484.0) rotate(-4.9)" filter="url(#softGlow)">
  <rect x="-45.5" y="-26.2" width="91.1" height="52.4" rx="16.0" fill="none" stroke="#00E5FF" stroke-width="8.7" opacity="0.55"/>
  <rect x="-20.0" y="-13.1" width="91.1" height="52.4" rx="16.0" fill="none" stroke="url(#strokeA)" stroke-width="7.3" opacity="0.55"/>
</g>


<g opacity="0.144">
  <line x1="341.3" y1="1449.4" x2="341.3" y2="1504.3" stroke="#00E5FF" stroke-width="1.95" opacity="0.45"/>
  <rect x="337.7" y="1483.8" width="7.1" height="19.0" rx="2.4" fill="#0B1020" opacity="0.55" stroke="url(#strokeA)" stroke-width="1.2"/>
</g>

<g opacity="0.144">
  <line x1="336.0" y1="1422.7" x2="336.0" y2="1511.0" stroke="#00E5FF" stroke-width="1.17" opacity="0.45"/>
  <rect x="331.7" y="1470.3" width="8.7" height="46.0" rx="2.9" fill="#0B1020" opacity="0.55" stroke="url(#strokeA)" stroke-width="1.2"/>
</g>

<g opacity="0.144">
  <line x1="20.1" y1="1413.1" x2="20.1" y2="1513.4" stroke="#00E5FF" stroke-width="1.33" opacity="0.45"/>
  <rect x="14.4" y="1466.0" width="11.3" height="54.7" rx="3.8" fill="#0B1020" opacity="0.55" stroke="url(#strokeA)" stroke-width="1.2"/>
</g>

<g opacity="0.144">
  <line x1="776.2" y1="1408.1" x2="776.2" y2="1514.6" stroke="#00E5FF" stroke-width="1.37" opacity="0.45"/>
  <rect x="771.8" y="1466.3" width="8.7" height="54.0" rx="2.9" fill="#0B1020" opacity="0.55" stroke="url(#strokeA)" stroke-width="1.2"/>
</g>

<g opacity="0.144">
  <line x1="785.4" y1="1451.3" x2="785.4" y2="1503.8" stroke="#00E5FF" stroke-width="1.45" opacity="0.45"/>
  <rect x="781.8" y="1480.3" width="7.2" height="26.0" rx="2.4" fill="#0B1020" opacity="0.55" stroke="url(#strokeA)" stroke-width="1.2"/>
</g>

<g opacity="0.144">
  <line x1="61.2" y1="1415.5" x2="61.2" y2="1512.8" stroke="#00E5FF" stroke-width="1.95" opacity="0.45"/>
  <rect x="57.7" y="1465.0" width="7.1" height="56.6" rx="2.4" fill="#0B1020" opacity="0.55" stroke="url(#strokeA)" stroke-width="1.2"/>
</g>

<g opacity="0.144">
  <line x1="524.6" y1="1447.9" x2="524.6" y2="1504.7" stroke="#00E5FF" stroke-width="1.61" opacity="0.45"/>
  <rect x="519.9" y="1475.7" width="9.4" height="35.3" rx="3.1" fill="#0B1020" opacity="0.55" stroke="url(#strokeA)" stroke-width="1.2"/>
</g>

<g opacity="0.144">
  <line x1="508.8" y1="1414.4" x2="508.8" y2="1513.0" stroke="#00E5FF" stroke-width="1.72" opacity="0.45"/>
  <rect x="505.0" y="1470.2" width="7.6" height="46.3" rx="2.5" fill="#0B1020" opacity="0.55" stroke="url(#strokeA)" stroke-width="1.2"/>
</g>

<g opacity="0.144">
  <line x1="93.7" y1="1438.0" x2="93.7" y2="1507.2" stroke="#00E5FF" stroke-width="1.35" opacity="0.45"/>
  <rect x="88.3" y="1474.0" width="10.6" height="38.7" rx="3.5" fill="#0B1020" opacity="0.55" stroke="url(#strokeA)" stroke-width="1.2"/>
</g>

<g opacity="0.144">
  <line x1="25.5" y1="1445.0" x2="25.5" y2="1505.4" stroke="#00E5FF" stroke-width="1.91" opacity="0.45"/>
  <rect x="20.7" y="1474.6" width="9.5" height="37.5" rx="3.2" fill="#0B1020" opacity="0.55" stroke="url(#strokeA)" stroke-width="1.2"/>
</g>

<g opacity="0.144">
  <line x1="487.8" y1="1432.2" x2="487.8" y2="1508.6" stroke="#00E5FF" stroke-width="1.82" opacity="0.45"/>
  <rect x="482.7" y="1479.8" width="10.2" height="27.1" rx="3.4" fill="#0B1020" opacity="0.55" stroke="url(#strokeA)" stroke-width="1.2"/>
</g>

<g opacity="0.144">
  <line x1="278.9" y1="1419.2" x2="278.9" y2="1511.8" stroke="#00E5FF" stroke-width="1.37" opacity="0.45"/>
  <rect x="273.7" y="1470.1" width="10.4" height="46.5" rx="3.5" fill="#0B1020" opacity="0.55" stroke="url(#strokeA)" stroke-width="1.2"/>
</g>

<g opacity="0.144">
  <line x1="555.3" y1="1441.7" x2="555.3" y2="1506.2" stroke="#00E5FF" stroke-width="2.17" opacity="0.45"/>
  <rect x="551.2" y="1474.2" width="8.0" height="38.2" rx="2.7" fill="#0B1020" opacity="0.55" stroke="url(#strokeA)" stroke-width="1.2"/>
</g>

<g opacity="0.144">
  <line x1="224.1" y1="1413.4" x2="224.1" y2="1513.3" stroke="#00E5FF" stroke-width="1.89" opacity="0.45"/>
  <rect x="218.9" y="1469.9" width="10.4" height="46.8" rx="3.5" fill="#0B1020" opacity="0.55" stroke="url(#strokeA)" stroke-width="1.2"/>
</g>

<g opacity="0.144">
  <line x1="598.8" y1="1403.0" x2="598.8" y2="1515.9" stroke="#00E5FF" stroke-width="1.25" opacity="0.45"/>
  <rect x="595.0" y="1464.3" width="7.5" height="58.1" rx="2.5" fill="#0B1020" opacity="0.55" stroke="url(#strokeA)" stroke-width="1.2"/>
</g>

<g opacity="0.144">
  <line x1="58.7" y1="1427.3" x2="58.7" y2="1509.8" stroke="#00E5FF" stroke-width="1.06" opacity="0.45"/>
  <rect x="55.1" y="1469.5" width="7.2" height="47.6" rx="2.4" fill="#0B1020" opacity="0.55" stroke="url(#strokeA)" stroke-width="1.2"/>
</g>

<g opacity="0.144">
  <line x1="823.1" y1="1459.5" x2="823.1" y2="1501.8" stroke="#00E5FF" stroke-width="2.06" opacity="0.45"/>
  <rect x="817.3" y="1482.0" width="11.7" height="22.6" rx="3.9" fill="#0B1020" opacity="0.55" stroke="url(#strokeA)" stroke-width="1.2"/>
</g>
<circle cx="889.2" cy="1405.7" r="2.6" fill="#FFB300" opacity="0.17" filter="url(#softGlow)"/>
<circle cx="82.5" cy="1486.4" r="1.5" fill="#FFB300" opacity="0.20" filter="url(#softGlow)"/>
<circle cx="837.1" cy="1085.6" r="3.1" fill="#FFB300" opacity="0.23" filter="url(#softGlow)"/>
<circle cx="781.8" cy="1568.7" r="2.3" fill="#FFB300" opacity="0.22" filter="url(#softGlow)"/>
<circle cx="146.8" cy="1534.3" r="2.2" fill="#FFB300" opacity="0.25" filter="url(#softGlow)"/>
<circle cx="854.8" cy="1430.4" r="1.5" fill="#FFB300" opacity="0.26" filter="url(#softGlow)"/>
<circle cx="785.0" cy="1187.6" r="2.9" fill="#FFB300" opacity="0.17" filter="url(#softGlow)"/>
<circle cx="720.5" cy="110.7" r="3.0" fill="#FFB300" opacity="0.26" filter="url(#softGlow)"/>
<circle cx="63.0" cy="101.1" r="2.2" fill="#FFB300" opacity="0.18" filter="url(#softGlow)"/>
<circle cx="887.8" cy="561.1" r="1.8" fill="#FFB300" opacity="0.20" filter="url(#softGlow)"/>
<circle cx="5.1" cy="966.8" r="2.8" fill="#FFB300" opacity="0.25" filter="url(#softGlow)"/>
<circle cx="725.0" cy="1446.4" r="1.8" fill="#FFB300" opacity="0.23" filter="url(#softGlow)"/>
<circle cx="98.3" cy="146.1" r="3.0" fill="#FFB300" opacity="0.25" filter="url(#softGlow)"/>
<circle cx="763.9" cy="1193.1" r="2.4" fill="#FFB300" opacity="0.12" filter="url(#softGlow)"/>
<circle cx="778.2" cy="109.4" r="1.5" fill="#FFB300" opacity="0.17" filter="url(#softGlow)"/>
<circle cx="98.5" cy="1360.3" r="2.3" fill="#FFB300" opacity="0.25" filter="url(#softGlow)"/>
<circle cx="786.3" cy="1510.1" r="2.7" fill="#FFB300" opacity="0.24" filter="url(#softGlow)"/>
<circle cx="136.9" cy="1433.2" r="1.9" fill="#FFB300" opacity="0.12" filter="url(#softGlow)"/>
<circle cx="880.7" cy="5.1" r="2.3" fill="#FFB300" opacity="0.19" filter="url(#softGlow)"/>
<circle cx="866.4" cy="41.3" r="2.1" fill="#FFB300" opacity="0.20" filter="url(#softGlow)"/>
<circle cx="836.1" cy="1577.0" r="2.4" fill="#FFB300" opacity="0.28" filter="url(#softGlow)"/>
<circle cx="809.6" cy="1586.6" r="1.4" fill="#FFB300" opacity="0.11" filter="url(#softGlow)"/>
<circle cx="75.7" cy="1542.3" r="1.8" fill="#FFB300" opacity="0.19" filter="url(#softGlow)"/>
<circle cx="103.5" cy="115.9" r="1.5" fill="#FFB300" opacity="0.22" filter="url(#softGlow)"/>
</svg>