<svg xmlns="http://www.w3.org/2000/svg" width="900" height="1600" viewBox="0 0 900 1600" preserveAspectRatio="xMidYMid slice">
<defs>
  <linearGradient id="g0" x1="0" y1="0" x2="1" y2="1">
    <stop offset="0" stop-color="#0B1020"/>
    <stop offset="0.55" stop-color="#F97316" stop-opacity="0.9"/>
    <stop offset="1" stop-color="#020617"/>
  </linearGradient>
  <radialGradient id="g1" cx="20%" cy="15%" r="70%">
    <stop offset="0" stop-color="#06B6D4" stop-opacity="0.38"/>
    <stop offset="0.6" stop-color="#06B6D4" stop-opacity="0.08"/>
    <stop offset="1" stop-color="#06B6D4" stop-opacity="0"/>
  </radialGradient>
  <radialGradient id="g2" cx="85%" cy="80%" r="75%">
    <stop offset="0" stop-color="#06B6D4" stop-opacity="0.28"/>
    <stop offset="0.65" stop-color="#06B6D4" stop-opacity="0.06"/>
    <stop offset="1" stop-color="#06B6D4" stop-opacity="0"/>
  </radialGradient>
  <filter id="softGlow" x="-30%" y="-30%" width="160%" height="160%">
    <feGaussianBlur stdDeviation="12" result="b"/>
    <feMerge>
      <feMergeNode in="b"/>
      <feMergeNode in="SourceGraphic"/>
    </feMerge>
  </filter>
  <filter id="hardGlow" x="-40%" y="-40%" width="180%" height="180%">
    <feGaussianBlur stdDeviation="6" result="b"/>
    <feColorMatrix in="b" type="matrix" values="1 0 0 0 0  0 1 0 0 0  0 0 1 0 0  0 0 0 18 -7" result="c"/>
    <feMerge>
      <feMergeNode in="c"/>
      <feMergeNode in="SourceGraphic"/>
    </feMerge>
  </filter>
  <linearGradient id="strokeA" x1="0" y1="0" x2="1" y2="0">
    <stop offset="0" stop-color="#06B6D4" stop-opacity="0.9"/>
    <stop offset="0.5" stop-color="#FFFFFF" stop-opacity="0.25"/>
    <stop offset="1" stop-color="#06B6D4" stop-opacity="0.7"/>
  </linearGradient>
  <linearGradient id="strokeB" x1="0" y1="0" x2="0" y2="1">
    <stop offset="0" stop-color="#FFFFFF" stop-opacity="0.18"/>
    <stop offset="1" stop-color="#06B6D4" stop-opacity="0.55"/>
  </linearGradient>
</defs>
<rect x="0" y="0" width="900" height="1600" fill="url(#g0)"/>
<rect x="0" y="0" width="900" height="1600" fill="url(#g1)"/>
<rect x="0" y="0" width="900" height="1600" fill="url(#g2)"/>


<defs>
  <radialGradient id="vign" cx="0.5000" cy="0.5000" r="0.85">
    <stop offset="0" stop-color="#000000" stop-opacity="0"/>
    <stop offset="0.55" stop-color="#000000" stop-opacity="0.217"/>
    <stop offset="1" stop-color="#000000" stop-opacity="0.620"/>
  </radialGradient>
</defs>
<rect x="0" y="0" width="900" height="1600" fill="url(#vign)"/>

<g opacity="0.265" filter="url(#softGlow)"><path d="M 884.3,1578.4 L 177.1,1578.4 L 177.1,1586.9 L 840.3,1586.9 L 840.3,1533.8 " fill="none" stroke="url(#strokeB)" stroke-width="1.77" stroke-linecap="round" stroke-linejoin="round"/><circle cx="840.3" cy="1533.8" r="4.1" fill="#A3E635" opacity="0.45"/><circle cx="840.3" cy="1586.9" r="3.1" fill="#A3E635" opacity="0.45"/><circle cx="177.1" cy="1586.9" r="2.6" fill="#A3E635" opacity="0.45"/></g>
<g opacity="0.265" filter="url(#softGlow)"><path d="M 149.4,301.8 L 24.0,301.8 L 24.0,1462.1 L 17.3,1462.1 L 17.3,1164.7 " fill="none" stroke="url(#strokeB)" stroke-width="1.21" stroke-linecap="round" stroke-linejoin="round"/><circle cx="24.0" cy="1462.1" r="3.9" fill="#A3E635" opacity="0.45"/><circle cx="149.4" cy="301.8" r="2.6" fill="#A3E635" opacity="0.45"/><circle cx="17.3" cy="1164.7" r="2.6" fill="#A3E635" opacity="0.45"/></g>
<g opacity="0.265" filter="url(#softGlow)"><path d="M 142.7,1484.4 L 787.1,1484.4 L 787.1,549.1 L 746.7,549.1 L 746.7,1485.0 " fill="none" stroke="url(#strokeB)" stroke-width="1.65" stroke-linecap="round" stroke-linejoin="round"/><circle cx="142.7" cy="1484.4" r="3.5" fill="#A3E635" opacity="0.45"/><circle cx="746.7" cy="549.1" r="3.4" fill="#A3E635" opacity="0.45"/><circle cx="787.1" cy="1484.4" r="4.1" fill="#A3E635" opacity="0.45"/></g>
<g opacity="0.265" filter="url(#softGlow)"><path d="M 113.1,1496.2 L 545.3,1496.2 L 545.3,141.2 L 150.0,141.2 L 150.0,1473.0 " fill="none" stroke="url(#strokeB)" stroke-width="1.34" stroke-linecap="round" stroke-linejoin="round"/><circle cx="545.3" cy="1496.2" r="3.3" fill="#A3E635" opacity="0.45"/><circle cx="150.0" cy="1473.0" r="2.3" fill="#A3E635" opacity="0.45"/><circle cx="150.0" cy="141.2" r="3.3" fill="#A3E635" opacity="0.45"/></g>
<g opacity="0.265" filter="url(#softGlow)"><path d="M 877.5,35.6 L 165.1,35.6 L 165.1,131.3 L 56.6,131.3 L 56.6,53.6 " fill="none" stroke="url(#strokeB)" stroke-width="1.39" stroke-linecap="round" stroke-linejoin="round"/><circle cx="56.6" cy="53.6" r="2.7" fill="#A3E635" opacity="0.45"/><circle cx="877.5" cy="35.6" r="3.0" fill="#A3E635" opacity="0.45"/><circle cx="165.1" cy="35.6" r="3.5" fill="#A3E635" opacity="0.45"/></g>
<g opacity="0.265" filter="url(#softGlow)"><path d="M 122.0,1574.8 L 124.1,1574.8 L 124.1,136.1 L 859.6,136.1 L 859.6,28.7 " fill="none" stroke="url(#strokeB)" stroke-width="1.99" stroke-linecap="round" stroke-linejoin="round"/><circle cx="124.1" cy="1574.8" r="3.1" fill="#A3E635" opacity="0.45"/><circle cx="859.6" cy="136.1" r="3.1" fill="#A3E635" opacity="0.45"/><circle cx="124.1" cy="136.1" r="2.5" fill="#A3E635" opacity="0.45"/></g>
<g opacity="0.265" filter="url(#softGlow)"><path d="M 477.1,1475.8 L 69.9,1475.8 L 69.9,644.6 L 85.0,644.6 L 85.0,1373.4 " fill="none" stroke="url(#strokeB)" stroke-width="1.36" stroke-linecap="round" stroke-linejoin="round"/><circle cx="85.0" cy="1373.4" r="2.4" fill="#A3E635" opacity="0.45"/><circle cx="69.9" cy="644.6" r="2.8" fill="#A3E635" opacity="0.45"/><circle cx="85.0" cy="644.6" r="3.5" fill="#A3E635" opacity="0.45"/></g>
<g opacity="0.265" filter="url(#softGlow)"><path d="M 825.9,1442.6 L 794.6,1442.6 L 794.6,1499.4 L 806.4,1499.4 L 806.4,158.8 " fill="none" stroke="url(#strokeB)" stroke-width="1.23" stroke-linecap="round" stroke-linejoin="round"/><circle cx="794.6" cy="1442.6" r="3.9" fill="#A3E635" opacity="0.45"/><circle cx="825.9" cy="1442.6" r="2.7" fill="#A3E635" opacity="0.45"/><circle cx="794.6" cy="1499.4" r="3.2" fill="#A3E635" opacity="0.45"/></g>
<g opacity="0.265" filter="url(#softGlow)"><path d="M 751.2,1485.5 L 124.6,1485.5 L 124.6,1517.9 L 47.8,1517.9 L 47.8,1538.5 " fill="none" stroke="url(#strokeB)" stroke-width="1.26" stroke-linecap="round" stroke-linejoin="round"/><circle cx="47.8" cy="1538.5" r="2.4" fill="#A3E635" opacity="0.45"/><circle cx="751.2" cy="1485.5" r="3.0" fill="#A3E635" opacity="0.45"/><circle cx="124.6" cy="1517.9" r="2.3" fill="#A3E635" opacity="0.45"/></g>
<g opacity="0.265" filter="url(#softGlow)"><path d="M 449.2,1526.5 L 19.4,1526.5 L 19.4,1487.8 L 172.8,1487.8 L 172.8,1595.1 " fill="none" stroke="url(#strokeB)" stroke-width="2.06" stroke-linecap="round" stroke-linejoin="round"/><circle cx="19.4" cy="1526.5" r="3.3" fill="#A3E635" opacity="0.45"/><circle cx="19.4" cy="1487.8" r="2.7" fill="#A3E635" opacity="0.45"/><circle cx="172.8" cy="1595.1" r="3.1" fill="#A3E635" opacity="0.45"/></g>
<g opacity="0.265" filter="url(#softGlow)"><path d="M 121.3,1465.9 L 812.7,1465.9 L 812.7,146.5 L 347.9,146.5 L 347.9,1547.1 " fill="none" stroke="url(#strokeB)" stroke-width="2.00" stroke-linecap="round" stroke-linejoin="round"/><circle cx="347.9" cy="146.5" r="4.1" fill="#A3E635" opacity="0.45"/><circle cx="812.7" cy="1465.9" r="2.9" fill="#A3E635" opacity="0.45"/><circle cx="121.3" cy="1465.9" r="3.4" fill="#A3E635" opacity="0.45"/></g>
<g opacity="0.265" filter="url(#softGlow)"><path d="M 10.9,1440.7 L 872.3,1440.7 L 872.3,1594.2 L 149.2,1594.2 L 149.2,1498.3 " fill="none" stroke="url(#strokeB)" stroke-width="2.08" stroke-linecap="round" stroke-linejoin="round"/><circle cx="872.3" cy="1594.2" r="3.1" fill="#A3E635" opacity="0.45"/><circle cx="149.2" cy="1594.2" r="3.8" fill="#A3E635" opacity="0.45"/><circle cx="10.9" cy="1440.7" r="2.9" fill="#A3E635" opacity="0.45"/></g>
<g opacity="0.265" filter="url(#softGlow)"><path d="M 89.2,1239.7 L 761.6,1239.7 L 761.6,1582.0 L 108.1,1582.0 L 108.1,1415.4 " fill="none" stroke="url(#strokeB)" stroke-width="1.28" stroke-linecap="round" stroke-linejoin="round"/><circle cx="108.1" cy="1415.4" r="3.9" fill="#A3E635" opacity="0.45"/><circle cx="761.6" cy="1239.7" r="2.5" fill="#A3E635" opacity="0.45"/><circle cx="108.1" cy="1582.0" r="2.2" fill="#A3E635" opacity="0.45"/></g>
<g opacity="0.265" filter="url(#softGlow)"><path d="M 40.4,20.0 L 81.7,20.0 L 81.7,1494.2 L 160.6,1494.2 L 160.6,116.8 " fill="none" stroke="url(#strokeB)" stroke-width="2.16" stroke-linecap="round" stroke-linejoin="round"/><circle cx="81.7" cy="20.0" r="2.6" fill="#A3E635" opacity="0.45"/><circle cx="160.6" cy="1494.2" r="2.4" fill="#A3E635" opacity="0.45"/><circle cx="40.4" cy="20.0" r="2.4" fill="#A3E635" opacity="0.45"/></g>
<g opacity="0.265" filter="url(#softGlow)"><path d="M 76.0,1532.9 L 53.6,1532.9 L 53.6,1541.5 L 11.1,1541.5 L 11.1,1518.5 " fill="none" stroke="url(#strokeB)" stroke-width="1.23" stroke-linecap="round" stroke-linejoin="round"/><circle cx="53.6" cy="1541.5" r="2.8" fill="#A3E635" opacity="0.45"/><circle cx="53.6" cy="1532.9" r="3.3" fill="#A3E635" opacity="0.45"/><circle cx="11.1" cy="1541.5" r="3.9" fill="#A3E635" opacity="0.45"/></g>
<g opacity="0.265" filter="url(#softGlow)"><path d="M 134.2,1442.0 L 117.7,1442.0 L 117.7,56.7 L 787.4,56.7 L 787.4,17.9 " fill="none" stroke="url(#strokeB)" stroke-width="1.29" stroke-linecap="round" stroke-linejoin="round"/><circle cx="787.4" cy="56.7" r="3.5" fill="#A3E635" opacity="0.45"/><circle cx="117.7" cy="56.7" r="4.0" fill="#A3E635" opacity="0.45"/><circle cx="787.4" cy="17.9" r="4.1" fill="#A3E635" opacity="0.45"/></g>
<g opacity="0.265" filter="url(#softGlow)"><path d="M 274.9,1455.1 L 767.3,1455.1 L 767.3,1490.0 L 148.7,1490.0 L 148.7,1330.8 " fill="none" stroke="url(#strokeB)" stroke-width="1.76" stroke-linecap="round" stroke-linejoin="round"/><circle cx="148.7" cy="1490.0" r="3.7" fill="#A3E635" opacity="0.45"/><circle cx="767.3" cy="1490.0" r="3.3" fill="#A3E635" opacity="0.45"/><circle cx="274.9" cy="1455.1" r="3.4" fill="#A3E635" opacity="0.45"/></g>
<g opacity="0.265" filter="url(#softGlow)"><path d="M 171.3,1579.8 L 723.3,1579.8 L 723.3,90.7 L 16.8,90.7 L 16.8,1550.6 " fill="none" stroke="url(#strokeB)" stroke-width="1.84" stroke-linecap="round" stroke-linejoin="round"/><circle cx="16.8" cy="90.7" r="2.2" fill="#A3E635" opacity="0.45"/><circle cx="723.3" cy="1579.8" r="2.5" fill="#A3E635" opacity="0.45"/><circle cx="16.8" cy="1550.6" r="4.1" fill="#A3E635" opacity="0.45"/></g>
<g opacity="0.265" filter="url(#softGlow)"><path d="M 890.1,1512.5 L 824.5,1512.5 L 824.5,1497.0 L 278.5,1497.0 L 278.5,1587.0 " fill="none" stroke="url(#strokeB)" stroke-width="2.05" stroke-linecap="round" stroke-linejoin="round"/><circle cx="278.5" cy="1497.0" r="3.0" fill="#A3E635" opacity="0.45"/><circle cx="824.5" cy="1497.0" r="3.2" fill="#A3E635" opacity="0.45"/><circle cx="278.5" cy="1587.0" r="2.1" fill="#A3E635" opacity="0.45"/></g>
<g opacity="0.265" filter="url(#softGlow)"><path d="M 833.7,54.3 L 64.8,54.3 L 64.8,1498.6 L 805.9,1498.6 L 805.9,1054.9 " fill="none" stroke="url(#strokeB)" stroke-width="1.19" stroke-linecap="round" stroke-linejoin="round"/><circle cx="833.7" cy="54.3" r="2.2" fill="#A3E635" opacity="0.45"/><circle cx="64.8" cy="54.3" r="2.1" fill="#A3E635" opacity="0.45"/><circle cx="805.9" cy="1498.6" r="2.5" fill="#A3E635" opacity="0.45"/></g>

<g opacity="0.669" filter="url(#hardGlow)">
  <circle cx="825.1" cy="25.7" r="32.6" fill="#0A1224" opacity="0.65"/>
  <circle cx="825.1" cy="25.7" r="32.6" fill="none" stroke="url(#strokeA)" stroke-width="2.6" opacity="0.85"/>
  <circle cx="825.1" cy="25.7" r="28.1" fill="none" stroke="#F97316" stroke-width="1.5" opacity="0.35"/>
  <polygon points="803.0,33.5 807.2,10.4 829.4,2.5 847.3,17.8 843.0,40.9 820.8,48.8" fill="none" stroke="url(#strokeB)" stroke-width="1.2" opacity="0.65"/>
  <polygon points="816.9,25.6 829.3,18.6 829.2,32.8" fill="#F97316" opacity="0.22" filter="url(#softGlow)"/>
</g>


<g opacity="0.620" filter="url(#hardGlow)">
  <circle cx="826.7" cy="52.0" r="14.2" fill="#0A1224" opacity="0.65"/>
  <circle cx="826.7" cy="52.0" r="14.2" fill="none" stroke="url(#strokeA)" stroke-width="2.0" opacity="0.85"/>
  <circle cx="826.7" cy="52.0" r="12.2" fill="none" stroke="#A3E635" stroke-width="1.5" opacity="0.35"/>
  <polygon points="827.7,41.8 836.0,47.7 835.0,57.9 825.8,62.1 817.4,56.2 818.4,46.0" fill="none" stroke="url(#strokeB)" stroke-width="1.2" opacity="0.65"/>
  <polygon points="828.3,48.7 828.8,54.9 823.2,52.2" fill="#A3E635" opacity="0.22" filter="url(#softGlow)"/>
</g>


<g opacity="0.493" filter="url(#hardGlow)">
  <circle cx="783.7" cy="58.1" r="12.9" fill="#0A1224" opacity="0.65"/>
  <circle cx="783.7" cy="58.1" r="12.9" fill="none" stroke="url(#strokeA)" stroke-width="2.0" opacity="0.85"/>
  <circle cx="783.7" cy="58.1" r="11.1" fill="none" stroke="#A3E635" stroke-width="1.5" opacity="0.35"/>
  <polygon points="779.4,50.0 788.6,50.3 792.9,58.5 788.0,66.3 778.8,66.0 774.4,57.8" fill="none" stroke="url(#strokeB)" stroke-width="1.2" opacity="0.65"/>
  <polygon points="783.2,54.9 786.7,59.4 781.1,60.1" fill="#A3E635" opacity="0.22" filter="url(#softGlow)"/>
</g>


<g opacity="0.849" filter="url(#hardGlow)">
  <circle cx="765.1" cy="1493.4" r="33.3" fill="#0A1224" opacity="0.65"/>
  <circle cx="765.1" cy="1493.4" r="33.3" fill="none" stroke="url(#strokeA)" stroke-width="2.7" opacity="0.85"/>
  <circle cx="765.1" cy="1493.4" r="28.6" fill="none" stroke="#F97316" stroke-width="1.5" opacity="0.35"/>
  <polygon points="770.1,1470.0 787.9,1486.0 782.8,1509.4 760.1,1516.8 742.3,1500.7 747.3,1477.3" fill="none" stroke="url(#strokeB)" stroke-width="1.2" opacity="0.65"/>
  <polygon points="769.5,1486.3 769.0,1500.8 756.7,1493.1" fill="#F97316" opacity="0.22" filter="url(#softGlow)"/>
</g>


<g opacity="0.599" filter="url(#hardGlow)">
  <circle cx="735.9" cy="1492.0" r="14.3" fill="#0A1224" opacity="0.65"/>
  <circle cx="735.9" cy="1492.0" r="14.3" fill="none" stroke="url(#strokeA)" stroke-width="2.0" opacity="0.85"/>
  <circle cx="735.9" cy="1492.0" r="12.3" fill="none" stroke="#A3E635" stroke-width="1.5" opacity="0.35"/>
  <polygon points="742.8,1484.3 746.0,1494.1 739.2,1501.8 729.1,1499.7 725.8,1490.0 732.7,1482.3" fill="none" stroke="url(#strokeB)" stroke-width="1.2" opacity="0.65"/>
  <polygon points="739.1,1490.3 735.8,1495.6 732.8,1490.1" fill="#A3E635" opacity="0.22" filter="url(#softGlow)"/>
</g>


<g opacity="0.863" filter="url(#hardGlow)">
  <circle cx="799.0" cy="1488.9" r="58.1" fill="#0A1224" opacity="0.65"/>
  <circle cx="799.0" cy="1488.9" r="58.1" fill="none" stroke="url(#strokeA)" stroke-width="4.6" opacity="0.85"/>
  <circle cx="799.0" cy="1488.9" r="50.0" fill="none" stroke="#F97316" stroke-width="1.7" opacity="0.35"/>
  <polygon points="840.8,1491.9 817.3,1526.5 775.6,1523.5 757.3,1485.9 780.8,1451.2 822.5,1454.2" fill="none" stroke="url(#strokeB)" stroke-width="1.5" opacity="0.65"/>
  <polygon points="812.4,1494.9 787.2,1497.5 797.5,1474.3" fill="#F97316" opacity="0.22" filter="url(#softGlow)"/>
</g>


<g opacity="0.358" filter="url(#hardGlow)">
  <circle cx="709.2" cy="1420.2" r="29.9" fill="#0A1224" opacity="0.65"/>
  <circle cx="709.2" cy="1420.2" r="29.9" fill="none" stroke="url(#strokeA)" stroke-width="2.4" opacity="0.85"/>
  <circle cx="709.2" cy="1420.2" r="25.7" fill="none" stroke="#A3E635" stroke-width="1.5" opacity="0.35"/>
  <polygon points="711.6,1398.8 728.9,1411.6 726.5,1433.0 706.8,1441.6 689.5,1428.8 691.9,1407.4" fill="none" stroke="url(#strokeB)" stroke-width="1.2" opacity="0.65"/>
  
</g>


<g opacity="0.552" filter="url(#hardGlow)">
  <circle cx="806.8" cy="1502.1" r="27.7" fill="#0A1224" opacity="0.65"/>
  <circle cx="806.8" cy="1502.1" r="27.7" fill="none" stroke="url(#strokeA)" stroke-width="2.2" opacity="0.85"/>
  <circle cx="806.8" cy="1502.1" r="23.8" fill="none" stroke="#A3E635" stroke-width="1.5" opacity="0.35"/>
  <polygon points="816.2,1484.6 826.7,1501.5 817.3,1519.0 797.4,1519.7 786.9,1502.8 796.2,1485.2" fill="none" stroke="url(#strokeB)" stroke-width="1.2" opacity="0.65"/>
  
</g>


<g opacity="0.591" filter="url(#hardGlow)">
  <circle cx="886.2" cy="1479.1" r="27.4" fill="#0A1224" opacity="0.65"/>
  <circle cx="886.2" cy="1479.1" r="27.4" fill="none" stroke="url(#strokeA)" stroke-width="2.2" opacity="0.85"/>
  <circle cx="886.2" cy="1479.1" r="23.5" fill="none" stroke="#A3E635" stroke-width="1.5" opacity="0.35"/>
  <polygon points="903.7,1470.1 902.7,1489.8 885.2,1498.8 868.6,1488.1 869.6,1468.4 887.2,1459.4" fill="none" stroke="url(#strokeB)" stroke-width="1.2" opacity="0.65"/>
  <polygon points="893.0,1478.3 883.5,1485.4 882.0,1473.6" fill="#A3E635" opacity="0.22" filter="url(#softGlow)"/>
</g>


<g opacity="0.718" filter="url(#hardGlow)">
  <circle cx="49.4" cy="1495.7" r="41.8" fill="#0A1224" opacity="0.65"/>
  <circle cx="49.4" cy="1495.7" r="41.8" fill="none" stroke="url(#strokeA)" stroke-width="3.3" opacity="0.85"/>
  <circle cx="49.4" cy="1495.7" r="35.9" fill="none" stroke="#F97316" stroke-width="1.5" opacity="0.35"/>
  <polygon points="29.1,1517.8 20.1,1489.2 40.4,1467.0 69.7,1473.6 78.8,1502.2 58.4,1524.4" fill="none" stroke="url(#strokeB)" stroke-width="1.2" opacity="0.65"/>
  <polygon points="40.1,1500.6 49.9,1485.2 58.3,1501.4" fill="#F97316" opacity="0.22" filter="url(#softGlow)"/>
</g>


<g opacity="0.376" filter="url(#hardGlow)">
  <circle cx="40.3" cy="1541.4" r="17.9" fill="#0A1224" opacity="0.65"/>
  <circle cx="40.3" cy="1541.4" r="17.9" fill="none" stroke="url(#strokeA)" stroke-width="2.0" opacity="0.85"/>
  <circle cx="40.3" cy="1541.4" r="15.4" fill="none" stroke="#A3E635" stroke-width="1.5" opacity="0.35"/>
  <polygon points="35.7,1553.4 27.6,1543.5 32.1,1531.4 44.9,1529.3 53.0,1539.3 48.5,1551.4" fill="none" stroke="url(#strokeB)" stroke-width="1.2" opacity="0.65"/>
  
</g>


<g opacity="0.356" filter="url(#hardGlow)">
  <circle cx="25.0" cy="1543.5" r="15.0" fill="#0A1224" opacity="0.65"/>
  <circle cx="25.0" cy="1543.5" r="15.0" fill="none" stroke="url(#strokeA)" stroke-width="2.0" opacity="0.85"/>
  <circle cx="25.0" cy="1543.5" r="12.9" fill="none" stroke="#A3E635" stroke-width="1.5" opacity="0.35"/>
  <polygon points="34.2,1537.9 34.5,1548.6 25.3,1554.3 15.9,1549.1 15.6,1538.4 24.8,1532.7" fill="none" stroke="url(#strokeB)" stroke-width="1.2" opacity="0.65"/>
  
</g>


<g opacity="0.451" filter="url(#hardGlow)">
  <circle cx="35.8" cy="1515.8" r="19.7" fill="#0A1224" opacity="0.65"/>
  <circle cx="35.8" cy="1515.8" r="19.7" fill="none" stroke="url(#strokeA)" stroke-width="2.0" opacity="0.85"/>
  <circle cx="35.8" cy="1515.8" r="16.9" fill="none" stroke="#A3E635" stroke-width="1.5" opacity="0.35"/>
  <polygon points="23.0,1521.8 24.1,1507.7 36.9,1501.7 48.6,1509.8 47.4,1523.9 34.6,1529.9" fill="none" stroke="url(#strokeB)" stroke-width="1.2" opacity="0.65"/>
  <polygon points="30.8,1516.3 37.8,1511.3 38.6,1519.8" fill="#A3E635" opacity="0.22" filter="url(#softGlow)"/>
</g>


<g opacity="0.736" filter="url(#hardGlow)">
  <circle cx="110.5" cy="1520.2" r="50.0" fill="#0A1224" opacity="0.65"/>
  <circle cx="110.5" cy="1520.2" r="50.0" fill="none" stroke="url(#strokeA)" stroke-width="4.0" opacity="0.85"/>
  <circle cx="110.5" cy="1520.2" r="43.0" fill="none" stroke="#F97316" stroke-width="1.5" opacity="0.35"/>
  <polygon points="91.4,1489.6 127.4,1488.4 146.5,1518.9 129.6,1550.7 93.6,1552.0 74.5,1521.5" fill="none" stroke="url(#strokeB)" stroke-width="1.3" opacity="0.65"/>
  <polygon points="107.9,1507.8 122.5,1524.1 101.1,1528.6" fill="#F97316" opacity="0.22" filter="url(#softGlow)"/>
</g>


<g opacity="0.475" filter="url(#hardGlow)">
  <circle cx="94.1" cy="1572.3" r="22.9" fill="#0A1224" opacity="0.65"/>
  <circle cx="94.1" cy="1572.3" r="22.9" fill="none" stroke="url(#strokeA)" stroke-width="2.0" opacity="0.85"/>
  <circle cx="94.1" cy="1572.3" r="19.7" fill="none" stroke="#A3E635" stroke-width="1.5" opacity="0.35"/>
  <polygon points="106.5,1583.1 90.9,1588.4 78.5,1577.6 81.7,1561.4 97.3,1556.1 109.7,1566.9" fill="none" stroke="url(#strokeB)" stroke-width="1.2" opacity="0.65"/>
  
</g>


<g opacity="0.868" filter="url(#hardGlow)">
  <circle cx="801.8" cy="940.2" r="56.2" fill="#0A1224" opacity="0.65"/>
  <circle cx="801.8" cy="940.2" r="56.2" fill="none" stroke="url(#strokeA)" stroke-width="4.5" opacity="0.85"/>
  <circle cx="801.8" cy="940.2" r="48.3" fill="none" stroke="#F97316" stroke-width="1.7" opacity="0.35"/>
  <polygon points="833.4,914.9 839.5,954.9 807.9,980.2 770.2,965.5 764.1,925.5 795.7,900.2" fill="none" stroke="url(#strokeB)" stroke-width="1.4" opacity="0.65"/>
  <polygon points="815.2,935.7 799.0,954.1 791.2,930.8" fill="#F97316" opacity="0.22" filter="url(#softGlow)"/>
</g>


<g opacity="0.388" filter="url(#hardGlow)">
  <circle cx="868.3" cy="974.1" r="27.4" fill="#0A1224" opacity="0.65"/>
  <circle cx="868.3" cy="974.1" r="27.4" fill="none" stroke="url(#strokeA)" stroke-width="2.2" opacity="0.85"/>
  <circle cx="868.3" cy="974.1" r="23.5" fill="none" stroke="#A3E635" stroke-width="1.5" opacity="0.35"/>
  <polygon points="850.1,981.7 852.7,962.2 870.8,954.6 886.5,966.6 884.0,986.1 865.8,993.7" fill="none" stroke="url(#strokeB)" stroke-width="1.2" opacity="0.65"/>
  <polygon points="861.4,974.5 871.5,968.0 872.0,979.9" fill="#A3E635" opacity="0.22" filter="url(#softGlow)"/>
</g>


<g opacity="0.818" filter="url(#hardGlow)">
  <circle cx="22.2" cy="1460.2" r="51.5" fill="#0A1224" opacity="0.65"/>
  <circle cx="22.2" cy="1460.2" r="51.5" fill="none" stroke="url(#strokeA)" stroke-width="4.1" opacity="0.85"/>
  <circle cx="22.2" cy="1460.2" r="44.3" fill="none" stroke="#F97316" stroke-width="1.5" opacity="0.35"/>
  <polygon points="58.7,1466.9 34.7,1495.2 -1.8,1488.5 -14.3,1453.6 9.7,1425.3 46.2,1431.9" fill="none" stroke="url(#strokeB)" stroke-width="1.3" opacity="0.65"/>
  <polygon points="33.4,1466.8 10.9,1466.7 22.2,1447.2" fill="#F97316" opacity="0.22" filter="url(#softGlow)"/>
</g>


<g opacity="0.518" filter="url(#hardGlow)">
  <circle cx="-54.3" cy="1462.6" r="21.6" fill="#0A1224" opacity="0.65"/>
  <circle cx="-54.3" cy="1462.6" r="21.6" fill="none" stroke="url(#strokeA)" stroke-width="2.0" opacity="0.85"/>
  <circle cx="-54.3" cy="1462.6" r="18.5" fill="none" stroke="#A3E635" stroke-width="1.5" opacity="0.35"/>
  <polygon points="-41.8,1471.9 -56.1,1478.0 -68.5,1468.7 -66.7,1453.3 -52.5,1447.2 -40.0,1456.4" fill="none" stroke="url(#strokeB)" stroke-width="1.2" opacity="0.65"/>
  
</g>


<g opacity="0.323" transform="translate(145.8,1544.9) rotate(3.9)" filter="url(#softGlow)">
  <rect x="-76.2" y="-54.9" width="152.4" height="109.7" rx="11.0" fill="#050A12" opacity="0.25"/>
  <rect x="-76.2" y="-54.9" width="152.4" height="109.7" rx="11.0" fill="none" stroke="url(#strokeA)" stroke-width="5.5" opacity="0.85"/>
  <rect x="-67.4" y="-46.1" width="134.9" height="92.1" rx="7.7" fill="none" stroke="#F97316" stroke-width="2.2" opacity="0.35"/>
</g>


<g opacity="0.338" transform="translate(151.6,774.3) rotate(-3.0)" filter="url(#softGlow)">
  <rect x="-88.8" y="-83.0" width="177.6" height="166.0" rx="16.6" fill="#050A12" opacity="0.25"/>
  <rect x="-88.8" y="-83.0" width="177.6" height="166.0" rx="16.6" fill="none" stroke="url(#strokeA)" stroke-width="8.3" opacity="0.85"/>
  <rect x="-75.5" y="-69.7" width="151.0" height="139.4" rx="11.6" fill="none" stroke="#A3E635" stroke-width="3.3" opacity="0.35"/>
</g>


<g opacity="0.400" transform="translate(102.8,1529.9) rotate(-7.9)" filter="url(#softGlow)">
  <rect x="-93.3" y="-81.9" width="186.5" height="163.8" rx="16.4" fill="#050A12" opacity="0.25"/>
  <rect x="-93.3" y="-81.9" width="186.5" height="163.8" rx="16.4" fill="none" stroke="url(#strokeA)" stroke-width="8.2" opacity="0.85"/>
  <rect x="-80.2" y="-68.8" width="160.3" height="137.6" rx="11.5" fill="none" stroke="#A3E635" stroke-width="3.3" opacity="0.35"/>
</g>


<g opacity="0.412" transform="translate(90.6,1529.1) rotate(9.0)" filter="url(#softGlow)">
  <rect x="-68.8" y="-51.9" width="137.6" height="103.8" rx="10.4" fill="#050A12" opacity="0.25"/>
  <rect x="-68.8" y="-51.9" width="137.6" height="103.8" rx="10.4" fill="none" stroke="url(#strokeA)" stroke-width="5.2" opacity="0.85"/>
  <rect x="-60.5" y="-43.6" width="121.0" height="87.2" rx="7.3" fill="none" stroke="#A3E635" stroke-width="2.1" opacity="0.35"/>
</g>


<g opacity="0.287" transform="translate(896.3,127.9) rotate(-5.2)" filter="url(#softGlow)">
  <rect x="-37.3" y="-21.5" width="74.6" height="42.9" rx="13.1" fill="none" stroke="#A3E635" stroke-width="7.2" opacity="0.55"/>
  <rect x="-16.4" y="-10.7" width="74.6" height="42.9" rx="13.1" fill="none" stroke="url(#strokeA)" stroke-width="6.0" opacity="0.55"/>
</g>


<g opacity="0.230" transform="translate(43.5,1531.4) rotate(-7.8)" filter="url(#softGlow)">
  <rect x="-34.0" y="-19.6" width="68.0" height="39.1" rx="12.0" fill="none" stroke="#F97316" stroke-width="6.5" opacity="0.55"/>
  <rect x="-15.0" y="-9.8" width="68.0" height="39.1" rx="12.0" fill="none" stroke="url(#strokeA)" stroke-width="5.4" opacity="0.55"/>
</g>


<g opacity="0.363" transform="translate(784.4,1590.2) rotate(3.8)" filter="url(#softGlow)">
  <rect x="-34.7" y="-20.0" width="69.3" height="39.9" rx="12.2" fill="none" stroke="#A3E635" stroke-width="6.7" opacity="0.55"/>
  <rect x="-15.3" y="-10.0" width="69.3" height="39.9" rx="12.2" fill="none" stroke="url(#strokeA)" stroke-width="5.5" opacity="0.55"/>
</g>


<g opacity="0.415" transform="translate(136.0,1431.9) rotate(1.6)" filter="url(#softGlow)">
  <rect x="-29.0" y="-16.7" width="58.0" height="33.4" rx="10.2" fill="none" stroke="#A3E635" stroke-width="5.6" opacity="0.55"/>
  <rect x="-12.8" y="-8.3" width="58.0" height="33.4" rx="10.2" fill="none" stroke="url(#strokeA)" stroke-width="4.6" opacity="0.55"/>
</g>


<g opacity="0.376" transform="translate(497.8,29.4) rotate(-14.4)" filter="url(#softGlow)">
  <rect x="-33.4" y="-19.2" width="66.8" height="38.5" rx="11.8" fill="none" stroke="#F97316" stroke-width="6.4" opacity="0.55"/>
  <rect x="-14.7" y="-9.6" width="66.8" height="38.5" rx="11.8" fill="none" stroke="url(#strokeA)" stroke-width="5.3" opacity="0.55"/>
</g>


<g opacity="0.293" transform="translate(817.9,783.4) rotate(13.1)" filter="url(#softGlow)">
  <rect x="-30.9" y="-17.8" width="61.9" height="35.6" rx="10.9" fill="none" stroke="#A3E635" stroke-width="5.9" opacity="0.55"/>
  <rect x="-13.6" y="-8.9" width="61.9" height="35.6" rx="10.9" fill="none" stroke="url(#strokeA)" stroke-width="5.0" opacity="0.55"/>
</g>


<g opacity="0.363" transform="translate(799.0,73.8) rotate(14.8)" filter="url(#softGlow)">
  <rect x="-39.2" y="-22.6" width="78.5" height="45.2" rx="13.8" fill="none" stroke="#F97316" stroke-width="7.5" opacity="0.55"/>
  <rect x="-17.3" y="-11.3" width="78.5" height="45.2" rx="13.8" fill="none" stroke="url(#strokeA)" stroke-width="6.3" opacity="0.55"/>
</g>


<g opacity="0.270" transform="translate(726.3,87.1) rotate(3.2)" filter="url(#softGlow)">
  <rect x="-43.7" y="-25.2" width="87.4" height="50.3" rx="15.4" fill="none" stroke="#F97316" stroke-width="8.4" opacity="0.55"/>
  <rect x="-19.2" y="-12.6" width="87.4" height="50.3" rx="15.4" fill="none" stroke="url(#strokeA)" stroke-width="7.0" opacity="0.55"/>
</g>


<g opacity="0.222">
  <line x1="847.1" y1="1407.1" x2="847.1" y2="1501.5" stroke="#A3E635" stroke-width="1.91" opacity="0.45"/>
  <rect x="841.3" y="1463.3" width="11.7" height="38.7" rx="3.9" fill="#0B1020" opacity="0.55" stroke="url(#strokeA)" stroke-width="1.2"/>
</g>

<g opacity="0.222">
  <line x1="660.4" y1="1407.3" x2="660.4" y2="1501.5" stroke="#A3E635" stroke-width="1.73" opacity="0.45"/>
  <rect x="657.2" y="1453.2" width="6.3" height="58.9" rx="2.1" fill="#0B1020" opacity="0.55" stroke="url(#strokeA)" stroke-width="1.2"/>
</g>

<g opacity="0.222">
  <line x1="315.0" y1="1427.8" x2="315.0" y2="1496.4" stroke="#A3E635" stroke-width="1.57" opacity="0.45"/>
  <rect x="311.7" y="1469.5" width="6.6" height="26.4" rx="2.2" fill="#0B1020" opacity="0.55" stroke="url(#strokeA)" stroke-width="1.2"/>
</g>

<g opacity="0.222">
  <line x1="665.2" y1="1429.3" x2="665.2" y2="1496.0" stroke="#A3E635" stroke-width="2.18" opacity="0.45"/>
  <rect x="661.5" y="1464.3" width="7.3" height="36.8" rx="2.4" fill="#0B1020" opacity="0.55" stroke="url(#strokeA)" stroke-width="1.2"/>
</g>

<g opacity="0.222">
  <line x1="409.8" y1="1418.2" x2="409.8" y2="1498.8" stroke="#A3E635" stroke-width="1.56" opacity="0.45"/>
  <rect x="403.9" y="1458.4" width="11.7" height="48.5" rx="3.9" fill="#0B1020" opacity="0.55" stroke="url(#strokeA)" stroke-width="1.2"/>
</g>

<g opacity="0.222">
  <line x1="185.8" y1="1436.9" x2="185.8" y2="1494.1" stroke="#A3E635" stroke-width="2.09" opacity="0.45"/>
  <rect x="180.6" y="1469.3" width="10.4" height="26.8" rx="3.5" fill="#0B1020" opacity="0.55" stroke="url(#strokeA)" stroke-width="1.2"/>
</g>

<g opacity="0.222">
  <line x1="865.5" y1="1405.5" x2="865.5" y2="1501.9" stroke="#A3E635" stroke-width="1.54" opacity="0.45"/>
  <rect x="862.2" y="1458.0" width="6.6" height="49.3" rx="2.2" fill="#0B1020" opacity="0.55" stroke="url(#strokeA)" stroke-width="1.2"/>
</g>

<g opacity="0.222">
  <line x1="606.6" y1="1424.0" x2="606.6" y2="1497.3" stroke="#A3E635" stroke-width="1.80" opacity="0.45"/>
  <rect x="601.9" y="1466.1" width="9.3" height="33.0" rx="3.1" fill="#0B1020" opacity="0.55" stroke="url(#strokeA)" stroke-width="1.2"/>
</g>

<g opacity="0.222">
  <line x1="755.1" y1="1430.8" x2="755.1" y2="1495.6" stroke="#A3E635" stroke-width="1.38" opacity="0.45"/>
  <rect x="751.2" y="1472.4" width="7.7" height="20.6" rx="2.6" fill="#0B1020" opacity="0.55" stroke="url(#strokeA)" stroke-width="1.2"/>
</g>

<g opacity="0.222">
  <line x1="421.7" y1="1388.2" x2="421.7" y2="1506.3" stroke="#A3E635" stroke-width="1.84" opacity="0.45"/>
  <rect x="416.2" y="1453.1" width="11.1" height="59.1" rx="3.7" fill="#0B1020" opacity="0.55" stroke="url(#strokeA)" stroke-width="1.2"/>
</g>

<g opacity="0.222">
  <line x1="603.3" y1="1432.8" x2="603.3" y2="1495.1" stroke="#A3E635" stroke-width="1.39" opacity="0.45"/>
  <rect x="598.4" y="1469.0" width="9.8" height="27.2" rx="3.3" fill="#0B1020" opacity="0.55" stroke="url(#strokeA)" stroke-width="1.2"/>
</g>

<g opacity="0.222">
  <line x1="42.9" y1="1399.8" x2="42.9" y2="1503.4" stroke="#A3E635" stroke-width="1.00" opacity="0.45"/>
  <rect x="39.3" y="1459.9" width="7.2" height="45.4" rx="2.4" fill="#0B1020" opacity="0.55" stroke="url(#strokeA)" stroke-width="1.2"/>
</g>

<g opacity="0.222">
  <line x1="885.4" y1="1434.9" x2="885.4" y2="1494.6" stroke="#A3E635" stroke-width="1.50" opacity="0.45"/>
  <rect x="879.5" y="1473.5" width="11.8" height="18.4" rx="3.9" fill="#0B1020" opacity="0.55" stroke="url(#strokeA)" stroke-width="1.2"/>
</g>
<circle cx="888.3" cy="1452.2" r="2.1" fill="#F97316" opacity="0.27" filter="url(#softGlow)"/>
<circle cx="647.7" cy="1468.2" r="2.8" fill="#F97316" opacity="0.18" filter="url(#softGlow)"/>
<circle cx="899.4" cy="1420.6" r="2.3" fill="#F97316" opacity="0.14" filter="url(#softGlow)"/>
<circle cx="130.1" cy="1273.2" r="1.5" fill="#F97316" opacity="0.16" filter="url(#softGlow)"/>
<circle cx="827.9" cy="284.6" r="2.1" fill="#F97316" opacity="0.22" filter="url(#softGlow)"/>
<circle cx="769.1" cy="172.2" r="2.3" fill="#F97316" opacity="0.19" filter="url(#softGlow)"/>
<circle cx="82.9" cy="658.5" r="1.4" fill="#F97316" opacity="0.11" filter="url(#softGlow)"/>
<circle cx="870.6" cy="5.1" r="3.2" fill="#F97316" opacity="0.21" filter="url(#softGlow)"/>
<circle cx="797.6" cy="30.0" r="1.9" fill="#F97316" opacity="0.27" filter="url(#softGlow)"/>
<circle cx="884.3" cy="232.2" r="2.5" fill="#F97316" opacity="0.14" filter="url(#softGlow)"/>
<circle cx="30.6" cy="1580.7" r="1.9" fill="#F97316" opacity="0.19" filter="url(#softGlow)"/>
<circle cx="788.3" cy="717.9" r="3.0" fill="#F97316" opacity="0.14" filter="url(#softGlow)"/>
<circle cx="423.3" cy="165.2" r="1.4" fill="#F97316" opacity="0.20" filter="url(#softGlow)"/>
<circle cx="841.4" cy="1538.0" r="1.3" fill="#F97316" opacity="0.21" filter="url(#softGlow)"/>
<circle cx="840.5" cy="1593.9" r="1.8" fill="#F97316" opacity="0.16" filter="url(#softGlow)"/>
<circle cx="416.1" cy="20.2" r="1.7" fill="#F97316" opacity="0.11" filter="url(#softGlow)"/>
<circle cx="888.4" cy="34.8" r="1.3" fill="#F97316" opacity="0.13" filter="url(#softGlow)"/>
<circle cx="790.6" cy="1557.5" r="3.1" fill="#F97316" opacity="0.16" filter="url(#softGlow)"/>
<circle cx="797.9" cy="832.8" r="2.9" fill="#F97316" opacity="0.23" filter="url(#softGlow)"/>
</svg>