<svg xmlns="http://www.w3.org/2000/svg" width="900" height="1600" viewBox="0 0 900 1600" preserveAspectRatio="xMidYMid slice">
<defs>
  <linearGradient id="g0" x1="0" y1="0" x2="1" y2="1">
    <stop offset="0" stop-color="#0B0F1A"/>
    <stop offset="0.55" stop-color="#A855F7" stop-opacity="0.9"/>
    <stop offset="1" stop-color="#030712"/>
  </linearGradient>
  <radialGradient id="g1" cx="20%" cy="15%" r="70%">
    <stop offset="0" stop-color="#22D3EE" stop-opacity="0.38"/>
    <stop offset="0.6" stop-color="#22D3EE" stop-opacity="0.08"/>
    <stop offset="1" stop-color="#22D3EE" stop-opacity="0"/>
  </radialGradient>
  <radialGradient id="g2" cx="85%" cy="80%" r="75%">
    <stop offset="0" stop-color="#22D3EE" stop-opacity="0.28"/>
    <stop offset="0.65" stop-color="#22D3EE" stop-opacity="0.06"/>
    <stop offset="1" stop-color="#22D3EE" stop-opacity="0"/>
  </radialGradient>
  <filter id="softGlow" x="-30%" y="-30%" width="160%" height="160%">
    <feGaussianBlur stdDeviation="12" result="b"/>
    <feMerge>
      <feMergeNode in="b"/>
      <feMergeNode in="SourceGraphic"/>
    </feMerge>
  </filter>
  <filter id="hardGlow" x="-40%" y="-40%" width="180%" height="180%">
    <feGaussianBlur stdDeviation="6" result="b"/>
    <feColorMatrix in="b" type="matrix" values="1 0 0 0 0  0 1 0 0 0  0 0 1 0 0  0 0 0 18 -7" result="c"/>
    <feMerge>
      <feMergeNode in="c"/>
      <feMergeNode in="SourceGraphic"/>
    </feMerge>
  </filter>
  <linearGradient id="strokeA" x1="0" y1="0" x2="1" y2="0">
    <stop offset="0" stop-color="#22D3EE" stop-opacity="0.9"/>
    <stop offset="0.5" stop-color="#FFFFFF" stop-opacity="0.25"/>
    <stop offset="1" stop-color="#22D3EE" stop-opacity="0.7"/>
  </linearGradient>
  <linearGradient id="strokeB" x1="0" y1="0" x2="0" y2="1">
    <stop offset="0" stop-color="#FFFFFF" stop-opacity="0.18"/>
    <stop offset="1" stop-color="#22D3EE" stop-opacity="0.55"/>
  </linearGradient>
</defs>
<rect x="0" y="0" width="900" height="1600" fill="url(#g0)"/>
<rect x="0" y="0" width="900" height="1600" fill="url(#g1)"/>
<rect x="0" y="0" width="900" height="1600" fill="url(#g2)"/>


<defs>
  <radialGradient id="vign" cx="0.5000" cy="0.5000" r="0.85">
    <stop offset="0" stop-color="#000000" stop-opacity="0"/>
    <stop offset="0.55" stop-color="#000000" stop-opacity="0.217"/>
    <stop offset="1" stop-color="#000000" stop-opacity="0.620"/>
  </radialGradient>
</defs>
<rect x="0" y="0" width="900" height="1600" fill="url(#vign)"/>

<g opacity="0.248" filter="url(#softGlow)"><path d="M 82.1,98.8 L 53.1,98.8 L 53.1,283.7 L 838.4,283.7 L 838.4,1062.2 " fill="none" stroke="url(#strokeB)" stroke-width="1.36" stroke-linecap="round" stroke-linejoin="round"/><circle cx="53.1" cy="283.7" r="3.5" fill="#A855F7" opacity="0.45"/><circle cx="53.1" cy="98.8" r="3.5" fill="#A855F7" opacity="0.45"/><circle cx="838.4" cy="283.7" r="2.7" fill="#A855F7" opacity="0.45"/></g>
<g opacity="0.248" filter="url(#softGlow)"><path d="M 0.1,1501.9 L 869.8,1501.9 L 869.8,997.4 L 779.4,997.4 L 779.4,171.6 " fill="none" stroke="url(#strokeB)" stroke-width="1.17" stroke-linecap="round" stroke-linejoin="round"/><circle cx="0.1" cy="1501.9" r="3.2" fill="#A855F7" opacity="0.45"/><circle cx="779.4" cy="171.6" r="3.9" fill="#A855F7" opacity="0.45"/><circle cx="779.4" cy="997.4" r="2.7" fill="#A855F7" opacity="0.45"/></g>
<g opacity="0.248" filter="url(#softGlow)"><path d="M 894.3,1578.4 L 775.1,1578.4 L 775.1,1450.3 L 96.7,1450.3 L 96.7,1310.2 " fill="none" stroke="url(#strokeB)" stroke-width="1.73" stroke-linecap="round" stroke-linejoin="round"/><circle cx="96.7" cy="1450.3" r="2.6" fill="#A855F7" opacity="0.45"/><circle cx="775.1" cy="1578.4" r="2.2" fill="#A855F7" opacity="0.45"/><circle cx="775.1" cy="1450.3" r="2.9" fill="#A855F7" opacity="0.45"/></g>
<g opacity="0.248" filter="url(#softGlow)"><path d="M 746.4,107.6 L 730.2,107.6 L 730.2,1514.6 L 137.3,1514.6 L 137.3,1555.7 " fill="none" stroke="url(#strokeB)" stroke-width="1.76" stroke-linecap="round" stroke-linejoin="round"/><circle cx="730.2" cy="107.6" r="2.9" fill="#A855F7" opacity="0.45"/><circle cx="137.3" cy="1555.7" r="3.8" fill="#A855F7" opacity="0.45"/><circle cx="137.3" cy="1514.6" r="2.1" fill="#A855F7" opacity="0.45"/></g>
<g opacity="0.248" filter="url(#softGlow)"><path d="M 85.1,676.9 L 834.1,676.9 L 834.1,116.2 L 873.7,116.2 L 873.7,167.1 " fill="none" stroke="url(#strokeB)" stroke-width="1.34" stroke-linecap="round" stroke-linejoin="round"/><circle cx="873.7" cy="116.2" r="3.5" fill="#A855F7" opacity="0.45"/><circle cx="834.1" cy="116.2" r="4.2" fill="#A855F7" opacity="0.45"/><circle cx="873.7" cy="167.1" r="3.9" fill="#A855F7" opacity="0.45"/></g>
<g opacity="0.248" filter="url(#softGlow)"><path d="M 582.8,52.5 L 54.6,52.5 L 54.6,242.9 L 859.5,242.9 L 859.5,610.3 " fill="none" stroke="url(#strokeB)" stroke-width="1.29" stroke-linecap="round" stroke-linejoin="round"/><circle cx="859.5" cy="610.3" r="2.4" fill="#A855F7" opacity="0.45"/><circle cx="54.6" cy="52.5" r="2.7" fill="#A855F7" opacity="0.45"/><circle cx="859.5" cy="242.9" r="3.0" fill="#A855F7" opacity="0.45"/></g>
<g opacity="0.248" filter="url(#softGlow)"><path d="M 816.5,665.7 L 120.4,665.7 L 120.4,25.3 L 241.9,25.3 L 241.9,90.6 " fill="none" stroke="url(#strokeB)" stroke-width="1.93" stroke-linecap="round" stroke-linejoin="round"/><circle cx="241.9" cy="90.6" r="2.0" fill="#A855F7" opacity="0.45"/><circle cx="816.5" cy="665.7" r="3.7" fill="#A855F7" opacity="0.45"/><circle cx="241.9" cy="25.3" r="2.2" fill="#A855F7" opacity="0.45"/></g>
<g opacity="0.248" filter="url(#softGlow)"><path d="M 83.2,86.5 L 792.6,86.5 L 792.6,1533.9 L 134.1,1533.9 L 134.1,968.8 " fill="none" stroke="url(#strokeB)" stroke-width="1.52" stroke-linecap="round" stroke-linejoin="round"/><circle cx="792.6" cy="86.5" r="3.4" fill="#A855F7" opacity="0.45"/><circle cx="83.2" cy="86.5" r="3.7" fill="#A855F7" opacity="0.45"/><circle cx="792.6" cy="1533.9" r="2.3" fill="#A855F7" opacity="0.45"/></g>
<g opacity="0.248" filter="url(#softGlow)"><path d="M 281.4,1556.6 L 753.4,1556.6 L 753.4,127.3 L 894.5,127.3 L 894.5,1445.7 " fill="none" stroke="url(#strokeB)" stroke-width="1.37" stroke-linecap="round" stroke-linejoin="round"/><circle cx="281.4" cy="1556.6" r="2.5" fill="#A855F7" opacity="0.45"/><circle cx="753.4" cy="127.3" r="3.4" fill="#A855F7" opacity="0.45"/><circle cx="753.4" cy="1556.6" r="3.4" fill="#A855F7" opacity="0.45"/></g>
<g opacity="0.248" filter="url(#softGlow)"><path d="M 891.8,1511.0 L 128.6,1511.0 L 128.6,303.6 L 741.4,303.6 L 741.4,1183.4 " fill="none" stroke="url(#strokeB)" stroke-width="1.31" stroke-linecap="round" stroke-linejoin="round"/><circle cx="128.6" cy="303.6" r="3.5" fill="#A855F7" opacity="0.45"/><circle cx="741.4" cy="1183.4" r="3.9" fill="#A855F7" opacity="0.45"/><circle cx="741.4" cy="303.6" r="2.7" fill="#A855F7" opacity="0.45"/></g>
<g opacity="0.248" filter="url(#softGlow)"><path d="M 872.7,6.5 L 341.2,6.5 L 341.2,64.1 L 887.4,64.1 L 887.4,1543.1 " fill="none" stroke="url(#strokeB)" stroke-width="2.04" stroke-linecap="round" stroke-linejoin="round"/><circle cx="341.2" cy="6.5" r="3.4" fill="#A855F7" opacity="0.45"/><circle cx="887.4" cy="64.1" r="3.8" fill="#A855F7" opacity="0.45"/><circle cx="341.2" cy="64.1" r="2.2" fill="#A855F7" opacity="0.45"/></g>
<g opacity="0.248" filter="url(#softGlow)"><path d="M 886.1,169.3 L 675.8,169.3 L 675.8,1530.8 L 398.0,1530.8 L 398.0,1581.7 " fill="none" stroke="url(#strokeB)" stroke-width="1.58" stroke-linecap="round" stroke-linejoin="round"/><circle cx="675.8" cy="1530.8" r="3.9" fill="#A855F7" opacity="0.45"/><circle cx="398.0" cy="1581.7" r="3.9" fill="#A855F7" opacity="0.45"/><circle cx="675.8" cy="169.3" r="3.4" fill="#A855F7" opacity="0.45"/></g>
<g opacity="0.248" filter="url(#softGlow)"><path d="M 14.0,1534.5 L 65.4,1534.5 L 65.4,108.1 L 618.8,108.1 L 618.8,15.7 " fill="none" stroke="url(#strokeB)" stroke-width="2.17" stroke-linecap="round" stroke-linejoin="round"/><circle cx="65.4" cy="1534.5" r="3.2" fill="#A855F7" opacity="0.45"/><circle cx="65.4" cy="108.1" r="3.4" fill="#A855F7" opacity="0.45"/><circle cx="618.8" cy="15.7" r="2.1" fill="#A855F7" opacity="0.45"/></g>
<g opacity="0.248" filter="url(#softGlow)"><path d="M 763.4,1467.1 L 628.8,1467.1 L 628.8,1460.8 L 78.3,1460.8 L 78.3,1449.1 " fill="none" stroke="url(#strokeB)" stroke-width="1.35" stroke-linecap="round" stroke-linejoin="round"/><circle cx="78.3" cy="1460.8" r="3.4" fill="#A855F7" opacity="0.45"/><circle cx="763.4" cy="1467.1" r="2.8" fill="#A855F7" opacity="0.45"/><circle cx="78.3" cy="1449.1" r="3.9" fill="#A855F7" opacity="0.45"/></g>
<g opacity="0.248" filter="url(#softGlow)"><path d="M 105.3,1557.9 L 20.2,1557.9 L 20.2,1448.0 L 818.6,1448.0 L 818.6,72.8 " fill="none" stroke="url(#strokeB)" stroke-width="2.02" stroke-linecap="round" stroke-linejoin="round"/><circle cx="20.2" cy="1557.9" r="3.6" fill="#A855F7" opacity="0.45"/><circle cx="105.3" cy="1557.9" r="3.8" fill="#A855F7" opacity="0.45"/><circle cx="818.6" cy="1448.0" r="3.5" fill="#A855F7" opacity="0.45"/></g>
<g opacity="0.248" filter="url(#softGlow)"><path d="M 42.9,1451.7 L 108.1,1451.7 L 108.1,77.5 L 21.4,77.5 L 21.4,258.1 " fill="none" stroke="url(#strokeB)" stroke-width="1.88" stroke-linecap="round" stroke-linejoin="round"/><circle cx="108.1" cy="1451.7" r="3.8" fill="#A855F7" opacity="0.45"/><circle cx="108.1" cy="77.5" r="2.4" fill="#A855F7" opacity="0.45"/><circle cx="42.9" cy="1451.7" r="2.6" fill="#A855F7" opacity="0.45"/></g>

<g opacity="0.726" filter="url(#hardGlow)">
  <circle cx="131.8" cy="45.1" r="38.3" fill="#0A1224" opacity="0.65"/>
  <circle cx="131.8" cy="45.1" r="38.3" fill="none" stroke="url(#strokeA)" stroke-width="3.1" opacity="0.85"/>
  <circle cx="131.8" cy="45.1" r="32.9" fill="none" stroke="#22D3EE" stroke-width="1.5" opacity="0.35"/>
  <polygon points="159.3,43.1 147.2,67.9 119.7,69.9 104.3,47.1 116.3,22.3 143.8,20.3" fill="none" stroke="url(#strokeB)" stroke-width="1.2" opacity="0.65"/>
  <polygon points="141.0,47.7 124.8,51.8 129.4,35.7" fill="#22D3EE" opacity="0.22" filter="url(#softGlow)"/>
</g>


<g opacity="0.417" filter="url(#hardGlow)">
  <circle cx="96.3" cy="35.2" r="14.9" fill="#0A1224" opacity="0.65"/>
  <circle cx="96.3" cy="35.2" r="14.9" fill="none" stroke="url(#strokeA)" stroke-width="2.0" opacity="0.85"/>
  <circle cx="96.3" cy="35.2" r="12.8" fill="none" stroke="#A855F7" stroke-width="1.5" opacity="0.35"/>
  <polygon points="107.0,34.9 101.8,44.3 91.1,44.6 85.5,35.4 90.7,26.0 101.4,25.8" fill="none" stroke="url(#strokeB)" stroke-width="1.2" opacity="0.65"/>
  <polygon points="99.8,36.4 93.4,37.6 95.5,31.5" fill="#A855F7" opacity="0.22" filter="url(#softGlow)"/>
</g>


<g opacity="0.746" filter="url(#hardGlow)">
  <circle cx="806.9" cy="844.3" r="50.4" fill="#0A1224" opacity="0.65"/>
  <circle cx="806.9" cy="844.3" r="50.4" fill="none" stroke="url(#strokeA)" stroke-width="4.0" opacity="0.85"/>
  <circle cx="806.9" cy="844.3" r="43.3" fill="none" stroke="#22D3EE" stroke-width="1.5" opacity="0.35"/>
  <polygon points="771.4,837.2 795.3,810.0 830.9,817.0 842.5,851.4 818.6,878.7 783.0,871.6" fill="none" stroke="url(#strokeB)" stroke-width="1.3" opacity="0.65"/>
  <polygon points="796.1,837.7 818.1,838.2 806.7,857.0" fill="#22D3EE" opacity="0.22" filter="url(#softGlow)"/>
</g>


<g opacity="0.618" filter="url(#hardGlow)">
  <circle cx="778.6" cy="892.0" r="18.5" fill="#0A1224" opacity="0.65"/>
  <circle cx="778.6" cy="892.0" r="18.5" fill="none" stroke="url(#strokeA)" stroke-width="2.0" opacity="0.85"/>
  <circle cx="778.6" cy="892.0" r="15.9" fill="none" stroke="#A855F7" stroke-width="1.5" opacity="0.35"/>
  <polygon points="785.6,903.2 772.3,903.7 765.3,892.4 771.5,880.7 784.8,880.2 791.9,891.5" fill="none" stroke="url(#strokeB)" stroke-width="1.2" opacity="0.65"/>
  
</g>


<g opacity="0.438" filter="url(#hardGlow)">
  <circle cx="879.6" cy="876.7" r="19.5" fill="#0A1224" opacity="0.65"/>
  <circle cx="879.6" cy="876.7" r="19.5" fill="none" stroke="url(#strokeA)" stroke-width="2.0" opacity="0.85"/>
  <circle cx="879.6" cy="876.7" r="16.8" fill="none" stroke="#A855F7" stroke-width="1.5" opacity="0.35"/>
  <polygon points="873.0,889.1 865.6,877.2 872.2,864.8 886.2,864.3 893.6,876.3 887.0,888.7" fill="none" stroke="url(#strokeB)" stroke-width="1.2" opacity="0.65"/>
  
</g>


<g opacity="0.445" filter="url(#hardGlow)">
  <circle cx="808.3" cy="799.3" r="21.4" fill="#0A1224" opacity="0.65"/>
  <circle cx="808.3" cy="799.3" r="21.4" fill="none" stroke="url(#strokeA)" stroke-width="2.0" opacity="0.85"/>
  <circle cx="808.3" cy="799.3" r="18.4" fill="none" stroke="#A855F7" stroke-width="1.5" opacity="0.35"/>
  <polygon points="797.7,810.4 793.4,795.6 804.0,784.5 819.0,788.2 823.3,802.9 812.6,814.0" fill="none" stroke="url(#strokeB)" stroke-width="1.2" opacity="0.65"/>
  
</g>


<g opacity="0.754" filter="url(#hardGlow)">
  <circle cx="642.8" cy="40.2" r="42.0" fill="#0A1224" opacity="0.65"/>
  <circle cx="642.8" cy="40.2" r="42.0" fill="none" stroke="url(#strokeA)" stroke-width="3.4" opacity="0.85"/>
  <circle cx="642.8" cy="40.2" r="36.2" fill="none" stroke="#22D3EE" stroke-width="1.5" opacity="0.35"/>
  <polygon points="613.7,48.4 621.2,19.1 650.3,10.9 672.0,32.1 664.5,61.4 635.3,69.6" fill="none" stroke="url(#strokeB)" stroke-width="1.2" opacity="0.65"/>
  <polygon points="632.2,39.4 648.8,31.5 647.4,49.8" fill="#22D3EE" opacity="0.22" filter="url(#softGlow)"/>
</g>


<g opacity="0.594" filter="url(#hardGlow)">
  <circle cx="607.4" cy="59.8" r="14.9" fill="#0A1224" opacity="0.65"/>
  <circle cx="607.4" cy="59.8" r="14.9" fill="none" stroke="url(#strokeA)" stroke-width="2.0" opacity="0.85"/>
  <circle cx="607.4" cy="59.8" r="12.9" fill="none" stroke="#A855F7" stroke-width="1.5" opacity="0.35"/>
  <polygon points="597.3,56.2 605.4,49.2 615.6,52.8 617.6,63.4 609.4,70.4 599.2,66.8" fill="none" stroke="url(#strokeB)" stroke-width="1.2" opacity="0.65"/>
  <polygon points="604.5,57.4 610.9,58.5 606.8,63.5" fill="#A855F7" opacity="0.22" filter="url(#softGlow)"/>
</g>


<g opacity="0.919" filter="url(#hardGlow)">
  <circle cx="816.2" cy="1475.8" r="31.6" fill="#0A1224" opacity="0.65"/>
  <circle cx="816.2" cy="1475.8" r="31.6" fill="none" stroke="url(#strokeA)" stroke-width="2.5" opacity="0.85"/>
  <circle cx="816.2" cy="1475.8" r="27.2" fill="none" stroke="#22D3EE" stroke-width="1.5" opacity="0.35"/>
  <polygon points="833.9,1490.1 812.7,1498.3 794.9,1484.0 798.5,1461.5 819.7,1453.3 837.4,1467.6" fill="none" stroke="url(#strokeB)" stroke-width="1.2" opacity="0.65"/>
  <polygon points="820.3,1482.6 808.2,1475.9 820.0,1468.8" fill="#22D3EE" opacity="0.22" filter="url(#softGlow)"/>
</g>


<g opacity="0.457" filter="url(#hardGlow)">
  <circle cx="822.4" cy="1468.4" r="12.5" fill="#0A1224" opacity="0.65"/>
  <circle cx="822.4" cy="1468.4" r="12.5" fill="none" stroke="url(#strokeA)" stroke-width="2.0" opacity="0.85"/>
  <circle cx="822.4" cy="1468.4" r="10.8" fill="none" stroke="#A855F7" stroke-width="1.5" opacity="0.35"/>
  <polygon points="829.9,1473.3 821.9,1477.4 814.3,1472.4 814.9,1463.4 822.9,1459.4 830.5,1464.3" fill="none" stroke="url(#strokeB)" stroke-width="1.2" opacity="0.65"/>
  
</g>


<g opacity="0.861" filter="url(#hardGlow)">
  <circle cx="876.1" cy="1468.2" r="46.1" fill="#0A1224" opacity="0.65"/>
  <circle cx="876.1" cy="1468.2" r="46.1" fill="none" stroke="url(#strokeA)" stroke-width="3.7" opacity="0.85"/>
  <circle cx="876.1" cy="1468.2" r="39.6" fill="none" stroke="#22D3EE" stroke-width="1.5" opacity="0.35"/>
  <polygon points="901.1,1490.0 869.7,1500.8 844.7,1479.0 851.1,1446.4 882.5,1435.6 907.5,1457.4" fill="none" stroke="url(#strokeB)" stroke-width="1.2" opacity="0.65"/>
  <polygon points="881.7,1478.4 864.5,1468.0 882.1,1458.3" fill="#22D3EE" opacity="0.22" filter="url(#softGlow)"/>
</g>


<g opacity="0.490" filter="url(#hardGlow)">
  <circle cx="913.8" cy="1514.0" r="22.1" fill="#0A1224" opacity="0.65"/>
  <circle cx="913.8" cy="1514.0" r="22.1" fill="none" stroke="url(#strokeA)" stroke-width="2.0" opacity="0.85"/>
  <circle cx="913.8" cy="1514.0" r="19.0" fill="none" stroke="#A855F7" stroke-width="1.5" opacity="0.35"/>
  <polygon points="909.3,1529.2 898.3,1517.7 902.9,1502.5 918.3,1498.7 929.3,1510.3 924.8,1525.5" fill="none" stroke="url(#strokeB)" stroke-width="1.2" opacity="0.65"/>
  <polygon points="910.5,1518.5 911.6,1508.9 919.3,1514.6" fill="#A855F7" opacity="0.22" filter="url(#softGlow)"/>
</g>


<g opacity="0.617" filter="url(#hardGlow)">
  <circle cx="803.6" cy="1453.7" r="25.0" fill="#0A1224" opacity="0.65"/>
  <circle cx="803.6" cy="1453.7" r="25.0" fill="none" stroke="url(#strokeA)" stroke-width="2.0" opacity="0.85"/>
  <circle cx="803.6" cy="1453.7" r="21.5" fill="none" stroke="#A855F7" stroke-width="1.5" opacity="0.35"/>
  <polygon points="804.9,1471.7 788.7,1463.8 787.4,1445.9 802.3,1435.7 818.5,1443.6 819.8,1461.6" fill="none" stroke="url(#strokeB)" stroke-width="1.2" opacity="0.65"/>
  <polygon points="801.9,1459.8 799.2,1449.2 809.7,1452.2" fill="#A855F7" opacity="0.22" filter="url(#softGlow)"/>
</g>


<g opacity="0.610" filter="url(#hardGlow)">
  <circle cx="805.6" cy="1512.3" r="21.3" fill="#0A1224" opacity="0.65"/>
  <circle cx="805.6" cy="1512.3" r="21.3" fill="none" stroke="url(#strokeA)" stroke-width="2.0" opacity="0.85"/>
  <circle cx="805.6" cy="1512.3" r="18.3" fill="none" stroke="#A855F7" stroke-width="1.5" opacity="0.35"/>
  <polygon points="818.3,1520.9 804.5,1527.6 791.8,1519.0 792.9,1503.7 806.7,1497.0 819.4,1505.6" fill="none" stroke="url(#strokeB)" stroke-width="1.2" opacity="0.65"/>
  
</g>


<g opacity="0.390" transform="translate(81.3,1549.3) rotate(-7.6)" filter="url(#softGlow)">
  <rect x="-82.9" y="-63.1" width="165.8" height="126.3" rx="12.6" fill="#050A12" opacity="0.25"/>
  <rect x="-82.9" y="-63.1" width="165.8" height="126.3" rx="12.6" fill="none" stroke="url(#strokeA)" stroke-width="6.3" opacity="0.85"/>
  <rect x="-72.8" y="-53.0" width="145.6" height="106.1" rx="8.8" fill="none" stroke="#F59E0B" stroke-width="2.5" opacity="0.35"/>
</g>


<g opacity="0.290" transform="translate(848.6,1506.1) rotate(9.3)" filter="url(#softGlow)">
  <rect x="-76.7" y="-53.3" width="153.5" height="106.5" rx="10.7" fill="#050A12" opacity="0.25"/>
  <rect x="-76.7" y="-53.3" width="153.5" height="106.5" rx="10.7" fill="none" stroke="url(#strokeA)" stroke-width="5.3" opacity="0.85"/>
  <rect x="-68.2" y="-44.7" width="136.4" height="89.5" rx="7.5" fill="none" stroke="#22D3EE" stroke-width="2.1" opacity="0.35"/>
</g>


<g opacity="0.329" transform="translate(780.6,778.7) rotate(-8.8)" filter="url(#softGlow)">
  <rect x="-89.5" y="-79.3" width="178.9" height="158.7" rx="15.9" fill="#050A12" opacity="0.25"/>
  <rect x="-89.5" y="-79.3" width="178.9" height="158.7" rx="15.9" fill="none" stroke="url(#strokeA)" stroke-width="7.9" opacity="0.85"/>
  <rect x="-76.8" y="-66.6" width="153.6" height="133.3" rx="11.1" fill="none" stroke="#F59E0B" stroke-width="3.2" opacity="0.35"/>
</g>


<g opacity="0.419" transform="translate(33.4,1556.6) rotate(-5.0)" filter="url(#softGlow)">
  <rect x="-82.6" y="-56.9" width="165.3" height="113.8" rx="11.4" fill="#050A12" opacity="0.25"/>
  <rect x="-82.6" y="-56.9" width="165.3" height="113.8" rx="11.4" fill="none" stroke="url(#strokeA)" stroke-width="5.7" opacity="0.85"/>
  <rect x="-73.5" y="-47.8" width="147.0" height="95.6" rx="8.0" fill="none" stroke="#F59E0B" stroke-width="2.3" opacity="0.35"/>
</g>


<g opacity="0.462" transform="translate(95.0,1550.4) rotate(-10.3)" filter="url(#softGlow)">
  <rect x="-39.1" y="-22.5" width="78.3" height="45.1" rx="13.8" fill="none" stroke="#A855F7" stroke-width="7.5" opacity="0.55"/>
  <rect x="-17.2" y="-11.3" width="78.3" height="45.1" rx="13.8" fill="none" stroke="url(#strokeA)" stroke-width="6.3" opacity="0.55"/>
</g>


<g opacity="0.479" transform="translate(0.9,1091.7) rotate(-11.5)" filter="url(#softGlow)">
  <rect x="-38.6" y="-22.3" width="77.3" height="44.5" rx="13.6" fill="none" stroke="#F59E0B" stroke-width="7.4" opacity="0.55"/>
  <rect x="-17.0" y="-11.1" width="77.3" height="44.5" rx="13.6" fill="none" stroke="url(#strokeA)" stroke-width="6.2" opacity="0.55"/>
</g>


<g opacity="0.417" transform="translate(64.9,1516.7) rotate(9.2)" filter="url(#softGlow)">
  <rect x="-39.7" y="-22.9" width="79.4" height="45.8" rx="14.0" fill="none" stroke="#F59E0B" stroke-width="7.6" opacity="0.55"/>
  <rect x="-17.5" y="-11.4" width="79.4" height="45.8" rx="14.0" fill="none" stroke="url(#strokeA)" stroke-width="6.4" opacity="0.55"/>
</g>


<g opacity="0.264" transform="translate(882.5,1596.1) rotate(13.5)" filter="url(#softGlow)">
  <rect x="-48.7" y="-28.1" width="97.4" height="56.1" rx="17.1" fill="none" stroke="#F59E0B" stroke-width="9.4" opacity="0.55"/>
  <rect x="-21.4" y="-14.0" width="97.4" height="56.1" rx="17.1" fill="none" stroke="url(#strokeA)" stroke-width="7.8" opacity="0.55"/>
</g>


<g opacity="0.394" transform="translate(115.1,84.2) rotate(5.2)" filter="url(#softGlow)">
  <rect x="-49.0" y="-28.2" width="97.9" height="56.4" rx="17.2" fill="none" stroke="#22D3EE" stroke-width="9.4" opacity="0.55"/>
  <rect x="-21.5" y="-14.1" width="97.9" height="56.4" rx="17.2" fill="none" stroke="url(#strokeA)" stroke-width="7.8" opacity="0.55"/>
</g>


<g opacity="0.223" transform="translate(105.8,16.5) rotate(4.3)" filter="url(#softGlow)">
  <rect x="-28.1" y="-16.2" width="56.3" height="32.4" rx="9.9" fill="none" stroke="#22D3EE" stroke-width="5.4" opacity="0.55"/>
  <rect x="-12.4" y="-8.1" width="56.3" height="32.4" rx="9.9" fill="none" stroke="url(#strokeA)" stroke-width="4.5" opacity="0.55"/>
</g>


<g opacity="0.334" transform="translate(754.0,1485.7) rotate(9.1)" filter="url(#softGlow)">
  <rect x="-38.2" y="-22.0" width="76.4" height="44.0" rx="13.4" fill="none" stroke="#A855F7" stroke-width="7.3" opacity="0.55"/>
  <rect x="-16.8" y="-11.0" width="76.4" height="44.0" rx="13.4" fill="none" stroke="url(#strokeA)" stroke-width="6.1" opacity="0.55"/>
</g>


<g opacity="0.281" transform="translate(153.4,23.9) rotate(1.2)" filter="url(#softGlow)">
  <rect x="-41.9" y="-24.2" width="83.9" height="48.3" rx="14.8" fill="none" stroke="#22D3EE" stroke-width="8.1" opacity="0.55"/>
  <rect x="-18.5" y="-12.1" width="83.9" height="48.3" rx="14.8" fill="none" stroke="url(#strokeA)" stroke-width="6.7" opacity="0.55"/>
</g>


<g opacity="0.152">
  <line x1="54.0" y1="1379.1" x2="54.0" y2="1480.7" stroke="#A855F7" stroke-width="1.88" opacity="0.45"/>
  <rect x="50.5" y="1433.8" width="6.9" height="53.2" rx="2.3" fill="#0B1020" opacity="0.55" stroke="url(#strokeA)" stroke-width="1.2"/>
</g>

<g opacity="0.152">
  <line x1="462.4" y1="1390.4" x2="462.4" y2="1477.9" stroke="#A855F7" stroke-width="1.36" opacity="0.45"/>
  <rect x="457.6" y="1433.1" width="9.5" height="54.5" rx="3.2" fill="#0B1020" opacity="0.55" stroke="url(#strokeA)" stroke-width="1.2"/>
</g>

<g opacity="0.152">
  <line x1="253.8" y1="1394.9" x2="253.8" y2="1476.7" stroke="#A855F7" stroke-width="1.89" opacity="0.45"/>
  <rect x="248.9" y="1443.6" width="9.8" height="33.6" rx="3.3" fill="#0B1020" opacity="0.55" stroke="url(#strokeA)" stroke-width="1.2"/>
</g>

<g opacity="0.152">
  <line x1="227.7" y1="1374.5" x2="227.7" y2="1481.8" stroke="#A855F7" stroke-width="1.38" opacity="0.45"/>
  <rect x="223.5" y="1437.4" width="8.2" height="46.0" rx="2.7" fill="#0B1020" opacity="0.55" stroke="url(#strokeA)" stroke-width="1.2"/>
</g>

<g opacity="0.152">
  <line x1="887.9" y1="1371.7" x2="887.9" y2="1482.5" stroke="#A855F7" stroke-width="1.44" opacity="0.45"/>
  <rect x="884.4" y="1434.5" width="7.1" height="51.8" rx="2.4" fill="#0B1020" opacity="0.55" stroke="url(#strokeA)" stroke-width="1.2"/>
</g>

<g opacity="0.152">
  <line x1="502.1" y1="1405.2" x2="502.1" y2="1474.2" stroke="#A855F7" stroke-width="1.60" opacity="0.45"/>
  <rect x="498.7" y="1446.2" width="6.7" height="28.3" rx="2.2" fill="#0B1020" opacity="0.55" stroke="url(#strokeA)" stroke-width="1.2"/>
</g>

<g opacity="0.152">
  <line x1="112.2" y1="1395.1" x2="112.2" y2="1476.7" stroke="#A855F7" stroke-width="1.22" opacity="0.45"/>
  <rect x="109.0" y="1442.2" width="6.4" height="36.4" rx="2.1" fill="#0B1020" opacity="0.55" stroke="url(#strokeA)" stroke-width="1.2"/>
</g>

<g opacity="0.152">
  <line x1="605.3" y1="1421.8" x2="605.3" y2="1470.0" stroke="#A855F7" stroke-width="1.40" opacity="0.45"/>
  <rect x="599.7" y="1447.6" width="11.1" height="25.5" rx="3.7" fill="#0B1020" opacity="0.55" stroke="url(#strokeA)" stroke-width="1.2"/>
</g>

<g opacity="0.152">
  <line x1="195.4" y1="1399.7" x2="195.4" y2="1475.5" stroke="#A855F7" stroke-width="1.38" opacity="0.45"/>
  <rect x="190.9" y="1445.7" width="8.9" height="29.4" rx="3.0" fill="#0B1020" opacity="0.55" stroke="url(#strokeA)" stroke-width="1.2"/>
</g>

<g opacity="0.152">
  <line x1="35.3" y1="1419.4" x2="35.3" y2="1470.6" stroke="#A855F7" stroke-width="1.73" opacity="0.45"/>
  <rect x="31.5" y="1445.1" width="7.6" height="30.6" rx="2.5" fill="#0B1020" opacity="0.55" stroke="url(#strokeA)" stroke-width="1.2"/>
</g>

<g opacity="0.152">
  <line x1="275.0" y1="1398.6" x2="275.0" y2="1475.8" stroke="#A855F7" stroke-width="1.43" opacity="0.45"/>
  <rect x="269.4" y="1445.6" width="11.2" height="29.5" rx="3.7" fill="#0B1020" opacity="0.55" stroke="url(#strokeA)" stroke-width="1.2"/>
</g>

<g opacity="0.152">
  <line x1="795.2" y1="1386.4" x2="795.2" y2="1478.9" stroke="#A855F7" stroke-width="1.27" opacity="0.45"/>
  <rect x="791.8" y="1439.0" width="6.7" height="42.8" rx="2.2" fill="#0B1020" opacity="0.55" stroke="url(#strokeA)" stroke-width="1.2"/>
</g>
<circle cx="784.8" cy="1531.9" r="2.5" fill="#22D3EE" opacity="0.26" filter="url(#softGlow)"/>
<circle cx="871.7" cy="47.6" r="1.8" fill="#22D3EE" opacity="0.21" filter="url(#softGlow)"/>
<circle cx="170.0" cy="1576.8" r="1.6" fill="#22D3EE" opacity="0.15" filter="url(#softGlow)"/>
<circle cx="823.8" cy="106.2" r="3.1" fill="#22D3EE" opacity="0.19" filter="url(#softGlow)"/>
<circle cx="851.8" cy="45.2" r="1.6" fill="#22D3EE" opacity="0.23" filter="url(#softGlow)"/>
<circle cx="804.9" cy="1482.9" r="1.9" fill="#22D3EE" opacity="0.18" filter="url(#softGlow)"/>
<circle cx="791.8" cy="120.2" r="1.8" fill="#22D3EE" opacity="0.21" filter="url(#softGlow)"/>
<circle cx="10.2" cy="506.7" r="3.2" fill="#22D3EE" opacity="0.23" filter="url(#softGlow)"/>
<circle cx="180.9" cy="1597.8" r="1.8" fill="#22D3EE" opacity="0.21" filter="url(#softGlow)"/>
<circle cx="139.7" cy="1480.3" r="1.5" fill="#22D3EE" opacity="0.13" filter="url(#softGlow)"/>
<circle cx="800.9" cy="18.3" r="2.6" fill="#22D3EE" opacity="0.20" filter="url(#softGlow)"/>
<circle cx="33.5" cy="61.0" r="1.7" fill="#22D3EE" opacity="0.17" filter="url(#softGlow)"/>
<circle cx="154.5" cy="1035.4" r="2.7" fill="#22D3EE" opacity="0.21" filter="url(#softGlow)"/>
<circle cx="748.7" cy="668.9" r="3.0" fill="#22D3EE" opacity="0.27" filter="url(#softGlow)"/>
<circle cx="95.4" cy="1540.7" r="2.1" fill="#22D3EE" opacity="0.18" filter="url(#softGlow)"/>
<circle cx="123.7" cy="1161.6" r="2.4" fill="#22D3EE" opacity="0.10" filter="url(#softGlow)"/>
<circle cx="751.3" cy="24.4" r="2.8" fill="#22D3EE" opacity="0.28" filter="url(#softGlow)"/>
<circle cx="238.0" cy="1487.2" r="2.1" fill="#22D3EE" opacity="0.24" filter="url(#softGlow)"/>
<circle cx="159.3" cy="1019.5" r="2.0" fill="#22D3EE" opacity="0.17" filter="url(#softGlow)"/>
<circle cx="91.7" cy="1523.9" r="3.0" fill="#22D3EE" opacity="0.24" filter="url(#softGlow)"/>
<circle cx="772.3" cy="32.1" r="2.8" fill="#22D3EE" opacity="0.18" filter="url(#softGlow)"/>
<circle cx="326.5" cy="1427.3" r="1.7" fill="#22D3EE" opacity="0.11" filter="url(#softGlow)"/>
<circle cx="129.7" cy="169.4" r="2.0" fill="#22D3EE" opacity="0.12" filter="url(#softGlow)"/>
<circle cx="61.1" cy="1590.0" r="3.2" fill="#22D3EE" opacity="0.11" filter="url(#softGlow)"/>
<circle cx="165.2" cy="1506.3" r="1.4" fill="#22D3EE" opacity="0.18" filter="url(#softGlow)"/>
<circle cx="471.7" cy="132.1" r="1.3" fill="#22D3EE" opacity="0.21" filter="url(#softGlow)"/>
<circle cx="79.0" cy="1269.7" r="3.2" fill="#22D3EE" opacity="0.17" filter="url(#softGlow)"/>
<circle cx="397.2" cy="1577.9" r="2.7" fill="#22D3EE" opacity="0.15" filter="url(#softGlow)"/>
</svg>