<svg xmlns="http://www.w3.org/2000/svg" width="900" height="1600" viewBox="0 0 900 1600" preserveAspectRatio="xMidYMid slice">
<defs>
  <linearGradient id="g0" x1="0" y1="0" x2="1" y2="1">
    <stop offset="0" stop-color="#0A0F1E"/>
    <stop offset="0.55" stop-color="#00FFA3" stop-opacity="0.9"/>
    <stop offset="1" stop-color="#050A12"/>
  </linearGradient>
  <radialGradient id="g1" cx="20%" cy="15%" r="70%">
    <stop offset="0" stop-color="#14C2FF" stop-opacity="0.38"/>
    <stop offset="0.6" stop-color="#14C2FF" stop-opacity="0.08"/>
    <stop offset="1" stop-color="#14C2FF" stop-opacity="0"/>
  </radialGradient>
  <radialGradient id="g2" cx="85%" cy="80%" r="75%">
    <stop offset="0" stop-color="#14C2FF" stop-opacity="0.28"/>
    <stop offset="0.65" stop-color="#14C2FF" stop-opacity="0.06"/>
    <stop offset="1" stop-color="#14C2FF" stop-opacity="0"/>
  </radialGradient>
  <filter id="softGlow" x="-30%" y="-30%" width="160%" height="160%">
    <feGaussianBlur stdDeviation="12" result="b"/>
    <feMerge>
      <feMergeNode in="b"/>
      <feMergeNode in="SourceGraphic"/>
    </feMerge>
  </filter>
  <filter id="hardGlow" x="-40%" y="-40%" width="180%" height="180%">
    <feGaussianBlur stdDeviation="6" result="b"/>
    <feColorMatrix in="b" type="matrix" values="1 0 0 0 0  0 1 0 0 0  0 0 1 0 0  0 0 0 18 -7" result="c"/>
    <feMerge>
      <feMergeNode in="c"/>
      <feMergeNode in="SourceGraphic"/>
    </feMerge>
  </filter>
  <linearGradient id="strokeA" x1="0" y1="0" x2="1" y2="0">
    <stop offset="0" stop-color="#14C2FF" stop-opacity="0.9"/>
    <stop offset="0.5" stop-color="#FFFFFF" stop-opacity="0.25"/>
    <stop offset="1" stop-color="#14C2FF" stop-opacity="0.7"/>
  </linearGradient>
  <linearGradient id="strokeB" x1="0" y1="0" x2="0" y2="1">
    <stop offset="0" stop-color="#FFFFFF" stop-opacity="0.18"/>
    <stop offset="1" stop-color="#14C2FF" stop-opacity="0.55"/>
  </linearGradient>
</defs>
<rect x="0" y="0" width="900" height="1600" fill="url(#g0)"/>
<rect x="0" y="0" width="900" height="1600" fill="url(#g1)"/>
<rect x="0" y="0" width="900" height="1600" fill="url(#g2)"/>


<defs>
  <radialGradient id="vign" cx="0.5000" cy="0.5000" r="0.85">
    <stop offset="0" stop-color="#000000" stop-opacity="0"/>
    <stop offset="0.55" stop-color="#000000" stop-opacity="0.217"/>
    <stop offset="1" stop-color="#000000" stop-opacity="0.620"/>
  </radialGradient>
</defs>
<rect x="0" y="0" width="900" height="1600" fill="url(#vign)"/>

<g opacity="0.265" filter="url(#softGlow)"><path d="M 87.2,1484.9 L 181.6,1484.9 L 181.6,1475.9 L 107.0,1475.9 L 107.0,1035.3 " fill="none" stroke="url(#strokeB)" stroke-width="1.60" stroke-linecap="round" stroke-linejoin="round"/><circle cx="107.0" cy="1475.9" r="3.2" fill="#FF4D8D" opacity="0.45"/><circle cx="107.0" cy="1035.3" r="3.4" fill="#FF4D8D" opacity="0.45"/><circle cx="87.2" cy="1484.9" r="4.1" fill="#FF4D8D" opacity="0.45"/></g>
<g opacity="0.265" filter="url(#softGlow)"><path d="M 97.4,1409.0 L 784.5,1409.0 L 784.5,1502.5 L 757.4,1502.5 L 757.4,1445.9 " fill="none" stroke="url(#strokeB)" stroke-width="1.86" stroke-linecap="round" stroke-linejoin="round"/><circle cx="757.4" cy="1502.5" r="3.5" fill="#FF4D8D" opacity="0.45"/><circle cx="784.5" cy="1409.0" r="3.7" fill="#FF4D8D" opacity="0.45"/><circle cx="784.5" cy="1502.5" r="3.6" fill="#FF4D8D" opacity="0.45"/></g>
<g opacity="0.265" filter="url(#softGlow)"><path d="M 899.2,1397.7 L 730.8,1397.7 L 730.8,1519.1 L 611.6,1519.1 L 611.6,1516.6 " fill="none" stroke="url(#strokeB)" stroke-width="1.68" stroke-linecap="round" stroke-linejoin="round"/><circle cx="611.6" cy="1516.6" r="2.1" fill="#FF4D8D" opacity="0.45"/><circle cx="730.8" cy="1519.1" r="3.8" fill="#FF4D8D" opacity="0.45"/><circle cx="730.8" cy="1397.7" r="2.6" fill="#FF4D8D" opacity="0.45"/></g>
<g opacity="0.265" filter="url(#softGlow)"><path d="M 65.0,1438.3 L 87.3,1438.3 L 87.3,1058.5 L 730.3,1058.5 L 730.3,1580.5 " fill="none" stroke="url(#strokeB)" stroke-width="1.58" stroke-linecap="round" stroke-linejoin="round"/><circle cx="730.3" cy="1058.5" r="2.1" fill="#FF4D8D" opacity="0.45"/><circle cx="730.3" cy="1580.5" r="2.2" fill="#FF4D8D" opacity="0.45"/><circle cx="87.3" cy="1058.5" r="2.5" fill="#FF4D8D" opacity="0.45"/></g>
<g opacity="0.265" filter="url(#softGlow)"><path d="M 859.4,1438.3 L 225.6,1438.3 L 225.6,1518.2 L 888.4,1518.2 L 888.4,891.0 " fill="none" stroke="url(#strokeB)" stroke-width="1.28" stroke-linecap="round" stroke-linejoin="round"/><circle cx="888.4" cy="1518.2" r="3.3" fill="#FF4D8D" opacity="0.45"/><circle cx="225.6" cy="1518.2" r="3.0" fill="#FF4D8D" opacity="0.45"/><circle cx="888.4" cy="891.0" r="3.9" fill="#FF4D8D" opacity="0.45"/></g>
<g opacity="0.265" filter="url(#softGlow)"><path d="M 144.6,882.4 L 663.5,882.4 L 663.5,1444.3 L 836.0,1444.3 L 836.0,133.8 " fill="none" stroke="url(#strokeB)" stroke-width="1.21" stroke-linecap="round" stroke-linejoin="round"/><circle cx="144.6" cy="882.4" r="3.9" fill="#FF4D8D" opacity="0.45"/><circle cx="663.5" cy="882.4" r="3.9" fill="#FF4D8D" opacity="0.45"/><circle cx="663.5" cy="1444.3" r="3.9" fill="#FF4D8D" opacity="0.45"/></g>
<g opacity="0.265" filter="url(#softGlow)"><path d="M 443.2,1508.6 L 803.6,1508.6 L 803.6,48.6 L 883.8,48.6 L 883.8,33.4 " fill="none" stroke="url(#strokeB)" stroke-width="1.73" stroke-linecap="round" stroke-linejoin="round"/><circle cx="803.6" cy="1508.6" r="2.9" fill="#FF4D8D" opacity="0.45"/><circle cx="803.6" cy="48.6" r="2.6" fill="#FF4D8D" opacity="0.45"/><circle cx="443.2" cy="1508.6" r="3.8" fill="#FF4D8D" opacity="0.45"/></g>
<g opacity="0.265" filter="url(#softGlow)"><path d="M 791.5,1474.4 L 758.3,1474.4 L 758.3,215.2 L 21.3,215.2 L 21.3,1589.2 " fill="none" stroke="url(#strokeB)" stroke-width="1.13" stroke-linecap="round" stroke-linejoin="round"/><circle cx="21.3" cy="215.2" r="3.5" fill="#FF4D8D" opacity="0.45"/><circle cx="791.5" cy="1474.4" r="3.0" fill="#FF4D8D" opacity="0.45"/><circle cx="758.3" cy="215.2" r="3.5" fill="#FF4D8D" opacity="0.45"/></g>
<g opacity="0.265" filter="url(#softGlow)"><path d="M 93.9,142.5 L 43.0,142.5 L 43.0,1554.6 L 68.7,1554.6 L 68.7,127.1 " fill="none" stroke="url(#strokeB)" stroke-width="1.69" stroke-linecap="round" stroke-linejoin="round"/><circle cx="43.0" cy="142.5" r="3.7" fill="#FF4D8D" opacity="0.45"/><circle cx="93.9" cy="142.5" r="2.4" fill="#FF4D8D" opacity="0.45"/><circle cx="68.7" cy="127.1" r="3.0" fill="#FF4D8D" opacity="0.45"/></g>
<g opacity="0.265" filter="url(#softGlow)"><path d="M 192.5,142.0 L 823.6,142.0 L 823.6,1518.2 L 862.7,1518.2 L 862.7,23.0 " fill="none" stroke="url(#strokeB)" stroke-width="1.54" stroke-linecap="round" stroke-linejoin="round"/><circle cx="823.6" cy="1518.2" r="2.0" fill="#FF4D8D" opacity="0.45"/><circle cx="192.5" cy="142.0" r="3.6" fill="#FF4D8D" opacity="0.45"/><circle cx="862.7" cy="23.0" r="3.0" fill="#FF4D8D" opacity="0.45"/></g>
<g opacity="0.265" filter="url(#softGlow)"><path d="M 766.7,1595.2 L 316.6,1595.2 L 316.6,1550.1 L 803.3,1550.1 L 803.3,1557.9 " fill="none" stroke="url(#strokeB)" stroke-width="1.26" stroke-linecap="round" stroke-linejoin="round"/><circle cx="766.7" cy="1595.2" r="3.0" fill="#FF4D8D" opacity="0.45"/><circle cx="803.3" cy="1557.9" r="2.3" fill="#FF4D8D" opacity="0.45"/><circle cx="316.6" cy="1595.2" r="2.2" fill="#FF4D8D" opacity="0.45"/></g>
<g opacity="0.265" filter="url(#softGlow)"><path d="M 150.4,37.5 L 549.4,37.5 L 549.4,86.7 L 83.3,86.7 L 83.3,1455.0 " fill="none" stroke="url(#strokeB)" stroke-width="1.94" stroke-linecap="round" stroke-linejoin="round"/><circle cx="549.4" cy="37.5" r="3.0" fill="#FF4D8D" opacity="0.45"/><circle cx="83.3" cy="1455.0" r="3.8" fill="#FF4D8D" opacity="0.45"/><circle cx="150.4" cy="37.5" r="2.5" fill="#FF4D8D" opacity="0.45"/></g>
<g opacity="0.265" filter="url(#softGlow)"><path d="M 830.9,1486.5 L 55.4,1486.5 L 55.4,1478.4 L 135.4,1478.4 L 135.4,1595.2 " fill="none" stroke="url(#strokeB)" stroke-width="1.98" stroke-linecap="round" stroke-linejoin="round"/><circle cx="55.4" cy="1486.5" r="2.5" fill="#FF4D8D" opacity="0.45"/><circle cx="55.4" cy="1478.4" r="4.1" fill="#FF4D8D" opacity="0.45"/><circle cx="135.4" cy="1595.2" r="3.6" fill="#FF4D8D" opacity="0.45"/></g>
<g opacity="0.265" filter="url(#softGlow)"><path d="M 15.3,1446.5 L 96.5,1446.5 L 96.5,1533.0 L 383.3,1533.0 L 383.3,58.8 " fill="none" stroke="url(#strokeB)" stroke-width="1.63" stroke-linecap="round" stroke-linejoin="round"/><circle cx="96.5" cy="1446.5" r="2.4" fill="#FF4D8D" opacity="0.45"/><circle cx="15.3" cy="1446.5" r="3.3" fill="#FF4D8D" opacity="0.45"/><circle cx="383.3" cy="1533.0" r="3.0" fill="#FF4D8D" opacity="0.45"/></g>
<g opacity="0.265" filter="url(#softGlow)"><path d="M 27.2,739.8 L 855.9,739.8 L 855.9,1082.7 L 633.4,1082.7 L 633.4,1507.3 " fill="none" stroke="url(#strokeB)" stroke-width="1.10" stroke-linecap="round" stroke-linejoin="round"/><circle cx="633.4" cy="1507.3" r="2.9" fill="#FF4D8D" opacity="0.45"/><circle cx="855.9" cy="739.8" r="3.8" fill="#FF4D8D" opacity="0.45"/><circle cx="855.9" cy="1082.7" r="3.5" fill="#FF4D8D" opacity="0.45"/></g>
<g opacity="0.265" filter="url(#softGlow)"><path d="M 899.2,1548.2 L 330.6,1548.2 L 330.6,1590.9 L 83.6,1590.9 L 83.6,65.5 " fill="none" stroke="url(#strokeB)" stroke-width="1.38" stroke-linecap="round" stroke-linejoin="round"/><circle cx="83.6" cy="1590.9" r="3.3" fill="#FF4D8D" opacity="0.45"/><circle cx="83.6" cy="65.5" r="3.2" fill="#FF4D8D" opacity="0.45"/><circle cx="899.2" cy="1548.2" r="2.7" fill="#FF4D8D" opacity="0.45"/></g>
<g opacity="0.265" filter="url(#softGlow)"><path d="M 850.1,57.5 L 740.3,57.5 L 740.3,162.5 L 563.8,162.5 L 563.8,18.6 " fill="none" stroke="url(#strokeB)" stroke-width="1.44" stroke-linecap="round" stroke-linejoin="round"/><circle cx="740.3" cy="57.5" r="2.5" fill="#FF4D8D" opacity="0.45"/><circle cx="563.8" cy="18.6" r="2.1" fill="#FF4D8D" opacity="0.45"/><circle cx="563.8" cy="162.5" r="3.0" fill="#FF4D8D" opacity="0.45"/></g>
<g opacity="0.265" filter="url(#softGlow)"><path d="M 758.1,173.9 L 81.7,173.9 L 81.7,1153.6 L 155.6,1153.6 L 155.6,1582.0 " fill="none" stroke="url(#strokeB)" stroke-width="1.74" stroke-linecap="round" stroke-linejoin="round"/><circle cx="758.1" cy="173.9" r="3.7" fill="#FF4D8D" opacity="0.45"/><circle cx="155.6" cy="1153.6" r="3.2" fill="#FF4D8D" opacity="0.45"/><circle cx="81.7" cy="1153.6" r="2.4" fill="#FF4D8D" opacity="0.45"/></g>

<g opacity="0.874" filter="url(#hardGlow)">
  <circle cx="136.7" cy="45.2" r="39.7" fill="#0A1224" opacity="0.65"/>
  <circle cx="136.7" cy="45.2" r="39.7" fill="none" stroke="url(#strokeA)" stroke-width="3.2" opacity="0.85"/>
  <circle cx="136.7" cy="45.2" r="34.1" fill="none" stroke="#14C2FF" stroke-width="1.5" opacity="0.35"/>
  <polygon points="113.3,28.8 139.2,16.8 162.6,33.2 160.1,61.7 134.1,73.7 110.8,57.3" fill="none" stroke="url(#strokeB)" stroke-width="1.2" opacity="0.65"/>
  <polygon points="131.0,37.0 146.7,44.4 132.4,54.3" fill="#14C2FF" opacity="0.22" filter="url(#softGlow)"/>
</g>


<g opacity="0.357" filter="url(#hardGlow)">
  <circle cx="156.8" cy="16.3" r="20.3" fill="#0A1224" opacity="0.65"/>
  <circle cx="156.8" cy="16.3" r="20.3" fill="none" stroke="url(#strokeA)" stroke-width="2.0" opacity="0.85"/>
  <circle cx="156.8" cy="16.3" r="17.5" fill="none" stroke="#FF4D8D" stroke-width="1.5" opacity="0.35"/>
  <polygon points="171.4,15.8 164.5,28.7 149.9,29.2 142.1,16.8 149.0,3.9 163.6,3.4" fill="none" stroke="url(#strokeB)" stroke-width="1.2" opacity="0.65"/>
  <polygon points="161.6,17.9 152.9,19.7 155.7,11.3" fill="#FF4D8D" opacity="0.22" filter="url(#softGlow)"/>
</g>


<g opacity="0.362" filter="url(#hardGlow)">
  <circle cx="151.2" cy="57.0" r="21.1" fill="#0A1224" opacity="0.65"/>
  <circle cx="151.2" cy="57.0" r="21.1" fill="none" stroke="url(#strokeA)" stroke-width="2.0" opacity="0.85"/>
  <circle cx="151.2" cy="57.0" r="18.2" fill="none" stroke="#FF4D8D" stroke-width="1.5" opacity="0.35"/>
  <polygon points="144.7,43.2 159.9,44.6 166.3,58.3 157.6,70.8 142.4,69.5 136.0,55.7" fill="none" stroke="url(#strokeB)" stroke-width="1.2" opacity="0.65"/>
  <polygon points="150.7,51.7 156.0,59.3 146.8,60.1" fill="#FF4D8D" opacity="0.22" filter="url(#softGlow)"/>
</g>


<g opacity="0.733" filter="url(#hardGlow)">
  <circle cx="849.9" cy="1528.7" r="53.0" fill="#0A1224" opacity="0.65"/>
  <circle cx="849.9" cy="1528.7" r="53.0" fill="none" stroke="url(#strokeA)" stroke-width="4.2" opacity="0.85"/>
  <circle cx="849.9" cy="1528.7" r="45.5" fill="none" stroke="#14C2FF" stroke-width="1.6" opacity="0.35"/>
  <polygon points="816.2,1546.5 817.6,1508.4 851.3,1490.6 883.6,1510.9 882.2,1549.0 848.4,1566.8" fill="none" stroke="url(#strokeB)" stroke-width="1.3" opacity="0.65"/>
  <polygon points="836.6,1530.5 854.9,1516.3 858.1,1539.2" fill="#14C2FF" opacity="0.22" filter="url(#softGlow)"/>
</g>


<g opacity="0.577" filter="url(#hardGlow)">
  <circle cx="787.8" cy="1495.8" r="27.3" fill="#0A1224" opacity="0.65"/>
  <circle cx="787.8" cy="1495.8" r="27.3" fill="none" stroke="url(#strokeA)" stroke-width="2.2" opacity="0.85"/>
  <circle cx="787.8" cy="1495.8" r="23.5" fill="none" stroke="#FF4D8D" stroke-width="1.5" opacity="0.35"/>
  <polygon points="773.5,1509.3 768.9,1490.2 783.1,1476.6 802.0,1482.2 806.6,1501.3 792.4,1514.9" fill="none" stroke="url(#strokeB)" stroke-width="1.2" opacity="0.65"/>
  
</g>


<g opacity="0.564" filter="url(#hardGlow)">
  <circle cx="934.5" cy="1547.7" r="23.2" fill="#0A1224" opacity="0.65"/>
  <circle cx="934.5" cy="1547.7" r="23.2" fill="none" stroke="url(#strokeA)" stroke-width="2.0" opacity="0.85"/>
  <circle cx="934.5" cy="1547.7" r="20.0" fill="none" stroke="#FF4D8D" stroke-width="1.5" opacity="0.35"/>
  <polygon points="920.8,1538.1 935.9,1531.0 949.7,1540.5 948.3,1557.2 933.1,1564.3 919.4,1554.8" fill="none" stroke="url(#strokeB)" stroke-width="1.2" opacity="0.65"/>
  
</g>


<g opacity="0.556" filter="url(#hardGlow)">
  <circle cx="808.7" cy="1550.9" r="26.1" fill="#0A1224" opacity="0.65"/>
  <circle cx="808.7" cy="1550.9" r="26.1" fill="none" stroke="url(#strokeA)" stroke-width="2.1" opacity="0.85"/>
  <circle cx="808.7" cy="1550.9" r="22.5" fill="none" stroke="#FF4D8D" stroke-width="1.5" opacity="0.35"/>
  <polygon points="790.8,1545.3 804.7,1532.6 822.6,1538.2 826.7,1556.6 812.8,1569.3 794.9,1563.6" fill="none" stroke="url(#strokeB)" stroke-width="1.2" opacity="0.65"/>
  <polygon points="803.5,1546.9 814.8,1548.4 807.9,1557.5" fill="#FF4D8D" opacity="0.22" filter="url(#softGlow)"/>
</g>


<g opacity="0.661" filter="url(#hardGlow)">
  <circle cx="28.5" cy="1594.8" r="34.2" fill="#0A1224" opacity="0.65"/>
  <circle cx="28.5" cy="1594.8" r="34.2" fill="none" stroke="url(#strokeA)" stroke-width="2.7" opacity="0.85"/>
  <circle cx="28.5" cy="1594.8" r="29.4" fill="none" stroke="#14C2FF" stroke-width="1.5" opacity="0.35"/>
  <polygon points="28.9,1619.4 7.4,1607.4 7.0,1582.8 28.2,1570.1 49.7,1582.1 50.1,1606.7" fill="none" stroke="url(#strokeB)" stroke-width="1.2" opacity="0.65"/>
  <polygon points="25.7,1602.9 22.9,1588.2 37.0,1593.1" fill="#14C2FF" opacity="0.22" filter="url(#softGlow)"/>
</g>


<g opacity="0.451" filter="url(#hardGlow)">
  <circle cx="3.2" cy="1563.0" r="14.2" fill="#0A1224" opacity="0.65"/>
  <circle cx="3.2" cy="1563.0" r="14.2" fill="none" stroke="url(#strokeA)" stroke-width="2.0" opacity="0.85"/>
  <circle cx="3.2" cy="1563.0" r="12.2" fill="none" stroke="#FF4D8D" stroke-width="1.5" opacity="0.35"/>
  <polygon points="13.1,1560.7 10.2,1570.5 0.3,1572.8 -6.7,1565.4 -3.8,1555.6 6.1,1553.3" fill="none" stroke="url(#strokeB)" stroke-width="1.2" opacity="0.65"/>
  
</g>


<g opacity="0.884" filter="url(#hardGlow)">
  <circle cx="871.6" cy="1530.0" r="44.6" fill="#0A1224" opacity="0.65"/>
  <circle cx="871.6" cy="1530.0" r="44.6" fill="none" stroke="url(#strokeA)" stroke-width="3.6" opacity="0.85"/>
  <circle cx="871.6" cy="1530.0" r="38.4" fill="none" stroke="#14C2FF" stroke-width="1.5" opacity="0.35"/>
  <polygon points="897.8,1548.6 868.7,1562.0 842.4,1543.5 845.4,1511.5 874.5,1498.0 900.8,1516.6" fill="none" stroke="url(#strokeB)" stroke-width="1.2" opacity="0.65"/>
  <polygon points="878.0,1539.3 860.4,1531.0 876.4,1519.9" fill="#14C2FF" opacity="0.22" filter="url(#softGlow)"/>
</g>


<g opacity="0.420" filter="url(#hardGlow)">
  <circle cx="851.9" cy="1564.3" r="22.9" fill="#0A1224" opacity="0.65"/>
  <circle cx="851.9" cy="1564.3" r="22.9" fill="none" stroke="url(#strokeA)" stroke-width="2.0" opacity="0.85"/>
  <circle cx="851.9" cy="1564.3" r="19.7" fill="none" stroke="#FF4D8D" stroke-width="1.5" opacity="0.35"/>
  <polygon points="859.6,1578.9 843.1,1578.3 835.4,1563.7 844.2,1549.7 860.7,1550.3 868.4,1564.9" fill="none" stroke="url(#strokeB)" stroke-width="1.2" opacity="0.65"/>
  <polygon points="852.7,1570.0 846.6,1562.1 856.5,1560.7" fill="#FF4D8D" opacity="0.22" filter="url(#softGlow)"/>
</g>


<g opacity="0.440" transform="translate(137.3,1554.0) rotate(-2.5)" filter="url(#softGlow)">
  <rect x="-70.5" y="-57.7" width="141.1" height="115.3" rx="11.5" fill="#050A12" opacity="0.25"/>
  <rect x="-70.5" y="-57.7" width="141.1" height="115.3" rx="11.5" fill="none" stroke="url(#strokeA)" stroke-width="5.8" opacity="0.85"/>
  <rect x="-61.3" y="-48.4" width="122.6" height="96.9" rx="8.1" fill="none" stroke="#14C2FF" stroke-width="2.3" opacity="0.35"/>
</g>


<g opacity="0.374" transform="translate(838.3,1507.1) rotate(4.9)" filter="url(#softGlow)">
  <rect x="-91.2" y="-86.5" width="182.4" height="172.9" rx="17.3" fill="#050A12" opacity="0.25"/>
  <rect x="-91.2" y="-86.5" width="182.4" height="172.9" rx="17.3" fill="none" stroke="url(#strokeA)" stroke-width="8.6" opacity="0.85"/>
  <rect x="-77.4" y="-72.6" width="154.8" height="145.3" rx="12.1" fill="none" stroke="#FF4D8D" stroke-width="3.5" opacity="0.35"/>
</g>


<g opacity="0.328" transform="translate(778.5,1517.5) rotate(-9.9)" filter="url(#softGlow)">
  <rect x="-93.0" y="-85.7" width="186.0" height="171.4" rx="17.1" fill="#050A12" opacity="0.25"/>
  <rect x="-93.0" y="-85.7" width="186.0" height="171.4" rx="17.1" fill="none" stroke="url(#strokeA)" stroke-width="8.6" opacity="0.85"/>
  <rect x="-79.3" y="-72.0" width="158.6" height="143.9" rx="12.0" fill="none" stroke="#14C2FF" stroke-width="3.4" opacity="0.35"/>
</g>


<g opacity="0.310" transform="translate(756.1,147.8) rotate(8.9)" filter="url(#softGlow)">
  <rect x="-81.2" y="-58.2" width="162.3" height="116.3" rx="11.6" fill="#050A12" opacity="0.25"/>
  <rect x="-81.2" y="-58.2" width="162.3" height="116.3" rx="11.6" fill="none" stroke="url(#strokeA)" stroke-width="5.8" opacity="0.85"/>
  <rect x="-71.9" y="-48.9" width="143.7" height="97.7" rx="8.1" fill="none" stroke="#14C2FF" stroke-width="2.3" opacity="0.35"/>
</g>


<g opacity="0.468" transform="translate(791.3,61.6) rotate(11.1)" filter="url(#softGlow)">
  <rect x="-34.0" y="-19.6" width="68.1" height="39.2" rx="12.0" fill="none" stroke="#FF4D8D" stroke-width="6.5" opacity="0.55"/>
  <rect x="-15.0" y="-9.8" width="68.1" height="39.2" rx="12.0" fill="none" stroke="url(#strokeA)" stroke-width="5.4" opacity="0.55"/>
</g>


<g opacity="0.245" transform="translate(192.4,31.1) rotate(10.4)" filter="url(#softGlow)">
  <rect x="-35.8" y="-20.6" width="71.5" height="41.2" rx="12.6" fill="none" stroke="#14C2FF" stroke-width="6.9" opacity="0.55"/>
  <rect x="-15.7" y="-10.3" width="71.5" height="41.2" rx="12.6" fill="none" stroke="url(#strokeA)" stroke-width="5.7" opacity="0.55"/>
</g>


<g opacity="0.376" transform="translate(520.8,1555.2) rotate(-8.1)" filter="url(#softGlow)">
  <rect x="-46.4" y="-26.7" width="92.7" height="53.4" rx="16.3" fill="none" stroke="#FF4D8D" stroke-width="8.9" opacity="0.55"/>
  <rect x="-20.4" y="-13.4" width="92.7" height="53.4" rx="16.3" fill="none" stroke="url(#strokeA)" stroke-width="7.4" opacity="0.55"/>
</g>


<g opacity="0.444" transform="translate(733.9,1556.7) rotate(-0.9)" filter="url(#softGlow)">
  <rect x="-33.7" y="-19.4" width="67.4" height="38.8" rx="11.9" fill="none" stroke="#FF4D8D" stroke-width="6.5" opacity="0.55"/>
  <rect x="-14.8" y="-9.7" width="67.4" height="38.8" rx="11.9" fill="none" stroke="url(#strokeA)" stroke-width="5.4" opacity="0.55"/>
</g>


<g opacity="0.326" transform="translate(815.9,126.3) rotate(13.4)" filter="url(#softGlow)">
  <rect x="-40.1" y="-23.1" width="80.3" height="46.2" rx="14.1" fill="none" stroke="#FF4D8D" stroke-width="7.7" opacity="0.55"/>
  <rect x="-17.7" y="-11.6" width="80.3" height="46.2" rx="14.1" fill="none" stroke="url(#strokeA)" stroke-width="6.4" opacity="0.55"/>
</g>


<g opacity="0.434" transform="translate(58.0,165.8) rotate(0.6)" filter="url(#softGlow)">
  <rect x="-32.1" y="-18.5" width="64.3" height="37.0" rx="11.3" fill="none" stroke="#FF4D8D" stroke-width="6.2" opacity="0.55"/>
  <rect x="-14.1" y="-9.3" width="64.3" height="37.0" rx="11.3" fill="none" stroke="url(#strokeA)" stroke-width="5.1" opacity="0.55"/>
</g>


<g opacity="0.232" transform="translate(76.1,206.4) rotate(17.3)" filter="url(#softGlow)">
  <rect x="-33.0" y="-19.0" width="66.0" height="38.0" rx="11.6" fill="none" stroke="#14C2FF" stroke-width="6.3" opacity="0.55"/>
  <rect x="-14.5" y="-9.5" width="66.0" height="38.0" rx="11.6" fill="none" stroke="url(#strokeA)" stroke-width="5.3" opacity="0.55"/>
</g>


<g opacity="0.451" transform="translate(899.9,11.8) rotate(13.0)" filter="url(#softGlow)">
  <rect x="-36.4" y="-20.9" width="72.7" height="41.9" rx="12.8" fill="none" stroke="#FF4D8D" stroke-width="7.0" opacity="0.55"/>
  <rect x="-16.0" y="-10.5" width="72.7" height="41.9" rx="12.8" fill="none" stroke="url(#strokeA)" stroke-width="5.8" opacity="0.55"/>
</g>


<g opacity="0.278" transform="translate(59.1,662.7) rotate(4.2)" filter="url(#softGlow)">
  <rect x="-34.5" y="-19.9" width="69.0" height="39.8" rx="12.1" fill="none" stroke="#14C2FF" stroke-width="6.6" opacity="0.55"/>
  <rect x="-15.2" y="-9.9" width="69.0" height="39.8" rx="12.1" fill="none" stroke="url(#strokeA)" stroke-width="5.5" opacity="0.55"/>
</g>


<g opacity="0.177">
  <line x1="857.6" y1="1441.1" x2="857.6" y2="1491.2" stroke="#FF4D8D" stroke-width="1.26" opacity="0.45"/>
  <rect x="853.7" y="1471.2" width="7.9" height="20.0" rx="2.6" fill="#0B1020" opacity="0.55" stroke="url(#strokeA)" stroke-width="1.2"/>
</g>

<g opacity="0.177">
  <line x1="328.6" y1="1419.3" x2="328.6" y2="1496.6" stroke="#FF4D8D" stroke-width="1.01" opacity="0.45"/>
  <rect x="323.2" y="1467.0" width="10.7" height="28.3" rx="3.6" fill="#0B1020" opacity="0.55" stroke="url(#strokeA)" stroke-width="1.2"/>
</g>

<g opacity="0.177">
  <line x1="779.7" y1="1405.0" x2="779.7" y2="1500.2" stroke="#FF4D8D" stroke-width="1.12" opacity="0.45"/>
  <rect x="776.5" y="1455.7" width="6.4" height="51.0" rx="2.1" fill="#0B1020" opacity="0.55" stroke="url(#strokeA)" stroke-width="1.2"/>
</g>

<g opacity="0.177">
  <line x1="673.0" y1="1398.1" x2="673.0" y2="1501.9" stroke="#FF4D8D" stroke-width="1.00" opacity="0.45"/>
  <rect x="667.6" y="1451.4" width="10.9" height="59.5" rx="3.6" fill="#0B1020" opacity="0.55" stroke="url(#strokeA)" stroke-width="1.2"/>
</g>

<g opacity="0.177">
  <line x1="858.2" y1="1391.2" x2="858.2" y2="1503.7" stroke="#FF4D8D" stroke-width="1.75" opacity="0.45"/>
  <rect x="854.5" y="1455.7" width="7.3" height="50.9" rx="2.4" fill="#0B1020" opacity="0.55" stroke="url(#strokeA)" stroke-width="1.2"/>
</g>

<g opacity="0.177">
  <line x1="706.6" y1="1404.2" x2="706.6" y2="1500.4" stroke="#FF4D8D" stroke-width="1.51" opacity="0.45"/>
  <rect x="702.5" y="1457.5" width="8.1" height="47.3" rx="2.7" fill="#0B1020" opacity="0.55" stroke="url(#strokeA)" stroke-width="1.2"/>
</g>

<g opacity="0.177">
  <line x1="345.3" y1="1421.1" x2="345.3" y2="1496.2" stroke="#FF4D8D" stroke-width="1.52" opacity="0.45"/>
  <rect x="339.6" y="1470.4" width="11.5" height="21.4" rx="3.8" fill="#0B1020" opacity="0.55" stroke="url(#strokeA)" stroke-width="1.2"/>
</g>

<g opacity="0.177">
  <line x1="46.6" y1="1402.8" x2="46.6" y2="1500.8" stroke="#FF4D8D" stroke-width="1.57" opacity="0.45"/>
  <rect x="41.8" y="1457.0" width="9.5" height="48.3" rx="3.2" fill="#0B1020" opacity="0.55" stroke="url(#strokeA)" stroke-width="1.2"/>
</g>

<g opacity="0.177">
  <line x1="763.6" y1="1419.2" x2="763.6" y2="1496.7" stroke="#FF4D8D" stroke-width="1.27" opacity="0.45"/>
  <rect x="759.6" y="1463.1" width="8.1" height="36.2" rx="2.7" fill="#0B1020" opacity="0.55" stroke="url(#strokeA)" stroke-width="1.2"/>
</g>

<g opacity="0.177">
  <line x1="384.5" y1="1445.8" x2="384.5" y2="1490.0" stroke="#FF4D8D" stroke-width="2.07" opacity="0.45"/>
  <rect x="379.2" y="1471.2" width="10.6" height="20.0" rx="3.5" fill="#0B1020" opacity="0.55" stroke="url(#strokeA)" stroke-width="1.2"/>
</g>
<circle cx="839.2" cy="1433.8" r="2.3" fill="#14C2FF" opacity="0.27" filter="url(#softGlow)"/>
<circle cx="59.3" cy="61.9" r="3.1" fill="#14C2FF" opacity="0.27" filter="url(#softGlow)"/>
<circle cx="94.5" cy="1501.5" r="3.1" fill="#14C2FF" opacity="0.25" filter="url(#softGlow)"/>
<circle cx="858.7" cy="1459.1" r="2.3" fill="#14C2FF" opacity="0.21" filter="url(#softGlow)"/>
<circle cx="92.6" cy="1584.9" r="2.3" fill="#14C2FF" opacity="0.14" filter="url(#softGlow)"/>
<circle cx="438.8" cy="1476.3" r="2.3" fill="#14C2FF" opacity="0.23" filter="url(#softGlow)"/>
<circle cx="199.8" cy="125.7" r="2.5" fill="#14C2FF" opacity="0.16" filter="url(#softGlow)"/>
<circle cx="36.4" cy="150.7" r="3.2" fill="#14C2FF" opacity="0.16" filter="url(#softGlow)"/>
<circle cx="787.0" cy="1547.9" r="2.5" fill="#14C2FF" opacity="0.26" filter="url(#softGlow)"/>
<circle cx="756.4" cy="179.8" r="2.5" fill="#14C2FF" opacity="0.26" filter="url(#softGlow)"/>
<circle cx="789.5" cy="70.5" r="3.0" fill="#14C2FF" opacity="0.17" filter="url(#softGlow)"/>
<circle cx="82.0" cy="491.5" r="3.1" fill="#14C2FF" opacity="0.16" filter="url(#softGlow)"/>
<circle cx="128.6" cy="103.5" r="3.1" fill="#14C2FF" opacity="0.19" filter="url(#softGlow)"/>
<circle cx="750.0" cy="156.0" r="1.4" fill="#14C2FF" opacity="0.18" filter="url(#softGlow)"/>
<circle cx="741.9" cy="1026.3" r="2.9" fill="#14C2FF" opacity="0.25" filter="url(#softGlow)"/>
<circle cx="821.5" cy="1222.2" r="2.7" fill="#14C2FF" opacity="0.10" filter="url(#softGlow)"/>
<circle cx="892.5" cy="1575.5" r="1.6" fill="#14C2FF" opacity="0.19" filter="url(#softGlow)"/>
<circle cx="779.8" cy="34.2" r="2.4" fill="#14C2FF" opacity="0.26" filter="url(#softGlow)"/>
<circle cx="876.1" cy="874.7" r="2.1" fill="#14C2FF" opacity="0.27" filter="url(#softGlow)"/>
<circle cx="95.9" cy="817.1" r="3.0" fill="#14C2FF" opacity="0.17" filter="url(#softGlow)"/>
<circle cx="74.4" cy="1505.8" r="2.7" fill="#14C2FF" opacity="0.27" filter="url(#softGlow)"/>
<circle cx="751.8" cy="1455.5" r="1.5" fill="#14C2FF" opacity="0.20" filter="url(#softGlow)"/>
<circle cx="732.7" cy="81.7" r="3.2" fill="#14C2FF" opacity="0.14" filter="url(#softGlow)"/>
<circle cx="844.6" cy="61.9" r="2.6" fill="#14C2FF" opacity="0.21" filter="url(#softGlow)"/>
</svg>