<svg xmlns="http://www.w3.org/2000/svg" width="900" height="1600" viewBox="0 0 900 1600" preserveAspectRatio="xMidYMid slice">
<defs>
  <linearGradient id="g0" x1="0" y1="0" x2="1" y2="1">
    <stop offset="0" stop-color="#0B1020"/>
    <stop offset="0.55" stop-color="#2DD4BF" stop-opacity="0.9"/>
    <stop offset="1" stop-color="#020617"/>
  </linearGradient>
  <radialGradient id="g1" cx="20%" cy="15%" r="70%">
    <stop offset="0" stop-color="#60A5FA" stop-opacity="0.38"/>
    <stop offset="0.6" stop-color="#60A5FA" stop-opacity="0.08"/>
    <stop offset="1" stop-color="#60A5FA" stop-opacity="0"/>
  </radialGradient>
  <radialGradient id="g2" cx="85%" cy="80%" r="75%">
    <stop offset="0" stop-color="#60A5FA" stop-opacity="0.28"/>
    <stop offset="0.65" stop-color="#60A5FA" stop-opacity="0.06"/>
    <stop offset="1" stop-color="#60A5FA" stop-opacity="0"/>
  </radialGradient>
  <filter id="softGlow" x="-30%" y="-30%" width="160%" height="160%">
    <feGaussianBlur stdDeviation="12" result="b"/>
    <feMerge>
      <feMergeNode in="b"/>
      <feMergeNode in="SourceGraphic"/>
    </feMerge>
  </filter>
  <filter id="hardGlow" x="-40%" y="-40%" width="180%" height="180%">
    <feGaussianBlur stdDeviation="6" result="b"/>
    <feColorMatrix in="b" type="matrix" values="1 0 0 0 0  0 1 0 0 0  0 0 1 0 0  0 0 0 18 -7" result="c"/>
    <feMerge>
      <feMergeNode in="c"/>
      <feMergeNode in="SourceGraphic"/>
    </feMerge>
  </filter>
  <linearGradient id="strokeA" x1="0" y1="0" x2="1" y2="0">
    <stop offset="0" stop-color="#60A5FA" stop-opacity="0.9"/>
    <stop offset="0.5" stop-color="#FFFFFF" stop-opacity="0.25"/>
    <stop offset="1" stop-color="#60A5FA" stop-opacity="0.7"/>
  </linearGradient>
  <linearGradient id="strokeB" x1="0" y1="0" x2="0" y2="1">
    <stop offset="0" stop-color="#FFFFFF" stop-opacity="0.18"/>
    <stop offset="1" stop-color="#60A5FA" stop-opacity="0.55"/>
  </linearGradient>
</defs>
<rect x="0" y="0" width="900" height="1600" fill="url(#g0)"/>
<rect x="0" y="0" width="900" height="1600" fill="url(#g1)"/>
<rect x="0" y="0" width="900" height="1600" fill="url(#g2)"/>


<defs>
  <radialGradient id="vign" cx="0.5000" cy="0.5000" r="0.85">
    <stop offset="0" stop-color="#000000" stop-opacity="0"/>
    <stop offset="0.55" stop-color="#000000" stop-opacity="0.217"/>
    <stop offset="1" stop-color="#000000" stop-opacity="0.620"/>
  </radialGradient>
</defs>
<rect x="0" y="0" width="900" height="1600" fill="url(#vign)"/>

<g opacity="0.220" filter="url(#softGlow)"><path d="M 863.0,1423.7 L 39.8,1423.7 L 39.8,1441.1 L 599.5,1441.1 L 599.5,1559.3 " fill="none" stroke="url(#strokeB)" stroke-width="1.48" stroke-linecap="round" stroke-linejoin="round"/><circle cx="39.8" cy="1423.7" r="4.2" fill="#F472B6" opacity="0.45"/><circle cx="863.0" cy="1423.7" r="2.6" fill="#F472B6" opacity="0.45"/><circle cx="599.5" cy="1559.3" r="2.6" fill="#F472B6" opacity="0.45"/></g>
<g opacity="0.220" filter="url(#softGlow)"><path d="M 19.4,687.7 L 875.3,687.7 L 875.3,41.8 L 130.6,41.8 L 130.6,1508.0 " fill="none" stroke="url(#strokeB)" stroke-width="1.11" stroke-linecap="round" stroke-linejoin="round"/><circle cx="130.6" cy="1508.0" r="2.6" fill="#F472B6" opacity="0.45"/><circle cx="19.4" cy="687.7" r="3.9" fill="#F472B6" opacity="0.45"/><circle cx="130.6" cy="41.8" r="3.3" fill="#F472B6" opacity="0.45"/></g>
<g opacity="0.220" filter="url(#softGlow)"><path d="M 139.0,2.2 L 755.7,2.2 L 755.7,1503.2 L 753.2,1503.2 L 753.2,1543.1 " fill="none" stroke="url(#strokeB)" stroke-width="1.95" stroke-linecap="round" stroke-linejoin="round"/><circle cx="753.2" cy="1503.2" r="2.5" fill="#F472B6" opacity="0.45"/><circle cx="139.0" cy="2.2" r="3.7" fill="#F472B6" opacity="0.45"/><circle cx="753.2" cy="1543.1" r="4.0" fill="#F472B6" opacity="0.45"/></g>
<g opacity="0.220" filter="url(#softGlow)"><path d="M 247.1,103.1 L 62.4,103.1 L 62.4,11.4 L 114.2,11.4 L 114.2,272.9 " fill="none" stroke="url(#strokeB)" stroke-width="1.57" stroke-linecap="round" stroke-linejoin="round"/><circle cx="62.4" cy="11.4" r="4.2" fill="#F472B6" opacity="0.45"/><circle cx="114.2" cy="272.9" r="4.1" fill="#F472B6" opacity="0.45"/><circle cx="114.2" cy="11.4" r="2.3" fill="#F472B6" opacity="0.45"/></g>
<g opacity="0.220" filter="url(#softGlow)"><path d="M 132.7,164.3 L 245.4,164.3 L 245.4,1543.0 L 893.9,1543.0 L 893.9,980.8 " fill="none" stroke="url(#strokeB)" stroke-width="1.18" stroke-linecap="round" stroke-linejoin="round"/><circle cx="893.9" cy="980.8" r="2.1" fill="#F472B6" opacity="0.45"/><circle cx="132.7" cy="164.3" r="2.2" fill="#F472B6" opacity="0.45"/><circle cx="245.4" cy="1543.0" r="2.3" fill="#F472B6" opacity="0.45"/></g>
<g opacity="0.220" filter="url(#softGlow)"><path d="M 92.4,136.3 L 235.4,136.3 L 235.4,14.9 L 762.5,14.9 L 762.5,1456.0 " fill="none" stroke="url(#strokeB)" stroke-width="2.07" stroke-linecap="round" stroke-linejoin="round"/><circle cx="235.4" cy="14.9" r="2.1" fill="#F472B6" opacity="0.45"/><circle cx="235.4" cy="136.3" r="3.8" fill="#F472B6" opacity="0.45"/><circle cx="762.5" cy="1456.0" r="3.9" fill="#F472B6" opacity="0.45"/></g>
<g opacity="0.220" filter="url(#softGlow)"><path d="M 377.4,1584.2 L 155.3,1584.2 L 155.3,1563.3 L 45.3,1563.3 L 45.3,1451.7 " fill="none" stroke="url(#strokeB)" stroke-width="1.73" stroke-linecap="round" stroke-linejoin="round"/><circle cx="155.3" cy="1563.3" r="3.4" fill="#F472B6" opacity="0.45"/><circle cx="377.4" cy="1584.2" r="4.0" fill="#F472B6" opacity="0.45"/><circle cx="45.3" cy="1563.3" r="3.0" fill="#F472B6" opacity="0.45"/></g>
<g opacity="0.220" filter="url(#softGlow)"><path d="M 118.7,146.7 L 71.7,146.7 L 71.7,1535.9 L 769.8,1535.9 L 769.8,1461.4 " fill="none" stroke="url(#strokeB)" stroke-width="1.32" stroke-linecap="round" stroke-linejoin="round"/><circle cx="769.8" cy="1535.9" r="3.1" fill="#F472B6" opacity="0.45"/><circle cx="118.7" cy="146.7" r="3.3" fill="#F472B6" opacity="0.45"/><circle cx="71.7" cy="1535.9" r="2.4" fill="#F472B6" opacity="0.45"/></g>
<g opacity="0.220" filter="url(#softGlow)"><path d="M 726.8,83.1 L 95.3,83.1 L 95.3,867.7 L 532.9,867.7 L 532.9,10.7 " fill="none" stroke="url(#strokeB)" stroke-width="1.82" stroke-linecap="round" stroke-linejoin="round"/><circle cx="726.8" cy="83.1" r="3.6" fill="#F472B6" opacity="0.45"/><circle cx="532.9" cy="867.7" r="3.6" fill="#F472B6" opacity="0.45"/><circle cx="532.9" cy="10.7" r="2.9" fill="#F472B6" opacity="0.45"/></g>
<g opacity="0.220" filter="url(#softGlow)"><path d="M 143.0,64.7 L 331.4,64.7 L 331.4,1580.0 L 164.5,1580.0 L 164.5,1478.3 " fill="none" stroke="url(#strokeB)" stroke-width="1.65" stroke-linecap="round" stroke-linejoin="round"/><circle cx="164.5" cy="1478.3" r="4.0" fill="#F472B6" opacity="0.45"/><circle cx="164.5" cy="1580.0" r="3.5" fill="#F472B6" opacity="0.45"/><circle cx="331.4" cy="64.7" r="3.2" fill="#F472B6" opacity="0.45"/></g>
<g opacity="0.220" filter="url(#softGlow)"><path d="M 791.5,1437.2 L 883.5,1437.2 L 883.5,68.0 L 172.8,68.0 L 172.8,1448.7 " fill="none" stroke="url(#strokeB)" stroke-width="1.11" stroke-linecap="round" stroke-linejoin="round"/><circle cx="791.5" cy="1437.2" r="4.2" fill="#F472B6" opacity="0.45"/><circle cx="883.5" cy="1437.2" r="3.0" fill="#F472B6" opacity="0.45"/><circle cx="172.8" cy="68.0" r="3.2" fill="#F472B6" opacity="0.45"/></g>
<g opacity="0.220" filter="url(#softGlow)"><path d="M 810.9,1589.3 L 805.3,1589.3 L 805.3,81.4 L 141.6,81.4 L 141.6,206.4 " fill="none" stroke="url(#strokeB)" stroke-width="1.15" stroke-linecap="round" stroke-linejoin="round"/><circle cx="805.3" cy="1589.3" r="3.9" fill="#F472B6" opacity="0.45"/><circle cx="810.9" cy="1589.3" r="2.1" fill="#F472B6" opacity="0.45"/><circle cx="805.3" cy="81.4" r="3.2" fill="#F472B6" opacity="0.45"/></g>
<g opacity="0.220" filter="url(#softGlow)"><path d="M 753.7,40.2 L 27.0,40.2 L 27.0,1578.8 L 171.0,1578.8 L 171.0,1453.6 " fill="none" stroke="url(#strokeB)" stroke-width="2.18" stroke-linecap="round" stroke-linejoin="round"/><circle cx="753.7" cy="40.2" r="2.9" fill="#F472B6" opacity="0.45"/><circle cx="171.0" cy="1453.6" r="2.3" fill="#F472B6" opacity="0.45"/><circle cx="27.0" cy="40.2" r="4.0" fill="#F472B6" opacity="0.45"/></g>
<g opacity="0.220" filter="url(#softGlow)"><path d="M 542.8,104.2 L 814.7,104.2 L 814.7,68.9 L 312.9,68.9 L 312.9,105.7 " fill="none" stroke="url(#strokeB)" stroke-width="1.65" stroke-linecap="round" stroke-linejoin="round"/><circle cx="542.8" cy="104.2" r="2.5" fill="#F472B6" opacity="0.45"/><circle cx="312.9" cy="105.7" r="3.4" fill="#F472B6" opacity="0.45"/><circle cx="312.9" cy="68.9" r="3.0" fill="#F472B6" opacity="0.45"/></g>
<g opacity="0.220" filter="url(#softGlow)"><path d="M 100.4,1520.3 L 41.7,1520.3 L 41.7,1587.6 L 105.7,1587.6 L 105.7,607.0 " fill="none" stroke="url(#strokeB)" stroke-width="1.49" stroke-linecap="round" stroke-linejoin="round"/><circle cx="41.7" cy="1587.6" r="4.2" fill="#F472B6" opacity="0.45"/><circle cx="105.7" cy="607.0" r="2.8" fill="#F472B6" opacity="0.45"/><circle cx="105.7" cy="1587.6" r="3.7" fill="#F472B6" opacity="0.45"/></g>
<g opacity="0.220" filter="url(#softGlow)"><path d="M 762.0,145.6 L 773.0,145.6 L 773.0,98.5 L 760.2,98.5 L 760.2,434.0 " fill="none" stroke="url(#strokeB)" stroke-width="1.48" stroke-linecap="round" stroke-linejoin="round"/><circle cx="760.2" cy="98.5" r="3.5" fill="#F472B6" opacity="0.45"/><circle cx="773.0" cy="145.6" r="2.8" fill="#F472B6" opacity="0.45"/><circle cx="760.2" cy="434.0" r="2.2" fill="#F472B6" opacity="0.45"/></g>
<g opacity="0.220" filter="url(#softGlow)"><path d="M 46.5,1543.5 L 751.7,1543.5 L 751.7,1481.2 L 859.0,1481.2 L 859.0,128.4 " fill="none" stroke="url(#strokeB)" stroke-width="2.01" stroke-linecap="round" stroke-linejoin="round"/><circle cx="751.7" cy="1481.2" r="3.0" fill="#F472B6" opacity="0.45"/><circle cx="46.5" cy="1543.5" r="4.1" fill="#F472B6" opacity="0.45"/><circle cx="859.0" cy="1481.2" r="3.5" fill="#F472B6" opacity="0.45"/></g>

<g opacity="0.791" filter="url(#hardGlow)">
  <circle cx="758.3" cy="1514.6" r="48.6" fill="#0A1224" opacity="0.65"/>
  <circle cx="758.3" cy="1514.6" r="48.6" fill="none" stroke="url(#strokeA)" stroke-width="3.9" opacity="0.85"/>
  <circle cx="758.3" cy="1514.6" r="41.8" fill="none" stroke="#60A5FA" stroke-width="1.5" opacity="0.35"/>
  <polygon points="781.3,1540.9 747.0,1547.7 724.0,1521.3 735.3,1488.3 769.6,1481.5 792.6,1507.8" fill="none" stroke="url(#strokeB)" stroke-width="1.2" opacity="0.65"/>
  <polygon points="762.7,1526.0 746.2,1512.7 765.9,1505.0" fill="#60A5FA" opacity="0.22" filter="url(#softGlow)"/>
</g>


<g opacity="0.572" filter="url(#hardGlow)">
  <circle cx="697.0" cy="1568.0" r="24.9" fill="#0A1224" opacity="0.65"/>
  <circle cx="697.0" cy="1568.0" r="24.9" fill="none" stroke="url(#strokeA)" stroke-width="2.0" opacity="0.85"/>
  <circle cx="697.0" cy="1568.0" r="21.4" fill="none" stroke="#F472B6" stroke-width="1.5" opacity="0.35"/>
  <polygon points="708.2,1554.0 714.7,1570.8 703.5,1584.7 685.7,1582.0 679.3,1565.2 690.5,1551.3" fill="none" stroke="url(#strokeB)" stroke-width="1.2" opacity="0.65"/>
  
</g>


<g opacity="0.886" filter="url(#hardGlow)">
  <circle cx="813.9" cy="139.0" r="37.5" fill="#0A1224" opacity="0.65"/>
  <circle cx="813.9" cy="139.0" r="37.5" fill="none" stroke="url(#strokeA)" stroke-width="3.0" opacity="0.85"/>
  <circle cx="813.9" cy="139.0" r="32.3" fill="none" stroke="#60A5FA" stroke-width="1.5" opacity="0.35"/>
  <polygon points="829.0,116.6 840.9,140.8 825.8,163.3 798.9,161.5 786.9,137.2 802.0,114.8" fill="none" stroke="url(#strokeB)" stroke-width="1.2" opacity="0.65"/>
  <polygon points="821.5,133.4 814.9,148.4 805.3,135.2" fill="#60A5FA" opacity="0.22" filter="url(#softGlow)"/>
</g>


<g opacity="0.390" filter="url(#hardGlow)">
  <circle cx="789.6" cy="173.3" r="20.0" fill="#0A1224" opacity="0.65"/>
  <circle cx="789.6" cy="173.3" r="20.0" fill="none" stroke="url(#strokeA)" stroke-width="2.0" opacity="0.85"/>
  <circle cx="789.6" cy="173.3" r="17.2" fill="none" stroke="#F472B6" stroke-width="1.5" opacity="0.35"/>
  <polygon points="790.0,187.7 777.3,180.8 776.9,166.4 789.2,158.9 801.9,165.8 802.2,180.2" fill="none" stroke="url(#strokeB)" stroke-width="1.2" opacity="0.65"/>
  <polygon points="788.0,178.1 786.3,169.5 794.5,172.3" fill="#F472B6" opacity="0.22" filter="url(#softGlow)"/>
</g>


<g opacity="0.553" filter="url(#hardGlow)">
  <circle cx="839.7" cy="120.1" r="19.9" fill="#0A1224" opacity="0.65"/>
  <circle cx="839.7" cy="120.1" r="19.9" fill="none" stroke="url(#strokeA)" stroke-width="2.0" opacity="0.85"/>
  <circle cx="839.7" cy="120.1" r="17.2" fill="none" stroke="#F472B6" stroke-width="1.5" opacity="0.35"/>
  <polygon points="853.7,123.3 844.0,133.8 830.0,130.6 825.8,116.9 835.5,106.4 849.5,109.6" fill="none" stroke="url(#strokeB)" stroke-width="1.2" opacity="0.65"/>
  <polygon points="844.0,122.8 835.3,122.4 840.0,115.1" fill="#F472B6" opacity="0.22" filter="url(#softGlow)"/>
</g>


<g opacity="0.809" filter="url(#hardGlow)">
  <circle cx="821.5" cy="62.0" r="39.2" fill="#0A1224" opacity="0.65"/>
  <circle cx="821.5" cy="62.0" r="39.2" fill="none" stroke="url(#strokeA)" stroke-width="3.1" opacity="0.85"/>
  <circle cx="821.5" cy="62.0" r="33.8" fill="none" stroke="#60A5FA" stroke-width="1.5" opacity="0.35"/>
  <polygon points="802.0,41.6 829.4,34.8 849.0,55.2 841.1,82.4 813.7,89.1 794.1,68.7" fill="none" stroke="url(#strokeB)" stroke-width="1.2" opacity="0.65"/>
  <polygon points="817.5,52.9 831.4,63.0 815.7,70.0" fill="#60A5FA" opacity="0.22" filter="url(#softGlow)"/>
</g>


<g opacity="0.576" filter="url(#hardGlow)">
  <circle cx="760.1" cy="21.4" r="15.5" fill="#0A1224" opacity="0.65"/>
  <circle cx="760.1" cy="21.4" r="15.5" fill="none" stroke="url(#strokeA)" stroke-width="2.0" opacity="0.85"/>
  <circle cx="760.1" cy="21.4" r="13.4" fill="none" stroke="#F472B6" stroke-width="1.5" opacity="0.35"/>
  <polygon points="771.0,19.2 767.4,29.8 756.5,32.0 749.1,23.6 752.7,13.0 763.6,10.8" fill="none" stroke="url(#strokeB)" stroke-width="1.2" opacity="0.65"/>
  <polygon points="763.9,22.0 757.6,24.5 758.6,17.8" fill="#F472B6" opacity="0.22" filter="url(#softGlow)"/>
</g>


<g opacity="0.906" filter="url(#hardGlow)">
  <circle cx="72.1" cy="15.4" r="57.6" fill="#0A1224" opacity="0.65"/>
  <circle cx="72.1" cy="15.4" r="57.6" fill="none" stroke="url(#strokeA)" stroke-width="4.6" opacity="0.85"/>
  <circle cx="72.1" cy="15.4" r="49.6" fill="none" stroke="#60A5FA" stroke-width="1.7" opacity="0.35"/>
  <polygon points="42.8,-13.9 82.9,-24.6 112.2,4.8 101.4,44.8 61.3,55.5 32.0,26.1" fill="none" stroke="url(#strokeB)" stroke-width="1.4" opacity="0.65"/>
  <polygon points="66.0,2.3 86.6,16.7 63.7,27.3" fill="#60A5FA" opacity="0.22" filter="url(#softGlow)"/>
</g>


<g opacity="0.570" filter="url(#hardGlow)">
  <circle cx="123.3" cy="30.5" r="29.2" fill="#0A1224" opacity="0.65"/>
  <circle cx="123.3" cy="30.5" r="29.2" fill="none" stroke="url(#strokeA)" stroke-width="2.3" opacity="0.85"/>
  <circle cx="123.3" cy="30.5" r="25.1" fill="none" stroke="#F472B6" stroke-width="1.5" opacity="0.35"/>
  <polygon points="143.6,25.2 138.0,45.4 117.6,50.7 102.9,35.7 108.5,15.5 128.9,10.2" fill="none" stroke="url(#strokeB)" stroke-width="1.2" opacity="0.65"/>
  
</g>


<g opacity="0.403" filter="url(#hardGlow)">
  <circle cx="156.1" cy="17.7" r="20.5" fill="#0A1224" opacity="0.65"/>
  <circle cx="156.1" cy="17.7" r="20.5" fill="none" stroke="url(#strokeA)" stroke-width="2.0" opacity="0.85"/>
  <circle cx="156.1" cy="17.7" r="17.6" fill="none" stroke="#F472B6" stroke-width="1.5" opacity="0.35"/>
  <polygon points="156.8,32.4 143.7,25.6 143.0,10.9 155.4,2.9 168.5,9.7 169.2,24.4" fill="none" stroke="url(#strokeB)" stroke-width="1.2" opacity="0.65"/>
  <polygon points="154.6,22.6 152.6,13.9 161.2,16.5" fill="#F472B6" opacity="0.22" filter="url(#softGlow)"/>
</g>


<g opacity="0.708" filter="url(#hardGlow)">
  <circle cx="32.7" cy="1554.5" r="48.8" fill="#0A1224" opacity="0.65"/>
  <circle cx="32.7" cy="1554.5" r="48.8" fill="none" stroke="url(#strokeA)" stroke-width="3.9" opacity="0.85"/>
  <circle cx="32.7" cy="1554.5" r="41.9" fill="none" stroke="#60A5FA" stroke-width="1.5" opacity="0.35"/>
  <polygon points="1.6,1538.4 31.1,1519.5 62.3,1535.6 63.9,1570.6 34.4,1589.6 3.2,1573.5" fill="none" stroke="url(#strokeB)" stroke-width="1.2" opacity="0.65"/>
  <polygon points="24.4,1545.5 44.7,1551.8 29.1,1566.3" fill="#60A5FA" opacity="0.22" filter="url(#softGlow)"/>
</g>


<g opacity="0.495" filter="url(#hardGlow)">
  <circle cx="59.2" cy="1586.4" r="24.8" fill="#0A1224" opacity="0.65"/>
  <circle cx="59.2" cy="1586.4" r="24.8" fill="none" stroke="url(#strokeA)" stroke-width="2.0" opacity="0.85"/>
  <circle cx="59.2" cy="1586.4" r="21.3" fill="none" stroke="#F472B6" stroke-width="1.5" opacity="0.35"/>
  <polygon points="74.9,1594.8 59.7,1604.2 44.0,1595.8 43.4,1577.9 58.6,1568.5 74.3,1577.0" fill="none" stroke="url(#strokeB)" stroke-width="1.2" opacity="0.65"/>
  <polygon points="63.3,1591.0 53.0,1587.6 61.1,1580.4" fill="#F472B6" opacity="0.22" filter="url(#softGlow)"/>
</g>


<g opacity="0.517" filter="url(#hardGlow)">
  <circle cx="-39.4" cy="1586.6" r="25.5" fill="#0A1224" opacity="0.65"/>
  <circle cx="-39.4" cy="1586.6" r="25.5" fill="none" stroke="url(#strokeA)" stroke-width="2.0" opacity="0.85"/>
  <circle cx="-39.4" cy="1586.6" r="22.0" fill="none" stroke="#F472B6" stroke-width="1.5" opacity="0.35"/>
  <polygon points="-27.9,1601.0 -46.1,1603.8 -57.6,1589.4 -51.0,1572.3 -32.8,1569.5 -21.3,1583.8" fill="none" stroke="url(#strokeB)" stroke-width="1.2" opacity="0.65"/>
  
</g>


<g opacity="0.677" filter="url(#hardGlow)">
  <circle cx="27.9" cy="606.4" r="52.2" fill="#0A1224" opacity="0.65"/>
  <circle cx="27.9" cy="606.4" r="52.2" fill="none" stroke="url(#strokeA)" stroke-width="4.2" opacity="0.85"/>
  <circle cx="27.9" cy="606.4" r="44.9" fill="none" stroke="#60A5FA" stroke-width="1.6" opacity="0.35"/>
  <polygon points="-8.2,596.1 18.8,569.9 55.0,580.3 64.1,616.8 37.1,642.9 0.9,632.6" fill="none" stroke="url(#strokeB)" stroke-width="1.3" opacity="0.65"/>
  <polygon points="17.3,598.7 40.0,601.1 26.6,619.5" fill="#60A5FA" opacity="0.22" filter="url(#softGlow)"/>
</g>


<g opacity="0.382" filter="url(#hardGlow)">
  <circle cx="55.6" cy="563.7" r="21.7" fill="#0A1224" opacity="0.65"/>
  <circle cx="55.6" cy="563.7" r="21.7" fill="none" stroke="url(#strokeA)" stroke-width="2.0" opacity="0.85"/>
  <circle cx="55.6" cy="563.7" r="18.7" fill="none" stroke="#F472B6" stroke-width="1.5" opacity="0.35"/>
  <polygon points="49.5,549.3 65.0,551.3 71.0,565.7 61.6,578.1 46.1,576.1 40.1,561.7" fill="none" stroke="url(#strokeB)" stroke-width="1.2" opacity="0.65"/>
  
</g>


<g opacity="0.410" filter="url(#hardGlow)">
  <circle cx="90.9" cy="590.5" r="27.2" fill="#0A1224" opacity="0.65"/>
  <circle cx="90.9" cy="590.5" r="27.2" fill="none" stroke="url(#strokeA)" stroke-width="2.2" opacity="0.85"/>
  <circle cx="90.9" cy="590.5" r="23.4" fill="none" stroke="#F472B6" stroke-width="1.5" opacity="0.35"/>
  <polygon points="78.7,605.8 71.5,587.6 83.7,572.3 103.1,575.2 110.3,593.4 98.1,608.7" fill="none" stroke="url(#strokeB)" stroke-width="1.2" opacity="0.65"/>
  <polygon points="85.1,594.1 90.7,583.6 96.9,593.8" fill="#F472B6" opacity="0.22" filter="url(#softGlow)"/>
</g>


<g opacity="0.423" filter="url(#hardGlow)">
  <circle cx="71.1" cy="586.3" r="28.1" fill="#0A1224" opacity="0.65"/>
  <circle cx="71.1" cy="586.3" r="28.1" fill="none" stroke="url(#strokeA)" stroke-width="2.2" opacity="0.85"/>
  <circle cx="71.1" cy="586.3" r="24.1" fill="none" stroke="#F472B6" stroke-width="1.5" opacity="0.35"/>
  <polygon points="71.4,606.5 53.8,596.6 53.5,576.4 70.9,566.1 88.5,576.0 88.7,596.2" fill="none" stroke="url(#strokeB)" stroke-width="1.2" opacity="0.65"/>
  
</g>


<g opacity="0.789" filter="url(#hardGlow)">
  <circle cx="778.9" cy="92.4" r="31.6" fill="#0A1224" opacity="0.65"/>
  <circle cx="778.9" cy="92.4" r="31.6" fill="none" stroke="url(#strokeA)" stroke-width="2.5" opacity="0.85"/>
  <circle cx="778.9" cy="92.4" r="27.2" fill="none" stroke="#60A5FA" stroke-width="1.5" opacity="0.35"/>
  <polygon points="800.1,100.8 782.2,114.9 761.1,106.5 757.7,84.0 775.6,69.9 796.8,78.2" fill="none" stroke="url(#strokeB)" stroke-width="1.2" opacity="0.65"/>
  <polygon points="784.9,97.7 771.4,94.9 780.5,84.6" fill="#60A5FA" opacity="0.22" filter="url(#softGlow)"/>
</g>


<g opacity="0.584" filter="url(#hardGlow)">
  <circle cx="799.5" cy="100.7" r="12.4" fill="#0A1224" opacity="0.65"/>
  <circle cx="799.5" cy="100.7" r="12.4" fill="none" stroke="url(#strokeA)" stroke-width="2.0" opacity="0.85"/>
  <circle cx="799.5" cy="100.7" r="10.7" fill="none" stroke="#F472B6" stroke-width="1.5" opacity="0.35"/>
  <polygon points="806.1,94.6 808.0,103.4 801.4,109.4 792.9,106.7 791.0,97.9 797.6,91.9" fill="none" stroke="url(#strokeB)" stroke-width="1.2" opacity="0.65"/>
  <polygon points="802.4,99.5 799.1,103.8 797.0,98.8" fill="#F472B6" opacity="0.22" filter="url(#softGlow)"/>
</g>


<g opacity="0.363" filter="url(#hardGlow)">
  <circle cx="759.6" cy="93.8" r="12.3" fill="#0A1224" opacity="0.65"/>
  <circle cx="759.6" cy="93.8" r="12.3" fill="none" stroke="url(#strokeA)" stroke-width="2.0" opacity="0.85"/>
  <circle cx="759.6" cy="93.8" r="10.6" fill="none" stroke="#F472B6" stroke-width="1.5" opacity="0.35"/>
  <polygon points="768.5,93.2 764.6,101.2 755.8,101.8 750.8,94.5 754.7,86.5 763.5,85.9" fill="none" stroke="url(#strokeB)" stroke-width="1.2" opacity="0.65"/>
  <polygon points="762.6,94.7 757.4,96.0 758.9,90.8" fill="#F472B6" opacity="0.22" filter="url(#softGlow)"/>
</g>


<g opacity="0.551" filter="url(#hardGlow)">
  <circle cx="757.1" cy="105.9" r="11.4" fill="#0A1224" opacity="0.65"/>
  <circle cx="757.1" cy="105.9" r="11.4" fill="none" stroke="url(#strokeA)" stroke-width="2.0" opacity="0.85"/>
  <circle cx="757.1" cy="105.9" r="9.8" fill="none" stroke="#F472B6" stroke-width="1.5" opacity="0.35"/>
  <polygon points="765.1,104.0 762.8,111.9 754.8,113.8 749.1,107.9 751.4,100.0 759.4,98.0" fill="none" stroke="url(#strokeB)" stroke-width="1.2" opacity="0.65"/>
  
</g>


<g opacity="0.313" transform="translate(823.4,11.0) rotate(-3.9)" filter="url(#softGlow)">
  <rect x="-98.2" y="-69.0" width="196.3" height="137.9" rx="13.8" fill="#050A12" opacity="0.25"/>
  <rect x="-98.2" y="-69.0" width="196.3" height="137.9" rx="13.8" fill="none" stroke="url(#strokeA)" stroke-width="6.9" opacity="0.85"/>
  <rect x="-87.1" y="-57.9" width="174.3" height="115.8" rx="9.7" fill="none" stroke="#F472B6" stroke-width="2.8" opacity="0.35"/>
</g>


<g opacity="0.393" transform="translate(132.2,112.4) rotate(0.8)" filter="url(#softGlow)">
  <rect x="-93.8" y="-71.1" width="187.5" height="142.2" rx="14.2" fill="#050A12" opacity="0.25"/>
  <rect x="-93.8" y="-71.1" width="187.5" height="142.2" rx="14.2" fill="none" stroke="url(#strokeA)" stroke-width="7.1" opacity="0.85"/>
  <rect x="-82.4" y="-59.7" width="164.8" height="119.4" rx="10.0" fill="none" stroke="#60A5FA" stroke-width="2.8" opacity="0.35"/>
</g>


<g opacity="0.405" transform="translate(882.9,840.1) rotate(2.6)" filter="url(#softGlow)">
  <rect x="-82.4" y="-74.6" width="164.7" height="149.2" rx="14.9" fill="#050A12" opacity="0.25"/>
  <rect x="-82.4" y="-74.6" width="164.7" height="149.2" rx="14.9" fill="none" stroke="url(#strokeA)" stroke-width="7.5" opacity="0.85"/>
  <rect x="-70.4" y="-62.7" width="140.8" height="125.3" rx="10.4" fill="none" stroke="#F472B6" stroke-width="3.0" opacity="0.35"/>
</g>


<g opacity="0.273" transform="translate(497.2,1542.5) rotate(7.9)" filter="url(#softGlow)">
  <rect x="-81.7" y="-64.5" width="163.4" height="129.0" rx="12.9" fill="#050A12" opacity="0.25"/>
  <rect x="-81.7" y="-64.5" width="163.4" height="129.0" rx="12.9" fill="none" stroke="url(#strokeA)" stroke-width="6.5" opacity="0.85"/>
  <rect x="-71.4" y="-54.2" width="142.8" height="108.4" rx="9.0" fill="none" stroke="#F472B6" stroke-width="2.6" opacity="0.35"/>
</g>


<g opacity="0.289" transform="translate(857.9,1496.9) rotate(-3.8)" filter="url(#softGlow)">
  <rect x="-41.3" y="-23.8" width="82.6" height="47.6" rx="14.5" fill="none" stroke="#F472B6" stroke-width="7.9" opacity="0.55"/>
  <rect x="-18.2" y="-11.9" width="82.6" height="47.6" rx="14.5" fill="none" stroke="url(#strokeA)" stroke-width="6.6" opacity="0.55"/>
</g>


<g opacity="0.230" transform="translate(683.1,1434.9) rotate(-4.6)" filter="url(#softGlow)">
  <rect x="-45.7" y="-26.3" width="91.4" height="52.7" rx="16.1" fill="none" stroke="#F472B6" stroke-width="8.8" opacity="0.55"/>
  <rect x="-20.1" y="-13.2" width="91.4" height="52.7" rx="16.1" fill="none" stroke="url(#strokeA)" stroke-width="7.3" opacity="0.55"/>
</g>


<g opacity="0.304" transform="translate(727.2,1483.0) rotate(-0.0)" filter="url(#softGlow)">
  <rect x="-28.7" y="-16.5" width="57.4" height="33.1" rx="10.1" fill="none" stroke="#F472B6" stroke-width="5.5" opacity="0.55"/>
  <rect x="-12.6" y="-8.3" width="57.4" height="33.1" rx="10.1" fill="none" stroke="url(#strokeA)" stroke-width="4.6" opacity="0.55"/>
</g>


<g opacity="0.460" transform="translate(872.9,62.4) rotate(-4.7)" filter="url(#softGlow)">
  <rect x="-31.9" y="-18.4" width="63.8" height="36.8" rx="11.2" fill="none" stroke="#60A5FA" stroke-width="6.1" opacity="0.55"/>
  <rect x="-14.0" y="-9.2" width="63.8" height="36.8" rx="11.2" fill="none" stroke="url(#strokeA)" stroke-width="5.1" opacity="0.55"/>
</g>


<g opacity="0.229" transform="translate(721.0,27.0) rotate(9.9)" filter="url(#softGlow)">
  <rect x="-50.3" y="-29.0" width="100.6" height="57.9" rx="17.7" fill="none" stroke="#60A5FA" stroke-width="9.7" opacity="0.55"/>
  <rect x="-22.1" y="-14.5" width="100.6" height="57.9" rx="17.7" fill="none" stroke="url(#strokeA)" stroke-width="8.0" opacity="0.55"/>
</g>


<g opacity="0.368" transform="translate(204.5,125.9) rotate(7.1)" filter="url(#softGlow)">
  <rect x="-48.3" y="-27.8" width="96.5" height="55.6" rx="17.0" fill="none" stroke="#F472B6" stroke-width="9.3" opacity="0.55"/>
  <rect x="-21.2" y="-13.9" width="96.5" height="55.6" rx="17.0" fill="none" stroke="url(#strokeA)" stroke-width="7.7" opacity="0.55"/>
</g>


<g opacity="0.313" transform="translate(764.2,123.0) rotate(4.1)" filter="url(#softGlow)">
  <rect x="-36.2" y="-20.9" width="72.5" height="41.7" rx="12.8" fill="none" stroke="#F472B6" stroke-width="7.0" opacity="0.55"/>
  <rect x="-15.9" y="-10.4" width="72.5" height="41.7" rx="12.8" fill="none" stroke="url(#strokeA)" stroke-width="5.8" opacity="0.55"/>
</g>


<g opacity="0.467" transform="translate(103.3,1509.4) rotate(15.0)" filter="url(#softGlow)">
  <rect x="-44.8" y="-25.8" width="89.6" height="51.6" rx="15.8" fill="none" stroke="#60A5FA" stroke-width="8.6" opacity="0.55"/>
  <rect x="-19.7" y="-12.9" width="89.6" height="51.6" rx="15.8" fill="none" stroke="url(#strokeA)" stroke-width="7.2" opacity="0.55"/>
</g>


<g opacity="0.460" transform="translate(130.5,52.6) rotate(-3.4)" filter="url(#softGlow)">
  <rect x="-44.7" y="-25.7" width="89.4" height="51.5" rx="15.7" fill="none" stroke="#60A5FA" stroke-width="8.6" opacity="0.55"/>
  <rect x="-19.7" y="-12.9" width="89.4" height="51.5" rx="15.7" fill="none" stroke="url(#strokeA)" stroke-width="7.1" opacity="0.55"/>
</g>


<g opacity="0.255" transform="translate(59.9,1586.9) rotate(7.3)" filter="url(#softGlow)">
  <rect x="-49.2" y="-28.3" width="98.4" height="56.7" rx="17.3" fill="none" stroke="#60A5FA" stroke-width="9.4" opacity="0.55"/>
  <rect x="-21.7" y="-14.2" width="98.4" height="56.7" rx="17.3" fill="none" stroke="url(#strokeA)" stroke-width="7.9" opacity="0.55"/>
</g>


<g opacity="0.170">
  <line x1="864.6" y1="1409.9" x2="864.6" y2="1522.4" stroke="#F472B6" stroke-width="1.94" opacity="0.45"/>
  <rect x="861.4" y="1470.1" width="6.3" height="59.5" rx="2.1" fill="#0B1020" opacity="0.55" stroke="url(#strokeA)" stroke-width="1.2"/>
</g>

<g opacity="0.170">
  <line x1="602.2" y1="1443.8" x2="602.2" y2="1513.9" stroke="#F472B6" stroke-width="2.10" opacity="0.45"/>
  <rect x="598.3" y="1489.1" width="7.8" height="21.6" rx="2.6" fill="#0B1020" opacity="0.55" stroke="url(#strokeA)" stroke-width="1.2"/>
</g>

<g opacity="0.170">
  <line x1="899.1" y1="1418.5" x2="899.1" y2="1520.2" stroke="#F472B6" stroke-width="1.86" opacity="0.45"/>
  <rect x="896.0" y="1474.3" width="6.1" height="51.1" rx="2.0" fill="#0B1020" opacity="0.55" stroke="url(#strokeA)" stroke-width="1.2"/>
</g>

<g opacity="0.170">
  <line x1="625.9" y1="1425.0" x2="625.9" y2="1518.6" stroke="#F472B6" stroke-width="1.70" opacity="0.45"/>
  <rect x="621.5" y="1477.2" width="8.8" height="45.3" rx="2.9" fill="#0B1020" opacity="0.55" stroke="url(#strokeA)" stroke-width="1.2"/>
</g>

<g opacity="0.170">
  <line x1="778.9" y1="1419.4" x2="778.9" y2="1520.0" stroke="#F472B6" stroke-width="1.76" opacity="0.45"/>
  <rect x="774.6" y="1479.3" width="8.5" height="41.1" rx="2.8" fill="#0B1020" opacity="0.55" stroke="url(#strokeA)" stroke-width="1.2"/>
</g>

<g opacity="0.170">
  <line x1="250.8" y1="1439.1" x2="250.8" y2="1515.1" stroke="#F472B6" stroke-width="1.65" opacity="0.45"/>
  <rect x="245.7" y="1478.6" width="10.3" height="42.6" rx="3.4" fill="#0B1020" opacity="0.55" stroke="url(#strokeA)" stroke-width="1.2"/>
</g>

<g opacity="0.170">
  <line x1="532.1" y1="1429.8" x2="532.1" y2="1517.4" stroke="#F472B6" stroke-width="1.71" opacity="0.45"/>
  <rect x="526.2" y="1478.6" width="12.0" height="42.5" rx="4.0" fill="#0B1020" opacity="0.55" stroke="url(#strokeA)" stroke-width="1.2"/>
</g>

<g opacity="0.170">
  <line x1="331.1" y1="1421.4" x2="331.1" y2="1519.5" stroke="#F472B6" stroke-width="1.54" opacity="0.45"/>
  <rect x="327.9" y="1478.8" width="6.4" height="42.1" rx="2.1" fill="#0B1020" opacity="0.55" stroke="url(#strokeA)" stroke-width="1.2"/>
</g>

<g opacity="0.170">
  <line x1="836.6" y1="1419.5" x2="836.6" y2="1520.0" stroke="#F472B6" stroke-width="1.62" opacity="0.45"/>
  <rect x="831.0" y="1478.8" width="11.4" height="42.2" rx="3.8" fill="#0B1020" opacity="0.55" stroke="url(#strokeA)" stroke-width="1.2"/>
</g>

<g opacity="0.170">
  <line x1="616.5" y1="1461.9" x2="616.5" y2="1509.4" stroke="#F472B6" stroke-width="1.56" opacity="0.45"/>
  <rect x="610.5" y="1486.1" width="12.0" height="27.6" rx="4.0" fill="#0B1020" opacity="0.55" stroke="url(#strokeA)" stroke-width="1.2"/>
</g>

<g opacity="0.170">
  <line x1="402.3" y1="1460.4" x2="402.3" y2="1509.8" stroke="#F472B6" stroke-width="1.62" opacity="0.45"/>
  <rect x="398.8" y="1490.1" width="7.0" height="19.5" rx="2.3" fill="#0B1020" opacity="0.55" stroke="url(#strokeA)" stroke-width="1.2"/>
</g>

<g opacity="0.170">
  <line x1="194.0" y1="1435.9" x2="194.0" y2="1515.9" stroke="#F472B6" stroke-width="1.29" opacity="0.45"/>
  <rect x="188.1" y="1474.5" width="11.7" height="50.7" rx="3.9" fill="#0B1020" opacity="0.55" stroke="url(#strokeA)" stroke-width="1.2"/>
</g>
<circle cx="76.1" cy="1230.8" r="1.7" fill="#60A5FA" opacity="0.20" filter="url(#softGlow)"/>
<circle cx="775.3" cy="1500.4" r="1.6" fill="#60A5FA" opacity="0.26" filter="url(#softGlow)"/>
<circle cx="136.1" cy="140.5" r="2.1" fill="#60A5FA" opacity="0.20" filter="url(#softGlow)"/>
<circle cx="35.6" cy="1440.2" r="2.2" fill="#60A5FA" opacity="0.10" filter="url(#softGlow)"/>
<circle cx="22.1" cy="18.7" r="3.1" fill="#60A5FA" opacity="0.20" filter="url(#softGlow)"/>
<circle cx="812.6" cy="156.0" r="1.9" fill="#60A5FA" opacity="0.13" filter="url(#softGlow)"/>
<circle cx="94.7" cy="588.7" r="2.4" fill="#60A5FA" opacity="0.22" filter="url(#softGlow)"/>
<circle cx="754.7" cy="620.3" r="2.1" fill="#60A5FA" opacity="0.18" filter="url(#softGlow)"/>
<circle cx="204.2" cy="37.9" r="2.8" fill="#60A5FA" opacity="0.12" filter="url(#softGlow)"/>
<circle cx="73.0" cy="1483.0" r="1.8" fill="#60A5FA" opacity="0.11" filter="url(#softGlow)"/>
<circle cx="434.7" cy="164.5" r="2.7" fill="#60A5FA" opacity="0.25" filter="url(#softGlow)"/>
<circle cx="846.0" cy="1436.2" r="2.6" fill="#60A5FA" opacity="0.18" filter="url(#softGlow)"/>
<circle cx="786.2" cy="1454.5" r="2.9" fill="#60A5FA" opacity="0.15" filter="url(#softGlow)"/>
<circle cx="618.1" cy="1448.4" r="1.9" fill="#60A5FA" opacity="0.27" filter="url(#softGlow)"/>
<circle cx="146.5" cy="1569.2" r="2.8" fill="#60A5FA" opacity="0.13" filter="url(#softGlow)"/>
<circle cx="866.9" cy="172.5" r="2.3" fill="#60A5FA" opacity="0.26" filter="url(#softGlow)"/>
<circle cx="43.9" cy="1554.3" r="2.6" fill="#60A5FA" opacity="0.20" filter="url(#softGlow)"/>
<circle cx="199.7" cy="77.7" r="1.7" fill="#60A5FA" opacity="0.23" filter="url(#softGlow)"/>
<circle cx="167.7" cy="140.8" r="2.9" fill="#60A5FA" opacity="0.19" filter="url(#softGlow)"/>
<circle cx="580.1" cy="1438.6" r="1.6" fill="#60A5FA" opacity="0.16" filter="url(#softGlow)"/>
<circle cx="782.6" cy="1575.2" r="3.2" fill="#60A5FA" opacity="0.19" filter="url(#softGlow)"/>
</svg>