<svg xmlns="http://www.w3.org/2000/svg" width="900" height="1600" viewBox="0 0 900 1600" preserveAspectRatio="xMidYMid slice">
<defs>
  <linearGradient id="g0" x1="0" y1="0" x2="1" y2="1">
    <stop offset="0" stop-color="#0B1020"/>
    <stop offset="0.55" stop-color="#E11D48" stop-opacity="0.9"/>
    <stop offset="1" stop-color="#020617"/>
  </linearGradient>
  <radialGradient id="g1" cx="20%" cy="15%" r="70%">
    <stop offset="0" stop-color="#7C3AED" stop-opacity="0.38"/>
    <stop offset="0.6" stop-color="#7C3AED" stop-opacity="0.08"/>
    <stop offset="1" stop-color="#7C3AED" stop-opacity="0"/>
  </radialGradient>
  <radialGradient id="g2" cx="85%" cy="80%" r="75%">
    <stop offset="0" stop-color="#7C3AED" stop-opacity="0.28"/>
    <stop offset="0.65" stop-color="#7C3AED" stop-opacity="0.06"/>
    <stop offset="1" stop-color="#7C3AED" stop-opacity="0"/>
  </radialGradient>
  <filter id="softGlow" x="-30%" y="-30%" width="160%" height="160%">
    <feGaussianBlur stdDeviation="12" result="b"/>
    <feMerge>
      <feMergeNode in="b"/>
      <feMergeNode in="SourceGraphic"/>
    </feMerge>
  </filter>
  <filter id="hardGlow" x="-40%" y="-40%" width="180%" height="180%">
    <feGaussianBlur stdDeviation="6" result="b"/>
    <feColorMatrix in="b" type="matrix" values="1 0 0 0 0  0 1 0 0 0  0 0 1 0 0  0 0 0 18 -7" result="c"/>
    <feMerge>
      <feMergeNode in="c"/>
      <feMergeNode in="SourceGraphic"/>
    </feMerge>
  </filter>
  <linearGradient id="strokeA" x1="0" y1="0" x2="1" y2="0">
    <stop offset="0" stop-color="#7C3AED" stop-opacity="0.9"/>
    <stop offset="0.5" stop-color="#FFFFFF" stop-opacity="0.25"/>
    <stop offset="1" stop-color="#7C3AED" stop-opacity="0.7"/>
  </linearGradient>
  <linearGradient id="strokeB" x1="0" y1="0" x2="0" y2="1">
    <stop offset="0" stop-color="#FFFFFF" stop-opacity="0.18"/>
    <stop offset="1" stop-color="#7C3AED" stop-opacity="0.55"/>
  </linearGradient>
</defs>
<rect x="0" y="0" width="900" height="1600" fill="url(#g0)"/>
<rect x="0" y="0" width="900" height="1600" fill="url(#g1)"/>
<rect x="0" y="0" width="900" height="1600" fill="url(#g2)"/>


<defs>
  <radialGradient id="vign" cx="0.5000" cy="0.5000" r="0.85">
    <stop offset="0" stop-color="#000000" stop-opacity="0"/>
    <stop offset="0.55" stop-color="#000000" stop-opacity="0.217"/>
    <stop offset="1" stop-color="#000000" stop-opacity="0.620"/>
  </radialGradient>
</defs>
<rect x="0" y="0" width="900" height="1600" fill="url(#vign)"/>

<g opacity="0.232" filter="url(#softGlow)"><path d="M 854.2,43.5 L 18.6,43.5 L 18.6,95.2 L 77.3,95.2 L 77.3,92.8 " fill="none" stroke="url(#strokeB)" stroke-width="1.69" stroke-linecap="round" stroke-linejoin="round"/><circle cx="18.6" cy="95.2" r="4.1" fill="#E11D48" opacity="0.45"/><circle cx="18.6" cy="43.5" r="2.5" fill="#E11D48" opacity="0.45"/><circle cx="77.3" cy="92.8" r="3.3" fill="#E11D48" opacity="0.45"/></g>
<g opacity="0.232" filter="url(#softGlow)"><path d="M 318.5,95.1 L 866.7,95.1 L 866.7,1493.4 L 8.1,1493.4 L 8.1,414.5 " fill="none" stroke="url(#strokeB)" stroke-width="1.15" stroke-linecap="round" stroke-linejoin="round"/><circle cx="8.1" cy="414.5" r="2.2" fill="#E11D48" opacity="0.45"/><circle cx="866.7" cy="95.1" r="3.2" fill="#E11D48" opacity="0.45"/><circle cx="8.1" cy="1493.4" r="3.4" fill="#E11D48" opacity="0.45"/></g>
<g opacity="0.232" filter="url(#softGlow)"><path d="M 155.6,1585.2 L 722.2,1585.2 L 722.2,1580.2 L 105.5,1580.2 L 105.5,68.4 " fill="none" stroke="url(#strokeB)" stroke-width="1.62" stroke-linecap="round" stroke-linejoin="round"/><circle cx="722.2" cy="1580.2" r="4.1" fill="#E11D48" opacity="0.45"/><circle cx="155.6" cy="1585.2" r="3.0" fill="#E11D48" opacity="0.45"/><circle cx="105.5" cy="1580.2" r="3.7" fill="#E11D48" opacity="0.45"/></g>
<g opacity="0.232" filter="url(#softGlow)"><path d="M 118.3,1494.5 L 64.7,1494.5 L 64.7,1176.5 L 868.1,1176.5 L 868.1,146.4 " fill="none" stroke="url(#strokeB)" stroke-width="1.59" stroke-linecap="round" stroke-linejoin="round"/><circle cx="868.1" cy="1176.5" r="2.4" fill="#E11D48" opacity="0.45"/><circle cx="118.3" cy="1494.5" r="3.9" fill="#E11D48" opacity="0.45"/><circle cx="868.1" cy="146.4" r="3.4" fill="#E11D48" opacity="0.45"/></g>
<g opacity="0.232" filter="url(#softGlow)"><path d="M 839.7,1476.1 L 762.3,1476.1 L 762.3,1355.0 L 802.8,1355.0 L 802.8,1445.9 " fill="none" stroke="url(#strokeB)" stroke-width="1.37" stroke-linecap="round" stroke-linejoin="round"/><circle cx="802.8" cy="1445.9" r="3.6" fill="#E11D48" opacity="0.45"/><circle cx="762.3" cy="1476.1" r="3.3" fill="#E11D48" opacity="0.45"/><circle cx="762.3" cy="1355.0" r="3.9" fill="#E11D48" opacity="0.45"/></g>
<g opacity="0.232" filter="url(#softGlow)"><path d="M 558.8,1441.7 L 512.1,1441.7 L 512.1,1443.8 L 32.3,1443.8 L 32.3,548.6 " fill="none" stroke="url(#strokeB)" stroke-width="1.20" stroke-linecap="round" stroke-linejoin="round"/><circle cx="512.1" cy="1441.7" r="2.3" fill="#E11D48" opacity="0.45"/><circle cx="558.8" cy="1441.7" r="2.6" fill="#E11D48" opacity="0.45"/><circle cx="32.3" cy="548.6" r="2.7" fill="#E11D48" opacity="0.45"/></g>
<g opacity="0.232" filter="url(#softGlow)"><path d="M 111.1,1492.7 L 118.8,1492.7 L 118.8,124.7 L 831.2,124.7 L 831.2,132.8 " fill="none" stroke="url(#strokeB)" stroke-width="1.90" stroke-linecap="round" stroke-linejoin="round"/><circle cx="831.2" cy="124.7" r="2.3" fill="#E11D48" opacity="0.45"/><circle cx="831.2" cy="132.8" r="3.3" fill="#E11D48" opacity="0.45"/><circle cx="111.1" cy="1492.7" r="2.6" fill="#E11D48" opacity="0.45"/></g>
<g opacity="0.232" filter="url(#softGlow)"><path d="M 778.2,1150.2 L 104.7,1150.2 L 104.7,1498.6 L 602.6,1498.6 L 602.6,30.8 " fill="none" stroke="url(#strokeB)" stroke-width="2.13" stroke-linecap="round" stroke-linejoin="round"/><circle cx="104.7" cy="1150.2" r="2.8" fill="#E11D48" opacity="0.45"/><circle cx="602.6" cy="30.8" r="2.9" fill="#E11D48" opacity="0.45"/><circle cx="104.7" cy="1498.6" r="3.7" fill="#E11D48" opacity="0.45"/></g>
<g opacity="0.232" filter="url(#softGlow)"><path d="M 757.4,70.5 L 133.9,70.5 L 133.9,1511.1 L 833.4,1511.1 L 833.4,1540.4 " fill="none" stroke="url(#strokeB)" stroke-width="1.27" stroke-linecap="round" stroke-linejoin="round"/><circle cx="133.9" cy="1511.1" r="3.5" fill="#E11D48" opacity="0.45"/><circle cx="757.4" cy="70.5" r="2.1" fill="#E11D48" opacity="0.45"/><circle cx="133.9" cy="70.5" r="2.8" fill="#E11D48" opacity="0.45"/></g>
<g opacity="0.232" filter="url(#softGlow)"><path d="M 71.1,1521.8 L 153.7,1521.8 L 153.7,23.2 L 473.4,23.2 L 473.4,144.8 " fill="none" stroke="url(#strokeB)" stroke-width="1.18" stroke-linecap="round" stroke-linejoin="round"/><circle cx="473.4" cy="23.2" r="2.3" fill="#E11D48" opacity="0.45"/><circle cx="473.4" cy="144.8" r="3.1" fill="#E11D48" opacity="0.45"/><circle cx="153.7" cy="23.2" r="4.1" fill="#E11D48" opacity="0.45"/></g>
<g opacity="0.232" filter="url(#softGlow)"><path d="M 130.2,66.0 L 898.8,66.0 L 898.8,1011.9 L 806.9,1011.9 L 806.9,1487.5 " fill="none" stroke="url(#strokeB)" stroke-width="2.14" stroke-linecap="round" stroke-linejoin="round"/><circle cx="806.9" cy="1487.5" r="4.0" fill="#E11D48" opacity="0.45"/><circle cx="130.2" cy="66.0" r="2.6" fill="#E11D48" opacity="0.45"/><circle cx="898.8" cy="1011.9" r="2.2" fill="#E11D48" opacity="0.45"/></g>
<g opacity="0.232" filter="url(#softGlow)"><path d="M 831.4,1481.2 L 751.9,1481.2 L 751.9,1382.3 L 855.0,1382.3 L 855.0,85.4 " fill="none" stroke="url(#strokeB)" stroke-width="2.06" stroke-linecap="round" stroke-linejoin="round"/><circle cx="855.0" cy="1382.3" r="2.9" fill="#E11D48" opacity="0.45"/><circle cx="831.4" cy="1481.2" r="3.8" fill="#E11D48" opacity="0.45"/><circle cx="751.9" cy="1481.2" r="4.1" fill="#E11D48" opacity="0.45"/></g>
<g opacity="0.232" filter="url(#softGlow)"><path d="M 37.7,1490.2 L 37.8,1490.2 L 37.8,148.1 L 760.6,148.1 L 760.6,718.1 " fill="none" stroke="url(#strokeB)" stroke-width="1.60" stroke-linecap="round" stroke-linejoin="round"/><circle cx="37.7" cy="1490.2" r="2.6" fill="#E11D48" opacity="0.45"/><circle cx="760.6" cy="148.1" r="2.7" fill="#E11D48" opacity="0.45"/><circle cx="37.8" cy="148.1" r="3.9" fill="#E11D48" opacity="0.45"/></g>
<g opacity="0.232" filter="url(#softGlow)"><path d="M 869.0,1312.2 L 734.4,1312.2 L 734.4,98.7 L 30.5,98.7 L 30.5,129.1 " fill="none" stroke="url(#strokeB)" stroke-width="1.16" stroke-linecap="round" stroke-linejoin="round"/><circle cx="869.0" cy="1312.2" r="4.1" fill="#E11D48" opacity="0.45"/><circle cx="30.5" cy="98.7" r="4.0" fill="#E11D48" opacity="0.45"/><circle cx="30.5" cy="129.1" r="3.2" fill="#E11D48" opacity="0.45"/></g>
<g opacity="0.232" filter="url(#softGlow)"><path d="M 363.9,1596.2 L 877.4,1596.2 L 877.4,33.4 L 699.0,33.4 L 699.0,1526.1 " fill="none" stroke="url(#strokeB)" stroke-width="1.91" stroke-linecap="round" stroke-linejoin="round"/><circle cx="877.4" cy="33.4" r="2.0" fill="#E11D48" opacity="0.45"/><circle cx="699.0" cy="1526.1" r="3.7" fill="#E11D48" opacity="0.45"/><circle cx="699.0" cy="33.4" r="3.7" fill="#E11D48" opacity="0.45"/></g>

<g opacity="0.660" filter="url(#hardGlow)">
  <circle cx="103.0" cy="8.7" r="42.4" fill="#0A1224" opacity="0.65"/>
  <circle cx="103.0" cy="8.7" r="42.4" fill="none" stroke="url(#strokeA)" stroke-width="3.4" opacity="0.85"/>
  <circle cx="103.0" cy="8.7" r="36.5" fill="none" stroke="#7C3AED" stroke-width="1.5" opacity="0.35"/>
  <polygon points="72.8,4.1 91.9,-19.7 122.1,-15.2 133.2,13.3 114.1,37.1 83.9,32.5" fill="none" stroke="url(#strokeB)" stroke-width="1.2" opacity="0.65"/>
  <polygon points="93.6,3.6 112.1,3.1 103.3,19.4" fill="#7C3AED" opacity="0.22" filter="url(#softGlow)"/>
</g>


<g opacity="0.413" filter="url(#hardGlow)">
  <circle cx="165.7" cy="-23.5" r="22.2" fill="#0A1224" opacity="0.65"/>
  <circle cx="165.7" cy="-23.5" r="22.2" fill="none" stroke="url(#strokeA)" stroke-width="2.0" opacity="0.85"/>
  <circle cx="165.7" cy="-23.5" r="19.1" fill="none" stroke="#E11D48" stroke-width="1.5" opacity="0.35"/>
  <polygon points="153.3,-33.6 168.3,-39.3 180.7,-29.2 178.1,-13.4 163.2,-7.7 150.8,-17.8" fill="none" stroke="url(#strokeB)" stroke-width="1.2" opacity="0.65"/>
  <polygon points="162.9,-28.3 171.3,-23.5 163.0,-18.6" fill="#E11D48" opacity="0.22" filter="url(#softGlow)"/>
</g>


<g opacity="0.596" filter="url(#hardGlow)">
  <circle cx="150.2" cy="6.7" r="19.9" fill="#0A1224" opacity="0.65"/>
  <circle cx="150.2" cy="6.7" r="19.9" fill="none" stroke="url(#strokeA)" stroke-width="2.0" opacity="0.85"/>
  <circle cx="150.2" cy="6.7" r="17.1" fill="none" stroke="#E11D48" stroke-width="1.5" opacity="0.35"/>
  <polygon points="135.9,6.8 143.0,-5.7 157.3,-5.7 164.5,6.7 157.4,19.1 143.1,19.1" fill="none" stroke="url(#strokeB)" stroke-width="1.2" opacity="0.65"/>
  <polygon points="145.5,5.0 154.0,3.5 151.1,11.6" fill="#E11D48" opacity="0.22" filter="url(#softGlow)"/>
</g>


<g opacity="0.798" filter="url(#hardGlow)">
  <circle cx="135.3" cy="445.0" r="53.3" fill="#0A1224" opacity="0.65"/>
  <circle cx="135.3" cy="445.0" r="53.3" fill="none" stroke="url(#strokeA)" stroke-width="4.3" opacity="0.85"/>
  <circle cx="135.3" cy="445.0" r="45.8" fill="none" stroke="#7C3AED" stroke-width="1.6" opacity="0.35"/>
  <polygon points="169.4,427.5 167.6,465.8 133.5,483.3 101.2,462.5 103.1,424.2 137.2,406.7" fill="none" stroke="url(#strokeB)" stroke-width="1.3" opacity="0.65"/>
  <polygon points="148.6,443.3 130.1,457.4 127.2,434.3" fill="#7C3AED" opacity="0.22" filter="url(#softGlow)"/>
</g>


<g opacity="0.653" filter="url(#hardGlow)">
  <circle cx="83.3" cy="21.0" r="46.7" fill="#0A1224" opacity="0.65"/>
  <circle cx="83.3" cy="21.0" r="46.7" fill="none" stroke="url(#strokeA)" stroke-width="3.7" opacity="0.85"/>
  <circle cx="83.3" cy="21.0" r="40.1" fill="none" stroke="#7C3AED" stroke-width="1.5" opacity="0.35"/>
  <polygon points="115.3,31.5 90.3,53.9 58.3,43.5 51.4,10.6 76.4,-11.9 108.3,-1.4" fill="none" stroke="url(#strokeB)" stroke-width="1.2" opacity="0.65"/>
  <polygon points="92.6,28.3 72.4,25.4 85.0,9.4" fill="#7C3AED" opacity="0.22" filter="url(#softGlow)"/>
</g>


<g opacity="0.526" filter="url(#hardGlow)">
  <circle cx="156.0" cy="0.3" r="22.9" fill="#0A1224" opacity="0.65"/>
  <circle cx="156.0" cy="0.3" r="22.9" fill="none" stroke="url(#strokeA)" stroke-width="2.0" opacity="0.85"/>
  <circle cx="156.0" cy="0.3" r="19.7" fill="none" stroke="#E11D48" stroke-width="1.5" opacity="0.35"/>
  <polygon points="163.2,15.2 146.7,13.9 139.6,-1.0 148.9,-14.6 165.4,-13.3 172.5,1.6" fill="none" stroke="url(#strokeB)" stroke-width="1.2" opacity="0.65"/>
  
</g>


<g opacity="0.588" filter="url(#hardGlow)">
  <circle cx="131.5" cy="60.3" r="20.1" fill="#0A1224" opacity="0.65"/>
  <circle cx="131.5" cy="60.3" r="20.1" fill="none" stroke="url(#strokeA)" stroke-width="2.0" opacity="0.85"/>
  <circle cx="131.5" cy="60.3" r="17.3" fill="none" stroke="#E11D48" stroke-width="1.5" opacity="0.35"/>
  <polygon points="139.9,48.5 145.9,61.6 137.6,73.4 123.2,72.1 117.2,58.9 125.5,47.2" fill="none" stroke="url(#strokeB)" stroke-width="1.2" opacity="0.65"/>
  <polygon points="135.7,57.4 132.0,65.3 127.0,58.1" fill="#E11D48" opacity="0.22" filter="url(#softGlow)"/>
</g>


<g opacity="0.800" filter="url(#hardGlow)">
  <circle cx="805.8" cy="143.6" r="45.2" fill="#0A1224" opacity="0.65"/>
  <circle cx="805.8" cy="143.6" r="45.2" fill="none" stroke="url(#strokeA)" stroke-width="3.6" opacity="0.85"/>
  <circle cx="805.8" cy="143.6" r="38.9" fill="none" stroke="#7C3AED" stroke-width="1.5" opacity="0.35"/>
  <polygon points="788.8,171.3 773.3,142.7 790.3,115.0 822.9,115.9 838.3,144.5 821.3,172.2" fill="none" stroke="url(#strokeB)" stroke-width="1.2" opacity="0.65"/>
  <polygon points="796.9,150.7 804.2,132.3 816.4,147.8" fill="#7C3AED" opacity="0.22" filter="url(#softGlow)"/>
</g>


<g opacity="0.625" filter="url(#hardGlow)">
  <circle cx="814.3" cy="196.5" r="16.0" fill="#0A1224" opacity="0.65"/>
  <circle cx="814.3" cy="196.5" r="16.0" fill="none" stroke="url(#strokeA)" stroke-width="2.0" opacity="0.85"/>
  <circle cx="814.3" cy="196.5" r="13.8" fill="none" stroke="#E11D48" stroke-width="1.5" opacity="0.35"/>
  <polygon points="816.9,185.3 825.3,193.1 822.7,204.4 811.7,207.8 803.2,199.9 805.8,188.7" fill="none" stroke="url(#strokeB)" stroke-width="1.2" opacity="0.65"/>
  <polygon points="816.5,193.1 816.1,200.1 810.2,196.3" fill="#E11D48" opacity="0.22" filter="url(#softGlow)"/>
</g>


<g opacity="0.417" transform="translate(887.4,133.6) rotate(-4.9)" filter="url(#softGlow)">
  <rect x="-83.5" y="-76.2" width="166.9" height="152.3" rx="15.2" fill="#050A12" opacity="0.25"/>
  <rect x="-83.5" y="-76.2" width="166.9" height="152.3" rx="15.2" fill="none" stroke="url(#strokeA)" stroke-width="7.6" opacity="0.85"/>
  <rect x="-71.3" y="-64.0" width="142.6" height="128.0" rx="10.7" fill="none" stroke="#E11D48" stroke-width="3.0" opacity="0.35"/>
</g>


<g opacity="0.414" transform="translate(44.1,103.9) rotate(-7.3)" filter="url(#softGlow)">
  <rect x="-65.3" y="-57.5" width="130.6" height="114.9" rx="11.5" fill="#050A12" opacity="0.25"/>
  <rect x="-65.3" y="-57.5" width="130.6" height="114.9" rx="11.5" fill="none" stroke="url(#strokeA)" stroke-width="5.7" opacity="0.85"/>
  <rect x="-56.1" y="-48.3" width="112.2" height="96.5" rx="8.0" fill="none" stroke="#E11D48" stroke-width="2.3" opacity="0.35"/>
</g>


<g opacity="0.310" transform="translate(539.1,145.7) rotate(0.2)" filter="url(#softGlow)">
  <rect x="-78.2" y="-60.4" width="156.4" height="120.8" rx="12.1" fill="#050A12" opacity="0.25"/>
  <rect x="-78.2" y="-60.4" width="156.4" height="120.8" rx="12.1" fill="none" stroke="url(#strokeA)" stroke-width="6.0" opacity="0.85"/>
  <rect x="-68.6" y="-50.7" width="137.1" height="101.5" rx="8.5" fill="none" stroke="#E11D48" stroke-width="2.4" opacity="0.35"/>
</g>


<g opacity="0.425" transform="translate(459.2,48.3) rotate(1.2)" filter="url(#softGlow)">
  <rect x="-71.0" y="-52.7" width="142.0" height="105.3" rx="10.5" fill="#050A12" opacity="0.25"/>
  <rect x="-71.0" y="-52.7" width="142.0" height="105.3" rx="10.5" fill="none" stroke="url(#strokeA)" stroke-width="5.3" opacity="0.85"/>
  <rect x="-62.6" y="-44.2" width="125.1" height="88.5" rx="7.4" fill="none" stroke="#E11D48" stroke-width="2.1" opacity="0.35"/>
</g>


<g opacity="0.277" transform="translate(203.6,122.0) rotate(-1.0)" filter="url(#softGlow)">
  <rect x="-86.5" y="-79.6" width="173.0" height="159.3" rx="15.9" fill="#050A12" opacity="0.25"/>
  <rect x="-86.5" y="-79.6" width="173.0" height="159.3" rx="15.9" fill="none" stroke="url(#strokeA)" stroke-width="8.0" opacity="0.85"/>
  <rect x="-73.7" y="-66.9" width="147.5" height="133.8" rx="11.1" fill="none" stroke="#E11D48" stroke-width="3.2" opacity="0.35"/>
</g>


<g opacity="0.373" transform="translate(723.5,142.9) rotate(-13.1)" filter="url(#softGlow)">
  <rect x="-32.4" y="-18.7" width="64.8" height="37.3" rx="11.4" fill="none" stroke="#22C55E" stroke-width="6.2" opacity="0.55"/>
  <rect x="-14.3" y="-9.3" width="64.8" height="37.3" rx="11.4" fill="none" stroke="url(#strokeA)" stroke-width="5.2" opacity="0.55"/>
</g>


<g opacity="0.293" transform="translate(83.8,1554.0) rotate(7.7)" filter="url(#softGlow)">
  <rect x="-28.3" y="-16.3" width="56.7" height="32.7" rx="10.0" fill="none" stroke="#22C55E" stroke-width="5.4" opacity="0.55"/>
  <rect x="-12.5" y="-8.2" width="56.7" height="32.7" rx="10.0" fill="none" stroke="url(#strokeA)" stroke-width="4.5" opacity="0.55"/>
</g>


<g opacity="0.376" transform="translate(783.1,177.9) rotate(1.4)" filter="url(#softGlow)">
  <rect x="-44.9" y="-25.9" width="89.9" height="51.8" rx="15.8" fill="none" stroke="#22C55E" stroke-width="8.6" opacity="0.55"/>
  <rect x="-19.8" y="-12.9" width="89.9" height="51.8" rx="15.8" fill="none" stroke="url(#strokeA)" stroke-width="7.2" opacity="0.55"/>
</g>


<g opacity="0.268" transform="translate(6.1,87.6) rotate(6.2)" filter="url(#softGlow)">
  <rect x="-37.0" y="-21.3" width="74.0" height="42.7" rx="13.0" fill="none" stroke="#22C55E" stroke-width="7.1" opacity="0.55"/>
  <rect x="-16.3" y="-10.7" width="74.0" height="42.7" rx="13.0" fill="none" stroke="url(#strokeA)" stroke-width="5.9" opacity="0.55"/>
</g>


<g opacity="0.433" transform="translate(811.6,1496.5) rotate(4.3)" filter="url(#softGlow)">
  <rect x="-46.0" y="-26.5" width="92.0" height="53.0" rx="16.2" fill="none" stroke="#E11D48" stroke-width="8.8" opacity="0.55"/>
  <rect x="-20.2" y="-13.2" width="92.0" height="53.0" rx="16.2" fill="none" stroke="url(#strokeA)" stroke-width="7.4" opacity="0.55"/>
</g>


<g opacity="0.466" transform="translate(737.7,0.1) rotate(-4.1)" filter="url(#softGlow)">
  <rect x="-38.8" y="-22.4" width="77.6" height="44.7" rx="13.7" fill="none" stroke="#7C3AED" stroke-width="7.5" opacity="0.55"/>
  <rect x="-17.1" y="-11.2" width="77.6" height="44.7" rx="13.7" fill="none" stroke="url(#strokeA)" stroke-width="6.2" opacity="0.55"/>
</g>


<g opacity="0.452" transform="translate(34.8,37.2) rotate(-3.0)" filter="url(#softGlow)">
  <rect x="-32.6" y="-18.8" width="65.1" height="37.5" rx="11.5" fill="none" stroke="#22C55E" stroke-width="6.3" opacity="0.55"/>
  <rect x="-14.3" y="-9.4" width="65.1" height="37.5" rx="11.5" fill="none" stroke="url(#strokeA)" stroke-width="5.2" opacity="0.55"/>
</g>


<g opacity="0.306" transform="translate(779.7,87.8) rotate(13.6)" filter="url(#softGlow)">
  <rect x="-32.2" y="-18.5" width="64.4" height="37.1" rx="11.3" fill="none" stroke="#7C3AED" stroke-width="6.2" opacity="0.55"/>
  <rect x="-14.2" y="-9.3" width="64.4" height="37.1" rx="11.3" fill="none" stroke="url(#strokeA)" stroke-width="5.1" opacity="0.55"/>
</g>


<g opacity="0.213">
  <line x1="742.6" y1="1413.1" x2="742.6" y2="1508.1" stroke="#E11D48" stroke-width="1.19" opacity="0.45"/>
  <rect x="738.1" y="1463.5" width="9.0" height="51.2" rx="3.0" fill="#0B1020" opacity="0.55" stroke="url(#strokeA)" stroke-width="1.2"/>
</g>

<g opacity="0.213">
  <line x1="806.4" y1="1401.7" x2="806.4" y2="1510.9" stroke="#E11D48" stroke-width="2.09" opacity="0.45"/>
  <rect x="800.5" y="1462.7" width="11.6" height="52.7" rx="3.9" fill="#0B1020" opacity="0.55" stroke="url(#strokeA)" stroke-width="1.2"/>
</g>

<g opacity="0.213">
  <line x1="44.2" y1="1400.3" x2="44.2" y2="1511.3" stroke="#E11D48" stroke-width="1.75" opacity="0.45"/>
  <rect x="40.8" y="1459.5" width="6.8" height="59.2" rx="2.3" fill="#0B1020" opacity="0.55" stroke="url(#strokeA)" stroke-width="1.2"/>
</g>

<g opacity="0.213">
  <line x1="163.4" y1="1438.3" x2="163.4" y2="1501.8" stroke="#E11D48" stroke-width="1.65" opacity="0.45"/>
  <rect x="158.6" y="1477.1" width="9.6" height="23.9" rx="3.2" fill="#0B1020" opacity="0.55" stroke="url(#strokeA)" stroke-width="1.2"/>
</g>

<g opacity="0.213">
  <line x1="294.5" y1="1452.1" x2="294.5" y2="1498.3" stroke="#E11D48" stroke-width="2.01" opacity="0.45"/>
  <rect x="290.0" y="1476.4" width="9.0" height="25.4" rx="3.0" fill="#0B1020" opacity="0.55" stroke="url(#strokeA)" stroke-width="1.2"/>
</g>

<g opacity="0.213">
  <line x1="357.6" y1="1409.6" x2="357.6" y2="1508.9" stroke="#E11D48" stroke-width="1.92" opacity="0.45"/>
  <rect x="351.9" y="1468.0" width="11.4" height="42.2" rx="3.8" fill="#0B1020" opacity="0.55" stroke="url(#strokeA)" stroke-width="1.2"/>
</g>

<g opacity="0.213">
  <line x1="38.0" y1="1411.5" x2="38.0" y2="1508.5" stroke="#E11D48" stroke-width="1.77" opacity="0.45"/>
  <rect x="32.4" y="1470.0" width="11.1" height="38.1" rx="3.7" fill="#0B1020" opacity="0.55" stroke="url(#strokeA)" stroke-width="1.2"/>
</g>

<g opacity="0.213">
  <line x1="868.4" y1="1423.6" x2="868.4" y2="1505.4" stroke="#E11D48" stroke-width="1.16" opacity="0.45"/>
  <rect x="864.2" y="1463.9" width="8.5" height="50.3" rx="2.8" fill="#0B1020" opacity="0.55" stroke="url(#strokeA)" stroke-width="1.2"/>
</g>

<g opacity="0.213">
  <line x1="168.3" y1="1429.1" x2="168.3" y2="1504.1" stroke="#E11D48" stroke-width="1.65" opacity="0.45"/>
  <rect x="163.6" y="1465.7" width="9.3" height="46.7" rx="3.1" fill="#0B1020" opacity="0.55" stroke="url(#strokeA)" stroke-width="1.2"/>
</g>

<g opacity="0.213">
  <line x1="547.4" y1="1447.8" x2="547.4" y2="1499.4" stroke="#E11D48" stroke-width="1.35" opacity="0.45"/>
  <rect x="542.7" y="1477.0" width="9.4" height="24.3" rx="3.1" fill="#0B1020" opacity="0.55" stroke="url(#strokeA)" stroke-width="1.2"/>
</g>

<g opacity="0.213">
  <line x1="746.3" y1="1410.1" x2="746.3" y2="1508.8" stroke="#E11D48" stroke-width="1.97" opacity="0.45"/>
  <rect x="741.9" y="1468.2" width="8.8" height="41.7" rx="2.9" fill="#0B1020" opacity="0.55" stroke="url(#strokeA)" stroke-width="1.2"/>
</g>

<g opacity="0.213">
  <line x1="761.8" y1="1438.4" x2="761.8" y2="1501.8" stroke="#E11D48" stroke-width="1.25" opacity="0.45"/>
  <rect x="756.2" y="1479.7" width="11.2" height="18.7" rx="3.7" fill="#0B1020" opacity="0.55" stroke="url(#strokeA)" stroke-width="1.2"/>
</g>

<g opacity="0.213">
  <line x1="884.1" y1="1429.3" x2="884.1" y2="1504.0" stroke="#E11D48" stroke-width="2.16" opacity="0.45"/>
  <rect x="879.7" y="1475.6" width="8.7" height="27.0" rx="2.9" fill="#0B1020" opacity="0.55" stroke="url(#strokeA)" stroke-width="1.2"/>
</g>

<g opacity="0.213">
  <line x1="277.4" y1="1424.7" x2="277.4" y2="1505.2" stroke="#E11D48" stroke-width="1.64" opacity="0.45"/>
  <rect x="273.8" y="1474.4" width="7.2" height="29.3" rx="2.4" fill="#0B1020" opacity="0.55" stroke="url(#strokeA)" stroke-width="1.2"/>
</g>

<g opacity="0.213">
  <line x1="568.3" y1="1448.1" x2="568.3" y2="1499.3" stroke="#E11D48" stroke-width="1.65" opacity="0.45"/>
  <rect x="564.0" y="1476.5" width="8.5" height="25.2" rx="2.8" fill="#0B1020" opacity="0.55" stroke="url(#strokeA)" stroke-width="1.2"/>
</g>
<circle cx="864.5" cy="474.2" r="2.2" fill="#7C3AED" opacity="0.13" filter="url(#softGlow)"/>
<circle cx="728.7" cy="1564.3" r="2.0" fill="#7C3AED" opacity="0.22" filter="url(#softGlow)"/>
<circle cx="5.7" cy="163.5" r="1.6" fill="#7C3AED" opacity="0.25" filter="url(#softGlow)"/>
<circle cx="859.5" cy="1484.5" r="2.1" fill="#7C3AED" opacity="0.10" filter="url(#softGlow)"/>
<circle cx="45.6" cy="438.7" r="2.3" fill="#7C3AED" opacity="0.15" filter="url(#softGlow)"/>
<circle cx="811.7" cy="1424.1" r="1.7" fill="#7C3AED" opacity="0.14" filter="url(#softGlow)"/>
<circle cx="814.7" cy="79.3" r="3.1" fill="#7C3AED" opacity="0.22" filter="url(#softGlow)"/>
<circle cx="869.2" cy="36.5" r="2.9" fill="#7C3AED" opacity="0.10" filter="url(#softGlow)"/>
<circle cx="740.1" cy="1201.2" r="2.4" fill="#7C3AED" opacity="0.11" filter="url(#softGlow)"/>
<circle cx="101.5" cy="179.3" r="2.6" fill="#7C3AED" opacity="0.14" filter="url(#softGlow)"/>
<circle cx="72.8" cy="1449.5" r="2.0" fill="#7C3AED" opacity="0.16" filter="url(#softGlow)"/>
<circle cx="750.6" cy="1421.0" r="2.4" fill="#7C3AED" opacity="0.11" filter="url(#softGlow)"/>
<circle cx="30.9" cy="1481.1" r="2.3" fill="#7C3AED" opacity="0.17" filter="url(#softGlow)"/>
<circle cx="734.0" cy="103.8" r="2.4" fill="#7C3AED" opacity="0.26" filter="url(#softGlow)"/>
<circle cx="142.4" cy="153.3" r="1.5" fill="#7C3AED" opacity="0.23" filter="url(#softGlow)"/>
<circle cx="136.5" cy="1596.7" r="3.1" fill="#7C3AED" opacity="0.28" filter="url(#softGlow)"/>
<circle cx="852.5" cy="1586.1" r="2.1" fill="#7C3AED" opacity="0.20" filter="url(#softGlow)"/>
<circle cx="150.2" cy="146.8" r="2.3" fill="#7C3AED" opacity="0.28" filter="url(#softGlow)"/>
<circle cx="441.0" cy="91.8" r="1.5" fill="#7C3AED" opacity="0.17" filter="url(#softGlow)"/>
<circle cx="855.1" cy="358.7" r="2.9" fill="#7C3AED" opacity="0.17" filter="url(#softGlow)"/>
<circle cx="724.5" cy="132.5" r="2.4" fill="#7C3AED" opacity="0.18" filter="url(#softGlow)"/>
<circle cx="38.6" cy="27.4" r="3.0" fill="#7C3AED" opacity="0.25" filter="url(#softGlow)"/>
<circle cx="166.3" cy="1590.8" r="1.8" fill="#7C3AED" opacity="0.11" filter="url(#softGlow)"/>
<circle cx="831.9" cy="1204.8" r="1.4" fill="#7C3AED" opacity="0.11" filter="url(#softGlow)"/>
<circle cx="835.9" cy="683.0" r="2.6" fill="#7C3AED" opacity="0.22" filter="url(#softGlow)"/>
<circle cx="874.5" cy="119.8" r="2.3" fill="#7C3AED" opacity="0.21" filter="url(#softGlow)"/>
<circle cx="65.7" cy="1508.4" r="2.0" fill="#7C3AED" opacity="0.13" filter="url(#softGlow)"/>
<circle cx="769.8" cy="67.2" r="1.6" fill="#7C3AED" opacity="0.21" filter="url(#softGlow)"/>
<circle cx="728.3" cy="64.1" r="1.8" fill="#7C3AED" opacity="0.14" filter="url(#softGlow)"/>
<circle cx="0.9" cy="39.7" r="2.0" fill="#7C3AED" opacity="0.12" filter="url(#softGlow)"/>
<circle cx="850.8" cy="1523.7" r="2.4" fill="#7C3AED" opacity="0.27" filter="url(#softGlow)"/>
<circle cx="841.1" cy="98.7" r="2.6" fill="#7C3AED" opacity="0.17" filter="url(#softGlow)"/>
</svg>