<svg xmlns="http://www.w3.org/2000/svg" width="900" height="1600" viewBox="0 0 900 1600" preserveAspectRatio="xMidYMid slice">
<defs>
  <linearGradient id="g0" x1="0" y1="0" x2="1" y2="1">
    <stop offset="0" stop-color="#0A0F1E"/>
    <stop offset="0.55" stop-color="#00FFA3" stop-opacity="0.9"/>
    <stop offset="1" stop-color="#050A12"/>
  </linearGradient>
  <radialGradient id="g1" cx="20%" cy="15%" r="70%">
    <stop offset="0" stop-color="#14C2FF" stop-opacity="0.38"/>
    <stop offset="0.6" stop-color="#14C2FF" stop-opacity="0.08"/>
    <stop offset="1" stop-color="#14C2FF" stop-opacity="0"/>
  </radialGradient>
  <radialGradient id="g2" cx="85%" cy="80%" r="75%">
    <stop offset="0" stop-color="#14C2FF" stop-opacity="0.28"/>
    <stop offset="0.65" stop-color="#14C2FF" stop-opacity="0.06"/>
    <stop offset="1" stop-color="#14C2FF" stop-opacity="0"/>
  </radialGradient>
  <filter id="softGlow" x="-30%" y="-30%" width="160%" height="160%">
    <feGaussianBlur stdDeviation="12" result="b"/>
    <feMerge>
      <feMergeNode in="b"/>
      <feMergeNode in="SourceGraphic"/>
    </feMerge>
  </filter>
  <filter id="hardGlow" x="-40%" y="-40%" width="180%" height="180%">
    <feGaussianBlur stdDeviation="6" result="b"/>
    <feColorMatrix in="b" type="matrix" values="1 0 0 0 0  0 1 0 0 0  0 0 1 0 0  0 0 0 18 -7" result="c"/>
    <feMerge>
      <feMergeNode in="c"/>
      <feMergeNode in="SourceGraphic"/>
    </feMerge>
  </filter>
  <linearGradient id="strokeA" x1="0" y1="0" x2="1" y2="0">
    <stop offset="0" stop-color="#14C2FF" stop-opacity="0.9"/>
    <stop offset="0.5" stop-color="#FFFFFF" stop-opacity="0.25"/>
    <stop offset="1" stop-color="#14C2FF" stop-opacity="0.7"/>
  </linearGradient>
  <linearGradient id="strokeB" x1="0" y1="0" x2="0" y2="1">
    <stop offset="0" stop-color="#FFFFFF" stop-opacity="0.18"/>
    <stop offset="1" stop-color="#14C2FF" stop-opacity="0.55"/>
  </linearGradient>
</defs>
<rect x="0" y="0" width="900" height="1600" fill="url(#g0)"/>
<rect x="0" y="0" width="900" height="1600" fill="url(#g1)"/>
<rect x="0" y="0" width="900" height="1600" fill="url(#g2)"/>


<defs>
  <radialGradient id="vign" cx="0.5000" cy="0.5000" r="0.85">
    <stop offset="0" stop-color="#000000" stop-opacity="0"/>
    <stop offset="0.55" stop-color="#000000" stop-opacity="0.217"/>
    <stop offset="1" stop-color="#000000" stop-opacity="0.620"/>
  </radialGradient>
</defs>
<rect x="0" y="0" width="900" height="1600" fill="url(#vign)"/>

<g opacity="0.185" filter="url(#softGlow)"><path d="M 255.3,1446.4 L 298.3,1446.4 L 298.3,10.6 L 68.1,10.6 L 68.1,1586.1 " fill="none" stroke="url(#strokeB)" stroke-width="1.75" stroke-linecap="round" stroke-linejoin="round"/><circle cx="298.3" cy="10.6" r="3.4" fill="#FF4D8D" opacity="0.45"/><circle cx="68.1" cy="10.6" r="3.6" fill="#FF4D8D" opacity="0.45"/><circle cx="255.3" cy="1446.4" r="4.1" fill="#FF4D8D" opacity="0.45"/></g>
<g opacity="0.185" filter="url(#softGlow)"><path d="M 374.7,146.6 L 93.4,146.6 L 93.4,53.1 L 5.4,53.1 L 5.4,165.2 " fill="none" stroke="url(#strokeB)" stroke-width="1.57" stroke-linecap="round" stroke-linejoin="round"/><circle cx="5.4" cy="53.1" r="4.0" fill="#FF4D8D" opacity="0.45"/><circle cx="5.4" cy="165.2" r="4.1" fill="#FF4D8D" opacity="0.45"/><circle cx="374.7" cy="146.6" r="4.1" fill="#FF4D8D" opacity="0.45"/></g>
<g opacity="0.185" filter="url(#softGlow)"><path d="M 843.7,71.4 L 33.4,71.4 L 33.4,1593.0 L 65.1,1593.0 L 65.1,26.3 " fill="none" stroke="url(#strokeB)" stroke-width="1.22" stroke-linecap="round" stroke-linejoin="round"/><circle cx="33.4" cy="1593.0" r="3.6" fill="#FF4D8D" opacity="0.45"/><circle cx="843.7" cy="71.4" r="4.0" fill="#FF4D8D" opacity="0.45"/><circle cx="33.4" cy="71.4" r="3.3" fill="#FF4D8D" opacity="0.45"/></g>
<g opacity="0.185" filter="url(#softGlow)"><path d="M 843.6,11.5 L 121.0,11.5 L 121.0,1598.7 L 45.6,1598.7 L 45.6,1562.2 " fill="none" stroke="url(#strokeB)" stroke-width="1.69" stroke-linecap="round" stroke-linejoin="round"/><circle cx="45.6" cy="1562.2" r="2.7" fill="#FF4D8D" opacity="0.45"/><circle cx="843.6" cy="11.5" r="2.8" fill="#FF4D8D" opacity="0.45"/><circle cx="121.0" cy="11.5" r="2.7" fill="#FF4D8D" opacity="0.45"/></g>
<g opacity="0.185" filter="url(#softGlow)"><path d="M 94.0,1598.0 L 15.0,1598.0 L 15.0,1581.4 L 423.2,1581.4 L 423.2,1540.4 " fill="none" stroke="url(#strokeB)" stroke-width="1.35" stroke-linecap="round" stroke-linejoin="round"/><circle cx="15.0" cy="1581.4" r="4.2" fill="#FF4D8D" opacity="0.45"/><circle cx="94.0" cy="1598.0" r="2.3" fill="#FF4D8D" opacity="0.45"/><circle cx="423.2" cy="1540.4" r="2.6" fill="#FF4D8D" opacity="0.45"/></g>
<g opacity="0.185" filter="url(#softGlow)"><path d="M 150.4,153.1 L 137.5,153.1 L 137.5,93.8 L 6.1,93.8 L 6.1,1081.7 " fill="none" stroke="url(#strokeB)" stroke-width="1.96" stroke-linecap="round" stroke-linejoin="round"/><circle cx="150.4" cy="153.1" r="3.6" fill="#FF4D8D" opacity="0.45"/><circle cx="137.5" cy="153.1" r="3.5" fill="#FF4D8D" opacity="0.45"/><circle cx="6.1" cy="1081.7" r="3.4" fill="#FF4D8D" opacity="0.45"/></g>
<g opacity="0.185" filter="url(#softGlow)"><path d="M 398.3,18.4 L 96.0,18.4 L 96.0,12.3 L 333.7,12.3 L 333.7,29.5 " fill="none" stroke="url(#strokeB)" stroke-width="1.36" stroke-linecap="round" stroke-linejoin="round"/><circle cx="333.7" cy="29.5" r="2.1" fill="#FF4D8D" opacity="0.45"/><circle cx="96.0" cy="18.4" r="2.4" fill="#FF4D8D" opacity="0.45"/><circle cx="398.3" cy="18.4" r="2.7" fill="#FF4D8D" opacity="0.45"/></g>
<g opacity="0.185" filter="url(#softGlow)"><path d="M 56.4,1511.6 L 113.6,1511.6 L 113.6,1521.1 L 113.1,1521.1 L 113.1,143.8 " fill="none" stroke="url(#strokeB)" stroke-width="1.65" stroke-linecap="round" stroke-linejoin="round"/><circle cx="113.1" cy="1521.1" r="2.0" fill="#FF4D8D" opacity="0.45"/><circle cx="113.6" cy="1511.6" r="3.3" fill="#FF4D8D" opacity="0.45"/><circle cx="113.1" cy="143.8" r="3.4" fill="#FF4D8D" opacity="0.45"/></g>
<g opacity="0.185" filter="url(#softGlow)"><path d="M 78.0,117.0 L 134.1,117.0 L 134.1,72.9 L 138.7,72.9 L 138.7,10.2 " fill="none" stroke="url(#strokeB)" stroke-width="2.00" stroke-linecap="round" stroke-linejoin="round"/><circle cx="134.1" cy="117.0" r="3.0" fill="#FF4D8D" opacity="0.45"/><circle cx="138.7" cy="72.9" r="3.8" fill="#FF4D8D" opacity="0.45"/><circle cx="78.0" cy="117.0" r="3.7" fill="#FF4D8D" opacity="0.45"/></g>
<g opacity="0.185" filter="url(#softGlow)"><path d="M 763.8,1535.8 L 764.6,1535.8 L 764.6,1060.2 L 455.6,1060.2 L 455.6,1522.9 " fill="none" stroke="url(#strokeB)" stroke-width="2.06" stroke-linecap="round" stroke-linejoin="round"/><circle cx="455.6" cy="1522.9" r="3.8" fill="#FF4D8D" opacity="0.45"/><circle cx="455.6" cy="1060.2" r="3.6" fill="#FF4D8D" opacity="0.45"/><circle cx="764.6" cy="1535.8" r="3.4" fill="#FF4D8D" opacity="0.45"/></g>
<g opacity="0.185" filter="url(#softGlow)"><path d="M 666.4,15.0 L 329.4,15.0 L 329.4,100.7 L 23.1,100.7 L 23.1,1033.1 " fill="none" stroke="url(#strokeB)" stroke-width="2.01" stroke-linecap="round" stroke-linejoin="round"/><circle cx="329.4" cy="100.7" r="2.3" fill="#FF4D8D" opacity="0.45"/><circle cx="666.4" cy="15.0" r="2.0" fill="#FF4D8D" opacity="0.45"/><circle cx="329.4" cy="15.0" r="2.9" fill="#FF4D8D" opacity="0.45"/></g>
<g opacity="0.185" filter="url(#softGlow)"><path d="M 444.7,134.7 L 152.9,134.7 L 152.9,1481.9 L 752.7,1481.9 L 752.7,1140.4 " fill="none" stroke="url(#strokeB)" stroke-width="1.69" stroke-linecap="round" stroke-linejoin="round"/><circle cx="152.9" cy="134.7" r="4.1" fill="#FF4D8D" opacity="0.45"/><circle cx="152.9" cy="1481.9" r="3.5" fill="#FF4D8D" opacity="0.45"/><circle cx="444.7" cy="134.7" r="4.2" fill="#FF4D8D" opacity="0.45"/></g>
<g opacity="0.185" filter="url(#softGlow)"><path d="M 739.0,1551.7 L 761.8,1551.7 L 761.8,8.5 L 865.6,8.5 L 865.6,1342.0 " fill="none" stroke="url(#strokeB)" stroke-width="1.69" stroke-linecap="round" stroke-linejoin="round"/><circle cx="739.0" cy="1551.7" r="2.3" fill="#FF4D8D" opacity="0.45"/><circle cx="865.6" cy="1342.0" r="3.5" fill="#FF4D8D" opacity="0.45"/><circle cx="865.6" cy="8.5" r="3.8" fill="#FF4D8D" opacity="0.45"/></g>
<g opacity="0.185" filter="url(#softGlow)"><path d="M 1.3,174.8 L 796.7,174.8 L 796.7,1247.0 L 39.5,1247.0 L 39.5,1597.6 " fill="none" stroke="url(#strokeB)" stroke-width="1.66" stroke-linecap="round" stroke-linejoin="round"/><circle cx="1.3" cy="174.8" r="2.5" fill="#FF4D8D" opacity="0.45"/><circle cx="39.5" cy="1247.0" r="3.0" fill="#FF4D8D" opacity="0.45"/><circle cx="796.7" cy="1247.0" r="2.4" fill="#FF4D8D" opacity="0.45"/></g>
<g opacity="0.185" filter="url(#softGlow)"><path d="M 130.4,1442.0 L 874.1,1442.0 L 874.1,1425.4 L 16.1,1425.4 L 16.1,188.3 " fill="none" stroke="url(#strokeB)" stroke-width="1.18" stroke-linecap="round" stroke-linejoin="round"/><circle cx="16.1" cy="188.3" r="3.1" fill="#FF4D8D" opacity="0.45"/><circle cx="874.1" cy="1442.0" r="2.9" fill="#FF4D8D" opacity="0.45"/><circle cx="130.4" cy="1442.0" r="3.5" fill="#FF4D8D" opacity="0.45"/></g>
<g opacity="0.185" filter="url(#softGlow)"><path d="M 37.0,118.3 L 892.2,118.3 L 892.2,38.9 L 508.0,38.9 L 508.0,103.7 " fill="none" stroke="url(#strokeB)" stroke-width="1.27" stroke-linecap="round" stroke-linejoin="round"/><circle cx="508.0" cy="103.7" r="2.3" fill="#FF4D8D" opacity="0.45"/><circle cx="892.2" cy="118.3" r="2.6" fill="#FF4D8D" opacity="0.45"/><circle cx="892.2" cy="38.9" r="3.0" fill="#FF4D8D" opacity="0.45"/></g>
<g opacity="0.185" filter="url(#softGlow)"><path d="M 745.3,369.2 L 422.8,369.2 L 422.8,1550.0 L 834.5,1550.0 L 834.5,831.4 " fill="none" stroke="url(#strokeB)" stroke-width="1.11" stroke-linecap="round" stroke-linejoin="round"/><circle cx="745.3" cy="369.2" r="3.0" fill="#FF4D8D" opacity="0.45"/><circle cx="834.5" cy="1550.0" r="4.0" fill="#FF4D8D" opacity="0.45"/><circle cx="422.8" cy="369.2" r="2.5" fill="#FF4D8D" opacity="0.45"/></g>
<g opacity="0.185" filter="url(#softGlow)"><path d="M 866.1,136.1 L 331.1,136.1 L 331.1,124.5 L 866.3,124.5 L 866.3,1559.6 " fill="none" stroke="url(#strokeB)" stroke-width="2.17" stroke-linecap="round" stroke-linejoin="round"/><circle cx="331.1" cy="124.5" r="2.3" fill="#FF4D8D" opacity="0.45"/><circle cx="866.3" cy="1559.6" r="2.9" fill="#FF4D8D" opacity="0.45"/><circle cx="866.1" cy="136.1" r="2.5" fill="#FF4D8D" opacity="0.45"/></g>
<g opacity="0.185" filter="url(#softGlow)"><path d="M 790.3,107.5 L 849.3,107.5 L 849.3,69.8 L 580.9,69.8 L 580.9,134.3 " fill="none" stroke="url(#strokeB)" stroke-width="1.43" stroke-linecap="round" stroke-linejoin="round"/><circle cx="580.9" cy="134.3" r="2.9" fill="#FF4D8D" opacity="0.45"/><circle cx="849.3" cy="107.5" r="3.3" fill="#FF4D8D" opacity="0.45"/><circle cx="849.3" cy="69.8" r="3.5" fill="#FF4D8D" opacity="0.45"/></g>
<g opacity="0.185" filter="url(#softGlow)"><path d="M 779.3,1508.9 L 87.8,1508.9 L 87.8,403.8 L 782.8,403.8 L 782.8,127.0 " fill="none" stroke="url(#strokeB)" stroke-width="1.12" stroke-linecap="round" stroke-linejoin="round"/><circle cx="782.8" cy="403.8" r="3.3" fill="#FF4D8D" opacity="0.45"/><circle cx="87.8" cy="1508.9" r="4.2" fill="#FF4D8D" opacity="0.45"/><circle cx="87.8" cy="403.8" r="3.9" fill="#FF4D8D" opacity="0.45"/></g>

<g opacity="0.835" filter="url(#hardGlow)">
  <circle cx="846.8" cy="91.1" r="45.3" fill="#0A1224" opacity="0.65"/>
  <circle cx="846.8" cy="91.1" r="45.3" fill="none" stroke="url(#strokeA)" stroke-width="3.6" opacity="0.85"/>
  <circle cx="846.8" cy="91.1" r="38.9" fill="none" stroke="#14C2FF" stroke-width="1.5" opacity="0.35"/>
  <polygon points="832.0,120.2 814.2,92.9 829.0,63.8 861.5,62.1 879.3,89.3 864.6,118.4" fill="none" stroke="url(#strokeB)" stroke-width="1.2" opacity="0.65"/>
  <polygon points="838.4,98.9 844.2,80.0 857.7,94.4" fill="#14C2FF" opacity="0.22" filter="url(#softGlow)"/>
</g>


<g opacity="0.528" filter="url(#hardGlow)">
  <circle cx="831.2" cy="118.7" r="20.2" fill="#0A1224" opacity="0.65"/>
  <circle cx="831.2" cy="118.7" r="20.2" fill="none" stroke="url(#strokeA)" stroke-width="2.0" opacity="0.85"/>
  <circle cx="831.2" cy="118.7" r="17.3" fill="none" stroke="#FF4D8D" stroke-width="1.5" opacity="0.35"/>
  <polygon points="845.7,118.1 839.0,131.0 824.5,131.6 816.7,119.3 823.4,106.5 837.9,105.9" fill="none" stroke="url(#strokeB)" stroke-width="1.2" opacity="0.65"/>
  
</g>


<g opacity="0.512" filter="url(#hardGlow)">
  <circle cx="811.6" cy="74.8" r="18.2" fill="#0A1224" opacity="0.65"/>
  <circle cx="811.6" cy="74.8" r="18.2" fill="none" stroke="url(#strokeA)" stroke-width="2.0" opacity="0.85"/>
  <circle cx="811.6" cy="74.8" r="15.6" fill="none" stroke="#FF4D8D" stroke-width="1.5" opacity="0.35"/>
  <polygon points="810.0,87.8 799.6,79.9 801.2,66.9 813.2,61.8 823.7,69.7 822.0,82.7" fill="none" stroke="url(#strokeB)" stroke-width="1.2" opacity="0.65"/>
  <polygon points="809.5,78.9 809.1,71.0 816.2,74.6" fill="#FF4D8D" opacity="0.22" filter="url(#softGlow)"/>
</g>


<g opacity="0.655" filter="url(#hardGlow)">
  <circle cx="800.4" cy="1537.3" r="52.9" fill="#0A1224" opacity="0.65"/>
  <circle cx="800.4" cy="1537.3" r="52.9" fill="none" stroke="url(#strokeA)" stroke-width="4.2" opacity="0.85"/>
  <circle cx="800.4" cy="1537.3" r="45.5" fill="none" stroke="#14C2FF" stroke-width="1.6" opacity="0.35"/>
  <polygon points="824.4,1507.8 838.0,1543.3 814.0,1572.9 776.4,1566.9 762.8,1531.3 786.8,1501.8" fill="none" stroke="url(#strokeB)" stroke-width="1.3" opacity="0.65"/>
  <polygon points="811.9,1530.5 800.6,1550.7 788.8,1530.9" fill="#14C2FF" opacity="0.22" filter="url(#softGlow)"/>
</g>


<g opacity="0.498" filter="url(#hardGlow)">
  <circle cx="873.3" cy="1494.6" r="24.2" fill="#0A1224" opacity="0.65"/>
  <circle cx="873.3" cy="1494.6" r="24.2" fill="none" stroke="url(#strokeA)" stroke-width="2.0" opacity="0.85"/>
  <circle cx="873.3" cy="1494.6" r="20.9" fill="none" stroke="#FF4D8D" stroke-width="1.5" opacity="0.35"/>
  <polygon points="888.8,1486.6 888.0,1504.0 872.5,1512.1 857.8,1502.7 858.5,1485.2 874.0,1477.2" fill="none" stroke="url(#strokeB)" stroke-width="1.2" opacity="0.65"/>
  <polygon points="879.3,1493.8 870.9,1500.3 869.5,1489.8" fill="#FF4D8D" opacity="0.22" filter="url(#softGlow)"/>
</g>


<g opacity="0.477" filter="url(#hardGlow)">
  <circle cx="860.0" cy="1509.1" r="26.9" fill="#0A1224" opacity="0.65"/>
  <circle cx="860.0" cy="1509.1" r="26.9" fill="none" stroke="url(#strokeA)" stroke-width="2.2" opacity="0.85"/>
  <circle cx="860.0" cy="1509.1" r="23.2" fill="none" stroke="#FF4D8D" stroke-width="1.5" opacity="0.35"/>
  <polygon points="864.1,1490.1 878.5,1503.2 874.4,1522.1 855.9,1528.1 841.5,1515.1 845.6,1496.1" fill="none" stroke="url(#strokeB)" stroke-width="1.2" opacity="0.65"/>
  <polygon points="863.6,1503.4 863.2,1515.1 853.2,1508.9" fill="#FF4D8D" opacity="0.22" filter="url(#softGlow)"/>
</g>


<g opacity="0.841" filter="url(#hardGlow)">
  <circle cx="797.8" cy="34.7" r="44.6" fill="#0A1224" opacity="0.65"/>
  <circle cx="797.8" cy="34.7" r="44.6" fill="none" stroke="url(#strokeA)" stroke-width="3.6" opacity="0.85"/>
  <circle cx="797.8" cy="34.7" r="38.3" fill="none" stroke="#14C2FF" stroke-width="1.5" opacity="0.35"/>
  <polygon points="775.0,12.0 806.0,3.6 828.7,26.3 820.5,57.3 789.5,65.7 766.8,43.0" fill="none" stroke="url(#strokeB)" stroke-width="1.2" opacity="0.65"/>
  <polygon points="793.0,24.5 808.9,35.6 791.3,43.9" fill="#14C2FF" opacity="0.22" filter="url(#softGlow)"/>
</g>


<g opacity="0.416" filter="url(#hardGlow)">
  <circle cx="794.4" cy="38.0" r="20.6" fill="#0A1224" opacity="0.65"/>
  <circle cx="794.4" cy="38.0" r="20.6" fill="none" stroke="url(#strokeA)" stroke-width="2.0" opacity="0.85"/>
  <circle cx="794.4" cy="38.0" r="17.7" fill="none" stroke="#FF4D8D" stroke-width="1.5" opacity="0.35"/>
  <polygon points="786.8,25.2 801.6,25.0 809.2,37.8 802.0,50.8 787.1,51.0 779.6,38.2" fill="none" stroke="url(#strokeB)" stroke-width="1.2" opacity="0.65"/>
  
</g>


<g opacity="0.720" filter="url(#hardGlow)">
  <circle cx="334.0" cy="1498.6" r="51.6" fill="#0A1224" opacity="0.65"/>
  <circle cx="334.0" cy="1498.6" r="51.6" fill="none" stroke="url(#strokeA)" stroke-width="4.1" opacity="0.85"/>
  <circle cx="334.0" cy="1498.6" r="44.4" fill="none" stroke="#14C2FF" stroke-width="1.5" opacity="0.35"/>
  <polygon points="334.0,1461.5 366.2,1480.1 366.2,1517.2 334.0,1535.8 301.8,1517.2 301.8,1480.0" fill="none" stroke="url(#strokeB)" stroke-width="1.3" opacity="0.65"/>
  <polygon points="338.5,1486.4 342.4,1508.6 321.2,1500.9" fill="#14C2FF" opacity="0.22" filter="url(#softGlow)"/>
</g>


<g opacity="0.391" filter="url(#hardGlow)">
  <circle cx="378.8" cy="1528.5" r="23.0" fill="#0A1224" opacity="0.65"/>
  <circle cx="378.8" cy="1528.5" r="23.0" fill="none" stroke="url(#strokeA)" stroke-width="2.0" opacity="0.85"/>
  <circle cx="378.8" cy="1528.5" r="19.8" fill="none" stroke="#FF4D8D" stroke-width="1.5" opacity="0.35"/>
  <polygon points="373.9,1544.4 362.6,1532.2 367.5,1516.4 383.7,1512.7 395.0,1524.8 390.1,1540.7" fill="none" stroke="url(#strokeB)" stroke-width="1.2" opacity="0.65"/>
  
</g>


<g opacity="0.596" filter="url(#hardGlow)">
  <circle cx="406.8" cy="1457.2" r="26.5" fill="#0A1224" opacity="0.65"/>
  <circle cx="406.8" cy="1457.2" r="26.5" fill="none" stroke="url(#strokeA)" stroke-width="2.1" opacity="0.85"/>
  <circle cx="406.8" cy="1457.2" r="22.8" fill="none" stroke="#FF4D8D" stroke-width="1.5" opacity="0.35"/>
  <polygon points="401.9,1475.6 388.4,1462.1 393.3,1443.7 411.8,1438.8 425.2,1452.3 420.3,1470.7" fill="none" stroke="url(#strokeB)" stroke-width="1.2" opacity="0.65"/>
  <polygon points="403.0,1462.6 404.0,1451.1 413.5,1457.8" fill="#FF4D8D" opacity="0.22" filter="url(#softGlow)"/>
</g>


<g opacity="0.714" filter="url(#hardGlow)">
  <circle cx="780.8" cy="81.0" r="37.1" fill="#0A1224" opacity="0.65"/>
  <circle cx="780.8" cy="81.0" r="37.1" fill="none" stroke="url(#strokeA)" stroke-width="3.0" opacity="0.85"/>
  <circle cx="780.8" cy="81.0" r="31.9" fill="none" stroke="#14C2FF" stroke-width="1.5" opacity="0.35"/>
  <polygon points="757.5,67.8 780.6,54.2 803.8,67.5 804.0,94.2 780.9,107.7 757.7,94.5" fill="none" stroke="url(#strokeB)" stroke-width="1.2" opacity="0.65"/>
  <polygon points="774.7,73.9 790.0,79.3 777.6,89.8" fill="#14C2FF" opacity="0.22" filter="url(#softGlow)"/>
</g>


<g opacity="0.350" filter="url(#hardGlow)">
  <circle cx="764.1" cy="102.8" r="15.5" fill="#0A1224" opacity="0.65"/>
  <circle cx="764.1" cy="102.8" r="15.5" fill="none" stroke="url(#strokeA)" stroke-width="2.0" opacity="0.85"/>
  <circle cx="764.1" cy="102.8" r="13.3" fill="none" stroke="#FF4D8D" stroke-width="1.5" opacity="0.35"/>
  <polygon points="763.4,113.9 754.1,107.7 754.8,96.6 764.7,91.7 774.0,97.8 773.3,108.9" fill="none" stroke="url(#strokeB)" stroke-width="1.2" opacity="0.65"/>
  <polygon points="762.5,106.4 761.7,99.7 767.9,102.3" fill="#FF4D8D" opacity="0.22" filter="url(#softGlow)"/>
</g>


<g opacity="0.747" filter="url(#hardGlow)">
  <circle cx="95.4" cy="955.2" r="53.2" fill="#0A1224" opacity="0.65"/>
  <circle cx="95.4" cy="955.2" r="53.2" fill="none" stroke="url(#strokeA)" stroke-width="4.3" opacity="0.85"/>
  <circle cx="95.4" cy="955.2" r="45.8" fill="none" stroke="#14C2FF" stroke-width="1.6" opacity="0.35"/>
  <polygon points="133.5,951.1 118.0,986.2 79.9,990.3 57.3,959.3 72.8,924.2 110.9,920.1" fill="none" stroke="url(#strokeB)" stroke-width="1.3" opacity="0.65"/>
  <polygon points="108.4,958.4 86.1,964.9 91.7,942.3" fill="#14C2FF" opacity="0.22" filter="url(#softGlow)"/>
</g>


<g opacity="0.644" filter="url(#hardGlow)">
  <circle cx="48.7" cy="917.8" r="22.1" fill="#0A1224" opacity="0.65"/>
  <circle cx="48.7" cy="917.8" r="22.1" fill="none" stroke="url(#strokeA)" stroke-width="2.0" opacity="0.85"/>
  <circle cx="48.7" cy="917.8" r="19.0" fill="none" stroke="#FF4D8D" stroke-width="1.5" opacity="0.35"/>
  <polygon points="61.9,909.0 62.9,924.8 49.7,933.6 35.4,926.6 34.5,910.7 47.7,901.9" fill="none" stroke="url(#strokeB)" stroke-width="1.2" opacity="0.65"/>
  
</g>


<g opacity="0.405" filter="url(#hardGlow)">
  <circle cx="151.9" cy="979.4" r="27.0" fill="#0A1224" opacity="0.65"/>
  <circle cx="151.9" cy="979.4" r="27.0" fill="none" stroke="url(#strokeA)" stroke-width="2.2" opacity="0.85"/>
  <circle cx="151.9" cy="979.4" r="23.2" fill="none" stroke="#FF4D8D" stroke-width="1.5" opacity="0.35"/>
  <polygon points="171.4,979.0 162.1,996.0 142.6,996.5 132.5,979.9 141.8,962.8 161.2,962.4" fill="none" stroke="url(#strokeB)" stroke-width="1.2" opacity="0.65"/>
  <polygon points="158.4,981.6 146.8,983.9 150.6,972.8" fill="#FF4D8D" opacity="0.22" filter="url(#softGlow)"/>
</g>


<g opacity="0.706" filter="url(#hardGlow)">
  <circle cx="797.8" cy="1049.4" r="37.7" fill="#0A1224" opacity="0.65"/>
  <circle cx="797.8" cy="1049.4" r="37.7" fill="none" stroke="url(#strokeA)" stroke-width="3.0" opacity="0.85"/>
  <circle cx="797.8" cy="1049.4" r="32.4" fill="none" stroke="#14C2FF" stroke-width="1.5" opacity="0.35"/>
  <polygon points="779.3,1069.3 771.3,1043.4 789.7,1023.5 816.2,1029.5 824.2,1055.4 805.8,1075.4" fill="none" stroke="url(#strokeB)" stroke-width="1.2" opacity="0.65"/>
  <polygon points="789.3,1053.8 798.2,1039.9 805.7,1054.6" fill="#14C2FF" opacity="0.22" filter="url(#softGlow)"/>
</g>


<g opacity="0.596" filter="url(#hardGlow)">
  <circle cx="808.6" cy="1056.0" r="13.5" fill="#0A1224" opacity="0.65"/>
  <circle cx="808.6" cy="1056.0" r="13.5" fill="none" stroke="url(#strokeA)" stroke-width="2.0" opacity="0.85"/>
  <circle cx="808.6" cy="1056.0" r="11.6" fill="none" stroke="#FF4D8D" stroke-width="1.5" opacity="0.35"/>
  <polygon points="803.8,1047.6 813.5,1047.6 818.3,1056.1 813.4,1064.4 803.7,1064.4 798.9,1055.9" fill="none" stroke="url(#strokeB)" stroke-width="1.2" opacity="0.65"/>
  
</g>


<g opacity="0.366" filter="url(#hardGlow)">
  <circle cx="813.8" cy="1011.9" r="13.9" fill="#0A1224" opacity="0.65"/>
  <circle cx="813.8" cy="1011.9" r="13.9" fill="none" stroke="url(#strokeA)" stroke-width="2.0" opacity="0.85"/>
  <circle cx="813.8" cy="1011.9" r="11.9" fill="none" stroke="#FF4D8D" stroke-width="1.5" opacity="0.35"/>
  <polygon points="815.7,1002.1 823.3,1008.6 821.4,1018.4 812.0,1021.7 804.4,1015.2 806.2,1005.4" fill="none" stroke="url(#strokeB)" stroke-width="1.2" opacity="0.65"/>
  <polygon points="815.6,1008.9 815.6,1014.9 810.3,1011.9" fill="#FF4D8D" opacity="0.22" filter="url(#softGlow)"/>
</g>


<g opacity="0.595" filter="url(#hardGlow)">
  <circle cx="800.0" cy="1091.6" r="15.1" fill="#0A1224" opacity="0.65"/>
  <circle cx="800.0" cy="1091.6" r="15.1" fill="none" stroke="url(#strokeA)" stroke-width="2.0" opacity="0.85"/>
  <circle cx="800.0" cy="1091.6" r="13.0" fill="none" stroke="#FF4D8D" stroke-width="1.5" opacity="0.35"/>
  <polygon points="794.9,1101.2 789.1,1092.0 794.2,1082.3 805.1,1082.0 810.9,1091.2 805.7,1100.8" fill="none" stroke="url(#strokeB)" stroke-width="1.2" opacity="0.65"/>
  
</g>


<g opacity="0.316" transform="translate(788.9,97.2) rotate(-5.8)" filter="url(#softGlow)">
  <rect x="-98.0" y="-91.4" width="195.9" height="182.9" rx="18.3" fill="#050A12" opacity="0.25"/>
  <rect x="-98.0" y="-91.4" width="195.9" height="182.9" rx="18.3" fill="none" stroke="url(#strokeA)" stroke-width="9.1" opacity="0.85"/>
  <rect x="-83.3" y="-76.8" width="166.7" height="153.6" rx="12.8" fill="none" stroke="#14C2FF" stroke-width="3.7" opacity="0.35"/>
</g>


<g opacity="0.357" transform="translate(805.9,18.7) rotate(3.1)" filter="url(#softGlow)">
  <rect x="-77.3" y="-56.8" width="154.5" height="113.6" rx="11.4" fill="#050A12" opacity="0.25"/>
  <rect x="-77.3" y="-56.8" width="154.5" height="113.6" rx="11.4" fill="none" stroke="url(#strokeA)" stroke-width="5.7" opacity="0.85"/>
  <rect x="-68.2" y="-47.7" width="136.4" height="95.4" rx="8.0" fill="none" stroke="#14C2FF" stroke-width="2.3" opacity="0.35"/>
</g>


<g opacity="0.407" transform="translate(753.4,1360.3) rotate(4.4)" filter="url(#softGlow)">
  <rect x="-86.9" y="-62.8" width="173.9" height="125.6" rx="12.6" fill="#050A12" opacity="0.25"/>
  <rect x="-86.9" y="-62.8" width="173.9" height="125.6" rx="12.6" fill="none" stroke="url(#strokeA)" stroke-width="6.3" opacity="0.85"/>
  <rect x="-76.9" y="-52.8" width="153.8" height="105.5" rx="8.8" fill="none" stroke="#FF4D8D" stroke-width="2.5" opacity="0.35"/>
</g>


<g opacity="0.384" transform="translate(44.6,1513.5) rotate(-15.7)" filter="url(#softGlow)">
  <rect x="-40.1" y="-23.1" width="80.2" height="46.2" rx="14.1" fill="none" stroke="#FF4D8D" stroke-width="7.7" opacity="0.55"/>
  <rect x="-17.6" y="-11.5" width="80.2" height="46.2" rx="14.1" fill="none" stroke="url(#strokeA)" stroke-width="6.4" opacity="0.55"/>
</g>


<g opacity="0.337" transform="translate(883.4,38.0) rotate(4.3)" filter="url(#softGlow)">
  <rect x="-40.3" y="-23.2" width="80.6" height="46.4" rx="14.2" fill="none" stroke="#FF4D8D" stroke-width="7.7" opacity="0.55"/>
  <rect x="-17.7" y="-11.6" width="80.6" height="46.4" rx="14.2" fill="none" stroke="url(#strokeA)" stroke-width="6.4" opacity="0.55"/>
</g>


<g opacity="0.357" transform="translate(150.2,1456.2) rotate(-6.6)" filter="url(#softGlow)">
  <rect x="-44.7" y="-25.8" width="89.4" height="51.5" rx="15.7" fill="none" stroke="#FF4D8D" stroke-width="8.6" opacity="0.55"/>
  <rect x="-19.7" y="-12.9" width="89.4" height="51.5" rx="15.7" fill="none" stroke="url(#strokeA)" stroke-width="7.2" opacity="0.55"/>
</g>


<g opacity="0.312" transform="translate(157.0,1131.8) rotate(-9.9)" filter="url(#softGlow)">
  <rect x="-42.7" y="-24.6" width="85.5" height="49.2" rx="15.0" fill="none" stroke="#FF4D8D" stroke-width="8.2" opacity="0.55"/>
  <rect x="-18.8" y="-12.3" width="85.5" height="49.2" rx="15.0" fill="none" stroke="url(#strokeA)" stroke-width="6.8" opacity="0.55"/>
</g>


<g opacity="0.332" transform="translate(73.7,85.6) rotate(-12.3)" filter="url(#softGlow)">
  <rect x="-30.9" y="-17.8" width="61.8" height="35.6" rx="10.9" fill="none" stroke="#FF4D8D" stroke-width="5.9" opacity="0.55"/>
  <rect x="-13.6" y="-8.9" width="61.8" height="35.6" rx="10.9" fill="none" stroke="url(#strokeA)" stroke-width="4.9" opacity="0.55"/>
</g>


<g opacity="0.276" transform="translate(735.6,131.8) rotate(4.8)" filter="url(#softGlow)">
  <rect x="-37.2" y="-21.4" width="74.3" height="42.8" rx="13.1" fill="none" stroke="#14C2FF" stroke-width="7.1" opacity="0.55"/>
  <rect x="-16.3" y="-10.7" width="74.3" height="42.8" rx="13.1" fill="none" stroke="url(#strokeA)" stroke-width="5.9" opacity="0.55"/>
</g>


<g opacity="0.395" transform="translate(884.4,36.6) rotate(8.2)" filter="url(#softGlow)">
  <rect x="-35.0" y="-20.2" width="70.0" height="40.3" rx="12.3" fill="none" stroke="#14C2FF" stroke-width="6.7" opacity="0.55"/>
  <rect x="-15.4" y="-10.1" width="70.0" height="40.3" rx="12.3" fill="none" stroke="url(#strokeA)" stroke-width="5.6" opacity="0.55"/>
</g>


<g opacity="0.387" transform="translate(570.7,1535.8) rotate(17.2)" filter="url(#softGlow)">
  <rect x="-41.5" y="-23.9" width="83.1" height="47.9" rx="14.6" fill="none" stroke="#FF4D8D" stroke-width="8.0" opacity="0.55"/>
  <rect x="-18.3" y="-12.0" width="83.1" height="47.9" rx="14.6" fill="none" stroke="url(#strokeA)" stroke-width="6.6" opacity="0.55"/>
</g>


<g opacity="0.222" transform="translate(592.5,100.9) rotate(5.8)" filter="url(#softGlow)">
  <rect x="-42.0" y="-24.2" width="83.9" height="48.3" rx="14.8" fill="none" stroke="#FF4D8D" stroke-width="8.1" opacity="0.55"/>
  <rect x="-18.5" y="-12.1" width="83.9" height="48.3" rx="14.8" fill="none" stroke="url(#strokeA)" stroke-width="6.7" opacity="0.55"/>
</g>


<g opacity="0.397" transform="translate(158.8,54.0) rotate(-6.8)" filter="url(#softGlow)">
  <rect x="-40.3" y="-23.2" width="80.6" height="46.4" rx="14.2" fill="none" stroke="#14C2FF" stroke-width="7.7" opacity="0.55"/>
  <rect x="-17.7" y="-11.6" width="80.6" height="46.4" rx="14.2" fill="none" stroke="url(#strokeA)" stroke-width="6.4" opacity="0.55"/>
</g>


<g opacity="0.225">
  <line x1="353.7" y1="1396.9" x2="353.7" y2="1493.6" stroke="#FF4D8D" stroke-width="1.60" opacity="0.45"/>
  <rect x="350.4" y="1445.3" width="6.5" height="58.0" rx="2.2" fill="#0B1020" opacity="0.55" stroke="url(#strokeA)" stroke-width="1.2"/>
</g>

<g opacity="0.225">
  <line x1="297.7" y1="1391.2" x2="297.7" y2="1495.1" stroke="#FF4D8D" stroke-width="1.95" opacity="0.45"/>
  <rect x="292.4" y="1450.1" width="10.5" height="48.3" rx="3.5" fill="#0B1020" opacity="0.55" stroke="url(#strokeA)" stroke-width="1.2"/>
</g>

<g opacity="0.225">
  <line x1="295.0" y1="1412.0" x2="295.0" y2="1489.9" stroke="#FF4D8D" stroke-width="1.43" opacity="0.45"/>
  <rect x="289.3" y="1458.3" width="11.3" height="32.0" rx="3.8" fill="#0B1020" opacity="0.55" stroke="url(#strokeA)" stroke-width="1.2"/>
</g>

<g opacity="0.225">
  <line x1="42.5" y1="1391.9" x2="42.5" y2="1494.9" stroke="#FF4D8D" stroke-width="1.76" opacity="0.45"/>
  <rect x="38.8" y="1452.8" width="7.4" height="42.9" rx="2.5" fill="#0B1020" opacity="0.55" stroke="url(#strokeA)" stroke-width="1.2"/>
</g>

<g opacity="0.225">
  <line x1="460.4" y1="1403.4" x2="460.4" y2="1492.0" stroke="#FF4D8D" stroke-width="2.02" opacity="0.45"/>
  <rect x="457.4" y="1456.5" width="6.0" height="35.5" rx="2.0" fill="#0B1020" opacity="0.55" stroke="url(#strokeA)" stroke-width="1.2"/>
</g>

<g opacity="0.225">
  <line x1="874.1" y1="1413.6" x2="874.1" y2="1489.5" stroke="#FF4D8D" stroke-width="1.70" opacity="0.45"/>
  <rect x="868.1" y="1450.0" width="11.9" height="48.5" rx="4.0" fill="#0B1020" opacity="0.55" stroke="url(#strokeA)" stroke-width="1.2"/>
</g>

<g opacity="0.225">
  <line x1="228.7" y1="1430.3" x2="228.7" y2="1485.3" stroke="#FF4D8D" stroke-width="1.19" opacity="0.45"/>
  <rect x="224.2" y="1463.8" width="9.0" height="21.0" rx="3.0" fill="#0B1020" opacity="0.55" stroke="url(#strokeA)" stroke-width="1.2"/>
</g>

<g opacity="0.225">
  <line x1="569.5" y1="1389.1" x2="569.5" y2="1495.6" stroke="#FF4D8D" stroke-width="1.67" opacity="0.45"/>
  <rect x="563.8" y="1446.0" width="11.5" height="56.5" rx="3.8" fill="#0B1020" opacity="0.55" stroke="url(#strokeA)" stroke-width="1.2"/>
</g>

<g opacity="0.225">
  <line x1="770.0" y1="1400.0" x2="770.0" y2="1492.9" stroke="#FF4D8D" stroke-width="2.02" opacity="0.45"/>
  <rect x="765.7" y="1448.7" width="8.5" height="51.3" rx="2.8" fill="#0B1020" opacity="0.55" stroke="url(#strokeA)" stroke-width="1.2"/>
</g>

<g opacity="0.225">
  <line x1="676.5" y1="1416.7" x2="676.5" y2="1488.7" stroke="#FF4D8D" stroke-width="1.28" opacity="0.45"/>
  <rect x="670.7" y="1459.5" width="11.6" height="29.6" rx="3.9" fill="#0B1020" opacity="0.55" stroke="url(#strokeA)" stroke-width="1.2"/>
</g>

<g opacity="0.225">
  <line x1="472.3" y1="1406.8" x2="472.3" y2="1491.2" stroke="#FF4D8D" stroke-width="2.08" opacity="0.45"/>
  <rect x="468.6" y="1458.4" width="7.3" height="31.7" rx="2.4" fill="#0B1020" opacity="0.55" stroke="url(#strokeA)" stroke-width="1.2"/>
</g>

<g opacity="0.225">
  <line x1="545.8" y1="1433.9" x2="545.8" y2="1484.4" stroke="#FF4D8D" stroke-width="1.75" opacity="0.45"/>
  <rect x="541.4" y="1459.5" width="8.8" height="29.5" rx="2.9" fill="#0B1020" opacity="0.55" stroke="url(#strokeA)" stroke-width="1.2"/>
</g>

<g opacity="0.225">
  <line x1="190.8" y1="1389.5" x2="190.8" y2="1495.5" stroke="#FF4D8D" stroke-width="1.59" opacity="0.45"/>
  <rect x="185.3" y="1451.2" width="10.9" height="46.2" rx="3.6" fill="#0B1020" opacity="0.55" stroke="url(#strokeA)" stroke-width="1.2"/>
</g>

<g opacity="0.225">
  <line x1="214.5" y1="1394.8" x2="214.5" y2="1494.2" stroke="#FF4D8D" stroke-width="1.25" opacity="0.45"/>
  <rect x="208.9" y="1453.9" width="11.3" height="40.7" rx="3.8" fill="#0B1020" opacity="0.55" stroke="url(#strokeA)" stroke-width="1.2"/>
</g>

<g opacity="0.225">
  <line x1="141.8" y1="1402.2" x2="141.8" y2="1492.3" stroke="#FF4D8D" stroke-width="1.04" opacity="0.45"/>
  <rect x="138.4" y="1445.8" width="6.8" height="56.9" rx="2.3" fill="#0B1020" opacity="0.55" stroke="url(#strokeA)" stroke-width="1.2"/>
</g>

<g opacity="0.225">
  <line x1="241.5" y1="1416.1" x2="241.5" y2="1488.8" stroke="#FF4D8D" stroke-width="1.71" opacity="0.45"/>
  <rect x="237.9" y="1457.6" width="7.1" height="33.3" rx="2.4" fill="#0B1020" opacity="0.55" stroke="url(#strokeA)" stroke-width="1.2"/>
</g>

<g opacity="0.225">
  <line x1="156.1" y1="1438.8" x2="156.1" y2="1483.2" stroke="#FF4D8D" stroke-width="1.23" opacity="0.45"/>
  <rect x="150.2" y="1464.4" width="11.8" height="19.8" rx="3.9" fill="#0B1020" opacity="0.55" stroke="url(#strokeA)" stroke-width="1.2"/>
</g>
<circle cx="731.3" cy="1561.2" r="1.4" fill="#14C2FF" opacity="0.20" filter="url(#softGlow)"/>
<circle cx="857.4" cy="478.1" r="3.1" fill="#14C2FF" opacity="0.19" filter="url(#softGlow)"/>
<circle cx="851.9" cy="1579.8" r="2.7" fill="#14C2FF" opacity="0.21" filter="url(#softGlow)"/>
<circle cx="75.6" cy="401.3" r="1.9" fill="#14C2FF" opacity="0.23" filter="url(#softGlow)"/>
<circle cx="756.5" cy="127.1" r="1.5" fill="#14C2FF" opacity="0.17" filter="url(#softGlow)"/>
<circle cx="78.8" cy="139.8" r="1.6" fill="#14C2FF" opacity="0.20" filter="url(#softGlow)"/>
<circle cx="11.9" cy="1483.6" r="3.2" fill="#14C2FF" opacity="0.28" filter="url(#softGlow)"/>
<circle cx="224.3" cy="1583.9" r="1.8" fill="#14C2FF" opacity="0.16" filter="url(#softGlow)"/>
<circle cx="156.7" cy="1574.3" r="2.6" fill="#14C2FF" opacity="0.18" filter="url(#softGlow)"/>
<circle cx="829.3" cy="204.3" r="1.6" fill="#14C2FF" opacity="0.16" filter="url(#softGlow)"/>
<circle cx="35.7" cy="147.7" r="2.8" fill="#14C2FF" opacity="0.19" filter="url(#softGlow)"/>
<circle cx="59.2" cy="51.9" r="2.9" fill="#14C2FF" opacity="0.12" filter="url(#softGlow)"/>
<circle cx="877.3" cy="1472.3" r="2.5" fill="#14C2FF" opacity="0.14" filter="url(#softGlow)"/>
<circle cx="569.6" cy="1448.3" r="2.8" fill="#14C2FF" opacity="0.27" filter="url(#softGlow)"/>
<circle cx="139.8" cy="1511.7" r="2.3" fill="#14C2FF" opacity="0.12" filter="url(#softGlow)"/>
<circle cx="143.0" cy="1423.0" r="1.9" fill="#14C2FF" opacity="0.15" filter="url(#softGlow)"/>
<circle cx="94.3" cy="112.8" r="1.9" fill="#14C2FF" opacity="0.15" filter="url(#softGlow)"/>
<circle cx="103.1" cy="173.0" r="2.4" fill="#14C2FF" opacity="0.19" filter="url(#softGlow)"/>
<circle cx="312.5" cy="1527.0" r="2.1" fill="#14C2FF" opacity="0.20" filter="url(#softGlow)"/>
<circle cx="435.7" cy="1599.7" r="2.7" fill="#14C2FF" opacity="0.21" filter="url(#softGlow)"/>
<circle cx="812.9" cy="871.8" r="2.0" fill="#14C2FF" opacity="0.24" filter="url(#softGlow)"/>
<circle cx="728.1" cy="7.4" r="2.0" fill="#14C2FF" opacity="0.27" filter="url(#softGlow)"/>
<circle cx="875.6" cy="169.8" r="1.4" fill="#14C2FF" opacity="0.20" filter="url(#softGlow)"/>
<circle cx="826.6" cy="115.9" r="3.2" fill="#14C2FF" opacity="0.24" filter="url(#softGlow)"/>
</svg>