<svg xmlns="http://www.w3.org/2000/svg" width="900" height="1600" viewBox="0 0 900 1600" preserveAspectRatio="xMidYMid slice">
<defs>
  <linearGradient id="g0" x1="0" y1="0" x2="1" y2="1">
    <stop offset="0" stop-color="#0B1020"/>
    <stop offset="0.55" stop-color="#00E5FF" stop-opacity="0.9"/>
    <stop offset="1" stop-color="#051018"/>
  </linearGradient>
  <radialGradient id="g1" cx="20%" cy="15%" r="70%">
    <stop offset="0" stop-color="#7C4DFF" stop-opacity="0.38"/>
    <stop offset="0.6" stop-color="#7C4DFF" stop-opacity="0.08"/>
    <stop offset="1" stop-color="#7C4DFF" stop-opacity="0"/>
  </radialGradient>
  <radialGradient id="g2" cx="85%" cy="80%" r="75%">
    <stop offset="0" stop-color="#7C4DFF" stop-opacity="0.28"/>
    <stop offset="0.65" stop-color="#7C4DFF" stop-opacity="0.06"/>
    <stop offset="1" stop-color="#7C4DFF" stop-opacity="0"/>
  </radialGradient>
  <filter id="softGlow" x="-30%" y="-30%" width="160%" height="160%">
    <feGaussianBlur stdDeviation="12" result="b"/>
    <feMerge>
      <feMergeNode in="b"/>
      <feMergeNode in="SourceGraphic"/>
    </feMerge>
  </filter>
  <filter id="hardGlow" x="-40%" y="-40%" width="180%" height="180%">
    <feGaussianBlur stdDeviation="6" result="b"/>
    <feColorMatrix in="b" type="matrix" values="1 0 0 0 0  0 1 0 0 0  0 0 1 0 0  0 0 0 18 -7" result="c"/>
    <feMerge>
      <feMergeNode in="c"/>
      <feMergeNode in="SourceGraphic"/>
    </feMerge>
  </filter>
  <linearGradient id="strokeA" x1="0" y1="0" x2="1" y2="0">
    <stop offset="0" stop-color="#7C4DFF" stop-opacity="0.9"/>
    <stop offset="0.5" stop-color="#FFFFFF" stop-opacity="0.25"/>
    <stop offset="1" stop-color="#7C4DFF" stop-opacity="0.7"/>
  </linearGradient>
  <linearGradient id="strokeB" x1="0" y1="0" x2="0" y2="1">
    <stop offset="0" stop-color="#FFFFFF" stop-opacity="0.18"/>
    <stop offset="1" stop-color="#7C4DFF" stop-opacity="0.55"/>
  </linearGradient>
</defs>
<rect x="0" y="0" width="900" height="1600" fill="url(#g0)"/>
<rect x="0" y="0" width="900" height="1600" fill="url(#g1)"/>
<rect x="0" y="0" width="900" height="1600" fill="url(#g2)"/>


<defs>
  <radialGradient id="vign" cx="0.5000" cy="0.5000" r="0.85">
    <stop offset="0" stop-color="#000000" stop-opacity="0"/>
    <stop offset="0.55" stop-color="#000000" stop-opacity="0.217"/>
    <stop offset="1" stop-color="#000000" stop-opacity="0.620"/>
  </radialGradient>
</defs>
<rect x="0" y="0" width="900" height="1600" fill="url(#vign)"/>

<g opacity="0.201" filter="url(#softGlow)"><path d="M 499.6,32.7 L 121.9,32.7 L 121.9,719.4 L 96.4,719.4 L 96.4,1595.9 " fill="none" stroke="url(#strokeB)" stroke-width="2.11" stroke-linecap="round" stroke-linejoin="round"/><circle cx="96.4" cy="719.4" r="2.1" fill="#7C4DFF" opacity="0.45"/><circle cx="121.9" cy="32.7" r="2.1" fill="#7C4DFF" opacity="0.45"/><circle cx="96.4" cy="1595.9" r="3.1" fill="#7C4DFF" opacity="0.45"/></g>
<g opacity="0.201" filter="url(#softGlow)"><path d="M 372.8,131.7 L 819.7,131.7 L 819.7,1573.1 L 95.2,1573.1 L 95.2,1034.3 " fill="none" stroke="url(#strokeB)" stroke-width="2.15" stroke-linecap="round" stroke-linejoin="round"/><circle cx="95.2" cy="1034.3" r="3.7" fill="#7C4DFF" opacity="0.45"/><circle cx="372.8" cy="131.7" r="2.0" fill="#7C4DFF" opacity="0.45"/><circle cx="95.2" cy="1573.1" r="2.2" fill="#7C4DFF" opacity="0.45"/></g>
<g opacity="0.201" filter="url(#softGlow)"><path d="M 346.0,1437.1 L 768.5,1437.1 L 768.5,1588.1 L 5.1,1588.1 L 5.1,7.6 " fill="none" stroke="url(#strokeB)" stroke-width="1.29" stroke-linecap="round" stroke-linejoin="round"/><circle cx="768.5" cy="1588.1" r="2.2" fill="#7C4DFF" opacity="0.45"/><circle cx="768.5" cy="1437.1" r="2.2" fill="#7C4DFF" opacity="0.45"/><circle cx="346.0" cy="1437.1" r="2.3" fill="#7C4DFF" opacity="0.45"/></g>
<g opacity="0.201" filter="url(#softGlow)"><path d="M 5.3,43.6 L 753.3,43.6 L 753.3,33.6 L 732.6,33.6 L 732.6,176.5 " fill="none" stroke="url(#strokeB)" stroke-width="1.45" stroke-linecap="round" stroke-linejoin="round"/><circle cx="753.3" cy="33.6" r="3.3" fill="#7C4DFF" opacity="0.45"/><circle cx="753.3" cy="43.6" r="2.6" fill="#7C4DFF" opacity="0.45"/><circle cx="5.3" cy="43.6" r="4.1" fill="#7C4DFF" opacity="0.45"/></g>
<g opacity="0.201" filter="url(#softGlow)"><path d="M 877.0,1561.0 L 855.7,1561.0 L 855.7,150.3 L 821.4,150.3 L 821.4,1508.2 " fill="none" stroke="url(#strokeB)" stroke-width="1.12" stroke-linecap="round" stroke-linejoin="round"/><circle cx="877.0" cy="1561.0" r="2.9" fill="#7C4DFF" opacity="0.45"/><circle cx="855.7" cy="1561.0" r="2.8" fill="#7C4DFF" opacity="0.45"/><circle cx="821.4" cy="150.3" r="3.9" fill="#7C4DFF" opacity="0.45"/></g>
<g opacity="0.201" filter="url(#softGlow)"><path d="M 734.9,100.2 L 549.1,100.2 L 549.1,40.5 L 65.8,40.5 L 65.8,1259.7 " fill="none" stroke="url(#strokeB)" stroke-width="1.43" stroke-linecap="round" stroke-linejoin="round"/><circle cx="65.8" cy="40.5" r="2.7" fill="#7C4DFF" opacity="0.45"/><circle cx="549.1" cy="40.5" r="2.5" fill="#7C4DFF" opacity="0.45"/><circle cx="549.1" cy="100.2" r="3.3" fill="#7C4DFF" opacity="0.45"/></g>
<g opacity="0.201" filter="url(#softGlow)"><path d="M 60.1,1491.3 L 847.4,1491.3 L 847.4,932.7 L 172.9,932.7 L 172.9,48.4 " fill="none" stroke="url(#strokeB)" stroke-width="2.03" stroke-linecap="round" stroke-linejoin="round"/><circle cx="172.9" cy="932.7" r="2.7" fill="#7C4DFF" opacity="0.45"/><circle cx="847.4" cy="932.7" r="3.4" fill="#7C4DFF" opacity="0.45"/><circle cx="60.1" cy="1491.3" r="2.0" fill="#7C4DFF" opacity="0.45"/></g>
<g opacity="0.201" filter="url(#softGlow)"><path d="M 4.7,1583.4 L 403.1,1583.4 L 403.1,172.9 L 763.1,172.9 L 763.1,70.8 " fill="none" stroke="url(#strokeB)" stroke-width="1.29" stroke-linecap="round" stroke-linejoin="round"/><circle cx="4.7" cy="1583.4" r="3.8" fill="#7C4DFF" opacity="0.45"/><circle cx="403.1" cy="1583.4" r="2.7" fill="#7C4DFF" opacity="0.45"/><circle cx="763.1" cy="70.8" r="2.6" fill="#7C4DFF" opacity="0.45"/></g>
<g opacity="0.201" filter="url(#softGlow)"><path d="M 93.2,3.4 L 173.5,3.4 L 173.5,79.2 L 870.7,79.2 L 870.7,1071.5 " fill="none" stroke="url(#strokeB)" stroke-width="1.64" stroke-linecap="round" stroke-linejoin="round"/><circle cx="870.7" cy="1071.5" r="2.5" fill="#7C4DFF" opacity="0.45"/><circle cx="173.5" cy="79.2" r="3.5" fill="#7C4DFF" opacity="0.45"/><circle cx="870.7" cy="79.2" r="3.4" fill="#7C4DFF" opacity="0.45"/></g>
<g opacity="0.201" filter="url(#softGlow)"><path d="M 839.4,1576.2 L 389.9,1576.2 L 389.9,1428.5 L 306.2,1428.5 L 306.2,4.9 " fill="none" stroke="url(#strokeB)" stroke-width="1.33" stroke-linecap="round" stroke-linejoin="round"/><circle cx="839.4" cy="1576.2" r="2.3" fill="#7C4DFF" opacity="0.45"/><circle cx="389.9" cy="1576.2" r="3.5" fill="#7C4DFF" opacity="0.45"/><circle cx="306.2" cy="1428.5" r="3.4" fill="#7C4DFF" opacity="0.45"/></g>
<g opacity="0.201" filter="url(#softGlow)"><path d="M 156.0,16.7 L 112.2,16.7 L 112.2,1334.0 L 123.2,1334.0 L 123.2,1429.6 " fill="none" stroke="url(#strokeB)" stroke-width="1.81" stroke-linecap="round" stroke-linejoin="round"/><circle cx="156.0" cy="16.7" r="3.2" fill="#7C4DFF" opacity="0.45"/><circle cx="123.2" cy="1334.0" r="3.4" fill="#7C4DFF" opacity="0.45"/><circle cx="123.2" cy="1429.6" r="3.1" fill="#7C4DFF" opacity="0.45"/></g>
<g opacity="0.201" filter="url(#softGlow)"><path d="M 176.1,64.7 L 108.4,64.7 L 108.4,37.7 L 898.5,37.7 L 898.5,20.5 " fill="none" stroke="url(#strokeB)" stroke-width="1.10" stroke-linecap="round" stroke-linejoin="round"/><circle cx="898.5" cy="20.5" r="3.3" fill="#7C4DFF" opacity="0.45"/><circle cx="176.1" cy="64.7" r="3.2" fill="#7C4DFF" opacity="0.45"/><circle cx="898.5" cy="37.7" r="2.6" fill="#7C4DFF" opacity="0.45"/></g>
<g opacity="0.201" filter="url(#softGlow)"><path d="M 64.6,37.9 L 64.2,37.9 L 64.2,331.5 L 744.7,331.5 L 744.7,15.1 " fill="none" stroke="url(#strokeB)" stroke-width="1.74" stroke-linecap="round" stroke-linejoin="round"/><circle cx="64.2" cy="37.9" r="2.8" fill="#7C4DFF" opacity="0.45"/><circle cx="744.7" cy="15.1" r="3.5" fill="#7C4DFF" opacity="0.45"/><circle cx="744.7" cy="331.5" r="2.8" fill="#7C4DFF" opacity="0.45"/></g>
<g opacity="0.201" filter="url(#softGlow)"><path d="M 863.9,45.3 L 786.2,45.3 L 786.2,20.8 L 291.8,20.8 L 291.8,1484.5 " fill="none" stroke="url(#strokeB)" stroke-width="1.49" stroke-linecap="round" stroke-linejoin="round"/><circle cx="786.2" cy="45.3" r="3.3" fill="#7C4DFF" opacity="0.45"/><circle cx="291.8" cy="1484.5" r="3.1" fill="#7C4DFF" opacity="0.45"/><circle cx="786.2" cy="20.8" r="2.7" fill="#7C4DFF" opacity="0.45"/></g>
<g opacity="0.201" filter="url(#softGlow)"><path d="M 795.1,36.2 L 801.7,36.2 L 801.7,1424.9 L 317.2,1424.9 L 317.2,67.6 " fill="none" stroke="url(#strokeB)" stroke-width="1.21" stroke-linecap="round" stroke-linejoin="round"/><circle cx="317.2" cy="67.6" r="3.7" fill="#7C4DFF" opacity="0.45"/><circle cx="801.7" cy="1424.9" r="4.0" fill="#7C4DFF" opacity="0.45"/><circle cx="317.2" cy="1424.9" r="3.9" fill="#7C4DFF" opacity="0.45"/></g>
<g opacity="0.201" filter="url(#softGlow)"><path d="M 107.8,1444.6 L 389.0,1444.6 L 389.0,111.7 L 749.3,111.7 L 749.3,321.6 " fill="none" stroke="url(#strokeB)" stroke-width="1.37" stroke-linecap="round" stroke-linejoin="round"/><circle cx="389.0" cy="111.7" r="4.0" fill="#7C4DFF" opacity="0.45"/><circle cx="749.3" cy="111.7" r="4.1" fill="#7C4DFF" opacity="0.45"/><circle cx="389.0" cy="1444.6" r="3.7" fill="#7C4DFF" opacity="0.45"/></g>
<g opacity="0.201" filter="url(#softGlow)"><path d="M 31.3,53.3 L 154.5,53.3 L 154.5,1030.1 L 791.6,1030.1 L 791.6,75.8 " fill="none" stroke="url(#strokeB)" stroke-width="1.69" stroke-linecap="round" stroke-linejoin="round"/><circle cx="791.6" cy="1030.1" r="3.1" fill="#7C4DFF" opacity="0.45"/><circle cx="154.5" cy="53.3" r="3.2" fill="#7C4DFF" opacity="0.45"/><circle cx="31.3" cy="53.3" r="3.5" fill="#7C4DFF" opacity="0.45"/></g>
<g opacity="0.201" filter="url(#softGlow)"><path d="M 120.9,1153.8 L 453.7,1153.8 L 453.7,1460.2 L 657.4,1460.2 L 657.4,137.0 " fill="none" stroke="url(#strokeB)" stroke-width="1.40" stroke-linecap="round" stroke-linejoin="round"/><circle cx="453.7" cy="1153.8" r="3.7" fill="#7C4DFF" opacity="0.45"/><circle cx="120.9" cy="1153.8" r="2.8" fill="#7C4DFF" opacity="0.45"/><circle cx="657.4" cy="137.0" r="4.0" fill="#7C4DFF" opacity="0.45"/></g>
<g opacity="0.201" filter="url(#softGlow)"><path d="M 253.4,178.8 L 196.0,178.8 L 196.0,111.9 L 245.4,111.9 L 245.4,1577.8 " fill="none" stroke="url(#strokeB)" stroke-width="1.79" stroke-linecap="round" stroke-linejoin="round"/><circle cx="196.0" cy="111.9" r="2.5" fill="#7C4DFF" opacity="0.45"/><circle cx="196.0" cy="178.8" r="2.7" fill="#7C4DFF" opacity="0.45"/><circle cx="253.4" cy="178.8" r="2.4" fill="#7C4DFF" opacity="0.45"/></g>

<g opacity="0.813" filter="url(#hardGlow)">
  <circle cx="38.1" cy="82.7" r="47.1" fill="#0A1224" opacity="0.65"/>
  <circle cx="38.1" cy="82.7" r="47.1" fill="none" stroke="url(#strokeA)" stroke-width="3.8" opacity="0.85"/>
  <circle cx="38.1" cy="82.7" r="40.5" fill="none" stroke="#00E5FF" stroke-width="1.5" opacity="0.35"/>
  <polygon points="50.2,114.4 16.7,109.0 4.7,77.3 26.1,51.0 59.6,56.4 71.6,88.1" fill="none" stroke="url(#strokeB)" stroke-width="1.2" opacity="0.65"/>
  <polygon points="38.3,94.6 27.8,76.9 48.3,76.6" fill="#00E5FF" opacity="0.22" filter="url(#softGlow)"/>
</g>


<g opacity="0.471" filter="url(#hardGlow)">
  <circle cx="32.7" cy="61.7" r="23.5" fill="#0A1224" opacity="0.65"/>
  <circle cx="32.7" cy="61.7" r="23.5" fill="none" stroke="url(#strokeA)" stroke-width="2.0" opacity="0.85"/>
  <circle cx="32.7" cy="61.7" r="20.2" fill="none" stroke="#7C4DFF" stroke-width="1.5" opacity="0.35"/>
  <polygon points="29.5,78.3 16.7,67.2 20.0,50.6 36.0,45.1 48.8,56.2 45.5,72.8" fill="none" stroke="url(#strokeB)" stroke-width="1.2" opacity="0.65"/>
  
</g>


<g opacity="0.571" filter="url(#hardGlow)">
  <circle cx="55.8" cy="75.8" r="17.5" fill="#0A1224" opacity="0.65"/>
  <circle cx="55.8" cy="75.8" r="17.5" fill="none" stroke="url(#strokeA)" stroke-width="2.0" opacity="0.85"/>
  <circle cx="55.8" cy="75.8" r="15.1" fill="none" stroke="#7C4DFF" stroke-width="1.5" opacity="0.35"/>
  <polygon points="63.9,66.1 68.3,77.9 60.2,87.6 47.8,85.5 43.4,73.7 51.5,64.0" fill="none" stroke="url(#strokeB)" stroke-width="1.2" opacity="0.65"/>
  <polygon points="59.7,73.6 55.9,80.2 52.0,73.6" fill="#7C4DFF" opacity="0.22" filter="url(#softGlow)"/>
</g>


<g opacity="0.467" filter="url(#hardGlow)">
  <circle cx="-27.1" cy="80.9" r="23.1" fill="#0A1224" opacity="0.65"/>
  <circle cx="-27.1" cy="80.9" r="23.1" fill="none" stroke="url(#strokeA)" stroke-width="2.0" opacity="0.85"/>
  <circle cx="-27.1" cy="80.9" r="19.9" fill="none" stroke="#7C4DFF" stroke-width="1.5" opacity="0.35"/>
  <polygon points="-39.6,69.9 -23.8,64.6 -11.3,75.6 -14.7,91.9 -30.4,97.2 -42.9,86.2" fill="none" stroke="url(#strokeB)" stroke-width="1.2" opacity="0.65"/>
  <polygon points="-29.9,75.8 -21.3,81.1 -30.2,85.9" fill="#7C4DFF" opacity="0.22" filter="url(#softGlow)"/>
</g>


<g opacity="0.688" filter="url(#hardGlow)">
  <circle cx="293.0" cy="1466.6" r="36.6" fill="#0A1224" opacity="0.65"/>
  <circle cx="293.0" cy="1466.6" r="36.6" fill="none" stroke="url(#strokeA)" stroke-width="2.9" opacity="0.85"/>
  <circle cx="293.0" cy="1466.6" r="31.5" fill="none" stroke="#00E5FF" stroke-width="1.5" opacity="0.35"/>
  <polygon points="269.7,1479.0 270.7,1452.6 293.9,1440.3 316.3,1454.3 315.3,1480.6 292.0,1493.0" fill="none" stroke="url(#strokeB)" stroke-width="1.2" opacity="0.65"/>
  <polygon points="283.8,1467.9 296.4,1458.1 298.7,1473.9" fill="#00E5FF" opacity="0.22" filter="url(#softGlow)"/>
</g>


<g opacity="0.468" filter="url(#hardGlow)">
  <circle cx="309.2" cy="1483.2" r="20.0" fill="#0A1224" opacity="0.65"/>
  <circle cx="309.2" cy="1483.2" r="20.0" fill="none" stroke="url(#strokeA)" stroke-width="2.0" opacity="0.85"/>
  <circle cx="309.2" cy="1483.2" r="17.2" fill="none" stroke="#7C4DFF" stroke-width="1.5" opacity="0.35"/>
  <polygon points="306.5,1469.0 320.1,1473.7 322.9,1487.9 311.9,1497.3 298.3,1492.6 295.6,1478.4" fill="none" stroke="url(#strokeB)" stroke-width="1.2" opacity="0.65"/>
  <polygon points="310.0,1478.2 313.1,1486.3 304.5,1484.9" fill="#7C4DFF" opacity="0.22" filter="url(#softGlow)"/>
</g>


<g opacity="0.631" filter="url(#hardGlow)">
  <circle cx="308.7" cy="1479.3" r="12.9" fill="#0A1224" opacity="0.65"/>
  <circle cx="308.7" cy="1479.3" r="12.9" fill="none" stroke="url(#strokeA)" stroke-width="2.0" opacity="0.85"/>
  <circle cx="308.7" cy="1479.3" r="11.1" fill="none" stroke="#7C4DFF" stroke-width="1.5" opacity="0.35"/>
  <polygon points="299.8,1482.0 301.9,1473.0 310.8,1470.3 317.6,1476.6 315.5,1485.7 306.6,1488.4" fill="none" stroke="url(#strokeB)" stroke-width="1.2" opacity="0.65"/>
  
</g>


<g opacity="0.387" filter="url(#hardGlow)">
  <circle cx="307.1" cy="1509.4" r="19.3" fill="#0A1224" opacity="0.65"/>
  <circle cx="307.1" cy="1509.4" r="19.3" fill="none" stroke="url(#strokeA)" stroke-width="2.0" opacity="0.85"/>
  <circle cx="307.1" cy="1509.4" r="16.6" fill="none" stroke="#7C4DFF" stroke-width="1.5" opacity="0.35"/>
  <polygon points="319.8,1503.8 318.4,1517.6 305.7,1523.2 294.4,1515.1 295.9,1501.3 308.5,1495.6" fill="none" stroke="url(#strokeB)" stroke-width="1.2" opacity="0.65"/>
  <polygon points="312.0,1509.1 305.0,1513.8 304.4,1505.4" fill="#7C4DFF" opacity="0.22" filter="url(#softGlow)"/>
</g>


<g opacity="0.681" filter="url(#hardGlow)">
  <circle cx="824.3" cy="671.1" r="52.7" fill="#0A1224" opacity="0.65"/>
  <circle cx="824.3" cy="671.1" r="52.7" fill="none" stroke="url(#strokeA)" stroke-width="4.2" opacity="0.85"/>
  <circle cx="824.3" cy="671.1" r="45.3" fill="none" stroke="#00E5FF" stroke-width="1.6" opacity="0.35"/>
  <polygon points="862.0,667.2 846.5,701.8 808.8,705.7 786.6,675.0 802.0,640.4 839.8,636.5" fill="none" stroke="url(#strokeB)" stroke-width="1.3" opacity="0.65"/>
  <polygon points="837.2,674.3 815.1,680.6 820.6,658.3" fill="#00E5FF" opacity="0.22" filter="url(#softGlow)"/>
</g>


<g opacity="0.474" filter="url(#hardGlow)">
  <circle cx="879.0" cy="733.7" r="18.5" fill="#0A1224" opacity="0.65"/>
  <circle cx="879.0" cy="733.7" r="18.5" fill="none" stroke="url(#strokeA)" stroke-width="2.0" opacity="0.85"/>
  <circle cx="879.0" cy="733.7" r="15.9" fill="none" stroke="#7C4DFF" stroke-width="1.5" opacity="0.35"/>
  <polygon points="872.1,745.0 865.7,733.4 872.6,722.0 885.9,722.3 892.3,734.0 885.4,745.4" fill="none" stroke="url(#strokeB)" stroke-width="1.2" opacity="0.65"/>
  <polygon points="875.4,736.6 878.3,729.1 883.3,735.4" fill="#7C4DFF" opacity="0.22" filter="url(#softGlow)"/>
</g>


<g opacity="0.667" filter="url(#hardGlow)">
  <circle cx="62.3" cy="1568.0" r="38.3" fill="#0A1224" opacity="0.65"/>
  <circle cx="62.3" cy="1568.0" r="38.3" fill="none" stroke="url(#strokeA)" stroke-width="3.1" opacity="0.85"/>
  <circle cx="62.3" cy="1568.0" r="33.0" fill="none" stroke="#00E5FF" stroke-width="1.5" opacity="0.35"/>
  <polygon points="35.9,1576.2 42.0,1549.3 68.3,1541.1 88.6,1559.8 82.5,1586.7 56.2,1594.9" fill="none" stroke="url(#strokeB)" stroke-width="1.2" opacity="0.65"/>
  <polygon points="52.6,1567.5 67.5,1559.9 66.7,1576.6" fill="#00E5FF" opacity="0.22" filter="url(#softGlow)"/>
</g>


<g opacity="0.480" filter="url(#hardGlow)">
  <circle cx="47.5" cy="1608.2" r="20.5" fill="#0A1224" opacity="0.65"/>
  <circle cx="47.5" cy="1608.2" r="20.5" fill="none" stroke="url(#strokeA)" stroke-width="2.0" opacity="0.85"/>
  <circle cx="47.5" cy="1608.2" r="17.7" fill="none" stroke="#7C4DFF" stroke-width="1.5" opacity="0.35"/>
  <polygon points="56.4,1620.0 41.7,1621.7 32.9,1609.9 38.7,1596.3 53.3,1594.6 62.2,1606.4" fill="none" stroke="url(#strokeB)" stroke-width="1.2" opacity="0.65"/>
  
</g>


<g opacity="0.465" filter="url(#hardGlow)">
  <circle cx="72.4" cy="1611.5" r="14.4" fill="#0A1224" opacity="0.65"/>
  <circle cx="72.4" cy="1611.5" r="14.4" fill="none" stroke="url(#strokeA)" stroke-width="2.0" opacity="0.85"/>
  <circle cx="72.4" cy="1611.5" r="12.3" fill="none" stroke="#7C4DFF" stroke-width="1.5" opacity="0.35"/>
  <polygon points="63.6,1606.1 72.7,1601.1 81.5,1606.5 81.2,1616.9 72.2,1621.8 63.4,1616.4" fill="none" stroke="url(#strokeB)" stroke-width="1.2" opacity="0.65"/>
  
</g>


<g opacity="0.450" filter="url(#hardGlow)">
  <circle cx="38.8" cy="1574.3" r="20.7" fill="#0A1224" opacity="0.65"/>
  <circle cx="38.8" cy="1574.3" r="20.7" fill="none" stroke="url(#strokeA)" stroke-width="2.0" opacity="0.85"/>
  <circle cx="38.8" cy="1574.3" r="17.8" fill="none" stroke="#7C4DFF" stroke-width="1.5" opacity="0.35"/>
  <polygon points="37.3,1589.1 25.2,1580.4 26.6,1565.6 40.2,1559.4 52.4,1568.1 50.9,1582.9" fill="none" stroke="url(#strokeB)" stroke-width="1.2" opacity="0.65"/>
  <polygon points="36.5,1579.0 35.8,1569.9 44.0,1573.8" fill="#7C4DFF" opacity="0.22" filter="url(#softGlow)"/>
</g>


<g opacity="0.836" filter="url(#hardGlow)">
  <circle cx="812.6" cy="1463.6" r="58.2" fill="#0A1224" opacity="0.65"/>
  <circle cx="812.6" cy="1463.6" r="58.2" fill="none" stroke="url(#strokeA)" stroke-width="4.7" opacity="0.85"/>
  <circle cx="812.6" cy="1463.6" r="50.0" fill="none" stroke="#00E5FF" stroke-width="1.7" opacity="0.35"/>
  <polygon points="775.9,1443.5 811.7,1421.8 848.4,1441.9 849.3,1483.8 813.5,1505.5 776.8,1485.4" fill="none" stroke="url(#strokeB)" stroke-width="1.5" opacity="0.65"/>
  <polygon points="802.9,1452.6 827.0,1460.8 807.9,1477.5" fill="#00E5FF" opacity="0.22" filter="url(#softGlow)"/>
</g>


<g opacity="0.535" filter="url(#hardGlow)">
  <circle cx="721.9" cy="1471.0" r="22.1" fill="#0A1224" opacity="0.65"/>
  <circle cx="721.9" cy="1471.0" r="22.1" fill="none" stroke="url(#strokeA)" stroke-width="2.0" opacity="0.85"/>
  <circle cx="721.9" cy="1471.0" r="19.0" fill="none" stroke="#7C4DFF" stroke-width="1.5" opacity="0.35"/>
  <polygon points="736.2,1464.0 735.1,1479.9 720.7,1486.9 707.6,1477.9 708.7,1462.0 723.0,1455.1" fill="none" stroke="url(#strokeB)" stroke-width="1.2" opacity="0.65"/>
  
</g>


<g opacity="0.638" filter="url(#hardGlow)">
  <circle cx="782.1" cy="1426.7" r="31.9" fill="#0A1224" opacity="0.65"/>
  <circle cx="782.1" cy="1426.7" r="31.9" fill="none" stroke="url(#strokeA)" stroke-width="2.6" opacity="0.85"/>
  <circle cx="782.1" cy="1426.7" r="27.5" fill="none" stroke="#7C4DFF" stroke-width="1.5" opacity="0.35"/>
  <polygon points="764.3,1441.2 760.6,1418.6 778.4,1404.0 799.9,1412.1 803.6,1434.8 785.8,1449.4" fill="none" stroke="url(#strokeB)" stroke-width="1.2" opacity="0.65"/>
  
</g>


<g opacity="0.770" filter="url(#hardGlow)">
  <circle cx="456.9" cy="46.4" r="47.4" fill="#0A1224" opacity="0.65"/>
  <circle cx="456.9" cy="46.4" r="47.4" fill="none" stroke="url(#strokeA)" stroke-width="3.8" opacity="0.85"/>
  <circle cx="456.9" cy="46.4" r="40.7" fill="none" stroke="#00E5FF" stroke-width="1.5" opacity="0.35"/>
  <polygon points="427.2,29.7 456.6,12.3 486.3,29.0 486.7,63.1 457.3,80.5 427.6,63.8" fill="none" stroke="url(#strokeB)" stroke-width="1.2" opacity="0.65"/>
  <polygon points="449.2,37.3 468.7,44.2 453.0,57.6" fill="#00E5FF" opacity="0.22" filter="url(#softGlow)"/>
</g>


<g opacity="0.624" filter="url(#hardGlow)">
  <circle cx="449.5" cy="0.5" r="18.8" fill="#0A1224" opacity="0.65"/>
  <circle cx="449.5" cy="0.5" r="18.8" fill="none" stroke="url(#strokeA)" stroke-width="2.0" opacity="0.85"/>
  <circle cx="449.5" cy="0.5" r="16.1" fill="none" stroke="#7C4DFF" stroke-width="1.5" opacity="0.35"/>
  <polygon points="445.8,-12.5 458.9,-9.2 462.5,3.8 453.1,13.5 440.0,10.2 436.4,-2.8" fill="none" stroke="url(#strokeB)" stroke-width="1.2" opacity="0.65"/>
  
</g>


<g opacity="0.601" filter="url(#hardGlow)">
  <circle cx="454.3" cy="52.0" r="19.1" fill="#0A1224" opacity="0.65"/>
  <circle cx="454.3" cy="52.0" r="19.1" fill="none" stroke="url(#strokeA)" stroke-width="2.0" opacity="0.85"/>
  <circle cx="454.3" cy="52.0" r="16.4" fill="none" stroke="#7C4DFF" stroke-width="1.5" opacity="0.35"/>
  <polygon points="462.2,63.4 448.4,64.5 440.6,53.1 446.5,40.7 460.2,39.6 468.1,50.9" fill="none" stroke="url(#strokeB)" stroke-width="1.2" opacity="0.65"/>
  <polygon points="455.5,56.7 449.7,50.8 457.8,48.7" fill="#7C4DFF" opacity="0.22" filter="url(#softGlow)"/>
</g>


<g opacity="0.550" filter="url(#hardGlow)">
  <circle cx="463.7" cy="60.8" r="18.1" fill="#0A1224" opacity="0.65"/>
  <circle cx="463.7" cy="60.8" r="18.1" fill="none" stroke="url(#strokeA)" stroke-width="2.0" opacity="0.85"/>
  <circle cx="463.7" cy="60.8" r="15.6" fill="none" stroke="#7C4DFF" stroke-width="1.5" opacity="0.35"/>
  <polygon points="465.4,47.9 475.8,55.8 474.1,68.8 462.1,73.8 451.7,65.9 453.4,52.9" fill="none" stroke="url(#strokeB)" stroke-width="1.2" opacity="0.65"/>
  
</g>


<g opacity="0.367" transform="translate(784.8,1.2) rotate(4.4)" filter="url(#softGlow)">
  <rect x="-88.1" y="-65.0" width="176.1" height="130.1" rx="13.0" fill="#050A12" opacity="0.25"/>
  <rect x="-88.1" y="-65.0" width="176.1" height="130.1" rx="13.0" fill="none" stroke="url(#strokeA)" stroke-width="6.5" opacity="0.85"/>
  <rect x="-77.7" y="-54.6" width="155.3" height="109.2" rx="9.1" fill="none" stroke="#FFB300" stroke-width="2.6" opacity="0.35"/>
</g>


<g opacity="0.421" transform="translate(741.7,130.7) rotate(-0.9)" filter="url(#softGlow)">
  <rect x="-67.5" y="-63.8" width="135.0" height="127.6" rx="12.8" fill="#050A12" opacity="0.25"/>
  <rect x="-67.5" y="-63.8" width="135.0" height="127.6" rx="12.8" fill="none" stroke="url(#strokeA)" stroke-width="6.4" opacity="0.85"/>
  <rect x="-57.3" y="-53.6" width="114.6" height="107.1" rx="8.9" fill="none" stroke="#FFB300" stroke-width="2.6" opacity="0.35"/>
</g>


<g opacity="0.447" transform="translate(808.5,198.4) rotate(-1.7)" filter="url(#softGlow)">
  <rect x="-68.3" y="-58.8" width="136.5" height="117.6" rx="11.8" fill="#050A12" opacity="0.25"/>
  <rect x="-68.3" y="-58.8" width="136.5" height="117.6" rx="11.8" fill="none" stroke="url(#strokeA)" stroke-width="5.9" opacity="0.85"/>
  <rect x="-58.9" y="-49.4" width="117.7" height="98.8" rx="8.2" fill="none" stroke="#FFB300" stroke-width="2.4" opacity="0.35"/>
</g>


<g opacity="0.261" transform="translate(767.9,976.5) rotate(9.7)" filter="url(#softGlow)">
  <rect x="-68.6" y="-58.6" width="137.1" height="117.2" rx="11.7" fill="#050A12" opacity="0.25"/>
  <rect x="-68.6" y="-58.6" width="137.1" height="117.2" rx="11.7" fill="none" stroke="url(#strokeA)" stroke-width="5.9" opacity="0.85"/>
  <rect x="-59.2" y="-49.2" width="118.4" height="98.4" rx="8.2" fill="none" stroke="#00E5FF" stroke-width="2.3" opacity="0.35"/>
</g>


<g opacity="0.436" transform="translate(170.9,91.5) rotate(-2.1)" filter="url(#softGlow)">
  <rect x="-39.6" y="-22.8" width="79.2" height="45.6" rx="13.9" fill="none" stroke="#FFB300" stroke-width="7.6" opacity="0.55"/>
  <rect x="-17.4" y="-11.4" width="79.2" height="45.6" rx="13.9" fill="none" stroke="url(#strokeA)" stroke-width="6.3" opacity="0.55"/>
</g>


<g opacity="0.260" transform="translate(125.0,1594.4) rotate(16.4)" filter="url(#softGlow)">
  <rect x="-31.5" y="-18.2" width="63.1" height="36.3" rx="11.1" fill="none" stroke="#FFB300" stroke-width="6.1" opacity="0.55"/>
  <rect x="-13.9" y="-9.1" width="63.1" height="36.3" rx="11.1" fill="none" stroke="url(#strokeA)" stroke-width="5.0" opacity="0.55"/>
</g>


<g opacity="0.353" transform="translate(841.7,1571.5) rotate(13.6)" filter="url(#softGlow)">
  <rect x="-37.5" y="-21.6" width="75.0" height="43.2" rx="13.2" fill="none" stroke="#7C4DFF" stroke-width="7.2" opacity="0.55"/>
  <rect x="-16.5" y="-10.8" width="75.0" height="43.2" rx="13.2" fill="none" stroke="url(#strokeA)" stroke-width="6.0" opacity="0.55"/>
</g>


<g opacity="0.469" transform="translate(69.3,416.3) rotate(-8.2)" filter="url(#softGlow)">
  <rect x="-36.7" y="-21.1" width="73.3" height="42.2" rx="12.9" fill="none" stroke="#7C4DFF" stroke-width="7.0" opacity="0.55"/>
  <rect x="-16.1" y="-10.6" width="73.3" height="42.2" rx="12.9" fill="none" stroke="url(#strokeA)" stroke-width="5.9" opacity="0.55"/>
</g>


<g opacity="0.429" transform="translate(21.3,1233.7) rotate(-1.5)" filter="url(#softGlow)">
  <rect x="-47.5" y="-27.4" width="95.1" height="54.8" rx="16.7" fill="none" stroke="#00E5FF" stroke-width="9.1" opacity="0.55"/>
  <rect x="-20.9" y="-13.7" width="95.1" height="54.8" rx="16.7" fill="none" stroke="url(#strokeA)" stroke-width="7.6" opacity="0.55"/>
</g>


<g opacity="0.409" transform="translate(3.0,179.7) rotate(-16.0)" filter="url(#softGlow)">
  <rect x="-37.3" y="-21.5" width="74.7" height="43.0" rx="13.1" fill="none" stroke="#7C4DFF" stroke-width="7.2" opacity="0.55"/>
  <rect x="-16.4" y="-10.8" width="74.7" height="43.0" rx="13.1" fill="none" stroke="url(#strokeA)" stroke-width="6.0" opacity="0.55"/>
</g>


<g opacity="0.156">
  <line x1="59.7" y1="1415.9" x2="59.7" y2="1498.3" stroke="#7C4DFF" stroke-width="1.57" opacity="0.45"/>
  <rect x="54.1" y="1466.1" width="11.1" height="31.4" rx="3.7" fill="#0B1020" opacity="0.55" stroke="url(#strokeA)" stroke-width="1.2"/>
</g>

<g opacity="0.156">
  <line x1="346.0" y1="1418.7" x2="346.0" y2="1497.6" stroke="#7C4DFF" stroke-width="1.21" opacity="0.45"/>
  <rect x="340.6" y="1460.4" width="10.7" height="42.9" rx="3.6" fill="#0B1020" opacity="0.55" stroke="url(#strokeA)" stroke-width="1.2"/>
</g>

<g opacity="0.156">
  <line x1="613.7" y1="1391.7" x2="613.7" y2="1504.3" stroke="#7C4DFF" stroke-width="2.18" opacity="0.45"/>
  <rect x="608.3" y="1453.9" width="10.8" height="55.9" rx="3.6" fill="#0B1020" opacity="0.55" stroke="url(#strokeA)" stroke-width="1.2"/>
</g>

<g opacity="0.156">
  <line x1="692.2" y1="1433.4" x2="692.2" y2="1493.9" stroke="#7C4DFF" stroke-width="1.56" opacity="0.45"/>
  <rect x="686.7" y="1469.2" width="11.0" height="25.1" rx="3.7" fill="#0B1020" opacity="0.55" stroke="url(#strokeA)" stroke-width="1.2"/>
</g>

<g opacity="0.156">
  <line x1="690.0" y1="1393.0" x2="690.0" y2="1504.0" stroke="#7C4DFF" stroke-width="1.27" opacity="0.45"/>
  <rect x="685.8" y="1455.0" width="8.4" height="53.6" rx="2.8" fill="#0B1020" opacity="0.55" stroke="url(#strokeA)" stroke-width="1.2"/>
</g>

<g opacity="0.156">
  <line x1="329.7" y1="1402.2" x2="329.7" y2="1501.7" stroke="#7C4DFF" stroke-width="1.48" opacity="0.45"/>
  <rect x="323.8" y="1453.7" width="11.9" height="56.2" rx="4.0" fill="#0B1020" opacity="0.55" stroke="url(#strokeA)" stroke-width="1.2"/>
</g>

<g opacity="0.156">
  <line x1="363.1" y1="1398.0" x2="363.1" y2="1502.8" stroke="#7C4DFF" stroke-width="1.66" opacity="0.45"/>
  <rect x="357.9" y="1452.3" width="10.3" height="59.1" rx="3.4" fill="#0B1020" opacity="0.55" stroke="url(#strokeA)" stroke-width="1.2"/>
</g>

<g opacity="0.156">
  <line x1="569.7" y1="1415.3" x2="569.7" y2="1498.4" stroke="#7C4DFF" stroke-width="2.06" opacity="0.45"/>
  <rect x="564.8" y="1460.7" width="9.7" height="42.2" rx="3.2" fill="#0B1020" opacity="0.55" stroke="url(#strokeA)" stroke-width="1.2"/>
</g>

<g opacity="0.156">
  <line x1="176.2" y1="1448.0" x2="176.2" y2="1490.3" stroke="#7C4DFF" stroke-width="2.01" opacity="0.45"/>
  <rect x="171.3" y="1470.9" width="9.8" height="21.8" rx="3.3" fill="#0B1020" opacity="0.55" stroke="url(#strokeA)" stroke-width="1.2"/>
</g>

<g opacity="0.156">
  <line x1="411.0" y1="1409.1" x2="411.0" y2="1500.0" stroke="#7C4DFF" stroke-width="1.53" opacity="0.45"/>
  <rect x="407.0" y="1458.5" width="8.0" height="46.6" rx="2.7" fill="#0B1020" opacity="0.55" stroke="url(#strokeA)" stroke-width="1.2"/>
</g>

<g opacity="0.156">
  <line x1="101.3" y1="1426.3" x2="101.3" y2="1495.7" stroke="#7C4DFF" stroke-width="1.02" opacity="0.45"/>
  <rect x="97.4" y="1465.3" width="7.7" height="32.9" rx="2.6" fill="#0B1020" opacity="0.55" stroke="url(#strokeA)" stroke-width="1.2"/>
</g>

<g opacity="0.156">
  <line x1="14.2" y1="1430.1" x2="14.2" y2="1494.7" stroke="#7C4DFF" stroke-width="1.90" opacity="0.45"/>
  <rect x="9.5" y="1468.3" width="9.3" height="27.1" rx="3.1" fill="#0B1020" opacity="0.55" stroke="url(#strokeA)" stroke-width="1.2"/>
</g>

<g opacity="0.156">
  <line x1="230.9" y1="1433.0" x2="230.9" y2="1494.0" stroke="#7C4DFF" stroke-width="1.13" opacity="0.45"/>
  <rect x="225.1" y="1463.4" width="11.5" height="36.7" rx="3.8" fill="#0B1020" opacity="0.55" stroke="url(#strokeA)" stroke-width="1.2"/>
</g>

<g opacity="0.156">
  <line x1="869.4" y1="1396.9" x2="869.4" y2="1503.0" stroke="#7C4DFF" stroke-width="1.10" opacity="0.45"/>
  <rect x="863.9" y="1457.2" width="11.1" height="49.1" rx="3.7" fill="#0B1020" opacity="0.55" stroke="url(#strokeA)" stroke-width="1.2"/>
</g>

<g opacity="0.156">
  <line x1="483.9" y1="1423.0" x2="483.9" y2="1496.5" stroke="#7C4DFF" stroke-width="2.07" opacity="0.45"/>
  <rect x="478.8" y="1459.8" width="10.1" height="44.0" rx="3.4" fill="#0B1020" opacity="0.55" stroke="url(#strokeA)" stroke-width="1.2"/>
</g>

<g opacity="0.156">
  <line x1="483.1" y1="1428.9" x2="483.1" y2="1495.0" stroke="#7C4DFF" stroke-width="1.07" opacity="0.45"/>
  <rect x="478.7" y="1471.3" width="8.8" height="21.0" rx="2.9" fill="#0B1020" opacity="0.55" stroke="url(#strokeA)" stroke-width="1.2"/>
</g>
<circle cx="167.2" cy="6.9" r="1.5" fill="#00E5FF" opacity="0.22" filter="url(#softGlow)"/>
<circle cx="23.6" cy="465.6" r="2.6" fill="#00E5FF" opacity="0.24" filter="url(#softGlow)"/>
<circle cx="120.6" cy="607.5" r="1.3" fill="#00E5FF" opacity="0.23" filter="url(#softGlow)"/>
<circle cx="145.2" cy="609.8" r="2.7" fill="#00E5FF" opacity="0.28" filter="url(#softGlow)"/>
<circle cx="103.1" cy="1477.9" r="2.8" fill="#00E5FF" opacity="0.18" filter="url(#softGlow)"/>
<circle cx="424.2" cy="127.4" r="1.8" fill="#00E5FF" opacity="0.12" filter="url(#softGlow)"/>
<circle cx="49.9" cy="130.4" r="3.0" fill="#00E5FF" opacity="0.11" filter="url(#softGlow)"/>
<circle cx="12.4" cy="666.0" r="2.6" fill="#00E5FF" opacity="0.26" filter="url(#softGlow)"/>
<circle cx="710.1" cy="1521.6" r="2.8" fill="#00E5FF" opacity="0.20" filter="url(#softGlow)"/>
<circle cx="642.2" cy="78.6" r="2.7" fill="#00E5FF" opacity="0.26" filter="url(#softGlow)"/>
<circle cx="813.4" cy="134.3" r="2.4" fill="#00E5FF" opacity="0.16" filter="url(#softGlow)"/>
<circle cx="112.2" cy="1372.9" r="2.3" fill="#00E5FF" opacity="0.24" filter="url(#softGlow)"/>
<circle cx="841.4" cy="805.1" r="2.8" fill="#00E5FF" opacity="0.23" filter="url(#softGlow)"/>
<circle cx="721.2" cy="1558.1" r="2.7" fill="#00E5FF" opacity="0.15" filter="url(#softGlow)"/>
<circle cx="172.1" cy="28.7" r="2.8" fill="#00E5FF" opacity="0.20" filter="url(#softGlow)"/>
<circle cx="842.8" cy="21.4" r="1.7" fill="#00E5FF" opacity="0.21" filter="url(#softGlow)"/>
<circle cx="893.9" cy="3.0" r="2.7" fill="#00E5FF" opacity="0.16" filter="url(#softGlow)"/>
<circle cx="226.7" cy="159.4" r="2.2" fill="#00E5FF" opacity="0.15" filter="url(#softGlow)"/>
<circle cx="866.9" cy="1512.4" r="3.2" fill="#00E5FF" opacity="0.24" filter="url(#softGlow)"/>
<circle cx="746.3" cy="18.4" r="2.4" fill="#00E5FF" opacity="0.13" filter="url(#softGlow)"/>
<circle cx="295.1" cy="1448.5" r="2.9" fill="#00E5FF" opacity="0.17" filter="url(#softGlow)"/>
<circle cx="793.9" cy="1209.3" r="2.4" fill="#00E5FF" opacity="0.22" filter="url(#softGlow)"/>
<circle cx="818.6" cy="1156.7" r="3.1" fill="#00E5FF" opacity="0.22" filter="url(#softGlow)"/>
<circle cx="131.7" cy="167.0" r="2.6" fill="#00E5FF" opacity="0.11" filter="url(#softGlow)"/>
<circle cx="861.2" cy="1505.5" r="2.3" fill="#00E5FF" opacity="0.23" filter="url(#softGlow)"/>
<circle cx="23.5" cy="1596.2" r="1.5" fill="#00E5FF" opacity="0.12" filter="url(#softGlow)"/>
<circle cx="895.8" cy="152.5" r="2.1" fill="#00E5FF" opacity="0.15" filter="url(#softGlow)"/>
<circle cx="583.0" cy="60.9" r="2.4" fill="#00E5FF" opacity="0.19" filter="url(#softGlow)"/>
<circle cx="37.4" cy="77.6" r="2.8" fill="#00E5FF" opacity="0.20" filter="url(#softGlow)"/>
</svg>