<svg xmlns="http://www.w3.org/2000/svg" width="900" height="1600" viewBox="0 0 900 1600" preserveAspectRatio="xMidYMid slice">
<defs>
  <linearGradient id="g0" x1="0" y1="0" x2="1" y2="1">
    <stop offset="0" stop-color="#0B1020"/>
    <stop offset="0.55" stop-color="#F97316" stop-opacity="0.9"/>
    <stop offset="1" stop-color="#020617"/>
  </linearGradient>
  <radialGradient id="g1" cx="20%" cy="15%" r="70%">
    <stop offset="0" stop-color="#06B6D4" stop-opacity="0.38"/>
    <stop offset="0.6" stop-color="#06B6D4" stop-opacity="0.08"/>
    <stop offset="1" stop-color="#06B6D4" stop-opacity="0"/>
  </radialGradient>
  <radialGradient id="g2" cx="85%" cy="80%" r="75%">
    <stop offset="0" stop-color="#06B6D4" stop-opacity="0.28"/>
    <stop offset="0.65" stop-color="#06B6D4" stop-opacity="0.06"/>
    <stop offset="1" stop-color="#06B6D4" stop-opacity="0"/>
  </radialGradient>
  <filter id="softGlow" x="-30%" y="-30%" width="160%" height="160%">
    <feGaussianBlur stdDeviation="12" result="b"/>
    <feMerge>
      <feMergeNode in="b"/>
      <feMergeNode in="SourceGraphic"/>
    </feMerge>
  </filter>
  <filter id="hardGlow" x="-40%" y="-40%" width="180%" height="180%">
    <feGaussianBlur stdDeviation="6" result="b"/>
    <feColorMatrix in="b" type="matrix" values="1 0 0 0 0  0 1 0 0 0  0 0 1 0 0  0 0 0 18 -7" result="c"/>
    <feMerge>
      <feMergeNode in="c"/>
      <feMergeNode in="SourceGraphic"/>
    </feMerge>
  </filter>
  <linearGradient id="strokeA" x1="0" y1="0" x2="1" y2="0">
    <stop offset="0" stop-color="#06B6D4" stop-opacity="0.9"/>
    <stop offset="0.5" stop-color="#FFFFFF" stop-opacity="0.25"/>
    <stop offset="1" stop-color="#06B6D4" stop-opacity="0.7"/>
  </linearGradient>
  <linearGradient id="strokeB" x1="0" y1="0" x2="0" y2="1">
    <stop offset="0" stop-color="#FFFFFF" stop-opacity="0.18"/>
    <stop offset="1" stop-color="#06B6D4" stop-opacity="0.55"/>
  </linearGradient>
</defs>
<rect x="0" y="0" width="900" height="1600" fill="url(#g0)"/>
<rect x="0" y="0" width="900" height="1600" fill="url(#g1)"/>
<rect x="0" y="0" width="900" height="1600" fill="url(#g2)"/>


<defs>
  <radialGradient id="vign" cx="0.5000" cy="0.5000" r="0.85">
    <stop offset="0" stop-color="#000000" stop-opacity="0"/>
    <stop offset="0.55" stop-color="#000000" stop-opacity="0.217"/>
    <stop offset="1" stop-color="#000000" stop-opacity="0.620"/>
  </radialGradient>
</defs>
<rect x="0" y="0" width="900" height="1600" fill="url(#vign)"/>

<g opacity="0.207" filter="url(#softGlow)"><path d="M 873.9,1588.9 L 179.1,1588.9 L 179.1,48.5 L 301.1,48.5 L 301.1,1454.0 " fill="none" stroke="url(#strokeB)" stroke-width="1.53" stroke-linecap="round" stroke-linejoin="round"/><circle cx="179.1" cy="48.5" r="2.9" fill="#F97316" opacity="0.45"/><circle cx="873.9" cy="1588.9" r="3.2" fill="#F97316" opacity="0.45"/><circle cx="179.1" cy="1588.9" r="3.9" fill="#F97316" opacity="0.45"/></g>
<g opacity="0.207" filter="url(#softGlow)"><path d="M 341.6,1521.5 L 861.0,1521.5 L 861.0,1479.9 L 111.8,1479.9 L 111.8,1476.7 " fill="none" stroke="url(#strokeB)" stroke-width="1.60" stroke-linecap="round" stroke-linejoin="round"/><circle cx="111.8" cy="1479.9" r="2.7" fill="#F97316" opacity="0.45"/><circle cx="861.0" cy="1521.5" r="2.8" fill="#F97316" opacity="0.45"/><circle cx="111.8" cy="1476.7" r="3.0" fill="#F97316" opacity="0.45"/></g>
<g opacity="0.207" filter="url(#softGlow)"><path d="M 771.3,1462.3 L 855.5,1462.3 L 855.5,1484.1 L 846.8,1484.1 L 846.8,86.1 " fill="none" stroke="url(#strokeB)" stroke-width="1.97" stroke-linecap="round" stroke-linejoin="round"/><circle cx="846.8" cy="1484.1" r="3.0" fill="#F97316" opacity="0.45"/><circle cx="855.5" cy="1462.3" r="3.2" fill="#F97316" opacity="0.45"/><circle cx="771.3" cy="1462.3" r="3.2" fill="#F97316" opacity="0.45"/></g>
<g opacity="0.207" filter="url(#softGlow)"><path d="M 16.8,1591.9 L 338.1,1591.9 L 338.1,1507.5 L 875.6,1507.5 L 875.6,90.6 " fill="none" stroke="url(#strokeB)" stroke-width="1.82" stroke-linecap="round" stroke-linejoin="round"/><circle cx="16.8" cy="1591.9" r="3.9" fill="#F97316" opacity="0.45"/><circle cx="338.1" cy="1591.9" r="3.3" fill="#F97316" opacity="0.45"/><circle cx="875.6" cy="1507.5" r="4.0" fill="#F97316" opacity="0.45"/></g>
<g opacity="0.207" filter="url(#softGlow)"><path d="M 51.7,103.5 L 885.1,103.5 L 885.1,40.3 L 8.8,40.3 L 8.8,9.2 " fill="none" stroke="url(#strokeB)" stroke-width="2.03" stroke-linecap="round" stroke-linejoin="round"/><circle cx="8.8" cy="40.3" r="2.9" fill="#F97316" opacity="0.45"/><circle cx="51.7" cy="103.5" r="4.1" fill="#F97316" opacity="0.45"/><circle cx="885.1" cy="103.5" r="3.8" fill="#F97316" opacity="0.45"/></g>
<g opacity="0.207" filter="url(#softGlow)"><path d="M 591.7,1420.9 L 759.1,1420.9 L 759.1,427.9 L 630.3,427.9 L 630.3,150.3 " fill="none" stroke="url(#strokeB)" stroke-width="1.62" stroke-linecap="round" stroke-linejoin="round"/><circle cx="630.3" cy="427.9" r="3.3" fill="#F97316" opacity="0.45"/><circle cx="630.3" cy="150.3" r="3.3" fill="#F97316" opacity="0.45"/><circle cx="591.7" cy="1420.9" r="3.3" fill="#F97316" opacity="0.45"/></g>
<g opacity="0.207" filter="url(#softGlow)"><path d="M 671.1,94.7 L 190.2,94.7 L 190.2,1502.7 L 879.5,1502.7 L 879.5,1554.3 " fill="none" stroke="url(#strokeB)" stroke-width="1.44" stroke-linecap="round" stroke-linejoin="round"/><circle cx="671.1" cy="94.7" r="3.1" fill="#F97316" opacity="0.45"/><circle cx="190.2" cy="1502.7" r="3.5" fill="#F97316" opacity="0.45"/><circle cx="879.5" cy="1554.3" r="3.9" fill="#F97316" opacity="0.45"/></g>
<g opacity="0.207" filter="url(#softGlow)"><path d="M 177.3,147.2 L 759.2,147.2 L 759.2,962.9 L 756.3,962.9 L 756.3,1509.3 " fill="none" stroke="url(#strokeB)" stroke-width="1.84" stroke-linecap="round" stroke-linejoin="round"/><circle cx="756.3" cy="962.9" r="3.7" fill="#F97316" opacity="0.45"/><circle cx="177.3" cy="147.2" r="4.1" fill="#F97316" opacity="0.45"/><circle cx="759.2" cy="147.2" r="4.1" fill="#F97316" opacity="0.45"/></g>
<g opacity="0.207" filter="url(#softGlow)"><path d="M 22.2,1468.6 L 858.8,1468.6 L 858.8,222.2 L 53.5,222.2 L 53.5,496.2 " fill="none" stroke="url(#strokeB)" stroke-width="1.18" stroke-linecap="round" stroke-linejoin="round"/><circle cx="22.2" cy="1468.6" r="3.5" fill="#F97316" opacity="0.45"/><circle cx="858.8" cy="222.2" r="3.9" fill="#F97316" opacity="0.45"/><circle cx="53.5" cy="222.2" r="2.6" fill="#F97316" opacity="0.45"/></g>
<g opacity="0.207" filter="url(#softGlow)"><path d="M 174.2,3.6 L 770.3,3.6 L 770.3,71.8 L 813.0,71.8 L 813.0,629.0 " fill="none" stroke="url(#strokeB)" stroke-width="1.64" stroke-linecap="round" stroke-linejoin="round"/><circle cx="770.3" cy="71.8" r="4.2" fill="#F97316" opacity="0.45"/><circle cx="770.3" cy="3.6" r="2.4" fill="#F97316" opacity="0.45"/><circle cx="813.0" cy="71.8" r="2.5" fill="#F97316" opacity="0.45"/></g>
<g opacity="0.207" filter="url(#softGlow)"><path d="M 831.1,157.8 L 57.7,157.8 L 57.7,1502.8 L 40.7,1502.8 L 40.7,1486.1 " fill="none" stroke="url(#strokeB)" stroke-width="1.96" stroke-linecap="round" stroke-linejoin="round"/><circle cx="831.1" cy="157.8" r="2.4" fill="#F97316" opacity="0.45"/><circle cx="57.7" cy="157.8" r="3.2" fill="#F97316" opacity="0.45"/><circle cx="57.7" cy="1502.8" r="3.2" fill="#F97316" opacity="0.45"/></g>
<g opacity="0.207" filter="url(#softGlow)"><path d="M 113.3,45.8 L 39.6,45.8 L 39.6,89.7 L 55.1,89.7 L 55.1,130.4 " fill="none" stroke="url(#strokeB)" stroke-width="1.96" stroke-linecap="round" stroke-linejoin="round"/><circle cx="39.6" cy="89.7" r="3.6" fill="#F97316" opacity="0.45"/><circle cx="55.1" cy="89.7" r="3.8" fill="#F97316" opacity="0.45"/><circle cx="55.1" cy="130.4" r="3.1" fill="#F97316" opacity="0.45"/></g>
<g opacity="0.207" filter="url(#softGlow)"><path d="M 13.1,54.1 L 845.6,54.1 L 845.6,236.0 L 869.1,236.0 L 869.1,1434.6 " fill="none" stroke="url(#strokeB)" stroke-width="1.63" stroke-linecap="round" stroke-linejoin="round"/><circle cx="845.6" cy="54.1" r="3.1" fill="#F97316" opacity="0.45"/><circle cx="869.1" cy="1434.6" r="3.7" fill="#F97316" opacity="0.45"/><circle cx="13.1" cy="54.1" r="3.7" fill="#F97316" opacity="0.45"/></g>
<g opacity="0.207" filter="url(#softGlow)"><path d="M 112.4,71.5 L 894.5,71.5 L 894.5,172.7 L 405.5,172.7 L 405.5,1549.0 " fill="none" stroke="url(#strokeB)" stroke-width="1.20" stroke-linecap="round" stroke-linejoin="round"/><circle cx="112.4" cy="71.5" r="4.0" fill="#F97316" opacity="0.45"/><circle cx="405.5" cy="1549.0" r="3.3" fill="#F97316" opacity="0.45"/><circle cx="894.5" cy="172.7" r="3.4" fill="#F97316" opacity="0.45"/></g>
<g opacity="0.207" filter="url(#softGlow)"><path d="M 42.6,147.1 L 32.6,147.1 L 32.6,111.9 L 128.1,111.9 L 128.1,50.4 " fill="none" stroke="url(#strokeB)" stroke-width="2.17" stroke-linecap="round" stroke-linejoin="round"/><circle cx="42.6" cy="147.1" r="3.4" fill="#F97316" opacity="0.45"/><circle cx="128.1" cy="111.9" r="2.6" fill="#F97316" opacity="0.45"/><circle cx="128.1" cy="50.4" r="2.1" fill="#F97316" opacity="0.45"/></g>
<g opacity="0.207" filter="url(#softGlow)"><path d="M 296.7,1446.3 L 181.2,1446.3 L 181.2,1448.0 L 813.5,1448.0 L 813.5,1485.7 " fill="none" stroke="url(#strokeB)" stroke-width="1.38" stroke-linecap="round" stroke-linejoin="round"/><circle cx="181.2" cy="1446.3" r="3.4" fill="#F97316" opacity="0.45"/><circle cx="296.7" cy="1446.3" r="3.1" fill="#F97316" opacity="0.45"/><circle cx="813.5" cy="1448.0" r="4.0" fill="#F97316" opacity="0.45"/></g>
<g opacity="0.207" filter="url(#softGlow)"><path d="M 739.2,72.7 L 2.7,72.7 L 2.7,1040.7 L 35.1,1040.7 L 35.1,1466.3 " fill="none" stroke="url(#strokeB)" stroke-width="1.30" stroke-linecap="round" stroke-linejoin="round"/><circle cx="35.1" cy="1466.3" r="3.8" fill="#F97316" opacity="0.45"/><circle cx="2.7" cy="1040.7" r="2.1" fill="#F97316" opacity="0.45"/><circle cx="739.2" cy="72.7" r="3.1" fill="#F97316" opacity="0.45"/></g>

<g opacity="0.842" filter="url(#hardGlow)">
  <circle cx="783.5" cy="99.8" r="41.1" fill="#0A1224" opacity="0.65"/>
  <circle cx="783.5" cy="99.8" r="41.1" fill="none" stroke="url(#strokeA)" stroke-width="3.3" opacity="0.85"/>
  <circle cx="783.5" cy="99.8" r="35.3" fill="none" stroke="#A3E635" stroke-width="1.5" opacity="0.35"/>
  <polygon points="810.8,88.3 807.1,117.7 779.8,129.2 756.2,111.3 759.9,81.9 787.2,70.5" fill="none" stroke="url(#strokeB)" stroke-width="1.2" opacity="0.65"/>
  <polygon points="793.8,99.3 778.8,109.0 777.9,91.1" fill="#A3E635" opacity="0.22" filter="url(#softGlow)"/>
</g>


<g opacity="0.431" filter="url(#hardGlow)">
  <circle cx="826.5" cy="117.8" r="14.5" fill="#0A1224" opacity="0.65"/>
  <circle cx="826.5" cy="117.8" r="14.5" fill="none" stroke="url(#strokeA)" stroke-width="2.0" opacity="0.85"/>
  <circle cx="826.5" cy="117.8" r="12.5" fill="none" stroke="#F97316" stroke-width="1.5" opacity="0.35"/>
  <polygon points="836.6,115.0 834.0,125.1 824.0,128.0 816.5,120.7 819.0,110.6 829.1,107.7" fill="none" stroke="url(#strokeB)" stroke-width="1.2" opacity="0.65"/>
  <polygon points="830.2,118.1 824.5,120.9 824.9,114.5" fill="#F97316" opacity="0.22" filter="url(#softGlow)"/>
</g>


<g opacity="0.413" filter="url(#hardGlow)">
  <circle cx="743.6" cy="112.6" r="16.0" fill="#0A1224" opacity="0.65"/>
  <circle cx="743.6" cy="112.6" r="16.0" fill="none" stroke="url(#strokeA)" stroke-width="2.0" opacity="0.85"/>
  <circle cx="743.6" cy="112.6" r="13.7" fill="none" stroke="#F97316" stroke-width="1.5" opacity="0.35"/>
  <polygon points="743.2,101.1 753.3,106.6 753.7,118.1 743.9,124.1 733.8,118.7 733.4,107.2" fill="none" stroke="url(#strokeB)" stroke-width="1.2" opacity="0.65"/>
  
</g>


<g opacity="0.386" filter="url(#hardGlow)">
  <circle cx="740.1" cy="106.2" r="17.2" fill="#0A1224" opacity="0.65"/>
  <circle cx="740.1" cy="106.2" r="17.2" fill="none" stroke="url(#strokeA)" stroke-width="2.0" opacity="0.85"/>
  <circle cx="740.1" cy="106.2" r="14.8" fill="none" stroke="#F97316" stroke-width="1.5" opacity="0.35"/>
  <polygon points="728.8,111.4 729.9,99.0 741.2,93.8 751.3,101.0 750.2,113.3 739.0,118.5" fill="none" stroke="url(#strokeB)" stroke-width="1.2" opacity="0.65"/>
  
</g>


<g opacity="0.688" filter="url(#hardGlow)">
  <circle cx="60.7" cy="1474.2" r="53.0" fill="#0A1224" opacity="0.65"/>
  <circle cx="60.7" cy="1474.2" r="53.0" fill="none" stroke="url(#strokeA)" stroke-width="4.2" opacity="0.85"/>
  <circle cx="60.7" cy="1474.2" r="45.6" fill="none" stroke="#A3E635" stroke-width="1.6" opacity="0.35"/>
  <polygon points="51.9,1437.1 88.5,1448.0 97.3,1485.1 69.5,1511.3 33.0,1500.4 24.2,1463.2" fill="none" stroke="url(#strokeB)" stroke-width="1.3" opacity="0.65"/>
  <polygon points="62.3,1460.9 71.4,1482.2 48.5,1479.5" fill="#A3E635" opacity="0.22" filter="url(#softGlow)"/>
</g>


<g opacity="0.550" filter="url(#hardGlow)">
  <circle cx="136.3" cy="1484.7" r="28.3" fill="#0A1224" opacity="0.65"/>
  <circle cx="136.3" cy="1484.7" r="28.3" fill="none" stroke="url(#strokeA)" stroke-width="2.3" opacity="0.85"/>
  <circle cx="136.3" cy="1484.7" r="24.4" fill="none" stroke="#F97316" stroke-width="1.5" opacity="0.35"/>
  <polygon points="137.3,1505.1 119.1,1495.8 118.2,1475.4 135.4,1464.4 153.5,1473.7 154.5,1494.1" fill="none" stroke="url(#strokeB)" stroke-width="1.2" opacity="0.65"/>
  <polygon points="134.2,1491.6 131.5,1479.5 143.3,1483.2" fill="#F97316" opacity="0.22" filter="url(#softGlow)"/>
</g>


<g opacity="0.413" filter="url(#hardGlow)">
  <circle cx="28.3" cy="1522.0" r="26.1" fill="#0A1224" opacity="0.65"/>
  <circle cx="28.3" cy="1522.0" r="26.1" fill="none" stroke="url(#strokeA)" stroke-width="2.1" opacity="0.85"/>
  <circle cx="28.3" cy="1522.0" r="22.5" fill="none" stroke="#F97316" stroke-width="1.5" opacity="0.35"/>
  <polygon points="39.0,1537.4 20.2,1539.0 9.5,1523.5 17.5,1506.5 36.3,1505.0 47.0,1520.4" fill="none" stroke="url(#strokeB)" stroke-width="1.2" opacity="0.65"/>
  <polygon points="29.9,1528.3 21.9,1520.2 32.9,1517.3" fill="#F97316" opacity="0.22" filter="url(#softGlow)"/>
</g>


<g opacity="0.447" filter="url(#hardGlow)">
  <circle cx="127.5" cy="1449.7" r="19.1" fill="#0A1224" opacity="0.65"/>
  <circle cx="127.5" cy="1449.7" r="19.1" fill="none" stroke="url(#strokeA)" stroke-width="2.0" opacity="0.85"/>
  <circle cx="127.5" cy="1449.7" r="16.4" fill="none" stroke="#F97316" stroke-width="1.5" opacity="0.35"/>
  <polygon points="133.0,1462.3 119.4,1460.8 113.9,1448.2 122.0,1437.1 135.6,1438.7 141.2,1451.2" fill="none" stroke="url(#strokeB)" stroke-width="1.2" opacity="0.65"/>
  
</g>


<g opacity="0.792" filter="url(#hardGlow)">
  <circle cx="20.6" cy="1557.8" r="44.7" fill="#0A1224" opacity="0.65"/>
  <circle cx="20.6" cy="1557.8" r="44.7" fill="none" stroke="url(#strokeA)" stroke-width="3.6" opacity="0.85"/>
  <circle cx="20.6" cy="1557.8" r="38.4" fill="none" stroke="#A3E635" stroke-width="1.5" opacity="0.35"/>
  <polygon points="-6.6,1540.5 22.0,1525.6 49.1,1542.9 47.7,1575.1 19.1,1589.9 -8.0,1572.6" fill="none" stroke="url(#strokeB)" stroke-width="1.2" opacity="0.65"/>
  <polygon points="13.7,1548.8 31.7,1556.3 16.2,1568.2" fill="#A3E635" opacity="0.22" filter="url(#softGlow)"/>
</g>


<g opacity="0.596" filter="url(#hardGlow)">
  <circle cx="-7.0" cy="1586.3" r="23.8" fill="#0A1224" opacity="0.65"/>
  <circle cx="-7.0" cy="1586.3" r="23.8" fill="none" stroke="url(#strokeA)" stroke-width="2.0" opacity="0.85"/>
  <circle cx="-7.0" cy="1586.3" r="20.4" fill="none" stroke="#F97316" stroke-width="1.5" opacity="0.35"/>
  <polygon points="-21.0,1596.1 -22.5,1579.0 -8.4,1569.3 7.1,1576.5 8.5,1593.5 -5.5,1603.3" fill="none" stroke="url(#strokeB)" stroke-width="1.2" opacity="0.65"/>
  
</g>


<g opacity="0.903" filter="url(#hardGlow)">
  <circle cx="20.3" cy="68.5" r="54.3" fill="#0A1224" opacity="0.65"/>
  <circle cx="20.3" cy="68.5" r="54.3" fill="none" stroke="url(#strokeA)" stroke-width="4.3" opacity="0.85"/>
  <circle cx="20.3" cy="68.5" r="46.7" fill="none" stroke="#A3E635" stroke-width="1.6" opacity="0.35"/>
  <polygon points="-17.3,57.6 11.0,30.5 48.5,41.4 57.8,79.4 29.6,106.5 -8.0,95.6" fill="none" stroke="url(#strokeB)" stroke-width="1.4" opacity="0.65"/>
  <polygon points="9.2,60.4 32.8,63.0 18.8,82.1" fill="#A3E635" opacity="0.22" filter="url(#softGlow)"/>
</g>


<g opacity="0.406" filter="url(#hardGlow)">
  <circle cx="-51.6" cy="47.2" r="26.0" fill="#0A1224" opacity="0.65"/>
  <circle cx="-51.6" cy="47.2" r="26.0" fill="none" stroke="url(#strokeA)" stroke-width="2.1" opacity="0.85"/>
  <circle cx="-51.6" cy="47.2" r="22.4" fill="none" stroke="#F97316" stroke-width="1.5" opacity="0.35"/>
  <polygon points="-58.3,64.8 -70.1,50.2 -63.4,32.7 -44.9,29.7 -33.1,44.3 -39.8,61.8" fill="none" stroke="url(#strokeB)" stroke-width="1.2" opacity="0.65"/>
  
</g>


<g opacity="0.405" filter="url(#hardGlow)">
  <circle cx="78.3" cy="86.9" r="29.3" fill="#0A1224" opacity="0.65"/>
  <circle cx="78.3" cy="86.9" r="29.3" fill="none" stroke="url(#strokeA)" stroke-width="2.3" opacity="0.85"/>
  <circle cx="78.3" cy="86.9" r="25.2" fill="none" stroke="#F97316" stroke-width="1.5" opacity="0.35"/>
  <polygon points="78.2,65.8 96.6,76.2 96.7,97.3 78.4,108.0 60.1,97.5 60.0,76.4" fill="none" stroke="url(#strokeB)" stroke-width="1.2" opacity="0.65"/>
  
</g>


<g opacity="0.275" transform="translate(90.3,1485.8) rotate(-6.7)" filter="url(#softGlow)">
  <rect x="-89.7" y="-65.5" width="179.5" height="130.9" rx="13.1" fill="#050A12" opacity="0.25"/>
  <rect x="-89.7" y="-65.5" width="179.5" height="130.9" rx="13.1" fill="none" stroke="url(#strokeA)" stroke-width="6.5" opacity="0.85"/>
  <rect x="-79.3" y="-55.0" width="158.5" height="110.0" rx="9.2" fill="none" stroke="#F97316" stroke-width="2.6" opacity="0.35"/>
</g>


<g opacity="0.372" transform="translate(25.6,1548.1) rotate(-8.9)" filter="url(#softGlow)">
  <rect x="-78.5" y="-68.5" width="157.1" height="136.9" rx="13.7" fill="#050A12" opacity="0.25"/>
  <rect x="-78.5" y="-68.5" width="157.1" height="136.9" rx="13.7" fill="none" stroke="url(#strokeA)" stroke-width="6.8" opacity="0.85"/>
  <rect x="-67.6" y="-57.5" width="135.2" height="115.0" rx="9.6" fill="none" stroke="#A3E635" stroke-width="2.7" opacity="0.35"/>
</g>


<g opacity="0.299" transform="translate(55.7,19.9) rotate(-9.6)" filter="url(#softGlow)">
  <rect x="-72.9" y="-49.8" width="145.8" height="99.5" rx="10.0" fill="#050A12" opacity="0.25"/>
  <rect x="-72.9" y="-49.8" width="145.8" height="99.5" rx="10.0" fill="none" stroke="url(#strokeA)" stroke-width="5.0" opacity="0.85"/>
  <rect x="-64.9" y="-41.8" width="129.8" height="83.6" rx="7.0" fill="none" stroke="#A3E635" stroke-width="2.0" opacity="0.35"/>
</g>


<g opacity="0.415" transform="translate(148.6,553.3) rotate(0.1)" filter="url(#softGlow)">
  <rect x="-92.5" y="-67.3" width="185.1" height="134.5" rx="13.5" fill="#050A12" opacity="0.25"/>
  <rect x="-92.5" y="-67.3" width="185.1" height="134.5" rx="13.5" fill="none" stroke="url(#strokeA)" stroke-width="6.7" opacity="0.85"/>
  <rect x="-81.8" y="-56.5" width="163.6" height="113.0" rx="9.4" fill="none" stroke="#A3E635" stroke-width="2.7" opacity="0.35"/>
</g>


<g opacity="0.290" transform="translate(849.8,1561.3) rotate(6.2)" filter="url(#softGlow)">
  <rect x="-98.4" y="-83.4" width="196.8" height="166.8" rx="16.7" fill="#050A12" opacity="0.25"/>
  <rect x="-98.4" y="-83.4" width="196.8" height="166.8" rx="16.7" fill="none" stroke="url(#strokeA)" stroke-width="8.3" opacity="0.85"/>
  <rect x="-85.1" y="-70.0" width="170.1" height="140.1" rx="11.7" fill="none" stroke="#A3E635" stroke-width="3.3" opacity="0.35"/>
</g>


<g opacity="0.476" transform="translate(784.3,1487.9) rotate(17.5)" filter="url(#softGlow)">
  <rect x="-39.3" y="-22.7" width="78.7" height="45.3" rx="13.9" fill="none" stroke="#A3E635" stroke-width="7.6" opacity="0.55"/>
  <rect x="-17.3" y="-11.3" width="78.7" height="45.3" rx="13.9" fill="none" stroke="url(#strokeA)" stroke-width="6.3" opacity="0.55"/>
</g>


<g opacity="0.305" transform="translate(136.6,34.3) rotate(6.5)" filter="url(#softGlow)">
  <rect x="-41.3" y="-23.8" width="82.6" height="47.6" rx="14.5" fill="none" stroke="#A3E635" stroke-width="7.9" opacity="0.55"/>
  <rect x="-18.2" y="-11.9" width="82.6" height="47.6" rx="14.5" fill="none" stroke="url(#strokeA)" stroke-width="6.6" opacity="0.55"/>
</g>


<g opacity="0.421" transform="translate(828.3,1496.2) rotate(9.8)" filter="url(#softGlow)">
  <rect x="-34.0" y="-19.6" width="68.0" height="39.1" rx="12.0" fill="none" stroke="#F97316" stroke-width="6.5" opacity="0.55"/>
  <rect x="-15.0" y="-9.8" width="68.0" height="39.1" rx="12.0" fill="none" stroke="url(#strokeA)" stroke-width="5.4" opacity="0.55"/>
</g>


<g opacity="0.336" transform="translate(755.4,1499.7) rotate(-17.7)" filter="url(#softGlow)">
  <rect x="-41.8" y="-24.1" width="83.6" height="48.1" rx="14.7" fill="none" stroke="#F97316" stroke-width="8.0" opacity="0.55"/>
  <rect x="-18.4" y="-12.0" width="83.6" height="48.1" rx="14.7" fill="none" stroke="url(#strokeA)" stroke-width="6.7" opacity="0.55"/>
</g>


<g opacity="0.415" transform="translate(190.6,144.9) rotate(-3.6)" filter="url(#softGlow)">
  <rect x="-34.3" y="-19.8" width="68.6" height="39.5" rx="12.1" fill="none" stroke="#A3E635" stroke-width="6.6" opacity="0.55"/>
  <rect x="-15.1" y="-9.9" width="68.6" height="39.5" rx="12.1" fill="none" stroke="url(#strokeA)" stroke-width="5.5" opacity="0.55"/>
</g>


<g opacity="0.298" transform="translate(6.4,139.8) rotate(7.4)" filter="url(#softGlow)">
  <rect x="-40.1" y="-23.1" width="80.3" height="46.2" rx="14.1" fill="none" stroke="#F97316" stroke-width="7.7" opacity="0.55"/>
  <rect x="-17.7" y="-11.6" width="80.3" height="46.2" rx="14.1" fill="none" stroke="url(#strokeA)" stroke-width="6.4" opacity="0.55"/>
</g>


<g opacity="0.230" transform="translate(101.0,814.3) rotate(1.5)" filter="url(#softGlow)">
  <rect x="-39.8" y="-22.9" width="79.5" height="45.8" rx="14.0" fill="none" stroke="#A3E635" stroke-width="7.6" opacity="0.55"/>
  <rect x="-17.5" y="-11.5" width="79.5" height="45.8" rx="14.0" fill="none" stroke="url(#strokeA)" stroke-width="6.4" opacity="0.55"/>
</g>


<g opacity="0.190">
  <line x1="651.9" y1="1395.8" x2="651.9" y2="1483.8" stroke="#F97316" stroke-width="2.01" opacity="0.45"/>
  <rect x="646.1" y="1439.8" width="11.7" height="52.8" rx="3.9" fill="#0B1020" opacity="0.55" stroke="url(#strokeA)" stroke-width="1.2"/>
</g>

<g opacity="0.190">
  <line x1="409.6" y1="1430.5" x2="409.6" y2="1475.1" stroke="#F97316" stroke-width="1.88" opacity="0.45"/>
  <rect x="405.2" y="1454.0" width="8.8" height="24.5" rx="2.9" fill="#0B1020" opacity="0.55" stroke="url(#strokeA)" stroke-width="1.2"/>
</g>

<g opacity="0.190">
  <line x1="770.7" y1="1402.2" x2="770.7" y2="1482.2" stroke="#F97316" stroke-width="1.39" opacity="0.45"/>
  <rect x="765.5" y="1452.8" width="10.3" height="26.8" rx="3.4" fill="#0B1020" opacity="0.55" stroke="url(#strokeA)" stroke-width="1.2"/>
</g>

<g opacity="0.190">
  <line x1="243.4" y1="1414.9" x2="243.4" y2="1479.0" stroke="#F97316" stroke-width="2.12" opacity="0.45"/>
  <rect x="239.4" y="1448.8" width="8.1" height="34.8" rx="2.7" fill="#0B1020" opacity="0.55" stroke="url(#strokeA)" stroke-width="1.2"/>
</g>

<g opacity="0.190">
  <line x1="702.2" y1="1401.0" x2="702.2" y2="1482.5" stroke="#F97316" stroke-width="1.22" opacity="0.45"/>
  <rect x="696.8" y="1442.5" width="10.8" height="47.5" rx="3.6" fill="#0B1020" opacity="0.55" stroke="url(#strokeA)" stroke-width="1.2"/>
</g>

<g opacity="0.190">
  <line x1="782.2" y1="1418.3" x2="782.2" y2="1478.2" stroke="#F97316" stroke-width="2.16" opacity="0.45"/>
  <rect x="778.7" y="1451.6" width="7.1" height="29.2" rx="2.4" fill="#0B1020" opacity="0.55" stroke="url(#strokeA)" stroke-width="1.2"/>
</g>

<g opacity="0.190">
  <line x1="572.3" y1="1372.5" x2="572.3" y2="1489.6" stroke="#F97316" stroke-width="1.54" opacity="0.45"/>
  <rect x="566.5" y="1439.0" width="11.7" height="54.3" rx="3.9" fill="#0B1020" opacity="0.55" stroke="url(#strokeA)" stroke-width="1.2"/>
</g>

<g opacity="0.190">
  <line x1="172.0" y1="1414.0" x2="172.0" y2="1479.3" stroke="#F97316" stroke-width="1.59" opacity="0.45"/>
  <rect x="166.9" y="1451.0" width="10.2" height="30.5" rx="3.4" fill="#0B1020" opacity="0.55" stroke="url(#strokeA)" stroke-width="1.2"/>
</g>

<g opacity="0.190">
  <line x1="772.3" y1="1405.0" x2="772.3" y2="1481.5" stroke="#F97316" stroke-width="1.50" opacity="0.45"/>
  <rect x="767.3" y="1453.0" width="9.9" height="26.4" rx="3.3" fill="#0B1020" opacity="0.55" stroke="url(#strokeA)" stroke-width="1.2"/>
</g>

<g opacity="0.190">
  <line x1="839.7" y1="1407.3" x2="839.7" y2="1480.9" stroke="#F97316" stroke-width="1.59" opacity="0.45"/>
  <rect x="835.6" y="1445.9" width="8.2" height="40.7" rx="2.7" fill="#0B1020" opacity="0.55" stroke="url(#strokeA)" stroke-width="1.2"/>
</g>

<g opacity="0.190">
  <line x1="283.5" y1="1414.7" x2="283.5" y2="1479.1" stroke="#F97316" stroke-width="1.71" opacity="0.45"/>
  <rect x="280.0" y="1449.9" width="7.0" height="32.6" rx="2.3" fill="#0B1020" opacity="0.55" stroke="url(#strokeA)" stroke-width="1.2"/>
</g>

<g opacity="0.190">
  <line x1="842.9" y1="1374.6" x2="842.9" y2="1489.1" stroke="#F97316" stroke-width="1.90" opacity="0.45"/>
  <rect x="837.2" y="1437.1" width="11.4" height="58.3" rx="3.8" fill="#0B1020" opacity="0.55" stroke="url(#strokeA)" stroke-width="1.2"/>
</g>
<circle cx="48.1" cy="1489.2" r="2.2" fill="#A3E635" opacity="0.14" filter="url(#softGlow)"/>
<circle cx="761.6" cy="1164.1" r="3.0" fill="#A3E635" opacity="0.21" filter="url(#softGlow)"/>
<circle cx="59.9" cy="1561.4" r="2.8" fill="#A3E635" opacity="0.16" filter="url(#softGlow)"/>
<circle cx="786.6" cy="1533.8" r="2.2" fill="#A3E635" opacity="0.13" filter="url(#softGlow)"/>
<circle cx="147.0" cy="1534.5" r="2.2" fill="#A3E635" opacity="0.25" filter="url(#softGlow)"/>
<circle cx="84.5" cy="57.2" r="2.4" fill="#A3E635" opacity="0.23" filter="url(#softGlow)"/>
<circle cx="32.5" cy="155.3" r="3.0" fill="#A3E635" opacity="0.27" filter="url(#softGlow)"/>
<circle cx="110.1" cy="1526.9" r="2.7" fill="#A3E635" opacity="0.13" filter="url(#softGlow)"/>
<circle cx="757.8" cy="13.0" r="2.4" fill="#A3E635" opacity="0.14" filter="url(#softGlow)"/>
<circle cx="115.2" cy="1513.6" r="1.6" fill="#A3E635" opacity="0.25" filter="url(#softGlow)"/>
<circle cx="812.4" cy="60.2" r="1.9" fill="#A3E635" opacity="0.16" filter="url(#softGlow)"/>
<circle cx="118.3" cy="957.6" r="1.6" fill="#A3E635" opacity="0.12" filter="url(#softGlow)"/>
<circle cx="853.4" cy="76.3" r="1.9" fill="#A3E635" opacity="0.14" filter="url(#softGlow)"/>
<circle cx="115.6" cy="146.9" r="3.1" fill="#A3E635" opacity="0.18" filter="url(#softGlow)"/>
<circle cx="726.1" cy="176.9" r="2.1" fill="#A3E635" opacity="0.23" filter="url(#softGlow)"/>
<circle cx="722.1" cy="1466.8" r="2.1" fill="#A3E635" opacity="0.11" filter="url(#softGlow)"/>
<circle cx="755.6" cy="157.9" r="2.1" fill="#A3E635" opacity="0.10" filter="url(#softGlow)"/>
<circle cx="179.0" cy="36.1" r="2.2" fill="#A3E635" opacity="0.26" filter="url(#softGlow)"/>
<circle cx="20.9" cy="1013.9" r="3.1" fill="#A3E635" opacity="0.22" filter="url(#softGlow)"/>
<circle cx="754.5" cy="100.6" r="3.0" fill="#A3E635" opacity="0.28" filter="url(#softGlow)"/>
<circle cx="894.4" cy="92.7" r="1.9" fill="#A3E635" opacity="0.10" filter="url(#softGlow)"/>
<circle cx="105.1" cy="100.0" r="1.5" fill="#A3E635" opacity="0.11" filter="url(#softGlow)"/>
<circle cx="75.5" cy="363.9" r="2.4" fill="#A3E635" opacity="0.24" filter="url(#softGlow)"/>
<circle cx="789.2" cy="1515.7" r="2.5" fill="#A3E635" opacity="0.18" filter="url(#softGlow)"/>
<circle cx="774.5" cy="83.1" r="1.4" fill="#A3E635" opacity="0.14" filter="url(#softGlow)"/>
</svg>