<svg xmlns="http://www.w3.org/2000/svg" width="900" height="1600" viewBox="0 0 900 1600" preserveAspectRatio="xMidYMid slice">
<defs>
  <linearGradient id="g0" x1="0" y1="0" x2="1" y2="1">
    <stop offset="0" stop-color="#0B1020"/>
    <stop offset="0.55" stop-color="#F97316" stop-opacity="0.9"/>
    <stop offset="1" stop-color="#020617"/>
  </linearGradient>
  <radialGradient id="g1" cx="20%" cy="15%" r="70%">
    <stop offset="0" stop-color="#06B6D4" stop-opacity="0.38"/>
    <stop offset="0.6" stop-color="#06B6D4" stop-opacity="0.08"/>
    <stop offset="1" stop-color="#06B6D4" stop-opacity="0"/>
  </radialGradient>
  <radialGradient id="g2" cx="85%" cy="80%" r="75%">
    <stop offset="0" stop-color="#06B6D4" stop-opacity="0.28"/>
    <stop offset="0.65" stop-color="#06B6D4" stop-opacity="0.06"/>
    <stop offset="1" stop-color="#06B6D4" stop-opacity="0"/>
  </radialGradient>
  <filter id="softGlow" x="-30%" y="-30%" width="160%" height="160%">
    <feGaussianBlur stdDeviation="12" result="b"/>
    <feMerge>
      <feMergeNode in="b"/>
      <feMergeNode in="SourceGraphic"/>
    </feMerge>
  </filter>
  <filter id="hardGlow" x="-40%" y="-40%" width="180%" height="180%">
    <feGaussianBlur stdDeviation="6" result="b"/>
    <feColorMatrix in="b" type="matrix" values="1 0 0 0 0  0 1 0 0 0  0 0 1 0 0  0 0 0 18 -7" result="c"/>
    <feMerge>
      <feMergeNode in="c"/>
      <feMergeNode in="SourceGraphic"/>
    </feMerge>
  </filter>
  <linearGradient id="strokeA" x1="0" y1="0" x2="1" y2="0">
    <stop offset="0" stop-color="#06B6D4" stop-opacity="0.9"/>
    <stop offset="0.5" stop-color="#FFFFFF" stop-opacity="0.25"/>
    <stop offset="1" stop-color="#06B6D4" stop-opacity="0.7"/>
  </linearGradient>
  <linearGradient id="strokeB" x1="0" y1="0" x2="0" y2="1">
    <stop offset="0" stop-color="#FFFFFF" stop-opacity="0.18"/>
    <stop offset="1" stop-color="#06B6D4" stop-opacity="0.55"/>
  </linearGradient>
</defs>
<rect x="0" y="0" width="900" height="1600" fill="url(#g0)"/>
<rect x="0" y="0" width="900" height="1600" fill="url(#g1)"/>
<rect x="0" y="0" width="900" height="1600" fill="url(#g2)"/>


<defs>
  <radialGradient id="vign" cx="0.5000" cy="0.5000" r="0.85">
    <stop offset="0" stop-color="#000000" stop-opacity="0"/>
    <stop offset="0.55" stop-color="#000000" stop-opacity="0.217"/>
    <stop offset="1" stop-color="#000000" stop-opacity="0.620"/>
  </radialGradient>
</defs>
<rect x="0" y="0" width="900" height="1600" fill="url(#vign)"/>

<g opacity="0.221" filter="url(#softGlow)"><path d="M 893.2,115.2 L 891.8,115.2 L 891.8,86.0 L 152.0,86.0 L 152.0,1507.1 " fill="none" stroke="url(#strokeB)" stroke-width="2.02" stroke-linecap="round" stroke-linejoin="round"/><circle cx="152.0" cy="1507.1" r="3.3" fill="#A3E635" opacity="0.45"/><circle cx="891.8" cy="115.2" r="3.6" fill="#A3E635" opacity="0.45"/><circle cx="891.8" cy="86.0" r="3.1" fill="#A3E635" opacity="0.45"/></g>
<g opacity="0.221" filter="url(#softGlow)"><path d="M 799.9,1498.7 L 602.6,1498.7 L 602.6,1500.7 L 802.4,1500.7 L 802.4,1576.8 " fill="none" stroke="url(#strokeB)" stroke-width="1.26" stroke-linecap="round" stroke-linejoin="round"/><circle cx="802.4" cy="1500.7" r="4.2" fill="#A3E635" opacity="0.45"/><circle cx="602.6" cy="1498.7" r="2.6" fill="#A3E635" opacity="0.45"/><circle cx="602.6" cy="1500.7" r="4.1" fill="#A3E635" opacity="0.45"/></g>
<g opacity="0.221" filter="url(#softGlow)"><path d="M 116.3,559.4 L 896.2,559.4 L 896.2,100.7 L 30.0,100.7 L 30.0,1447.3 " fill="none" stroke="url(#strokeB)" stroke-width="2.17" stroke-linecap="round" stroke-linejoin="round"/><circle cx="30.0" cy="100.7" r="3.3" fill="#A3E635" opacity="0.45"/><circle cx="896.2" cy="559.4" r="2.7" fill="#A3E635" opacity="0.45"/><circle cx="30.0" cy="1447.3" r="3.3" fill="#A3E635" opacity="0.45"/></g>
<g opacity="0.221" filter="url(#softGlow)"><path d="M 20.3,1567.7 L 766.2,1567.7 L 766.2,293.7 L 240.3,293.7 L 240.3,1522.6 " fill="none" stroke="url(#strokeB)" stroke-width="1.59" stroke-linecap="round" stroke-linejoin="round"/><circle cx="766.2" cy="293.7" r="2.3" fill="#A3E635" opacity="0.45"/><circle cx="240.3" cy="293.7" r="3.1" fill="#A3E635" opacity="0.45"/><circle cx="240.3" cy="1522.6" r="3.8" fill="#A3E635" opacity="0.45"/></g>
<g opacity="0.221" filter="url(#softGlow)"><path d="M 88.8,161.1 L 101.6,161.1 L 101.6,105.2 L 895.6,105.2 L 895.6,641.2 " fill="none" stroke="url(#strokeB)" stroke-width="2.15" stroke-linecap="round" stroke-linejoin="round"/><circle cx="88.8" cy="161.1" r="4.1" fill="#A3E635" opacity="0.45"/><circle cx="101.6" cy="105.2" r="3.7" fill="#A3E635" opacity="0.45"/><circle cx="895.6" cy="105.2" r="3.3" fill="#A3E635" opacity="0.45"/></g>
<g opacity="0.221" filter="url(#softGlow)"><path d="M 166.0,1429.8 L 807.4,1429.8 L 807.4,691.0 L 137.1,691.0 L 137.1,102.7 " fill="none" stroke="url(#strokeB)" stroke-width="1.91" stroke-linecap="round" stroke-linejoin="round"/><circle cx="137.1" cy="691.0" r="3.1" fill="#A3E635" opacity="0.45"/><circle cx="807.4" cy="1429.8" r="4.1" fill="#A3E635" opacity="0.45"/><circle cx="137.1" cy="102.7" r="2.9" fill="#A3E635" opacity="0.45"/></g>
<g opacity="0.221" filter="url(#softGlow)"><path d="M 640.7,1457.1 L 703.3,1457.1 L 703.3,1431.6 L 42.8,1431.6 L 42.8,15.0 " fill="none" stroke="url(#strokeB)" stroke-width="2.00" stroke-linecap="round" stroke-linejoin="round"/><circle cx="703.3" cy="1431.6" r="2.3" fill="#A3E635" opacity="0.45"/><circle cx="42.8" cy="1431.6" r="3.1" fill="#A3E635" opacity="0.45"/><circle cx="42.8" cy="15.0" r="2.1" fill="#A3E635" opacity="0.45"/></g>
<g opacity="0.221" filter="url(#softGlow)"><path d="M 54.4,1561.2 L 809.6,1561.2 L 809.6,1536.8 L 108.3,1536.8 L 108.3,1597.6 " fill="none" stroke="url(#strokeB)" stroke-width="1.42" stroke-linecap="round" stroke-linejoin="round"/><circle cx="54.4" cy="1561.2" r="3.6" fill="#A3E635" opacity="0.45"/><circle cx="108.3" cy="1536.8" r="2.5" fill="#A3E635" opacity="0.45"/><circle cx="809.6" cy="1561.2" r="4.2" fill="#A3E635" opacity="0.45"/></g>
<g opacity="0.221" filter="url(#softGlow)"><path d="M 465.3,1467.3 L 34.8,1467.3 L 34.8,1533.9 L 883.6,1533.9 L 883.6,78.7 " fill="none" stroke="url(#strokeB)" stroke-width="1.98" stroke-linecap="round" stroke-linejoin="round"/><circle cx="465.3" cy="1467.3" r="2.5" fill="#A3E635" opacity="0.45"/><circle cx="34.8" cy="1467.3" r="2.9" fill="#A3E635" opacity="0.45"/><circle cx="883.6" cy="78.7" r="3.0" fill="#A3E635" opacity="0.45"/></g>
<g opacity="0.221" filter="url(#softGlow)"><path d="M 879.1,1554.2 L 785.8,1554.2 L 785.8,155.7 L 743.2,155.7 L 743.2,1493.6 " fill="none" stroke="url(#strokeB)" stroke-width="1.68" stroke-linecap="round" stroke-linejoin="round"/><circle cx="743.2" cy="155.7" r="3.5" fill="#A3E635" opacity="0.45"/><circle cx="879.1" cy="1554.2" r="2.3" fill="#A3E635" opacity="0.45"/><circle cx="785.8" cy="155.7" r="2.4" fill="#A3E635" opacity="0.45"/></g>
<g opacity="0.221" filter="url(#softGlow)"><path d="M 828.5,1580.2 L 146.6,1580.2 L 146.6,157.2 L 851.0,157.2 L 851.0,1588.3 " fill="none" stroke="url(#strokeB)" stroke-width="2.01" stroke-linecap="round" stroke-linejoin="round"/><circle cx="146.6" cy="157.2" r="2.4" fill="#A3E635" opacity="0.45"/><circle cx="851.0" cy="1588.3" r="2.2" fill="#A3E635" opacity="0.45"/><circle cx="146.6" cy="1580.2" r="4.1" fill="#A3E635" opacity="0.45"/></g>
<g opacity="0.221" filter="url(#softGlow)"><path d="M 882.8,741.6 L 841.3,741.6 L 841.3,127.1 L 625.1,127.1 L 625.1,1528.7 " fill="none" stroke="url(#strokeB)" stroke-width="1.82" stroke-linecap="round" stroke-linejoin="round"/><circle cx="841.3" cy="127.1" r="2.3" fill="#A3E635" opacity="0.45"/><circle cx="625.1" cy="1528.7" r="2.0" fill="#A3E635" opacity="0.45"/><circle cx="882.8" cy="741.6" r="4.0" fill="#A3E635" opacity="0.45"/></g>
<g opacity="0.221" filter="url(#softGlow)"><path d="M 792.8,1427.5 L 129.4,1427.5 L 129.4,173.2 L 129.3,173.2 L 129.3,127.7 " fill="none" stroke="url(#strokeB)" stroke-width="1.95" stroke-linecap="round" stroke-linejoin="round"/><circle cx="129.3" cy="127.7" r="2.1" fill="#A3E635" opacity="0.45"/><circle cx="129.4" cy="1427.5" r="2.9" fill="#A3E635" opacity="0.45"/><circle cx="129.3" cy="173.2" r="2.6" fill="#A3E635" opacity="0.45"/></g>
<g opacity="0.221" filter="url(#softGlow)"><path d="M 842.5,51.7 L 147.9,51.7 L 147.9,1496.1 L 820.3,1496.1 L 820.3,1501.1 " fill="none" stroke="url(#strokeB)" stroke-width="1.50" stroke-linecap="round" stroke-linejoin="round"/><circle cx="147.9" cy="51.7" r="3.7" fill="#A3E635" opacity="0.45"/><circle cx="842.5" cy="51.7" r="3.6" fill="#A3E635" opacity="0.45"/><circle cx="820.3" cy="1496.1" r="3.2" fill="#A3E635" opacity="0.45"/></g>
<g opacity="0.221" filter="url(#softGlow)"><path d="M 12.9,1466.8 L 894.5,1466.8 L 894.5,1495.8 L 123.8,1495.8 L 123.8,123.3 " fill="none" stroke="url(#strokeB)" stroke-width="1.72" stroke-linecap="round" stroke-linejoin="round"/><circle cx="894.5" cy="1495.8" r="2.0" fill="#A3E635" opacity="0.45"/><circle cx="123.8" cy="1495.8" r="3.0" fill="#A3E635" opacity="0.45"/><circle cx="12.9" cy="1466.8" r="3.8" fill="#A3E635" opacity="0.45"/></g>
<g opacity="0.221" filter="url(#softGlow)"><path d="M 312.0,1512.5 L 87.6,1512.5 L 87.6,1116.4 L 120.9,1116.4 L 120.9,94.2 " fill="none" stroke="url(#strokeB)" stroke-width="1.76" stroke-linecap="round" stroke-linejoin="round"/><circle cx="312.0" cy="1512.5" r="3.9" fill="#A3E635" opacity="0.45"/><circle cx="87.6" cy="1116.4" r="3.8" fill="#A3E635" opacity="0.45"/><circle cx="120.9" cy="94.2" r="4.0" fill="#A3E635" opacity="0.45"/></g>

<g opacity="0.874" filter="url(#hardGlow)">
  <circle cx="389.7" cy="1520.6" r="34.7" fill="#0A1224" opacity="0.65"/>
  <circle cx="389.7" cy="1520.6" r="34.7" fill="none" stroke="url(#strokeA)" stroke-width="2.8" opacity="0.85"/>
  <circle cx="389.7" cy="1520.6" r="29.9" fill="none" stroke="#F97316" stroke-width="1.5" opacity="0.35"/>
  <polygon points="412.0,1531.9 391.1,1545.6 368.7,1534.3 367.3,1509.4 388.3,1495.7 410.6,1506.9" fill="none" stroke="url(#strokeB)" stroke-width="1.2" opacity="0.65"/>
  <polygon points="395.7,1527.0 381.2,1522.6 392.2,1512.3" fill="#F97316" opacity="0.22" filter="url(#softGlow)"/>
</g>


<g opacity="0.611" filter="url(#hardGlow)">
  <circle cx="366.9" cy="1557.1" r="14.7" fill="#0A1224" opacity="0.65"/>
  <circle cx="366.9" cy="1557.1" r="14.7" fill="none" stroke="url(#strokeA)" stroke-width="2.0" opacity="0.85"/>
  <circle cx="366.9" cy="1557.1" r="12.6" fill="none" stroke="#A3E635" stroke-width="1.5" opacity="0.35"/>
  <polygon points="376.1,1551.9 376.0,1562.4 366.8,1567.6 357.7,1562.3 357.8,1551.7 367.0,1546.5" fill="none" stroke="url(#strokeB)" stroke-width="1.2" opacity="0.65"/>
  
</g>


<g opacity="0.410" filter="url(#hardGlow)">
  <circle cx="425.1" cy="1543.7" r="14.9" fill="#0A1224" opacity="0.65"/>
  <circle cx="425.1" cy="1543.7" r="14.9" fill="none" stroke="url(#strokeA)" stroke-width="2.0" opacity="0.85"/>
  <circle cx="425.1" cy="1543.7" r="12.8" fill="none" stroke="#A3E635" stroke-width="1.5" opacity="0.35"/>
  <polygon points="417.1,1536.5 427.4,1533.2 435.3,1540.4 433.1,1550.9 422.9,1554.2 414.9,1547.0" fill="none" stroke="url(#strokeB)" stroke-width="1.2" opacity="0.65"/>
  
</g>


<g opacity="0.822" filter="url(#hardGlow)">
  <circle cx="862.2" cy="1533.1" r="53.5" fill="#0A1224" opacity="0.65"/>
  <circle cx="862.2" cy="1533.1" r="53.5" fill="none" stroke="url(#strokeA)" stroke-width="4.3" opacity="0.85"/>
  <circle cx="862.2" cy="1533.1" r="46.0" fill="none" stroke="#F97316" stroke-width="1.6" opacity="0.35"/>
  <polygon points="839.4,1564.2 823.9,1528.9 846.7,1497.9 885.0,1502.1 900.5,1537.4 877.7,1568.4" fill="none" stroke="url(#strokeB)" stroke-width="1.3" opacity="0.65"/>
  <polygon points="851.0,1540.6 861.3,1519.7 874.3,1539.1" fill="#F97316" opacity="0.22" filter="url(#softGlow)"/>
</g>


<g opacity="0.612" filter="url(#hardGlow)">
  <circle cx="849.0" cy="1550.1" r="26.8" fill="#0A1224" opacity="0.65"/>
  <circle cx="849.0" cy="1550.1" r="26.8" fill="none" stroke="url(#strokeA)" stroke-width="2.1" opacity="0.85"/>
  <circle cx="849.0" cy="1550.1" r="23.0" fill="none" stroke="#A3E635" stroke-width="1.5" opacity="0.35"/>
  <polygon points="854.4,1568.6 835.7,1564.0 830.3,1545.5 843.7,1531.6 862.4,1536.2 867.7,1554.7" fill="none" stroke="url(#strokeB)" stroke-width="1.2" opacity="0.65"/>
  <polygon points="848.6,1556.8 843.4,1546.3 855.1,1547.1" fill="#A3E635" opacity="0.22" filter="url(#softGlow)"/>
</g>


<g opacity="0.359" filter="url(#hardGlow)">
  <circle cx="793.2" cy="1569.1" r="25.3" fill="#0A1224" opacity="0.65"/>
  <circle cx="793.2" cy="1569.1" r="25.3" fill="none" stroke="url(#strokeA)" stroke-width="2.0" opacity="0.85"/>
  <circle cx="793.2" cy="1569.1" r="21.8" fill="none" stroke="#A3E635" stroke-width="1.5" opacity="0.35"/>
  <polygon points="809.4,1577.6 794.0,1587.3 777.8,1578.8 777.1,1560.6 792.5,1550.9 808.6,1559.4" fill="none" stroke="url(#strokeB)" stroke-width="1.2" opacity="0.65"/>
  
</g>


<g opacity="0.408" filter="url(#hardGlow)">
  <circle cx="886.7" cy="1487.4" r="22.0" fill="#0A1224" opacity="0.65"/>
  <circle cx="886.7" cy="1487.4" r="22.0" fill="none" stroke="url(#strokeA)" stroke-width="2.0" opacity="0.85"/>
  <circle cx="886.7" cy="1487.4" r="18.9" fill="none" stroke="#A3E635" stroke-width="1.5" opacity="0.35"/>
  <polygon points="893.5,1501.7 877.7,1500.5 870.9,1486.2 879.8,1473.1 895.6,1474.3 902.5,1488.6" fill="none" stroke="url(#strokeB)" stroke-width="1.2" opacity="0.65"/>
  <polygon points="887.2,1492.9 881.6,1485.1 891.2,1484.2" fill="#A3E635" opacity="0.22" filter="url(#softGlow)"/>
</g>


<g opacity="0.792" filter="url(#hardGlow)">
  <circle cx="768.5" cy="1555.4" r="53.5" fill="#0A1224" opacity="0.65"/>
  <circle cx="768.5" cy="1555.4" r="53.5" fill="none" stroke="url(#strokeA)" stroke-width="4.3" opacity="0.85"/>
  <circle cx="768.5" cy="1555.4" r="46.0" fill="none" stroke="#F97316" stroke-width="1.6" opacity="0.35"/>
  <polygon points="768.4,1516.8 801.8,1536.0 801.9,1574.5 768.6,1593.9 735.2,1574.8 735.1,1536.2" fill="none" stroke="url(#strokeB)" stroke-width="1.3" opacity="0.65"/>
  <polygon points="773.1,1542.7 777.2,1565.7 755.2,1557.8" fill="#F97316" opacity="0.22" filter="url(#softGlow)"/>
</g>


<g opacity="0.615" filter="url(#hardGlow)">
  <circle cx="723.9" cy="1614.1" r="24.0" fill="#0A1224" opacity="0.65"/>
  <circle cx="723.9" cy="1614.1" r="24.0" fill="none" stroke="url(#strokeA)" stroke-width="2.0" opacity="0.85"/>
  <circle cx="723.9" cy="1614.1" r="20.7" fill="none" stroke="#A3E635" stroke-width="1.5" opacity="0.35"/>
  <polygon points="732.1,1629.3 714.8,1628.8 706.6,1613.6 715.7,1598.8 733.0,1599.3 741.2,1614.6" fill="none" stroke="url(#strokeB)" stroke-width="1.2" opacity="0.65"/>
  
</g>


<g opacity="0.464" filter="url(#hardGlow)">
  <circle cx="801.4" cy="1571.3" r="19.8" fill="#0A1224" opacity="0.65"/>
  <circle cx="801.4" cy="1571.3" r="19.8" fill="none" stroke="url(#strokeA)" stroke-width="2.0" opacity="0.85"/>
  <circle cx="801.4" cy="1571.3" r="17.0" fill="none" stroke="#A3E635" stroke-width="1.5" opacity="0.35"/>
  <polygon points="798.4,1585.3 787.8,1575.7 790.9,1561.7 804.4,1557.4 815.0,1567.0 811.9,1580.9" fill="none" stroke="url(#strokeB)" stroke-width="1.2" opacity="0.65"/>
  
</g>


<g opacity="0.748" filter="url(#hardGlow)">
  <circle cx="87.9" cy="1257.7" r="55.7" fill="#0A1224" opacity="0.65"/>
  <circle cx="87.9" cy="1257.7" r="55.7" fill="none" stroke="url(#strokeA)" stroke-width="4.5" opacity="0.85"/>
  <circle cx="87.9" cy="1257.7" r="47.9" fill="none" stroke="#F97316" stroke-width="1.7" opacity="0.35"/>
  <polygon points="97.7,1218.8 126.5,1246.7 116.8,1285.5 78.2,1296.6 49.4,1268.7 59.1,1229.8" fill="none" stroke="url(#strokeB)" stroke-width="1.4" opacity="0.65"/>
  <polygon points="95.8,1246.1 94.1,1270.3 73.9,1256.7" fill="#F97316" opacity="0.22" filter="url(#softGlow)"/>
</g>


<g opacity="0.491" filter="url(#hardGlow)">
  <circle cx="70.3" cy="1284.1" r="25.4" fill="#0A1224" opacity="0.65"/>
  <circle cx="70.3" cy="1284.1" r="25.4" fill="none" stroke="url(#strokeA)" stroke-width="2.0" opacity="0.85"/>
  <circle cx="70.3" cy="1284.1" r="21.9" fill="none" stroke="#A3E635" stroke-width="1.5" opacity="0.35"/>
  <polygon points="53.6,1276.7 68.4,1265.9 85.1,1273.3 87.1,1291.5 72.3,1302.3 55.5,1294.8" fill="none" stroke="url(#strokeB)" stroke-width="1.2" opacity="0.65"/>
  
</g>


<g opacity="0.418" transform="translate(29.2,1533.1) rotate(9.1)" filter="url(#softGlow)">
  <rect x="-92.5" y="-75.3" width="185.1" height="150.6" rx="15.1" fill="#050A12" opacity="0.25"/>
  <rect x="-92.5" y="-75.3" width="185.1" height="150.6" rx="15.1" fill="none" stroke="url(#strokeA)" stroke-width="7.5" opacity="0.85"/>
  <rect x="-80.5" y="-63.3" width="161.0" height="126.5" rx="10.5" fill="none" stroke="#F97316" stroke-width="3.0" opacity="0.35"/>
</g>


<g opacity="0.383" transform="translate(12.6,592.4) rotate(-5.3)" filter="url(#softGlow)">
  <rect x="-82.6" y="-78.4" width="165.3" height="156.7" rx="15.7" fill="#050A12" opacity="0.25"/>
  <rect x="-82.6" y="-78.4" width="165.3" height="156.7" rx="15.7" fill="none" stroke="url(#strokeA)" stroke-width="7.8" opacity="0.85"/>
  <rect x="-70.1" y="-65.8" width="140.2" height="131.6" rx="11.0" fill="none" stroke="#A3E635" stroke-width="3.1" opacity="0.35"/>
</g>


<g opacity="0.430" transform="translate(745.4,1559.8) rotate(-2.8)" filter="url(#softGlow)">
  <rect x="-89.6" y="-79.3" width="179.2" height="158.6" rx="15.9" fill="#050A12" opacity="0.25"/>
  <rect x="-89.6" y="-79.3" width="179.2" height="158.6" rx="15.9" fill="none" stroke="url(#strokeA)" stroke-width="7.9" opacity="0.85"/>
  <rect x="-76.9" y="-66.6" width="153.8" height="133.2" rx="11.1" fill="none" stroke="#F97316" stroke-width="3.2" opacity="0.35"/>
</g>


<g opacity="0.269" transform="translate(529.5,11.1) rotate(-5.2)" filter="url(#softGlow)">
  <rect x="-42.1" y="-24.3" width="84.3" height="48.5" rx="14.8" fill="none" stroke="#F97316" stroke-width="8.1" opacity="0.55"/>
  <rect x="-18.5" y="-12.1" width="84.3" height="48.5" rx="14.8" fill="none" stroke="url(#strokeA)" stroke-width="6.7" opacity="0.55"/>
</g>


<g opacity="0.476" transform="translate(51.1,1521.4) rotate(-8.7)" filter="url(#softGlow)">
  <rect x="-32.2" y="-18.6" width="64.5" height="37.2" rx="11.4" fill="none" stroke="#A3E635" stroke-width="6.2" opacity="0.55"/>
  <rect x="-14.2" y="-9.3" width="64.5" height="37.2" rx="11.4" fill="none" stroke="url(#strokeA)" stroke-width="5.2" opacity="0.55"/>
</g>


<g opacity="0.404" transform="translate(814.6,142.0) rotate(-0.9)" filter="url(#softGlow)">
  <rect x="-49.9" y="-28.8" width="99.8" height="57.5" rx="17.6" fill="none" stroke="#A3E635" stroke-width="9.6" opacity="0.55"/>
  <rect x="-22.0" y="-14.4" width="99.8" height="57.5" rx="17.6" fill="none" stroke="url(#strokeA)" stroke-width="8.0" opacity="0.55"/>
</g>


<g opacity="0.289" transform="translate(625.7,1422.2) rotate(1.9)" filter="url(#softGlow)">
  <rect x="-37.1" y="-21.4" width="74.2" height="42.8" rx="13.1" fill="none" stroke="#A3E635" stroke-width="7.1" opacity="0.55"/>
  <rect x="-16.3" y="-10.7" width="74.2" height="42.8" rx="13.1" fill="none" stroke="url(#strokeA)" stroke-width="5.9" opacity="0.55"/>
</g>


<g opacity="0.328" transform="translate(835.1,1468.2) rotate(-10.9)" filter="url(#softGlow)">
  <rect x="-50.0" y="-28.8" width="100.0" height="57.6" rx="17.6" fill="none" stroke="#F97316" stroke-width="9.6" opacity="0.55"/>
  <rect x="-22.0" y="-14.4" width="100.0" height="57.6" rx="17.6" fill="none" stroke="url(#strokeA)" stroke-width="8.0" opacity="0.55"/>
</g>


<g opacity="0.443" transform="translate(736.7,119.6) rotate(5.9)" filter="url(#softGlow)">
  <rect x="-33.3" y="-19.2" width="66.6" height="38.4" rx="11.7" fill="none" stroke="#A3E635" stroke-width="6.4" opacity="0.55"/>
  <rect x="-14.7" y="-9.6" width="66.6" height="38.4" rx="11.7" fill="none" stroke="url(#strokeA)" stroke-width="5.3" opacity="0.55"/>
</g>


<g opacity="0.391" transform="translate(818.1,1421.1) rotate(0.3)" filter="url(#softGlow)">
  <rect x="-37.0" y="-21.3" width="74.0" height="42.6" rx="13.0" fill="none" stroke="#A3E635" stroke-width="7.1" opacity="0.55"/>
  <rect x="-16.3" y="-10.7" width="74.0" height="42.6" rx="13.0" fill="none" stroke="url(#strokeA)" stroke-width="5.9" opacity="0.55"/>
</g>


<g opacity="0.222">
  <line x1="649.2" y1="1414.5" x2="649.2" y2="1478.3" stroke="#A3E635" stroke-width="2.05" opacity="0.45"/>
  <rect x="645.2" y="1448.9" width="7.9" height="33.3" rx="2.6" fill="#0B1020" opacity="0.55" stroke="url(#strokeA)" stroke-width="1.2"/>
</g>

<g opacity="0.222">
  <line x1="2.1" y1="1425.1" x2="2.1" y2="1475.6" stroke="#A3E635" stroke-width="1.23" opacity="0.45"/>
  <rect x="-0.9" y="1452.6" width="6.1" height="25.8" rx="2.0" fill="#0B1020" opacity="0.55" stroke="url(#strokeA)" stroke-width="1.2"/>
</g>

<g opacity="0.222">
  <line x1="289.0" y1="1407.2" x2="289.0" y2="1480.1" stroke="#A3E635" stroke-width="2.02" opacity="0.45"/>
  <rect x="283.1" y="1451.0" width="11.9" height="29.1" rx="4.0" fill="#0B1020" opacity="0.55" stroke="url(#strokeA)" stroke-width="1.2"/>
</g>

<g opacity="0.222">
  <line x1="467.8" y1="1386.4" x2="467.8" y2="1485.3" stroke="#A3E635" stroke-width="1.67" opacity="0.45"/>
  <rect x="464.0" y="1443.8" width="7.6" height="43.5" rx="2.5" fill="#0B1020" opacity="0.55" stroke="url(#strokeA)" stroke-width="1.2"/>
</g>

<g opacity="0.222">
  <line x1="27.0" y1="1414.1" x2="27.0" y2="1478.4" stroke="#A3E635" stroke-width="1.59" opacity="0.45"/>
  <rect x="22.7" y="1445.8" width="8.6" height="39.4" rx="2.9" fill="#0B1020" opacity="0.55" stroke="url(#strokeA)" stroke-width="1.2"/>
</g>

<g opacity="0.222">
  <line x1="528.7" y1="1377.6" x2="528.7" y2="1487.5" stroke="#A3E635" stroke-width="1.11" opacity="0.45"/>
  <rect x="524.3" y="1441.4" width="8.7" height="48.3" rx="2.9" fill="#0B1020" opacity="0.55" stroke="url(#strokeA)" stroke-width="1.2"/>
</g>

<g opacity="0.222">
  <line x1="494.4" y1="1408.5" x2="494.4" y2="1479.8" stroke="#A3E635" stroke-width="1.34" opacity="0.45"/>
  <rect x="489.7" y="1449.8" width="9.2" height="31.5" rx="3.1" fill="#0B1020" opacity="0.55" stroke="url(#strokeA)" stroke-width="1.2"/>
</g>

<g opacity="0.222">
  <line x1="421.3" y1="1425.5" x2="421.3" y2="1475.6" stroke="#A3E635" stroke-width="1.58" opacity="0.45"/>
  <rect x="417.5" y="1453.1" width="7.6" height="24.9" rx="2.5" fill="#0B1020" opacity="0.55" stroke="url(#strokeA)" stroke-width="1.2"/>
</g>

<g opacity="0.222">
  <line x1="49.7" y1="1394.3" x2="49.7" y2="1483.3" stroke="#A3E635" stroke-width="1.10" opacity="0.45"/>
  <rect x="46.1" y="1442.7" width="7.3" height="45.6" rx="2.4" fill="#0B1020" opacity="0.55" stroke="url(#strokeA)" stroke-width="1.2"/>
</g>

<g opacity="0.222">
  <line x1="468.6" y1="1388.2" x2="468.6" y2="1484.9" stroke="#A3E635" stroke-width="1.84" opacity="0.45"/>
  <rect x="464.5" y="1442.4" width="8.2" height="46.2" rx="2.7" fill="#0B1020" opacity="0.55" stroke="url(#strokeA)" stroke-width="1.2"/>
</g>

<g opacity="0.222">
  <line x1="625.8" y1="1401.9" x2="625.8" y2="1481.4" stroke="#A3E635" stroke-width="1.70" opacity="0.45"/>
  <rect x="620.7" y="1449.4" width="10.3" height="32.3" rx="3.4" fill="#0B1020" opacity="0.55" stroke="url(#strokeA)" stroke-width="1.2"/>
</g>

<g opacity="0.222">
  <line x1="888.1" y1="1417.8" x2="888.1" y2="1477.5" stroke="#A3E635" stroke-width="1.18" opacity="0.45"/>
  <rect x="882.5" y="1447.1" width="11.3" height="36.8" rx="3.8" fill="#0B1020" opacity="0.55" stroke="url(#strokeA)" stroke-width="1.2"/>
</g>

<g opacity="0.222">
  <line x1="381.6" y1="1400.7" x2="381.6" y2="1481.7" stroke="#A3E635" stroke-width="1.99" opacity="0.45"/>
  <rect x="375.6" y="1443.7" width="11.9" height="43.7" rx="4.0" fill="#0B1020" opacity="0.55" stroke="url(#strokeA)" stroke-width="1.2"/>
</g>

<g opacity="0.222">
  <line x1="284.8" y1="1390.2" x2="284.8" y2="1484.4" stroke="#A3E635" stroke-width="1.87" opacity="0.45"/>
  <rect x="279.0" y="1439.8" width="11.6" height="51.4" rx="3.9" fill="#0B1020" opacity="0.55" stroke="url(#strokeA)" stroke-width="1.2"/>
</g>

<g opacity="0.222">
  <line x1="43.3" y1="1392.0" x2="43.3" y2="1483.9" stroke="#A3E635" stroke-width="1.07" opacity="0.45"/>
  <rect x="38.2" y="1447.2" width="10.2" height="36.7" rx="3.4" fill="#0B1020" opacity="0.55" stroke="url(#strokeA)" stroke-width="1.2"/>
</g>

<g opacity="0.222">
  <line x1="578.6" y1="1375.8" x2="578.6" y2="1488.0" stroke="#A3E635" stroke-width="1.67" opacity="0.45"/>
  <rect x="575.0" y="1435.7" width="7.0" height="59.7" rx="2.3" fill="#0B1020" opacity="0.55" stroke="url(#strokeA)" stroke-width="1.2"/>
</g>

<g opacity="0.222">
  <line x1="356.3" y1="1398.0" x2="356.3" y2="1482.4" stroke="#A3E635" stroke-width="1.03" opacity="0.45"/>
  <rect x="351.7" y="1444.2" width="9.2" height="42.6" rx="3.1" fill="#0B1020" opacity="0.55" stroke="url(#strokeA)" stroke-width="1.2"/>
</g>

<g opacity="0.222">
  <line x1="546.0" y1="1384.9" x2="546.0" y2="1485.7" stroke="#A3E635" stroke-width="2.18" opacity="0.45"/>
  <rect x="540.2" y="1443.0" width="11.6" height="45.1" rx="3.9" fill="#0B1020" opacity="0.55" stroke="url(#strokeA)" stroke-width="1.2"/>
</g>
<circle cx="848.9" cy="1598.7" r="1.9" fill="#F97316" opacity="0.16" filter="url(#softGlow)"/>
<circle cx="148.5" cy="1568.2" r="1.9" fill="#F97316" opacity="0.16" filter="url(#softGlow)"/>
<circle cx="165.3" cy="162.2" r="2.9" fill="#F97316" opacity="0.21" filter="url(#softGlow)"/>
<circle cx="572.4" cy="8.9" r="1.9" fill="#F97316" opacity="0.13" filter="url(#softGlow)"/>
<circle cx="170.9" cy="1514.8" r="2.8" fill="#F97316" opacity="0.12" filter="url(#softGlow)"/>
<circle cx="828.3" cy="1158.2" r="2.7" fill="#F97316" opacity="0.28" filter="url(#softGlow)"/>
<circle cx="859.2" cy="818.3" r="2.2" fill="#F97316" opacity="0.13" filter="url(#softGlow)"/>
<circle cx="875.3" cy="1071.5" r="2.3" fill="#F97316" opacity="0.24" filter="url(#softGlow)"/>
<circle cx="85.3" cy="1324.9" r="2.0" fill="#F97316" opacity="0.22" filter="url(#softGlow)"/>
<circle cx="742.2" cy="1278.2" r="2.1" fill="#F97316" opacity="0.17" filter="url(#softGlow)"/>
<circle cx="860.3" cy="1310.4" r="2.6" fill="#F97316" opacity="0.25" filter="url(#softGlow)"/>
<circle cx="310.4" cy="1587.8" r="3.1" fill="#F97316" opacity="0.26" filter="url(#softGlow)"/>
<circle cx="18.7" cy="131.3" r="1.9" fill="#F97316" opacity="0.27" filter="url(#softGlow)"/>
<circle cx="724.4" cy="1511.3" r="2.9" fill="#F97316" opacity="0.17" filter="url(#softGlow)"/>
<circle cx="860.8" cy="1537.9" r="2.5" fill="#F97316" opacity="0.27" filter="url(#softGlow)"/>
<circle cx="459.1" cy="1539.7" r="1.4" fill="#F97316" opacity="0.24" filter="url(#softGlow)"/>
<circle cx="109.0" cy="122.5" r="2.9" fill="#F97316" opacity="0.15" filter="url(#softGlow)"/>
<circle cx="295.7" cy="118.0" r="2.0" fill="#F97316" opacity="0.24" filter="url(#softGlow)"/>
<circle cx="854.1" cy="1543.3" r="2.5" fill="#F97316" opacity="0.23" filter="url(#softGlow)"/>
</svg>