<svg xmlns="http://www.w3.org/2000/svg" width="900" height="1600" viewBox="0 0 900 1600" preserveAspectRatio="xMidYMid slice">
<defs>
  <linearGradient id="g0" x1="0" y1="0" x2="1" y2="1">
    <stop offset="0" stop-color="#0B1020"/>
    <stop offset="0.55" stop-color="#F97316" stop-opacity="0.9"/>
    <stop offset="1" stop-color="#020617"/>
  </linearGradient>
  <radialGradient id="g1" cx="20%" cy="15%" r="70%">
    <stop offset="0" stop-color="#06B6D4" stop-opacity="0.38"/>
    <stop offset="0.6" stop-color="#06B6D4" stop-opacity="0.08"/>
    <stop offset="1" stop-color="#06B6D4" stop-opacity="0"/>
  </radialGradient>
  <radialGradient id="g2" cx="85%" cy="80%" r="75%">
    <stop offset="0" stop-color="#06B6D4" stop-opacity="0.28"/>
    <stop offset="0.65" stop-color="#06B6D4" stop-opacity="0.06"/>
    <stop offset="1" stop-color="#06B6D4" stop-opacity="0"/>
  </radialGradient>
  <filter id="softGlow" x="-30%" y="-30%" width="160%" height="160%">
    <feGaussianBlur stdDeviation="12" result="b"/>
    <feMerge>
      <feMergeNode in="b"/>
      <feMergeNode in="SourceGraphic"/>
    </feMerge>
  </filter>
  <filter id="hardGlow" x="-40%" y="-40%" width="180%" height="180%">
    <feGaussianBlur stdDeviation="6" result="b"/>
    <feColorMatrix in="b" type="matrix" values="1 0 0 0 0  0 1 0 0 0  0 0 1 0 0  0 0 0 18 -7" result="c"/>
    <feMerge>
      <feMergeNode in="c"/>
      <feMergeNode in="SourceGraphic"/>
    </feMerge>
  </filter>
  <linearGradient id="strokeA" x1="0" y1="0" x2="1" y2="0">
    <stop offset="0" stop-color="#06B6D4" stop-opacity="0.9"/>
    <stop offset="0.5" stop-color="#FFFFFF" stop-opacity="0.25"/>
    <stop offset="1" stop-color="#06B6D4" stop-opacity="0.7"/>
  </linearGradient>
  <linearGradient id="strokeB" x1="0" y1="0" x2="0" y2="1">
    <stop offset="0" stop-color="#FFFFFF" stop-opacity="0.18"/>
    <stop offset="1" stop-color="#06B6D4" stop-opacity="0.55"/>
  </linearGradient>
</defs>
<rect x="0" y="0" width="900" height="1600" fill="url(#g0)"/>
<rect x="0" y="0" width="900" height="1600" fill="url(#g1)"/>
<rect x="0" y="0" width="900" height="1600" fill="url(#g2)"/>


<defs>
  <radialGradient id="vign" cx="0.5000" cy="0.5000" r="0.85">
    <stop offset="0" stop-color="#000000" stop-opacity="0"/>
    <stop offset="0.55" stop-color="#000000" stop-opacity="0.217"/>
    <stop offset="1" stop-color="#000000" stop-opacity="0.620"/>
  </radialGradient>
</defs>
<rect x="0" y="0" width="900" height="1600" fill="url(#vign)"/>

<g opacity="0.212" filter="url(#softGlow)"><path d="M 805.9,1536.5 L 163.9,1536.5 L 163.9,5.5 L 866.1,5.5 L 866.1,988.0 " fill="none" stroke="url(#strokeB)" stroke-width="1.74" stroke-linecap="round" stroke-linejoin="round"/><circle cx="866.1" cy="5.5" r="3.8" fill="#F97316" opacity="0.45"/><circle cx="163.9" cy="1536.5" r="2.7" fill="#F97316" opacity="0.45"/><circle cx="805.9" cy="1536.5" r="3.9" fill="#F97316" opacity="0.45"/></g>
<g opacity="0.212" filter="url(#softGlow)"><path d="M 885.2,465.9 L 112.7,465.9 L 112.7,51.2 L 872.0,51.2 L 872.0,7.4 " fill="none" stroke="url(#strokeB)" stroke-width="1.17" stroke-linecap="round" stroke-linejoin="round"/><circle cx="885.2" cy="465.9" r="2.9" fill="#F97316" opacity="0.45"/><circle cx="112.7" cy="465.9" r="4.1" fill="#F97316" opacity="0.45"/><circle cx="872.0" cy="7.4" r="4.1" fill="#F97316" opacity="0.45"/></g>
<g opacity="0.212" filter="url(#softGlow)"><path d="M 159.4,92.8 L 110.6,92.8 L 110.6,52.8 L 760.7,52.8 L 760.7,1320.8 " fill="none" stroke="url(#strokeB)" stroke-width="2.01" stroke-linecap="round" stroke-linejoin="round"/><circle cx="110.6" cy="52.8" r="4.0" fill="#F97316" opacity="0.45"/><circle cx="110.6" cy="92.8" r="3.9" fill="#F97316" opacity="0.45"/><circle cx="760.7" cy="1320.8" r="4.2" fill="#F97316" opacity="0.45"/></g>
<g opacity="0.212" filter="url(#softGlow)"><path d="M 721.5,106.3 L 154.0,106.3 L 154.0,1482.8 L 806.6,1482.8 L 806.6,1434.9 " fill="none" stroke="url(#strokeB)" stroke-width="2.00" stroke-linecap="round" stroke-linejoin="round"/><circle cx="154.0" cy="106.3" r="2.7" fill="#F97316" opacity="0.45"/><circle cx="154.0" cy="1482.8" r="2.9" fill="#F97316" opacity="0.45"/><circle cx="806.6" cy="1482.8" r="3.3" fill="#F97316" opacity="0.45"/></g>
<g opacity="0.212" filter="url(#softGlow)"><path d="M 133.4,1548.4 L 775.3,1548.4 L 775.3,101.5 L 138.5,101.5 L 138.5,1571.2 " fill="none" stroke="url(#strokeB)" stroke-width="1.12" stroke-linecap="round" stroke-linejoin="round"/><circle cx="133.4" cy="1548.4" r="2.9" fill="#F97316" opacity="0.45"/><circle cx="775.3" cy="1548.4" r="3.8" fill="#F97316" opacity="0.45"/><circle cx="775.3" cy="101.5" r="3.9" fill="#F97316" opacity="0.45"/></g>
<g opacity="0.212" filter="url(#softGlow)"><path d="M 788.1,1165.5 L 49.6,1165.5 L 49.6,1512.2 L 114.1,1512.2 L 114.1,69.9 " fill="none" stroke="url(#strokeB)" stroke-width="1.51" stroke-linecap="round" stroke-linejoin="round"/><circle cx="114.1" cy="69.9" r="3.8" fill="#F97316" opacity="0.45"/><circle cx="49.6" cy="1512.2" r="2.1" fill="#F97316" opacity="0.45"/><circle cx="49.6" cy="1165.5" r="2.2" fill="#F97316" opacity="0.45"/></g>
<g opacity="0.212" filter="url(#softGlow)"><path d="M 770.9,967.2 L 854.4,967.2 L 854.4,1550.8 L 780.1,1550.8 L 780.1,1537.7 " fill="none" stroke="url(#strokeB)" stroke-width="1.91" stroke-linecap="round" stroke-linejoin="round"/><circle cx="780.1" cy="1550.8" r="4.0" fill="#F97316" opacity="0.45"/><circle cx="854.4" cy="1550.8" r="4.0" fill="#F97316" opacity="0.45"/><circle cx="770.9" cy="967.2" r="4.1" fill="#F97316" opacity="0.45"/></g>
<g opacity="0.212" filter="url(#softGlow)"><path d="M 20.6,1448.9 L 88.1,1448.9 L 88.1,133.7 L 740.7,133.7 L 740.7,74.9 " fill="none" stroke="url(#strokeB)" stroke-width="1.96" stroke-linecap="round" stroke-linejoin="round"/><circle cx="20.6" cy="1448.9" r="3.4" fill="#F97316" opacity="0.45"/><circle cx="740.7" cy="74.9" r="2.8" fill="#F97316" opacity="0.45"/><circle cx="740.7" cy="133.7" r="2.7" fill="#F97316" opacity="0.45"/></g>
<g opacity="0.212" filter="url(#softGlow)"><path d="M 137.0,129.5 L 883.8,129.5 L 883.8,1453.1 L 880.2,1453.1 L 880.2,168.2 " fill="none" stroke="url(#strokeB)" stroke-width="1.38" stroke-linecap="round" stroke-linejoin="round"/><circle cx="883.8" cy="129.5" r="3.1" fill="#F97316" opacity="0.45"/><circle cx="880.2" cy="1453.1" r="3.6" fill="#F97316" opacity="0.45"/><circle cx="137.0" cy="129.5" r="3.9" fill="#F97316" opacity="0.45"/></g>
<g opacity="0.212" filter="url(#softGlow)"><path d="M 889.9,1589.6 L 138.3,1589.6 L 138.3,162.0 L 813.7,162.0 L 813.7,617.8 " fill="none" stroke="url(#strokeB)" stroke-width="2.04" stroke-linecap="round" stroke-linejoin="round"/><circle cx="138.3" cy="162.0" r="2.3" fill="#F97316" opacity="0.45"/><circle cx="813.7" cy="162.0" r="3.1" fill="#F97316" opacity="0.45"/><circle cx="813.7" cy="617.8" r="2.6" fill="#F97316" opacity="0.45"/></g>
<g opacity="0.212" filter="url(#softGlow)"><path d="M 848.4,144.8 L 311.0,144.8 L 311.0,114.6 L 43.6,114.6 L 43.6,1550.0 " fill="none" stroke="url(#strokeB)" stroke-width="1.40" stroke-linecap="round" stroke-linejoin="round"/><circle cx="311.0" cy="114.6" r="3.8" fill="#F97316" opacity="0.45"/><circle cx="43.6" cy="1550.0" r="2.5" fill="#F97316" opacity="0.45"/><circle cx="311.0" cy="144.8" r="2.7" fill="#F97316" opacity="0.45"/></g>
<g opacity="0.212" filter="url(#softGlow)"><path d="M 554.2,1488.9 L 14.8,1488.9 L 14.8,14.6 L 67.1,14.6 L 67.1,1526.5 " fill="none" stroke="url(#strokeB)" stroke-width="1.86" stroke-linecap="round" stroke-linejoin="round"/><circle cx="14.8" cy="14.6" r="2.2" fill="#F97316" opacity="0.45"/><circle cx="67.1" cy="14.6" r="2.8" fill="#F97316" opacity="0.45"/><circle cx="67.1" cy="1526.5" r="2.4" fill="#F97316" opacity="0.45"/></g>
<g opacity="0.212" filter="url(#softGlow)"><path d="M 54.4,1506.2 L 369.6,1506.2 L 369.6,1423.7 L 702.9,1423.7 L 702.9,102.4 " fill="none" stroke="url(#strokeB)" stroke-width="1.80" stroke-linecap="round" stroke-linejoin="round"/><circle cx="369.6" cy="1506.2" r="3.9" fill="#F97316" opacity="0.45"/><circle cx="369.6" cy="1423.7" r="3.9" fill="#F97316" opacity="0.45"/><circle cx="702.9" cy="102.4" r="3.0" fill="#F97316" opacity="0.45"/></g>
<g opacity="0.212" filter="url(#softGlow)"><path d="M 875.4,1536.2 L 312.9,1536.2 L 312.9,30.3 L 149.0,30.3 L 149.0,1553.7 " fill="none" stroke="url(#strokeB)" stroke-width="1.76" stroke-linecap="round" stroke-linejoin="round"/><circle cx="312.9" cy="1536.2" r="3.8" fill="#F97316" opacity="0.45"/><circle cx="149.0" cy="1553.7" r="4.0" fill="#F97316" opacity="0.45"/><circle cx="312.9" cy="30.3" r="3.5" fill="#F97316" opacity="0.45"/></g>
<g opacity="0.212" filter="url(#softGlow)"><path d="M 748.1,23.9 L 826.1,23.9 L 826.1,59.4 L 895.8,59.4 L 895.8,183.5 " fill="none" stroke="url(#strokeB)" stroke-width="1.81" stroke-linecap="round" stroke-linejoin="round"/><circle cx="826.1" cy="59.4" r="2.6" fill="#F97316" opacity="0.45"/><circle cx="748.1" cy="23.9" r="2.9" fill="#F97316" opacity="0.45"/><circle cx="895.8" cy="183.5" r="2.8" fill="#F97316" opacity="0.45"/></g>

<g opacity="0.763" filter="url(#hardGlow)">
  <circle cx="152.7" cy="1485.1" r="49.8" fill="#0A1224" opacity="0.65"/>
  <circle cx="152.7" cy="1485.1" r="49.8" fill="none" stroke="url(#strokeA)" stroke-width="4.0" opacity="0.85"/>
  <circle cx="152.7" cy="1485.1" r="42.9" fill="none" stroke="#06B6D4" stroke-width="1.5" opacity="0.35"/>
  <polygon points="137.6,1517.6 117.0,1488.3 132.1,1455.7 167.8,1452.5 188.5,1481.9 173.4,1514.4" fill="none" stroke="url(#strokeB)" stroke-width="1.2" opacity="0.65"/>
  <polygon points="143.9,1494.0 149.5,1473.0 164.9,1488.3" fill="#06B6D4" opacity="0.22" filter="url(#softGlow)"/>
</g>


<g opacity="0.429" filter="url(#hardGlow)">
  <circle cx="115.9" cy="1452.9" r="25.1" fill="#0A1224" opacity="0.65"/>
  <circle cx="115.9" cy="1452.9" r="25.1" fill="none" stroke="url(#strokeA)" stroke-width="2.0" opacity="0.85"/>
  <circle cx="115.9" cy="1452.9" r="21.6" fill="none" stroke="#F97316" stroke-width="1.5" opacity="0.35"/>
  <polygon points="110.2,1470.1 98.2,1456.6 103.8,1439.4 121.5,1435.7 133.5,1449.2 127.9,1466.4" fill="none" stroke="url(#strokeB)" stroke-width="1.2" opacity="0.65"/>
  
</g>


<g opacity="0.532" filter="url(#hardGlow)">
  <circle cx="200.1" cy="1443.8" r="21.4" fill="#0A1224" opacity="0.65"/>
  <circle cx="200.1" cy="1443.8" r="21.4" fill="none" stroke="url(#strokeA)" stroke-width="2.0" opacity="0.85"/>
  <circle cx="200.1" cy="1443.8" r="18.4" fill="none" stroke="#F97316" stroke-width="1.5" opacity="0.35"/>
  <polygon points="215.3,1441.8 209.4,1456.0 194.2,1458.0 184.8,1445.8 190.7,1431.6 206.0,1429.6" fill="none" stroke="url(#strokeB)" stroke-width="1.2" opacity="0.65"/>
  <polygon points="205.3,1445.0 196.4,1447.8 198.5,1438.7" fill="#F97316" opacity="0.22" filter="url(#softGlow)"/>
</g>


<g opacity="0.506" filter="url(#hardGlow)">
  <circle cx="116.3" cy="1503.4" r="18.2" fill="#0A1224" opacity="0.65"/>
  <circle cx="116.3" cy="1503.4" r="18.2" fill="none" stroke="url(#strokeA)" stroke-width="2.0" opacity="0.85"/>
  <circle cx="116.3" cy="1503.4" r="15.7" fill="none" stroke="#F97316" stroke-width="1.5" opacity="0.35"/>
  <polygon points="129.2,1505.7 120.8,1515.8 107.8,1513.5 103.4,1501.1 111.8,1491.1 124.8,1493.4" fill="none" stroke="url(#strokeB)" stroke-width="1.2" opacity="0.65"/>
  
</g>


<g opacity="0.854" filter="url(#hardGlow)">
  <circle cx="831.0" cy="1542.7" r="44.5" fill="#0A1224" opacity="0.65"/>
  <circle cx="831.0" cy="1542.7" r="44.5" fill="none" stroke="url(#strokeA)" stroke-width="3.6" opacity="0.85"/>
  <circle cx="831.0" cy="1542.7" r="38.3" fill="none" stroke="#06B6D4" stroke-width="1.5" opacity="0.35"/>
  <polygon points="853.7,1565.3 822.8,1573.7 800.0,1551.1 808.2,1520.1 839.1,1511.7 861.9,1534.3" fill="none" stroke="url(#strokeB)" stroke-width="1.2" opacity="0.65"/>
  <polygon points="835.7,1552.9 819.8,1541.8 837.4,1533.5" fill="#06B6D4" opacity="0.22" filter="url(#softGlow)"/>
</g>


<g opacity="0.541" filter="url(#hardGlow)">
  <circle cx="869.4" cy="1516.5" r="20.5" fill="#0A1224" opacity="0.65"/>
  <circle cx="869.4" cy="1516.5" r="20.5" fill="none" stroke="url(#strokeA)" stroke-width="2.0" opacity="0.85"/>
  <circle cx="869.4" cy="1516.5" r="17.6" fill="none" stroke="#F97316" stroke-width="1.5" opacity="0.35"/>
  <polygon points="880.5,1506.8 883.4,1521.3 872.2,1530.9 858.3,1526.2 855.5,1511.7 866.6,1502.0" fill="none" stroke="url(#strokeB)" stroke-width="1.2" opacity="0.65"/>
  
</g>


<g opacity="0.397" filter="url(#hardGlow)">
  <circle cx="826.5" cy="1547.4" r="18.6" fill="#0A1224" opacity="0.65"/>
  <circle cx="826.5" cy="1547.4" r="18.6" fill="none" stroke="url(#strokeA)" stroke-width="2.0" opacity="0.85"/>
  <circle cx="826.5" cy="1547.4" r="16.0" fill="none" stroke="#F97316" stroke-width="1.5" opacity="0.35"/>
  <polygon points="831.1,1559.9 818.0,1557.7 813.3,1545.1 821.9,1534.8 835.1,1537.1 839.7,1549.7" fill="none" stroke="url(#strokeB)" stroke-width="1.2" opacity="0.65"/>
  
</g>


<g opacity="0.863" filter="url(#hardGlow)">
  <circle cx="790.2" cy="880.1" r="35.7" fill="#0A1224" opacity="0.65"/>
  <circle cx="790.2" cy="880.1" r="35.7" fill="none" stroke="url(#strokeA)" stroke-width="2.9" opacity="0.85"/>
  <circle cx="790.2" cy="880.1" r="30.7" fill="none" stroke="#06B6D4" stroke-width="1.5" opacity="0.35"/>
  <polygon points="803.2,857.9 815.9,880.3 802.9,902.4 777.2,902.2 764.5,879.9 777.6,857.7" fill="none" stroke="url(#strokeB)" stroke-width="1.2" opacity="0.65"/>
  <polygon points="797.2,874.3 791.7,888.9 781.8,876.9" fill="#06B6D4" opacity="0.22" filter="url(#softGlow)"/>
</g>


<g opacity="0.476" filter="url(#hardGlow)">
  <circle cx="750.6" cy="893.2" r="18.8" fill="#0A1224" opacity="0.65"/>
  <circle cx="750.6" cy="893.2" r="18.8" fill="none" stroke="url(#strokeA)" stroke-width="2.0" opacity="0.85"/>
  <circle cx="750.6" cy="893.2" r="16.2" fill="none" stroke="#F97316" stroke-width="1.5" opacity="0.35"/>
  <polygon points="746.1,905.9 737.3,895.6 741.8,882.9 755.1,880.4 763.9,890.7 759.4,903.4" fill="none" stroke="url(#strokeB)" stroke-width="1.2" opacity="0.65"/>
  
</g>


<g opacity="0.728" filter="url(#hardGlow)">
  <circle cx="895.5" cy="1539.5" r="46.0" fill="#0A1224" opacity="0.65"/>
  <circle cx="895.5" cy="1539.5" r="46.0" fill="none" stroke="url(#strokeA)" stroke-width="3.7" opacity="0.85"/>
  <circle cx="895.5" cy="1539.5" r="39.5" fill="none" stroke="#06B6D4" stroke-width="1.5" opacity="0.35"/>
  <polygon points="863.2,1532.3 885.5,1507.9 917.9,1515.1 927.8,1546.7 905.4,1571.1 873.1,1563.9" fill="none" stroke="url(#strokeB)" stroke-width="1.2" opacity="0.65"/>
  <polygon points="885.7,1533.3 905.8,1534.2 895.0,1551.1" fill="#06B6D4" opacity="0.22" filter="url(#softGlow)"/>
</g>


<g opacity="0.440" filter="url(#hardGlow)">
  <circle cx="850.6" cy="1513.2" r="22.5" fill="#0A1224" opacity="0.65"/>
  <circle cx="850.6" cy="1513.2" r="22.5" fill="none" stroke="url(#strokeA)" stroke-width="2.0" opacity="0.85"/>
  <circle cx="850.6" cy="1513.2" r="19.4" fill="none" stroke="#F97316" stroke-width="1.5" opacity="0.35"/>
  <polygon points="836.4,1505.4 850.3,1497.0 864.5,1504.9 864.8,1521.1 850.9,1529.5 836.7,1521.6" fill="none" stroke="url(#strokeB)" stroke-width="1.2" opacity="0.65"/>
  <polygon points="846.9,1509.0 856.2,1512.2 848.8,1518.6" fill="#F97316" opacity="0.22" filter="url(#softGlow)"/>
</g>


<g opacity="0.382" transform="translate(647.5,16.1) rotate(4.2)" filter="url(#softGlow)">
  <rect x="-70.0" y="-53.1" width="139.9" height="106.2" rx="10.6" fill="#050A12" opacity="0.25"/>
  <rect x="-70.0" y="-53.1" width="139.9" height="106.2" rx="10.6" fill="none" stroke="url(#strokeA)" stroke-width="5.3" opacity="0.85"/>
  <rect x="-61.5" y="-44.6" width="122.9" height="89.2" rx="7.4" fill="none" stroke="#F97316" stroke-width="2.1" opacity="0.35"/>
</g>


<g opacity="0.318" transform="translate(5.3,1439.2) rotate(6.1)" filter="url(#softGlow)">
  <rect x="-90.8" y="-81.5" width="181.6" height="163.0" rx="16.3" fill="#050A12" opacity="0.25"/>
  <rect x="-90.8" y="-81.5" width="181.6" height="163.0" rx="16.3" fill="none" stroke="url(#strokeA)" stroke-width="8.2" opacity="0.85"/>
  <rect x="-77.8" y="-68.5" width="155.5" height="136.9" rx="11.4" fill="none" stroke="#F97316" stroke-width="3.3" opacity="0.35"/>
</g>


<g opacity="0.417" transform="translate(87.3,47.4) rotate(9.8)" filter="url(#softGlow)">
  <rect x="-77.9" y="-67.6" width="155.8" height="135.3" rx="13.5" fill="#050A12" opacity="0.25"/>
  <rect x="-77.9" y="-67.6" width="155.8" height="135.3" rx="13.5" fill="none" stroke="url(#strokeA)" stroke-width="6.8" opacity="0.85"/>
  <rect x="-67.1" y="-56.8" width="134.2" height="113.6" rx="9.5" fill="none" stroke="#06B6D4" stroke-width="2.7" opacity="0.35"/>
</g>


<g opacity="0.277" transform="translate(455.7,122.0) rotate(-9.8)" filter="url(#softGlow)">
  <rect x="-68.0" y="-53.5" width="136.0" height="107.0" rx="10.7" fill="#050A12" opacity="0.25"/>
  <rect x="-68.0" y="-53.5" width="136.0" height="107.0" rx="10.7" fill="none" stroke="url(#strokeA)" stroke-width="5.4" opacity="0.85"/>
  <rect x="-59.5" y="-44.9" width="118.9" height="89.9" rx="7.5" fill="none" stroke="#F97316" stroke-width="2.1" opacity="0.35"/>
</g>


<g opacity="0.368" transform="translate(807.6,1473.2) rotate(-2.6)" filter="url(#softGlow)">
  <rect x="-70.9" y="-66.3" width="141.8" height="132.5" rx="13.3" fill="#050A12" opacity="0.25"/>
  <rect x="-70.9" y="-66.3" width="141.8" height="132.5" rx="13.3" fill="none" stroke="url(#strokeA)" stroke-width="6.6" opacity="0.85"/>
  <rect x="-60.3" y="-55.7" width="120.6" height="111.3" rx="9.3" fill="none" stroke="#06B6D4" stroke-width="2.7" opacity="0.35"/>
</g>


<g opacity="0.329" transform="translate(152.8,1458.9) rotate(8.3)" filter="url(#softGlow)">
  <rect x="-33.5" y="-19.3" width="67.0" height="38.6" rx="11.8" fill="none" stroke="#A3E635" stroke-width="6.4" opacity="0.55"/>
  <rect x="-14.7" y="-9.6" width="67.0" height="38.6" rx="11.8" fill="none" stroke="url(#strokeA)" stroke-width="5.4" opacity="0.55"/>
</g>


<g opacity="0.406" transform="translate(793.1,1085.6) rotate(-2.5)" filter="url(#softGlow)">
  <rect x="-41.2" y="-23.7" width="82.4" height="47.5" rx="14.5" fill="none" stroke="#F97316" stroke-width="7.9" opacity="0.55"/>
  <rect x="-18.1" y="-11.9" width="82.4" height="47.5" rx="14.5" fill="none" stroke="url(#strokeA)" stroke-width="6.6" opacity="0.55"/>
</g>


<g opacity="0.393" transform="translate(834.7,1481.4) rotate(14.0)" filter="url(#softGlow)">
  <rect x="-49.0" y="-28.2" width="98.0" height="56.5" rx="17.3" fill="none" stroke="#F97316" stroke-width="9.4" opacity="0.55"/>
  <rect x="-21.6" y="-14.1" width="98.0" height="56.5" rx="17.3" fill="none" stroke="url(#strokeA)" stroke-width="7.8" opacity="0.55"/>
</g>


<g opacity="0.307" transform="translate(66.2,1563.8) rotate(-14.6)" filter="url(#softGlow)">
  <rect x="-50.3" y="-29.0" width="100.6" height="57.9" rx="17.7" fill="none" stroke="#F97316" stroke-width="9.7" opacity="0.55"/>
  <rect x="-22.1" y="-14.5" width="100.6" height="57.9" rx="17.7" fill="none" stroke="url(#strokeA)" stroke-width="8.0" opacity="0.55"/>
</g>


<g opacity="0.286" transform="translate(51.8,60.8) rotate(11.9)" filter="url(#softGlow)">
  <rect x="-33.5" y="-19.3" width="67.0" height="38.6" rx="11.8" fill="none" stroke="#06B6D4" stroke-width="6.4" opacity="0.55"/>
  <rect x="-14.7" y="-9.6" width="67.0" height="38.6" rx="11.8" fill="none" stroke="url(#strokeA)" stroke-width="5.4" opacity="0.55"/>
</g>


<g opacity="0.450" transform="translate(770.2,777.3) rotate(-17.2)" filter="url(#softGlow)">
  <rect x="-46.1" y="-26.6" width="92.2" height="53.1" rx="16.2" fill="none" stroke="#06B6D4" stroke-width="8.9" opacity="0.55"/>
  <rect x="-20.3" y="-13.3" width="92.2" height="53.1" rx="16.2" fill="none" stroke="url(#strokeA)" stroke-width="7.4" opacity="0.55"/>
</g>


<g opacity="0.200">
  <line x1="651.4" y1="1393.5" x2="651.4" y2="1508.0" stroke="#F97316" stroke-width="1.87" opacity="0.45"/>
  <rect x="647.4" y="1456.3" width="8.1" height="57.7" rx="2.7" fill="#0B1020" opacity="0.55" stroke="url(#strokeA)" stroke-width="1.2"/>
</g>

<g opacity="0.200">
  <line x1="498.7" y1="1414.0" x2="498.7" y2="1502.9" stroke="#F97316" stroke-width="2.18" opacity="0.45"/>
  <rect x="492.9" y="1461.7" width="11.5" height="46.8" rx="3.8" fill="#0B1020" opacity="0.55" stroke="url(#strokeA)" stroke-width="1.2"/>
</g>

<g opacity="0.200">
  <line x1="233.4" y1="1438.7" x2="233.4" y2="1496.7" stroke="#F97316" stroke-width="1.11" opacity="0.45"/>
  <rect x="227.6" y="1470.0" width="11.7" height="30.3" rx="3.9" fill="#0B1020" opacity="0.55" stroke="url(#strokeA)" stroke-width="1.2"/>
</g>

<g opacity="0.200">
  <line x1="427.3" y1="1433.1" x2="427.3" y2="1498.1" stroke="#F97316" stroke-width="1.28" opacity="0.45"/>
  <rect x="422.6" y="1464.6" width="9.3" height="41.0" rx="3.1" fill="#0B1020" opacity="0.55" stroke="url(#strokeA)" stroke-width="1.2"/>
</g>

<g opacity="0.200">
  <line x1="755.1" y1="1398.7" x2="755.1" y2="1506.7" stroke="#F97316" stroke-width="1.35" opacity="0.45"/>
  <rect x="751.2" y="1457.1" width="7.8" height="56.1" rx="2.6" fill="#0B1020" opacity="0.55" stroke="url(#strokeA)" stroke-width="1.2"/>
</g>

<g opacity="0.200">
  <line x1="820.0" y1="1400.3" x2="820.0" y2="1506.3" stroke="#F97316" stroke-width="1.02" opacity="0.45"/>
  <rect x="815.4" y="1461.2" width="9.2" height="47.9" rx="3.1" fill="#0B1020" opacity="0.55" stroke="url(#strokeA)" stroke-width="1.2"/>
</g>

<g opacity="0.200">
  <line x1="455.7" y1="1387.9" x2="455.7" y2="1509.4" stroke="#F97316" stroke-width="2.19" opacity="0.45"/>
  <rect x="451.2" y="1455.7" width="9.1" height="58.9" rx="3.0" fill="#0B1020" opacity="0.55" stroke="url(#strokeA)" stroke-width="1.2"/>
</g>

<g opacity="0.200">
  <line x1="565.6" y1="1399.7" x2="565.6" y2="1506.5" stroke="#F97316" stroke-width="1.63" opacity="0.45"/>
  <rect x="560.8" y="1462.1" width="9.5" height="46.0" rx="3.2" fill="#0B1020" opacity="0.55" stroke="url(#strokeA)" stroke-width="1.2"/>
</g>

<g opacity="0.200">
  <line x1="9.5" y1="1410.6" x2="9.5" y2="1503.8" stroke="#F97316" stroke-width="2.12" opacity="0.45"/>
  <rect x="5.5" y="1459.9" width="8.0" height="50.5" rx="2.7" fill="#0B1020" opacity="0.55" stroke="url(#strokeA)" stroke-width="1.2"/>
</g>

<g opacity="0.200">
  <line x1="521.5" y1="1420.2" x2="521.5" y2="1501.3" stroke="#F97316" stroke-width="1.73" opacity="0.45"/>
  <rect x="517.0" y="1463.5" width="8.9" height="43.3" rx="3.0" fill="#0B1020" opacity="0.55" stroke="url(#strokeA)" stroke-width="1.2"/>
</g>

<g opacity="0.200">
  <line x1="250.0" y1="1430.4" x2="250.0" y2="1498.8" stroke="#F97316" stroke-width="1.03" opacity="0.45"/>
  <rect x="245.3" y="1475.0" width="9.4" height="20.2" rx="3.1" fill="#0B1020" opacity="0.55" stroke="url(#strokeA)" stroke-width="1.2"/>
</g>

<g opacity="0.200">
  <line x1="606.7" y1="1440.6" x2="606.7" y2="1496.2" stroke="#F97316" stroke-width="1.07" opacity="0.45"/>
  <rect x="603.0" y="1473.6" width="7.4" height="23.1" rx="2.5" fill="#0B1020" opacity="0.55" stroke="url(#strokeA)" stroke-width="1.2"/>
</g>

<g opacity="0.200">
  <line x1="198.4" y1="1434.1" x2="198.4" y2="1497.9" stroke="#F97316" stroke-width="1.49" opacity="0.45"/>
  <rect x="192.6" y="1474.4" width="11.7" height="21.4" rx="3.9" fill="#0B1020" opacity="0.55" stroke="url(#strokeA)" stroke-width="1.2"/>
</g>
<circle cx="136.1" cy="1432.7" r="1.8" fill="#06B6D4" opacity="0.25" filter="url(#softGlow)"/>
<circle cx="806.7" cy="1075.4" r="1.5" fill="#06B6D4" opacity="0.23" filter="url(#softGlow)"/>
<circle cx="833.5" cy="272.4" r="2.1" fill="#06B6D4" opacity="0.11" filter="url(#softGlow)"/>
<circle cx="137.9" cy="1477.6" r="1.4" fill="#06B6D4" opacity="0.25" filter="url(#softGlow)"/>
<circle cx="814.0" cy="25.3" r="1.9" fill="#06B6D4" opacity="0.20" filter="url(#softGlow)"/>
<circle cx="777.2" cy="980.6" r="2.3" fill="#06B6D4" opacity="0.27" filter="url(#softGlow)"/>
<circle cx="152.9" cy="134.9" r="1.4" fill="#06B6D4" opacity="0.27" filter="url(#softGlow)"/>
<circle cx="858.3" cy="172.5" r="1.7" fill="#06B6D4" opacity="0.22" filter="url(#softGlow)"/>
<circle cx="816.3" cy="87.6" r="2.3" fill="#06B6D4" opacity="0.28" filter="url(#softGlow)"/>
<circle cx="824.0" cy="1559.3" r="1.5" fill="#06B6D4" opacity="0.20" filter="url(#softGlow)"/>
<circle cx="807.7" cy="1475.8" r="2.2" fill="#06B6D4" opacity="0.22" filter="url(#softGlow)"/>
<circle cx="102.6" cy="1520.5" r="1.4" fill="#06B6D4" opacity="0.27" filter="url(#softGlow)"/>
<circle cx="96.5" cy="95.5" r="2.3" fill="#06B6D4" opacity="0.16" filter="url(#softGlow)"/>
<circle cx="164.6" cy="1514.3" r="3.0" fill="#06B6D4" opacity="0.19" filter="url(#softGlow)"/>
<circle cx="807.6" cy="1588.2" r="2.4" fill="#06B6D4" opacity="0.24" filter="url(#softGlow)"/>
<circle cx="23.3" cy="72.0" r="2.5" fill="#06B6D4" opacity="0.20" filter="url(#softGlow)"/>
<circle cx="851.8" cy="108.6" r="2.0" fill="#06B6D4" opacity="0.10" filter="url(#softGlow)"/>
<circle cx="832.2" cy="1461.9" r="2.8" fill="#06B6D4" opacity="0.17" filter="url(#softGlow)"/>
<circle cx="794.3" cy="114.3" r="2.0" fill="#06B6D4" opacity="0.16" filter="url(#softGlow)"/>
<circle cx="745.8" cy="1510.9" r="2.4" fill="#06B6D4" opacity="0.23" filter="url(#softGlow)"/>
<circle cx="400.3" cy="154.7" r="2.8" fill="#06B6D4" opacity="0.14" filter="url(#softGlow)"/>
<circle cx="877.2" cy="1554.5" r="1.3" fill="#06B6D4" opacity="0.25" filter="url(#softGlow)"/>
<circle cx="96.0" cy="23.6" r="2.4" fill="#06B6D4" opacity="0.24" filter="url(#softGlow)"/>
<circle cx="633.8" cy="75.8" r="2.1" fill="#06B6D4" opacity="0.27" filter="url(#softGlow)"/>
<circle cx="150.2" cy="934.1" r="1.8" fill="#06B6D4" opacity="0.26" filter="url(#softGlow)"/>
<circle cx="73.3" cy="61.3" r="1.4" fill="#06B6D4" opacity="0.24" filter="url(#softGlow)"/>
<circle cx="65.0" cy="177.5" r="2.4" fill="#06B6D4" opacity="0.13" filter="url(#softGlow)"/>
<circle cx="560.6" cy="14.7" r="1.4" fill="#06B6D4" opacity="0.27" filter="url(#softGlow)"/>
<circle cx="656.3" cy="1454.3" r="2.7" fill="#06B6D4" opacity="0.26" filter="url(#softGlow)"/>
<circle cx="509.1" cy="104.2" r="1.5" fill="#06B6D4" opacity="0.18" filter="url(#softGlow)"/>
<circle cx="85.2" cy="1489.3" r="2.8" fill="#06B6D4" opacity="0.18" filter="url(#softGlow)"/>
</svg>