<svg xmlns="http://www.w3.org/2000/svg" width="900" height="1600" viewBox="0 0 900 1600" preserveAspectRatio="xMidYMid slice">
<defs>
  <linearGradient id="g0" x1="0" y1="0" x2="1" y2="1">
    <stop offset="0" stop-color="#0B0F1A"/>
    <stop offset="0.55" stop-color="#A855F7" stop-opacity="0.9"/>
    <stop offset="1" stop-color="#030712"/>
  </linearGradient>
  <radialGradient id="g1" cx="20%" cy="15%" r="70%">
    <stop offset="0" stop-color="#22D3EE" stop-opacity="0.38"/>
    <stop offset="0.6" stop-color="#22D3EE" stop-opacity="0.08"/>
    <stop offset="1" stop-color="#22D3EE" stop-opacity="0"/>
  </radialGradient>
  <radialGradient id="g2" cx="85%" cy="80%" r="75%">
    <stop offset="0" stop-color="#22D3EE" stop-opacity="0.28"/>
    <stop offset="0.65" stop-color="#22D3EE" stop-opacity="0.06"/>
    <stop offset="1" stop-color="#22D3EE" stop-opacity="0"/>
  </radialGradient>
  <filter id="softGlow" x="-30%" y="-30%" width="160%" height="160%">
    <feGaussianBlur stdDeviation="12" result="b"/>
    <feMerge>
      <feMergeNode in="b"/>
      <feMergeNode in="SourceGraphic"/>
    </feMerge>
  </filter>
  <filter id="hardGlow" x="-40%" y="-40%" width="180%" height="180%">
    <feGaussianBlur stdDeviation="6" result="b"/>
    <feColorMatrix in="b" type="matrix" values="1 0 0 0 0  0 1 0 0 0  0 0 1 0 0  0 0 0 18 -7" result="c"/>
    <feMerge>
      <feMergeNode in="c"/>
      <feMergeNode in="SourceGraphic"/>
    </feMerge>
  </filter>
  <linearGradient id="strokeA" x1="0" y1="0" x2="1" y2="0">
    <stop offset="0" stop-color="#22D3EE" stop-opacity="0.9"/>
    <stop offset="0.5" stop-color="#FFFFFF" stop-opacity="0.25"/>
    <stop offset="1" stop-color="#22D3EE" stop-opacity="0.7"/>
  </linearGradient>
  <linearGradient id="strokeB" x1="0" y1="0" x2="0" y2="1">
    <stop offset="0" stop-color="#FFFFFF" stop-opacity="0.18"/>
    <stop offset="1" stop-color="#22D3EE" stop-opacity="0.55"/>
  </linearGradient>
</defs>
<rect x="0" y="0" width="900" height="1600" fill="url(#g0)"/>
<rect x="0" y="0" width="900" height="1600" fill="url(#g1)"/>
<rect x="0" y="0" width="900" height="1600" fill="url(#g2)"/>


<defs>
  <radialGradient id="vign" cx="0.5000" cy="0.5000" r="0.85">
    <stop offset="0" stop-color="#000000" stop-opacity="0"/>
    <stop offset="0.55" stop-color="#000000" stop-opacity="0.217"/>
    <stop offset="1" stop-color="#000000" stop-opacity="0.620"/>
  </radialGradient>
</defs>
<rect x="0" y="0" width="900" height="1600" fill="url(#vign)"/>

<g opacity="0.188" filter="url(#softGlow)"><path d="M 839.9,1596.3 L 85.5,1596.3 L 85.5,1430.8 L 155.3,1430.8 L 155.3,44.5 " fill="none" stroke="url(#strokeB)" stroke-width="1.27" stroke-linecap="round" stroke-linejoin="round"/><circle cx="155.3" cy="44.5" r="3.5" fill="#A855F7" opacity="0.45"/><circle cx="85.5" cy="1430.8" r="2.5" fill="#A855F7" opacity="0.45"/><circle cx="155.3" cy="1430.8" r="2.7" fill="#A855F7" opacity="0.45"/></g>
<g opacity="0.188" filter="url(#softGlow)"><path d="M 753.1,399.8 L 607.4,399.8 L 607.4,1584.5 L 868.4,1584.5 L 868.4,178.0 " fill="none" stroke="url(#strokeB)" stroke-width="1.52" stroke-linecap="round" stroke-linejoin="round"/><circle cx="868.4" cy="1584.5" r="2.2" fill="#A855F7" opacity="0.45"/><circle cx="607.4" cy="1584.5" r="2.3" fill="#A855F7" opacity="0.45"/><circle cx="753.1" cy="399.8" r="3.2" fill="#A855F7" opacity="0.45"/></g>
<g opacity="0.188" filter="url(#softGlow)"><path d="M 549.8,43.6 L 751.6,43.6 L 751.6,1551.1 L 845.5,1551.1 L 845.5,1555.0 " fill="none" stroke="url(#strokeB)" stroke-width="1.95" stroke-linecap="round" stroke-linejoin="round"/><circle cx="845.5" cy="1555.0" r="4.0" fill="#A855F7" opacity="0.45"/><circle cx="845.5" cy="1551.1" r="2.4" fill="#A855F7" opacity="0.45"/><circle cx="751.6" cy="1551.1" r="3.4" fill="#A855F7" opacity="0.45"/></g>
<g opacity="0.188" filter="url(#softGlow)"><path d="M 477.9,1442.1 L 59.2,1442.1 L 59.2,68.1 L 820.2,68.1 L 820.2,91.2 " fill="none" stroke="url(#strokeB)" stroke-width="2.09" stroke-linecap="round" stroke-linejoin="round"/><circle cx="59.2" cy="68.1" r="2.5" fill="#A855F7" opacity="0.45"/><circle cx="477.9" cy="1442.1" r="2.8" fill="#A855F7" opacity="0.45"/><circle cx="820.2" cy="91.2" r="3.0" fill="#A855F7" opacity="0.45"/></g>
<g opacity="0.188" filter="url(#softGlow)"><path d="M 293.4,33.2 L 321.2,33.2 L 321.2,118.7 L 13.3,118.7 L 13.3,42.7 " fill="none" stroke="url(#strokeB)" stroke-width="1.12" stroke-linecap="round" stroke-linejoin="round"/><circle cx="321.2" cy="33.2" r="3.4" fill="#A855F7" opacity="0.45"/><circle cx="321.2" cy="118.7" r="4.1" fill="#A855F7" opacity="0.45"/><circle cx="13.3" cy="42.7" r="3.5" fill="#A855F7" opacity="0.45"/></g>
<g opacity="0.188" filter="url(#softGlow)"><path d="M 484.7,1420.1 L 774.5,1420.1 L 774.5,305.6 L 373.1,305.6 L 373.1,43.3 " fill="none" stroke="url(#strokeB)" stroke-width="1.80" stroke-linecap="round" stroke-linejoin="round"/><circle cx="373.1" cy="43.3" r="3.2" fill="#A855F7" opacity="0.45"/><circle cx="774.5" cy="305.6" r="4.0" fill="#A855F7" opacity="0.45"/><circle cx="774.5" cy="1420.1" r="4.1" fill="#A855F7" opacity="0.45"/></g>
<g opacity="0.188" filter="url(#softGlow)"><path d="M 148.0,1560.1 L 3.1,1560.1 L 3.1,6.5 L 768.7,6.5 L 768.7,1465.9 " fill="none" stroke="url(#strokeB)" stroke-width="1.75" stroke-linecap="round" stroke-linejoin="round"/><circle cx="768.7" cy="6.5" r="2.4" fill="#A855F7" opacity="0.45"/><circle cx="3.1" cy="1560.1" r="2.4" fill="#A855F7" opacity="0.45"/><circle cx="3.1" cy="6.5" r="2.2" fill="#A855F7" opacity="0.45"/></g>
<g opacity="0.188" filter="url(#softGlow)"><path d="M 817.1,169.6 L 752.8,169.6 L 752.8,1474.3 L 0.6,1474.3 L 0.6,1588.7 " fill="none" stroke="url(#strokeB)" stroke-width="1.49" stroke-linecap="round" stroke-linejoin="round"/><circle cx="817.1" cy="169.6" r="3.9" fill="#A855F7" opacity="0.45"/><circle cx="752.8" cy="169.6" r="2.7" fill="#A855F7" opacity="0.45"/><circle cx="752.8" cy="1474.3" r="3.4" fill="#A855F7" opacity="0.45"/></g>
<g opacity="0.188" filter="url(#softGlow)"><path d="M 839.5,974.7 L 717.0,974.7 L 717.0,1588.4 L 11.4,1588.4 L 11.4,703.3 " fill="none" stroke="url(#strokeB)" stroke-width="1.32" stroke-linecap="round" stroke-linejoin="round"/><circle cx="717.0" cy="1588.4" r="2.8" fill="#A855F7" opacity="0.45"/><circle cx="839.5" cy="974.7" r="2.1" fill="#A855F7" opacity="0.45"/><circle cx="11.4" cy="703.3" r="3.5" fill="#A855F7" opacity="0.45"/></g>
<g opacity="0.188" filter="url(#softGlow)"><path d="M 137.2,1558.1 L 89.6,1558.1 L 89.6,1562.6 L 72.2,1562.6 L 72.2,121.5 " fill="none" stroke="url(#strokeB)" stroke-width="1.40" stroke-linecap="round" stroke-linejoin="round"/><circle cx="137.2" cy="1558.1" r="3.7" fill="#A855F7" opacity="0.45"/><circle cx="89.6" cy="1558.1" r="4.0" fill="#A855F7" opacity="0.45"/><circle cx="72.2" cy="121.5" r="4.0" fill="#A855F7" opacity="0.45"/></g>
<g opacity="0.188" filter="url(#softGlow)"><path d="M 795.6,991.9 L 379.6,991.9 L 379.6,1549.6 L 883.3,1549.6 L 883.3,119.6 " fill="none" stroke="url(#strokeB)" stroke-width="1.63" stroke-linecap="round" stroke-linejoin="round"/><circle cx="379.6" cy="1549.6" r="3.5" fill="#A855F7" opacity="0.45"/><circle cx="883.3" cy="1549.6" r="2.9" fill="#A855F7" opacity="0.45"/><circle cx="795.6" cy="991.9" r="4.0" fill="#A855F7" opacity="0.45"/></g>
<g opacity="0.188" filter="url(#softGlow)"><path d="M 834.3,35.8 L 268.4,35.8 L 268.4,3.3 L 726.4,3.3 L 726.4,1521.4 " fill="none" stroke="url(#strokeB)" stroke-width="1.49" stroke-linecap="round" stroke-linejoin="round"/><circle cx="268.4" cy="3.3" r="2.4" fill="#A855F7" opacity="0.45"/><circle cx="726.4" cy="1521.4" r="3.6" fill="#A855F7" opacity="0.45"/><circle cx="834.3" cy="35.8" r="4.1" fill="#A855F7" opacity="0.45"/></g>
<g opacity="0.188" filter="url(#softGlow)"><path d="M 126.2,122.3 L 811.5,122.3 L 811.5,603.8 L 768.5,603.8 L 768.5,27.3 " fill="none" stroke="url(#strokeB)" stroke-width="1.64" stroke-linecap="round" stroke-linejoin="round"/><circle cx="811.5" cy="603.8" r="2.9" fill="#A855F7" opacity="0.45"/><circle cx="126.2" cy="122.3" r="3.2" fill="#A855F7" opacity="0.45"/><circle cx="768.5" cy="603.8" r="2.3" fill="#A855F7" opacity="0.45"/></g>
<g opacity="0.188" filter="url(#softGlow)"><path d="M 875.6,1515.0 L 892.2,1515.0 L 892.2,110.0 L 160.5,110.0 L 160.5,1423.4 " fill="none" stroke="url(#strokeB)" stroke-width="1.10" stroke-linecap="round" stroke-linejoin="round"/><circle cx="160.5" cy="110.0" r="2.7" fill="#A855F7" opacity="0.45"/><circle cx="892.2" cy="1515.0" r="2.6" fill="#A855F7" opacity="0.45"/><circle cx="160.5" cy="1423.4" r="3.5" fill="#A855F7" opacity="0.45"/></g>
<g opacity="0.188" filter="url(#softGlow)"><path d="M 819.1,1451.1 L 816.5,1451.1 L 816.5,130.7 L 292.9,130.7 L 292.9,144.4 " fill="none" stroke="url(#strokeB)" stroke-width="1.57" stroke-linecap="round" stroke-linejoin="round"/><circle cx="816.5" cy="130.7" r="4.2" fill="#A855F7" opacity="0.45"/><circle cx="816.5" cy="1451.1" r="2.1" fill="#A855F7" opacity="0.45"/><circle cx="292.9" cy="130.7" r="3.0" fill="#A855F7" opacity="0.45"/></g>
<g opacity="0.188" filter="url(#softGlow)"><path d="M 514.9,1581.9 L 61.4,1581.9 L 61.4,1434.4 L 761.2,1434.4 L 761.2,1519.8 " fill="none" stroke="url(#strokeB)" stroke-width="1.67" stroke-linecap="round" stroke-linejoin="round"/><circle cx="761.2" cy="1519.8" r="3.0" fill="#A855F7" opacity="0.45"/><circle cx="761.2" cy="1434.4" r="3.7" fill="#A855F7" opacity="0.45"/><circle cx="61.4" cy="1434.4" r="2.1" fill="#A855F7" opacity="0.45"/></g>
<g opacity="0.188" filter="url(#softGlow)"><path d="M 866.1,75.8 L 874.3,75.8 L 874.3,49.0 L 83.1,49.0 L 83.1,1422.1 " fill="none" stroke="url(#strokeB)" stroke-width="2.06" stroke-linecap="round" stroke-linejoin="round"/><circle cx="83.1" cy="49.0" r="3.1" fill="#A855F7" opacity="0.45"/><circle cx="874.3" cy="75.8" r="3.7" fill="#A855F7" opacity="0.45"/><circle cx="874.3" cy="49.0" r="2.5" fill="#A855F7" opacity="0.45"/></g>
<g opacity="0.188" filter="url(#softGlow)"><path d="M 441.6,31.3 L 796.0,31.3 L 796.0,33.7 L 291.3,33.7 L 291.3,1477.2 " fill="none" stroke="url(#strokeB)" stroke-width="1.80" stroke-linecap="round" stroke-linejoin="round"/><circle cx="291.3" cy="33.7" r="2.5" fill="#A855F7" opacity="0.45"/><circle cx="291.3" cy="1477.2" r="3.4" fill="#A855F7" opacity="0.45"/><circle cx="796.0" cy="33.7" r="3.0" fill="#A855F7" opacity="0.45"/></g>
<g opacity="0.188" filter="url(#softGlow)"><path d="M 898.3,112.5 L 812.4,112.5 L 812.4,1562.5 L 243.5,1562.5 L 243.5,66.5 " fill="none" stroke="url(#strokeB)" stroke-width="2.03" stroke-linecap="round" stroke-linejoin="round"/><circle cx="812.4" cy="112.5" r="3.4" fill="#A855F7" opacity="0.45"/><circle cx="243.5" cy="66.5" r="2.5" fill="#A855F7" opacity="0.45"/><circle cx="812.4" cy="1562.5" r="3.3" fill="#A855F7" opacity="0.45"/></g>
<g opacity="0.188" filter="url(#softGlow)"><path d="M 847.6,1461.0 L 128.1,1461.0 L 128.1,1459.3 L 837.8,1459.3 L 837.8,1513.2 " fill="none" stroke="url(#strokeB)" stroke-width="1.14" stroke-linecap="round" stroke-linejoin="round"/><circle cx="128.1" cy="1459.3" r="3.4" fill="#A855F7" opacity="0.45"/><circle cx="837.8" cy="1459.3" r="4.0" fill="#A855F7" opacity="0.45"/><circle cx="837.8" cy="1513.2" r="3.6" fill="#A855F7" opacity="0.45"/></g>
<g opacity="0.188" filter="url(#softGlow)"><path d="M 799.9,120.3 L 500.5,120.3 L 500.5,50.9 L 14.0,50.9 L 14.0,1589.3 " fill="none" stroke="url(#strokeB)" stroke-width="1.60" stroke-linecap="round" stroke-linejoin="round"/><circle cx="500.5" cy="120.3" r="3.5" fill="#A855F7" opacity="0.45"/><circle cx="14.0" cy="1589.3" r="3.4" fill="#A855F7" opacity="0.45"/><circle cx="14.0" cy="50.9" r="3.4" fill="#A855F7" opacity="0.45"/></g>
<g opacity="0.188" filter="url(#softGlow)"><path d="M 869.9,1474.0 L 95.7,1474.0 L 95.7,1561.4 L 870.7,1561.4 L 870.7,129.3 " fill="none" stroke="url(#strokeB)" stroke-width="1.25" stroke-linecap="round" stroke-linejoin="round"/><circle cx="95.7" cy="1474.0" r="3.2" fill="#A855F7" opacity="0.45"/><circle cx="870.7" cy="129.3" r="3.1" fill="#A855F7" opacity="0.45"/><circle cx="95.7" cy="1561.4" r="3.4" fill="#A855F7" opacity="0.45"/></g>

<g opacity="0.783" filter="url(#hardGlow)">
  <circle cx="0.1" cy="49.0" r="44.7" fill="#0A1224" opacity="0.65"/>
  <circle cx="0.1" cy="49.0" r="44.7" fill="none" stroke="url(#strokeA)" stroke-width="3.6" opacity="0.85"/>
  <circle cx="0.1" cy="49.0" r="38.5" fill="none" stroke="#F59E0B" stroke-width="1.5" opacity="0.35"/>
  <polygon points="-20.8,73.5 -31.6,43.1 -10.6,18.7 21.0,24.6 31.8,54.9 10.8,79.4" fill="none" stroke="url(#strokeB)" stroke-width="1.2" opacity="0.65"/>
  <polygon points="-9.7,54.6 0.2,37.8 9.8,54.8" fill="#F59E0B" opacity="0.22" filter="url(#softGlow)"/>
</g>


<g opacity="0.370" filter="url(#hardGlow)">
  <circle cx="45.7" cy="-4.4" r="19.2" fill="#0A1224" opacity="0.65"/>
  <circle cx="45.7" cy="-4.4" r="19.2" fill="none" stroke="url(#strokeA)" stroke-width="2.0" opacity="0.85"/>
  <circle cx="45.7" cy="-4.4" r="16.6" fill="none" stroke="#A855F7" stroke-width="1.5" opacity="0.35"/>
  <polygon points="58.6,0.9 47.6,9.4 34.8,4.1 32.9,-9.6 43.9,-18.1 56.7,-12.8" fill="none" stroke="url(#strokeB)" stroke-width="1.2" opacity="0.65"/>
  
</g>


<g opacity="0.547" filter="url(#hardGlow)">
  <circle cx="29.8" cy="44.3" r="21.9" fill="#0A1224" opacity="0.65"/>
  <circle cx="29.8" cy="44.3" r="21.9" fill="none" stroke="url(#strokeA)" stroke-width="2.0" opacity="0.85"/>
  <circle cx="29.8" cy="44.3" r="18.9" fill="none" stroke="#A855F7" stroke-width="1.5" opacity="0.35"/>
  <polygon points="38.0,57.8 22.2,58.2 14.0,44.7 21.6,30.9 37.4,30.5 45.6,44.0" fill="none" stroke="url(#strokeB)" stroke-width="1.2" opacity="0.65"/>
  <polygon points="30.9,49.8 24.6,42.6 33.9,40.7" fill="#A855F7" opacity="0.22" filter="url(#softGlow)"/>
</g>


<g opacity="0.517" filter="url(#hardGlow)">
  <circle cx="-51.6" cy="23.9" r="18.1" fill="#0A1224" opacity="0.65"/>
  <circle cx="-51.6" cy="23.9" r="18.1" fill="none" stroke="url(#strokeA)" stroke-width="2.0" opacity="0.85"/>
  <circle cx="-51.6" cy="23.9" r="15.6" fill="none" stroke="#A855F7" stroke-width="1.5" opacity="0.35"/>
  <polygon points="-61.1,32.8 -64.1,20.1 -54.6,11.2 -42.1,14.9 -39.1,27.6 -48.6,36.6" fill="none" stroke="url(#strokeB)" stroke-width="1.2" opacity="0.65"/>
  <polygon points="-55.8,25.7 -51.1,19.3 -48.0,26.6" fill="#A855F7" opacity="0.22" filter="url(#softGlow)"/>
</g>


<g opacity="0.685" filter="url(#hardGlow)">
  <circle cx="169.6" cy="102.9" r="38.2" fill="#0A1224" opacity="0.65"/>
  <circle cx="169.6" cy="102.9" r="38.2" fill="none" stroke="url(#strokeA)" stroke-width="3.1" opacity="0.85"/>
  <circle cx="169.6" cy="102.9" r="32.8" fill="none" stroke="#F59E0B" stroke-width="1.5" opacity="0.35"/>
  <polygon points="196.8,99.2 186.4,124.6 159.2,128.3 142.4,106.6 152.7,81.2 180.0,77.5" fill="none" stroke="url(#strokeB)" stroke-width="1.2" opacity="0.65"/>
  <polygon points="179.0,104.9 163.1,110.0 166.6,93.7" fill="#F59E0B" opacity="0.22" filter="url(#softGlow)"/>
</g>


<g opacity="0.647" filter="url(#hardGlow)">
  <circle cx="199.8" cy="60.9" r="16.3" fill="#0A1224" opacity="0.65"/>
  <circle cx="199.8" cy="60.9" r="16.3" fill="none" stroke="url(#strokeA)" stroke-width="2.0" opacity="0.85"/>
  <circle cx="199.8" cy="60.9" r="14.0" fill="none" stroke="#A855F7" stroke-width="1.5" opacity="0.35"/>
  <polygon points="188.2,58.9 195.7,49.9 207.3,51.9 211.3,62.9 203.8,71.9 192.3,69.9" fill="none" stroke="url(#strokeB)" stroke-width="1.2" opacity="0.65"/>
  
</g>


<g opacity="0.598" filter="url(#hardGlow)">
  <circle cx="136.9" cy="146.3" r="17.4" fill="#0A1224" opacity="0.65"/>
  <circle cx="136.9" cy="146.3" r="17.4" fill="none" stroke="url(#strokeA)" stroke-width="2.0" opacity="0.85"/>
  <circle cx="136.9" cy="146.3" r="14.9" fill="none" stroke="#A855F7" stroke-width="1.5" opacity="0.35"/>
  <polygon points="145.4,155.4 133.2,158.3 124.7,149.1 128.3,137.2 140.5,134.3 149.1,143.4" fill="none" stroke="url(#strokeB)" stroke-width="1.2" opacity="0.65"/>
  <polygon points="138.6,150.3 132.5,145.8 139.5,142.8" fill="#A855F7" opacity="0.22" filter="url(#softGlow)"/>
</g>


<g opacity="0.537" filter="url(#hardGlow)">
  <circle cx="184.5" cy="70.7" r="16.8" fill="#0A1224" opacity="0.65"/>
  <circle cx="184.5" cy="70.7" r="16.8" fill="none" stroke="url(#strokeA)" stroke-width="2.0" opacity="0.85"/>
  <circle cx="184.5" cy="70.7" r="14.4" fill="none" stroke="#A855F7" stroke-width="1.5" opacity="0.35"/>
  <polygon points="175.8,79.0 172.9,67.3 181.7,59.0 193.3,62.4 196.1,74.2 187.4,82.5" fill="none" stroke="url(#strokeB)" stroke-width="1.2" opacity="0.65"/>
  <polygon points="180.7,72.4 185.0,66.5 187.9,73.2" fill="#A855F7" opacity="0.22" filter="url(#softGlow)"/>
</g>


<g opacity="0.879" filter="url(#hardGlow)">
  <circle cx="808.7" cy="1489.2" r="38.0" fill="#0A1224" opacity="0.65"/>
  <circle cx="808.7" cy="1489.2" r="38.0" fill="none" stroke="url(#strokeA)" stroke-width="3.0" opacity="0.85"/>
  <circle cx="808.7" cy="1489.2" r="32.7" fill="none" stroke="#F59E0B" stroke-width="1.5" opacity="0.35"/>
  <polygon points="810.6,1516.5 786.0,1504.5 784.1,1477.2 806.8,1461.9 831.4,1473.9 833.3,1501.2" fill="none" stroke="url(#strokeB)" stroke-width="1.2" opacity="0.65"/>
  <polygon points="806.0,1498.4 802.0,1482.3 818.0,1486.9" fill="#F59E0B" opacity="0.22" filter="url(#softGlow)"/>
</g>


<g opacity="0.390" filter="url(#hardGlow)">
  <circle cx="857.8" cy="1532.7" r="14.6" fill="#0A1224" opacity="0.65"/>
  <circle cx="857.8" cy="1532.7" r="14.6" fill="none" stroke="url(#strokeA)" stroke-width="2.0" opacity="0.85"/>
  <circle cx="857.8" cy="1532.7" r="12.6" fill="none" stroke="#A855F7" stroke-width="1.5" opacity="0.35"/>
  <polygon points="866.7,1527.0 867.1,1537.5 858.2,1543.2 848.9,1538.3 848.4,1527.8 857.3,1522.2" fill="none" stroke="url(#strokeB)" stroke-width="1.2" opacity="0.65"/>
  
</g>


<g opacity="0.375" filter="url(#hardGlow)">
  <circle cx="793.9" cy="1488.4" r="20.8" fill="#0A1224" opacity="0.65"/>
  <circle cx="793.9" cy="1488.4" r="20.8" fill="none" stroke="url(#strokeA)" stroke-width="2.0" opacity="0.85"/>
  <circle cx="793.9" cy="1488.4" r="17.9" fill="none" stroke="#A855F7" stroke-width="1.5" opacity="0.35"/>
  <polygon points="800.5,1501.8 785.5,1500.8 779.0,1487.3 787.3,1474.9 802.3,1476.0 808.9,1489.4" fill="none" stroke="url(#strokeB)" stroke-width="1.2" opacity="0.65"/>
  <polygon points="794.5,1493.6 789.1,1486.3 798.2,1485.3" fill="#A855F7" opacity="0.22" filter="url(#softGlow)"/>
</g>


<g opacity="0.488" filter="url(#hardGlow)">
  <circle cx="812.7" cy="1449.8" r="18.4" fill="#0A1224" opacity="0.65"/>
  <circle cx="812.7" cy="1449.8" r="18.4" fill="none" stroke="url(#strokeA)" stroke-width="2.0" opacity="0.85"/>
  <circle cx="812.7" cy="1449.8" r="15.9" fill="none" stroke="#A855F7" stroke-width="1.5" opacity="0.35"/>
  <polygon points="812.6,1436.5 824.1,1443.1 824.3,1456.3 812.8,1463.1 801.3,1456.5 801.2,1443.3" fill="none" stroke="url(#strokeB)" stroke-width="1.2" opacity="0.65"/>
  <polygon points="814.3,1445.4 815.7,1453.3 808.1,1450.7" fill="#A855F7" opacity="0.22" filter="url(#softGlow)"/>
</g>


<g opacity="0.765" filter="url(#hardGlow)">
  <circle cx="786.5" cy="104.2" r="58.3" fill="#0A1224" opacity="0.65"/>
  <circle cx="786.5" cy="104.2" r="58.3" fill="none" stroke="url(#strokeA)" stroke-width="4.7" opacity="0.85"/>
  <circle cx="786.5" cy="104.2" r="50.1" fill="none" stroke="#F59E0B" stroke-width="1.7" opacity="0.35"/>
  <polygon points="756.4,74.9 796.9,63.5 826.9,92.9 816.5,133.5 776.1,144.8 746.0,115.5" fill="none" stroke="url(#strokeB)" stroke-width="1.5" opacity="0.65"/>
  <polygon points="780.1,91.0 801.1,105.3 778.2,116.3" fill="#F59E0B" opacity="0.22" filter="url(#softGlow)"/>
</g>


<g opacity="0.452" filter="url(#hardGlow)">
  <circle cx="819.7" cy="171.1" r="27.3" fill="#0A1224" opacity="0.65"/>
  <circle cx="819.7" cy="171.1" r="27.3" fill="none" stroke="url(#strokeA)" stroke-width="2.2" opacity="0.85"/>
  <circle cx="819.7" cy="171.1" r="23.5" fill="none" stroke="#A855F7" stroke-width="1.5" opacity="0.35"/>
  <polygon points="807.4,155.8 826.9,152.9 839.1,168.2 831.9,186.5 812.5,189.4 800.2,174.1" fill="none" stroke="url(#strokeB)" stroke-width="1.2" opacity="0.65"/>
  
</g>


<g opacity="0.418" filter="url(#hardGlow)">
  <circle cx="866.0" cy="157.0" r="20.6" fill="#0A1224" opacity="0.65"/>
  <circle cx="866.0" cy="157.0" r="20.6" fill="none" stroke="url(#strokeA)" stroke-width="2.0" opacity="0.85"/>
  <circle cx="866.0" cy="157.0" r="17.7" fill="none" stroke="#A855F7" stroke-width="1.5" opacity="0.35"/>
  <polygon points="852.6,150.8 864.7,142.2 878.2,148.5 879.5,163.2 867.4,171.8 853.9,165.5" fill="none" stroke="url(#strokeB)" stroke-width="1.2" opacity="0.65"/>
  <polygon points="862.4,153.3 871.1,155.6 864.7,162.0" fill="#A855F7" opacity="0.22" filter="url(#softGlow)"/>
</g>


<g opacity="0.820" filter="url(#hardGlow)">
  <circle cx="792.2" cy="1482.6" r="40.6" fill="#0A1224" opacity="0.65"/>
  <circle cx="792.2" cy="1482.6" r="40.6" fill="none" stroke="url(#strokeA)" stroke-width="3.2" opacity="0.85"/>
  <circle cx="792.2" cy="1482.6" r="34.9" fill="none" stroke="#F59E0B" stroke-width="1.5" opacity="0.35"/>
  <polygon points="788.6,1453.6 815.5,1465.0 819.2,1494.0 795.9,1511.7 768.9,1500.3 765.3,1471.3" fill="none" stroke="url(#strokeB)" stroke-width="1.2" opacity="0.65"/>
  <polygon points="794.5,1472.7 799.8,1489.6 782.5,1485.7" fill="#F59E0B" opacity="0.22" filter="url(#softGlow)"/>
</g>


<g opacity="0.620" filter="url(#hardGlow)">
  <circle cx="814.8" cy="1481.7" r="17.0" fill="#0A1224" opacity="0.65"/>
  <circle cx="814.8" cy="1481.7" r="17.0" fill="none" stroke="url(#strokeA)" stroke-width="2.0" opacity="0.85"/>
  <circle cx="814.8" cy="1481.7" r="14.6" fill="none" stroke="#A855F7" stroke-width="1.5" opacity="0.35"/>
  <polygon points="806.9,1491.2 802.7,1479.7 810.5,1470.2 822.6,1472.3 826.9,1483.8 819.0,1493.2" fill="none" stroke="url(#strokeB)" stroke-width="1.2" opacity="0.65"/>
  <polygon points="811.1,1483.9 814.8,1477.4 818.5,1483.9" fill="#A855F7" opacity="0.22" filter="url(#softGlow)"/>
</g>


<g opacity="0.391" filter="url(#hardGlow)">
  <circle cx="778.4" cy="1492.5" r="14.8" fill="#0A1224" opacity="0.65"/>
  <circle cx="778.4" cy="1492.5" r="14.8" fill="none" stroke="url(#strokeA)" stroke-width="2.0" opacity="0.85"/>
  <circle cx="778.4" cy="1492.5" r="12.7" fill="none" stroke="#A855F7" stroke-width="1.5" opacity="0.35"/>
  <polygon points="788.5,1489.2 786.4,1499.6 776.3,1502.9 768.4,1495.8 770.5,1485.4 780.6,1482.1" fill="none" stroke="url(#strokeB)" stroke-width="1.2" opacity="0.65"/>
  <polygon points="782.2,1492.6 776.5,1495.6 776.7,1489.2" fill="#A855F7" opacity="0.22" filter="url(#softGlow)"/>
</g>


<g opacity="0.427" transform="translate(766.5,456.6) rotate(-3.2)" filter="url(#softGlow)">
  <rect x="-91.6" y="-79.9" width="183.2" height="159.7" rx="16.0" fill="#050A12" opacity="0.25"/>
  <rect x="-91.6" y="-79.9" width="183.2" height="159.7" rx="16.0" fill="none" stroke="url(#strokeA)" stroke-width="8.0" opacity="0.85"/>
  <rect x="-78.8" y="-67.1" width="157.6" height="134.2" rx="11.2" fill="none" stroke="#F59E0B" stroke-width="3.2" opacity="0.35"/>
</g>


<g opacity="0.269" transform="translate(60.8,413.3) rotate(-3.5)" filter="url(#softGlow)">
  <rect x="-76.8" y="-67.4" width="153.6" height="134.7" rx="13.5" fill="#050A12" opacity="0.25"/>
  <rect x="-76.8" y="-67.4" width="153.6" height="134.7" rx="13.5" fill="none" stroke="url(#strokeA)" stroke-width="6.7" opacity="0.85"/>
  <rect x="-66.0" y="-56.6" width="132.0" height="113.2" rx="9.4" fill="none" stroke="#A855F7" stroke-width="2.7" opacity="0.35"/>
</g>


<g opacity="0.429" transform="translate(70.6,1586.7) rotate(2.2)" filter="url(#softGlow)">
  <rect x="-86.2" y="-68.5" width="172.4" height="137.0" rx="13.7" fill="#050A12" opacity="0.25"/>
  <rect x="-86.2" y="-68.5" width="172.4" height="137.0" rx="13.7" fill="none" stroke="url(#strokeA)" stroke-width="6.8" opacity="0.85"/>
  <rect x="-75.2" y="-57.5" width="150.5" height="115.1" rx="9.6" fill="none" stroke="#F59E0B" stroke-width="2.7" opacity="0.35"/>
</g>


<g opacity="0.345" transform="translate(530.2,109.9) rotate(1.5)" filter="url(#softGlow)">
  <rect x="-66.3" y="-51.1" width="132.5" height="102.2" rx="10.2" fill="#050A12" opacity="0.25"/>
  <rect x="-66.3" y="-51.1" width="132.5" height="102.2" rx="10.2" fill="none" stroke="url(#strokeA)" stroke-width="5.1" opacity="0.85"/>
  <rect x="-58.1" y="-42.9" width="116.1" height="85.9" rx="7.2" fill="none" stroke="#F59E0B" stroke-width="2.0" opacity="0.35"/>
</g>


<g opacity="0.278" transform="translate(770.4,1551.7) rotate(8.2)" filter="url(#softGlow)">
  <rect x="-33.5" y="-19.3" width="67.0" height="38.6" rx="11.8" fill="none" stroke="#F59E0B" stroke-width="6.4" opacity="0.55"/>
  <rect x="-14.7" y="-9.6" width="67.0" height="38.6" rx="11.8" fill="none" stroke="url(#strokeA)" stroke-width="5.4" opacity="0.55"/>
</g>


<g opacity="0.456" transform="translate(154.9,171.4) rotate(-11.3)" filter="url(#softGlow)">
  <rect x="-43.0" y="-24.8" width="86.1" height="49.6" rx="15.1" fill="none" stroke="#F59E0B" stroke-width="8.3" opacity="0.55"/>
  <rect x="-18.9" y="-12.4" width="86.1" height="49.6" rx="15.1" fill="none" stroke="url(#strokeA)" stroke-width="6.9" opacity="0.55"/>
</g>


<g opacity="0.343" transform="translate(861.5,1505.4) rotate(11.9)" filter="url(#softGlow)">
  <rect x="-31.2" y="-18.0" width="62.4" height="35.9" rx="11.0" fill="none" stroke="#F59E0B" stroke-width="6.0" opacity="0.55"/>
  <rect x="-13.7" y="-9.0" width="62.4" height="35.9" rx="11.0" fill="none" stroke="url(#strokeA)" stroke-width="5.0" opacity="0.55"/>
</g>


<g opacity="0.443" transform="translate(76.8,1459.3) rotate(4.5)" filter="url(#softGlow)">
  <rect x="-34.7" y="-20.0" width="69.5" height="40.0" rx="12.2" fill="none" stroke="#A855F7" stroke-width="6.7" opacity="0.55"/>
  <rect x="-15.3" y="-10.0" width="69.5" height="40.0" rx="12.2" fill="none" stroke="url(#strokeA)" stroke-width="5.6" opacity="0.55"/>
</g>


<g opacity="0.385" transform="translate(817.9,1495.9) rotate(9.6)" filter="url(#softGlow)">
  <rect x="-36.1" y="-20.8" width="72.1" height="41.5" rx="12.7" fill="none" stroke="#F59E0B" stroke-width="6.9" opacity="0.55"/>
  <rect x="-15.9" y="-10.4" width="72.1" height="41.5" rx="12.7" fill="none" stroke="url(#strokeA)" stroke-width="5.8" opacity="0.55"/>
</g>


<g opacity="0.311" transform="translate(895.0,104.0) rotate(-0.2)" filter="url(#softGlow)">
  <rect x="-44.6" y="-25.7" width="89.2" height="51.4" rx="15.7" fill="none" stroke="#F59E0B" stroke-width="8.6" opacity="0.55"/>
  <rect x="-19.6" y="-12.8" width="89.2" height="51.4" rx="15.7" fill="none" stroke="url(#strokeA)" stroke-width="7.1" opacity="0.55"/>
</g>


<g opacity="0.442" transform="translate(287.3,1430.8) rotate(17.5)" filter="url(#softGlow)">
  <rect x="-49.6" y="-28.6" width="99.2" height="57.1" rx="17.5" fill="none" stroke="#A855F7" stroke-width="9.5" opacity="0.55"/>
  <rect x="-21.8" y="-14.3" width="99.2" height="57.1" rx="17.5" fill="none" stroke="url(#strokeA)" stroke-width="7.9" opacity="0.55"/>
</g>


<g opacity="0.266" transform="translate(115.6,1563.1) rotate(-2.8)" filter="url(#softGlow)">
  <rect x="-37.6" y="-21.6" width="75.1" height="43.3" rx="13.2" fill="none" stroke="#F59E0B" stroke-width="7.2" opacity="0.55"/>
  <rect x="-16.5" y="-10.8" width="75.1" height="43.3" rx="13.2" fill="none" stroke="url(#strokeA)" stroke-width="6.0" opacity="0.55"/>
</g>


<g opacity="0.458" transform="translate(835.1,169.2) rotate(-7.3)" filter="url(#softGlow)">
  <rect x="-29.4" y="-16.9" width="58.7" height="33.8" rx="10.3" fill="none" stroke="#F59E0B" stroke-width="5.6" opacity="0.55"/>
  <rect x="-12.9" y="-8.5" width="58.7" height="33.8" rx="10.3" fill="none" stroke="url(#strokeA)" stroke-width="4.7" opacity="0.55"/>
</g>


<g opacity="0.300" transform="translate(73.6,153.8) rotate(-11.6)" filter="url(#softGlow)">
  <rect x="-28.6" y="-16.5" width="57.1" height="32.9" rx="10.1" fill="none" stroke="#A855F7" stroke-width="5.5" opacity="0.55"/>
  <rect x="-12.6" y="-8.2" width="57.1" height="32.9" rx="10.1" fill="none" stroke="url(#strokeA)" stroke-width="4.6" opacity="0.55"/>
</g>


<g opacity="0.182">
  <line x1="198.9" y1="1409.3" x2="198.9" y2="1511.9" stroke="#A855F7" stroke-width="2.01" opacity="0.45"/>
  <rect x="193.7" y="1466.5" width="10.4" height="49.7" rx="3.5" fill="#0B1020" opacity="0.55" stroke="url(#strokeA)" stroke-width="1.2"/>
</g>

<g opacity="0.182">
  <line x1="155.2" y1="1422.0" x2="155.2" y2="1508.7" stroke="#A855F7" stroke-width="2.12" opacity="0.45"/>
  <rect x="151.9" y="1469.6" width="6.5" height="43.4" rx="2.2" fill="#0B1020" opacity="0.55" stroke="url(#strokeA)" stroke-width="1.2"/>
</g>

<g opacity="0.182">
  <line x1="432.3" y1="1422.8" x2="432.3" y2="1508.5" stroke="#A855F7" stroke-width="2.03" opacity="0.45"/>
  <rect x="427.7" y="1469.3" width="9.2" height="44.1" rx="3.1" fill="#0B1020" opacity="0.55" stroke="url(#strokeA)" stroke-width="1.2"/>
</g>

<g opacity="0.182">
  <line x1="823.6" y1="1439.0" x2="823.6" y2="1504.4" stroke="#A855F7" stroke-width="1.95" opacity="0.45"/>
  <rect x="819.5" y="1475.8" width="8.2" height="31.2" rx="2.7" fill="#0B1020" opacity="0.55" stroke="url(#strokeA)" stroke-width="1.2"/>
</g>

<g opacity="0.182">
  <line x1="560.2" y1="1403.7" x2="560.2" y2="1513.3" stroke="#A855F7" stroke-width="1.30" opacity="0.45"/>
  <rect x="557.1" y="1463.3" width="6.3" height="56.1" rx="2.1" fill="#0B1020" opacity="0.55" stroke="url(#strokeA)" stroke-width="1.2"/>
</g>

<g opacity="0.182">
  <line x1="669.4" y1="1447.8" x2="669.4" y2="1502.2" stroke="#A855F7" stroke-width="1.95" opacity="0.45"/>
  <rect x="663.5" y="1478.4" width="11.8" height="25.8" rx="3.9" fill="#0B1020" opacity="0.55" stroke="url(#strokeA)" stroke-width="1.2"/>
</g>

<g opacity="0.182">
  <line x1="761.0" y1="1435.4" x2="761.0" y2="1505.3" stroke="#A855F7" stroke-width="1.61" opacity="0.45"/>
  <rect x="757.5" y="1472.2" width="7.1" height="38.3" rx="2.4" fill="#0B1020" opacity="0.55" stroke="url(#strokeA)" stroke-width="1.2"/>
</g>

<g opacity="0.182">
  <line x1="578.9" y1="1411.6" x2="578.9" y2="1511.3" stroke="#A855F7" stroke-width="1.07" opacity="0.45"/>
  <rect x="573.8" y="1463.2" width="10.1" height="56.2" rx="3.4" fill="#0B1020" opacity="0.55" stroke="url(#strokeA)" stroke-width="1.2"/>
</g>

<g opacity="0.182">
  <line x1="750.0" y1="1451.1" x2="750.0" y2="1501.4" stroke="#A855F7" stroke-width="1.49" opacity="0.45"/>
  <rect x="745.7" y="1477.5" width="8.6" height="27.6" rx="2.9" fill="#0B1020" opacity="0.55" stroke="url(#strokeA)" stroke-width="1.2"/>
</g>

<g opacity="0.182">
  <line x1="697.0" y1="1431.4" x2="697.0" y2="1506.3" stroke="#A855F7" stroke-width="1.35" opacity="0.45"/>
  <rect x="693.4" y="1476.0" width="7.3" height="30.8" rx="2.4" fill="#0B1020" opacity="0.55" stroke="url(#strokeA)" stroke-width="1.2"/>
</g>

<g opacity="0.182">
  <line x1="416.0" y1="1400.9" x2="416.0" y2="1514.0" stroke="#A855F7" stroke-width="1.79" opacity="0.45"/>
  <rect x="411.6" y="1463.3" width="8.8" height="56.1" rx="2.9" fill="#0B1020" opacity="0.55" stroke="url(#strokeA)" stroke-width="1.2"/>
</g>

<g opacity="0.182">
  <line x1="184.6" y1="1432.8" x2="184.6" y2="1506.0" stroke="#A855F7" stroke-width="1.53" opacity="0.45"/>
  <rect x="180.3" y="1476.5" width="8.7" height="29.7" rx="2.9" fill="#0B1020" opacity="0.55" stroke="url(#strokeA)" stroke-width="1.2"/>
</g>

<g opacity="0.182">
  <line x1="733.8" y1="1428.1" x2="733.8" y2="1507.2" stroke="#A855F7" stroke-width="1.74" opacity="0.45"/>
  <rect x="729.4" y="1471.7" width="8.9" height="39.4" rx="3.0" fill="#0B1020" opacity="0.55" stroke="url(#strokeA)" stroke-width="1.2"/>
</g>

<g opacity="0.182">
  <line x1="62.1" y1="1434.6" x2="62.1" y2="1505.5" stroke="#A855F7" stroke-width="1.56" opacity="0.45"/>
  <rect x="56.2" y="1479.2" width="11.8" height="24.4" rx="3.9" fill="#0B1020" opacity="0.55" stroke="url(#strokeA)" stroke-width="1.2"/>
</g>

<g opacity="0.182">
  <line x1="6.8" y1="1438.4" x2="6.8" y2="1504.6" stroke="#A855F7" stroke-width="1.38" opacity="0.45"/>
  <rect x="1.2" y="1480.6" width="11.3" height="21.6" rx="3.8" fill="#0B1020" opacity="0.55" stroke="url(#strokeA)" stroke-width="1.2"/>
</g>

<g opacity="0.182">
  <line x1="394.9" y1="1419.9" x2="394.9" y2="1509.2" stroke="#A855F7" stroke-width="2.20" opacity="0.45"/>
  <rect x="391.1" y="1465.4" width="7.8" height="51.8" rx="2.6" fill="#0B1020" opacity="0.55" stroke="url(#strokeA)" stroke-width="1.2"/>
</g>

<g opacity="0.182">
  <line x1="337.3" y1="1439.3" x2="337.3" y2="1504.4" stroke="#A855F7" stroke-width="1.68" opacity="0.45"/>
  <rect x="331.7" y="1481.3" width="11.2" height="20.0" rx="3.7" fill="#0B1020" opacity="0.55" stroke="url(#strokeA)" stroke-width="1.2"/>
</g>
<circle cx="128.3" cy="508.1" r="3.1" fill="#F59E0B" opacity="0.21" filter="url(#softGlow)"/>
<circle cx="170.9" cy="1477.1" r="1.9" fill="#F59E0B" opacity="0.16" filter="url(#softGlow)"/>
<circle cx="218.7" cy="4.1" r="2.7" fill="#F59E0B" opacity="0.10" filter="url(#softGlow)"/>
<circle cx="30.1" cy="106.7" r="2.3" fill="#F59E0B" opacity="0.15" filter="url(#softGlow)"/>
<circle cx="894.8" cy="186.5" r="3.2" fill="#F59E0B" opacity="0.27" filter="url(#softGlow)"/>
<circle cx="88.7" cy="1480.8" r="1.9" fill="#F59E0B" opacity="0.27" filter="url(#softGlow)"/>
<circle cx="7.1" cy="1489.1" r="2.9" fill="#F59E0B" opacity="0.20" filter="url(#softGlow)"/>
<circle cx="855.1" cy="1439.8" r="3.1" fill="#F59E0B" opacity="0.10" filter="url(#softGlow)"/>
<circle cx="164.1" cy="1464.9" r="2.2" fill="#F59E0B" opacity="0.21" filter="url(#softGlow)"/>
<circle cx="743.5" cy="1457.4" r="1.7" fill="#F59E0B" opacity="0.27" filter="url(#softGlow)"/>
<circle cx="160.5" cy="1450.8" r="2.1" fill="#F59E0B" opacity="0.15" filter="url(#softGlow)"/>
<circle cx="424.0" cy="1439.5" r="1.6" fill="#F59E0B" opacity="0.15" filter="url(#softGlow)"/>
<circle cx="155.2" cy="1553.9" r="2.4" fill="#F59E0B" opacity="0.12" filter="url(#softGlow)"/>
<circle cx="282.1" cy="1481.2" r="2.9" fill="#F59E0B" opacity="0.13" filter="url(#softGlow)"/>
<circle cx="410.8" cy="53.6" r="3.0" fill="#F59E0B" opacity="0.15" filter="url(#softGlow)"/>
<circle cx="53.0" cy="1500.8" r="1.7" fill="#F59E0B" opacity="0.13" filter="url(#softGlow)"/>
<circle cx="170.7" cy="1452.3" r="1.5" fill="#F59E0B" opacity="0.12" filter="url(#softGlow)"/>
<circle cx="65.5" cy="1492.1" r="3.0" fill="#F59E0B" opacity="0.12" filter="url(#softGlow)"/>
<circle cx="66.8" cy="1052.4" r="1.6" fill="#F59E0B" opacity="0.22" filter="url(#softGlow)"/>
</svg>