<svg xmlns="http://www.w3.org/2000/svg" width="900" height="1600" viewBox="0 0 900 1600" preserveAspectRatio="xMidYMid slice">
<defs>
  <linearGradient id="g0" x1="0" y1="0" x2="1" y2="1">
    <stop offset="0" stop-color="#0B0F1A"/>
    <stop offset="0.55" stop-color="#A855F7" stop-opacity="0.9"/>
    <stop offset="1" stop-color="#030712"/>
  </linearGradient>
  <radialGradient id="g1" cx="20%" cy="15%" r="70%">
    <stop offset="0" stop-color="#22D3EE" stop-opacity="0.38"/>
    <stop offset="0.6" stop-color="#22D3EE" stop-opacity="0.08"/>
    <stop offset="1" stop-color="#22D3EE" stop-opacity="0"/>
  </radialGradient>
  <radialGradient id="g2" cx="85%" cy="80%" r="75%">
    <stop offset="0" stop-color="#22D3EE" stop-opacity="0.28"/>
    <stop offset="0.65" stop-color="#22D3EE" stop-opacity="0.06"/>
    <stop offset="1" stop-color="#22D3EE" stop-opacity="0"/>
  </radialGradient>
  <filter id="softGlow" x="-30%" y="-30%" width="160%" height="160%">
    <feGaussianBlur stdDeviation="12" result="b"/>
    <feMerge>
      <feMergeNode in="b"/>
      <feMergeNode in="SourceGraphic"/>
    </feMerge>
  </filter>
  <filter id="hardGlow" x="-40%" y="-40%" width="180%" height="180%">
    <feGaussianBlur stdDeviation="6" result="b"/>
    <feColorMatrix in="b" type="matrix" values="1 0 0 0 0  0 1 0 0 0  0 0 1 0 0  0 0 0 18 -7" result="c"/>
    <feMerge>
      <feMergeNode in="c"/>
      <feMergeNode in="SourceGraphic"/>
    </feMerge>
  </filter>
  <linearGradient id="strokeA" x1="0" y1="0" x2="1" y2="0">
    <stop offset="0" stop-color="#22D3EE" stop-opacity="0.9"/>
    <stop offset="0.5" stop-color="#FFFFFF" stop-opacity="0.25"/>
    <stop offset="1" stop-color="#22D3EE" stop-opacity="0.7"/>
  </linearGradient>
  <linearGradient id="strokeB" x1="0" y1="0" x2="0" y2="1">
    <stop offset="0" stop-color="#FFFFFF" stop-opacity="0.18"/>
    <stop offset="1" stop-color="#22D3EE" stop-opacity="0.55"/>
  </linearGradient>
</defs>
<rect x="0" y="0" width="900" height="1600" fill="url(#g0)"/>
<rect x="0" y="0" width="900" height="1600" fill="url(#g1)"/>
<rect x="0" y="0" width="900" height="1600" fill="url(#g2)"/>


<defs>
  <radialGradient id="vign" cx="0.5000" cy="0.5000" r="0.85">
    <stop offset="0" stop-color="#000000" stop-opacity="0"/>
    <stop offset="0.55" stop-color="#000000" stop-opacity="0.217"/>
    <stop offset="1" stop-color="#000000" stop-opacity="0.620"/>
  </radialGradient>
</defs>
<rect x="0" y="0" width="900" height="1600" fill="url(#vign)"/>

<g opacity="0.222" filter="url(#softGlow)"><path d="M 782.7,39.9 L 131.4,39.9 L 131.4,1471.8 L 103.6,1471.8 L 103.6,1596.8 " fill="none" stroke="url(#strokeB)" stroke-width="1.66" stroke-linecap="round" stroke-linejoin="round"/><circle cx="782.7" cy="39.9" r="2.3" fill="#F59E0B" opacity="0.45"/><circle cx="103.6" cy="1471.8" r="4.0" fill="#F59E0B" opacity="0.45"/><circle cx="103.6" cy="1596.8" r="3.5" fill="#F59E0B" opacity="0.45"/></g>
<g opacity="0.222" filter="url(#softGlow)"><path d="M 885.3,1243.6 L 0.7,1243.6 L 0.7,105.7 L 789.5,105.7 L 789.5,1562.1 " fill="none" stroke="url(#strokeB)" stroke-width="1.97" stroke-linecap="round" stroke-linejoin="round"/><circle cx="789.5" cy="1562.1" r="3.1" fill="#F59E0B" opacity="0.45"/><circle cx="789.5" cy="105.7" r="3.5" fill="#F59E0B" opacity="0.45"/><circle cx="0.7" cy="105.7" r="3.1" fill="#F59E0B" opacity="0.45"/></g>
<g opacity="0.222" filter="url(#softGlow)"><path d="M 132.9,1148.1 L 786.8,1148.1 L 786.8,72.7 L 763.5,72.7 L 763.5,154.7 " fill="none" stroke="url(#strokeB)" stroke-width="1.26" stroke-linecap="round" stroke-linejoin="round"/><circle cx="763.5" cy="72.7" r="2.9" fill="#F59E0B" opacity="0.45"/><circle cx="763.5" cy="154.7" r="3.9" fill="#F59E0B" opacity="0.45"/><circle cx="132.9" cy="1148.1" r="2.2" fill="#F59E0B" opacity="0.45"/></g>
<g opacity="0.222" filter="url(#softGlow)"><path d="M 391.9,1537.0 L 160.2,1537.0 L 160.2,1537.2 L 567.5,1537.2 L 567.5,24.0 " fill="none" stroke="url(#strokeB)" stroke-width="1.48" stroke-linecap="round" stroke-linejoin="round"/><circle cx="567.5" cy="1537.2" r="4.1" fill="#F59E0B" opacity="0.45"/><circle cx="160.2" cy="1537.0" r="3.1" fill="#F59E0B" opacity="0.45"/><circle cx="567.5" cy="24.0" r="2.8" fill="#F59E0B" opacity="0.45"/></g>
<g opacity="0.222" filter="url(#softGlow)"><path d="M 120.1,1590.8 L 783.8,1590.8 L 783.8,143.6 L 852.6,143.6 L 852.6,26.5 " fill="none" stroke="url(#strokeB)" stroke-width="2.09" stroke-linecap="round" stroke-linejoin="round"/><circle cx="852.6" cy="26.5" r="3.6" fill="#F59E0B" opacity="0.45"/><circle cx="852.6" cy="143.6" r="2.1" fill="#F59E0B" opacity="0.45"/><circle cx="120.1" cy="1590.8" r="3.9" fill="#F59E0B" opacity="0.45"/></g>
<g opacity="0.222" filter="url(#softGlow)"><path d="M 96.2,1438.3 L 803.6,1438.3 L 803.6,1448.1 L 739.9,1448.1 L 739.9,48.4 " fill="none" stroke="url(#strokeB)" stroke-width="1.94" stroke-linecap="round" stroke-linejoin="round"/><circle cx="803.6" cy="1448.1" r="3.0" fill="#F59E0B" opacity="0.45"/><circle cx="739.9" cy="48.4" r="3.2" fill="#F59E0B" opacity="0.45"/><circle cx="803.6" cy="1438.3" r="2.6" fill="#F59E0B" opacity="0.45"/></g>
<g opacity="0.222" filter="url(#softGlow)"><path d="M 22.1,529.5 L 751.4,529.5 L 751.4,1345.7 L 115.1,1345.7 L 115.1,498.6 " fill="none" stroke="url(#strokeB)" stroke-width="2.13" stroke-linecap="round" stroke-linejoin="round"/><circle cx="22.1" cy="529.5" r="3.4" fill="#F59E0B" opacity="0.45"/><circle cx="751.4" cy="529.5" r="2.6" fill="#F59E0B" opacity="0.45"/><circle cx="115.1" cy="498.6" r="2.5" fill="#F59E0B" opacity="0.45"/></g>
<g opacity="0.222" filter="url(#softGlow)"><path d="M 10.1,1458.3 L 134.6,1458.3 L 134.6,1464.0 L 13.0,1464.0 L 13.0,1462.4 " fill="none" stroke="url(#strokeB)" stroke-width="1.33" stroke-linecap="round" stroke-linejoin="round"/><circle cx="10.1" cy="1458.3" r="2.9" fill="#F59E0B" opacity="0.45"/><circle cx="13.0" cy="1464.0" r="4.0" fill="#F59E0B" opacity="0.45"/><circle cx="134.6" cy="1464.0" r="4.0" fill="#F59E0B" opacity="0.45"/></g>
<g opacity="0.222" filter="url(#softGlow)"><path d="M 833.6,98.0 L 835.9,98.0 L 835.9,73.5 L 787.2,73.5 L 787.2,835.3 " fill="none" stroke="url(#strokeB)" stroke-width="1.25" stroke-linecap="round" stroke-linejoin="round"/><circle cx="835.9" cy="98.0" r="2.1" fill="#F59E0B" opacity="0.45"/><circle cx="833.6" cy="98.0" r="2.1" fill="#F59E0B" opacity="0.45"/><circle cx="787.2" cy="73.5" r="3.8" fill="#F59E0B" opacity="0.45"/></g>
<g opacity="0.222" filter="url(#softGlow)"><path d="M 878.7,1597.9 L 740.9,1597.9 L 740.9,1574.7 L 168.7,1574.7 L 168.7,1509.7 " fill="none" stroke="url(#strokeB)" stroke-width="1.22" stroke-linecap="round" stroke-linejoin="round"/><circle cx="878.7" cy="1597.9" r="3.8" fill="#F59E0B" opacity="0.45"/><circle cx="168.7" cy="1574.7" r="3.8" fill="#F59E0B" opacity="0.45"/><circle cx="740.9" cy="1597.9" r="4.0" fill="#F59E0B" opacity="0.45"/></g>
<g opacity="0.222" filter="url(#softGlow)"><path d="M 347.6,1438.3 L 800.4,1438.3 L 800.4,141.0 L 388.4,141.0 L 388.4,25.0 " fill="none" stroke="url(#strokeB)" stroke-width="1.96" stroke-linecap="round" stroke-linejoin="round"/><circle cx="800.4" cy="141.0" r="2.6" fill="#F59E0B" opacity="0.45"/><circle cx="388.4" cy="25.0" r="3.5" fill="#F59E0B" opacity="0.45"/><circle cx="347.6" cy="1438.3" r="2.3" fill="#F59E0B" opacity="0.45"/></g>
<g opacity="0.222" filter="url(#softGlow)"><path d="M 133.4,19.1 L 733.2,19.1 L 733.2,24.7 L 862.3,24.7 L 862.3,1454.0 " fill="none" stroke="url(#strokeB)" stroke-width="1.11" stroke-linecap="round" stroke-linejoin="round"/><circle cx="862.3" cy="24.7" r="2.4" fill="#F59E0B" opacity="0.45"/><circle cx="862.3" cy="1454.0" r="3.1" fill="#F59E0B" opacity="0.45"/><circle cx="733.2" cy="19.1" r="3.9" fill="#F59E0B" opacity="0.45"/></g>
<g opacity="0.222" filter="url(#softGlow)"><path d="M 837.2,1500.8 L 890.8,1500.8 L 890.8,24.2 L 828.8,24.2 L 828.8,140.0 " fill="none" stroke="url(#strokeB)" stroke-width="1.95" stroke-linecap="round" stroke-linejoin="round"/><circle cx="890.8" cy="1500.8" r="3.3" fill="#F59E0B" opacity="0.45"/><circle cx="828.8" cy="140.0" r="3.8" fill="#F59E0B" opacity="0.45"/><circle cx="837.2" cy="1500.8" r="2.6" fill="#F59E0B" opacity="0.45"/></g>
<g opacity="0.222" filter="url(#softGlow)"><path d="M 889.4,97.8 L 628.9,97.8 L 628.9,12.1 L 708.9,12.1 L 708.9,1599.8 " fill="none" stroke="url(#strokeB)" stroke-width="1.28" stroke-linecap="round" stroke-linejoin="round"/><circle cx="708.9" cy="1599.8" r="3.7" fill="#F59E0B" opacity="0.45"/><circle cx="708.9" cy="12.1" r="2.4" fill="#F59E0B" opacity="0.45"/><circle cx="628.9" cy="12.1" r="2.5" fill="#F59E0B" opacity="0.45"/></g>
<g opacity="0.222" filter="url(#softGlow)"><path d="M 79.9,67.7 L 808.0,67.7 L 808.0,725.7 L 21.3,725.7 L 21.3,1469.5 " fill="none" stroke="url(#strokeB)" stroke-width="1.92" stroke-linecap="round" stroke-linejoin="round"/><circle cx="79.9" cy="67.7" r="2.2" fill="#F59E0B" opacity="0.45"/><circle cx="808.0" cy="67.7" r="2.9" fill="#F59E0B" opacity="0.45"/><circle cx="21.3" cy="1469.5" r="2.8" fill="#F59E0B" opacity="0.45"/></g>
<g opacity="0.222" filter="url(#softGlow)"><path d="M 469.8,1471.1 L 93.8,1471.1 L 93.8,1460.4 L 787.4,1460.4 L 787.4,1268.7 " fill="none" stroke="url(#strokeB)" stroke-width="1.47" stroke-linecap="round" stroke-linejoin="round"/><circle cx="469.8" cy="1471.1" r="2.6" fill="#F59E0B" opacity="0.45"/><circle cx="93.8" cy="1471.1" r="3.0" fill="#F59E0B" opacity="0.45"/><circle cx="93.8" cy="1460.4" r="3.1" fill="#F59E0B" opacity="0.45"/></g>
<g opacity="0.222" filter="url(#softGlow)"><path d="M 795.6,1372.3 L 173.1,1372.3 L 173.1,72.2 L 17.5,72.2 L 17.5,1266.5 " fill="none" stroke="url(#strokeB)" stroke-width="1.70" stroke-linecap="round" stroke-linejoin="round"/><circle cx="17.5" cy="72.2" r="3.6" fill="#F59E0B" opacity="0.45"/><circle cx="17.5" cy="1266.5" r="2.8" fill="#F59E0B" opacity="0.45"/><circle cx="173.1" cy="1372.3" r="4.2" fill="#F59E0B" opacity="0.45"/></g>

<g opacity="0.866" filter="url(#hardGlow)">
  <circle cx="13.6" cy="264.4" r="34.4" fill="#0A1224" opacity="0.65"/>
  <circle cx="13.6" cy="264.4" r="34.4" fill="none" stroke="url(#strokeA)" stroke-width="2.8" opacity="0.85"/>
  <circle cx="13.6" cy="264.4" r="29.6" fill="none" stroke="#22D3EE" stroke-width="1.5" opacity="0.35"/>
  <polygon points="18.1,288.7 -5.2,280.5 -9.8,256.1 9.1,240.0 32.4,248.2 37.0,272.6" fill="none" stroke="url(#strokeB)" stroke-width="1.2" opacity="0.65"/>
  <polygon points="12.2,272.9 6.9,258.8 21.7,261.3" fill="#22D3EE" opacity="0.22" filter="url(#softGlow)"/>
</g>


<g opacity="0.642" filter="url(#hardGlow)">
  <circle cx="19.0" cy="298.6" r="16.2" fill="#0A1224" opacity="0.65"/>
  <circle cx="19.0" cy="298.6" r="16.2" fill="none" stroke="url(#strokeA)" stroke-width="2.0" opacity="0.85"/>
  <circle cx="19.0" cy="298.6" r="13.9" fill="none" stroke="#F59E0B" stroke-width="1.5" opacity="0.35"/>
  <polygon points="26.4,289.6 30.5,300.6 23.1,309.6 11.6,307.6 7.5,296.7 14.9,287.7" fill="none" stroke="url(#strokeB)" stroke-width="1.2" opacity="0.65"/>
  
</g>


<g opacity="0.606" filter="url(#hardGlow)">
  <circle cx="61.3" cy="233.2" r="13.0" fill="#0A1224" opacity="0.65"/>
  <circle cx="61.3" cy="233.2" r="13.0" fill="none" stroke="url(#strokeA)" stroke-width="2.0" opacity="0.85"/>
  <circle cx="61.3" cy="233.2" r="11.2" fill="none" stroke="#F59E0B" stroke-width="1.5" opacity="0.35"/>
  <polygon points="55.9,225.6 65.3,224.7 70.6,232.4 66.7,240.9 57.4,241.7 52.0,234.1" fill="none" stroke="url(#strokeB)" stroke-width="1.2" opacity="0.65"/>
  <polygon points="60.5,230.1 64.5,234.1 59.0,235.6" fill="#F59E0B" opacity="0.22" filter="url(#softGlow)"/>
</g>


<g opacity="0.646" filter="url(#hardGlow)">
  <circle cx="-36.7" cy="231.9" r="18.1" fill="#0A1224" opacity="0.65"/>
  <circle cx="-36.7" cy="231.9" r="18.1" fill="none" stroke="url(#strokeA)" stroke-width="2.0" opacity="0.85"/>
  <circle cx="-36.7" cy="231.9" r="15.6" fill="none" stroke="#F59E0B" stroke-width="1.5" opacity="0.35"/>
  <polygon points="-49.5,234.2 -45.1,222.0 -32.3,219.6 -23.9,229.5 -28.2,241.8 -41.1,244.2" fill="none" stroke="url(#strokeB)" stroke-width="1.2" opacity="0.65"/>
  <polygon points="-41.2,231.1 -33.8,228.4 -35.1,236.2" fill="#F59E0B" opacity="0.22" filter="url(#softGlow)"/>
</g>


<g opacity="0.735" filter="url(#hardGlow)">
  <circle cx="863.5" cy="1487.6" r="35.6" fill="#0A1224" opacity="0.65"/>
  <circle cx="863.5" cy="1487.6" r="35.6" fill="none" stroke="url(#strokeA)" stroke-width="2.9" opacity="0.85"/>
  <circle cx="863.5" cy="1487.6" r="30.7" fill="none" stroke="#22D3EE" stroke-width="1.5" opacity="0.35"/>
  <polygon points="876.6,1509.8 850.9,1510.0 837.9,1487.9 850.5,1465.5 876.2,1465.3 889.2,1487.4" fill="none" stroke="url(#strokeB)" stroke-width="1.2" opacity="0.65"/>
  <polygon points="865.2,1496.5 855.1,1484.7 870.4,1481.8" fill="#22D3EE" opacity="0.22" filter="url(#softGlow)"/>
</g>


<g opacity="0.649" filter="url(#hardGlow)">
  <circle cx="840.4" cy="1521.4" r="18.5" fill="#0A1224" opacity="0.65"/>
  <circle cx="840.4" cy="1521.4" r="18.5" fill="none" stroke="url(#strokeA)" stroke-width="2.0" opacity="0.85"/>
  <circle cx="840.4" cy="1521.4" r="15.9" fill="none" stroke="#F59E0B" stroke-width="1.5" opacity="0.35"/>
  <polygon points="827.5,1524.8 830.9,1512.0 843.8,1508.5 853.3,1518.0 849.8,1530.9 836.9,1534.3" fill="none" stroke="url(#strokeB)" stroke-width="1.2" opacity="0.65"/>
  <polygon points="835.7,1521.0 843.0,1517.6 842.3,1525.7" fill="#F59E0B" opacity="0.22" filter="url(#softGlow)"/>
</g>


<g opacity="0.435" filter="url(#hardGlow)">
  <circle cx="810.8" cy="1479.4" r="19.3" fill="#0A1224" opacity="0.65"/>
  <circle cx="810.8" cy="1479.4" r="19.3" fill="none" stroke="url(#strokeA)" stroke-width="2.0" opacity="0.85"/>
  <circle cx="810.8" cy="1479.4" r="16.6" fill="none" stroke="#F59E0B" stroke-width="1.5" opacity="0.35"/>
  <polygon points="813.6,1465.8 824.0,1475.1 821.1,1488.7 807.9,1493.0 797.5,1483.8 800.4,1470.1" fill="none" stroke="url(#strokeB)" stroke-width="1.2" opacity="0.65"/>
  <polygon points="813.3,1475.3 813.1,1483.7 805.9,1479.3" fill="#F59E0B" opacity="0.22" filter="url(#softGlow)"/>
</g>


<g opacity="0.626" filter="url(#hardGlow)">
  <circle cx="882.3" cy="1452.2" r="12.9" fill="#0A1224" opacity="0.65"/>
  <circle cx="882.3" cy="1452.2" r="12.9" fill="none" stroke="url(#strokeA)" stroke-width="2.0" opacity="0.85"/>
  <circle cx="882.3" cy="1452.2" r="11.1" fill="none" stroke="#F59E0B" stroke-width="1.5" opacity="0.35"/>
  <polygon points="875.0,1457.9 873.8,1448.7 881.1,1443.0 889.6,1446.5 890.9,1455.6 883.6,1461.3" fill="none" stroke="url(#strokeB)" stroke-width="1.2" opacity="0.65"/>
  
</g>


<g opacity="0.700" filter="url(#hardGlow)">
  <circle cx="755.8" cy="1468.2" r="37.4" fill="#0A1224" opacity="0.65"/>
  <circle cx="755.8" cy="1468.2" r="37.4" fill="none" stroke="url(#strokeA)" stroke-width="3.0" opacity="0.85"/>
  <circle cx="755.8" cy="1468.2" r="32.2" fill="none" stroke="#22D3EE" stroke-width="1.5" opacity="0.35"/>
  <polygon points="738.9,1489.1 729.2,1464.0 746.1,1443.0 772.8,1447.2 782.5,1472.4 765.5,1493.3" fill="none" stroke="url(#strokeB)" stroke-width="1.2" opacity="0.65"/>
  <polygon points="747.7,1473.0 755.6,1458.7 764.1,1472.7" fill="#22D3EE" opacity="0.22" filter="url(#softGlow)"/>
</g>


<g opacity="0.544" filter="url(#hardGlow)">
  <circle cx="792.4" cy="1461.7" r="20.6" fill="#0A1224" opacity="0.65"/>
  <circle cx="792.4" cy="1461.7" r="20.6" fill="none" stroke="url(#strokeA)" stroke-width="2.0" opacity="0.85"/>
  <circle cx="792.4" cy="1461.7" r="17.7" fill="none" stroke="#F59E0B" stroke-width="1.5" opacity="0.35"/>
  <polygon points="792.0,1476.5 779.4,1468.7 779.8,1453.9 792.8,1446.8 805.4,1454.6 805.0,1469.4" fill="none" stroke="url(#strokeB)" stroke-width="1.2" opacity="0.65"/>
  <polygon points="790.5,1466.5 789.2,1457.6 797.5,1460.9" fill="#F59E0B" opacity="0.22" filter="url(#softGlow)"/>
</g>


<g opacity="0.554" filter="url(#hardGlow)">
  <circle cx="812.6" cy="1425.9" r="18.1" fill="#0A1224" opacity="0.65"/>
  <circle cx="812.6" cy="1425.9" r="18.1" fill="none" stroke="url(#strokeA)" stroke-width="2.0" opacity="0.85"/>
  <circle cx="812.6" cy="1425.9" r="15.5" fill="none" stroke="#F59E0B" stroke-width="1.5" opacity="0.35"/>
  <polygon points="818.9,1437.4 805.8,1437.0 799.6,1425.6 806.4,1414.5 819.4,1414.8 825.7,1426.3" fill="none" stroke="url(#strokeB)" stroke-width="1.2" opacity="0.65"/>
  <polygon points="813.3,1430.4 808.4,1424.2 816.2,1423.1" fill="#F59E0B" opacity="0.22" filter="url(#softGlow)"/>
</g>


<g opacity="0.668" filter="url(#hardGlow)">
  <circle cx="793.3" cy="1459.5" r="44.2" fill="#0A1224" opacity="0.65"/>
  <circle cx="793.3" cy="1459.5" r="44.2" fill="none" stroke="url(#strokeA)" stroke-width="3.5" opacity="0.85"/>
  <circle cx="793.3" cy="1459.5" r="38.0" fill="none" stroke="#22D3EE" stroke-width="1.5" opacity="0.35"/>
  <polygon points="784.1,1490.0 762.3,1466.7 771.5,1436.3 802.5,1429.0 824.3,1452.2 815.1,1482.7" fill="none" stroke="url(#strokeB)" stroke-width="1.2" opacity="0.65"/>
  <polygon points="786.6,1468.4 788.9,1449.2 804.4,1460.8" fill="#22D3EE" opacity="0.22" filter="url(#softGlow)"/>
</g>


<g opacity="0.393" filter="url(#hardGlow)">
  <circle cx="769.9" cy="1498.0" r="20.0" fill="#0A1224" opacity="0.65"/>
  <circle cx="769.9" cy="1498.0" r="20.0" fill="none" stroke="url(#strokeA)" stroke-width="2.0" opacity="0.85"/>
  <circle cx="769.9" cy="1498.0" r="17.2" fill="none" stroke="#F59E0B" stroke-width="1.5" opacity="0.35"/>
  <polygon points="763.6,1485.0 778.0,1486.1 784.3,1499.0 776.2,1511.0 761.9,1510.0 755.6,1497.0" fill="none" stroke="url(#strokeB)" stroke-width="1.2" opacity="0.65"/>
  
</g>


<g opacity="0.368" transform="translate(111.8,738.5) rotate(7.2)" filter="url(#softGlow)">
  <rect x="-73.4" y="-58.3" width="146.8" height="116.5" rx="11.7" fill="#050A12" opacity="0.25"/>
  <rect x="-73.4" y="-58.3" width="146.8" height="116.5" rx="11.7" fill="none" stroke="url(#strokeA)" stroke-width="5.8" opacity="0.85"/>
  <rect x="-64.1" y="-49.0" width="128.1" height="97.9" rx="8.2" fill="none" stroke="#F59E0B" stroke-width="2.3" opacity="0.35"/>
</g>


<g opacity="0.406" transform="translate(72.8,42.6) rotate(5.4)" filter="url(#softGlow)">
  <rect x="-65.1" y="-59.8" width="130.3" height="119.6" rx="12.0" fill="#050A12" opacity="0.25"/>
  <rect x="-65.1" y="-59.8" width="130.3" height="119.6" rx="12.0" fill="none" stroke="url(#strokeA)" stroke-width="6.0" opacity="0.85"/>
  <rect x="-55.6" y="-50.2" width="111.1" height="100.5" rx="8.4" fill="none" stroke="#F59E0B" stroke-width="2.4" opacity="0.35"/>
</g>


<g opacity="0.407" transform="translate(838.3,1597.6) rotate(8.9)" filter="url(#softGlow)">
  <rect x="-84.1" y="-69.7" width="168.1" height="139.4" rx="13.9" fill="#050A12" opacity="0.25"/>
  <rect x="-84.1" y="-69.7" width="168.1" height="139.4" rx="13.9" fill="none" stroke="url(#strokeA)" stroke-width="7.0" opacity="0.85"/>
  <rect x="-72.9" y="-58.5" width="145.8" height="117.1" rx="9.8" fill="none" stroke="#F59E0B" stroke-width="2.8" opacity="0.35"/>
</g>


<g opacity="0.398" transform="translate(55.0,74.7) rotate(0.0)" filter="url(#softGlow)">
  <rect x="-70.0" y="-50.9" width="139.9" height="101.8" rx="10.2" fill="#050A12" opacity="0.25"/>
  <rect x="-70.0" y="-50.9" width="139.9" height="101.8" rx="10.2" fill="none" stroke="url(#strokeA)" stroke-width="5.1" opacity="0.85"/>
  <rect x="-61.8" y="-42.8" width="123.7" height="85.5" rx="7.1" fill="none" stroke="#22D3EE" stroke-width="2.0" opacity="0.35"/>
</g>


<g opacity="0.232" transform="translate(126.8,1451.3) rotate(10.7)" filter="url(#softGlow)">
  <rect x="-34.0" y="-19.6" width="68.1" height="39.2" rx="12.0" fill="none" stroke="#F59E0B" stroke-width="6.5" opacity="0.55"/>
  <rect x="-15.0" y="-9.8" width="68.1" height="39.2" rx="12.0" fill="none" stroke="url(#strokeA)" stroke-width="5.4" opacity="0.55"/>
</g>


<g opacity="0.393" transform="translate(18.4,278.8) rotate(11.8)" filter="url(#softGlow)">
  <rect x="-30.8" y="-17.7" width="61.6" height="35.5" rx="10.8" fill="none" stroke="#F59E0B" stroke-width="5.9" opacity="0.55"/>
  <rect x="-13.5" y="-8.9" width="61.6" height="35.5" rx="10.8" fill="none" stroke="url(#strokeA)" stroke-width="4.9" opacity="0.55"/>
</g>


<g opacity="0.414" transform="translate(777.2,574.1) rotate(9.0)" filter="url(#softGlow)">
  <rect x="-44.6" y="-25.7" width="89.1" height="51.3" rx="15.7" fill="none" stroke="#F59E0B" stroke-width="8.6" opacity="0.55"/>
  <rect x="-19.6" y="-12.8" width="89.1" height="51.3" rx="15.7" fill="none" stroke="url(#strokeA)" stroke-width="7.1" opacity="0.55"/>
</g>


<g opacity="0.465" transform="translate(14.1,1516.3) rotate(17.4)" filter="url(#softGlow)">
  <rect x="-37.6" y="-21.7" width="75.2" height="43.3" rx="13.2" fill="none" stroke="#F59E0B" stroke-width="7.2" opacity="0.55"/>
  <rect x="-16.5" y="-10.8" width="75.2" height="43.3" rx="13.2" fill="none" stroke="url(#strokeA)" stroke-width="6.0" opacity="0.55"/>
</g>


<g opacity="0.283" transform="translate(862.7,44.1) rotate(-7.3)" filter="url(#softGlow)">
  <rect x="-33.3" y="-19.2" width="66.6" height="38.4" rx="11.7" fill="none" stroke="#F59E0B" stroke-width="6.4" opacity="0.55"/>
  <rect x="-14.7" y="-9.6" width="66.6" height="38.4" rx="11.7" fill="none" stroke="url(#strokeA)" stroke-width="5.3" opacity="0.55"/>
</g>


<g opacity="0.444" transform="translate(198.8,66.9) rotate(-10.9)" filter="url(#softGlow)">
  <rect x="-42.3" y="-24.4" width="84.7" height="48.8" rx="14.9" fill="none" stroke="#F59E0B" stroke-width="8.1" opacity="0.55"/>
  <rect x="-18.6" y="-12.2" width="84.7" height="48.8" rx="14.9" fill="none" stroke="url(#strokeA)" stroke-width="6.8" opacity="0.55"/>
</g>


<g opacity="0.418" transform="translate(192.1,21.2) rotate(-11.7)" filter="url(#softGlow)">
  <rect x="-43.6" y="-25.1" width="87.2" height="50.2" rx="15.3" fill="none" stroke="#F59E0B" stroke-width="8.4" opacity="0.55"/>
  <rect x="-19.2" y="-12.6" width="87.2" height="50.2" rx="15.3" fill="none" stroke="url(#strokeA)" stroke-width="7.0" opacity="0.55"/>
</g>


<g opacity="0.434" transform="translate(450.6,8.0) rotate(-15.2)" filter="url(#softGlow)">
  <rect x="-43.7" y="-25.2" width="87.4" height="50.3" rx="15.4" fill="none" stroke="#F59E0B" stroke-width="8.4" opacity="0.55"/>
  <rect x="-19.2" y="-12.6" width="87.4" height="50.3" rx="15.4" fill="none" stroke="url(#strokeA)" stroke-width="7.0" opacity="0.55"/>
</g>


<g opacity="0.221" transform="translate(164.5,1505.7) rotate(-15.8)" filter="url(#softGlow)">
  <rect x="-48.1" y="-27.7" width="96.1" height="55.4" rx="16.9" fill="none" stroke="#F59E0B" stroke-width="9.2" opacity="0.55"/>
  <rect x="-21.2" y="-13.8" width="96.1" height="55.4" rx="16.9" fill="none" stroke="url(#strokeA)" stroke-width="7.7" opacity="0.55"/>
</g>


<g opacity="0.288" transform="translate(645.6,37.7) rotate(9.0)" filter="url(#softGlow)">
  <rect x="-43.7" y="-25.2" width="87.4" height="50.3" rx="15.4" fill="none" stroke="#F59E0B" stroke-width="8.4" opacity="0.55"/>
  <rect x="-19.2" y="-12.6" width="87.4" height="50.3" rx="15.4" fill="none" stroke="url(#strokeA)" stroke-width="7.0" opacity="0.55"/>
</g>


<g opacity="0.144">
  <line x1="190.7" y1="1464.6" x2="190.7" y2="1512.5" stroke="#F59E0B" stroke-width="1.97" opacity="0.45"/>
  <rect x="186.9" y="1490.0" width="7.6" height="25.8" rx="2.5" fill="#0B1020" opacity="0.55" stroke="url(#strokeA)" stroke-width="1.2"/>
</g>

<g opacity="0.144">
  <line x1="308.5" y1="1443.3" x2="308.5" y2="1517.8" stroke="#F59E0B" stroke-width="1.30" opacity="0.45"/>
  <rect x="302.7" y="1488.1" width="11.7" height="29.6" rx="3.9" fill="#0B1020" opacity="0.55" stroke="url(#strokeA)" stroke-width="1.2"/>
</g>

<g opacity="0.144">
  <line x1="684.6" y1="1430.3" x2="684.6" y2="1521.0" stroke="#F59E0B" stroke-width="1.90" opacity="0.45"/>
  <rect x="680.9" y="1484.9" width="7.4" height="36.0" rx="2.5" fill="#0B1020" opacity="0.55" stroke="url(#strokeA)" stroke-width="1.2"/>
</g>

<g opacity="0.144">
  <line x1="721.0" y1="1428.2" x2="721.0" y2="1521.6" stroke="#F59E0B" stroke-width="1.20" opacity="0.45"/>
  <rect x="716.9" y="1474.9" width="8.2" height="56.0" rx="2.7" fill="#0B1020" opacity="0.55" stroke="url(#strokeA)" stroke-width="1.2"/>
</g>

<g opacity="0.144">
  <line x1="674.9" y1="1448.4" x2="674.9" y2="1516.5" stroke="#F59E0B" stroke-width="1.07" opacity="0.45"/>
  <rect x="671.8" y="1490.5" width="6.1" height="24.7" rx="2.0" fill="#0B1020" opacity="0.55" stroke="url(#strokeA)" stroke-width="1.2"/>
</g>

<g opacity="0.144">
  <line x1="632.6" y1="1448.0" x2="632.6" y2="1516.6" stroke="#F59E0B" stroke-width="1.36" opacity="0.45"/>
  <rect x="626.6" y="1489.9" width="11.9" height="26.0" rx="4.0" fill="#0B1020" opacity="0.55" stroke="url(#strokeA)" stroke-width="1.2"/>
</g>

<g opacity="0.144">
  <line x1="543.0" y1="1463.3" x2="543.0" y2="1512.8" stroke="#F59E0B" stroke-width="1.27" opacity="0.45"/>
  <rect x="539.4" y="1490.9" width="7.2" height="24.0" rx="2.4" fill="#0B1020" opacity="0.55" stroke="url(#strokeA)" stroke-width="1.2"/>
</g>

<g opacity="0.144">
  <line x1="309.3" y1="1451.8" x2="309.3" y2="1515.7" stroke="#F59E0B" stroke-width="1.04" opacity="0.45"/>
  <rect x="305.5" y="1492.9" width="7.5" height="20.1" rx="2.5" fill="#0B1020" opacity="0.55" stroke="url(#strokeA)" stroke-width="1.2"/>
</g>

<g opacity="0.144">
  <line x1="574.1" y1="1430.9" x2="574.1" y2="1520.9" stroke="#F59E0B" stroke-width="2.19" opacity="0.45"/>
  <rect x="569.5" y="1484.7" width="9.2" height="36.5" rx="3.1" fill="#0B1020" opacity="0.55" stroke="url(#strokeA)" stroke-width="1.2"/>
</g>

<g opacity="0.144">
  <line x1="554.7" y1="1439.2" x2="554.7" y2="1518.8" stroke="#F59E0B" stroke-width="1.27" opacity="0.45"/>
  <rect x="550.4" y="1490.1" width="8.6" height="25.7" rx="2.9" fill="#0B1020" opacity="0.55" stroke="url(#strokeA)" stroke-width="1.2"/>
</g>
<circle cx="735.7" cy="1519.2" r="2.8" fill="#22D3EE" opacity="0.14" filter="url(#softGlow)"/>
<circle cx="24.5" cy="103.9" r="2.8" fill="#22D3EE" opacity="0.20" filter="url(#softGlow)"/>
<circle cx="35.0" cy="1563.4" r="2.6" fill="#22D3EE" opacity="0.22" filter="url(#softGlow)"/>
<circle cx="145.0" cy="1496.3" r="2.8" fill="#22D3EE" opacity="0.18" filter="url(#softGlow)"/>
<circle cx="730.1" cy="1585.2" r="2.8" fill="#22D3EE" opacity="0.10" filter="url(#softGlow)"/>
<circle cx="43.4" cy="1560.9" r="2.3" fill="#22D3EE" opacity="0.14" filter="url(#softGlow)"/>
<circle cx="783.0" cy="36.9" r="2.1" fill="#22D3EE" opacity="0.28" filter="url(#softGlow)"/>
<circle cx="726.3" cy="14.9" r="1.9" fill="#22D3EE" opacity="0.15" filter="url(#softGlow)"/>
<circle cx="218.1" cy="100.9" r="2.3" fill="#22D3EE" opacity="0.14" filter="url(#softGlow)"/>
<circle cx="129.0" cy="506.0" r="1.4" fill="#22D3EE" opacity="0.12" filter="url(#softGlow)"/>
<circle cx="635.9" cy="1492.4" r="2.5" fill="#22D3EE" opacity="0.23" filter="url(#softGlow)"/>
<circle cx="591.4" cy="1529.3" r="3.0" fill="#22D3EE" opacity="0.11" filter="url(#softGlow)"/>
<circle cx="850.5" cy="1575.9" r="3.0" fill="#22D3EE" opacity="0.26" filter="url(#softGlow)"/>
<circle cx="860.8" cy="1493.5" r="3.1" fill="#22D3EE" opacity="0.14" filter="url(#softGlow)"/>
<circle cx="533.2" cy="34.1" r="1.3" fill="#22D3EE" opacity="0.27" filter="url(#softGlow)"/>
<circle cx="899.9" cy="1554.1" r="2.3" fill="#22D3EE" opacity="0.24" filter="url(#softGlow)"/>
<circle cx="848.6" cy="1567.6" r="1.9" fill="#22D3EE" opacity="0.24" filter="url(#softGlow)"/>
<circle cx="166.4" cy="5.2" r="3.1" fill="#22D3EE" opacity="0.22" filter="url(#softGlow)"/>
<circle cx="773.7" cy="1120.9" r="1.4" fill="#22D3EE" opacity="0.19" filter="url(#softGlow)"/>
<circle cx="408.8" cy="1532.3" r="2.7" fill="#22D3EE" opacity="0.14" filter="url(#softGlow)"/>
<circle cx="863.0" cy="642.6" r="2.5" fill="#22D3EE" opacity="0.24" filter="url(#softGlow)"/>
<circle cx="116.1" cy="135.4" r="1.6" fill="#22D3EE" opacity="0.15" filter="url(#softGlow)"/>
</svg>