<svg xmlns="http://www.w3.org/2000/svg" width="900" height="1600" viewBox="0 0 900 1600" preserveAspectRatio="xMidYMid slice">
<defs>
  <linearGradient id="g0" x1="0" y1="0" x2="1" y2="1">
    <stop offset="0" stop-color="#0B1020"/>
    <stop offset="0.55" stop-color="#E11D48" stop-opacity="0.9"/>
    <stop offset="1" stop-color="#020617"/>
  </linearGradient>
  <radialGradient id="g1" cx="20%" cy="15%" r="70%">
    <stop offset="0" stop-color="#7C3AED" stop-opacity="0.38"/>
    <stop offset="0.6" stop-color="#7C3AED" stop-opacity="0.08"/>
    <stop offset="1" stop-color="#7C3AED" stop-opacity="0"/>
  </radialGradient>
  <radialGradient id="g2" cx="85%" cy="80%" r="75%">
    <stop offset="0" stop-color="#7C3AED" stop-opacity="0.28"/>
    <stop offset="0.65" stop-color="#7C3AED" stop-opacity="0.06"/>
    <stop offset="1" stop-color="#7C3AED" stop-opacity="0"/>
  </radialGradient>
  <filter id="softGlow" x="-30%" y="-30%" width="160%" height="160%">
    <feGaussianBlur stdDeviation="12" result="b"/>
    <feMerge>
      <feMergeNode in="b"/>
      <feMergeNode in="SourceGraphic"/>
    </feMerge>
  </filter>
  <filter id="hardGlow" x="-40%" y="-40%" width="180%" height="180%">
    <feGaussianBlur stdDeviation="6" result="b"/>
    <feColorMatrix in="b" type="matrix" values="1 0 0 0 0  0 1 0 0 0  0 0 1 0 0  0 0 0 18 -7" result="c"/>
    <feMerge>
      <feMergeNode in="c"/>
      <feMergeNode in="SourceGraphic"/>
    </feMerge>
  </filter>
  <linearGradient id="strokeA" x1="0" y1="0" x2="1" y2="0">
    <stop offset="0" stop-color="#7C3AED" stop-opacity="0.9"/>
    <stop offset="0.5" stop-color="#FFFFFF" stop-opacity="0.25"/>
    <stop offset="1" stop-color="#7C3AED" stop-opacity="0.7"/>
  </linearGradient>
  <linearGradient id="strokeB" x1="0" y1="0" x2="0" y2="1">
    <stop offset="0" stop-color="#FFFFFF" stop-opacity="0.18"/>
    <stop offset="1" stop-color="#7C3AED" stop-opacity="0.55"/>
  </linearGradient>
</defs>
<rect x="0" y="0" width="900" height="1600" fill="url(#g0)"/>
<rect x="0" y="0" width="900" height="1600" fill="url(#g1)"/>
<rect x="0" y="0" width="900" height="1600" fill="url(#g2)"/>


<defs>
  <radialGradient id="vign" cx="0.5000" cy="0.5000" r="0.85">
    <stop offset="0" stop-color="#000000" stop-opacity="0"/>
    <stop offset="0.55" stop-color="#000000" stop-opacity="0.217"/>
    <stop offset="1" stop-color="#000000" stop-opacity="0.620"/>
  </radialGradient>
</defs>
<rect x="0" y="0" width="900" height="1600" fill="url(#vign)"/>

<g opacity="0.252" filter="url(#softGlow)"><path d="M 777.8,148.7 L 162.1,148.7 L 162.1,1478.9 L 819.6,1478.9 L 819.6,1503.8 " fill="none" stroke="url(#strokeB)" stroke-width="1.15" stroke-linecap="round" stroke-linejoin="round"/><circle cx="777.8" cy="148.7" r="2.7" fill="#7C3AED" opacity="0.45"/><circle cx="162.1" cy="1478.9" r="3.6" fill="#7C3AED" opacity="0.45"/><circle cx="162.1" cy="148.7" r="3.4" fill="#7C3AED" opacity="0.45"/></g>
<g opacity="0.252" filter="url(#softGlow)"><path d="M 745.3,1339.6 L 89.3,1339.6 L 89.3,1016.4 L 136.2,1016.4 L 136.2,1452.2 " fill="none" stroke="url(#strokeB)" stroke-width="1.47" stroke-linecap="round" stroke-linejoin="round"/><circle cx="136.2" cy="1452.2" r="2.1" fill="#7C3AED" opacity="0.45"/><circle cx="745.3" cy="1339.6" r="2.9" fill="#7C3AED" opacity="0.45"/><circle cx="136.2" cy="1016.4" r="2.9" fill="#7C3AED" opacity="0.45"/></g>
<g opacity="0.252" filter="url(#softGlow)"><path d="M 556.7,1586.9 L 64.8,1586.9 L 64.8,1162.8 L 141.0,1162.8 L 141.0,1175.3 " fill="none" stroke="url(#strokeB)" stroke-width="1.22" stroke-linecap="round" stroke-linejoin="round"/><circle cx="64.8" cy="1586.9" r="4.1" fill="#7C3AED" opacity="0.45"/><circle cx="64.8" cy="1162.8" r="4.2" fill="#7C3AED" opacity="0.45"/><circle cx="556.7" cy="1586.9" r="4.0" fill="#7C3AED" opacity="0.45"/></g>
<g opacity="0.252" filter="url(#softGlow)"><path d="M 245.1,1582.6 L 675.7,1582.6 L 675.7,13.8 L 4.9,13.8 L 4.9,1506.7 " fill="none" stroke="url(#strokeB)" stroke-width="1.77" stroke-linecap="round" stroke-linejoin="round"/><circle cx="245.1" cy="1582.6" r="2.1" fill="#7C3AED" opacity="0.45"/><circle cx="675.7" cy="13.8" r="2.3" fill="#7C3AED" opacity="0.45"/><circle cx="675.7" cy="1582.6" r="2.1" fill="#7C3AED" opacity="0.45"/></g>
<g opacity="0.252" filter="url(#softGlow)"><path d="M 517.9,1422.2 L 821.4,1422.2 L 821.4,1500.5 L 829.7,1500.5 L 829.7,1574.9 " fill="none" stroke="url(#strokeB)" stroke-width="1.12" stroke-linecap="round" stroke-linejoin="round"/><circle cx="821.4" cy="1422.2" r="3.4" fill="#7C3AED" opacity="0.45"/><circle cx="829.7" cy="1500.5" r="3.5" fill="#7C3AED" opacity="0.45"/><circle cx="821.4" cy="1500.5" r="4.1" fill="#7C3AED" opacity="0.45"/></g>
<g opacity="0.252" filter="url(#softGlow)"><path d="M 178.3,1570.1 L 539.8,1570.1 L 539.8,86.5 L 737.2,86.5 L 737.2,165.6 " fill="none" stroke="url(#strokeB)" stroke-width="1.28" stroke-linecap="round" stroke-linejoin="round"/><circle cx="737.2" cy="165.6" r="3.3" fill="#7C3AED" opacity="0.45"/><circle cx="178.3" cy="1570.1" r="2.3" fill="#7C3AED" opacity="0.45"/><circle cx="539.8" cy="1570.1" r="2.0" fill="#7C3AED" opacity="0.45"/></g>
<g opacity="0.252" filter="url(#softGlow)"><path d="M 101.5,1362.4 L 135.5,1362.4 L 135.5,1472.3 L 817.3,1472.3 L 817.3,1239.1 " fill="none" stroke="url(#strokeB)" stroke-width="1.26" stroke-linecap="round" stroke-linejoin="round"/><circle cx="817.3" cy="1472.3" r="3.3" fill="#7C3AED" opacity="0.45"/><circle cx="817.3" cy="1239.1" r="3.4" fill="#7C3AED" opacity="0.45"/><circle cx="101.5" cy="1362.4" r="3.5" fill="#7C3AED" opacity="0.45"/></g>
<g opacity="0.252" filter="url(#softGlow)"><path d="M 855.3,1560.9 L 782.4,1560.9 L 782.4,276.1 L 161.1,276.1 L 161.1,1590.7 " fill="none" stroke="url(#strokeB)" stroke-width="1.79" stroke-linecap="round" stroke-linejoin="round"/><circle cx="782.4" cy="1560.9" r="2.9" fill="#7C3AED" opacity="0.45"/><circle cx="782.4" cy="276.1" r="4.1" fill="#7C3AED" opacity="0.45"/><circle cx="855.3" cy="1560.9" r="2.5" fill="#7C3AED" opacity="0.45"/></g>
<g opacity="0.252" filter="url(#softGlow)"><path d="M 898.4,1590.8 L 880.7,1590.8 L 880.7,1511.8 L 760.7,1511.8 L 760.7,1135.5 " fill="none" stroke="url(#strokeB)" stroke-width="1.36" stroke-linecap="round" stroke-linejoin="round"/><circle cx="760.7" cy="1135.5" r="2.4" fill="#7C3AED" opacity="0.45"/><circle cx="880.7" cy="1590.8" r="3.3" fill="#7C3AED" opacity="0.45"/><circle cx="898.4" cy="1590.8" r="3.1" fill="#7C3AED" opacity="0.45"/></g>
<g opacity="0.252" filter="url(#softGlow)"><path d="M 865.2,1164.6 L 94.1,1164.6 L 94.1,11.6 L 725.8,11.6 L 725.8,1551.7 " fill="none" stroke="url(#strokeB)" stroke-width="1.32" stroke-linecap="round" stroke-linejoin="round"/><circle cx="94.1" cy="11.6" r="3.2" fill="#7C3AED" opacity="0.45"/><circle cx="865.2" cy="1164.6" r="2.6" fill="#7C3AED" opacity="0.45"/><circle cx="725.8" cy="1551.7" r="2.6" fill="#7C3AED" opacity="0.45"/></g>
<g opacity="0.252" filter="url(#softGlow)"><path d="M 858.6,1551.9 L 802.1,1551.9 L 802.1,1458.3 L 791.7,1458.3 L 791.7,587.8 " fill="none" stroke="url(#strokeB)" stroke-width="1.79" stroke-linecap="round" stroke-linejoin="round"/><circle cx="858.6" cy="1551.9" r="2.8" fill="#7C3AED" opacity="0.45"/><circle cx="802.1" cy="1458.3" r="3.2" fill="#7C3AED" opacity="0.45"/><circle cx="791.7" cy="1458.3" r="3.0" fill="#7C3AED" opacity="0.45"/></g>
<g opacity="0.252" filter="url(#softGlow)"><path d="M 815.6,64.9 L 475.8,64.9 L 475.8,69.6 L 328.6,69.6 L 328.6,33.8 " fill="none" stroke="url(#strokeB)" stroke-width="1.90" stroke-linecap="round" stroke-linejoin="round"/><circle cx="475.8" cy="69.6" r="2.1" fill="#7C3AED" opacity="0.45"/><circle cx="815.6" cy="64.9" r="3.3" fill="#7C3AED" opacity="0.45"/><circle cx="475.8" cy="64.9" r="3.3" fill="#7C3AED" opacity="0.45"/></g>
<g opacity="0.252" filter="url(#softGlow)"><path d="M 128.2,123.7 L 782.4,123.7 L 782.4,105.4 L 65.3,105.4 L 65.3,145.6 " fill="none" stroke="url(#strokeB)" stroke-width="1.66" stroke-linecap="round" stroke-linejoin="round"/><circle cx="65.3" cy="145.6" r="3.1" fill="#7C3AED" opacity="0.45"/><circle cx="128.2" cy="123.7" r="3.2" fill="#7C3AED" opacity="0.45"/><circle cx="65.3" cy="105.4" r="3.3" fill="#7C3AED" opacity="0.45"/></g>
<g opacity="0.252" filter="url(#softGlow)"><path d="M 851.3,360.9 L 81.1,360.9 L 81.1,1154.3 L 822.6,1154.3 L 822.6,417.9 " fill="none" stroke="url(#strokeB)" stroke-width="1.44" stroke-linecap="round" stroke-linejoin="round"/><circle cx="81.1" cy="1154.3" r="2.4" fill="#7C3AED" opacity="0.45"/><circle cx="822.6" cy="417.9" r="3.0" fill="#7C3AED" opacity="0.45"/><circle cx="822.6" cy="1154.3" r="2.7" fill="#7C3AED" opacity="0.45"/></g>
<g opacity="0.252" filter="url(#softGlow)"><path d="M 754.7,69.0 L 737.2,69.0 L 737.2,1599.1 L 0.8,1599.1 L 0.8,1497.9 " fill="none" stroke="url(#strokeB)" stroke-width="1.68" stroke-linecap="round" stroke-linejoin="round"/><circle cx="0.8" cy="1497.9" r="2.5" fill="#7C3AED" opacity="0.45"/><circle cx="737.2" cy="1599.1" r="3.2" fill="#7C3AED" opacity="0.45"/><circle cx="754.7" cy="69.0" r="3.7" fill="#7C3AED" opacity="0.45"/></g>
<g opacity="0.252" filter="url(#softGlow)"><path d="M 810.4,1167.6 L 110.0,1167.6 L 110.0,1115.8 L 10.4,1115.8 L 10.4,1444.1 " fill="none" stroke="url(#strokeB)" stroke-width="1.26" stroke-linecap="round" stroke-linejoin="round"/><circle cx="10.4" cy="1115.8" r="3.3" fill="#7C3AED" opacity="0.45"/><circle cx="110.0" cy="1167.6" r="2.3" fill="#7C3AED" opacity="0.45"/><circle cx="10.4" cy="1444.1" r="2.2" fill="#7C3AED" opacity="0.45"/></g>
<g opacity="0.252" filter="url(#softGlow)"><path d="M 872.4,1540.2 L 88.2,1540.2 L 88.2,1497.6 L 868.6,1497.6 L 868.6,1463.2 " fill="none" stroke="url(#strokeB)" stroke-width="1.60" stroke-linecap="round" stroke-linejoin="round"/><circle cx="88.2" cy="1540.2" r="4.0" fill="#7C3AED" opacity="0.45"/><circle cx="868.6" cy="1497.6" r="3.0" fill="#7C3AED" opacity="0.45"/><circle cx="868.6" cy="1463.2" r="4.0" fill="#7C3AED" opacity="0.45"/></g>
<g opacity="0.252" filter="url(#softGlow)"><path d="M 732.8,124.5 L 48.7,124.5 L 48.7,176.4 L 375.7,176.4 L 375.7,25.6 " fill="none" stroke="url(#strokeB)" stroke-width="2.13" stroke-linecap="round" stroke-linejoin="round"/><circle cx="732.8" cy="124.5" r="2.7" fill="#7C3AED" opacity="0.45"/><circle cx="375.7" cy="25.6" r="2.9" fill="#7C3AED" opacity="0.45"/><circle cx="375.7" cy="176.4" r="2.8" fill="#7C3AED" opacity="0.45"/></g>
<g opacity="0.252" filter="url(#softGlow)"><path d="M 808.9,592.2 L 863.2,592.2 L 863.2,125.0 L 150.5,125.0 L 150.5,1521.2 " fill="none" stroke="url(#strokeB)" stroke-width="1.92" stroke-linecap="round" stroke-linejoin="round"/><circle cx="863.2" cy="592.2" r="3.4" fill="#7C3AED" opacity="0.45"/><circle cx="808.9" cy="592.2" r="2.8" fill="#7C3AED" opacity="0.45"/><circle cx="150.5" cy="1521.2" r="3.4" fill="#7C3AED" opacity="0.45"/></g>
<g opacity="0.252" filter="url(#softGlow)"><path d="M 819.0,1431.2 L 890.6,1431.2 L 890.6,1586.0 L 119.1,1586.0 L 119.1,96.4 " fill="none" stroke="url(#strokeB)" stroke-width="1.96" stroke-linecap="round" stroke-linejoin="round"/><circle cx="119.1" cy="96.4" r="2.9" fill="#7C3AED" opacity="0.45"/><circle cx="119.1" cy="1586.0" r="2.0" fill="#7C3AED" opacity="0.45"/><circle cx="890.6" cy="1586.0" r="3.6" fill="#7C3AED" opacity="0.45"/></g>
<g opacity="0.252" filter="url(#softGlow)"><path d="M 856.7,134.4 L 125.6,134.4 L 125.6,381.5 L 41.2,381.5 L 41.2,3.9 " fill="none" stroke="url(#strokeB)" stroke-width="2.10" stroke-linecap="round" stroke-linejoin="round"/><circle cx="41.2" cy="381.5" r="2.4" fill="#7C3AED" opacity="0.45"/><circle cx="125.6" cy="134.4" r="2.7" fill="#7C3AED" opacity="0.45"/><circle cx="125.6" cy="381.5" r="3.5" fill="#7C3AED" opacity="0.45"/></g>
<g opacity="0.252" filter="url(#softGlow)"><path d="M 740.2,1568.3 L 3.2,1568.3 L 3.2,1451.4 L 784.6,1451.4 L 784.6,139.3 " fill="none" stroke="url(#strokeB)" stroke-width="1.89" stroke-linecap="round" stroke-linejoin="round"/><circle cx="740.2" cy="1568.3" r="3.9" fill="#7C3AED" opacity="0.45"/><circle cx="3.2" cy="1451.4" r="2.1" fill="#7C3AED" opacity="0.45"/><circle cx="784.6" cy="1451.4" r="2.2" fill="#7C3AED" opacity="0.45"/></g>

<g opacity="0.866" filter="url(#hardGlow)">
  <circle cx="809.7" cy="1499.5" r="36.0" fill="#0A1224" opacity="0.65"/>
  <circle cx="809.7" cy="1499.5" r="36.0" fill="none" stroke="url(#strokeA)" stroke-width="2.9" opacity="0.85"/>
  <circle cx="809.7" cy="1499.5" r="31.0" fill="none" stroke="#22C55E" stroke-width="1.5" opacity="0.35"/>
  <polygon points="809.3,1525.5 787.0,1512.2 787.4,1486.3 810.0,1473.6 832.3,1486.9 831.9,1512.8" fill="none" stroke="url(#strokeB)" stroke-width="1.2" opacity="0.65"/>
  <polygon points="806.4,1508.0 803.9,1492.5 818.6,1498.1" fill="#22C55E" opacity="0.22" filter="url(#softGlow)"/>
</g>


<g opacity="0.409" filter="url(#hardGlow)">
  <circle cx="770.7" cy="1492.6" r="17.5" fill="#0A1224" opacity="0.65"/>
  <circle cx="770.7" cy="1492.6" r="17.5" fill="none" stroke="url(#strokeA)" stroke-width="2.0" opacity="0.85"/>
  <circle cx="770.7" cy="1492.6" r="15.0" fill="none" stroke="#7C3AED" stroke-width="1.5" opacity="0.35"/>
  <polygon points="778.5,1502.6 766.0,1504.3 758.3,1494.4 763.0,1482.7 775.4,1481.0 783.2,1490.9" fill="none" stroke="url(#strokeB)" stroke-width="1.2" opacity="0.65"/>
  
</g>


<g opacity="0.380" filter="url(#hardGlow)">
  <circle cx="773.6" cy="1513.0" r="17.4" fill="#0A1224" opacity="0.65"/>
  <circle cx="773.6" cy="1513.0" r="17.4" fill="none" stroke="url(#strokeA)" stroke-width="2.0" opacity="0.85"/>
  <circle cx="773.6" cy="1513.0" r="15.0" fill="none" stroke="#7C3AED" stroke-width="1.5" opacity="0.35"/>
  <polygon points="777.5,1524.9 765.2,1522.3 761.3,1510.3 769.8,1501.0 782.0,1503.6 785.9,1515.6" fill="none" stroke="url(#strokeB)" stroke-width="1.2" opacity="0.65"/>
  <polygon points="773.5,1517.3 769.9,1510.6 777.5,1510.9" fill="#7C3AED" opacity="0.22" filter="url(#softGlow)"/>
</g>


<g opacity="0.507" filter="url(#hardGlow)">
  <circle cx="779.9" cy="1463.4" r="15.6" fill="#0A1224" opacity="0.65"/>
  <circle cx="779.9" cy="1463.4" r="15.6" fill="none" stroke="url(#strokeA)" stroke-width="2.0" opacity="0.85"/>
  <circle cx="779.9" cy="1463.4" r="13.4" fill="none" stroke="#7C3AED" stroke-width="1.5" opacity="0.35"/>
  <polygon points="780.2,1474.7 770.3,1469.3 770.0,1458.1 779.5,1452.2 789.4,1457.5 789.8,1468.8" fill="none" stroke="url(#strokeB)" stroke-width="1.2" opacity="0.65"/>
  
</g>


<g opacity="0.699" filter="url(#hardGlow)">
  <circle cx="391.3" cy="1595.4" r="48.5" fill="#0A1224" opacity="0.65"/>
  <circle cx="391.3" cy="1595.4" r="48.5" fill="none" stroke="url(#strokeA)" stroke-width="3.9" opacity="0.85"/>
  <circle cx="391.3" cy="1595.4" r="41.7" fill="none" stroke="#22C55E" stroke-width="1.5" opacity="0.35"/>
  <polygon points="395.9,1630.0 363.6,1616.8 359.0,1582.2 386.6,1560.8 418.9,1574.1 423.6,1608.7" fill="none" stroke="url(#strokeB)" stroke-width="1.2" opacity="0.65"/>
  <polygon points="388.7,1607.4 382.2,1587.2 402.9,1591.7" fill="#22C55E" opacity="0.22" filter="url(#softGlow)"/>
</g>


<g opacity="0.407" filter="url(#hardGlow)">
  <circle cx="315.9" cy="1593.2" r="23.5" fill="#0A1224" opacity="0.65"/>
  <circle cx="315.9" cy="1593.2" r="23.5" fill="none" stroke="url(#strokeA)" stroke-width="2.0" opacity="0.85"/>
  <circle cx="315.9" cy="1593.2" r="20.2" fill="none" stroke="#7C3AED" stroke-width="1.5" opacity="0.35"/>
  <polygon points="301.2,1584.9 315.8,1576.3 330.5,1584.6 330.6,1601.6 316.1,1610.1 301.3,1601.8" fill="none" stroke="url(#strokeB)" stroke-width="1.2" opacity="0.65"/>
  <polygon points="312.1,1588.7 321.7,1592.1 313.9,1598.8" fill="#7C3AED" opacity="0.22" filter="url(#softGlow)"/>
</g>


<g opacity="0.550" filter="url(#hardGlow)">
  <circle cx="368.2" cy="1575.3" r="19.0" fill="#0A1224" opacity="0.65"/>
  <circle cx="368.2" cy="1575.3" r="19.0" fill="none" stroke="url(#strokeA)" stroke-width="2.0" opacity="0.85"/>
  <circle cx="368.2" cy="1575.3" r="16.3" fill="none" stroke="#7C3AED" stroke-width="1.5" opacity="0.35"/>
  <polygon points="363.7,1588.2 354.8,1577.9 359.3,1565.0 372.7,1562.4 381.6,1572.8 377.1,1585.7" fill="none" stroke="url(#strokeB)" stroke-width="1.2" opacity="0.65"/>
  <polygon points="365.2,1579.0 366.5,1570.9 372.9,1576.1" fill="#7C3AED" opacity="0.22" filter="url(#softGlow)"/>
</g>


<g opacity="0.469" filter="url(#hardGlow)">
  <circle cx="341.5" cy="1646.8" r="19.3" fill="#0A1224" opacity="0.65"/>
  <circle cx="341.5" cy="1646.8" r="19.3" fill="none" stroke="url(#strokeA)" stroke-width="2.0" opacity="0.85"/>
  <circle cx="341.5" cy="1646.8" r="16.6" fill="none" stroke="#7C3AED" stroke-width="1.5" opacity="0.35"/>
  <polygon points="327.8,1648.5 333.1,1635.7 346.9,1634.0 355.3,1645.0 350.0,1657.8 336.2,1659.6" fill="none" stroke="url(#strokeB)" stroke-width="1.2" opacity="0.65"/>
  
</g>


<g opacity="0.661" filter="url(#hardGlow)">
  <circle cx="12.0" cy="82.1" r="37.1" fill="#0A1224" opacity="0.65"/>
  <circle cx="12.0" cy="82.1" r="37.1" fill="none" stroke="url(#strokeA)" stroke-width="3.0" opacity="0.85"/>
  <circle cx="12.0" cy="82.1" r="31.9" fill="none" stroke="#22C55E" stroke-width="1.5" opacity="0.35"/>
  <polygon points="-13.7,89.5 -7.2,63.5 18.4,56.1 37.7,74.7 31.3,100.7 5.6,108.1" fill="none" stroke="url(#strokeB)" stroke-width="1.2" opacity="0.65"/>
  <polygon points="2.7,81.5 17.2,74.3 16.1,90.5" fill="#22C55E" opacity="0.22" filter="url(#softGlow)"/>
</g>


<g opacity="0.517" filter="url(#hardGlow)">
  <circle cx="39.3" cy="108.8" r="19.6" fill="#0A1224" opacity="0.65"/>
  <circle cx="39.3" cy="108.8" r="19.6" fill="none" stroke="url(#strokeA)" stroke-width="2.0" opacity="0.85"/>
  <circle cx="39.3" cy="108.8" r="16.9" fill="none" stroke="#7C3AED" stroke-width="1.5" opacity="0.35"/>
  <polygon points="40.6,94.7 52.1,102.9 50.8,117.0 37.9,122.9 26.4,114.7 27.7,100.6" fill="none" stroke="url(#strokeB)" stroke-width="1.2" opacity="0.65"/>
  <polygon points="41.4,104.3 42.1,112.9 34.3,109.2" fill="#7C3AED" opacity="0.22" filter="url(#softGlow)"/>
</g>


<g opacity="0.512" filter="url(#hardGlow)">
  <circle cx="27.6" cy="76.8" r="20.1" fill="#0A1224" opacity="0.65"/>
  <circle cx="27.6" cy="76.8" r="20.1" fill="none" stroke="url(#strokeA)" stroke-width="2.0" opacity="0.85"/>
  <circle cx="27.6" cy="76.8" r="17.3" fill="none" stroke="#7C3AED" stroke-width="1.5" opacity="0.35"/>
  <polygon points="13.7,72.8 24.1,62.8 38.0,66.7 41.6,80.7 31.2,90.8 17.2,86.9" fill="none" stroke="url(#strokeB)" stroke-width="1.2" opacity="0.65"/>
  
</g>


<g opacity="0.478" filter="url(#hardGlow)">
  <circle cx="58.7" cy="65.4" r="15.2" fill="#0A1224" opacity="0.65"/>
  <circle cx="58.7" cy="65.4" r="15.2" fill="none" stroke="url(#strokeA)" stroke-width="2.0" opacity="0.85"/>
  <circle cx="58.7" cy="65.4" r="13.0" fill="none" stroke="#7C3AED" stroke-width="1.5" opacity="0.35"/>
  <polygon points="51.3,73.4 48.1,63.0 55.5,55.0 66.1,57.4 69.4,67.8 62.0,75.8" fill="none" stroke="url(#strokeB)" stroke-width="1.2" opacity="0.65"/>
  
</g>


<g opacity="0.889" filter="url(#hardGlow)">
  <circle cx="98.6" cy="1580.3" r="50.3" fill="#0A1224" opacity="0.65"/>
  <circle cx="98.6" cy="1580.3" r="50.3" fill="none" stroke="url(#strokeA)" stroke-width="4.0" opacity="0.85"/>
  <circle cx="98.6" cy="1580.3" r="43.3" fill="none" stroke="#22C55E" stroke-width="1.5" opacity="0.35"/>
  <polygon points="105.4,1615.9 71.2,1604.0 64.4,1568.4 91.8,1544.8 126.0,1556.7 132.8,1592.3" fill="none" stroke="url(#strokeB)" stroke-width="1.3" opacity="0.65"/>
  <polygon points="96.6,1592.9 88.8,1572.3 110.4,1575.8" fill="#22C55E" opacity="0.22" filter="url(#softGlow)"/>
</g>


<g opacity="0.364" filter="url(#hardGlow)">
  <circle cx="162.0" cy="1631.9" r="19.7" fill="#0A1224" opacity="0.65"/>
  <circle cx="162.0" cy="1631.9" r="19.7" fill="none" stroke="url(#strokeA)" stroke-width="2.0" opacity="0.85"/>
  <circle cx="162.0" cy="1631.9" r="16.9" fill="none" stroke="#7C3AED" stroke-width="1.5" opacity="0.35"/>
  <polygon points="173.8,1624.0 174.8,1638.1 163.0,1646.0 150.3,1639.8 149.3,1625.7 161.1,1617.7" fill="none" stroke="url(#strokeB)" stroke-width="1.2" opacity="0.65"/>
  <polygon points="166.9,1630.7 160.7,1636.6 158.6,1628.3" fill="#7C3AED" opacity="0.22" filter="url(#softGlow)"/>
</g>


<g opacity="0.503" filter="url(#hardGlow)">
  <circle cx="107.1" cy="1613.3" r="19.0" fill="#0A1224" opacity="0.65"/>
  <circle cx="107.1" cy="1613.3" r="19.0" fill="none" stroke="url(#strokeA)" stroke-width="2.0" opacity="0.85"/>
  <circle cx="107.1" cy="1613.3" r="16.3" fill="none" stroke="#7C3AED" stroke-width="1.5" opacity="0.35"/>
  <polygon points="93.4,1614.1 99.5,1601.9 113.1,1601.0 120.7,1612.4 114.7,1624.6 101.0,1625.5" fill="none" stroke="url(#strokeB)" stroke-width="1.2" opacity="0.65"/>
  
</g>


<g opacity="0.353" filter="url(#hardGlow)">
  <circle cx="137.5" cy="1534.0" r="22.0" fill="#0A1224" opacity="0.65"/>
  <circle cx="137.5" cy="1534.0" r="22.0" fill="none" stroke="url(#strokeA)" stroke-width="2.0" opacity="0.85"/>
  <circle cx="137.5" cy="1534.0" r="18.9" fill="none" stroke="#7C3AED" stroke-width="1.5" opacity="0.35"/>
  <polygon points="153.2,1536.1 143.5,1548.7 127.8,1546.6 121.8,1531.9 131.4,1519.4 147.1,1521.5" fill="none" stroke="url(#strokeB)" stroke-width="1.2" opacity="0.65"/>
  <polygon points="142.4,1536.6 132.8,1537.0 137.2,1528.5" fill="#7C3AED" opacity="0.22" filter="url(#softGlow)"/>
</g>


<g opacity="0.325" transform="translate(27.2,1497.6) rotate(-9.5)" filter="url(#softGlow)">
  <rect x="-63.1" y="-49.7" width="126.2" height="99.4" rx="9.9" fill="#050A12" opacity="0.25"/>
  <rect x="-63.1" y="-49.7" width="126.2" height="99.4" rx="9.9" fill="none" stroke="url(#strokeA)" stroke-width="5.0" opacity="0.85"/>
  <rect x="-55.1" y="-41.8" width="110.3" height="83.5" rx="7.0" fill="none" stroke="#22C55E" stroke-width="2.0" opacity="0.35"/>
</g>


<g opacity="0.368" transform="translate(874.9,919.8) rotate(-2.1)" filter="url(#softGlow)">
  <rect x="-65.5" y="-60.7" width="131.1" height="121.4" rx="12.1" fill="#050A12" opacity="0.25"/>
  <rect x="-65.5" y="-60.7" width="131.1" height="121.4" rx="12.1" fill="none" stroke="url(#strokeA)" stroke-width="6.1" opacity="0.85"/>
  <rect x="-55.8" y="-51.0" width="111.7" height="102.0" rx="8.5" fill="none" stroke="#7C3AED" stroke-width="2.4" opacity="0.35"/>
</g>


<g opacity="0.456" transform="translate(105.4,13.7) rotate(-4.9)" filter="url(#softGlow)">
  <rect x="-70.0" y="-55.1" width="140.0" height="110.2" rx="11.0" fill="#050A12" opacity="0.25"/>
  <rect x="-70.0" y="-55.1" width="140.0" height="110.2" rx="11.0" fill="none" stroke="url(#strokeA)" stroke-width="5.5" opacity="0.85"/>
  <rect x="-61.2" y="-46.3" width="122.3" height="92.6" rx="7.7" fill="none" stroke="#22C55E" stroke-width="2.2" opacity="0.35"/>
</g>


<g opacity="0.275" transform="translate(764.9,167.3) rotate(-2.0)" filter="url(#softGlow)">
  <rect x="-35.2" y="-20.3" width="70.5" height="40.6" rx="12.4" fill="none" stroke="#22C55E" stroke-width="6.8" opacity="0.55"/>
  <rect x="-15.5" y="-10.1" width="70.5" height="40.6" rx="12.4" fill="none" stroke="url(#strokeA)" stroke-width="5.6" opacity="0.55"/>
</g>


<g opacity="0.279" transform="translate(16.7,554.3) rotate(-7.6)" filter="url(#softGlow)">
  <rect x="-28.4" y="-16.4" width="56.8" height="32.7" rx="10.0" fill="none" stroke="#22C55E" stroke-width="5.5" opacity="0.55"/>
  <rect x="-12.5" y="-8.2" width="56.8" height="32.7" rx="10.0" fill="none" stroke="url(#strokeA)" stroke-width="4.5" opacity="0.55"/>
</g>


<g opacity="0.421" transform="translate(838.5,708.5) rotate(-14.2)" filter="url(#softGlow)">
  <rect x="-46.1" y="-26.5" width="92.1" height="53.1" rx="16.2" fill="none" stroke="#22C55E" stroke-width="8.8" opacity="0.55"/>
  <rect x="-20.3" y="-13.3" width="92.1" height="53.1" rx="16.2" fill="none" stroke="url(#strokeA)" stroke-width="7.4" opacity="0.55"/>
</g>


<g opacity="0.357" transform="translate(826.9,993.6) rotate(9.7)" filter="url(#softGlow)">
  <rect x="-48.9" y="-28.2" width="97.9" height="56.4" rx="17.2" fill="none" stroke="#22C55E" stroke-width="9.4" opacity="0.55"/>
  <rect x="-21.5" y="-14.1" width="97.9" height="56.4" rx="17.2" fill="none" stroke="url(#strokeA)" stroke-width="7.8" opacity="0.55"/>
</g>


<g opacity="0.424" transform="translate(168.9,1558.3) rotate(11.8)" filter="url(#softGlow)">
  <rect x="-47.6" y="-27.4" width="95.3" height="54.9" rx="16.8" fill="none" stroke="#7C3AED" stroke-width="9.1" opacity="0.55"/>
  <rect x="-21.0" y="-13.7" width="95.3" height="54.9" rx="16.8" fill="none" stroke="url(#strokeA)" stroke-width="7.6" opacity="0.55"/>
</g>


<g opacity="0.395" transform="translate(76.1,1519.0) rotate(7.4)" filter="url(#softGlow)">
  <rect x="-31.0" y="-17.9" width="62.0" height="35.7" rx="10.9" fill="none" stroke="#7C3AED" stroke-width="6.0" opacity="0.55"/>
  <rect x="-13.6" y="-8.9" width="62.0" height="35.7" rx="10.9" fill="none" stroke="url(#strokeA)" stroke-width="5.0" opacity="0.55"/>
</g>


<g opacity="0.323" transform="translate(62.6,114.2) rotate(-16.8)" filter="url(#softGlow)">
  <rect x="-45.5" y="-26.2" width="91.0" height="52.4" rx="16.0" fill="none" stroke="#7C3AED" stroke-width="8.7" opacity="0.55"/>
  <rect x="-20.0" y="-13.1" width="91.0" height="52.4" rx="16.0" fill="none" stroke="url(#strokeA)" stroke-width="7.3" opacity="0.55"/>
</g>


<g opacity="0.332" transform="translate(899.4,1513.2) rotate(15.0)" filter="url(#softGlow)">
  <rect x="-32.3" y="-18.6" width="64.6" height="37.2" rx="11.4" fill="none" stroke="#7C3AED" stroke-width="6.2" opacity="0.55"/>
  <rect x="-14.2" y="-9.3" width="64.6" height="37.2" rx="11.4" fill="none" stroke="url(#strokeA)" stroke-width="5.2" opacity="0.55"/>
</g>


<g opacity="0.191">
  <line x1="294.3" y1="1395.1" x2="294.3" y2="1480.5" stroke="#7C3AED" stroke-width="1.19" opacity="0.45"/>
  <rect x="289.4" y="1447.6" width="9.8" height="31.8" rx="3.3" fill="#0B1020" opacity="0.55" stroke="url(#strokeA)" stroke-width="1.2"/>
</g>

<g opacity="0.191">
  <line x1="697.3" y1="1389.9" x2="697.3" y2="1481.9" stroke="#7C3AED" stroke-width="1.34" opacity="0.45"/>
  <rect x="691.9" y="1442.8" width="10.8" height="41.3" rx="3.6" fill="#0B1020" opacity="0.55" stroke="url(#strokeA)" stroke-width="1.2"/>
</g>

<g opacity="0.191">
  <line x1="145.0" y1="1376.4" x2="145.0" y2="1485.2" stroke="#7C3AED" stroke-width="1.48" opacity="0.45"/>
  <rect x="140.3" y="1436.2" width="9.4" height="54.5" rx="3.1" fill="#0B1020" opacity="0.55" stroke="url(#strokeA)" stroke-width="1.2"/>
</g>

<g opacity="0.191">
  <line x1="735.8" y1="1384.7" x2="735.8" y2="1483.1" stroke="#7C3AED" stroke-width="1.52" opacity="0.45"/>
  <rect x="731.4" y="1441.8" width="8.7" height="43.3" rx="2.9" fill="#0B1020" opacity="0.55" stroke="url(#strokeA)" stroke-width="1.2"/>
</g>

<g opacity="0.191">
  <line x1="682.5" y1="1379.6" x2="682.5" y2="1484.4" stroke="#7C3AED" stroke-width="1.82" opacity="0.45"/>
  <rect x="678.7" y="1435.9" width="7.7" height="55.1" rx="2.6" fill="#0B1020" opacity="0.55" stroke="url(#strokeA)" stroke-width="1.2"/>
</g>

<g opacity="0.191">
  <line x1="784.0" y1="1380.1" x2="784.0" y2="1484.3" stroke="#7C3AED" stroke-width="1.56" opacity="0.45"/>
  <rect x="778.1" y="1436.1" width="11.9" height="54.6" rx="4.0" fill="#0B1020" opacity="0.55" stroke="url(#strokeA)" stroke-width="1.2"/>
</g>

<g opacity="0.191">
  <line x1="547.1" y1="1390.8" x2="547.1" y2="1481.6" stroke="#7C3AED" stroke-width="1.14" opacity="0.45"/>
  <rect x="544.1" y="1444.7" width="6.0" height="37.5" rx="2.0" fill="#0B1020" opacity="0.55" stroke="url(#strokeA)" stroke-width="1.2"/>
</g>

<g opacity="0.191">
  <line x1="827.6" y1="1422.1" x2="827.6" y2="1473.8" stroke="#7C3AED" stroke-width="2.05" opacity="0.45"/>
  <rect x="823.3" y="1453.2" width="8.7" height="20.5" rx="2.9" fill="#0B1020" opacity="0.55" stroke="url(#strokeA)" stroke-width="1.2"/>
</g>

<g opacity="0.191">
  <line x1="262.3" y1="1390.0" x2="262.3" y2="1481.8" stroke="#7C3AED" stroke-width="1.14" opacity="0.45"/>
  <rect x="258.6" y="1434.6" width="7.2" height="57.8" rx="2.4" fill="#0B1020" opacity="0.55" stroke="url(#strokeA)" stroke-width="1.2"/>
</g>

<g opacity="0.191">
  <line x1="308.8" y1="1407.2" x2="308.8" y2="1477.5" stroke="#7C3AED" stroke-width="1.04" opacity="0.45"/>
  <rect x="303.8" y="1449.7" width="9.9" height="27.5" rx="3.3" fill="#0B1020" opacity="0.55" stroke="url(#strokeA)" stroke-width="1.2"/>
</g>

<g opacity="0.191">
  <line x1="525.9" y1="1417.8" x2="525.9" y2="1474.9" stroke="#7C3AED" stroke-width="2.06" opacity="0.45"/>
  <rect x="522.0" y="1452.6" width="7.7" height="21.7" rx="2.6" fill="#0B1020" opacity="0.55" stroke="url(#strokeA)" stroke-width="1.2"/>
</g>

<g opacity="0.191">
  <line x1="431.0" y1="1411.9" x2="431.0" y2="1476.4" stroke="#7C3AED" stroke-width="1.04" opacity="0.45"/>
  <rect x="426.3" y="1443.3" width="9.4" height="40.4" rx="3.1" fill="#0B1020" opacity="0.55" stroke="url(#strokeA)" stroke-width="1.2"/>
</g>

<g opacity="0.191">
  <line x1="98.6" y1="1387.8" x2="98.6" y2="1482.4" stroke="#7C3AED" stroke-width="1.64" opacity="0.45"/>
  <rect x="93.0" y="1443.4" width="11.2" height="40.2" rx="3.7" fill="#0B1020" opacity="0.55" stroke="url(#strokeA)" stroke-width="1.2"/>
</g>

<g opacity="0.191">
  <line x1="884.4" y1="1394.9" x2="884.4" y2="1480.6" stroke="#7C3AED" stroke-width="1.98" opacity="0.45"/>
  <rect x="881.1" y="1446.6" width="6.5" height="33.7" rx="2.2" fill="#0B1020" opacity="0.55" stroke="url(#strokeA)" stroke-width="1.2"/>
</g>
<circle cx="98.9" cy="83.5" r="2.5" fill="#22C55E" opacity="0.20" filter="url(#softGlow)"/>
<circle cx="888.0" cy="82.3" r="2.3" fill="#22C55E" opacity="0.20" filter="url(#softGlow)"/>
<circle cx="878.5" cy="135.8" r="3.0" fill="#22C55E" opacity="0.21" filter="url(#softGlow)"/>
<circle cx="173.4" cy="1424.3" r="1.8" fill="#22C55E" opacity="0.19" filter="url(#softGlow)"/>
<circle cx="223.4" cy="1567.0" r="1.9" fill="#22C55E" opacity="0.18" filter="url(#softGlow)"/>
<circle cx="745.9" cy="1477.6" r="2.1" fill="#22C55E" opacity="0.23" filter="url(#softGlow)"/>
<circle cx="735.3" cy="140.7" r="2.7" fill="#22C55E" opacity="0.11" filter="url(#softGlow)"/>
<circle cx="827.3" cy="16.1" r="1.6" fill="#22C55E" opacity="0.12" filter="url(#softGlow)"/>
<circle cx="17.0" cy="120.0" r="1.3" fill="#22C55E" opacity="0.13" filter="url(#softGlow)"/>
<circle cx="28.4" cy="1450.6" r="2.0" fill="#22C55E" opacity="0.18" filter="url(#softGlow)"/>
<circle cx="465.7" cy="1581.4" r="2.2" fill="#22C55E" opacity="0.22" filter="url(#softGlow)"/>
<circle cx="2.9" cy="1507.2" r="1.3" fill="#22C55E" opacity="0.16" filter="url(#softGlow)"/>
<circle cx="18.0" cy="1440.6" r="2.7" fill="#22C55E" opacity="0.15" filter="url(#softGlow)"/>
<circle cx="773.7" cy="69.2" r="2.2" fill="#22C55E" opacity="0.25" filter="url(#softGlow)"/>
<circle cx="492.7" cy="121.7" r="2.7" fill="#22C55E" opacity="0.23" filter="url(#softGlow)"/>
<circle cx="99.4" cy="134.7" r="1.4" fill="#22C55E" opacity="0.15" filter="url(#softGlow)"/>
<circle cx="780.5" cy="12.4" r="2.8" fill="#22C55E" opacity="0.20" filter="url(#softGlow)"/>
<circle cx="859.8" cy="167.9" r="2.0" fill="#22C55E" opacity="0.15" filter="url(#softGlow)"/>
<circle cx="846.8" cy="1199.8" r="2.7" fill="#22C55E" opacity="0.16" filter="url(#softGlow)"/>
<circle cx="820.4" cy="73.3" r="2.7" fill="#22C55E" opacity="0.21" filter="url(#softGlow)"/>
<circle cx="495.1" cy="83.1" r="2.1" fill="#22C55E" opacity="0.15" filter="url(#softGlow)"/>
</svg>