<svg xmlns="http://www.w3.org/2000/svg" width="900" height="1600" viewBox="0 0 900 1600" preserveAspectRatio="xMidYMid slice">
<defs>
  <linearGradient id="g0" x1="0" y1="0" x2="1" y2="1">
    <stop offset="0" stop-color="#0A0F1E"/>
    <stop offset="0.55" stop-color="#00FFA3" stop-opacity="0.9"/>
    <stop offset="1" stop-color="#050A12"/>
  </linearGradient>
  <radialGradient id="g1" cx="20%" cy="15%" r="70%">
    <stop offset="0" stop-color="#14C2FF" stop-opacity="0.38"/>
    <stop offset="0.6" stop-color="#14C2FF" stop-opacity="0.08"/>
    <stop offset="1" stop-color="#14C2FF" stop-opacity="0"/>
  </radialGradient>
  <radialGradient id="g2" cx="85%" cy="80%" r="75%">
    <stop offset="0" stop-color="#14C2FF" stop-opacity="0.28"/>
    <stop offset="0.65" stop-color="#14C2FF" stop-opacity="0.06"/>
    <stop offset="1" stop-color="#14C2FF" stop-opacity="0"/>
  </radialGradient>
  <filter id="softGlow" x="-30%" y="-30%" width="160%" height="160%">
    <feGaussianBlur stdDeviation="12" result="b"/>
    <feMerge>
      <feMergeNode in="b"/>
      <feMergeNode in="SourceGraphic"/>
    </feMerge>
  </filter>
  <filter id="hardGlow" x="-40%" y="-40%" width="180%" height="180%">
    <feGaussianBlur stdDeviation="6" result="b"/>
    <feColorMatrix in="b" type="matrix" values="1 0 0 0 0  0 1 0 0 0  0 0 1 0 0  0 0 0 18 -7" result="c"/>
    <feMerge>
      <feMergeNode in="c"/>
      <feMergeNode in="SourceGraphic"/>
    </feMerge>
  </filter>
  <linearGradient id="strokeA" x1="0" y1="0" x2="1" y2="0">
    <stop offset="0" stop-color="#14C2FF" stop-opacity="0.9"/>
    <stop offset="0.5" stop-color="#FFFFFF" stop-opacity="0.25"/>
    <stop offset="1" stop-color="#14C2FF" stop-opacity="0.7"/>
  </linearGradient>
  <linearGradient id="strokeB" x1="0" y1="0" x2="0" y2="1">
    <stop offset="0" stop-color="#FFFFFF" stop-opacity="0.18"/>
    <stop offset="1" stop-color="#14C2FF" stop-opacity="0.55"/>
  </linearGradient>
</defs>
<rect x="0" y="0" width="900" height="1600" fill="url(#g0)"/>
<rect x="0" y="0" width="900" height="1600" fill="url(#g1)"/>
<rect x="0" y="0" width="900" height="1600" fill="url(#g2)"/>


<defs>
  <radialGradient id="vign" cx="0.5000" cy="0.5000" r="0.85">
    <stop offset="0" stop-color="#000000" stop-opacity="0"/>
    <stop offset="0.55" stop-color="#000000" stop-opacity="0.217"/>
    <stop offset="1" stop-color="#000000" stop-opacity="0.620"/>
  </radialGradient>
</defs>
<rect x="0" y="0" width="900" height="1600" fill="url(#vign)"/>

<g opacity="0.278" filter="url(#softGlow)"><path d="M 468.6,1514.2 L 509.5,1514.2 L 509.5,1429.3 L 112.7,1429.3 L 112.7,128.3 " fill="none" stroke="url(#strokeB)" stroke-width="1.70" stroke-linecap="round" stroke-linejoin="round"/><circle cx="112.7" cy="128.3" r="2.8" fill="#FF4D8D" opacity="0.45"/><circle cx="509.5" cy="1514.2" r="2.3" fill="#FF4D8D" opacity="0.45"/><circle cx="468.6" cy="1514.2" r="2.1" fill="#FF4D8D" opacity="0.45"/></g>
<g opacity="0.278" filter="url(#softGlow)"><path d="M 838.4,1329.7 L 102.3,1329.7 L 102.3,1576.1 L 843.7,1576.1 L 843.7,1449.9 " fill="none" stroke="url(#strokeB)" stroke-width="1.95" stroke-linecap="round" stroke-linejoin="round"/><circle cx="102.3" cy="1576.1" r="3.3" fill="#FF4D8D" opacity="0.45"/><circle cx="843.7" cy="1449.9" r="4.0" fill="#FF4D8D" opacity="0.45"/><circle cx="838.4" cy="1329.7" r="3.2" fill="#FF4D8D" opacity="0.45"/></g>
<g opacity="0.278" filter="url(#softGlow)"><path d="M 750.1,779.7 L 785.1,779.7 L 785.1,917.4 L 79.0,917.4 L 79.0,848.8 " fill="none" stroke="url(#strokeB)" stroke-width="1.47" stroke-linecap="round" stroke-linejoin="round"/><circle cx="750.1" cy="779.7" r="3.8" fill="#FF4D8D" opacity="0.45"/><circle cx="79.0" cy="848.8" r="2.2" fill="#FF4D8D" opacity="0.45"/><circle cx="79.0" cy="917.4" r="3.2" fill="#FF4D8D" opacity="0.45"/></g>
<g opacity="0.278" filter="url(#softGlow)"><path d="M 134.1,1540.8 L 739.8,1540.8 L 739.8,109.3 L 15.5,109.3 L 15.5,93.8 " fill="none" stroke="url(#strokeB)" stroke-width="1.72" stroke-linecap="round" stroke-linejoin="round"/><circle cx="15.5" cy="93.8" r="2.8" fill="#FF4D8D" opacity="0.45"/><circle cx="739.8" cy="1540.8" r="2.6" fill="#FF4D8D" opacity="0.45"/><circle cx="134.1" cy="1540.8" r="2.3" fill="#FF4D8D" opacity="0.45"/></g>
<g opacity="0.278" filter="url(#softGlow)"><path d="M 74.0,1443.0 L 238.1,1443.0 L 238.1,132.8 L 869.0,132.8 L 869.0,1457.8 " fill="none" stroke="url(#strokeB)" stroke-width="1.89" stroke-linecap="round" stroke-linejoin="round"/><circle cx="869.0" cy="132.8" r="3.1" fill="#FF4D8D" opacity="0.45"/><circle cx="869.0" cy="1457.8" r="3.1" fill="#FF4D8D" opacity="0.45"/><circle cx="238.1" cy="1443.0" r="2.0" fill="#FF4D8D" opacity="0.45"/></g>
<g opacity="0.278" filter="url(#softGlow)"><path d="M 125.6,137.9 L 178.2,137.9 L 178.2,1423.3 L 12.2,1423.3 L 12.2,1536.3 " fill="none" stroke="url(#strokeB)" stroke-width="1.54" stroke-linecap="round" stroke-linejoin="round"/><circle cx="178.2" cy="137.9" r="2.2" fill="#FF4D8D" opacity="0.45"/><circle cx="12.2" cy="1423.3" r="2.1" fill="#FF4D8D" opacity="0.45"/><circle cx="12.2" cy="1536.3" r="3.4" fill="#FF4D8D" opacity="0.45"/></g>
<g opacity="0.278" filter="url(#softGlow)"><path d="M 136.1,133.8 L 144.9,133.8 L 144.9,1286.4 L 78.7,1286.4 L 78.7,1473.5 " fill="none" stroke="url(#strokeB)" stroke-width="1.71" stroke-linecap="round" stroke-linejoin="round"/><circle cx="144.9" cy="1286.4" r="3.6" fill="#FF4D8D" opacity="0.45"/><circle cx="78.7" cy="1286.4" r="3.7" fill="#FF4D8D" opacity="0.45"/><circle cx="136.1" cy="133.8" r="3.2" fill="#FF4D8D" opacity="0.45"/></g>
<g opacity="0.278" filter="url(#softGlow)"><path d="M 720.0,132.0 L 55.3,132.0 L 55.3,100.7 L 41.1,100.7 L 41.1,557.9 " fill="none" stroke="url(#strokeB)" stroke-width="1.17" stroke-linecap="round" stroke-linejoin="round"/><circle cx="55.3" cy="132.0" r="4.2" fill="#FF4D8D" opacity="0.45"/><circle cx="41.1" cy="100.7" r="3.6" fill="#FF4D8D" opacity="0.45"/><circle cx="720.0" cy="132.0" r="2.2" fill="#FF4D8D" opacity="0.45"/></g>
<g opacity="0.278" filter="url(#softGlow)"><path d="M 44.8,12.4 L 766.5,12.4 L 766.5,1429.3 L 171.6,1429.3 L 171.6,1568.7 " fill="none" stroke="url(#strokeB)" stroke-width="1.65" stroke-linecap="round" stroke-linejoin="round"/><circle cx="171.6" cy="1568.7" r="2.5" fill="#FF4D8D" opacity="0.45"/><circle cx="171.6" cy="1429.3" r="3.0" fill="#FF4D8D" opacity="0.45"/><circle cx="766.5" cy="1429.3" r="3.5" fill="#FF4D8D" opacity="0.45"/></g>
<g opacity="0.278" filter="url(#softGlow)"><path d="M 13.2,908.8 L 847.3,908.8 L 847.3,1536.8 L 757.8,1536.8 L 757.8,113.1 " fill="none" stroke="url(#strokeB)" stroke-width="1.68" stroke-linecap="round" stroke-linejoin="round"/><circle cx="847.3" cy="1536.8" r="2.7" fill="#FF4D8D" opacity="0.45"/><circle cx="757.8" cy="1536.8" r="4.1" fill="#FF4D8D" opacity="0.45"/><circle cx="757.8" cy="113.1" r="3.9" fill="#FF4D8D" opacity="0.45"/></g>
<g opacity="0.278" filter="url(#softGlow)"><path d="M 848.1,50.6 L 897.5,50.6 L 897.5,44.5 L 799.3,44.5 L 799.3,1468.0 " fill="none" stroke="url(#strokeB)" stroke-width="2.06" stroke-linecap="round" stroke-linejoin="round"/><circle cx="897.5" cy="50.6" r="2.5" fill="#FF4D8D" opacity="0.45"/><circle cx="848.1" cy="50.6" r="2.8" fill="#FF4D8D" opacity="0.45"/><circle cx="799.3" cy="44.5" r="2.3" fill="#FF4D8D" opacity="0.45"/></g>
<g opacity="0.278" filter="url(#softGlow)"><path d="M 814.1,31.8 L 55.6,31.8 L 55.6,83.1 L 836.1,83.1 L 836.1,149.4 " fill="none" stroke="url(#strokeB)" stroke-width="1.32" stroke-linecap="round" stroke-linejoin="round"/><circle cx="836.1" cy="149.4" r="3.0" fill="#FF4D8D" opacity="0.45"/><circle cx="814.1" cy="31.8" r="2.7" fill="#FF4D8D" opacity="0.45"/><circle cx="55.6" cy="31.8" r="2.6" fill="#FF4D8D" opacity="0.45"/></g>
<g opacity="0.278" filter="url(#softGlow)"><path d="M 724.5,1588.9 L 782.5,1588.9 L 782.5,1573.8 L 98.6,1573.8 L 98.6,1544.5 " fill="none" stroke="url(#strokeB)" stroke-width="1.92" stroke-linecap="round" stroke-linejoin="round"/><circle cx="782.5" cy="1573.8" r="2.5" fill="#FF4D8D" opacity="0.45"/><circle cx="724.5" cy="1588.9" r="2.5" fill="#FF4D8D" opacity="0.45"/><circle cx="98.6" cy="1544.5" r="4.0" fill="#FF4D8D" opacity="0.45"/></g>
<g opacity="0.278" filter="url(#softGlow)"><path d="M 23.1,1575.0 L 806.1,1575.0 L 806.1,17.4 L 763.0,17.4 L 763.0,114.5 " fill="none" stroke="url(#strokeB)" stroke-width="1.78" stroke-linecap="round" stroke-linejoin="round"/><circle cx="763.0" cy="114.5" r="3.0" fill="#FF4D8D" opacity="0.45"/><circle cx="763.0" cy="17.4" r="3.7" fill="#FF4D8D" opacity="0.45"/><circle cx="806.1" cy="1575.0" r="3.9" fill="#FF4D8D" opacity="0.45"/></g>
<g opacity="0.278" filter="url(#softGlow)"><path d="M 57.5,670.0 L 36.9,670.0 L 36.9,1544.7 L 123.9,1544.7 L 123.9,1511.8 " fill="none" stroke="url(#strokeB)" stroke-width="1.88" stroke-linecap="round" stroke-linejoin="round"/><circle cx="36.9" cy="670.0" r="2.2" fill="#FF4D8D" opacity="0.45"/><circle cx="123.9" cy="1544.7" r="2.7" fill="#FF4D8D" opacity="0.45"/><circle cx="36.9" cy="1544.7" r="3.9" fill="#FF4D8D" opacity="0.45"/></g>
<g opacity="0.278" filter="url(#softGlow)"><path d="M 787.7,1557.4 L 276.8,1557.4 L 276.8,70.7 L 159.1,70.7 L 159.1,129.8 " fill="none" stroke="url(#strokeB)" stroke-width="2.11" stroke-linecap="round" stroke-linejoin="round"/><circle cx="276.8" cy="1557.4" r="2.6" fill="#FF4D8D" opacity="0.45"/><circle cx="159.1" cy="70.7" r="3.8" fill="#FF4D8D" opacity="0.45"/><circle cx="787.7" cy="1557.4" r="2.5" fill="#FF4D8D" opacity="0.45"/></g>
<g opacity="0.278" filter="url(#softGlow)"><path d="M 741.2,138.6 L 602.0,138.6 L 602.0,1422.5 L 36.0,1422.5 L 36.0,161.3 " fill="none" stroke="url(#strokeB)" stroke-width="1.33" stroke-linecap="round" stroke-linejoin="round"/><circle cx="602.0" cy="138.6" r="2.9" fill="#FF4D8D" opacity="0.45"/><circle cx="741.2" cy="138.6" r="2.1" fill="#FF4D8D" opacity="0.45"/><circle cx="36.0" cy="161.3" r="2.3" fill="#FF4D8D" opacity="0.45"/></g>
<g opacity="0.278" filter="url(#softGlow)"><path d="M 7.0,26.1 L 862.8,26.1 L 862.8,504.6 L 839.8,504.6 L 839.8,157.4 " fill="none" stroke="url(#strokeB)" stroke-width="2.08" stroke-linecap="round" stroke-linejoin="round"/><circle cx="839.8" cy="504.6" r="3.3" fill="#FF4D8D" opacity="0.45"/><circle cx="7.0" cy="26.1" r="3.4" fill="#FF4D8D" opacity="0.45"/><circle cx="839.8" cy="157.4" r="3.0" fill="#FF4D8D" opacity="0.45"/></g>
<g opacity="0.278" filter="url(#softGlow)"><path d="M 21.5,1439.5 L 142.0,1439.5 L 142.0,112.7 L 86.0,112.7 L 86.0,1556.3 " fill="none" stroke="url(#strokeB)" stroke-width="1.94" stroke-linecap="round" stroke-linejoin="round"/><circle cx="21.5" cy="1439.5" r="4.0" fill="#FF4D8D" opacity="0.45"/><circle cx="142.0" cy="1439.5" r="3.5" fill="#FF4D8D" opacity="0.45"/><circle cx="142.0" cy="112.7" r="3.8" fill="#FF4D8D" opacity="0.45"/></g>
<g opacity="0.278" filter="url(#softGlow)"><path d="M 87.7,177.6 L 826.9,177.6 L 826.9,42.0 L 50.6,42.0 L 50.6,1533.1 " fill="none" stroke="url(#strokeB)" stroke-width="1.83" stroke-linecap="round" stroke-linejoin="round"/><circle cx="50.6" cy="42.0" r="4.2" fill="#FF4D8D" opacity="0.45"/><circle cx="87.7" cy="177.6" r="2.6" fill="#FF4D8D" opacity="0.45"/><circle cx="50.6" cy="1533.1" r="2.6" fill="#FF4D8D" opacity="0.45"/></g>

<g opacity="0.906" filter="url(#hardGlow)">
  <circle cx="805.6" cy="43.7" r="53.7" fill="#0A1224" opacity="0.65"/>
  <circle cx="805.6" cy="43.7" r="53.7" fill="none" stroke="url(#strokeA)" stroke-width="4.3" opacity="0.85"/>
  <circle cx="805.6" cy="43.7" r="46.2" fill="none" stroke="#14C2FF" stroke-width="1.6" opacity="0.35"/>
  <polygon points="842.4,31.8 834.3,69.6 797.5,81.5 768.8,55.6 776.9,17.8 813.6,5.9" fill="none" stroke="url(#strokeB)" stroke-width="1.3" opacity="0.65"/>
  <polygon points="819.1,44.2 798.4,55.2 799.2,31.8" fill="#14C2FF" opacity="0.22" filter="url(#softGlow)"/>
</g>


<g opacity="0.444" filter="url(#hardGlow)">
  <circle cx="861.5" cy="22.2" r="19.4" fill="#0A1224" opacity="0.65"/>
  <circle cx="861.5" cy="22.2" r="19.4" fill="none" stroke="url(#strokeA)" stroke-width="2.0" opacity="0.85"/>
  <circle cx="861.5" cy="22.2" r="16.7" fill="none" stroke="#FF4D8D" stroke-width="1.5" opacity="0.35"/>
  <polygon points="848.3,17.5 858.9,8.4 872.1,13.1 874.7,26.8 864.1,35.9 850.9,31.3" fill="none" stroke="url(#strokeB)" stroke-width="1.2" opacity="0.65"/>
  
</g>


<g opacity="0.396" filter="url(#hardGlow)">
  <circle cx="746.6" cy="58.8" r="25.5" fill="#0A1224" opacity="0.65"/>
  <circle cx="746.6" cy="58.8" r="25.5" fill="none" stroke="url(#strokeA)" stroke-width="2.0" opacity="0.85"/>
  <circle cx="746.6" cy="58.8" r="21.9" fill="none" stroke="#FF4D8D" stroke-width="1.5" opacity="0.35"/>
  <polygon points="745.7,40.5 762.0,48.8 763.0,67.1 747.6,77.1 731.3,68.8 730.3,50.5" fill="none" stroke="url(#strokeB)" stroke-width="1.2" opacity="0.65"/>
  
</g>


<g opacity="0.620" filter="url(#hardGlow)">
  <circle cx="881.3" cy="18.8" r="27.6" fill="#0A1224" opacity="0.65"/>
  <circle cx="881.3" cy="18.8" r="27.6" fill="none" stroke="url(#strokeA)" stroke-width="2.2" opacity="0.85"/>
  <circle cx="881.3" cy="18.8" r="23.8" fill="none" stroke="#FF4D8D" stroke-width="1.5" opacity="0.35"/>
  <polygon points="899.2,27.3 882.8,38.6 864.9,30.0 863.3,10.2 879.7,-1.1 897.7,7.5" fill="none" stroke="url(#strokeB)" stroke-width="1.2" opacity="0.65"/>
  
</g>


<g opacity="0.674" filter="url(#hardGlow)">
  <circle cx="802.0" cy="74.6" r="31.8" fill="#0A1224" opacity="0.65"/>
  <circle cx="802.0" cy="74.6" r="31.8" fill="none" stroke="url(#strokeA)" stroke-width="2.5" opacity="0.85"/>
  <circle cx="802.0" cy="74.6" r="27.3" fill="none" stroke="#14C2FF" stroke-width="1.5" opacity="0.35"/>
  <polygon points="822.9,83.8 804.5,97.4 783.6,88.2 781.1,65.5 799.5,51.9 820.4,61.1" fill="none" stroke="url(#strokeB)" stroke-width="1.2" opacity="0.65"/>
  <polygon points="807.8,80.2 794.3,76.9 803.9,66.9" fill="#14C2FF" opacity="0.22" filter="url(#softGlow)"/>
</g>


<g opacity="0.498" filter="url(#hardGlow)">
  <circle cx="841.7" cy="101.6" r="13.7" fill="#0A1224" opacity="0.65"/>
  <circle cx="841.7" cy="101.6" r="13.7" fill="none" stroke="url(#strokeA)" stroke-width="2.0" opacity="0.85"/>
  <circle cx="841.7" cy="101.6" r="11.8" fill="none" stroke="#FF4D8D" stroke-width="1.5" opacity="0.35"/>
  <polygon points="835.1,94.3 844.8,92.2 851.4,99.5 848.4,108.9 838.7,111.0 832.1,103.7" fill="none" stroke="url(#strokeB)" stroke-width="1.2" opacity="0.65"/>
  <polygon points="840.4,98.4 845.2,102.1 839.6,104.3" fill="#FF4D8D" opacity="0.22" filter="url(#softGlow)"/>
</g>


<g opacity="0.654" filter="url(#hardGlow)">
  <circle cx="881.1" cy="1583.9" r="54.8" fill="#0A1224" opacity="0.65"/>
  <circle cx="881.1" cy="1583.9" r="54.8" fill="none" stroke="url(#strokeA)" stroke-width="4.4" opacity="0.85"/>
  <circle cx="881.1" cy="1583.9" r="47.1" fill="none" stroke="#14C2FF" stroke-width="1.6" opacity="0.35"/>
  <polygon points="843.6,1596.0 851.9,1557.4 889.4,1545.3 918.7,1571.8 910.4,1610.3 872.8,1622.4" fill="none" stroke="url(#strokeB)" stroke-width="1.4" opacity="0.65"/>
  <polygon points="867.3,1583.4 888.5,1572.2 887.6,1596.1" fill="#14C2FF" opacity="0.22" filter="url(#softGlow)"/>
</g>


<g opacity="0.392" filter="url(#hardGlow)">
  <circle cx="922.8" cy="1604.1" r="25.9" fill="#0A1224" opacity="0.65"/>
  <circle cx="922.8" cy="1604.1" r="25.9" fill="none" stroke="url(#strokeA)" stroke-width="2.1" opacity="0.85"/>
  <circle cx="922.8" cy="1604.1" r="22.2" fill="none" stroke="#FF4D8D" stroke-width="1.5" opacity="0.35"/>
  <polygon points="940.9,1608.5 928.0,1622.0 910.0,1617.5 904.8,1599.7 917.7,1586.2 935.7,1590.7" fill="none" stroke="url(#strokeB)" stroke-width="1.2" opacity="0.65"/>
  <polygon points="928.3,1607.7 917.0,1607.0 923.3,1597.6" fill="#FF4D8D" opacity="0.22" filter="url(#softGlow)"/>
</g>


<g opacity="0.387" filter="url(#hardGlow)">
  <circle cx="812.4" cy="1552.4" r="20.6" fill="#0A1224" opacity="0.65"/>
  <circle cx="812.4" cy="1552.4" r="20.6" fill="none" stroke="url(#strokeA)" stroke-width="2.0" opacity="0.85"/>
  <circle cx="812.4" cy="1552.4" r="17.7" fill="none" stroke="#FF4D8D" stroke-width="1.5" opacity="0.35"/>
  <polygon points="814.1,1537.7 826.0,1546.6 824.3,1561.3 810.6,1567.2 798.7,1558.3 800.5,1543.5" fill="none" stroke="url(#strokeB)" stroke-width="1.2" opacity="0.65"/>
  
</g>


<g opacity="0.736" filter="url(#hardGlow)">
  <circle cx="530.1" cy="33.4" r="33.1" fill="#0A1224" opacity="0.65"/>
  <circle cx="530.1" cy="33.4" r="33.1" fill="none" stroke="url(#strokeA)" stroke-width="2.7" opacity="0.85"/>
  <circle cx="530.1" cy="33.4" r="28.5" fill="none" stroke="#14C2FF" stroke-width="1.5" opacity="0.35"/>
  <polygon points="553.0,26.8 547.2,50.0 524.3,56.6 507.1,40.0 512.9,16.9 535.8,10.3" fill="none" stroke="url(#strokeB)" stroke-width="1.2" opacity="0.65"/>
  <polygon points="538.4,34.0 525.4,40.3 526.4,25.9" fill="#14C2FF" opacity="0.22" filter="url(#softGlow)"/>
</g>


<g opacity="0.373" filter="url(#hardGlow)">
  <circle cx="536.8" cy="58.8" r="13.4" fill="#0A1224" opacity="0.65"/>
  <circle cx="536.8" cy="58.8" r="13.4" fill="none" stroke="url(#strokeA)" stroke-width="2.0" opacity="0.85"/>
  <circle cx="536.8" cy="58.8" r="11.5" fill="none" stroke="#FF4D8D" stroke-width="1.5" opacity="0.35"/>
  <polygon points="540.8,50.1 546.4,58.0 542.4,66.7 532.8,67.6 527.2,59.7 531.2,51.0" fill="none" stroke="url(#strokeB)" stroke-width="1.2" opacity="0.65"/>
  
</g>


<g opacity="0.842" filter="url(#hardGlow)">
  <circle cx="838.7" cy="1476.9" r="33.9" fill="#0A1224" opacity="0.65"/>
  <circle cx="838.7" cy="1476.9" r="33.9" fill="none" stroke="url(#strokeA)" stroke-width="2.7" opacity="0.85"/>
  <circle cx="838.7" cy="1476.9" r="29.2" fill="none" stroke="#14C2FF" stroke-width="1.5" opacity="0.35"/>
  <polygon points="822.4,1458.7 846.3,1453.7 862.6,1471.9 855.0,1495.2 831.1,1500.2 814.8,1481.9" fill="none" stroke="url(#strokeB)" stroke-width="1.2" opacity="0.65"/>
  <polygon points="835.5,1469.0 847.2,1478.2 833.4,1483.7" fill="#14C2FF" opacity="0.22" filter="url(#softGlow)"/>
</g>


<g opacity="0.547" filter="url(#hardGlow)">
  <circle cx="823.1" cy="1509.2" r="14.5" fill="#0A1224" opacity="0.65"/>
  <circle cx="823.1" cy="1509.2" r="14.5" fill="none" stroke="url(#strokeA)" stroke-width="2.0" opacity="0.85"/>
  <circle cx="823.1" cy="1509.2" r="12.5" fill="none" stroke="#FF4D8D" stroke-width="1.5" opacity="0.35"/>
  <polygon points="812.7,1507.7 819.2,1499.5 829.5,1501.1 833.4,1510.8 826.9,1519.0 816.6,1517.4" fill="none" stroke="url(#strokeB)" stroke-width="1.2" opacity="0.65"/>
  
</g>


<g opacity="0.540" filter="url(#hardGlow)">
  <circle cx="882.6" cy="1470.2" r="13.7" fill="#0A1224" opacity="0.65"/>
  <circle cx="882.6" cy="1470.2" r="13.7" fill="none" stroke="url(#strokeA)" stroke-width="2.0" opacity="0.85"/>
  <circle cx="882.6" cy="1470.2" r="11.8" fill="none" stroke="#FF4D8D" stroke-width="1.5" opacity="0.35"/>
  <polygon points="881.8,1480.0 873.7,1474.5 874.4,1464.7 883.3,1460.4 891.4,1465.9 890.7,1475.7" fill="none" stroke="url(#strokeB)" stroke-width="1.2" opacity="0.65"/>
  <polygon points="881.1,1473.3 880.5,1467.4 886.0,1469.8" fill="#FF4D8D" opacity="0.22" filter="url(#softGlow)"/>
</g>


<g opacity="0.577" filter="url(#hardGlow)">
  <circle cx="838.4" cy="1473.8" r="14.1" fill="#0A1224" opacity="0.65"/>
  <circle cx="838.4" cy="1473.8" r="14.1" fill="none" stroke="url(#strokeA)" stroke-width="2.0" opacity="0.85"/>
  <circle cx="838.4" cy="1473.8" r="12.1" fill="none" stroke="#FF4D8D" stroke-width="1.5" opacity="0.35"/>
  <polygon points="847.2,1478.9 838.4,1484.0 829.6,1478.9 829.7,1468.7 838.5,1463.7 847.2,1468.8" fill="none" stroke="url(#strokeB)" stroke-width="1.2" opacity="0.65"/>
  <polygon points="840.7,1476.6 834.9,1474.4 839.7,1470.5" fill="#FF4D8D" opacity="0.22" filter="url(#softGlow)"/>
</g>


<g opacity="0.305" transform="translate(752.4,18.8) rotate(2.0)" filter="url(#softGlow)">
  <rect x="-65.8" y="-46.7" width="131.6" height="93.3" rx="9.3" fill="#050A12" opacity="0.25"/>
  <rect x="-65.8" y="-46.7" width="131.6" height="93.3" rx="9.3" fill="none" stroke="url(#strokeA)" stroke-width="4.7" opacity="0.85"/>
  <rect x="-58.4" y="-39.2" width="116.7" height="78.4" rx="6.5" fill="none" stroke="#14C2FF" stroke-width="1.9" opacity="0.35"/>
</g>


<g opacity="0.339" transform="translate(18.4,728.3) rotate(8.4)" filter="url(#softGlow)">
  <rect x="-66.3" y="-50.2" width="132.7" height="100.5" rx="10.0" fill="#050A12" opacity="0.25"/>
  <rect x="-66.3" y="-50.2" width="132.7" height="100.5" rx="10.0" fill="none" stroke="url(#strokeA)" stroke-width="5.0" opacity="0.85"/>
  <rect x="-58.3" y="-42.2" width="116.6" height="84.4" rx="7.0" fill="none" stroke="#14C2FF" stroke-width="2.0" opacity="0.35"/>
</g>


<g opacity="0.409" transform="translate(109.4,68.1) rotate(-0.2)" filter="url(#softGlow)">
  <rect x="-80.4" y="-55.7" width="160.7" height="111.3" rx="11.1" fill="#050A12" opacity="0.25"/>
  <rect x="-80.4" y="-55.7" width="160.7" height="111.3" rx="11.1" fill="none" stroke="url(#strokeA)" stroke-width="5.6" opacity="0.85"/>
  <rect x="-71.5" y="-46.8" width="142.9" height="93.5" rx="7.8" fill="none" stroke="#14C2FF" stroke-width="2.2" opacity="0.35"/>
</g>


<g opacity="0.290" transform="translate(131.6,875.5) rotate(-7.9)" filter="url(#softGlow)">
  <rect x="-35.7" y="-20.6" width="71.4" height="41.1" rx="12.6" fill="none" stroke="#14C2FF" stroke-width="6.9" opacity="0.55"/>
  <rect x="-15.7" y="-10.3" width="71.4" height="41.1" rx="12.6" fill="none" stroke="url(#strokeA)" stroke-width="5.7" opacity="0.55"/>
</g>


<g opacity="0.407" transform="translate(267.3,133.8) rotate(4.9)" filter="url(#softGlow)">
  <rect x="-30.1" y="-17.3" width="60.1" height="34.6" rx="10.6" fill="none" stroke="#FF4D8D" stroke-width="5.8" opacity="0.55"/>
  <rect x="-13.2" y="-8.7" width="60.1" height="34.6" rx="10.6" fill="none" stroke="url(#strokeA)" stroke-width="4.8" opacity="0.55"/>
</g>


<g opacity="0.374" transform="translate(119.6,1576.2) rotate(-17.9)" filter="url(#softGlow)">
  <rect x="-34.9" y="-20.1" width="69.8" height="40.2" rx="12.3" fill="none" stroke="#14C2FF" stroke-width="6.7" opacity="0.55"/>
  <rect x="-15.4" y="-10.1" width="69.8" height="40.2" rx="12.3" fill="none" stroke="url(#strokeA)" stroke-width="5.6" opacity="0.55"/>
</g>


<g opacity="0.464" transform="translate(132.7,1277.1) rotate(-15.7)" filter="url(#softGlow)">
  <rect x="-35.2" y="-20.3" width="70.3" height="40.5" rx="12.4" fill="none" stroke="#FF4D8D" stroke-width="6.8" opacity="0.55"/>
  <rect x="-15.5" y="-10.1" width="70.3" height="40.5" rx="12.4" fill="none" stroke="url(#strokeA)" stroke-width="5.6" opacity="0.55"/>
</g>


<g opacity="0.303" transform="translate(135.8,1444.3) rotate(2.1)" filter="url(#softGlow)">
  <rect x="-30.7" y="-17.7" width="61.4" height="35.4" rx="10.8" fill="none" stroke="#FF4D8D" stroke-width="5.9" opacity="0.55"/>
  <rect x="-13.5" y="-8.8" width="61.4" height="35.4" rx="10.8" fill="none" stroke="url(#strokeA)" stroke-width="4.9" opacity="0.55"/>
</g>


<g opacity="0.323" transform="translate(80.7,1575.9) rotate(11.0)" filter="url(#softGlow)">
  <rect x="-44.0" y="-25.3" width="88.0" height="50.7" rx="15.5" fill="none" stroke="#FF4D8D" stroke-width="8.4" opacity="0.55"/>
  <rect x="-19.4" y="-12.7" width="88.0" height="50.7" rx="15.5" fill="none" stroke="url(#strokeA)" stroke-width="7.0" opacity="0.55"/>
</g>


<g opacity="0.164">
  <line x1="188.2" y1="1435.7" x2="188.2" y2="1488.3" stroke="#FF4D8D" stroke-width="1.89" opacity="0.45"/>
  <rect x="182.9" y="1468.0" width="10.7" height="19.6" rx="3.6" fill="#0B1020" opacity="0.55" stroke="url(#strokeA)" stroke-width="1.2"/>
</g>

<g opacity="0.164">
  <line x1="198.4" y1="1413.4" x2="198.4" y2="1493.9" stroke="#FF4D8D" stroke-width="1.69" opacity="0.45"/>
  <rect x="194.3" y="1453.1" width="8.1" height="49.4" rx="2.7" fill="#0B1020" opacity="0.55" stroke="url(#strokeA)" stroke-width="1.2"/>
</g>

<g opacity="0.164">
  <line x1="237.3" y1="1424.1" x2="237.3" y2="1491.2" stroke="#FF4D8D" stroke-width="1.06" opacity="0.45"/>
  <rect x="231.8" y="1456.3" width="11.0" height="43.0" rx="3.7" fill="#0B1020" opacity="0.55" stroke="url(#strokeA)" stroke-width="1.2"/>
</g>

<g opacity="0.164">
  <line x1="555.3" y1="1419.9" x2="555.3" y2="1492.3" stroke="#FF4D8D" stroke-width="1.10" opacity="0.45"/>
  <rect x="551.8" y="1460.0" width="7.0" height="35.6" rx="2.3" fill="#0B1020" opacity="0.55" stroke="url(#strokeA)" stroke-width="1.2"/>
</g>

<g opacity="0.164">
  <line x1="425.5" y1="1402.9" x2="425.5" y2="1496.5" stroke="#FF4D8D" stroke-width="1.63" opacity="0.45"/>
  <rect x="420.8" y="1456.2" width="9.3" height="43.2" rx="3.1" fill="#0B1020" opacity="0.55" stroke="url(#strokeA)" stroke-width="1.2"/>
</g>

<g opacity="0.164">
  <line x1="196.1" y1="1419.1" x2="196.1" y2="1492.4" stroke="#FF4D8D" stroke-width="1.23" opacity="0.45"/>
  <rect x="191.1" y="1457.4" width="10.1" height="40.8" rx="3.4" fill="#0B1020" opacity="0.55" stroke="url(#strokeA)" stroke-width="1.2"/>
</g>

<g opacity="0.164">
  <line x1="404.2" y1="1394.6" x2="404.2" y2="1498.6" stroke="#FF4D8D" stroke-width="2.04" opacity="0.45"/>
  <rect x="400.3" y="1455.7" width="7.8" height="44.1" rx="2.6" fill="#0B1020" opacity="0.55" stroke="url(#strokeA)" stroke-width="1.2"/>
</g>

<g opacity="0.164">
  <line x1="110.6" y1="1395.4" x2="110.6" y2="1498.4" stroke="#FF4D8D" stroke-width="1.12" opacity="0.45"/>
  <rect x="105.3" y="1452.3" width="10.5" height="50.9" rx="3.5" fill="#0B1020" opacity="0.55" stroke="url(#strokeA)" stroke-width="1.2"/>
</g>

<g opacity="0.164">
  <line x1="66.2" y1="1419.8" x2="66.2" y2="1492.3" stroke="#FF4D8D" stroke-width="1.89" opacity="0.45"/>
  <rect x="61.8" y="1454.8" width="8.8" height="45.9" rx="2.9" fill="#0B1020" opacity="0.55" stroke="url(#strokeA)" stroke-width="1.2"/>
</g>

<g opacity="0.164">
  <line x1="802.7" y1="1411.9" x2="802.7" y2="1494.3" stroke="#FF4D8D" stroke-width="1.26" opacity="0.45"/>
  <rect x="797.7" y="1453.0" width="10.0" height="49.6" rx="3.3" fill="#0B1020" opacity="0.55" stroke="url(#strokeA)" stroke-width="1.2"/>
</g>
<circle cx="142.0" cy="1421.8" r="1.6" fill="#14C2FF" opacity="0.13" filter="url(#softGlow)"/>
<circle cx="86.4" cy="155.8" r="2.5" fill="#14C2FF" opacity="0.24" filter="url(#softGlow)"/>
<circle cx="175.2" cy="44.7" r="2.4" fill="#14C2FF" opacity="0.14" filter="url(#softGlow)"/>
<circle cx="122.1" cy="1525.0" r="2.9" fill="#14C2FF" opacity="0.18" filter="url(#softGlow)"/>
<circle cx="766.5" cy="110.5" r="3.0" fill="#14C2FF" opacity="0.19" filter="url(#softGlow)"/>
<circle cx="5.6" cy="369.8" r="2.5" fill="#14C2FF" opacity="0.18" filter="url(#softGlow)"/>
<circle cx="12.0" cy="1423.2" r="2.0" fill="#14C2FF" opacity="0.28" filter="url(#softGlow)"/>
<circle cx="174.4" cy="140.5" r="1.6" fill="#14C2FF" opacity="0.12" filter="url(#softGlow)"/>
<circle cx="11.9" cy="327.9" r="3.0" fill="#14C2FF" opacity="0.16" filter="url(#softGlow)"/>
<circle cx="116.1" cy="101.8" r="2.7" fill="#14C2FF" opacity="0.12" filter="url(#softGlow)"/>
<circle cx="34.6" cy="40.9" r="1.7" fill="#14C2FF" opacity="0.22" filter="url(#softGlow)"/>
<circle cx="209.5" cy="12.9" r="1.9" fill="#14C2FF" opacity="0.21" filter="url(#softGlow)"/>
<circle cx="893.1" cy="1516.5" r="1.7" fill="#14C2FF" opacity="0.15" filter="url(#softGlow)"/>
<circle cx="38.1" cy="132.2" r="2.1" fill="#14C2FF" opacity="0.21" filter="url(#softGlow)"/>
<circle cx="855.8" cy="1468.1" r="2.4" fill="#14C2FF" opacity="0.19" filter="url(#softGlow)"/>
<circle cx="754.3" cy="67.6" r="2.9" fill="#14C2FF" opacity="0.19" filter="url(#softGlow)"/>
<circle cx="154.1" cy="836.4" r="1.6" fill="#14C2FF" opacity="0.28" filter="url(#softGlow)"/>
<circle cx="779.0" cy="1509.6" r="2.2" fill="#14C2FF" opacity="0.22" filter="url(#softGlow)"/>
<circle cx="13.8" cy="527.5" r="1.6" fill="#14C2FF" opacity="0.26" filter="url(#softGlow)"/>
<circle cx="870.0" cy="2.6" r="1.8" fill="#14C2FF" opacity="0.18" filter="url(#softGlow)"/>
<circle cx="780.8" cy="604.9" r="1.9" fill="#14C2FF" opacity="0.14" filter="url(#softGlow)"/>
<circle cx="25.6" cy="1510.7" r="2.6" fill="#14C2FF" opacity="0.23" filter="url(#softGlow)"/>
<circle cx="895.8" cy="1522.9" r="2.2" fill="#14C2FF" opacity="0.16" filter="url(#softGlow)"/>
<circle cx="158.4" cy="161.4" r="2.9" fill="#14C2FF" opacity="0.12" filter="url(#softGlow)"/>
<circle cx="724.9" cy="62.9" r="2.7" fill="#14C2FF" opacity="0.10" filter="url(#softGlow)"/>
<circle cx="551.6" cy="1530.2" r="1.4" fill="#14C2FF" opacity="0.12" filter="url(#softGlow)"/>
<circle cx="88.6" cy="259.0" r="2.6" fill="#14C2FF" opacity="0.17" filter="url(#softGlow)"/>
</svg>