<svg xmlns="http://www.w3.org/2000/svg" width="900" height="1600" viewBox="0 0 900 1600" preserveAspectRatio="xMidYMid slice">
<defs>
  <linearGradient id="g0" x1="0" y1="0" x2="1" y2="1">
    <stop offset="0" stop-color="#0B1020"/>
    <stop offset="0.55" stop-color="#F97316" stop-opacity="0.9"/>
    <stop offset="1" stop-color="#020617"/>
  </linearGradient>
  <radialGradient id="g1" cx="20%" cy="15%" r="70%">
    <stop offset="0" stop-color="#06B6D4" stop-opacity="0.38"/>
    <stop offset="0.6" stop-color="#06B6D4" stop-opacity="0.08"/>
    <stop offset="1" stop-color="#06B6D4" stop-opacity="0"/>
  </radialGradient>
  <radialGradient id="g2" cx="85%" cy="80%" r="75%">
    <stop offset="0" stop-color="#06B6D4" stop-opacity="0.28"/>
    <stop offset="0.65" stop-color="#06B6D4" stop-opacity="0.06"/>
    <stop offset="1" stop-color="#06B6D4" stop-opacity="0"/>
  </radialGradient>
  <filter id="softGlow" x="-30%" y="-30%" width="160%" height="160%">
    <feGaussianBlur stdDeviation="12" result="b"/>
    <feMerge>
      <feMergeNode in="b"/>
      <feMergeNode in="SourceGraphic"/>
    </feMerge>
  </filter>
  <filter id="hardGlow" x="-40%" y="-40%" width="180%" height="180%">
    <feGaussianBlur stdDeviation="6" result="b"/>
    <feColorMatrix in="b" type="matrix" values="1 0 0 0 0  0 1 0 0 0  0 0 1 0 0  0 0 0 18 -7" result="c"/>
    <feMerge>
      <feMergeNode in="c"/>
      <feMergeNode in="SourceGraphic"/>
    </feMerge>
  </filter>
  <linearGradient id="strokeA" x1="0" y1="0" x2="1" y2="0">
    <stop offset="0" stop-color="#06B6D4" stop-opacity="0.9"/>
    <stop offset="0.5" stop-color="#FFFFFF" stop-opacity="0.25"/>
    <stop offset="1" stop-color="#06B6D4" stop-opacity="0.7"/>
  </linearGradient>
  <linearGradient id="strokeB" x1="0" y1="0" x2="0" y2="1">
    <stop offset="0" stop-color="#FFFFFF" stop-opacity="0.18"/>
    <stop offset="1" stop-color="#06B6D4" stop-opacity="0.55"/>
  </linearGradient>
</defs>
<rect x="0" y="0" width="900" height="1600" fill="url(#g0)"/>
<rect x="0" y="0" width="900" height="1600" fill="url(#g1)"/>
<rect x="0" y="0" width="900" height="1600" fill="url(#g2)"/>


<defs>
  <radialGradient id="vign" cx="0.5000" cy="0.5000" r="0.85">
    <stop offset="0" stop-color="#000000" stop-opacity="0"/>
    <stop offset="0.55" stop-color="#000000" stop-opacity="0.217"/>
    <stop offset="1" stop-color="#000000" stop-opacity="0.620"/>
  </radialGradient>
</defs>
<rect x="0" y="0" width="900" height="1600" fill="url(#vign)"/>

<g opacity="0.230" filter="url(#softGlow)"><path d="M 853.8,93.2 L 635.4,93.2 L 635.4,172.9 L 63.3,172.9 L 63.3,1555.4 " fill="none" stroke="url(#strokeB)" stroke-width="1.95" stroke-linecap="round" stroke-linejoin="round"/><circle cx="853.8" cy="93.2" r="2.9" fill="#06B6D4" opacity="0.45"/><circle cx="63.3" cy="1555.4" r="2.9" fill="#06B6D4" opacity="0.45"/><circle cx="635.4" cy="93.2" r="3.3" fill="#06B6D4" opacity="0.45"/></g>
<g opacity="0.230" filter="url(#softGlow)"><path d="M 826.0,514.1 L 23.1,514.1 L 23.1,1521.2 L 653.9,1521.2 L 653.9,1520.2 " fill="none" stroke="url(#strokeB)" stroke-width="1.50" stroke-linecap="round" stroke-linejoin="round"/><circle cx="653.9" cy="1520.2" r="3.7" fill="#06B6D4" opacity="0.45"/><circle cx="23.1" cy="1521.2" r="4.1" fill="#06B6D4" opacity="0.45"/><circle cx="23.1" cy="514.1" r="2.7" fill="#06B6D4" opacity="0.45"/></g>
<g opacity="0.230" filter="url(#softGlow)"><path d="M 147.9,87.1 L 888.9,87.1 L 888.9,1509.7 L 465.3,1509.7 L 465.3,165.9 " fill="none" stroke="url(#strokeB)" stroke-width="1.55" stroke-linecap="round" stroke-linejoin="round"/><circle cx="888.9" cy="87.1" r="3.4" fill="#06B6D4" opacity="0.45"/><circle cx="465.3" cy="165.9" r="3.7" fill="#06B6D4" opacity="0.45"/><circle cx="147.9" cy="87.1" r="2.6" fill="#06B6D4" opacity="0.45"/></g>
<g opacity="0.230" filter="url(#softGlow)"><path d="M 574.4,1503.1 L 159.7,1503.1 L 159.7,1238.3 L 744.7,1238.3 L 744.7,174.3 " fill="none" stroke="url(#strokeB)" stroke-width="1.81" stroke-linecap="round" stroke-linejoin="round"/><circle cx="574.4" cy="1503.1" r="2.3" fill="#06B6D4" opacity="0.45"/><circle cx="159.7" cy="1238.3" r="3.3" fill="#06B6D4" opacity="0.45"/><circle cx="744.7" cy="1238.3" r="2.8" fill="#06B6D4" opacity="0.45"/></g>
<g opacity="0.230" filter="url(#softGlow)"><path d="M 426.0,1478.5 L 183.1,1478.5 L 183.1,145.8 L 145.9,145.8 L 145.9,1435.2 " fill="none" stroke="url(#strokeB)" stroke-width="1.62" stroke-linecap="round" stroke-linejoin="round"/><circle cx="426.0" cy="1478.5" r="2.2" fill="#06B6D4" opacity="0.45"/><circle cx="145.9" cy="1435.2" r="2.1" fill="#06B6D4" opacity="0.45"/><circle cx="145.9" cy="145.8" r="2.7" fill="#06B6D4" opacity="0.45"/></g>
<g opacity="0.230" filter="url(#softGlow)"><path d="M 127.0,662.7 L 542.8,662.7 L 542.8,159.6 L 762.3,159.6 L 762.3,153.0 " fill="none" stroke="url(#strokeB)" stroke-width="1.64" stroke-linecap="round" stroke-linejoin="round"/><circle cx="542.8" cy="159.6" r="2.3" fill="#06B6D4" opacity="0.45"/><circle cx="542.8" cy="662.7" r="2.1" fill="#06B6D4" opacity="0.45"/><circle cx="127.0" cy="662.7" r="2.1" fill="#06B6D4" opacity="0.45"/></g>
<g opacity="0.230" filter="url(#softGlow)"><path d="M 138.7,72.0 L 152.3,72.0 L 152.3,1194.2 L 159.4,1194.2 L 159.4,658.4 " fill="none" stroke="url(#strokeB)" stroke-width="1.55" stroke-linecap="round" stroke-linejoin="round"/><circle cx="152.3" cy="72.0" r="2.2" fill="#06B6D4" opacity="0.45"/><circle cx="138.7" cy="72.0" r="3.0" fill="#06B6D4" opacity="0.45"/><circle cx="159.4" cy="1194.2" r="3.7" fill="#06B6D4" opacity="0.45"/></g>
<g opacity="0.230" filter="url(#softGlow)"><path d="M 13.1,1148.6 L 413.4,1148.6 L 413.4,1483.2 L 839.5,1483.2 L 839.5,437.4 " fill="none" stroke="url(#strokeB)" stroke-width="1.41" stroke-linecap="round" stroke-linejoin="round"/><circle cx="13.1" cy="1148.6" r="2.4" fill="#06B6D4" opacity="0.45"/><circle cx="839.5" cy="437.4" r="2.5" fill="#06B6D4" opacity="0.45"/><circle cx="413.4" cy="1148.6" r="3.0" fill="#06B6D4" opacity="0.45"/></g>
<g opacity="0.230" filter="url(#softGlow)"><path d="M 759.9,1423.4 L 588.4,1423.4 L 588.4,104.7 L 24.5,104.7 L 24.5,1552.4 " fill="none" stroke="url(#strokeB)" stroke-width="2.16" stroke-linecap="round" stroke-linejoin="round"/><circle cx="24.5" cy="1552.4" r="2.4" fill="#06B6D4" opacity="0.45"/><circle cx="24.5" cy="104.7" r="3.1" fill="#06B6D4" opacity="0.45"/><circle cx="588.4" cy="1423.4" r="3.4" fill="#06B6D4" opacity="0.45"/></g>
<g opacity="0.230" filter="url(#softGlow)"><path d="M 228.7,1.2 L 156.4,1.2 L 156.4,1430.9 L 143.8,1430.9 L 143.8,3.2 " fill="none" stroke="url(#strokeB)" stroke-width="1.83" stroke-linecap="round" stroke-linejoin="round"/><circle cx="143.8" cy="1430.9" r="3.2" fill="#06B6D4" opacity="0.45"/><circle cx="156.4" cy="1430.9" r="2.3" fill="#06B6D4" opacity="0.45"/><circle cx="228.7" cy="1.2" r="2.6" fill="#06B6D4" opacity="0.45"/></g>
<g opacity="0.230" filter="url(#softGlow)"><path d="M 873.2,1503.5 L 124.1,1503.5 L 124.1,1433.3 L 747.2,1433.3 L 747.2,1482.4 " fill="none" stroke="url(#strokeB)" stroke-width="1.47" stroke-linecap="round" stroke-linejoin="round"/><circle cx="873.2" cy="1503.5" r="3.1" fill="#06B6D4" opacity="0.45"/><circle cx="124.1" cy="1433.3" r="3.0" fill="#06B6D4" opacity="0.45"/><circle cx="747.2" cy="1433.3" r="2.8" fill="#06B6D4" opacity="0.45"/></g>
<g opacity="0.230" filter="url(#softGlow)"><path d="M 224.5,84.4 L 114.6,84.4 L 114.6,11.6 L 587.7,11.6 L 587.7,1491.9 " fill="none" stroke="url(#strokeB)" stroke-width="1.17" stroke-linecap="round" stroke-linejoin="round"/><circle cx="114.6" cy="84.4" r="2.9" fill="#06B6D4" opacity="0.45"/><circle cx="587.7" cy="1491.9" r="3.7" fill="#06B6D4" opacity="0.45"/><circle cx="587.7" cy="11.6" r="2.9" fill="#06B6D4" opacity="0.45"/></g>
<g opacity="0.230" filter="url(#softGlow)"><path d="M 34.4,89.9 L 463.0,89.9 L 463.0,1574.7 L 47.6,1574.7 L 47.6,136.8 " fill="none" stroke="url(#strokeB)" stroke-width="1.37" stroke-linecap="round" stroke-linejoin="round"/><circle cx="463.0" cy="89.9" r="3.8" fill="#06B6D4" opacity="0.45"/><circle cx="47.6" cy="1574.7" r="4.0" fill="#06B6D4" opacity="0.45"/><circle cx="463.0" cy="1574.7" r="3.2" fill="#06B6D4" opacity="0.45"/></g>
<g opacity="0.230" filter="url(#softGlow)"><path d="M 149.9,378.1 L 217.5,378.1 L 217.5,1554.3 L 897.8,1554.3 L 897.8,608.6 " fill="none" stroke="url(#strokeB)" stroke-width="1.21" stroke-linecap="round" stroke-linejoin="round"/><circle cx="217.5" cy="378.1" r="3.3" fill="#06B6D4" opacity="0.45"/><circle cx="897.8" cy="1554.3" r="2.7" fill="#06B6D4" opacity="0.45"/><circle cx="149.9" cy="378.1" r="3.1" fill="#06B6D4" opacity="0.45"/></g>
<g opacity="0.230" filter="url(#softGlow)"><path d="M 899.7,91.3 L 849.1,91.3 L 849.1,307.0 L 860.7,307.0 L 860.7,1325.0 " fill="none" stroke="url(#strokeB)" stroke-width="1.81" stroke-linecap="round" stroke-linejoin="round"/><circle cx="860.7" cy="307.0" r="3.9" fill="#06B6D4" opacity="0.45"/><circle cx="849.1" cy="91.3" r="3.4" fill="#06B6D4" opacity="0.45"/><circle cx="899.7" cy="91.3" r="3.6" fill="#06B6D4" opacity="0.45"/></g>
<g opacity="0.230" filter="url(#softGlow)"><path d="M 201.5,1454.4 L 7.1,1454.4 L 7.1,95.8 L 92.9,95.8 L 92.9,150.9 " fill="none" stroke="url(#strokeB)" stroke-width="2.17" stroke-linecap="round" stroke-linejoin="round"/><circle cx="201.5" cy="1454.4" r="3.1" fill="#06B6D4" opacity="0.45"/><circle cx="92.9" cy="95.8" r="2.5" fill="#06B6D4" opacity="0.45"/><circle cx="7.1" cy="95.8" r="2.1" fill="#06B6D4" opacity="0.45"/></g>
<g opacity="0.230" filter="url(#softGlow)"><path d="M 853.3,1542.7 L 889.5,1542.7 L 889.5,1069.2 L 186.8,1069.2 L 186.8,1436.5 " fill="none" stroke="url(#strokeB)" stroke-width="1.35" stroke-linecap="round" stroke-linejoin="round"/><circle cx="186.8" cy="1436.5" r="2.6" fill="#06B6D4" opacity="0.45"/><circle cx="186.8" cy="1069.2" r="2.8" fill="#06B6D4" opacity="0.45"/><circle cx="889.5" cy="1542.7" r="2.7" fill="#06B6D4" opacity="0.45"/></g>
<g opacity="0.230" filter="url(#softGlow)"><path d="M 50.0,179.1 L 134.1,179.1 L 134.1,1062.2 L 52.9,1062.2 L 52.9,29.5 " fill="none" stroke="url(#strokeB)" stroke-width="2.12" stroke-linecap="round" stroke-linejoin="round"/><circle cx="52.9" cy="1062.2" r="3.8" fill="#06B6D4" opacity="0.45"/><circle cx="134.1" cy="179.1" r="3.6" fill="#06B6D4" opacity="0.45"/><circle cx="50.0" cy="179.1" r="3.1" fill="#06B6D4" opacity="0.45"/></g>
<g opacity="0.230" filter="url(#softGlow)"><path d="M 97.7,15.4 L 784.7,15.4 L 784.7,1476.9 L 117.6,1476.9 L 117.6,103.9 " fill="none" stroke="url(#strokeB)" stroke-width="1.16" stroke-linecap="round" stroke-linejoin="round"/><circle cx="117.6" cy="103.9" r="3.6" fill="#06B6D4" opacity="0.45"/><circle cx="784.7" cy="1476.9" r="2.6" fill="#06B6D4" opacity="0.45"/><circle cx="784.7" cy="15.4" r="3.5" fill="#06B6D4" opacity="0.45"/></g>

<g opacity="0.653" filter="url(#hardGlow)">
  <circle cx="21.7" cy="1371.6" r="34.3" fill="#0A1224" opacity="0.65"/>
  <circle cx="21.7" cy="1371.6" r="34.3" fill="none" stroke="url(#strokeA)" stroke-width="2.7" opacity="0.85"/>
  <circle cx="21.7" cy="1371.6" r="29.5" fill="none" stroke="#A3E635" stroke-width="1.5" opacity="0.35"/>
  <polygon points="46.2,1367.9 37.1,1390.9 12.7,1394.6 -2.7,1375.3 6.3,1352.3 30.7,1348.6" fill="none" stroke="url(#strokeB)" stroke-width="1.2" opacity="0.65"/>
  <polygon points="30.2,1373.3 16.0,1378.1 19.0,1363.4" fill="#A3E635" opacity="0.22" filter="url(#softGlow)"/>
</g>


<g opacity="0.483" filter="url(#hardGlow)">
  <circle cx="60.3" cy="1388.8" r="14.7" fill="#0A1224" opacity="0.65"/>
  <circle cx="60.3" cy="1388.8" r="14.7" fill="none" stroke="url(#strokeA)" stroke-width="2.0" opacity="0.85"/>
  <circle cx="60.3" cy="1388.8" r="12.6" fill="none" stroke="#06B6D4" stroke-width="1.5" opacity="0.35"/>
  <polygon points="51.3,1383.3 60.6,1378.2 69.6,1383.7 69.3,1394.2 60.1,1399.3 51.0,1393.8" fill="none" stroke="url(#strokeB)" stroke-width="1.2" opacity="0.65"/>
  <polygon points="58.0,1385.9 64.0,1388.2 59.0,1392.2" fill="#06B6D4" opacity="0.22" filter="url(#softGlow)"/>
</g>


<g opacity="0.531" filter="url(#hardGlow)">
  <circle cx="67.4" cy="1339.5" r="16.1" fill="#0A1224" opacity="0.65"/>
  <circle cx="67.4" cy="1339.5" r="16.1" fill="none" stroke="url(#strokeA)" stroke-width="2.0" opacity="0.85"/>
  <circle cx="67.4" cy="1339.5" r="13.9" fill="none" stroke="#06B6D4" stroke-width="1.5" opacity="0.35"/>
  <polygon points="60.8,1349.1 55.8,1338.6 62.4,1329.0 74.0,1329.9 79.0,1340.4 72.4,1350.0" fill="none" stroke="url(#strokeB)" stroke-width="1.2" opacity="0.65"/>
  
</g>


<g opacity="0.358" filter="url(#hardGlow)">
  <circle cx="58.1" cy="1401.4" r="14.0" fill="#0A1224" opacity="0.65"/>
  <circle cx="58.1" cy="1401.4" r="14.0" fill="none" stroke="url(#strokeA)" stroke-width="2.0" opacity="0.85"/>
  <circle cx="58.1" cy="1401.4" r="12.0" fill="none" stroke="#06B6D4" stroke-width="1.5" opacity="0.35"/>
  <polygon points="62.5,1410.5 52.5,1409.7 48.1,1400.7 53.8,1392.3 63.8,1393.1 68.2,1402.1" fill="none" stroke="url(#strokeB)" stroke-width="1.2" opacity="0.65"/>
  <polygon points="58.5,1404.9 54.9,1400.0 61.0,1399.3" fill="#06B6D4" opacity="0.22" filter="url(#softGlow)"/>
</g>


<g opacity="0.704" filter="url(#hardGlow)">
  <circle cx="779.3" cy="3.4" r="37.0" fill="#0A1224" opacity="0.65"/>
  <circle cx="779.3" cy="3.4" r="37.0" fill="none" stroke="url(#strokeA)" stroke-width="3.0" opacity="0.85"/>
  <circle cx="779.3" cy="3.4" r="31.9" fill="none" stroke="#A3E635" stroke-width="1.5" opacity="0.35"/>
  <polygon points="780.3,30.1 756.7,17.7 755.6,-9.0 778.2,-23.2 801.8,-10.8 802.9,15.8" fill="none" stroke="url(#strokeB)" stroke-width="1.2" opacity="0.65"/>
  <polygon points="776.4,12.3 773.0,-3.5 788.4,1.4" fill="#A3E635" opacity="0.22" filter="url(#softGlow)"/>
</g>


<g opacity="0.626" filter="url(#hardGlow)">
  <circle cx="741.5" cy="12.0" r="19.0" fill="#0A1224" opacity="0.65"/>
  <circle cx="741.5" cy="12.0" r="19.0" fill="none" stroke="url(#strokeA)" stroke-width="2.0" opacity="0.85"/>
  <circle cx="741.5" cy="12.0" r="16.4" fill="none" stroke="#06B6D4" stroke-width="1.5" opacity="0.35"/>
  <polygon points="749.0,23.5 735.3,24.2 727.8,12.8 734.0,0.5 747.7,-0.2 755.2,11.2" fill="none" stroke="url(#strokeB)" stroke-width="1.2" opacity="0.65"/>
  <polygon points="742.6,16.7 736.9,10.6 745.0,8.7" fill="#06B6D4" opacity="0.22" filter="url(#softGlow)"/>
</g>


<g opacity="0.393" filter="url(#hardGlow)">
  <circle cx="723.3" cy="-31.4" r="16.5" fill="#0A1224" opacity="0.65"/>
  <circle cx="723.3" cy="-31.4" r="16.5" fill="none" stroke="url(#strokeA)" stroke-width="2.0" opacity="0.85"/>
  <circle cx="723.3" cy="-31.4" r="14.2" fill="none" stroke="#06B6D4" stroke-width="1.5" opacity="0.35"/>
  <polygon points="711.8,-28.4 714.9,-39.8 726.4,-42.8 734.7,-34.4 731.6,-23.0 720.2,-19.9" fill="none" stroke="url(#strokeB)" stroke-width="1.2" opacity="0.65"/>
  
</g>


<g opacity="0.719" filter="url(#hardGlow)">
  <circle cx="780.3" cy="706.7" r="39.3" fill="#0A1224" opacity="0.65"/>
  <circle cx="780.3" cy="706.7" r="39.3" fill="none" stroke="url(#strokeA)" stroke-width="3.1" opacity="0.85"/>
  <circle cx="780.3" cy="706.7" r="33.8" fill="none" stroke="#A3E635" stroke-width="1.5" opacity="0.35"/>
  <polygon points="765.7,682.5 793.9,681.9 808.6,706.1 795.0,730.8 766.7,731.4 752.1,707.3" fill="none" stroke="url(#strokeB)" stroke-width="1.2" opacity="0.65"/>
  <polygon points="778.4,697.0 789.7,709.9 772.9,713.2" fill="#A3E635" opacity="0.22" filter="url(#softGlow)"/>
</g>


<g opacity="0.530" filter="url(#hardGlow)">
  <circle cx="803.6" cy="688.9" r="15.9" fill="#0A1224" opacity="0.65"/>
  <circle cx="803.6" cy="688.9" r="15.9" fill="none" stroke="url(#strokeA)" stroke-width="2.0" opacity="0.85"/>
  <circle cx="803.6" cy="688.9" r="13.6" fill="none" stroke="#06B6D4" stroke-width="1.5" opacity="0.35"/>
  <polygon points="806.6,677.9 814.6,686.0 811.6,697.0 800.6,699.9 792.5,691.8 795.5,680.8" fill="none" stroke="url(#strokeB)" stroke-width="1.2" opacity="0.65"/>
  
</g>


<g opacity="0.704" filter="url(#hardGlow)">
  <circle cx="779.5" cy="70.8" r="49.9" fill="#0A1224" opacity="0.65"/>
  <circle cx="779.5" cy="70.8" r="49.9" fill="none" stroke="url(#strokeA)" stroke-width="4.0" opacity="0.85"/>
  <circle cx="779.5" cy="70.8" r="42.9" fill="none" stroke="#A3E635" stroke-width="1.5" opacity="0.35"/>
  <polygon points="767.4,37.1 802.7,43.4 814.9,77.2 791.7,104.6 756.3,98.2 744.2,64.4" fill="none" stroke="url(#strokeB)" stroke-width="1.2" opacity="0.65"/>
  <polygon points="779.6,58.3 790.4,77.2 768.6,77.1" fill="#A3E635" opacity="0.22" filter="url(#softGlow)"/>
</g>


<g opacity="0.425" filter="url(#hardGlow)">
  <circle cx="803.7" cy="64.4" r="18.8" fill="#0A1224" opacity="0.65"/>
  <circle cx="803.7" cy="64.4" r="18.8" fill="none" stroke="url(#strokeA)" stroke-width="2.0" opacity="0.85"/>
  <circle cx="803.7" cy="64.4" r="16.2" fill="none" stroke="#06B6D4" stroke-width="1.5" opacity="0.35"/>
  <polygon points="792.3,57.2 804.2,50.9 815.7,58.1 815.2,71.6 803.3,77.9 791.8,70.7" fill="none" stroke="url(#strokeB)" stroke-width="1.2" opacity="0.65"/>
  <polygon points="800.8,60.7 808.4,63.8 802.0,68.8" fill="#06B6D4" opacity="0.22" filter="url(#softGlow)"/>
</g>


<g opacity="0.558" filter="url(#hardGlow)">
  <circle cx="719.6" cy="26.2" r="25.6" fill="#0A1224" opacity="0.65"/>
  <circle cx="719.6" cy="26.2" r="25.6" fill="none" stroke="url(#strokeA)" stroke-width="2.0" opacity="0.85"/>
  <circle cx="719.6" cy="26.2" r="22.0" fill="none" stroke="#06B6D4" stroke-width="1.5" opacity="0.35"/>
  <polygon points="728.4,10.0 738.1,25.7 729.3,41.9 710.8,42.4 701.2,26.6 710.0,10.4" fill="none" stroke="url(#strokeB)" stroke-width="1.2" opacity="0.65"/>
  <polygon points="724.5,21.9 720.9,32.5 713.5,24.1" fill="#06B6D4" opacity="0.22" filter="url(#softGlow)"/>
</g>


<g opacity="0.602" filter="url(#hardGlow)">
  <circle cx="711.8" cy="15.1" r="22.2" fill="#0A1224" opacity="0.65"/>
  <circle cx="711.8" cy="15.1" r="22.2" fill="none" stroke="url(#strokeA)" stroke-width="2.0" opacity="0.85"/>
  <circle cx="711.8" cy="15.1" r="19.1" fill="none" stroke="#06B6D4" stroke-width="1.5" opacity="0.35"/>
  <polygon points="720.6,28.4 704.7,29.4 695.9,16.1 703.0,1.8 718.9,0.8 727.8,14.1" fill="none" stroke="url(#strokeB)" stroke-width="1.2" opacity="0.65"/>
  <polygon points="713.1,20.5 706.4,13.5 715.9,11.2" fill="#06B6D4" opacity="0.22" filter="url(#softGlow)"/>
</g>


<g opacity="0.686" filter="url(#hardGlow)">
  <circle cx="100.3" cy="1565.6" r="45.1" fill="#0A1224" opacity="0.65"/>
  <circle cx="100.3" cy="1565.6" r="45.1" fill="none" stroke="url(#strokeA)" stroke-width="3.6" opacity="0.85"/>
  <circle cx="100.3" cy="1565.6" r="38.8" fill="none" stroke="#A3E635" stroke-width="1.5" opacity="0.35"/>
  <polygon points="80.9,1591.6 68.0,1561.8 87.4,1535.8 119.7,1539.6 132.5,1569.4 113.1,1595.4" fill="none" stroke="url(#strokeB)" stroke-width="1.2" opacity="0.65"/>
  <polygon points="90.8,1571.8 99.6,1554.2 110.4,1570.7" fill="#A3E635" opacity="0.22" filter="url(#softGlow)"/>
</g>


<g opacity="0.547" filter="url(#hardGlow)">
  <circle cx="59.8" cy="1516.5" r="16.1" fill="#0A1224" opacity="0.65"/>
  <circle cx="59.8" cy="1516.5" r="16.1" fill="none" stroke="url(#strokeA)" stroke-width="2.0" opacity="0.85"/>
  <circle cx="59.8" cy="1516.5" r="13.9" fill="none" stroke="#06B6D4" stroke-width="1.5" opacity="0.35"/>
  <polygon points="59.2,1528.1 49.5,1521.9 50.0,1510.3 60.4,1504.9 70.1,1511.2 69.6,1522.8" fill="none" stroke="url(#strokeB)" stroke-width="1.2" opacity="0.65"/>
  <polygon points="58.2,1520.3 57.3,1513.3 63.8,1516.0" fill="#06B6D4" opacity="0.22" filter="url(#softGlow)"/>
</g>


<g opacity="0.494" filter="url(#hardGlow)">
  <circle cx="118.8" cy="1605.3" r="23.7" fill="#0A1224" opacity="0.65"/>
  <circle cx="118.8" cy="1605.3" r="23.7" fill="none" stroke="url(#strokeA)" stroke-width="2.0" opacity="0.85"/>
  <circle cx="118.8" cy="1605.3" r="20.4" fill="none" stroke="#06B6D4" stroke-width="1.5" opacity="0.35"/>
  <polygon points="112.9,1589.3 129.7,1592.2 135.6,1608.2 124.6,1621.4 107.8,1618.4 101.9,1602.4" fill="none" stroke="url(#strokeB)" stroke-width="1.2" opacity="0.65"/>
  
</g>


<g opacity="0.450" transform="translate(124.2,22.8) rotate(3.8)" filter="url(#softGlow)">
  <rect x="-72.6" y="-51.5" width="145.3" height="103.0" rx="10.3" fill="#050A12" opacity="0.25"/>
  <rect x="-72.6" y="-51.5" width="145.3" height="103.0" rx="10.3" fill="none" stroke="url(#strokeA)" stroke-width="5.2" opacity="0.85"/>
  <rect x="-64.4" y="-43.3" width="128.8" height="86.5" rx="7.2" fill="none" stroke="#A3E635" stroke-width="2.1" opacity="0.35"/>
</g>


<g opacity="0.306" transform="translate(593.1,1522.3) rotate(-9.7)" filter="url(#softGlow)">
  <rect x="-75.9" y="-64.2" width="151.9" height="128.4" rx="12.8" fill="#050A12" opacity="0.25"/>
  <rect x="-75.9" y="-64.2" width="151.9" height="128.4" rx="12.8" fill="none" stroke="url(#strokeA)" stroke-width="6.4" opacity="0.85"/>
  <rect x="-65.7" y="-53.9" width="131.3" height="107.9" rx="9.0" fill="none" stroke="#A3E635" stroke-width="2.6" opacity="0.35"/>
</g>


<g opacity="0.339" transform="translate(774.0,1355.9) rotate(3.1)" filter="url(#softGlow)">
  <rect x="-97.2" y="-88.8" width="194.3" height="177.6" rx="17.8" fill="#050A12" opacity="0.25"/>
  <rect x="-97.2" y="-88.8" width="194.3" height="177.6" rx="17.8" fill="none" stroke="url(#strokeA)" stroke-width="8.9" opacity="0.85"/>
  <rect x="-83.0" y="-74.6" width="165.9" height="149.1" rx="12.4" fill="none" stroke="#06B6D4" stroke-width="3.6" opacity="0.35"/>
</g>


<g opacity="0.371" transform="translate(890.6,36.3) rotate(8.7)" filter="url(#softGlow)">
  <rect x="-82.9" y="-65.1" width="165.7" height="130.3" rx="13.0" fill="#050A12" opacity="0.25"/>
  <rect x="-82.9" y="-65.1" width="165.7" height="130.3" rx="13.0" fill="none" stroke="url(#strokeA)" stroke-width="6.5" opacity="0.85"/>
  <rect x="-72.4" y="-54.7" width="144.9" height="109.4" rx="9.1" fill="none" stroke="#06B6D4" stroke-width="2.6" opacity="0.35"/>
</g>


<g opacity="0.343" transform="translate(836.9,1420.5) rotate(-16.7)" filter="url(#softGlow)">
  <rect x="-37.8" y="-21.8" width="75.7" height="43.6" rx="13.3" fill="none" stroke="#06B6D4" stroke-width="7.3" opacity="0.55"/>
  <rect x="-16.7" y="-10.9" width="75.7" height="43.6" rx="13.3" fill="none" stroke="url(#strokeA)" stroke-width="6.1" opacity="0.55"/>
</g>


<g opacity="0.388" transform="translate(730.9,1435.5) rotate(-0.5)" filter="url(#softGlow)">
  <rect x="-49.6" y="-28.6" width="99.2" height="57.1" rx="17.5" fill="none" stroke="#A3E635" stroke-width="9.5" opacity="0.55"/>
  <rect x="-21.8" y="-14.3" width="99.2" height="57.1" rx="17.5" fill="none" stroke="url(#strokeA)" stroke-width="7.9" opacity="0.55"/>
</g>


<g opacity="0.236" transform="translate(354.9,1565.8) rotate(4.3)" filter="url(#softGlow)">
  <rect x="-44.9" y="-25.9" width="89.8" height="51.7" rx="15.8" fill="none" stroke="#A3E635" stroke-width="8.6" opacity="0.55"/>
  <rect x="-19.7" y="-12.9" width="89.8" height="51.7" rx="15.8" fill="none" stroke="url(#strokeA)" stroke-width="7.2" opacity="0.55"/>
</g>


<g opacity="0.366" transform="translate(39.1,138.0) rotate(8.2)" filter="url(#softGlow)">
  <rect x="-33.3" y="-19.2" width="66.7" height="38.4" rx="11.7" fill="none" stroke="#06B6D4" stroke-width="6.4" opacity="0.55"/>
  <rect x="-14.7" y="-9.6" width="66.7" height="38.4" rx="11.7" fill="none" stroke="url(#strokeA)" stroke-width="5.3" opacity="0.55"/>
</g>


<g opacity="0.446" transform="translate(765.0,830.3) rotate(10.3)" filter="url(#softGlow)">
  <rect x="-28.7" y="-16.5" width="57.3" height="33.0" rx="10.1" fill="none" stroke="#06B6D4" stroke-width="5.5" opacity="0.55"/>
  <rect x="-12.6" y="-8.3" width="57.3" height="33.0" rx="10.1" fill="none" stroke="url(#strokeA)" stroke-width="4.6" opacity="0.55"/>
</g>


<g opacity="0.343" transform="translate(127.5,1487.9) rotate(-6.8)" filter="url(#softGlow)">
  <rect x="-41.8" y="-24.1" width="83.5" height="48.1" rx="14.7" fill="none" stroke="#A3E635" stroke-width="8.0" opacity="0.55"/>
  <rect x="-18.4" y="-12.0" width="83.5" height="48.1" rx="14.7" fill="none" stroke="url(#strokeA)" stroke-width="6.7" opacity="0.55"/>
</g>


<g opacity="0.234" transform="translate(169.4,1439.1) rotate(13.5)" filter="url(#softGlow)">
  <rect x="-50.4" y="-29.0" width="100.8" height="58.1" rx="17.7" fill="none" stroke="#06B6D4" stroke-width="9.7" opacity="0.55"/>
  <rect x="-22.2" y="-14.5" width="100.8" height="58.1" rx="17.7" fill="none" stroke="url(#strokeA)" stroke-width="8.1" opacity="0.55"/>
</g>


<g opacity="0.311" transform="translate(426.1,171.8) rotate(-11.0)" filter="url(#softGlow)">
  <rect x="-41.7" y="-24.0" width="83.3" height="48.0" rx="14.7" fill="none" stroke="#A3E635" stroke-width="8.0" opacity="0.55"/>
  <rect x="-18.3" y="-12.0" width="83.3" height="48.0" rx="14.7" fill="none" stroke="url(#strokeA)" stroke-width="6.7" opacity="0.55"/>
</g>


<g opacity="0.328" transform="translate(133.0,9.5) rotate(14.2)" filter="url(#softGlow)">
  <rect x="-29.4" y="-16.9" width="58.8" height="33.9" rx="10.3" fill="none" stroke="#06B6D4" stroke-width="5.6" opacity="0.55"/>
  <rect x="-12.9" y="-8.5" width="58.8" height="33.9" rx="10.3" fill="none" stroke="url(#strokeA)" stroke-width="4.7" opacity="0.55"/>
</g>


<g opacity="0.197">
  <line x1="593.0" y1="1413.0" x2="593.0" y2="1505.8" stroke="#06B6D4" stroke-width="1.31" opacity="0.45"/>
  <rect x="588.7" y="1458.7" width="8.6" height="57.0" rx="2.9" fill="#0B1020" opacity="0.55" stroke="url(#strokeA)" stroke-width="1.2"/>
</g>

<g opacity="0.197">
  <line x1="136.2" y1="1436.5" x2="136.2" y2="1499.9" stroke="#06B6D4" stroke-width="1.19" opacity="0.45"/>
  <rect x="132.4" y="1471.0" width="7.7" height="32.4" rx="2.6" fill="#0B1020" opacity="0.55" stroke="url(#strokeA)" stroke-width="1.2"/>
</g>

<g opacity="0.197">
  <line x1="832.2" y1="1428.7" x2="832.2" y2="1501.8" stroke="#06B6D4" stroke-width="2.05" opacity="0.45"/>
  <rect x="827.1" y="1469.2" width="10.1" height="36.1" rx="3.4" fill="#0B1020" opacity="0.55" stroke="url(#strokeA)" stroke-width="1.2"/>
</g>

<g opacity="0.197">
  <line x1="56.9" y1="1433.2" x2="56.9" y2="1500.7" stroke="#06B6D4" stroke-width="1.85" opacity="0.45"/>
  <rect x="53.7" y="1472.3" width="6.4" height="29.8" rx="2.1" fill="#0B1020" opacity="0.55" stroke="url(#strokeA)" stroke-width="1.2"/>
</g>

<g opacity="0.197">
  <line x1="610.8" y1="1419.2" x2="610.8" y2="1504.2" stroke="#06B6D4" stroke-width="1.18" opacity="0.45"/>
  <rect x="604.9" y="1460.6" width="11.8" height="53.2" rx="3.9" fill="#0B1020" opacity="0.55" stroke="url(#strokeA)" stroke-width="1.2"/>
</g>

<g opacity="0.197">
  <line x1="33.2" y1="1397.8" x2="33.2" y2="1509.6" stroke="#06B6D4" stroke-width="1.06" opacity="0.45"/>
  <rect x="30.1" y="1458.7" width="6.2" height="57.0" rx="2.1" fill="#0B1020" opacity="0.55" stroke="url(#strokeA)" stroke-width="1.2"/>
</g>

<g opacity="0.197">
  <line x1="181.2" y1="1418.3" x2="181.2" y2="1504.4" stroke="#06B6D4" stroke-width="2.05" opacity="0.45"/>
  <rect x="175.8" y="1464.8" width="10.8" height="44.9" rx="3.6" fill="#0B1020" opacity="0.55" stroke="url(#strokeA)" stroke-width="1.2"/>
</g>

<g opacity="0.197">
  <line x1="622.3" y1="1412.1" x2="622.3" y2="1506.0" stroke="#06B6D4" stroke-width="1.53" opacity="0.45"/>
  <rect x="618.6" y="1459.3" width="7.5" height="55.8" rx="2.5" fill="#0B1020" opacity="0.55" stroke="url(#strokeA)" stroke-width="1.2"/>
</g>

<g opacity="0.197">
  <line x1="276.7" y1="1439.5" x2="276.7" y2="1499.1" stroke="#06B6D4" stroke-width="1.78" opacity="0.45"/>
  <rect x="272.4" y="1471.8" width="8.5" height="30.9" rx="2.8" fill="#0B1020" opacity="0.55" stroke="url(#strokeA)" stroke-width="1.2"/>
</g>

<g opacity="0.197">
  <line x1="345.3" y1="1455.0" x2="345.3" y2="1495.3" stroke="#06B6D4" stroke-width="2.14" opacity="0.45"/>
  <rect x="340.9" y="1477.1" width="8.8" height="20.2" rx="2.9" fill="#0B1020" opacity="0.55" stroke="url(#strokeA)" stroke-width="1.2"/>
</g>

<g opacity="0.197">
  <line x1="598.6" y1="1434.2" x2="598.6" y2="1500.5" stroke="#06B6D4" stroke-width="1.16" opacity="0.45"/>
  <rect x="593.2" y="1470.4" width="10.8" height="33.6" rx="3.6" fill="#0B1020" opacity="0.55" stroke="url(#strokeA)" stroke-width="1.2"/>
</g>

<g opacity="0.197">
  <line x1="27.7" y1="1410.6" x2="27.7" y2="1506.4" stroke="#06B6D4" stroke-width="1.25" opacity="0.45"/>
  <rect x="24.4" y="1460.0" width="6.8" height="54.4" rx="2.3" fill="#0B1020" opacity="0.55" stroke="url(#strokeA)" stroke-width="1.2"/>
</g>

<g opacity="0.197">
  <line x1="597.4" y1="1438.1" x2="597.4" y2="1499.5" stroke="#06B6D4" stroke-width="1.87" opacity="0.45"/>
  <rect x="591.4" y="1472.8" width="11.9" height="28.8" rx="4.0" fill="#0B1020" opacity="0.55" stroke="url(#strokeA)" stroke-width="1.2"/>
</g>

<g opacity="0.197">
  <line x1="853.8" y1="1413.2" x2="853.8" y2="1505.7" stroke="#06B6D4" stroke-width="1.10" opacity="0.45"/>
  <rect x="850.3" y="1467.3" width="7.1" height="39.8" rx="2.4" fill="#0B1020" opacity="0.55" stroke="url(#strokeA)" stroke-width="1.2"/>
</g>

<g opacity="0.197">
  <line x1="736.7" y1="1439.1" x2="736.7" y2="1499.2" stroke="#06B6D4" stroke-width="1.28" opacity="0.45"/>
  <rect x="731.3" y="1474.5" width="10.7" height="25.3" rx="3.6" fill="#0B1020" opacity="0.55" stroke="url(#strokeA)" stroke-width="1.2"/>
</g>

<g opacity="0.197">
  <line x1="540.3" y1="1445.1" x2="540.3" y2="1497.7" stroke="#06B6D4" stroke-width="1.95" opacity="0.45"/>
  <rect x="536.8" y="1474.6" width="7.0" height="25.3" rx="2.3" fill="#0B1020" opacity="0.55" stroke="url(#strokeA)" stroke-width="1.2"/>
</g>

<g opacity="0.197">
  <line x1="163.6" y1="1414.5" x2="163.6" y2="1505.4" stroke="#06B6D4" stroke-width="1.35" opacity="0.45"/>
  <rect x="159.8" y="1467.6" width="7.6" height="39.2" rx="2.5" fill="#0B1020" opacity="0.55" stroke="url(#strokeA)" stroke-width="1.2"/>
</g>
<circle cx="698.6" cy="33.7" r="3.0" fill="#A3E635" opacity="0.23" filter="url(#softGlow)"/>
<circle cx="666.9" cy="112.1" r="2.1" fill="#A3E635" opacity="0.26" filter="url(#softGlow)"/>
<circle cx="38.0" cy="1506.8" r="2.6" fill="#A3E635" opacity="0.10" filter="url(#softGlow)"/>
<circle cx="135.3" cy="170.2" r="2.0" fill="#A3E635" opacity="0.13" filter="url(#softGlow)"/>
<circle cx="65.9" cy="40.2" r="2.9" fill="#A3E635" opacity="0.17" filter="url(#softGlow)"/>
<circle cx="31.7" cy="1228.7" r="1.8" fill="#A3E635" opacity="0.23" filter="url(#softGlow)"/>
<circle cx="889.2" cy="1488.0" r="2.9" fill="#A3E635" opacity="0.15" filter="url(#softGlow)"/>
<circle cx="138.7" cy="608.9" r="2.0" fill="#A3E635" opacity="0.10" filter="url(#softGlow)"/>
<circle cx="93.9" cy="1540.0" r="1.9" fill="#A3E635" opacity="0.20" filter="url(#softGlow)"/>
<circle cx="500.7" cy="147.1" r="2.3" fill="#A3E635" opacity="0.27" filter="url(#softGlow)"/>
<circle cx="875.5" cy="264.3" r="2.9" fill="#A3E635" opacity="0.16" filter="url(#softGlow)"/>
<circle cx="19.3" cy="1503.0" r="1.7" fill="#A3E635" opacity="0.22" filter="url(#softGlow)"/>
<circle cx="59.8" cy="162.5" r="1.9" fill="#A3E635" opacity="0.14" filter="url(#softGlow)"/>
<circle cx="867.2" cy="1490.3" r="1.4" fill="#A3E635" opacity="0.18" filter="url(#softGlow)"/>
<circle cx="57.9" cy="178.9" r="2.3" fill="#A3E635" opacity="0.21" filter="url(#softGlow)"/>
<circle cx="744.9" cy="765.9" r="1.4" fill="#A3E635" opacity="0.15" filter="url(#softGlow)"/>
<circle cx="865.2" cy="1533.4" r="1.8" fill="#A3E635" opacity="0.13" filter="url(#softGlow)"/>
<circle cx="760.9" cy="120.1" r="1.8" fill="#A3E635" opacity="0.27" filter="url(#softGlow)"/>
<circle cx="121.0" cy="1560.8" r="1.3" fill="#A3E635" opacity="0.21" filter="url(#softGlow)"/>
<circle cx="748.1" cy="1459.8" r="2.3" fill="#A3E635" opacity="0.27" filter="url(#softGlow)"/>
</svg>