<svg xmlns="http://www.w3.org/2000/svg" width="900" height="1600" viewBox="0 0 900 1600" preserveAspectRatio="xMidYMid slice">
<defs>
  <linearGradient id="g0" x1="0" y1="0" x2="1" y2="1">
    <stop offset="0" stop-color="#0B1020"/>
    <stop offset="0.55" stop-color="#00E5FF" stop-opacity="0.9"/>
    <stop offset="1" stop-color="#051018"/>
  </linearGradient>
  <radialGradient id="g1" cx="20%" cy="15%" r="70%">
    <stop offset="0" stop-color="#7C4DFF" stop-opacity="0.38"/>
    <stop offset="0.6" stop-color="#7C4DFF" stop-opacity="0.08"/>
    <stop offset="1" stop-color="#7C4DFF" stop-opacity="0"/>
  </radialGradient>
  <radialGradient id="g2" cx="85%" cy="80%" r="75%">
    <stop offset="0" stop-color="#7C4DFF" stop-opacity="0.28"/>
    <stop offset="0.65" stop-color="#7C4DFF" stop-opacity="0.06"/>
    <stop offset="1" stop-color="#7C4DFF" stop-opacity="0"/>
  </radialGradient>
  <filter id="softGlow" x="-30%" y="-30%" width="160%" height="160%">
    <feGaussianBlur stdDeviation="12" result="b"/>
    <feMerge>
      <feMergeNode in="b"/>
      <feMergeNode in="SourceGraphic"/>
    </feMerge>
  </filter>
  <filter id="hardGlow" x="-40%" y="-40%" width="180%" height="180%">
    <feGaussianBlur stdDeviation="6" result="b"/>
    <feColorMatrix in="b" type="matrix" values="1 0 0 0 0  0 1 0 0 0  0 0 1 0 0  0 0 0 18 -7" result="c"/>
    <feMerge>
      <feMergeNode in="c"/>
      <feMergeNode in="SourceGraphic"/>
    </feMerge>
  </filter>
  <linearGradient id="strokeA" x1="0" y1="0" x2="1" y2="0">
    <stop offset="0" stop-color="#7C4DFF" stop-opacity="0.9"/>
    <stop offset="0.5" stop-color="#FFFFFF" stop-opacity="0.25"/>
    <stop offset="1" stop-color="#7C4DFF" stop-opacity="0.7"/>
  </linearGradient>
  <linearGradient id="strokeB" x1="0" y1="0" x2="0" y2="1">
    <stop offset="0" stop-color="#FFFFFF" stop-opacity="0.18"/>
    <stop offset="1" stop-color="#7C4DFF" stop-opacity="0.55"/>
  </linearGradient>
</defs>
<rect x="0" y="0" width="900" height="1600" fill="url(#g0)"/>
<rect x="0" y="0" width="900" height="1600" fill="url(#g1)"/>
<rect x="0" y="0" width="900" height="1600" fill="url(#g2)"/>


<defs>
  <radialGradient id="vign" cx="0.5000" cy="0.5000" r="0.85">
    <stop offset="0" stop-color="#000000" stop-opacity="0"/>
    <stop offset="0.55" stop-color="#000000" stop-opacity="0.217"/>
    <stop offset="1" stop-color="#000000" stop-opacity="0.620"/>
  </radialGradient>
</defs>
<rect x="0" y="0" width="900" height="1600" fill="url(#vign)"/>

<g opacity="0.196" filter="url(#softGlow)"><path d="M 7.5,152.6 L 235.5,152.6 L 235.5,1569.7 L 120.1,1569.7 L 120.1,1080.9 " fill="none" stroke="url(#strokeB)" stroke-width="2.06" stroke-linecap="round" stroke-linejoin="round"/><circle cx="235.5" cy="152.6" r="3.7" fill="#00E5FF" opacity="0.45"/><circle cx="120.1" cy="1569.7" r="2.1" fill="#00E5FF" opacity="0.45"/><circle cx="7.5" cy="152.6" r="3.4" fill="#00E5FF" opacity="0.45"/></g>
<g opacity="0.196" filter="url(#softGlow)"><path d="M 874.8,1511.6 L 790.4,1511.6 L 790.4,1590.3 L 26.1,1590.3 L 26.1,1598.3 " fill="none" stroke="url(#strokeB)" stroke-width="1.35" stroke-linecap="round" stroke-linejoin="round"/><circle cx="26.1" cy="1590.3" r="2.4" fill="#00E5FF" opacity="0.45"/><circle cx="874.8" cy="1511.6" r="4.2" fill="#00E5FF" opacity="0.45"/><circle cx="790.4" cy="1590.3" r="2.2" fill="#00E5FF" opacity="0.45"/></g>
<g opacity="0.196" filter="url(#softGlow)"><path d="M 838.7,899.9 L 768.8,899.9 L 768.8,162.8 L 229.3,162.8 L 229.3,1488.3 " fill="none" stroke="url(#strokeB)" stroke-width="1.91" stroke-linecap="round" stroke-linejoin="round"/><circle cx="229.3" cy="162.8" r="3.1" fill="#00E5FF" opacity="0.45"/><circle cx="838.7" cy="899.9" r="4.0" fill="#00E5FF" opacity="0.45"/><circle cx="768.8" cy="899.9" r="3.0" fill="#00E5FF" opacity="0.45"/></g>
<g opacity="0.196" filter="url(#softGlow)"><path d="M 812.6,174.9 L 35.9,174.9 L 35.9,945.7 L 10.5,945.7 L 10.5,615.5 " fill="none" stroke="url(#strokeB)" stroke-width="1.44" stroke-linecap="round" stroke-linejoin="round"/><circle cx="812.6" cy="174.9" r="3.3" fill="#00E5FF" opacity="0.45"/><circle cx="10.5" cy="615.5" r="3.2" fill="#00E5FF" opacity="0.45"/><circle cx="35.9" cy="945.7" r="3.2" fill="#00E5FF" opacity="0.45"/></g>
<g opacity="0.196" filter="url(#softGlow)"><path d="M 219.0,1433.7 L 50.6,1433.7 L 50.6,237.6 L 848.3,237.6 L 848.3,119.0 " fill="none" stroke="url(#strokeB)" stroke-width="2.15" stroke-linecap="round" stroke-linejoin="round"/><circle cx="50.6" cy="1433.7" r="2.3" fill="#00E5FF" opacity="0.45"/><circle cx="848.3" cy="119.0" r="4.1" fill="#00E5FF" opacity="0.45"/><circle cx="50.6" cy="237.6" r="2.5" fill="#00E5FF" opacity="0.45"/></g>
<g opacity="0.196" filter="url(#softGlow)"><path d="M 836.3,155.1 L 859.2,155.1 L 859.2,973.5 L 800.2,973.5 L 800.2,1511.9 " fill="none" stroke="url(#strokeB)" stroke-width="1.63" stroke-linecap="round" stroke-linejoin="round"/><circle cx="859.2" cy="155.1" r="2.8" fill="#00E5FF" opacity="0.45"/><circle cx="859.2" cy="973.5" r="4.1" fill="#00E5FF" opacity="0.45"/><circle cx="800.2" cy="973.5" r="2.8" fill="#00E5FF" opacity="0.45"/></g>
<g opacity="0.196" filter="url(#softGlow)"><path d="M 103.7,1363.6 L 896.6,1363.6 L 896.6,1555.2 L 849.1,1555.2 L 849.1,121.1 " fill="none" stroke="url(#strokeB)" stroke-width="1.23" stroke-linecap="round" stroke-linejoin="round"/><circle cx="103.7" cy="1363.6" r="2.6" fill="#00E5FF" opacity="0.45"/><circle cx="896.6" cy="1555.2" r="2.6" fill="#00E5FF" opacity="0.45"/><circle cx="849.1" cy="121.1" r="2.4" fill="#00E5FF" opacity="0.45"/></g>
<g opacity="0.196" filter="url(#softGlow)"><path d="M 894.4,1493.1 L 807.0,1493.1 L 807.0,214.2 L 811.0,214.2 L 811.0,1580.0 " fill="none" stroke="url(#strokeB)" stroke-width="2.15" stroke-linecap="round" stroke-linejoin="round"/><circle cx="811.0" cy="214.2" r="3.1" fill="#00E5FF" opacity="0.45"/><circle cx="894.4" cy="1493.1" r="2.8" fill="#00E5FF" opacity="0.45"/><circle cx="807.0" cy="1493.1" r="3.5" fill="#00E5FF" opacity="0.45"/></g>
<g opacity="0.196" filter="url(#softGlow)"><path d="M 140.6,1488.8 L 511.3,1488.8 L 511.3,33.3 L 41.4,33.3 L 41.4,1571.6 " fill="none" stroke="url(#strokeB)" stroke-width="1.63" stroke-linecap="round" stroke-linejoin="round"/><circle cx="41.4" cy="1571.6" r="3.4" fill="#00E5FF" opacity="0.45"/><circle cx="511.3" cy="1488.8" r="2.1" fill="#00E5FF" opacity="0.45"/><circle cx="41.4" cy="33.3" r="3.6" fill="#00E5FF" opacity="0.45"/></g>
<g opacity="0.196" filter="url(#softGlow)"><path d="M 147.4,1555.0 L 404.3,1555.0 L 404.3,1446.9 L 140.5,1446.9 L 140.5,549.9 " fill="none" stroke="url(#strokeB)" stroke-width="1.11" stroke-linecap="round" stroke-linejoin="round"/><circle cx="140.5" cy="1446.9" r="2.3" fill="#00E5FF" opacity="0.45"/><circle cx="147.4" cy="1555.0" r="2.7" fill="#00E5FF" opacity="0.45"/><circle cx="404.3" cy="1446.9" r="3.1" fill="#00E5FF" opacity="0.45"/></g>
<g opacity="0.196" filter="url(#softGlow)"><path d="M 897.2,24.0 L 153.4,24.0 L 153.4,183.7 L 317.6,183.7 L 317.6,105.4 " fill="none" stroke="url(#strokeB)" stroke-width="1.44" stroke-linecap="round" stroke-linejoin="round"/><circle cx="153.4" cy="24.0" r="2.7" fill="#00E5FF" opacity="0.45"/><circle cx="317.6" cy="183.7" r="3.5" fill="#00E5FF" opacity="0.45"/><circle cx="317.6" cy="105.4" r="3.6" fill="#00E5FF" opacity="0.45"/></g>
<g opacity="0.196" filter="url(#softGlow)"><path d="M 728.2,101.1 L 6.5,101.1 L 6.5,169.9 L 786.1,169.9 L 786.1,137.9 " fill="none" stroke="url(#strokeB)" stroke-width="1.83" stroke-linecap="round" stroke-linejoin="round"/><circle cx="6.5" cy="101.1" r="2.6" fill="#00E5FF" opacity="0.45"/><circle cx="728.2" cy="101.1" r="3.0" fill="#00E5FF" opacity="0.45"/><circle cx="786.1" cy="137.9" r="3.2" fill="#00E5FF" opacity="0.45"/></g>
<g opacity="0.196" filter="url(#softGlow)"><path d="M 129.3,49.3 L 741.0,49.3 L 741.0,150.4 L 828.3,150.4 L 828.3,174.7 " fill="none" stroke="url(#strokeB)" stroke-width="1.99" stroke-linecap="round" stroke-linejoin="round"/><circle cx="129.3" cy="49.3" r="3.9" fill="#00E5FF" opacity="0.45"/><circle cx="741.0" cy="49.3" r="2.1" fill="#00E5FF" opacity="0.45"/><circle cx="828.3" cy="174.7" r="3.3" fill="#00E5FF" opacity="0.45"/></g>
<g opacity="0.196" filter="url(#softGlow)"><path d="M 26.3,6.2 L 839.0,6.2 L 839.0,62.7 L 135.2,62.7 L 135.2,1554.7 " fill="none" stroke="url(#strokeB)" stroke-width="1.53" stroke-linecap="round" stroke-linejoin="round"/><circle cx="839.0" cy="6.2" r="3.1" fill="#00E5FF" opacity="0.45"/><circle cx="135.2" cy="62.7" r="2.8" fill="#00E5FF" opacity="0.45"/><circle cx="26.3" cy="6.2" r="2.1" fill="#00E5FF" opacity="0.45"/></g>
<g opacity="0.196" filter="url(#softGlow)"><path d="M 174.5,47.5 L 756.5,47.5 L 756.5,1486.1 L 132.7,1486.1 L 132.7,1.9 " fill="none" stroke="url(#strokeB)" stroke-width="1.74" stroke-linecap="round" stroke-linejoin="round"/><circle cx="756.5" cy="47.5" r="2.4" fill="#00E5FF" opacity="0.45"/><circle cx="132.7" cy="1.9" r="2.9" fill="#00E5FF" opacity="0.45"/><circle cx="756.5" cy="1486.1" r="3.2" fill="#00E5FF" opacity="0.45"/></g>
<g opacity="0.196" filter="url(#softGlow)"><path d="M 68.3,1574.6 L 747.5,1574.6 L 747.5,1437.8 L 108.0,1437.8 L 108.0,676.6 " fill="none" stroke="url(#strokeB)" stroke-width="1.38" stroke-linecap="round" stroke-linejoin="round"/><circle cx="747.5" cy="1437.8" r="3.8" fill="#00E5FF" opacity="0.45"/><circle cx="747.5" cy="1574.6" r="4.0" fill="#00E5FF" opacity="0.45"/><circle cx="108.0" cy="1437.8" r="2.8" fill="#00E5FF" opacity="0.45"/></g>
<g opacity="0.196" filter="url(#softGlow)"><path d="M 796.1,1523.7 L 726.4,1523.7 L 726.4,55.4 L 159.7,55.4 L 159.7,33.7 " fill="none" stroke="url(#strokeB)" stroke-width="2.02" stroke-linecap="round" stroke-linejoin="round"/><circle cx="726.4" cy="55.4" r="3.5" fill="#00E5FF" opacity="0.45"/><circle cx="159.7" cy="55.4" r="2.6" fill="#00E5FF" opacity="0.45"/><circle cx="726.4" cy="1523.7" r="3.6" fill="#00E5FF" opacity="0.45"/></g>
<g opacity="0.196" filter="url(#softGlow)"><path d="M 736.9,77.4 L 815.7,77.4 L 815.7,1546.7 L 780.0,1546.7 L 780.0,130.0 " fill="none" stroke="url(#strokeB)" stroke-width="1.97" stroke-linecap="round" stroke-linejoin="round"/><circle cx="780.0" cy="1546.7" r="2.4" fill="#00E5FF" opacity="0.45"/><circle cx="736.9" cy="77.4" r="2.7" fill="#00E5FF" opacity="0.45"/><circle cx="780.0" cy="130.0" r="3.6" fill="#00E5FF" opacity="0.45"/></g>
<g opacity="0.196" filter="url(#softGlow)"><path d="M 55.0,92.2 L 812.7,92.2 L 812.7,1560.9 L 821.5,1560.9 L 821.5,1479.2 " fill="none" stroke="url(#strokeB)" stroke-width="1.39" stroke-linecap="round" stroke-linejoin="round"/><circle cx="812.7" cy="92.2" r="3.7" fill="#00E5FF" opacity="0.45"/><circle cx="821.5" cy="1479.2" r="2.8" fill="#00E5FF" opacity="0.45"/><circle cx="821.5" cy="1560.9" r="2.9" fill="#00E5FF" opacity="0.45"/></g>
<g opacity="0.196" filter="url(#softGlow)"><path d="M 896.9,139.3 L 190.6,139.3 L 190.6,1517.8 L 38.5,1517.8 L 38.5,1500.9 " fill="none" stroke="url(#strokeB)" stroke-width="1.78" stroke-linecap="round" stroke-linejoin="round"/><circle cx="896.9" cy="139.3" r="3.4" fill="#00E5FF" opacity="0.45"/><circle cx="38.5" cy="1500.9" r="2.7" fill="#00E5FF" opacity="0.45"/><circle cx="38.5" cy="1517.8" r="3.1" fill="#00E5FF" opacity="0.45"/></g>

<g opacity="0.882" filter="url(#hardGlow)">
  <circle cx="49.9" cy="1598.4" r="46.9" fill="#0A1224" opacity="0.65"/>
  <circle cx="49.9" cy="1598.4" r="46.9" fill="none" stroke="url(#strokeA)" stroke-width="3.8" opacity="0.85"/>
  <circle cx="49.9" cy="1598.4" r="40.4" fill="none" stroke="#FFB300" stroke-width="1.5" opacity="0.35"/>
  <polygon points="56.9,1565.3 82.0,1587.9 75.0,1621.0 42.9,1631.5 17.8,1608.9 24.7,1575.8" fill="none" stroke="url(#strokeB)" stroke-width="1.2" opacity="0.65"/>
  <polygon points="56.1,1588.4 55.5,1608.8 38.1,1598.0" fill="#FFB300" opacity="0.22" filter="url(#softGlow)"/>
</g>


<g opacity="0.585" filter="url(#hardGlow)">
  <circle cx="41.4" cy="1594.8" r="21.5" fill="#0A1224" opacity="0.65"/>
  <circle cx="41.4" cy="1594.8" r="21.5" fill="none" stroke="url(#strokeA)" stroke-width="2.0" opacity="0.85"/>
  <circle cx="41.4" cy="1594.8" r="18.5" fill="none" stroke="#00E5FF" stroke-width="1.5" opacity="0.35"/>
  <polygon points="26.6,1590.3 37.9,1579.7 52.8,1584.2 56.3,1599.3 44.9,1609.9 30.1,1605.3" fill="none" stroke="url(#strokeB)" stroke-width="1.2" opacity="0.65"/>
  
</g>


<g opacity="0.577" filter="url(#hardGlow)">
  <circle cx="49.2" cy="1552.9" r="24.2" fill="#0A1224" opacity="0.65"/>
  <circle cx="49.2" cy="1552.9" r="24.2" fill="none" stroke="url(#strokeA)" stroke-width="2.0" opacity="0.85"/>
  <circle cx="49.2" cy="1552.9" r="20.8" fill="none" stroke="#00E5FF" stroke-width="1.5" opacity="0.35"/>
  <polygon points="32.3,1557.1 37.1,1540.3 54.0,1536.2 66.1,1548.7 61.2,1565.4 44.3,1569.6" fill="none" stroke="url(#strokeB)" stroke-width="1.2" opacity="0.65"/>
  <polygon points="43.1,1552.2 52.8,1548.0 51.6,1558.5" fill="#00E5FF" opacity="0.22" filter="url(#softGlow)"/>
</g>


<g opacity="0.479" filter="url(#hardGlow)">
  <circle cx="65.5" cy="1648.7" r="17.7" fill="#0A1224" opacity="0.65"/>
  <circle cx="65.5" cy="1648.7" r="17.7" fill="none" stroke="url(#strokeA)" stroke-width="2.0" opacity="0.85"/>
  <circle cx="65.5" cy="1648.7" r="15.2" fill="none" stroke="#00E5FF" stroke-width="1.5" opacity="0.35"/>
  <polygon points="76.2,1641.7 76.8,1654.5 66.2,1661.4 54.8,1655.6 54.1,1642.9 64.8,1636.0" fill="none" stroke="url(#strokeB)" stroke-width="1.2" opacity="0.65"/>
  <polygon points="69.8,1647.7 64.2,1653.0 62.4,1645.4" fill="#00E5FF" opacity="0.22" filter="url(#softGlow)"/>
</g>


<g opacity="0.727" filter="url(#hardGlow)">
  <circle cx="772.9" cy="1486.2" r="31.9" fill="#0A1224" opacity="0.65"/>
  <circle cx="772.9" cy="1486.2" r="31.9" fill="none" stroke="url(#strokeA)" stroke-width="2.6" opacity="0.85"/>
  <circle cx="772.9" cy="1486.2" r="27.5" fill="none" stroke="#FFB300" stroke-width="1.5" opacity="0.35"/>
  <polygon points="793.2,1497.2 773.6,1509.2 753.3,1498.2 752.7,1475.3 772.3,1463.2 792.5,1474.2" fill="none" stroke="url(#strokeB)" stroke-width="1.2" opacity="0.65"/>
  <polygon points="778.3,1492.2 765.1,1487.8 775.5,1478.6" fill="#FFB300" opacity="0.22" filter="url(#softGlow)"/>
</g>


<g opacity="0.458" filter="url(#hardGlow)">
  <circle cx="784.8" cy="1462.2" r="15.4" fill="#0A1224" opacity="0.65"/>
  <circle cx="784.8" cy="1462.2" r="15.4" fill="none" stroke="url(#strokeA)" stroke-width="2.0" opacity="0.85"/>
  <circle cx="784.8" cy="1462.2" r="13.2" fill="none" stroke="#00E5FF" stroke-width="1.5" opacity="0.35"/>
  <polygon points="795.7,1460.3 791.9,1470.7 781.0,1472.6 773.9,1464.0 777.8,1453.6 788.7,1451.8" fill="none" stroke="url(#strokeB)" stroke-width="1.2" opacity="0.65"/>
  <polygon points="788.6,1462.9 782.3,1465.1 783.5,1458.5" fill="#00E5FF" opacity="0.22" filter="url(#softGlow)"/>
</g>


<g opacity="0.472" filter="url(#hardGlow)">
  <circle cx="731.8" cy="1517.3" r="17.3" fill="#0A1224" opacity="0.65"/>
  <circle cx="731.8" cy="1517.3" r="17.3" fill="none" stroke="url(#strokeA)" stroke-width="2.0" opacity="0.85"/>
  <circle cx="731.8" cy="1517.3" r="14.9" fill="none" stroke="#00E5FF" stroke-width="1.5" opacity="0.35"/>
  <polygon points="739.2,1507.2 744.3,1518.7 736.9,1528.7 724.5,1527.4 719.4,1516.0 726.8,1505.9" fill="none" stroke="url(#strokeB)" stroke-width="1.2" opacity="0.65"/>
  <polygon points="735.5,1514.9 732.1,1521.7 727.9,1515.4" fill="#00E5FF" opacity="0.22" filter="url(#softGlow)"/>
</g>


<g opacity="0.870" filter="url(#hardGlow)">
  <circle cx="888.0" cy="1590.9" r="40.8" fill="#0A1224" opacity="0.65"/>
  <circle cx="888.0" cy="1590.9" r="40.8" fill="none" stroke="url(#strokeA)" stroke-width="3.3" opacity="0.85"/>
  <circle cx="888.0" cy="1590.9" r="35.1" fill="none" stroke="#FFB300" stroke-width="1.5" opacity="0.35"/>
  <polygon points="859.1,1596.3 868.9,1568.6 897.8,1563.2 916.9,1585.6 907.1,1613.3 878.1,1618.6" fill="none" stroke="url(#strokeB)" stroke-width="1.2" opacity="0.65"/>
  <polygon points="877.8,1589.2 894.5,1583.0 891.6,1600.6" fill="#FFB300" opacity="0.22" filter="url(#softGlow)"/>
</g>


<g opacity="0.459" filter="url(#hardGlow)">
  <circle cx="889.1" cy="1580.3" r="15.7" fill="#0A1224" opacity="0.65"/>
  <circle cx="889.1" cy="1580.3" r="15.7" fill="none" stroke="url(#strokeA)" stroke-width="2.0" opacity="0.85"/>
  <circle cx="889.1" cy="1580.3" r="13.5" fill="none" stroke="#00E5FF" stroke-width="1.5" opacity="0.35"/>
  <polygon points="877.8,1580.6 883.2,1570.7 894.5,1570.4 900.4,1580.0 895.0,1590.0 883.7,1590.3" fill="none" stroke="url(#strokeB)" stroke-width="1.2" opacity="0.65"/>
  
</g>


<g opacity="0.581" filter="url(#hardGlow)">
  <circle cx="943.0" cy="1639.3" r="19.3" fill="#0A1224" opacity="0.65"/>
  <circle cx="943.0" cy="1639.3" r="19.3" fill="none" stroke="url(#strokeA)" stroke-width="2.0" opacity="0.85"/>
  <circle cx="943.0" cy="1639.3" r="16.6" fill="none" stroke="#00E5FF" stroke-width="1.5" opacity="0.35"/>
  <polygon points="954.4,1631.3 955.5,1645.2 944.1,1653.1 931.5,1647.2 930.4,1633.3 941.8,1625.4" fill="none" stroke="url(#strokeB)" stroke-width="1.2" opacity="0.65"/>
  
</g>


<g opacity="0.414" filter="url(#hardGlow)">
  <circle cx="913.5" cy="1598.2" r="21.4" fill="#0A1224" opacity="0.65"/>
  <circle cx="913.5" cy="1598.2" r="21.4" fill="none" stroke="url(#strokeA)" stroke-width="2.0" opacity="0.85"/>
  <circle cx="913.5" cy="1598.2" r="18.4" fill="none" stroke="#00E5FF" stroke-width="1.5" opacity="0.35"/>
  <polygon points="907.9,1583.9 923.1,1586.2 928.8,1600.5 919.2,1612.5 904.0,1610.3 898.3,1595.9" fill="none" stroke="url(#strokeB)" stroke-width="1.2" opacity="0.65"/>
  <polygon points="913.4,1592.8 918.3,1600.8 908.9,1601.0" fill="#00E5FF" opacity="0.22" filter="url(#softGlow)"/>
</g>


<g opacity="0.666" filter="url(#hardGlow)">
  <circle cx="79.6" cy="1510.0" r="38.1" fill="#0A1224" opacity="0.65"/>
  <circle cx="79.6" cy="1510.0" r="38.1" fill="none" stroke="url(#strokeA)" stroke-width="3.0" opacity="0.85"/>
  <circle cx="79.6" cy="1510.0" r="32.8" fill="none" stroke="#FFB300" stroke-width="1.5" opacity="0.35"/>
  <polygon points="92.2,1534.4 64.8,1533.1 52.2,1508.7 67.0,1485.6 94.4,1486.9 107.0,1511.3" fill="none" stroke="url(#strokeB)" stroke-width="1.2" opacity="0.65"/>
  <polygon points="80.8,1519.5 70.7,1506.3 87.2,1504.2" fill="#FFB300" opacity="0.22" filter="url(#softGlow)"/>
</g>


<g opacity="0.363" filter="url(#hardGlow)">
  <circle cx="68.5" cy="1479.2" r="15.9" fill="#0A1224" opacity="0.65"/>
  <circle cx="68.5" cy="1479.2" r="15.9" fill="none" stroke="url(#strokeA)" stroke-width="2.0" opacity="0.85"/>
  <circle cx="68.5" cy="1479.2" r="13.7" fill="none" stroke="#00E5FF" stroke-width="1.5" opacity="0.35"/>
  <polygon points="65.8,1468.0 76.8,1471.2 79.5,1482.4 71.2,1490.3 60.2,1487.1 57.5,1475.9" fill="none" stroke="url(#strokeB)" stroke-width="1.2" opacity="0.65"/>
  
</g>


<g opacity="0.467" filter="url(#hardGlow)">
  <circle cx="132.0" cy="1532.9" r="15.4" fill="#0A1224" opacity="0.65"/>
  <circle cx="132.0" cy="1532.9" r="15.4" fill="none" stroke="url(#strokeA)" stroke-width="2.0" opacity="0.85"/>
  <circle cx="132.0" cy="1532.9" r="13.3" fill="none" stroke="#00E5FF" stroke-width="1.5" opacity="0.35"/>
  <polygon points="134.6,1522.1 142.7,1529.7 140.1,1540.5 129.5,1543.7 121.4,1536.1 123.9,1525.3" fill="none" stroke="url(#strokeB)" stroke-width="1.2" opacity="0.65"/>
  <polygon points="134.2,1529.7 133.8,1536.4 128.2,1532.7" fill="#00E5FF" opacity="0.22" filter="url(#softGlow)"/>
</g>


<g opacity="0.667" filter="url(#hardGlow)">
  <circle cx="669.5" cy="75.4" r="53.0" fill="#0A1224" opacity="0.65"/>
  <circle cx="669.5" cy="75.4" r="53.0" fill="none" stroke="url(#strokeA)" stroke-width="4.2" opacity="0.85"/>
  <circle cx="669.5" cy="75.4" r="45.6" fill="none" stroke="#FFB300" stroke-width="1.6" opacity="0.35"/>
  <polygon points="680.0,38.7 706.5,66.1 696.1,102.8 659.1,112.1 632.6,84.8 643.0,48.1" fill="none" stroke="url(#strokeB)" stroke-width="1.3" opacity="0.65"/>
  <polygon points="677.4,64.6 675.0,87.6 656.3,74.1" fill="#FFB300" opacity="0.22" filter="url(#softGlow)"/>
</g>


<g opacity="0.369" filter="url(#hardGlow)">
  <circle cx="692.2" cy="134.7" r="22.0" fill="#0A1224" opacity="0.65"/>
  <circle cx="692.2" cy="134.7" r="22.0" fill="none" stroke="url(#strokeA)" stroke-width="2.0" opacity="0.85"/>
  <circle cx="692.2" cy="134.7" r="18.9" fill="none" stroke="#00E5FF" stroke-width="1.5" opacity="0.35"/>
  <polygon points="707.8,137.7 697.4,149.7 681.9,146.7 676.7,131.7 687.0,119.7 702.6,122.7" fill="none" stroke="url(#strokeB)" stroke-width="1.2" opacity="0.65"/>
  
</g>


<g opacity="0.364" filter="url(#hardGlow)">
  <circle cx="707.6" cy="42.2" r="24.2" fill="#0A1224" opacity="0.65"/>
  <circle cx="707.6" cy="42.2" r="24.2" fill="none" stroke="url(#strokeA)" stroke-width="2.0" opacity="0.85"/>
  <circle cx="707.6" cy="42.2" r="20.8" fill="none" stroke="#00E5FF" stroke-width="1.5" opacity="0.35"/>
  <polygon points="699.9,26.6 717.3,27.7 725.0,43.4 715.3,57.9 697.9,56.7 690.2,41.1" fill="none" stroke="url(#strokeB)" stroke-width="1.2" opacity="0.65"/>
  
</g>


<g opacity="0.823" filter="url(#hardGlow)">
  <circle cx="898.3" cy="1500.2" r="50.5" fill="#0A1224" opacity="0.65"/>
  <circle cx="898.3" cy="1500.2" r="50.5" fill="none" stroke="url(#strokeA)" stroke-width="4.0" opacity="0.85"/>
  <circle cx="898.3" cy="1500.2" r="43.5" fill="none" stroke="#FFB300" stroke-width="1.5" opacity="0.35"/>
  <polygon points="873.5,1473.5 909.0,1465.3 933.8,1492.0 923.1,1526.8 887.7,1535.0 862.9,1508.3" fill="none" stroke="url(#strokeB)" stroke-width="1.3" opacity="0.65"/>
  <polygon points="893.3,1488.4 911.0,1501.7 890.7,1510.3" fill="#FFB300" opacity="0.22" filter="url(#softGlow)"/>
</g>


<g opacity="0.587" filter="url(#hardGlow)">
  <circle cx="847.5" cy="1533.2" r="20.4" fill="#0A1224" opacity="0.65"/>
  <circle cx="847.5" cy="1533.2" r="20.4" fill="none" stroke="url(#strokeA)" stroke-width="2.0" opacity="0.85"/>
  <circle cx="847.5" cy="1533.2" r="17.5" fill="none" stroke="#00E5FF" stroke-width="1.5" opacity="0.35"/>
  <polygon points="855.8,1521.1 862.1,1534.3 853.8,1546.4 839.2,1545.2 832.8,1532.0 841.1,1519.9" fill="none" stroke="url(#strokeB)" stroke-width="1.2" opacity="0.65"/>
  <polygon points="851.6,1530.2 848.0,1538.3 842.8,1531.0" fill="#00E5FF" opacity="0.22" filter="url(#softGlow)"/>
</g>


<g opacity="0.712" filter="url(#hardGlow)">
  <circle cx="832.8" cy="1514.7" r="50.6" fill="#0A1224" opacity="0.65"/>
  <circle cx="832.8" cy="1514.7" r="50.6" fill="none" stroke="url(#strokeA)" stroke-width="4.0" opacity="0.85"/>
  <circle cx="832.8" cy="1514.7" r="43.5" fill="none" stroke="#FFB300" stroke-width="1.5" opacity="0.35"/>
  <polygon points="802.0,1495.2 834.3,1478.3 865.1,1497.9 863.6,1534.3 831.3,1551.1 800.5,1531.6" fill="none" stroke="url(#strokeB)" stroke-width="1.3" opacity="0.65"/>
  <polygon points="825.0,1504.6 845.4,1513.1 827.9,1526.5" fill="#FFB300" opacity="0.22" filter="url(#softGlow)"/>
</g>


<g opacity="0.352" filter="url(#hardGlow)">
  <circle cx="817.2" cy="1545.7" r="26.5" fill="#0A1224" opacity="0.65"/>
  <circle cx="817.2" cy="1545.7" r="26.5" fill="none" stroke="url(#strokeA)" stroke-width="2.1" opacity="0.85"/>
  <circle cx="817.2" cy="1545.7" r="22.8" fill="none" stroke="#00E5FF" stroke-width="1.5" opacity="0.35"/>
  <polygon points="800.6,1536.2 817.2,1526.6 833.7,1536.2 833.7,1555.3 817.2,1564.8 800.6,1555.3" fill="none" stroke="url(#strokeB)" stroke-width="1.2" opacity="0.65"/>
  <polygon points="812.9,1540.6 823.7,1544.6 814.9,1552.0" fill="#00E5FF" opacity="0.22" filter="url(#softGlow)"/>
</g>


<g opacity="0.397" transform="translate(156.7,232.7) rotate(-0.9)" filter="url(#softGlow)">
  <rect x="-89.5" y="-72.8" width="178.9" height="145.6" rx="14.6" fill="#050A12" opacity="0.25"/>
  <rect x="-89.5" y="-72.8" width="178.9" height="145.6" rx="14.6" fill="none" stroke="url(#strokeA)" stroke-width="7.3" opacity="0.85"/>
  <rect x="-77.8" y="-61.1" width="155.6" height="122.3" rx="10.2" fill="none" stroke="#FFB300" stroke-width="2.9" opacity="0.35"/>
</g>


<g opacity="0.354" transform="translate(854.7,1499.9) rotate(6.2)" filter="url(#softGlow)">
  <rect x="-67.8" y="-59.7" width="135.5" height="119.5" rx="11.9" fill="#050A12" opacity="0.25"/>
  <rect x="-67.8" y="-59.7" width="135.5" height="119.5" rx="11.9" fill="none" stroke="url(#strokeA)" stroke-width="6.0" opacity="0.85"/>
  <rect x="-58.2" y="-50.2" width="116.4" height="100.3" rx="8.4" fill="none" stroke="#00E5FF" stroke-width="2.4" opacity="0.35"/>
</g>


<g opacity="0.427" transform="translate(25.6,1379.8) rotate(1.2)" filter="url(#softGlow)">
  <rect x="-80.5" y="-61.3" width="161.0" height="122.6" rx="12.3" fill="#050A12" opacity="0.25"/>
  <rect x="-80.5" y="-61.3" width="161.0" height="122.6" rx="12.3" fill="none" stroke="url(#strokeA)" stroke-width="6.1" opacity="0.85"/>
  <rect x="-70.7" y="-51.5" width="141.4" height="103.0" rx="8.6" fill="none" stroke="#FFB300" stroke-width="2.5" opacity="0.35"/>
</g>


<g opacity="0.261" transform="translate(313.4,47.7) rotate(-3.1)" filter="url(#softGlow)">
  <rect x="-72.7" y="-59.8" width="145.4" height="119.5" rx="12.0" fill="#050A12" opacity="0.25"/>
  <rect x="-72.7" y="-59.8" width="145.4" height="119.5" rx="12.0" fill="none" stroke="url(#strokeA)" stroke-width="6.0" opacity="0.85"/>
  <rect x="-63.1" y="-50.2" width="126.2" height="100.4" rx="8.4" fill="none" stroke="#FFB300" stroke-width="2.4" opacity="0.35"/>
</g>


<g opacity="0.360" transform="translate(29.2,80.2) rotate(-4.9)" filter="url(#softGlow)">
  <rect x="-65.8" y="-57.1" width="131.6" height="114.1" rx="11.4" fill="#050A12" opacity="0.25"/>
  <rect x="-65.8" y="-57.1" width="131.6" height="114.1" rx="11.4" fill="none" stroke="url(#strokeA)" stroke-width="5.7" opacity="0.85"/>
  <rect x="-56.7" y="-47.9" width="113.4" height="95.9" rx="8.0" fill="none" stroke="#00E5FF" stroke-width="2.3" opacity="0.35"/>
</g>


<g opacity="0.388" transform="translate(27.8,126.4) rotate(-15.3)" filter="url(#softGlow)">
  <rect x="-49.9" y="-28.7" width="99.8" height="57.5" rx="17.6" fill="none" stroke="#FFB300" stroke-width="9.6" opacity="0.55"/>
  <rect x="-21.9" y="-14.4" width="99.8" height="57.5" rx="17.6" fill="none" stroke="url(#strokeA)" stroke-width="8.0" opacity="0.55"/>
</g>


<g opacity="0.447" transform="translate(166.1,1487.0) rotate(4.5)" filter="url(#softGlow)">
  <rect x="-41.8" y="-24.1" width="83.5" height="48.1" rx="14.7" fill="none" stroke="#00E5FF" stroke-width="8.0" opacity="0.55"/>
  <rect x="-18.4" y="-12.0" width="83.5" height="48.1" rx="14.7" fill="none" stroke="url(#strokeA)" stroke-width="6.7" opacity="0.55"/>
</g>


<g opacity="0.324" transform="translate(115.3,1436.3) rotate(7.6)" filter="url(#softGlow)">
  <rect x="-41.9" y="-24.1" width="83.8" height="48.2" rx="14.7" fill="none" stroke="#FFB300" stroke-width="8.0" opacity="0.55"/>
  <rect x="-18.4" y="-12.1" width="83.8" height="48.2" rx="14.7" fill="none" stroke="url(#strokeA)" stroke-width="6.7" opacity="0.55"/>
</g>


<g opacity="0.353" transform="translate(38.9,110.2) rotate(3.7)" filter="url(#softGlow)">
  <rect x="-39.9" y="-23.0" width="79.9" height="46.0" rx="14.1" fill="none" stroke="#00E5FF" stroke-width="7.7" opacity="0.55"/>
  <rect x="-17.6" y="-11.5" width="79.9" height="46.0" rx="14.1" fill="none" stroke="url(#strokeA)" stroke-width="6.4" opacity="0.55"/>
</g>


<g opacity="0.267" transform="translate(99.0,646.7) rotate(-6.1)" filter="url(#softGlow)">
  <rect x="-42.6" y="-24.5" width="85.2" height="49.0" rx="15.0" fill="none" stroke="#00E5FF" stroke-width="8.2" opacity="0.55"/>
  <rect x="-18.7" y="-12.3" width="85.2" height="49.0" rx="15.0" fill="none" stroke="url(#strokeA)" stroke-width="6.8" opacity="0.55"/>
</g>


<g opacity="0.315" transform="translate(735.2,1463.0) rotate(10.8)" filter="url(#softGlow)">
  <rect x="-28.3" y="-16.3" width="56.7" height="32.6" rx="10.0" fill="none" stroke="#00E5FF" stroke-width="5.4" opacity="0.55"/>
  <rect x="-12.5" y="-8.2" width="56.7" height="32.6" rx="10.0" fill="none" stroke="url(#strokeA)" stroke-width="4.5" opacity="0.55"/>
</g>


<g opacity="0.384" transform="translate(728.5,1486.3) rotate(-5.2)" filter="url(#softGlow)">
  <rect x="-28.4" y="-16.4" width="56.8" height="32.7" rx="10.0" fill="none" stroke="#FFB300" stroke-width="5.5" opacity="0.55"/>
  <rect x="-12.5" y="-8.2" width="56.8" height="32.7" rx="10.0" fill="none" stroke="url(#strokeA)" stroke-width="4.5" opacity="0.55"/>
</g>


<g opacity="0.387" transform="translate(84.8,1573.4) rotate(2.6)" filter="url(#softGlow)">
  <rect x="-32.5" y="-18.7" width="65.0" height="37.5" rx="11.4" fill="none" stroke="#FFB300" stroke-width="6.2" opacity="0.55"/>
  <rect x="-14.3" y="-9.4" width="65.0" height="37.5" rx="11.4" fill="none" stroke="url(#strokeA)" stroke-width="5.2" opacity="0.55"/>
</g>


<g opacity="0.204">
  <line x1="607.5" y1="1439.0" x2="607.5" y2="1504.5" stroke="#00E5FF" stroke-width="1.11" opacity="0.45"/>
  <rect x="603.2" y="1477.3" width="8.6" height="28.4" rx="2.9" fill="#0B1020" opacity="0.55" stroke="url(#strokeA)" stroke-width="1.2"/>
</g>

<g opacity="0.204">
  <line x1="566.5" y1="1412.6" x2="566.5" y2="1511.2" stroke="#00E5FF" stroke-width="1.40" opacity="0.45"/>
  <rect x="561.9" y="1470.3" width="9.1" height="42.3" rx="3.0" fill="#0B1020" opacity="0.55" stroke="url(#strokeA)" stroke-width="1.2"/>
</g>

<g opacity="0.204">
  <line x1="177.8" y1="1405.9" x2="177.8" y2="1512.8" stroke="#00E5FF" stroke-width="1.09" opacity="0.45"/>
  <rect x="172.4" y="1466.6" width="10.8" height="49.7" rx="3.6" fill="#0B1020" opacity="0.55" stroke="url(#strokeA)" stroke-width="1.2"/>
</g>

<g opacity="0.204">
  <line x1="288.4" y1="1455.7" x2="288.4" y2="1500.4" stroke="#00E5FF" stroke-width="1.47" opacity="0.45"/>
  <rect x="282.5" y="1479.4" width="11.8" height="24.0" rx="3.9" fill="#0B1020" opacity="0.55" stroke="url(#strokeA)" stroke-width="1.2"/>
</g>

<g opacity="0.204">
  <line x1="701.8" y1="1439.9" x2="701.8" y2="1504.3" stroke="#00E5FF" stroke-width="1.48" opacity="0.45"/>
  <rect x="696.0" y="1471.8" width="11.6" height="39.3" rx="3.9" fill="#0B1020" opacity="0.55" stroke="url(#strokeA)" stroke-width="1.2"/>
</g>

<g opacity="0.204">
  <line x1="774.3" y1="1453.3" x2="774.3" y2="1501.0" stroke="#00E5FF" stroke-width="1.11" opacity="0.45"/>
  <rect x="769.7" y="1480.9" width="9.2" height="21.1" rx="3.1" fill="#0B1020" opacity="0.55" stroke="url(#strokeA)" stroke-width="1.2"/>
</g>

<g opacity="0.204">
  <line x1="868.3" y1="1418.4" x2="868.3" y2="1509.7" stroke="#00E5FF" stroke-width="1.17" opacity="0.45"/>
  <rect x="863.6" y="1462.6" width="9.3" height="57.6" rx="3.1" fill="#0B1020" opacity="0.55" stroke="url(#strokeA)" stroke-width="1.2"/>
</g>

<g opacity="0.204">
  <line x1="267.1" y1="1422.4" x2="267.1" y2="1508.7" stroke="#00E5FF" stroke-width="1.38" opacity="0.45"/>
  <rect x="262.5" y="1473.3" width="9.2" height="36.3" rx="3.1" fill="#0B1020" opacity="0.55" stroke="url(#strokeA)" stroke-width="1.2"/>
</g>

<g opacity="0.204">
  <line x1="407.6" y1="1451.5" x2="407.6" y2="1501.4" stroke="#00E5FF" stroke-width="1.44" opacity="0.45"/>
  <rect x="402.0" y="1478.7" width="11.2" height="25.5" rx="3.7" fill="#0B1020" opacity="0.55" stroke="url(#strokeA)" stroke-width="1.2"/>
</g>

<g opacity="0.204">
  <line x1="532.9" y1="1447.0" x2="532.9" y2="1502.5" stroke="#00E5FF" stroke-width="1.70" opacity="0.45"/>
  <rect x="529.6" y="1477.5" width="6.5" height="27.9" rx="2.2" fill="#0B1020" opacity="0.55" stroke="url(#strokeA)" stroke-width="1.2"/>
</g>

<g opacity="0.204">
  <line x1="853.6" y1="1418.2" x2="853.6" y2="1509.8" stroke="#00E5FF" stroke-width="1.49" opacity="0.45"/>
  <rect x="848.7" y="1468.4" width="9.8" height="46.1" rx="3.3" fill="#0B1020" opacity="0.55" stroke="url(#strokeA)" stroke-width="1.2"/>
</g>

<g opacity="0.204">
  <line x1="350.9" y1="1410.4" x2="350.9" y2="1511.7" stroke="#00E5FF" stroke-width="1.71" opacity="0.45"/>
  <rect x="345.3" y="1470.0" width="11.1" height="42.9" rx="3.7" fill="#0B1020" opacity="0.55" stroke="url(#strokeA)" stroke-width="1.2"/>
</g>

<g opacity="0.204">
  <line x1="708.9" y1="1409.1" x2="708.9" y2="1512.0" stroke="#00E5FF" stroke-width="1.83" opacity="0.45"/>
  <rect x="704.1" y="1464.1" width="9.6" height="54.8" rx="3.2" fill="#0B1020" opacity="0.55" stroke="url(#strokeA)" stroke-width="1.2"/>
</g>
<circle cx="808.0" cy="1587.5" r="3.2" fill="#FFB300" opacity="0.25" filter="url(#softGlow)"/>
<circle cx="776.2" cy="738.2" r="2.6" fill="#FFB300" opacity="0.24" filter="url(#softGlow)"/>
<circle cx="19.9" cy="176.0" r="1.8" fill="#FFB300" opacity="0.28" filter="url(#softGlow)"/>
<circle cx="14.6" cy="7.8" r="1.6" fill="#FFB300" opacity="0.26" filter="url(#softGlow)"/>
<circle cx="259.7" cy="102.6" r="1.7" fill="#FFB300" opacity="0.20" filter="url(#softGlow)"/>
<circle cx="56.4" cy="1536.1" r="2.0" fill="#FFB300" opacity="0.26" filter="url(#softGlow)"/>
<circle cx="124.4" cy="1154.2" r="2.5" fill="#FFB300" opacity="0.25" filter="url(#softGlow)"/>
<circle cx="116.5" cy="1524.4" r="1.5" fill="#FFB300" opacity="0.11" filter="url(#softGlow)"/>
<circle cx="750.7" cy="1489.8" r="1.7" fill="#FFB300" opacity="0.10" filter="url(#softGlow)"/>
<circle cx="795.1" cy="37.1" r="2.1" fill="#FFB300" opacity="0.16" filter="url(#softGlow)"/>
<circle cx="654.2" cy="1422.8" r="1.9" fill="#FFB300" opacity="0.24" filter="url(#softGlow)"/>
<circle cx="80.0" cy="31.9" r="2.0" fill="#FFB300" opacity="0.24" filter="url(#softGlow)"/>
<circle cx="105.9" cy="29.7" r="1.6" fill="#FFB300" opacity="0.18" filter="url(#softGlow)"/>
<circle cx="885.6" cy="1533.8" r="2.9" fill="#FFB300" opacity="0.26" filter="url(#softGlow)"/>
<circle cx="162.2" cy="41.2" r="1.6" fill="#FFB300" opacity="0.19" filter="url(#softGlow)"/>
<circle cx="381.9" cy="1494.2" r="1.6" fill="#FFB300" opacity="0.26" filter="url(#softGlow)"/>
<circle cx="849.9" cy="37.7" r="1.4" fill="#FFB300" opacity="0.18" filter="url(#softGlow)"/>
<circle cx="792.4" cy="62.6" r="1.7" fill="#FFB300" opacity="0.13" filter="url(#softGlow)"/>
<circle cx="784.0" cy="373.7" r="1.4" fill="#FFB300" opacity="0.24" filter="url(#softGlow)"/>
<circle cx="828.0" cy="337.3" r="2.4" fill="#FFB300" opacity="0.17" filter="url(#softGlow)"/>
<circle cx="219.0" cy="59.4" r="2.1" fill="#FFB300" opacity="0.10" filter="url(#softGlow)"/>
<circle cx="398.6" cy="144.3" r="2.1" fill="#FFB300" opacity="0.24" filter="url(#softGlow)"/>
<circle cx="741.9" cy="1533.3" r="2.4" fill="#FFB300" opacity="0.10" filter="url(#softGlow)"/>
<circle cx="33.1" cy="1443.4" r="2.3" fill="#FFB300" opacity="0.19" filter="url(#softGlow)"/>
<circle cx="139.9" cy="1225.1" r="2.5" fill="#FFB300" opacity="0.23" filter="url(#softGlow)"/>
<circle cx="737.3" cy="127.6" r="1.7" fill="#FFB300" opacity="0.23" filter="url(#softGlow)"/>
</svg>