<svg xmlns="http://www.w3.org/2000/svg" width="1920" height="1080" viewBox="0 0 1920 1080" preserveAspectRatio="xMidYMid slice">
<defs>
  <linearGradient id="g0" x1="0" y1="0" x2="1" y2="1">
    <stop offset="0" stop-color="#0B1020"/>
    <stop offset="0.55" stop-color="#E11D48" stop-opacity="0.9"/>
    <stop offset="1" stop-color="#020617"/>
  </linearGradient>
  <radialGradient id="g1" cx="20%" cy="15%" r="70%">
    <stop offset="0" stop-color="#7C3AED" stop-opacity="0.38"/>
    <stop offset="0.6" stop-color="#7C3AED" stop-opacity="0.08"/>
    <stop offset="1" stop-color="#7C3AED" stop-opacity="0"/>
  </radialGradient>
  <radialGradient id="g2" cx="85%" cy="80%" r="75%">
    <stop offset="0" stop-color="#7C3AED" stop-opacity="0.28"/>
    <stop offset="0.65" stop-color="#7C3AED" stop-opacity="0.06"/>
    <stop offset="1" stop-color="#7C3AED" stop-opacity="0"/>
  </radialGradient>
  <filter id="softGlow" x="-30%" y="-30%" width="160%" height="160%">
    <feGaussianBlur stdDeviation="12" result="b"/>
    <feMerge>
      <feMergeNode in="b"/>
      <feMergeNode in="SourceGraphic"/>
    </feMerge>
  </filter>
  <filter id="hardGlow" x="-40%" y="-40%" width="180%" height="180%">
    <feGaussianBlur stdDeviation="6" result="b"/>
    <feColorMatrix in="b" type="matrix" values="1 0 0 0 0  0 1 0 0 0  0 0 1 0 0  0 0 0 18 -7" result="c"/>
    <feMerge>
      <feMergeNode in="c"/>
      <feMergeNode in="SourceGraphic"/>
    </feMerge>
  </filter>
  <linearGradient id="strokeA" x1="0" y1="0" x2="1" y2="0">
    <stop offset="0" stop-color="#7C3AED" stop-opacity="0.9"/>
    <stop offset="0.5" stop-color="#FFFFFF" stop-opacity="0.25"/>
    <stop offset="1" stop-color="#7C3AED" stop-opacity="0.7"/>
  </linearGradient>
  <linearGradient id="strokeB" x1="0" y1="0" x2="0" y2="1">
    <stop offset="0" stop-color="#FFFFFF" stop-opacity="0.18"/>
    <stop offset="1" stop-color="#7C3AED" stop-opacity="0.55"/>
  </linearGradient>
</defs>
<rect x="0" y="0" width="1920" height="1080" fill="url(#g0)"/>
<rect x="0" y="0" width="1920" height="1080" fill="url(#g1)"/>
<rect x="0" y="0" width="1920" height="1080" fill="url(#g2)"/>


<defs>
  <radialGradient id="vign" cx="0.5000" cy="0.5093" r="0.85">
    <stop offset="0" stop-color="#000000" stop-opacity="0"/>
    <stop offset="0.55" stop-color="#000000" stop-opacity="0.217"/>
    <stop offset="1" stop-color="#000000" stop-opacity="0.620"/>
  </radialGradient>
</defs>
<rect x="0" y="0" width="1920" height="1080" fill="url(#vign)"/>

<g opacity="0.193" filter="url(#softGlow)"><path d="M 108.7,705.3 L 191.1,705.3 L 191.1,1070.8 L 92.3,1070.8 L 92.3,393.2 " fill="none" stroke="url(#strokeB)" stroke-width="1.14" stroke-linecap="round" stroke-linejoin="round"/><circle cx="191.1" cy="1070.8" r="2.5" fill="#E11D48" opacity="0.45"/><circle cx="92.3" cy="393.2" r="2.9" fill="#E11D48" opacity="0.45"/><circle cx="92.3" cy="1070.8" r="2.2" fill="#E11D48" opacity="0.45"/></g>
<g opacity="0.193" filter="url(#softGlow)"><path d="M 14.4,36.8 L 82.7,36.8 L 82.7,395.5 L 515.9,395.5 L 515.9,83.9 " fill="none" stroke="url(#strokeB)" stroke-width="2.02" stroke-linecap="round" stroke-linejoin="round"/><circle cx="14.4" cy="36.8" r="3.2" fill="#E11D48" opacity="0.45"/><circle cx="515.9" cy="395.5" r="2.6" fill="#E11D48" opacity="0.45"/><circle cx="82.7" cy="395.5" r="3.4" fill="#E11D48" opacity="0.45"/></g>
<g opacity="0.193" filter="url(#softGlow)"><path d="M 153.3,867.6 L 275.8,867.6 L 275.8,878.2 L 165.3,878.2 L 165.3,900.5 " fill="none" stroke="url(#strokeB)" stroke-width="1.59" stroke-linecap="round" stroke-linejoin="round"/><circle cx="275.8" cy="878.2" r="4.0" fill="#E11D48" opacity="0.45"/><circle cx="275.8" cy="867.6" r="2.4" fill="#E11D48" opacity="0.45"/><circle cx="165.3" cy="878.2" r="2.6" fill="#E11D48" opacity="0.45"/></g>
<g opacity="0.193" filter="url(#softGlow)"><path d="M 1729.3,108.5 L 145.3,108.5 L 145.3,572.9 L 1861.2,572.9 L 1861.2,900.2 " fill="none" stroke="url(#strokeB)" stroke-width="1.96" stroke-linecap="round" stroke-linejoin="round"/><circle cx="1861.2" cy="900.2" r="3.0" fill="#E11D48" opacity="0.45"/><circle cx="1729.3" cy="108.5" r="3.3" fill="#E11D48" opacity="0.45"/><circle cx="145.3" cy="572.9" r="2.2" fill="#E11D48" opacity="0.45"/></g>
<g opacity="0.193" filter="url(#softGlow)"><path d="M 166.7,966.0 L 136.2,966.0 L 136.2,912.2 L 1907.8,912.2 L 1907.8,534.8 " fill="none" stroke="url(#strokeB)" stroke-width="2.13" stroke-linecap="round" stroke-linejoin="round"/><circle cx="1907.8" cy="534.8" r="4.1" fill="#E11D48" opacity="0.45"/><circle cx="166.7" cy="966.0" r="2.4" fill="#E11D48" opacity="0.45"/><circle cx="136.2" cy="966.0" r="2.3" fill="#E11D48" opacity="0.45"/></g>
<g opacity="0.193" filter="url(#softGlow)"><path d="M 1884.3,959.0 L 9.3,959.0 L 9.3,118.1 L 25.1,118.1 L 25.1,918.6 " fill="none" stroke="url(#strokeB)" stroke-width="1.66" stroke-linecap="round" stroke-linejoin="round"/><circle cx="9.3" cy="118.1" r="3.4" fill="#E11D48" opacity="0.45"/><circle cx="25.1" cy="918.6" r="2.5" fill="#E11D48" opacity="0.45"/><circle cx="25.1" cy="118.1" r="2.5" fill="#E11D48" opacity="0.45"/></g>
<g opacity="0.193" filter="url(#softGlow)"><path d="M 1709.1,968.1 L 82.4,968.1 L 82.4,464.2 L 90.5,464.2 L 90.5,178.2 " fill="none" stroke="url(#strokeB)" stroke-width="1.46" stroke-linecap="round" stroke-linejoin="round"/><circle cx="90.5" cy="464.2" r="4.1" fill="#E11D48" opacity="0.45"/><circle cx="82.4" cy="464.2" r="3.5" fill="#E11D48" opacity="0.45"/><circle cx="90.5" cy="178.2" r="3.6" fill="#E11D48" opacity="0.45"/></g>
<g opacity="0.193" filter="url(#softGlow)"><path d="M 1693.1,1069.9 L 112.6,1069.9 L 112.6,78.4 L 204.1,78.4 L 204.1,860.0 " fill="none" stroke="url(#strokeB)" stroke-width="2.15" stroke-linecap="round" stroke-linejoin="round"/><circle cx="112.6" cy="1069.9" r="2.3" fill="#E11D48" opacity="0.45"/><circle cx="1693.1" cy="1069.9" r="2.4" fill="#E11D48" opacity="0.45"/><circle cx="204.1" cy="78.4" r="2.6" fill="#E11D48" opacity="0.45"/></g>
<g opacity="0.193" filter="url(#softGlow)"><path d="M 1704.9,84.4 L 1782.8,84.4 L 1782.8,142.4 L 7.7,142.4 L 7.7,37.2 " fill="none" stroke="url(#strokeB)" stroke-width="2.16" stroke-linecap="round" stroke-linejoin="round"/><circle cx="7.7" cy="142.4" r="3.3" fill="#E11D48" opacity="0.45"/><circle cx="1782.8" cy="84.4" r="3.5" fill="#E11D48" opacity="0.45"/><circle cx="7.7" cy="37.2" r="3.6" fill="#E11D48" opacity="0.45"/></g>
<g opacity="0.193" filter="url(#softGlow)"><path d="M 126.2,17.5 L 160.9,17.5 L 160.9,127.5 L 76.8,127.5 L 76.8,912.9 " fill="none" stroke="url(#strokeB)" stroke-width="2.07" stroke-linecap="round" stroke-linejoin="round"/><circle cx="76.8" cy="127.5" r="3.5" fill="#E11D48" opacity="0.45"/><circle cx="160.9" cy="17.5" r="2.3" fill="#E11D48" opacity="0.45"/><circle cx="126.2" cy="17.5" r="2.7" fill="#E11D48" opacity="0.45"/></g>
<g opacity="0.193" filter="url(#softGlow)"><path d="M 32.5,1005.8 L 654.9,1005.8 L 654.9,1056.4 L 7.5,1056.4 L 7.5,1003.4 " fill="none" stroke="url(#strokeB)" stroke-width="1.97" stroke-linecap="round" stroke-linejoin="round"/><circle cx="7.5" cy="1056.4" r="4.2" fill="#E11D48" opacity="0.45"/><circle cx="7.5" cy="1003.4" r="2.0" fill="#E11D48" opacity="0.45"/><circle cx="32.5" cy="1005.8" r="2.7" fill="#E11D48" opacity="0.45"/></g>
<g opacity="0.193" filter="url(#softGlow)"><path d="M 1915.1,175.4 L 1820.5,175.4 L 1820.5,880.6 L 160.8,880.6 L 160.8,780.2 " fill="none" stroke="url(#strokeB)" stroke-width="2.16" stroke-linecap="round" stroke-linejoin="round"/><circle cx="1820.5" cy="880.6" r="2.2" fill="#E11D48" opacity="0.45"/><circle cx="1820.5" cy="175.4" r="2.8" fill="#E11D48" opacity="0.45"/><circle cx="1915.1" cy="175.4" r="4.0" fill="#E11D48" opacity="0.45"/></g>
<g opacity="0.193" filter="url(#softGlow)"><path d="M 1244.7,1073.2 L 207.8,1073.2 L 207.8,182.6 L 29.3,182.6 L 29.3,840.5 " fill="none" stroke="url(#strokeB)" stroke-width="1.84" stroke-linecap="round" stroke-linejoin="round"/><circle cx="29.3" cy="182.6" r="2.5" fill="#E11D48" opacity="0.45"/><circle cx="207.8" cy="1073.2" r="2.7" fill="#E11D48" opacity="0.45"/><circle cx="207.8" cy="182.6" r="3.4" fill="#E11D48" opacity="0.45"/></g>
<g opacity="0.193" filter="url(#softGlow)"><path d="M 117.3,14.1 L 164.7,14.1 L 164.7,1054.8 L 1701.3,1054.8 L 1701.3,84.1 " fill="none" stroke="url(#strokeB)" stroke-width="1.95" stroke-linecap="round" stroke-linejoin="round"/><circle cx="1701.3" cy="84.1" r="2.3" fill="#E11D48" opacity="0.45"/><circle cx="1701.3" cy="1054.8" r="3.6" fill="#E11D48" opacity="0.45"/><circle cx="164.7" cy="1054.8" r="2.3" fill="#E11D48" opacity="0.45"/></g>
<g opacity="0.193" filter="url(#softGlow)"><path d="M 1920.0,1015.6 L 175.3,1015.6 L 175.3,100.9 L 1794.2,100.9 L 1794.2,981.8 " fill="none" stroke="url(#strokeB)" stroke-width="1.93" stroke-linecap="round" stroke-linejoin="round"/><circle cx="1920.0" cy="1015.6" r="3.3" fill="#E11D48" opacity="0.45"/><circle cx="175.3" cy="1015.6" r="2.5" fill="#E11D48" opacity="0.45"/><circle cx="175.3" cy="100.9" r="3.4" fill="#E11D48" opacity="0.45"/></g>
<g opacity="0.193" filter="url(#softGlow)"><path d="M 1827.0,95.9 L 1731.7,95.9 L 1731.7,31.9 L 1707.9,31.9 L 1707.9,1001.8 " fill="none" stroke="url(#strokeB)" stroke-width="1.52" stroke-linecap="round" stroke-linejoin="round"/><circle cx="1707.9" cy="1001.8" r="3.0" fill="#E11D48" opacity="0.45"/><circle cx="1707.9" cy="31.9" r="2.5" fill="#E11D48" opacity="0.45"/><circle cx="1827.0" cy="95.9" r="3.7" fill="#E11D48" opacity="0.45"/></g>
<g opacity="0.193" filter="url(#softGlow)"><path d="M 45.7,940.8 L 75.2,940.8 L 75.2,65.1 L 1758.5,65.1 L 1758.5,890.2 " fill="none" stroke="url(#strokeB)" stroke-width="1.88" stroke-linecap="round" stroke-linejoin="round"/><circle cx="75.2" cy="65.1" r="3.1" fill="#E11D48" opacity="0.45"/><circle cx="1758.5" cy="890.2" r="3.5" fill="#E11D48" opacity="0.45"/><circle cx="1758.5" cy="65.1" r="4.0" fill="#E11D48" opacity="0.45"/></g>

<g opacity="0.721" filter="url(#hardGlow)">
  <circle cx="137.9" cy="149.7" r="46.4" fill="#0A1224" opacity="0.65"/>
  <circle cx="137.9" cy="149.7" r="46.4" fill="none" stroke="url(#strokeA)" stroke-width="3.7" opacity="0.85"/>
  <circle cx="137.9" cy="149.7" r="39.9" fill="none" stroke="#22C55E" stroke-width="1.5" opacity="0.35"/>
  <polygon points="104.9,144.6 125.8,118.5 158.8,123.6 170.9,154.7 150.0,180.8 117.0,175.7" fill="none" stroke="url(#strokeB)" stroke-width="1.2" opacity="0.65"/>
  <polygon points="127.6,144.0 147.9,143.6 138.1,161.3" fill="#22C55E" opacity="0.22" filter="url(#softGlow)"/>
</g>


<g opacity="0.579" filter="url(#hardGlow)">
  <circle cx="72.8" cy="123.2" r="18.6" fill="#0A1224" opacity="0.65"/>
  <circle cx="72.8" cy="123.2" r="18.6" fill="none" stroke="url(#strokeA)" stroke-width="2.0" opacity="0.85"/>
  <circle cx="72.8" cy="123.2" r="16.0" fill="none" stroke="#E11D48" stroke-width="1.5" opacity="0.35"/>
  <polygon points="62.9,132.3 60.0,119.2 69.9,110.2 82.7,114.2 85.5,127.3 75.7,136.3" fill="none" stroke="url(#strokeB)" stroke-width="1.2" opacity="0.65"/>
  <polygon points="68.5,125.0 73.4,118.6 76.5,126.1" fill="#E11D48" opacity="0.22" filter="url(#softGlow)"/>
</g>


<g opacity="0.504" filter="url(#hardGlow)">
  <circle cx="178.0" cy="133.7" r="16.3" fill="#0A1224" opacity="0.65"/>
  <circle cx="178.0" cy="133.7" r="16.3" fill="none" stroke="url(#strokeA)" stroke-width="2.0" opacity="0.85"/>
  <circle cx="178.0" cy="133.7" r="14.0" fill="none" stroke="#E11D48" stroke-width="1.5" opacity="0.35"/>
  <polygon points="181.8,144.9 170.3,142.5 166.5,131.4 174.3,122.6 185.8,124.9 189.6,136.0" fill="none" stroke="url(#strokeB)" stroke-width="1.2" opacity="0.65"/>
  
</g>


<g opacity="0.794" filter="url(#hardGlow)">
  <circle cx="47.7" cy="17.3" r="53.1" fill="#0A1224" opacity="0.65"/>
  <circle cx="47.7" cy="17.3" r="53.1" fill="none" stroke="url(#strokeA)" stroke-width="4.3" opacity="0.85"/>
  <circle cx="47.7" cy="17.3" r="45.7" fill="none" stroke="#22C55E" stroke-width="1.6" opacity="0.35"/>
  <polygon points="58.6,54.0 21.4,45.0 10.5,8.4 36.9,-19.4 74.1,-10.5 85.0,26.2" fill="none" stroke="url(#strokeB)" stroke-width="1.3" opacity="0.65"/>
  <polygon points="46.9,30.6 36.6,9.9 59.7,11.3" fill="#22C55E" opacity="0.22" filter="url(#softGlow)"/>
</g>


<g opacity="0.602" filter="url(#hardGlow)">
  <circle cx="-15.8" cy="47.7" r="24.7" fill="#0A1224" opacity="0.65"/>
  <circle cx="-15.8" cy="47.7" r="24.7" fill="none" stroke="url(#strokeA)" stroke-width="2.0" opacity="0.85"/>
  <circle cx="-15.8" cy="47.7" r="21.2" fill="none" stroke="#E11D48" stroke-width="1.5" opacity="0.35"/>
  <polygon points="1.6,51.0 -9.9,64.5 -27.4,61.2 -33.3,44.5 -21.8,31.0 -4.3,34.2" fill="none" stroke="url(#strokeB)" stroke-width="1.2" opacity="0.65"/>
  <polygon points="-10.5,50.9 -21.3,50.8 -15.8,41.5" fill="#E11D48" opacity="0.22" filter="url(#softGlow)"/>
</g>


<g opacity="0.496" filter="url(#hardGlow)">
  <circle cx="33.0" cy="-27.1" r="19.6" fill="#0A1224" opacity="0.65"/>
  <circle cx="33.0" cy="-27.1" r="19.6" fill="none" stroke="url(#strokeA)" stroke-width="2.0" opacity="0.85"/>
  <circle cx="33.0" cy="-27.1" r="16.8" fill="none" stroke="#E11D48" stroke-width="1.5" opacity="0.35"/>
  <polygon points="46.1,-32.4 44.2,-18.4 31.1,-13.1 20.0,-21.7 21.9,-35.7 34.9,-41.0" fill="none" stroke="url(#strokeB)" stroke-width="1.2" opacity="0.65"/>
  <polygon points="38.0,-27.3 30.7,-22.7 30.4,-31.2" fill="#E11D48" opacity="0.22" filter="url(#softGlow)"/>
</g>


<g opacity="0.763" filter="url(#hardGlow)">
  <circle cx="1749.0" cy="619.1" r="41.7" fill="#0A1224" opacity="0.65"/>
  <circle cx="1749.0" cy="619.1" r="41.7" fill="none" stroke="url(#strokeA)" stroke-width="3.3" opacity="0.85"/>
  <circle cx="1749.0" cy="619.1" r="35.8" fill="none" stroke="#22C55E" stroke-width="1.5" opacity="0.35"/>
  <polygon points="1744.3,648.8 1721.0,629.9 1725.7,600.3 1753.7,589.5 1777.0,608.4 1772.3,638.0" fill="none" stroke="url(#strokeB)" stroke-width="1.2" opacity="0.65"/>
  <polygon points="1743.9,628.3 1743.6,610.2 1759.5,618.9" fill="#22C55E" opacity="0.22" filter="url(#softGlow)"/>
</g>


<g opacity="0.456" filter="url(#hardGlow)">
  <circle cx="1793.1" cy="663.4" r="22.3" fill="#0A1224" opacity="0.65"/>
  <circle cx="1793.1" cy="663.4" r="22.3" fill="none" stroke="url(#strokeA)" stroke-width="2.0" opacity="0.85"/>
  <circle cx="1793.1" cy="663.4" r="19.2" fill="none" stroke="#E11D48" stroke-width="1.5" opacity="0.35"/>
  <polygon points="1809.0,661.8 1802.4,676.4 1786.5,678.0 1777.1,665.0 1783.7,650.4 1799.7,648.8" fill="none" stroke="url(#strokeB)" stroke-width="1.2" opacity="0.65"/>
  
</g>


<g opacity="0.721" filter="url(#hardGlow)">
  <circle cx="824.9" cy="995.0" r="40.9" fill="#0A1224" opacity="0.65"/>
  <circle cx="824.9" cy="995.0" r="40.9" fill="none" stroke="url(#strokeA)" stroke-width="3.3" opacity="0.85"/>
  <circle cx="824.9" cy="995.0" r="35.2" fill="none" stroke="#22C55E" stroke-width="1.5" opacity="0.35"/>
  <polygon points="811.2,968.9 840.6,970.1 854.3,996.2 838.5,1021.1 809.1,1019.8 795.5,993.8" fill="none" stroke="url(#strokeB)" stroke-width="1.2" opacity="0.65"/>
  <polygon points="823.5,984.8 834.4,998.9 816.7,1001.3" fill="#22C55E" opacity="0.22" filter="url(#softGlow)"/>
</g>


<g opacity="0.516" filter="url(#hardGlow)">
  <circle cx="771.0" cy="987.5" r="19.4" fill="#0A1224" opacity="0.65"/>
  <circle cx="771.0" cy="987.5" r="19.4" fill="none" stroke="url(#strokeA)" stroke-width="2.0" opacity="0.85"/>
  <circle cx="771.0" cy="987.5" r="16.7" fill="none" stroke="#E11D48" stroke-width="1.5" opacity="0.35"/>
  <polygon points="777.0,974.9 784.9,986.4 778.9,999.0 765.0,1000.1 757.1,988.6 763.1,976.0" fill="none" stroke="url(#strokeB)" stroke-width="1.2" opacity="0.65"/>
  <polygon points="774.5,984.0 772.2,992.2 766.3,986.2" fill="#E11D48" opacity="0.22" filter="url(#softGlow)"/>
</g>


<g opacity="0.843" filter="url(#hardGlow)">
  <circle cx="1868.9" cy="511.2" r="40.5" fill="#0A1224" opacity="0.65"/>
  <circle cx="1868.9" cy="511.2" r="40.5" fill="none" stroke="url(#strokeA)" stroke-width="3.2" opacity="0.85"/>
  <circle cx="1868.9" cy="511.2" r="34.8" fill="none" stroke="#22C55E" stroke-width="1.5" opacity="0.35"/>
  <polygon points="1894.3,496.9 1894.0,526.0 1868.6,540.3 1843.5,525.5 1843.8,496.3 1869.2,482.0" fill="none" stroke="url(#strokeB)" stroke-width="1.2" opacity="0.65"/>
  <polygon points="1878.9,509.5 1865.3,520.7 1862.4,503.3" fill="#22C55E" opacity="0.22" filter="url(#softGlow)"/>
</g>


<g opacity="0.388" filter="url(#hardGlow)">
  <circle cx="1843.4" cy="495.3" r="18.8" fill="#0A1224" opacity="0.65"/>
  <circle cx="1843.4" cy="495.3" r="18.8" fill="none" stroke="url(#strokeA)" stroke-width="2.0" opacity="0.85"/>
  <circle cx="1843.4" cy="495.3" r="16.2" fill="none" stroke="#E11D48" stroke-width="1.5" opacity="0.35"/>
  <polygon points="1832.4,503.2 1831.1,489.7 1842.1,481.8 1854.4,487.4 1855.7,500.9 1844.7,508.8" fill="none" stroke="url(#strokeB)" stroke-width="1.2" opacity="0.65"/>
  <polygon points="1838.8,496.6 1844.6,490.7 1846.8,498.6" fill="#E11D48" opacity="0.22" filter="url(#softGlow)"/>
</g>


<g opacity="0.639" filter="url(#hardGlow)">
  <circle cx="1833.0" cy="463.7" r="21.4" fill="#0A1224" opacity="0.65"/>
  <circle cx="1833.0" cy="463.7" r="21.4" fill="none" stroke="url(#strokeA)" stroke-width="2.0" opacity="0.85"/>
  <circle cx="1833.0" cy="463.7" r="18.4" fill="none" stroke="#E11D48" stroke-width="1.5" opacity="0.35"/>
  <polygon points="1840.6,477.1 1825.1,477.0 1817.5,463.6 1825.3,450.2 1840.8,450.4 1848.4,463.8" fill="none" stroke="url(#strokeB)" stroke-width="1.2" opacity="0.65"/>
  
</g>


<g opacity="0.642" filter="url(#hardGlow)">
  <circle cx="1830.7" cy="524.4" r="18.8" fill="#0A1224" opacity="0.65"/>
  <circle cx="1830.7" cy="524.4" r="18.8" fill="none" stroke="url(#strokeA)" stroke-width="2.0" opacity="0.85"/>
  <circle cx="1830.7" cy="524.4" r="16.2" fill="none" stroke="#E11D48" stroke-width="1.5" opacity="0.35"/>
  <polygon points="1830.9,510.8 1842.6,517.8 1842.3,531.4 1830.5,537.9 1818.9,531.0 1819.1,517.4" fill="none" stroke="url(#strokeB)" stroke-width="1.2" opacity="0.65"/>
  
</g>


<g opacity="0.743" filter="url(#hardGlow)">
  <circle cx="44.6" cy="73.0" r="65.0" fill="#0A1224" opacity="0.65"/>
  <circle cx="44.6" cy="73.0" r="65.0" fill="none" stroke="url(#strokeA)" stroke-width="5.2" opacity="0.85"/>
  <circle cx="44.6" cy="73.0" r="55.9" fill="none" stroke="#22C55E" stroke-width="2.0" opacity="0.35"/>
  <polygon points="4.4,48.9 45.4,26.2 85.5,50.3 84.7,97.1 43.8,119.8 3.6,95.7" fill="none" stroke="url(#strokeB)" stroke-width="1.6" opacity="0.65"/>
  <polygon points="34.2,60.3 60.7,70.4 38.7,88.3" fill="#22C55E" opacity="0.22" filter="url(#softGlow)"/>
</g>


<g opacity="0.513" filter="url(#hardGlow)">
  <circle cx="27.4" cy="26.8" r="33.1" fill="#0A1224" opacity="0.65"/>
  <circle cx="27.4" cy="26.8" r="33.1" fill="none" stroke="url(#strokeA)" stroke-width="2.6" opacity="0.85"/>
  <circle cx="27.4" cy="26.8" r="28.4" fill="none" stroke="#E11D48" stroke-width="1.5" opacity="0.35"/>
  <polygon points="15.5,6.1 39.3,6.1 51.2,26.8 39.3,47.4 15.5,47.4 3.6,26.8" fill="none" stroke="url(#strokeB)" stroke-width="1.2" opacity="0.65"/>
  <polygon points="25.9,18.5 35.2,29.6 21.0,32.1" fill="#E11D48" opacity="0.22" filter="url(#softGlow)"/>
</g>


<g opacity="0.430" transform="translate(51.4,125.9) rotate(9.9)" filter="url(#softGlow)">
  <rect x="-88.7" y="-63.0" width="177.4" height="125.9" rx="12.6" fill="#050A12" opacity="0.25"/>
  <rect x="-88.7" y="-63.0" width="177.4" height="125.9" rx="12.6" fill="none" stroke="url(#strokeA)" stroke-width="6.3" opacity="0.85"/>
  <rect x="-78.6" y="-52.9" width="157.3" height="105.8" rx="8.8" fill="none" stroke="#22C55E" stroke-width="2.5" opacity="0.35"/>
</g>


<g opacity="0.335" transform="translate(1735.1,906.1) rotate(-1.6)" filter="url(#softGlow)">
  <rect x="-86.1" y="-68.7" width="172.3" height="137.3" rx="13.7" fill="#050A12" opacity="0.25"/>
  <rect x="-86.1" y="-68.7" width="172.3" height="137.3" rx="13.7" fill="none" stroke="url(#strokeA)" stroke-width="6.9" opacity="0.85"/>
  <rect x="-75.1" y="-57.7" width="150.3" height="115.3" rx="9.6" fill="none" stroke="#22C55E" stroke-width="2.7" opacity="0.35"/>
</g>


<g opacity="0.379" transform="translate(1893.5,225.7) rotate(2.3)" filter="url(#softGlow)">
  <rect x="-85.0" y="-75.2" width="170.0" height="150.3" rx="15.0" fill="#050A12" opacity="0.25"/>
  <rect x="-85.0" y="-75.2" width="170.0" height="150.3" rx="15.0" fill="none" stroke="url(#strokeA)" stroke-width="7.5" opacity="0.85"/>
  <rect x="-73.0" y="-63.1" width="146.0" height="126.3" rx="10.5" fill="none" stroke="#22C55E" stroke-width="3.0" opacity="0.35"/>
</g>


<g opacity="0.387" transform="translate(1878.0,269.1) rotate(-7.2)" filter="url(#softGlow)">
  <rect x="-90.0" y="-70.0" width="180.1" height="139.9" rx="14.0" fill="#050A12" opacity="0.25"/>
  <rect x="-90.0" y="-70.0" width="180.1" height="139.9" rx="14.0" fill="none" stroke="url(#strokeA)" stroke-width="7.0" opacity="0.85"/>
  <rect x="-78.8" y="-58.8" width="157.7" height="117.6" rx="9.8" fill="none" stroke="#22C55E" stroke-width="2.8" opacity="0.35"/>
</g>


<g opacity="0.365" transform="translate(1846.2,253.8) rotate(2.2)" filter="url(#softGlow)">
  <rect x="-105.9" y="-97.0" width="211.9" height="194.1" rx="19.4" fill="#050A12" opacity="0.25"/>
  <rect x="-105.9" y="-97.0" width="211.9" height="194.1" rx="19.4" fill="none" stroke="url(#strokeA)" stroke-width="9.7" opacity="0.85"/>
  <rect x="-90.4" y="-81.5" width="180.8" height="163.0" rx="13.6" fill="none" stroke="#22C55E" stroke-width="3.9" opacity="0.35"/>
</g>


<g opacity="0.433" transform="translate(1807.5,975.2) rotate(-10.9)" filter="url(#softGlow)">
  <rect x="-57.7" y="-33.2" width="115.4" height="66.5" rx="20.3" fill="none" stroke="#22C55E" stroke-width="11.1" opacity="0.55"/>
  <rect x="-25.4" y="-16.6" width="115.4" height="66.5" rx="20.3" fill="none" stroke="url(#strokeA)" stroke-width="9.2" opacity="0.55"/>
</g>


<g opacity="0.283" transform="translate(179.0,311.0) rotate(-17.7)" filter="url(#softGlow)">
  <rect x="-54.3" y="-31.3" width="108.7" height="62.6" rx="19.1" fill="none" stroke="#22C55E" stroke-width="10.4" opacity="0.55"/>
  <rect x="-23.9" y="-15.7" width="108.7" height="62.6" rx="19.1" fill="none" stroke="url(#strokeA)" stroke-width="8.7" opacity="0.55"/>
</g>


<g opacity="0.304" transform="translate(1818.3,838.2) rotate(14.9)" filter="url(#softGlow)">
  <rect x="-41.3" y="-23.8" width="82.6" height="47.5" rx="14.5" fill="none" stroke="#22C55E" stroke-width="7.9" opacity="0.55"/>
  <rect x="-18.2" y="-11.9" width="82.6" height="47.5" rx="14.5" fill="none" stroke="url(#strokeA)" stroke-width="6.6" opacity="0.55"/>
</g>


<g opacity="0.455" transform="translate(1884.3,935.9) rotate(-16.9)" filter="url(#softGlow)">
  <rect x="-58.9" y="-34.0" width="117.9" height="67.9" rx="20.7" fill="none" stroke="#22C55E" stroke-width="11.3" opacity="0.55"/>
  <rect x="-25.9" y="-17.0" width="117.9" height="67.9" rx="20.7" fill="none" stroke="url(#strokeA)" stroke-width="9.4" opacity="0.55"/>
</g>


<g opacity="0.457" transform="translate(1841.6,969.3) rotate(-3.6)" filter="url(#softGlow)">
  <rect x="-51.5" y="-29.6" width="102.9" height="59.3" rx="18.1" fill="none" stroke="#22C55E" stroke-width="9.9" opacity="0.55"/>
  <rect x="-22.6" y="-14.8" width="102.9" height="59.3" rx="18.1" fill="none" stroke="url(#strokeA)" stroke-width="8.2" opacity="0.55"/>
</g>


<g opacity="0.361" transform="translate(95.3,939.6) rotate(13.7)" filter="url(#softGlow)">
  <rect x="-35.2" y="-20.3" width="70.4" height="40.6" rx="12.4" fill="none" stroke="#22C55E" stroke-width="6.8" opacity="0.55"/>
  <rect x="-15.5" y="-10.1" width="70.4" height="40.6" rx="12.4" fill="none" stroke="url(#strokeA)" stroke-width="5.6" opacity="0.55"/>
</g>


<g opacity="0.375" transform="translate(141.6,801.8) rotate(3.2)" filter="url(#softGlow)">
  <rect x="-35.0" y="-20.1" width="69.9" height="40.3" rx="12.3" fill="none" stroke="#22C55E" stroke-width="6.7" opacity="0.55"/>
  <rect x="-15.4" y="-10.1" width="69.9" height="40.3" rx="12.3" fill="none" stroke="url(#strokeA)" stroke-width="5.6" opacity="0.55"/>
</g>


<g opacity="0.433" transform="translate(48.8,263.0) rotate(-7.8)" filter="url(#softGlow)">
  <rect x="-60.0" y="-34.5" width="119.9" height="69.1" rx="21.1" fill="none" stroke="#22C55E" stroke-width="11.5" opacity="0.55"/>
  <rect x="-26.4" y="-17.3" width="119.9" height="69.1" rx="21.1" fill="none" stroke="url(#strokeA)" stroke-width="9.6" opacity="0.55"/>
</g>


<g opacity="0.177">
  <line x1="687.6" y1="931.3" x2="687.6" y2="991.1" stroke="#E11D48" stroke-width="1.40" opacity="0.45"/>
  <rect x="683.8" y="964.1" width="7.5" height="30.1" rx="2.5" fill="#0B1020" opacity="0.55" stroke="url(#strokeA)" stroke-width="1.2"/>
</g>

<g opacity="0.177">
  <line x1="1879.8" y1="932.1" x2="1879.8" y2="990.9" stroke="#E11D48" stroke-width="1.49" opacity="0.45"/>
  <rect x="1875.8" y="962.0" width="8.0" height="34.3" rx="2.7" fill="#0B1020" opacity="0.55" stroke="url(#strokeA)" stroke-width="1.2"/>
</g>

<g opacity="0.177">
  <line x1="1351.2" y1="919.0" x2="1351.2" y2="994.2" stroke="#E11D48" stroke-width="1.89" opacity="0.45"/>
  <rect x="1347.9" y="961.4" width="6.7" height="35.5" rx="2.2" fill="#0B1020" opacity="0.55" stroke="url(#strokeA)" stroke-width="1.2"/>
</g>

<g opacity="0.177">
  <line x1="1463.5" y1="891.2" x2="1463.5" y2="1001.2" stroke="#E11D48" stroke-width="1.31" opacity="0.45"/>
  <rect x="1458.1" y="949.2" width="10.8" height="60.0" rx="3.6" fill="#0B1020" opacity="0.55" stroke="url(#strokeA)" stroke-width="1.2"/>
</g>

<g opacity="0.177">
  <line x1="1645.4" y1="916.0" x2="1645.4" y2="995.0" stroke="#E11D48" stroke-width="1.17" opacity="0.45"/>
  <rect x="1641.0" y="953.9" width="8.7" height="50.5" rx="2.9" fill="#0B1020" opacity="0.55" stroke="url(#strokeA)" stroke-width="1.2"/>
</g>

<g opacity="0.177">
  <line x1="1185.4" y1="898.2" x2="1185.4" y2="999.4" stroke="#E11D48" stroke-width="1.22" opacity="0.45"/>
  <rect x="1179.7" y="957.6" width="11.5" height="43.2" rx="3.8" fill="#0B1020" opacity="0.55" stroke="url(#strokeA)" stroke-width="1.2"/>
</g>

<g opacity="0.177">
  <line x1="1355.4" y1="917.6" x2="1355.4" y2="994.6" stroke="#E11D48" stroke-width="1.21" opacity="0.45"/>
  <rect x="1352.2" y="957.3" width="6.3" height="43.7" rx="2.1" fill="#0B1020" opacity="0.55" stroke="url(#strokeA)" stroke-width="1.2"/>
</g>

<g opacity="0.177">
  <line x1="1360.4" y1="916.2" x2="1360.4" y2="994.9" stroke="#E11D48" stroke-width="1.32" opacity="0.45"/>
  <rect x="1355.3" y="955.7" width="10.2" height="46.9" rx="3.4" fill="#0B1020" opacity="0.55" stroke="url(#strokeA)" stroke-width="1.2"/>
</g>

<g opacity="0.177">
  <line x1="403.9" y1="889.6" x2="403.9" y2="1001.6" stroke="#E11D48" stroke-width="1.14" opacity="0.45"/>
  <rect x="399.5" y="952.1" width="8.7" height="54.1" rx="2.9" fill="#0B1020" opacity="0.55" stroke="url(#strokeA)" stroke-width="1.2"/>
</g>

<g opacity="0.177">
  <line x1="1749.7" y1="898.9" x2="1749.7" y2="999.3" stroke="#E11D48" stroke-width="1.06" opacity="0.45"/>
  <rect x="1744.6" y="957.8" width="10.2" height="42.8" rx="3.4" fill="#0B1020" opacity="0.55" stroke="url(#strokeA)" stroke-width="1.2"/>
</g>

<g opacity="0.177">
  <line x1="200.1" y1="894.6" x2="200.1" y2="1000.3" stroke="#E11D48" stroke-width="1.57" opacity="0.45"/>
  <rect x="196.8" y="949.9" width="6.6" height="58.5" rx="2.2" fill="#0B1020" opacity="0.55" stroke="url(#strokeA)" stroke-width="1.2"/>
</g>

<g opacity="0.177">
  <line x1="1438.2" y1="904.6" x2="1438.2" y2="997.8" stroke="#E11D48" stroke-width="1.91" opacity="0.45"/>
  <rect x="1432.6" y="950.4" width="11.2" height="57.5" rx="3.7" fill="#0B1020" opacity="0.55" stroke="url(#strokeA)" stroke-width="1.2"/>
</g>

<g opacity="0.177">
  <line x1="926.1" y1="923.8" x2="926.1" y2="993.0" stroke="#E11D48" stroke-width="1.37" opacity="0.45"/>
  <rect x="921.6" y="956.5" width="9.0" height="45.3" rx="3.0" fill="#0B1020" opacity="0.55" stroke="url(#strokeA)" stroke-width="1.2"/>
</g>

<g opacity="0.177">
  <line x1="531.2" y1="932.3" x2="531.2" y2="990.9" stroke="#E11D48" stroke-width="2.02" opacity="0.45"/>
  <rect x="526.1" y="966.0" width="10.2" height="26.4" rx="3.4" fill="#0B1020" opacity="0.55" stroke="url(#strokeA)" stroke-width="1.2"/>
</g>

<g opacity="0.177">
  <line x1="1714.4" y1="919.5" x2="1714.4" y2="994.1" stroke="#E11D48" stroke-width="1.10" opacity="0.45"/>
  <rect x="1708.8" y="965.0" width="11.1" height="28.4" rx="3.7" fill="#0B1020" opacity="0.55" stroke="url(#strokeA)" stroke-width="1.2"/>
</g>

<g opacity="0.177">
  <line x1="475.7" y1="895.3" x2="475.7" y2="1000.2" stroke="#E11D48" stroke-width="1.51" opacity="0.45"/>
  <rect x="470.4" y="951.0" width="10.6" height="56.4" rx="3.5" fill="#0B1020" opacity="0.55" stroke="url(#strokeA)" stroke-width="1.2"/>
</g>

<g opacity="0.177">
  <line x1="1884.5" y1="912.9" x2="1884.5" y2="995.7" stroke="#E11D48" stroke-width="1.26" opacity="0.45"/>
  <rect x="1880.4" y="952.6" width="8.1" height="53.1" rx="2.7" fill="#0B1020" opacity="0.55" stroke="url(#strokeA)" stroke-width="1.2"/>
</g>

<g opacity="0.177">
  <line x1="1425.0" y1="910.6" x2="1425.0" y2="996.3" stroke="#E11D48" stroke-width="1.36" opacity="0.45"/>
  <rect x="1420.6" y="956.7" width="8.8" height="45.0" rx="2.9" fill="#0B1020" opacity="0.55" stroke="url(#strokeA)" stroke-width="1.2"/>
</g>
<circle cx="140.1" cy="175.9" r="1.7" fill="#22C55E" opacity="0.25" filter="url(#softGlow)"/>
<circle cx="1802.0" cy="33.8" r="2.5" fill="#22C55E" opacity="0.21" filter="url(#softGlow)"/>
<circle cx="1758.3" cy="928.8" r="3.1" fill="#22C55E" opacity="0.11" filter="url(#softGlow)"/>
<circle cx="209.6" cy="150.0" r="3.1" fill="#22C55E" opacity="0.15" filter="url(#softGlow)"/>
<circle cx="1916.6" cy="1032.3" r="1.5" fill="#22C55E" opacity="0.11" filter="url(#softGlow)"/>
<circle cx="1848.0" cy="1032.1" r="1.6" fill="#22C55E" opacity="0.14" filter="url(#softGlow)"/>
<circle cx="1776.0" cy="202.8" r="1.8" fill="#22C55E" opacity="0.11" filter="url(#softGlow)"/>
<circle cx="1785.2" cy="96.4" r="2.1" fill="#22C55E" opacity="0.18" filter="url(#softGlow)"/>
<circle cx="124.1" cy="47.4" r="1.6" fill="#22C55E" opacity="0.14" filter="url(#softGlow)"/>
<circle cx="1779.6" cy="924.1" r="2.5" fill="#22C55E" opacity="0.17" filter="url(#softGlow)"/>
<circle cx="140.3" cy="209.9" r="2.8" fill="#22C55E" opacity="0.16" filter="url(#softGlow)"/>
<circle cx="121.1" cy="306.6" r="2.9" fill="#22C55E" opacity="0.22" filter="url(#softGlow)"/>
<circle cx="1800.1" cy="1015.6" r="1.8" fill="#22C55E" opacity="0.16" filter="url(#softGlow)"/>
<circle cx="1908.3" cy="871.6" r="3.0" fill="#22C55E" opacity="0.27" filter="url(#softGlow)"/>
<circle cx="190.5" cy="6.0" r="1.4" fill="#22C55E" opacity="0.16" filter="url(#softGlow)"/>
<circle cx="91.0" cy="740.9" r="2.5" fill="#22C55E" opacity="0.28" filter="url(#softGlow)"/>
<circle cx="185.0" cy="929.6" r="2.6" fill="#22C55E" opacity="0.24" filter="url(#softGlow)"/>
<circle cx="1869.9" cy="186.0" r="2.7" fill="#22C55E" opacity="0.16" filter="url(#softGlow)"/>
<circle cx="1874.7" cy="1003.1" r="1.8" fill="#22C55E" opacity="0.19" filter="url(#softGlow)"/>
<circle cx="1886.3" cy="1012.3" r="1.4" fill="#22C55E" opacity="0.13" filter="url(#softGlow)"/>
<circle cx="153.1" cy="209.9" r="2.1" fill="#22C55E" opacity="0.20" filter="url(#softGlow)"/>
<circle cx="3.2" cy="36.4" r="3.0" fill="#22C55E" opacity="0.17" filter="url(#softGlow)"/>
<circle cx="1107.2" cy="132.9" r="2.9" fill="#22C55E" opacity="0.26" filter="url(#softGlow)"/>
<circle cx="79.5" cy="138.7" r="2.1" fill="#22C55E" opacity="0.25" filter="url(#softGlow)"/>
<circle cx="192.0" cy="1021.0" r="1.7" fill="#22C55E" opacity="0.10" filter="url(#softGlow)"/>
<circle cx="1718.4" cy="915.1" r="2.2" fill="#22C55E" opacity="0.28" filter="url(#softGlow)"/>
<circle cx="8.1" cy="8.5" r="2.8" fill="#22C55E" opacity="0.12" filter="url(#softGlow)"/>
<circle cx="106.1" cy="69.8" r="1.6" fill="#22C55E" opacity="0.15" filter="url(#softGlow)"/>
</svg>