<svg xmlns="http://www.w3.org/2000/svg" width="1920" height="1080" viewBox="0 0 1920 1080" preserveAspectRatio="xMidYMid slice">
<defs>
  <linearGradient id="g0" x1="0" y1="0" x2="1" y2="1">
    <stop offset="0" stop-color="#0B1020"/>
    <stop offset="0.55" stop-color="#2DD4BF" stop-opacity="0.9"/>
    <stop offset="1" stop-color="#020617"/>
  </linearGradient>
  <radialGradient id="g1" cx="20%" cy="15%" r="70%">
    <stop offset="0" stop-color="#60A5FA" stop-opacity="0.38"/>
    <stop offset="0.6" stop-color="#60A5FA" stop-opacity="0.08"/>
    <stop offset="1" stop-color="#60A5FA" stop-opacity="0"/>
  </radialGradient>
  <radialGradient id="g2" cx="85%" cy="80%" r="75%">
    <stop offset="0" stop-color="#60A5FA" stop-opacity="0.28"/>
    <stop offset="0.65" stop-color="#60A5FA" stop-opacity="0.06"/>
    <stop offset="1" stop-color="#60A5FA" stop-opacity="0"/>
  </radialGradient>
  <filter id="softGlow" x="-30%" y="-30%" width="160%" height="160%">
    <feGaussianBlur stdDeviation="12" result="b"/>
    <feMerge>
      <feMergeNode in="b"/>
      <feMergeNode in="SourceGraphic"/>
    </feMerge>
  </filter>
  <filter id="hardGlow" x="-40%" y="-40%" width="180%" height="180%">
    <feGaussianBlur stdDeviation="6" result="b"/>
    <feColorMatrix in="b" type="matrix" values="1 0 0 0 0  0 1 0 0 0  0 0 1 0 0  0 0 0 18 -7" result="c"/>
    <feMerge>
      <feMergeNode in="c"/>
      <feMergeNode in="SourceGraphic"/>
    </feMerge>
  </filter>
  <linearGradient id="strokeA" x1="0" y1="0" x2="1" y2="0">
    <stop offset="0" stop-color="#60A5FA" stop-opacity="0.9"/>
    <stop offset="0.5" stop-color="#FFFFFF" stop-opacity="0.25"/>
    <stop offset="1" stop-color="#60A5FA" stop-opacity="0.7"/>
  </linearGradient>
  <linearGradient id="strokeB" x1="0" y1="0" x2="0" y2="1">
    <stop offset="0" stop-color="#FFFFFF" stop-opacity="0.18"/>
    <stop offset="1" stop-color="#60A5FA" stop-opacity="0.55"/>
  </linearGradient>
</defs>
<rect x="0" y="0" width="1920" height="1080" fill="url(#g0)"/>
<rect x="0" y="0" width="1920" height="1080" fill="url(#g1)"/>
<rect x="0" y="0" width="1920" height="1080" fill="url(#g2)"/>


<defs>
  <radialGradient id="vign" cx="0.5000" cy="0.5093" r="0.85">
    <stop offset="0" stop-color="#000000" stop-opacity="0"/>
    <stop offset="0.55" stop-color="#000000" stop-opacity="0.217"/>
    <stop offset="1" stop-color="#000000" stop-opacity="0.620"/>
  </radialGradient>
</defs>
<rect x="0" y="0" width="1920" height="1080" fill="url(#vign)"/>

<g opacity="0.228" filter="url(#softGlow)"><path d="M 106.2,23.6 L 199.6,23.6 L 199.6,925.9 L 1834.8,925.9 L 1834.8,930.4 " fill="none" stroke="url(#strokeB)" stroke-width="2.01" stroke-linecap="round" stroke-linejoin="round"/><circle cx="199.6" cy="23.6" r="3.9" fill="#F472B6" opacity="0.45"/><circle cx="1834.8" cy="930.4" r="2.3" fill="#F472B6" opacity="0.45"/><circle cx="106.2" cy="23.6" r="3.5" fill="#F472B6" opacity="0.45"/></g>
<g opacity="0.228" filter="url(#softGlow)"><path d="M 1904.9,902.1 L 171.7,902.1 L 171.7,106.8 L 1784.2,106.8 L 1784.2,692.0 " fill="none" stroke="url(#strokeB)" stroke-width="1.55" stroke-linecap="round" stroke-linejoin="round"/><circle cx="1784.2" cy="692.0" r="3.1" fill="#F472B6" opacity="0.45"/><circle cx="171.7" cy="902.1" r="2.4" fill="#F472B6" opacity="0.45"/><circle cx="1904.9" cy="902.1" r="2.9" fill="#F472B6" opacity="0.45"/></g>
<g opacity="0.228" filter="url(#softGlow)"><path d="M 10.3,906.9 L 1825.6,906.9 L 1825.6,982.5 L 40.0,982.5 L 40.0,927.5 " fill="none" stroke="url(#strokeB)" stroke-width="1.39" stroke-linecap="round" stroke-linejoin="round"/><circle cx="1825.6" cy="982.5" r="2.4" fill="#F472B6" opacity="0.45"/><circle cx="1825.6" cy="906.9" r="4.1" fill="#F472B6" opacity="0.45"/><circle cx="40.0" cy="982.5" r="3.7" fill="#F472B6" opacity="0.45"/></g>
<g opacity="0.228" filter="url(#softGlow)"><path d="M 1759.2,873.4 L 379.0,873.4 L 379.0,139.7 L 1856.6,139.7 L 1856.6,976.0 " fill="none" stroke="url(#strokeB)" stroke-width="1.94" stroke-linecap="round" stroke-linejoin="round"/><circle cx="1856.6" cy="976.0" r="3.3" fill="#F472B6" opacity="0.45"/><circle cx="379.0" cy="139.7" r="3.7" fill="#F472B6" opacity="0.45"/><circle cx="1759.2" cy="873.4" r="3.0" fill="#F472B6" opacity="0.45"/></g>
<g opacity="0.228" filter="url(#softGlow)"><path d="M 1786.1,920.4 L 1561.2,920.4 L 1561.2,83.3 L 1907.7,83.3 L 1907.7,266.8 " fill="none" stroke="url(#strokeB)" stroke-width="1.90" stroke-linecap="round" stroke-linejoin="round"/><circle cx="1786.1" cy="920.4" r="3.6" fill="#F472B6" opacity="0.45"/><circle cx="1561.2" cy="83.3" r="2.3" fill="#F472B6" opacity="0.45"/><circle cx="1561.2" cy="920.4" r="3.6" fill="#F472B6" opacity="0.45"/></g>
<g opacity="0.228" filter="url(#softGlow)"><path d="M 74.6,893.9 L 1899.8,893.9 L 1899.8,153.9 L 159.1,153.9 L 159.1,941.3 " fill="none" stroke="url(#strokeB)" stroke-width="1.50" stroke-linecap="round" stroke-linejoin="round"/><circle cx="159.1" cy="153.9" r="4.0" fill="#F472B6" opacity="0.45"/><circle cx="1899.8" cy="893.9" r="3.9" fill="#F472B6" opacity="0.45"/><circle cx="74.6" cy="893.9" r="2.1" fill="#F472B6" opacity="0.45"/></g>
<g opacity="0.228" filter="url(#softGlow)"><path d="M 1903.8,998.7 L 73.5,998.7 L 73.5,594.6 L 175.9,594.6 L 175.9,792.6 " fill="none" stroke="url(#strokeB)" stroke-width="2.10" stroke-linecap="round" stroke-linejoin="round"/><circle cx="73.5" cy="998.7" r="2.4" fill="#F472B6" opacity="0.45"/><circle cx="175.9" cy="594.6" r="2.6" fill="#F472B6" opacity="0.45"/><circle cx="73.5" cy="594.6" r="3.6" fill="#F472B6" opacity="0.45"/></g>
<g opacity="0.228" filter="url(#softGlow)"><path d="M 46.1,139.3 L 1882.3,139.3 L 1882.3,122.7 L 1514.9,122.7 L 1514.9,111.1 " fill="none" stroke="url(#strokeB)" stroke-width="1.28" stroke-linecap="round" stroke-linejoin="round"/><circle cx="46.1" cy="139.3" r="3.0" fill="#F472B6" opacity="0.45"/><circle cx="1514.9" cy="122.7" r="3.8" fill="#F472B6" opacity="0.45"/><circle cx="1882.3" cy="139.3" r="3.2" fill="#F472B6" opacity="0.45"/></g>
<g opacity="0.228" filter="url(#softGlow)"><path d="M 54.0,149.6 L 184.2,149.6 L 184.2,190.5 L 1734.6,190.5 L 1734.6,1048.3 " fill="none" stroke="url(#strokeB)" stroke-width="1.11" stroke-linecap="round" stroke-linejoin="round"/><circle cx="184.2" cy="190.5" r="2.7" fill="#F472B6" opacity="0.45"/><circle cx="1734.6" cy="190.5" r="3.7" fill="#F472B6" opacity="0.45"/><circle cx="54.0" cy="149.6" r="2.8" fill="#F472B6" opacity="0.45"/></g>
<g opacity="0.228" filter="url(#softGlow)"><path d="M 1875.1,924.0 L 150.6,924.0 L 150.6,138.6 L 1816.9,138.6 L 1816.9,954.9 " fill="none" stroke="url(#strokeB)" stroke-width="1.19" stroke-linecap="round" stroke-linejoin="round"/><circle cx="1875.1" cy="924.0" r="4.0" fill="#F472B6" opacity="0.45"/><circle cx="1816.9" cy="954.9" r="3.1" fill="#F472B6" opacity="0.45"/><circle cx="150.6" cy="138.6" r="4.0" fill="#F472B6" opacity="0.45"/></g>
<g opacity="0.228" filter="url(#softGlow)"><path d="M 1919.7,83.5 L 139.6,83.5 L 139.6,983.8 L 37.9,983.8 L 37.9,1020.5 " fill="none" stroke="url(#strokeB)" stroke-width="1.84" stroke-linecap="round" stroke-linejoin="round"/><circle cx="139.6" cy="983.8" r="2.1" fill="#F472B6" opacity="0.45"/><circle cx="1919.7" cy="83.5" r="4.0" fill="#F472B6" opacity="0.45"/><circle cx="139.6" cy="83.5" r="4.1" fill="#F472B6" opacity="0.45"/></g>
<g opacity="0.228" filter="url(#softGlow)"><path d="M 1735.1,773.5 L 1868.7,773.5 L 1868.7,1066.8 L 1850.7,1066.8 L 1850.7,92.1 " fill="none" stroke="url(#strokeB)" stroke-width="1.39" stroke-linecap="round" stroke-linejoin="round"/><circle cx="1868.7" cy="773.5" r="2.3" fill="#F472B6" opacity="0.45"/><circle cx="1735.1" cy="773.5" r="2.7" fill="#F472B6" opacity="0.45"/><circle cx="1868.7" cy="1066.8" r="3.6" fill="#F472B6" opacity="0.45"/></g>
<g opacity="0.228" filter="url(#softGlow)"><path d="M 687.6,1079.4 L 1712.8,1079.4 L 1712.8,914.5 L 1596.8,914.5 L 1596.8,96.9 " fill="none" stroke="url(#strokeB)" stroke-width="1.83" stroke-linecap="round" stroke-linejoin="round"/><circle cx="1712.8" cy="914.5" r="2.8" fill="#F472B6" opacity="0.45"/><circle cx="1596.8" cy="914.5" r="2.6" fill="#F472B6" opacity="0.45"/><circle cx="1596.8" cy="96.9" r="2.4" fill="#F472B6" opacity="0.45"/></g>
<g opacity="0.228" filter="url(#softGlow)"><path d="M 131.4,1006.8 L 70.4,1006.8 L 70.4,92.7 L 1280.3,92.7 L 1280.3,64.0 " fill="none" stroke="url(#strokeB)" stroke-width="1.35" stroke-linecap="round" stroke-linejoin="round"/><circle cx="1280.3" cy="92.7" r="2.2" fill="#F472B6" opacity="0.45"/><circle cx="70.4" cy="92.7" r="3.7" fill="#F472B6" opacity="0.45"/><circle cx="1280.3" cy="64.0" r="2.6" fill="#F472B6" opacity="0.45"/></g>

<g opacity="0.773" filter="url(#hardGlow)">
  <circle cx="1570.0" cy="1064.5" r="42.2" fill="#0A1224" opacity="0.65"/>
  <circle cx="1570.0" cy="1064.5" r="42.2" fill="none" stroke="url(#strokeA)" stroke-width="3.4" opacity="0.85"/>
  <circle cx="1570.0" cy="1064.5" r="36.3" fill="none" stroke="#2DD4BF" stroke-width="1.5" opacity="0.35"/>
  <polygon points="1561.5,1035.3 1591.0,1042.5 1599.5,1071.7 1578.5,1093.6 1549.0,1086.4 1540.5,1057.2" fill="none" stroke="url(#strokeB)" stroke-width="1.2" opacity="0.65"/>
  <polygon points="1570.7,1053.9 1578.9,1070.4 1560.5,1069.2" fill="#2DD4BF" opacity="0.22" filter="url(#softGlow)"/>
</g>


<g opacity="0.583" filter="url(#hardGlow)">
  <circle cx="1513.9" cy="1089.7" r="15.4" fill="#0A1224" opacity="0.65"/>
  <circle cx="1513.9" cy="1089.7" r="15.4" fill="none" stroke="url(#strokeA)" stroke-width="2.0" opacity="0.85"/>
  <circle cx="1513.9" cy="1089.7" r="13.2" fill="none" stroke="#F472B6" stroke-width="1.5" opacity="0.35"/>
  <polygon points="1524.4,1093.2 1516.1,1100.5 1505.6,1097.0 1503.4,1086.2 1511.6,1078.8 1522.1,1082.3" fill="none" stroke="url(#strokeB)" stroke-width="1.2" opacity="0.65"/>
  <polygon points="1516.9,1092.1 1510.3,1091.1 1514.4,1085.8" fill="#F472B6" opacity="0.22" filter="url(#softGlow)"/>
</g>


<g opacity="0.915" filter="url(#hardGlow)">
  <circle cx="1863.4" cy="458.2" r="60.9" fill="#0A1224" opacity="0.65"/>
  <circle cx="1863.4" cy="458.2" r="60.9" fill="none" stroke="url(#strokeA)" stroke-width="4.9" opacity="0.85"/>
  <circle cx="1863.4" cy="458.2" r="52.4" fill="none" stroke="#2DD4BF" stroke-width="1.8" opacity="0.35"/>
  <polygon points="1822.3,442.9 1856.1,415.0 1897.2,430.3 1904.5,473.5 1870.7,501.5 1829.6,486.2" fill="none" stroke="url(#strokeB)" stroke-width="1.5" opacity="0.65"/>
  <polygon points="1851.7,448.3 1877.9,453.1 1860.6,473.3" fill="#2DD4BF" opacity="0.22" filter="url(#softGlow)"/>
</g>


<g opacity="0.601" filter="url(#hardGlow)">
  <circle cx="1844.7" cy="459.9" r="28.5" fill="#0A1224" opacity="0.65"/>
  <circle cx="1844.7" cy="459.9" r="28.5" fill="none" stroke="url(#strokeA)" stroke-width="2.3" opacity="0.85"/>
  <circle cx="1844.7" cy="459.9" r="24.5" fill="none" stroke="#F472B6" stroke-width="1.5" opacity="0.35"/>
  <polygon points="1825.3,453.3 1840.8,439.8 1860.1,446.4 1864.1,466.5 1848.7,480.0 1829.3,473.4" fill="none" stroke="url(#strokeB)" stroke-width="1.2" opacity="0.65"/>
  
</g>


<g opacity="0.515" filter="url(#hardGlow)">
  <circle cx="1947.0" cy="418.3" r="25.3" fill="#0A1224" opacity="0.65"/>
  <circle cx="1947.0" cy="418.3" r="25.3" fill="none" stroke="url(#strokeA)" stroke-width="2.0" opacity="0.85"/>
  <circle cx="1947.0" cy="418.3" r="21.8" fill="none" stroke="#F472B6" stroke-width="1.5" opacity="0.35"/>
  <polygon points="1961.2,407.0 1963.9,425.1 1949.6,436.4 1932.7,429.7 1930.0,411.6 1944.3,400.3" fill="none" stroke="url(#strokeB)" stroke-width="1.2" opacity="0.65"/>
  <polygon points="1953.0,416.3 1945.7,424.6 1942.2,414.1" fill="#F472B6" opacity="0.22" filter="url(#softGlow)"/>
</g>


<g opacity="0.356" filter="url(#hardGlow)">
  <circle cx="1778.9" cy="523.8" r="22.8" fill="#0A1224" opacity="0.65"/>
  <circle cx="1778.9" cy="523.8" r="22.8" fill="none" stroke="url(#strokeA)" stroke-width="2.0" opacity="0.85"/>
  <circle cx="1778.9" cy="523.8" r="19.6" fill="none" stroke="#F472B6" stroke-width="1.5" opacity="0.35"/>
  <polygon points="1786.4,509.2 1795.3,523.0 1787.8,537.6 1771.4,538.4 1762.5,524.7 1770.0,510.1" fill="none" stroke="url(#strokeB)" stroke-width="1.2" opacity="0.65"/>
  <polygon points="1783.1,519.9 1780.2,529.4 1773.4,522.1" fill="#F472B6" opacity="0.22" filter="url(#softGlow)"/>
</g>


<g opacity="0.683" filter="url(#hardGlow)">
  <circle cx="1912.9" cy="997.4" r="60.0" fill="#0A1224" opacity="0.65"/>
  <circle cx="1912.9" cy="997.4" r="60.0" fill="none" stroke="url(#strokeA)" stroke-width="4.8" opacity="0.85"/>
  <circle cx="1912.9" cy="997.4" r="51.6" fill="none" stroke="#2DD4BF" stroke-width="1.8" opacity="0.35"/>
  <polygon points="1889.3,1033.6 1869.8,995.0 1893.4,958.8 1936.6,961.2 1956.1,999.8 1932.4,1036.0" fill="none" stroke="url(#strokeB)" stroke-width="1.5" opacity="0.65"/>
  <polygon points="1900.8,1006.5 1911.1,982.4 1926.8,1003.4" fill="#2DD4BF" opacity="0.22" filter="url(#softGlow)"/>
</g>


<g opacity="0.596" filter="url(#hardGlow)">
  <circle cx="1824.8" cy="1065.0" r="32.2" fill="#0A1224" opacity="0.65"/>
  <circle cx="1824.8" cy="1065.0" r="32.2" fill="none" stroke="url(#strokeA)" stroke-width="2.6" opacity="0.85"/>
  <circle cx="1824.8" cy="1065.0" r="27.7" fill="none" stroke="#F472B6" stroke-width="1.5" opacity="0.35"/>
  <polygon points="1843.4,1051.3 1846.0,1074.3 1827.3,1088.1 1806.1,1078.7 1803.5,1055.7 1822.2,1042.0" fill="none" stroke="url(#strokeB)" stroke-width="1.2" opacity="0.65"/>
  
</g>


<g opacity="0.570" filter="url(#hardGlow)">
  <circle cx="1926.4" cy="990.1" r="31.0" fill="#0A1224" opacity="0.65"/>
  <circle cx="1926.4" cy="990.1" r="31.0" fill="none" stroke="url(#strokeA)" stroke-width="2.5" opacity="0.85"/>
  <circle cx="1926.4" cy="990.1" r="26.7" fill="none" stroke="#F472B6" stroke-width="1.5" opacity="0.35"/>
  <polygon points="1938.6,1008.9 1916.3,1010.0 1904.2,991.3 1914.3,971.4 1936.6,970.3 1948.7,989.0" fill="none" stroke="url(#strokeB)" stroke-width="1.2" opacity="0.65"/>
  
</g>


<g opacity="0.498" filter="url(#hardGlow)">
  <circle cx="1909.3" cy="964.0" r="23.7" fill="#0A1224" opacity="0.65"/>
  <circle cx="1909.3" cy="964.0" r="23.7" fill="none" stroke="url(#strokeA)" stroke-width="2.0" opacity="0.85"/>
  <circle cx="1909.3" cy="964.0" r="20.4" fill="none" stroke="#F472B6" stroke-width="1.5" opacity="0.35"/>
  <polygon points="1917.6,978.9 1900.5,978.6 1892.2,963.7 1900.9,949.1 1918.0,949.3 1926.4,964.2" fill="none" stroke="url(#strokeB)" stroke-width="1.2" opacity="0.65"/>
  <polygon points="1910.2,969.9 1903.7,961.8 1913.9,960.2" fill="#F472B6" opacity="0.22" filter="url(#softGlow)"/>
</g>


<g opacity="0.694" filter="url(#hardGlow)">
  <circle cx="448.5" cy="1004.6" r="68.9" fill="#0A1224" opacity="0.65"/>
  <circle cx="448.5" cy="1004.6" r="68.9" fill="none" stroke="url(#strokeA)" stroke-width="5.5" opacity="0.85"/>
  <circle cx="448.5" cy="1004.6" r="59.3" fill="none" stroke="#2DD4BF" stroke-width="2.1" opacity="0.35"/>
  <polygon points="497.6,1011.6 467.0,1050.6 417.9,1043.6 399.4,997.6 430.0,958.6 479.1,965.6" fill="none" stroke="url(#strokeB)" stroke-width="1.7" opacity="0.65"/>
  <polygon points="463.8,1012.8 433.7,1013.8 447.9,987.3" fill="#2DD4BF" opacity="0.22" filter="url(#softGlow)"/>
</g>


<g opacity="0.564" filter="url(#hardGlow)">
  <circle cx="513.6" cy="1074.8" r="25.1" fill="#0A1224" opacity="0.65"/>
  <circle cx="513.6" cy="1074.8" r="25.1" fill="none" stroke="url(#strokeA)" stroke-width="2.0" opacity="0.85"/>
  <circle cx="513.6" cy="1074.8" r="21.6" fill="none" stroke="#F472B6" stroke-width="1.5" opacity="0.35"/>
  <polygon points="507.3,1057.8 525.1,1060.8 531.4,1077.8 519.9,1091.7 502.0,1088.7 495.7,1071.7" fill="none" stroke="url(#strokeB)" stroke-width="1.2" opacity="0.65"/>
  
</g>


<g opacity="0.510" filter="url(#hardGlow)">
  <circle cx="426.4" cy="1001.5" r="29.7" fill="#0A1224" opacity="0.65"/>
  <circle cx="426.4" cy="1001.5" r="29.7" fill="none" stroke="url(#strokeA)" stroke-width="2.4" opacity="0.85"/>
  <circle cx="426.4" cy="1001.5" r="25.6" fill="none" stroke="#F472B6" stroke-width="1.5" opacity="0.35"/>
  <polygon points="445.0,1012.1 426.5,1022.9 407.9,1012.2 407.8,990.8 426.3,980.1 444.9,990.7" fill="none" stroke="url(#strokeB)" stroke-width="1.2" opacity="0.65"/>
  
</g>


<g opacity="0.535" filter="url(#hardGlow)">
  <circle cx="358.8" cy="1055.8" r="31.8" fill="#0A1224" opacity="0.65"/>
  <circle cx="358.8" cy="1055.8" r="31.8" fill="none" stroke="url(#strokeA)" stroke-width="2.5" opacity="0.85"/>
  <circle cx="358.8" cy="1055.8" r="27.3" fill="none" stroke="#F472B6" stroke-width="1.5" opacity="0.35"/>
  <polygon points="378.7,1044.5 378.5,1067.4 358.6,1078.7 338.8,1067.1 339.0,1044.2 359.0,1032.9" fill="none" stroke="url(#strokeB)" stroke-width="1.2" opacity="0.65"/>
  <polygon points="366.7,1054.5 356.0,1063.3 353.7,1049.6" fill="#F472B6" opacity="0.22" filter="url(#softGlow)"/>
</g>


<g opacity="0.831" filter="url(#hardGlow)">
  <circle cx="9.6" cy="154.2" r="65.7" fill="#0A1224" opacity="0.65"/>
  <circle cx="9.6" cy="154.2" r="65.7" fill="none" stroke="url(#strokeA)" stroke-width="5.3" opacity="0.85"/>
  <circle cx="9.6" cy="154.2" r="56.5" fill="none" stroke="#2DD4BF" stroke-width="2.0" opacity="0.35"/>
  <polygon points="38.8,191.4 -8.0,198.1 -37.2,160.9 -19.6,117.0 27.2,110.3 56.4,147.5" fill="none" stroke="url(#strokeB)" stroke-width="1.6" opacity="0.65"/>
  <polygon points="14.8,169.9 -6.6,150.8 20.7,141.9" fill="#2DD4BF" opacity="0.22" filter="url(#softGlow)"/>
</g>


<g opacity="0.490" filter="url(#hardGlow)">
  <circle cx="12.6" cy="220.0" r="24.8" fill="#0A1224" opacity="0.65"/>
  <circle cx="12.6" cy="220.0" r="24.8" fill="none" stroke="url(#strokeA)" stroke-width="2.0" opacity="0.85"/>
  <circle cx="12.6" cy="220.0" r="21.3" fill="none" stroke="#F472B6" stroke-width="1.5" opacity="0.35"/>
  <polygon points="-4.4,214.7 8.6,202.6 25.7,207.9 29.7,225.3 16.6,237.4 -0.5,232.1" fill="none" stroke="url(#strokeB)" stroke-width="1.2" opacity="0.65"/>
  
</g>


<g opacity="0.481" filter="url(#hardGlow)">
  <circle cx="78.4" cy="127.0" r="30.6" fill="#0A1224" opacity="0.65"/>
  <circle cx="78.4" cy="127.0" r="30.6" fill="none" stroke="url(#strokeA)" stroke-width="2.4" opacity="0.85"/>
  <circle cx="78.4" cy="127.0" r="26.3" fill="none" stroke="#F472B6" stroke-width="1.5" opacity="0.35"/>
  <polygon points="94.8,141.8 73.8,148.6 57.5,133.8 62.1,112.3 83.0,105.5 99.4,120.3" fill="none" stroke="url(#strokeB)" stroke-width="1.2" opacity="0.65"/>
  
</g>


<g opacity="0.415" transform="translate(73.1,940.7) rotate(8.3)" filter="url(#softGlow)">
  <rect x="-113.4" y="-93.3" width="226.8" height="186.5" rx="18.7" fill="#050A12" opacity="0.25"/>
  <rect x="-113.4" y="-93.3" width="226.8" height="186.5" rx="18.7" fill="none" stroke="url(#strokeA)" stroke-width="9.3" opacity="0.85"/>
  <rect x="-98.5" y="-78.3" width="197.0" height="156.7" rx="13.1" fill="none" stroke="#2DD4BF" stroke-width="3.7" opacity="0.35"/>
</g>


<g opacity="0.325" transform="translate(1703.3,945.8) rotate(7.1)" filter="url(#softGlow)">
  <rect x="-84.2" y="-65.4" width="168.4" height="130.7" rx="13.1" fill="#050A12" opacity="0.25"/>
  <rect x="-84.2" y="-65.4" width="168.4" height="130.7" rx="13.1" fill="none" stroke="url(#strokeA)" stroke-width="6.5" opacity="0.85"/>
  <rect x="-73.7" y="-54.9" width="147.4" height="109.8" rx="9.2" fill="none" stroke="#F472B6" stroke-width="2.6" opacity="0.35"/>
</g>


<g opacity="0.265" transform="translate(1483.1,996.0) rotate(4.2)" filter="url(#softGlow)">
  <rect x="-115.9" y="-94.1" width="231.9" height="188.1" rx="18.8" fill="#050A12" opacity="0.25"/>
  <rect x="-115.9" y="-94.1" width="231.9" height="188.1" rx="18.8" fill="none" stroke="url(#strokeA)" stroke-width="9.4" opacity="0.85"/>
  <rect x="-100.9" y="-79.0" width="201.8" height="158.0" rx="13.2" fill="none" stroke="#F472B6" stroke-width="3.8" opacity="0.35"/>
</g>


<g opacity="0.400" transform="translate(1782.4,907.7) rotate(-4.9)" filter="url(#softGlow)">
  <rect x="-116.1" y="-79.1" width="232.1" height="158.2" rx="15.8" fill="#050A12" opacity="0.25"/>
  <rect x="-116.1" y="-79.1" width="232.1" height="158.2" rx="15.8" fill="none" stroke="url(#strokeA)" stroke-width="7.9" opacity="0.85"/>
  <rect x="-103.4" y="-66.4" width="206.8" height="132.9" rx="11.1" fill="none" stroke="#2DD4BF" stroke-width="3.2" opacity="0.35"/>
</g>


<g opacity="0.410" transform="translate(84.2,1072.5) rotate(-4.0)" filter="url(#softGlow)">
  <rect x="-45.8" y="-26.4" width="91.6" height="52.8" rx="16.1" fill="none" stroke="#F472B6" stroke-width="8.8" opacity="0.55"/>
  <rect x="-20.2" y="-13.2" width="91.6" height="52.8" rx="16.1" fill="none" stroke="url(#strokeA)" stroke-width="7.3" opacity="0.55"/>
</g>


<g opacity="0.305" transform="translate(54.8,987.0) rotate(3.5)" filter="url(#softGlow)">
  <rect x="-56.7" y="-32.7" width="113.4" height="65.3" rx="20.0" fill="none" stroke="#F472B6" stroke-width="10.9" opacity="0.55"/>
  <rect x="-25.0" y="-16.3" width="113.4" height="65.3" rx="20.0" fill="none" stroke="url(#strokeA)" stroke-width="9.1" opacity="0.55"/>
</g>


<g opacity="0.352" transform="translate(1731.9,6.1) rotate(14.9)" filter="url(#softGlow)">
  <rect x="-46.9" y="-27.0" width="93.7" height="54.0" rx="16.5" fill="none" stroke="#F472B6" stroke-width="9.0" opacity="0.55"/>
  <rect x="-20.6" y="-13.5" width="93.7" height="54.0" rx="16.5" fill="none" stroke="url(#strokeA)" stroke-width="7.5" opacity="0.55"/>
</g>


<g opacity="0.454" transform="translate(1830.9,891.5) rotate(-11.6)" filter="url(#softGlow)">
  <rect x="-34.5" y="-19.9" width="69.1" height="39.8" rx="12.2" fill="none" stroke="#F472B6" stroke-width="6.6" opacity="0.55"/>
  <rect x="-15.2" y="-9.9" width="69.1" height="39.8" rx="12.2" fill="none" stroke="url(#strokeA)" stroke-width="5.5" opacity="0.55"/>
</g>


<g opacity="0.275" transform="translate(75.5,1061.4) rotate(-5.7)" filter="url(#softGlow)">
  <rect x="-60.3" y="-34.7" width="120.5" height="69.4" rx="21.2" fill="none" stroke="#F472B6" stroke-width="11.6" opacity="0.55"/>
  <rect x="-26.5" y="-17.4" width="120.5" height="69.4" rx="21.2" fill="none" stroke="url(#strokeA)" stroke-width="9.6" opacity="0.55"/>
</g>


<g opacity="0.301" transform="translate(92.7,1053.8) rotate(3.4)" filter="url(#softGlow)">
  <rect x="-52.6" y="-30.3" width="105.1" height="60.5" rx="18.5" fill="none" stroke="#2DD4BF" stroke-width="10.1" opacity="0.55"/>
  <rect x="-23.1" y="-15.1" width="105.1" height="60.5" rx="18.5" fill="none" stroke="url(#strokeA)" stroke-width="8.4" opacity="0.55"/>
</g>


<g opacity="0.403" transform="translate(161.4,94.4) rotate(-6.8)" filter="url(#softGlow)">
  <rect x="-43.8" y="-25.3" width="87.7" height="50.5" rx="15.4" fill="none" stroke="#F472B6" stroke-width="8.4" opacity="0.55"/>
  <rect x="-19.3" y="-12.6" width="87.7" height="50.5" rx="15.4" fill="none" stroke="url(#strokeA)" stroke-width="7.0" opacity="0.55"/>
</g>


<g opacity="0.182">
  <line x1="239.4" y1="883.1" x2="239.4" y2="978.9" stroke="#F472B6" stroke-width="1.56" opacity="0.45"/>
  <rect x="235.5" y="929.8" width="7.7" height="59.8" rx="2.6" fill="#0B1020" opacity="0.55" stroke="url(#strokeA)" stroke-width="1.2"/>
</g>

<g opacity="0.182">
  <line x1="164.3" y1="882.7" x2="164.3" y2="979.0" stroke="#F472B6" stroke-width="1.09" opacity="0.45"/>
  <rect x="159.1" y="935.1" width="10.3" height="49.3" rx="3.4" fill="#0B1020" opacity="0.55" stroke="url(#strokeA)" stroke-width="1.2"/>
</g>

<g opacity="0.182">
  <line x1="1734.1" y1="882.6" x2="1734.1" y2="979.0" stroke="#F472B6" stroke-width="1.60" opacity="0.45"/>
  <rect x="1729.0" y="932.2" width="10.1" height="55.1" rx="3.4" fill="#0B1020" opacity="0.55" stroke="url(#strokeA)" stroke-width="1.2"/>
</g>

<g opacity="0.182">
  <line x1="61.3" y1="891.8" x2="61.3" y2="976.7" stroke="#F472B6" stroke-width="1.82" opacity="0.45"/>
  <rect x="57.1" y="941.2" width="8.4" height="37.0" rx="2.8" fill="#0B1020" opacity="0.55" stroke="url(#strokeA)" stroke-width="1.2"/>
</g>

<g opacity="0.182">
  <line x1="61.0" y1="878.2" x2="61.0" y2="980.1" stroke="#F472B6" stroke-width="1.70" opacity="0.45"/>
  <rect x="57.1" y="934.2" width="7.8" height="51.0" rx="2.6" fill="#0B1020" opacity="0.55" stroke="url(#strokeA)" stroke-width="1.2"/>
</g>
<circle cx="1808.3" cy="737.3" r="1.4" fill="#2DD4BF" opacity="0.28" filter="url(#softGlow)"/>
<circle cx="1788.9" cy="965.0" r="2.6" fill="#2DD4BF" opacity="0.28" filter="url(#softGlow)"/>
<circle cx="1816.7" cy="882.3" r="3.0" fill="#2DD4BF" opacity="0.18" filter="url(#softGlow)"/>
<circle cx="27.4" cy="21.3" r="1.8" fill="#2DD4BF" opacity="0.17" filter="url(#softGlow)"/>
<circle cx="114.8" cy="139.7" r="2.3" fill="#2DD4BF" opacity="0.13" filter="url(#softGlow)"/>
<circle cx="105.6" cy="1038.7" r="1.3" fill="#2DD4BF" opacity="0.11" filter="url(#softGlow)"/>
<circle cx="1207.3" cy="110.1" r="2.2" fill="#2DD4BF" opacity="0.21" filter="url(#softGlow)"/>
<circle cx="208.9" cy="1043.8" r="3.0" fill="#2DD4BF" opacity="0.16" filter="url(#softGlow)"/>
<circle cx="184.0" cy="81.5" r="2.7" fill="#2DD4BF" opacity="0.24" filter="url(#softGlow)"/>
<circle cx="1853.9" cy="1004.4" r="2.8" fill="#2DD4BF" opacity="0.24" filter="url(#softGlow)"/>
<circle cx="12.2" cy="901.0" r="2.3" fill="#2DD4BF" opacity="0.16" filter="url(#softGlow)"/>
<circle cx="20.6" cy="370.0" r="1.7" fill="#2DD4BF" opacity="0.28" filter="url(#softGlow)"/>
<circle cx="1824.3" cy="939.6" r="3.1" fill="#2DD4BF" opacity="0.23" filter="url(#softGlow)"/>
<circle cx="131.9" cy="173.4" r="2.8" fill="#2DD4BF" opacity="0.23" filter="url(#softGlow)"/>
<circle cx="10.6" cy="88.6" r="1.8" fill="#2DD4BF" opacity="0.12" filter="url(#softGlow)"/>
<circle cx="1676.5" cy="1037.6" r="1.3" fill="#2DD4BF" opacity="0.15" filter="url(#softGlow)"/>
<circle cx="1808.4" cy="972.1" r="3.0" fill="#2DD4BF" opacity="0.14" filter="url(#softGlow)"/>
<circle cx="1757.6" cy="979.9" r="2.4" fill="#2DD4BF" opacity="0.10" filter="url(#softGlow)"/>
<circle cx="1122.5" cy="22.6" r="2.9" fill="#2DD4BF" opacity="0.23" filter="url(#softGlow)"/>
<circle cx="87.2" cy="214.7" r="2.2" fill="#2DD4BF" opacity="0.23" filter="url(#softGlow)"/>
<circle cx="1907.4" cy="887.3" r="2.1" fill="#2DD4BF" opacity="0.25" filter="url(#softGlow)"/>
<circle cx="418.6" cy="1035.5" r="3.2" fill="#2DD4BF" opacity="0.11" filter="url(#softGlow)"/>
<circle cx="169.0" cy="656.3" r="1.5" fill="#2DD4BF" opacity="0.23" filter="url(#softGlow)"/>
<circle cx="1725.3" cy="421.8" r="2.7" fill="#2DD4BF" opacity="0.25" filter="url(#softGlow)"/>
<circle cx="1887.6" cy="98.3" r="2.8" fill="#2DD4BF" opacity="0.24" filter="url(#softGlow)"/>
<circle cx="173.1" cy="425.8" r="3.2" fill="#2DD4BF" opacity="0.19" filter="url(#softGlow)"/>
</svg>