<svg xmlns="http://www.w3.org/2000/svg" width="1920" height="1080" viewBox="0 0 1920 1080" preserveAspectRatio="xMidYMid slice">
<defs>
  <linearGradient id="g0" x1="0" y1="0" x2="1" y2="1">
    <stop offset="0" stop-color="#0A0F1E"/>
    <stop offset="0.55" stop-color="#00FFA3" stop-opacity="0.9"/>
    <stop offset="1" stop-color="#050A12"/>
  </linearGradient>
  <radialGradient id="g1" cx="20%" cy="15%" r="70%">
    <stop offset="0" stop-color="#14C2FF" stop-opacity="0.38"/>
    <stop offset="0.6" stop-color="#14C2FF" stop-opacity="0.08"/>
    <stop offset="1" stop-color="#14C2FF" stop-opacity="0"/>
  </radialGradient>
  <radialGradient id="g2" cx="85%" cy="80%" r="75%">
    <stop offset="0" stop-color="#14C2FF" stop-opacity="0.28"/>
    <stop offset="0.65" stop-color="#14C2FF" stop-opacity="0.06"/>
    <stop offset="1" stop-color="#14C2FF" stop-opacity="0"/>
  </radialGradient>
  <filter id="softGlow" x="-30%" y="-30%" width="160%" height="160%">
    <feGaussianBlur stdDeviation="12" result="b"/>
    <feMerge>
      <feMergeNode in="b"/>
      <feMergeNode in="SourceGraphic"/>
    </feMerge>
  </filter>
  <filter id="hardGlow" x="-40%" y="-40%" width="180%" height="180%">
    <feGaussianBlur stdDeviation="6" result="b"/>
    <feColorMatrix in="b" type="matrix" values="1 0 0 0 0  0 1 0 0 0  0 0 1 0 0  0 0 0 18 -7" result="c"/>
    <feMerge>
      <feMergeNode in="c"/>
      <feMergeNode in="SourceGraphic"/>
    </feMerge>
  </filter>
  <linearGradient id="strokeA" x1="0" y1="0" x2="1" y2="0">
    <stop offset="0" stop-color="#14C2FF" stop-opacity="0.9"/>
    <stop offset="0.5" stop-color="#FFFFFF" stop-opacity="0.25"/>
    <stop offset="1" stop-color="#14C2FF" stop-opacity="0.7"/>
  </linearGradient>
  <linearGradient id="strokeB" x1="0" y1="0" x2="0" y2="1">
    <stop offset="0" stop-color="#FFFFFF" stop-opacity="0.18"/>
    <stop offset="1" stop-color="#14C2FF" stop-opacity="0.55"/>
  </linearGradient>
</defs>
<rect x="0" y="0" width="1920" height="1080" fill="url(#g0)"/>
<rect x="0" y="0" width="1920" height="1080" fill="url(#g1)"/>
<rect x="0" y="0" width="1920" height="1080" fill="url(#g2)"/>


<defs>
  <radialGradient id="vign" cx="0.5000" cy="0.5093" r="0.85">
    <stop offset="0" stop-color="#000000" stop-opacity="0"/>
    <stop offset="0.55" stop-color="#000000" stop-opacity="0.217"/>
    <stop offset="1" stop-color="#000000" stop-opacity="0.620"/>
  </radialGradient>
</defs>
<rect x="0" y="0" width="1920" height="1080" fill="url(#vign)"/>

<g opacity="0.274" filter="url(#softGlow)"><path d="M 1769.8,940.1 L 75.0,940.1 L 75.0,93.3 L 1798.9,93.3 L 1798.9,148.4 " fill="none" stroke="url(#strokeB)" stroke-width="1.35" stroke-linecap="round" stroke-linejoin="round"/><circle cx="1798.9" cy="148.4" r="3.5" fill="#FF4D8D" opacity="0.45"/><circle cx="75.0" cy="93.3" r="3.2" fill="#FF4D8D" opacity="0.45"/><circle cx="1798.9" cy="93.3" r="3.2" fill="#FF4D8D" opacity="0.45"/></g>
<g opacity="0.274" filter="url(#softGlow)"><path d="M 92.2,226.1 L 1790.9,226.1 L 1790.9,206.6 L 1708.9,206.6 L 1708.9,1006.4 " fill="none" stroke="url(#strokeB)" stroke-width="1.57" stroke-linecap="round" stroke-linejoin="round"/><circle cx="92.2" cy="226.1" r="2.0" fill="#FF4D8D" opacity="0.45"/><circle cx="1790.9" cy="206.6" r="4.1" fill="#FF4D8D" opacity="0.45"/><circle cx="1790.9" cy="226.1" r="4.2" fill="#FF4D8D" opacity="0.45"/></g>
<g opacity="0.274" filter="url(#softGlow)"><path d="M 88.3,1064.2 L 1853.2,1064.2 L 1853.2,878.4 L 1790.2,878.4 L 1790.2,915.4 " fill="none" stroke="url(#strokeB)" stroke-width="1.19" stroke-linecap="round" stroke-linejoin="round"/><circle cx="1790.2" cy="915.4" r="2.3" fill="#FF4D8D" opacity="0.45"/><circle cx="1853.2" cy="1064.2" r="3.9" fill="#FF4D8D" opacity="0.45"/><circle cx="88.3" cy="1064.2" r="4.1" fill="#FF4D8D" opacity="0.45"/></g>
<g opacity="0.274" filter="url(#softGlow)"><path d="M 187.1,1021.8 L 163.5,1021.8 L 163.5,988.4 L 203.7,988.4 L 203.7,82.8 " fill="none" stroke="url(#strokeB)" stroke-width="1.10" stroke-linecap="round" stroke-linejoin="round"/><circle cx="163.5" cy="1021.8" r="3.7" fill="#FF4D8D" opacity="0.45"/><circle cx="203.7" cy="82.8" r="3.0" fill="#FF4D8D" opacity="0.45"/><circle cx="163.5" cy="988.4" r="2.1" fill="#FF4D8D" opacity="0.45"/></g>
<g opacity="0.274" filter="url(#softGlow)"><path d="M 384.9,99.7 L 123.0,99.7 L 123.0,131.0 L 118.4,131.0 L 118.4,1069.4 " fill="none" stroke="url(#strokeB)" stroke-width="1.87" stroke-linecap="round" stroke-linejoin="round"/><circle cx="118.4" cy="1069.4" r="3.4" fill="#FF4D8D" opacity="0.45"/><circle cx="118.4" cy="131.0" r="3.8" fill="#FF4D8D" opacity="0.45"/><circle cx="123.0" cy="99.7" r="3.6" fill="#FF4D8D" opacity="0.45"/></g>
<g opacity="0.274" filter="url(#softGlow)"><path d="M 1837.9,855.0 L 1056.5,855.0 L 1056.5,1067.5 L 1707.8,1067.5 L 1707.8,1076.9 " fill="none" stroke="url(#strokeB)" stroke-width="1.28" stroke-linecap="round" stroke-linejoin="round"/><circle cx="1707.8" cy="1067.5" r="3.4" fill="#FF4D8D" opacity="0.45"/><circle cx="1837.9" cy="855.0" r="2.5" fill="#FF4D8D" opacity="0.45"/><circle cx="1707.8" cy="1076.9" r="3.0" fill="#FF4D8D" opacity="0.45"/></g>
<g opacity="0.274" filter="url(#softGlow)"><path d="M 861.3,61.6 L 1715.4,61.6 L 1715.4,89.9 L 21.2,89.9 L 21.2,95.9 " fill="none" stroke="url(#strokeB)" stroke-width="1.22" stroke-linecap="round" stroke-linejoin="round"/><circle cx="1715.4" cy="89.9" r="3.8" fill="#FF4D8D" opacity="0.45"/><circle cx="861.3" cy="61.6" r="2.7" fill="#FF4D8D" opacity="0.45"/><circle cx="21.2" cy="95.9" r="3.8" fill="#FF4D8D" opacity="0.45"/></g>
<g opacity="0.274" filter="url(#softGlow)"><path d="M 1717.3,610.8 L 199.4,610.8 L 199.4,42.6 L 1779.5,42.6 L 1779.5,12.6 " fill="none" stroke="url(#strokeB)" stroke-width="1.55" stroke-linecap="round" stroke-linejoin="round"/><circle cx="1779.5" cy="12.6" r="4.0" fill="#FF4D8D" opacity="0.45"/><circle cx="199.4" cy="42.6" r="3.9" fill="#FF4D8D" opacity="0.45"/><circle cx="1779.5" cy="42.6" r="3.1" fill="#FF4D8D" opacity="0.45"/></g>
<g opacity="0.274" filter="url(#softGlow)"><path d="M 184.9,978.0 L 151.5,978.0 L 151.5,112.0 L 66.7,112.0 L 66.7,1041.1 " fill="none" stroke="url(#strokeB)" stroke-width="1.38" stroke-linecap="round" stroke-linejoin="round"/><circle cx="66.7" cy="112.0" r="2.4" fill="#FF4D8D" opacity="0.45"/><circle cx="151.5" cy="978.0" r="2.7" fill="#FF4D8D" opacity="0.45"/><circle cx="184.9" cy="978.0" r="2.1" fill="#FF4D8D" opacity="0.45"/></g>
<g opacity="0.274" filter="url(#softGlow)"><path d="M 1841.7,200.1 L 1790.7,200.1 L 1790.7,1043.4 L 1857.3,1043.4 L 1857.3,52.1 " fill="none" stroke="url(#strokeB)" stroke-width="1.11" stroke-linecap="round" stroke-linejoin="round"/><circle cx="1790.7" cy="1043.4" r="3.2" fill="#FF4D8D" opacity="0.45"/><circle cx="1841.7" cy="200.1" r="3.4" fill="#FF4D8D" opacity="0.45"/><circle cx="1790.7" cy="200.1" r="3.7" fill="#FF4D8D" opacity="0.45"/></g>
<g opacity="0.274" filter="url(#softGlow)"><path d="M 1823.2,941.7 L 1757.4,941.7 L 1757.4,871.3 L 103.2,871.3 L 103.2,370.8 " fill="none" stroke="url(#strokeB)" stroke-width="1.92" stroke-linecap="round" stroke-linejoin="round"/><circle cx="103.2" cy="370.8" r="3.8" fill="#FF4D8D" opacity="0.45"/><circle cx="1757.4" cy="941.7" r="3.0" fill="#FF4D8D" opacity="0.45"/><circle cx="1757.4" cy="871.3" r="2.8" fill="#FF4D8D" opacity="0.45"/></g>
<g opacity="0.274" filter="url(#softGlow)"><path d="M 37.4,25.7 L 79.8,25.7 L 79.8,157.5 L 1804.8,157.5 L 1804.8,204.2 " fill="none" stroke="url(#strokeB)" stroke-width="2.12" stroke-linecap="round" stroke-linejoin="round"/><circle cx="37.4" cy="25.7" r="3.2" fill="#FF4D8D" opacity="0.45"/><circle cx="1804.8" cy="157.5" r="3.3" fill="#FF4D8D" opacity="0.45"/><circle cx="79.8" cy="25.7" r="3.9" fill="#FF4D8D" opacity="0.45"/></g>
<g opacity="0.274" filter="url(#softGlow)"><path d="M 1778.2,1052.4 L 1736.9,1052.4 L 1736.9,901.6 L 567.7,901.6 L 567.7,1026.8 " fill="none" stroke="url(#strokeB)" stroke-width="2.16" stroke-linecap="round" stroke-linejoin="round"/><circle cx="567.7" cy="901.6" r="2.7" fill="#FF4D8D" opacity="0.45"/><circle cx="1736.9" cy="1052.4" r="2.5" fill="#FF4D8D" opacity="0.45"/><circle cx="1778.2" cy="1052.4" r="2.4" fill="#FF4D8D" opacity="0.45"/></g>
<g opacity="0.274" filter="url(#softGlow)"><path d="M 297.6,5.1 L 30.0,5.1 L 30.0,153.3 L 39.3,153.3 L 39.3,380.5 " fill="none" stroke="url(#strokeB)" stroke-width="1.18" stroke-linecap="round" stroke-linejoin="round"/><circle cx="39.3" cy="153.3" r="2.7" fill="#FF4D8D" opacity="0.45"/><circle cx="30.0" cy="153.3" r="2.9" fill="#FF4D8D" opacity="0.45"/><circle cx="30.0" cy="5.1" r="3.1" fill="#FF4D8D" opacity="0.45"/></g>
<g opacity="0.274" filter="url(#softGlow)"><path d="M 331.4,115.6 L 866.2,115.6 L 866.2,136.5 L 1910.8,136.5 L 1910.8,910.6 " fill="none" stroke="url(#strokeB)" stroke-width="1.76" stroke-linecap="round" stroke-linejoin="round"/><circle cx="866.2" cy="115.6" r="2.1" fill="#FF4D8D" opacity="0.45"/><circle cx="331.4" cy="115.6" r="2.1" fill="#FF4D8D" opacity="0.45"/><circle cx="1910.8" cy="910.6" r="2.6" fill="#FF4D8D" opacity="0.45"/></g>
<g opacity="0.274" filter="url(#softGlow)"><path d="M 1781.5,879.5 L 1706.2,879.5 L 1706.2,389.1 L 1827.5,389.1 L 1827.5,1047.6 " fill="none" stroke="url(#strokeB)" stroke-width="1.58" stroke-linecap="round" stroke-linejoin="round"/><circle cx="1827.5" cy="389.1" r="2.1" fill="#FF4D8D" opacity="0.45"/><circle cx="1827.5" cy="1047.6" r="3.0" fill="#FF4D8D" opacity="0.45"/><circle cx="1781.5" cy="879.5" r="2.3" fill="#FF4D8D" opacity="0.45"/></g>
<g opacity="0.274" filter="url(#softGlow)"><path d="M 134.7,29.7 L 202.4,29.7 L 202.4,194.2 L 1794.4,194.2 L 1794.4,597.1 " fill="none" stroke="url(#strokeB)" stroke-width="2.01" stroke-linecap="round" stroke-linejoin="round"/><circle cx="202.4" cy="194.2" r="2.1" fill="#FF4D8D" opacity="0.45"/><circle cx="1794.4" cy="597.1" r="2.5" fill="#FF4D8D" opacity="0.45"/><circle cx="134.7" cy="29.7" r="2.9" fill="#FF4D8D" opacity="0.45"/></g>
<g opacity="0.274" filter="url(#softGlow)"><path d="M 1766.9,126.0 L 116.1,126.0 L 116.1,15.6 L 365.7,15.6 L 365.7,52.9 " fill="none" stroke="url(#strokeB)" stroke-width="2.07" stroke-linecap="round" stroke-linejoin="round"/><circle cx="365.7" cy="52.9" r="3.0" fill="#FF4D8D" opacity="0.45"/><circle cx="1766.9" cy="126.0" r="3.3" fill="#FF4D8D" opacity="0.45"/><circle cx="116.1" cy="126.0" r="2.9" fill="#FF4D8D" opacity="0.45"/></g>
<g opacity="0.274" filter="url(#softGlow)"><path d="M 177.7,1072.0 L 1765.3,1072.0 L 1765.3,905.3 L 181.2,905.3 L 181.2,19.2 " fill="none" stroke="url(#strokeB)" stroke-width="1.15" stroke-linecap="round" stroke-linejoin="round"/><circle cx="1765.3" cy="1072.0" r="2.4" fill="#FF4D8D" opacity="0.45"/><circle cx="181.2" cy="19.2" r="4.2" fill="#FF4D8D" opacity="0.45"/><circle cx="1765.3" cy="905.3" r="3.9" fill="#FF4D8D" opacity="0.45"/></g>
<g opacity="0.274" filter="url(#softGlow)"><path d="M 1785.8,501.7 L 1786.9,501.7 L 1786.9,210.8 L 1026.2,210.8 L 1026.2,965.9 " fill="none" stroke="url(#strokeB)" stroke-width="1.68" stroke-linecap="round" stroke-linejoin="round"/><circle cx="1786.9" cy="501.7" r="3.1" fill="#FF4D8D" opacity="0.45"/><circle cx="1785.8" cy="501.7" r="2.4" fill="#FF4D8D" opacity="0.45"/><circle cx="1026.2" cy="965.9" r="4.1" fill="#FF4D8D" opacity="0.45"/></g>

<g opacity="0.788" filter="url(#hardGlow)">
  <circle cx="1748.5" cy="193.9" r="45.8" fill="#0A1224" opacity="0.65"/>
  <circle cx="1748.5" cy="193.9" r="45.8" fill="none" stroke="url(#strokeA)" stroke-width="3.7" opacity="0.85"/>
  <circle cx="1748.5" cy="193.9" r="39.4" fill="none" stroke="#14C2FF" stroke-width="1.5" opacity="0.35"/>
  <polygon points="1758.5,162.5 1780.7,186.8 1770.7,218.3 1738.5,225.3 1716.3,201.0 1726.3,169.5" fill="none" stroke="url(#strokeB)" stroke-width="1.2" opacity="0.65"/>
  <polygon points="1755.6,184.8 1752.9,204.6 1737.1,192.4" fill="#14C2FF" opacity="0.22" filter="url(#softGlow)"/>
</g>


<g opacity="0.634" filter="url(#hardGlow)">
  <circle cx="1770.9" cy="196.7" r="21.0" fill="#0A1224" opacity="0.65"/>
  <circle cx="1770.9" cy="196.7" r="21.0" fill="none" stroke="url(#strokeA)" stroke-width="2.0" opacity="0.85"/>
  <circle cx="1770.9" cy="196.7" r="18.0" fill="none" stroke="#FF4D8D" stroke-width="1.5" opacity="0.35"/>
  <polygon points="1786.0,196.5 1778.6,209.7 1763.5,209.9 1755.8,196.9 1763.2,183.7 1778.3,183.5" fill="none" stroke="url(#strokeB)" stroke-width="1.2" opacity="0.65"/>
  
</g>


<g opacity="0.540" filter="url(#hardGlow)">
  <circle cx="1762.9" cy="192.2" r="24.0" fill="#0A1224" opacity="0.65"/>
  <circle cx="1762.9" cy="192.2" r="24.0" fill="none" stroke="url(#strokeA)" stroke-width="2.0" opacity="0.85"/>
  <circle cx="1762.9" cy="192.2" r="20.7" fill="none" stroke="#FF4D8D" stroke-width="1.5" opacity="0.35"/>
  <polygon points="1751.2,204.9 1746.0,188.5 1757.6,175.7 1774.5,179.4 1779.8,195.9 1768.1,208.7" fill="none" stroke="url(#strokeB)" stroke-width="1.2" opacity="0.65"/>
  <polygon points="1757.5,195.0 1763.1,186.1 1768.0,195.4" fill="#FF4D8D" opacity="0.22" filter="url(#softGlow)"/>
</g>


<g opacity="0.762" filter="url(#hardGlow)">
  <circle cx="77.8" cy="969.5" r="63.9" fill="#0A1224" opacity="0.65"/>
  <circle cx="77.8" cy="969.5" r="63.9" fill="none" stroke="url(#strokeA)" stroke-width="5.1" opacity="0.85"/>
  <circle cx="77.8" cy="969.5" r="55.0" fill="none" stroke="#14C2FF" stroke-width="1.9" opacity="0.35"/>
  <polygon points="117.5,946.2 117.8,992.3 78.0,1015.5 38.1,992.7 37.8,946.7 77.5,923.5" fill="none" stroke="url(#strokeB)" stroke-width="1.6" opacity="0.65"/>
  <polygon points="93.6,966.6 72.4,984.6 67.4,957.2" fill="#14C2FF" opacity="0.22" filter="url(#softGlow)"/>
</g>


<g opacity="0.383" filter="url(#hardGlow)">
  <circle cx="3.5" cy="1023.3" r="25.2" fill="#0A1224" opacity="0.65"/>
  <circle cx="3.5" cy="1023.3" r="25.2" fill="none" stroke="url(#strokeA)" stroke-width="2.0" opacity="0.85"/>
  <circle cx="3.5" cy="1023.3" r="21.7" fill="none" stroke="#FF4D8D" stroke-width="1.5" opacity="0.35"/>
  <polygon points="19.2,1014.2 19.2,1032.3 3.5,1041.4 -12.3,1032.4 -12.3,1014.2 3.4,1005.1" fill="none" stroke="url(#strokeB)" stroke-width="1.2" opacity="0.65"/>
  
</g>


<g opacity="0.531" filter="url(#hardGlow)">
  <circle cx="23.0" cy="1002.9" r="33.4" fill="#0A1224" opacity="0.65"/>
  <circle cx="23.0" cy="1002.9" r="33.4" fill="none" stroke="url(#strokeA)" stroke-width="2.7" opacity="0.85"/>
  <circle cx="23.0" cy="1002.9" r="28.7" fill="none" stroke="#FF4D8D" stroke-width="1.5" opacity="0.35"/>
  <polygon points="14.6,980.4 38.3,984.4 46.7,1006.9 31.4,1025.4 7.7,1021.4 -0.7,998.9" fill="none" stroke="url(#strokeB)" stroke-width="1.2" opacity="0.65"/>
  <polygon points="22.9,994.5 30.3,1007.1 15.7,1007.2" fill="#FF4D8D" opacity="0.22" filter="url(#softGlow)"/>
</g>


<g opacity="0.665" filter="url(#hardGlow)">
  <circle cx="54.1" cy="30.6" r="55.5" fill="#0A1224" opacity="0.65"/>
  <circle cx="54.1" cy="30.6" r="55.5" fill="none" stroke="url(#strokeA)" stroke-width="4.4" opacity="0.85"/>
  <circle cx="54.1" cy="30.6" r="47.7" fill="none" stroke="#14C2FF" stroke-width="1.7" opacity="0.35"/>
  <polygon points="62.9,69.5 24.8,57.6 16.0,18.7 45.4,-8.4 83.5,3.5 92.2,42.4" fill="none" stroke="url(#strokeB)" stroke-width="1.4" opacity="0.65"/>
  <polygon points="52.3,44.4 43.0,22.1 67.0,25.2" fill="#14C2FF" opacity="0.22" filter="url(#softGlow)"/>
</g>


<g opacity="0.588" filter="url(#hardGlow)">
  <circle cx="116.4" cy="23.2" r="28.3" fill="#0A1224" opacity="0.65"/>
  <circle cx="116.4" cy="23.2" r="28.3" fill="none" stroke="url(#strokeA)" stroke-width="2.3" opacity="0.85"/>
  <circle cx="116.4" cy="23.2" r="24.4" fill="none" stroke="#FF4D8D" stroke-width="1.5" opacity="0.35"/>
  <polygon points="114.5,2.9 133.0,11.5 134.9,31.8 118.2,43.5 99.7,35.0 97.8,14.6" fill="none" stroke="url(#strokeB)" stroke-width="1.2" opacity="0.65"/>
  
</g>


<g opacity="0.467" filter="url(#hardGlow)">
  <circle cx="117.9" cy="4.1" r="19.4" fill="#0A1224" opacity="0.65"/>
  <circle cx="117.9" cy="4.1" r="19.4" fill="none" stroke="url(#strokeA)" stroke-width="2.0" opacity="0.85"/>
  <circle cx="117.9" cy="4.1" r="16.7" fill="none" stroke="#FF4D8D" stroke-width="1.5" opacity="0.35"/>
  <polygon points="111.6,16.6 103.9,4.9 110.2,-7.6 124.2,-8.4 131.8,3.3 125.5,15.8" fill="none" stroke="url(#strokeB)" stroke-width="1.2" opacity="0.65"/>
  <polygon points="114.3,7.5 116.8,-0.6 122.6,5.5" fill="#FF4D8D" opacity="0.22" filter="url(#softGlow)"/>
</g>


<g opacity="0.566" filter="url(#hardGlow)">
  <circle cx="85.9" cy="31.6" r="26.2" fill="#0A1224" opacity="0.65"/>
  <circle cx="85.9" cy="31.6" r="26.2" fill="none" stroke="url(#strokeA)" stroke-width="2.1" opacity="0.85"/>
  <circle cx="85.9" cy="31.6" r="22.5" fill="none" stroke="#FF4D8D" stroke-width="1.5" opacity="0.35"/>
  <polygon points="100.0,44.1 82.1,50.0 68.0,37.5 71.8,19.0 89.7,13.1 103.8,25.6" fill="none" stroke="url(#strokeB)" stroke-width="1.2" opacity="0.65"/>
  <polygon points="89.0,37.4 79.3,31.4 89.3,25.9" fill="#FF4D8D" opacity="0.22" filter="url(#softGlow)"/>
</g>


<g opacity="0.882" filter="url(#hardGlow)">
  <circle cx="1910.4" cy="993.1" r="61.4" fill="#0A1224" opacity="0.65"/>
  <circle cx="1910.4" cy="993.1" r="61.4" fill="none" stroke="url(#strokeA)" stroke-width="4.9" opacity="0.85"/>
  <circle cx="1910.4" cy="993.1" r="52.8" fill="none" stroke="#14C2FF" stroke-width="1.8" opacity="0.35"/>
  <polygon points="1866.2,993.2 1888.2,954.9 1932.4,954.8 1954.6,993.1 1932.5,1031.4 1888.3,1031.5" fill="none" stroke="url(#strokeB)" stroke-width="1.5" opacity="0.65"/>
  <polygon points="1895.8,987.9 1922.2,983.2 1913.1,1008.4" fill="#14C2FF" opacity="0.22" filter="url(#softGlow)"/>
</g>


<g opacity="0.558" filter="url(#hardGlow)">
  <circle cx="2003.9" cy="1036.9" r="27.5" fill="#0A1224" opacity="0.65"/>
  <circle cx="2003.9" cy="1036.9" r="27.5" fill="none" stroke="url(#strokeA)" stroke-width="2.2" opacity="0.85"/>
  <circle cx="2003.9" cy="1036.9" r="23.7" fill="none" stroke="#FF4D8D" stroke-width="1.5" opacity="0.35"/>
  <polygon points="1993.4,1020.1 2013.3,1019.4 2023.7,1036.3 2014.4,1053.8 1994.6,1054.4 1984.1,1037.6" fill="none" stroke="url(#strokeB)" stroke-width="1.2" opacity="0.65"/>
  
</g>


<g opacity="0.504" filter="url(#hardGlow)">
  <circle cx="1910.2" cy="957.8" r="30.4" fill="#0A1224" opacity="0.65"/>
  <circle cx="1910.2" cy="957.8" r="30.4" fill="none" stroke="url(#strokeA)" stroke-width="2.4" opacity="0.85"/>
  <circle cx="1910.2" cy="957.8" r="26.1" fill="none" stroke="#FF4D8D" stroke-width="1.5" opacity="0.35"/>
  <polygon points="1909.9,936.0 1929.0,946.6 1929.4,968.5 1910.6,979.7 1891.5,969.1 1891.1,947.2" fill="none" stroke="url(#strokeB)" stroke-width="1.2" opacity="0.65"/>
  
</g>


<g opacity="0.865" filter="url(#hardGlow)">
  <circle cx="62.8" cy="1058.4" r="64.2" fill="#0A1224" opacity="0.65"/>
  <circle cx="62.8" cy="1058.4" r="64.2" fill="none" stroke="url(#strokeA)" stroke-width="5.1" opacity="0.85"/>
  <circle cx="62.8" cy="1058.4" r="55.2" fill="none" stroke="#14C2FF" stroke-width="1.9" opacity="0.35"/>
  <polygon points="59.5,1012.3 101.1,1032.5 104.4,1078.6 66.1,1104.5 24.5,1084.3 21.2,1038.1" fill="none" stroke="url(#strokeB)" stroke-width="1.6" opacity="0.65"/>
  <polygon points="67.2,1042.8 74.0,1070.0 47.1,1062.3" fill="#14C2FF" opacity="0.22" filter="url(#softGlow)"/>
</g>


<g opacity="0.624" filter="url(#hardGlow)">
  <circle cx="123.1" cy="1067.1" r="35.2" fill="#0A1224" opacity="0.65"/>
  <circle cx="123.1" cy="1067.1" r="35.2" fill="none" stroke="url(#strokeA)" stroke-width="2.8" opacity="0.85"/>
  <circle cx="123.1" cy="1067.1" r="30.3" fill="none" stroke="#FF4D8D" stroke-width="1.5" opacity="0.35"/>
  <polygon points="127.5,1092.1 103.7,1083.5 99.2,1058.5 118.6,1042.2 142.4,1050.8 146.9,1075.8" fill="none" stroke="url(#strokeB)" stroke-width="1.2" opacity="0.65"/>
  <polygon points="121.5,1075.9 116.2,1061.4 131.4,1064.1" fill="#FF4D8D" opacity="0.22" filter="url(#softGlow)"/>
</g>


<g opacity="0.351" filter="url(#hardGlow)">
  <circle cx="91.7" cy="1000.9" r="31.6" fill="#0A1224" opacity="0.65"/>
  <circle cx="91.7" cy="1000.9" r="31.6" fill="none" stroke="url(#strokeA)" stroke-width="2.5" opacity="0.85"/>
  <circle cx="91.7" cy="1000.9" r="27.1" fill="none" stroke="#FF4D8D" stroke-width="1.5" opacity="0.35"/>
  <polygon points="106.0,1018.6 83.5,1022.2 69.2,1004.5 77.4,983.3 99.8,979.7 114.1,997.4" fill="none" stroke="url(#strokeB)" stroke-width="1.2" opacity="0.65"/>
  <polygon points="94.3,1008.5 83.9,999.4 96.9,994.9" fill="#FF4D8D" opacity="0.22" filter="url(#softGlow)"/>
</g>


<g opacity="0.436" transform="translate(78.3,1029.9) rotate(3.7)" filter="url(#softGlow)">
  <rect x="-105.9" y="-74.9" width="211.8" height="149.8" rx="15.0" fill="#050A12" opacity="0.25"/>
  <rect x="-105.9" y="-74.9" width="211.8" height="149.8" rx="15.0" fill="none" stroke="url(#strokeA)" stroke-width="7.5" opacity="0.85"/>
  <rect x="-93.9" y="-62.9" width="187.8" height="125.8" rx="10.5" fill="none" stroke="#FF4D8D" stroke-width="3.0" opacity="0.35"/>
</g>


<g opacity="0.311" transform="translate(630.8,1071.0) rotate(-6.0)" filter="url(#softGlow)">
  <rect x="-99.0" y="-87.4" width="198.0" height="174.7" rx="17.5" fill="#050A12" opacity="0.25"/>
  <rect x="-99.0" y="-87.4" width="198.0" height="174.7" rx="17.5" fill="none" stroke="url(#strokeA)" stroke-width="8.7" opacity="0.85"/>
  <rect x="-85.0" y="-73.4" width="170.1" height="146.8" rx="12.2" fill="none" stroke="#14C2FF" stroke-width="3.5" opacity="0.35"/>
</g>


<g opacity="0.310" transform="translate(1766.1,486.6) rotate(1.4)" filter="url(#softGlow)">
  <rect x="-111.3" y="-81.5" width="222.6" height="162.9" rx="16.3" fill="#050A12" opacity="0.25"/>
  <rect x="-111.3" y="-81.5" width="222.6" height="162.9" rx="16.3" fill="none" stroke="url(#strokeA)" stroke-width="8.1" opacity="0.85"/>
  <rect x="-98.2" y="-68.4" width="196.5" height="136.9" rx="11.4" fill="none" stroke="#14C2FF" stroke-width="3.3" opacity="0.35"/>
</g>


<g opacity="0.340" transform="translate(1792.8,102.1) rotate(9.8)" filter="url(#softGlow)">
  <rect x="-92.9" y="-66.9" width="185.7" height="133.8" rx="13.4" fill="#050A12" opacity="0.25"/>
  <rect x="-92.9" y="-66.9" width="185.7" height="133.8" rx="13.4" fill="none" stroke="url(#strokeA)" stroke-width="6.7" opacity="0.85"/>
  <rect x="-82.2" y="-56.2" width="164.3" height="112.4" rx="9.4" fill="none" stroke="#FF4D8D" stroke-width="2.7" opacity="0.35"/>
</g>


<g opacity="0.255" transform="translate(189.1,226.4) rotate(16.9)" filter="url(#softGlow)">
  <rect x="-51.3" y="-29.5" width="102.5" height="59.1" rx="18.0" fill="none" stroke="#14C2FF" stroke-width="9.8" opacity="0.55"/>
  <rect x="-22.6" y="-14.8" width="102.5" height="59.1" rx="18.0" fill="none" stroke="url(#strokeA)" stroke-width="8.2" opacity="0.55"/>
</g>


<g opacity="0.274" transform="translate(80.2,1037.5) rotate(-15.3)" filter="url(#softGlow)">
  <rect x="-58.8" y="-33.9" width="117.6" height="67.7" rx="20.7" fill="none" stroke="#FF4D8D" stroke-width="11.3" opacity="0.55"/>
  <rect x="-25.9" y="-16.9" width="117.6" height="67.7" rx="20.7" fill="none" stroke="url(#strokeA)" stroke-width="9.4" opacity="0.55"/>
</g>


<g opacity="0.372" transform="translate(145.6,105.5) rotate(-2.2)" filter="url(#softGlow)">
  <rect x="-46.0" y="-26.5" width="92.1" height="53.0" rx="16.2" fill="none" stroke="#FF4D8D" stroke-width="8.8" opacity="0.55"/>
  <rect x="-20.3" y="-13.3" width="92.1" height="53.0" rx="16.2" fill="none" stroke="url(#strokeA)" stroke-width="7.4" opacity="0.55"/>
</g>


<g opacity="0.281" transform="translate(1716.1,921.3) rotate(-1.4)" filter="url(#softGlow)">
  <rect x="-53.4" y="-30.7" width="106.7" height="61.5" rx="18.8" fill="none" stroke="#14C2FF" stroke-width="10.2" opacity="0.55"/>
  <rect x="-23.5" y="-15.4" width="106.7" height="61.5" rx="18.8" fill="none" stroke="url(#strokeA)" stroke-width="8.5" opacity="0.55"/>
</g>


<g opacity="0.467" transform="translate(1793.3,926.6) rotate(-7.8)" filter="url(#softGlow)">
  <rect x="-39.4" y="-22.7" width="78.7" height="45.3" rx="13.9" fill="none" stroke="#14C2FF" stroke-width="7.6" opacity="0.55"/>
  <rect x="-17.3" y="-11.3" width="78.7" height="45.3" rx="13.9" fill="none" stroke="url(#strokeA)" stroke-width="6.3" opacity="0.55"/>
</g>


<g opacity="0.426" transform="translate(16.4,1057.9) rotate(0.4)" filter="url(#softGlow)">
  <rect x="-40.7" y="-23.5" width="81.5" height="46.9" rx="14.3" fill="none" stroke="#14C2FF" stroke-width="7.8" opacity="0.55"/>
  <rect x="-17.9" y="-11.7" width="81.5" height="46.9" rx="14.3" fill="none" stroke="url(#strokeA)" stroke-width="6.5" opacity="0.55"/>
</g>


<g opacity="0.393" transform="translate(90.3,979.3) rotate(15.3)" filter="url(#softGlow)">
  <rect x="-51.2" y="-29.5" width="102.3" height="58.9" rx="18.0" fill="none" stroke="#14C2FF" stroke-width="9.8" opacity="0.55"/>
  <rect x="-22.5" y="-14.7" width="102.3" height="58.9" rx="18.0" fill="none" stroke="url(#strokeA)" stroke-width="8.2" opacity="0.55"/>
</g>


<g opacity="0.403" transform="translate(1021.8,29.0) rotate(-10.4)" filter="url(#softGlow)">
  <rect x="-43.2" y="-24.9" width="86.4" height="49.7" rx="15.2" fill="none" stroke="#FF4D8D" stroke-width="8.3" opacity="0.55"/>
  <rect x="-19.0" y="-12.4" width="86.4" height="49.7" rx="15.2" fill="none" stroke="url(#strokeA)" stroke-width="6.9" opacity="0.55"/>
</g>


<g opacity="0.328" transform="translate(83.1,130.2) rotate(-10.9)" filter="url(#softGlow)">
  <rect x="-42.7" y="-24.6" width="85.4" height="49.2" rx="15.0" fill="none" stroke="#14C2FF" stroke-width="8.2" opacity="0.55"/>
  <rect x="-18.8" y="-12.3" width="85.4" height="49.2" rx="15.0" fill="none" stroke="url(#strokeA)" stroke-width="6.8" opacity="0.55"/>
</g>


<g opacity="0.390" transform="translate(26.2,862.5) rotate(8.3)" filter="url(#softGlow)">
  <rect x="-54.2" y="-31.2" width="108.3" height="62.4" rx="19.1" fill="none" stroke="#FF4D8D" stroke-width="10.4" opacity="0.55"/>
  <rect x="-23.8" y="-15.6" width="108.3" height="62.4" rx="19.1" fill="none" stroke="url(#strokeA)" stroke-width="8.7" opacity="0.55"/>
</g>


<g opacity="0.168">
  <line x1="3.4" y1="887.4" x2="3.4" y2="974.0" stroke="#FF4D8D" stroke-width="1.43" opacity="0.45"/>
  <rect x="-1.2" y="938.1" width="9.3" height="37.1" rx="3.1" fill="#0B1020" opacity="0.55" stroke="url(#strokeA)" stroke-width="1.2"/>
</g>

<g opacity="0.168">
  <line x1="237.9" y1="914.1" x2="237.9" y2="967.3" stroke="#FF4D8D" stroke-width="1.28" opacity="0.45"/>
  <rect x="232.9" y="944.5" width="9.9" height="24.3" rx="3.3" fill="#0B1020" opacity="0.55" stroke="url(#strokeA)" stroke-width="1.2"/>
</g>

<g opacity="0.168">
  <line x1="1903.5" y1="866.4" x2="1903.5" y2="979.2" stroke="#FF4D8D" stroke-width="1.35" opacity="0.45"/>
  <rect x="1897.7" y="931.1" width="11.5" height="51.0" rx="3.8" fill="#0B1020" opacity="0.55" stroke="url(#strokeA)" stroke-width="1.2"/>
</g>
<circle cx="1759.0" cy="82.4" r="2.8" fill="#14C2FF" opacity="0.13" filter="url(#softGlow)"/>
<circle cx="41.6" cy="891.7" r="1.8" fill="#14C2FF" opacity="0.23" filter="url(#softGlow)"/>
<circle cx="1906.2" cy="48.7" r="1.8" fill="#14C2FF" opacity="0.28" filter="url(#softGlow)"/>
<circle cx="566.0" cy="1055.0" r="3.0" fill="#14C2FF" opacity="0.11" filter="url(#softGlow)"/>
<circle cx="1918.8" cy="133.4" r="2.7" fill="#14C2FF" opacity="0.14" filter="url(#softGlow)"/>
<circle cx="151.1" cy="1013.0" r="2.6" fill="#14C2FF" opacity="0.26" filter="url(#softGlow)"/>
<circle cx="71.6" cy="202.3" r="1.4" fill="#14C2FF" opacity="0.26" filter="url(#softGlow)"/>
<circle cx="1890.1" cy="154.6" r="1.4" fill="#14C2FF" opacity="0.26" filter="url(#softGlow)"/>
<circle cx="96.3" cy="132.3" r="2.6" fill="#14C2FF" opacity="0.22" filter="url(#softGlow)"/>
<circle cx="26.9" cy="208.0" r="1.7" fill="#14C2FF" opacity="0.19" filter="url(#softGlow)"/>
<circle cx="1913.3" cy="200.2" r="1.3" fill="#14C2FF" opacity="0.11" filter="url(#softGlow)"/>
<circle cx="99.6" cy="198.1" r="2.5" fill="#14C2FF" opacity="0.20" filter="url(#softGlow)"/>
<circle cx="1785.0" cy="676.3" r="3.1" fill="#14C2FF" opacity="0.14" filter="url(#softGlow)"/>
<circle cx="1910.5" cy="1010.6" r="2.6" fill="#14C2FF" opacity="0.18" filter="url(#softGlow)"/>
<circle cx="1842.6" cy="203.7" r="3.1" fill="#14C2FF" opacity="0.22" filter="url(#softGlow)"/>
<circle cx="1914.9" cy="142.7" r="3.1" fill="#14C2FF" opacity="0.15" filter="url(#softGlow)"/>
<circle cx="75.5" cy="16.2" r="1.9" fill="#14C2FF" opacity="0.19" filter="url(#softGlow)"/>
<circle cx="122.4" cy="92.9" r="1.7" fill="#14C2FF" opacity="0.24" filter="url(#softGlow)"/>
<circle cx="7.7" cy="999.8" r="2.1" fill="#14C2FF" opacity="0.13" filter="url(#softGlow)"/>
<circle cx="1859.0" cy="95.4" r="1.8" fill="#14C2FF" opacity="0.17" filter="url(#softGlow)"/>
<circle cx="130.8" cy="1068.0" r="2.5" fill="#14C2FF" opacity="0.10" filter="url(#softGlow)"/>
<circle cx="263.6" cy="1004.1" r="2.1" fill="#14C2FF" opacity="0.27" filter="url(#softGlow)"/>
<circle cx="1777.4" cy="71.9" r="1.8" fill="#14C2FF" opacity="0.27" filter="url(#softGlow)"/>
<circle cx="1751.6" cy="877.8" r="2.3" fill="#14C2FF" opacity="0.20" filter="url(#softGlow)"/>
<circle cx="1759.2" cy="332.2" r="2.0" fill="#14C2FF" opacity="0.21" filter="url(#softGlow)"/>
</svg>