<svg xmlns="http://www.w3.org/2000/svg" width="1920" height="1080" viewBox="0 0 1920 1080" preserveAspectRatio="xMidYMid slice">
<defs>
  <linearGradient id="g0" x1="0" y1="0" x2="1" y2="1">
    <stop offset="0" stop-color="#0B1020"/>
    <stop offset="0.55" stop-color="#00E5FF" stop-opacity="0.9"/>
    <stop offset="1" stop-color="#051018"/>
  </linearGradient>
  <radialGradient id="g1" cx="20%" cy="15%" r="70%">
    <stop offset="0" stop-color="#7C4DFF" stop-opacity="0.38"/>
    <stop offset="0.6" stop-color="#7C4DFF" stop-opacity="0.08"/>
    <stop offset="1" stop-color="#7C4DFF" stop-opacity="0"/>
  </radialGradient>
  <radialGradient id="g2" cx="85%" cy="80%" r="75%">
    <stop offset="0" stop-color="#7C4DFF" stop-opacity="0.28"/>
    <stop offset="0.65" stop-color="#7C4DFF" stop-opacity="0.06"/>
    <stop offset="1" stop-color="#7C4DFF" stop-opacity="0"/>
  </radialGradient>
  <filter id="softGlow" x="-30%" y="-30%" width="160%" height="160%">
    <feGaussianBlur stdDeviation="12" result="b"/>
    <feMerge>
      <feMergeNode in="b"/>
      <feMergeNode in="SourceGraphic"/>
    </feMerge>
  </filter>
  <filter id="hardGlow" x="-40%" y="-40%" width="180%" height="180%">
    <feGaussianBlur stdDeviation="6" result="b"/>
    <feColorMatrix in="b" type="matrix" values="1 0 0 0 0  0 1 0 0 0  0 0 1 0 0  0 0 0 18 -7" result="c"/>
    <feMerge>
      <feMergeNode in="c"/>
      <feMergeNode in="SourceGraphic"/>
    </feMerge>
  </filter>
  <linearGradient id="strokeA" x1="0" y1="0" x2="1" y2="0">
    <stop offset="0" stop-color="#7C4DFF" stop-opacity="0.9"/>
    <stop offset="0.5" stop-color="#FFFFFF" stop-opacity="0.25"/>
    <stop offset="1" stop-color="#7C4DFF" stop-opacity="0.7"/>
  </linearGradient>
  <linearGradient id="strokeB" x1="0" y1="0" x2="0" y2="1">
    <stop offset="0" stop-color="#FFFFFF" stop-opacity="0.18"/>
    <stop offset="1" stop-color="#7C4DFF" stop-opacity="0.55"/>
  </linearGradient>
</defs>
<rect x="0" y="0" width="1920" height="1080" fill="url(#g0)"/>
<rect x="0" y="0" width="1920" height="1080" fill="url(#g1)"/>
<rect x="0" y="0" width="1920" height="1080" fill="url(#g2)"/>


<defs>
  <radialGradient id="vign" cx="0.5000" cy="0.5093" r="0.85">
    <stop offset="0" stop-color="#000000" stop-opacity="0"/>
    <stop offset="0.55" stop-color="#000000" stop-opacity="0.217"/>
    <stop offset="1" stop-color="#000000" stop-opacity="0.620"/>
  </radialGradient>
</defs>
<rect x="0" y="0" width="1920" height="1080" fill="url(#vign)"/>

<g opacity="0.259" filter="url(#softGlow)"><path d="M 1332.4,101.4 L 5.7,101.4 L 5.7,799.6 L 1712.2,799.6 L 1712.2,2.5 " fill="none" stroke="url(#strokeB)" stroke-width="1.92" stroke-linecap="round" stroke-linejoin="round"/><circle cx="1712.2" cy="799.6" r="4.1" fill="#7C4DFF" opacity="0.45"/><circle cx="5.7" cy="799.6" r="2.8" fill="#7C4DFF" opacity="0.45"/><circle cx="1332.4" cy="101.4" r="3.2" fill="#7C4DFF" opacity="0.45"/></g>
<g opacity="0.259" filter="url(#softGlow)"><path d="M 1743.6,1019.4 L 1819.1,1019.4 L 1819.1,385.6 L 1762.0,385.6 L 1762.0,646.5 " fill="none" stroke="url(#strokeB)" stroke-width="1.27" stroke-linecap="round" stroke-linejoin="round"/><circle cx="1743.6" cy="1019.4" r="2.9" fill="#7C4DFF" opacity="0.45"/><circle cx="1762.0" cy="385.6" r="3.5" fill="#7C4DFF" opacity="0.45"/><circle cx="1762.0" cy="646.5" r="3.1" fill="#7C4DFF" opacity="0.45"/></g>
<g opacity="0.259" filter="url(#softGlow)"><path d="M 1573.4,41.3 L 1831.7,41.3 L 1831.7,908.5 L 1731.6,908.5 L 1731.6,967.7 " fill="none" stroke="url(#strokeB)" stroke-width="1.94" stroke-linecap="round" stroke-linejoin="round"/><circle cx="1731.6" cy="908.5" r="2.4" fill="#7C4DFF" opacity="0.45"/><circle cx="1573.4" cy="41.3" r="3.2" fill="#7C4DFF" opacity="0.45"/><circle cx="1731.6" cy="967.7" r="2.4" fill="#7C4DFF" opacity="0.45"/></g>
<g opacity="0.259" filter="url(#softGlow)"><path d="M 172.7,1012.1 L 193.7,1012.1 L 193.7,217.7 L 1780.8,217.7 L 1780.8,956.4 " fill="none" stroke="url(#strokeB)" stroke-width="1.90" stroke-linecap="round" stroke-linejoin="round"/><circle cx="172.7" cy="1012.1" r="3.7" fill="#7C4DFF" opacity="0.45"/><circle cx="193.7" cy="217.7" r="2.7" fill="#7C4DFF" opacity="0.45"/><circle cx="193.7" cy="1012.1" r="3.5" fill="#7C4DFF" opacity="0.45"/></g>
<g opacity="0.259" filter="url(#softGlow)"><path d="M 1850.0,988.2 L 105.8,988.2 L 105.8,1016.6 L 1784.5,1016.6 L 1784.5,184.9 " fill="none" stroke="url(#strokeB)" stroke-width="2.13" stroke-linecap="round" stroke-linejoin="round"/><circle cx="1784.5" cy="1016.6" r="2.1" fill="#7C4DFF" opacity="0.45"/><circle cx="1784.5" cy="184.9" r="3.9" fill="#7C4DFF" opacity="0.45"/><circle cx="105.8" cy="1016.6" r="2.4" fill="#7C4DFF" opacity="0.45"/></g>
<g opacity="0.259" filter="url(#softGlow)"><path d="M 183.7,878.4 L 1708.9,878.4 L 1708.9,986.5 L 877.8,986.5 L 877.8,1035.7 " fill="none" stroke="url(#strokeB)" stroke-width="1.12" stroke-linecap="round" stroke-linejoin="round"/><circle cx="1708.9" cy="878.4" r="3.1" fill="#7C4DFF" opacity="0.45"/><circle cx="1708.9" cy="986.5" r="2.7" fill="#7C4DFF" opacity="0.45"/><circle cx="183.7" cy="878.4" r="2.9" fill="#7C4DFF" opacity="0.45"/></g>
<g opacity="0.259" filter="url(#softGlow)"><path d="M 1865.7,905.1 L 136.4,905.1 L 136.4,477.7 L 104.8,477.7 L 104.8,433.6 " fill="none" stroke="url(#strokeB)" stroke-width="2.11" stroke-linecap="round" stroke-linejoin="round"/><circle cx="104.8" cy="433.6" r="3.3" fill="#7C4DFF" opacity="0.45"/><circle cx="136.4" cy="477.7" r="3.6" fill="#7C4DFF" opacity="0.45"/><circle cx="104.8" cy="477.7" r="3.6" fill="#7C4DFF" opacity="0.45"/></g>
<g opacity="0.259" filter="url(#softGlow)"><path d="M 1819.4,88.2 L 1560.5,88.2 L 1560.5,1046.1 L 55.7,1046.1 L 55.7,1026.4 " fill="none" stroke="url(#strokeB)" stroke-width="1.74" stroke-linecap="round" stroke-linejoin="round"/><circle cx="1560.5" cy="1046.1" r="2.5" fill="#7C4DFF" opacity="0.45"/><circle cx="1819.4" cy="88.2" r="3.6" fill="#7C4DFF" opacity="0.45"/><circle cx="1560.5" cy="88.2" r="3.7" fill="#7C4DFF" opacity="0.45"/></g>
<g opacity="0.259" filter="url(#softGlow)"><path d="M 49.5,562.7 L 1810.9,562.7 L 1810.9,936.6 L 112.3,936.6 L 112.3,164.4 " fill="none" stroke="url(#strokeB)" stroke-width="2.09" stroke-linecap="round" stroke-linejoin="round"/><circle cx="1810.9" cy="562.7" r="3.4" fill="#7C4DFF" opacity="0.45"/><circle cx="1810.9" cy="936.6" r="3.5" fill="#7C4DFF" opacity="0.45"/><circle cx="112.3" cy="164.4" r="3.3" fill="#7C4DFF" opacity="0.45"/></g>
<g opacity="0.259" filter="url(#softGlow)"><path d="M 3.8,1077.6 L 88.6,1077.6 L 88.6,982.0 L 172.2,982.0 L 172.2,1064.5 " fill="none" stroke="url(#strokeB)" stroke-width="1.24" stroke-linecap="round" stroke-linejoin="round"/><circle cx="172.2" cy="982.0" r="3.2" fill="#7C4DFF" opacity="0.45"/><circle cx="88.6" cy="1077.6" r="3.3" fill="#7C4DFF" opacity="0.45"/><circle cx="3.8" cy="1077.6" r="2.1" fill="#7C4DFF" opacity="0.45"/></g>
<g opacity="0.259" filter="url(#softGlow)"><path d="M 1813.3,110.5 L 1810.0,110.5 L 1810.0,918.4 L 32.4,918.4 L 32.4,878.7 " fill="none" stroke="url(#strokeB)" stroke-width="2.08" stroke-linecap="round" stroke-linejoin="round"/><circle cx="32.4" cy="918.4" r="3.2" fill="#7C4DFF" opacity="0.45"/><circle cx="1810.0" cy="110.5" r="3.4" fill="#7C4DFF" opacity="0.45"/><circle cx="32.4" cy="878.7" r="3.1" fill="#7C4DFF" opacity="0.45"/></g>
<g opacity="0.259" filter="url(#softGlow)"><path d="M 1555.4,970.2 L 1890.2,970.2 L 1890.2,992.3 L 164.1,992.3 L 164.1,1022.8 " fill="none" stroke="url(#strokeB)" stroke-width="1.32" stroke-linecap="round" stroke-linejoin="round"/><circle cx="1555.4" cy="970.2" r="2.4" fill="#7C4DFF" opacity="0.45"/><circle cx="164.1" cy="1022.8" r="3.3" fill="#7C4DFF" opacity="0.45"/><circle cx="1890.2" cy="992.3" r="2.9" fill="#7C4DFF" opacity="0.45"/></g>
<g opacity="0.259" filter="url(#softGlow)"><path d="M 1733.2,1025.5 L 1887.4,1025.5 L 1887.4,823.7 L 133.5,823.7 L 133.5,213.6 " fill="none" stroke="url(#strokeB)" stroke-width="1.86" stroke-linecap="round" stroke-linejoin="round"/><circle cx="133.5" cy="213.6" r="2.0" fill="#7C4DFF" opacity="0.45"/><circle cx="1887.4" cy="1025.5" r="2.1" fill="#7C4DFF" opacity="0.45"/><circle cx="133.5" cy="823.7" r="2.5" fill="#7C4DFF" opacity="0.45"/></g>
<g opacity="0.259" filter="url(#softGlow)"><path d="M 1730.3,891.0 L 1796.1,891.0 L 1796.1,1047.5 L 117.5,1047.5 L 117.5,981.6 " fill="none" stroke="url(#strokeB)" stroke-width="1.63" stroke-linecap="round" stroke-linejoin="round"/><circle cx="1796.1" cy="891.0" r="2.5" fill="#7C4DFF" opacity="0.45"/><circle cx="117.5" cy="1047.5" r="4.2" fill="#7C4DFF" opacity="0.45"/><circle cx="1796.1" cy="1047.5" r="4.1" fill="#7C4DFF" opacity="0.45"/></g>
<g opacity="0.259" filter="url(#softGlow)"><path d="M 1887.5,408.9 L 55.9,408.9 L 55.9,4.3 L 1757.1,4.3 L 1757.1,1047.3 " fill="none" stroke="url(#strokeB)" stroke-width="1.90" stroke-linecap="round" stroke-linejoin="round"/><circle cx="55.9" cy="408.9" r="3.8" fill="#7C4DFF" opacity="0.45"/><circle cx="1757.1" cy="4.3" r="3.1" fill="#7C4DFF" opacity="0.45"/><circle cx="1757.1" cy="1047.3" r="2.8" fill="#7C4DFF" opacity="0.45"/></g>

<g opacity="0.887" filter="url(#hardGlow)">
  <circle cx="1812.2" cy="970.9" r="67.7" fill="#0A1224" opacity="0.65"/>
  <circle cx="1812.2" cy="970.9" r="67.7" fill="none" stroke="url(#strokeA)" stroke-width="5.4" opacity="0.85"/>
  <circle cx="1812.2" cy="970.9" r="58.3" fill="none" stroke="#FFB300" stroke-width="2.0" opacity="0.35"/>
  <polygon points="1854.2,995.7 1811.7,1019.6 1769.7,994.8 1770.2,946.0 1812.7,922.1 1854.7,946.9" fill="none" stroke="url(#strokeB)" stroke-width="1.7" opacity="0.65"/>
  <polygon points="1823.0,984.1 1795.3,973.7 1818.2,954.9" fill="#FFB300" opacity="0.22" filter="url(#softGlow)"/>
</g>


<g opacity="0.504" filter="url(#hardGlow)">
  <circle cx="1807.1" cy="921.5" r="32.3" fill="#0A1224" opacity="0.65"/>
  <circle cx="1807.1" cy="921.5" r="32.3" fill="none" stroke="url(#strokeA)" stroke-width="2.6" opacity="0.85"/>
  <circle cx="1807.1" cy="921.5" r="27.8" fill="none" stroke="#7C4DFF" stroke-width="1.5" opacity="0.35"/>
  <polygon points="1825.9,907.7 1828.4,930.8 1809.6,944.6 1788.3,935.2 1785.8,912.1 1804.6,898.3" fill="none" stroke="url(#strokeB)" stroke-width="1.2" opacity="0.65"/>
  <polygon points="1814.9,919.2 1805.2,929.4 1801.2,915.8" fill="#7C4DFF" opacity="0.22" filter="url(#softGlow)"/>
</g>


<g opacity="0.562" filter="url(#hardGlow)">
  <circle cx="1889.7" cy="1016.7" r="29.7" fill="#0A1224" opacity="0.65"/>
  <circle cx="1889.7" cy="1016.7" r="29.7" fill="none" stroke="url(#strokeA)" stroke-width="2.4" opacity="0.85"/>
  <circle cx="1889.7" cy="1016.7" r="25.6" fill="none" stroke="#7C4DFF" stroke-width="1.5" opacity="0.35"/>
  <polygon points="1880.5,997.3 1901.9,999.1 1911.0,1018.4 1898.9,1036.0 1877.5,1034.3 1868.4,1014.9" fill="none" stroke="url(#strokeB)" stroke-width="1.2" opacity="0.65"/>
  
</g>


<g opacity="0.409" filter="url(#hardGlow)">
  <circle cx="1820.9" cy="1043.4" r="24.3" fill="#0A1224" opacity="0.65"/>
  <circle cx="1820.9" cy="1043.4" r="24.3" fill="none" stroke="url(#strokeA)" stroke-width="2.0" opacity="0.85"/>
  <circle cx="1820.9" cy="1043.4" r="20.9" fill="none" stroke="#7C4DFF" stroke-width="1.5" opacity="0.35"/>
  <polygon points="1822.8,1026.0 1836.9,1036.3 1835.1,1053.7 1819.1,1060.8 1805.0,1050.5 1806.8,1033.1" fill="none" stroke="url(#strokeB)" stroke-width="1.2" opacity="0.65"/>
  
</g>


<g opacity="0.730" filter="url(#hardGlow)">
  <circle cx="757.9" cy="125.9" r="38.9" fill="#0A1224" opacity="0.65"/>
  <circle cx="757.9" cy="125.9" r="38.9" fill="none" stroke="url(#strokeA)" stroke-width="3.1" opacity="0.85"/>
  <circle cx="757.9" cy="125.9" r="33.4" fill="none" stroke="#FFB300" stroke-width="1.5" opacity="0.35"/>
  <polygon points="785.8,128.5 769.6,151.3 741.7,148.7 730.0,123.3 746.2,100.5 774.1,103.1" fill="none" stroke="url(#strokeB)" stroke-width="1.2" opacity="0.65"/>
  <polygon points="766.8,130.1 749.8,131.5 757.1,116.1" fill="#FFB300" opacity="0.22" filter="url(#softGlow)"/>
</g>


<g opacity="0.688" filter="url(#hardGlow)">
  <circle cx="1833.6" cy="28.0" r="67.7" fill="#0A1224" opacity="0.65"/>
  <circle cx="1833.6" cy="28.0" r="67.7" fill="none" stroke="url(#strokeA)" stroke-width="5.4" opacity="0.85"/>
  <circle cx="1833.6" cy="28.0" r="58.2" fill="none" stroke="#FFB300" stroke-width="2.0" opacity="0.35"/>
  <polygon points="1844.6,75.5 1797.9,61.3 1787.0,13.8 1822.6,-19.5 1869.2,-5.3 1880.2,42.2" fill="none" stroke="url(#strokeB)" stroke-width="1.7" opacity="0.65"/>
  <polygon points="1831.5,44.9 1819.9,17.7 1849.3,21.3" fill="#FFB300" opacity="0.22" filter="url(#softGlow)"/>
</g>


<g opacity="0.644" filter="url(#hardGlow)">
  <circle cx="1813.3" cy="36.6" r="25.4" fill="#0A1224" opacity="0.65"/>
  <circle cx="1813.3" cy="36.6" r="25.4" fill="none" stroke="url(#strokeA)" stroke-width="2.0" opacity="0.85"/>
  <circle cx="1813.3" cy="36.6" r="21.9" fill="none" stroke="#7C4DFF" stroke-width="1.5" opacity="0.35"/>
  <polygon points="1812.9,18.3 1829.0,27.1 1829.3,45.4 1813.7,54.9 1797.6,46.0 1797.3,27.7" fill="none" stroke="url(#strokeB)" stroke-width="1.2" opacity="0.65"/>
  <polygon points="1815.4,30.5 1817.5,41.4 1807.0,37.8" fill="#7C4DFF" opacity="0.22" filter="url(#softGlow)"/>
</g>


<g opacity="0.424" filter="url(#hardGlow)">
  <circle cx="1926.2" cy="64.9" r="30.4" fill="#0A1224" opacity="0.65"/>
  <circle cx="1926.2" cy="64.9" r="30.4" fill="none" stroke="url(#strokeA)" stroke-width="2.4" opacity="0.85"/>
  <circle cx="1926.2" cy="64.9" r="26.2" fill="none" stroke="#7C4DFF" stroke-width="1.5" opacity="0.35"/>
  <polygon points="1948.1,64.3 1937.7,83.5 1915.8,84.1 1904.3,65.5 1914.8,46.2 1936.7,45.6" fill="none" stroke="url(#strokeB)" stroke-width="1.2" opacity="0.65"/>
  
</g>


<g opacity="0.834" filter="url(#hardGlow)">
  <circle cx="1591.4" cy="21.5" r="67.5" fill="#0A1224" opacity="0.65"/>
  <circle cx="1591.4" cy="21.5" r="67.5" fill="none" stroke="url(#strokeA)" stroke-width="5.4" opacity="0.85"/>
  <circle cx="1591.4" cy="21.5" r="58.1" fill="none" stroke="#FFB300" stroke-width="2.0" opacity="0.35"/>
  <polygon points="1618.9,61.6 1570.4,65.4 1542.9,25.3 1563.9,-18.6 1612.4,-22.3 1639.8,17.8" fill="none" stroke="url(#strokeB)" stroke-width="1.7" opacity="0.65"/>
  <polygon points="1595.6,38.0 1575.0,17.0 1603.5,9.6" fill="#FFB300" opacity="0.22" filter="url(#softGlow)"/>
</g>


<g opacity="0.636" filter="url(#hardGlow)">
  <circle cx="1620.0" cy="52.8" r="26.6" fill="#0A1224" opacity="0.65"/>
  <circle cx="1620.0" cy="52.8" r="26.6" fill="none" stroke="url(#strokeA)" stroke-width="2.1" opacity="0.85"/>
  <circle cx="1620.0" cy="52.8" r="22.8" fill="none" stroke="#7C4DFF" stroke-width="1.5" opacity="0.35"/>
  <polygon points="1632.9,38.7 1638.7,56.9 1625.8,71.1 1607.1,67.0 1601.3,48.7 1614.2,34.6" fill="none" stroke="url(#strokeB)" stroke-width="1.2" opacity="0.65"/>
  <polygon points="1625.9,49.7 1619.7,59.5 1614.4,49.3" fill="#7C4DFF" opacity="0.22" filter="url(#softGlow)"/>
</g>


<g opacity="0.676" filter="url(#hardGlow)">
  <circle cx="49.4" cy="1062.8" r="49.6" fill="#0A1224" opacity="0.65"/>
  <circle cx="49.4" cy="1062.8" r="49.6" fill="none" stroke="url(#strokeA)" stroke-width="4.0" opacity="0.85"/>
  <circle cx="49.4" cy="1062.8" r="42.7" fill="none" stroke="#FFB300" stroke-width="1.5" opacity="0.35"/>
  <polygon points="14.7,1054.4 39.4,1028.5 74.1,1037.0 84.1,1071.3 59.4,1097.1 24.7,1088.7" fill="none" stroke="url(#strokeB)" stroke-width="1.2" opacity="0.65"/>
  <polygon points="39.0,1055.9 60.6,1057.3 48.6,1075.3" fill="#FFB300" opacity="0.22" filter="url(#softGlow)"/>
</g>


<g opacity="0.454" filter="url(#hardGlow)">
  <circle cx="44.8" cy="1100.2" r="20.5" fill="#0A1224" opacity="0.65"/>
  <circle cx="44.8" cy="1100.2" r="20.5" fill="none" stroke="url(#strokeA)" stroke-width="2.0" opacity="0.85"/>
  <circle cx="44.8" cy="1100.2" r="17.7" fill="none" stroke="#7C4DFF" stroke-width="1.5" opacity="0.35"/>
  <polygon points="43.6,1115.0 31.5,1106.6 32.6,1091.9 46.0,1085.5 58.2,1093.9 57.0,1108.6" fill="none" stroke="url(#strokeB)" stroke-width="1.2" opacity="0.65"/>
  <polygon points="42.7,1105.0 41.8,1096.0 50.0,1099.7" fill="#7C4DFF" opacity="0.22" filter="url(#softGlow)"/>
</g>


<g opacity="0.423" filter="url(#hardGlow)">
  <circle cx="124.2" cy="1079.0" r="27.0" fill="#0A1224" opacity="0.65"/>
  <circle cx="124.2" cy="1079.0" r="27.0" fill="none" stroke="url(#strokeA)" stroke-width="2.2" opacity="0.85"/>
  <circle cx="124.2" cy="1079.0" r="23.3" fill="none" stroke="#7C4DFF" stroke-width="1.5" opacity="0.35"/>
  <polygon points="135.5,1094.8 116.2,1096.8 104.8,1081.0 112.8,1063.2 132.2,1061.3 143.5,1077.1" fill="none" stroke="url(#strokeB)" stroke-width="1.2" opacity="0.65"/>
  <polygon points="126.0,1085.6 117.6,1077.4 128.9,1074.2" fill="#7C4DFF" opacity="0.22" filter="url(#softGlow)"/>
</g>


<g opacity="0.387" filter="url(#hardGlow)">
  <circle cx="67.6" cy="1119.9" r="21.0" fill="#0A1224" opacity="0.65"/>
  <circle cx="67.6" cy="1119.9" r="21.0" fill="none" stroke="url(#strokeA)" stroke-width="2.0" opacity="0.85"/>
  <circle cx="67.6" cy="1119.9" r="18.1" fill="none" stroke="#7C4DFF" stroke-width="1.5" opacity="0.35"/>
  <polygon points="79.5,1129.2 65.5,1134.9 53.5,1125.6 55.6,1110.6 69.7,1104.9 81.6,1114.2" fill="none" stroke="url(#strokeB)" stroke-width="1.2" opacity="0.65"/>
  <polygon points="70.4,1124.4 62.3,1120.1 70.1,1115.2" fill="#7C4DFF" opacity="0.22" filter="url(#softGlow)"/>
</g>


<g opacity="0.917" filter="url(#hardGlow)">
  <circle cx="162.7" cy="168.6" r="65.0" fill="#0A1224" opacity="0.65"/>
  <circle cx="162.7" cy="168.6" r="65.0" fill="none" stroke="url(#strokeA)" stroke-width="5.2" opacity="0.85"/>
  <circle cx="162.7" cy="168.6" r="55.9" fill="none" stroke="#FFB300" stroke-width="1.9" opacity="0.35"/>
  <polygon points="175.2,213.6 129.9,202.0 117.4,156.9 150.1,123.5 195.4,135.2 208.0,180.2" fill="none" stroke="url(#strokeB)" stroke-width="1.6" opacity="0.65"/>
  <polygon points="161.4,184.9 149.2,159.3 177.4,161.5" fill="#FFB300" opacity="0.22" filter="url(#softGlow)"/>
</g>


<g opacity="0.593" filter="url(#hardGlow)">
  <circle cx="132.1" cy="231.6" r="31.3" fill="#0A1224" opacity="0.65"/>
  <circle cx="132.1" cy="231.6" r="31.3" fill="none" stroke="url(#strokeA)" stroke-width="2.5" opacity="0.85"/>
  <circle cx="132.1" cy="231.6" r="27.0" fill="none" stroke="#7C4DFF" stroke-width="1.5" opacity="0.35"/>
  <polygon points="114.3,217.8 135.2,209.3 153.0,223.1 149.9,245.5 129.0,254.0 111.2,240.1" fill="none" stroke="url(#strokeB)" stroke-width="1.2" opacity="0.65"/>
  
</g>


<g opacity="0.316" transform="translate(79.3,112.8) rotate(7.8)" filter="url(#softGlow)">
  <rect x="-78.8" y="-56.8" width="157.6" height="113.7" rx="11.4" fill="#050A12" opacity="0.25"/>
  <rect x="-78.8" y="-56.8" width="157.6" height="113.7" rx="11.4" fill="none" stroke="url(#strokeA)" stroke-width="5.7" opacity="0.85"/>
  <rect x="-69.7" y="-47.7" width="139.4" height="95.5" rx="8.0" fill="none" stroke="#FFB300" stroke-width="2.3" opacity="0.35"/>
</g>


<g opacity="0.388" transform="translate(135.6,1027.2) rotate(-8.0)" filter="url(#softGlow)">
  <rect x="-86.6" y="-76.2" width="173.2" height="152.5" rx="15.2" fill="#050A12" opacity="0.25"/>
  <rect x="-86.6" y="-76.2" width="173.2" height="152.5" rx="15.2" fill="none" stroke="url(#strokeA)" stroke-width="7.6" opacity="0.85"/>
  <rect x="-74.4" y="-64.0" width="148.8" height="128.1" rx="10.7" fill="none" stroke="#FFB300" stroke-width="3.0" opacity="0.35"/>
</g>


<g opacity="0.311" transform="translate(1805.7,105.4) rotate(0.1)" filter="url(#softGlow)">
  <rect x="-76.2" y="-65.4" width="152.4" height="130.8" rx="13.1" fill="#050A12" opacity="0.25"/>
  <rect x="-76.2" y="-65.4" width="152.4" height="130.8" rx="13.1" fill="none" stroke="url(#strokeA)" stroke-width="6.5" opacity="0.85"/>
  <rect x="-65.7" y="-54.9" width="131.5" height="109.9" rx="9.2" fill="none" stroke="#FFB300" stroke-width="2.6" opacity="0.35"/>
</g>


<g opacity="0.299" transform="translate(1718.7,168.2) rotate(-13.7)" filter="url(#softGlow)">
  <rect x="-50.4" y="-29.0" width="100.8" height="58.0" rx="17.7" fill="none" stroke="#FFB300" stroke-width="9.7" opacity="0.55"/>
  <rect x="-22.2" y="-14.5" width="100.8" height="58.0" rx="17.7" fill="none" stroke="url(#strokeA)" stroke-width="8.1" opacity="0.55"/>
</g>


<g opacity="0.243" transform="translate(188.2,551.7) rotate(-4.0)" filter="url(#softGlow)">
  <rect x="-56.8" y="-32.7" width="113.7" height="65.5" rx="20.0" fill="none" stroke="#FFB300" stroke-width="10.9" opacity="0.55"/>
  <rect x="-25.0" y="-16.4" width="113.7" height="65.5" rx="20.0" fill="none" stroke="url(#strokeA)" stroke-width="9.1" opacity="0.55"/>
</g>


<g opacity="0.226" transform="translate(1720.4,1078.5) rotate(-14.6)" filter="url(#softGlow)">
  <rect x="-57.7" y="-33.2" width="115.4" height="66.5" rx="20.3" fill="none" stroke="#7C4DFF" stroke-width="11.1" opacity="0.55"/>
  <rect x="-25.4" y="-16.6" width="115.4" height="66.5" rx="20.3" fill="none" stroke="url(#strokeA)" stroke-width="9.2" opacity="0.55"/>
</g>


<g opacity="0.310" transform="translate(35.4,669.1) rotate(-11.5)" filter="url(#softGlow)">
  <rect x="-54.6" y="-31.5" width="109.3" height="62.9" rx="19.2" fill="none" stroke="#FFB300" stroke-width="10.5" opacity="0.55"/>
  <rect x="-24.0" y="-15.7" width="109.3" height="62.9" rx="19.2" fill="none" stroke="url(#strokeA)" stroke-width="8.7" opacity="0.55"/>
</g>


<g opacity="0.438" transform="translate(191.3,13.1) rotate(-11.8)" filter="url(#softGlow)">
  <rect x="-35.4" y="-20.4" width="70.8" height="40.8" rx="12.5" fill="none" stroke="#FFB300" stroke-width="6.8" opacity="0.55"/>
  <rect x="-15.6" y="-10.2" width="70.8" height="40.8" rx="12.5" fill="none" stroke="url(#strokeA)" stroke-width="5.7" opacity="0.55"/>
</g>


<g opacity="0.345" transform="translate(72.0,140.8) rotate(-9.5)" filter="url(#softGlow)">
  <rect x="-51.9" y="-29.9" width="103.8" height="59.8" rx="18.3" fill="none" stroke="#FFB300" stroke-width="10.0" opacity="0.55"/>
  <rect x="-22.8" y="-14.9" width="103.8" height="59.8" rx="18.3" fill="none" stroke="url(#strokeA)" stroke-width="8.3" opacity="0.55"/>
</g>


<g opacity="0.148">
  <line x1="1775.9" y1="933.0" x2="1775.9" y2="985.1" stroke="#7C4DFF" stroke-width="1.63" opacity="0.45"/>
  <rect x="1771.0" y="964.8" width="9.9" height="19.8" rx="3.3" fill="#0B1020" opacity="0.55" stroke="url(#strokeA)" stroke-width="1.2"/>
</g>

<g opacity="0.148">
  <line x1="73.7" y1="914.4" x2="73.7" y2="989.7" stroke="#7C4DFF" stroke-width="1.39" opacity="0.45"/>
  <rect x="68.3" y="958.2" width="10.8" height="32.9" rx="3.6" fill="#0B1020" opacity="0.55" stroke="url(#strokeA)" stroke-width="1.2"/>
</g>

<g opacity="0.148">
  <line x1="1743.5" y1="910.3" x2="1743.5" y2="990.8" stroke="#7C4DFF" stroke-width="1.58" opacity="0.45"/>
  <rect x="1738.0" y="952.6" width="11.1" height="44.2" rx="3.7" fill="#0B1020" opacity="0.55" stroke="url(#strokeA)" stroke-width="1.2"/>
</g>

<g opacity="0.148">
  <line x1="1386.9" y1="942.3" x2="1386.9" y2="982.8" stroke="#7C4DFF" stroke-width="1.84" opacity="0.45"/>
  <rect x="1381.2" y="965.6" width="11.4" height="18.2" rx="3.8" fill="#0B1020" opacity="0.55" stroke="url(#strokeA)" stroke-width="1.2"/>
</g>

<g opacity="0.148">
  <line x1="29.7" y1="914.6" x2="29.7" y2="989.7" stroke="#7C4DFF" stroke-width="1.28" opacity="0.45"/>
  <rect x="25.6" y="955.3" width="8.0" height="38.7" rx="2.7" fill="#0B1020" opacity="0.55" stroke="url(#strokeA)" stroke-width="1.2"/>
</g>

<g opacity="0.148">
  <line x1="1206.9" y1="893.1" x2="1206.9" y2="995.0" stroke="#7C4DFF" stroke-width="2.02" opacity="0.45"/>
  <rect x="1203.0" y="951.7" width="7.6" height="45.9" rx="2.5" fill="#0B1020" opacity="0.55" stroke="url(#strokeA)" stroke-width="1.2"/>
</g>

<g opacity="0.148">
  <line x1="1148.7" y1="896.9" x2="1148.7" y2="994.1" stroke="#7C4DFF" stroke-width="1.84" opacity="0.45"/>
  <rect x="1145.6" y="946.8" width="6.3" height="55.7" rx="2.1" fill="#0B1020" opacity="0.55" stroke="url(#strokeA)" stroke-width="1.2"/>
</g>

<g opacity="0.148">
  <line x1="693.0" y1="896.2" x2="693.0" y2="994.3" stroke="#7C4DFF" stroke-width="1.65" opacity="0.45"/>
  <rect x="687.0" y="950.2" width="11.9" height="48.9" rx="4.0" fill="#0B1020" opacity="0.55" stroke="url(#strokeA)" stroke-width="1.2"/>
</g>

<g opacity="0.148">
  <line x1="1759.3" y1="887.7" x2="1759.3" y2="996.4" stroke="#7C4DFF" stroke-width="1.47" opacity="0.45"/>
  <rect x="1755.5" y="947.2" width="7.6" height="55.0" rx="2.5" fill="#0B1020" opacity="0.55" stroke="url(#strokeA)" stroke-width="1.2"/>
</g>

<g opacity="0.148">
  <line x1="1870.3" y1="926.1" x2="1870.3" y2="986.8" stroke="#7C4DFF" stroke-width="2.01" opacity="0.45"/>
  <rect x="1864.4" y="958.8" width="11.9" height="31.8" rx="4.0" fill="#0B1020" opacity="0.55" stroke="url(#strokeA)" stroke-width="1.2"/>
</g>

<g opacity="0.148">
  <line x1="544.1" y1="901.2" x2="544.1" y2="993.0" stroke="#7C4DFF" stroke-width="1.98" opacity="0.45"/>
  <rect x="540.4" y="948.6" width="7.3" height="52.1" rx="2.4" fill="#0B1020" opacity="0.55" stroke="url(#strokeA)" stroke-width="1.2"/>
</g>

<g opacity="0.148">
  <line x1="747.8" y1="914.5" x2="747.8" y2="989.7" stroke="#7C4DFF" stroke-width="2.01" opacity="0.45"/>
  <rect x="744.3" y="955.6" width="7.0" height="38.1" rx="2.3" fill="#0B1020" opacity="0.55" stroke="url(#strokeA)" stroke-width="1.2"/>
</g>

<g opacity="0.148">
  <line x1="1333.8" y1="892.1" x2="1333.8" y2="995.3" stroke="#7C4DFF" stroke-width="2.10" opacity="0.45"/>
  <rect x="1330.6" y="949.7" width="6.5" height="50.0" rx="2.2" fill="#0B1020" opacity="0.55" stroke="url(#strokeA)" stroke-width="1.2"/>
</g>

<g opacity="0.148">
  <line x1="1904.3" y1="908.6" x2="1904.3" y2="991.2" stroke="#7C4DFF" stroke-width="1.66" opacity="0.45"/>
  <rect x="1901.0" y="947.7" width="6.7" height="53.9" rx="2.2" fill="#0B1020" opacity="0.55" stroke="url(#strokeA)" stroke-width="1.2"/>
</g>

<g opacity="0.148">
  <line x1="778.0" y1="911.8" x2="778.0" y2="990.4" stroke="#7C4DFF" stroke-width="1.39" opacity="0.45"/>
  <rect x="772.4" y="961.1" width="11.3" height="27.1" rx="3.8" fill="#0B1020" opacity="0.55" stroke="url(#strokeA)" stroke-width="1.2"/>
</g>

<g opacity="0.148">
  <line x1="1535.8" y1="922.1" x2="1535.8" y2="987.8" stroke="#7C4DFF" stroke-width="2.12" opacity="0.45"/>
  <rect x="1529.9" y="964.1" width="11.8" height="21.1" rx="3.9" fill="#0B1020" opacity="0.55" stroke="url(#strokeA)" stroke-width="1.2"/>
</g>

<g opacity="0.148">
  <line x1="1813.9" y1="916.3" x2="1813.9" y2="989.2" stroke="#7C4DFF" stroke-width="1.37" opacity="0.45"/>
  <rect x="1809.5" y="958.9" width="8.8" height="31.5" rx="2.9" fill="#0B1020" opacity="0.55" stroke="url(#strokeA)" stroke-width="1.2"/>
</g>
<circle cx="1807.1" cy="1012.0" r="2.7" fill="#FFB300" opacity="0.19" filter="url(#softGlow)"/>
<circle cx="51.6" cy="895.7" r="2.2" fill="#FFB300" opacity="0.16" filter="url(#softGlow)"/>
<circle cx="292.2" cy="1001.4" r="2.5" fill="#FFB300" opacity="0.21" filter="url(#softGlow)"/>
<circle cx="19.2" cy="923.9" r="2.1" fill="#FFB300" opacity="0.20" filter="url(#softGlow)"/>
<circle cx="1885.7" cy="71.9" r="1.3" fill="#FFB300" opacity="0.15" filter="url(#softGlow)"/>
<circle cx="164.3" cy="1037.6" r="2.2" fill="#FFB300" opacity="0.19" filter="url(#softGlow)"/>
<circle cx="86.4" cy="882.3" r="1.3" fill="#FFB300" opacity="0.19" filter="url(#softGlow)"/>
<circle cx="40.6" cy="82.1" r="2.6" fill="#FFB300" opacity="0.22" filter="url(#softGlow)"/>
<circle cx="47.9" cy="196.8" r="1.7" fill="#FFB300" opacity="0.23" filter="url(#softGlow)"/>
<circle cx="200.7" cy="1040.6" r="3.0" fill="#FFB300" opacity="0.11" filter="url(#softGlow)"/>
<circle cx="1825.0" cy="1003.2" r="2.6" fill="#FFB300" opacity="0.10" filter="url(#softGlow)"/>
<circle cx="66.7" cy="437.6" r="1.9" fill="#FFB300" opacity="0.24" filter="url(#softGlow)"/>
<circle cx="417.1" cy="30.1" r="3.0" fill="#FFB300" opacity="0.19" filter="url(#softGlow)"/>
<circle cx="43.2" cy="16.1" r="2.0" fill="#FFB300" opacity="0.12" filter="url(#softGlow)"/>
<circle cx="154.8" cy="1036.5" r="2.3" fill="#FFB300" opacity="0.19" filter="url(#softGlow)"/>
<circle cx="1744.1" cy="69.9" r="2.2" fill="#FFB300" opacity="0.16" filter="url(#softGlow)"/>
<circle cx="683.6" cy="77.0" r="2.3" fill="#FFB300" opacity="0.23" filter="url(#softGlow)"/>
<circle cx="205.3" cy="216.2" r="2.9" fill="#FFB300" opacity="0.10" filter="url(#softGlow)"/>
<circle cx="37.1" cy="87.1" r="2.8" fill="#FFB300" opacity="0.27" filter="url(#softGlow)"/>
<circle cx="1871.3" cy="28.8" r="1.8" fill="#FFB300" opacity="0.21" filter="url(#softGlow)"/>
<circle cx="8.0" cy="879.1" r="2.6" fill="#FFB300" opacity="0.18" filter="url(#softGlow)"/>
<circle cx="1710.0" cy="1046.6" r="1.6" fill="#FFB300" opacity="0.12" filter="url(#softGlow)"/>
<circle cx="1709.0" cy="994.8" r="2.5" fill="#FFB300" opacity="0.12" filter="url(#softGlow)"/>
<circle cx="130.8" cy="35.2" r="3.2" fill="#FFB300" opacity="0.25" filter="url(#softGlow)"/>
<circle cx="10.1" cy="1045.0" r="2.6" fill="#FFB300" opacity="0.18" filter="url(#softGlow)"/>
<circle cx="1873.1" cy="933.0" r="2.0" fill="#FFB300" opacity="0.17" filter="url(#softGlow)"/>
<circle cx="127.4" cy="987.8" r="2.9" fill="#FFB300" opacity="0.26" filter="url(#softGlow)"/>
</svg>