<svg xmlns="http://www.w3.org/2000/svg" width="1920" height="1080" viewBox="0 0 1920 1080" preserveAspectRatio="xMidYMid slice">
<defs>
  <linearGradient id="g0" x1="0" y1="0" x2="1" y2="1">
    <stop offset="0" stop-color="#0B0F1A"/>
    <stop offset="0.55" stop-color="#A855F7" stop-opacity="0.9"/>
    <stop offset="1" stop-color="#030712"/>
  </linearGradient>
  <radialGradient id="g1" cx="20%" cy="15%" r="70%">
    <stop offset="0" stop-color="#22D3EE" stop-opacity="0.38"/>
    <stop offset="0.6" stop-color="#22D3EE" stop-opacity="0.08"/>
    <stop offset="1" stop-color="#22D3EE" stop-opacity="0"/>
  </radialGradient>
  <radialGradient id="g2" cx="85%" cy="80%" r="75%">
    <stop offset="0" stop-color="#22D3EE" stop-opacity="0.28"/>
    <stop offset="0.65" stop-color="#22D3EE" stop-opacity="0.06"/>
    <stop offset="1" stop-color="#22D3EE" stop-opacity="0"/>
  </radialGradient>
  <filter id="softGlow" x="-30%" y="-30%" width="160%" height="160%">
    <feGaussianBlur stdDeviation="12" result="b"/>
    <feMerge>
      <feMergeNode in="b"/>
      <feMergeNode in="SourceGraphic"/>
    </feMerge>
  </filter>
  <filter id="hardGlow" x="-40%" y="-40%" width="180%" height="180%">
    <feGaussianBlur stdDeviation="6" result="b"/>
    <feColorMatrix in="b" type="matrix" values="1 0 0 0 0  0 1 0 0 0  0 0 1 0 0  0 0 0 18 -7" result="c"/>
    <feMerge>
      <feMergeNode in="c"/>
      <feMergeNode in="SourceGraphic"/>
    </feMerge>
  </filter>
  <linearGradient id="strokeA" x1="0" y1="0" x2="1" y2="0">
    <stop offset="0" stop-color="#22D3EE" stop-opacity="0.9"/>
    <stop offset="0.5" stop-color="#FFFFFF" stop-opacity="0.25"/>
    <stop offset="1" stop-color="#22D3EE" stop-opacity="0.7"/>
  </linearGradient>
  <linearGradient id="strokeB" x1="0" y1="0" x2="0" y2="1">
    <stop offset="0" stop-color="#FFFFFF" stop-opacity="0.18"/>
    <stop offset="1" stop-color="#22D3EE" stop-opacity="0.55"/>
  </linearGradient>
</defs>
<rect x="0" y="0" width="1920" height="1080" fill="url(#g0)"/>
<rect x="0" y="0" width="1920" height="1080" fill="url(#g1)"/>
<rect x="0" y="0" width="1920" height="1080" fill="url(#g2)"/>


<defs>
  <radialGradient id="vign" cx="0.5000" cy="0.5093" r="0.85">
    <stop offset="0" stop-color="#000000" stop-opacity="0"/>
    <stop offset="0.55" stop-color="#000000" stop-opacity="0.217"/>
    <stop offset="1" stop-color="#000000" stop-opacity="0.620"/>
  </radialGradient>
</defs>
<rect x="0" y="0" width="1920" height="1080" fill="url(#vign)"/>

<g opacity="0.230" filter="url(#softGlow)"><path d="M 1873.8,0.2 L 1728.7,0.2 L 1728.7,997.3 L 1577.2,997.3 L 1577.2,43.0 " fill="none" stroke="url(#strokeB)" stroke-width="1.39" stroke-linecap="round" stroke-linejoin="round"/><circle cx="1577.2" cy="997.3" r="3.3" fill="#22D3EE" opacity="0.45"/><circle cx="1873.8" cy="0.2" r="2.3" fill="#22D3EE" opacity="0.45"/><circle cx="1728.7" cy="997.3" r="3.3" fill="#22D3EE" opacity="0.45"/></g>
<g opacity="0.230" filter="url(#softGlow)"><path d="M 115.3,776.8 L 1464.4,776.8 L 1464.4,989.9 L 1864.1,989.9 L 1864.1,29.7 " fill="none" stroke="url(#strokeB)" stroke-width="2.18" stroke-linecap="round" stroke-linejoin="round"/><circle cx="115.3" cy="776.8" r="3.7" fill="#22D3EE" opacity="0.45"/><circle cx="1464.4" cy="989.9" r="3.5" fill="#22D3EE" opacity="0.45"/><circle cx="1864.1" cy="989.9" r="3.3" fill="#22D3EE" opacity="0.45"/></g>
<g opacity="0.230" filter="url(#softGlow)"><path d="M 1877.5,3.8 L 201.3,3.8 L 201.3,865.4 L 35.1,865.4 L 35.1,970.1 " fill="none" stroke="url(#strokeB)" stroke-width="1.88" stroke-linecap="round" stroke-linejoin="round"/><circle cx="201.3" cy="3.8" r="3.8" fill="#22D3EE" opacity="0.45"/><circle cx="35.1" cy="865.4" r="2.4" fill="#22D3EE" opacity="0.45"/><circle cx="35.1" cy="970.1" r="2.4" fill="#22D3EE" opacity="0.45"/></g>
<g opacity="0.230" filter="url(#softGlow)"><path d="M 1886.8,579.2 L 214.8,579.2 L 214.8,207.1 L 1914.3,207.1 L 1914.3,906.3 " fill="none" stroke="url(#strokeB)" stroke-width="1.22" stroke-linecap="round" stroke-linejoin="round"/><circle cx="1914.3" cy="207.1" r="2.3" fill="#22D3EE" opacity="0.45"/><circle cx="1914.3" cy="906.3" r="3.1" fill="#22D3EE" opacity="0.45"/><circle cx="214.8" cy="207.1" r="2.8" fill="#22D3EE" opacity="0.45"/></g>
<g opacity="0.230" filter="url(#softGlow)"><path d="M 67.7,792.4 L 1782.7,792.4 L 1782.7,876.9 L 1856.3,876.9 L 1856.3,874.6 " fill="none" stroke="url(#strokeB)" stroke-width="1.87" stroke-linecap="round" stroke-linejoin="round"/><circle cx="1782.7" cy="876.9" r="4.1" fill="#22D3EE" opacity="0.45"/><circle cx="1856.3" cy="876.9" r="4.0" fill="#22D3EE" opacity="0.45"/><circle cx="1856.3" cy="874.6" r="2.1" fill="#22D3EE" opacity="0.45"/></g>
<g opacity="0.230" filter="url(#softGlow)"><path d="M 1870.5,1012.1 L 1806.2,1012.1 L 1806.2,975.2 L 191.7,975.2 L 191.7,944.7 " fill="none" stroke="url(#strokeB)" stroke-width="2.17" stroke-linecap="round" stroke-linejoin="round"/><circle cx="191.7" cy="944.7" r="2.9" fill="#22D3EE" opacity="0.45"/><circle cx="1806.2" cy="1012.1" r="3.0" fill="#22D3EE" opacity="0.45"/><circle cx="1806.2" cy="975.2" r="3.9" fill="#22D3EE" opacity="0.45"/></g>
<g opacity="0.230" filter="url(#softGlow)"><path d="M 107.3,1058.0 L 1867.4,1058.0 L 1867.4,1046.4 L 200.9,1046.4 L 200.9,990.3 " fill="none" stroke="url(#strokeB)" stroke-width="1.67" stroke-linecap="round" stroke-linejoin="round"/><circle cx="107.3" cy="1058.0" r="3.5" fill="#22D3EE" opacity="0.45"/><circle cx="1867.4" cy="1046.4" r="4.1" fill="#22D3EE" opacity="0.45"/><circle cx="200.9" cy="1046.4" r="3.9" fill="#22D3EE" opacity="0.45"/></g>
<g opacity="0.230" filter="url(#softGlow)"><path d="M 1879.3,809.3 L 1911.2,809.3 L 1911.2,140.5 L 20.7,140.5 L 20.7,92.6 " fill="none" stroke="url(#strokeB)" stroke-width="2.11" stroke-linecap="round" stroke-linejoin="round"/><circle cx="20.7" cy="140.5" r="3.5" fill="#22D3EE" opacity="0.45"/><circle cx="1879.3" cy="809.3" r="4.1" fill="#22D3EE" opacity="0.45"/><circle cx="1911.2" cy="140.5" r="2.1" fill="#22D3EE" opacity="0.45"/></g>
<g opacity="0.230" filter="url(#softGlow)"><path d="M 104.6,164.6 L 9.2,164.6 L 9.2,184.6 L 19.1,184.6 L 19.1,934.1 " fill="none" stroke="url(#strokeB)" stroke-width="1.74" stroke-linecap="round" stroke-linejoin="round"/><circle cx="104.6" cy="164.6" r="3.7" fill="#22D3EE" opacity="0.45"/><circle cx="19.1" cy="934.1" r="2.8" fill="#22D3EE" opacity="0.45"/><circle cx="9.2" cy="164.6" r="2.5" fill="#22D3EE" opacity="0.45"/></g>
<g opacity="0.230" filter="url(#softGlow)"><path d="M 66.5,897.7 L 1834.1,897.7 L 1834.1,716.7 L 1801.6,716.7 L 1801.6,158.3 " fill="none" stroke="url(#strokeB)" stroke-width="2.04" stroke-linecap="round" stroke-linejoin="round"/><circle cx="1834.1" cy="716.7" r="3.1" fill="#22D3EE" opacity="0.45"/><circle cx="1801.6" cy="158.3" r="2.0" fill="#22D3EE" opacity="0.45"/><circle cx="1834.1" cy="897.7" r="3.0" fill="#22D3EE" opacity="0.45"/></g>
<g opacity="0.230" filter="url(#softGlow)"><path d="M 1729.9,170.2 L 1257.6,170.2 L 1257.6,46.5 L 101.6,46.5 L 101.6,916.2 " fill="none" stroke="url(#strokeB)" stroke-width="1.77" stroke-linecap="round" stroke-linejoin="round"/><circle cx="1257.6" cy="46.5" r="2.6" fill="#22D3EE" opacity="0.45"/><circle cx="101.6" cy="916.2" r="3.5" fill="#22D3EE" opacity="0.45"/><circle cx="101.6" cy="46.5" r="2.1" fill="#22D3EE" opacity="0.45"/></g>
<g opacity="0.230" filter="url(#softGlow)"><path d="M 1249.6,20.4 L 67.0,20.4 L 67.0,28.4 L 104.3,28.4 L 104.3,894.5 " fill="none" stroke="url(#strokeB)" stroke-width="2.14" stroke-linecap="round" stroke-linejoin="round"/><circle cx="67.0" cy="28.4" r="2.5" fill="#22D3EE" opacity="0.45"/><circle cx="1249.6" cy="20.4" r="3.2" fill="#22D3EE" opacity="0.45"/><circle cx="104.3" cy="28.4" r="2.3" fill="#22D3EE" opacity="0.45"/></g>
<g opacity="0.230" filter="url(#softGlow)"><path d="M 1768.2,6.8 L 33.5,6.8 L 33.5,972.3 L 468.9,972.3 L 468.9,13.6 " fill="none" stroke="url(#strokeB)" stroke-width="1.18" stroke-linecap="round" stroke-linejoin="round"/><circle cx="1768.2" cy="6.8" r="3.6" fill="#22D3EE" opacity="0.45"/><circle cx="468.9" cy="13.6" r="3.5" fill="#22D3EE" opacity="0.45"/><circle cx="33.5" cy="972.3" r="2.3" fill="#22D3EE" opacity="0.45"/></g>
<g opacity="0.230" filter="url(#softGlow)"><path d="M 1909.0,61.8 L 1782.8,61.8 L 1782.8,864.0 L 1725.4,864.0 L 1725.4,915.8 " fill="none" stroke="url(#strokeB)" stroke-width="2.14" stroke-linecap="round" stroke-linejoin="round"/><circle cx="1725.4" cy="915.8" r="2.9" fill="#22D3EE" opacity="0.45"/><circle cx="1782.8" cy="864.0" r="2.4" fill="#22D3EE" opacity="0.45"/><circle cx="1782.8" cy="61.8" r="3.1" fill="#22D3EE" opacity="0.45"/></g>
<g opacity="0.230" filter="url(#softGlow)"><path d="M 164.8,215.2 L 1906.4,215.2 L 1906.4,412.1 L 243.7,412.1 L 243.7,136.2 " fill="none" stroke="url(#strokeB)" stroke-width="1.80" stroke-linecap="round" stroke-linejoin="round"/><circle cx="164.8" cy="215.2" r="2.1" fill="#22D3EE" opacity="0.45"/><circle cx="243.7" cy="412.1" r="2.2" fill="#22D3EE" opacity="0.45"/><circle cx="1906.4" cy="215.2" r="3.9" fill="#22D3EE" opacity="0.45"/></g>
<g opacity="0.230" filter="url(#softGlow)"><path d="M 1821.4,20.8 L 1760.3,20.8 L 1760.3,718.2 L 896.7,718.2 L 896.7,128.2 " fill="none" stroke="url(#strokeB)" stroke-width="1.54" stroke-linecap="round" stroke-linejoin="round"/><circle cx="1821.4" cy="20.8" r="3.2" fill="#22D3EE" opacity="0.45"/><circle cx="1760.3" cy="718.2" r="2.4" fill="#22D3EE" opacity="0.45"/><circle cx="896.7" cy="718.2" r="2.4" fill="#22D3EE" opacity="0.45"/></g>

<g opacity="0.682" filter="url(#hardGlow)">
  <circle cx="1843.0" cy="1058.2" r="49.3" fill="#0A1224" opacity="0.65"/>
  <circle cx="1843.0" cy="1058.2" r="49.3" fill="none" stroke="url(#strokeA)" stroke-width="3.9" opacity="0.85"/>
  <circle cx="1843.0" cy="1058.2" r="42.4" fill="none" stroke="#F59E0B" stroke-width="1.5" opacity="0.35"/>
  <polygon points="1828.8,1025.7 1864.1,1029.7 1878.3,1062.2 1857.2,1090.8 1821.9,1086.8 1807.7,1054.2" fill="none" stroke="url(#strokeB)" stroke-width="1.2" opacity="0.65"/>
  <polygon points="1842.2,1045.8 1854.1,1063.8 1832.6,1065.1" fill="#F59E0B" opacity="0.22" filter="url(#softGlow)"/>
</g>


<g opacity="0.447" filter="url(#hardGlow)">
  <circle cx="1795.5" cy="1029.0" r="21.0" fill="#0A1224" opacity="0.65"/>
  <circle cx="1795.5" cy="1029.0" r="21.0" fill="none" stroke="url(#strokeA)" stroke-width="2.0" opacity="0.85"/>
  <circle cx="1795.5" cy="1029.0" r="18.0" fill="none" stroke="#22D3EE" stroke-width="1.5" opacity="0.35"/>
  <polygon points="1782.1,1035.9 1782.9,1020.8 1796.3,1014.0 1809.0,1022.1 1808.2,1037.2 1794.8,1044.1" fill="none" stroke="url(#strokeB)" stroke-width="1.2" opacity="0.65"/>
  
</g>


<g opacity="0.691" filter="url(#hardGlow)">
  <circle cx="127.9" cy="932.7" r="40.3" fill="#0A1224" opacity="0.65"/>
  <circle cx="127.9" cy="932.7" r="40.3" fill="none" stroke="url(#strokeA)" stroke-width="3.2" opacity="0.85"/>
  <circle cx="127.9" cy="932.7" r="34.6" fill="none" stroke="#F59E0B" stroke-width="1.5" opacity="0.35"/>
  <polygon points="150.7,914.7 154.9,943.4 132.1,961.4 105.2,950.7 101.0,922.0 123.7,904.0" fill="none" stroke="url(#strokeB)" stroke-width="1.2" opacity="0.65"/>
  <polygon points="137.6,929.5 125.9,942.6 120.4,926.0" fill="#F59E0B" opacity="0.22" filter="url(#softGlow)"/>
</g>


<g opacity="0.434" filter="url(#hardGlow)">
  <circle cx="160.9" cy="905.0" r="19.0" fill="#0A1224" opacity="0.65"/>
  <circle cx="160.9" cy="905.0" r="19.0" fill="none" stroke="url(#strokeA)" stroke-width="2.0" opacity="0.85"/>
  <circle cx="160.9" cy="905.0" r="16.3" fill="none" stroke="#22D3EE" stroke-width="1.5" opacity="0.35"/>
  <polygon points="159.5,918.6 148.4,910.5 149.9,896.9 162.4,891.4 173.4,899.4 172.0,913.0" fill="none" stroke="url(#strokeB)" stroke-width="1.2" opacity="0.65"/>
  <polygon points="158.8,909.3 158.3,901.0 165.7,904.6" fill="#22D3EE" opacity="0.22" filter="url(#softGlow)"/>
</g>


<g opacity="0.855" filter="url(#hardGlow)">
  <circle cx="1783.0" cy="39.9" r="53.9" fill="#0A1224" opacity="0.65"/>
  <circle cx="1783.0" cy="39.9" r="53.9" fill="none" stroke="url(#strokeA)" stroke-width="4.3" opacity="0.85"/>
  <circle cx="1783.0" cy="39.9" r="46.3" fill="none" stroke="#F59E0B" stroke-width="1.6" opacity="0.35"/>
  <polygon points="1745.3,49.1 1756.2,11.9 1793.9,2.7 1820.7,30.7 1809.8,67.9 1772.1,77.1" fill="none" stroke="url(#strokeB)" stroke-width="1.3" opacity="0.65"/>
  <polygon points="1769.5,38.4 1791.1,29.0 1788.5,52.3" fill="#F59E0B" opacity="0.22" filter="url(#softGlow)"/>
</g>


<g opacity="0.631" filter="url(#hardGlow)">
  <circle cx="1820.1" cy="27.8" r="19.2" fill="#0A1224" opacity="0.65"/>
  <circle cx="1820.1" cy="27.8" r="19.2" fill="none" stroke="url(#strokeA)" stroke-width="2.0" opacity="0.85"/>
  <circle cx="1820.1" cy="27.8" r="16.5" fill="none" stroke="#22D3EE" stroke-width="1.5" opacity="0.35"/>
  <polygon points="1811.2,38.5 1806.4,25.5 1815.3,14.8 1828.9,17.2 1833.7,30.2 1824.9,40.8" fill="none" stroke="url(#strokeB)" stroke-width="1.2" opacity="0.65"/>
  
</g>


<g opacity="0.505" filter="url(#hardGlow)">
  <circle cx="1854.3" cy="79.3" r="28.7" fill="#0A1224" opacity="0.65"/>
  <circle cx="1854.3" cy="79.3" r="28.7" fill="none" stroke="url(#strokeA)" stroke-width="2.3" opacity="0.85"/>
  <circle cx="1854.3" cy="79.3" r="24.6" fill="none" stroke="#22D3EE" stroke-width="1.5" opacity="0.35"/>
  <polygon points="1838.7,65.8 1858.2,59.1 1873.8,72.6 1869.9,92.8 1850.4,99.6 1834.8,86.1" fill="none" stroke="url(#strokeB)" stroke-width="1.2" opacity="0.65"/>
  <polygon points="1850.8,73.0 1861.5,79.5 1850.6,85.5" fill="#22D3EE" opacity="0.22" filter="url(#softGlow)"/>
</g>


<g opacity="0.793" filter="url(#hardGlow)">
  <circle cx="1794.5" cy="33.7" r="40.3" fill="#0A1224" opacity="0.65"/>
  <circle cx="1794.5" cy="33.7" r="40.3" fill="none" stroke="url(#strokeA)" stroke-width="3.2" opacity="0.85"/>
  <circle cx="1794.5" cy="33.7" r="34.6" fill="none" stroke="#F59E0B" stroke-width="1.5" opacity="0.35"/>
  <polygon points="1788.3,62.0 1766.9,42.5 1773.1,14.1 1800.8,5.4 1822.2,25.0 1815.9,53.3" fill="none" stroke="url(#strokeB)" stroke-width="1.2" opacity="0.65"/>
  <polygon points="1789.1,42.3 1789.8,24.7 1804.7,34.1" fill="#F59E0B" opacity="0.22" filter="url(#softGlow)"/>
</g>


<g opacity="0.526" filter="url(#hardGlow)">
  <circle cx="1772.7" cy="10.8" r="19.5" fill="#0A1224" opacity="0.65"/>
  <circle cx="1772.7" cy="10.8" r="19.5" fill="none" stroke="url(#strokeA)" stroke-width="2.0" opacity="0.85"/>
  <circle cx="1772.7" cy="10.8" r="16.8" fill="none" stroke="#22D3EE" stroke-width="1.5" opacity="0.35"/>
  <polygon points="1761.7,19.4 1759.7,5.5 1770.7,-3.1 1783.7,2.1 1785.7,16.0 1774.7,24.7" fill="none" stroke="url(#strokeB)" stroke-width="1.2" opacity="0.65"/>
  
</g>


<g opacity="0.512" filter="url(#hardGlow)">
  <circle cx="1825.1" cy="44.5" r="17.4" fill="#0A1224" opacity="0.65"/>
  <circle cx="1825.1" cy="44.5" r="17.4" fill="none" stroke="url(#strokeA)" stroke-width="2.0" opacity="0.85"/>
  <circle cx="1825.1" cy="44.5" r="14.9" fill="none" stroke="#22D3EE" stroke-width="1.5" opacity="0.35"/>
  <polygon points="1837.5,45.8 1830.2,55.9 1817.8,54.6 1812.7,43.1 1820.0,33.0 1832.5,34.4" fill="none" stroke="url(#strokeB)" stroke-width="1.2" opacity="0.65"/>
  
</g>


<g opacity="0.455" filter="url(#hardGlow)">
  <circle cx="1731.5" cy="-12.3" r="16.8" fill="#0A1224" opacity="0.65"/>
  <circle cx="1731.5" cy="-12.3" r="16.8" fill="none" stroke="url(#strokeA)" stroke-width="2.0" opacity="0.85"/>
  <circle cx="1731.5" cy="-12.3" r="14.5" fill="none" stroke="#22D3EE" stroke-width="1.5" opacity="0.35"/>
  <polygon points="1729.6,-0.3 1720.1,-7.9 1722.0,-19.9 1733.4,-24.2 1742.8,-16.6 1740.9,-4.6" fill="none" stroke="url(#strokeB)" stroke-width="1.2" opacity="0.65"/>
  <polygon points="1729.4,-8.5 1729.3,-15.9 1735.7,-12.3" fill="#22D3EE" opacity="0.22" filter="url(#softGlow)"/>
</g>


<g opacity="0.660" filter="url(#hardGlow)">
  <circle cx="150.4" cy="1037.6" r="60.3" fill="#0A1224" opacity="0.65"/>
  <circle cx="150.4" cy="1037.6" r="60.3" fill="none" stroke="url(#strokeA)" stroke-width="4.8" opacity="0.85"/>
  <circle cx="150.4" cy="1037.6" r="51.9" fill="none" stroke="#F59E0B" stroke-width="1.8" opacity="0.35"/>
  <polygon points="121.3,1005.4 163.7,996.3 192.9,1028.5 179.5,1069.8 137.0,1078.9 107.9,1046.7" fill="none" stroke="url(#strokeB)" stroke-width="1.5" opacity="0.65"/>
  <polygon points="144.7,1023.5 165.4,1039.7 141.1,1049.6" fill="#F59E0B" opacity="0.22" filter="url(#softGlow)"/>
</g>


<g opacity="0.613" filter="url(#hardGlow)">
  <circle cx="244.2" cy="1094.6" r="24.1" fill="#0A1224" opacity="0.65"/>
  <circle cx="244.2" cy="1094.6" r="24.1" fill="none" stroke="url(#strokeA)" stroke-width="2.0" opacity="0.85"/>
  <circle cx="244.2" cy="1094.6" r="20.7" fill="none" stroke="#22D3EE" stroke-width="1.5" opacity="0.35"/>
  <polygon points="244.0,1111.9 229.1,1103.1 229.3,1085.7 244.4,1077.2 259.3,1086.1 259.1,1103.4" fill="none" stroke="url(#strokeB)" stroke-width="1.2" opacity="0.65"/>
  
</g>


<g opacity="0.567" filter="url(#hardGlow)">
  <circle cx="120.2" cy="1094.3" r="29.7" fill="#0A1224" opacity="0.65"/>
  <circle cx="120.2" cy="1094.3" r="29.7" fill="none" stroke="url(#strokeA)" stroke-width="2.4" opacity="0.85"/>
  <circle cx="120.2" cy="1094.3" r="25.6" fill="none" stroke="#22D3EE" stroke-width="1.5" opacity="0.35"/>
  <polygon points="127.7,1114.4 106.5,1110.8 99.0,1090.8 112.7,1074.3 133.8,1077.8 141.3,1097.8" fill="none" stroke="url(#strokeB)" stroke-width="1.2" opacity="0.65"/>
  <polygon points="120.2,1101.8 113.6,1090.6 126.6,1090.5" fill="#22D3EE" opacity="0.22" filter="url(#softGlow)"/>
</g>


<g opacity="0.388" filter="url(#hardGlow)">
  <circle cx="140.0" cy="1025.7" r="26.0" fill="#0A1224" opacity="0.65"/>
  <circle cx="140.0" cy="1025.7" r="26.0" fill="none" stroke="url(#strokeA)" stroke-width="2.1" opacity="0.85"/>
  <circle cx="140.0" cy="1025.7" r="22.4" fill="none" stroke="#22D3EE" stroke-width="1.5" opacity="0.35"/>
  <polygon points="121.5,1022.8 133.3,1008.2 151.8,1011.2 158.5,1028.7 146.7,1043.2 128.2,1040.3" fill="none" stroke="url(#strokeB)" stroke-width="1.2" opacity="0.65"/>
  
</g>


<g opacity="0.733" filter="url(#hardGlow)">
  <circle cx="9.9" cy="773.3" r="54.7" fill="#0A1224" opacity="0.65"/>
  <circle cx="9.9" cy="773.3" r="54.7" fill="none" stroke="url(#strokeA)" stroke-width="4.4" opacity="0.85"/>
  <circle cx="9.9" cy="773.3" r="47.0" fill="none" stroke="#F59E0B" stroke-width="1.6" opacity="0.35"/>
  <polygon points="-12.0,740.6 27.3,738.0 49.1,770.7 31.7,806.0 -7.5,808.6 -29.4,775.9" fill="none" stroke="url(#strokeB)" stroke-width="1.4" opacity="0.65"/>
  <polygon points="6.6,759.9 23.1,777.1 -0.1,782.8" fill="#F59E0B" opacity="0.22" filter="url(#softGlow)"/>
</g>


<g opacity="0.539" filter="url(#hardGlow)">
  <circle cx="68.7" cy="827.0" r="22.8" fill="#0A1224" opacity="0.65"/>
  <circle cx="68.7" cy="827.0" r="22.8" fill="none" stroke="url(#strokeA)" stroke-width="2.0" opacity="0.85"/>
  <circle cx="68.7" cy="827.0" r="19.6" fill="none" stroke="#22D3EE" stroke-width="1.5" opacity="0.35"/>
  <polygon points="79.8,815.0 84.6,830.6 73.5,842.6 57.5,839.0 52.7,823.3 63.8,811.3" fill="none" stroke="url(#strokeB)" stroke-width="1.2" opacity="0.65"/>
  
</g>


<g opacity="0.859" filter="url(#hardGlow)">
  <circle cx="1759.9" cy="684.8" r="61.2" fill="#0A1224" opacity="0.65"/>
  <circle cx="1759.9" cy="684.8" r="61.2" fill="none" stroke="url(#strokeA)" stroke-width="4.9" opacity="0.85"/>
  <circle cx="1759.9" cy="684.8" r="52.7" fill="none" stroke="#F59E0B" stroke-width="1.8" opacity="0.35"/>
  <polygon points="1780.4,645.8 1803.9,683.1 1783.4,722.1 1739.4,723.9 1715.8,686.6 1736.3,647.5" fill="none" stroke="url(#strokeB)" stroke-width="1.5" opacity="0.65"/>
  <polygon points="1771.3,674.4 1763.2,699.9 1745.2,680.1" fill="#F59E0B" opacity="0.22" filter="url(#softGlow)"/>
</g>


<g opacity="0.395" filter="url(#hardGlow)">
  <circle cx="1720.5" cy="664.6" r="24.6" fill="#0A1224" opacity="0.65"/>
  <circle cx="1720.5" cy="664.6" r="24.6" fill="none" stroke="url(#strokeA)" stroke-width="2.0" opacity="0.85"/>
  <circle cx="1720.5" cy="664.6" r="21.2" fill="none" stroke="#22D3EE" stroke-width="1.5" opacity="0.35"/>
  <polygon points="1721.6,647.0 1736.4,656.8 1735.2,674.4 1719.4,682.3 1704.6,672.5 1705.7,654.8" fill="none" stroke="url(#strokeB)" stroke-width="1.2" opacity="0.65"/>
  <polygon points="1723.0,659.0 1724.2,669.6 1714.3,665.3" fill="#22D3EE" opacity="0.22" filter="url(#softGlow)"/>
</g>


<g opacity="0.494" filter="url(#hardGlow)">
  <circle cx="1833.8" cy="733.8" r="26.6" fill="#0A1224" opacity="0.65"/>
  <circle cx="1833.8" cy="733.8" r="26.6" fill="none" stroke="url(#strokeA)" stroke-width="2.1" opacity="0.85"/>
  <circle cx="1833.8" cy="733.8" r="22.8" fill="none" stroke="#22D3EE" stroke-width="1.5" opacity="0.35"/>
  <polygon points="1822.8,749.5 1814.7,732.1 1825.7,716.5 1844.7,718.1 1852.8,735.4 1841.9,751.1" fill="none" stroke="url(#strokeB)" stroke-width="1.2" opacity="0.65"/>
  
</g>


<g opacity="0.397" transform="translate(63.7,1017.5) rotate(-6.0)" filter="url(#softGlow)">
  <rect x="-109.2" y="-79.0" width="218.5" height="158.0" rx="15.8" fill="#050A12" opacity="0.25"/>
  <rect x="-109.2" y="-79.0" width="218.5" height="158.0" rx="15.8" fill="none" stroke="url(#strokeA)" stroke-width="7.9" opacity="0.85"/>
  <rect x="-96.6" y="-66.4" width="193.2" height="132.7" rx="11.1" fill="none" stroke="#F59E0B" stroke-width="3.2" opacity="0.35"/>
</g>


<g opacity="0.384" transform="translate(106.7,67.1) rotate(-8.9)" filter="url(#softGlow)">
  <rect x="-102.0" y="-84.1" width="203.9" height="168.2" rx="16.8" fill="#050A12" opacity="0.25"/>
  <rect x="-102.0" y="-84.1" width="203.9" height="168.2" rx="16.8" fill="none" stroke="url(#strokeA)" stroke-width="8.4" opacity="0.85"/>
  <rect x="-88.5" y="-70.6" width="177.0" height="141.3" rx="11.8" fill="none" stroke="#F59E0B" stroke-width="3.4" opacity="0.35"/>
</g>


<g opacity="0.272" transform="translate(1847.7,558.4) rotate(4.4)" filter="url(#softGlow)">
  <rect x="-77.3" y="-60.9" width="154.6" height="121.8" rx="12.2" fill="#050A12" opacity="0.25"/>
  <rect x="-77.3" y="-60.9" width="154.6" height="121.8" rx="12.2" fill="none" stroke="url(#strokeA)" stroke-width="6.1" opacity="0.85"/>
  <rect x="-67.6" y="-51.1" width="135.1" height="102.3" rx="8.5" fill="none" stroke="#22D3EE" stroke-width="2.4" opacity="0.35"/>
</g>


<g opacity="0.453" transform="translate(1527.2,108.8) rotate(8.7)" filter="url(#softGlow)">
  <rect x="-97.8" y="-83.2" width="195.5" height="166.5" rx="16.6" fill="#050A12" opacity="0.25"/>
  <rect x="-97.8" y="-83.2" width="195.5" height="166.5" rx="16.6" fill="none" stroke="url(#strokeA)" stroke-width="8.3" opacity="0.85"/>
  <rect x="-84.4" y="-69.9" width="168.9" height="139.8" rx="11.7" fill="none" stroke="#22D3EE" stroke-width="3.3" opacity="0.35"/>
</g>


<g opacity="0.451" transform="translate(178.8,1053.5) rotate(-2.2)" filter="url(#softGlow)">
  <rect x="-104.7" y="-94.7" width="209.5" height="189.4" rx="18.9" fill="#050A12" opacity="0.25"/>
  <rect x="-104.7" y="-94.7" width="209.5" height="189.4" rx="18.9" fill="none" stroke="url(#strokeA)" stroke-width="9.5" opacity="0.85"/>
  <rect x="-89.6" y="-79.6" width="179.2" height="159.1" rx="13.3" fill="none" stroke="#F59E0B" stroke-width="3.8" opacity="0.35"/>
</g>


<g opacity="0.473" transform="translate(1910.6,891.6) rotate(-5.2)" filter="url(#softGlow)">
  <rect x="-46.5" y="-26.8" width="93.1" height="53.6" rx="16.4" fill="none" stroke="#F59E0B" stroke-width="8.9" opacity="0.55"/>
  <rect x="-20.5" y="-13.4" width="93.1" height="53.6" rx="16.4" fill="none" stroke="url(#strokeA)" stroke-width="7.4" opacity="0.55"/>
</g>


<g opacity="0.243" transform="translate(55.3,1015.6) rotate(-4.1)" filter="url(#softGlow)">
  <rect x="-46.7" y="-26.9" width="93.4" height="53.8" rx="16.4" fill="none" stroke="#F59E0B" stroke-width="9.0" opacity="0.55"/>
  <rect x="-20.5" y="-13.4" width="93.4" height="53.8" rx="16.4" fill="none" stroke="url(#strokeA)" stroke-width="7.5" opacity="0.55"/>
</g>


<g opacity="0.405" transform="translate(1318.7,70.6) rotate(-0.3)" filter="url(#softGlow)">
  <rect x="-44.0" y="-25.3" width="87.9" height="50.6" rx="15.5" fill="none" stroke="#F59E0B" stroke-width="8.4" opacity="0.55"/>
  <rect x="-19.3" y="-12.7" width="87.9" height="50.6" rx="15.5" fill="none" stroke="url(#strokeA)" stroke-width="7.0" opacity="0.55"/>
</g>


<g opacity="0.426" transform="translate(215.3,305.6) rotate(17.6)" filter="url(#softGlow)">
  <rect x="-34.4" y="-19.8" width="68.7" height="39.6" rx="12.1" fill="none" stroke="#F59E0B" stroke-width="6.6" opacity="0.55"/>
  <rect x="-15.1" y="-9.9" width="68.7" height="39.6" rx="12.1" fill="none" stroke="url(#strokeA)" stroke-width="5.5" opacity="0.55"/>
</g>


<g opacity="0.306" transform="translate(1711.2,1055.5) rotate(-12.6)" filter="url(#softGlow)">
  <rect x="-49.4" y="-28.5" width="98.8" height="56.9" rx="17.4" fill="none" stroke="#F59E0B" stroke-width="9.5" opacity="0.55"/>
  <rect x="-21.7" y="-14.2" width="98.8" height="56.9" rx="17.4" fill="none" stroke="url(#strokeA)" stroke-width="7.9" opacity="0.55"/>
</g>


<g opacity="0.230" transform="translate(961.2,104.8) rotate(-4.7)" filter="url(#softGlow)">
  <rect x="-57.3" y="-33.0" width="114.5" height="66.0" rx="20.2" fill="none" stroke="#F59E0B" stroke-width="11.0" opacity="0.55"/>
  <rect x="-25.2" y="-16.5" width="114.5" height="66.0" rx="20.2" fill="none" stroke="url(#strokeA)" stroke-width="9.2" opacity="0.55"/>
</g>


<g opacity="0.194">
  <line x1="1218.7" y1="944.0" x2="1218.7" y2="991.6" stroke="#22D3EE" stroke-width="1.01" opacity="0.45"/>
  <rect x="1214.1" y="972.2" width="9.2" height="19.8" rx="3.1" fill="#0B1020" opacity="0.55" stroke="url(#strokeA)" stroke-width="1.2"/>
</g>

<g opacity="0.194">
  <line x1="841.8" y1="933.4" x2="841.8" y2="994.3" stroke="#22D3EE" stroke-width="1.58" opacity="0.45"/>
  <rect x="837.0" y="970.9" width="9.6" height="22.3" rx="3.2" fill="#0B1020" opacity="0.55" stroke="url(#strokeA)" stroke-width="1.2"/>
</g>

<g opacity="0.194">
  <line x1="713.8" y1="898.5" x2="713.8" y2="1003.0" stroke="#22D3EE" stroke-width="1.10" opacity="0.45"/>
  <rect x="710.1" y="953.8" width="7.4" height="56.5" rx="2.5" fill="#0B1020" opacity="0.55" stroke="url(#strokeA)" stroke-width="1.2"/>
</g>

<g opacity="0.194">
  <line x1="79.8" y1="901.5" x2="79.8" y2="1002.2" stroke="#22D3EE" stroke-width="1.52" opacity="0.45"/>
  <rect x="74.5" y="961.0" width="10.6" height="42.1" rx="3.5" fill="#0B1020" opacity="0.55" stroke="url(#strokeA)" stroke-width="1.2"/>
</g>

<g opacity="0.194">
  <line x1="52.5" y1="905.1" x2="52.5" y2="1001.3" stroke="#22D3EE" stroke-width="1.41" opacity="0.45"/>
  <rect x="48.6" y="957.0" width="7.8" height="50.2" rx="2.6" fill="#0B1020" opacity="0.55" stroke="url(#strokeA)" stroke-width="1.2"/>
</g>

<g opacity="0.194">
  <line x1="1588.4" y1="904.3" x2="1588.4" y2="1001.5" stroke="#22D3EE" stroke-width="1.22" opacity="0.45"/>
  <rect x="1585.4" y="954.9" width="6.1" height="54.3" rx="2.0" fill="#0B1020" opacity="0.55" stroke="url(#strokeA)" stroke-width="1.2"/>
</g>

<g opacity="0.194">
  <line x1="1700.7" y1="932.5" x2="1700.7" y2="994.5" stroke="#22D3EE" stroke-width="1.70" opacity="0.45"/>
  <rect x="1695.4" y="966.7" width="10.7" height="30.8" rx="3.6" fill="#0B1020" opacity="0.55" stroke="url(#strokeA)" stroke-width="1.2"/>
</g>

<g opacity="0.194">
  <line x1="395.2" y1="929.5" x2="395.2" y2="995.2" stroke="#22D3EE" stroke-width="1.13" opacity="0.45"/>
  <rect x="390.4" y="967.1" width="9.4" height="30.0" rx="3.1" fill="#0B1020" opacity="0.55" stroke="url(#strokeA)" stroke-width="1.2"/>
</g>

<g opacity="0.194">
  <line x1="957.3" y1="904.4" x2="957.3" y2="1001.5" stroke="#22D3EE" stroke-width="1.30" opacity="0.45"/>
  <rect x="951.8" y="959.6" width="10.9" height="44.9" rx="3.6" fill="#0B1020" opacity="0.55" stroke="url(#strokeA)" stroke-width="1.2"/>
</g>

<g opacity="0.194">
  <line x1="1100.2" y1="907.3" x2="1100.2" y2="1000.8" stroke="#22D3EE" stroke-width="1.02" opacity="0.45"/>
  <rect x="1096.7" y="952.5" width="7.0" height="59.2" rx="2.3" fill="#0B1020" opacity="0.55" stroke="url(#strokeA)" stroke-width="1.2"/>
</g>

<g opacity="0.194">
  <line x1="255.7" y1="910.0" x2="255.7" y2="1000.1" stroke="#22D3EE" stroke-width="1.07" opacity="0.45"/>
  <rect x="252.2" y="955.0" width="7.1" height="54.2" rx="2.4" fill="#0B1020" opacity="0.55" stroke="url(#strokeA)" stroke-width="1.2"/>
</g>

<g opacity="0.194">
  <line x1="1547.9" y1="915.3" x2="1547.9" y2="998.8" stroke="#22D3EE" stroke-width="1.63" opacity="0.45"/>
  <rect x="1544.6" y="955.0" width="6.8" height="54.1" rx="2.3" fill="#0B1020" opacity="0.55" stroke="url(#strokeA)" stroke-width="1.2"/>
</g>

<g opacity="0.194">
  <line x1="843.3" y1="908.7" x2="843.3" y2="1000.4" stroke="#22D3EE" stroke-width="1.48" opacity="0.45"/>
  <rect x="839.6" y="963.1" width="7.4" height="38.0" rx="2.5" fill="#0B1020" opacity="0.55" stroke="url(#strokeA)" stroke-width="1.2"/>
</g>

<g opacity="0.194">
  <line x1="766.5" y1="939.4" x2="766.5" y2="992.8" stroke="#22D3EE" stroke-width="2.04" opacity="0.45"/>
  <rect x="760.5" y="969.9" width="11.9" height="24.3" rx="4.0" fill="#0B1020" opacity="0.55" stroke="url(#strokeA)" stroke-width="1.2"/>
</g>
<circle cx="137.7" cy="96.4" r="2.1" fill="#F59E0B" opacity="0.27" filter="url(#softGlow)"/>
<circle cx="1859.7" cy="927.6" r="2.9" fill="#F59E0B" opacity="0.17" filter="url(#softGlow)"/>
<circle cx="1575.0" cy="37.0" r="1.6" fill="#F59E0B" opacity="0.27" filter="url(#softGlow)"/>
<circle cx="1916.3" cy="1019.8" r="2.3" fill="#F59E0B" opacity="0.19" filter="url(#softGlow)"/>
<circle cx="21.4" cy="545.2" r="2.1" fill="#F59E0B" opacity="0.19" filter="url(#softGlow)"/>
<circle cx="1850.7" cy="646.9" r="2.0" fill="#F59E0B" opacity="0.19" filter="url(#softGlow)"/>
<circle cx="685.7" cy="134.3" r="2.9" fill="#F59E0B" opacity="0.20" filter="url(#softGlow)"/>
<circle cx="1711.9" cy="976.1" r="2.3" fill="#F59E0B" opacity="0.22" filter="url(#softGlow)"/>
<circle cx="1788.2" cy="966.8" r="2.8" fill="#F59E0B" opacity="0.13" filter="url(#softGlow)"/>
<circle cx="1251.5" cy="79.6" r="2.4" fill="#F59E0B" opacity="0.20" filter="url(#softGlow)"/>
<circle cx="1819.0" cy="835.8" r="2.1" fill="#F59E0B" opacity="0.24" filter="url(#softGlow)"/>
<circle cx="750.8" cy="70.6" r="1.3" fill="#F59E0B" opacity="0.19" filter="url(#softGlow)"/>
<circle cx="1786.1" cy="198.1" r="2.1" fill="#F59E0B" opacity="0.19" filter="url(#softGlow)"/>
<circle cx="106.2" cy="106.7" r="2.3" fill="#F59E0B" opacity="0.20" filter="url(#softGlow)"/>
<circle cx="77.9" cy="921.4" r="1.5" fill="#F59E0B" opacity="0.20" filter="url(#softGlow)"/>
<circle cx="1442.3" cy="40.2" r="2.7" fill="#F59E0B" opacity="0.11" filter="url(#softGlow)"/>
<circle cx="118.5" cy="899.5" r="3.2" fill="#F59E0B" opacity="0.25" filter="url(#softGlow)"/>
<circle cx="272.4" cy="943.8" r="2.7" fill="#F59E0B" opacity="0.13" filter="url(#softGlow)"/>
<circle cx="54.9" cy="1004.5" r="1.4" fill="#F59E0B" opacity="0.20" filter="url(#softGlow)"/>
<circle cx="165.6" cy="422.5" r="2.6" fill="#F59E0B" opacity="0.15" filter="url(#softGlow)"/>
<circle cx="1763.1" cy="89.8" r="1.5" fill="#F59E0B" opacity="0.12" filter="url(#softGlow)"/>
<circle cx="1787.4" cy="992.0" r="1.5" fill="#F59E0B" opacity="0.18" filter="url(#softGlow)"/>
<circle cx="208.1" cy="1006.5" r="2.6" fill="#F59E0B" opacity="0.13" filter="url(#softGlow)"/>
<circle cx="1352.9" cy="96.7" r="2.8" fill="#F59E0B" opacity="0.20" filter="url(#softGlow)"/>
</svg>