<svg xmlns="http://www.w3.org/2000/svg" width="1920" height="1080" viewBox="0 0 1920 1080" preserveAspectRatio="xMidYMid slice">
<defs>
  <linearGradient id="g0" x1="0" y1="0" x2="1" y2="1">
    <stop offset="0" stop-color="#0B0F1A"/>
    <stop offset="0.55" stop-color="#A855F7" stop-opacity="0.9"/>
    <stop offset="1" stop-color="#030712"/>
  </linearGradient>
  <radialGradient id="g1" cx="20%" cy="15%" r="70%">
    <stop offset="0" stop-color="#22D3EE" stop-opacity="0.38"/>
    <stop offset="0.6" stop-color="#22D3EE" stop-opacity="0.08"/>
    <stop offset="1" stop-color="#22D3EE" stop-opacity="0"/>
  </radialGradient>
  <radialGradient id="g2" cx="85%" cy="80%" r="75%">
    <stop offset="0" stop-color="#22D3EE" stop-opacity="0.28"/>
    <stop offset="0.65" stop-color="#22D3EE" stop-opacity="0.06"/>
    <stop offset="1" stop-color="#22D3EE" stop-opacity="0"/>
  </radialGradient>
  <filter id="softGlow" x="-30%" y="-30%" width="160%" height="160%">
    <feGaussianBlur stdDeviation="12" result="b"/>
    <feMerge>
      <feMergeNode in="b"/>
      <feMergeNode in="SourceGraphic"/>
    </feMerge>
  </filter>
  <filter id="hardGlow" x="-40%" y="-40%" width="180%" height="180%">
    <feGaussianBlur stdDeviation="6" result="b"/>
    <feColorMatrix in="b" type="matrix" values="1 0 0 0 0  0 1 0 0 0  0 0 1 0 0  0 0 0 18 -7" result="c"/>
    <feMerge>
      <feMergeNode in="c"/>
      <feMergeNode in="SourceGraphic"/>
    </feMerge>
  </filter>
  <linearGradient id="strokeA" x1="0" y1="0" x2="1" y2="0">
    <stop offset="0" stop-color="#22D3EE" stop-opacity="0.9"/>
    <stop offset="0.5" stop-color="#FFFFFF" stop-opacity="0.25"/>
    <stop offset="1" stop-color="#22D3EE" stop-opacity="0.7"/>
  </linearGradient>
  <linearGradient id="strokeB" x1="0" y1="0" x2="0" y2="1">
    <stop offset="0" stop-color="#FFFFFF" stop-opacity="0.18"/>
    <stop offset="1" stop-color="#22D3EE" stop-opacity="0.55"/>
  </linearGradient>
</defs>
<rect x="0" y="0" width="1920" height="1080" fill="url(#g0)"/>
<rect x="0" y="0" width="1920" height="1080" fill="url(#g1)"/>
<rect x="0" y="0" width="1920" height="1080" fill="url(#g2)"/>


<defs>
  <radialGradient id="vign" cx="0.5000" cy="0.5093" r="0.85">
    <stop offset="0" stop-color="#000000" stop-opacity="0"/>
    <stop offset="0.55" stop-color="#000000" stop-opacity="0.217"/>
    <stop offset="1" stop-color="#000000" stop-opacity="0.620"/>
  </radialGradient>
</defs>
<rect x="0" y="0" width="1920" height="1080" fill="url(#vign)"/>

<g opacity="0.247" filter="url(#softGlow)"><path d="M 1843.4,867.9 L 190.5,867.9 L 190.5,1064.3 L 1917.9,1064.3 L 1917.9,103.2 " fill="none" stroke="url(#strokeB)" stroke-width="1.66" stroke-linecap="round" stroke-linejoin="round"/><circle cx="1843.4" cy="867.9" r="4.2" fill="#A855F7" opacity="0.45"/><circle cx="1917.9" cy="1064.3" r="3.0" fill="#A855F7" opacity="0.45"/><circle cx="190.5" cy="867.9" r="4.1" fill="#A855F7" opacity="0.45"/></g>
<g opacity="0.247" filter="url(#softGlow)"><path d="M 1714.6,754.1 L 1763.2,754.1 L 1763.2,973.0 L 157.1,973.0 L 157.1,191.9 " fill="none" stroke="url(#strokeB)" stroke-width="1.98" stroke-linecap="round" stroke-linejoin="round"/><circle cx="157.1" cy="191.9" r="3.6" fill="#A855F7" opacity="0.45"/><circle cx="1763.2" cy="973.0" r="3.4" fill="#A855F7" opacity="0.45"/><circle cx="1714.6" cy="754.1" r="2.5" fill="#A855F7" opacity="0.45"/></g>
<g opacity="0.247" filter="url(#softGlow)"><path d="M 1780.5,1010.3 L 1773.5,1010.3 L 1773.5,882.9 L 275.2,882.9 L 275.2,1024.0 " fill="none" stroke="url(#strokeB)" stroke-width="1.71" stroke-linecap="round" stroke-linejoin="round"/><circle cx="275.2" cy="1024.0" r="3.9" fill="#A855F7" opacity="0.45"/><circle cx="1773.5" cy="1010.3" r="3.2" fill="#A855F7" opacity="0.45"/><circle cx="1780.5" cy="1010.3" r="2.6" fill="#A855F7" opacity="0.45"/></g>
<g opacity="0.247" filter="url(#softGlow)"><path d="M 183.3,214.9 L 177.1,214.9 L 177.1,1007.2 L 1773.3,1007.2 L 1773.3,474.1 " fill="none" stroke="url(#strokeB)" stroke-width="1.71" stroke-linecap="round" stroke-linejoin="round"/><circle cx="1773.3" cy="474.1" r="3.9" fill="#A855F7" opacity="0.45"/><circle cx="177.1" cy="1007.2" r="2.3" fill="#A855F7" opacity="0.45"/><circle cx="1773.3" cy="1007.2" r="2.9" fill="#A855F7" opacity="0.45"/></g>
<g opacity="0.247" filter="url(#softGlow)"><path d="M 1802.2,100.6 L 1497.5,100.6 L 1497.5,138.1 L 1817.4,138.1 L 1817.4,997.7 " fill="none" stroke="url(#strokeB)" stroke-width="1.31" stroke-linecap="round" stroke-linejoin="round"/><circle cx="1497.5" cy="100.6" r="2.4" fill="#A855F7" opacity="0.45"/><circle cx="1802.2" cy="100.6" r="3.2" fill="#A855F7" opacity="0.45"/><circle cx="1817.4" cy="997.7" r="3.3" fill="#A855F7" opacity="0.45"/></g>
<g opacity="0.247" filter="url(#softGlow)"><path d="M 1802.3,838.1 L 1800.8,838.1 L 1800.8,124.6 L 1732.1,124.6 L 1732.1,66.8 " fill="none" stroke="url(#strokeB)" stroke-width="1.29" stroke-linecap="round" stroke-linejoin="round"/><circle cx="1800.8" cy="838.1" r="3.0" fill="#A855F7" opacity="0.45"/><circle cx="1802.3" cy="838.1" r="2.1" fill="#A855F7" opacity="0.45"/><circle cx="1732.1" cy="66.8" r="3.5" fill="#A855F7" opacity="0.45"/></g>
<g opacity="0.247" filter="url(#softGlow)"><path d="M 620.5,1048.4 L 1272.1,1048.4 L 1272.1,983.9 L 1885.7,983.9 L 1885.7,890.5 " fill="none" stroke="url(#strokeB)" stroke-width="1.75" stroke-linecap="round" stroke-linejoin="round"/><circle cx="1272.1" cy="983.9" r="4.0" fill="#A855F7" opacity="0.45"/><circle cx="1272.1" cy="1048.4" r="3.5" fill="#A855F7" opacity="0.45"/><circle cx="1885.7" cy="983.9" r="2.6" fill="#A855F7" opacity="0.45"/></g>
<g opacity="0.247" filter="url(#softGlow)"><path d="M 1728.8,248.1 L 1730.3,248.1 L 1730.3,135.1 L 12.8,135.1 L 12.8,126.0 " fill="none" stroke="url(#strokeB)" stroke-width="1.75" stroke-linecap="round" stroke-linejoin="round"/><circle cx="12.8" cy="135.1" r="3.1" fill="#A855F7" opacity="0.45"/><circle cx="12.8" cy="126.0" r="2.9" fill="#A855F7" opacity="0.45"/><circle cx="1730.3" cy="248.1" r="3.5" fill="#A855F7" opacity="0.45"/></g>
<g opacity="0.247" filter="url(#softGlow)"><path d="M 1767.9,973.8 L 1832.7,973.8 L 1832.7,1022.0 L 163.0,1022.0 L 163.0,938.8 " fill="none" stroke="url(#strokeB)" stroke-width="1.21" stroke-linecap="round" stroke-linejoin="round"/><circle cx="1832.7" cy="973.8" r="2.6" fill="#A855F7" opacity="0.45"/><circle cx="163.0" cy="1022.0" r="2.9" fill="#A855F7" opacity="0.45"/><circle cx="163.0" cy="938.8" r="2.1" fill="#A855F7" opacity="0.45"/></g>
<g opacity="0.247" filter="url(#softGlow)"><path d="M 97.0,368.4 L 1883.9,368.4 L 1883.9,1077.4 L 1177.4,1077.4 L 1177.4,1072.0 " fill="none" stroke="url(#strokeB)" stroke-width="1.81" stroke-linecap="round" stroke-linejoin="round"/><circle cx="1883.9" cy="1077.4" r="3.8" fill="#A855F7" opacity="0.45"/><circle cx="1883.9" cy="368.4" r="2.4" fill="#A855F7" opacity="0.45"/><circle cx="1177.4" cy="1072.0" r="2.9" fill="#A855F7" opacity="0.45"/></g>
<g opacity="0.247" filter="url(#softGlow)"><path d="M 1733.1,187.1 L 215.0,187.1 L 215.0,140.8 L 525.1,140.8 L 525.1,1008.1 " fill="none" stroke="url(#strokeB)" stroke-width="1.98" stroke-linecap="round" stroke-linejoin="round"/><circle cx="215.0" cy="140.8" r="4.1" fill="#A855F7" opacity="0.45"/><circle cx="525.1" cy="1008.1" r="3.6" fill="#A855F7" opacity="0.45"/><circle cx="1733.1" cy="187.1" r="2.8" fill="#A855F7" opacity="0.45"/></g>
<g opacity="0.247" filter="url(#softGlow)"><path d="M 1885.0,1069.4 L 1751.5,1069.4 L 1751.5,913.3 L 1873.9,913.3 L 1873.9,973.0 " fill="none" stroke="url(#strokeB)" stroke-width="2.14" stroke-linecap="round" stroke-linejoin="round"/><circle cx="1885.0" cy="1069.4" r="2.1" fill="#A855F7" opacity="0.45"/><circle cx="1873.9" cy="973.0" r="2.9" fill="#A855F7" opacity="0.45"/><circle cx="1751.5" cy="913.3" r="4.0" fill="#A855F7" opacity="0.45"/></g>
<g opacity="0.247" filter="url(#softGlow)"><path d="M 1755.0,124.0 L 776.1,124.0 L 776.1,71.2 L 51.5,71.2 L 51.5,901.0 " fill="none" stroke="url(#strokeB)" stroke-width="1.60" stroke-linecap="round" stroke-linejoin="round"/><circle cx="51.5" cy="71.2" r="3.1" fill="#A855F7" opacity="0.45"/><circle cx="51.5" cy="901.0" r="3.3" fill="#A855F7" opacity="0.45"/><circle cx="776.1" cy="71.2" r="3.9" fill="#A855F7" opacity="0.45"/></g>
<g opacity="0.247" filter="url(#softGlow)"><path d="M 242.8,201.5 L 1832.7,201.5 L 1832.7,16.1 L 17.2,16.1 L 17.2,725.7 " fill="none" stroke="url(#strokeB)" stroke-width="1.62" stroke-linecap="round" stroke-linejoin="round"/><circle cx="17.2" cy="725.7" r="3.8" fill="#A855F7" opacity="0.45"/><circle cx="1832.7" cy="201.5" r="4.2" fill="#A855F7" opacity="0.45"/><circle cx="242.8" cy="201.5" r="2.2" fill="#A855F7" opacity="0.45"/></g>
<g opacity="0.247" filter="url(#softGlow)"><path d="M 1675.3,60.5 L 1733.3,60.5 L 1733.3,279.9 L 13.3,279.9 L 13.3,864.5 " fill="none" stroke="url(#strokeB)" stroke-width="1.19" stroke-linecap="round" stroke-linejoin="round"/><circle cx="1733.3" cy="279.9" r="2.6" fill="#A855F7" opacity="0.45"/><circle cx="13.3" cy="864.5" r="3.7" fill="#A855F7" opacity="0.45"/><circle cx="1675.3" cy="60.5" r="2.1" fill="#A855F7" opacity="0.45"/></g>
<g opacity="0.247" filter="url(#softGlow)"><path d="M 28.6,18.7 L 167.7,18.7 L 167.7,872.4 L 537.6,872.4 L 537.6,7.8 " fill="none" stroke="url(#strokeB)" stroke-width="2.07" stroke-linecap="round" stroke-linejoin="round"/><circle cx="167.7" cy="872.4" r="3.2" fill="#A855F7" opacity="0.45"/><circle cx="28.6" cy="18.7" r="2.3" fill="#A855F7" opacity="0.45"/><circle cx="537.6" cy="7.8" r="3.8" fill="#A855F7" opacity="0.45"/></g>
<g opacity="0.247" filter="url(#softGlow)"><path d="M 1733.5,896.4 L 1840.8,896.4 L 1840.8,4.6 L 1768.7,4.6 L 1768.7,92.8 " fill="none" stroke="url(#strokeB)" stroke-width="1.78" stroke-linecap="round" stroke-linejoin="round"/><circle cx="1768.7" cy="4.6" r="3.4" fill="#A855F7" opacity="0.45"/><circle cx="1733.5" cy="896.4" r="2.1" fill="#A855F7" opacity="0.45"/><circle cx="1840.8" cy="896.4" r="2.9" fill="#A855F7" opacity="0.45"/></g>
<g opacity="0.247" filter="url(#softGlow)"><path d="M 1902.7,137.2 L 1786.2,137.2 L 1786.2,858.0 L 1859.9,858.0 L 1859.9,631.9 " fill="none" stroke="url(#strokeB)" stroke-width="1.83" stroke-linecap="round" stroke-linejoin="round"/><circle cx="1859.9" cy="858.0" r="2.3" fill="#A855F7" opacity="0.45"/><circle cx="1786.2" cy="858.0" r="4.1" fill="#A855F7" opacity="0.45"/><circle cx="1859.9" cy="631.9" r="4.1" fill="#A855F7" opacity="0.45"/></g>
<g opacity="0.247" filter="url(#softGlow)"><path d="M 1803.1,113.1 L 1752.2,113.1 L 1752.2,1054.1 L 1793.1,1054.1 L 1793.1,155.6 " fill="none" stroke="url(#strokeB)" stroke-width="1.28" stroke-linecap="round" stroke-linejoin="round"/><circle cx="1803.1" cy="113.1" r="4.0" fill="#A855F7" opacity="0.45"/><circle cx="1793.1" cy="1054.1" r="3.4" fill="#A855F7" opacity="0.45"/><circle cx="1752.2" cy="1054.1" r="3.3" fill="#A855F7" opacity="0.45"/></g>
<g opacity="0.247" filter="url(#softGlow)"><path d="M 1867.3,871.9 L 1769.9,871.9 L 1769.9,152.0 L 26.3,152.0 L 26.3,1034.1 " fill="none" stroke="url(#strokeB)" stroke-width="1.88" stroke-linecap="round" stroke-linejoin="round"/><circle cx="1867.3" cy="871.9" r="2.7" fill="#A855F7" opacity="0.45"/><circle cx="1769.9" cy="152.0" r="3.9" fill="#A855F7" opacity="0.45"/><circle cx="1769.9" cy="871.9" r="2.6" fill="#A855F7" opacity="0.45"/></g>
<g opacity="0.247" filter="url(#softGlow)"><path d="M 59.8,139.1 L 136.8,139.1 L 136.8,869.2 L 125.0,869.2 L 125.0,32.2 " fill="none" stroke="url(#strokeB)" stroke-width="2.01" stroke-linecap="round" stroke-linejoin="round"/><circle cx="136.8" cy="869.2" r="3.3" fill="#A855F7" opacity="0.45"/><circle cx="59.8" cy="139.1" r="2.4" fill="#A855F7" opacity="0.45"/><circle cx="136.8" cy="139.1" r="2.5" fill="#A855F7" opacity="0.45"/></g>
<g opacity="0.247" filter="url(#softGlow)"><path d="M 1732.7,914.9 L 1902.0,914.9 L 1902.0,816.3 L 1733.6,816.3 L 1733.6,24.2 " fill="none" stroke="url(#strokeB)" stroke-width="1.26" stroke-linecap="round" stroke-linejoin="round"/><circle cx="1733.6" cy="816.3" r="4.1" fill="#A855F7" opacity="0.45"/><circle cx="1732.7" cy="914.9" r="3.2" fill="#A855F7" opacity="0.45"/><circle cx="1902.0" cy="816.3" r="2.6" fill="#A855F7" opacity="0.45"/></g>

<g opacity="0.676" filter="url(#hardGlow)">
  <circle cx="1848.3" cy="51.5" r="40.9" fill="#0A1224" opacity="0.65"/>
  <circle cx="1848.3" cy="51.5" r="40.9" fill="none" stroke="url(#strokeA)" stroke-width="3.3" opacity="0.85"/>
  <circle cx="1848.3" cy="51.5" r="35.2" fill="none" stroke="#22D3EE" stroke-width="1.5" opacity="0.35"/>
  <polygon points="1825.0,69.5 1821.1,40.3 1844.4,22.3 1871.6,33.4 1875.6,62.6 1852.3,80.6" fill="none" stroke="url(#strokeB)" stroke-width="1.2" opacity="0.65"/>
  <polygon points="1838.5,54.6 1850.5,41.4 1856.0,58.4" fill="#22D3EE" opacity="0.22" filter="url(#softGlow)"/>
</g>


<g opacity="0.395" filter="url(#hardGlow)">
  <circle cx="1789.3" cy="91.9" r="22.3" fill="#0A1224" opacity="0.65"/>
  <circle cx="1789.3" cy="91.9" r="22.3" fill="none" stroke="url(#strokeA)" stroke-width="2.0" opacity="0.85"/>
  <circle cx="1789.3" cy="91.9" r="19.2" fill="none" stroke="#A855F7" stroke-width="1.5" opacity="0.35"/>
  <polygon points="1773.3,92.6 1780.7,78.4 1796.7,77.7 1805.3,91.3 1797.9,105.5 1781.9,106.2" fill="none" stroke="url(#strokeB)" stroke-width="1.2" opacity="0.65"/>
  
</g>


<g opacity="0.549" filter="url(#hardGlow)">
  <circle cx="1888.5" cy="53.5" r="16.5" fill="#0A1224" opacity="0.65"/>
  <circle cx="1888.5" cy="53.5" r="16.5" fill="none" stroke="url(#strokeA)" stroke-width="2.0" opacity="0.85"/>
  <circle cx="1888.5" cy="53.5" r="14.2" fill="none" stroke="#A855F7" stroke-width="1.5" opacity="0.35"/>
  <polygon points="1899.9,50.0 1897.2,61.6 1885.8,65.0 1877.2,56.9 1879.9,45.3 1891.3,41.9" fill="none" stroke="url(#strokeB)" stroke-width="1.2" opacity="0.65"/>
  
</g>


<g opacity="0.820" filter="url(#hardGlow)">
  <circle cx="1915.8" cy="171.7" r="65.2" fill="#0A1224" opacity="0.65"/>
  <circle cx="1915.8" cy="171.7" r="65.2" fill="none" stroke="url(#strokeA)" stroke-width="5.2" opacity="0.85"/>
  <circle cx="1915.8" cy="171.7" r="56.1" fill="none" stroke="#22D3EE" stroke-width="2.0" opacity="0.35"/>
  <polygon points="1946.6,207.2 1900.5,216.1 1869.7,180.6 1885.1,136.3 1931.1,127.3 1961.9,162.8" fill="none" stroke="url(#strokeB)" stroke-width="1.6" opacity="0.65"/>
  <polygon points="1921.7,187.0 1899.6,169.1 1926.2,159.0" fill="#22D3EE" opacity="0.22" filter="url(#softGlow)"/>
</g>


<g opacity="0.379" filter="url(#hardGlow)">
  <circle cx="1819.6" cy="217.3" r="33.7" fill="#0A1224" opacity="0.65"/>
  <circle cx="1819.6" cy="217.3" r="33.7" fill="none" stroke="url(#strokeA)" stroke-width="2.7" opacity="0.85"/>
  <circle cx="1819.6" cy="217.3" r="29.0" fill="none" stroke="#A855F7" stroke-width="1.5" opacity="0.35"/>
  <polygon points="1797.1,208.1 1816.3,193.3 1838.7,202.5 1842.0,226.5 1822.8,241.4 1800.4,232.2" fill="none" stroke="url(#strokeB)" stroke-width="1.2" opacity="0.65"/>
  <polygon points="1813.3,211.6 1827.6,214.7 1817.8,225.6" fill="#A855F7" opacity="0.22" filter="url(#softGlow)"/>
</g>


<g opacity="0.553" filter="url(#hardGlow)">
  <circle cx="1868.5" cy="204.9" r="31.1" fill="#0A1224" opacity="0.65"/>
  <circle cx="1868.5" cy="204.9" r="31.1" fill="none" stroke="url(#strokeA)" stroke-width="2.5" opacity="0.85"/>
  <circle cx="1868.5" cy="204.9" r="26.8" fill="none" stroke="#A855F7" stroke-width="1.5" opacity="0.35"/>
  <polygon points="1862.4,183.4 1884.1,188.9 1890.2,210.4 1874.6,226.5 1852.9,221.0 1846.8,199.4" fill="none" stroke="url(#strokeB)" stroke-width="1.2" opacity="0.65"/>
  <polygon points="1869.1,197.1 1875.0,209.3 1861.4,208.3" fill="#A855F7" opacity="0.22" filter="url(#softGlow)"/>
</g>


<g opacity="0.469" filter="url(#hardGlow)">
  <circle cx="1944.0" cy="112.0" r="34.2" fill="#0A1224" opacity="0.65"/>
  <circle cx="1944.0" cy="112.0" r="34.2" fill="none" stroke="url(#strokeA)" stroke-width="2.7" opacity="0.85"/>
  <circle cx="1944.0" cy="112.0" r="29.4" fill="none" stroke="#A855F7" stroke-width="1.5" opacity="0.35"/>
  <polygon points="1968.1,107.2 1960.2,130.5 1936.1,135.3 1919.8,116.8 1927.7,93.5 1951.9,88.7" fill="none" stroke="url(#strokeB)" stroke-width="1.2" opacity="0.65"/>
  <polygon points="1952.5,113.3 1938.6,118.7 1940.8,104.0" fill="#A855F7" opacity="0.22" filter="url(#softGlow)"/>
</g>


<g opacity="0.664" filter="url(#hardGlow)">
  <circle cx="1916.9" cy="976.1" r="53.2" fill="#0A1224" opacity="0.65"/>
  <circle cx="1916.9" cy="976.1" r="53.2" fill="none" stroke="url(#strokeA)" stroke-width="4.3" opacity="0.85"/>
  <circle cx="1916.9" cy="976.1" r="45.8" fill="none" stroke="#22D3EE" stroke-width="1.6" opacity="0.35"/>
  <polygon points="1889.6,1002.9 1880.0,965.8 1907.4,939.0 1944.3,949.4 1953.8,986.5 1926.5,1013.3" fill="none" stroke="url(#strokeB)" stroke-width="1.3" opacity="0.65"/>
  <polygon points="1904.7,981.7 1918.3,962.8 1927.8,984.0" fill="#22D3EE" opacity="0.22" filter="url(#softGlow)"/>
</g>


<g opacity="0.456" filter="url(#hardGlow)">
  <circle cx="1904.5" cy="932.9" r="20.3" fill="#0A1224" opacity="0.65"/>
  <circle cx="1904.5" cy="932.9" r="20.3" fill="none" stroke="url(#strokeA)" stroke-width="2.0" opacity="0.85"/>
  <circle cx="1904.5" cy="932.9" r="17.5" fill="none" stroke="#A855F7" stroke-width="1.5" opacity="0.35"/>
  <polygon points="1918.3,937.5 1907.4,947.2 1893.5,942.6 1890.6,928.3 1901.5,918.6 1915.4,923.2" fill="none" stroke="url(#strokeB)" stroke-width="1.2" opacity="0.65"/>
  <polygon points="1908.5,936.1 1899.7,934.8 1905.2,927.9" fill="#A855F7" opacity="0.22" filter="url(#softGlow)"/>
</g>


<g opacity="0.437" filter="url(#hardGlow)">
  <circle cx="1951.6" cy="925.6" r="21.7" fill="#0A1224" opacity="0.65"/>
  <circle cx="1951.6" cy="925.6" r="21.7" fill="none" stroke="url(#strokeA)" stroke-width="2.0" opacity="0.85"/>
  <circle cx="1951.6" cy="925.6" r="18.7" fill="none" stroke="#A855F7" stroke-width="1.5" opacity="0.35"/>
  <polygon points="1942.7,912.8 1958.3,911.5 1967.2,924.4 1960.5,938.5 1944.9,939.8 1936.0,926.9" fill="none" stroke="url(#strokeB)" stroke-width="1.2" opacity="0.65"/>
  <polygon points="1950.2,920.3 1956.9,927.1 1947.7,929.5" fill="#A855F7" opacity="0.22" filter="url(#softGlow)"/>
</g>


<g opacity="0.691" filter="url(#hardGlow)">
  <circle cx="1903.3" cy="126.9" r="51.4" fill="#0A1224" opacity="0.65"/>
  <circle cx="1903.3" cy="126.9" r="51.4" fill="none" stroke="url(#strokeA)" stroke-width="4.1" opacity="0.85"/>
  <circle cx="1903.3" cy="126.9" r="44.2" fill="none" stroke="#22D3EE" stroke-width="1.5" opacity="0.35"/>
  <polygon points="1904.7,163.9 1871.9,146.6 1870.5,109.6 1901.8,89.9 1934.6,107.1 1936.0,144.2" fill="none" stroke="url(#strokeB)" stroke-width="1.3" opacity="0.65"/>
  <polygon points="1899.3,139.2 1894.5,117.3 1915.9,124.1" fill="#22D3EE" opacity="0.22" filter="url(#softGlow)"/>
</g>


<g opacity="0.382" filter="url(#hardGlow)">
  <circle cx="1866.5" cy="162.0" r="24.2" fill="#0A1224" opacity="0.65"/>
  <circle cx="1866.5" cy="162.0" r="24.2" fill="none" stroke="url(#strokeA)" stroke-width="2.0" opacity="0.85"/>
  <circle cx="1866.5" cy="162.0" r="20.8" fill="none" stroke="#A855F7" stroke-width="1.5" opacity="0.35"/>
  <polygon points="1880.5,151.6 1882.5,168.9 1868.5,179.3 1852.5,172.3 1850.5,155.0 1864.6,144.7" fill="none" stroke="url(#strokeB)" stroke-width="1.2" opacity="0.65"/>
  
</g>


<g opacity="0.589" filter="url(#hardGlow)">
  <circle cx="1941.6" cy="149.4" r="20.5" fill="#0A1224" opacity="0.65"/>
  <circle cx="1941.6" cy="149.4" r="20.5" fill="none" stroke="url(#strokeA)" stroke-width="2.0" opacity="0.85"/>
  <circle cx="1941.6" cy="149.4" r="17.6" fill="none" stroke="#A855F7" stroke-width="1.5" opacity="0.35"/>
  <polygon points="1952.7,159.3 1938.6,163.9 1927.6,154.0 1930.6,139.6 1944.7,135.0 1955.7,144.8" fill="none" stroke="url(#strokeB)" stroke-width="1.2" opacity="0.65"/>
  <polygon points="1944.1,154.0 1936.5,149.3 1944.4,145.0" fill="#A855F7" opacity="0.22" filter="url(#softGlow)"/>
</g>


<g opacity="0.591" filter="url(#hardGlow)">
  <circle cx="1957.4" cy="177.6" r="18.4" fill="#0A1224" opacity="0.65"/>
  <circle cx="1957.4" cy="177.6" r="18.4" fill="none" stroke="url(#strokeA)" stroke-width="2.0" opacity="0.85"/>
  <circle cx="1957.4" cy="177.6" r="15.8" fill="none" stroke="#A855F7" stroke-width="1.5" opacity="0.35"/>
  <polygon points="1945.7,183.9 1946.1,170.7 1957.7,164.4 1969.0,171.3 1968.7,184.6 1957.0,190.9" fill="none" stroke="url(#strokeB)" stroke-width="1.2" opacity="0.65"/>
  
</g>


<g opacity="0.898" filter="url(#hardGlow)">
  <circle cx="46.7" cy="903.3" r="38.5" fill="#0A1224" opacity="0.65"/>
  <circle cx="46.7" cy="903.3" r="38.5" fill="none" stroke="url(#strokeA)" stroke-width="3.1" opacity="0.85"/>
  <circle cx="46.7" cy="903.3" r="33.1" fill="none" stroke="#22D3EE" stroke-width="1.5" opacity="0.35"/>
  <polygon points="36.7,929.1 19.3,907.5 29.3,881.7 56.7,877.4 74.1,899.0 64.1,924.9" fill="none" stroke="url(#strokeB)" stroke-width="1.2" opacity="0.65"/>
  <polygon points="40.3,910.6 43.5,894.1 56.2,905.1" fill="#22D3EE" opacity="0.22" filter="url(#softGlow)"/>
</g>


<g opacity="0.476" filter="url(#hardGlow)">
  <circle cx="91.3" cy="881.5" r="16.7" fill="#0A1224" opacity="0.65"/>
  <circle cx="91.3" cy="881.5" r="16.7" fill="none" stroke="url(#strokeA)" stroke-width="2.0" opacity="0.85"/>
  <circle cx="91.3" cy="881.5" r="14.3" fill="none" stroke="#A855F7" stroke-width="1.5" opacity="0.35"/>
  <polygon points="100.2,889.5 88.8,893.3 79.9,885.3 82.3,873.6 93.7,869.8 102.6,877.8" fill="none" stroke="url(#strokeB)" stroke-width="1.2" opacity="0.65"/>
  <polygon points="93.2,885.2 87.1,881.4 93.5,878.0" fill="#A855F7" opacity="0.22" filter="url(#softGlow)"/>
</g>


<g opacity="0.394" filter="url(#hardGlow)">
  <circle cx="38.4" cy="947.2" r="20.9" fill="#0A1224" opacity="0.65"/>
  <circle cx="38.4" cy="947.2" r="20.9" fill="none" stroke="url(#strokeA)" stroke-width="2.0" opacity="0.85"/>
  <circle cx="38.4" cy="947.2" r="18.0" fill="none" stroke="#A855F7" stroke-width="1.5" opacity="0.35"/>
  <polygon points="39.3,932.2 51.9,940.4 51.0,955.5 37.6,962.3 25.0,954.0 25.8,939.0" fill="none" stroke="url(#strokeB)" stroke-width="1.2" opacity="0.65"/>
  <polygon points="40.5,942.4 41.6,951.4 33.2,947.9" fill="#A855F7" opacity="0.22" filter="url(#softGlow)"/>
</g>


<g opacity="0.791" filter="url(#hardGlow)">
  <circle cx="54.4" cy="82.6" r="43.6" fill="#0A1224" opacity="0.65"/>
  <circle cx="54.4" cy="82.6" r="43.6" fill="none" stroke="url(#strokeA)" stroke-width="3.5" opacity="0.85"/>
  <circle cx="54.4" cy="82.6" r="37.5" fill="none" stroke="#22D3EE" stroke-width="1.5" opacity="0.35"/>
  <polygon points="23.8,89.3 33.3,59.4 64.0,52.7 85.1,75.9 75.5,105.8 44.9,112.5" fill="none" stroke="url(#strokeB)" stroke-width="1.2" opacity="0.65"/>
  <polygon points="43.5,81.1 61.1,73.9 58.6,92.8" fill="#22D3EE" opacity="0.22" filter="url(#softGlow)"/>
</g>


<g opacity="0.627" filter="url(#hardGlow)">
  <circle cx="107.0" cy="52.9" r="20.3" fill="#0A1224" opacity="0.65"/>
  <circle cx="107.0" cy="52.9" r="20.3" fill="none" stroke="url(#strokeA)" stroke-width="2.0" opacity="0.85"/>
  <circle cx="107.0" cy="52.9" r="17.5" fill="none" stroke="#A855F7" stroke-width="1.5" opacity="0.35"/>
  <polygon points="118.4,62.1 104.8,67.4 93.4,58.3 95.6,43.8 109.2,38.5 120.7,47.6" fill="none" stroke="url(#strokeB)" stroke-width="1.2" opacity="0.65"/>
  <polygon points="109.7,57.3 101.9,53.1 109.5,48.4" fill="#A855F7" opacity="0.22" filter="url(#softGlow)"/>
</g>


<g opacity="0.283" transform="translate(40.7,322.8) rotate(6.1)" filter="url(#softGlow)">
  <rect x="-104.2" y="-96.8" width="208.5" height="193.6" rx="19.4" fill="#050A12" opacity="0.25"/>
  <rect x="-104.2" y="-96.8" width="208.5" height="193.6" rx="19.4" fill="none" stroke="url(#strokeA)" stroke-width="9.7" opacity="0.85"/>
  <rect x="-88.8" y="-81.3" width="177.5" height="162.6" rx="13.6" fill="none" stroke="#A855F7" stroke-width="3.9" opacity="0.35"/>
</g>


<g opacity="0.416" transform="translate(737.0,42.0) rotate(-3.6)" filter="url(#softGlow)">
  <rect x="-80.8" y="-67.8" width="161.7" height="135.6" rx="13.6" fill="#050A12" opacity="0.25"/>
  <rect x="-80.8" y="-67.8" width="161.7" height="135.6" rx="13.6" fill="none" stroke="url(#strokeA)" stroke-width="6.8" opacity="0.85"/>
  <rect x="-70.0" y="-56.9" width="140.0" height="113.9" rx="9.5" fill="none" stroke="#F59E0B" stroke-width="2.7" opacity="0.35"/>
</g>


<g opacity="0.367" transform="translate(138.8,361.7) rotate(7.0)" filter="url(#softGlow)">
  <rect x="-97.2" y="-83.1" width="194.5" height="166.2" rx="16.6" fill="#050A12" opacity="0.25"/>
  <rect x="-97.2" y="-83.1" width="194.5" height="166.2" rx="16.6" fill="none" stroke="url(#strokeA)" stroke-width="8.3" opacity="0.85"/>
  <rect x="-84.0" y="-69.8" width="167.9" height="139.6" rx="11.6" fill="none" stroke="#F59E0B" stroke-width="3.3" opacity="0.35"/>
</g>


<g opacity="0.329" transform="translate(1908.4,21.3) rotate(1.6)" filter="url(#softGlow)">
  <rect x="-104.6" y="-93.1" width="209.1" height="186.1" rx="18.6" fill="#050A12" opacity="0.25"/>
  <rect x="-104.6" y="-93.1" width="209.1" height="186.1" rx="18.6" fill="none" stroke="url(#strokeA)" stroke-width="9.3" opacity="0.85"/>
  <rect x="-89.7" y="-78.2" width="179.4" height="156.4" rx="13.0" fill="none" stroke="#F59E0B" stroke-width="3.7" opacity="0.35"/>
</g>


<g opacity="0.312" transform="translate(1840.2,953.5) rotate(-13.4)" filter="url(#softGlow)">
  <rect x="-41.5" y="-23.9" width="83.0" height="47.8" rx="14.6" fill="none" stroke="#22D3EE" stroke-width="8.0" opacity="0.55"/>
  <rect x="-18.3" y="-12.0" width="83.0" height="47.8" rx="14.6" fill="none" stroke="url(#strokeA)" stroke-width="6.6" opacity="0.55"/>
</g>


<g opacity="0.312" transform="translate(18.8,41.1) rotate(-4.4)" filter="url(#softGlow)">
  <rect x="-40.1" y="-23.1" width="80.3" height="46.2" rx="14.1" fill="none" stroke="#22D3EE" stroke-width="7.7" opacity="0.55"/>
  <rect x="-17.7" y="-11.6" width="80.3" height="46.2" rx="14.1" fill="none" stroke="url(#strokeA)" stroke-width="6.4" opacity="0.55"/>
</g>


<g opacity="0.445" transform="translate(100.3,76.0) rotate(5.8)" filter="url(#softGlow)">
  <rect x="-42.2" y="-24.3" width="84.3" height="48.6" rx="14.8" fill="none" stroke="#A855F7" stroke-width="8.1" opacity="0.55"/>
  <rect x="-18.6" y="-12.1" width="84.3" height="48.6" rx="14.8" fill="none" stroke="url(#strokeA)" stroke-width="6.7" opacity="0.55"/>
</g>


<g opacity="0.380" transform="translate(1742.4,947.3) rotate(4.6)" filter="url(#softGlow)">
  <rect x="-37.2" y="-21.4" width="74.4" height="42.8" rx="13.1" fill="none" stroke="#A855F7" stroke-width="7.1" opacity="0.55"/>
  <rect x="-16.4" y="-10.7" width="74.4" height="42.8" rx="13.1" fill="none" stroke="url(#strokeA)" stroke-width="5.9" opacity="0.55"/>
</g>


<g opacity="0.244" transform="translate(1626.9,1075.4) rotate(-14.2)" filter="url(#softGlow)">
  <rect x="-36.1" y="-20.8" width="72.3" height="41.6" rx="12.7" fill="none" stroke="#A855F7" stroke-width="6.9" opacity="0.55"/>
  <rect x="-15.9" y="-10.4" width="72.3" height="41.6" rx="12.7" fill="none" stroke="url(#strokeA)" stroke-width="5.8" opacity="0.55"/>
</g>


<g opacity="0.273" transform="translate(540.9,1052.4) rotate(-7.3)" filter="url(#softGlow)">
  <rect x="-36.5" y="-21.0" width="73.0" height="42.1" rx="12.9" fill="none" stroke="#22D3EE" stroke-width="7.0" opacity="0.55"/>
  <rect x="-16.1" y="-10.5" width="73.0" height="42.1" rx="12.9" fill="none" stroke="url(#strokeA)" stroke-width="5.8" opacity="0.55"/>
</g>


<g opacity="0.280" transform="translate(1747.8,994.1) rotate(4.0)" filter="url(#softGlow)">
  <rect x="-45.9" y="-26.4" width="91.8" height="52.9" rx="16.2" fill="none" stroke="#A855F7" stroke-width="8.8" opacity="0.55"/>
  <rect x="-20.2" y="-13.2" width="91.8" height="52.9" rx="16.2" fill="none" stroke="url(#strokeA)" stroke-width="7.3" opacity="0.55"/>
</g>


<g opacity="0.368" transform="translate(1725.4,1042.9) rotate(-12.1)" filter="url(#softGlow)">
  <rect x="-56.9" y="-32.8" width="113.8" height="65.5" rx="20.0" fill="none" stroke="#22D3EE" stroke-width="10.9" opacity="0.55"/>
  <rect x="-25.0" y="-16.4" width="113.8" height="65.5" rx="20.0" fill="none" stroke="url(#strokeA)" stroke-width="9.1" opacity="0.55"/>
</g>


<g opacity="0.216">
  <line x1="1255.6" y1="907.7" x2="1255.6" y2="983.6" stroke="#A855F7" stroke-width="1.48" opacity="0.45"/>
  <rect x="1252.0" y="945.0" width="7.1" height="47.0" rx="2.4" fill="#0B1020" opacity="0.55" stroke="url(#strokeA)" stroke-width="1.2"/>
</g>

<g opacity="0.216">
  <line x1="1031.7" y1="916.8" x2="1031.7" y2="981.4" stroke="#A855F7" stroke-width="1.39" opacity="0.45"/>
  <rect x="1026.3" y="957.1" width="10.7" height="22.7" rx="3.6" fill="#0B1020" opacity="0.55" stroke="url(#strokeA)" stroke-width="1.2"/>
</g>

<g opacity="0.216">
  <line x1="611.9" y1="915.1" x2="611.9" y2="981.8" stroke="#A855F7" stroke-width="2.10" opacity="0.45"/>
  <rect x="607.9" y="952.8" width="7.9" height="31.2" rx="2.6" fill="#0B1020" opacity="0.55" stroke="url(#strokeA)" stroke-width="1.2"/>
</g>

<g opacity="0.216">
  <line x1="117.2" y1="911.1" x2="117.2" y2="982.8" stroke="#A855F7" stroke-width="2.10" opacity="0.45"/>
  <rect x="111.3" y="956.2" width="11.9" height="24.4" rx="4.0" fill="#0B1020" opacity="0.55" stroke="url(#strokeA)" stroke-width="1.2"/>
</g>

<g opacity="0.216">
  <line x1="510.8" y1="905.9" x2="510.8" y2="984.1" stroke="#A855F7" stroke-width="2.08" opacity="0.45"/>
  <rect x="507.2" y="943.0" width="7.4" height="50.9" rx="2.5" fill="#0B1020" opacity="0.55" stroke="url(#strokeA)" stroke-width="1.2"/>
</g>

<g opacity="0.216">
  <line x1="1520.4" y1="900.7" x2="1520.4" y2="985.4" stroke="#A855F7" stroke-width="2.12" opacity="0.45"/>
  <rect x="1516.8" y="952.4" width="7.3" height="32.1" rx="2.4" fill="#0B1020" opacity="0.55" stroke="url(#strokeA)" stroke-width="1.2"/>
</g>

<g opacity="0.216">
  <line x1="1767.5" y1="885.9" x2="1767.5" y2="989.1" stroke="#A855F7" stroke-width="1.72" opacity="0.45"/>
  <rect x="1764.0" y="943.2" width="7.1" height="50.4" rx="2.4" fill="#0B1020" opacity="0.55" stroke="url(#strokeA)" stroke-width="1.2"/>
</g>

<g opacity="0.216">
  <line x1="161.0" y1="921.7" x2="161.0" y2="980.1" stroke="#A855F7" stroke-width="1.60" opacity="0.45"/>
  <rect x="156.3" y="957.6" width="9.4" height="21.7" rx="3.1" fill="#0B1020" opacity="0.55" stroke="url(#strokeA)" stroke-width="1.2"/>
</g>

<g opacity="0.216">
  <line x1="976.7" y1="920.8" x2="976.7" y2="980.4" stroke="#A855F7" stroke-width="1.11" opacity="0.45"/>
  <rect x="971.0" y="952.0" width="11.3" height="32.9" rx="3.8" fill="#0B1020" opacity="0.55" stroke="url(#strokeA)" stroke-width="1.2"/>
</g>

<g opacity="0.216">
  <line x1="736.1" y1="876.6" x2="736.1" y2="991.4" stroke="#A855F7" stroke-width="1.83" opacity="0.45"/>
  <rect x="730.1" y="941.7" width="12.0" height="53.5" rx="4.0" fill="#0B1020" opacity="0.55" stroke="url(#strokeA)" stroke-width="1.2"/>
</g>

<g opacity="0.216">
  <line x1="1770.7" y1="891.3" x2="1770.7" y2="987.7" stroke="#A855F7" stroke-width="1.29" opacity="0.45"/>
  <rect x="1765.5" y="946.9" width="10.4" height="43.1" rx="3.5" fill="#0B1020" opacity="0.55" stroke="url(#strokeA)" stroke-width="1.2"/>
</g>

<g opacity="0.216">
  <line x1="621.2" y1="892.3" x2="621.2" y2="987.5" stroke="#A855F7" stroke-width="1.09" opacity="0.45"/>
  <rect x="617.5" y="950.0" width="7.5" height="36.9" rx="2.5" fill="#0B1020" opacity="0.55" stroke="url(#strokeA)" stroke-width="1.2"/>
</g>

<g opacity="0.216">
  <line x1="595.9" y1="890.7" x2="595.9" y2="987.9" stroke="#A855F7" stroke-width="1.08" opacity="0.45"/>
  <rect x="590.7" y="945.2" width="10.6" height="46.6" rx="3.5" fill="#0B1020" opacity="0.55" stroke="url(#strokeA)" stroke-width="1.2"/>
</g>

<g opacity="0.216">
  <line x1="1342.7" y1="898.8" x2="1342.7" y2="985.9" stroke="#A855F7" stroke-width="1.43" opacity="0.45"/>
  <rect x="1337.0" y="941.6" width="11.3" height="53.7" rx="3.8" fill="#0B1020" opacity="0.55" stroke="url(#strokeA)" stroke-width="1.2"/>
</g>

<g opacity="0.216">
  <line x1="1169.9" y1="900.7" x2="1169.9" y2="985.4" stroke="#A855F7" stroke-width="1.07" opacity="0.45"/>
  <rect x="1164.9" y="947.3" width="10.0" height="42.2" rx="3.3" fill="#0B1020" opacity="0.55" stroke="url(#strokeA)" stroke-width="1.2"/>
</g>

<g opacity="0.216">
  <line x1="1685.5" y1="891.8" x2="1685.5" y2="987.6" stroke="#A855F7" stroke-width="1.06" opacity="0.45"/>
  <rect x="1679.8" y="946.4" width="11.3" height="44.2" rx="3.8" fill="#0B1020" opacity="0.55" stroke="url(#strokeA)" stroke-width="1.2"/>
</g>
<circle cx="32.7" cy="165.6" r="3.1" fill="#22D3EE" opacity="0.12" filter="url(#softGlow)"/>
<circle cx="212.7" cy="925.3" r="2.1" fill="#22D3EE" opacity="0.27" filter="url(#softGlow)"/>
<circle cx="142.5" cy="1019.9" r="1.4" fill="#22D3EE" opacity="0.11" filter="url(#softGlow)"/>
<circle cx="94.9" cy="996.0" r="2.8" fill="#22D3EE" opacity="0.25" filter="url(#softGlow)"/>
<circle cx="1714.1" cy="943.3" r="2.9" fill="#22D3EE" opacity="0.12" filter="url(#softGlow)"/>
<circle cx="150.9" cy="82.1" r="2.5" fill="#22D3EE" opacity="0.27" filter="url(#softGlow)"/>
<circle cx="190.8" cy="907.4" r="3.1" fill="#22D3EE" opacity="0.23" filter="url(#softGlow)"/>
<circle cx="186.6" cy="832.6" r="1.8" fill="#22D3EE" opacity="0.27" filter="url(#softGlow)"/>
<circle cx="139.7" cy="86.0" r="1.9" fill="#22D3EE" opacity="0.14" filter="url(#softGlow)"/>
<circle cx="1805.0" cy="132.4" r="2.9" fill="#22D3EE" opacity="0.18" filter="url(#softGlow)"/>
<circle cx="1251.2" cy="39.3" r="1.5" fill="#22D3EE" opacity="0.19" filter="url(#softGlow)"/>
<circle cx="717.1" cy="1066.3" r="1.9" fill="#22D3EE" opacity="0.22" filter="url(#softGlow)"/>
<circle cx="781.0" cy="88.6" r="2.5" fill="#22D3EE" opacity="0.24" filter="url(#softGlow)"/>
<circle cx="225.3" cy="209.9" r="1.6" fill="#22D3EE" opacity="0.15" filter="url(#softGlow)"/>
<circle cx="1878.6" cy="112.4" r="1.5" fill="#22D3EE" opacity="0.19" filter="url(#softGlow)"/>
<circle cx="1802.1" cy="25.2" r="2.7" fill="#22D3EE" opacity="0.25" filter="url(#softGlow)"/>
<circle cx="177.5" cy="187.2" r="3.0" fill="#22D3EE" opacity="0.28" filter="url(#softGlow)"/>
<circle cx="179.2" cy="1033.2" r="2.4" fill="#22D3EE" opacity="0.19" filter="url(#softGlow)"/>
<circle cx="1845.1" cy="830.1" r="2.8" fill="#22D3EE" opacity="0.24" filter="url(#softGlow)"/>
<circle cx="112.1" cy="57.4" r="1.4" fill="#22D3EE" opacity="0.27" filter="url(#softGlow)"/>
<circle cx="78.6" cy="436.1" r="2.0" fill="#22D3EE" opacity="0.22" filter="url(#softGlow)"/>
<circle cx="1771.6" cy="120.1" r="1.8" fill="#22D3EE" opacity="0.13" filter="url(#softGlow)"/>
<circle cx="1756.9" cy="601.7" r="2.5" fill="#22D3EE" opacity="0.11" filter="url(#softGlow)"/>
<circle cx="58.5" cy="1054.0" r="3.0" fill="#22D3EE" opacity="0.12" filter="url(#softGlow)"/>
<circle cx="1527.7" cy="134.2" r="1.8" fill="#22D3EE" opacity="0.18" filter="url(#softGlow)"/>
<circle cx="1748.1" cy="1043.2" r="1.5" fill="#22D3EE" opacity="0.25" filter="url(#softGlow)"/>
<circle cx="12.0" cy="213.3" r="1.7" fill="#22D3EE" opacity="0.10" filter="url(#softGlow)"/>
<circle cx="11.3" cy="176.9" r="1.9" fill="#22D3EE" opacity="0.19" filter="url(#softGlow)"/>
<circle cx="1835.0" cy="79.6" r="3.0" fill="#22D3EE" opacity="0.12" filter="url(#softGlow)"/>
<circle cx="486.1" cy="117.2" r="1.7" fill="#22D3EE" opacity="0.27" filter="url(#softGlow)"/>
<circle cx="170.7" cy="223.3" r="2.8" fill="#22D3EE" opacity="0.11" filter="url(#softGlow)"/>
<circle cx="1805.0" cy="8.9" r="2.2" fill="#22D3EE" opacity="0.22" filter="url(#softGlow)"/>
</svg>