<svg xmlns="http://www.w3.org/2000/svg" width="1920" height="1080" viewBox="0 0 1920 1080" preserveAspectRatio="xMidYMid slice">
<defs>
  <linearGradient id="g0" x1="0" y1="0" x2="1" y2="1">
    <stop offset="0" stop-color="#0B1020"/>
    <stop offset="0.55" stop-color="#00E5FF" stop-opacity="0.9"/>
    <stop offset="1" stop-color="#051018"/>
  </linearGradient>
  <radialGradient id="g1" cx="20%" cy="15%" r="70%">
    <stop offset="0" stop-color="#7C4DFF" stop-opacity="0.38"/>
    <stop offset="0.6" stop-color="#7C4DFF" stop-opacity="0.08"/>
    <stop offset="1" stop-color="#7C4DFF" stop-opacity="0"/>
  </radialGradient>
  <radialGradient id="g2" cx="85%" cy="80%" r="75%">
    <stop offset="0" stop-color="#7C4DFF" stop-opacity="0.28"/>
    <stop offset="0.65" stop-color="#7C4DFF" stop-opacity="0.06"/>
    <stop offset="1" stop-color="#7C4DFF" stop-opacity="0"/>
  </radialGradient>
  <filter id="softGlow" x="-30%" y="-30%" width="160%" height="160%">
    <feGaussianBlur stdDeviation="12" result="b"/>
    <feMerge>
      <feMergeNode in="b"/>
      <feMergeNode in="SourceGraphic"/>
    </feMerge>
  </filter>
  <filter id="hardGlow" x="-40%" y="-40%" width="180%" height="180%">
    <feGaussianBlur stdDeviation="6" result="b"/>
    <feColorMatrix in="b" type="matrix" values="1 0 0 0 0  0 1 0 0 0  0 0 1 0 0  0 0 0 18 -7" result="c"/>
    <feMerge>
      <feMergeNode in="c"/>
      <feMergeNode in="SourceGraphic"/>
    </feMerge>
  </filter>
  <linearGradient id="strokeA" x1="0" y1="0" x2="1" y2="0">
    <stop offset="0" stop-color="#7C4DFF" stop-opacity="0.9"/>
    <stop offset="0.5" stop-color="#FFFFFF" stop-opacity="0.25"/>
    <stop offset="1" stop-color="#7C4DFF" stop-opacity="0.7"/>
  </linearGradient>
  <linearGradient id="strokeB" x1="0" y1="0" x2="0" y2="1">
    <stop offset="0" stop-color="#FFFFFF" stop-opacity="0.18"/>
    <stop offset="1" stop-color="#7C4DFF" stop-opacity="0.55"/>
  </linearGradient>
</defs>
<rect x="0" y="0" width="1920" height="1080" fill="url(#g0)"/>
<rect x="0" y="0" width="1920" height="1080" fill="url(#g1)"/>
<rect x="0" y="0" width="1920" height="1080" fill="url(#g2)"/>


<defs>
  <radialGradient id="vign" cx="0.5000" cy="0.5093" r="0.85">
    <stop offset="0" stop-color="#000000" stop-opacity="0"/>
    <stop offset="0.55" stop-color="#000000" stop-opacity="0.217"/>
    <stop offset="1" stop-color="#000000" stop-opacity="0.620"/>
  </radialGradient>
</defs>
<rect x="0" y="0" width="1920" height="1080" fill="url(#vign)"/>

<g opacity="0.193" filter="url(#softGlow)"><path d="M 1794.8,910.4 L 121.0,910.4 L 121.0,1010.2 L 1785.8,1010.2 L 1785.8,892.4 " fill="none" stroke="url(#strokeB)" stroke-width="1.91" stroke-linecap="round" stroke-linejoin="round"/><circle cx="121.0" cy="1010.2" r="3.4" fill="#FFB300" opacity="0.45"/><circle cx="1785.8" cy="892.4" r="2.9" fill="#FFB300" opacity="0.45"/><circle cx="1794.8" cy="910.4" r="2.2" fill="#FFB300" opacity="0.45"/></g>
<g opacity="0.193" filter="url(#softGlow)"><path d="M 1833.2,1006.1 L 76.8,1006.1 L 76.8,97.5 L 146.8,97.5 L 146.8,1047.6 " fill="none" stroke="url(#strokeB)" stroke-width="1.47" stroke-linecap="round" stroke-linejoin="round"/><circle cx="76.8" cy="1006.1" r="2.5" fill="#FFB300" opacity="0.45"/><circle cx="76.8" cy="97.5" r="2.2" fill="#FFB300" opacity="0.45"/><circle cx="146.8" cy="1047.6" r="2.9" fill="#FFB300" opacity="0.45"/></g>
<g opacity="0.193" filter="url(#softGlow)"><path d="M 1802.1,1037.0 L 1746.3,1037.0 L 1746.3,46.8 L 1877.0,46.8 L 1877.0,913.9 " fill="none" stroke="url(#strokeB)" stroke-width="1.17" stroke-linecap="round" stroke-linejoin="round"/><circle cx="1746.3" cy="1037.0" r="2.6" fill="#FFB300" opacity="0.45"/><circle cx="1746.3" cy="46.8" r="3.6" fill="#FFB300" opacity="0.45"/><circle cx="1877.0" cy="913.9" r="2.4" fill="#FFB300" opacity="0.45"/></g>
<g opacity="0.193" filter="url(#softGlow)"><path d="M 40.9,142.2 L 1776.1,142.2 L 1776.1,920.2 L 89.9,920.2 L 89.9,569.3 " fill="none" stroke="url(#strokeB)" stroke-width="2.08" stroke-linecap="round" stroke-linejoin="round"/><circle cx="40.9" cy="142.2" r="2.0" fill="#FFB300" opacity="0.45"/><circle cx="1776.1" cy="142.2" r="3.1" fill="#FFB300" opacity="0.45"/><circle cx="1776.1" cy="920.2" r="3.8" fill="#FFB300" opacity="0.45"/></g>
<g opacity="0.193" filter="url(#softGlow)"><path d="M 184.6,866.1 L 238.6,866.1 L 238.6,43.7 L 1579.0,43.7 L 1579.0,110.0 " fill="none" stroke="url(#strokeB)" stroke-width="2.08" stroke-linecap="round" stroke-linejoin="round"/><circle cx="238.6" cy="43.7" r="2.9" fill="#FFB300" opacity="0.45"/><circle cx="1579.0" cy="43.7" r="2.9" fill="#FFB300" opacity="0.45"/><circle cx="238.6" cy="866.1" r="3.8" fill="#FFB300" opacity="0.45"/></g>
<g opacity="0.193" filter="url(#softGlow)"><path d="M 1621.8,142.4 L 133.2,142.4 L 133.2,200.2 L 1701.7,200.2 L 1701.7,187.7 " fill="none" stroke="url(#strokeB)" stroke-width="1.12" stroke-linecap="round" stroke-linejoin="round"/><circle cx="133.2" cy="200.2" r="3.3" fill="#FFB300" opacity="0.45"/><circle cx="1621.8" cy="142.4" r="2.5" fill="#FFB300" opacity="0.45"/><circle cx="133.2" cy="142.4" r="3.1" fill="#FFB300" opacity="0.45"/></g>
<g opacity="0.193" filter="url(#softGlow)"><path d="M 71.4,131.5 L 18.6,131.5 L 18.6,135.8 L 1899.4,135.8 L 1899.4,1057.0 " fill="none" stroke="url(#strokeB)" stroke-width="1.39" stroke-linecap="round" stroke-linejoin="round"/><circle cx="18.6" cy="135.8" r="4.2" fill="#FFB300" opacity="0.45"/><circle cx="18.6" cy="131.5" r="3.1" fill="#FFB300" opacity="0.45"/><circle cx="71.4" cy="131.5" r="3.0" fill="#FFB300" opacity="0.45"/></g>
<g opacity="0.193" filter="url(#softGlow)"><path d="M 1889.6,456.7 L 42.4,456.7 L 42.4,229.1 L 146.9,229.1 L 146.9,930.1 " fill="none" stroke="url(#strokeB)" stroke-width="1.59" stroke-linecap="round" stroke-linejoin="round"/><circle cx="146.9" cy="229.1" r="3.5" fill="#FFB300" opacity="0.45"/><circle cx="1889.6" cy="456.7" r="3.8" fill="#FFB300" opacity="0.45"/><circle cx="42.4" cy="229.1" r="3.8" fill="#FFB300" opacity="0.45"/></g>
<g opacity="0.193" filter="url(#softGlow)"><path d="M 893.8,1037.0 L 4.3,1037.0 L 4.3,579.9 L 1781.1,579.9 L 1781.1,137.6 " fill="none" stroke="url(#strokeB)" stroke-width="1.30" stroke-linecap="round" stroke-linejoin="round"/><circle cx="1781.1" cy="579.9" r="3.4" fill="#FFB300" opacity="0.45"/><circle cx="4.3" cy="1037.0" r="3.6" fill="#FFB300" opacity="0.45"/><circle cx="4.3" cy="579.9" r="2.9" fill="#FFB300" opacity="0.45"/></g>
<g opacity="0.193" filter="url(#softGlow)"><path d="M 1835.6,46.3 L 1869.4,46.3 L 1869.4,1045.5 L 1716.4,1045.5 L 1716.4,1015.2 " fill="none" stroke="url(#strokeB)" stroke-width="1.80" stroke-linecap="round" stroke-linejoin="round"/><circle cx="1835.6" cy="46.3" r="2.9" fill="#FFB300" opacity="0.45"/><circle cx="1716.4" cy="1045.5" r="2.7" fill="#FFB300" opacity="0.45"/><circle cx="1716.4" cy="1015.2" r="3.0" fill="#FFB300" opacity="0.45"/></g>
<g opacity="0.193" filter="url(#softGlow)"><path d="M 1866.3,1068.4 L 1790.9,1068.4 L 1790.9,875.9 L 782.3,875.9 L 782.3,1031.6 " fill="none" stroke="url(#strokeB)" stroke-width="2.06" stroke-linecap="round" stroke-linejoin="round"/><circle cx="1790.9" cy="875.9" r="4.1" fill="#FFB300" opacity="0.45"/><circle cx="1790.9" cy="1068.4" r="3.5" fill="#FFB300" opacity="0.45"/><circle cx="782.3" cy="1031.6" r="3.3" fill="#FFB300" opacity="0.45"/></g>
<g opacity="0.193" filter="url(#softGlow)"><path d="M 166.9,21.0 L 1832.3,21.0 L 1832.3,1064.5 L 1758.4,1064.5 L 1758.4,902.4 " fill="none" stroke="url(#strokeB)" stroke-width="1.83" stroke-linecap="round" stroke-linejoin="round"/><circle cx="1758.4" cy="902.4" r="2.4" fill="#FFB300" opacity="0.45"/><circle cx="1758.4" cy="1064.5" r="2.8" fill="#FFB300" opacity="0.45"/><circle cx="166.9" cy="21.0" r="3.1" fill="#FFB300" opacity="0.45"/></g>
<g opacity="0.193" filter="url(#softGlow)"><path d="M 1917.2,23.6 L 1724.9,23.6 L 1724.9,821.2 L 84.9,821.2 L 84.9,113.9 " fill="none" stroke="url(#strokeB)" stroke-width="2.02" stroke-linecap="round" stroke-linejoin="round"/><circle cx="84.9" cy="821.2" r="4.1" fill="#FFB300" opacity="0.45"/><circle cx="84.9" cy="113.9" r="2.2" fill="#FFB300" opacity="0.45"/><circle cx="1724.9" cy="23.6" r="3.9" fill="#FFB300" opacity="0.45"/></g>
<g opacity="0.193" filter="url(#softGlow)"><path d="M 1854.8,935.2 L 1825.2,935.2 L 1825.2,1049.3 L 1709.2,1049.3 L 1709.2,131.4 " fill="none" stroke="url(#strokeB)" stroke-width="1.90" stroke-linecap="round" stroke-linejoin="round"/><circle cx="1854.8" cy="935.2" r="2.2" fill="#FFB300" opacity="0.45"/><circle cx="1825.2" cy="935.2" r="2.7" fill="#FFB300" opacity="0.45"/><circle cx="1709.2" cy="1049.3" r="3.8" fill="#FFB300" opacity="0.45"/></g>
<g opacity="0.193" filter="url(#softGlow)"><path d="M 1793.9,38.4 L 1.2,38.4 L 1.2,973.8 L 1726.4,973.8 L 1726.4,38.7 " fill="none" stroke="url(#strokeB)" stroke-width="1.86" stroke-linecap="round" stroke-linejoin="round"/><circle cx="1.2" cy="38.4" r="2.7" fill="#FFB300" opacity="0.45"/><circle cx="1.2" cy="973.8" r="2.4" fill="#FFB300" opacity="0.45"/><circle cx="1726.4" cy="38.7" r="2.0" fill="#FFB300" opacity="0.45"/></g>
<g opacity="0.193" filter="url(#softGlow)"><path d="M 1801.1,41.8 L 79.0,41.8 L 79.0,186.9 L 90.9,186.9 L 90.9,1061.0 " fill="none" stroke="url(#strokeB)" stroke-width="1.17" stroke-linecap="round" stroke-linejoin="round"/><circle cx="90.9" cy="1061.0" r="2.7" fill="#FFB300" opacity="0.45"/><circle cx="79.0" cy="186.9" r="3.3" fill="#FFB300" opacity="0.45"/><circle cx="90.9" cy="186.9" r="2.6" fill="#FFB300" opacity="0.45"/></g>
<g opacity="0.193" filter="url(#softGlow)"><path d="M 1876.2,391.4 L 53.8,391.4 L 53.8,1015.1 L 57.5,1015.1 L 57.5,32.8 " fill="none" stroke="url(#strokeB)" stroke-width="1.94" stroke-linecap="round" stroke-linejoin="round"/><circle cx="1876.2" cy="391.4" r="4.2" fill="#FFB300" opacity="0.45"/><circle cx="57.5" cy="32.8" r="2.2" fill="#FFB300" opacity="0.45"/><circle cx="53.8" cy="1015.1" r="2.4" fill="#FFB300" opacity="0.45"/></g>

<g opacity="0.880" filter="url(#hardGlow)">
  <circle cx="0.1" cy="138.6" r="49.7" fill="#0A1224" opacity="0.65"/>
  <circle cx="0.1" cy="138.6" r="49.7" fill="none" stroke="url(#strokeA)" stroke-width="4.0" opacity="0.85"/>
  <circle cx="0.1" cy="138.6" r="42.7" fill="none" stroke="#00E5FF" stroke-width="1.5" opacity="0.35"/>
  <polygon points="34.7,129.2 25.5,163.8 -9.0,173.1 -34.4,147.9 -25.2,113.3 9.3,104.0" fill="none" stroke="url(#strokeB)" stroke-width="1.2" opacity="0.65"/>
  <polygon points="12.6,139.6 -7.0,148.8 -5.2,127.2" fill="#00E5FF" opacity="0.22" filter="url(#softGlow)"/>
</g>


<g opacity="0.642" filter="url(#hardGlow)">
  <circle cx="-21.7" cy="128.4" r="26.4" fill="#0A1224" opacity="0.65"/>
  <circle cx="-21.7" cy="128.4" r="26.4" fill="none" stroke="url(#strokeA)" stroke-width="2.1" opacity="0.85"/>
  <circle cx="-21.7" cy="128.4" r="22.7" fill="none" stroke="#FFB300" stroke-width="1.5" opacity="0.35"/>
  <polygon points="-37.2,139.4 -38.9,120.5 -23.4,109.5 -6.2,117.5 -4.4,136.4 -20.0,147.3" fill="none" stroke="url(#strokeB)" stroke-width="1.2" opacity="0.65"/>
  
</g>


<g opacity="0.571" filter="url(#hardGlow)">
  <circle cx="-56.9" cy="110.7" r="19.3" fill="#0A1224" opacity="0.65"/>
  <circle cx="-56.9" cy="110.7" r="19.3" fill="none" stroke="url(#strokeA)" stroke-width="2.0" opacity="0.85"/>
  <circle cx="-56.9" cy="110.7" r="16.6" fill="none" stroke="#FFB300" stroke-width="1.5" opacity="0.35"/>
  <polygon points="-69.3,104.3 -57.5,96.8 -45.2,103.3 -44.6,117.2 -56.4,124.6 -68.7,118.2" fill="none" stroke="url(#strokeB)" stroke-width="1.2" opacity="0.65"/>
  <polygon points="-60.2,107.1 -52.2,109.7 -58.4,115.4" fill="#FFB300" opacity="0.22" filter="url(#softGlow)"/>
</g>


<g opacity="0.611" filter="url(#hardGlow)">
  <circle cx="-10.8" cy="151.5" r="25.7" fill="#0A1224" opacity="0.65"/>
  <circle cx="-10.8" cy="151.5" r="25.7" fill="none" stroke="url(#strokeA)" stroke-width="2.1" opacity="0.85"/>
  <circle cx="-10.8" cy="151.5" r="22.1" fill="none" stroke="#FFB300" stroke-width="1.5" opacity="0.35"/>
  <polygon points="-6.7,133.5 6.9,146.1 2.8,164.1 -14.9,169.5 -28.4,157.0 -24.3,138.9" fill="none" stroke="url(#strokeB)" stroke-width="1.2" opacity="0.65"/>
  <polygon points="-7.3,146.1 -7.8,157.3 -17.2,151.2" fill="#FFB300" opacity="0.22" filter="url(#softGlow)"/>
</g>


<g opacity="0.910" filter="url(#hardGlow)">
  <circle cx="1802.7" cy="23.4" r="69.1" fill="#0A1224" opacity="0.65"/>
  <circle cx="1802.7" cy="23.4" r="69.1" fill="none" stroke="url(#strokeA)" stroke-width="5.5" opacity="0.85"/>
  <circle cx="1802.7" cy="23.4" r="59.5" fill="none" stroke="#00E5FF" stroke-width="2.1" opacity="0.35"/>
  <polygon points="1827.4,-19.8 1852.5,23.2 1827.8,66.4 1778.0,66.7 1752.9,23.7 1777.6,-19.6" fill="none" stroke="url(#strokeB)" stroke-width="1.7" opacity="0.65"/>
  <polygon points="1816.0,12.1 1805.8,40.6 1786.3,17.5" fill="#00E5FF" opacity="0.22" filter="url(#softGlow)"/>
</g>


<g opacity="0.599" filter="url(#hardGlow)">
  <circle cx="1817.6" cy="15.8" r="32.1" fill="#0A1224" opacity="0.65"/>
  <circle cx="1817.6" cy="15.8" r="32.1" fill="none" stroke="url(#strokeA)" stroke-width="2.6" opacity="0.85"/>
  <circle cx="1817.6" cy="15.8" r="27.6" fill="none" stroke="#FFB300" stroke-width="1.5" opacity="0.35"/>
  <polygon points="1830.4,35.0 1807.3,36.5 1794.5,17.2 1804.8,-3.5 1827.9,-5.0 1840.7,14.3" fill="none" stroke="url(#strokeB)" stroke-width="1.2" opacity="0.65"/>
  
</g>


<g opacity="0.533" filter="url(#hardGlow)">
  <circle cx="1747.9" cy="21.1" r="35.6" fill="#0A1224" opacity="0.65"/>
  <circle cx="1747.9" cy="21.1" r="35.6" fill="none" stroke="url(#strokeA)" stroke-width="2.8" opacity="0.85"/>
  <circle cx="1747.9" cy="21.1" r="30.6" fill="none" stroke="#FFB300" stroke-width="1.5" opacity="0.35"/>
  <polygon points="1728.5,4.3 1752.7,-4.1 1772.1,12.6 1767.3,37.8 1743.1,46.2 1723.7,29.5" fill="none" stroke="url(#strokeB)" stroke-width="1.2" opacity="0.65"/>
  <polygon points="1743.5,13.2 1756.9,21.2 1743.3,28.8" fill="#FFB300" opacity="0.22" filter="url(#softGlow)"/>
</g>


<g opacity="0.778" filter="url(#hardGlow)">
  <circle cx="1912.7" cy="161.3" r="51.7" fill="#0A1224" opacity="0.65"/>
  <circle cx="1912.7" cy="161.3" r="51.7" fill="none" stroke="url(#strokeA)" stroke-width="4.1" opacity="0.85"/>
  <circle cx="1912.7" cy="161.3" r="44.5" fill="none" stroke="#00E5FF" stroke-width="1.6" opacity="0.35"/>
  <polygon points="1944.0,181.5 1910.9,198.5 1879.6,178.4 1881.4,141.2 1914.5,124.2 1945.8,144.3" fill="none" stroke="url(#strokeB)" stroke-width="1.3" opacity="0.65"/>
  <polygon points="1920.6,171.7 1899.8,163.0 1917.7,149.3" fill="#00E5FF" opacity="0.22" filter="url(#softGlow)"/>
</g>


<g opacity="0.502" filter="url(#hardGlow)">
  <circle cx="1937.2" cy="203.6" r="26.1" fill="#0A1224" opacity="0.65"/>
  <circle cx="1937.2" cy="203.6" r="26.1" fill="none" stroke="url(#strokeA)" stroke-width="2.1" opacity="0.85"/>
  <circle cx="1937.2" cy="203.6" r="22.4" fill="none" stroke="#FFB300" stroke-width="1.5" opacity="0.35"/>
  <polygon points="1955.3,208.7 1941.8,221.8 1923.7,216.7 1919.1,198.5 1932.6,185.4 1950.6,190.5" fill="none" stroke="url(#strokeB)" stroke-width="1.2" opacity="0.65"/>
  <polygon points="1942.5,207.4 1931.2,206.3 1937.8,197.0" fill="#FFB300" opacity="0.22" filter="url(#softGlow)"/>
</g>


<g opacity="0.534" filter="url(#hardGlow)">
  <circle cx="1926.2" cy="109.6" r="24.4" fill="#0A1224" opacity="0.65"/>
  <circle cx="1926.2" cy="109.6" r="24.4" fill="none" stroke="url(#strokeA)" stroke-width="2.0" opacity="0.85"/>
  <circle cx="1926.2" cy="109.6" r="21.0" fill="none" stroke="#FFB300" stroke-width="1.5" opacity="0.35"/>
  <polygon points="1943.7,109.6 1935.0,124.8 1917.4,124.8 1908.6,109.6 1917.4,94.4 1934.9,94.4" fill="none" stroke="url(#strokeB)" stroke-width="1.2" opacity="0.65"/>
  
</g>


<g opacity="0.872" filter="url(#hardGlow)">
  <circle cx="54.2" cy="934.4" r="53.5" fill="#0A1224" opacity="0.65"/>
  <circle cx="54.2" cy="934.4" r="53.5" fill="none" stroke="url(#strokeA)" stroke-width="4.3" opacity="0.85"/>
  <circle cx="54.2" cy="934.4" r="46.0" fill="none" stroke="#00E5FF" stroke-width="1.6" opacity="0.35"/>
  <polygon points="71.9,900.2 92.7,932.6 75.0,966.8 36.6,968.6 15.8,936.2 33.5,902.0" fill="none" stroke="url(#strokeB)" stroke-width="1.3" opacity="0.65"/>
  <polygon points="64.1,925.3 57.2,947.6 41.4,930.4" fill="#00E5FF" opacity="0.22" filter="url(#softGlow)"/>
</g>


<g opacity="0.403" filter="url(#hardGlow)">
  <circle cx="-8.7" cy="920.4" r="25.9" fill="#0A1224" opacity="0.65"/>
  <circle cx="-8.7" cy="920.4" r="25.9" fill="none" stroke="url(#strokeA)" stroke-width="2.1" opacity="0.85"/>
  <circle cx="-8.7" cy="920.4" r="22.3" fill="none" stroke="#FFB300" stroke-width="1.5" opacity="0.35"/>
  <polygon points="1.3,936.2 -17.4,936.9 -27.3,921.1 -18.6,904.6 0.0,903.9 10.0,919.6" fill="none" stroke="url(#strokeB)" stroke-width="1.2" opacity="0.65"/>
  
</g>


<g opacity="0.590" filter="url(#hardGlow)">
  <circle cx="35.7" cy="900.0" r="22.7" fill="#0A1224" opacity="0.65"/>
  <circle cx="35.7" cy="900.0" r="22.7" fill="none" stroke="url(#strokeA)" stroke-width="2.0" opacity="0.85"/>
  <circle cx="35.7" cy="900.0" r="19.5" fill="none" stroke="#FFB300" stroke-width="1.5" opacity="0.35"/>
  <polygon points="20.0,895.8 31.5,884.3 47.3,888.5 51.5,904.3 39.9,915.8 24.2,911.6" fill="none" stroke="url(#strokeB)" stroke-width="1.2" opacity="0.65"/>
  
</g>


<g opacity="0.441" transform="translate(1756.8,127.4) rotate(2.9)" filter="url(#softGlow)">
  <rect x="-80.0" y="-67.3" width="160.0" height="134.7" rx="13.5" fill="#050A12" opacity="0.25"/>
  <rect x="-80.0" y="-67.3" width="160.0" height="134.7" rx="13.5" fill="none" stroke="url(#strokeA)" stroke-width="6.7" opacity="0.85"/>
  <rect x="-69.2" y="-56.6" width="138.5" height="113.1" rx="9.4" fill="none" stroke="#FFB300" stroke-width="2.7" opacity="0.35"/>
</g>


<g opacity="0.290" transform="translate(36.5,1014.2) rotate(0.7)" filter="url(#softGlow)">
  <rect x="-100.1" y="-72.6" width="200.2" height="145.2" rx="14.5" fill="#050A12" opacity="0.25"/>
  <rect x="-100.1" y="-72.6" width="200.2" height="145.2" rx="14.5" fill="none" stroke="url(#strokeA)" stroke-width="7.3" opacity="0.85"/>
  <rect x="-88.5" y="-61.0" width="177.0" height="122.0" rx="10.2" fill="none" stroke="#FFB300" stroke-width="2.9" opacity="0.35"/>
</g>


<g opacity="0.431" transform="translate(1852.8,566.3) rotate(-2.6)" filter="url(#softGlow)">
  <rect x="-90.1" y="-68.5" width="180.3" height="136.9" rx="13.7" fill="#050A12" opacity="0.25"/>
  <rect x="-90.1" y="-68.5" width="180.3" height="136.9" rx="13.7" fill="none" stroke="url(#strokeA)" stroke-width="6.8" opacity="0.85"/>
  <rect x="-79.2" y="-57.5" width="158.4" height="115.0" rx="9.6" fill="none" stroke="#00E5FF" stroke-width="2.7" opacity="0.35"/>
</g>


<g opacity="0.377" transform="translate(45.7,71.3) rotate(-1.9)" filter="url(#softGlow)">
  <rect x="-75.8" y="-64.9" width="151.6" height="129.8" rx="13.0" fill="#050A12" opacity="0.25"/>
  <rect x="-75.8" y="-64.9" width="151.6" height="129.8" rx="13.0" fill="none" stroke="url(#strokeA)" stroke-width="6.5" opacity="0.85"/>
  <rect x="-65.4" y="-54.5" width="130.8" height="109.1" rx="9.1" fill="none" stroke="#FFB300" stroke-width="2.6" opacity="0.35"/>
</g>


<g opacity="0.372" transform="translate(20.6,416.6) rotate(1.3)" filter="url(#softGlow)">
  <rect x="-99.7" y="-94.3" width="199.4" height="188.7" rx="18.9" fill="#050A12" opacity="0.25"/>
  <rect x="-99.7" y="-94.3" width="199.4" height="188.7" rx="18.9" fill="none" stroke="url(#strokeA)" stroke-width="9.4" opacity="0.85"/>
  <rect x="-84.6" y="-79.2" width="169.2" height="158.5" rx="13.2" fill="none" stroke="#00E5FF" stroke-width="3.8" opacity="0.35"/>
</g>


<g opacity="0.273" transform="translate(1.5,19.3) rotate(8.8)" filter="url(#softGlow)">
  <rect x="-38.0" y="-21.9" width="76.0" height="43.8" rx="13.4" fill="none" stroke="#FFB300" stroke-width="7.3" opacity="0.55"/>
  <rect x="-16.7" y="-10.9" width="76.0" height="43.8" rx="13.4" fill="none" stroke="url(#strokeA)" stroke-width="6.1" opacity="0.55"/>
</g>


<g opacity="0.464" transform="translate(177.6,1005.5) rotate(17.7)" filter="url(#softGlow)">
  <rect x="-60.7" y="-35.0" width="121.5" height="70.0" rx="21.4" fill="none" stroke="#FFB300" stroke-width="11.7" opacity="0.55"/>
  <rect x="-26.7" y="-17.5" width="121.5" height="70.0" rx="21.4" fill="none" stroke="url(#strokeA)" stroke-width="9.7" opacity="0.55"/>
</g>


<g opacity="0.412" transform="translate(80.5,1005.6) rotate(16.6)" filter="url(#softGlow)">
  <rect x="-44.4" y="-25.6" width="88.8" height="51.1" rx="15.6" fill="none" stroke="#00E5FF" stroke-width="8.5" opacity="0.55"/>
  <rect x="-19.5" y="-12.8" width="88.8" height="51.1" rx="15.6" fill="none" stroke="url(#strokeA)" stroke-width="7.1" opacity="0.55"/>
</g>


<g opacity="0.447" transform="translate(189.8,184.8) rotate(-4.0)" filter="url(#softGlow)">
  <rect x="-36.7" y="-21.1" width="73.3" height="42.2" rx="12.9" fill="none" stroke="#FFB300" stroke-width="7.0" opacity="0.55"/>
  <rect x="-16.1" y="-10.6" width="73.3" height="42.2" rx="12.9" fill="none" stroke="url(#strokeA)" stroke-width="5.9" opacity="0.55"/>
</g>


<g opacity="0.370" transform="translate(1832.6,927.4) rotate(16.8)" filter="url(#softGlow)">
  <rect x="-44.1" y="-25.4" width="88.1" height="50.8" rx="15.5" fill="none" stroke="#00E5FF" stroke-width="8.5" opacity="0.55"/>
  <rect x="-19.4" y="-12.7" width="88.1" height="50.8" rx="15.5" fill="none" stroke="url(#strokeA)" stroke-width="7.1" opacity="0.55"/>
</g>


<g opacity="0.262" transform="translate(1894.7,99.7) rotate(14.7)" filter="url(#softGlow)">
  <rect x="-54.6" y="-31.5" width="109.2" height="62.9" rx="19.2" fill="none" stroke="#FFB300" stroke-width="10.5" opacity="0.55"/>
  <rect x="-24.0" y="-15.7" width="109.2" height="62.9" rx="19.2" fill="none" stroke="url(#strokeA)" stroke-width="8.7" opacity="0.55"/>
</g>


<g opacity="0.452" transform="translate(167.4,49.4) rotate(-17.3)" filter="url(#softGlow)">
  <rect x="-56.3" y="-32.4" width="112.6" height="64.8" rx="19.8" fill="none" stroke="#00E5FF" stroke-width="10.8" opacity="0.55"/>
  <rect x="-24.8" y="-16.2" width="112.6" height="64.8" rx="19.8" fill="none" stroke="url(#strokeA)" stroke-width="9.0" opacity="0.55"/>
</g>


<g opacity="0.399" transform="translate(1899.0,120.5) rotate(-7.9)" filter="url(#softGlow)">
  <rect x="-42.6" y="-24.5" width="85.1" height="49.0" rx="15.0" fill="none" stroke="#00E5FF" stroke-width="8.2" opacity="0.55"/>
  <rect x="-18.7" y="-12.3" width="85.1" height="49.0" rx="15.0" fill="none" stroke="url(#strokeA)" stroke-width="6.8" opacity="0.55"/>
</g>


<g opacity="0.273" transform="translate(1866.1,56.7) rotate(-2.3)" filter="url(#softGlow)">
  <rect x="-39.1" y="-22.5" width="78.2" height="45.1" rx="13.8" fill="none" stroke="#FFB300" stroke-width="7.5" opacity="0.55"/>
  <rect x="-17.2" y="-11.3" width="78.2" height="45.1" rx="13.8" fill="none" stroke="url(#strokeA)" stroke-width="6.3" opacity="0.55"/>
</g>


<g opacity="0.280" transform="translate(401.0,998.3) rotate(-3.3)" filter="url(#softGlow)">
  <rect x="-43.6" y="-25.1" width="87.2" height="50.2" rx="15.3" fill="none" stroke="#FFB300" stroke-width="8.4" opacity="0.55"/>
  <rect x="-19.2" y="-12.6" width="87.2" height="50.2" rx="15.3" fill="none" stroke="url(#strokeA)" stroke-width="7.0" opacity="0.55"/>
</g>


<g opacity="0.141">
  <line x1="1760.1" y1="921.3" x2="1760.1" y2="999.7" stroke="#FFB300" stroke-width="1.83" opacity="0.45"/>
  <rect x="1755.7" y="961.8" width="8.9" height="44.5" rx="3.0" fill="#0B1020" opacity="0.55" stroke="url(#strokeA)" stroke-width="1.2"/>
</g>

<g opacity="0.141">
  <line x1="525.2" y1="910.9" x2="525.2" y2="1002.3" stroke="#FFB300" stroke-width="1.46" opacity="0.45"/>
  <rect x="520.8" y="963.9" width="8.9" height="40.3" rx="3.0" fill="#0B1020" opacity="0.55" stroke="url(#strokeA)" stroke-width="1.2"/>
</g>

<g opacity="0.141">
  <line x1="1495.2" y1="899.4" x2="1495.2" y2="1005.1" stroke="#FFB300" stroke-width="1.88" opacity="0.45"/>
  <rect x="1489.9" y="959.9" width="10.6" height="48.2" rx="3.5" fill="#0B1020" opacity="0.55" stroke="url(#strokeA)" stroke-width="1.2"/>
</g>

<g opacity="0.141">
  <line x1="671.6" y1="915.4" x2="671.6" y2="1001.2" stroke="#FFB300" stroke-width="2.04" opacity="0.45"/>
  <rect x="665.7" y="957.2" width="11.7" height="53.6" rx="3.9" fill="#0B1020" opacity="0.55" stroke="url(#strokeA)" stroke-width="1.2"/>
</g>

<g opacity="0.141">
  <line x1="1814.8" y1="902.3" x2="1814.8" y2="1004.4" stroke="#FFB300" stroke-width="1.32" opacity="0.45"/>
  <rect x="1809.2" y="960.5" width="11.1" height="47.0" rx="3.7" fill="#0B1020" opacity="0.55" stroke="url(#strokeA)" stroke-width="1.2"/>
</g>

<g opacity="0.141">
  <line x1="648.6" y1="935.9" x2="648.6" y2="996.0" stroke="#FFB300" stroke-width="1.10" opacity="0.45"/>
  <rect x="644.2" y="970.9" width="8.8" height="26.2" rx="2.9" fill="#0B1020" opacity="0.55" stroke="url(#strokeA)" stroke-width="1.2"/>
</g>

<g opacity="0.141">
  <line x1="1559.0" y1="938.4" x2="1559.0" y2="995.4" stroke="#FFB300" stroke-width="1.22" opacity="0.45"/>
  <rect x="1554.7" y="971.1" width="8.6" height="25.8" rx="2.9" fill="#0B1020" opacity="0.55" stroke="url(#strokeA)" stroke-width="1.2"/>
</g>

<g opacity="0.141">
  <line x1="539.8" y1="934.1" x2="539.8" y2="996.5" stroke="#FFB300" stroke-width="1.79" opacity="0.45"/>
  <rect x="534.0" y="974.0" width="11.5" height="20.0" rx="3.8" fill="#0B1020" opacity="0.55" stroke="url(#strokeA)" stroke-width="1.2"/>
</g>

<g opacity="0.141">
  <line x1="1132.3" y1="946.0" x2="1132.3" y2="993.5" stroke="#FFB300" stroke-width="1.72" opacity="0.45"/>
  <rect x="1127.4" y="971.8" width="9.9" height="24.5" rx="3.3" fill="#0B1020" opacity="0.55" stroke="url(#strokeA)" stroke-width="1.2"/>
</g>

<g opacity="0.141">
  <line x1="369.0" y1="888.8" x2="369.0" y2="1007.8" stroke="#FFB300" stroke-width="1.59" opacity="0.45"/>
  <rect x="365.3" y="955.7" width="7.5" height="56.7" rx="2.5" fill="#0B1020" opacity="0.55" stroke="url(#strokeA)" stroke-width="1.2"/>
</g>

<g opacity="0.141">
  <line x1="215.4" y1="925.4" x2="215.4" y2="998.6" stroke="#FFB300" stroke-width="1.22" opacity="0.45"/>
  <rect x="210.0" y="972.5" width="10.8" height="23.0" rx="3.6" fill="#0B1020" opacity="0.55" stroke="url(#strokeA)" stroke-width="1.2"/>
</g>

<g opacity="0.141">
  <line x1="939.6" y1="921.7" x2="939.6" y2="999.6" stroke="#FFB300" stroke-width="1.12" opacity="0.45"/>
  <rect x="934.9" y="967.0" width="9.5" height="34.1" rx="3.2" fill="#0B1020" opacity="0.55" stroke="url(#strokeA)" stroke-width="1.2"/>
</g>

<g opacity="0.141">
  <line x1="405.7" y1="914.7" x2="405.7" y2="1001.3" stroke="#FFB300" stroke-width="1.58" opacity="0.45"/>
  <rect x="400.6" y="969.2" width="10.2" height="29.6" rx="3.4" fill="#0B1020" opacity="0.55" stroke="url(#strokeA)" stroke-width="1.2"/>
</g>

<g opacity="0.141">
  <line x1="1238.1" y1="907.8" x2="1238.1" y2="1003.1" stroke="#FFB300" stroke-width="2.05" opacity="0.45"/>
  <rect x="1233.1" y="957.5" width="10.0" height="53.1" rx="3.3" fill="#0B1020" opacity="0.55" stroke="url(#strokeA)" stroke-width="1.2"/>
</g>

<g opacity="0.141">
  <line x1="1778.1" y1="924.1" x2="1778.1" y2="999.0" stroke="#FFB300" stroke-width="1.47" opacity="0.45"/>
  <rect x="1773.7" y="962.0" width="8.8" height="44.0" rx="2.9" fill="#0B1020" opacity="0.55" stroke="url(#strokeA)" stroke-width="1.2"/>
</g>

<g opacity="0.141">
  <line x1="996.6" y1="896.7" x2="996.6" y2="1005.8" stroke="#FFB300" stroke-width="1.52" opacity="0.45"/>
  <rect x="990.7" y="960.0" width="11.8" height="48.0" rx="3.9" fill="#0B1020" opacity="0.55" stroke="url(#strokeA)" stroke-width="1.2"/>
</g>

<g opacity="0.141">
  <line x1="22.0" y1="913.0" x2="22.0" y2="1001.8" stroke="#FFB300" stroke-width="1.23" opacity="0.45"/>
  <rect x="17.6" y="961.6" width="8.8" height="44.9" rx="2.9" fill="#0B1020" opacity="0.55" stroke="url(#strokeA)" stroke-width="1.2"/>
</g>
<circle cx="83.6" cy="130.4" r="2.4" fill="#00E5FF" opacity="0.18" filter="url(#softGlow)"/>
<circle cx="797.1" cy="997.8" r="2.6" fill="#00E5FF" opacity="0.11" filter="url(#softGlow)"/>
<circle cx="72.0" cy="1074.8" r="2.4" fill="#00E5FF" opacity="0.23" filter="url(#softGlow)"/>
<circle cx="359.3" cy="126.9" r="1.9" fill="#00E5FF" opacity="0.21" filter="url(#softGlow)"/>
<circle cx="1824.4" cy="1074.9" r="1.5" fill="#00E5FF" opacity="0.28" filter="url(#softGlow)"/>
<circle cx="109.0" cy="686.7" r="1.4" fill="#00E5FF" opacity="0.16" filter="url(#softGlow)"/>
<circle cx="32.7" cy="172.0" r="1.8" fill="#00E5FF" opacity="0.16" filter="url(#softGlow)"/>
<circle cx="86.0" cy="817.7" r="2.4" fill="#00E5FF" opacity="0.23" filter="url(#softGlow)"/>
<circle cx="1893.1" cy="377.7" r="3.1" fill="#00E5FF" opacity="0.10" filter="url(#softGlow)"/>
<circle cx="1753.3" cy="487.2" r="1.4" fill="#00E5FF" opacity="0.27" filter="url(#softGlow)"/>
<circle cx="1715.7" cy="85.1" r="2.5" fill="#00E5FF" opacity="0.18" filter="url(#softGlow)"/>
<circle cx="1305.2" cy="1024.7" r="1.7" fill="#00E5FF" opacity="0.21" filter="url(#softGlow)"/>
<circle cx="1843.1" cy="62.2" r="2.8" fill="#00E5FF" opacity="0.19" filter="url(#softGlow)"/>
<circle cx="1911.7" cy="658.2" r="2.0" fill="#00E5FF" opacity="0.17" filter="url(#softGlow)"/>
<circle cx="70.2" cy="169.9" r="1.7" fill="#00E5FF" opacity="0.22" filter="url(#softGlow)"/>
<circle cx="208.4" cy="748.0" r="2.3" fill="#00E5FF" opacity="0.23" filter="url(#softGlow)"/>
<circle cx="841.5" cy="81.1" r="1.8" fill="#00E5FF" opacity="0.17" filter="url(#softGlow)"/>
<circle cx="1822.2" cy="930.6" r="1.9" fill="#00E5FF" opacity="0.16" filter="url(#softGlow)"/>
<circle cx="41.8" cy="1033.6" r="1.6" fill="#00E5FF" opacity="0.19" filter="url(#softGlow)"/>
<circle cx="1720.3" cy="166.8" r="2.0" fill="#00E5FF" opacity="0.19" filter="url(#softGlow)"/>
<circle cx="1906.9" cy="886.6" r="1.8" fill="#00E5FF" opacity="0.17" filter="url(#softGlow)"/>
<circle cx="181.5" cy="1056.6" r="1.8" fill="#00E5FF" opacity="0.21" filter="url(#softGlow)"/>
<circle cx="185.4" cy="1038.5" r="1.4" fill="#00E5FF" opacity="0.27" filter="url(#softGlow)"/>
<circle cx="1759.7" cy="949.6" r="2.2" fill="#00E5FF" opacity="0.22" filter="url(#softGlow)"/>
<circle cx="353.5" cy="77.1" r="2.0" fill="#00E5FF" opacity="0.10" filter="url(#softGlow)"/>
<circle cx="53.4" cy="174.6" r="2.9" fill="#00E5FF" opacity="0.23" filter="url(#softGlow)"/>
<circle cx="81.5" cy="94.9" r="2.3" fill="#00E5FF" opacity="0.23" filter="url(#softGlow)"/>
<circle cx="79.8" cy="17.2" r="1.9" fill="#00E5FF" opacity="0.27" filter="url(#softGlow)"/>
<circle cx="1804.0" cy="301.3" r="3.0" fill="#00E5FF" opacity="0.20" filter="url(#softGlow)"/>
<circle cx="1764.6" cy="695.9" r="2.5" fill="#00E5FF" opacity="0.23" filter="url(#softGlow)"/>
</svg>