<svg xmlns="http://www.w3.org/2000/svg" width="1920" height="1080" viewBox="0 0 1920 1080" preserveAspectRatio="xMidYMid slice">
<defs>
  <linearGradient id="g0" x1="0" y1="0" x2="1" y2="1">
    <stop offset="0" stop-color="#0B1020"/>
    <stop offset="0.55" stop-color="#2DD4BF" stop-opacity="0.9"/>
    <stop offset="1" stop-color="#020617"/>
  </linearGradient>
  <radialGradient id="g1" cx="20%" cy="15%" r="70%">
    <stop offset="0" stop-color="#60A5FA" stop-opacity="0.38"/>
    <stop offset="0.6" stop-color="#60A5FA" stop-opacity="0.08"/>
    <stop offset="1" stop-color="#60A5FA" stop-opacity="0"/>
  </radialGradient>
  <radialGradient id="g2" cx="85%" cy="80%" r="75%">
    <stop offset="0" stop-color="#60A5FA" stop-opacity="0.28"/>
    <stop offset="0.65" stop-color="#60A5FA" stop-opacity="0.06"/>
    <stop offset="1" stop-color="#60A5FA" stop-opacity="0"/>
  </radialGradient>
  <filter id="softGlow" x="-30%" y="-30%" width="160%" height="160%">
    <feGaussianBlur stdDeviation="12" result="b"/>
    <feMerge>
      <feMergeNode in="b"/>
      <feMergeNode in="SourceGraphic"/>
    </feMerge>
  </filter>
  <filter id="hardGlow" x="-40%" y="-40%" width="180%" height="180%">
    <feGaussianBlur stdDeviation="6" result="b"/>
    <feColorMatrix in="b" type="matrix" values="1 0 0 0 0  0 1 0 0 0  0 0 1 0 0  0 0 0 18 -7" result="c"/>
    <feMerge>
      <feMergeNode in="c"/>
      <feMergeNode in="SourceGraphic"/>
    </feMerge>
  </filter>
  <linearGradient id="strokeA" x1="0" y1="0" x2="1" y2="0">
    <stop offset="0" stop-color="#60A5FA" stop-opacity="0.9"/>
    <stop offset="0.5" stop-color="#FFFFFF" stop-opacity="0.25"/>
    <stop offset="1" stop-color="#60A5FA" stop-opacity="0.7"/>
  </linearGradient>
  <linearGradient id="strokeB" x1="0" y1="0" x2="0" y2="1">
    <stop offset="0" stop-color="#FFFFFF" stop-opacity="0.18"/>
    <stop offset="1" stop-color="#60A5FA" stop-opacity="0.55"/>
  </linearGradient>
</defs>
<rect x="0" y="0" width="1920" height="1080" fill="url(#g0)"/>
<rect x="0" y="0" width="1920" height="1080" fill="url(#g1)"/>
<rect x="0" y="0" width="1920" height="1080" fill="url(#g2)"/>


<defs>
  <radialGradient id="vign" cx="0.5000" cy="0.5093" r="0.85">
    <stop offset="0" stop-color="#000000" stop-opacity="0"/>
    <stop offset="0.55" stop-color="#000000" stop-opacity="0.217"/>
    <stop offset="1" stop-color="#000000" stop-opacity="0.620"/>
  </radialGradient>
</defs>
<rect x="0" y="0" width="1920" height="1080" fill="url(#vign)"/>

<g opacity="0.267" filter="url(#softGlow)"><path d="M 135.0,204.5 L 1329.2,204.5 L 1329.2,99.2 L 44.4,99.2 L 44.4,902.1 " fill="none" stroke="url(#strokeB)" stroke-width="1.73" stroke-linecap="round" stroke-linejoin="round"/><circle cx="44.4" cy="99.2" r="2.9" fill="#F472B6" opacity="0.45"/><circle cx="1329.2" cy="204.5" r="3.0" fill="#F472B6" opacity="0.45"/><circle cx="1329.2" cy="99.2" r="2.4" fill="#F472B6" opacity="0.45"/></g>
<g opacity="0.267" filter="url(#softGlow)"><path d="M 210.7,163.1 L 58.1,163.1 L 58.1,955.7 L 64.1,955.7 L 64.1,197.2 " fill="none" stroke="url(#strokeB)" stroke-width="2.17" stroke-linecap="round" stroke-linejoin="round"/><circle cx="58.1" cy="955.7" r="2.3" fill="#F472B6" opacity="0.45"/><circle cx="58.1" cy="163.1" r="3.0" fill="#F472B6" opacity="0.45"/><circle cx="210.7" cy="163.1" r="3.1" fill="#F472B6" opacity="0.45"/></g>
<g opacity="0.267" filter="url(#softGlow)"><path d="M 1898.0,601.6 L 138.1,601.6 L 138.1,16.9 L 110.7,16.9 L 110.7,95.4 " fill="none" stroke="url(#strokeB)" stroke-width="1.83" stroke-linecap="round" stroke-linejoin="round"/><circle cx="1898.0" cy="601.6" r="2.9" fill="#F472B6" opacity="0.45"/><circle cx="110.7" cy="95.4" r="2.5" fill="#F472B6" opacity="0.45"/><circle cx="110.7" cy="16.9" r="3.8" fill="#F472B6" opacity="0.45"/></g>
<g opacity="0.267" filter="url(#softGlow)"><path d="M 139.1,1004.6 L 196.7,1004.6 L 196.7,1048.7 L 197.2,1048.7 L 197.2,915.3 " fill="none" stroke="url(#strokeB)" stroke-width="1.15" stroke-linecap="round" stroke-linejoin="round"/><circle cx="196.7" cy="1048.7" r="2.9" fill="#F472B6" opacity="0.45"/><circle cx="197.2" cy="915.3" r="3.9" fill="#F472B6" opacity="0.45"/><circle cx="196.7" cy="1004.6" r="3.0" fill="#F472B6" opacity="0.45"/></g>
<g opacity="0.267" filter="url(#softGlow)"><path d="M 54.8,599.4 L 126.3,599.4 L 126.3,919.5 L 207.3,919.5 L 207.3,919.3 " fill="none" stroke="url(#strokeB)" stroke-width="2.10" stroke-linecap="round" stroke-linejoin="round"/><circle cx="207.3" cy="919.3" r="2.5" fill="#F472B6" opacity="0.45"/><circle cx="54.8" cy="599.4" r="3.4" fill="#F472B6" opacity="0.45"/><circle cx="207.3" cy="919.5" r="3.3" fill="#F472B6" opacity="0.45"/></g>
<g opacity="0.267" filter="url(#softGlow)"><path d="M 271.8,129.5 L 67.4,129.5 L 67.4,149.5 L 1023.0,149.5 L 1023.0,1039.6 " fill="none" stroke="url(#strokeB)" stroke-width="1.51" stroke-linecap="round" stroke-linejoin="round"/><circle cx="1023.0" cy="1039.6" r="2.1" fill="#F472B6" opacity="0.45"/><circle cx="67.4" cy="149.5" r="4.1" fill="#F472B6" opacity="0.45"/><circle cx="271.8" cy="129.5" r="2.2" fill="#F472B6" opacity="0.45"/></g>
<g opacity="0.267" filter="url(#softGlow)"><path d="M 1850.9,896.3 L 1754.9,896.3 L 1754.9,973.4 L 1830.1,973.4 L 1830.1,1077.3 " fill="none" stroke="url(#strokeB)" stroke-width="1.69" stroke-linecap="round" stroke-linejoin="round"/><circle cx="1754.9" cy="896.3" r="3.0" fill="#F472B6" opacity="0.45"/><circle cx="1754.9" cy="973.4" r="4.1" fill="#F472B6" opacity="0.45"/><circle cx="1830.1" cy="973.4" r="4.0" fill="#F472B6" opacity="0.45"/></g>
<g opacity="0.267" filter="url(#softGlow)"><path d="M 78.9,1076.6 L 144.2,1076.6 L 144.2,885.0 L 1822.9,885.0 L 1822.9,174.0 " fill="none" stroke="url(#strokeB)" stroke-width="1.74" stroke-linecap="round" stroke-linejoin="round"/><circle cx="1822.9" cy="174.0" r="2.1" fill="#F472B6" opacity="0.45"/><circle cx="1822.9" cy="885.0" r="2.6" fill="#F472B6" opacity="0.45"/><circle cx="78.9" cy="1076.6" r="3.2" fill="#F472B6" opacity="0.45"/></g>
<g opacity="0.267" filter="url(#softGlow)"><path d="M 119.9,856.5 L 710.1,856.5 L 710.1,103.9 L 130.2,103.9 L 130.2,62.6 " fill="none" stroke="url(#strokeB)" stroke-width="1.16" stroke-linecap="round" stroke-linejoin="round"/><circle cx="130.2" cy="103.9" r="3.6" fill="#F472B6" opacity="0.45"/><circle cx="710.1" cy="856.5" r="3.5" fill="#F472B6" opacity="0.45"/><circle cx="130.2" cy="62.6" r="2.3" fill="#F472B6" opacity="0.45"/></g>
<g opacity="0.267" filter="url(#softGlow)"><path d="M 1710.4,16.5 L 1704.7,16.5 L 1704.7,138.5 L 1807.7,138.5 L 1807.7,13.4 " fill="none" stroke="url(#strokeB)" stroke-width="1.77" stroke-linecap="round" stroke-linejoin="round"/><circle cx="1807.7" cy="138.5" r="3.7" fill="#F472B6" opacity="0.45"/><circle cx="1704.7" cy="16.5" r="3.8" fill="#F472B6" opacity="0.45"/><circle cx="1807.7" cy="13.4" r="2.8" fill="#F472B6" opacity="0.45"/></g>
<g opacity="0.267" filter="url(#softGlow)"><path d="M 1844.6,62.8 L 72.4,62.8 L 72.4,33.6 L 1885.0,33.6 L 1885.0,246.3 " fill="none" stroke="url(#strokeB)" stroke-width="2.03" stroke-linecap="round" stroke-linejoin="round"/><circle cx="72.4" cy="33.6" r="3.4" fill="#F472B6" opacity="0.45"/><circle cx="1844.6" cy="62.8" r="3.3" fill="#F472B6" opacity="0.45"/><circle cx="1885.0" cy="33.6" r="2.4" fill="#F472B6" opacity="0.45"/></g>
<g opacity="0.267" filter="url(#softGlow)"><path d="M 822.9,50.4 L 16.4,50.4 L 16.4,983.7 L 20.2,983.7 L 20.2,134.4 " fill="none" stroke="url(#strokeB)" stroke-width="1.29" stroke-linecap="round" stroke-linejoin="round"/><circle cx="16.4" cy="50.4" r="3.7" fill="#F472B6" opacity="0.45"/><circle cx="20.2" cy="134.4" r="2.3" fill="#F472B6" opacity="0.45"/><circle cx="20.2" cy="983.7" r="3.7" fill="#F472B6" opacity="0.45"/></g>
<g opacity="0.267" filter="url(#softGlow)"><path d="M 71.4,878.7 L 63.4,878.7 L 63.4,666.4 L 214.5,666.4 L 214.5,935.9 " fill="none" stroke="url(#strokeB)" stroke-width="1.98" stroke-linecap="round" stroke-linejoin="round"/><circle cx="214.5" cy="935.9" r="3.0" fill="#F472B6" opacity="0.45"/><circle cx="63.4" cy="666.4" r="3.7" fill="#F472B6" opacity="0.45"/><circle cx="71.4" cy="878.7" r="4.1" fill="#F472B6" opacity="0.45"/></g>
<g opacity="0.267" filter="url(#softGlow)"><path d="M 130.6,94.3 L 159.4,94.3 L 159.4,11.0 L 1760.0,11.0 L 1760.0,155.3 " fill="none" stroke="url(#strokeB)" stroke-width="1.48" stroke-linecap="round" stroke-linejoin="round"/><circle cx="130.6" cy="94.3" r="2.1" fill="#F472B6" opacity="0.45"/><circle cx="159.4" cy="11.0" r="3.4" fill="#F472B6" opacity="0.45"/><circle cx="159.4" cy="94.3" r="3.2" fill="#F472B6" opacity="0.45"/></g>
<g opacity="0.267" filter="url(#softGlow)"><path d="M 1827.6,960.7 L 213.1,960.7 L 213.1,479.4 L 1312.3,479.4 L 1312.3,43.5 " fill="none" stroke="url(#strokeB)" stroke-width="2.00" stroke-linecap="round" stroke-linejoin="round"/><circle cx="1312.3" cy="479.4" r="2.8" fill="#F472B6" opacity="0.45"/><circle cx="1827.6" cy="960.7" r="3.7" fill="#F472B6" opacity="0.45"/><circle cx="1312.3" cy="43.5" r="3.8" fill="#F472B6" opacity="0.45"/></g>
<g opacity="0.267" filter="url(#softGlow)"><path d="M 232.1,1018.0 L 54.1,1018.0 L 54.1,944.0 L 1772.5,944.0 L 1772.5,1001.2 " fill="none" stroke="url(#strokeB)" stroke-width="1.86" stroke-linecap="round" stroke-linejoin="round"/><circle cx="1772.5" cy="944.0" r="2.2" fill="#F472B6" opacity="0.45"/><circle cx="1772.5" cy="1001.2" r="2.6" fill="#F472B6" opacity="0.45"/><circle cx="54.1" cy="1018.0" r="2.9" fill="#F472B6" opacity="0.45"/></g>
<g opacity="0.267" filter="url(#softGlow)"><path d="M 1880.7,181.5 L 1705.3,181.5 L 1705.3,4.6 L 150.3,4.6 L 150.3,298.0 " fill="none" stroke="url(#strokeB)" stroke-width="1.82" stroke-linecap="round" stroke-linejoin="round"/><circle cx="1705.3" cy="181.5" r="3.8" fill="#F472B6" opacity="0.45"/><circle cx="1705.3" cy="4.6" r="3.5" fill="#F472B6" opacity="0.45"/><circle cx="150.3" cy="298.0" r="2.6" fill="#F472B6" opacity="0.45"/></g>
<g opacity="0.267" filter="url(#softGlow)"><path d="M 119.3,8.5 L 1243.2,8.5 L 1243.2,1045.9 L 106.5,1045.9 L 106.5,398.5 " fill="none" stroke="url(#strokeB)" stroke-width="1.76" stroke-linecap="round" stroke-linejoin="round"/><circle cx="106.5" cy="398.5" r="4.2" fill="#F472B6" opacity="0.45"/><circle cx="1243.2" cy="8.5" r="2.3" fill="#F472B6" opacity="0.45"/><circle cx="1243.2" cy="1045.9" r="2.4" fill="#F472B6" opacity="0.45"/></g>
<g opacity="0.267" filter="url(#softGlow)"><path d="M 1761.7,85.5 L 80.2,85.5 L 80.2,116.0 L 1913.8,116.0 L 1913.8,994.7 " fill="none" stroke="url(#strokeB)" stroke-width="1.95" stroke-linecap="round" stroke-linejoin="round"/><circle cx="1761.7" cy="85.5" r="3.3" fill="#F472B6" opacity="0.45"/><circle cx="1913.8" cy="116.0" r="4.1" fill="#F472B6" opacity="0.45"/><circle cx="80.2" cy="85.5" r="2.2" fill="#F472B6" opacity="0.45"/></g>
<g opacity="0.267" filter="url(#softGlow)"><path d="M 59.0,69.6 L 1448.1,69.6 L 1448.1,134.7 L 0.2,134.7 L 0.2,732.7 " fill="none" stroke="url(#strokeB)" stroke-width="1.56" stroke-linecap="round" stroke-linejoin="round"/><circle cx="0.2" cy="134.7" r="2.2" fill="#F472B6" opacity="0.45"/><circle cx="59.0" cy="69.6" r="4.1" fill="#F472B6" opacity="0.45"/><circle cx="0.2" cy="732.7" r="3.5" fill="#F472B6" opacity="0.45"/></g>
<g opacity="0.267" filter="url(#softGlow)"><path d="M 1854.5,163.7 L 1786.8,163.7 L 1786.8,25.4 L 146.3,25.4 L 146.3,893.5 " fill="none" stroke="url(#strokeB)" stroke-width="1.83" stroke-linecap="round" stroke-linejoin="round"/><circle cx="1786.8" cy="163.7" r="3.0" fill="#F472B6" opacity="0.45"/><circle cx="146.3" cy="25.4" r="2.8" fill="#F472B6" opacity="0.45"/><circle cx="146.3" cy="893.5" r="3.6" fill="#F472B6" opacity="0.45"/></g>

<g opacity="0.674" filter="url(#hardGlow)">
  <circle cx="86.7" cy="99.8" r="44.1" fill="#0A1224" opacity="0.65"/>
  <circle cx="86.7" cy="99.8" r="44.1" fill="none" stroke="url(#strokeA)" stroke-width="3.5" opacity="0.85"/>
  <circle cx="86.7" cy="99.8" r="37.9" fill="none" stroke="#2DD4BF" stroke-width="1.5" opacity="0.35"/>
  <polygon points="112.7,117.9 84.1,131.5 58.0,113.4 60.6,81.8 89.3,68.2 115.3,86.3" fill="none" stroke="url(#strokeB)" stroke-width="1.2" opacity="0.65"/>
  <polygon points="93.1,108.9 75.6,100.9 91.3,89.8" fill="#2DD4BF" opacity="0.22" filter="url(#softGlow)"/>
</g>


<g opacity="0.471" filter="url(#hardGlow)">
  <circle cx="88.1" cy="110.6" r="17.7" fill="#0A1224" opacity="0.65"/>
  <circle cx="88.1" cy="110.6" r="17.7" fill="none" stroke="url(#strokeA)" stroke-width="2.0" opacity="0.85"/>
  <circle cx="88.1" cy="110.6" r="15.2" fill="none" stroke="#F472B6" stroke-width="1.5" opacity="0.35"/>
  <polygon points="91.7,98.4 100.5,107.6 97.0,119.8 84.6,122.9 75.8,113.7 79.3,101.5" fill="none" stroke="url(#strokeB)" stroke-width="1.2" opacity="0.65"/>
  <polygon points="90.8,107.0 89.9,114.7 83.7,110.2" fill="#F472B6" opacity="0.22" filter="url(#softGlow)"/>
</g>


<g opacity="0.835" filter="url(#hardGlow)">
  <circle cx="1911.9" cy="920.3" r="46.0" fill="#0A1224" opacity="0.65"/>
  <circle cx="1911.9" cy="920.3" r="46.0" fill="none" stroke="url(#strokeA)" stroke-width="3.7" opacity="0.85"/>
  <circle cx="1911.9" cy="920.3" r="39.6" fill="none" stroke="#2DD4BF" stroke-width="1.5" opacity="0.35"/>
  <polygon points="1881.1,932.7 1885.8,899.9 1916.5,887.5 1942.6,908.0 1938.0,940.8 1907.2,953.1" fill="none" stroke="url(#strokeB)" stroke-width="1.2" opacity="0.65"/>
  <polygon points="1900.3,920.7 1917.3,910.1 1918.0,930.2" fill="#2DD4BF" opacity="0.22" filter="url(#softGlow)"/>
</g>


<g opacity="0.574" filter="url(#hardGlow)">
  <circle cx="1849.5" cy="892.6" r="20.0" fill="#0A1224" opacity="0.65"/>
  <circle cx="1849.5" cy="892.6" r="20.0" fill="none" stroke="url(#strokeA)" stroke-width="2.0" opacity="0.85"/>
  <circle cx="1849.5" cy="892.6" r="17.2" fill="none" stroke="#F472B6" stroke-width="1.5" opacity="0.35"/>
  <polygon points="1861.3,900.9 1848.3,906.9 1836.5,898.7 1837.8,884.4 1850.8,878.3 1862.5,886.6" fill="none" stroke="url(#strokeB)" stroke-width="1.2" opacity="0.65"/>
  
</g>


<g opacity="0.434" filter="url(#hardGlow)">
  <circle cx="1838.7" cy="907.5" r="20.6" fill="#0A1224" opacity="0.65"/>
  <circle cx="1838.7" cy="907.5" r="20.6" fill="none" stroke="url(#strokeA)" stroke-width="2.0" opacity="0.85"/>
  <circle cx="1838.7" cy="907.5" r="17.7" fill="none" stroke="#F472B6" stroke-width="1.5" opacity="0.35"/>
  <polygon points="1831.2,920.3 1823.9,907.4 1831.4,894.7 1846.3,894.8 1853.5,907.7 1846.0,920.4" fill="none" stroke="url(#strokeB)" stroke-width="1.2" opacity="0.65"/>
  <polygon points="1834.7,910.8 1837.9,902.4 1843.6,909.4" fill="#F472B6" opacity="0.22" filter="url(#softGlow)"/>
</g>


<g opacity="0.703" filter="url(#hardGlow)">
  <circle cx="1390.5" cy="120.9" r="65.4" fill="#0A1224" opacity="0.65"/>
  <circle cx="1390.5" cy="120.9" r="65.4" fill="none" stroke="url(#strokeA)" stroke-width="5.2" opacity="0.85"/>
  <circle cx="1390.5" cy="120.9" r="56.2" fill="none" stroke="#2DD4BF" stroke-width="2.0" opacity="0.35"/>
  <polygon points="1388.2,167.9 1348.6,142.3 1351.0,95.3 1392.9,73.9 1432.4,99.4 1430.1,146.4" fill="none" stroke="url(#strokeB)" stroke-width="1.6" opacity="0.65"/>
  <polygon points="1384.1,136.1 1380.6,107.7 1406.9,118.8" fill="#2DD4BF" opacity="0.22" filter="url(#softGlow)"/>
</g>


<g opacity="0.427" filter="url(#hardGlow)">
  <circle cx="1388.1" cy="138.1" r="33.5" fill="#0A1224" opacity="0.65"/>
  <circle cx="1388.1" cy="138.1" r="33.5" fill="none" stroke="url(#strokeA)" stroke-width="2.7" opacity="0.85"/>
  <circle cx="1388.1" cy="138.1" r="28.8" fill="none" stroke="#F472B6" stroke-width="1.5" opacity="0.35"/>
  <polygon points="1367.9,151.2 1366.7,127.1 1386.9,114.0 1408.4,125.0 1409.6,149.1 1389.3,162.2" fill="none" stroke="url(#strokeB)" stroke-width="1.2" opacity="0.65"/>
  <polygon points="1379.9,140.0 1390.6,130.1 1393.9,144.3" fill="#F472B6" opacity="0.22" filter="url(#softGlow)"/>
</g>


<g opacity="0.900" filter="url(#hardGlow)">
  <circle cx="1795.2" cy="1008.2" r="67.9" fill="#0A1224" opacity="0.65"/>
  <circle cx="1795.2" cy="1008.2" r="67.9" fill="none" stroke="url(#strokeA)" stroke-width="5.4" opacity="0.85"/>
  <circle cx="1795.2" cy="1008.2" r="58.4" fill="none" stroke="#2DD4BF" stroke-width="2.0" opacity="0.35"/>
  <polygon points="1826.9,970.9 1843.2,1017.0 1811.5,1054.2 1763.4,1045.4 1747.1,999.3 1778.8,962.1" fill="none" stroke="url(#strokeB)" stroke-width="1.7" opacity="0.65"/>
  <polygon points="1810.0,999.7 1795.0,1025.3 1780.4,999.5" fill="#2DD4BF" opacity="0.22" filter="url(#softGlow)"/>
</g>


<g opacity="0.481" filter="url(#hardGlow)">
  <circle cx="1790.1" cy="1039.6" r="24.0" fill="#0A1224" opacity="0.65"/>
  <circle cx="1790.1" cy="1039.6" r="24.0" fill="none" stroke="url(#strokeA)" stroke-width="2.0" opacity="0.85"/>
  <circle cx="1790.1" cy="1039.6" r="20.6" fill="none" stroke="#F472B6" stroke-width="1.5" opacity="0.35"/>
  <polygon points="1801.5,1052.6 1784.6,1056.0 1773.2,1043.1 1778.6,1026.7 1795.6,1023.3 1807.0,1036.2" fill="none" stroke="url(#strokeB)" stroke-width="1.2" opacity="0.65"/>
  
</g>


<g opacity="0.551" filter="url(#hardGlow)">
  <circle cx="1802.4" cy="1079.2" r="23.9" fill="#0A1224" opacity="0.65"/>
  <circle cx="1802.4" cy="1079.2" r="23.9" fill="none" stroke="url(#strokeA)" stroke-width="2.0" opacity="0.85"/>
  <circle cx="1802.4" cy="1079.2" r="20.6" fill="none" stroke="#F472B6" stroke-width="1.5" opacity="0.35"/>
  <polygon points="1810.6,1094.3 1793.4,1093.8 1785.2,1078.7 1794.2,1064.0 1811.4,1064.5 1819.6,1079.6" fill="none" stroke="url(#strokeB)" stroke-width="1.2" opacity="0.65"/>
  <polygon points="1803.3,1085.1 1796.8,1076.9 1807.1,1075.4" fill="#F472B6" opacity="0.22" filter="url(#softGlow)"/>
</g>


<g opacity="0.894" filter="url(#hardGlow)">
  <circle cx="1905.1" cy="38.8" r="51.9" fill="#0A1224" opacity="0.65"/>
  <circle cx="1905.1" cy="38.8" r="51.9" fill="none" stroke="url(#strokeA)" stroke-width="4.1" opacity="0.85"/>
  <circle cx="1905.1" cy="38.8" r="44.6" fill="none" stroke="#2DD4BF" stroke-width="1.6" opacity="0.35"/>
  <polygon points="1868.1,43.7 1882.3,9.2 1919.3,4.3 1942.1,33.9 1927.9,68.4 1890.9,73.3" fill="none" stroke="url(#strokeB)" stroke-width="1.3" opacity="0.65"/>
  <polygon points="1892.3,36.0 1913.9,29.1 1909.0,51.3" fill="#2DD4BF" opacity="0.22" filter="url(#softGlow)"/>
</g>


<g opacity="0.553" filter="url(#hardGlow)">
  <circle cx="1906.9" cy="86.1" r="19.2" fill="#0A1224" opacity="0.65"/>
  <circle cx="1906.9" cy="86.1" r="19.2" fill="none" stroke="url(#strokeA)" stroke-width="2.0" opacity="0.85"/>
  <circle cx="1906.9" cy="86.1" r="16.5" fill="none" stroke="#F472B6" stroke-width="1.5" opacity="0.35"/>
  <polygon points="1909.9,99.7 1896.7,95.4 1893.8,81.9 1904.0,72.6 1917.2,76.8 1920.1,90.4" fill="none" stroke="url(#strokeB)" stroke-width="1.2" opacity="0.65"/>
  
</g>


<g opacity="0.598" filter="url(#hardGlow)">
  <circle cx="1949.2" cy="26.3" r="23.9" fill="#0A1224" opacity="0.65"/>
  <circle cx="1949.2" cy="26.3" r="23.9" fill="none" stroke="url(#strokeA)" stroke-width="2.0" opacity="0.85"/>
  <circle cx="1949.2" cy="26.3" r="20.6" fill="none" stroke="#F472B6" stroke-width="1.5" opacity="0.35"/>
  <polygon points="1932.1,27.7 1939.4,12.2 1956.5,10.7 1966.4,24.8 1959.1,40.4 1941.9,41.8" fill="none" stroke="url(#strokeB)" stroke-width="1.2" opacity="0.65"/>
  
</g>


<g opacity="0.289" transform="translate(445.1,72.8) rotate(4.9)" filter="url(#softGlow)">
  <rect x="-117.5" y="-87.6" width="235.1" height="175.1" rx="17.5" fill="#050A12" opacity="0.25"/>
  <rect x="-117.5" y="-87.6" width="235.1" height="175.1" rx="17.5" fill="none" stroke="url(#strokeA)" stroke-width="8.8" opacity="0.85"/>
  <rect x="-103.5" y="-73.5" width="207.1" height="147.1" rx="12.3" fill="none" stroke="#F472B6" stroke-width="3.5" opacity="0.35"/>
</g>


<g opacity="0.431" transform="translate(1839.5,559.2) rotate(-0.6)" filter="url(#softGlow)">
  <rect x="-104.9" y="-93.9" width="209.8" height="187.8" rx="18.8" fill="#050A12" opacity="0.25"/>
  <rect x="-104.9" y="-93.9" width="209.8" height="187.8" rx="18.8" fill="none" stroke="url(#strokeA)" stroke-width="9.4" opacity="0.85"/>
  <rect x="-89.9" y="-78.9" width="179.8" height="157.8" rx="13.1" fill="none" stroke="#2DD4BF" stroke-width="3.8" opacity="0.35"/>
</g>


<g opacity="0.334" transform="translate(79.4,990.2) rotate(-6.8)" filter="url(#softGlow)">
  <rect x="-114.8" y="-99.7" width="229.5" height="199.5" rx="19.9" fill="#050A12" opacity="0.25"/>
  <rect x="-114.8" y="-99.7" width="229.5" height="199.5" rx="19.9" fill="none" stroke="url(#strokeA)" stroke-width="10.0" opacity="0.85"/>
  <rect x="-98.8" y="-83.8" width="197.6" height="167.6" rx="14.0" fill="none" stroke="#2DD4BF" stroke-width="4.0" opacity="0.35"/>
</g>


<g opacity="0.347" transform="translate(1718.2,1045.5) rotate(-15.1)" filter="url(#softGlow)">
  <rect x="-39.0" y="-22.4" width="77.9" height="44.9" rx="13.7" fill="none" stroke="#F472B6" stroke-width="7.5" opacity="0.55"/>
  <rect x="-17.1" y="-11.2" width="77.9" height="44.9" rx="13.7" fill="none" stroke="url(#strokeA)" stroke-width="6.2" opacity="0.55"/>
</g>


<g opacity="0.271" transform="translate(1903.4,598.2) rotate(-6.6)" filter="url(#softGlow)">
  <rect x="-41.0" y="-23.6" width="82.0" height="47.3" rx="14.4" fill="none" stroke="#F472B6" stroke-width="7.9" opacity="0.55"/>
  <rect x="-18.0" y="-11.8" width="82.0" height="47.3" rx="14.4" fill="none" stroke="url(#strokeA)" stroke-width="6.6" opacity="0.55"/>
</g>


<g opacity="0.286" transform="translate(67.8,104.1) rotate(3.5)" filter="url(#softGlow)">
  <rect x="-56.2" y="-32.4" width="112.4" height="64.7" rx="19.8" fill="none" stroke="#F472B6" stroke-width="10.8" opacity="0.55"/>
  <rect x="-24.7" y="-16.2" width="112.4" height="64.7" rx="19.8" fill="none" stroke="url(#strokeA)" stroke-width="9.0" opacity="0.55"/>
</g>


<g opacity="0.228" transform="translate(1836.4,1040.6) rotate(6.2)" filter="url(#softGlow)">
  <rect x="-35.9" y="-20.7" width="71.7" height="41.3" rx="12.6" fill="none" stroke="#F472B6" stroke-width="6.9" opacity="0.55"/>
  <rect x="-15.8" y="-10.3" width="71.7" height="41.3" rx="12.6" fill="none" stroke="url(#strokeA)" stroke-width="5.7" opacity="0.55"/>
</g>


<g opacity="0.254" transform="translate(1798.9,969.1) rotate(-7.3)" filter="url(#softGlow)">
  <rect x="-36.5" y="-21.0" width="73.0" height="42.1" rx="12.8" fill="none" stroke="#F472B6" stroke-width="7.0" opacity="0.55"/>
  <rect x="-16.1" y="-10.5" width="73.0" height="42.1" rx="12.8" fill="none" stroke="url(#strokeA)" stroke-width="5.8" opacity="0.55"/>
</g>


<g opacity="0.302" transform="translate(1872.3,461.4) rotate(6.5)" filter="url(#softGlow)">
  <rect x="-48.5" y="-28.0" width="97.1" height="55.9" rx="17.1" fill="none" stroke="#2DD4BF" stroke-width="9.3" opacity="0.55"/>
  <rect x="-21.4" y="-14.0" width="97.1" height="55.9" rx="17.1" fill="none" stroke="url(#strokeA)" stroke-width="7.8" opacity="0.55"/>
</g>


<g opacity="0.181">
  <line x1="62.7" y1="893.4" x2="62.7" y2="965.1" stroke="#F472B6" stroke-width="2.05" opacity="0.45"/>
  <rect x="59.5" y="941.3" width="6.3" height="18.9" rx="2.1" fill="#0B1020" opacity="0.55" stroke="url(#strokeA)" stroke-width="1.2"/>
</g>

<g opacity="0.181">
  <line x1="48.0" y1="859.5" x2="48.0" y2="973.5" stroke="#F472B6" stroke-width="1.25" opacity="0.45"/>
  <rect x="43.3" y="924.5" width="9.5" height="52.4" rx="3.2" fill="#0B1020" opacity="0.55" stroke="url(#strokeA)" stroke-width="1.2"/>
</g>

<g opacity="0.181">
  <line x1="1699.6" y1="886.1" x2="1699.6" y2="966.9" stroke="#F472B6" stroke-width="2.01" opacity="0.45"/>
  <rect x="1694.7" y="924.8" width="9.8" height="51.8" rx="3.3" fill="#0B1020" opacity="0.55" stroke="url(#strokeA)" stroke-width="1.2"/>
</g>

<g opacity="0.181">
  <line x1="286.3" y1="879.4" x2="286.3" y2="968.6" stroke="#F472B6" stroke-width="1.20" opacity="0.45"/>
  <rect x="281.9" y="927.7" width="8.8" height="46.1" rx="2.9" fill="#0B1020" opacity="0.55" stroke="url(#strokeA)" stroke-width="1.2"/>
</g>
<circle cx="147.0" cy="1012.7" r="2.9" fill="#2DD4BF" opacity="0.24" filter="url(#softGlow)"/>
<circle cx="1813.0" cy="893.5" r="2.7" fill="#2DD4BF" opacity="0.13" filter="url(#softGlow)"/>
<circle cx="1786.4" cy="77.3" r="2.7" fill="#2DD4BF" opacity="0.20" filter="url(#softGlow)"/>
<circle cx="170.8" cy="1056.5" r="2.4" fill="#2DD4BF" opacity="0.17" filter="url(#softGlow)"/>
<circle cx="130.0" cy="874.0" r="1.8" fill="#2DD4BF" opacity="0.15" filter="url(#softGlow)"/>
<circle cx="17.8" cy="1057.8" r="1.6" fill="#2DD4BF" opacity="0.15" filter="url(#softGlow)"/>
<circle cx="109.8" cy="332.7" r="2.1" fill="#2DD4BF" opacity="0.20" filter="url(#softGlow)"/>
<circle cx="36.4" cy="878.7" r="1.8" fill="#2DD4BF" opacity="0.13" filter="url(#softGlow)"/>
<circle cx="80.9" cy="23.6" r="2.0" fill="#2DD4BF" opacity="0.24" filter="url(#softGlow)"/>
<circle cx="38.6" cy="966.2" r="2.2" fill="#2DD4BF" opacity="0.15" filter="url(#softGlow)"/>
<circle cx="1879.8" cy="211.2" r="1.9" fill="#2DD4BF" opacity="0.15" filter="url(#softGlow)"/>
<circle cx="1760.9" cy="883.8" r="3.2" fill="#2DD4BF" opacity="0.19" filter="url(#softGlow)"/>
<circle cx="1886.9" cy="997.4" r="2.0" fill="#2DD4BF" opacity="0.21" filter="url(#softGlow)"/>
<circle cx="1125.9" cy="23.1" r="1.4" fill="#2DD4BF" opacity="0.14" filter="url(#softGlow)"/>
<circle cx="83.5" cy="981.0" r="1.3" fill="#2DD4BF" opacity="0.19" filter="url(#softGlow)"/>
<circle cx="1860.0" cy="1026.2" r="1.4" fill="#2DD4BF" opacity="0.21" filter="url(#softGlow)"/>
<circle cx="77.4" cy="1065.0" r="2.7" fill="#2DD4BF" opacity="0.21" filter="url(#softGlow)"/>
<circle cx="168.5" cy="34.2" r="2.9" fill="#2DD4BF" opacity="0.17" filter="url(#softGlow)"/>
<circle cx="1723.1" cy="894.7" r="2.5" fill="#2DD4BF" opacity="0.27" filter="url(#softGlow)"/>
<circle cx="1911.5" cy="449.7" r="1.7" fill="#2DD4BF" opacity="0.22" filter="url(#softGlow)"/>
<circle cx="1894.8" cy="925.8" r="2.8" fill="#2DD4BF" opacity="0.26" filter="url(#softGlow)"/>
<circle cx="1864.7" cy="1020.2" r="2.8" fill="#2DD4BF" opacity="0.22" filter="url(#softGlow)"/>
<circle cx="1354.6" cy="99.5" r="3.0" fill="#2DD4BF" opacity="0.26" filter="url(#softGlow)"/>
<circle cx="26.6" cy="69.0" r="2.7" fill="#2DD4BF" opacity="0.12" filter="url(#softGlow)"/>
<circle cx="17.0" cy="892.8" r="2.4" fill="#2DD4BF" opacity="0.21" filter="url(#softGlow)"/>
</svg>