<svg xmlns="http://www.w3.org/2000/svg" width="1920" height="1080" viewBox="0 0 1920 1080" preserveAspectRatio="xMidYMid slice">
<defs>
  <linearGradient id="g0" x1="0" y1="0" x2="1" y2="1">
    <stop offset="0" stop-color="#0A0F1E"/>
    <stop offset="0.55" stop-color="#00FFA3" stop-opacity="0.9"/>
    <stop offset="1" stop-color="#050A12"/>
  </linearGradient>
  <radialGradient id="g1" cx="20%" cy="15%" r="70%">
    <stop offset="0" stop-color="#14C2FF" stop-opacity="0.38"/>
    <stop offset="0.6" stop-color="#14C2FF" stop-opacity="0.08"/>
    <stop offset="1" stop-color="#14C2FF" stop-opacity="0"/>
  </radialGradient>
  <radialGradient id="g2" cx="85%" cy="80%" r="75%">
    <stop offset="0" stop-color="#14C2FF" stop-opacity="0.28"/>
    <stop offset="0.65" stop-color="#14C2FF" stop-opacity="0.06"/>
    <stop offset="1" stop-color="#14C2FF" stop-opacity="0"/>
  </radialGradient>
  <filter id="softGlow" x="-30%" y="-30%" width="160%" height="160%">
    <feGaussianBlur stdDeviation="12" result="b"/>
    <feMerge>
      <feMergeNode in="b"/>
      <feMergeNode in="SourceGraphic"/>
    </feMerge>
  </filter>
  <filter id="hardGlow" x="-40%" y="-40%" width="180%" height="180%">
    <feGaussianBlur stdDeviation="6" result="b"/>
    <feColorMatrix in="b" type="matrix" values="1 0 0 0 0  0 1 0 0 0  0 0 1 0 0  0 0 0 18 -7" result="c"/>
    <feMerge>
      <feMergeNode in="c"/>
      <feMergeNode in="SourceGraphic"/>
    </feMerge>
  </filter>
  <linearGradient id="strokeA" x1="0" y1="0" x2="1" y2="0">
    <stop offset="0" stop-color="#14C2FF" stop-opacity="0.9"/>
    <stop offset="0.5" stop-color="#FFFFFF" stop-opacity="0.25"/>
    <stop offset="1" stop-color="#14C2FF" stop-opacity="0.7"/>
  </linearGradient>
  <linearGradient id="strokeB" x1="0" y1="0" x2="0" y2="1">
    <stop offset="0" stop-color="#FFFFFF" stop-opacity="0.18"/>
    <stop offset="1" stop-color="#14C2FF" stop-opacity="0.55"/>
  </linearGradient>
</defs>
<rect x="0" y="0" width="1920" height="1080" fill="url(#g0)"/>
<rect x="0" y="0" width="1920" height="1080" fill="url(#g1)"/>
<rect x="0" y="0" width="1920" height="1080" fill="url(#g2)"/>


<defs>
  <radialGradient id="vign" cx="0.5000" cy="0.5093" r="0.85">
    <stop offset="0" stop-color="#000000" stop-opacity="0"/>
    <stop offset="0.55" stop-color="#000000" stop-opacity="0.217"/>
    <stop offset="1" stop-color="#000000" stop-opacity="0.620"/>
  </radialGradient>
</defs>
<rect x="0" y="0" width="1920" height="1080" fill="url(#vign)"/>

<g opacity="0.276" filter="url(#softGlow)"><path d="M 1829.4,986.1 L 186.6,986.1 L 186.6,898.3 L 184.5,898.3 L 184.5,184.1 " fill="none" stroke="url(#strokeB)" stroke-width="1.31" stroke-linecap="round" stroke-linejoin="round"/><circle cx="184.5" cy="898.3" r="3.1" fill="#FF4D8D" opacity="0.45"/><circle cx="186.6" cy="986.1" r="2.1" fill="#FF4D8D" opacity="0.45"/><circle cx="186.6" cy="898.3" r="2.2" fill="#FF4D8D" opacity="0.45"/></g>
<g opacity="0.276" filter="url(#softGlow)"><path d="M 1874.7,814.5 L 14.1,814.5 L 14.1,984.2 L 1714.8,984.2 L 1714.8,53.0 " fill="none" stroke="url(#strokeB)" stroke-width="1.57" stroke-linecap="round" stroke-linejoin="round"/><circle cx="1874.7" cy="814.5" r="3.6" fill="#FF4D8D" opacity="0.45"/><circle cx="1714.8" cy="53.0" r="3.2" fill="#FF4D8D" opacity="0.45"/><circle cx="14.1" cy="814.5" r="3.8" fill="#FF4D8D" opacity="0.45"/></g>
<g opacity="0.276" filter="url(#softGlow)"><path d="M 1916.5,136.0 L 131.3,136.0 L 131.3,900.0 L 1826.5,900.0 L 1826.5,1023.8 " fill="none" stroke="url(#strokeB)" stroke-width="1.92" stroke-linecap="round" stroke-linejoin="round"/><circle cx="1826.5" cy="1023.8" r="3.6" fill="#FF4D8D" opacity="0.45"/><circle cx="1826.5" cy="900.0" r="4.2" fill="#FF4D8D" opacity="0.45"/><circle cx="131.3" cy="136.0" r="4.0" fill="#FF4D8D" opacity="0.45"/></g>
<g opacity="0.276" filter="url(#softGlow)"><path d="M 1917.4,59.1 L 99.0,59.1 L 99.0,799.0 L 1415.6,799.0 L 1415.6,81.3 " fill="none" stroke="url(#strokeB)" stroke-width="1.37" stroke-linecap="round" stroke-linejoin="round"/><circle cx="1415.6" cy="81.3" r="2.7" fill="#FF4D8D" opacity="0.45"/><circle cx="99.0" cy="59.1" r="2.7" fill="#FF4D8D" opacity="0.45"/><circle cx="1917.4" cy="59.1" r="4.1" fill="#FF4D8D" opacity="0.45"/></g>
<g opacity="0.276" filter="url(#softGlow)"><path d="M 92.3,1008.1 L 160.1,1008.1 L 160.1,66.3 L 314.3,66.3 L 314.3,95.8 " fill="none" stroke="url(#strokeB)" stroke-width="1.44" stroke-linecap="round" stroke-linejoin="round"/><circle cx="92.3" cy="1008.1" r="3.4" fill="#FF4D8D" opacity="0.45"/><circle cx="160.1" cy="66.3" r="2.5" fill="#FF4D8D" opacity="0.45"/><circle cx="314.3" cy="95.8" r="4.2" fill="#FF4D8D" opacity="0.45"/></g>
<g opacity="0.276" filter="url(#softGlow)"><path d="M 1858.6,392.5 L 1752.8,392.5 L 1752.8,43.4 L 151.9,43.4 L 151.9,1013.1 " fill="none" stroke="url(#strokeB)" stroke-width="1.72" stroke-linecap="round" stroke-linejoin="round"/><circle cx="1752.8" cy="43.4" r="2.4" fill="#FF4D8D" opacity="0.45"/><circle cx="151.9" cy="43.4" r="3.5" fill="#FF4D8D" opacity="0.45"/><circle cx="1752.8" cy="392.5" r="3.3" fill="#FF4D8D" opacity="0.45"/></g>
<g opacity="0.276" filter="url(#softGlow)"><path d="M 60.5,953.3 L 1878.4,953.3 L 1878.4,146.0 L 179.7,146.0 L 179.7,171.9 " fill="none" stroke="url(#strokeB)" stroke-width="1.85" stroke-linecap="round" stroke-linejoin="round"/><circle cx="179.7" cy="171.9" r="2.1" fill="#FF4D8D" opacity="0.45"/><circle cx="179.7" cy="146.0" r="3.2" fill="#FF4D8D" opacity="0.45"/><circle cx="1878.4" cy="146.0" r="2.5" fill="#FF4D8D" opacity="0.45"/></g>
<g opacity="0.276" filter="url(#softGlow)"><path d="M 96.5,908.0 L 186.1,908.0 L 186.1,995.0 L 1825.2,995.0 L 1825.2,41.4 " fill="none" stroke="url(#strokeB)" stroke-width="1.66" stroke-linecap="round" stroke-linejoin="round"/><circle cx="186.1" cy="908.0" r="2.9" fill="#FF4D8D" opacity="0.45"/><circle cx="186.1" cy="995.0" r="3.5" fill="#FF4D8D" opacity="0.45"/><circle cx="1825.2" cy="41.4" r="2.4" fill="#FF4D8D" opacity="0.45"/></g>
<g opacity="0.276" filter="url(#softGlow)"><path d="M 26.0,737.9 L 175.9,737.9 L 175.9,137.0 L 210.6,137.0 L 210.6,1076.2 " fill="none" stroke="url(#strokeB)" stroke-width="1.73" stroke-linecap="round" stroke-linejoin="round"/><circle cx="210.6" cy="137.0" r="2.4" fill="#FF4D8D" opacity="0.45"/><circle cx="26.0" cy="737.9" r="2.4" fill="#FF4D8D" opacity="0.45"/><circle cx="175.9" cy="137.0" r="2.2" fill="#FF4D8D" opacity="0.45"/></g>
<g opacity="0.276" filter="url(#softGlow)"><path d="M 1867.2,30.4 L 708.6,30.4 L 708.6,1042.6 L 1122.6,1042.6 L 1122.6,38.3 " fill="none" stroke="url(#strokeB)" stroke-width="1.40" stroke-linecap="round" stroke-linejoin="round"/><circle cx="1867.2" cy="30.4" r="3.7" fill="#FF4D8D" opacity="0.45"/><circle cx="708.6" cy="1042.6" r="3.7" fill="#FF4D8D" opacity="0.45"/><circle cx="1122.6" cy="38.3" r="4.0" fill="#FF4D8D" opacity="0.45"/></g>
<g opacity="0.276" filter="url(#softGlow)"><path d="M 1885.4,970.7 L 1903.6,970.7 L 1903.6,502.3 L 1787.6,502.3 L 1787.6,166.7 " fill="none" stroke="url(#strokeB)" stroke-width="2.07" stroke-linecap="round" stroke-linejoin="round"/><circle cx="1787.6" cy="502.3" r="2.5" fill="#FF4D8D" opacity="0.45"/><circle cx="1787.6" cy="166.7" r="3.5" fill="#FF4D8D" opacity="0.45"/><circle cx="1885.4" cy="970.7" r="3.1" fill="#FF4D8D" opacity="0.45"/></g>
<g opacity="0.276" filter="url(#softGlow)"><path d="M 32.7,925.0 L 113.1,925.0 L 113.1,156.8 L 1820.9,156.8 L 1820.9,975.4 " fill="none" stroke="url(#strokeB)" stroke-width="2.11" stroke-linecap="round" stroke-linejoin="round"/><circle cx="1820.9" cy="156.8" r="2.1" fill="#FF4D8D" opacity="0.45"/><circle cx="113.1" cy="925.0" r="2.5" fill="#FF4D8D" opacity="0.45"/><circle cx="1820.9" cy="975.4" r="3.7" fill="#FF4D8D" opacity="0.45"/></g>
<g opacity="0.276" filter="url(#softGlow)"><path d="M 1725.4,28.8 L 1918.8,28.8 L 1918.8,998.7 L 89.0,998.7 L 89.0,918.6 " fill="none" stroke="url(#strokeB)" stroke-width="2.19" stroke-linecap="round" stroke-linejoin="round"/><circle cx="1725.4" cy="28.8" r="2.8" fill="#FF4D8D" opacity="0.45"/><circle cx="89.0" cy="918.6" r="2.2" fill="#FF4D8D" opacity="0.45"/><circle cx="1918.8" cy="998.7" r="3.6" fill="#FF4D8D" opacity="0.45"/></g>
<g opacity="0.276" filter="url(#softGlow)"><path d="M 35.6,207.6 L 1869.7,207.6 L 1869.7,1059.2 L 27.7,1059.2 L 27.7,133.6 " fill="none" stroke="url(#strokeB)" stroke-width="1.23" stroke-linecap="round" stroke-linejoin="round"/><circle cx="35.6" cy="207.6" r="3.0" fill="#FF4D8D" opacity="0.45"/><circle cx="1869.7" cy="1059.2" r="3.8" fill="#FF4D8D" opacity="0.45"/><circle cx="27.7" cy="1059.2" r="2.9" fill="#FF4D8D" opacity="0.45"/></g>
<g opacity="0.276" filter="url(#softGlow)"><path d="M 39.8,155.3 L 1849.1,155.3 L 1849.1,164.7 L 36.1,164.7 L 36.1,141.1 " fill="none" stroke="url(#strokeB)" stroke-width="1.12" stroke-linecap="round" stroke-linejoin="round"/><circle cx="1849.1" cy="155.3" r="2.3" fill="#FF4D8D" opacity="0.45"/><circle cx="1849.1" cy="164.7" r="3.4" fill="#FF4D8D" opacity="0.45"/><circle cx="39.8" cy="155.3" r="2.9" fill="#FF4D8D" opacity="0.45"/></g>
<g opacity="0.276" filter="url(#softGlow)"><path d="M 186.6,118.6 L 1758.8,118.6 L 1758.8,136.8 L 149.6,136.8 L 149.6,948.6 " fill="none" stroke="url(#strokeB)" stroke-width="1.63" stroke-linecap="round" stroke-linejoin="round"/><circle cx="149.6" cy="948.6" r="3.1" fill="#FF4D8D" opacity="0.45"/><circle cx="1758.8" cy="118.6" r="4.1" fill="#FF4D8D" opacity="0.45"/><circle cx="149.6" cy="136.8" r="3.6" fill="#FF4D8D" opacity="0.45"/></g>
<g opacity="0.276" filter="url(#softGlow)"><path d="M 73.9,187.9 L 1238.8,187.9 L 1238.8,105.1 L 1785.5,105.1 L 1785.5,105.4 " fill="none" stroke="url(#strokeB)" stroke-width="1.19" stroke-linecap="round" stroke-linejoin="round"/><circle cx="1238.8" cy="105.1" r="2.2" fill="#FF4D8D" opacity="0.45"/><circle cx="1238.8" cy="187.9" r="3.9" fill="#FF4D8D" opacity="0.45"/><circle cx="1785.5" cy="105.1" r="3.9" fill="#FF4D8D" opacity="0.45"/></g>
<g opacity="0.276" filter="url(#softGlow)"><path d="M 110.2,1031.7 L 1763.8,1031.7 L 1763.8,871.3 L 72.0,871.3 L 72.0,17.5 " fill="none" stroke="url(#strokeB)" stroke-width="1.45" stroke-linecap="round" stroke-linejoin="round"/><circle cx="1763.8" cy="871.3" r="2.6" fill="#FF4D8D" opacity="0.45"/><circle cx="110.2" cy="1031.7" r="3.0" fill="#FF4D8D" opacity="0.45"/><circle cx="72.0" cy="871.3" r="3.2" fill="#FF4D8D" opacity="0.45"/></g>
<g opacity="0.276" filter="url(#softGlow)"><path d="M 1737.3,159.7 L 219.1,159.7 L 219.1,13.9 L 134.9,13.9 L 134.9,991.1 " fill="none" stroke="url(#strokeB)" stroke-width="1.98" stroke-linecap="round" stroke-linejoin="round"/><circle cx="219.1" cy="13.9" r="3.6" fill="#FF4D8D" opacity="0.45"/><circle cx="1737.3" cy="159.7" r="4.1" fill="#FF4D8D" opacity="0.45"/><circle cx="134.9" cy="13.9" r="4.2" fill="#FF4D8D" opacity="0.45"/></g>

<g opacity="0.907" filter="url(#hardGlow)">
  <circle cx="1789.1" cy="987.3" r="47.4" fill="#0A1224" opacity="0.65"/>
  <circle cx="1789.1" cy="987.3" r="47.4" fill="none" stroke="url(#strokeA)" stroke-width="3.8" opacity="0.85"/>
  <circle cx="1789.1" cy="987.3" r="40.7" fill="none" stroke="#00FFA3" stroke-width="1.5" opacity="0.35"/>
  <polygon points="1810.7,1013.8 1777.0,1019.2 1755.5,992.7 1767.6,960.8 1801.3,955.4 1822.8,981.9" fill="none" stroke="url(#strokeB)" stroke-width="1.2" opacity="0.65"/>
  <polygon points="1793.1,998.6 1777.4,985.1 1797.0,978.3" fill="#00FFA3" opacity="0.22" filter="url(#softGlow)"/>
</g>


<g opacity="0.535" filter="url(#hardGlow)">
  <circle cx="1839.7" cy="1019.5" r="17.0" fill="#0A1224" opacity="0.65"/>
  <circle cx="1839.7" cy="1019.5" r="17.0" fill="none" stroke="url(#strokeA)" stroke-width="2.0" opacity="0.85"/>
  <circle cx="1839.7" cy="1019.5" r="14.6" fill="none" stroke="#FF4D8D" stroke-width="1.5" opacity="0.35"/>
  <polygon points="1835.1,1030.8 1827.6,1021.2 1832.2,1009.8 1844.3,1008.1 1851.8,1017.8 1847.2,1029.1" fill="none" stroke="url(#strokeB)" stroke-width="1.2" opacity="0.65"/>
  
</g>


<g opacity="0.405" filter="url(#hardGlow)">
  <circle cx="1854.2" cy="981.4" r="19.9" fill="#0A1224" opacity="0.65"/>
  <circle cx="1854.2" cy="981.4" r="19.9" fill="none" stroke="url(#strokeA)" stroke-width="2.0" opacity="0.85"/>
  <circle cx="1854.2" cy="981.4" r="17.1" fill="none" stroke="#FF4D8D" stroke-width="1.5" opacity="0.35"/>
  <polygon points="1868.4,979.3 1863.1,992.6 1849.0,994.7 1840.1,983.5 1845.3,970.2 1859.4,968.1" fill="none" stroke="url(#strokeB)" stroke-width="1.2" opacity="0.65"/>
  
</g>


<g opacity="0.707" filter="url(#hardGlow)">
  <circle cx="1837.1" cy="692.1" r="67.2" fill="#0A1224" opacity="0.65"/>
  <circle cx="1837.1" cy="692.1" r="67.2" fill="none" stroke="url(#strokeA)" stroke-width="5.4" opacity="0.85"/>
  <circle cx="1837.1" cy="692.1" r="57.8" fill="none" stroke="#00FFA3" stroke-width="2.0" opacity="0.35"/>
  <polygon points="1788.7,695.1 1810.3,651.7 1858.6,648.7 1885.4,689.0 1863.8,732.4 1815.5,735.4" fill="none" stroke="url(#strokeB)" stroke-width="1.7" opacity="0.65"/>
  <polygon points="1820.8,687.3 1849.3,680.4 1841.0,708.5" fill="#00FFA3" opacity="0.22" filter="url(#softGlow)"/>
</g>


<g opacity="0.398" filter="url(#hardGlow)">
  <circle cx="1786.8" cy="707.6" r="29.7" fill="#0A1224" opacity="0.65"/>
  <circle cx="1786.8" cy="707.6" r="29.7" fill="none" stroke="url(#strokeA)" stroke-width="2.4" opacity="0.85"/>
  <circle cx="1786.8" cy="707.6" r="25.5" fill="none" stroke="#FF4D8D" stroke-width="1.5" opacity="0.35"/>
  <polygon points="1805.6,717.6 1787.5,728.9 1768.6,718.9 1767.9,697.5 1786.1,686.2 1804.9,696.3" fill="none" stroke="url(#strokeB)" stroke-width="1.2" opacity="0.65"/>
  
</g>


<g opacity="0.605" filter="url(#hardGlow)">
  <circle cx="1943.6" cy="635.1" r="33.2" fill="#0A1224" opacity="0.65"/>
  <circle cx="1943.6" cy="635.1" r="33.2" fill="none" stroke="url(#strokeA)" stroke-width="2.7" opacity="0.85"/>
  <circle cx="1943.6" cy="635.1" r="28.5" fill="none" stroke="#FF4D8D" stroke-width="1.5" opacity="0.35"/>
  <polygon points="1965.0,624.4 1963.6,648.2 1942.2,658.9 1922.3,645.7 1923.7,621.9 1945.1,611.2" fill="none" stroke="url(#strokeB)" stroke-width="1.2" opacity="0.65"/>
  
</g>


<g opacity="0.853" filter="url(#hardGlow)">
  <circle cx="1865.9" cy="1056.0" r="65.3" fill="#0A1224" opacity="0.65"/>
  <circle cx="1865.9" cy="1056.0" r="65.3" fill="none" stroke="url(#strokeA)" stroke-width="5.2" opacity="0.85"/>
  <circle cx="1865.9" cy="1056.0" r="56.1" fill="none" stroke="#00FFA3" stroke-width="2.0" opacity="0.35"/>
  <polygon points="1885.4,1013.3 1912.7,1051.5 1893.2,1094.3 1846.5,1098.8 1819.2,1060.5 1838.7,1017.8" fill="none" stroke="url(#strokeB)" stroke-width="1.6" opacity="0.65"/>
  <polygon points="1877.5,1044.3 1870.3,1071.9 1850.0,1051.9" fill="#00FFA3" opacity="0.22" filter="url(#softGlow)"/>
</g>


<g opacity="0.516" filter="url(#hardGlow)">
  <circle cx="1882.1" cy="1069.2" r="35.4" fill="#0A1224" opacity="0.65"/>
  <circle cx="1882.1" cy="1069.2" r="35.4" fill="none" stroke="url(#strokeA)" stroke-width="2.8" opacity="0.85"/>
  <circle cx="1882.1" cy="1069.2" r="30.4" fill="none" stroke="#FF4D8D" stroke-width="1.5" opacity="0.35"/>
  <polygon points="1900.5,1051.6 1906.5,1076.3 1888.1,1093.9 1863.6,1086.8 1857.6,1062.0 1876.0,1044.4" fill="none" stroke="url(#strokeB)" stroke-width="1.2" opacity="0.65"/>
  <polygon points="1890.2,1065.6 1881.1,1078.0 1874.9,1063.9" fill="#FF4D8D" opacity="0.22" filter="url(#softGlow)"/>
</g>


<g opacity="0.603" filter="url(#hardGlow)">
  <circle cx="1905.4" cy="1027.8" r="34.7" fill="#0A1224" opacity="0.65"/>
  <circle cx="1905.4" cy="1027.8" r="34.7" fill="none" stroke="url(#strokeA)" stroke-width="2.8" opacity="0.85"/>
  <circle cx="1905.4" cy="1027.8" r="29.9" fill="none" stroke="#FF4D8D" stroke-width="1.5" opacity="0.35"/>
  <polygon points="1930.2,1024.2 1921.0,1047.4 1896.2,1051.1 1880.7,1031.5 1889.9,1008.2 1914.6,1004.6" fill="none" stroke="url(#strokeB)" stroke-width="1.2" opacity="0.65"/>
  
</g>


<g opacity="0.671" filter="url(#hardGlow)">
  <circle cx="141.7" cy="43.1" r="63.8" fill="#0A1224" opacity="0.65"/>
  <circle cx="141.7" cy="43.1" r="63.8" fill="none" stroke="url(#strokeA)" stroke-width="5.1" opacity="0.85"/>
  <circle cx="141.7" cy="43.1" r="54.9" fill="none" stroke="#00FFA3" stroke-width="1.9" opacity="0.35"/>
  <polygon points="125.9,-0.0 171.2,7.9 187.0,51.0 157.5,86.3 112.3,78.4 96.5,35.3" fill="none" stroke="url(#strokeB)" stroke-width="1.6" opacity="0.65"/>
  <polygon points="141.7,27.0 155.7,51.1 127.8,51.2" fill="#00FFA3" opacity="0.22" filter="url(#softGlow)"/>
</g>


<g opacity="0.546" filter="url(#hardGlow)">
  <circle cx="202.4" cy="3.0" r="23.2" fill="#0A1224" opacity="0.65"/>
  <circle cx="202.4" cy="3.0" r="23.2" fill="none" stroke="url(#strokeA)" stroke-width="2.0" opacity="0.85"/>
  <circle cx="202.4" cy="3.0" r="20.0" fill="none" stroke="#FF4D8D" stroke-width="1.5" opacity="0.35"/>
  <polygon points="186.0,-0.0 196.9,-12.7 213.3,-9.7 218.9,6.1 208.0,18.8 191.6,15.7" fill="none" stroke="url(#strokeB)" stroke-width="1.2" opacity="0.65"/>
  
</g>


<g opacity="0.463" filter="url(#hardGlow)">
  <circle cx="133.9" cy="113.1" r="27.9" fill="#0A1224" opacity="0.65"/>
  <circle cx="133.9" cy="113.1" r="27.9" fill="none" stroke="url(#strokeA)" stroke-width="2.2" opacity="0.85"/>
  <circle cx="133.9" cy="113.1" r="24.0" fill="none" stroke="#FF4D8D" stroke-width="1.5" opacity="0.35"/>
  <polygon points="117.3,124.2 115.9,104.2 132.6,93.0 150.6,101.9 151.9,121.9 135.3,133.1" fill="none" stroke="url(#strokeB)" stroke-width="1.2" opacity="0.65"/>
  
</g>


<g opacity="0.392" filter="url(#hardGlow)">
  <circle cx="112.5" cy="78.7" r="32.8" fill="#0A1224" opacity="0.65"/>
  <circle cx="112.5" cy="78.7" r="32.8" fill="none" stroke="url(#strokeA)" stroke-width="2.6" opacity="0.85"/>
  <circle cx="112.5" cy="78.7" r="28.2" fill="none" stroke="#FF4D8D" stroke-width="1.5" opacity="0.35"/>
  <polygon points="114.7,102.2 93.2,92.5 91.0,69.0 110.2,55.2 131.7,65.0 133.9,88.5" fill="none" stroke="url(#strokeB)" stroke-width="1.2" opacity="0.65"/>
  
</g>


<g opacity="0.860" filter="url(#hardGlow)">
  <circle cx="1829.2" cy="738.8" r="41.9" fill="#0A1224" opacity="0.65"/>
  <circle cx="1829.2" cy="738.8" r="41.9" fill="none" stroke="url(#strokeA)" stroke-width="3.4" opacity="0.85"/>
  <circle cx="1829.2" cy="738.8" r="36.1" fill="none" stroke="#00FFA3" stroke-width="1.5" opacity="0.35"/>
  <polygon points="1800.0,731.1 1821.3,709.7 1850.4,717.4 1858.4,746.5 1837.1,767.9 1807.9,760.3" fill="none" stroke="url(#strokeB)" stroke-width="1.2" opacity="0.65"/>
  <polygon points="1820.5,732.8 1838.7,734.3 1828.3,749.3" fill="#00FFA3" opacity="0.22" filter="url(#softGlow)"/>
</g>


<g opacity="0.610" filter="url(#hardGlow)">
  <circle cx="1858.6" cy="762.4" r="19.8" fill="#0A1224" opacity="0.65"/>
  <circle cx="1858.6" cy="762.4" r="19.8" fill="none" stroke="url(#strokeA)" stroke-width="2.0" opacity="0.85"/>
  <circle cx="1858.6" cy="762.4" r="17.0" fill="none" stroke="#FF4D8D" stroke-width="1.5" opacity="0.35"/>
  <polygon points="1872.9,762.5 1865.7,774.8 1851.4,774.6 1844.4,762.2 1851.6,750.0 1865.9,750.1" fill="none" stroke="url(#strokeB)" stroke-width="1.2" opacity="0.65"/>
  
</g>


<g opacity="0.385" filter="url(#hardGlow)">
  <circle cx="1826.3" cy="778.5" r="17.7" fill="#0A1224" opacity="0.65"/>
  <circle cx="1826.3" cy="778.5" r="17.7" fill="none" stroke="url(#strokeA)" stroke-width="2.0" opacity="0.85"/>
  <circle cx="1826.3" cy="778.5" r="15.3" fill="none" stroke="#FF4D8D" stroke-width="1.5" opacity="0.35"/>
  <polygon points="1838.7,781.7 1829.7,790.8 1817.3,787.6 1813.9,775.2 1822.9,766.2 1835.3,769.4" fill="none" stroke="url(#strokeB)" stroke-width="1.2" opacity="0.65"/>
  <polygon points="1830.0,781.0 1822.3,780.4 1826.7,774.0" fill="#FF4D8D" opacity="0.22" filter="url(#softGlow)"/>
</g>


<g opacity="0.594" filter="url(#hardGlow)">
  <circle cx="1858.8" cy="748.6" r="19.2" fill="#0A1224" opacity="0.65"/>
  <circle cx="1858.8" cy="748.6" r="19.2" fill="none" stroke="url(#strokeA)" stroke-width="2.0" opacity="0.85"/>
  <circle cx="1858.8" cy="748.6" r="16.5" fill="none" stroke="#FF4D8D" stroke-width="1.5" opacity="0.35"/>
  <polygon points="1854.7,735.4 1868.1,738.4 1872.2,751.6 1862.9,761.7 1849.4,758.7 1845.3,745.5" fill="none" stroke="url(#strokeB)" stroke-width="1.2" opacity="0.65"/>
  <polygon points="1859.0,743.7 1862.8,751.2 1854.5,750.8" fill="#FF4D8D" opacity="0.22" filter="url(#softGlow)"/>
</g>


<g opacity="0.420" transform="translate(5.4,9.7) rotate(-8.0)" filter="url(#softGlow)">
  <rect x="-100.0" y="-88.5" width="199.9" height="177.0" rx="17.7" fill="#050A12" opacity="0.25"/>
  <rect x="-100.0" y="-88.5" width="199.9" height="177.0" rx="17.7" fill="none" stroke="url(#strokeA)" stroke-width="8.9" opacity="0.85"/>
  <rect x="-85.8" y="-74.3" width="171.6" height="148.7" rx="12.4" fill="none" stroke="#FF4D8D" stroke-width="3.5" opacity="0.35"/>
</g>


<g opacity="0.322" transform="translate(1890.6,963.3) rotate(6.1)" filter="url(#softGlow)">
  <rect x="-78.8" y="-68.7" width="157.6" height="137.5" rx="13.7" fill="#050A12" opacity="0.25"/>
  <rect x="-78.8" y="-68.7" width="157.6" height="137.5" rx="13.7" fill="none" stroke="url(#strokeA)" stroke-width="6.9" opacity="0.85"/>
  <rect x="-67.8" y="-57.7" width="135.6" height="115.5" rx="9.6" fill="none" stroke="#00FFA3" stroke-width="2.7" opacity="0.35"/>
</g>


<g opacity="0.330" transform="translate(1753.9,914.8) rotate(-3.5)" filter="url(#softGlow)">
  <rect x="-86.0" y="-74.3" width="172.0" height="148.5" rx="14.9" fill="#050A12" opacity="0.25"/>
  <rect x="-86.0" y="-74.3" width="172.0" height="148.5" rx="14.9" fill="none" stroke="url(#strokeA)" stroke-width="7.4" opacity="0.85"/>
  <rect x="-74.1" y="-62.4" width="148.2" height="124.8" rx="10.4" fill="none" stroke="#00FFA3" stroke-width="3.0" opacity="0.35"/>
</g>


<g opacity="0.405" transform="translate(1765.1,950.9) rotate(-2.1)" filter="url(#softGlow)">
  <rect x="-102.1" y="-79.2" width="204.1" height="158.4" rx="15.8" fill="#050A12" opacity="0.25"/>
  <rect x="-102.1" y="-79.2" width="204.1" height="158.4" rx="15.8" fill="none" stroke="url(#strokeA)" stroke-width="7.9" opacity="0.85"/>
  <rect x="-89.4" y="-66.5" width="178.8" height="133.1" rx="11.1" fill="none" stroke="#FF4D8D" stroke-width="3.2" opacity="0.35"/>
</g>


<g opacity="0.306" transform="translate(152.8,1073.3) rotate(3.9)" filter="url(#softGlow)">
  <rect x="-87.1" y="-77.6" width="174.2" height="155.2" rx="15.5" fill="#050A12" opacity="0.25"/>
  <rect x="-87.1" y="-77.6" width="174.2" height="155.2" rx="15.5" fill="none" stroke="url(#strokeA)" stroke-width="7.8" opacity="0.85"/>
  <rect x="-74.7" y="-65.2" width="149.4" height="130.4" rx="10.9" fill="none" stroke="#FF4D8D" stroke-width="3.1" opacity="0.35"/>
</g>


<g opacity="0.437" transform="translate(1861.9,137.2) rotate(13.1)" filter="url(#softGlow)">
  <rect x="-46.3" y="-26.7" width="92.6" height="53.3" rx="16.3" fill="none" stroke="#FF4D8D" stroke-width="8.9" opacity="0.55"/>
  <rect x="-20.4" y="-13.3" width="92.6" height="53.3" rx="16.3" fill="none" stroke="url(#strokeA)" stroke-width="7.4" opacity="0.55"/>
</g>


<g opacity="0.387" transform="translate(67.6,31.7) rotate(2.3)" filter="url(#softGlow)">
  <rect x="-51.8" y="-29.8" width="103.6" height="59.7" rx="18.2" fill="none" stroke="#FF4D8D" stroke-width="9.9" opacity="0.55"/>
  <rect x="-22.8" y="-14.9" width="103.6" height="59.7" rx="18.2" fill="none" stroke="url(#strokeA)" stroke-width="8.3" opacity="0.55"/>
</g>


<g opacity="0.445" transform="translate(1747.7,8.3) rotate(7.6)" filter="url(#softGlow)">
  <rect x="-36.7" y="-21.1" width="73.3" height="42.2" rx="12.9" fill="none" stroke="#FF4D8D" stroke-width="7.0" opacity="0.55"/>
  <rect x="-16.1" y="-10.6" width="73.3" height="42.2" rx="12.9" fill="none" stroke="url(#strokeA)" stroke-width="5.9" opacity="0.55"/>
</g>


<g opacity="0.454" transform="translate(19.0,645.6) rotate(1.8)" filter="url(#softGlow)">
  <rect x="-47.4" y="-27.3" width="94.9" height="54.6" rx="16.7" fill="none" stroke="#FF4D8D" stroke-width="9.1" opacity="0.55"/>
  <rect x="-20.9" y="-13.7" width="94.9" height="54.6" rx="16.7" fill="none" stroke="url(#strokeA)" stroke-width="7.6" opacity="0.55"/>
</g>


<g opacity="0.334" transform="translate(1809.8,873.2) rotate(10.6)" filter="url(#softGlow)">
  <rect x="-45.6" y="-26.3" width="91.2" height="52.5" rx="16.0" fill="none" stroke="#00FFA3" stroke-width="8.8" opacity="0.55"/>
  <rect x="-20.1" y="-13.1" width="91.2" height="52.5" rx="16.0" fill="none" stroke="url(#strokeA)" stroke-width="7.3" opacity="0.55"/>
</g>


<g opacity="0.405" transform="translate(1838.5,155.8) rotate(-12.2)" filter="url(#softGlow)">
  <rect x="-49.8" y="-28.7" width="99.5" height="57.3" rx="17.5" fill="none" stroke="#00FFA3" stroke-width="9.6" opacity="0.55"/>
  <rect x="-21.9" y="-14.3" width="99.5" height="57.3" rx="17.5" fill="none" stroke="url(#strokeA)" stroke-width="8.0" opacity="0.55"/>
</g>


<g opacity="0.476" transform="translate(1839.5,325.4) rotate(15.1)" filter="url(#softGlow)">
  <rect x="-45.8" y="-26.4" width="91.6" height="52.8" rx="16.1" fill="none" stroke="#FF4D8D" stroke-width="8.8" opacity="0.55"/>
  <rect x="-20.2" y="-13.2" width="91.6" height="52.8" rx="16.1" fill="none" stroke="url(#strokeA)" stroke-width="7.3" opacity="0.55"/>
</g>


<g opacity="0.396" transform="translate(1506.0,50.2) rotate(17.3)" filter="url(#softGlow)">
  <rect x="-35.0" y="-20.1" width="69.9" height="40.3" rx="12.3" fill="none" stroke="#FF4D8D" stroke-width="6.7" opacity="0.55"/>
  <rect x="-15.4" y="-10.1" width="69.9" height="40.3" rx="12.3" fill="none" stroke="url(#strokeA)" stroke-width="5.6" opacity="0.55"/>
</g>


<g opacity="0.343" transform="translate(52.4,828.1) rotate(5.6)" filter="url(#softGlow)">
  <rect x="-36.4" y="-21.0" width="72.8" height="41.9" rx="12.8" fill="none" stroke="#FF4D8D" stroke-width="7.0" opacity="0.55"/>
  <rect x="-16.0" y="-10.5" width="72.8" height="41.9" rx="12.8" fill="none" stroke="url(#strokeA)" stroke-width="5.8" opacity="0.55"/>
</g>


<g opacity="0.260" transform="translate(76.5,1054.2) rotate(2.3)" filter="url(#softGlow)">
  <rect x="-38.5" y="-22.2" width="77.0" height="44.3" rx="13.5" fill="none" stroke="#00FFA3" stroke-width="7.4" opacity="0.55"/>
  <rect x="-16.9" y="-11.1" width="77.0" height="44.3" rx="13.5" fill="none" stroke="url(#strokeA)" stroke-width="6.2" opacity="0.55"/>
</g>


<g opacity="0.152">
  <line x1="262.0" y1="877.3" x2="262.0" y2="982.4" stroke="#FF4D8D" stroke-width="1.00" opacity="0.45"/>
  <rect x="258.3" y="937.0" width="7.5" height="48.9" rx="2.5" fill="#0B1020" opacity="0.55" stroke="url(#strokeA)" stroke-width="1.2"/>
</g>

<g opacity="0.152">
  <line x1="14.6" y1="873.8" x2="14.6" y2="983.3" stroke="#FF4D8D" stroke-width="1.11" opacity="0.45"/>
  <rect x="10.5" y="932.6" width="8.2" height="57.5" rx="2.7" fill="#0B1020" opacity="0.55" stroke="url(#strokeA)" stroke-width="1.2"/>
</g>

<g opacity="0.152">
  <line x1="1513.4" y1="875.3" x2="1513.4" y2="982.9" stroke="#FF4D8D" stroke-width="1.23" opacity="0.45"/>
  <rect x="1509.1" y="933.0" width="8.6" height="56.8" rx="2.9" fill="#0B1020" opacity="0.55" stroke="url(#strokeA)" stroke-width="1.2"/>
</g>

<g opacity="0.152">
  <line x1="1805.3" y1="906.1" x2="1805.3" y2="975.2" stroke="#FF4D8D" stroke-width="1.69" opacity="0.45"/>
  <rect x="1801.9" y="950.2" width="6.7" height="22.4" rx="2.2" fill="#0B1020" opacity="0.55" stroke="url(#strokeA)" stroke-width="1.2"/>
</g>

<g opacity="0.152">
  <line x1="1114.0" y1="871.5" x2="1114.0" y2="983.9" stroke="#FF4D8D" stroke-width="1.08" opacity="0.45"/>
  <rect x="1108.2" y="934.6" width="11.6" height="53.6" rx="3.9" fill="#0B1020" opacity="0.55" stroke="url(#strokeA)" stroke-width="1.2"/>
</g>

<g opacity="0.152">
  <line x1="1742.5" y1="880.8" x2="1742.5" y2="981.5" stroke="#FF4D8D" stroke-width="2.05" opacity="0.45"/>
  <rect x="1737.5" y="941.1" width="10.0" height="40.7" rx="3.3" fill="#0B1020" opacity="0.55" stroke="url(#strokeA)" stroke-width="1.2"/>
</g>

<g opacity="0.152">
  <line x1="372.2" y1="904.8" x2="372.2" y2="975.6" stroke="#FF4D8D" stroke-width="2.18" opacity="0.45"/>
  <rect x="367.1" y="947.0" width="10.3" height="28.8" rx="3.4" fill="#0B1020" opacity="0.55" stroke="url(#strokeA)" stroke-width="1.2"/>
</g>

<g opacity="0.152">
  <line x1="1168.4" y1="888.5" x2="1168.4" y2="979.6" stroke="#FF4D8D" stroke-width="1.07" opacity="0.45"/>
  <rect x="1162.8" y="931.7" width="11.2" height="59.3" rx="3.7" fill="#0B1020" opacity="0.55" stroke="url(#strokeA)" stroke-width="1.2"/>
</g>

<g opacity="0.152">
  <line x1="131.6" y1="877.0" x2="131.6" y2="982.5" stroke="#FF4D8D" stroke-width="1.25" opacity="0.45"/>
  <rect x="126.1" y="934.6" width="11.1" height="53.6" rx="3.7" fill="#0B1020" opacity="0.55" stroke="url(#strokeA)" stroke-width="1.2"/>
</g>

<g opacity="0.152">
  <line x1="1043.5" y1="886.5" x2="1043.5" y2="980.1" stroke="#FF4D8D" stroke-width="1.84" opacity="0.45"/>
  <rect x="1040.3" y="933.7" width="6.5" height="55.4" rx="2.2" fill="#0B1020" opacity="0.55" stroke="url(#strokeA)" stroke-width="1.2"/>
</g>

<g opacity="0.152">
  <line x1="1631.8" y1="895.3" x2="1631.8" y2="977.9" stroke="#FF4D8D" stroke-width="2.01" opacity="0.45"/>
  <rect x="1626.3" y="935.9" width="11.1" height="51.0" rx="3.7" fill="#0B1020" opacity="0.55" stroke="url(#strokeA)" stroke-width="1.2"/>
</g>

<g opacity="0.152">
  <line x1="1830.5" y1="882.3" x2="1830.5" y2="981.2" stroke="#FF4D8D" stroke-width="1.43" opacity="0.45"/>
  <rect x="1827.1" y="937.4" width="6.8" height="48.1" rx="2.3" fill="#0B1020" opacity="0.55" stroke="url(#strokeA)" stroke-width="1.2"/>
</g>

<g opacity="0.152">
  <line x1="561.3" y1="911.8" x2="561.3" y2="973.8" stroke="#FF4D8D" stroke-width="2.04" opacity="0.45"/>
  <rect x="556.1" y="942.6" width="10.4" height="37.5" rx="3.5" fill="#0B1020" opacity="0.55" stroke="url(#strokeA)" stroke-width="1.2"/>
</g>

<g opacity="0.152">
  <line x1="1065.9" y1="909.1" x2="1065.9" y2="974.5" stroke="#FF4D8D" stroke-width="2.09" opacity="0.45"/>
  <rect x="1060.6" y="951.4" width="10.7" height="20.0" rx="3.6" fill="#0B1020" opacity="0.55" stroke="url(#strokeA)" stroke-width="1.2"/>
</g>

<g opacity="0.152">
  <line x1="26.1" y1="924.9" x2="26.1" y2="970.5" stroke="#FF4D8D" stroke-width="1.62" opacity="0.45"/>
  <rect x="20.8" y="949.1" width="10.6" height="24.6" rx="3.5" fill="#0B1020" opacity="0.55" stroke="url(#strokeA)" stroke-width="1.2"/>
</g>
<circle cx="1776.8" cy="113.4" r="3.1" fill="#00FFA3" opacity="0.20" filter="url(#softGlow)"/>
<circle cx="1270.8" cy="1047.8" r="3.2" fill="#00FFA3" opacity="0.22" filter="url(#softGlow)"/>
<circle cx="37.5" cy="161.1" r="2.9" fill="#00FFA3" opacity="0.27" filter="url(#softGlow)"/>
<circle cx="174.5" cy="955.6" r="1.9" fill="#00FFA3" opacity="0.10" filter="url(#softGlow)"/>
<circle cx="1657.9" cy="864.4" r="2.0" fill="#00FFA3" opacity="0.20" filter="url(#softGlow)"/>
<circle cx="1793.6" cy="158.6" r="2.4" fill="#00FFA3" opacity="0.11" filter="url(#softGlow)"/>
<circle cx="185.4" cy="211.2" r="2.1" fill="#00FFA3" opacity="0.23" filter="url(#softGlow)"/>
<circle cx="192.9" cy="1029.4" r="2.9" fill="#00FFA3" opacity="0.18" filter="url(#softGlow)"/>
<circle cx="1902.5" cy="104.3" r="1.7" fill="#00FFA3" opacity="0.23" filter="url(#softGlow)"/>
<circle cx="158.9" cy="29.0" r="2.9" fill="#00FFA3" opacity="0.19" filter="url(#softGlow)"/>
<circle cx="1795.0" cy="826.1" r="2.4" fill="#00FFA3" opacity="0.18" filter="url(#softGlow)"/>
<circle cx="1906.0" cy="51.7" r="2.9" fill="#00FFA3" opacity="0.22" filter="url(#softGlow)"/>
<circle cx="1738.8" cy="33.9" r="2.8" fill="#00FFA3" opacity="0.13" filter="url(#softGlow)"/>
<circle cx="1740.2" cy="914.2" r="1.5" fill="#00FFA3" opacity="0.17" filter="url(#softGlow)"/>
<circle cx="1808.4" cy="212.1" r="2.6" fill="#00FFA3" opacity="0.14" filter="url(#softGlow)"/>
<circle cx="170.4" cy="184.1" r="2.6" fill="#00FFA3" opacity="0.25" filter="url(#softGlow)"/>
<circle cx="916.1" cy="1036.9" r="1.8" fill="#00FFA3" opacity="0.20" filter="url(#softGlow)"/>
<circle cx="175.1" cy="112.2" r="2.4" fill="#00FFA3" opacity="0.16" filter="url(#softGlow)"/>
<circle cx="206.3" cy="270.1" r="2.7" fill="#00FFA3" opacity="0.16" filter="url(#softGlow)"/>
<circle cx="1789.1" cy="964.3" r="2.1" fill="#00FFA3" opacity="0.11" filter="url(#softGlow)"/>
<circle cx="11.8" cy="201.1" r="1.3" fill="#00FFA3" opacity="0.26" filter="url(#softGlow)"/>
<circle cx="6.1" cy="933.6" r="1.5" fill="#00FFA3" opacity="0.26" filter="url(#softGlow)"/>
<circle cx="25.9" cy="148.6" r="2.9" fill="#00FFA3" opacity="0.26" filter="url(#softGlow)"/>
<circle cx="1890.4" cy="1051.7" r="1.8" fill="#00FFA3" opacity="0.25" filter="url(#softGlow)"/>
<circle cx="1748.4" cy="117.8" r="2.8" fill="#00FFA3" opacity="0.28" filter="url(#softGlow)"/>
<circle cx="1326.8" cy="1063.6" r="2.0" fill="#00FFA3" opacity="0.16" filter="url(#softGlow)"/>
<circle cx="1760.4" cy="1056.9" r="1.7" fill="#00FFA3" opacity="0.18" filter="url(#softGlow)"/>
<circle cx="1840.2" cy="933.9" r="2.6" fill="#00FFA3" opacity="0.27" filter="url(#softGlow)"/>
</svg>