<svg xmlns="http://www.w3.org/2000/svg" width="1920" height="1080" viewBox="0 0 1920 1080" preserveAspectRatio="xMidYMid slice">
<defs>
  <linearGradient id="g0" x1="0" y1="0" x2="1" y2="1">
    <stop offset="0" stop-color="#0B1020"/>
    <stop offset="0.55" stop-color="#00E5FF" stop-opacity="0.9"/>
    <stop offset="1" stop-color="#051018"/>
  </linearGradient>
  <radialGradient id="g1" cx="20%" cy="15%" r="70%">
    <stop offset="0" stop-color="#7C4DFF" stop-opacity="0.38"/>
    <stop offset="0.6" stop-color="#7C4DFF" stop-opacity="0.08"/>
    <stop offset="1" stop-color="#7C4DFF" stop-opacity="0"/>
  </radialGradient>
  <radialGradient id="g2" cx="85%" cy="80%" r="75%">
    <stop offset="0" stop-color="#7C4DFF" stop-opacity="0.28"/>
    <stop offset="0.65" stop-color="#7C4DFF" stop-opacity="0.06"/>
    <stop offset="1" stop-color="#7C4DFF" stop-opacity="0"/>
  </radialGradient>
  <filter id="softGlow" x="-30%" y="-30%" width="160%" height="160%">
    <feGaussianBlur stdDeviation="12" result="b"/>
    <feMerge>
      <feMergeNode in="b"/>
      <feMergeNode in="SourceGraphic"/>
    </feMerge>
  </filter>
  <filter id="hardGlow" x="-40%" y="-40%" width="180%" height="180%">
    <feGaussianBlur stdDeviation="6" result="b"/>
    <feColorMatrix in="b" type="matrix" values="1 0 0 0 0  0 1 0 0 0  0 0 1 0 0  0 0 0 18 -7" result="c"/>
    <feMerge>
      <feMergeNode in="c"/>
      <feMergeNode in="SourceGraphic"/>
    </feMerge>
  </filter>
  <linearGradient id="strokeA" x1="0" y1="0" x2="1" y2="0">
    <stop offset="0" stop-color="#7C4DFF" stop-opacity="0.9"/>
    <stop offset="0.5" stop-color="#FFFFFF" stop-opacity="0.25"/>
    <stop offset="1" stop-color="#7C4DFF" stop-opacity="0.7"/>
  </linearGradient>
  <linearGradient id="strokeB" x1="0" y1="0" x2="0" y2="1">
    <stop offset="0" stop-color="#FFFFFF" stop-opacity="0.18"/>
    <stop offset="1" stop-color="#7C4DFF" stop-opacity="0.55"/>
  </linearGradient>
</defs>
<rect x="0" y="0" width="1920" height="1080" fill="url(#g0)"/>
<rect x="0" y="0" width="1920" height="1080" fill="url(#g1)"/>
<rect x="0" y="0" width="1920" height="1080" fill="url(#g2)"/>


<defs>
  <radialGradient id="vign" cx="0.5000" cy="0.5093" r="0.85">
    <stop offset="0" stop-color="#000000" stop-opacity="0"/>
    <stop offset="0.55" stop-color="#000000" stop-opacity="0.217"/>
    <stop offset="1" stop-color="#000000" stop-opacity="0.620"/>
  </radialGradient>
</defs>
<rect x="0" y="0" width="1920" height="1080" fill="url(#vign)"/>

<g opacity="0.276" filter="url(#softGlow)"><path d="M 120.3,103.9 L 1793.3,103.9 L 1793.3,195.4 L 1863.5,195.4 L 1863.5,110.5 " fill="none" stroke="url(#strokeB)" stroke-width="1.50" stroke-linecap="round" stroke-linejoin="round"/><circle cx="1863.5" cy="110.5" r="3.7" fill="#FFB300" opacity="0.45"/><circle cx="1863.5" cy="195.4" r="3.2" fill="#FFB300" opacity="0.45"/><circle cx="120.3" cy="103.9" r="3.1" fill="#FFB300" opacity="0.45"/></g>
<g opacity="0.276" filter="url(#softGlow)"><path d="M 1787.8,180.5 L 76.5,180.5 L 76.5,437.3 L 1859.3,437.3 L 1859.3,55.6 " fill="none" stroke="url(#strokeB)" stroke-width="1.27" stroke-linecap="round" stroke-linejoin="round"/><circle cx="1859.3" cy="437.3" r="2.3" fill="#FFB300" opacity="0.45"/><circle cx="76.5" cy="437.3" r="3.3" fill="#FFB300" opacity="0.45"/><circle cx="76.5" cy="180.5" r="3.7" fill="#FFB300" opacity="0.45"/></g>
<g opacity="0.276" filter="url(#softGlow)"><path d="M 207.3,161.4 L 5.5,161.4 L 5.5,187.1 L 57.4,187.1 L 57.4,945.7 " fill="none" stroke="url(#strokeB)" stroke-width="1.36" stroke-linecap="round" stroke-linejoin="round"/><circle cx="5.5" cy="161.4" r="3.3" fill="#FFB300" opacity="0.45"/><circle cx="57.4" cy="945.7" r="2.1" fill="#FFB300" opacity="0.45"/><circle cx="207.3" cy="161.4" r="3.4" fill="#FFB300" opacity="0.45"/></g>
<g opacity="0.276" filter="url(#softGlow)"><path d="M 573.3,5.5 L 640.4,5.5 L 640.4,108.0 L 1860.6,108.0 L 1860.6,133.3 " fill="none" stroke="url(#strokeB)" stroke-width="1.45" stroke-linecap="round" stroke-linejoin="round"/><circle cx="640.4" cy="5.5" r="2.2" fill="#FFB300" opacity="0.45"/><circle cx="1860.6" cy="133.3" r="2.1" fill="#FFB300" opacity="0.45"/><circle cx="573.3" cy="5.5" r="2.2" fill="#FFB300" opacity="0.45"/></g>
<g opacity="0.276" filter="url(#softGlow)"><path d="M 52.4,455.9 L 1753.7,455.9 L 1753.7,195.2 L 1793.7,195.2 L 1793.7,140.1 " fill="none" stroke="url(#strokeB)" stroke-width="1.92" stroke-linecap="round" stroke-linejoin="round"/><circle cx="52.4" cy="455.9" r="4.1" fill="#FFB300" opacity="0.45"/><circle cx="1753.7" cy="455.9" r="2.5" fill="#FFB300" opacity="0.45"/><circle cx="1753.7" cy="195.2" r="3.5" fill="#FFB300" opacity="0.45"/></g>
<g opacity="0.276" filter="url(#softGlow)"><path d="M 188.3,102.9 L 1846.0,102.9 L 1846.0,873.3 L 1869.8,873.3 L 1869.8,160.6 " fill="none" stroke="url(#strokeB)" stroke-width="1.69" stroke-linecap="round" stroke-linejoin="round"/><circle cx="1869.8" cy="873.3" r="3.6" fill="#FFB300" opacity="0.45"/><circle cx="1846.0" cy="102.9" r="2.2" fill="#FFB300" opacity="0.45"/><circle cx="1869.8" cy="160.6" r="2.7" fill="#FFB300" opacity="0.45"/></g>
<g opacity="0.276" filter="url(#softGlow)"><path d="M 1871.2,0.2 L 1856.9,0.2 L 1856.9,1050.7 L 745.1,1050.7 L 745.1,980.9 " fill="none" stroke="url(#strokeB)" stroke-width="1.38" stroke-linecap="round" stroke-linejoin="round"/><circle cx="1871.2" cy="0.2" r="3.7" fill="#FFB300" opacity="0.45"/><circle cx="1856.9" cy="1050.7" r="3.8" fill="#FFB300" opacity="0.45"/><circle cx="745.1" cy="980.9" r="3.0" fill="#FFB300" opacity="0.45"/></g>
<g opacity="0.276" filter="url(#softGlow)"><path d="M 86.1,152.6 L 1292.1,152.6 L 1292.1,19.4 L 79.2,19.4 L 79.2,4.9 " fill="none" stroke="url(#strokeB)" stroke-width="1.32" stroke-linecap="round" stroke-linejoin="round"/><circle cx="79.2" cy="19.4" r="2.2" fill="#FFB300" opacity="0.45"/><circle cx="86.1" cy="152.6" r="3.9" fill="#FFB300" opacity="0.45"/><circle cx="1292.1" cy="19.4" r="2.7" fill="#FFB300" opacity="0.45"/></g>
<g opacity="0.276" filter="url(#softGlow)"><path d="M 33.9,1074.0 L 1760.2,1074.0 L 1760.2,12.9 L 1810.1,12.9 L 1810.1,56.8 " fill="none" stroke="url(#strokeB)" stroke-width="1.28" stroke-linecap="round" stroke-linejoin="round"/><circle cx="1810.1" cy="12.9" r="2.9" fill="#FFB300" opacity="0.45"/><circle cx="1760.2" cy="1074.0" r="3.6" fill="#FFB300" opacity="0.45"/><circle cx="33.9" cy="1074.0" r="2.6" fill="#FFB300" opacity="0.45"/></g>
<g opacity="0.276" filter="url(#softGlow)"><path d="M 60.3,794.5 L 176.6,794.5 L 176.6,65.4 L 1828.2,65.4 L 1828.2,1033.3 " fill="none" stroke="url(#strokeB)" stroke-width="1.85" stroke-linecap="round" stroke-linejoin="round"/><circle cx="1828.2" cy="1033.3" r="2.8" fill="#FFB300" opacity="0.45"/><circle cx="1828.2" cy="65.4" r="4.1" fill="#FFB300" opacity="0.45"/><circle cx="176.6" cy="65.4" r="2.6" fill="#FFB300" opacity="0.45"/></g>
<g opacity="0.276" filter="url(#softGlow)"><path d="M 1742.7,182.2 L 1892.2,182.2 L 1892.2,886.5 L 0.5,886.5 L 0.5,508.0 " fill="none" stroke="url(#strokeB)" stroke-width="2.02" stroke-linecap="round" stroke-linejoin="round"/><circle cx="1742.7" cy="182.2" r="3.6" fill="#FFB300" opacity="0.45"/><circle cx="0.5" cy="886.5" r="3.7" fill="#FFB300" opacity="0.45"/><circle cx="1892.2" cy="182.2" r="2.8" fill="#FFB300" opacity="0.45"/></g>
<g opacity="0.276" filter="url(#softGlow)"><path d="M 1750.0,1029.9 L 1818.8,1029.9 L 1818.8,865.2 L 1900.7,865.2 L 1900.7,1027.2 " fill="none" stroke="url(#strokeB)" stroke-width="1.38" stroke-linecap="round" stroke-linejoin="round"/><circle cx="1900.7" cy="865.2" r="2.8" fill="#FFB300" opacity="0.45"/><circle cx="1818.8" cy="1029.9" r="2.7" fill="#FFB300" opacity="0.45"/><circle cx="1750.0" cy="1029.9" r="2.8" fill="#FFB300" opacity="0.45"/></g>
<g opacity="0.276" filter="url(#softGlow)"><path d="M 1918.7,881.3 L 1735.3,881.3 L 1735.3,915.4 L 603.2,915.4 L 603.2,91.9 " fill="none" stroke="url(#strokeB)" stroke-width="1.94" stroke-linecap="round" stroke-linejoin="round"/><circle cx="603.2" cy="915.4" r="2.8" fill="#FFB300" opacity="0.45"/><circle cx="1735.3" cy="915.4" r="3.0" fill="#FFB300" opacity="0.45"/><circle cx="1918.7" cy="881.3" r="3.4" fill="#FFB300" opacity="0.45"/></g>
<g opacity="0.276" filter="url(#softGlow)"><path d="M 131.6,417.3 L 1723.4,417.3 L 1723.4,1065.5 L 464.8,1065.5 L 464.8,60.9 " fill="none" stroke="url(#strokeB)" stroke-width="1.95" stroke-linecap="round" stroke-linejoin="round"/><circle cx="464.8" cy="1065.5" r="2.3" fill="#FFB300" opacity="0.45"/><circle cx="464.8" cy="60.9" r="2.6" fill="#FFB300" opacity="0.45"/><circle cx="1723.4" cy="417.3" r="3.7" fill="#FFB300" opacity="0.45"/></g>
<g opacity="0.276" filter="url(#softGlow)"><path d="M 199.8,1064.1 L 22.8,1064.1 L 22.8,181.2 L 188.9,181.2 L 188.9,1028.6 " fill="none" stroke="url(#strokeB)" stroke-width="1.77" stroke-linecap="round" stroke-linejoin="round"/><circle cx="22.8" cy="1064.1" r="2.5" fill="#FFB300" opacity="0.45"/><circle cx="188.9" cy="1028.6" r="3.3" fill="#FFB300" opacity="0.45"/><circle cx="199.8" cy="1064.1" r="3.6" fill="#FFB300" opacity="0.45"/></g>
<g opacity="0.276" filter="url(#softGlow)"><path d="M 211.6,897.9 L 200.8,897.9 L 200.8,1016.3 L 1831.2,1016.3 L 1831.2,235.6 " fill="none" stroke="url(#strokeB)" stroke-width="2.08" stroke-linecap="round" stroke-linejoin="round"/><circle cx="1831.2" cy="235.6" r="2.7" fill="#FFB300" opacity="0.45"/><circle cx="200.8" cy="1016.3" r="2.8" fill="#FFB300" opacity="0.45"/><circle cx="211.6" cy="897.9" r="3.3" fill="#FFB300" opacity="0.45"/></g>
<g opacity="0.276" filter="url(#softGlow)"><path d="M 196.7,1066.0 L 260.6,1066.0 L 260.6,131.5 L 128.5,131.5 L 128.5,1.1 " fill="none" stroke="url(#strokeB)" stroke-width="1.82" stroke-linecap="round" stroke-linejoin="round"/><circle cx="260.6" cy="131.5" r="3.7" fill="#FFB300" opacity="0.45"/><circle cx="128.5" cy="1.1" r="3.2" fill="#FFB300" opacity="0.45"/><circle cx="196.7" cy="1066.0" r="3.4" fill="#FFB300" opacity="0.45"/></g>
<g opacity="0.276" filter="url(#softGlow)"><path d="M 120.5,1053.1 L 123.6,1053.1 L 123.6,951.1 L 1775.5,951.1 L 1775.5,223.7 " fill="none" stroke="url(#strokeB)" stroke-width="1.49" stroke-linecap="round" stroke-linejoin="round"/><circle cx="123.6" cy="1053.1" r="4.0" fill="#FFB300" opacity="0.45"/><circle cx="1775.5" cy="223.7" r="3.1" fill="#FFB300" opacity="0.45"/><circle cx="123.6" cy="951.1" r="2.9" fill="#FFB300" opacity="0.45"/></g>
<g opacity="0.276" filter="url(#softGlow)"><path d="M 1810.5,1053.8 L 201.6,1053.8 L 201.6,1061.7 L 137.2,1061.7 L 137.2,904.5 " fill="none" stroke="url(#strokeB)" stroke-width="1.71" stroke-linecap="round" stroke-linejoin="round"/><circle cx="137.2" cy="1061.7" r="2.8" fill="#FFB300" opacity="0.45"/><circle cx="1810.5" cy="1053.8" r="2.4" fill="#FFB300" opacity="0.45"/><circle cx="201.6" cy="1053.8" r="2.4" fill="#FFB300" opacity="0.45"/></g>
<g opacity="0.276" filter="url(#softGlow)"><path d="M 187.2,148.4 L 128.0,148.4 L 128.0,678.6 L 130.3,678.6 L 130.3,212.3 " fill="none" stroke="url(#strokeB)" stroke-width="1.41" stroke-linecap="round" stroke-linejoin="round"/><circle cx="187.2" cy="148.4" r="2.3" fill="#FFB300" opacity="0.45"/><circle cx="128.0" cy="148.4" r="4.2" fill="#FFB300" opacity="0.45"/><circle cx="130.3" cy="678.6" r="3.2" fill="#FFB300" opacity="0.45"/></g>

<g opacity="0.899" filter="url(#hardGlow)">
  <circle cx="1849.5" cy="85.4" r="69.1" fill="#0A1224" opacity="0.65"/>
  <circle cx="1849.5" cy="85.4" r="69.1" fill="none" stroke="url(#strokeA)" stroke-width="5.5" opacity="0.85"/>
  <circle cx="1849.5" cy="85.4" r="59.5" fill="none" stroke="#7C4DFF" stroke-width="2.1" opacity="0.35"/>
  <polygon points="1899.0,90.2 1870.2,130.7 1820.6,126.0 1799.9,80.7 1828.8,40.1 1878.4,44.9" fill="none" stroke="url(#strokeB)" stroke-width="1.7" opacity="0.65"/>
  <polygon points="1865.2,92.9 1835.1,95.3 1848.1,68.1" fill="#7C4DFF" opacity="0.22" filter="url(#softGlow)"/>
</g>


<g opacity="0.477" filter="url(#hardGlow)">
  <circle cx="1785.5" cy="8.9" r="27.6" fill="#0A1224" opacity="0.65"/>
  <circle cx="1785.5" cy="8.9" r="27.6" fill="none" stroke="url(#strokeA)" stroke-width="2.2" opacity="0.85"/>
  <circle cx="1785.5" cy="8.9" r="23.7" fill="none" stroke="#FFB300" stroke-width="1.5" opacity="0.35"/>
  <polygon points="1772.8,24.2 1765.9,5.5 1778.7,-9.7 1798.2,-6.3 1805.0,12.3 1792.3,27.6" fill="none" stroke="url(#strokeB)" stroke-width="1.2" opacity="0.65"/>
  <polygon points="1779.5,12.4 1785.5,2.0 1791.5,12.4" fill="#FFB300" opacity="0.22" filter="url(#softGlow)"/>
</g>


<g opacity="0.827" filter="url(#hardGlow)">
  <circle cx="1872.1" cy="780.0" r="58.1" fill="#0A1224" opacity="0.65"/>
  <circle cx="1872.1" cy="780.0" r="58.1" fill="none" stroke="url(#strokeA)" stroke-width="4.7" opacity="0.85"/>
  <circle cx="1872.1" cy="780.0" r="50.0" fill="none" stroke="#7C4DFF" stroke-width="1.7" opacity="0.35"/>
  <polygon points="1841.3,808.3 1832.2,767.5 1863.0,739.2 1903.0,751.7 1912.0,792.6 1881.2,820.9" fill="none" stroke="url(#strokeB)" stroke-width="1.5" opacity="0.65"/>
  <polygon points="1858.6,785.7 1874.0,765.5 1883.7,788.9" fill="#7C4DFF" opacity="0.22" filter="url(#softGlow)"/>
</g>


<g opacity="0.537" filter="url(#hardGlow)">
  <circle cx="1924.5" cy="805.4" r="28.8" fill="#0A1224" opacity="0.65"/>
  <circle cx="1924.5" cy="805.4" r="28.8" fill="none" stroke="url(#strokeA)" stroke-width="2.3" opacity="0.85"/>
  <circle cx="1924.5" cy="805.4" r="24.7" fill="none" stroke="#FFB300" stroke-width="1.5" opacity="0.35"/>
  <polygon points="1937.7,789.5 1944.9,808.9 1931.6,824.8 1911.2,821.3 1904.1,801.8 1917.3,785.9" fill="none" stroke="url(#strokeB)" stroke-width="1.2" opacity="0.65"/>
  <polygon points="1930.7,801.7 1924.5,812.6 1918.2,801.8" fill="#FFB300" opacity="0.22" filter="url(#softGlow)"/>
</g>


<g opacity="0.646" filter="url(#hardGlow)">
  <circle cx="1783.5" cy="778.0" r="21.3" fill="#0A1224" opacity="0.65"/>
  <circle cx="1783.5" cy="778.0" r="21.3" fill="none" stroke="url(#strokeA)" stroke-width="2.0" opacity="0.85"/>
  <circle cx="1783.5" cy="778.0" r="18.3" fill="none" stroke="#FFB300" stroke-width="1.5" opacity="0.35"/>
  <polygon points="1798.8,776.4 1792.6,790.4 1777.3,792.0 1768.3,779.6 1774.5,765.6 1789.7,764.0" fill="none" stroke="url(#strokeB)" stroke-width="1.2" opacity="0.65"/>
  <polygon points="1788.7,779.3 1779.8,781.8 1782.1,772.8" fill="#FFB300" opacity="0.22" filter="url(#softGlow)"/>
</g>


<g opacity="0.662" filter="url(#hardGlow)">
  <circle cx="1846.3" cy="935.9" r="60.8" fill="#0A1224" opacity="0.65"/>
  <circle cx="1846.3" cy="935.9" r="60.8" fill="none" stroke="url(#strokeA)" stroke-width="4.9" opacity="0.85"/>
  <circle cx="1846.3" cy="935.9" r="52.3" fill="none" stroke="#7C4DFF" stroke-width="1.8" opacity="0.35"/>
  <polygon points="1804.2,923.9 1835.7,893.5 1877.8,905.5 1888.4,948.0 1856.9,978.4 1814.8,966.4" fill="none" stroke="url(#strokeB)" stroke-width="1.5" opacity="0.65"/>
  <polygon points="1833.9,926.9 1860.3,929.7 1844.7,951.2" fill="#7C4DFF" opacity="0.22" filter="url(#softGlow)"/>
</g>


<g opacity="0.499" filter="url(#hardGlow)">
  <circle cx="1903.6" cy="892.0" r="28.9" fill="#0A1224" opacity="0.65"/>
  <circle cx="1903.6" cy="892.0" r="28.9" fill="none" stroke="url(#strokeA)" stroke-width="2.3" opacity="0.85"/>
  <circle cx="1903.6" cy="892.0" r="24.9" fill="none" stroke="#FFB300" stroke-width="1.5" opacity="0.35"/>
  <polygon points="1892.3,874.5 1913.1,873.5 1924.3,891.0 1914.8,909.5 1894.0,910.5 1882.8,893.0" fill="none" stroke="url(#strokeB)" stroke-width="1.2" opacity="0.65"/>
  
</g>


<g opacity="0.443" filter="url(#hardGlow)">
  <circle cx="1860.0" cy="984.5" r="26.5" fill="#0A1224" opacity="0.65"/>
  <circle cx="1860.0" cy="984.5" r="26.5" fill="none" stroke="url(#strokeA)" stroke-width="2.1" opacity="0.85"/>
  <circle cx="1860.0" cy="984.5" r="22.8" fill="none" stroke="#FFB300" stroke-width="1.5" opacity="0.35"/>
  <polygon points="1845.5,996.9 1842.0,978.1 1856.5,965.8 1874.5,972.2 1877.9,990.9 1863.4,1003.2" fill="none" stroke="url(#strokeB)" stroke-width="1.2" opacity="0.65"/>
  
</g>


<g opacity="0.404" filter="url(#hardGlow)">
  <circle cx="1758.7" cy="936.0" r="21.4" fill="#0A1224" opacity="0.65"/>
  <circle cx="1758.7" cy="936.0" r="21.4" fill="none" stroke="url(#strokeA)" stroke-width="2.0" opacity="0.85"/>
  <circle cx="1758.7" cy="936.0" r="18.4" fill="none" stroke="#FFB300" stroke-width="1.5" opacity="0.35"/>
  <polygon points="1744.8,942.8 1745.9,927.4 1759.8,920.6 1772.6,929.2 1771.5,944.6 1757.6,951.4" fill="none" stroke="url(#strokeB)" stroke-width="1.2" opacity="0.65"/>
  
</g>


<g opacity="0.859" filter="url(#hardGlow)">
  <circle cx="1785.1" cy="1010.9" r="48.5" fill="#0A1224" opacity="0.65"/>
  <circle cx="1785.1" cy="1010.9" r="48.5" fill="none" stroke="url(#strokeA)" stroke-width="3.9" opacity="0.85"/>
  <circle cx="1785.1" cy="1010.9" r="41.7" fill="none" stroke="#7C4DFF" stroke-width="1.5" opacity="0.35"/>
  <polygon points="1800.0,979.3 1819.9,1008.0 1805.0,1039.6 1770.2,1042.5 1750.3,1013.7 1765.2,982.1" fill="none" stroke="url(#strokeB)" stroke-width="1.2" opacity="0.65"/>
  <polygon points="1793.8,1002.2 1788.2,1022.7 1773.3,1007.6" fill="#7C4DFF" opacity="0.22" filter="url(#softGlow)"/>
</g>


<g opacity="0.377" filter="url(#hardGlow)">
  <circle cx="1834.4" cy="1018.9" r="25.6" fill="#0A1224" opacity="0.65"/>
  <circle cx="1834.4" cy="1018.9" r="25.6" fill="none" stroke="url(#strokeA)" stroke-width="2.1" opacity="0.85"/>
  <circle cx="1834.4" cy="1018.9" r="22.1" fill="none" stroke="#FFB300" stroke-width="1.5" opacity="0.35"/>
  <polygon points="1840.0,1036.6 1821.9,1032.5 1816.4,1014.9 1828.9,1001.3 1846.9,1005.3 1852.5,1023.0" fill="none" stroke="url(#strokeB)" stroke-width="1.2" opacity="0.65"/>
  <polygon points="1834.1,1025.4 1829.0,1015.5 1840.2,1016.0" fill="#FFB300" opacity="0.22" filter="url(#softGlow)"/>
</g>


<g opacity="0.505" filter="url(#hardGlow)">
  <circle cx="1789.9" cy="1066.8" r="20.6" fill="#0A1224" opacity="0.65"/>
  <circle cx="1789.9" cy="1066.8" r="20.6" fill="none" stroke="url(#strokeA)" stroke-width="2.0" opacity="0.85"/>
  <circle cx="1789.9" cy="1066.8" r="17.7" fill="none" stroke="#FFB300" stroke-width="1.5" opacity="0.35"/>
  <polygon points="1804.6,1068.4 1795.8,1080.4 1781.1,1078.7 1775.2,1065.1 1784.0,1053.2 1798.7,1054.8" fill="none" stroke="url(#strokeB)" stroke-width="1.2" opacity="0.65"/>
  
</g>


<g opacity="0.885" filter="url(#hardGlow)">
  <circle cx="91.0" cy="732.0" r="41.1" fill="#0A1224" opacity="0.65"/>
  <circle cx="91.0" cy="732.0" r="41.1" fill="none" stroke="url(#strokeA)" stroke-width="3.3" opacity="0.85"/>
  <circle cx="91.0" cy="732.0" r="35.3" fill="none" stroke="#7C4DFF" stroke-width="1.5" opacity="0.35"/>
  <polygon points="61.6,735.3 73.5,708.2 102.8,704.9 120.4,728.7 108.6,755.8 79.2,759.1" fill="none" stroke="url(#strokeB)" stroke-width="1.2" opacity="0.65"/>
  <polygon points="81.0,729.6 98.2,724.5 93.9,741.9" fill="#7C4DFF" opacity="0.22" filter="url(#softGlow)"/>
</g>


<g opacity="0.520" filter="url(#hardGlow)">
  <circle cx="63.8" cy="748.5" r="21.6" fill="#0A1224" opacity="0.65"/>
  <circle cx="63.8" cy="748.5" r="21.6" fill="none" stroke="url(#strokeA)" stroke-width="2.0" opacity="0.85"/>
  <circle cx="63.8" cy="748.5" r="18.6" fill="none" stroke="#FFB300" stroke-width="1.5" opacity="0.35"/>
  <polygon points="49.9,741.6 62.8,733.0 76.7,739.9 77.7,755.4 64.7,764.0 50.8,757.1" fill="none" stroke="url(#strokeB)" stroke-width="1.2" opacity="0.65"/>
  <polygon points="60.0,744.6 69.0,747.2 62.2,753.7" fill="#FFB300" opacity="0.22" filter="url(#softGlow)"/>
</g>


<g opacity="0.503" filter="url(#hardGlow)">
  <circle cx="76.3" cy="724.2" r="15.8" fill="#0A1224" opacity="0.65"/>
  <circle cx="76.3" cy="724.2" r="15.8" fill="none" stroke="url(#strokeA)" stroke-width="2.0" opacity="0.85"/>
  <circle cx="76.3" cy="724.2" r="13.6" fill="none" stroke="#FFB300" stroke-width="1.5" opacity="0.35"/>
  <polygon points="81.7,714.2 87.7,723.8 82.4,733.8 71.0,734.2 65.0,724.6 70.3,714.6" fill="none" stroke="url(#strokeB)" stroke-width="1.2" opacity="0.65"/>
  
</g>


<g opacity="0.698" filter="url(#hardGlow)">
  <circle cx="549.6" cy="1071.1" r="51.7" fill="#0A1224" opacity="0.65"/>
  <circle cx="549.6" cy="1071.1" r="51.7" fill="none" stroke="url(#strokeA)" stroke-width="4.1" opacity="0.85"/>
  <circle cx="549.6" cy="1071.1" r="44.5" fill="none" stroke="#7C4DFF" stroke-width="1.6" opacity="0.35"/>
  <polygon points="523.5,1097.7 513.5,1061.9 539.5,1035.2 575.6,1044.5 585.7,1080.3 559.6,1107.0" fill="none" stroke="url(#strokeB)" stroke-width="1.3" opacity="0.65"/>
  <polygon points="537.8,1076.7 550.6,1058.1 560.3,1078.5" fill="#7C4DFF" opacity="0.22" filter="url(#softGlow)"/>
</g>


<g opacity="0.626" filter="url(#hardGlow)">
  <circle cx="567.7" cy="1083.2" r="18.7" fill="#0A1224" opacity="0.65"/>
  <circle cx="567.7" cy="1083.2" r="18.7" fill="none" stroke="url(#strokeA)" stroke-width="2.0" opacity="0.85"/>
  <circle cx="567.7" cy="1083.2" r="16.1" fill="none" stroke="#FFB300" stroke-width="1.5" opacity="0.35"/>
  <polygon points="559.1,1093.5 554.5,1080.9 563.1,1070.5 576.4,1072.8 581.0,1085.5 572.4,1095.9" fill="none" stroke="url(#strokeB)" stroke-width="1.2" opacity="0.65"/>
  
</g>


<g opacity="0.692" filter="url(#hardGlow)">
  <circle cx="1871.8" cy="960.3" r="66.7" fill="#0A1224" opacity="0.65"/>
  <circle cx="1871.8" cy="960.3" r="66.7" fill="none" stroke="url(#strokeA)" stroke-width="5.3" opacity="0.85"/>
  <circle cx="1871.8" cy="960.3" r="57.3" fill="none" stroke="#7C4DFF" stroke-width="2.0" opacity="0.35"/>
  <polygon points="1907.4,992.5 1861.7,1007.2 1826.1,975.0 1836.2,928.1 1881.9,913.4 1917.5,945.6" fill="none" stroke="url(#strokeB)" stroke-width="1.7" opacity="0.65"/>
  <polygon points="1879.7,975.2 1855.0,959.7 1880.8,946.1" fill="#7C4DFF" opacity="0.22" filter="url(#softGlow)"/>
</g>


<g opacity="0.423" filter="url(#hardGlow)">
  <circle cx="1883.1" cy="910.9" r="27.0" fill="#0A1224" opacity="0.65"/>
  <circle cx="1883.1" cy="910.9" r="27.0" fill="none" stroke="url(#strokeA)" stroke-width="2.2" opacity="0.85"/>
  <circle cx="1883.1" cy="910.9" r="23.2" fill="none" stroke="#FFB300" stroke-width="1.5" opacity="0.35"/>
  <polygon points="1864.0,914.1 1870.8,895.9 1890.0,892.8 1902.3,907.8 1895.4,926.0 1876.3,929.1" fill="none" stroke="url(#strokeB)" stroke-width="1.2" opacity="0.65"/>
  <polygon points="1876.4,909.7 1887.5,905.8 1885.4,917.3" fill="#FFB300" opacity="0.22" filter="url(#softGlow)"/>
</g>


<g opacity="0.310" transform="translate(119.1,1056.6) rotate(-1.1)" filter="url(#softGlow)">
  <rect x="-101.8" y="-71.4" width="203.5" height="142.9" rx="14.3" fill="#050A12" opacity="0.25"/>
  <rect x="-101.8" y="-71.4" width="203.5" height="142.9" rx="14.3" fill="none" stroke="url(#strokeA)" stroke-width="7.1" opacity="0.85"/>
  <rect x="-90.3" y="-60.0" width="180.6" height="120.0" rx="10.0" fill="none" stroke="#FFB300" stroke-width="2.9" opacity="0.35"/>
</g>


<g opacity="0.262" transform="translate(1488.1,995.5) rotate(-2.0)" filter="url(#softGlow)">
  <rect x="-87.4" y="-81.9" width="174.7" height="163.8" rx="16.4" fill="#050A12" opacity="0.25"/>
  <rect x="-87.4" y="-81.9" width="174.7" height="163.8" rx="16.4" fill="none" stroke="url(#strokeA)" stroke-width="8.2" opacity="0.85"/>
  <rect x="-74.3" y="-68.8" width="148.5" height="137.6" rx="11.5" fill="none" stroke="#FFB300" stroke-width="3.3" opacity="0.35"/>
</g>


<g opacity="0.287" transform="translate(1812.6,961.1) rotate(2.9)" filter="url(#softGlow)">
  <rect x="-86.5" y="-64.3" width="173.0" height="128.7" rx="12.9" fill="#050A12" opacity="0.25"/>
  <rect x="-86.5" y="-64.3" width="173.0" height="128.7" rx="12.9" fill="none" stroke="url(#strokeA)" stroke-width="6.4" opacity="0.85"/>
  <rect x="-76.2" y="-54.0" width="152.4" height="108.1" rx="9.0" fill="none" stroke="#FFB300" stroke-width="2.6" opacity="0.35"/>
</g>


<g opacity="0.407" transform="translate(1731.6,590.7) rotate(1.9)" filter="url(#softGlow)">
  <rect x="-90.8" y="-78.2" width="181.7" height="156.4" rx="15.6" fill="#050A12" opacity="0.25"/>
  <rect x="-90.8" y="-78.2" width="181.7" height="156.4" rx="15.6" fill="none" stroke="url(#strokeA)" stroke-width="7.8" opacity="0.85"/>
  <rect x="-78.3" y="-65.7" width="156.7" height="131.4" rx="11.0" fill="none" stroke="#7C4DFF" stroke-width="3.1" opacity="0.35"/>
</g>


<g opacity="0.263" transform="translate(1899.2,874.5) rotate(1.7)" filter="url(#softGlow)">
  <rect x="-40.5" y="-23.3" width="80.9" height="46.6" rx="14.2" fill="none" stroke="#FFB300" stroke-width="7.8" opacity="0.55"/>
  <rect x="-17.8" y="-11.7" width="80.9" height="46.6" rx="14.2" fill="none" stroke="url(#strokeA)" stroke-width="6.5" opacity="0.55"/>
</g>


<g opacity="0.379" transform="translate(1715.0,1050.5) rotate(-12.6)" filter="url(#softGlow)">
  <rect x="-39.5" y="-22.7" width="79.0" height="45.5" rx="13.9" fill="none" stroke="#FFB300" stroke-width="7.6" opacity="0.55"/>
  <rect x="-17.4" y="-11.4" width="79.0" height="45.5" rx="13.9" fill="none" stroke="url(#strokeA)" stroke-width="6.3" opacity="0.55"/>
</g>


<g opacity="0.249" transform="translate(1906.3,110.7) rotate(5.0)" filter="url(#softGlow)">
  <rect x="-60.2" y="-34.7" width="120.4" height="69.4" rx="21.2" fill="none" stroke="#FFB300" stroke-width="11.6" opacity="0.55"/>
  <rect x="-26.5" y="-17.3" width="120.4" height="69.4" rx="21.2" fill="none" stroke="url(#strokeA)" stroke-width="9.6" opacity="0.55"/>
</g>


<g opacity="0.348" transform="translate(175.3,4.8) rotate(-4.4)" filter="url(#softGlow)">
  <rect x="-34.3" y="-19.8" width="68.7" height="39.6" rx="12.1" fill="none" stroke="#7C4DFF" stroke-width="6.6" opacity="0.55"/>
  <rect x="-15.1" y="-9.9" width="68.7" height="39.6" rx="12.1" fill="none" stroke="url(#strokeA)" stroke-width="5.5" opacity="0.55"/>
</g>


<g opacity="0.241" transform="translate(1791.4,767.8) rotate(5.9)" filter="url(#softGlow)">
  <rect x="-44.1" y="-25.4" width="88.2" height="50.8" rx="15.5" fill="none" stroke="#FFB300" stroke-width="8.5" opacity="0.55"/>
  <rect x="-19.4" y="-12.7" width="88.2" height="50.8" rx="15.5" fill="none" stroke="url(#strokeA)" stroke-width="7.1" opacity="0.55"/>
</g>


<g opacity="0.436" transform="translate(1746.7,175.6) rotate(-4.4)" filter="url(#softGlow)">
  <rect x="-50.8" y="-29.2" width="101.5" height="58.5" rx="17.9" fill="none" stroke="#FFB300" stroke-width="9.7" opacity="0.55"/>
  <rect x="-22.3" y="-14.6" width="101.5" height="58.5" rx="17.9" fill="none" stroke="url(#strokeA)" stroke-width="8.1" opacity="0.55"/>
</g>


<g opacity="0.468" transform="translate(1793.6,21.9) rotate(-4.5)" filter="url(#softGlow)">
  <rect x="-55.1" y="-31.7" width="110.1" height="63.4" rx="19.4" fill="none" stroke="#7C4DFF" stroke-width="10.6" opacity="0.55"/>
  <rect x="-24.2" y="-15.9" width="110.1" height="63.4" rx="19.4" fill="none" stroke="url(#strokeA)" stroke-width="8.8" opacity="0.55"/>
</g>


<g opacity="0.278" transform="translate(94.0,77.4) rotate(-14.8)" filter="url(#softGlow)">
  <rect x="-40.2" y="-23.1" width="80.3" height="46.3" rx="14.1" fill="none" stroke="#FFB300" stroke-width="7.7" opacity="0.55"/>
  <rect x="-17.7" y="-11.6" width="80.3" height="46.3" rx="14.1" fill="none" stroke="url(#strokeA)" stroke-width="6.4" opacity="0.55"/>
</g>


<g opacity="0.443" transform="translate(90.7,583.9) rotate(17.0)" filter="url(#softGlow)">
  <rect x="-49.2" y="-28.3" width="98.4" height="56.7" rx="17.3" fill="none" stroke="#7C4DFF" stroke-width="9.4" opacity="0.55"/>
  <rect x="-21.6" y="-14.2" width="98.4" height="56.7" rx="17.3" fill="none" stroke="url(#strokeA)" stroke-width="7.9" opacity="0.55"/>
</g>


<g opacity="0.204">
  <line x1="668.0" y1="887.2" x2="668.0" y2="993.3" stroke="#FFB300" stroke-width="1.86" opacity="0.45"/>
  <rect x="664.0" y="948.8" width="7.9" height="46.6" rx="2.6" fill="#0B1020" opacity="0.55" stroke="url(#strokeA)" stroke-width="1.2"/>
</g>

<g opacity="0.204">
  <line x1="1322.7" y1="915.8" x2="1322.7" y2="986.2" stroke="#FFB300" stroke-width="1.45" opacity="0.45"/>
  <rect x="1317.9" y="962.5" width="9.6" height="19.1" rx="3.2" fill="#0B1020" opacity="0.55" stroke="url(#strokeA)" stroke-width="1.2"/>
</g>

<g opacity="0.204">
  <line x1="1512.2" y1="913.9" x2="1512.2" y2="986.6" stroke="#FFB300" stroke-width="1.17" opacity="0.45"/>
  <rect x="1507.5" y="955.3" width="9.3" height="33.6" rx="3.1" fill="#0B1020" opacity="0.55" stroke="url(#strokeA)" stroke-width="1.2"/>
</g>

<g opacity="0.204">
  <line x1="1743.1" y1="898.1" x2="1743.1" y2="990.6" stroke="#FFB300" stroke-width="1.55" opacity="0.45"/>
  <rect x="1737.3" y="942.4" width="11.6" height="59.4" rx="3.9" fill="#0B1020" opacity="0.55" stroke="url(#strokeA)" stroke-width="1.2"/>
</g>

<g opacity="0.204">
  <line x1="803.1" y1="928.1" x2="803.1" y2="983.1" stroke="#FFB300" stroke-width="1.66" opacity="0.45"/>
  <rect x="797.2" y="962.7" width="11.9" height="18.9" rx="4.0" fill="#0B1020" opacity="0.55" stroke="url(#strokeA)" stroke-width="1.2"/>
</g>

<g opacity="0.204">
  <line x1="1755.1" y1="919.0" x2="1755.1" y2="985.4" stroke="#FFB300" stroke-width="1.24" opacity="0.45"/>
  <rect x="1751.0" y="961.1" width="8.2" height="22.0" rx="2.7" fill="#0B1020" opacity="0.55" stroke="url(#strokeA)" stroke-width="1.2"/>
</g>

<g opacity="0.204">
  <line x1="785.6" y1="917.0" x2="785.6" y2="985.9" stroke="#FFB300" stroke-width="1.66" opacity="0.45"/>
  <rect x="781.1" y="951.8" width="9.0" height="40.6" rx="3.0" fill="#0B1020" opacity="0.55" stroke="url(#strokeA)" stroke-width="1.2"/>
</g>

<g opacity="0.204">
  <line x1="56.2" y1="905.0" x2="56.2" y2="988.9" stroke="#FFB300" stroke-width="1.72" opacity="0.45"/>
  <rect x="52.1" y="952.8" width="8.1" height="38.7" rx="2.7" fill="#0B1020" opacity="0.55" stroke="url(#strokeA)" stroke-width="1.2"/>
</g>

<g opacity="0.204">
  <line x1="322.8" y1="914.1" x2="322.8" y2="986.6" stroke="#FFB300" stroke-width="1.71" opacity="0.45"/>
  <rect x="318.8" y="951.1" width="8.0" height="42.1" rx="2.7" fill="#0B1020" opacity="0.55" stroke="url(#strokeA)" stroke-width="1.2"/>
</g>

<g opacity="0.204">
  <line x1="527.7" y1="905.0" x2="527.7" y2="988.9" stroke="#FFB300" stroke-width="2.17" opacity="0.45"/>
  <rect x="522.2" y="956.6" width="11.1" height="31.0" rx="3.7" fill="#0B1020" opacity="0.55" stroke="url(#strokeA)" stroke-width="1.2"/>
</g>

<g opacity="0.204">
  <line x1="596.1" y1="903.6" x2="596.1" y2="989.2" stroke="#FFB300" stroke-width="2.14" opacity="0.45"/>
  <rect x="592.9" y="947.4" width="6.4" height="49.4" rx="2.1" fill="#0B1020" opacity="0.55" stroke="url(#strokeA)" stroke-width="1.2"/>
</g>

<g opacity="0.204">
  <line x1="234.9" y1="931.5" x2="234.9" y2="982.2" stroke="#FFB300" stroke-width="2.09" opacity="0.45"/>
  <rect x="230.7" y="962.1" width="8.3" height="20.0" rx="2.8" fill="#0B1020" opacity="0.55" stroke="url(#strokeA)" stroke-width="1.2"/>
</g>

<g opacity="0.204">
  <line x1="582.6" y1="923.5" x2="582.6" y2="984.2" stroke="#FFB300" stroke-width="1.53" opacity="0.45"/>
  <rect x="576.6" y="956.1" width="11.9" height="32.0" rx="4.0" fill="#0B1020" opacity="0.55" stroke="url(#strokeA)" stroke-width="1.2"/>
</g>
<circle cx="81.6" cy="953.4" r="1.4" fill="#7C4DFF" opacity="0.28" filter="url(#softGlow)"/>
<circle cx="65.6" cy="1046.6" r="1.9" fill="#7C4DFF" opacity="0.11" filter="url(#softGlow)"/>
<circle cx="1857.2" cy="68.1" r="1.5" fill="#7C4DFF" opacity="0.21" filter="url(#softGlow)"/>
<circle cx="65.7" cy="44.1" r="2.2" fill="#7C4DFF" opacity="0.15" filter="url(#softGlow)"/>
<circle cx="1746.5" cy="180.6" r="2.7" fill="#7C4DFF" opacity="0.14" filter="url(#softGlow)"/>
<circle cx="77.4" cy="872.6" r="3.1" fill="#7C4DFF" opacity="0.12" filter="url(#softGlow)"/>
<circle cx="213.3" cy="136.8" r="2.1" fill="#7C4DFF" opacity="0.25" filter="url(#softGlow)"/>
<circle cx="1748.7" cy="933.2" r="2.7" fill="#7C4DFF" opacity="0.26" filter="url(#softGlow)"/>
<circle cx="1715.2" cy="880.4" r="1.6" fill="#7C4DFF" opacity="0.18" filter="url(#softGlow)"/>
<circle cx="1748.4" cy="844.9" r="2.7" fill="#7C4DFF" opacity="0.19" filter="url(#softGlow)"/>
<circle cx="1758.1" cy="175.3" r="1.9" fill="#7C4DFF" opacity="0.21" filter="url(#softGlow)"/>
<circle cx="1761.2" cy="272.1" r="2.1" fill="#7C4DFF" opacity="0.11" filter="url(#softGlow)"/>
<circle cx="7.6" cy="911.7" r="1.5" fill="#7C4DFF" opacity="0.14" filter="url(#softGlow)"/>
<circle cx="1736.2" cy="795.5" r="2.7" fill="#7C4DFF" opacity="0.20" filter="url(#softGlow)"/>
<circle cx="191.7" cy="926.5" r="3.0" fill="#7C4DFF" opacity="0.25" filter="url(#softGlow)"/>
<circle cx="1813.5" cy="148.6" r="2.2" fill="#7C4DFF" opacity="0.25" filter="url(#softGlow)"/>
<circle cx="884.2" cy="27.2" r="2.0" fill="#7C4DFF" opacity="0.21" filter="url(#softGlow)"/>
<circle cx="1769.4" cy="1046.7" r="1.8" fill="#7C4DFF" opacity="0.21" filter="url(#softGlow)"/>
<circle cx="207.9" cy="105.6" r="1.5" fill="#7C4DFF" opacity="0.16" filter="url(#softGlow)"/>
<circle cx="35.2" cy="1019.2" r="1.9" fill="#7C4DFF" opacity="0.13" filter="url(#softGlow)"/>
<circle cx="1743.9" cy="722.5" r="3.0" fill="#7C4DFF" opacity="0.11" filter="url(#softGlow)"/>
<circle cx="1900.4" cy="316.4" r="1.5" fill="#7C4DFF" opacity="0.12" filter="url(#softGlow)"/>
<circle cx="114.7" cy="63.9" r="1.8" fill="#7C4DFF" opacity="0.20" filter="url(#softGlow)"/>
<circle cx="201.2" cy="341.8" r="2.1" fill="#7C4DFF" opacity="0.28" filter="url(#softGlow)"/>
<circle cx="88.9" cy="12.9" r="2.5" fill="#7C4DFF" opacity="0.13" filter="url(#softGlow)"/>
</svg>