<svg xmlns="http://www.w3.org/2000/svg" width="1920" height="1080" viewBox="0 0 1920 1080" preserveAspectRatio="xMidYMid slice">
<defs>
  <linearGradient id="g0" x1="0" y1="0" x2="1" y2="1">
    <stop offset="0" stop-color="#0B1020"/>
    <stop offset="0.55" stop-color="#00E5FF" stop-opacity="0.9"/>
    <stop offset="1" stop-color="#051018"/>
  </linearGradient>
  <radialGradient id="g1" cx="20%" cy="15%" r="70%">
    <stop offset="0" stop-color="#7C4DFF" stop-opacity="0.38"/>
    <stop offset="0.6" stop-color="#7C4DFF" stop-opacity="0.08"/>
    <stop offset="1" stop-color="#7C4DFF" stop-opacity="0"/>
  </radialGradient>
  <radialGradient id="g2" cx="85%" cy="80%" r="75%">
    <stop offset="0" stop-color="#7C4DFF" stop-opacity="0.28"/>
    <stop offset="0.65" stop-color="#7C4DFF" stop-opacity="0.06"/>
    <stop offset="1" stop-color="#7C4DFF" stop-opacity="0"/>
  </radialGradient>
  <filter id="softGlow" x="-30%" y="-30%" width="160%" height="160%">
    <feGaussianBlur stdDeviation="12" result="b"/>
    <feMerge>
      <feMergeNode in="b"/>
      <feMergeNode in="SourceGraphic"/>
    </feMerge>
  </filter>
  <filter id="hardGlow" x="-40%" y="-40%" width="180%" height="180%">
    <feGaussianBlur stdDeviation="6" result="b"/>
    <feColorMatrix in="b" type="matrix" values="1 0 0 0 0  0 1 0 0 0  0 0 1 0 0  0 0 0 18 -7" result="c"/>
    <feMerge>
      <feMergeNode in="c"/>
      <feMergeNode in="SourceGraphic"/>
    </feMerge>
  </filter>
  <linearGradient id="strokeA" x1="0" y1="0" x2="1" y2="0">
    <stop offset="0" stop-color="#7C4DFF" stop-opacity="0.9"/>
    <stop offset="0.5" stop-color="#FFFFFF" stop-opacity="0.25"/>
    <stop offset="1" stop-color="#7C4DFF" stop-opacity="0.7"/>
  </linearGradient>
  <linearGradient id="strokeB" x1="0" y1="0" x2="0" y2="1">
    <stop offset="0" stop-color="#FFFFFF" stop-opacity="0.18"/>
    <stop offset="1" stop-color="#7C4DFF" stop-opacity="0.55"/>
  </linearGradient>
</defs>
<rect x="0" y="0" width="1920" height="1080" fill="url(#g0)"/>
<rect x="0" y="0" width="1920" height="1080" fill="url(#g1)"/>
<rect x="0" y="0" width="1920" height="1080" fill="url(#g2)"/>


<defs>
  <radialGradient id="vign" cx="0.5000" cy="0.5093" r="0.85">
    <stop offset="0" stop-color="#000000" stop-opacity="0"/>
    <stop offset="0.55" stop-color="#000000" stop-opacity="0.217"/>
    <stop offset="1" stop-color="#000000" stop-opacity="0.620"/>
  </radialGradient>
</defs>
<rect x="0" y="0" width="1920" height="1080" fill="url(#vign)"/>

<g opacity="0.185" filter="url(#softGlow)"><path d="M 41.3,1069.0 L 41.9,1069.0 L 41.9,671.8 L 1868.9,671.8 L 1868.9,83.4 " fill="none" stroke="url(#strokeB)" stroke-width="1.26" stroke-linecap="round" stroke-linejoin="round"/><circle cx="41.3" cy="1069.0" r="3.2" fill="#00E5FF" opacity="0.45"/><circle cx="41.9" cy="1069.0" r="3.9" fill="#00E5FF" opacity="0.45"/><circle cx="41.9" cy="671.8" r="2.1" fill="#00E5FF" opacity="0.45"/></g>
<g opacity="0.185" filter="url(#softGlow)"><path d="M 187.4,549.0 L 1778.4,549.0 L 1778.4,22.7 L 61.7,22.7 L 61.7,955.5 " fill="none" stroke="url(#strokeB)" stroke-width="2.15" stroke-linecap="round" stroke-linejoin="round"/><circle cx="187.4" cy="549.0" r="3.9" fill="#00E5FF" opacity="0.45"/><circle cx="1778.4" cy="22.7" r="2.5" fill="#00E5FF" opacity="0.45"/><circle cx="61.7" cy="22.7" r="3.5" fill="#00E5FF" opacity="0.45"/></g>
<g opacity="0.185" filter="url(#softGlow)"><path d="M 1074.3,61.2 L 1.6,61.2 L 1.6,108.4 L 252.9,108.4 L 252.9,183.9 " fill="none" stroke="url(#strokeB)" stroke-width="2.12" stroke-linecap="round" stroke-linejoin="round"/><circle cx="1.6" cy="61.2" r="3.5" fill="#00E5FF" opacity="0.45"/><circle cx="252.9" cy="108.4" r="2.5" fill="#00E5FF" opacity="0.45"/><circle cx="252.9" cy="183.9" r="2.3" fill="#00E5FF" opacity="0.45"/></g>
<g opacity="0.185" filter="url(#softGlow)"><path d="M 1811.9,632.7 L 1833.9,632.7 L 1833.9,765.0 L 1851.4,765.0 L 1851.4,64.6 " fill="none" stroke="url(#strokeB)" stroke-width="1.79" stroke-linecap="round" stroke-linejoin="round"/><circle cx="1851.4" cy="64.6" r="3.5" fill="#00E5FF" opacity="0.45"/><circle cx="1851.4" cy="765.0" r="2.5" fill="#00E5FF" opacity="0.45"/><circle cx="1811.9" cy="632.7" r="4.1" fill="#00E5FF" opacity="0.45"/></g>
<g opacity="0.185" filter="url(#softGlow)"><path d="M 168.2,868.3 L 934.1,868.3 L 934.1,961.2 L 91.4,961.2 L 91.4,820.8 " fill="none" stroke="url(#strokeB)" stroke-width="1.41" stroke-linecap="round" stroke-linejoin="round"/><circle cx="934.1" cy="961.2" r="2.2" fill="#00E5FF" opacity="0.45"/><circle cx="91.4" cy="961.2" r="3.9" fill="#00E5FF" opacity="0.45"/><circle cx="91.4" cy="820.8" r="3.6" fill="#00E5FF" opacity="0.45"/></g>
<g opacity="0.185" filter="url(#softGlow)"><path d="M 1827.7,39.4 L 1900.4,39.4 L 1900.4,404.7 L 1766.7,404.7 L 1766.7,881.7 " fill="none" stroke="url(#strokeB)" stroke-width="1.18" stroke-linecap="round" stroke-linejoin="round"/><circle cx="1900.4" cy="404.7" r="3.5" fill="#00E5FF" opacity="0.45"/><circle cx="1766.7" cy="404.7" r="2.2" fill="#00E5FF" opacity="0.45"/><circle cx="1900.4" cy="39.4" r="3.9" fill="#00E5FF" opacity="0.45"/></g>
<g opacity="0.185" filter="url(#softGlow)"><path d="M 1816.0,924.0 L 90.9,924.0 L 90.9,190.1 L 167.4,190.1 L 167.4,688.3 " fill="none" stroke="url(#strokeB)" stroke-width="1.38" stroke-linecap="round" stroke-linejoin="round"/><circle cx="1816.0" cy="924.0" r="4.1" fill="#00E5FF" opacity="0.45"/><circle cx="167.4" cy="190.1" r="4.0" fill="#00E5FF" opacity="0.45"/><circle cx="167.4" cy="688.3" r="2.8" fill="#00E5FF" opacity="0.45"/></g>
<g opacity="0.185" filter="url(#softGlow)"><path d="M 1664.7,210.2 L 1917.7,210.2 L 1917.7,212.8 L 1784.3,212.8 L 1784.3,171.7 " fill="none" stroke="url(#strokeB)" stroke-width="1.90" stroke-linecap="round" stroke-linejoin="round"/><circle cx="1917.7" cy="212.8" r="2.5" fill="#00E5FF" opacity="0.45"/><circle cx="1784.3" cy="212.8" r="2.2" fill="#00E5FF" opacity="0.45"/><circle cx="1784.3" cy="171.7" r="3.1" fill="#00E5FF" opacity="0.45"/></g>
<g opacity="0.185" filter="url(#softGlow)"><path d="M 81.0,1071.8 L 144.4,1071.8 L 144.4,898.9 L 1790.7,898.9 L 1790.7,180.8 " fill="none" stroke="url(#strokeB)" stroke-width="1.63" stroke-linecap="round" stroke-linejoin="round"/><circle cx="144.4" cy="898.9" r="3.6" fill="#00E5FF" opacity="0.45"/><circle cx="1790.7" cy="898.9" r="4.2" fill="#00E5FF" opacity="0.45"/><circle cx="144.4" cy="1071.8" r="3.1" fill="#00E5FF" opacity="0.45"/></g>
<g opacity="0.185" filter="url(#softGlow)"><path d="M 1876.6,127.9 L 1843.7,127.9 L 1843.7,983.4 L 203.6,983.4 L 203.6,150.1 " fill="none" stroke="url(#strokeB)" stroke-width="1.82" stroke-linecap="round" stroke-linejoin="round"/><circle cx="1843.7" cy="983.4" r="2.6" fill="#00E5FF" opacity="0.45"/><circle cx="1876.6" cy="127.9" r="3.6" fill="#00E5FF" opacity="0.45"/><circle cx="1843.7" cy="127.9" r="3.0" fill="#00E5FF" opacity="0.45"/></g>
<g opacity="0.185" filter="url(#softGlow)"><path d="M 3.3,7.5 L 1497.8,7.5 L 1497.8,22.5 L 194.5,22.5 L 194.5,1058.0 " fill="none" stroke="url(#strokeB)" stroke-width="1.74" stroke-linecap="round" stroke-linejoin="round"/><circle cx="194.5" cy="1058.0" r="3.9" fill="#00E5FF" opacity="0.45"/><circle cx="1497.8" cy="22.5" r="2.2" fill="#00E5FF" opacity="0.45"/><circle cx="3.3" cy="7.5" r="2.1" fill="#00E5FF" opacity="0.45"/></g>
<g opacity="0.185" filter="url(#softGlow)"><path d="M 182.0,894.8 L 193.0,894.8 L 193.0,166.1 L 76.9,166.1 L 76.9,961.6 " fill="none" stroke="url(#strokeB)" stroke-width="1.74" stroke-linecap="round" stroke-linejoin="round"/><circle cx="76.9" cy="166.1" r="2.4" fill="#00E5FF" opacity="0.45"/><circle cx="76.9" cy="961.6" r="4.1" fill="#00E5FF" opacity="0.45"/><circle cx="182.0" cy="894.8" r="4.1" fill="#00E5FF" opacity="0.45"/></g>
<g opacity="0.185" filter="url(#softGlow)"><path d="M 28.5,1036.1 L 1732.8,1036.1 L 1732.8,1001.3 L 17.4,1001.3 L 17.4,671.6 " fill="none" stroke="url(#strokeB)" stroke-width="1.90" stroke-linecap="round" stroke-linejoin="round"/><circle cx="1732.8" cy="1036.1" r="2.9" fill="#00E5FF" opacity="0.45"/><circle cx="17.4" cy="1001.3" r="3.7" fill="#00E5FF" opacity="0.45"/><circle cx="28.5" cy="1036.1" r="3.9" fill="#00E5FF" opacity="0.45"/></g>
<g opacity="0.185" filter="url(#softGlow)"><path d="M 1888.0,26.6 L 1841.2,26.6 L 1841.2,542.9 L 1796.2,542.9 L 1796.2,143.7 " fill="none" stroke="url(#strokeB)" stroke-width="1.70" stroke-linecap="round" stroke-linejoin="round"/><circle cx="1888.0" cy="26.6" r="2.9" fill="#00E5FF" opacity="0.45"/><circle cx="1841.2" cy="26.6" r="4.0" fill="#00E5FF" opacity="0.45"/><circle cx="1796.2" cy="542.9" r="3.4" fill="#00E5FF" opacity="0.45"/></g>
<g opacity="0.185" filter="url(#softGlow)"><path d="M 203.0,885.6 L 185.4,885.6 L 185.4,124.6 L 1725.9,124.6 L 1725.9,1016.6 " fill="none" stroke="url(#strokeB)" stroke-width="1.68" stroke-linecap="round" stroke-linejoin="round"/><circle cx="203.0" cy="885.6" r="2.7" fill="#00E5FF" opacity="0.45"/><circle cx="1725.9" cy="1016.6" r="2.5" fill="#00E5FF" opacity="0.45"/><circle cx="1725.9" cy="124.6" r="2.2" fill="#00E5FF" opacity="0.45"/></g>
<g opacity="0.185" filter="url(#softGlow)"><path d="M 1875.0,986.8 L 90.4,986.8 L 90.4,194.5 L 721.5,194.5 L 721.5,1061.4 " fill="none" stroke="url(#strokeB)" stroke-width="1.70" stroke-linecap="round" stroke-linejoin="round"/><circle cx="721.5" cy="1061.4" r="2.9" fill="#00E5FF" opacity="0.45"/><circle cx="90.4" cy="194.5" r="3.1" fill="#00E5FF" opacity="0.45"/><circle cx="1875.0" cy="986.8" r="3.9" fill="#00E5FF" opacity="0.45"/></g>
<g opacity="0.185" filter="url(#softGlow)"><path d="M 18.7,254.7 L 1859.2,254.7 L 1859.2,461.8 L 121.0,461.8 L 121.0,988.5 " fill="none" stroke="url(#strokeB)" stroke-width="1.44" stroke-linecap="round" stroke-linejoin="round"/><circle cx="1859.2" cy="254.7" r="3.6" fill="#00E5FF" opacity="0.45"/><circle cx="18.7" cy="254.7" r="3.9" fill="#00E5FF" opacity="0.45"/><circle cx="1859.2" cy="461.8" r="3.7" fill="#00E5FF" opacity="0.45"/></g>
<g opacity="0.185" filter="url(#softGlow)"><path d="M 1863.9,147.3 L 1825.6,147.3 L 1825.6,903.4 L 199.8,903.4 L 199.8,851.8 " fill="none" stroke="url(#strokeB)" stroke-width="1.85" stroke-linecap="round" stroke-linejoin="round"/><circle cx="1825.6" cy="903.4" r="2.3" fill="#00E5FF" opacity="0.45"/><circle cx="1825.6" cy="147.3" r="2.5" fill="#00E5FF" opacity="0.45"/><circle cx="199.8" cy="851.8" r="3.7" fill="#00E5FF" opacity="0.45"/></g>
<g opacity="0.185" filter="url(#softGlow)"><path d="M 1799.2,871.5 L 85.5,871.5 L 85.5,162.8 L 695.7,162.8 L 695.7,62.9 " fill="none" stroke="url(#strokeB)" stroke-width="1.65" stroke-linecap="round" stroke-linejoin="round"/><circle cx="85.5" cy="162.8" r="2.5" fill="#00E5FF" opacity="0.45"/><circle cx="695.7" cy="62.9" r="3.9" fill="#00E5FF" opacity="0.45"/><circle cx="1799.2" cy="871.5" r="2.1" fill="#00E5FF" opacity="0.45"/></g>
<g opacity="0.185" filter="url(#softGlow)"><path d="M 176.7,432.9 L 1088.9,432.9 L 1088.9,134.6 L 1912.8,134.6 L 1912.8,960.5 " fill="none" stroke="url(#strokeB)" stroke-width="2.11" stroke-linecap="round" stroke-linejoin="round"/><circle cx="176.7" cy="432.9" r="2.3" fill="#00E5FF" opacity="0.45"/><circle cx="1088.9" cy="432.9" r="3.9" fill="#00E5FF" opacity="0.45"/><circle cx="1912.8" cy="134.6" r="2.7" fill="#00E5FF" opacity="0.45"/></g>

<g opacity="0.756" filter="url(#hardGlow)">
  <circle cx="12.8" cy="1068.0" r="59.8" fill="#0A1224" opacity="0.65"/>
  <circle cx="12.8" cy="1068.0" r="59.8" fill="none" stroke="url(#strokeA)" stroke-width="4.8" opacity="0.85"/>
  <circle cx="12.8" cy="1068.0" r="51.4" fill="none" stroke="#FFB300" stroke-width="1.8" opacity="0.35"/>
  <polygon points="51.7,1049.6 48.2,1092.5 9.2,1110.9 -26.1,1086.4 -22.6,1043.5 16.4,1025.1" fill="none" stroke="url(#strokeB)" stroke-width="1.5" opacity="0.65"/>
  <polygon points="27.8,1066.6 6.5,1081.7 4.1,1055.7" fill="#FFB300" opacity="0.22" filter="url(#softGlow)"/>
</g>


<g opacity="0.355" filter="url(#hardGlow)">
  <circle cx="89.8" cy="1042.4" r="31.5" fill="#0A1224" opacity="0.65"/>
  <circle cx="89.8" cy="1042.4" r="31.5" fill="none" stroke="url(#strokeA)" stroke-width="2.5" opacity="0.85"/>
  <circle cx="89.8" cy="1042.4" r="27.1" fill="none" stroke="#00E5FF" stroke-width="1.5" opacity="0.35"/>
  <polygon points="100.7,1022.5 112.5,1041.8 101.7,1061.8 79.0,1062.3 67.1,1043.0 78.0,1023.0" fill="none" stroke="url(#strokeB)" stroke-width="1.2" opacity="0.65"/>
  
</g>


<g opacity="0.473" filter="url(#hardGlow)">
  <circle cx="87.6" cy="1031.9" r="32.3" fill="#0A1224" opacity="0.65"/>
  <circle cx="87.6" cy="1031.9" r="32.3" fill="none" stroke="url(#strokeA)" stroke-width="2.6" opacity="0.85"/>
  <circle cx="87.6" cy="1031.9" r="27.8" fill="none" stroke="#00E5FF" stroke-width="1.5" opacity="0.35"/>
  <polygon points="80.6,1009.7 103.3,1014.8 110.3,1036.9 94.6,1054.1 71.8,1049.1 64.8,1026.9" fill="none" stroke="url(#strokeB)" stroke-width="1.2" opacity="0.65"/>
  <polygon points="87.9,1023.8 94.4,1036.3 80.3,1035.7" fill="#00E5FF" opacity="0.22" filter="url(#softGlow)"/>
</g>


<g opacity="0.377" filter="url(#hardGlow)">
  <circle cx="-58.3" cy="1053.4" r="24.1" fill="#0A1224" opacity="0.65"/>
  <circle cx="-58.3" cy="1053.4" r="24.1" fill="none" stroke="url(#strokeA)" stroke-width="2.0" opacity="0.85"/>
  <circle cx="-58.3" cy="1053.4" r="20.7" fill="none" stroke="#00E5FF" stroke-width="1.5" opacity="0.35"/>
  <polygon points="-44.7,1042.6 -42.1,1059.8 -55.7,1070.5 -71.8,1064.2 -74.4,1047.0 -60.8,1036.2" fill="none" stroke="url(#strokeB)" stroke-width="1.2" opacity="0.65"/>
  
</g>


<g opacity="0.818" filter="url(#hardGlow)">
  <circle cx="57.7" cy="924.2" r="55.9" fill="#0A1224" opacity="0.65"/>
  <circle cx="57.7" cy="924.2" r="55.9" fill="none" stroke="url(#strokeA)" stroke-width="4.5" opacity="0.85"/>
  <circle cx="57.7" cy="924.2" r="48.1" fill="none" stroke="#FFB300" stroke-width="1.7" opacity="0.35"/>
  <polygon points="86.9,896.5 96.3,935.6 67.1,963.3 28.5,951.9 19.1,912.8 48.3,885.0" fill="none" stroke="url(#strokeB)" stroke-width="1.4" opacity="0.65"/>
  <polygon points="70.6,918.6 56.1,938.2 46.3,915.8" fill="#FFB300" opacity="0.22" filter="url(#softGlow)"/>
</g>


<g opacity="0.521" filter="url(#hardGlow)">
  <circle cx="-11.4" cy="892.2" r="29.8" fill="#0A1224" opacity="0.65"/>
  <circle cx="-11.4" cy="892.2" r="29.8" fill="none" stroke="url(#strokeA)" stroke-width="2.4" opacity="0.85"/>
  <circle cx="-11.4" cy="892.2" r="25.7" fill="none" stroke="#00E5FF" stroke-width="1.5" opacity="0.35"/>
  <polygon points="-4.9,912.7 -25.8,908.1 -32.3,887.6 -17.9,871.7 3.1,876.3 9.6,896.8" fill="none" stroke="url(#strokeB)" stroke-width="1.2" opacity="0.65"/>
  <polygon points="-11.7,899.7 -17.7,888.2 -4.7,888.7" fill="#00E5FF" opacity="0.22" filter="url(#softGlow)"/>
</g>


<g opacity="0.640" filter="url(#hardGlow)">
  <circle cx="23.5" cy="916.9" r="27.6" fill="#0A1224" opacity="0.65"/>
  <circle cx="23.5" cy="916.9" r="27.6" fill="none" stroke="url(#strokeA)" stroke-width="2.2" opacity="0.85"/>
  <circle cx="23.5" cy="916.9" r="23.7" fill="none" stroke="#00E5FF" stroke-width="1.5" opacity="0.35"/>
  <polygon points="12.7,900.2 32.5,899.2 43.3,915.9 34.2,933.6 14.4,934.6 3.6,917.9" fill="none" stroke="url(#strokeB)" stroke-width="1.2" opacity="0.65"/>
  <polygon points="21.9,910.1 30.1,919.0 18.4,921.6" fill="#00E5FF" opacity="0.22" filter="url(#softGlow)"/>
</g>


<g opacity="0.481" filter="url(#hardGlow)">
  <circle cx="-24.8" cy="886.5" r="19.8" fill="#0A1224" opacity="0.65"/>
  <circle cx="-24.8" cy="886.5" r="19.8" fill="none" stroke="url(#strokeA)" stroke-width="2.0" opacity="0.85"/>
  <circle cx="-24.8" cy="886.5" r="17.0" fill="none" stroke="#00E5FF" stroke-width="1.5" opacity="0.35"/>
  <polygon points="-36.1,877.8 -23.0,872.4 -11.7,881.1 -13.6,895.2 -26.7,900.6 -38.0,891.9" fill="none" stroke="url(#strokeB)" stroke-width="1.2" opacity="0.65"/>
  
</g>


<g opacity="0.902" filter="url(#hardGlow)">
  <circle cx="1871.6" cy="1056.0" r="64.1" fill="#0A1224" opacity="0.65"/>
  <circle cx="1871.6" cy="1056.0" r="64.1" fill="none" stroke="url(#strokeA)" stroke-width="5.1" opacity="0.85"/>
  <circle cx="1871.6" cy="1056.0" r="55.2" fill="none" stroke="#FFB300" stroke-width="1.9" opacity="0.35"/>
  <polygon points="1826.5,1065.9 1840.4,1021.9 1885.5,1011.9 1916.7,1046.0 1902.8,1090.0 1857.7,1100.0" fill="none" stroke="url(#strokeB)" stroke-width="1.6" opacity="0.65"/>
  <polygon points="1855.6,1053.8 1881.4,1043.1 1877.8,1070.9" fill="#FFB300" opacity="0.22" filter="url(#softGlow)"/>
</g>


<g opacity="0.590" filter="url(#hardGlow)">
  <circle cx="1858.9" cy="1126.6" r="32.9" fill="#0A1224" opacity="0.65"/>
  <circle cx="1858.9" cy="1126.6" r="32.9" fill="none" stroke="url(#strokeA)" stroke-width="2.6" opacity="0.85"/>
  <circle cx="1858.9" cy="1126.6" r="28.3" fill="none" stroke="#00E5FF" stroke-width="1.5" opacity="0.35"/>
  <polygon points="1862.5,1103.1 1881.0,1118.0 1877.4,1141.4 1855.3,1150.0 1836.8,1135.1 1840.4,1111.7" fill="none" stroke="url(#strokeB)" stroke-width="1.2" opacity="0.65"/>
  <polygon points="1862.9,1119.3 1863.2,1133.7 1850.6,1126.7" fill="#00E5FF" opacity="0.22" filter="url(#softGlow)"/>
</g>


<g opacity="0.832" filter="url(#hardGlow)">
  <circle cx="1886.4" cy="450.5" r="67.3" fill="#0A1224" opacity="0.65"/>
  <circle cx="1886.4" cy="450.5" r="67.3" fill="none" stroke="url(#strokeA)" stroke-width="5.4" opacity="0.85"/>
  <circle cx="1886.4" cy="450.5" r="57.9" fill="none" stroke="#FFB300" stroke-width="2.0" opacity="0.35"/>
  <polygon points="1933.2,437.9 1920.8,484.7 1873.9,497.3 1839.6,463.1 1852.1,416.2 1898.9,403.6" fill="none" stroke="url(#strokeB)" stroke-width="1.7" opacity="0.65"/>
  <polygon points="1903.3,451.9 1876.7,464.4 1879.2,435.1" fill="#FFB300" opacity="0.22" filter="url(#softGlow)"/>
</g>


<g opacity="0.496" filter="url(#hardGlow)">
  <circle cx="1825.6" cy="407.6" r="37.0" fill="#0A1224" opacity="0.65"/>
  <circle cx="1825.6" cy="407.6" r="37.0" fill="none" stroke="url(#strokeA)" stroke-width="3.0" opacity="0.85"/>
  <circle cx="1825.6" cy="407.6" r="31.8" fill="none" stroke="#00E5FF" stroke-width="1.5" opacity="0.35"/>
  <polygon points="1799.2,410.7 1809.7,386.2 1836.1,383.1 1852.1,404.4 1841.6,428.9 1815.1,432.0" fill="none" stroke="url(#strokeB)" stroke-width="1.2" opacity="0.65"/>
  <polygon points="1816.6,405.4 1832.0,400.8 1828.3,416.5" fill="#00E5FF" opacity="0.22" filter="url(#softGlow)"/>
</g>


<g opacity="0.437" filter="url(#hardGlow)">
  <circle cx="1856.0" cy="404.8" r="35.6" fill="#0A1224" opacity="0.65"/>
  <circle cx="1856.0" cy="404.8" r="35.6" fill="none" stroke="url(#strokeA)" stroke-width="2.9" opacity="0.85"/>
  <circle cx="1856.0" cy="404.8" r="30.7" fill="none" stroke="#00E5FF" stroke-width="1.5" opacity="0.35"/>
  <polygon points="1879.9,414.0 1860.0,430.1 1836.0,420.9 1832.0,395.6 1851.9,379.4 1875.9,388.6" fill="none" stroke="url(#strokeB)" stroke-width="1.2" opacity="0.65"/>
  
</g>


<g opacity="0.581" filter="url(#hardGlow)">
  <circle cx="1965.1" cy="379.4" r="36.6" fill="#0A1224" opacity="0.65"/>
  <circle cx="1965.1" cy="379.4" r="36.6" fill="none" stroke="url(#strokeA)" stroke-width="2.9" opacity="0.85"/>
  <circle cx="1965.1" cy="379.4" r="31.4" fill="none" stroke="#00E5FF" stroke-width="1.5" opacity="0.35"/>
  <polygon points="1963.0,353.1 1986.8,364.4 1988.9,390.7 1967.2,405.6 1943.4,394.3 1941.4,368.1" fill="none" stroke="url(#strokeB)" stroke-width="1.2" opacity="0.65"/>
  <polygon points="1967.6,370.5 1971.6,385.9 1956.2,381.7" fill="#00E5FF" opacity="0.22" filter="url(#softGlow)"/>
</g>


<g opacity="0.652" filter="url(#hardGlow)">
  <circle cx="1880.6" cy="3.6" r="55.6" fill="#0A1224" opacity="0.65"/>
  <circle cx="1880.6" cy="3.6" r="55.6" fill="none" stroke="url(#strokeA)" stroke-width="4.4" opacity="0.85"/>
  <circle cx="1880.6" cy="3.6" r="47.8" fill="none" stroke="#FFB300" stroke-width="1.7" opacity="0.35"/>
  <polygon points="1842.0,13.9 1852.4,-24.7 1891.1,-35.0 1919.3,-6.7 1908.9,32.0 1870.2,42.2" fill="none" stroke="url(#strokeB)" stroke-width="1.4" opacity="0.65"/>
  <polygon points="1866.7,2.4 1888.7,-7.8 1886.5,16.3" fill="#FFB300" opacity="0.22" filter="url(#softGlow)"/>
</g>


<g opacity="0.582" filter="url(#hardGlow)">
  <circle cx="1828.5" cy="15.1" r="22.5" fill="#0A1224" opacity="0.65"/>
  <circle cx="1828.5" cy="15.1" r="22.5" fill="none" stroke="url(#strokeA)" stroke-width="2.0" opacity="0.85"/>
  <circle cx="1828.5" cy="15.1" r="19.4" fill="none" stroke="#00E5FF" stroke-width="1.5" opacity="0.35"/>
  <polygon points="1832.2,30.9 1816.7,26.3 1812.9,10.5 1824.7,-0.6 1840.2,4.0 1844.0,19.8" fill="none" stroke="url(#strokeB)" stroke-width="1.2" opacity="0.65"/>
  <polygon points="1827.8,20.8 1823.9,11.8 1833.7,12.9" fill="#00E5FF" opacity="0.22" filter="url(#softGlow)"/>
</g>


<g opacity="0.428" filter="url(#hardGlow)">
  <circle cx="1924.3" cy="12.7" r="19.7" fill="#0A1224" opacity="0.65"/>
  <circle cx="1924.3" cy="12.7" r="19.7" fill="none" stroke="url(#strokeA)" stroke-width="2.0" opacity="0.85"/>
  <circle cx="1924.3" cy="12.7" r="16.9" fill="none" stroke="#00E5FF" stroke-width="1.5" opacity="0.35"/>
  <polygon points="1936.3,5.2 1936.8,19.4 1924.8,26.9 1912.3,20.2 1911.8,6.1 1923.8,-1.4" fill="none" stroke="url(#strokeB)" stroke-width="1.2" opacity="0.65"/>
  
</g>


<g opacity="0.398" transform="translate(1836.8,1060.5) rotate(2.4)" filter="url(#softGlow)">
  <rect x="-79.3" y="-57.7" width="158.7" height="115.5" rx="11.5" fill="#050A12" opacity="0.25"/>
  <rect x="-79.3" y="-57.7" width="158.7" height="115.5" rx="11.5" fill="none" stroke="url(#strokeA)" stroke-width="5.8" opacity="0.85"/>
  <rect x="-70.1" y="-48.5" width="140.2" height="97.0" rx="8.1" fill="none" stroke="#00E5FF" stroke-width="2.3" opacity="0.35"/>
</g>


<g opacity="0.327" transform="translate(26.1,176.0) rotate(-9.1)" filter="url(#softGlow)">
  <rect x="-99.0" y="-84.5" width="198.1" height="168.9" rx="16.9" fill="#050A12" opacity="0.25"/>
  <rect x="-99.0" y="-84.5" width="198.1" height="168.9" rx="16.9" fill="none" stroke="url(#strokeA)" stroke-width="8.4" opacity="0.85"/>
  <rect x="-85.5" y="-71.0" width="171.0" height="141.9" rx="11.8" fill="none" stroke="#00E5FF" stroke-width="3.4" opacity="0.35"/>
</g>


<g opacity="0.374" transform="translate(754.3,993.4) rotate(-5.2)" filter="url(#softGlow)">
  <rect x="-113.5" y="-79.3" width="227.0" height="158.5" rx="15.9" fill="#050A12" opacity="0.25"/>
  <rect x="-113.5" y="-79.3" width="227.0" height="158.5" rx="15.9" fill="none" stroke="url(#strokeA)" stroke-width="7.9" opacity="0.85"/>
  <rect x="-100.8" y="-66.6" width="201.6" height="133.2" rx="11.1" fill="none" stroke="#FFB300" stroke-width="3.2" opacity="0.35"/>
</g>


<g opacity="0.344" transform="translate(1781.3,991.6) rotate(-6.0)" filter="url(#softGlow)">
  <rect x="-116.5" y="-98.9" width="233.1" height="197.8" rx="19.8" fill="#050A12" opacity="0.25"/>
  <rect x="-116.5" y="-98.9" width="233.1" height="197.8" rx="19.8" fill="none" stroke="url(#strokeA)" stroke-width="9.9" opacity="0.85"/>
  <rect x="-100.7" y="-83.1" width="201.4" height="166.2" rx="13.8" fill="none" stroke="#FFB300" stroke-width="4.0" opacity="0.35"/>
</g>


<g opacity="0.363" transform="translate(190.4,785.6) rotate(-16.6)" filter="url(#softGlow)">
  <rect x="-36.0" y="-20.7" width="72.0" height="41.5" rx="12.7" fill="none" stroke="#FFB300" stroke-width="6.9" opacity="0.55"/>
  <rect x="-15.8" y="-10.4" width="72.0" height="41.5" rx="12.7" fill="none" stroke="url(#strokeA)" stroke-width="5.8" opacity="0.55"/>
</g>


<g opacity="0.351" transform="translate(1744.0,0.1) rotate(-7.8)" filter="url(#softGlow)">
  <rect x="-57.8" y="-33.3" width="115.7" height="66.6" rx="20.4" fill="none" stroke="#FFB300" stroke-width="11.1" opacity="0.55"/>
  <rect x="-25.5" y="-16.7" width="115.7" height="66.6" rx="20.4" fill="none" stroke="url(#strokeA)" stroke-width="9.3" opacity="0.55"/>
</g>


<g opacity="0.429" transform="translate(1827.8,1042.7) rotate(-10.3)" filter="url(#softGlow)">
  <rect x="-51.9" y="-29.9" width="103.9" height="59.8" rx="18.3" fill="none" stroke="#FFB300" stroke-width="10.0" opacity="0.55"/>
  <rect x="-22.9" y="-15.0" width="103.9" height="59.8" rx="18.3" fill="none" stroke="url(#strokeA)" stroke-width="8.3" opacity="0.55"/>
</g>


<g opacity="0.358" transform="translate(1868.6,24.8) rotate(-13.7)" filter="url(#softGlow)">
  <rect x="-56.6" y="-32.6" width="113.2" height="65.2" rx="19.9" fill="none" stroke="#FFB300" stroke-width="10.9" opacity="0.55"/>
  <rect x="-24.9" y="-16.3" width="113.2" height="65.2" rx="19.9" fill="none" stroke="url(#strokeA)" stroke-width="9.1" opacity="0.55"/>
</g>


<g opacity="0.352" transform="translate(187.2,61.4) rotate(-11.8)" filter="url(#softGlow)">
  <rect x="-48.3" y="-27.8" width="96.7" height="55.7" rx="17.0" fill="none" stroke="#FFB300" stroke-width="9.3" opacity="0.55"/>
  <rect x="-21.3" y="-13.9" width="96.7" height="55.7" rx="17.0" fill="none" stroke="url(#strokeA)" stroke-width="7.7" opacity="0.55"/>
</g>


<g opacity="0.223" transform="translate(1849.1,424.9) rotate(11.0)" filter="url(#softGlow)">
  <rect x="-48.8" y="-28.1" width="97.6" height="56.2" rx="17.2" fill="none" stroke="#FFB300" stroke-width="9.4" opacity="0.55"/>
  <rect x="-21.5" y="-14.1" width="97.6" height="56.2" rx="17.2" fill="none" stroke="url(#strokeA)" stroke-width="7.8" opacity="0.55"/>
</g>


<g opacity="0.425" transform="translate(1804.1,884.8) rotate(-17.4)" filter="url(#softGlow)">
  <rect x="-58.5" y="-33.7" width="117.0" height="67.4" rx="20.6" fill="none" stroke="#FFB300" stroke-width="11.2" opacity="0.55"/>
  <rect x="-25.7" y="-16.8" width="117.0" height="67.4" rx="20.6" fill="none" stroke="url(#strokeA)" stroke-width="9.4" opacity="0.55"/>
</g>


<g opacity="0.265" transform="translate(1845.3,101.2) rotate(9.5)" filter="url(#softGlow)">
  <rect x="-39.9" y="-23.0" width="79.7" height="45.9" rx="14.0" fill="none" stroke="#00E5FF" stroke-width="7.7" opacity="0.55"/>
  <rect x="-17.5" y="-11.5" width="79.7" height="45.9" rx="14.0" fill="none" stroke="url(#strokeA)" stroke-width="6.4" opacity="0.55"/>
</g>


<g opacity="0.224" transform="translate(139.3,1061.7) rotate(-12.4)" filter="url(#softGlow)">
  <rect x="-58.5" y="-33.7" width="117.0" height="67.4" rx="20.6" fill="none" stroke="#00E5FF" stroke-width="11.2" opacity="0.55"/>
  <rect x="-25.7" y="-16.8" width="117.0" height="67.4" rx="20.6" fill="none" stroke="url(#strokeA)" stroke-width="9.4" opacity="0.55"/>
</g>


<g opacity="0.159">
  <line x1="1045.0" y1="918.8" x2="1045.0" y2="984.5" stroke="#00E5FF" stroke-width="1.66" opacity="0.45"/>
  <rect x="1040.2" y="950.7" width="9.5" height="41.5" rx="3.2" fill="#0B1020" opacity="0.55" stroke="url(#strokeA)" stroke-width="1.2"/>
</g>

<g opacity="0.159">
  <line x1="1915.8" y1="893.5" x2="1915.8" y2="990.9" stroke="#00E5FF" stroke-width="2.02" opacity="0.45"/>
  <rect x="1911.6" y="950.9" width="8.4" height="40.9" rx="2.8" fill="#0B1020" opacity="0.55" stroke="url(#strokeA)" stroke-width="1.2"/>
</g>

<g opacity="0.159">
  <line x1="366.6" y1="915.9" x2="366.6" y2="985.2" stroke="#00E5FF" stroke-width="1.00" opacity="0.45"/>
  <rect x="363.3" y="953.4" width="6.7" height="36.0" rx="2.2" fill="#0B1020" opacity="0.55" stroke="url(#strokeA)" stroke-width="1.2"/>
</g>

<g opacity="0.159">
  <line x1="1889.4" y1="904.4" x2="1889.4" y2="988.1" stroke="#00E5FF" stroke-width="1.46" opacity="0.45"/>
  <rect x="1884.8" y="944.1" width="9.1" height="54.5" rx="3.0" fill="#0B1020" opacity="0.55" stroke="url(#strokeA)" stroke-width="1.2"/>
</g>

<g opacity="0.159">
  <line x1="941.0" y1="921.4" x2="941.0" y2="983.9" stroke="#00E5FF" stroke-width="1.39" opacity="0.45"/>
  <rect x="935.6" y="956.7" width="10.6" height="29.4" rx="3.5" fill="#0B1020" opacity="0.55" stroke="url(#strokeA)" stroke-width="1.2"/>
</g>

<g opacity="0.159">
  <line x1="73.4" y1="894.5" x2="73.4" y2="990.6" stroke="#00E5FF" stroke-width="1.35" opacity="0.45"/>
  <rect x="69.4" y="943.3" width="7.9" height="56.1" rx="2.6" fill="#0B1020" opacity="0.55" stroke="url(#strokeA)" stroke-width="1.2"/>
</g>

<g opacity="0.159">
  <line x1="142.2" y1="902.6" x2="142.2" y2="988.6" stroke="#00E5FF" stroke-width="1.46" opacity="0.45"/>
  <rect x="138.0" y="943.9" width="8.4" height="55.1" rx="2.8" fill="#0B1020" opacity="0.55" stroke="url(#strokeA)" stroke-width="1.2"/>
</g>

<g opacity="0.159">
  <line x1="171.9" y1="916.9" x2="171.9" y2="985.0" stroke="#00E5FF" stroke-width="1.04" opacity="0.45"/>
  <rect x="168.3" y="949.5" width="7.1" height="43.8" rx="2.4" fill="#0B1020" opacity="0.55" stroke="url(#strokeA)" stroke-width="1.2"/>
</g>

<g opacity="0.159">
  <line x1="320.7" y1="903.8" x2="320.7" y2="988.3" stroke="#00E5FF" stroke-width="1.71" opacity="0.45"/>
  <rect x="317.5" y="951.5" width="6.5" height="39.7" rx="2.2" fill="#0B1020" opacity="0.55" stroke="url(#strokeA)" stroke-width="1.2"/>
</g>

<g opacity="0.159">
  <line x1="1245.3" y1="913.1" x2="1245.3" y2="986.0" stroke="#00E5FF" stroke-width="1.62" opacity="0.45"/>
  <rect x="1240.4" y="961.7" width="9.9" height="19.3" rx="3.3" fill="#0B1020" opacity="0.55" stroke="url(#strokeA)" stroke-width="1.2"/>
</g>

<g opacity="0.159">
  <line x1="73.7" y1="934.2" x2="73.7" y2="980.7" stroke="#00E5FF" stroke-width="1.18" opacity="0.45"/>
  <rect x="70.0" y="960.9" width="7.3" height="20.9" rx="2.4" fill="#0B1020" opacity="0.55" stroke="url(#strokeA)" stroke-width="1.2"/>
</g>

<g opacity="0.159">
  <line x1="287.4" y1="926.4" x2="287.4" y2="982.6" stroke="#00E5FF" stroke-width="1.37" opacity="0.45"/>
  <rect x="283.5" y="962.1" width="7.9" height="18.6" rx="2.6" fill="#0B1020" opacity="0.55" stroke="url(#strokeA)" stroke-width="1.2"/>
</g>

<g opacity="0.159">
  <line x1="707.1" y1="899.7" x2="707.1" y2="989.3" stroke="#00E5FF" stroke-width="1.01" opacity="0.45"/>
  <rect x="702.1" y="948.4" width="10.1" height="45.9" rx="3.4" fill="#0B1020" opacity="0.55" stroke="url(#strokeA)" stroke-width="1.2"/>
</g>

<g opacity="0.159">
  <line x1="1470.2" y1="896.4" x2="1470.2" y2="990.1" stroke="#00E5FF" stroke-width="1.64" opacity="0.45"/>
  <rect x="1464.8" y="941.5" width="10.8" height="59.7" rx="3.6" fill="#0B1020" opacity="0.55" stroke="url(#strokeA)" stroke-width="1.2"/>
</g>
<circle cx="75.3" cy="244.7" r="2.9" fill="#FFB300" opacity="0.13" filter="url(#softGlow)"/>
<circle cx="1846.8" cy="158.9" r="1.9" fill="#FFB300" opacity="0.16" filter="url(#softGlow)"/>
<circle cx="114.2" cy="133.8" r="1.5" fill="#FFB300" opacity="0.21" filter="url(#softGlow)"/>
<circle cx="1791.8" cy="1023.0" r="1.4" fill="#FFB300" opacity="0.27" filter="url(#softGlow)"/>
<circle cx="1715.2" cy="785.0" r="2.6" fill="#FFB300" opacity="0.22" filter="url(#softGlow)"/>
<circle cx="1861.7" cy="92.0" r="3.2" fill="#FFB300" opacity="0.11" filter="url(#softGlow)"/>
<circle cx="1855.4" cy="13.9" r="2.6" fill="#FFB300" opacity="0.28" filter="url(#softGlow)"/>
<circle cx="1873.2" cy="815.8" r="2.2" fill="#FFB300" opacity="0.27" filter="url(#softGlow)"/>
<circle cx="1900.3" cy="1046.7" r="1.5" fill="#FFB300" opacity="0.18" filter="url(#softGlow)"/>
<circle cx="1811.4" cy="417.4" r="1.6" fill="#FFB300" opacity="0.14" filter="url(#softGlow)"/>
<circle cx="15.4" cy="503.5" r="3.1" fill="#FFB300" opacity="0.27" filter="url(#softGlow)"/>
<circle cx="31.3" cy="613.3" r="2.5" fill="#FFB300" opacity="0.23" filter="url(#softGlow)"/>
<circle cx="65.5" cy="77.3" r="3.0" fill="#FFB300" opacity="0.17" filter="url(#softGlow)"/>
<circle cx="171.5" cy="532.1" r="1.9" fill="#FFB300" opacity="0.13" filter="url(#softGlow)"/>
<circle cx="1880.0" cy="989.6" r="2.6" fill="#FFB300" opacity="0.22" filter="url(#softGlow)"/>
<circle cx="58.1" cy="924.6" r="2.6" fill="#FFB300" opacity="0.13" filter="url(#softGlow)"/>
<circle cx="1885.6" cy="615.4" r="1.4" fill="#FFB300" opacity="0.21" filter="url(#softGlow)"/>
<circle cx="1712.0" cy="26.9" r="1.7" fill="#FFB300" opacity="0.21" filter="url(#softGlow)"/>
<circle cx="1802.2" cy="76.1" r="1.8" fill="#FFB300" opacity="0.20" filter="url(#softGlow)"/>
<circle cx="1800.7" cy="212.7" r="2.2" fill="#FFB300" opacity="0.27" filter="url(#softGlow)"/>
<circle cx="150.1" cy="204.9" r="3.2" fill="#FFB300" opacity="0.15" filter="url(#softGlow)"/>
<circle cx="26.7" cy="904.0" r="1.8" fill="#FFB300" opacity="0.14" filter="url(#softGlow)"/>
<circle cx="16.9" cy="203.5" r="2.3" fill="#FFB300" opacity="0.12" filter="url(#softGlow)"/>
<circle cx="1895.9" cy="89.9" r="2.9" fill="#FFB300" opacity="0.14" filter="url(#softGlow)"/>
<circle cx="1833.6" cy="92.7" r="3.0" fill="#FFB300" opacity="0.14" filter="url(#softGlow)"/>
<circle cx="9.9" cy="903.6" r="2.7" fill="#FFB300" opacity="0.13" filter="url(#softGlow)"/>
</svg>