<svg xmlns="http://www.w3.org/2000/svg" width="1920" height="1080" viewBox="0 0 1920 1080" preserveAspectRatio="xMidYMid slice">
<defs>
  <linearGradient id="g0" x1="0" y1="0" x2="1" y2="1">
    <stop offset="0" stop-color="#0B1020"/>
    <stop offset="0.55" stop-color="#00E5FF" stop-opacity="0.9"/>
    <stop offset="1" stop-color="#051018"/>
  </linearGradient>
  <radialGradient id="g1" cx="20%" cy="15%" r="70%">
    <stop offset="0" stop-color="#7C4DFF" stop-opacity="0.38"/>
    <stop offset="0.6" stop-color="#7C4DFF" stop-opacity="0.08"/>
    <stop offset="1" stop-color="#7C4DFF" stop-opacity="0"/>
  </radialGradient>
  <radialGradient id="g2" cx="85%" cy="80%" r="75%">
    <stop offset="0" stop-color="#7C4DFF" stop-opacity="0.28"/>
    <stop offset="0.65" stop-color="#7C4DFF" stop-opacity="0.06"/>
    <stop offset="1" stop-color="#7C4DFF" stop-opacity="0"/>
  </radialGradient>
  <filter id="softGlow" x="-30%" y="-30%" width="160%" height="160%">
    <feGaussianBlur stdDeviation="12" result="b"/>
    <feMerge>
      <feMergeNode in="b"/>
      <feMergeNode in="SourceGraphic"/>
    </feMerge>
  </filter>
  <filter id="hardGlow" x="-40%" y="-40%" width="180%" height="180%">
    <feGaussianBlur stdDeviation="6" result="b"/>
    <feColorMatrix in="b" type="matrix" values="1 0 0 0 0  0 1 0 0 0  0 0 1 0 0  0 0 0 18 -7" result="c"/>
    <feMerge>
      <feMergeNode in="c"/>
      <feMergeNode in="SourceGraphic"/>
    </feMerge>
  </filter>
  <linearGradient id="strokeA" x1="0" y1="0" x2="1" y2="0">
    <stop offset="0" stop-color="#7C4DFF" stop-opacity="0.9"/>
    <stop offset="0.5" stop-color="#FFFFFF" stop-opacity="0.25"/>
    <stop offset="1" stop-color="#7C4DFF" stop-opacity="0.7"/>
  </linearGradient>
  <linearGradient id="strokeB" x1="0" y1="0" x2="0" y2="1">
    <stop offset="0" stop-color="#FFFFFF" stop-opacity="0.18"/>
    <stop offset="1" stop-color="#7C4DFF" stop-opacity="0.55"/>
  </linearGradient>
</defs>
<rect x="0" y="0" width="1920" height="1080" fill="url(#g0)"/>
<rect x="0" y="0" width="1920" height="1080" fill="url(#g1)"/>
<rect x="0" y="0" width="1920" height="1080" fill="url(#g2)"/>


<defs>
  <radialGradient id="vign" cx="0.5000" cy="0.5093" r="0.85">
    <stop offset="0" stop-color="#000000" stop-opacity="0"/>
    <stop offset="0.55" stop-color="#000000" stop-opacity="0.217"/>
    <stop offset="1" stop-color="#000000" stop-opacity="0.620"/>
  </radialGradient>
</defs>
<rect x="0" y="0" width="1920" height="1080" fill="url(#vign)"/>

<g opacity="0.190" filter="url(#softGlow)"><path d="M 1849.0,972.1 L 1847.8,972.1 L 1847.8,995.0 L 1729.6,995.0 L 1729.6,190.0 " fill="none" stroke="url(#strokeB)" stroke-width="2.15" stroke-linecap="round" stroke-linejoin="round"/><circle cx="1729.6" cy="995.0" r="3.5" fill="#7C4DFF" opacity="0.45"/><circle cx="1847.8" cy="972.1" r="3.9" fill="#7C4DFF" opacity="0.45"/><circle cx="1847.8" cy="995.0" r="3.3" fill="#7C4DFF" opacity="0.45"/></g>
<g opacity="0.190" filter="url(#softGlow)"><path d="M 172.4,988.0 L 53.3,988.0 L 53.3,1008.4 L 1822.8,1008.4 L 1822.8,112.3 " fill="none" stroke="url(#strokeB)" stroke-width="1.32" stroke-linecap="round" stroke-linejoin="round"/><circle cx="53.3" cy="988.0" r="3.4" fill="#7C4DFF" opacity="0.45"/><circle cx="53.3" cy="1008.4" r="3.0" fill="#7C4DFF" opacity="0.45"/><circle cx="1822.8" cy="112.3" r="3.8" fill="#7C4DFF" opacity="0.45"/></g>
<g opacity="0.190" filter="url(#softGlow)"><path d="M 22.5,1071.1 L 32.9,1071.1 L 32.9,957.4 L 1836.0,957.4 L 1836.0,1071.3 " fill="none" stroke="url(#strokeB)" stroke-width="1.16" stroke-linecap="round" stroke-linejoin="round"/><circle cx="22.5" cy="1071.1" r="2.8" fill="#7C4DFF" opacity="0.45"/><circle cx="32.9" cy="957.4" r="4.0" fill="#7C4DFF" opacity="0.45"/><circle cx="1836.0" cy="1071.3" r="2.6" fill="#7C4DFF" opacity="0.45"/></g>
<g opacity="0.190" filter="url(#softGlow)"><path d="M 1725.4,973.1 L 1868.1,973.1 L 1868.1,156.5 L 1713.2,156.5 L 1713.2,287.9 " fill="none" stroke="url(#strokeB)" stroke-width="1.48" stroke-linecap="round" stroke-linejoin="round"/><circle cx="1868.1" cy="973.1" r="3.9" fill="#7C4DFF" opacity="0.45"/><circle cx="1713.2" cy="287.9" r="2.5" fill="#7C4DFF" opacity="0.45"/><circle cx="1868.1" cy="156.5" r="2.2" fill="#7C4DFF" opacity="0.45"/></g>
<g opacity="0.190" filter="url(#softGlow)"><path d="M 194.4,767.9 L 210.9,767.9 L 210.9,955.8 L 1864.8,955.8 L 1864.8,259.4 " fill="none" stroke="url(#strokeB)" stroke-width="1.75" stroke-linecap="round" stroke-linejoin="round"/><circle cx="210.9" cy="767.9" r="2.2" fill="#7C4DFF" opacity="0.45"/><circle cx="1864.8" cy="259.4" r="2.9" fill="#7C4DFF" opacity="0.45"/><circle cx="194.4" cy="767.9" r="3.1" fill="#7C4DFF" opacity="0.45"/></g>
<g opacity="0.190" filter="url(#softGlow)"><path d="M 1558.4,1011.2 L 1372.3,1011.2 L 1372.3,1065.3 L 551.7,1065.3 L 551.7,1063.5 " fill="none" stroke="url(#strokeB)" stroke-width="1.18" stroke-linecap="round" stroke-linejoin="round"/><circle cx="551.7" cy="1065.3" r="4.1" fill="#7C4DFF" opacity="0.45"/><circle cx="1372.3" cy="1011.2" r="3.5" fill="#7C4DFF" opacity="0.45"/><circle cx="1558.4" cy="1011.2" r="2.3" fill="#7C4DFF" opacity="0.45"/></g>
<g opacity="0.190" filter="url(#softGlow)"><path d="M 106.1,945.2 L 146.4,945.2 L 146.4,212.5 L 112.1,212.5 L 112.1,630.7 " fill="none" stroke="url(#strokeB)" stroke-width="1.91" stroke-linecap="round" stroke-linejoin="round"/><circle cx="146.4" cy="212.5" r="3.5" fill="#7C4DFF" opacity="0.45"/><circle cx="112.1" cy="630.7" r="3.7" fill="#7C4DFF" opacity="0.45"/><circle cx="146.4" cy="945.2" r="3.0" fill="#7C4DFF" opacity="0.45"/></g>
<g opacity="0.190" filter="url(#softGlow)"><path d="M 37.6,915.9 L 18.5,915.9 L 18.5,24.8 L 1729.3,24.8 L 1729.3,30.6 " fill="none" stroke="url(#strokeB)" stroke-width="1.41" stroke-linecap="round" stroke-linejoin="round"/><circle cx="18.5" cy="915.9" r="2.9" fill="#7C4DFF" opacity="0.45"/><circle cx="1729.3" cy="24.8" r="2.7" fill="#7C4DFF" opacity="0.45"/><circle cx="37.6" cy="915.9" r="3.6" fill="#7C4DFF" opacity="0.45"/></g>
<g opacity="0.190" filter="url(#softGlow)"><path d="M 0.9,215.8 L 640.6,215.8 L 640.6,1046.7 L 848.7,1046.7 L 848.7,976.9 " fill="none" stroke="url(#strokeB)" stroke-width="1.72" stroke-linecap="round" stroke-linejoin="round"/><circle cx="640.6" cy="215.8" r="2.8" fill="#7C4DFF" opacity="0.45"/><circle cx="848.7" cy="1046.7" r="2.6" fill="#7C4DFF" opacity="0.45"/><circle cx="640.6" cy="1046.7" r="3.3" fill="#7C4DFF" opacity="0.45"/></g>
<g opacity="0.190" filter="url(#softGlow)"><path d="M 745.8,53.5 L 46.5,53.5 L 46.5,994.0 L 176.4,994.0 L 176.4,1042.7 " fill="none" stroke="url(#strokeB)" stroke-width="1.33" stroke-linecap="round" stroke-linejoin="round"/><circle cx="176.4" cy="994.0" r="3.0" fill="#7C4DFF" opacity="0.45"/><circle cx="176.4" cy="1042.7" r="2.7" fill="#7C4DFF" opacity="0.45"/><circle cx="46.5" cy="994.0" r="3.0" fill="#7C4DFF" opacity="0.45"/></g>
<g opacity="0.190" filter="url(#softGlow)"><path d="M 98.4,540.0 L 272.5,540.0 L 272.5,118.3 L 194.7,118.3 L 194.7,473.8 " fill="none" stroke="url(#strokeB)" stroke-width="1.65" stroke-linecap="round" stroke-linejoin="round"/><circle cx="98.4" cy="540.0" r="2.6" fill="#7C4DFF" opacity="0.45"/><circle cx="272.5" cy="540.0" r="4.0" fill="#7C4DFF" opacity="0.45"/><circle cx="194.7" cy="473.8" r="3.2" fill="#7C4DFF" opacity="0.45"/></g>
<g opacity="0.190" filter="url(#softGlow)"><path d="M 99.6,914.2 L 192.3,914.2 L 192.3,0.7 L 212.2,0.7 L 212.2,508.7 " fill="none" stroke="url(#strokeB)" stroke-width="1.37" stroke-linecap="round" stroke-linejoin="round"/><circle cx="212.2" cy="508.7" r="3.9" fill="#7C4DFF" opacity="0.45"/><circle cx="99.6" cy="914.2" r="2.8" fill="#7C4DFF" opacity="0.45"/><circle cx="192.3" cy="0.7" r="3.9" fill="#7C4DFF" opacity="0.45"/></g>
<g opacity="0.190" filter="url(#softGlow)"><path d="M 53.3,950.2 L 1.6,950.2 L 1.6,432.7 L 1784.6,432.7 L 1784.6,183.6 " fill="none" stroke="url(#strokeB)" stroke-width="1.28" stroke-linecap="round" stroke-linejoin="round"/><circle cx="53.3" cy="950.2" r="3.4" fill="#7C4DFF" opacity="0.45"/><circle cx="1784.6" cy="432.7" r="2.2" fill="#7C4DFF" opacity="0.45"/><circle cx="1.6" cy="950.2" r="2.5" fill="#7C4DFF" opacity="0.45"/></g>
<g opacity="0.190" filter="url(#softGlow)"><path d="M 1890.0,53.6 L 1718.4,53.6 L 1718.4,931.5 L 1723.5,931.5 L 1723.5,1070.8 " fill="none" stroke="url(#strokeB)" stroke-width="2.07" stroke-linecap="round" stroke-linejoin="round"/><circle cx="1723.5" cy="931.5" r="4.0" fill="#7C4DFF" opacity="0.45"/><circle cx="1718.4" cy="53.6" r="2.4" fill="#7C4DFF" opacity="0.45"/><circle cx="1718.4" cy="931.5" r="2.7" fill="#7C4DFF" opacity="0.45"/></g>
<g opacity="0.190" filter="url(#softGlow)"><path d="M 1810.3,1028.5 L 167.5,1028.5 L 167.5,1047.2 L 104.2,1047.2 L 104.2,27.4 " fill="none" stroke="url(#strokeB)" stroke-width="2.17" stroke-linecap="round" stroke-linejoin="round"/><circle cx="167.5" cy="1047.2" r="2.3" fill="#7C4DFF" opacity="0.45"/><circle cx="104.2" cy="27.4" r="2.3" fill="#7C4DFF" opacity="0.45"/><circle cx="167.5" cy="1028.5" r="3.5" fill="#7C4DFF" opacity="0.45"/></g>
<g opacity="0.190" filter="url(#softGlow)"><path d="M 39.0,286.7 L 1848.6,286.7 L 1848.6,1036.3 L 1717.6,1036.3 L 1717.6,24.0 " fill="none" stroke="url(#strokeB)" stroke-width="1.74" stroke-linecap="round" stroke-linejoin="round"/><circle cx="39.0" cy="286.7" r="2.8" fill="#7C4DFF" opacity="0.45"/><circle cx="1717.6" cy="1036.3" r="3.7" fill="#7C4DFF" opacity="0.45"/><circle cx="1848.6" cy="1036.3" r="3.0" fill="#7C4DFF" opacity="0.45"/></g>
<g opacity="0.190" filter="url(#softGlow)"><path d="M 1170.9,981.1 L 5.2,981.1 L 5.2,738.7 L 83.6,738.7 L 83.6,1073.1 " fill="none" stroke="url(#strokeB)" stroke-width="1.56" stroke-linecap="round" stroke-linejoin="round"/><circle cx="5.2" cy="981.1" r="3.8" fill="#7C4DFF" opacity="0.45"/><circle cx="5.2" cy="738.7" r="2.4" fill="#7C4DFF" opacity="0.45"/><circle cx="83.6" cy="1073.1" r="2.8" fill="#7C4DFF" opacity="0.45"/></g>
<g opacity="0.190" filter="url(#softGlow)"><path d="M 1299.9,127.0 L 1764.5,127.0 L 1764.5,19.0 L 1737.1,19.0 L 1737.1,1018.5 " fill="none" stroke="url(#strokeB)" stroke-width="2.13" stroke-linecap="round" stroke-linejoin="round"/><circle cx="1737.1" cy="19.0" r="2.0" fill="#7C4DFF" opacity="0.45"/><circle cx="1764.5" cy="19.0" r="2.5" fill="#7C4DFF" opacity="0.45"/><circle cx="1299.9" cy="127.0" r="2.1" fill="#7C4DFF" opacity="0.45"/></g>
<g opacity="0.190" filter="url(#softGlow)"><path d="M 163.6,881.7 L 1784.0,881.7 L 1784.0,13.6 L 1874.7,13.6 L 1874.7,1051.6 " fill="none" stroke="url(#strokeB)" stroke-width="1.86" stroke-linecap="round" stroke-linejoin="round"/><circle cx="1784.0" cy="13.6" r="3.3" fill="#7C4DFF" opacity="0.45"/><circle cx="163.6" cy="881.7" r="2.4" fill="#7C4DFF" opacity="0.45"/><circle cx="1874.7" cy="13.6" r="3.2" fill="#7C4DFF" opacity="0.45"/></g>

<g opacity="0.713" filter="url(#hardGlow)">
  <circle cx="1909.8" cy="62.7" r="59.5" fill="#0A1224" opacity="0.65"/>
  <circle cx="1909.8" cy="62.7" r="59.5" fill="none" stroke="url(#strokeA)" stroke-width="4.8" opacity="0.85"/>
  <circle cx="1909.8" cy="62.7" r="51.1" fill="none" stroke="#FFB300" stroke-width="1.8" opacity="0.35"/>
  <polygon points="1948.1,81.7 1912.4,105.4 1874.1,86.3 1871.5,43.6 1907.1,19.9 1945.5,39.0" fill="none" stroke="url(#strokeB)" stroke-width="1.5" opacity="0.65"/>
  <polygon points="1920.1,73.5 1895.2,66.2 1914.0,48.3" fill="#FFB300" opacity="0.22" filter="url(#softGlow)"/>
</g>


<g opacity="0.457" filter="url(#hardGlow)">
  <circle cx="1893.2" cy="120.4" r="24.4" fill="#0A1224" opacity="0.65"/>
  <circle cx="1893.2" cy="120.4" r="24.4" fill="none" stroke="url(#strokeA)" stroke-width="2.0" opacity="0.85"/>
  <circle cx="1893.2" cy="120.4" r="21.0" fill="none" stroke="#7C4DFF" stroke-width="1.5" opacity="0.35"/>
  <polygon points="1908.5,111.8 1908.3,129.4 1892.9,138.0 1877.8,129.0 1878.0,111.4 1893.4,102.8" fill="none" stroke="url(#strokeB)" stroke-width="1.2" opacity="0.65"/>
  <polygon points="1899.3,119.4 1891.0,126.1 1889.3,115.6" fill="#7C4DFF" opacity="0.22" filter="url(#softGlow)"/>
</g>


<g opacity="0.393" filter="url(#hardGlow)">
  <circle cx="1897.3" cy="92.5" r="24.2" fill="#0A1224" opacity="0.65"/>
  <circle cx="1897.3" cy="92.5" r="24.2" fill="none" stroke="url(#strokeA)" stroke-width="2.0" opacity="0.85"/>
  <circle cx="1897.3" cy="92.5" r="20.8" fill="none" stroke="#7C4DFF" stroke-width="1.5" opacity="0.35"/>
  <polygon points="1886.6,78.8 1903.9,76.4 1914.6,90.1 1908.0,106.3 1890.8,108.7 1880.1,94.9" fill="none" stroke="url(#strokeB)" stroke-width="1.2" opacity="0.65"/>
  
</g>


<g opacity="0.686" filter="url(#hardGlow)">
  <circle cx="1685.0" cy="1012.4" r="40.1" fill="#0A1224" opacity="0.65"/>
  <circle cx="1685.0" cy="1012.4" r="40.1" fill="none" stroke="url(#strokeA)" stroke-width="3.2" opacity="0.85"/>
  <circle cx="1685.0" cy="1012.4" r="34.5" fill="none" stroke="#FFB300" stroke-width="1.5" opacity="0.35"/>
  <polygon points="1709.4,1027.8 1683.9,1041.3 1659.5,1025.9 1660.6,997.0 1686.1,983.6 1710.5,999.0" fill="none" stroke="url(#strokeB)" stroke-width="1.2" opacity="0.65"/>
  <polygon points="1691.2,1020.4 1675.0,1013.8 1688.8,1003.1" fill="#FFB300" opacity="0.22" filter="url(#softGlow)"/>
</g>


<g opacity="0.528" filter="url(#hardGlow)">
  <circle cx="1696.8" cy="1033.3" r="14.1" fill="#0A1224" opacity="0.65"/>
  <circle cx="1696.8" cy="1033.3" r="14.1" fill="none" stroke="url(#strokeA)" stroke-width="2.0" opacity="0.85"/>
  <circle cx="1696.8" cy="1033.3" r="12.2" fill="none" stroke="#7C4DFF" stroke-width="1.5" opacity="0.35"/>
  <polygon points="1698.7,1043.4 1689.1,1040.0 1687.2,1030.0 1695.0,1023.3 1704.6,1026.7 1706.4,1036.7" fill="none" stroke="url(#strokeB)" stroke-width="1.2" opacity="0.65"/>
  <polygon points="1696.2,1036.9 1694.1,1031.1 1700.2,1032.1" fill="#7C4DFF" opacity="0.22" filter="url(#softGlow)"/>
</g>


<g opacity="0.783" filter="url(#hardGlow)">
  <circle cx="3.0" cy="28.9" r="40.6" fill="#0A1224" opacity="0.65"/>
  <circle cx="3.0" cy="28.9" r="40.6" fill="none" stroke="url(#strokeA)" stroke-width="3.2" opacity="0.85"/>
  <circle cx="3.0" cy="28.9" r="34.9" fill="none" stroke="#FFB300" stroke-width="1.5" opacity="0.35"/>
  <polygon points="23.6,8.1 31.3,36.4 10.7,57.1 -17.6,49.6 -25.2,21.4 -4.6,0.7" fill="none" stroke="url(#strokeB)" stroke-width="1.2" opacity="0.65"/>
  <polygon points="12.3,24.5 2.2,39.1 -5.4,23.0" fill="#FFB300" opacity="0.22" filter="url(#softGlow)"/>
</g>


<g opacity="0.390" filter="url(#hardGlow)">
  <circle cx="40.5" cy="35.9" r="17.1" fill="#0A1224" opacity="0.65"/>
  <circle cx="40.5" cy="35.9" r="17.1" fill="none" stroke="url(#strokeA)" stroke-width="2.0" opacity="0.85"/>
  <circle cx="40.5" cy="35.9" r="14.7" fill="none" stroke="#7C4DFF" stroke-width="1.5" opacity="0.35"/>
  <polygon points="52.7,37.4 45.3,47.2 33.1,45.7 28.4,34.4 35.8,24.6 47.9,26.1" fill="none" stroke="url(#strokeB)" stroke-width="1.2" opacity="0.65"/>
  <polygon points="44.4,37.8 36.9,38.2 40.3,31.6" fill="#7C4DFF" opacity="0.22" filter="url(#softGlow)"/>
</g>


<g opacity="0.552" filter="url(#hardGlow)">
  <circle cx="67.2" cy="27.2" r="21.5" fill="#0A1224" opacity="0.65"/>
  <circle cx="67.2" cy="27.2" r="21.5" fill="none" stroke="url(#strokeA)" stroke-width="2.0" opacity="0.85"/>
  <circle cx="67.2" cy="27.2" r="18.5" fill="none" stroke="#7C4DFF" stroke-width="1.5" opacity="0.35"/>
  <polygon points="51.9,29.6 57.4,15.1 72.7,12.7 82.5,24.8 76.9,39.2 61.6,41.7" fill="none" stroke="url(#strokeB)" stroke-width="1.2" opacity="0.65"/>
  
</g>


<g opacity="0.354" filter="url(#hardGlow)">
  <circle cx="-17.5" cy="77.0" r="20.1" fill="#0A1224" opacity="0.65"/>
  <circle cx="-17.5" cy="77.0" r="20.1" fill="none" stroke="url(#strokeA)" stroke-width="2.0" opacity="0.85"/>
  <circle cx="-17.5" cy="77.0" r="17.2" fill="none" stroke="#7C4DFF" stroke-width="1.5" opacity="0.35"/>
  <polygon points="-3.1,78.2 -11.3,90.1 -25.7,88.9 -31.9,75.8 -23.7,64.0 -9.3,65.1" fill="none" stroke="url(#strokeB)" stroke-width="1.2" opacity="0.65"/>
  <polygon points="-12.9,79.1 -21.6,79.9 -18.0,72.0" fill="#7C4DFF" opacity="0.22" filter="url(#softGlow)"/>
</g>


<g opacity="0.714" filter="url(#hardGlow)">
  <circle cx="96.6" cy="17.2" r="61.0" fill="#0A1224" opacity="0.65"/>
  <circle cx="96.6" cy="17.2" r="61.0" fill="none" stroke="url(#strokeA)" stroke-width="4.9" opacity="0.85"/>
  <circle cx="96.6" cy="17.2" r="52.4" fill="none" stroke="#FFB300" stroke-width="1.8" opacity="0.35"/>
  <polygon points="54.6,29.9 64.6,-12.8 106.6,-25.5 138.6,4.5 128.6,47.3 86.6,60.0" fill="none" stroke="url(#strokeB)" stroke-width="1.5" opacity="0.65"/>
  <polygon points="81.3,16.4 105.0,4.4 103.6,31.0" fill="#FFB300" opacity="0.22" filter="url(#softGlow)"/>
</g>


<g opacity="0.571" filter="url(#hardGlow)">
  <circle cx="174.2" cy="-36.1" r="28.0" fill="#0A1224" opacity="0.65"/>
  <circle cx="174.2" cy="-36.1" r="28.0" fill="none" stroke="url(#strokeA)" stroke-width="2.2" opacity="0.85"/>
  <circle cx="174.2" cy="-36.1" r="24.1" fill="none" stroke="#7C4DFF" stroke-width="1.5" opacity="0.35"/>
  <polygon points="155.5,-43.6 171.3,-56.0 190.0,-48.6 192.9,-28.7 177.1,-16.2 158.4,-23.6" fill="none" stroke="url(#strokeB)" stroke-width="1.2" opacity="0.65"/>
  
</g>


<g opacity="0.423" filter="url(#hardGlow)">
  <circle cx="158.6" cy="48.4" r="28.5" fill="#0A1224" opacity="0.65"/>
  <circle cx="158.6" cy="48.4" r="28.5" fill="none" stroke="url(#strokeA)" stroke-width="2.3" opacity="0.85"/>
  <circle cx="158.6" cy="48.4" r="24.5" fill="none" stroke="#7C4DFF" stroke-width="1.5" opacity="0.35"/>
  <polygon points="138.9,54.2 143.7,34.2 163.4,28.5 178.3,42.6 173.5,62.6 153.8,68.4" fill="none" stroke="url(#strokeB)" stroke-width="1.2" opacity="0.65"/>
  <polygon points="151.4,48.0 162.6,42.4 161.8,54.9" fill="#7C4DFF" opacity="0.22" filter="url(#softGlow)"/>
</g>


<g opacity="0.328" transform="translate(1897.4,941.4) rotate(-5.6)" filter="url(#softGlow)">
  <rect x="-88.4" y="-81.1" width="176.8" height="162.2" rx="16.2" fill="#050A12" opacity="0.25"/>
  <rect x="-88.4" y="-81.1" width="176.8" height="162.2" rx="16.2" fill="none" stroke="url(#strokeA)" stroke-width="8.1" opacity="0.85"/>
  <rect x="-75.4" y="-68.1" width="150.9" height="136.2" rx="11.4" fill="none" stroke="#FFB300" stroke-width="3.2" opacity="0.35"/>
</g>


<g opacity="0.266" transform="translate(7.9,113.4) rotate(2.8)" filter="url(#softGlow)">
  <rect x="-87.0" y="-81.1" width="173.9" height="162.2" rx="16.2" fill="#050A12" opacity="0.25"/>
  <rect x="-87.0" y="-81.1" width="173.9" height="162.2" rx="16.2" fill="none" stroke="url(#strokeA)" stroke-width="8.1" opacity="0.85"/>
  <rect x="-74.0" y="-68.1" width="148.0" height="136.2" rx="11.4" fill="none" stroke="#FFB300" stroke-width="3.2" opacity="0.35"/>
</g>


<g opacity="0.331" transform="translate(94.2,80.2) rotate(5.1)" filter="url(#softGlow)">
  <rect x="-110.0" y="-90.6" width="220.1" height="181.1" rx="18.1" fill="#050A12" opacity="0.25"/>
  <rect x="-110.0" y="-90.6" width="220.1" height="181.1" rx="18.1" fill="none" stroke="url(#strokeA)" stroke-width="9.1" opacity="0.85"/>
  <rect x="-95.5" y="-76.1" width="191.1" height="152.2" rx="12.7" fill="none" stroke="#FFB300" stroke-width="3.6" opacity="0.35"/>
</g>


<g opacity="0.293" transform="translate(169.5,68.3) rotate(7.3)" filter="url(#softGlow)">
  <rect x="-98.4" y="-81.0" width="196.8" height="162.0" rx="16.2" fill="#050A12" opacity="0.25"/>
  <rect x="-98.4" y="-81.0" width="196.8" height="162.0" rx="16.2" fill="none" stroke="url(#strokeA)" stroke-width="8.1" opacity="0.85"/>
  <rect x="-85.4" y="-68.0" width="170.9" height="136.1" rx="11.3" fill="none" stroke="#7C4DFF" stroke-width="3.2" opacity="0.35"/>
</g>


<g opacity="0.427" transform="translate(1827.1,1052.6) rotate(12.4)" filter="url(#softGlow)">
  <rect x="-60.0" y="-34.6" width="120.0" height="69.1" rx="21.1" fill="none" stroke="#FFB300" stroke-width="11.5" opacity="0.55"/>
  <rect x="-26.4" y="-17.3" width="120.0" height="69.1" rx="21.1" fill="none" stroke="url(#strokeA)" stroke-width="9.6" opacity="0.55"/>
</g>


<g opacity="0.353" transform="translate(1835.4,1013.6) rotate(1.1)" filter="url(#softGlow)">
  <rect x="-41.5" y="-23.9" width="83.1" height="47.9" rx="14.6" fill="none" stroke="#7C4DFF" stroke-width="8.0" opacity="0.55"/>
  <rect x="-18.3" y="-12.0" width="83.1" height="47.9" rx="14.6" fill="none" stroke="url(#strokeA)" stroke-width="6.6" opacity="0.55"/>
</g>


<g opacity="0.433" transform="translate(1812.5,618.5) rotate(-11.5)" filter="url(#softGlow)">
  <rect x="-53.8" y="-31.0" width="107.5" height="61.9" rx="18.9" fill="none" stroke="#FFB300" stroke-width="10.3" opacity="0.55"/>
  <rect x="-23.7" y="-15.5" width="107.5" height="61.9" rx="18.9" fill="none" stroke="url(#strokeA)" stroke-width="8.6" opacity="0.55"/>
</g>


<g opacity="0.447" transform="translate(116.9,157.5) rotate(-15.5)" filter="url(#softGlow)">
  <rect x="-59.4" y="-34.2" width="118.8" height="68.4" rx="20.9" fill="none" stroke="#FFB300" stroke-width="11.4" opacity="0.55"/>
  <rect x="-26.1" y="-17.1" width="118.8" height="68.4" rx="20.9" fill="none" stroke="url(#strokeA)" stroke-width="9.5" opacity="0.55"/>
</g>


<g opacity="0.223" transform="translate(1767.7,1039.4) rotate(14.6)" filter="url(#softGlow)">
  <rect x="-56.8" y="-32.7" width="113.7" height="65.5" rx="20.0" fill="none" stroke="#FFB300" stroke-width="10.9" opacity="0.55"/>
  <rect x="-25.0" y="-16.4" width="113.7" height="65.5" rx="20.0" fill="none" stroke="url(#strokeA)" stroke-width="9.1" opacity="0.55"/>
</g>


<g opacity="0.303" transform="translate(205.8,660.6) rotate(-2.9)" filter="url(#softGlow)">
  <rect x="-56.4" y="-32.5" width="112.7" height="64.9" rx="19.8" fill="none" stroke="#7C4DFF" stroke-width="10.8" opacity="0.55"/>
  <rect x="-24.8" y="-16.2" width="112.7" height="64.9" rx="19.8" fill="none" stroke="url(#strokeA)" stroke-width="9.0" opacity="0.55"/>
</g>


<g opacity="0.389" transform="translate(1806.1,971.6) rotate(-1.0)" filter="url(#softGlow)">
  <rect x="-59.3" y="-34.1" width="118.5" height="68.3" rx="20.9" fill="none" stroke="#7C4DFF" stroke-width="11.4" opacity="0.55"/>
  <rect x="-26.1" y="-17.1" width="118.5" height="68.3" rx="20.9" fill="none" stroke="url(#strokeA)" stroke-width="9.5" opacity="0.55"/>
</g>


<g opacity="0.280" transform="translate(159.0,81.1) rotate(17.0)" filter="url(#softGlow)">
  <rect x="-53.6" y="-30.9" width="107.2" height="61.7" rx="18.9" fill="none" stroke="#FFB300" stroke-width="10.3" opacity="0.55"/>
  <rect x="-23.6" y="-15.4" width="107.2" height="61.7" rx="18.9" fill="none" stroke="url(#strokeA)" stroke-width="8.6" opacity="0.55"/>
</g>


<g opacity="0.271" transform="translate(1711.5,37.1) rotate(8.1)" filter="url(#softGlow)">
  <rect x="-58.8" y="-33.9" width="117.6" height="67.7" rx="20.7" fill="none" stroke="#7C4DFF" stroke-width="11.3" opacity="0.55"/>
  <rect x="-25.9" y="-16.9" width="117.6" height="67.7" rx="20.7" fill="none" stroke="url(#strokeA)" stroke-width="9.4" opacity="0.55"/>
</g>


<g opacity="0.267" transform="translate(156.5,1061.2) rotate(13.2)" filter="url(#softGlow)">
  <rect x="-35.5" y="-20.4" width="71.0" height="40.9" rx="12.5" fill="none" stroke="#7C4DFF" stroke-width="6.8" opacity="0.55"/>
  <rect x="-15.6" y="-10.2" width="71.0" height="40.9" rx="12.5" fill="none" stroke="url(#strokeA)" stroke-width="5.7" opacity="0.55"/>
</g>


<g opacity="0.162">
  <line x1="772.9" y1="904.8" x2="772.9" y2="977.0" stroke="#7C4DFF" stroke-width="1.13" opacity="0.45"/>
  <rect x="768.6" y="951.0" width="8.6" height="23.1" rx="2.9" fill="#0B1020" opacity="0.55" stroke="url(#strokeA)" stroke-width="1.2"/>
</g>

<g opacity="0.162">
  <line x1="4.4" y1="893.5" x2="4.4" y2="979.8" stroke="#7C4DFF" stroke-width="1.84" opacity="0.45"/>
  <rect x="-1.2" y="943.4" width="11.2" height="38.3" rx="3.7" fill="#0B1020" opacity="0.55" stroke="url(#strokeA)" stroke-width="1.2"/>
</g>

<g opacity="0.162">
  <line x1="960.5" y1="892.0" x2="960.5" y2="980.2" stroke="#7C4DFF" stroke-width="1.12" opacity="0.45"/>
  <rect x="955.3" y="942.9" width="10.5" height="39.3" rx="3.5" fill="#0B1020" opacity="0.55" stroke="url(#strokeA)" stroke-width="1.2"/>
</g>

<g opacity="0.162">
  <line x1="177.8" y1="887.8" x2="177.8" y2="981.3" stroke="#7C4DFF" stroke-width="1.46" opacity="0.45"/>
  <rect x="174.4" y="939.2" width="6.7" height="46.7" rx="2.2" fill="#0B1020" opacity="0.55" stroke="url(#strokeA)" stroke-width="1.2"/>
</g>

<g opacity="0.162">
  <line x1="336.5" y1="907.9" x2="336.5" y2="976.2" stroke="#7C4DFF" stroke-width="1.13" opacity="0.45"/>
  <rect x="333.2" y="944.7" width="6.7" height="35.8" rx="2.2" fill="#0B1020" opacity="0.55" stroke="url(#strokeA)" stroke-width="1.2"/>
</g>

<g opacity="0.162">
  <line x1="184.6" y1="889.3" x2="184.6" y2="980.9" stroke="#7C4DFF" stroke-width="2.03" opacity="0.45"/>
  <rect x="180.4" y="940.3" width="8.4" height="44.6" rx="2.8" fill="#0B1020" opacity="0.55" stroke="url(#strokeA)" stroke-width="1.2"/>
</g>

<g opacity="0.162">
  <line x1="198.9" y1="925.7" x2="198.9" y2="971.8" stroke="#7C4DFF" stroke-width="2.07" opacity="0.45"/>
  <rect x="194.8" y="949.8" width="8.2" height="25.6" rx="2.7" fill="#0B1020" opacity="0.55" stroke="url(#strokeA)" stroke-width="1.2"/>
</g>

<g opacity="0.162">
  <line x1="1498.6" y1="868.7" x2="1498.6" y2="986.1" stroke="#7C4DFF" stroke-width="1.75" opacity="0.45"/>
  <rect x="1493.3" y="933.2" width="10.5" height="58.7" rx="3.5" fill="#0B1020" opacity="0.55" stroke="url(#strokeA)" stroke-width="1.2"/>
</g>

<g opacity="0.162">
  <line x1="1452.8" y1="887.3" x2="1452.8" y2="981.4" stroke="#7C4DFF" stroke-width="1.29" opacity="0.45"/>
  <rect x="1449.0" y="933.9" width="7.6" height="57.4" rx="2.5" fill="#0B1020" opacity="0.55" stroke="url(#strokeA)" stroke-width="1.2"/>
</g>

<g opacity="0.162">
  <line x1="740.3" y1="879.7" x2="740.3" y2="983.3" stroke="#7C4DFF" stroke-width="1.05" opacity="0.45"/>
  <rect x="735.9" y="937.4" width="8.8" height="50.3" rx="2.9" fill="#0B1020" opacity="0.55" stroke="url(#strokeA)" stroke-width="1.2"/>
</g>

<g opacity="0.162">
  <line x1="1795.7" y1="896.6" x2="1795.7" y2="979.1" stroke="#7C4DFF" stroke-width="1.74" opacity="0.45"/>
  <rect x="1790.3" y="937.7" width="10.7" height="49.8" rx="3.6" fill="#0B1020" opacity="0.55" stroke="url(#strokeA)" stroke-width="1.2"/>
</g>

<g opacity="0.162">
  <line x1="1344.2" y1="897.5" x2="1344.2" y2="978.8" stroke="#7C4DFF" stroke-width="1.37" opacity="0.45"/>
  <rect x="1338.9" y="949.2" width="10.6" height="26.8" rx="3.5" fill="#0B1020" opacity="0.55" stroke="url(#strokeA)" stroke-width="1.2"/>
</g>

<g opacity="0.162">
  <line x1="1054.3" y1="883.4" x2="1054.3" y2="982.4" stroke="#7C4DFF" stroke-width="1.36" opacity="0.45"/>
  <rect x="1048.8" y="942.7" width="11.0" height="39.8" rx="3.7" fill="#0B1020" opacity="0.55" stroke="url(#strokeA)" stroke-width="1.2"/>
</g>
<circle cx="1738.6" cy="122.9" r="2.6" fill="#FFB300" opacity="0.26" filter="url(#softGlow)"/>
<circle cx="1809.3" cy="910.1" r="2.2" fill="#FFB300" opacity="0.25" filter="url(#softGlow)"/>
<circle cx="67.4" cy="150.7" r="2.9" fill="#FFB300" opacity="0.26" filter="url(#softGlow)"/>
<circle cx="1778.1" cy="415.3" r="1.8" fill="#FFB300" opacity="0.23" filter="url(#softGlow)"/>
<circle cx="58.8" cy="888.4" r="2.3" fill="#FFB300" opacity="0.14" filter="url(#softGlow)"/>
<circle cx="147.0" cy="1031.0" r="3.1" fill="#FFB300" opacity="0.21" filter="url(#softGlow)"/>
<circle cx="128.4" cy="206.2" r="2.8" fill="#FFB300" opacity="0.14" filter="url(#softGlow)"/>
<circle cx="153.5" cy="121.1" r="2.8" fill="#FFB300" opacity="0.23" filter="url(#softGlow)"/>
<circle cx="168.6" cy="866.6" r="1.7" fill="#FFB300" opacity="0.23" filter="url(#softGlow)"/>
<circle cx="1834.1" cy="991.8" r="2.7" fill="#FFB300" opacity="0.16" filter="url(#softGlow)"/>
<circle cx="1727.1" cy="336.5" r="2.6" fill="#FFB300" opacity="0.11" filter="url(#softGlow)"/>
<circle cx="1834.8" cy="1014.2" r="2.5" fill="#FFB300" opacity="0.11" filter="url(#softGlow)"/>
<circle cx="184.2" cy="876.1" r="2.4" fill="#FFB300" opacity="0.11" filter="url(#softGlow)"/>
<circle cx="115.4" cy="123.9" r="3.0" fill="#FFB300" opacity="0.17" filter="url(#softGlow)"/>
<circle cx="1807.2" cy="983.0" r="1.6" fill="#FFB300" opacity="0.11" filter="url(#softGlow)"/>
<circle cx="736.0" cy="1012.5" r="2.2" fill="#FFB300" opacity="0.23" filter="url(#softGlow)"/>
<circle cx="1840.9" cy="462.4" r="1.8" fill="#FFB300" opacity="0.24" filter="url(#softGlow)"/>
<circle cx="1504.6" cy="990.9" r="3.0" fill="#FFB300" opacity="0.21" filter="url(#softGlow)"/>
<circle cx="1839.7" cy="137.0" r="1.9" fill="#FFB300" opacity="0.22" filter="url(#softGlow)"/>
<circle cx="1826.8" cy="79.6" r="1.5" fill="#FFB300" opacity="0.25" filter="url(#softGlow)"/>
<circle cx="1715.2" cy="1042.7" r="2.5" fill="#FFB300" opacity="0.16" filter="url(#softGlow)"/>
<circle cx="24.0" cy="987.6" r="2.1" fill="#FFB300" opacity="0.23" filter="url(#softGlow)"/>
<circle cx="16.6" cy="198.5" r="1.7" fill="#FFB300" opacity="0.11" filter="url(#softGlow)"/>
<circle cx="148.3" cy="1008.1" r="1.5" fill="#FFB300" opacity="0.20" filter="url(#softGlow)"/>
<circle cx="12.0" cy="163.0" r="2.3" fill="#FFB300" opacity="0.10" filter="url(#softGlow)"/>
</svg>