<svg xmlns="http://www.w3.org/2000/svg" width="1920" height="1080" viewBox="0 0 1920 1080" preserveAspectRatio="xMidYMid slice">
<defs>
  <linearGradient id="g0" x1="0" y1="0" x2="1" y2="1">
    <stop offset="0" stop-color="#0B1020"/>
    <stop offset="0.55" stop-color="#00E5FF" stop-opacity="0.9"/>
    <stop offset="1" stop-color="#051018"/>
  </linearGradient>
  <radialGradient id="g1" cx="20%" cy="15%" r="70%">
    <stop offset="0" stop-color="#7C4DFF" stop-opacity="0.38"/>
    <stop offset="0.6" stop-color="#7C4DFF" stop-opacity="0.08"/>
    <stop offset="1" stop-color="#7C4DFF" stop-opacity="0"/>
  </radialGradient>
  <radialGradient id="g2" cx="85%" cy="80%" r="75%">
    <stop offset="0" stop-color="#7C4DFF" stop-opacity="0.28"/>
    <stop offset="0.65" stop-color="#7C4DFF" stop-opacity="0.06"/>
    <stop offset="1" stop-color="#7C4DFF" stop-opacity="0"/>
  </radialGradient>
  <filter id="softGlow" x="-30%" y="-30%" width="160%" height="160%">
    <feGaussianBlur stdDeviation="12" result="b"/>
    <feMerge>
      <feMergeNode in="b"/>
      <feMergeNode in="SourceGraphic"/>
    </feMerge>
  </filter>
  <filter id="hardGlow" x="-40%" y="-40%" width="180%" height="180%">
    <feGaussianBlur stdDeviation="6" result="b"/>
    <feColorMatrix in="b" type="matrix" values="1 0 0 0 0  0 1 0 0 0  0 0 1 0 0  0 0 0 18 -7" result="c"/>
    <feMerge>
      <feMergeNode in="c"/>
      <feMergeNode in="SourceGraphic"/>
    </feMerge>
  </filter>
  <linearGradient id="strokeA" x1="0" y1="0" x2="1" y2="0">
    <stop offset="0" stop-color="#7C4DFF" stop-opacity="0.9"/>
    <stop offset="0.5" stop-color="#FFFFFF" stop-opacity="0.25"/>
    <stop offset="1" stop-color="#7C4DFF" stop-opacity="0.7"/>
  </linearGradient>
  <linearGradient id="strokeB" x1="0" y1="0" x2="0" y2="1">
    <stop offset="0" stop-color="#FFFFFF" stop-opacity="0.18"/>
    <stop offset="1" stop-color="#7C4DFF" stop-opacity="0.55"/>
  </linearGradient>
</defs>
<rect x="0" y="0" width="1920" height="1080" fill="url(#g0)"/>
<rect x="0" y="0" width="1920" height="1080" fill="url(#g1)"/>
<rect x="0" y="0" width="1920" height="1080" fill="url(#g2)"/>


<defs>
  <radialGradient id="vign" cx="0.5000" cy="0.5093" r="0.85">
    <stop offset="0" stop-color="#000000" stop-opacity="0"/>
    <stop offset="0.55" stop-color="#000000" stop-opacity="0.217"/>
    <stop offset="1" stop-color="#000000" stop-opacity="0.620"/>
  </radialGradient>
</defs>
<rect x="0" y="0" width="1920" height="1080" fill="url(#vign)"/>

<g opacity="0.214" filter="url(#softGlow)"><path d="M 1817.7,678.0 L 80.6,678.0 L 80.6,566.0 L 1851.1,566.0 L 1851.1,170.3 " fill="none" stroke="url(#strokeB)" stroke-width="1.20" stroke-linecap="round" stroke-linejoin="round"/><circle cx="1851.1" cy="566.0" r="2.4" fill="#00E5FF" opacity="0.45"/><circle cx="1817.7" cy="678.0" r="2.4" fill="#00E5FF" opacity="0.45"/><circle cx="1851.1" cy="170.3" r="2.8" fill="#00E5FF" opacity="0.45"/></g>
<g opacity="0.214" filter="url(#softGlow)"><path d="M 166.0,1038.2 L 1725.1,1038.2 L 1725.1,940.1 L 155.9,940.1 L 155.9,27.3 " fill="none" stroke="url(#strokeB)" stroke-width="1.54" stroke-linecap="round" stroke-linejoin="round"/><circle cx="166.0" cy="1038.2" r="2.3" fill="#00E5FF" opacity="0.45"/><circle cx="155.9" cy="27.3" r="2.9" fill="#00E5FF" opacity="0.45"/><circle cx="1725.1" cy="1038.2" r="4.0" fill="#00E5FF" opacity="0.45"/></g>
<g opacity="0.214" filter="url(#softGlow)"><path d="M 1913.4,1018.2 L 7.8,1018.2 L 7.8,934.8 L 100.1,934.8 L 100.1,201.1 " fill="none" stroke="url(#strokeB)" stroke-width="2.19" stroke-linecap="round" stroke-linejoin="round"/><circle cx="7.8" cy="934.8" r="4.0" fill="#00E5FF" opacity="0.45"/><circle cx="1913.4" cy="1018.2" r="3.2" fill="#00E5FF" opacity="0.45"/><circle cx="7.8" cy="1018.2" r="3.2" fill="#00E5FF" opacity="0.45"/></g>
<g opacity="0.214" filter="url(#softGlow)"><path d="M 1907.5,1059.1 L 230.2,1059.1 L 230.2,153.4 L 1632.9,153.4 L 1632.9,1028.5 " fill="none" stroke="url(#strokeB)" stroke-width="1.95" stroke-linecap="round" stroke-linejoin="round"/><circle cx="1907.5" cy="1059.1" r="3.0" fill="#00E5FF" opacity="0.45"/><circle cx="230.2" cy="153.4" r="2.8" fill="#00E5FF" opacity="0.45"/><circle cx="1632.9" cy="1028.5" r="3.0" fill="#00E5FF" opacity="0.45"/></g>
<g opacity="0.214" filter="url(#softGlow)"><path d="M 1749.9,198.6 L 28.8,198.6 L 28.8,217.8 L 17.5,217.8 L 17.5,38.0 " fill="none" stroke="url(#strokeB)" stroke-width="1.26" stroke-linecap="round" stroke-linejoin="round"/><circle cx="28.8" cy="198.6" r="3.2" fill="#00E5FF" opacity="0.45"/><circle cx="17.5" cy="38.0" r="3.1" fill="#00E5FF" opacity="0.45"/><circle cx="1749.9" cy="198.6" r="2.6" fill="#00E5FF" opacity="0.45"/></g>
<g opacity="0.214" filter="url(#softGlow)"><path d="M 1791.0,877.9 L 121.9,877.9 L 121.9,124.4 L 1032.5,124.4 L 1032.5,55.9 " fill="none" stroke="url(#strokeB)" stroke-width="1.72" stroke-linecap="round" stroke-linejoin="round"/><circle cx="121.9" cy="124.4" r="2.8" fill="#00E5FF" opacity="0.45"/><circle cx="1791.0" cy="877.9" r="2.0" fill="#00E5FF" opacity="0.45"/><circle cx="1032.5" cy="55.9" r="2.8" fill="#00E5FF" opacity="0.45"/></g>
<g opacity="0.214" filter="url(#softGlow)"><path d="M 629.8,89.6 L 1844.8,89.6 L 1844.8,215.2 L 1887.1,215.2 L 1887.1,888.2 " fill="none" stroke="url(#strokeB)" stroke-width="1.49" stroke-linecap="round" stroke-linejoin="round"/><circle cx="629.8" cy="89.6" r="3.8" fill="#00E5FF" opacity="0.45"/><circle cx="1844.8" cy="89.6" r="3.6" fill="#00E5FF" opacity="0.45"/><circle cx="1844.8" cy="215.2" r="3.4" fill="#00E5FF" opacity="0.45"/></g>
<g opacity="0.214" filter="url(#softGlow)"><path d="M 180.8,1034.4 L 69.8,1034.4 L 69.8,1042.4 L 173.3,1042.4 L 173.3,76.6 " fill="none" stroke="url(#strokeB)" stroke-width="1.22" stroke-linecap="round" stroke-linejoin="round"/><circle cx="180.8" cy="1034.4" r="2.7" fill="#00E5FF" opacity="0.45"/><circle cx="69.8" cy="1034.4" r="2.4" fill="#00E5FF" opacity="0.45"/><circle cx="173.3" cy="76.6" r="2.2" fill="#00E5FF" opacity="0.45"/></g>
<g opacity="0.214" filter="url(#softGlow)"><path d="M 1743.4,5.6 L 1919.2,5.6 L 1919.2,53.4 L 53.1,53.4 L 53.1,1069.2 " fill="none" stroke="url(#strokeB)" stroke-width="1.52" stroke-linecap="round" stroke-linejoin="round"/><circle cx="53.1" cy="53.4" r="2.8" fill="#00E5FF" opacity="0.45"/><circle cx="53.1" cy="1069.2" r="2.5" fill="#00E5FF" opacity="0.45"/><circle cx="1743.4" cy="5.6" r="2.2" fill="#00E5FF" opacity="0.45"/></g>
<g opacity="0.214" filter="url(#softGlow)"><path d="M 134.3,916.5 L 33.6,916.5 L 33.6,642.1 L 196.8,642.1 L 196.8,1026.0 " fill="none" stroke="url(#strokeB)" stroke-width="1.52" stroke-linecap="round" stroke-linejoin="round"/><circle cx="134.3" cy="916.5" r="4.0" fill="#00E5FF" opacity="0.45"/><circle cx="33.6" cy="916.5" r="3.5" fill="#00E5FF" opacity="0.45"/><circle cx="196.8" cy="1026.0" r="3.8" fill="#00E5FF" opacity="0.45"/></g>
<g opacity="0.214" filter="url(#softGlow)"><path d="M 1813.2,995.2 L 78.1,995.2 L 78.1,196.0 L 1775.0,196.0 L 1775.0,689.6 " fill="none" stroke="url(#strokeB)" stroke-width="1.77" stroke-linecap="round" stroke-linejoin="round"/><circle cx="1775.0" cy="196.0" r="2.3" fill="#00E5FF" opacity="0.45"/><circle cx="78.1" cy="995.2" r="2.0" fill="#00E5FF" opacity="0.45"/><circle cx="78.1" cy="196.0" r="3.5" fill="#00E5FF" opacity="0.45"/></g>
<g opacity="0.214" filter="url(#softGlow)"><path d="M 1816.5,913.7 L 1762.9,913.7 L 1762.9,187.1 L 407.6,187.1 L 407.6,1.8 " fill="none" stroke="url(#strokeB)" stroke-width="1.54" stroke-linecap="round" stroke-linejoin="round"/><circle cx="407.6" cy="1.8" r="2.4" fill="#00E5FF" opacity="0.45"/><circle cx="1762.9" cy="187.1" r="3.0" fill="#00E5FF" opacity="0.45"/><circle cx="1762.9" cy="913.7" r="3.8" fill="#00E5FF" opacity="0.45"/></g>
<g opacity="0.214" filter="url(#softGlow)"><path d="M 1772.5,20.7 L 1888.9,20.7 L 1888.9,77.3 L 1126.3,77.3 L 1126.3,965.1 " fill="none" stroke="url(#strokeB)" stroke-width="1.79" stroke-linecap="round" stroke-linejoin="round"/><circle cx="1126.3" cy="77.3" r="2.2" fill="#00E5FF" opacity="0.45"/><circle cx="1772.5" cy="20.7" r="2.6" fill="#00E5FF" opacity="0.45"/><circle cx="1888.9" cy="77.3" r="2.2" fill="#00E5FF" opacity="0.45"/></g>
<g opacity="0.214" filter="url(#softGlow)"><path d="M 45.0,952.6 L 207.9,952.6 L 207.9,636.3 L 214.5,636.3 L 214.5,992.6 " fill="none" stroke="url(#strokeB)" stroke-width="1.89" stroke-linecap="round" stroke-linejoin="round"/><circle cx="214.5" cy="992.6" r="3.4" fill="#00E5FF" opacity="0.45"/><circle cx="207.9" cy="636.3" r="3.8" fill="#00E5FF" opacity="0.45"/><circle cx="214.5" cy="636.3" r="2.6" fill="#00E5FF" opacity="0.45"/></g>

<g opacity="0.723" filter="url(#hardGlow)">
  <circle cx="570.4" cy="9.9" r="61.1" fill="#0A1224" opacity="0.65"/>
  <circle cx="570.4" cy="9.9" r="61.1" fill="none" stroke="url(#strokeA)" stroke-width="4.9" opacity="0.85"/>
  <circle cx="570.4" cy="9.9" r="52.6" fill="none" stroke="#7C4DFF" stroke-width="1.8" opacity="0.35"/>
  <polygon points="553.8,-30.9 597.4,-24.9 614.0,15.9 587.0,50.7 543.3,44.6 526.8,3.8" fill="none" stroke="url(#strokeB)" stroke-width="1.5" opacity="0.65"/>
  <polygon points="569.8,-5.5 584.0,17.1 557.3,18.1" fill="#7C4DFF" opacity="0.22" filter="url(#softGlow)"/>
</g>


<g opacity="0.581" filter="url(#hardGlow)">
  <circle cx="629.2" cy="-32.5" r="28.2" fill="#0A1224" opacity="0.65"/>
  <circle cx="629.2" cy="-32.5" r="28.2" fill="none" stroke="url(#strokeA)" stroke-width="2.3" opacity="0.85"/>
  <circle cx="629.2" cy="-32.5" r="24.3" fill="none" stroke="#00E5FF" stroke-width="1.5" opacity="0.35"/>
  <polygon points="637.0,-13.8 616.9,-16.4 609.0,-35.2 621.4,-51.3 641.6,-48.7 649.4,-29.9" fill="none" stroke="url(#strokeB)" stroke-width="1.2" opacity="0.65"/>
  <polygon points="629.5,-25.4 622.9,-35.8 635.2,-36.4" fill="#00E5FF" opacity="0.22" filter="url(#softGlow)"/>
</g>


<g opacity="0.555" filter="url(#hardGlow)">
  <circle cx="661.9" cy="60.3" r="25.0" fill="#0A1224" opacity="0.65"/>
  <circle cx="661.9" cy="60.3" r="25.0" fill="none" stroke="url(#strokeA)" stroke-width="2.0" opacity="0.85"/>
  <circle cx="661.9" cy="60.3" r="21.5" fill="none" stroke="#00E5FF" stroke-width="1.5" opacity="0.35"/>
  <polygon points="666.7,42.9 679.3,55.8 674.5,73.1 657.1,77.6 644.5,64.7 649.3,47.4" fill="none" stroke="url(#strokeB)" stroke-width="1.2" opacity="0.65"/>
  
</g>


<g opacity="0.377" filter="url(#hardGlow)">
  <circle cx="478.4" cy="-32.2" r="26.8" fill="#0A1224" opacity="0.65"/>
  <circle cx="478.4" cy="-32.2" r="26.8" fill="none" stroke="url(#strokeA)" stroke-width="2.1" opacity="0.85"/>
  <circle cx="478.4" cy="-32.2" r="23.0" fill="none" stroke="#00E5FF" stroke-width="1.5" opacity="0.35"/>
  <polygon points="479.3,-13.0 462.2,-21.8 461.3,-41.1 477.5,-51.5 494.6,-42.7 495.6,-23.4" fill="none" stroke="url(#strokeB)" stroke-width="1.2" opacity="0.65"/>
  
</g>


<g opacity="0.829" filter="url(#hardGlow)">
  <circle cx="1824.3" cy="32.3" r="39.4" fill="#0A1224" opacity="0.65"/>
  <circle cx="1824.3" cy="32.3" r="39.4" fill="none" stroke="url(#strokeA)" stroke-width="3.2" opacity="0.85"/>
  <circle cx="1824.3" cy="32.3" r="33.9" fill="none" stroke="#7C4DFF" stroke-width="1.5" opacity="0.35"/>
  <polygon points="1797.3,23.7 1818.2,4.6 1845.2,13.1 1851.4,40.8 1830.5,60.0 1803.4,51.4" fill="none" stroke="url(#strokeB)" stroke-width="1.2" opacity="0.65"/>
  <polygon points="1816.4,26.2 1833.5,28.5 1823.0,42.1" fill="#7C4DFF" opacity="0.22" filter="url(#softGlow)"/>
</g>


<g opacity="0.609" filter="url(#hardGlow)">
  <circle cx="1876.2" cy="60.2" r="19.5" fill="#0A1224" opacity="0.65"/>
  <circle cx="1876.2" cy="60.2" r="19.5" fill="none" stroke="url(#strokeA)" stroke-width="2.0" opacity="0.85"/>
  <circle cx="1876.2" cy="60.2" r="16.7" fill="none" stroke="#00E5FF" stroke-width="1.5" opacity="0.35"/>
  <polygon points="1889.9,57.1 1885.6,70.5 1872.0,73.5 1862.5,63.2 1866.7,49.8 1880.4,46.8" fill="none" stroke="url(#strokeB)" stroke-width="1.2" opacity="0.65"/>
  
</g>


<g opacity="0.357" filter="url(#hardGlow)">
  <circle cx="1823.6" cy="-7.9" r="17.7" fill="#0A1224" opacity="0.65"/>
  <circle cx="1823.6" cy="-7.9" r="17.7" fill="none" stroke="url(#strokeA)" stroke-width="2.0" opacity="0.85"/>
  <circle cx="1823.6" cy="-7.9" r="15.2" fill="none" stroke="#00E5FF" stroke-width="1.5" opacity="0.35"/>
  <polygon points="1835.9,-4.3 1826.7,4.5 1814.4,0.9 1811.4,-11.5 1820.6,-20.3 1832.8,-16.7" fill="none" stroke="url(#strokeB)" stroke-width="1.2" opacity="0.65"/>
  <polygon points="1827.2,-5.3 1819.6,-6.1 1824.1,-12.3" fill="#00E5FF" opacity="0.22" filter="url(#softGlow)"/>
</g>


<g opacity="0.869" filter="url(#hardGlow)">
  <circle cx="1849.4" cy="948.6" r="58.2" fill="#0A1224" opacity="0.65"/>
  <circle cx="1849.4" cy="948.6" r="58.2" fill="none" stroke="url(#strokeA)" stroke-width="4.7" opacity="0.85"/>
  <circle cx="1849.4" cy="948.6" r="50.1" fill="none" stroke="#7C4DFF" stroke-width="1.7" opacity="0.35"/>
  <polygon points="1837.2,908.5 1878.0,918.0 1890.2,958.1 1861.6,988.7 1820.8,979.3 1808.6,939.2" fill="none" stroke="url(#strokeB)" stroke-width="1.5" opacity="0.65"/>
  <polygon points="1850.2,934.0 1861.7,956.6 1836.3,955.3" fill="#7C4DFF" opacity="0.22" filter="url(#softGlow)"/>
</g>


<g opacity="0.414" filter="url(#hardGlow)">
  <circle cx="1806.2" cy="1005.5" r="30.6" fill="#0A1224" opacity="0.65"/>
  <circle cx="1806.2" cy="1005.5" r="30.6" fill="none" stroke="url(#strokeA)" stroke-width="2.4" opacity="0.85"/>
  <circle cx="1806.2" cy="1005.5" r="26.3" fill="none" stroke="#00E5FF" stroke-width="1.5" opacity="0.35"/>
  <polygon points="1784.2,1006.3 1794.5,986.9 1816.5,986.1 1828.2,1004.7 1817.9,1024.2 1795.9,1025.0" fill="none" stroke="url(#strokeB)" stroke-width="1.2" opacity="0.65"/>
  <polygon points="1798.9,1003.2 1811.9,1000.4 1807.8,1013.1" fill="#00E5FF" opacity="0.22" filter="url(#softGlow)"/>
</g>


<g opacity="0.886" filter="url(#hardGlow)">
  <circle cx="450.1" cy="40.6" r="60.0" fill="#0A1224" opacity="0.65"/>
  <circle cx="450.1" cy="40.6" r="60.0" fill="none" stroke="url(#strokeA)" stroke-width="4.8" opacity="0.85"/>
  <circle cx="450.1" cy="40.6" r="51.6" fill="none" stroke="#7C4DFF" stroke-width="1.8" opacity="0.35"/>
  <polygon points="450.2,-2.6 487.5,19.0 487.5,62.2 450.1,83.7 412.7,62.1 412.8,18.9" fill="none" stroke="url(#strokeB)" stroke-width="1.5" opacity="0.65"/>
  <polygon points="455.3,26.4 459.8,52.1 435.3,43.2" fill="#7C4DFF" opacity="0.22" filter="url(#softGlow)"/>
</g>


<g opacity="0.362" filter="url(#hardGlow)">
  <circle cx="431.4" cy="-19.9" r="24.3" fill="#0A1224" opacity="0.65"/>
  <circle cx="431.4" cy="-19.9" r="24.3" fill="none" stroke="url(#strokeA)" stroke-width="2.0" opacity="0.85"/>
  <circle cx="431.4" cy="-19.9" r="20.9" fill="none" stroke="#00E5FF" stroke-width="1.5" opacity="0.35"/>
  <polygon points="418.3,-8.2 414.7,-25.4 427.8,-37.1 444.4,-31.6 448.0,-14.5 435.0,-2.8" fill="none" stroke="url(#strokeB)" stroke-width="1.2" opacity="0.65"/>
  <polygon points="425.7,-17.6 432.2,-26.0 436.2,-16.1" fill="#00E5FF" opacity="0.22" filter="url(#softGlow)"/>
</g>


<g opacity="0.860" filter="url(#hardGlow)">
  <circle cx="90.8" cy="989.8" r="61.2" fill="#0A1224" opacity="0.65"/>
  <circle cx="90.8" cy="989.8" r="61.2" fill="none" stroke="url(#strokeA)" stroke-width="4.9" opacity="0.85"/>
  <circle cx="90.8" cy="989.8" r="52.6" fill="none" stroke="#7C4DFF" stroke-width="1.8" opacity="0.35"/>
  <polygon points="128.9,967.7 129.0,1011.7 90.9,1033.9 52.7,1012.0 52.6,967.9 90.6,945.8" fill="none" stroke="url(#strokeB)" stroke-width="1.5" opacity="0.65"/>
  <polygon points="106.0,987.1 85.6,1004.3 80.8,978.0" fill="#7C4DFF" opacity="0.22" filter="url(#softGlow)"/>
</g>


<g opacity="0.555" filter="url(#hardGlow)">
  <circle cx="97.3" cy="956.8" r="25.1" fill="#0A1224" opacity="0.65"/>
  <circle cx="97.3" cy="956.8" r="25.1" fill="none" stroke="url(#strokeA)" stroke-width="2.0" opacity="0.85"/>
  <circle cx="97.3" cy="956.8" r="21.6" fill="none" stroke="#00E5FF" stroke-width="1.5" opacity="0.35"/>
  <polygon points="80.4,963.1 83.4,945.3 100.3,939.0 114.2,950.5 111.2,968.3 94.3,974.6" fill="none" stroke="url(#strokeB)" stroke-width="1.2" opacity="0.65"/>
  <polygon points="91.0,956.8 100.4,951.3 100.5,962.2" fill="#00E5FF" opacity="0.22" filter="url(#softGlow)"/>
</g>


<g opacity="0.823" filter="url(#hardGlow)">
  <circle cx="40.3" cy="1014.2" r="38.2" fill="#0A1224" opacity="0.65"/>
  <circle cx="40.3" cy="1014.2" r="38.2" fill="none" stroke="url(#strokeA)" stroke-width="3.1" opacity="0.85"/>
  <circle cx="40.3" cy="1014.2" r="32.8" fill="none" stroke="#7C4DFF" stroke-width="1.5" opacity="0.35"/>
  <polygon points="26.0,1037.7 12.9,1013.5 27.2,990.1 54.7,990.8 67.8,1014.9 53.5,1038.4" fill="none" stroke="url(#strokeB)" stroke-width="1.2" opacity="0.65"/>
  <polygon points="32.8,1020.2 38.9,1004.7 49.3,1017.7" fill="#7C4DFF" opacity="0.22" filter="url(#softGlow)"/>
</g>


<g opacity="0.506" filter="url(#hardGlow)">
  <circle cx="72.2" cy="1021.1" r="18.2" fill="#0A1224" opacity="0.65"/>
  <circle cx="72.2" cy="1021.1" r="18.2" fill="none" stroke="url(#strokeA)" stroke-width="2.0" opacity="0.85"/>
  <circle cx="72.2" cy="1021.1" r="15.7" fill="none" stroke="#00E5FF" stroke-width="1.5" opacity="0.35"/>
  <polygon points="85.1,1023.0 77.1,1033.3 64.1,1031.4 59.2,1019.3 67.3,1009.0 80.3,1010.8" fill="none" stroke="url(#strokeB)" stroke-width="1.2" opacity="0.65"/>
  
</g>


<g opacity="0.843" filter="url(#hardGlow)">
  <circle cx="0.9" cy="989.3" r="57.9" fill="#0A1224" opacity="0.65"/>
  <circle cx="0.9" cy="989.3" r="57.9" fill="none" stroke="url(#strokeA)" stroke-width="4.6" opacity="0.85"/>
  <circle cx="0.9" cy="989.3" r="49.8" fill="none" stroke="#7C4DFF" stroke-width="1.7" opacity="0.35"/>
  <polygon points="-7.6,1030.2 -38.7,1002.3 -30.1,961.5 9.5,948.5 40.6,976.3 32.0,1017.2" fill="none" stroke="url(#strokeB)" stroke-width="1.4" opacity="0.65"/>
  <polygon points="-6.8,1001.7 -5.9,976.5 15.5,989.8" fill="#7C4DFF" opacity="0.22" filter="url(#softGlow)"/>
</g>


<g opacity="0.558" filter="url(#hardGlow)">
  <circle cx="-60.9" cy="987.4" r="26.4" fill="#0A1224" opacity="0.65"/>
  <circle cx="-60.9" cy="987.4" r="26.4" fill="none" stroke="url(#strokeA)" stroke-width="2.1" opacity="0.85"/>
  <circle cx="-60.9" cy="987.4" r="22.7" fill="none" stroke="#00E5FF" stroke-width="1.5" opacity="0.35"/>
  <polygon points="-78.6,994.3 -75.8,975.5 -58.1,968.6 -43.2,980.4 -46.1,999.2 -63.8,1006.2" fill="none" stroke="url(#strokeB)" stroke-width="1.2" opacity="0.65"/>
  
</g>


<g opacity="0.511" filter="url(#hardGlow)">
  <circle cx="-39.9" cy="922.6" r="28.3" fill="#0A1224" opacity="0.65"/>
  <circle cx="-39.9" cy="922.6" r="28.3" fill="none" stroke="url(#strokeA)" stroke-width="2.3" opacity="0.85"/>
  <circle cx="-39.9" cy="922.6" r="24.3" fill="none" stroke="#00E5FF" stroke-width="1.5" opacity="0.35"/>
  <polygon points="-51.0,939.7 -60.3,921.6 -49.2,904.5 -28.9,905.5 -19.6,923.6 -30.6,940.7" fill="none" stroke="url(#strokeB)" stroke-width="1.2" opacity="0.65"/>
  <polygon points="-45.6,926.9 -40.8,915.5 -33.4,925.4" fill="#00E5FF" opacity="0.22" filter="url(#softGlow)"/>
</g>


<g opacity="0.375" transform="translate(1879.2,798.6) rotate(2.3)" filter="url(#softGlow)">
  <rect x="-76.4" y="-66.6" width="152.8" height="133.2" rx="13.3" fill="#050A12" opacity="0.25"/>
  <rect x="-76.4" y="-66.6" width="152.8" height="133.2" rx="13.3" fill="none" stroke="url(#strokeA)" stroke-width="6.7" opacity="0.85"/>
  <rect x="-65.7" y="-55.9" width="131.5" height="111.9" rx="9.3" fill="none" stroke="#FFB300" stroke-width="2.7" opacity="0.35"/>
</g>


<g opacity="0.373" transform="translate(1790.9,44.6) rotate(7.9)" filter="url(#softGlow)">
  <rect x="-87.0" y="-80.1" width="174.1" height="160.2" rx="16.0" fill="#050A12" opacity="0.25"/>
  <rect x="-87.0" y="-80.1" width="174.1" height="160.2" rx="16.0" fill="none" stroke="url(#strokeA)" stroke-width="8.0" opacity="0.85"/>
  <rect x="-74.2" y="-67.3" width="148.5" height="134.6" rx="11.2" fill="none" stroke="#00E5FF" stroke-width="3.2" opacity="0.35"/>
</g>


<g opacity="0.318" transform="translate(53.7,938.9) rotate(7.9)" filter="url(#softGlow)">
  <rect x="-81.3" y="-70.0" width="162.6" height="139.9" rx="14.0" fill="#050A12" opacity="0.25"/>
  <rect x="-81.3" y="-70.0" width="162.6" height="139.9" rx="14.0" fill="none" stroke="url(#strokeA)" stroke-width="7.0" opacity="0.85"/>
  <rect x="-70.1" y="-58.8" width="140.2" height="117.6" rx="9.8" fill="none" stroke="#FFB300" stroke-width="2.8" opacity="0.35"/>
</g>


<g opacity="0.325" transform="translate(151.7,515.5) rotate(8.4)" filter="url(#softGlow)">
  <rect x="-85.9" y="-64.4" width="171.8" height="128.8" rx="12.9" fill="#050A12" opacity="0.25"/>
  <rect x="-85.9" y="-64.4" width="171.8" height="128.8" rx="12.9" fill="none" stroke="url(#strokeA)" stroke-width="6.4" opacity="0.85"/>
  <rect x="-75.6" y="-54.1" width="151.2" height="108.2" rx="9.0" fill="none" stroke="#FFB300" stroke-width="2.6" opacity="0.35"/>
</g>


<g opacity="0.298" transform="translate(85.5,113.5) rotate(-5.3)" filter="url(#softGlow)">
  <rect x="-113.9" y="-85.3" width="227.8" height="170.6" rx="17.1" fill="#050A12" opacity="0.25"/>
  <rect x="-113.9" y="-85.3" width="227.8" height="170.6" rx="17.1" fill="none" stroke="url(#strokeA)" stroke-width="8.5" opacity="0.85"/>
  <rect x="-100.2" y="-71.7" width="200.5" height="143.3" rx="11.9" fill="none" stroke="#7C4DFF" stroke-width="3.4" opacity="0.35"/>
</g>


<g opacity="0.310" transform="translate(1602.3,1078.2) rotate(-7.4)" filter="url(#softGlow)">
  <rect x="-57.7" y="-33.2" width="115.4" height="66.5" rx="20.3" fill="none" stroke="#00E5FF" stroke-width="11.1" opacity="0.55"/>
  <rect x="-25.4" y="-16.6" width="115.4" height="66.5" rx="20.3" fill="none" stroke="url(#strokeA)" stroke-width="9.2" opacity="0.55"/>
</g>


<g opacity="0.258" transform="translate(1849.1,198.8) rotate(4.1)" filter="url(#softGlow)">
  <rect x="-44.3" y="-25.5" width="88.5" height="51.0" rx="15.6" fill="none" stroke="#00E5FF" stroke-width="8.5" opacity="0.55"/>
  <rect x="-19.5" y="-12.7" width="88.5" height="51.0" rx="15.6" fill="none" stroke="url(#strokeA)" stroke-width="7.1" opacity="0.55"/>
</g>


<g opacity="0.295" transform="translate(47.8,1036.6) rotate(-15.5)" filter="url(#softGlow)">
  <rect x="-57.4" y="-33.1" width="114.8" height="66.1" rx="20.2" fill="none" stroke="#00E5FF" stroke-width="11.0" opacity="0.55"/>
  <rect x="-25.3" y="-16.5" width="114.8" height="66.1" rx="20.2" fill="none" stroke="url(#strokeA)" stroke-width="9.2" opacity="0.55"/>
</g>


<g opacity="0.438" transform="translate(1758.0,933.1) rotate(-17.8)" filter="url(#softGlow)">
  <rect x="-42.1" y="-24.3" width="84.3" height="48.5" rx="14.8" fill="none" stroke="#FFB300" stroke-width="8.1" opacity="0.55"/>
  <rect x="-18.5" y="-12.1" width="84.3" height="48.5" rx="14.8" fill="none" stroke="url(#strokeA)" stroke-width="6.7" opacity="0.55"/>
</g>


<g opacity="0.279" transform="translate(1781.4,194.1) rotate(16.6)" filter="url(#softGlow)">
  <rect x="-35.0" y="-20.1" width="69.9" height="40.3" rx="12.3" fill="none" stroke="#FFB300" stroke-width="6.7" opacity="0.55"/>
  <rect x="-15.4" y="-10.1" width="69.9" height="40.3" rx="12.3" fill="none" stroke="url(#strokeA)" stroke-width="5.6" opacity="0.55"/>
</g>


<g opacity="0.334" transform="translate(4.3,874.4) rotate(17.0)" filter="url(#softGlow)">
  <rect x="-48.1" y="-27.7" width="96.3" height="55.5" rx="16.9" fill="none" stroke="#7C4DFF" stroke-width="9.2" opacity="0.55"/>
  <rect x="-21.2" y="-13.9" width="96.3" height="55.5" rx="16.9" fill="none" stroke="url(#strokeA)" stroke-width="7.7" opacity="0.55"/>
</g>


<g opacity="0.468" transform="translate(1797.3,118.6) rotate(-12.6)" filter="url(#softGlow)">
  <rect x="-54.2" y="-31.2" width="108.4" height="62.5" rx="19.1" fill="none" stroke="#7C4DFF" stroke-width="10.4" opacity="0.55"/>
  <rect x="-23.9" y="-15.6" width="108.4" height="62.5" rx="19.1" fill="none" stroke="url(#strokeA)" stroke-width="8.7" opacity="0.55"/>
</g>


<g opacity="0.389" transform="translate(1774.5,531.6) rotate(-5.5)" filter="url(#softGlow)">
  <rect x="-56.6" y="-32.6" width="113.2" height="65.2" rx="19.9" fill="none" stroke="#00E5FF" stroke-width="10.9" opacity="0.55"/>
  <rect x="-24.9" y="-16.3" width="113.2" height="65.2" rx="19.9" fill="none" stroke="url(#strokeA)" stroke-width="9.1" opacity="0.55"/>
</g>


<g opacity="0.351" transform="translate(147.5,189.9) rotate(-5.5)" filter="url(#softGlow)">
  <rect x="-41.7" y="-24.0" width="83.4" height="48.1" rx="14.7" fill="none" stroke="#FFB300" stroke-width="8.0" opacity="0.55"/>
  <rect x="-18.4" y="-12.0" width="83.4" height="48.1" rx="14.7" fill="none" stroke="url(#strokeA)" stroke-width="6.7" opacity="0.55"/>
</g>


<g opacity="0.314" transform="translate(1763.9,14.4) rotate(11.8)" filter="url(#softGlow)">
  <rect x="-52.4" y="-30.2" width="104.9" height="60.4" rx="18.5" fill="none" stroke="#00E5FF" stroke-width="10.1" opacity="0.55"/>
  <rect x="-23.1" y="-15.1" width="104.9" height="60.4" rx="18.5" fill="none" stroke="url(#strokeA)" stroke-width="8.4" opacity="0.55"/>
</g>


<g opacity="0.155">
  <line x1="280.8" y1="913.4" x2="280.8" y2="954.3" stroke="#00E5FF" stroke-width="1.67" opacity="0.45"/>
  <rect x="276.2" y="935.4" width="9.3" height="21.4" rx="3.1" fill="#0B1020" opacity="0.55" stroke="url(#strokeA)" stroke-width="1.2"/>
</g>
<circle cx="66.1" cy="208.7" r="2.0" fill="#7C4DFF" opacity="0.25" filter="url(#softGlow)"/>
<circle cx="29.1" cy="562.8" r="2.4" fill="#7C4DFF" opacity="0.25" filter="url(#softGlow)"/>
<circle cx="276.0" cy="925.3" r="1.7" fill="#7C4DFF" opacity="0.27" filter="url(#softGlow)"/>
<circle cx="174.1" cy="169.9" r="2.3" fill="#7C4DFF" opacity="0.27" filter="url(#softGlow)"/>
<circle cx="1730.9" cy="983.1" r="1.6" fill="#7C4DFF" opacity="0.21" filter="url(#softGlow)"/>
<circle cx="164.1" cy="877.3" r="1.6" fill="#7C4DFF" opacity="0.24" filter="url(#softGlow)"/>
<circle cx="1832.6" cy="434.3" r="2.2" fill="#7C4DFF" opacity="0.21" filter="url(#softGlow)"/>
<circle cx="93.9" cy="1009.6" r="2.6" fill="#7C4DFF" opacity="0.11" filter="url(#softGlow)"/>
<circle cx="158.6" cy="895.0" r="3.1" fill="#7C4DFF" opacity="0.26" filter="url(#softGlow)"/>
<circle cx="4.4" cy="58.7" r="2.5" fill="#7C4DFF" opacity="0.22" filter="url(#softGlow)"/>
<circle cx="623.8" cy="106.0" r="3.1" fill="#7C4DFF" opacity="0.14" filter="url(#softGlow)"/>
<circle cx="10.1" cy="901.9" r="2.0" fill="#7C4DFF" opacity="0.12" filter="url(#softGlow)"/>
<circle cx="549.1" cy="132.0" r="2.1" fill="#7C4DFF" opacity="0.16" filter="url(#softGlow)"/>
<circle cx="27.8" cy="403.3" r="2.8" fill="#7C4DFF" opacity="0.22" filter="url(#softGlow)"/>
<circle cx="10.7" cy="22.5" r="3.1" fill="#7C4DFF" opacity="0.25" filter="url(#softGlow)"/>
<circle cx="36.6" cy="96.5" r="3.1" fill="#7C4DFF" opacity="0.11" filter="url(#softGlow)"/>
<circle cx="192.9" cy="70.7" r="3.0" fill="#7C4DFF" opacity="0.14" filter="url(#softGlow)"/>
<circle cx="173.7" cy="144.0" r="1.4" fill="#7C4DFF" opacity="0.18" filter="url(#softGlow)"/>
<circle cx="967.4" cy="1009.0" r="2.8" fill="#7C4DFF" opacity="0.25" filter="url(#softGlow)"/>
<circle cx="1563.0" cy="977.0" r="3.0" fill="#7C4DFF" opacity="0.26" filter="url(#softGlow)"/>
<circle cx="436.1" cy="83.2" r="2.0" fill="#7C4DFF" opacity="0.26" filter="url(#softGlow)"/>
<circle cx="1773.8" cy="677.1" r="1.5" fill="#7C4DFF" opacity="0.28" filter="url(#softGlow)"/>
<circle cx="1843.5" cy="195.5" r="1.7" fill="#7C4DFF" opacity="0.12" filter="url(#softGlow)"/>
<circle cx="153.0" cy="773.6" r="1.8" fill="#7C4DFF" opacity="0.19" filter="url(#softGlow)"/>
<circle cx="1214.2" cy="1049.0" r="1.5" fill="#7C4DFF" opacity="0.21" filter="url(#softGlow)"/>
<circle cx="1717.9" cy="25.7" r="1.3" fill="#7C4DFF" opacity="0.12" filter="url(#softGlow)"/>
<circle cx="1881.2" cy="145.1" r="2.3" fill="#7C4DFF" opacity="0.19" filter="url(#softGlow)"/>
<circle cx="1892.0" cy="140.8" r="2.7" fill="#7C4DFF" opacity="0.26" filter="url(#softGlow)"/>
<circle cx="187.7" cy="130.3" r="1.5" fill="#7C4DFF" opacity="0.28" filter="url(#softGlow)"/>
<circle cx="67.0" cy="930.4" r="1.5" fill="#7C4DFF" opacity="0.18" filter="url(#softGlow)"/>
<circle cx="1813.9" cy="89.5" r="1.7" fill="#7C4DFF" opacity="0.11" filter="url(#softGlow)"/>
</svg>