<svg xmlns="http://www.w3.org/2000/svg" width="1920" height="1080" viewBox="0 0 1920 1080" preserveAspectRatio="xMidYMid slice">
<defs>
  <linearGradient id="g0" x1="0" y1="0" x2="1" y2="1">
    <stop offset="0" stop-color="#0B0F1A"/>
    <stop offset="0.55" stop-color="#A855F7" stop-opacity="0.9"/>
    <stop offset="1" stop-color="#030712"/>
  </linearGradient>
  <radialGradient id="g1" cx="20%" cy="15%" r="70%">
    <stop offset="0" stop-color="#22D3EE" stop-opacity="0.38"/>
    <stop offset="0.6" stop-color="#22D3EE" stop-opacity="0.08"/>
    <stop offset="1" stop-color="#22D3EE" stop-opacity="0"/>
  </radialGradient>
  <radialGradient id="g2" cx="85%" cy="80%" r="75%">
    <stop offset="0" stop-color="#22D3EE" stop-opacity="0.28"/>
    <stop offset="0.65" stop-color="#22D3EE" stop-opacity="0.06"/>
    <stop offset="1" stop-color="#22D3EE" stop-opacity="0"/>
  </radialGradient>
  <filter id="softGlow" x="-30%" y="-30%" width="160%" height="160%">
    <feGaussianBlur stdDeviation="12" result="b"/>
    <feMerge>
      <feMergeNode in="b"/>
      <feMergeNode in="SourceGraphic"/>
    </feMerge>
  </filter>
  <filter id="hardGlow" x="-40%" y="-40%" width="180%" height="180%">
    <feGaussianBlur stdDeviation="6" result="b"/>
    <feColorMatrix in="b" type="matrix" values="1 0 0 0 0  0 1 0 0 0  0 0 1 0 0  0 0 0 18 -7" result="c"/>
    <feMerge>
      <feMergeNode in="c"/>
      <feMergeNode in="SourceGraphic"/>
    </feMerge>
  </filter>
  <linearGradient id="strokeA" x1="0" y1="0" x2="1" y2="0">
    <stop offset="0" stop-color="#22D3EE" stop-opacity="0.9"/>
    <stop offset="0.5" stop-color="#FFFFFF" stop-opacity="0.25"/>
    <stop offset="1" stop-color="#22D3EE" stop-opacity="0.7"/>
  </linearGradient>
  <linearGradient id="strokeB" x1="0" y1="0" x2="0" y2="1">
    <stop offset="0" stop-color="#FFFFFF" stop-opacity="0.18"/>
    <stop offset="1" stop-color="#22D3EE" stop-opacity="0.55"/>
  </linearGradient>
</defs>
<rect x="0" y="0" width="1920" height="1080" fill="url(#g0)"/>
<rect x="0" y="0" width="1920" height="1080" fill="url(#g1)"/>
<rect x="0" y="0" width="1920" height="1080" fill="url(#g2)"/>


<defs>
  <radialGradient id="vign" cx="0.5000" cy="0.5093" r="0.85">
    <stop offset="0" stop-color="#000000" stop-opacity="0"/>
    <stop offset="0.55" stop-color="#000000" stop-opacity="0.217"/>
    <stop offset="1" stop-color="#000000" stop-opacity="0.620"/>
  </radialGradient>
</defs>
<rect x="0" y="0" width="1920" height="1080" fill="url(#vign)"/>

<g opacity="0.271" filter="url(#softGlow)"><path d="M 753.5,1044.0 L 207.1,1044.0 L 207.1,903.0 L 137.6,903.0 L 137.6,1027.2 " fill="none" stroke="url(#strokeB)" stroke-width="1.78" stroke-linecap="round" stroke-linejoin="round"/><circle cx="137.6" cy="1027.2" r="3.4" fill="#A855F7" opacity="0.45"/><circle cx="753.5" cy="1044.0" r="2.4" fill="#A855F7" opacity="0.45"/><circle cx="207.1" cy="903.0" r="3.7" fill="#A855F7" opacity="0.45"/></g>
<g opacity="0.271" filter="url(#softGlow)"><path d="M 1774.8,541.9 L 125.6,541.9 L 125.6,189.8 L 19.3,189.8 L 19.3,917.5 " fill="none" stroke="url(#strokeB)" stroke-width="1.59" stroke-linecap="round" stroke-linejoin="round"/><circle cx="19.3" cy="917.5" r="4.0" fill="#A855F7" opacity="0.45"/><circle cx="125.6" cy="189.8" r="3.4" fill="#A855F7" opacity="0.45"/><circle cx="125.6" cy="541.9" r="3.9" fill="#A855F7" opacity="0.45"/></g>
<g opacity="0.271" filter="url(#softGlow)"><path d="M 143.4,156.1 L 412.9,156.1 L 412.9,34.8 L 103.8,34.8 L 103.8,87.5 " fill="none" stroke="url(#strokeB)" stroke-width="2.07" stroke-linecap="round" stroke-linejoin="round"/><circle cx="412.9" cy="34.8" r="2.7" fill="#A855F7" opacity="0.45"/><circle cx="103.8" cy="34.8" r="2.1" fill="#A855F7" opacity="0.45"/><circle cx="143.4" cy="156.1" r="4.1" fill="#A855F7" opacity="0.45"/></g>
<g opacity="0.271" filter="url(#softGlow)"><path d="M 625.2,1065.4 L 1790.9,1065.4 L 1790.9,187.5 L 171.2,187.5 L 171.2,200.1 " fill="none" stroke="url(#strokeB)" stroke-width="1.77" stroke-linecap="round" stroke-linejoin="round"/><circle cx="1790.9" cy="187.5" r="2.4" fill="#A855F7" opacity="0.45"/><circle cx="171.2" cy="200.1" r="2.3" fill="#A855F7" opacity="0.45"/><circle cx="625.2" cy="1065.4" r="2.7" fill="#A855F7" opacity="0.45"/></g>
<g opacity="0.271" filter="url(#softGlow)"><path d="M 1896.1,909.7 L 1705.2,909.7 L 1705.2,1012.6 L 1735.7,1012.6 L 1735.7,1028.5 " fill="none" stroke="url(#strokeB)" stroke-width="2.02" stroke-linecap="round" stroke-linejoin="round"/><circle cx="1705.2" cy="909.7" r="4.1" fill="#A855F7" opacity="0.45"/><circle cx="1705.2" cy="1012.6" r="4.0" fill="#A855F7" opacity="0.45"/><circle cx="1735.7" cy="1028.5" r="3.2" fill="#A855F7" opacity="0.45"/></g>
<g opacity="0.271" filter="url(#softGlow)"><path d="M 112.0,411.7 L 115.5,411.7 L 115.5,152.1 L 161.6,152.1 L 161.6,128.0 " fill="none" stroke="url(#strokeB)" stroke-width="1.68" stroke-linecap="round" stroke-linejoin="round"/><circle cx="115.5" cy="411.7" r="2.7" fill="#A855F7" opacity="0.45"/><circle cx="112.0" cy="411.7" r="4.1" fill="#A855F7" opacity="0.45"/><circle cx="115.5" cy="152.1" r="3.5" fill="#A855F7" opacity="0.45"/></g>
<g opacity="0.271" filter="url(#softGlow)"><path d="M 211.7,961.1 L 574.7,961.1 L 574.7,977.5 L 1746.3,977.5 L 1746.3,982.4 " fill="none" stroke="url(#strokeB)" stroke-width="1.91" stroke-linecap="round" stroke-linejoin="round"/><circle cx="211.7" cy="961.1" r="2.8" fill="#A855F7" opacity="0.45"/><circle cx="574.7" cy="961.1" r="2.5" fill="#A855F7" opacity="0.45"/><circle cx="1746.3" cy="977.5" r="2.1" fill="#A855F7" opacity="0.45"/></g>
<g opacity="0.271" filter="url(#softGlow)"><path d="M 1813.8,1046.7 L 27.8,1046.7 L 27.8,43.3 L 1591.4,43.3 L 1591.4,1044.2 " fill="none" stroke="url(#strokeB)" stroke-width="1.47" stroke-linecap="round" stroke-linejoin="round"/><circle cx="27.8" cy="43.3" r="4.0" fill="#A855F7" opacity="0.45"/><circle cx="27.8" cy="1046.7" r="3.7" fill="#A855F7" opacity="0.45"/><circle cx="1591.4" cy="1044.2" r="2.9" fill="#A855F7" opacity="0.45"/></g>
<g opacity="0.271" filter="url(#softGlow)"><path d="M 1908.6,1021.8 L 1761.6,1021.8 L 1761.6,1061.6 L 1863.3,1061.6 L 1863.3,944.5 " fill="none" stroke="url(#strokeB)" stroke-width="1.48" stroke-linecap="round" stroke-linejoin="round"/><circle cx="1761.6" cy="1021.8" r="2.6" fill="#A855F7" opacity="0.45"/><circle cx="1908.6" cy="1021.8" r="2.6" fill="#A855F7" opacity="0.45"/><circle cx="1863.3" cy="1061.6" r="2.9" fill="#A855F7" opacity="0.45"/></g>
<g opacity="0.271" filter="url(#softGlow)"><path d="M 181.5,948.0 L 51.4,948.0 L 51.4,68.7 L 92.6,68.7 L 92.6,1000.7 " fill="none" stroke="url(#strokeB)" stroke-width="1.85" stroke-linecap="round" stroke-linejoin="round"/><circle cx="92.6" cy="1000.7" r="3.5" fill="#A855F7" opacity="0.45"/><circle cx="92.6" cy="68.7" r="2.5" fill="#A855F7" opacity="0.45"/><circle cx="181.5" cy="948.0" r="3.4" fill="#A855F7" opacity="0.45"/></g>
<g opacity="0.271" filter="url(#softGlow)"><path d="M 143.8,598.4 L 168.9,598.4 L 168.9,517.2 L 1895.1,517.2 L 1895.1,1011.3 " fill="none" stroke="url(#strokeB)" stroke-width="1.43" stroke-linecap="round" stroke-linejoin="round"/><circle cx="143.8" cy="598.4" r="3.1" fill="#A855F7" opacity="0.45"/><circle cx="168.9" cy="517.2" r="4.0" fill="#A855F7" opacity="0.45"/><circle cx="1895.1" cy="1011.3" r="3.2" fill="#A855F7" opacity="0.45"/></g>
<g opacity="0.271" filter="url(#softGlow)"><path d="M 24.4,524.6 L 1875.9,524.6 L 1875.9,921.1 L 1903.1,921.1 L 1903.1,995.0 " fill="none" stroke="url(#strokeB)" stroke-width="1.51" stroke-linecap="round" stroke-linejoin="round"/><circle cx="1875.9" cy="524.6" r="3.7" fill="#A855F7" opacity="0.45"/><circle cx="1903.1" cy="995.0" r="3.9" fill="#A855F7" opacity="0.45"/><circle cx="1875.9" cy="921.1" r="3.4" fill="#A855F7" opacity="0.45"/></g>
<g opacity="0.271" filter="url(#softGlow)"><path d="M 30.1,1070.3 L 1889.2,1070.3 L 1889.2,1001.0 L 23.5,1001.0 L 23.5,1029.1 " fill="none" stroke="url(#strokeB)" stroke-width="1.55" stroke-linecap="round" stroke-linejoin="round"/><circle cx="23.5" cy="1029.1" r="3.3" fill="#A855F7" opacity="0.45"/><circle cx="1889.2" cy="1070.3" r="3.7" fill="#A855F7" opacity="0.45"/><circle cx="1889.2" cy="1001.0" r="3.2" fill="#A855F7" opacity="0.45"/></g>
<g opacity="0.271" filter="url(#softGlow)"><path d="M 1708.0,1075.2 L 1853.6,1075.2 L 1853.6,678.0 L 1547.7,678.0 L 1547.7,1053.8 " fill="none" stroke="url(#strokeB)" stroke-width="1.43" stroke-linecap="round" stroke-linejoin="round"/><circle cx="1547.7" cy="1053.8" r="2.1" fill="#A855F7" opacity="0.45"/><circle cx="1547.7" cy="678.0" r="3.2" fill="#A855F7" opacity="0.45"/><circle cx="1708.0" cy="1075.2" r="3.3" fill="#A855F7" opacity="0.45"/></g>
<g opacity="0.271" filter="url(#softGlow)"><path d="M 202.2,930.8 L 89.1,930.8 L 89.1,60.1 L 1812.7,60.1 L 1812.7,947.3 " fill="none" stroke="url(#strokeB)" stroke-width="1.12" stroke-linecap="round" stroke-linejoin="round"/><circle cx="1812.7" cy="60.1" r="3.9" fill="#A855F7" opacity="0.45"/><circle cx="89.1" cy="930.8" r="3.6" fill="#A855F7" opacity="0.45"/><circle cx="89.1" cy="60.1" r="2.6" fill="#A855F7" opacity="0.45"/></g>
<g opacity="0.271" filter="url(#softGlow)"><path d="M 189.9,177.4 L 1856.0,177.4 L 1856.0,1074.8 L 37.5,1074.8 L 37.5,868.9 " fill="none" stroke="url(#strokeB)" stroke-width="2.17" stroke-linecap="round" stroke-linejoin="round"/><circle cx="1856.0" cy="177.4" r="2.6" fill="#A855F7" opacity="0.45"/><circle cx="37.5" cy="868.9" r="4.1" fill="#A855F7" opacity="0.45"/><circle cx="37.5" cy="1074.8" r="2.3" fill="#A855F7" opacity="0.45"/></g>

<g opacity="0.713" filter="url(#hardGlow)">
  <circle cx="36.2" cy="967.3" r="67.9" fill="#0A1224" opacity="0.65"/>
  <circle cx="36.2" cy="967.3" r="67.9" fill="none" stroke="url(#strokeA)" stroke-width="5.4" opacity="0.85"/>
  <circle cx="36.2" cy="967.3" r="58.4" fill="none" stroke="#F59E0B" stroke-width="2.0" opacity="0.35"/>
  <polygon points="42.2,918.8 81.2,948.2 75.2,996.7 30.2,1015.7 -8.8,986.3 -2.8,937.8" fill="none" stroke="url(#strokeB)" stroke-width="1.7" opacity="0.65"/>
  <polygon points="44.0,952.0 45.5,981.6 19.1,968.1" fill="#F59E0B" opacity="0.22" filter="url(#softGlow)"/>
</g>


<g opacity="0.384" filter="url(#hardGlow)">
  <circle cx="38.2" cy="887.0" r="24.8" fill="#0A1224" opacity="0.65"/>
  <circle cx="38.2" cy="887.0" r="24.8" fill="none" stroke="url(#strokeA)" stroke-width="2.0" opacity="0.85"/>
  <circle cx="38.2" cy="887.0" r="21.3" fill="none" stroke="#A855F7" stroke-width="1.5" opacity="0.35"/>
  <polygon points="55.8,889.8 44.5,903.7 26.9,900.8 20.5,884.1 31.8,870.3 49.5,873.1" fill="none" stroke="url(#strokeB)" stroke-width="1.2" opacity="0.65"/>
  
</g>


<g opacity="0.792" filter="url(#hardGlow)">
  <circle cx="1791.7" cy="452.7" r="68.9" fill="#0A1224" opacity="0.65"/>
  <circle cx="1791.7" cy="452.7" r="68.9" fill="none" stroke="url(#strokeA)" stroke-width="5.5" opacity="0.85"/>
  <circle cx="1791.7" cy="452.7" r="59.2" fill="none" stroke="#F59E0B" stroke-width="2.1" opacity="0.35"/>
  <polygon points="1826.7,487.9 1778.8,500.6 1743.8,465.5 1756.8,417.6 1804.7,404.9 1839.7,440.0" fill="none" stroke="url(#strokeB)" stroke-width="1.7" opacity="0.65"/>
  <polygon points="1799.0,468.5 1774.5,451.2 1801.7,438.5" fill="#F59E0B" opacity="0.22" filter="url(#softGlow)"/>
</g>


<g opacity="0.363" filter="url(#hardGlow)">
  <circle cx="1828.7" cy="529.3" r="33.3" fill="#0A1224" opacity="0.65"/>
  <circle cx="1828.7" cy="529.3" r="33.3" fill="none" stroke="url(#strokeA)" stroke-width="2.7" opacity="0.85"/>
  <circle cx="1828.7" cy="529.3" r="28.6" fill="none" stroke="#A855F7" stroke-width="1.5" opacity="0.35"/>
  <polygon points="1851.2,520.9 1847.2,544.6 1824.8,552.9 1806.3,537.7 1810.2,514.1 1832.7,505.7" fill="none" stroke="url(#strokeB)" stroke-width="1.2" opacity="0.65"/>
  
</g>


<g opacity="0.586" filter="url(#hardGlow)">
  <circle cx="1737.9" cy="428.6" r="32.1" fill="#0A1224" opacity="0.65"/>
  <circle cx="1737.9" cy="428.6" r="32.1" fill="none" stroke="url(#strokeA)" stroke-width="2.6" opacity="0.85"/>
  <circle cx="1737.9" cy="428.6" r="27.6" fill="none" stroke="#A855F7" stroke-width="1.5" opacity="0.35"/>
  <polygon points="1752.7,410.9 1760.6,432.6 1745.8,450.3 1723.1,446.3 1715.1,424.7 1729.9,406.9" fill="none" stroke="url(#strokeB)" stroke-width="1.2" opacity="0.65"/>
  <polygon points="1744.9,424.6 1737.9,436.7 1730.9,424.6" fill="#A855F7" opacity="0.22" filter="url(#softGlow)"/>
</g>


<g opacity="0.455" filter="url(#hardGlow)">
  <circle cx="1890.7" cy="489.8" r="26.7" fill="#0A1224" opacity="0.65"/>
  <circle cx="1890.7" cy="489.8" r="26.7" fill="none" stroke="url(#strokeA)" stroke-width="2.1" opacity="0.85"/>
  <circle cx="1890.7" cy="489.8" r="23.0" fill="none" stroke="#A855F7" stroke-width="1.5" opacity="0.35"/>
  <polygon points="1892.5,509.0 1875.0,500.9 1873.3,481.8 1889.0,470.7 1906.4,478.7 1908.2,497.9" fill="none" stroke="url(#strokeB)" stroke-width="1.2" opacity="0.65"/>
  
</g>


<g opacity="0.808" filter="url(#hardGlow)">
  <circle cx="1903.2" cy="1044.1" r="43.8" fill="#0A1224" opacity="0.65"/>
  <circle cx="1903.2" cy="1044.1" r="43.8" fill="none" stroke="url(#strokeA)" stroke-width="3.5" opacity="0.85"/>
  <circle cx="1903.2" cy="1044.1" r="37.7" fill="none" stroke="#F59E0B" stroke-width="1.5" opacity="0.35"/>
  <polygon points="1872.2,1050.2 1882.3,1020.3 1913.3,1014.2 1934.1,1037.9 1924.0,1067.8 1893.1,1073.9" fill="none" stroke="url(#strokeB)" stroke-width="1.2" opacity="0.65"/>
  <polygon points="1892.3,1042.4 1910.1,1035.4 1907.2,1054.3" fill="#F59E0B" opacity="0.22" filter="url(#softGlow)"/>
</g>


<g opacity="0.358" filter="url(#hardGlow)">
  <circle cx="1968.3" cy="1021.5" r="21.8" fill="#0A1224" opacity="0.65"/>
  <circle cx="1968.3" cy="1021.5" r="21.8" fill="none" stroke="url(#strokeA)" stroke-width="2.0" opacity="0.85"/>
  <circle cx="1968.3" cy="1021.5" r="18.8" fill="none" stroke="#A855F7" stroke-width="1.5" opacity="0.35"/>
  <polygon points="1982.8,1015.5 1980.7,1031.1 1966.2,1037.0 1953.7,1027.4 1955.8,1011.9 1970.4,1005.9" fill="none" stroke="url(#strokeB)" stroke-width="1.2" opacity="0.65"/>
  
</g>


<g opacity="0.794" filter="url(#hardGlow)">
  <circle cx="1814.4" cy="25.3" r="46.7" fill="#0A1224" opacity="0.65"/>
  <circle cx="1814.4" cy="25.3" r="46.7" fill="none" stroke="url(#strokeA)" stroke-width="3.7" opacity="0.85"/>
  <circle cx="1814.4" cy="25.3" r="40.2" fill="none" stroke="#F59E0B" stroke-width="1.5" opacity="0.35"/>
  <polygon points="1782.9,13.6 1808.7,-7.9 1840.3,3.8 1845.9,36.9 1820.1,58.4 1788.5,46.8" fill="none" stroke="url(#strokeB)" stroke-width="1.2" opacity="0.65"/>
  <polygon points="1805.4,17.7 1825.5,21.3 1812.3,36.9" fill="#F59E0B" opacity="0.22" filter="url(#softGlow)"/>
</g>


<g opacity="0.600" filter="url(#hardGlow)">
  <circle cx="1757.2" cy="1.4" r="19.5" fill="#0A1224" opacity="0.65"/>
  <circle cx="1757.2" cy="1.4" r="19.5" fill="none" stroke="url(#strokeA)" stroke-width="2.0" opacity="0.85"/>
  <circle cx="1757.2" cy="1.4" r="16.8" fill="none" stroke="#A855F7" stroke-width="1.5" opacity="0.35"/>
  <polygon points="1770.6,-3.1 1767.8,10.7 1754.4,15.2 1743.9,5.9 1746.7,-7.9 1760.0,-12.4" fill="none" stroke="url(#strokeB)" stroke-width="1.2" opacity="0.65"/>
  
</g>


<g opacity="0.354" filter="url(#hardGlow)">
  <circle cx="1781.4" cy="1.4" r="22.4" fill="#0A1224" opacity="0.65"/>
  <circle cx="1781.4" cy="1.4" r="22.4" fill="none" stroke="url(#strokeA)" stroke-width="2.0" opacity="0.85"/>
  <circle cx="1781.4" cy="1.4" r="19.3" fill="none" stroke="#A855F7" stroke-width="1.5" opacity="0.35"/>
  <polygon points="1772.0,-11.7 1788.0,-13.3 1797.5,-0.2 1790.8,14.5 1774.8,16.1 1765.4,3.1" fill="none" stroke="url(#strokeB)" stroke-width="1.2" opacity="0.65"/>
  <polygon points="1779.9,-4.0 1786.9,2.8 1777.5,5.5" fill="#A855F7" opacity="0.22" filter="url(#softGlow)"/>
</g>


<g opacity="0.844" filter="url(#hardGlow)">
  <circle cx="1792.1" cy="1058.2" r="39.9" fill="#0A1224" opacity="0.65"/>
  <circle cx="1792.1" cy="1058.2" r="39.9" fill="none" stroke="url(#strokeA)" stroke-width="3.2" opacity="0.85"/>
  <circle cx="1792.1" cy="1058.2" r="34.4" fill="none" stroke="#F59E0B" stroke-width="1.5" opacity="0.35"/>
  <polygon points="1819.5,1067.0 1798.2,1086.3 1770.8,1077.5 1764.7,1049.4 1786.0,1030.1 1813.4,1038.9" fill="none" stroke="url(#strokeB)" stroke-width="1.2" opacity="0.65"/>
  <polygon points="1800.0,1064.4 1782.7,1062.0 1793.4,1048.2" fill="#F59E0B" opacity="0.22" filter="url(#softGlow)"/>
</g>


<g opacity="0.470" filter="url(#hardGlow)">
  <circle cx="1750.8" cy="1054.2" r="18.7" fill="#0A1224" opacity="0.65"/>
  <circle cx="1750.8" cy="1054.2" r="18.7" fill="none" stroke="url(#strokeA)" stroke-width="2.0" opacity="0.85"/>
  <circle cx="1750.8" cy="1054.2" r="16.0" fill="none" stroke="#A855F7" stroke-width="1.5" opacity="0.35"/>
  <polygon points="1741.0,1063.3 1738.0,1050.2 1747.8,1041.1 1760.6,1045.0 1763.6,1058.1 1753.8,1067.2" fill="none" stroke="url(#strokeB)" stroke-width="1.2" opacity="0.65"/>
  
</g>


<g opacity="0.541" filter="url(#hardGlow)">
  <circle cx="1741.4" cy="1044.1" r="17.6" fill="#0A1224" opacity="0.65"/>
  <circle cx="1741.4" cy="1044.1" r="17.6" fill="none" stroke="url(#strokeA)" stroke-width="2.0" opacity="0.85"/>
  <circle cx="1741.4" cy="1044.1" r="15.2" fill="none" stroke="#A855F7" stroke-width="1.5" opacity="0.35"/>
  <polygon points="1738.2,1031.8 1750.5,1035.3 1753.6,1047.6 1744.5,1056.4 1732.3,1053.0 1729.2,1040.7" fill="none" stroke="url(#strokeB)" stroke-width="1.2" opacity="0.65"/>
  
</g>


<g opacity="0.703" filter="url(#hardGlow)">
  <circle cx="1794.8" cy="971.7" r="39.7" fill="#0A1224" opacity="0.65"/>
  <circle cx="1794.8" cy="971.7" r="39.7" fill="none" stroke="url(#strokeA)" stroke-width="3.2" opacity="0.85"/>
  <circle cx="1794.8" cy="971.7" r="34.1" fill="none" stroke="#F59E0B" stroke-width="1.5" opacity="0.35"/>
  <polygon points="1772.4,954.0 1798.9,943.4 1821.4,961.1 1817.2,989.4 1790.7,1000.0 1768.3,982.3" fill="none" stroke="url(#strokeB)" stroke-width="1.2" opacity="0.65"/>
  <polygon points="1789.6,963.2 1804.8,971.4 1790.1,980.5" fill="#F59E0B" opacity="0.22" filter="url(#softGlow)"/>
</g>


<g opacity="0.617" filter="url(#hardGlow)">
  <circle cx="1765.8" cy="1002.2" r="19.7" fill="#0A1224" opacity="0.65"/>
  <circle cx="1765.8" cy="1002.2" r="19.7" fill="none" stroke="url(#strokeA)" stroke-width="2.0" opacity="0.85"/>
  <circle cx="1765.8" cy="1002.2" r="16.9" fill="none" stroke="#A855F7" stroke-width="1.5" opacity="0.35"/>
  <polygon points="1779.8,1004.0 1771.2,1015.3 1757.2,1013.5 1751.7,1000.4 1760.3,989.2 1774.4,991.0" fill="none" stroke="url(#strokeB)" stroke-width="1.2" opacity="0.65"/>
  <polygon points="1770.2,1004.5 1761.6,1004.9 1765.5,997.3" fill="#A855F7" opacity="0.22" filter="url(#softGlow)"/>
</g>


<g opacity="0.320" transform="translate(1852.2,195.3) rotate(-5.6)" filter="url(#softGlow)">
  <rect x="-80.3" y="-56.7" width="160.6" height="113.3" rx="11.3" fill="#050A12" opacity="0.25"/>
  <rect x="-80.3" y="-56.7" width="160.6" height="113.3" rx="11.3" fill="none" stroke="url(#strokeA)" stroke-width="5.7" opacity="0.85"/>
  <rect x="-71.2" y="-47.6" width="142.5" height="95.2" rx="7.9" fill="none" stroke="#F59E0B" stroke-width="2.3" opacity="0.35"/>
</g>


<g opacity="0.337" transform="translate(51.6,983.6) rotate(-4.9)" filter="url(#softGlow)">
  <rect x="-113.5" y="-91.8" width="227.1" height="183.5" rx="18.4" fill="#050A12" opacity="0.25"/>
  <rect x="-113.5" y="-91.8" width="227.1" height="183.5" rx="18.4" fill="none" stroke="url(#strokeA)" stroke-width="9.2" opacity="0.85"/>
  <rect x="-98.8" y="-77.1" width="197.7" height="154.2" rx="12.8" fill="none" stroke="#A855F7" stroke-width="3.7" opacity="0.35"/>
</g>


<g opacity="0.318" transform="translate(1743.3,896.9) rotate(-4.1)" filter="url(#softGlow)">
  <rect x="-106.5" y="-93.1" width="213.0" height="186.1" rx="18.6" fill="#050A12" opacity="0.25"/>
  <rect x="-106.5" y="-93.1" width="213.0" height="186.1" rx="18.6" fill="none" stroke="url(#strokeA)" stroke-width="9.3" opacity="0.85"/>
  <rect x="-91.6" y="-78.2" width="183.2" height="156.3" rx="13.0" fill="none" stroke="#F59E0B" stroke-width="3.7" opacity="0.35"/>
</g>


<g opacity="0.260" transform="translate(1778.7,82.5) rotate(15.3)" filter="url(#softGlow)">
  <rect x="-50.7" y="-29.2" width="101.3" height="58.4" rx="17.8" fill="none" stroke="#F59E0B" stroke-width="9.7" opacity="0.55"/>
  <rect x="-22.3" y="-14.6" width="101.3" height="58.4" rx="17.8" fill="none" stroke="url(#strokeA)" stroke-width="8.1" opacity="0.55"/>
</g>


<g opacity="0.374" transform="translate(105.1,70.3) rotate(2.6)" filter="url(#softGlow)">
  <rect x="-34.7" y="-20.0" width="69.4" height="40.0" rx="12.2" fill="none" stroke="#A855F7" stroke-width="6.7" opacity="0.55"/>
  <rect x="-15.3" y="-10.0" width="69.4" height="40.0" rx="12.2" fill="none" stroke="url(#strokeA)" stroke-width="5.5" opacity="0.55"/>
</g>


<g opacity="0.472" transform="translate(41.3,150.8) rotate(-12.1)" filter="url(#softGlow)">
  <rect x="-39.4" y="-22.7" width="78.7" height="45.4" rx="13.9" fill="none" stroke="#A855F7" stroke-width="7.6" opacity="0.55"/>
  <rect x="-17.3" y="-11.3" width="78.7" height="45.4" rx="13.9" fill="none" stroke="url(#strokeA)" stroke-width="6.3" opacity="0.55"/>
</g>


<g opacity="0.263" transform="translate(1889.8,910.7) rotate(9.4)" filter="url(#softGlow)">
  <rect x="-34.5" y="-19.9" width="68.9" height="39.7" rx="12.1" fill="none" stroke="#A855F7" stroke-width="6.6" opacity="0.55"/>
  <rect x="-15.2" y="-9.9" width="68.9" height="39.7" rx="12.1" fill="none" stroke="url(#strokeA)" stroke-width="5.5" opacity="0.55"/>
</g>


<g opacity="0.245" transform="translate(6.9,928.3) rotate(-0.5)" filter="url(#softGlow)">
  <rect x="-51.4" y="-29.6" width="102.9" height="59.3" rx="18.1" fill="none" stroke="#F59E0B" stroke-width="9.9" opacity="0.55"/>
  <rect x="-22.6" y="-14.8" width="102.9" height="59.3" rx="18.1" fill="none" stroke="url(#strokeA)" stroke-width="8.2" opacity="0.55"/>
</g>


<g opacity="0.321" transform="translate(56.1,888.4) rotate(-1.6)" filter="url(#softGlow)">
  <rect x="-58.9" y="-33.9" width="117.8" height="67.9" rx="20.7" fill="none" stroke="#A855F7" stroke-width="11.3" opacity="0.55"/>
  <rect x="-25.9" y="-17.0" width="117.8" height="67.9" rx="20.7" fill="none" stroke="url(#strokeA)" stroke-width="9.4" opacity="0.55"/>
</g>


<g opacity="0.359" transform="translate(26.1,41.9) rotate(-2.8)" filter="url(#softGlow)">
  <rect x="-51.1" y="-29.4" width="102.2" height="58.9" rx="18.0" fill="none" stroke="#F59E0B" stroke-width="9.8" opacity="0.55"/>
  <rect x="-22.5" y="-14.7" width="102.2" height="58.9" rx="18.0" fill="none" stroke="url(#strokeA)" stroke-width="8.2" opacity="0.55"/>
</g>


<g opacity="0.266" transform="translate(1911.2,604.8) rotate(0.0)" filter="url(#softGlow)">
  <rect x="-40.6" y="-23.4" width="81.2" height="46.8" rx="14.3" fill="none" stroke="#F59E0B" stroke-width="7.8" opacity="0.55"/>
  <rect x="-17.9" y="-11.7" width="81.2" height="46.8" rx="14.3" fill="none" stroke="url(#strokeA)" stroke-width="6.5" opacity="0.55"/>
</g>


<g opacity="0.233" transform="translate(1853.6,129.5) rotate(2.4)" filter="url(#softGlow)">
  <rect x="-36.9" y="-21.3" width="73.8" height="42.5" rx="13.0" fill="none" stroke="#F59E0B" stroke-width="7.1" opacity="0.55"/>
  <rect x="-16.2" y="-10.6" width="73.8" height="42.5" rx="13.0" fill="none" stroke="url(#strokeA)" stroke-width="5.9" opacity="0.55"/>
</g>


<g opacity="0.195">
  <line x1="1898.9" y1="883.3" x2="1898.9" y2="997.1" stroke="#A855F7" stroke-width="1.12" opacity="0.45"/>
  <rect x="1893.5" y="947.6" width="10.8" height="53.5" rx="3.6" fill="#0B1020" opacity="0.55" stroke="url(#strokeA)" stroke-width="1.2"/>
</g>

<g opacity="0.195">
  <line x1="436.7" y1="888.7" x2="436.7" y2="995.8" stroke="#A855F7" stroke-width="1.32" opacity="0.45"/>
  <rect x="431.4" y="945.0" width="10.6" height="58.8" rx="3.5" fill="#0B1020" opacity="0.55" stroke="url(#strokeA)" stroke-width="1.2"/>
</g>

<g opacity="0.195">
  <line x1="933.5" y1="917.9" x2="933.5" y2="988.5" stroke="#A855F7" stroke-width="1.17" opacity="0.45"/>
  <rect x="930.3" y="964.9" width="6.5" height="18.8" rx="2.2" fill="#0B1020" opacity="0.55" stroke="url(#strokeA)" stroke-width="1.2"/>
</g>

<g opacity="0.195">
  <line x1="57.9" y1="885.7" x2="57.9" y2="996.5" stroke="#A855F7" stroke-width="1.34" opacity="0.45"/>
  <rect x="53.8" y="948.3" width="8.2" height="52.1" rx="2.7" fill="#0B1020" opacity="0.55" stroke="url(#strokeA)" stroke-width="1.2"/>
</g>

<g opacity="0.195">
  <line x1="1455.2" y1="895.0" x2="1455.2" y2="994.2" stroke="#A855F7" stroke-width="1.26" opacity="0.45"/>
  <rect x="1449.6" y="948.5" width="11.2" height="51.8" rx="3.7" fill="#0B1020" opacity="0.55" stroke="url(#strokeA)" stroke-width="1.2"/>
</g>

<g opacity="0.195">
  <line x1="1880.7" y1="922.1" x2="1880.7" y2="987.4" stroke="#A855F7" stroke-width="1.08" opacity="0.45"/>
  <rect x="1874.8" y="962.1" width="11.9" height="24.5" rx="4.0" fill="#0B1020" opacity="0.55" stroke="url(#strokeA)" stroke-width="1.2"/>
</g>

<g opacity="0.195">
  <line x1="937.9" y1="914.4" x2="937.9" y2="989.4" stroke="#A855F7" stroke-width="1.45" opacity="0.45"/>
  <rect x="932.7" y="950.3" width="10.4" height="48.1" rx="3.5" fill="#0B1020" opacity="0.55" stroke="url(#strokeA)" stroke-width="1.2"/>
</g>

<g opacity="0.195">
  <line x1="311.1" y1="906.3" x2="311.1" y2="991.4" stroke="#A855F7" stroke-width="1.47" opacity="0.45"/>
  <rect x="307.3" y="958.8" width="7.5" height="31.2" rx="2.5" fill="#0B1020" opacity="0.55" stroke="url(#strokeA)" stroke-width="1.2"/>
</g>

<g opacity="0.195">
  <line x1="501.7" y1="911.5" x2="501.7" y2="990.1" stroke="#A855F7" stroke-width="1.66" opacity="0.45"/>
  <rect x="496.8" y="956.3" width="9.9" height="36.1" rx="3.3" fill="#0B1020" opacity="0.55" stroke="url(#strokeA)" stroke-width="1.2"/>
</g>

<g opacity="0.195">
  <line x1="1128.8" y1="922.6" x2="1128.8" y2="987.3" stroke="#A855F7" stroke-width="2.00" opacity="0.45"/>
  <rect x="1124.4" y="954.8" width="8.8" height="39.2" rx="2.9" fill="#0B1020" opacity="0.55" stroke="url(#strokeA)" stroke-width="1.2"/>
</g>

<g opacity="0.195">
  <line x1="635.5" y1="918.7" x2="635.5" y2="988.3" stroke="#A855F7" stroke-width="2.14" opacity="0.45"/>
  <rect x="632.0" y="953.8" width="7.1" height="41.2" rx="2.4" fill="#0B1020" opacity="0.55" stroke="url(#strokeA)" stroke-width="1.2"/>
</g>

<g opacity="0.195">
  <line x1="536.1" y1="904.0" x2="536.1" y2="992.0" stroke="#A855F7" stroke-width="1.25" opacity="0.45"/>
  <rect x="532.5" y="957.6" width="7.2" height="33.6" rx="2.4" fill="#0B1020" opacity="0.55" stroke="url(#strokeA)" stroke-width="1.2"/>
</g>

<g opacity="0.195">
  <line x1="356.0" y1="896.2" x2="356.0" y2="993.9" stroke="#A855F7" stroke-width="1.22" opacity="0.45"/>
  <rect x="351.6" y="948.8" width="8.7" height="51.1" rx="2.9" fill="#0B1020" opacity="0.55" stroke="url(#strokeA)" stroke-width="1.2"/>
</g>
<circle cx="1841.4" cy="1044.3" r="1.3" fill="#F59E0B" opacity="0.18" filter="url(#softGlow)"/>
<circle cx="101.4" cy="200.1" r="2.5" fill="#F59E0B" opacity="0.11" filter="url(#softGlow)"/>
<circle cx="1764.1" cy="151.2" r="2.2" fill="#F59E0B" opacity="0.14" filter="url(#softGlow)"/>
<circle cx="77.6" cy="31.0" r="2.3" fill="#F59E0B" opacity="0.24" filter="url(#softGlow)"/>
<circle cx="14.2" cy="1075.5" r="2.6" fill="#F59E0B" opacity="0.16" filter="url(#softGlow)"/>
<circle cx="63.1" cy="704.3" r="2.7" fill="#F59E0B" opacity="0.15" filter="url(#softGlow)"/>
<circle cx="140.9" cy="451.7" r="2.4" fill="#F59E0B" opacity="0.13" filter="url(#softGlow)"/>
<circle cx="1333.5" cy="64.4" r="2.5" fill="#F59E0B" opacity="0.18" filter="url(#softGlow)"/>
<circle cx="1754.4" cy="952.7" r="1.8" fill="#F59E0B" opacity="0.17" filter="url(#softGlow)"/>
<circle cx="101.5" cy="191.6" r="2.1" fill="#F59E0B" opacity="0.19" filter="url(#softGlow)"/>
<circle cx="1525.4" cy="97.4" r="2.9" fill="#F59E0B" opacity="0.16" filter="url(#softGlow)"/>
<circle cx="1857.4" cy="59.9" r="1.8" fill="#F59E0B" opacity="0.11" filter="url(#softGlow)"/>
<circle cx="1853.3" cy="475.8" r="3.2" fill="#F59E0B" opacity="0.14" filter="url(#softGlow)"/>
<circle cx="1857.4" cy="895.0" r="1.6" fill="#F59E0B" opacity="0.24" filter="url(#softGlow)"/>
<circle cx="1776.6" cy="138.2" r="2.6" fill="#F59E0B" opacity="0.13" filter="url(#softGlow)"/>
<circle cx="1900.0" cy="80.3" r="1.9" fill="#F59E0B" opacity="0.18" filter="url(#softGlow)"/>
<circle cx="1717.7" cy="149.8" r="2.2" fill="#F59E0B" opacity="0.20" filter="url(#softGlow)"/>
<circle cx="1860.5" cy="64.2" r="2.2" fill="#F59E0B" opacity="0.26" filter="url(#softGlow)"/>
<circle cx="1854.9" cy="57.6" r="1.4" fill="#F59E0B" opacity="0.15" filter="url(#softGlow)"/>
<circle cx="63.4" cy="106.6" r="1.5" fill="#F59E0B" opacity="0.20" filter="url(#softGlow)"/>
<circle cx="98.5" cy="948.7" r="2.5" fill="#F59E0B" opacity="0.19" filter="url(#softGlow)"/>
<circle cx="1878.8" cy="187.0" r="2.6" fill="#F59E0B" opacity="0.20" filter="url(#softGlow)"/>
<circle cx="1893.5" cy="24.4" r="1.6" fill="#F59E0B" opacity="0.18" filter="url(#softGlow)"/>
<circle cx="1794.8" cy="1071.8" r="3.2" fill="#F59E0B" opacity="0.19" filter="url(#softGlow)"/>
<circle cx="1808.4" cy="1028.2" r="2.0" fill="#F59E0B" opacity="0.28" filter="url(#softGlow)"/>
<circle cx="1777.7" cy="339.8" r="1.4" fill="#F59E0B" opacity="0.27" filter="url(#softGlow)"/>
<circle cx="25.0" cy="73.5" r="3.0" fill="#F59E0B" opacity="0.20" filter="url(#softGlow)"/>
</svg>