<svg xmlns="http://www.w3.org/2000/svg" width="1920" height="1080" viewBox="0 0 1920 1080" preserveAspectRatio="xMidYMid slice">
<defs>
  <linearGradient id="g0" x1="0" y1="0" x2="1" y2="1">
    <stop offset="0" stop-color="#0B1020"/>
    <stop offset="0.55" stop-color="#F97316" stop-opacity="0.9"/>
    <stop offset="1" stop-color="#020617"/>
  </linearGradient>
  <radialGradient id="g1" cx="20%" cy="15%" r="70%">
    <stop offset="0" stop-color="#06B6D4" stop-opacity="0.38"/>
    <stop offset="0.6" stop-color="#06B6D4" stop-opacity="0.08"/>
    <stop offset="1" stop-color="#06B6D4" stop-opacity="0"/>
  </radialGradient>
  <radialGradient id="g2" cx="85%" cy="80%" r="75%">
    <stop offset="0" stop-color="#06B6D4" stop-opacity="0.28"/>
    <stop offset="0.65" stop-color="#06B6D4" stop-opacity="0.06"/>
    <stop offset="1" stop-color="#06B6D4" stop-opacity="0"/>
  </radialGradient>
  <filter id="softGlow" x="-30%" y="-30%" width="160%" height="160%">
    <feGaussianBlur stdDeviation="12" result="b"/>
    <feMerge>
      <feMergeNode in="b"/>
      <feMergeNode in="SourceGraphic"/>
    </feMerge>
  </filter>
  <filter id="hardGlow" x="-40%" y="-40%" width="180%" height="180%">
    <feGaussianBlur stdDeviation="6" result="b"/>
    <feColorMatrix in="b" type="matrix" values="1 0 0 0 0  0 1 0 0 0  0 0 1 0 0  0 0 0 18 -7" result="c"/>
    <feMerge>
      <feMergeNode in="c"/>
      <feMergeNode in="SourceGraphic"/>
    </feMerge>
  </filter>
  <linearGradient id="strokeA" x1="0" y1="0" x2="1" y2="0">
    <stop offset="0" stop-color="#06B6D4" stop-opacity="0.9"/>
    <stop offset="0.5" stop-color="#FFFFFF" stop-opacity="0.25"/>
    <stop offset="1" stop-color="#06B6D4" stop-opacity="0.7"/>
  </linearGradient>
  <linearGradient id="strokeB" x1="0" y1="0" x2="0" y2="1">
    <stop offset="0" stop-color="#FFFFFF" stop-opacity="0.18"/>
    <stop offset="1" stop-color="#06B6D4" stop-opacity="0.55"/>
  </linearGradient>
</defs>
<rect x="0" y="0" width="1920" height="1080" fill="url(#g0)"/>
<rect x="0" y="0" width="1920" height="1080" fill="url(#g1)"/>
<rect x="0" y="0" width="1920" height="1080" fill="url(#g2)"/>


<defs>
  <radialGradient id="vign" cx="0.5000" cy="0.5093" r="0.85">
    <stop offset="0" stop-color="#000000" stop-opacity="0"/>
    <stop offset="0.55" stop-color="#000000" stop-opacity="0.217"/>
    <stop offset="1" stop-color="#000000" stop-opacity="0.620"/>
  </radialGradient>
</defs>
<rect x="0" y="0" width="1920" height="1080" fill="url(#vign)"/>

<g opacity="0.241" filter="url(#softGlow)"><path d="M 92.1,1051.7 L 1785.0,1051.7 L 1785.0,532.8 L 1802.6,532.8 L 1802.6,996.4 " fill="none" stroke="url(#strokeB)" stroke-width="1.82" stroke-linecap="round" stroke-linejoin="round"/><circle cx="1802.6" cy="996.4" r="3.8" fill="#06B6D4" opacity="0.45"/><circle cx="92.1" cy="1051.7" r="2.9" fill="#06B6D4" opacity="0.45"/><circle cx="1785.0" cy="1051.7" r="3.0" fill="#06B6D4" opacity="0.45"/></g>
<g opacity="0.241" filter="url(#softGlow)"><path d="M 56.8,25.3 L 1857.0,25.3 L 1857.0,87.9 L 128.3,87.9 L 128.3,290.6 " fill="none" stroke="url(#strokeB)" stroke-width="1.53" stroke-linecap="round" stroke-linejoin="round"/><circle cx="1857.0" cy="87.9" r="3.3" fill="#06B6D4" opacity="0.45"/><circle cx="1857.0" cy="25.3" r="2.8" fill="#06B6D4" opacity="0.45"/><circle cx="128.3" cy="87.9" r="2.4" fill="#06B6D4" opacity="0.45"/></g>
<g opacity="0.241" filter="url(#softGlow)"><path d="M 155.5,793.7 L 399.6,793.7 L 399.6,109.0 L 1862.0,109.0 L 1862.0,61.0 " fill="none" stroke="url(#strokeB)" stroke-width="2.01" stroke-linecap="round" stroke-linejoin="round"/><circle cx="399.6" cy="793.7" r="2.0" fill="#06B6D4" opacity="0.45"/><circle cx="1862.0" cy="109.0" r="3.1" fill="#06B6D4" opacity="0.45"/><circle cx="399.6" cy="109.0" r="4.0" fill="#06B6D4" opacity="0.45"/></g>
<g opacity="0.241" filter="url(#softGlow)"><path d="M 173.0,840.0 L 739.8,840.0 L 739.8,1077.5 L 1878.3,1077.5 L 1878.3,987.7 " fill="none" stroke="url(#strokeB)" stroke-width="1.43" stroke-linecap="round" stroke-linejoin="round"/><circle cx="739.8" cy="840.0" r="3.4" fill="#06B6D4" opacity="0.45"/><circle cx="1878.3" cy="1077.5" r="3.5" fill="#06B6D4" opacity="0.45"/><circle cx="739.8" cy="1077.5" r="3.7" fill="#06B6D4" opacity="0.45"/></g>
<g opacity="0.241" filter="url(#softGlow)"><path d="M 50.8,39.5 L 1848.6,39.5 L 1848.6,977.4 L 46.4,977.4 L 46.4,170.8 " fill="none" stroke="url(#strokeB)" stroke-width="1.50" stroke-linecap="round" stroke-linejoin="round"/><circle cx="50.8" cy="39.5" r="2.9" fill="#06B6D4" opacity="0.45"/><circle cx="46.4" cy="977.4" r="2.1" fill="#06B6D4" opacity="0.45"/><circle cx="1848.6" cy="39.5" r="2.1" fill="#06B6D4" opacity="0.45"/></g>
<g opacity="0.241" filter="url(#softGlow)"><path d="M 72.3,768.9 L 1163.2,768.9 L 1163.2,1076.2 L 54.5,1076.2 L 54.5,923.8 " fill="none" stroke="url(#strokeB)" stroke-width="1.70" stroke-linecap="round" stroke-linejoin="round"/><circle cx="54.5" cy="1076.2" r="2.0" fill="#06B6D4" opacity="0.45"/><circle cx="1163.2" cy="768.9" r="3.8" fill="#06B6D4" opacity="0.45"/><circle cx="1163.2" cy="1076.2" r="4.1" fill="#06B6D4" opacity="0.45"/></g>
<g opacity="0.241" filter="url(#softGlow)"><path d="M 14.2,1051.1 L 1849.1,1051.1 L 1849.1,14.1 L 205.7,14.1 L 205.7,62.4 " fill="none" stroke="url(#strokeB)" stroke-width="1.54" stroke-linecap="round" stroke-linejoin="round"/><circle cx="1849.1" cy="14.1" r="2.6" fill="#06B6D4" opacity="0.45"/><circle cx="205.7" cy="14.1" r="2.4" fill="#06B6D4" opacity="0.45"/><circle cx="14.2" cy="1051.1" r="4.2" fill="#06B6D4" opacity="0.45"/></g>
<g opacity="0.241" filter="url(#softGlow)"><path d="M 1833.5,1071.8 L 1854.5,1071.8 L 1854.5,14.6 L 157.4,14.6 L 157.4,142.8 " fill="none" stroke="url(#strokeB)" stroke-width="1.31" stroke-linecap="round" stroke-linejoin="round"/><circle cx="1833.5" cy="1071.8" r="4.0" fill="#06B6D4" opacity="0.45"/><circle cx="157.4" cy="142.8" r="2.3" fill="#06B6D4" opacity="0.45"/><circle cx="157.4" cy="14.6" r="4.0" fill="#06B6D4" opacity="0.45"/></g>
<g opacity="0.241" filter="url(#softGlow)"><path d="M 176.5,30.8 L 168.0,30.8 L 168.0,1000.3 L 1784.5,1000.3 L 1784.5,204.7 " fill="none" stroke="url(#strokeB)" stroke-width="1.77" stroke-linecap="round" stroke-linejoin="round"/><circle cx="176.5" cy="30.8" r="3.9" fill="#06B6D4" opacity="0.45"/><circle cx="168.0" cy="1000.3" r="2.7" fill="#06B6D4" opacity="0.45"/><circle cx="1784.5" cy="204.7" r="2.8" fill="#06B6D4" opacity="0.45"/></g>
<g opacity="0.241" filter="url(#softGlow)"><path d="M 1904.8,966.2 L 98.7,966.2 L 98.7,956.2 L 1818.0,956.2 L 1818.0,77.5 " fill="none" stroke="url(#strokeB)" stroke-width="1.13" stroke-linecap="round" stroke-linejoin="round"/><circle cx="1818.0" cy="77.5" r="2.8" fill="#06B6D4" opacity="0.45"/><circle cx="1904.8" cy="966.2" r="2.6" fill="#06B6D4" opacity="0.45"/><circle cx="1818.0" cy="956.2" r="4.0" fill="#06B6D4" opacity="0.45"/></g>
<g opacity="0.241" filter="url(#softGlow)"><path d="M 1756.4,1019.5 L 91.4,1019.5 L 91.4,995.7 L 1708.7,995.7 L 1708.7,0.3 " fill="none" stroke="url(#strokeB)" stroke-width="1.37" stroke-linecap="round" stroke-linejoin="round"/><circle cx="1708.7" cy="995.7" r="2.2" fill="#06B6D4" opacity="0.45"/><circle cx="1708.7" cy="0.3" r="4.1" fill="#06B6D4" opacity="0.45"/><circle cx="91.4" cy="1019.5" r="3.2" fill="#06B6D4" opacity="0.45"/></g>
<g opacity="0.241" filter="url(#softGlow)"><path d="M 1856.9,827.5 L 183.7,827.5 L 183.7,942.2 L 166.7,942.2 L 166.7,1064.1 " fill="none" stroke="url(#strokeB)" stroke-width="1.63" stroke-linecap="round" stroke-linejoin="round"/><circle cx="166.7" cy="1064.1" r="3.5" fill="#06B6D4" opacity="0.45"/><circle cx="183.7" cy="942.2" r="3.7" fill="#06B6D4" opacity="0.45"/><circle cx="183.7" cy="827.5" r="2.3" fill="#06B6D4" opacity="0.45"/></g>
<g opacity="0.241" filter="url(#softGlow)"><path d="M 142.3,122.2 L 30.0,122.2 L 30.0,60.4 L 1859.6,60.4 L 1859.6,973.6 " fill="none" stroke="url(#strokeB)" stroke-width="1.31" stroke-linecap="round" stroke-linejoin="round"/><circle cx="30.0" cy="122.2" r="3.5" fill="#06B6D4" opacity="0.45"/><circle cx="142.3" cy="122.2" r="2.1" fill="#06B6D4" opacity="0.45"/><circle cx="1859.6" cy="60.4" r="2.9" fill="#06B6D4" opacity="0.45"/></g>
<g opacity="0.241" filter="url(#softGlow)"><path d="M 94.1,43.9 L 1742.1,43.9 L 1742.1,203.5 L 28.3,203.5 L 28.3,662.3 " fill="none" stroke="url(#strokeB)" stroke-width="2.01" stroke-linecap="round" stroke-linejoin="round"/><circle cx="1742.1" cy="43.9" r="2.3" fill="#06B6D4" opacity="0.45"/><circle cx="94.1" cy="43.9" r="2.9" fill="#06B6D4" opacity="0.45"/><circle cx="1742.1" cy="203.5" r="3.9" fill="#06B6D4" opacity="0.45"/></g>
<g opacity="0.241" filter="url(#softGlow)"><path d="M 1284.4,1005.9 L 9.4,1005.9 L 9.4,101.0 L 1786.2,101.0 L 1786.2,1017.0 " fill="none" stroke="url(#strokeB)" stroke-width="1.85" stroke-linecap="round" stroke-linejoin="round"/><circle cx="1284.4" cy="1005.9" r="4.1" fill="#06B6D4" opacity="0.45"/><circle cx="9.4" cy="1005.9" r="2.1" fill="#06B6D4" opacity="0.45"/><circle cx="9.4" cy="101.0" r="2.8" fill="#06B6D4" opacity="0.45"/></g>
<g opacity="0.241" filter="url(#softGlow)"><path d="M 167.0,936.1 L 1831.3,936.1 L 1831.3,1072.0 L 175.3,1072.0 L 175.3,867.2 " fill="none" stroke="url(#strokeB)" stroke-width="1.15" stroke-linecap="round" stroke-linejoin="round"/><circle cx="1831.3" cy="1072.0" r="4.2" fill="#06B6D4" opacity="0.45"/><circle cx="175.3" cy="867.2" r="4.2" fill="#06B6D4" opacity="0.45"/><circle cx="175.3" cy="1072.0" r="4.1" fill="#06B6D4" opacity="0.45"/></g>
<g opacity="0.241" filter="url(#softGlow)"><path d="M 279.0,921.5 L 1747.3,921.5 L 1747.3,958.8 L 980.6,958.8 L 980.6,1078.3 " fill="none" stroke="url(#strokeB)" stroke-width="1.44" stroke-linecap="round" stroke-linejoin="round"/><circle cx="1747.3" cy="921.5" r="2.9" fill="#06B6D4" opacity="0.45"/><circle cx="279.0" cy="921.5" r="3.8" fill="#06B6D4" opacity="0.45"/><circle cx="1747.3" cy="958.8" r="3.3" fill="#06B6D4" opacity="0.45"/></g>
<g opacity="0.241" filter="url(#softGlow)"><path d="M 143.6,756.0 L 1787.5,756.0 L 1787.5,52.6 L 1827.5,52.6 L 1827.5,903.9 " fill="none" stroke="url(#strokeB)" stroke-width="1.17" stroke-linecap="round" stroke-linejoin="round"/><circle cx="143.6" cy="756.0" r="3.0" fill="#06B6D4" opacity="0.45"/><circle cx="1827.5" cy="903.9" r="3.9" fill="#06B6D4" opacity="0.45"/><circle cx="1827.5" cy="52.6" r="3.9" fill="#06B6D4" opacity="0.45"/></g>
<g opacity="0.241" filter="url(#softGlow)"><path d="M 118.9,403.8 L 80.5,403.8 L 80.5,951.9 L 81.5,951.9 L 81.5,931.5 " fill="none" stroke="url(#strokeB)" stroke-width="1.39" stroke-linecap="round" stroke-linejoin="round"/><circle cx="80.5" cy="403.8" r="3.8" fill="#06B6D4" opacity="0.45"/><circle cx="80.5" cy="951.9" r="4.1" fill="#06B6D4" opacity="0.45"/><circle cx="81.5" cy="931.5" r="4.0" fill="#06B6D4" opacity="0.45"/></g>
<g opacity="0.241" filter="url(#softGlow)"><path d="M 25.5,906.4 L 1757.8,906.4 L 1757.8,971.6 L 1721.2,971.6 L 1721.2,83.5 " fill="none" stroke="url(#strokeB)" stroke-width="1.79" stroke-linecap="round" stroke-linejoin="round"/><circle cx="1721.2" cy="971.6" r="2.2" fill="#06B6D4" opacity="0.45"/><circle cx="1721.2" cy="83.5" r="2.9" fill="#06B6D4" opacity="0.45"/><circle cx="25.5" cy="906.4" r="2.4" fill="#06B6D4" opacity="0.45"/></g>

<g opacity="0.750" filter="url(#hardGlow)">
  <circle cx="1847.0" cy="9.9" r="69.8" fill="#0A1224" opacity="0.65"/>
  <circle cx="1847.0" cy="9.9" r="69.8" fill="none" stroke="url(#strokeA)" stroke-width="5.6" opacity="0.85"/>
  <circle cx="1847.0" cy="9.9" r="60.0" fill="none" stroke="#F97316" stroke-width="2.1" opacity="0.35"/>
  <polygon points="1797.4,1.8 1829.2,-37.1 1878.8,-29.0 1896.6,17.9 1864.8,56.9 1815.3,48.8" fill="none" stroke="url(#strokeB)" stroke-width="1.7" opacity="0.65"/>
  <polygon points="1831.7,1.3 1862.1,0.9 1847.3,27.5" fill="#F97316" opacity="0.22" filter="url(#softGlow)"/>
</g>


<g opacity="0.353" filter="url(#hardGlow)">
  <circle cx="1756.5" cy="9.5" r="33.9" fill="#0A1224" opacity="0.65"/>
  <circle cx="1756.5" cy="9.5" r="33.9" fill="none" stroke="url(#strokeA)" stroke-width="2.7" opacity="0.85"/>
  <circle cx="1756.5" cy="9.5" r="29.2" fill="none" stroke="#06B6D4" stroke-width="1.5" opacity="0.35"/>
  <polygon points="1780.4,4.5 1772.8,27.7 1748.9,32.7 1732.6,14.5 1740.2,-8.7 1764.1,-13.7" fill="none" stroke="url(#strokeB)" stroke-width="1.2" opacity="0.65"/>
  
</g>


<g opacity="0.803" filter="url(#hardGlow)">
  <circle cx="30.7" cy="80.6" r="51.7" fill="#0A1224" opacity="0.65"/>
  <circle cx="30.7" cy="80.6" r="51.7" fill="none" stroke="url(#strokeA)" stroke-width="4.1" opacity="0.85"/>
  <circle cx="30.7" cy="80.6" r="44.5" fill="none" stroke="#F97316" stroke-width="1.6" opacity="0.35"/>
  <polygon points="6.5,108.9 -5.9,73.8 18.3,45.5 54.9,52.3 67.3,87.4 43.1,115.7" fill="none" stroke="url(#strokeB)" stroke-width="1.3" opacity="0.65"/>
  <polygon points="19.4,87.0 30.8,67.6 41.9,87.2" fill="#F97316" opacity="0.22" filter="url(#softGlow)"/>
</g>


<g opacity="0.397" filter="url(#hardGlow)">
  <circle cx="-44.6" cy="44.3" r="25.3" fill="#0A1224" opacity="0.65"/>
  <circle cx="-44.6" cy="44.3" r="25.3" fill="none" stroke="url(#strokeA)" stroke-width="2.0" opacity="0.85"/>
  <circle cx="-44.6" cy="44.3" r="21.7" fill="none" stroke="#06B6D4" stroke-width="1.5" opacity="0.35"/>
  <polygon points="-58.2,56.4 -61.8,38.5 -48.1,26.5 -30.9,32.3 -27.3,50.1 -41.0,62.2" fill="none" stroke="url(#strokeB)" stroke-width="1.2" opacity="0.65"/>
  <polygon points="-50.5,46.7 -43.6,38.0 -39.6,48.3" fill="#06B6D4" opacity="0.22" filter="url(#softGlow)"/>
</g>


<g opacity="0.587" filter="url(#hardGlow)">
  <circle cx="-30.9" cy="72.5" r="20.1" fill="#0A1224" opacity="0.65"/>
  <circle cx="-30.9" cy="72.5" r="20.1" fill="none" stroke="url(#strokeA)" stroke-width="2.0" opacity="0.85"/>
  <circle cx="-30.9" cy="72.5" r="17.3" fill="none" stroke="#06B6D4" stroke-width="1.5" opacity="0.35"/>
  <polygon points="-43.9,66.1 -31.9,58.1 -18.9,64.5 -17.9,78.9 -30.0,87.0 -43.0,80.6" fill="none" stroke="url(#strokeB)" stroke-width="1.2" opacity="0.65"/>
  <polygon points="-34.4,68.9 -26.0,71.3 -32.3,77.4" fill="#06B6D4" opacity="0.22" filter="url(#softGlow)"/>
</g>


<g opacity="0.827" filter="url(#hardGlow)">
  <circle cx="1823.8" cy="141.3" r="47.7" fill="#0A1224" opacity="0.65"/>
  <circle cx="1823.8" cy="141.3" r="47.7" fill="none" stroke="url(#strokeA)" stroke-width="3.8" opacity="0.85"/>
  <circle cx="1823.8" cy="141.3" r="41.0" fill="none" stroke="#F97316" stroke-width="1.5" opacity="0.35"/>
  <polygon points="1800.5,166.5 1790.3,133.7 1813.6,108.5 1847.1,116.1 1857.2,148.9 1834.0,174.1" fill="none" stroke="url(#strokeB)" stroke-width="1.2" opacity="0.65"/>
  <polygon points="1813.1,146.8 1824.4,129.3 1833.9,147.8" fill="#F97316" opacity="0.22" filter="url(#softGlow)"/>
</g>


<g opacity="0.631" filter="url(#hardGlow)">
  <circle cx="1889.4" cy="123.3" r="25.1" fill="#0A1224" opacity="0.65"/>
  <circle cx="1889.4" cy="123.3" r="25.1" fill="none" stroke="url(#strokeA)" stroke-width="2.0" opacity="0.85"/>
  <circle cx="1889.4" cy="123.3" r="21.6" fill="none" stroke="#06B6D4" stroke-width="1.5" opacity="0.35"/>
  <polygon points="1904.4,133.5 1888.1,141.4 1873.1,131.2 1874.4,113.2 1890.7,105.3 1905.7,115.4" fill="none" stroke="url(#strokeB)" stroke-width="1.2" opacity="0.65"/>
  
</g>


<g opacity="0.381" filter="url(#hardGlow)">
  <circle cx="1861.5" cy="195.1" r="20.9" fill="#0A1224" opacity="0.65"/>
  <circle cx="1861.5" cy="195.1" r="20.9" fill="none" stroke="url(#strokeA)" stroke-width="2.0" opacity="0.85"/>
  <circle cx="1861.5" cy="195.1" r="18.0" fill="none" stroke="#06B6D4" stroke-width="1.5" opacity="0.35"/>
  <polygon points="1876.1,191.5 1872.0,205.9 1857.4,209.6 1846.9,198.8 1851.1,184.3 1865.7,180.7" fill="none" stroke="url(#strokeB)" stroke-width="1.2" opacity="0.65"/>
  <polygon points="1866.8,195.7 1858.4,199.4 1859.4,190.3" fill="#06B6D4" opacity="0.22" filter="url(#softGlow)"/>
</g>


<g opacity="0.911" filter="url(#hardGlow)">
  <circle cx="125.2" cy="917.1" r="41.5" fill="#0A1224" opacity="0.65"/>
  <circle cx="125.2" cy="917.1" r="41.5" fill="none" stroke="url(#strokeA)" stroke-width="3.3" opacity="0.85"/>
  <circle cx="125.2" cy="917.1" r="35.7" fill="none" stroke="#F97316" stroke-width="1.5" opacity="0.35"/>
  <polygon points="100.4,933.8 98.4,904.0 123.2,887.3 150.0,900.5 152.0,930.3 127.2,946.9" fill="none" stroke="url(#strokeB)" stroke-width="1.2" opacity="0.65"/>
  <polygon points="115.1,919.6 128.1,907.1 132.5,924.6" fill="#F97316" opacity="0.22" filter="url(#softGlow)"/>
</g>


<g opacity="0.393" filter="url(#hardGlow)">
  <circle cx="112.2" cy="896.8" r="16.4" fill="#0A1224" opacity="0.65"/>
  <circle cx="112.2" cy="896.8" r="16.4" fill="none" stroke="url(#strokeA)" stroke-width="2.0" opacity="0.85"/>
  <circle cx="112.2" cy="896.8" r="14.1" fill="none" stroke="#06B6D4" stroke-width="1.5" opacity="0.35"/>
  <polygon points="108.6,885.6 120.1,888.0 123.8,899.3 115.9,908.1 104.4,905.6 100.7,894.4" fill="none" stroke="url(#strokeB)" stroke-width="1.2" opacity="0.65"/>
  <polygon points="112.4,892.7 115.8,899.0 108.6,898.8" fill="#06B6D4" opacity="0.22" filter="url(#softGlow)"/>
</g>


<g opacity="0.775" filter="url(#hardGlow)">
  <circle cx="109.1" cy="971.9" r="58.6" fill="#0A1224" opacity="0.65"/>
  <circle cx="109.1" cy="971.9" r="58.6" fill="none" stroke="url(#strokeA)" stroke-width="4.7" opacity="0.85"/>
  <circle cx="109.1" cy="971.9" r="50.4" fill="none" stroke="#F97316" stroke-width="1.8" opacity="0.35"/>
  <polygon points="84.3,937.8 126.2,933.4 151.0,967.5 133.8,1006.0 91.9,1010.4 67.2,976.3" fill="none" stroke="url(#strokeB)" stroke-width="1.5" opacity="0.65"/>
  <polygon points="105.0,957.7 123.4,975.5 98.8,982.5" fill="#F97316" opacity="0.22" filter="url(#softGlow)"/>
</g>


<g opacity="0.359" filter="url(#hardGlow)">
  <circle cx="70.0" cy="965.2" r="28.0" fill="#0A1224" opacity="0.65"/>
  <circle cx="70.0" cy="965.2" r="28.0" fill="none" stroke="url(#strokeA)" stroke-width="2.2" opacity="0.85"/>
  <circle cx="70.0" cy="965.2" r="24.1" fill="none" stroke="#06B6D4" stroke-width="1.5" opacity="0.35"/>
  <polygon points="69.7,945.0 87.3,954.8 87.6,975.0 70.4,985.3 52.8,975.6 52.4,955.4" fill="none" stroke="url(#strokeB)" stroke-width="1.2" opacity="0.65"/>
  <polygon points="72.3,958.5 74.7,970.5 63.1,966.5" fill="#06B6D4" opacity="0.22" filter="url(#softGlow)"/>
</g>


<g opacity="0.671" filter="url(#hardGlow)">
  <circle cx="1866.2" cy="977.6" r="57.1" fill="#0A1224" opacity="0.65"/>
  <circle cx="1866.2" cy="977.6" r="57.1" fill="none" stroke="url(#strokeA)" stroke-width="4.6" opacity="0.85"/>
  <circle cx="1866.2" cy="977.6" r="49.1" fill="none" stroke="#F97316" stroke-width="1.7" opacity="0.35"/>
  <polygon points="1907.0,982.9 1882.0,1015.5 1841.2,1010.2 1825.4,972.3 1850.4,939.6 1891.2,944.9" fill="none" stroke="url(#strokeB)" stroke-width="1.4" opacity="0.65"/>
  <polygon points="1879.0,984.2 1854.1,985.3 1865.5,963.2" fill="#F97316" opacity="0.22" filter="url(#softGlow)"/>
</g>


<g opacity="0.465" filter="url(#hardGlow)">
  <circle cx="1810.6" cy="1027.7" r="22.5" fill="#0A1224" opacity="0.65"/>
  <circle cx="1810.6" cy="1027.7" r="22.5" fill="none" stroke="url(#strokeA)" stroke-width="2.0" opacity="0.85"/>
  <circle cx="1810.6" cy="1027.7" r="19.4" fill="none" stroke="#06B6D4" stroke-width="1.5" opacity="0.35"/>
  <polygon points="1795.9,1034.5 1797.3,1018.3 1812.0,1011.5 1825.3,1020.8 1823.9,1037.0 1809.2,1043.8" fill="none" stroke="url(#strokeB)" stroke-width="1.2" opacity="0.65"/>
  
</g>


<g opacity="0.543" filter="url(#hardGlow)">
  <circle cx="1902.4" cy="949.7" r="29.6" fill="#0A1224" opacity="0.65"/>
  <circle cx="1902.4" cy="949.7" r="29.6" fill="none" stroke="url(#strokeA)" stroke-width="2.4" opacity="0.85"/>
  <circle cx="1902.4" cy="949.7" r="25.5" fill="none" stroke="#06B6D4" stroke-width="1.5" opacity="0.35"/>
  <polygon points="1902.1,928.4 1920.7,938.8 1921.0,960.1 1902.6,971.0 1884.0,960.6 1883.8,939.3" fill="none" stroke="url(#strokeB)" stroke-width="1.2" opacity="0.65"/>
  
</g>


<g opacity="0.601" filter="url(#hardGlow)">
  <circle cx="1921.7" cy="970.7" r="24.6" fill="#0A1224" opacity="0.65"/>
  <circle cx="1921.7" cy="970.7" r="24.6" fill="none" stroke="url(#strokeA)" stroke-width="2.0" opacity="0.85"/>
  <circle cx="1921.7" cy="970.7" r="21.1" fill="none" stroke="#06B6D4" stroke-width="1.5" opacity="0.35"/>
  <polygon points="1920.2,988.3 1905.7,978.2 1907.2,960.5 1923.2,953.0 1937.7,963.2 1936.2,980.8" fill="none" stroke="url(#strokeB)" stroke-width="1.2" opacity="0.65"/>
  <polygon points="1919.1,976.3 1918.1,965.6 1927.9,970.1" fill="#06B6D4" opacity="0.22" filter="url(#softGlow)"/>
</g>


<g opacity="0.761" filter="url(#hardGlow)">
  <circle cx="1883.8" cy="1043.4" r="62.9" fill="#0A1224" opacity="0.65"/>
  <circle cx="1883.8" cy="1043.4" r="62.9" fill="none" stroke="url(#strokeA)" stroke-width="5.0" opacity="0.85"/>
  <circle cx="1883.8" cy="1043.4" r="54.1" fill="none" stroke="#F97316" stroke-width="1.9" opacity="0.35"/>
  <polygon points="1841.0,1058.0 1849.8,1013.6 1892.6,999.0 1926.7,1028.8 1917.9,1073.2 1875.1,1087.8" fill="none" stroke="url(#strokeB)" stroke-width="1.6" opacity="0.65"/>
  <polygon points="1868.0,1043.0 1892.1,1029.8 1891.5,1057.2" fill="#F97316" opacity="0.22" filter="url(#softGlow)"/>
</g>


<g opacity="0.591" filter="url(#hardGlow)">
  <circle cx="1817.2" cy="1099.6" r="33.8" fill="#0A1224" opacity="0.65"/>
  <circle cx="1817.2" cy="1099.6" r="33.8" fill="none" stroke="url(#strokeA)" stroke-width="2.7" opacity="0.85"/>
  <circle cx="1817.2" cy="1099.6" r="29.1" fill="none" stroke="#06B6D4" stroke-width="1.5" opacity="0.35"/>
  <polygon points="1831.8,1119.1 1807.6,1122.0 1793.0,1102.6 1802.6,1080.2 1826.7,1077.3 1841.3,1096.7" fill="none" stroke="url(#strokeB)" stroke-width="1.2" opacity="0.65"/>
  
</g>


<g opacity="0.649" filter="url(#hardGlow)">
  <circle cx="1834.6" cy="1039.9" r="32.6" fill="#0A1224" opacity="0.65"/>
  <circle cx="1834.6" cy="1039.9" r="32.6" fill="none" stroke="url(#strokeA)" stroke-width="2.6" opacity="0.85"/>
  <circle cx="1834.6" cy="1039.9" r="28.0" fill="none" stroke="#06B6D4" stroke-width="1.5" opacity="0.35"/>
  <polygon points="1838.8,1063.0 1816.7,1055.1 1812.5,1032.1 1830.3,1016.9 1852.4,1024.7 1856.6,1047.7" fill="none" stroke="url(#strokeB)" stroke-width="1.2" opacity="0.65"/>
  <polygon points="1833.2,1048.0 1828.2,1034.7 1842.2,1037.0" fill="#06B6D4" opacity="0.22" filter="url(#softGlow)"/>
</g>


<g opacity="0.536" filter="url(#hardGlow)">
  <circle cx="1949.8" cy="1025.0" r="31.1" fill="#0A1224" opacity="0.65"/>
  <circle cx="1949.8" cy="1025.0" r="31.1" fill="none" stroke="url(#strokeA)" stroke-width="2.5" opacity="0.85"/>
  <circle cx="1949.8" cy="1025.0" r="26.7" fill="none" stroke="#06B6D4" stroke-width="1.5" opacity="0.35"/>
  <polygon points="1946.5,1047.1 1929.0,1033.2 1932.3,1011.1 1953.1,1002.8 1970.7,1016.8 1967.4,1038.9" fill="none" stroke="url(#strokeB)" stroke-width="1.2" opacity="0.65"/>
  <polygon points="1946.1,1031.9 1945.7,1018.3 1957.7,1024.8" fill="#06B6D4" opacity="0.22" filter="url(#softGlow)"/>
</g>


<g opacity="0.301" transform="translate(1406.8,110.5) rotate(-7.6)" filter="url(#softGlow)">
  <rect x="-100.9" y="-82.0" width="201.8" height="163.9" rx="16.4" fill="#050A12" opacity="0.25"/>
  <rect x="-100.9" y="-82.0" width="201.8" height="163.9" rx="16.4" fill="none" stroke="url(#strokeA)" stroke-width="8.2" opacity="0.85"/>
  <rect x="-87.8" y="-68.8" width="175.6" height="137.7" rx="11.5" fill="none" stroke="#A3E635" stroke-width="3.3" opacity="0.35"/>
</g>


<g opacity="0.358" transform="translate(1727.5,889.1) rotate(-9.8)" filter="url(#softGlow)">
  <rect x="-89.0" y="-67.2" width="178.0" height="134.5" rx="13.4" fill="#050A12" opacity="0.25"/>
  <rect x="-89.0" y="-67.2" width="178.0" height="134.5" rx="13.4" fill="none" stroke="url(#strokeA)" stroke-width="6.7" opacity="0.85"/>
  <rect x="-78.2" y="-56.5" width="156.4" height="113.0" rx="9.4" fill="none" stroke="#A3E635" stroke-width="2.7" opacity="0.35"/>
</g>


<g opacity="0.456" transform="translate(1751.9,984.5) rotate(-5.4)" filter="url(#softGlow)">
  <rect x="-95.3" y="-79.6" width="190.6" height="159.2" rx="15.9" fill="#050A12" opacity="0.25"/>
  <rect x="-95.3" y="-79.6" width="190.6" height="159.2" rx="15.9" fill="none" stroke="url(#strokeA)" stroke-width="8.0" opacity="0.85"/>
  <rect x="-82.6" y="-66.9" width="165.2" height="133.8" rx="11.1" fill="none" stroke="#F97316" stroke-width="3.2" opacity="0.35"/>
</g>


<g opacity="0.456" transform="translate(72.5,152.0) rotate(-3.1)" filter="url(#softGlow)">
  <rect x="-87.4" y="-75.2" width="174.8" height="150.3" rx="15.0" fill="#050A12" opacity="0.25"/>
  <rect x="-87.4" y="-75.2" width="174.8" height="150.3" rx="15.0" fill="none" stroke="url(#strokeA)" stroke-width="7.5" opacity="0.85"/>
  <rect x="-75.4" y="-63.1" width="150.7" height="126.3" rx="10.5" fill="none" stroke="#06B6D4" stroke-width="3.0" opacity="0.35"/>
</g>


<g opacity="0.240" transform="translate(610.8,967.0) rotate(13.6)" filter="url(#softGlow)">
  <rect x="-57.1" y="-32.9" width="114.2" height="65.8" rx="20.1" fill="none" stroke="#F97316" stroke-width="11.0" opacity="0.55"/>
  <rect x="-25.1" y="-16.4" width="114.2" height="65.8" rx="20.1" fill="none" stroke="url(#strokeA)" stroke-width="9.1" opacity="0.55"/>
</g>


<g opacity="0.457" transform="translate(484.2,128.2) rotate(5.0)" filter="url(#softGlow)">
  <rect x="-48.0" y="-27.6" width="96.0" height="55.3" rx="16.9" fill="none" stroke="#A3E635" stroke-width="9.2" opacity="0.55"/>
  <rect x="-21.1" y="-13.8" width="96.0" height="55.3" rx="16.9" fill="none" stroke="url(#strokeA)" stroke-width="7.7" opacity="0.55"/>
</g>


<g opacity="0.370" transform="translate(1913.6,1019.6) rotate(-15.6)" filter="url(#softGlow)">
  <rect x="-40.7" y="-23.4" width="81.4" height="46.9" rx="14.3" fill="none" stroke="#06B6D4" stroke-width="7.8" opacity="0.55"/>
  <rect x="-17.9" y="-11.7" width="81.4" height="46.9" rx="14.3" fill="none" stroke="url(#strokeA)" stroke-width="6.5" opacity="0.55"/>
</g>


<g opacity="0.247" transform="translate(1756.5,158.1) rotate(-1.8)" filter="url(#softGlow)">
  <rect x="-38.6" y="-22.2" width="77.2" height="44.4" rx="13.6" fill="none" stroke="#06B6D4" stroke-width="7.4" opacity="0.55"/>
  <rect x="-17.0" y="-11.1" width="77.2" height="44.4" rx="13.6" fill="none" stroke="url(#strokeA)" stroke-width="6.2" opacity="0.55"/>
</g>


<g opacity="0.459" transform="translate(1743.3,923.8) rotate(11.6)" filter="url(#softGlow)">
  <rect x="-37.3" y="-21.5" width="74.7" height="43.0" rx="13.1" fill="none" stroke="#06B6D4" stroke-width="7.2" opacity="0.55"/>
  <rect x="-16.4" y="-10.8" width="74.7" height="43.0" rx="13.1" fill="none" stroke="url(#strokeA)" stroke-width="6.0" opacity="0.55"/>
</g>


<g opacity="0.440" transform="translate(1883.8,1047.6) rotate(7.9)" filter="url(#softGlow)">
  <rect x="-45.8" y="-26.4" width="91.7" height="52.8" rx="16.1" fill="none" stroke="#A3E635" stroke-width="8.8" opacity="0.55"/>
  <rect x="-20.2" y="-13.2" width="91.7" height="52.8" rx="16.1" fill="none" stroke="url(#strokeA)" stroke-width="7.3" opacity="0.55"/>
</g>


<g opacity="0.463" transform="translate(155.5,147.4) rotate(4.3)" filter="url(#softGlow)">
  <rect x="-51.2" y="-29.5" width="102.5" height="59.0" rx="18.0" fill="none" stroke="#06B6D4" stroke-width="9.8" opacity="0.55"/>
  <rect x="-22.5" y="-14.8" width="102.5" height="59.0" rx="18.0" fill="none" stroke="url(#strokeA)" stroke-width="8.2" opacity="0.55"/>
</g>


<g opacity="0.415" transform="translate(24.2,860.8) rotate(-11.4)" filter="url(#softGlow)">
  <rect x="-37.3" y="-21.5" width="74.6" height="43.0" rx="13.1" fill="none" stroke="#A3E635" stroke-width="7.2" opacity="0.55"/>
  <rect x="-16.4" y="-10.7" width="74.6" height="43.0" rx="13.1" fill="none" stroke="url(#strokeA)" stroke-width="6.0" opacity="0.55"/>
</g>


<g opacity="0.303" transform="translate(1740.9,942.0) rotate(10.1)" filter="url(#softGlow)">
  <rect x="-60.3" y="-34.7" width="120.5" height="69.4" rx="21.2" fill="none" stroke="#F97316" stroke-width="11.6" opacity="0.55"/>
  <rect x="-26.5" y="-17.4" width="120.5" height="69.4" rx="21.2" fill="none" stroke="url(#strokeA)" stroke-width="9.6" opacity="0.55"/>
</g>


<g opacity="0.310" transform="translate(1313.6,27.2) rotate(14.5)" filter="url(#softGlow)">
  <rect x="-35.3" y="-20.3" width="70.6" height="40.7" rx="12.4" fill="none" stroke="#F97316" stroke-width="6.8" opacity="0.55"/>
  <rect x="-15.5" y="-10.2" width="70.6" height="40.7" rx="12.4" fill="none" stroke="url(#strokeA)" stroke-width="5.7" opacity="0.55"/>
</g>


<g opacity="0.197">
  <line x1="1722.9" y1="925.4" x2="1722.9" y2="967.3" stroke="#06B6D4" stroke-width="1.46" opacity="0.45"/>
  <rect x="1718.5" y="947.6" width="8.9" height="22.7" rx="3.0" fill="#0B1020" opacity="0.55" stroke="url(#strokeA)" stroke-width="1.2"/>
</g>

<g opacity="0.197">
  <line x1="32.2" y1="923.0" x2="32.2" y2="967.9" stroke="#06B6D4" stroke-width="1.90" opacity="0.45"/>
  <rect x="28.2" y="948.6" width="8.1" height="20.6" rx="2.7" fill="#0B1020" opacity="0.55" stroke="url(#strokeA)" stroke-width="1.2"/>
</g>
<circle cx="1580.3" cy="1041.9" r="1.6" fill="#F97316" opacity="0.24" filter="url(#softGlow)"/>
<circle cx="1658.9" cy="935.6" r="2.2" fill="#F97316" opacity="0.21" filter="url(#softGlow)"/>
<circle cx="1765.9" cy="111.6" r="1.9" fill="#F97316" opacity="0.18" filter="url(#softGlow)"/>
<circle cx="1795.1" cy="45.5" r="3.1" fill="#F97316" opacity="0.12" filter="url(#softGlow)"/>
<circle cx="41.9" cy="1048.4" r="2.9" fill="#F97316" opacity="0.20" filter="url(#softGlow)"/>
<circle cx="54.2" cy="148.8" r="1.9" fill="#F97316" opacity="0.27" filter="url(#softGlow)"/>
<circle cx="43.2" cy="929.6" r="3.0" fill="#F97316" opacity="0.25" filter="url(#softGlow)"/>
<circle cx="236.4" cy="178.9" r="2.0" fill="#F97316" opacity="0.20" filter="url(#softGlow)"/>
<circle cx="69.9" cy="868.8" r="2.2" fill="#F97316" opacity="0.17" filter="url(#softGlow)"/>
<circle cx="1844.6" cy="101.4" r="3.0" fill="#F97316" opacity="0.14" filter="url(#softGlow)"/>
<circle cx="1764.7" cy="380.1" r="3.2" fill="#F97316" opacity="0.19" filter="url(#softGlow)"/>
<circle cx="1743.6" cy="72.5" r="2.4" fill="#F97316" opacity="0.13" filter="url(#softGlow)"/>
<circle cx="1889.5" cy="198.4" r="1.5" fill="#F97316" opacity="0.20" filter="url(#softGlow)"/>
<circle cx="1855.1" cy="649.9" r="3.1" fill="#F97316" opacity="0.12" filter="url(#softGlow)"/>
<circle cx="147.5" cy="209.4" r="1.7" fill="#F97316" opacity="0.28" filter="url(#softGlow)"/>
<circle cx="169.2" cy="966.4" r="2.0" fill="#F97316" opacity="0.15" filter="url(#softGlow)"/>
<circle cx="205.0" cy="1058.2" r="2.5" fill="#F97316" opacity="0.15" filter="url(#softGlow)"/>
<circle cx="7.1" cy="880.8" r="2.6" fill="#F97316" opacity="0.12" filter="url(#softGlow)"/>
<circle cx="1629.0" cy="95.1" r="2.7" fill="#F97316" opacity="0.25" filter="url(#softGlow)"/>
<circle cx="1775.3" cy="1070.9" r="2.4" fill="#F97316" opacity="0.22" filter="url(#softGlow)"/>
<circle cx="38.0" cy="934.4" r="2.4" fill="#F97316" opacity="0.18" filter="url(#softGlow)"/>
<circle cx="1733.1" cy="847.1" r="2.9" fill="#F97316" opacity="0.18" filter="url(#softGlow)"/>
<circle cx="103.2" cy="16.1" r="1.5" fill="#F97316" opacity="0.23" filter="url(#softGlow)"/>
<circle cx="102.8" cy="190.4" r="2.7" fill="#F97316" opacity="0.10" filter="url(#softGlow)"/>
<circle cx="49.8" cy="55.9" r="2.1" fill="#F97316" opacity="0.27" filter="url(#softGlow)"/>
<circle cx="121.6" cy="1008.6" r="3.0" fill="#F97316" opacity="0.26" filter="url(#softGlow)"/>
</svg>