<svg xmlns="http://www.w3.org/2000/svg" width="1920" height="1080" viewBox="0 0 1920 1080" preserveAspectRatio="xMidYMid slice">
<defs>
  <linearGradient id="g0" x1="0" y1="0" x2="1" y2="1">
    <stop offset="0" stop-color="#0A0F1E"/>
    <stop offset="0.55" stop-color="#00FFA3" stop-opacity="0.9"/>
    <stop offset="1" stop-color="#050A12"/>
  </linearGradient>
  <radialGradient id="g1" cx="20%" cy="15%" r="70%">
    <stop offset="0" stop-color="#14C2FF" stop-opacity="0.38"/>
    <stop offset="0.6" stop-color="#14C2FF" stop-opacity="0.08"/>
    <stop offset="1" stop-color="#14C2FF" stop-opacity="0"/>
  </radialGradient>
  <radialGradient id="g2" cx="85%" cy="80%" r="75%">
    <stop offset="0" stop-color="#14C2FF" stop-opacity="0.28"/>
    <stop offset="0.65" stop-color="#14C2FF" stop-opacity="0.06"/>
    <stop offset="1" stop-color="#14C2FF" stop-opacity="0"/>
  </radialGradient>
  <filter id="softGlow" x="-30%" y="-30%" width="160%" height="160%">
    <feGaussianBlur stdDeviation="12" result="b"/>
    <feMerge>
      <feMergeNode in="b"/>
      <feMergeNode in="SourceGraphic"/>
    </feMerge>
  </filter>
  <filter id="hardGlow" x="-40%" y="-40%" width="180%" height="180%">
    <feGaussianBlur stdDeviation="6" result="b"/>
    <feColorMatrix in="b" type="matrix" values="1 0 0 0 0  0 1 0 0 0  0 0 1 0 0  0 0 0 18 -7" result="c"/>
    <feMerge>
      <feMergeNode in="c"/>
      <feMergeNode in="SourceGraphic"/>
    </feMerge>
  </filter>
  <linearGradient id="strokeA" x1="0" y1="0" x2="1" y2="0">
    <stop offset="0" stop-color="#14C2FF" stop-opacity="0.9"/>
    <stop offset="0.5" stop-color="#FFFFFF" stop-opacity="0.25"/>
    <stop offset="1" stop-color="#14C2FF" stop-opacity="0.7"/>
  </linearGradient>
  <linearGradient id="strokeB" x1="0" y1="0" x2="0" y2="1">
    <stop offset="0" stop-color="#FFFFFF" stop-opacity="0.18"/>
    <stop offset="1" stop-color="#14C2FF" stop-opacity="0.55"/>
  </linearGradient>
</defs>
<rect x="0" y="0" width="1920" height="1080" fill="url(#g0)"/>
<rect x="0" y="0" width="1920" height="1080" fill="url(#g1)"/>
<rect x="0" y="0" width="1920" height="1080" fill="url(#g2)"/>


<defs>
  <radialGradient id="vign" cx="0.5000" cy="0.5093" r="0.85">
    <stop offset="0" stop-color="#000000" stop-opacity="0"/>
    <stop offset="0.55" stop-color="#000000" stop-opacity="0.217"/>
    <stop offset="1" stop-color="#000000" stop-opacity="0.620"/>
  </radialGradient>
</defs>
<rect x="0" y="0" width="1920" height="1080" fill="url(#vign)"/>

<g opacity="0.277" filter="url(#softGlow)"><path d="M 1896.9,879.9 L 109.4,879.9 L 109.4,43.3 L 1795.9,43.3 L 1795.9,944.7 " fill="none" stroke="url(#strokeB)" stroke-width="1.56" stroke-linecap="round" stroke-linejoin="round"/><circle cx="1795.9" cy="944.7" r="2.7" fill="#00FFA3" opacity="0.45"/><circle cx="1795.9" cy="43.3" r="3.3" fill="#00FFA3" opacity="0.45"/><circle cx="109.4" cy="43.3" r="3.0" fill="#00FFA3" opacity="0.45"/></g>
<g opacity="0.277" filter="url(#softGlow)"><path d="M 91.7,479.2 L 1806.9,479.2 L 1806.9,386.1 L 1719.6,386.1 L 1719.6,411.8 " fill="none" stroke="url(#strokeB)" stroke-width="1.24" stroke-linecap="round" stroke-linejoin="round"/><circle cx="1719.6" cy="411.8" r="2.7" fill="#00FFA3" opacity="0.45"/><circle cx="1806.9" cy="479.2" r="3.2" fill="#00FFA3" opacity="0.45"/><circle cx="1806.9" cy="386.1" r="2.6" fill="#00FFA3" opacity="0.45"/></g>
<g opacity="0.277" filter="url(#softGlow)"><path d="M 74.0,195.5 L 1766.6,195.5 L 1766.6,600.7 L 1836.8,600.7 L 1836.8,46.0 " fill="none" stroke="url(#strokeB)" stroke-width="1.76" stroke-linecap="round" stroke-linejoin="round"/><circle cx="1836.8" cy="46.0" r="3.4" fill="#00FFA3" opacity="0.45"/><circle cx="74.0" cy="195.5" r="3.2" fill="#00FFA3" opacity="0.45"/><circle cx="1766.6" cy="195.5" r="3.0" fill="#00FFA3" opacity="0.45"/></g>
<g opacity="0.277" filter="url(#softGlow)"><path d="M 1731.6,234.1 L 1762.6,234.1 L 1762.6,80.8 L 1833.4,80.8 L 1833.4,569.7 " fill="none" stroke="url(#strokeB)" stroke-width="2.17" stroke-linecap="round" stroke-linejoin="round"/><circle cx="1762.6" cy="80.8" r="2.6" fill="#00FFA3" opacity="0.45"/><circle cx="1762.6" cy="234.1" r="3.0" fill="#00FFA3" opacity="0.45"/><circle cx="1731.6" cy="234.1" r="3.6" fill="#00FFA3" opacity="0.45"/></g>
<g opacity="0.277" filter="url(#softGlow)"><path d="M 7.7,47.9 L 97.8,47.9 L 97.8,870.6 L 987.0,870.6 L 987.0,39.1 " fill="none" stroke="url(#strokeB)" stroke-width="1.78" stroke-linecap="round" stroke-linejoin="round"/><circle cx="987.0" cy="39.1" r="3.3" fill="#00FFA3" opacity="0.45"/><circle cx="97.8" cy="870.6" r="3.6" fill="#00FFA3" opacity="0.45"/><circle cx="97.8" cy="47.9" r="2.6" fill="#00FFA3" opacity="0.45"/></g>
<g opacity="0.277" filter="url(#softGlow)"><path d="M 1829.0,288.7 L 43.6,288.7 L 43.6,1011.1 L 35.9,1011.1 L 35.9,131.4 " fill="none" stroke="url(#strokeB)" stroke-width="1.32" stroke-linecap="round" stroke-linejoin="round"/><circle cx="1829.0" cy="288.7" r="3.3" fill="#00FFA3" opacity="0.45"/><circle cx="43.6" cy="1011.1" r="2.9" fill="#00FFA3" opacity="0.45"/><circle cx="35.9" cy="131.4" r="3.8" fill="#00FFA3" opacity="0.45"/></g>
<g opacity="0.277" filter="url(#softGlow)"><path d="M 1791.8,949.6 L 41.5,949.6 L 41.5,1010.4 L 150.7,1010.4 L 150.7,684.3 " fill="none" stroke="url(#strokeB)" stroke-width="1.46" stroke-linecap="round" stroke-linejoin="round"/><circle cx="150.7" cy="1010.4" r="3.2" fill="#00FFA3" opacity="0.45"/><circle cx="150.7" cy="684.3" r="3.1" fill="#00FFA3" opacity="0.45"/><circle cx="41.5" cy="1010.4" r="2.7" fill="#00FFA3" opacity="0.45"/></g>
<g opacity="0.277" filter="url(#softGlow)"><path d="M 1640.7,1049.9 L 39.4,1049.9 L 39.4,163.8 L 144.7,163.8 L 144.7,916.6 " fill="none" stroke="url(#strokeB)" stroke-width="1.80" stroke-linecap="round" stroke-linejoin="round"/><circle cx="1640.7" cy="1049.9" r="3.8" fill="#00FFA3" opacity="0.45"/><circle cx="144.7" cy="163.8" r="4.1" fill="#00FFA3" opacity="0.45"/><circle cx="39.4" cy="163.8" r="2.6" fill="#00FFA3" opacity="0.45"/></g>
<g opacity="0.277" filter="url(#softGlow)"><path d="M 1780.3,35.8 L 168.7,35.8 L 168.7,996.9 L 153.3,996.9 L 153.3,765.9 " fill="none" stroke="url(#strokeB)" stroke-width="1.12" stroke-linecap="round" stroke-linejoin="round"/><circle cx="168.7" cy="35.8" r="2.3" fill="#00FFA3" opacity="0.45"/><circle cx="153.3" cy="765.9" r="2.2" fill="#00FFA3" opacity="0.45"/><circle cx="153.3" cy="996.9" r="4.2" fill="#00FFA3" opacity="0.45"/></g>
<g opacity="0.277" filter="url(#softGlow)"><path d="M 1727.5,935.6 L 1783.5,935.6 L 1783.5,721.2 L 1705.0,721.2 L 1705.0,965.9 " fill="none" stroke="url(#strokeB)" stroke-width="1.45" stroke-linecap="round" stroke-linejoin="round"/><circle cx="1783.5" cy="721.2" r="2.9" fill="#00FFA3" opacity="0.45"/><circle cx="1705.0" cy="965.9" r="3.7" fill="#00FFA3" opacity="0.45"/><circle cx="1783.5" cy="935.6" r="2.2" fill="#00FFA3" opacity="0.45"/></g>
<g opacity="0.277" filter="url(#softGlow)"><path d="M 44.9,981.6 L 1749.8,981.6 L 1749.8,1039.7 L 1904.1,1039.7 L 1904.1,193.3 " fill="none" stroke="url(#strokeB)" stroke-width="1.76" stroke-linecap="round" stroke-linejoin="round"/><circle cx="1904.1" cy="1039.7" r="2.1" fill="#00FFA3" opacity="0.45"/><circle cx="44.9" cy="981.6" r="3.4" fill="#00FFA3" opacity="0.45"/><circle cx="1749.8" cy="981.6" r="3.4" fill="#00FFA3" opacity="0.45"/></g>
<g opacity="0.277" filter="url(#softGlow)"><path d="M 1847.9,892.5 L 37.3,892.5 L 37.3,145.4 L 116.7,145.4 L 116.7,923.2 " fill="none" stroke="url(#strokeB)" stroke-width="1.67" stroke-linecap="round" stroke-linejoin="round"/><circle cx="116.7" cy="923.2" r="2.9" fill="#00FFA3" opacity="0.45"/><circle cx="116.7" cy="145.4" r="4.0" fill="#00FFA3" opacity="0.45"/><circle cx="37.3" cy="145.4" r="2.5" fill="#00FFA3" opacity="0.45"/></g>
<g opacity="0.277" filter="url(#softGlow)"><path d="M 1814.6,131.6 L 173.7,131.6 L 173.7,464.7 L 1793.9,464.7 L 1793.9,879.4 " fill="none" stroke="url(#strokeB)" stroke-width="1.31" stroke-linecap="round" stroke-linejoin="round"/><circle cx="1793.9" cy="464.7" r="3.8" fill="#00FFA3" opacity="0.45"/><circle cx="1793.9" cy="879.4" r="2.5" fill="#00FFA3" opacity="0.45"/><circle cx="1814.6" cy="131.6" r="3.5" fill="#00FFA3" opacity="0.45"/></g>
<g opacity="0.277" filter="url(#softGlow)"><path d="M 1336.8,0.7 L 148.1,0.7 L 148.1,9.2 L 211.2,9.2 L 211.2,425.5 " fill="none" stroke="url(#strokeB)" stroke-width="1.18" stroke-linecap="round" stroke-linejoin="round"/><circle cx="1336.8" cy="0.7" r="3.2" fill="#00FFA3" opacity="0.45"/><circle cx="211.2" cy="9.2" r="4.0" fill="#00FFA3" opacity="0.45"/><circle cx="148.1" cy="9.2" r="3.0" fill="#00FFA3" opacity="0.45"/></g>
<g opacity="0.277" filter="url(#softGlow)"><path d="M 474.7,974.7 L 67.1,974.7 L 67.1,102.1 L 29.9,102.1 L 29.9,891.6 " fill="none" stroke="url(#strokeB)" stroke-width="1.90" stroke-linecap="round" stroke-linejoin="round"/><circle cx="29.9" cy="891.6" r="3.9" fill="#00FFA3" opacity="0.45"/><circle cx="67.1" cy="102.1" r="2.2" fill="#00FFA3" opacity="0.45"/><circle cx="29.9" cy="102.1" r="3.4" fill="#00FFA3" opacity="0.45"/></g>
<g opacity="0.277" filter="url(#softGlow)"><path d="M 1848.2,505.0 L 1449.9,505.0 L 1449.9,1050.2 L 1729.0,1050.2 L 1729.0,908.5 " fill="none" stroke="url(#strokeB)" stroke-width="1.19" stroke-linecap="round" stroke-linejoin="round"/><circle cx="1848.2" cy="505.0" r="2.7" fill="#00FFA3" opacity="0.45"/><circle cx="1449.9" cy="505.0" r="3.4" fill="#00FFA3" opacity="0.45"/><circle cx="1449.9" cy="1050.2" r="3.2" fill="#00FFA3" opacity="0.45"/></g>
<g opacity="0.277" filter="url(#softGlow)"><path d="M 1886.6,173.5 L 157.2,173.5 L 157.2,503.6 L 113.6,503.6 L 113.6,1034.8 " fill="none" stroke="url(#strokeB)" stroke-width="2.16" stroke-linecap="round" stroke-linejoin="round"/><circle cx="157.2" cy="173.5" r="3.1" fill="#00FFA3" opacity="0.45"/><circle cx="113.6" cy="1034.8" r="3.4" fill="#00FFA3" opacity="0.45"/><circle cx="113.6" cy="503.6" r="4.1" fill="#00FFA3" opacity="0.45"/></g>
<g opacity="0.277" filter="url(#softGlow)"><path d="M 726.4,1026.3 L 1815.2,1026.3 L 1815.2,213.5 L 1739.3,213.5 L 1739.3,936.5 " fill="none" stroke="url(#strokeB)" stroke-width="1.72" stroke-linecap="round" stroke-linejoin="round"/><circle cx="726.4" cy="1026.3" r="3.0" fill="#00FFA3" opacity="0.45"/><circle cx="1739.3" cy="936.5" r="2.9" fill="#00FFA3" opacity="0.45"/><circle cx="1815.2" cy="213.5" r="3.8" fill="#00FFA3" opacity="0.45"/></g>
<g opacity="0.277" filter="url(#softGlow)"><path d="M 1896.1,909.4 L 237.1,909.4 L 237.1,884.5 L 203.7,884.5 L 203.7,94.2 " fill="none" stroke="url(#strokeB)" stroke-width="1.14" stroke-linecap="round" stroke-linejoin="round"/><circle cx="203.7" cy="884.5" r="3.5" fill="#00FFA3" opacity="0.45"/><circle cx="237.1" cy="909.4" r="2.2" fill="#00FFA3" opacity="0.45"/><circle cx="1896.1" cy="909.4" r="2.5" fill="#00FFA3" opacity="0.45"/></g>
<g opacity="0.277" filter="url(#softGlow)"><path d="M 1795.6,971.9 L 90.8,971.9 L 90.8,876.8 L 1902.8,876.8 L 1902.8,122.2 " fill="none" stroke="url(#strokeB)" stroke-width="1.73" stroke-linecap="round" stroke-linejoin="round"/><circle cx="1795.6" cy="971.9" r="2.0" fill="#00FFA3" opacity="0.45"/><circle cx="1902.8" cy="876.8" r="3.6" fill="#00FFA3" opacity="0.45"/><circle cx="90.8" cy="971.9" r="3.6" fill="#00FFA3" opacity="0.45"/></g>
<g opacity="0.277" filter="url(#softGlow)"><path d="M 1861.1,344.4 L 1748.5,344.4 L 1748.5,864.6 L 596.1,864.6 L 596.1,96.5 " fill="none" stroke="url(#strokeB)" stroke-width="2.01" stroke-linecap="round" stroke-linejoin="round"/><circle cx="1748.5" cy="344.4" r="2.5" fill="#00FFA3" opacity="0.45"/><circle cx="1861.1" cy="344.4" r="2.6" fill="#00FFA3" opacity="0.45"/><circle cx="596.1" cy="864.6" r="3.5" fill="#00FFA3" opacity="0.45"/></g>
<g opacity="0.277" filter="url(#softGlow)"><path d="M 5.9,187.9 L 51.2,187.9 L 51.2,111.2 L 1824.3,111.2 L 1824.3,4.6 " fill="none" stroke="url(#strokeB)" stroke-width="1.60" stroke-linecap="round" stroke-linejoin="round"/><circle cx="1824.3" cy="111.2" r="2.7" fill="#00FFA3" opacity="0.45"/><circle cx="51.2" cy="111.2" r="4.1" fill="#00FFA3" opacity="0.45"/><circle cx="1824.3" cy="4.6" r="2.5" fill="#00FFA3" opacity="0.45"/></g>

<g opacity="0.841" filter="url(#hardGlow)">
  <circle cx="32.7" cy="984.1" r="53.3" fill="#0A1224" opacity="0.65"/>
  <circle cx="32.7" cy="984.1" r="53.3" fill="none" stroke="url(#strokeA)" stroke-width="4.3" opacity="0.85"/>
  <circle cx="32.7" cy="984.1" r="45.9" fill="none" stroke="#FF4D8D" stroke-width="1.6" opacity="0.35"/>
  <polygon points="22.9,1021.3 -4.4,994.2 5.4,957.1 42.4,947.0 69.7,974.0 60.0,1011.2" fill="none" stroke="url(#strokeB)" stroke-width="1.3" opacity="0.65"/>
  <polygon points="25.0,995.2 26.9,972.0 46.1,985.2" fill="#FF4D8D" opacity="0.22" filter="url(#softGlow)"/>
</g>


<g opacity="0.634" filter="url(#hardGlow)">
  <circle cx="87.5" cy="1025.8" r="25.5" fill="#0A1224" opacity="0.65"/>
  <circle cx="87.5" cy="1025.8" r="25.5" fill="none" stroke="url(#strokeA)" stroke-width="2.0" opacity="0.85"/>
  <circle cx="87.5" cy="1025.8" r="21.9" fill="none" stroke="#00FFA3" stroke-width="1.5" opacity="0.35"/>
  <polygon points="70.2,1019.6 84.3,1007.8 101.5,1014.0 104.7,1032.1 90.7,1043.9 73.4,1037.6" fill="none" stroke="url(#strokeB)" stroke-width="1.2" opacity="0.65"/>
  <polygon points="82.5,1021.7 93.5,1023.6 86.4,1032.2" fill="#00FFA3" opacity="0.22" filter="url(#softGlow)"/>
</g>


<g opacity="0.402" filter="url(#hardGlow)">
  <circle cx="53.5" cy="924.8" r="27.5" fill="#0A1224" opacity="0.65"/>
  <circle cx="53.5" cy="924.8" r="27.5" fill="none" stroke="url(#strokeA)" stroke-width="2.2" opacity="0.85"/>
  <circle cx="53.5" cy="924.8" r="23.6" fill="none" stroke="#00FFA3" stroke-width="1.5" opacity="0.35"/>
  <polygon points="58.5,905.7 72.5,919.6 67.5,938.8 48.4,944.0 34.4,930.0 39.4,910.9" fill="none" stroke="url(#strokeB)" stroke-width="1.2" opacity="0.65"/>
  
</g>


<g opacity="0.586" filter="url(#hardGlow)">
  <circle cx="114.3" cy="967.3" r="23.4" fill="#0A1224" opacity="0.65"/>
  <circle cx="114.3" cy="967.3" r="23.4" fill="none" stroke="url(#strokeA)" stroke-width="2.0" opacity="0.85"/>
  <circle cx="114.3" cy="967.3" r="20.1" fill="none" stroke="#00FFA3" stroke-width="1.5" opacity="0.35"/>
  <polygon points="128.2,957.9 129.4,974.6 115.5,984.1 100.4,976.8 99.2,960.0 113.1,950.5" fill="none" stroke="url(#strokeB)" stroke-width="1.2" opacity="0.65"/>
  <polygon points="120.0,965.9 112.7,973.0 110.2,963.1" fill="#00FFA3" opacity="0.22" filter="url(#softGlow)"/>
</g>


<g opacity="0.866" filter="url(#hardGlow)">
  <circle cx="134.8" cy="960.9" r="40.8" fill="#0A1224" opacity="0.65"/>
  <circle cx="134.8" cy="960.9" r="40.8" fill="none" stroke="url(#strokeA)" stroke-width="3.3" opacity="0.85"/>
  <circle cx="134.8" cy="960.9" r="35.1" fill="none" stroke="#FF4D8D" stroke-width="1.5" opacity="0.35"/>
  <polygon points="127.4,932.5 155.7,940.3 163.1,968.7 142.1,989.3 113.8,981.5 106.5,953.1" fill="none" stroke="url(#strokeB)" stroke-width="1.2" opacity="0.65"/>
  <polygon points="135.8,950.7 143.2,966.9 125.4,965.2" fill="#FF4D8D" opacity="0.22" filter="url(#softGlow)"/>
</g>


<g opacity="0.589" filter="url(#hardGlow)">
  <circle cx="101.2" cy="926.5" r="20.9" fill="#0A1224" opacity="0.65"/>
  <circle cx="101.2" cy="926.5" r="20.9" fill="none" stroke="url(#strokeA)" stroke-width="2.0" opacity="0.85"/>
  <circle cx="101.2" cy="926.5" r="18.0" fill="none" stroke="#00FFA3" stroke-width="1.5" opacity="0.35"/>
  <polygon points="114.7,933.3 102.1,941.6 88.6,934.8 87.7,919.8 100.3,911.5 113.8,918.2" fill="none" stroke="url(#strokeB)" stroke-width="1.2" opacity="0.65"/>
  <polygon points="104.8,930.4 96.1,927.8 102.7,921.5" fill="#00FFA3" opacity="0.22" filter="url(#softGlow)"/>
</g>


<g opacity="0.433" filter="url(#hardGlow)">
  <circle cx="168.4" cy="950.2" r="20.6" fill="#0A1224" opacity="0.65"/>
  <circle cx="168.4" cy="950.2" r="20.6" fill="none" stroke="url(#strokeA)" stroke-width="2.0" opacity="0.85"/>
  <circle cx="168.4" cy="950.2" r="17.7" fill="none" stroke="#00FFA3" stroke-width="1.5" opacity="0.35"/>
  <polygon points="172.4,935.9 182.8,946.5 178.9,960.8 164.5,964.5 154.1,953.9 158.0,939.6" fill="none" stroke="url(#strokeB)" stroke-width="1.2" opacity="0.65"/>
  <polygon points="171.5,946.0 170.6,955.0 163.3,949.7" fill="#00FFA3" opacity="0.22" filter="url(#softGlow)"/>
</g>


<g opacity="0.356" filter="url(#hardGlow)">
  <circle cx="85.2" cy="949.5" r="15.1" fill="#0A1224" opacity="0.65"/>
  <circle cx="85.2" cy="949.5" r="15.1" fill="none" stroke="url(#strokeA)" stroke-width="2.0" opacity="0.85"/>
  <circle cx="85.2" cy="949.5" r="13.0" fill="none" stroke="#00FFA3" stroke-width="1.5" opacity="0.35"/>
  <polygon points="76.1,943.6 85.8,938.7 94.9,944.6 94.3,955.5 84.6,960.4 75.5,954.5" fill="none" stroke="url(#strokeB)" stroke-width="1.2" opacity="0.65"/>
  <polygon points="82.9,946.5 89.0,949.1 83.7,953.0" fill="#00FFA3" opacity="0.22" filter="url(#softGlow)"/>
</g>


<g opacity="0.826" filter="url(#hardGlow)">
  <circle cx="1894.0" cy="354.4" r="38.7" fill="#0A1224" opacity="0.65"/>
  <circle cx="1894.0" cy="354.4" r="38.7" fill="none" stroke="url(#strokeA)" stroke-width="3.1" opacity="0.85"/>
  <circle cx="1894.0" cy="354.4" r="33.2" fill="none" stroke="#FF4D8D" stroke-width="1.5" opacity="0.35"/>
  <polygon points="1885.2,380.8 1866.8,360.0 1875.6,333.6 1902.8,328.0 1921.3,348.8 1912.5,375.2" fill="none" stroke="url(#strokeB)" stroke-width="1.2" opacity="0.65"/>
  <polygon points="1888.0,362.0 1890.5,345.4 1903.7,355.8" fill="#FF4D8D" opacity="0.22" filter="url(#softGlow)"/>
</g>


<g opacity="0.636" filter="url(#hardGlow)">
  <circle cx="1840.6" cy="364.9" r="20.0" fill="#0A1224" opacity="0.65"/>
  <circle cx="1840.6" cy="364.9" r="20.0" fill="none" stroke="url(#strokeA)" stroke-width="2.0" opacity="0.85"/>
  <circle cx="1840.6" cy="364.9" r="17.2" fill="none" stroke="#00FFA3" stroke-width="1.5" opacity="0.35"/>
  <polygon points="1832.1,353.3 1846.4,351.7 1854.9,363.3 1849.1,376.5 1834.8,378.0 1826.3,366.4" fill="none" stroke="url(#strokeB)" stroke-width="1.2" opacity="0.65"/>
  
</g>


<g opacity="0.435" filter="url(#hardGlow)">
  <circle cx="1954.1" cy="354.7" r="17.1" fill="#0A1224" opacity="0.65"/>
  <circle cx="1954.1" cy="354.7" r="17.1" fill="none" stroke="url(#strokeA)" stroke-width="2.0" opacity="0.85"/>
  <circle cx="1954.1" cy="354.7" r="14.7" fill="none" stroke="#00FFA3" stroke-width="1.5" opacity="0.35"/>
  <polygon points="1942.6,350.1 1952.3,342.5 1963.8,347.0 1965.6,359.2 1955.9,366.9 1944.4,362.3" fill="none" stroke="url(#strokeB)" stroke-width="1.2" opacity="0.65"/>
  
</g>


<g opacity="0.696" filter="url(#hardGlow)">
  <circle cx="1821.8" cy="631.5" r="66.9" fill="#0A1224" opacity="0.65"/>
  <circle cx="1821.8" cy="631.5" r="66.9" fill="none" stroke="url(#strokeA)" stroke-width="5.3" opacity="0.85"/>
  <circle cx="1821.8" cy="631.5" r="57.5" fill="none" stroke="#FF4D8D" stroke-width="2.0" opacity="0.35"/>
  <polygon points="1774.9,620.8 1807.6,585.5 1854.5,596.3 1868.7,642.3 1835.9,677.5 1789.0,666.8" fill="none" stroke="url(#strokeB)" stroke-width="1.7" opacity="0.65"/>
  <polygon points="1807.6,622.4 1836.8,623.8 1820.9,648.3" fill="#FF4D8D" opacity="0.22" filter="url(#softGlow)"/>
</g>


<g opacity="0.434" filter="url(#hardGlow)">
  <circle cx="1743.1" cy="708.0" r="28.2" fill="#0A1224" opacity="0.65"/>
  <circle cx="1743.1" cy="708.0" r="28.2" fill="none" stroke="url(#strokeA)" stroke-width="2.3" opacity="0.85"/>
  <circle cx="1743.1" cy="708.0" r="24.2" fill="none" stroke="#00FFA3" stroke-width="1.5" opacity="0.35"/>
  <polygon points="1724.9,716.9 1726.3,696.6 1744.5,687.7 1761.3,699.0 1760.0,719.3 1741.7,728.2" fill="none" stroke="url(#strokeB)" stroke-width="1.2" opacity="0.65"/>
  <polygon points="1736.0,708.7 1746.0,701.5 1747.3,713.7" fill="#00FFA3" opacity="0.22" filter="url(#softGlow)"/>
</g>


<g opacity="0.777" filter="url(#hardGlow)">
  <circle cx="104.3" cy="1079.5" r="62.4" fill="#0A1224" opacity="0.65"/>
  <circle cx="104.3" cy="1079.5" r="62.4" fill="none" stroke="url(#strokeA)" stroke-width="5.0" opacity="0.85"/>
  <circle cx="104.3" cy="1079.5" r="53.7" fill="none" stroke="#FF4D8D" stroke-width="1.9" opacity="0.35"/>
  <polygon points="147.7,1091.0 116.1,1122.9 72.6,1111.4 60.8,1068.1 92.5,1036.2 135.9,1047.6" fill="none" stroke="url(#strokeB)" stroke-width="1.6" opacity="0.65"/>
  <polygon points="117.2,1088.5 90.0,1086.2 105.6,1063.9" fill="#FF4D8D" opacity="0.22" filter="url(#softGlow)"/>
</g>


<g opacity="0.526" filter="url(#hardGlow)">
  <circle cx="148.5" cy="1030.9" r="31.9" fill="#0A1224" opacity="0.65"/>
  <circle cx="148.5" cy="1030.9" r="31.9" fill="none" stroke="url(#strokeA)" stroke-width="2.5" opacity="0.85"/>
  <circle cx="148.5" cy="1030.9" r="27.4" fill="none" stroke="#00FFA3" stroke-width="1.5" opacity="0.35"/>
  <polygon points="129.5,1043.7 127.8,1020.8 146.8,1008.0 167.5,1018.0 169.1,1040.9 150.1,1053.8" fill="none" stroke="url(#strokeB)" stroke-width="1.2" opacity="0.65"/>
  <polygon points="140.7,1032.8 150.7,1023.1 154.1,1036.6" fill="#00FFA3" opacity="0.22" filter="url(#softGlow)"/>
</g>


<g opacity="0.410" filter="url(#hardGlow)">
  <circle cx="110.6" cy="1034.7" r="34.0" fill="#0A1224" opacity="0.65"/>
  <circle cx="110.6" cy="1034.7" r="34.0" fill="none" stroke="url(#strokeA)" stroke-width="2.7" opacity="0.85"/>
  <circle cx="110.6" cy="1034.7" r="29.2" fill="none" stroke="#00FFA3" stroke-width="1.5" opacity="0.35"/>
  <polygon points="87.9,1025.6 107.1,1010.5 129.8,1019.6 133.3,1043.8 114.0,1058.9 91.3,1049.8" fill="none" stroke="url(#strokeB)" stroke-width="1.2" opacity="0.65"/>
  
</g>


<g opacity="0.617" filter="url(#hardGlow)">
  <circle cx="145.7" cy="1043.5" r="23.0" fill="#0A1224" opacity="0.65"/>
  <circle cx="145.7" cy="1043.5" r="23.0" fill="none" stroke="url(#strokeA)" stroke-width="2.0" opacity="0.85"/>
  <circle cx="145.7" cy="1043.5" r="19.8" fill="none" stroke="#00FFA3" stroke-width="1.5" opacity="0.35"/>
  <polygon points="132.3,1053.3 130.5,1036.8 143.9,1027.0 159.1,1033.7 160.8,1050.2 147.4,1060.0" fill="none" stroke="url(#strokeB)" stroke-width="1.2" opacity="0.65"/>
  <polygon points="140.1,1045.1 147.1,1037.9 149.9,1047.5" fill="#00FFA3" opacity="0.22" filter="url(#softGlow)"/>
</g>


<g opacity="0.914" filter="url(#hardGlow)">
  <circle cx="1616.1" cy="1070.8" r="43.5" fill="#0A1224" opacity="0.65"/>
  <circle cx="1616.1" cy="1070.8" r="43.5" fill="none" stroke="url(#strokeA)" stroke-width="3.5" opacity="0.85"/>
  <circle cx="1616.1" cy="1070.8" r="37.4" fill="none" stroke="#FF4D8D" stroke-width="1.5" opacity="0.35"/>
  <polygon points="1619.9,1101.8 1591.1,1089.6 1587.2,1058.6 1612.2,1039.7 1641.1,1051.9 1644.9,1083.0" fill="none" stroke="url(#strokeB)" stroke-width="1.2" opacity="0.65"/>
  <polygon points="1613.6,1081.4 1608.1,1063.3 1626.6,1067.5" fill="#FF4D8D" opacity="0.22" filter="url(#softGlow)"/>
</g>


<g opacity="0.560" filter="url(#hardGlow)">
  <circle cx="1626.9" cy="1069.7" r="22.2" fill="#0A1224" opacity="0.65"/>
  <circle cx="1626.9" cy="1069.7" r="22.2" fill="none" stroke="url(#strokeA)" stroke-width="2.0" opacity="0.85"/>
  <circle cx="1626.9" cy="1069.7" r="19.1" fill="none" stroke="#00FFA3" stroke-width="1.5" opacity="0.35"/>
  <polygon points="1642.9,1069.2 1635.3,1083.3 1619.3,1083.8 1610.9,1070.2 1618.4,1056.1 1634.4,1055.6" fill="none" stroke="url(#strokeB)" stroke-width="1.2" opacity="0.65"/>
  
</g>


<g opacity="0.539" filter="url(#hardGlow)">
  <circle cx="1594.0" cy="1113.0" r="20.8" fill="#0A1224" opacity="0.65"/>
  <circle cx="1594.0" cy="1113.0" r="20.8" fill="none" stroke="url(#strokeA)" stroke-width="2.0" opacity="0.85"/>
  <circle cx="1594.0" cy="1113.0" r="17.9" fill="none" stroke="#00FFA3" stroke-width="1.5" opacity="0.35"/>
  <polygon points="1591.4,1098.3 1605.5,1103.4 1608.0,1118.2 1596.5,1127.8 1582.5,1122.6 1579.9,1107.8" fill="none" stroke="url(#strokeB)" stroke-width="1.2" opacity="0.65"/>
  
</g>


<g opacity="0.805" filter="url(#hardGlow)">
  <circle cx="41.5" cy="245.5" r="49.6" fill="#0A1224" opacity="0.65"/>
  <circle cx="41.5" cy="245.5" r="49.6" fill="none" stroke="url(#strokeA)" stroke-width="4.0" opacity="0.85"/>
  <circle cx="41.5" cy="245.5" r="42.6" fill="none" stroke="#FF4D8D" stroke-width="1.5" opacity="0.35"/>
  <polygon points="71.6,226.3 73.1,261.9 43.1,281.1 11.4,264.7 9.8,229.0 39.9,209.8" fill="none" stroke="url(#strokeB)" stroke-width="1.2" opacity="0.65"/>
  <polygon points="53.7,242.8 37.7,257.4 33.0,236.3" fill="#FF4D8D" opacity="0.22" filter="url(#softGlow)"/>
</g>


<g opacity="0.581" filter="url(#hardGlow)">
  <circle cx="56.5" cy="290.2" r="27.2" fill="#0A1224" opacity="0.65"/>
  <circle cx="56.5" cy="290.2" r="27.2" fill="none" stroke="url(#strokeA)" stroke-width="2.2" opacity="0.85"/>
  <circle cx="56.5" cy="290.2" r="23.4" fill="none" stroke="#00FFA3" stroke-width="1.5" opacity="0.35"/>
  <polygon points="69.2,275.3 75.8,293.7 63.1,308.7 43.9,305.2 37.3,286.7 50.0,271.8" fill="none" stroke="url(#strokeB)" stroke-width="1.2" opacity="0.65"/>
  <polygon points="62.5,286.8 56.5,297.1 50.6,286.8" fill="#00FFA3" opacity="0.22" filter="url(#softGlow)"/>
</g>


<g opacity="0.621" filter="url(#hardGlow)">
  <circle cx="-9.2" cy="274.5" r="25.4" fill="#0A1224" opacity="0.65"/>
  <circle cx="-9.2" cy="274.5" r="25.4" fill="none" stroke="url(#strokeA)" stroke-width="2.0" opacity="0.85"/>
  <circle cx="-9.2" cy="274.5" r="21.8" fill="none" stroke="#00FFA3" stroke-width="1.5" opacity="0.35"/>
  <polygon points="-6.9,256.4 7.7,267.5 5.4,285.6 -11.5,292.7 -26.0,281.6 -23.7,263.5" fill="none" stroke="url(#strokeB)" stroke-width="1.2" opacity="0.65"/>
  
</g>


<g opacity="0.452" transform="translate(1837.3,43.6) rotate(-6.4)" filter="url(#softGlow)">
  <rect x="-113.3" y="-105.8" width="226.6" height="211.6" rx="21.2" fill="#050A12" opacity="0.25"/>
  <rect x="-113.3" y="-105.8" width="226.6" height="211.6" rx="21.2" fill="none" stroke="url(#strokeA)" stroke-width="10.6" opacity="0.85"/>
  <rect x="-96.4" y="-88.9" width="192.8" height="177.7" rx="14.8" fill="none" stroke="#FF4D8D" stroke-width="4.2" opacity="0.35"/>
</g>


<g opacity="0.428" transform="translate(96.2,599.9) rotate(-3.1)" filter="url(#softGlow)">
  <rect x="-98.2" y="-86.1" width="196.4" height="172.2" rx="17.2" fill="#050A12" opacity="0.25"/>
  <rect x="-98.2" y="-86.1" width="196.4" height="172.2" rx="17.2" fill="none" stroke="url(#strokeA)" stroke-width="8.6" opacity="0.85"/>
  <rect x="-84.4" y="-72.3" width="168.8" height="144.6" rx="12.1" fill="none" stroke="#FF4D8D" stroke-width="3.4" opacity="0.35"/>
</g>


<g opacity="0.355" transform="translate(1905.9,888.2) rotate(6.2)" filter="url(#softGlow)">
  <rect x="-91.6" y="-85.1" width="183.2" height="170.2" rx="17.0" fill="#050A12" opacity="0.25"/>
  <rect x="-91.6" y="-85.1" width="183.2" height="170.2" rx="17.0" fill="none" stroke="url(#strokeA)" stroke-width="8.5" opacity="0.85"/>
  <rect x="-78.0" y="-71.5" width="156.0" height="143.0" rx="11.9" fill="none" stroke="#FF4D8D" stroke-width="3.4" opacity="0.35"/>
</g>


<g opacity="0.414" transform="translate(132.1,51.1) rotate(-5.4)" filter="url(#softGlow)">
  <rect x="-81.4" y="-56.4" width="162.8" height="112.8" rx="11.3" fill="#050A12" opacity="0.25"/>
  <rect x="-81.4" y="-56.4" width="162.8" height="112.8" rx="11.3" fill="none" stroke="url(#strokeA)" stroke-width="5.6" opacity="0.85"/>
  <rect x="-72.4" y="-47.4" width="144.8" height="94.8" rx="7.9" fill="none" stroke="#00FFA3" stroke-width="2.3" opacity="0.35"/>
</g>


<g opacity="0.305" transform="translate(9.1,783.9) rotate(-0.2)" filter="url(#softGlow)">
  <rect x="-55.4" y="-31.9" width="110.8" height="63.8" rx="19.5" fill="none" stroke="#00FFA3" stroke-width="10.6" opacity="0.55"/>
  <rect x="-24.4" y="-16.0" width="110.8" height="63.8" rx="19.5" fill="none" stroke="url(#strokeA)" stroke-width="8.9" opacity="0.55"/>
</g>


<g opacity="0.348" transform="translate(1773.3,503.7) rotate(-1.6)" filter="url(#softGlow)">
  <rect x="-49.6" y="-28.5" width="99.1" height="57.1" rx="17.4" fill="none" stroke="#00FFA3" stroke-width="9.5" opacity="0.55"/>
  <rect x="-21.8" y="-14.3" width="99.1" height="57.1" rx="17.4" fill="none" stroke="url(#strokeA)" stroke-width="7.9" opacity="0.55"/>
</g>


<g opacity="0.426" transform="translate(149.5,136.4) rotate(-1.3)" filter="url(#softGlow)">
  <rect x="-50.8" y="-29.3" width="101.7" height="58.6" rx="17.9" fill="none" stroke="#FF4D8D" stroke-width="9.8" opacity="0.55"/>
  <rect x="-22.4" y="-14.6" width="101.7" height="58.6" rx="17.9" fill="none" stroke="url(#strokeA)" stroke-width="8.1" opacity="0.55"/>
</g>


<g opacity="0.384" transform="translate(6.5,6.4) rotate(-13.1)" filter="url(#softGlow)">
  <rect x="-46.0" y="-26.5" width="91.9" height="53.0" rx="16.2" fill="none" stroke="#FF4D8D" stroke-width="8.8" opacity="0.55"/>
  <rect x="-20.2" y="-13.2" width="91.9" height="53.0" rx="16.2" fill="none" stroke="url(#strokeA)" stroke-width="7.4" opacity="0.55"/>
</g>


<g opacity="0.448" transform="translate(1836.7,192.2) rotate(11.8)" filter="url(#softGlow)">
  <rect x="-60.0" y="-34.6" width="120.1" height="69.2" rx="21.1" fill="none" stroke="#FF4D8D" stroke-width="11.5" opacity="0.55"/>
  <rect x="-26.4" y="-17.3" width="120.1" height="69.2" rx="21.1" fill="none" stroke="url(#strokeA)" stroke-width="9.6" opacity="0.55"/>
</g>


<g opacity="0.359" transform="translate(1808.2,1017.1) rotate(15.3)" filter="url(#softGlow)">
  <rect x="-56.6" y="-32.6" width="113.1" height="65.2" rx="19.9" fill="none" stroke="#FF4D8D" stroke-width="10.9" opacity="0.55"/>
  <rect x="-24.9" y="-16.3" width="113.1" height="65.2" rx="19.9" fill="none" stroke="url(#strokeA)" stroke-width="9.0" opacity="0.55"/>
</g>


<g opacity="0.392" transform="translate(135.6,931.1) rotate(-8.1)" filter="url(#softGlow)">
  <rect x="-45.2" y="-26.0" width="90.4" height="52.1" rx="15.9" fill="none" stroke="#FF4D8D" stroke-width="8.7" opacity="0.55"/>
  <rect x="-19.9" y="-13.0" width="90.4" height="52.1" rx="15.9" fill="none" stroke="url(#strokeA)" stroke-width="7.2" opacity="0.55"/>
</g>


<g opacity="0.369" transform="translate(40.5,782.8) rotate(12.6)" filter="url(#softGlow)">
  <rect x="-41.0" y="-23.6" width="82.0" height="47.2" rx="14.4" fill="none" stroke="#FF4D8D" stroke-width="7.9" opacity="0.55"/>
  <rect x="-18.0" y="-11.8" width="82.0" height="47.2" rx="14.4" fill="none" stroke="url(#strokeA)" stroke-width="6.6" opacity="0.55"/>
</g>


<g opacity="0.275" transform="translate(1715.1,197.3) rotate(17.7)" filter="url(#softGlow)">
  <rect x="-47.5" y="-27.4" width="95.0" height="54.7" rx="16.7" fill="none" stroke="#FF4D8D" stroke-width="9.1" opacity="0.55"/>
  <rect x="-20.9" y="-13.7" width="95.0" height="54.7" rx="16.7" fill="none" stroke="url(#strokeA)" stroke-width="7.6" opacity="0.55"/>
</g>


<g opacity="0.443" transform="translate(1787.6,117.3) rotate(10.1)" filter="url(#softGlow)">
  <rect x="-41.3" y="-23.8" width="82.5" height="47.5" rx="14.5" fill="none" stroke="#FF4D8D" stroke-width="7.9" opacity="0.55"/>
  <rect x="-18.2" y="-11.9" width="82.5" height="47.5" rx="14.5" fill="none" stroke="url(#strokeA)" stroke-width="6.6" opacity="0.55"/>
</g>


<g opacity="0.180">
  <line x1="10.2" y1="878.6" x2="10.2" y2="973.9" stroke="#00FFA3" stroke-width="1.36" opacity="0.45"/>
  <rect x="5.3" y="933.4" width="9.8" height="42.9" rx="3.3" fill="#0B1020" opacity="0.55" stroke="url(#strokeA)" stroke-width="1.2"/>
</g>

<g opacity="0.180">
  <line x1="290.9" y1="922.3" x2="290.9" y2="963.0" stroke="#00FFA3" stroke-width="2.08" opacity="0.45"/>
  <rect x="287.7" y="945.4" width="6.5" height="18.8" rx="2.2" fill="#0B1020" opacity="0.55" stroke="url(#strokeA)" stroke-width="1.2"/>
</g>

<g opacity="0.180">
  <line x1="1687.8" y1="872.1" x2="1687.8" y2="975.5" stroke="#00FFA3" stroke-width="1.21" opacity="0.45"/>
  <rect x="1684.2" y="933.2" width="7.2" height="43.3" rx="2.4" fill="#0B1020" opacity="0.55" stroke="url(#strokeA)" stroke-width="1.2"/>
</g>

<g opacity="0.180">
  <line x1="1905.1" y1="910.3" x2="1905.1" y2="966.0" stroke="#00FFA3" stroke-width="1.76" opacity="0.45"/>
  <rect x="1899.6" y="941.1" width="11.0" height="27.5" rx="3.7" fill="#0B1020" opacity="0.55" stroke="url(#strokeA)" stroke-width="1.2"/>
</g>

<g opacity="0.180">
  <line x1="1910.0" y1="880.6" x2="1910.0" y2="973.4" stroke="#00FFA3" stroke-width="1.58" opacity="0.45"/>
  <rect x="1906.5" y="926.7" width="6.8" height="56.2" rx="2.3" fill="#0B1020" opacity="0.55" stroke="url(#strokeA)" stroke-width="1.2"/>
</g>

<g opacity="0.180">
  <line x1="1708.1" y1="892.6" x2="1708.1" y2="970.4" stroke="#00FFA3" stroke-width="2.06" opacity="0.45"/>
  <rect x="1702.7" y="931.7" width="10.7" height="46.3" rx="3.6" fill="#0B1020" opacity="0.55" stroke="url(#strokeA)" stroke-width="1.2"/>
</g>
<circle cx="1830.2" cy="928.5" r="2.7" fill="#FF4D8D" opacity="0.18" filter="url(#softGlow)"/>
<circle cx="8.7" cy="1054.4" r="2.1" fill="#FF4D8D" opacity="0.13" filter="url(#softGlow)"/>
<circle cx="1809.8" cy="238.7" r="2.6" fill="#FF4D8D" opacity="0.15" filter="url(#softGlow)"/>
<circle cx="1773.4" cy="173.0" r="1.7" fill="#FF4D8D" opacity="0.13" filter="url(#softGlow)"/>
<circle cx="1798.8" cy="891.8" r="1.4" fill="#FF4D8D" opacity="0.26" filter="url(#softGlow)"/>
<circle cx="1840.8" cy="74.1" r="2.2" fill="#FF4D8D" opacity="0.14" filter="url(#softGlow)"/>
<circle cx="1721.9" cy="867.7" r="2.6" fill="#FF4D8D" opacity="0.24" filter="url(#softGlow)"/>
<circle cx="1839.5" cy="1021.8" r="2.0" fill="#FF4D8D" opacity="0.20" filter="url(#softGlow)"/>
<circle cx="1806.7" cy="695.2" r="1.9" fill="#FF4D8D" opacity="0.11" filter="url(#softGlow)"/>
<circle cx="1742.7" cy="698.6" r="2.1" fill="#FF4D8D" opacity="0.24" filter="url(#softGlow)"/>
<circle cx="1915.1" cy="55.1" r="2.6" fill="#FF4D8D" opacity="0.14" filter="url(#softGlow)"/>
<circle cx="18.1" cy="134.5" r="1.9" fill="#FF4D8D" opacity="0.11" filter="url(#softGlow)"/>
<circle cx="10.3" cy="994.2" r="1.7" fill="#FF4D8D" opacity="0.17" filter="url(#softGlow)"/>
<circle cx="1879.9" cy="1057.4" r="2.0" fill="#FF4D8D" opacity="0.17" filter="url(#softGlow)"/>
<circle cx="1812.6" cy="995.5" r="2.2" fill="#FF4D8D" opacity="0.14" filter="url(#softGlow)"/>
<circle cx="1872.1" cy="209.4" r="2.6" fill="#FF4D8D" opacity="0.27" filter="url(#softGlow)"/>
<circle cx="84.0" cy="902.4" r="2.1" fill="#FF4D8D" opacity="0.16" filter="url(#softGlow)"/>
<circle cx="92.7" cy="1069.8" r="1.8" fill="#FF4D8D" opacity="0.14" filter="url(#softGlow)"/>
<circle cx="150.0" cy="143.1" r="1.5" fill="#FF4D8D" opacity="0.12" filter="url(#softGlow)"/>
<circle cx="659.1" cy="109.9" r="1.8" fill="#FF4D8D" opacity="0.21" filter="url(#softGlow)"/>
<circle cx="1716.4" cy="44.8" r="1.8" fill="#FF4D8D" opacity="0.16" filter="url(#softGlow)"/>
</svg>