<svg xmlns="http://www.w3.org/2000/svg" width="1920" height="1080" viewBox="0 0 1920 1080" preserveAspectRatio="xMidYMid slice">
<defs>
  <linearGradient id="g0" x1="0" y1="0" x2="1" y2="1">
    <stop offset="0" stop-color="#0B1020"/>
    <stop offset="0.55" stop-color="#F97316" stop-opacity="0.9"/>
    <stop offset="1" stop-color="#020617"/>
  </linearGradient>
  <radialGradient id="g1" cx="20%" cy="15%" r="70%">
    <stop offset="0" stop-color="#06B6D4" stop-opacity="0.38"/>
    <stop offset="0.6" stop-color="#06B6D4" stop-opacity="0.08"/>
    <stop offset="1" stop-color="#06B6D4" stop-opacity="0"/>
  </radialGradient>
  <radialGradient id="g2" cx="85%" cy="80%" r="75%">
    <stop offset="0" stop-color="#06B6D4" stop-opacity="0.28"/>
    <stop offset="0.65" stop-color="#06B6D4" stop-opacity="0.06"/>
    <stop offset="1" stop-color="#06B6D4" stop-opacity="0"/>
  </radialGradient>
  <filter id="softGlow" x="-30%" y="-30%" width="160%" height="160%">
    <feGaussianBlur stdDeviation="12" result="b"/>
    <feMerge>
      <feMergeNode in="b"/>
      <feMergeNode in="SourceGraphic"/>
    </feMerge>
  </filter>
  <filter id="hardGlow" x="-40%" y="-40%" width="180%" height="180%">
    <feGaussianBlur stdDeviation="6" result="b"/>
    <feColorMatrix in="b" type="matrix" values="1 0 0 0 0  0 1 0 0 0  0 0 1 0 0  0 0 0 18 -7" result="c"/>
    <feMerge>
      <feMergeNode in="c"/>
      <feMergeNode in="SourceGraphic"/>
    </feMerge>
  </filter>
  <linearGradient id="strokeA" x1="0" y1="0" x2="1" y2="0">
    <stop offset="0" stop-color="#06B6D4" stop-opacity="0.9"/>
    <stop offset="0.5" stop-color="#FFFFFF" stop-opacity="0.25"/>
    <stop offset="1" stop-color="#06B6D4" stop-opacity="0.7"/>
  </linearGradient>
  <linearGradient id="strokeB" x1="0" y1="0" x2="0" y2="1">
    <stop offset="0" stop-color="#FFFFFF" stop-opacity="0.18"/>
    <stop offset="1" stop-color="#06B6D4" stop-opacity="0.55"/>
  </linearGradient>
</defs>
<rect x="0" y="0" width="1920" height="1080" fill="url(#g0)"/>
<rect x="0" y="0" width="1920" height="1080" fill="url(#g1)"/>
<rect x="0" y="0" width="1920" height="1080" fill="url(#g2)"/>


<defs>
  <radialGradient id="vign" cx="0.5000" cy="0.5093" r="0.85">
    <stop offset="0" stop-color="#000000" stop-opacity="0"/>
    <stop offset="0.55" stop-color="#000000" stop-opacity="0.217"/>
    <stop offset="1" stop-color="#000000" stop-opacity="0.620"/>
  </radialGradient>
</defs>
<rect x="0" y="0" width="1920" height="1080" fill="url(#vign)"/>

<g opacity="0.245" filter="url(#softGlow)"><path d="M 1712.5,272.8 L 1871.0,272.8 L 1871.0,593.1 L 455.7,593.1 L 455.7,101.2 " fill="none" stroke="url(#strokeB)" stroke-width="1.77" stroke-linecap="round" stroke-linejoin="round"/><circle cx="1712.5" cy="272.8" r="3.2" fill="#F97316" opacity="0.45"/><circle cx="455.7" cy="101.2" r="3.2" fill="#F97316" opacity="0.45"/><circle cx="1871.0" cy="272.8" r="2.9" fill="#F97316" opacity="0.45"/></g>
<g opacity="0.245" filter="url(#softGlow)"><path d="M 1797.2,1024.6 L 95.1,1024.6 L 95.1,1007.1 L 1747.3,1007.1 L 1747.3,162.3 " fill="none" stroke="url(#strokeB)" stroke-width="2.08" stroke-linecap="round" stroke-linejoin="round"/><circle cx="95.1" cy="1024.6" r="3.6" fill="#F97316" opacity="0.45"/><circle cx="1747.3" cy="162.3" r="3.5" fill="#F97316" opacity="0.45"/><circle cx="1797.2" cy="1024.6" r="2.6" fill="#F97316" opacity="0.45"/></g>
<g opacity="0.245" filter="url(#softGlow)"><path d="M 1888.1,151.9 L 71.9,151.9 L 71.9,1074.8 L 39.2,1074.8 L 39.2,276.8 " fill="none" stroke="url(#strokeB)" stroke-width="1.35" stroke-linecap="round" stroke-linejoin="round"/><circle cx="71.9" cy="1074.8" r="3.4" fill="#F97316" opacity="0.45"/><circle cx="1888.1" cy="151.9" r="3.3" fill="#F97316" opacity="0.45"/><circle cx="39.2" cy="1074.8" r="2.0" fill="#F97316" opacity="0.45"/></g>
<g opacity="0.245" filter="url(#softGlow)"><path d="M 1446.4,133.3 L 1864.5,133.3 L 1864.5,510.0 L 1905.9,510.0 L 1905.9,721.9 " fill="none" stroke="url(#strokeB)" stroke-width="1.58" stroke-linecap="round" stroke-linejoin="round"/><circle cx="1864.5" cy="510.0" r="3.5" fill="#F97316" opacity="0.45"/><circle cx="1864.5" cy="133.3" r="3.6" fill="#F97316" opacity="0.45"/><circle cx="1905.9" cy="510.0" r="2.1" fill="#F97316" opacity="0.45"/></g>
<g opacity="0.245" filter="url(#softGlow)"><path d="M 111.0,968.6 L 1797.1,968.6 L 1797.1,112.2 L 110.3,112.2 L 110.3,68.7 " fill="none" stroke="url(#strokeB)" stroke-width="1.62" stroke-linecap="round" stroke-linejoin="round"/><circle cx="1797.1" cy="968.6" r="2.6" fill="#F97316" opacity="0.45"/><circle cx="110.3" cy="68.7" r="3.5" fill="#F97316" opacity="0.45"/><circle cx="110.3" cy="112.2" r="3.7" fill="#F97316" opacity="0.45"/></g>
<g opacity="0.245" filter="url(#softGlow)"><path d="M 1788.3,998.5 L 165.3,998.5 L 165.3,895.6 L 1862.1,895.6 L 1862.1,928.2 " fill="none" stroke="url(#strokeB)" stroke-width="1.62" stroke-linecap="round" stroke-linejoin="round"/><circle cx="1862.1" cy="928.2" r="3.0" fill="#F97316" opacity="0.45"/><circle cx="165.3" cy="998.5" r="3.4" fill="#F97316" opacity="0.45"/><circle cx="1862.1" cy="895.6" r="3.2" fill="#F97316" opacity="0.45"/></g>
<g opacity="0.245" filter="url(#softGlow)"><path d="M 1898.9,1054.6 L 160.2,1054.6 L 160.2,89.4 L 227.8,89.4 L 227.8,1038.3 " fill="none" stroke="url(#strokeB)" stroke-width="1.28" stroke-linecap="round" stroke-linejoin="round"/><circle cx="227.8" cy="89.4" r="3.0" fill="#F97316" opacity="0.45"/><circle cx="160.2" cy="1054.6" r="2.0" fill="#F97316" opacity="0.45"/><circle cx="1898.9" cy="1054.6" r="2.3" fill="#F97316" opacity="0.45"/></g>
<g opacity="0.245" filter="url(#softGlow)"><path d="M 1659.6,45.1 L 165.7,45.1 L 165.7,59.2 L 1854.5,59.2 L 1854.5,916.9 " fill="none" stroke="url(#strokeB)" stroke-width="1.37" stroke-linecap="round" stroke-linejoin="round"/><circle cx="165.7" cy="45.1" r="3.2" fill="#F97316" opacity="0.45"/><circle cx="165.7" cy="59.2" r="2.7" fill="#F97316" opacity="0.45"/><circle cx="1854.5" cy="916.9" r="3.5" fill="#F97316" opacity="0.45"/></g>
<g opacity="0.245" filter="url(#softGlow)"><path d="M 1750.3,911.1 L 1704.3,911.1 L 1704.3,724.6 L 1712.0,724.6 L 1712.0,146.1 " fill="none" stroke="url(#strokeB)" stroke-width="1.70" stroke-linecap="round" stroke-linejoin="round"/><circle cx="1750.3" cy="911.1" r="3.8" fill="#F97316" opacity="0.45"/><circle cx="1704.3" cy="911.1" r="2.5" fill="#F97316" opacity="0.45"/><circle cx="1712.0" cy="724.6" r="3.1" fill="#F97316" opacity="0.45"/></g>
<g opacity="0.245" filter="url(#softGlow)"><path d="M 174.6,887.9 L 1890.2,887.9 L 1890.2,884.1 L 1129.0,884.1 L 1129.0,94.5 " fill="none" stroke="url(#strokeB)" stroke-width="1.72" stroke-linecap="round" stroke-linejoin="round"/><circle cx="1129.0" cy="884.1" r="3.9" fill="#F97316" opacity="0.45"/><circle cx="1890.2" cy="884.1" r="3.2" fill="#F97316" opacity="0.45"/><circle cx="1129.0" cy="94.5" r="3.2" fill="#F97316" opacity="0.45"/></g>
<g opacity="0.245" filter="url(#softGlow)"><path d="M 187.1,1039.0 L 415.4,1039.0 L 415.4,70.6 L 1752.0,70.6 L 1752.0,303.4 " fill="none" stroke="url(#strokeB)" stroke-width="1.30" stroke-linecap="round" stroke-linejoin="round"/><circle cx="187.1" cy="1039.0" r="3.6" fill="#F97316" opacity="0.45"/><circle cx="1752.0" cy="303.4" r="4.0" fill="#F97316" opacity="0.45"/><circle cx="1752.0" cy="70.6" r="2.6" fill="#F97316" opacity="0.45"/></g>
<g opacity="0.245" filter="url(#softGlow)"><path d="M 1762.5,149.5 L 1870.4,149.5 L 1870.4,510.8 L 1857.1,510.8 L 1857.1,67.7 " fill="none" stroke="url(#strokeB)" stroke-width="1.77" stroke-linecap="round" stroke-linejoin="round"/><circle cx="1857.1" cy="510.8" r="4.0" fill="#F97316" opacity="0.45"/><circle cx="1762.5" cy="149.5" r="3.0" fill="#F97316" opacity="0.45"/><circle cx="1857.1" cy="67.7" r="2.3" fill="#F97316" opacity="0.45"/></g>
<g opacity="0.245" filter="url(#softGlow)"><path d="M 43.6,157.1 L 80.9,157.1 L 80.9,76.7 L 1522.7,76.7 L 1522.7,1006.6 " fill="none" stroke="url(#strokeB)" stroke-width="1.39" stroke-linecap="round" stroke-linejoin="round"/><circle cx="1522.7" cy="1006.6" r="2.0" fill="#F97316" opacity="0.45"/><circle cx="80.9" cy="157.1" r="2.2" fill="#F97316" opacity="0.45"/><circle cx="1522.7" cy="76.7" r="2.3" fill="#F97316" opacity="0.45"/></g>
<g opacity="0.245" filter="url(#softGlow)"><path d="M 1871.3,329.1 L 123.9,329.1 L 123.9,1038.3 L 255.1,1038.3 L 255.1,983.9 " fill="none" stroke="url(#strokeB)" stroke-width="1.50" stroke-linecap="round" stroke-linejoin="round"/><circle cx="255.1" cy="1038.3" r="4.1" fill="#F97316" opacity="0.45"/><circle cx="255.1" cy="983.9" r="2.9" fill="#F97316" opacity="0.45"/><circle cx="1871.3" cy="329.1" r="3.4" fill="#F97316" opacity="0.45"/></g>
<g opacity="0.245" filter="url(#softGlow)"><path d="M 168.7,880.6 L 170.4,880.6 L 170.4,1022.0 L 19.8,1022.0 L 19.8,1058.4 " fill="none" stroke="url(#strokeB)" stroke-width="1.14" stroke-linecap="round" stroke-linejoin="round"/><circle cx="170.4" cy="1022.0" r="3.6" fill="#F97316" opacity="0.45"/><circle cx="168.7" cy="880.6" r="2.1" fill="#F97316" opacity="0.45"/><circle cx="19.8" cy="1022.0" r="2.4" fill="#F97316" opacity="0.45"/></g>
<g opacity="0.245" filter="url(#softGlow)"><path d="M 166.8,68.2 L 1774.7,68.2 L 1774.7,142.9 L 62.5,142.9 L 62.5,983.1 " fill="none" stroke="url(#strokeB)" stroke-width="1.68" stroke-linecap="round" stroke-linejoin="round"/><circle cx="1774.7" cy="142.9" r="3.5" fill="#F97316" opacity="0.45"/><circle cx="1774.7" cy="68.2" r="2.4" fill="#F97316" opacity="0.45"/><circle cx="62.5" cy="142.9" r="2.4" fill="#F97316" opacity="0.45"/></g>
<g opacity="0.245" filter="url(#softGlow)"><path d="M 1267.5,57.3 L 1890.3,57.3 L 1890.3,1017.8 L 1892.7,1017.8 L 1892.7,671.7 " fill="none" stroke="url(#strokeB)" stroke-width="1.23" stroke-linecap="round" stroke-linejoin="round"/><circle cx="1267.5" cy="57.3" r="2.9" fill="#F97316" opacity="0.45"/><circle cx="1892.7" cy="671.7" r="2.5" fill="#F97316" opacity="0.45"/><circle cx="1892.7" cy="1017.8" r="2.0" fill="#F97316" opacity="0.45"/></g>
<g opacity="0.245" filter="url(#softGlow)"><path d="M 332.8,119.8 L 124.0,119.8 L 124.0,151.4 L 1795.4,151.4 L 1795.4,105.6 " fill="none" stroke="url(#strokeB)" stroke-width="1.45" stroke-linecap="round" stroke-linejoin="round"/><circle cx="1795.4" cy="151.4" r="2.7" fill="#F97316" opacity="0.45"/><circle cx="124.0" cy="119.8" r="3.2" fill="#F97316" opacity="0.45"/><circle cx="1795.4" cy="105.6" r="3.5" fill="#F97316" opacity="0.45"/></g>
<g opacity="0.245" filter="url(#softGlow)"><path d="M 1653.0,1021.0 L 1886.9,1021.0 L 1886.9,1043.4 L 44.6,1043.4 L 44.6,8.1 " fill="none" stroke="url(#strokeB)" stroke-width="2.20" stroke-linecap="round" stroke-linejoin="round"/><circle cx="1886.9" cy="1021.0" r="3.2" fill="#F97316" opacity="0.45"/><circle cx="44.6" cy="8.1" r="2.4" fill="#F97316" opacity="0.45"/><circle cx="44.6" cy="1043.4" r="3.1" fill="#F97316" opacity="0.45"/></g>
<g opacity="0.245" filter="url(#softGlow)"><path d="M 1850.7,5.1 L 40.9,5.1 L 40.9,169.5 L 1010.4,169.5 L 1010.4,127.4 " fill="none" stroke="url(#strokeB)" stroke-width="2.13" stroke-linecap="round" stroke-linejoin="round"/><circle cx="1010.4" cy="127.4" r="3.9" fill="#F97316" opacity="0.45"/><circle cx="40.9" cy="169.5" r="2.9" fill="#F97316" opacity="0.45"/><circle cx="40.9" cy="5.1" r="2.5" fill="#F97316" opacity="0.45"/></g>
<g opacity="0.245" filter="url(#softGlow)"><path d="M 118.2,1025.9 L 1718.1,1025.9 L 1718.1,27.1 L 65.6,27.1 L 65.6,62.1 " fill="none" stroke="url(#strokeB)" stroke-width="1.78" stroke-linecap="round" stroke-linejoin="round"/><circle cx="65.6" cy="27.1" r="2.1" fill="#F97316" opacity="0.45"/><circle cx="1718.1" cy="1025.9" r="2.6" fill="#F97316" opacity="0.45"/><circle cx="1718.1" cy="27.1" r="3.0" fill="#F97316" opacity="0.45"/></g>

<g opacity="0.906" filter="url(#hardGlow)">
  <circle cx="1901.0" cy="39.5" r="52.7" fill="#0A1224" opacity="0.65"/>
  <circle cx="1901.0" cy="39.5" r="52.7" fill="none" stroke="url(#strokeA)" stroke-width="4.2" opacity="0.85"/>
  <circle cx="1901.0" cy="39.5" r="45.3" fill="none" stroke="#A3E635" stroke-width="1.6" opacity="0.35"/>
  <polygon points="1892.2,2.6 1928.6,13.5 1937.3,50.4 1909.7,76.4 1873.3,65.5 1864.6,28.6" fill="none" stroke="url(#strokeB)" stroke-width="1.3" opacity="0.65"/>
  <polygon points="1902.5,26.3 1911.6,47.5 1888.8,44.8" fill="#A3E635" opacity="0.22" filter="url(#softGlow)"/>
</g>


<g opacity="0.404" filter="url(#hardGlow)">
  <circle cx="1859.2" cy="29.6" r="23.2" fill="#0A1224" opacity="0.65"/>
  <circle cx="1859.2" cy="29.6" r="23.2" fill="none" stroke="url(#strokeA)" stroke-width="2.0" opacity="0.85"/>
  <circle cx="1859.2" cy="29.6" r="20.0" fill="none" stroke="#F97316" stroke-width="1.5" opacity="0.35"/>
  <polygon points="1849.6,16.0 1866.2,14.5 1875.9,28.1 1868.9,43.3 1852.3,44.8 1842.6,31.2" fill="none" stroke="url(#strokeB)" stroke-width="1.2" opacity="0.65"/>
  <polygon points="1857.7,24.0 1864.9,31.1 1855.1,33.8" fill="#F97316" opacity="0.22" filter="url(#softGlow)"/>
</g>


<g opacity="0.523" filter="url(#hardGlow)">
  <circle cx="1868.8" cy="62.9" r="27.9" fill="#0A1224" opacity="0.65"/>
  <circle cx="1868.8" cy="62.9" r="27.9" fill="none" stroke="url(#strokeA)" stroke-width="2.2" opacity="0.85"/>
  <circle cx="1868.8" cy="62.9" r="24.0" fill="none" stroke="#F97316" stroke-width="1.5" opacity="0.35"/>
  <polygon points="1868.3,42.8 1886.0,52.4 1886.4,72.5 1869.3,83.0 1851.6,73.3 1851.2,53.2" fill="none" stroke="url(#strokeB)" stroke-width="1.2" opacity="0.65"/>
  <polygon points="1871.1,56.2 1873.4,68.2 1861.9,64.3" fill="#F97316" opacity="0.22" filter="url(#softGlow)"/>
</g>


<g opacity="0.631" filter="url(#hardGlow)">
  <circle cx="1832.0" cy="82.4" r="21.2" fill="#0A1224" opacity="0.65"/>
  <circle cx="1832.0" cy="82.4" r="21.2" fill="none" stroke="url(#strokeA)" stroke-width="2.0" opacity="0.85"/>
  <circle cx="1832.0" cy="82.4" r="18.2" fill="none" stroke="#F97316" stroke-width="1.5" opacity="0.35"/>
  <polygon points="1845.8,89.0 1833.1,97.6 1819.4,91.0 1818.3,75.7 1830.9,67.2 1844.6,73.8" fill="none" stroke="url(#strokeB)" stroke-width="1.2" opacity="0.65"/>
  <polygon points="1835.7,86.2 1826.8,83.7 1833.5,77.3" fill="#F97316" opacity="0.22" filter="url(#softGlow)"/>
</g>


<g opacity="0.871" filter="url(#hardGlow)">
  <circle cx="1845.2" cy="716.7" r="61.6" fill="#0A1224" opacity="0.65"/>
  <circle cx="1845.2" cy="716.7" r="61.6" fill="none" stroke="url(#strokeA)" stroke-width="4.9" opacity="0.85"/>
  <circle cx="1845.2" cy="716.7" r="53.0" fill="none" stroke="#A3E635" stroke-width="1.8" opacity="0.35"/>
  <polygon points="1889.2,722.4 1862.3,757.7 1818.3,752.0 1801.2,711.1 1828.1,675.8 1872.1,681.4" fill="none" stroke="url(#strokeB)" stroke-width="1.5" opacity="0.65"/>
  <polygon points="1859.0,723.8 1832.1,725.1 1844.5,701.2" fill="#A3E635" opacity="0.22" filter="url(#softGlow)"/>
</g>


<g opacity="0.533" filter="url(#hardGlow)">
  <circle cx="1839.1" cy="664.2" r="31.9" fill="#0A1224" opacity="0.65"/>
  <circle cx="1839.1" cy="664.2" r="31.9" fill="none" stroke="url(#strokeA)" stroke-width="2.6" opacity="0.85"/>
  <circle cx="1839.1" cy="664.2" r="27.4" fill="none" stroke="#F97316" stroke-width="1.5" opacity="0.35"/>
  <polygon points="1821.9,648.9 1843.7,641.7 1860.9,656.9 1856.2,679.4 1834.4,686.7 1817.3,671.4" fill="none" stroke="url(#strokeB)" stroke-width="1.2" opacity="0.65"/>
  
</g>


<g opacity="0.454" filter="url(#hardGlow)">
  <circle cx="1932.6" cy="742.2" r="28.6" fill="#0A1224" opacity="0.65"/>
  <circle cx="1932.6" cy="742.2" r="28.6" fill="none" stroke="url(#strokeA)" stroke-width="2.3" opacity="0.85"/>
  <circle cx="1932.6" cy="742.2" r="24.6" fill="none" stroke="#F97316" stroke-width="1.5" opacity="0.35"/>
  <polygon points="1951.2,733.3 1949.7,753.9 1931.0,762.8 1914.0,751.1 1915.6,730.6 1934.2,721.7" fill="none" stroke="url(#strokeB)" stroke-width="1.2" opacity="0.65"/>
  
</g>


<g opacity="0.688" filter="url(#hardGlow)">
  <circle cx="95.3" cy="1066.8" r="40.1" fill="#0A1224" opacity="0.65"/>
  <circle cx="95.3" cy="1066.8" r="40.1" fill="none" stroke="url(#strokeA)" stroke-width="3.2" opacity="0.85"/>
  <circle cx="95.3" cy="1066.8" r="34.5" fill="none" stroke="#A3E635" stroke-width="1.5" opacity="0.35"/>
  <polygon points="92.9,1038.0 119.1,1050.4 121.4,1079.2 97.7,1095.7 71.5,1083.3 69.2,1054.5" fill="none" stroke="url(#strokeB)" stroke-width="1.2" opacity="0.65"/>
  <polygon points="98.0,1057.1 102.4,1074.0 85.5,1069.4" fill="#A3E635" opacity="0.22" filter="url(#softGlow)"/>
</g>


<g opacity="0.586" filter="url(#hardGlow)">
  <circle cx="46.7" cy="1027.9" r="20.7" fill="#0A1224" opacity="0.65"/>
  <circle cx="46.7" cy="1027.9" r="20.7" fill="none" stroke="url(#strokeA)" stroke-width="2.0" opacity="0.85"/>
  <circle cx="46.7" cy="1027.9" r="17.8" fill="none" stroke="#F97316" stroke-width="1.5" opacity="0.35"/>
  <polygon points="53.9,1015.0 61.6,1027.8 54.3,1040.8 39.4,1040.9 31.8,1028.1 39.1,1015.1" fill="none" stroke="url(#strokeB)" stroke-width="1.2" opacity="0.65"/>
  
</g>


<g opacity="0.623" filter="url(#hardGlow)">
  <circle cx="39.4" cy="1047.3" r="18.4" fill="#0A1224" opacity="0.65"/>
  <circle cx="39.4" cy="1047.3" r="18.4" fill="none" stroke="url(#strokeA)" stroke-width="2.0" opacity="0.85"/>
  <circle cx="39.4" cy="1047.3" r="15.8" fill="none" stroke="#F97316" stroke-width="1.5" opacity="0.35"/>
  <polygon points="51.9,1051.7 41.8,1060.3 29.3,1055.9 26.9,1042.8 37.0,1034.2 49.5,1038.7" fill="none" stroke="url(#strokeB)" stroke-width="1.2" opacity="0.65"/>
  <polygon points="42.9,1050.2 35.0,1048.9 40.1,1042.7" fill="#F97316" opacity="0.22" filter="url(#softGlow)"/>
</g>


<g opacity="0.437" filter="url(#hardGlow)">
  <circle cx="61.7" cy="1080.2" r="15.5" fill="#0A1224" opacity="0.65"/>
  <circle cx="61.7" cy="1080.2" r="15.5" fill="none" stroke="url(#strokeA)" stroke-width="2.0" opacity="0.85"/>
  <circle cx="61.7" cy="1080.2" r="13.3" fill="none" stroke="#F97316" stroke-width="1.5" opacity="0.35"/>
  <polygon points="56.2,1089.8 50.5,1080.3 56.0,1070.6 67.1,1070.5 72.8,1080.1 67.3,1089.8" fill="none" stroke="url(#strokeB)" stroke-width="1.2" opacity="0.65"/>
  <polygon points="58.7,1082.7 60.9,1076.3 65.3,1081.5" fill="#F97316" opacity="0.22" filter="url(#softGlow)"/>
</g>


<g opacity="0.676" filter="url(#hardGlow)">
  <circle cx="425.6" cy="33.2" r="53.6" fill="#0A1224" opacity="0.65"/>
  <circle cx="425.6" cy="33.2" r="53.6" fill="none" stroke="url(#strokeA)" stroke-width="4.3" opacity="0.85"/>
  <circle cx="425.6" cy="33.2" r="46.1" fill="none" stroke="#A3E635" stroke-width="1.6" opacity="0.35"/>
  <polygon points="444.3,-0.5 464.1,32.6 445.4,66.3 406.8,66.9 387.0,33.9 405.8,0.2" fill="none" stroke="url(#strokeB)" stroke-width="1.3" opacity="0.65"/>
  <polygon points="435.8,24.4 428.1,46.5 412.8,28.8" fill="#A3E635" opacity="0.22" filter="url(#softGlow)"/>
</g>


<g opacity="0.401" filter="url(#hardGlow)">
  <circle cx="413.2" cy="92.1" r="24.4" fill="#0A1224" opacity="0.65"/>
  <circle cx="413.2" cy="92.1" r="24.4" fill="none" stroke="url(#strokeA)" stroke-width="2.0" opacity="0.85"/>
  <circle cx="413.2" cy="92.1" r="21.0" fill="none" stroke="#F97316" stroke-width="1.5" opacity="0.35"/>
  <polygon points="395.7,91.0 405.4,76.4 422.9,77.5 430.7,93.2 421.0,107.8 403.5,106.7" fill="none" stroke="url(#strokeB)" stroke-width="1.2" opacity="0.65"/>
  
</g>


<g opacity="0.433" filter="url(#hardGlow)">
  <circle cx="432.8" cy="-15.5" r="27.9" fill="#0A1224" opacity="0.65"/>
  <circle cx="432.8" cy="-15.5" r="27.9" fill="none" stroke="url(#strokeA)" stroke-width="2.2" opacity="0.85"/>
  <circle cx="432.8" cy="-15.5" r="24.0" fill="none" stroke="#F97316" stroke-width="1.5" opacity="0.35"/>
  <polygon points="412.7,-13.9 421.4,-32.0 441.4,-33.6 452.8,-17.0 444.1,1.1 424.1,2.7" fill="none" stroke="url(#strokeB)" stroke-width="1.2" opacity="0.65"/>
  
</g>


<g opacity="0.874" filter="url(#hardGlow)">
  <circle cx="132.6" cy="113.9" r="59.4" fill="#0A1224" opacity="0.65"/>
  <circle cx="132.6" cy="113.9" r="59.4" fill="none" stroke="url(#strokeA)" stroke-width="4.8" opacity="0.85"/>
  <circle cx="132.6" cy="113.9" r="51.1" fill="none" stroke="#A3E635" stroke-width="1.8" opacity="0.35"/>
  <polygon points="118.0,154.1 90.5,121.3 105.2,81.1 147.3,73.7 174.8,106.5 160.1,146.7" fill="none" stroke="url(#strokeB)" stroke-width="1.5" opacity="0.65"/>
  <polygon points="123.0,125.3 127.5,99.8 147.4,116.5" fill="#A3E635" opacity="0.22" filter="url(#softGlow)"/>
</g>


<g opacity="0.597" filter="url(#hardGlow)">
  <circle cx="85.4" cy="148.1" r="31.7" fill="#0A1224" opacity="0.65"/>
  <circle cx="85.4" cy="148.1" r="31.7" fill="none" stroke="url(#strokeA)" stroke-width="2.5" opacity="0.85"/>
  <circle cx="85.4" cy="148.1" r="27.2" fill="none" stroke="#F97316" stroke-width="1.5" opacity="0.35"/>
  <polygon points="106.6,139.6 103.3,162.2 82.1,170.6 64.2,156.5 67.5,133.9 88.7,125.5" fill="none" stroke="url(#strokeB)" stroke-width="1.2" opacity="0.65"/>
  
</g>


<g opacity="0.838" filter="url(#hardGlow)">
  <circle cx="1345.4" cy="985.9" r="45.3" fill="#0A1224" opacity="0.65"/>
  <circle cx="1345.4" cy="985.9" r="45.3" fill="none" stroke="url(#strokeA)" stroke-width="3.6" opacity="0.85"/>
  <circle cx="1345.4" cy="985.9" r="39.0" fill="none" stroke="#A3E635" stroke-width="1.5" opacity="0.35"/>
  <polygon points="1369.1,1008.4 1337.8,1017.6 1314.2,995.2 1321.8,963.5 1353.1,954.2 1376.7,976.7" fill="none" stroke="url(#strokeB)" stroke-width="1.2" opacity="0.65"/>
  <polygon points="1350.5,996.2 1334.0,985.2 1351.7,976.4" fill="#A3E635" opacity="0.22" filter="url(#softGlow)"/>
</g>


<g opacity="0.385" filter="url(#hardGlow)">
  <circle cx="1288.6" cy="1036.2" r="20.9" fill="#0A1224" opacity="0.65"/>
  <circle cx="1288.6" cy="1036.2" r="20.9" fill="none" stroke="url(#strokeA)" stroke-width="2.0" opacity="0.85"/>
  <circle cx="1288.6" cy="1036.2" r="18.0" fill="none" stroke="#F97316" stroke-width="1.5" opacity="0.35"/>
  <polygon points="1302.4,1030.3 1300.6,1045.2 1286.7,1051.2 1274.7,1042.1 1276.5,1027.1 1290.4,1021.2" fill="none" stroke="url(#strokeB)" stroke-width="1.2" opacity="0.65"/>
  
</g>


<g opacity="0.502" filter="url(#hardGlow)">
  <circle cx="1381.4" cy="1033.9" r="18.8" fill="#0A1224" opacity="0.65"/>
  <circle cx="1381.4" cy="1033.9" r="18.8" fill="none" stroke="url(#strokeA)" stroke-width="2.0" opacity="0.85"/>
  <circle cx="1381.4" cy="1033.9" r="16.2" fill="none" stroke="#F97316" stroke-width="1.5" opacity="0.35"/>
  <polygon points="1386.2,1021.2 1394.7,1031.7 1389.9,1044.4 1376.6,1046.6 1368.0,1036.1 1372.8,1023.4" fill="none" stroke="url(#strokeB)" stroke-width="1.2" opacity="0.65"/>
  
</g>


<g opacity="0.305" transform="translate(49.2,997.1) rotate(-6.9)" filter="url(#softGlow)">
  <rect x="-81.2" y="-57.3" width="162.4" height="114.7" rx="11.5" fill="#050A12" opacity="0.25"/>
  <rect x="-81.2" y="-57.3" width="162.4" height="114.7" rx="11.5" fill="none" stroke="url(#strokeA)" stroke-width="5.7" opacity="0.85"/>
  <rect x="-72.0" y="-48.2" width="144.1" height="96.3" rx="8.0" fill="none" stroke="#F97316" stroke-width="2.3" opacity="0.35"/>
</g>


<g opacity="0.407" transform="translate(91.4,963.6) rotate(-6.3)" filter="url(#softGlow)">
  <rect x="-114.3" y="-100.4" width="228.6" height="200.9" rx="20.1" fill="#050A12" opacity="0.25"/>
  <rect x="-114.3" y="-100.4" width="228.6" height="200.9" rx="20.1" fill="none" stroke="url(#strokeA)" stroke-width="10.0" opacity="0.85"/>
  <rect x="-98.2" y="-84.4" width="196.4" height="168.8" rx="14.1" fill="none" stroke="#A3E635" stroke-width="4.0" opacity="0.35"/>
</g>


<g opacity="0.333" transform="translate(1867.6,888.3) rotate(4.8)" filter="url(#softGlow)">
  <rect x="-115.0" y="-106.7" width="230.0" height="213.5" rx="21.3" fill="#050A12" opacity="0.25"/>
  <rect x="-115.0" y="-106.7" width="230.0" height="213.5" rx="21.3" fill="none" stroke="url(#strokeA)" stroke-width="10.7" opacity="0.85"/>
  <rect x="-97.9" y="-89.7" width="195.9" height="179.3" rx="14.9" fill="none" stroke="#A3E635" stroke-width="4.3" opacity="0.35"/>
</g>


<g opacity="0.366" transform="translate(163.8,13.8) rotate(6.9)" filter="url(#softGlow)">
  <rect x="-76.6" y="-59.1" width="153.2" height="118.1" rx="11.8" fill="#050A12" opacity="0.25"/>
  <rect x="-76.6" y="-59.1" width="153.2" height="118.1" rx="11.8" fill="none" stroke="url(#strokeA)" stroke-width="5.9" opacity="0.85"/>
  <rect x="-67.1" y="-49.6" width="134.3" height="99.2" rx="8.3" fill="none" stroke="#F97316" stroke-width="2.4" opacity="0.35"/>
</g>


<g opacity="0.355" transform="translate(73.2,354.2) rotate(-8.1)" filter="url(#softGlow)">
  <rect x="-103.9" y="-90.1" width="207.7" height="180.2" rx="18.0" fill="#050A12" opacity="0.25"/>
  <rect x="-103.9" y="-90.1" width="207.7" height="180.2" rx="18.0" fill="none" stroke="url(#strokeA)" stroke-width="9.0" opacity="0.85"/>
  <rect x="-89.5" y="-75.7" width="178.9" height="151.4" rx="12.6" fill="none" stroke="#F97316" stroke-width="3.6" opacity="0.35"/>
</g>


<g opacity="0.336" transform="translate(1732.4,1051.1) rotate(-12.8)" filter="url(#softGlow)">
  <rect x="-57.7" y="-33.2" width="115.4" height="66.5" rx="20.3" fill="none" stroke="#F97316" stroke-width="11.1" opacity="0.55"/>
  <rect x="-25.4" y="-16.6" width="115.4" height="66.5" rx="20.3" fill="none" stroke="url(#strokeA)" stroke-width="9.2" opacity="0.55"/>
</g>


<g opacity="0.356" transform="translate(1768.4,137.7) rotate(3.1)" filter="url(#softGlow)">
  <rect x="-37.5" y="-21.6" width="75.0" height="43.2" rx="13.2" fill="none" stroke="#F97316" stroke-width="7.2" opacity="0.55"/>
  <rect x="-16.5" y="-10.8" width="75.0" height="43.2" rx="13.2" fill="none" stroke="url(#strokeA)" stroke-width="6.0" opacity="0.55"/>
</g>


<g opacity="0.408" transform="translate(134.1,1075.4) rotate(-12.3)" filter="url(#softGlow)">
  <rect x="-45.2" y="-26.0" width="90.4" height="52.1" rx="15.9" fill="none" stroke="#F97316" stroke-width="8.7" opacity="0.55"/>
  <rect x="-19.9" y="-13.0" width="90.4" height="52.1" rx="15.9" fill="none" stroke="url(#strokeA)" stroke-width="7.2" opacity="0.55"/>
</g>


<g opacity="0.437" transform="translate(1796.3,53.7) rotate(-4.1)" filter="url(#softGlow)">
  <rect x="-44.5" y="-25.6" width="88.9" height="51.2" rx="15.7" fill="none" stroke="#F97316" stroke-width="8.5" opacity="0.55"/>
  <rect x="-19.6" y="-12.8" width="88.9" height="51.2" rx="15.7" fill="none" stroke="url(#strokeA)" stroke-width="7.1" opacity="0.55"/>
</g>


<g opacity="0.443" transform="translate(840.7,109.0) rotate(-17.6)" filter="url(#softGlow)">
  <rect x="-49.1" y="-28.3" width="98.2" height="56.6" rx="17.3" fill="none" stroke="#A3E635" stroke-width="9.4" opacity="0.55"/>
  <rect x="-21.6" y="-14.1" width="98.2" height="56.6" rx="17.3" fill="none" stroke="url(#strokeA)" stroke-width="7.9" opacity="0.55"/>
</g>


<g opacity="0.292" transform="translate(1854.6,870.6) rotate(-16.6)" filter="url(#softGlow)">
  <rect x="-38.2" y="-22.0" width="76.4" height="44.0" rx="13.4" fill="none" stroke="#A3E635" stroke-width="7.3" opacity="0.55"/>
  <rect x="-16.8" y="-11.0" width="76.4" height="44.0" rx="13.4" fill="none" stroke="url(#strokeA)" stroke-width="6.1" opacity="0.55"/>
</g>


<g opacity="0.371" transform="translate(1730.0,604.2) rotate(17.7)" filter="url(#softGlow)">
  <rect x="-42.3" y="-24.4" width="84.6" height="48.7" rx="14.9" fill="none" stroke="#A3E635" stroke-width="8.1" opacity="0.55"/>
  <rect x="-18.6" y="-12.2" width="84.6" height="48.7" rx="14.9" fill="none" stroke="url(#strokeA)" stroke-width="6.8" opacity="0.55"/>
</g>


<g opacity="0.345" transform="translate(1919.4,989.7) rotate(0.1)" filter="url(#softGlow)">
  <rect x="-38.8" y="-22.3" width="77.6" height="44.7" rx="13.7" fill="none" stroke="#A3E635" stroke-width="7.4" opacity="0.55"/>
  <rect x="-17.1" y="-11.2" width="77.6" height="44.7" rx="13.7" fill="none" stroke="url(#strokeA)" stroke-width="6.2" opacity="0.55"/>
</g>


<g opacity="0.375" transform="translate(75.6,675.0) rotate(10.7)" filter="url(#softGlow)">
  <rect x="-38.6" y="-22.3" width="77.3" height="44.5" rx="13.6" fill="none" stroke="#A3E635" stroke-width="7.4" opacity="0.55"/>
  <rect x="-17.0" y="-11.1" width="77.3" height="44.5" rx="13.6" fill="none" stroke="url(#strokeA)" stroke-width="6.2" opacity="0.55"/>
</g>


<g opacity="0.199">
  <line x1="599.8" y1="923.0" x2="599.8" y2="986.0" stroke="#F97316" stroke-width="1.22" opacity="0.45"/>
  <rect x="593.9" y="958.6" width="11.7" height="29.6" rx="3.9" fill="#0B1020" opacity="0.55" stroke="url(#strokeA)" stroke-width="1.2"/>
</g>

<g opacity="0.199">
  <line x1="99.1" y1="911.9" x2="99.1" y2="988.8" stroke="#F97316" stroke-width="2.14" opacity="0.45"/>
  <rect x="95.0" y="953.4" width="8.2" height="40.0" rx="2.7" fill="#0B1020" opacity="0.55" stroke="url(#strokeA)" stroke-width="1.2"/>
</g>

<g opacity="0.199">
  <line x1="84.5" y1="913.6" x2="84.5" y2="988.3" stroke="#F97316" stroke-width="1.26" opacity="0.45"/>
  <rect x="81.1" y="962.4" width="6.8" height="22.0" rx="2.3" fill="#0B1020" opacity="0.55" stroke="url(#strokeA)" stroke-width="1.2"/>
</g>

<g opacity="0.199">
  <line x1="911.4" y1="922.9" x2="911.4" y2="986.0" stroke="#F97316" stroke-width="1.87" opacity="0.45"/>
  <rect x="907.0" y="963.7" width="8.9" height="19.5" rx="3.0" fill="#0B1020" opacity="0.55" stroke="url(#strokeA)" stroke-width="1.2"/>
</g>

<g opacity="0.199">
  <line x1="496.7" y1="934.5" x2="496.7" y2="983.1" stroke="#F97316" stroke-width="1.66" opacity="0.45"/>
  <rect x="493.3" y="960.3" width="6.9" height="26.1" rx="2.3" fill="#0B1020" opacity="0.55" stroke="url(#strokeA)" stroke-width="1.2"/>
</g>

<g opacity="0.199">
  <line x1="1835.9" y1="906.3" x2="1835.9" y2="990.2" stroke="#F97316" stroke-width="1.12" opacity="0.45"/>
  <rect x="1830.2" y="957.0" width="11.5" height="32.8" rx="3.8" fill="#0B1020" opacity="0.55" stroke="url(#strokeA)" stroke-width="1.2"/>
</g>

<g opacity="0.199">
  <line x1="100.5" y1="908.4" x2="100.5" y2="989.6" stroke="#F97316" stroke-width="1.71" opacity="0.45"/>
  <rect x="96.4" y="946.2" width="8.3" height="54.4" rx="2.8" fill="#0B1020" opacity="0.55" stroke="url(#strokeA)" stroke-width="1.2"/>
</g>

<g opacity="0.199">
  <line x1="1121.9" y1="911.6" x2="1121.9" y2="988.8" stroke="#F97316" stroke-width="1.51" opacity="0.45"/>
  <rect x="1116.0" y="949.3" width="11.8" height="48.1" rx="3.9" fill="#0B1020" opacity="0.55" stroke="url(#strokeA)" stroke-width="1.2"/>
</g>

<g opacity="0.199">
  <line x1="940.3" y1="897.9" x2="940.3" y2="992.3" stroke="#F97316" stroke-width="2.02" opacity="0.45"/>
  <rect x="937.2" y="943.9" width="6.2" height="59.0" rx="2.1" fill="#0B1020" opacity="0.55" stroke="url(#strokeA)" stroke-width="1.2"/>
</g>

<g opacity="0.199">
  <line x1="1714.1" y1="908.8" x2="1714.1" y2="989.5" stroke="#F97316" stroke-width="2.13" opacity="0.45"/>
  <rect x="1710.0" y="953.9" width="8.2" height="39.1" rx="2.7" fill="#0B1020" opacity="0.55" stroke="url(#strokeA)" stroke-width="1.2"/>
</g>

<g opacity="0.199">
  <line x1="309.2" y1="905.6" x2="309.2" y2="990.3" stroke="#F97316" stroke-width="1.74" opacity="0.45"/>
  <rect x="305.3" y="950.3" width="7.7" height="46.2" rx="2.6" fill="#0B1020" opacity="0.55" stroke="url(#strokeA)" stroke-width="1.2"/>
</g>

<g opacity="0.199">
  <line x1="557.4" y1="919.1" x2="557.4" y2="987.0" stroke="#F97316" stroke-width="1.24" opacity="0.45"/>
  <rect x="553.9" y="959.8" width="7.0" height="27.1" rx="2.3" fill="#0B1020" opacity="0.55" stroke="url(#strokeA)" stroke-width="1.2"/>
</g>

<g opacity="0.199">
  <line x1="494.1" y1="892.1" x2="494.1" y2="993.7" stroke="#F97316" stroke-width="1.26" opacity="0.45"/>
  <rect x="489.3" y="944.9" width="9.7" height="56.9" rx="3.2" fill="#0B1020" opacity="0.55" stroke="url(#strokeA)" stroke-width="1.2"/>
</g>

<g opacity="0.199">
  <line x1="155.9" y1="879.8" x2="155.9" y2="996.8" stroke="#F97316" stroke-width="2.15" opacity="0.45"/>
  <rect x="150.3" y="945.7" width="11.1" height="55.4" rx="3.7" fill="#0B1020" opacity="0.55" stroke="url(#strokeA)" stroke-width="1.2"/>
</g>

<g opacity="0.199">
  <line x1="1875.0" y1="926.1" x2="1875.0" y2="985.2" stroke="#F97316" stroke-width="1.33" opacity="0.45"/>
  <rect x="1871.2" y="963.4" width="7.7" height="20.0" rx="2.6" fill="#0B1020" opacity="0.55" stroke="url(#strokeA)" stroke-width="1.2"/>
</g>

<g opacity="0.199">
  <line x1="270.9" y1="879.5" x2="270.9" y2="996.9" stroke="#F97316" stroke-width="2.09" opacity="0.45"/>
  <rect x="265.3" y="946.3" width="11.2" height="54.2" rx="3.7" fill="#0B1020" opacity="0.55" stroke="url(#strokeA)" stroke-width="1.2"/>
</g>

<g opacity="0.199">
  <line x1="877.5" y1="894.5" x2="877.5" y2="993.1" stroke="#F97316" stroke-width="2.12" opacity="0.45"/>
  <rect x="872.8" y="946.2" width="9.4" height="54.5" rx="3.1" fill="#0B1020" opacity="0.55" stroke="url(#strokeA)" stroke-width="1.2"/>
</g>

<g opacity="0.199">
  <line x1="40.4" y1="923.6" x2="40.4" y2="985.8" stroke="#F97316" stroke-width="1.12" opacity="0.45"/>
  <rect x="37.2" y="963.1" width="6.4" height="20.6" rx="2.1" fill="#0B1020" opacity="0.55" stroke="url(#strokeA)" stroke-width="1.2"/>
</g>
<circle cx="37.6" cy="189.5" r="3.1" fill="#A3E635" opacity="0.14" filter="url(#softGlow)"/>
<circle cx="62.1" cy="1073.9" r="1.3" fill="#A3E635" opacity="0.22" filter="url(#softGlow)"/>
<circle cx="1754.2" cy="9.6" r="2.0" fill="#A3E635" opacity="0.23" filter="url(#softGlow)"/>
<circle cx="1731.1" cy="121.0" r="2.5" fill="#A3E635" opacity="0.23" filter="url(#softGlow)"/>
<circle cx="1907.1" cy="656.1" r="1.6" fill="#A3E635" opacity="0.14" filter="url(#softGlow)"/>
<circle cx="190.6" cy="978.4" r="1.9" fill="#A3E635" opacity="0.17" filter="url(#softGlow)"/>
<circle cx="1800.9" cy="989.1" r="2.5" fill="#A3E635" opacity="0.12" filter="url(#softGlow)"/>
<circle cx="1810.3" cy="19.2" r="1.4" fill="#A3E635" opacity="0.12" filter="url(#softGlow)"/>
<circle cx="1862.1" cy="19.6" r="2.9" fill="#A3E635" opacity="0.20" filter="url(#softGlow)"/>
<circle cx="1746.9" cy="994.0" r="2.0" fill="#A3E635" opacity="0.23" filter="url(#softGlow)"/>
<circle cx="1659.4" cy="123.1" r="1.6" fill="#A3E635" opacity="0.24" filter="url(#softGlow)"/>
<circle cx="1901.6" cy="147.3" r="2.8" fill="#A3E635" opacity="0.15" filter="url(#softGlow)"/>
<circle cx="39.0" cy="952.7" r="2.3" fill="#A3E635" opacity="0.21" filter="url(#softGlow)"/>
<circle cx="208.3" cy="200.4" r="2.3" fill="#A3E635" opacity="0.14" filter="url(#softGlow)"/>
<circle cx="98.9" cy="407.3" r="3.0" fill="#A3E635" opacity="0.14" filter="url(#softGlow)"/>
<circle cx="1912.8" cy="212.3" r="1.4" fill="#A3E635" opacity="0.11" filter="url(#softGlow)"/>
<circle cx="1657.1" cy="187.8" r="1.3" fill="#A3E635" opacity="0.19" filter="url(#softGlow)"/>
<circle cx="764.8" cy="78.1" r="2.8" fill="#A3E635" opacity="0.27" filter="url(#softGlow)"/>
<circle cx="1872.9" cy="6.2" r="2.1" fill="#A3E635" opacity="0.12" filter="url(#softGlow)"/>
<circle cx="1714.4" cy="935.7" r="2.2" fill="#A3E635" opacity="0.25" filter="url(#softGlow)"/>
<circle cx="36.9" cy="74.3" r="2.5" fill="#A3E635" opacity="0.26" filter="url(#softGlow)"/>
<circle cx="469.0" cy="1036.1" r="2.5" fill="#A3E635" opacity="0.18" filter="url(#softGlow)"/>
<circle cx="1803.4" cy="978.7" r="1.5" fill="#A3E635" opacity="0.26" filter="url(#softGlow)"/>
<circle cx="1830.4" cy="1064.3" r="1.9" fill="#A3E635" opacity="0.12" filter="url(#softGlow)"/>
<circle cx="85.2" cy="806.4" r="2.7" fill="#A3E635" opacity="0.16" filter="url(#softGlow)"/>
<circle cx="214.2" cy="199.9" r="2.3" fill="#A3E635" opacity="0.21" filter="url(#softGlow)"/>
</svg>