<svg xmlns="http://www.w3.org/2000/svg" width="1920" height="1080" viewBox="0 0 1920 1080" preserveAspectRatio="xMidYMid slice">
<defs>
  <linearGradient id="g0" x1="0" y1="0" x2="1" y2="1">
    <stop offset="0" stop-color="#0B1020"/>
    <stop offset="0.55" stop-color="#E11D48" stop-opacity="0.9"/>
    <stop offset="1" stop-color="#020617"/>
  </linearGradient>
  <radialGradient id="g1" cx="20%" cy="15%" r="70%">
    <stop offset="0" stop-color="#7C3AED" stop-opacity="0.38"/>
    <stop offset="0.6" stop-color="#7C3AED" stop-opacity="0.08"/>
    <stop offset="1" stop-color="#7C3AED" stop-opacity="0"/>
  </radialGradient>
  <radialGradient id="g2" cx="85%" cy="80%" r="75%">
    <stop offset="0" stop-color="#7C3AED" stop-opacity="0.28"/>
    <stop offset="0.65" stop-color="#7C3AED" stop-opacity="0.06"/>
    <stop offset="1" stop-color="#7C3AED" stop-opacity="0"/>
  </radialGradient>
  <filter id="softGlow" x="-30%" y="-30%" width="160%" height="160%">
    <feGaussianBlur stdDeviation="12" result="b"/>
    <feMerge>
      <feMergeNode in="b"/>
      <feMergeNode in="SourceGraphic"/>
    </feMerge>
  </filter>
  <filter id="hardGlow" x="-40%" y="-40%" width="180%" height="180%">
    <feGaussianBlur stdDeviation="6" result="b"/>
    <feColorMatrix in="b" type="matrix" values="1 0 0 0 0  0 1 0 0 0  0 0 1 0 0  0 0 0 18 -7" result="c"/>
    <feMerge>
      <feMergeNode in="c"/>
      <feMergeNode in="SourceGraphic"/>
    </feMerge>
  </filter>
  <linearGradient id="strokeA" x1="0" y1="0" x2="1" y2="0">
    <stop offset="0" stop-color="#7C3AED" stop-opacity="0.9"/>
    <stop offset="0.5" stop-color="#FFFFFF" stop-opacity="0.25"/>
    <stop offset="1" stop-color="#7C3AED" stop-opacity="0.7"/>
  </linearGradient>
  <linearGradient id="strokeB" x1="0" y1="0" x2="0" y2="1">
    <stop offset="0" stop-color="#FFFFFF" stop-opacity="0.18"/>
    <stop offset="1" stop-color="#7C3AED" stop-opacity="0.55"/>
  </linearGradient>
</defs>
<rect x="0" y="0" width="1920" height="1080" fill="url(#g0)"/>
<rect x="0" y="0" width="1920" height="1080" fill="url(#g1)"/>
<rect x="0" y="0" width="1920" height="1080" fill="url(#g2)"/>


<defs>
  <radialGradient id="vign" cx="0.5000" cy="0.5093" r="0.85">
    <stop offset="0" stop-color="#000000" stop-opacity="0"/>
    <stop offset="0.55" stop-color="#000000" stop-opacity="0.217"/>
    <stop offset="1" stop-color="#000000" stop-opacity="0.620"/>
  </radialGradient>
</defs>
<rect x="0" y="0" width="1920" height="1080" fill="url(#vign)"/>

<g opacity="0.213" filter="url(#softGlow)"><path d="M 1825.8,760.5 L 435.6,760.5 L 435.6,1015.2 L 42.8,1015.2 L 42.8,1049.2 " fill="none" stroke="url(#strokeB)" stroke-width="2.15" stroke-linecap="round" stroke-linejoin="round"/><circle cx="1825.8" cy="760.5" r="4.1" fill="#7C3AED" opacity="0.45"/><circle cx="42.8" cy="1049.2" r="3.1" fill="#7C3AED" opacity="0.45"/><circle cx="435.6" cy="760.5" r="3.1" fill="#7C3AED" opacity="0.45"/></g>
<g opacity="0.213" filter="url(#softGlow)"><path d="M 1845.4,578.8 L 1823.0,578.8 L 1823.0,34.9 L 1781.9,34.9 L 1781.9,836.5 " fill="none" stroke="url(#strokeB)" stroke-width="2.02" stroke-linecap="round" stroke-linejoin="round"/><circle cx="1781.9" cy="34.9" r="2.9" fill="#7C3AED" opacity="0.45"/><circle cx="1823.0" cy="578.8" r="2.4" fill="#7C3AED" opacity="0.45"/><circle cx="1781.9" cy="836.5" r="3.1" fill="#7C3AED" opacity="0.45"/></g>
<g opacity="0.213" filter="url(#softGlow)"><path d="M 1834.4,59.5 L 1081.6,59.5 L 1081.6,123.4 L 383.3,123.4 L 383.3,1011.8 " fill="none" stroke="url(#strokeB)" stroke-width="1.97" stroke-linecap="round" stroke-linejoin="round"/><circle cx="1081.6" cy="123.4" r="2.7" fill="#7C3AED" opacity="0.45"/><circle cx="383.3" cy="123.4" r="3.4" fill="#7C3AED" opacity="0.45"/><circle cx="1834.4" cy="59.5" r="3.1" fill="#7C3AED" opacity="0.45"/></g>
<g opacity="0.213" filter="url(#softGlow)"><path d="M 1779.3,689.3 L 14.7,689.3 L 14.7,175.0 L 1883.9,175.0 L 1883.9,882.5 " fill="none" stroke="url(#strokeB)" stroke-width="1.96" stroke-linecap="round" stroke-linejoin="round"/><circle cx="1779.3" cy="689.3" r="2.2" fill="#7C3AED" opacity="0.45"/><circle cx="14.7" cy="689.3" r="2.9" fill="#7C3AED" opacity="0.45"/><circle cx="1883.9" cy="882.5" r="4.1" fill="#7C3AED" opacity="0.45"/></g>
<g opacity="0.213" filter="url(#softGlow)"><path d="M 1917.9,533.3 L 1919.9,533.3 L 1919.9,526.0 L 1763.1,526.0 L 1763.1,1016.2 " fill="none" stroke="url(#strokeB)" stroke-width="2.14" stroke-linecap="round" stroke-linejoin="round"/><circle cx="1763.1" cy="526.0" r="3.3" fill="#7C3AED" opacity="0.45"/><circle cx="1917.9" cy="533.3" r="3.6" fill="#7C3AED" opacity="0.45"/><circle cx="1763.1" cy="1016.2" r="2.8" fill="#7C3AED" opacity="0.45"/></g>
<g opacity="0.213" filter="url(#softGlow)"><path d="M 1833.6,152.1 L 184.4,152.1 L 184.4,57.1 L 1708.4,57.1 L 1708.4,94.5 " fill="none" stroke="url(#strokeB)" stroke-width="1.70" stroke-linecap="round" stroke-linejoin="round"/><circle cx="184.4" cy="152.1" r="3.9" fill="#7C3AED" opacity="0.45"/><circle cx="1708.4" cy="57.1" r="2.0" fill="#7C3AED" opacity="0.45"/><circle cx="1708.4" cy="94.5" r="2.5" fill="#7C3AED" opacity="0.45"/></g>
<g opacity="0.213" filter="url(#softGlow)"><path d="M 64.1,931.7 L 151.8,931.7 L 151.8,946.8 L 1861.5,946.8 L 1861.5,116.9 " fill="none" stroke="url(#strokeB)" stroke-width="1.70" stroke-linecap="round" stroke-linejoin="round"/><circle cx="1861.5" cy="116.9" r="2.0" fill="#7C3AED" opacity="0.45"/><circle cx="64.1" cy="931.7" r="2.2" fill="#7C3AED" opacity="0.45"/><circle cx="151.8" cy="931.7" r="3.9" fill="#7C3AED" opacity="0.45"/></g>
<g opacity="0.213" filter="url(#softGlow)"><path d="M 113.3,1055.5 L 208.3,1055.5 L 208.3,192.4 L 448.7,192.4 L 448.7,1014.8 " fill="none" stroke="url(#strokeB)" stroke-width="1.44" stroke-linecap="round" stroke-linejoin="round"/><circle cx="113.3" cy="1055.5" r="2.1" fill="#7C3AED" opacity="0.45"/><circle cx="208.3" cy="1055.5" r="2.5" fill="#7C3AED" opacity="0.45"/><circle cx="448.7" cy="192.4" r="3.9" fill="#7C3AED" opacity="0.45"/></g>
<g opacity="0.213" filter="url(#softGlow)"><path d="M 1782.2,867.6 L 1903.9,867.6 L 1903.9,38.8 L 1729.6,38.8 L 1729.6,28.4 " fill="none" stroke="url(#strokeB)" stroke-width="1.28" stroke-linecap="round" stroke-linejoin="round"/><circle cx="1903.9" cy="38.8" r="3.1" fill="#7C3AED" opacity="0.45"/><circle cx="1782.2" cy="867.6" r="3.2" fill="#7C3AED" opacity="0.45"/><circle cx="1729.6" cy="38.8" r="3.3" fill="#7C3AED" opacity="0.45"/></g>
<g opacity="0.213" filter="url(#softGlow)"><path d="M 109.4,1052.7 L 143.2,1052.7 L 143.2,989.7 L 0.5,989.7 L 0.5,1056.6 " fill="none" stroke="url(#strokeB)" stroke-width="1.49" stroke-linecap="round" stroke-linejoin="round"/><circle cx="0.5" cy="989.7" r="3.5" fill="#7C3AED" opacity="0.45"/><circle cx="143.2" cy="1052.7" r="3.9" fill="#7C3AED" opacity="0.45"/><circle cx="143.2" cy="989.7" r="2.3" fill="#7C3AED" opacity="0.45"/></g>
<g opacity="0.213" filter="url(#softGlow)"><path d="M 4.6,195.3 L 1868.5,195.3 L 1868.5,1.6 L 1919.8,1.6 L 1919.8,916.3 " fill="none" stroke="url(#strokeB)" stroke-width="1.83" stroke-linecap="round" stroke-linejoin="round"/><circle cx="1919.8" cy="916.3" r="2.8" fill="#7C3AED" opacity="0.45"/><circle cx="1919.8" cy="1.6" r="2.3" fill="#7C3AED" opacity="0.45"/><circle cx="1868.5" cy="1.6" r="2.0" fill="#7C3AED" opacity="0.45"/></g>
<g opacity="0.213" filter="url(#softGlow)"><path d="M 1719.4,18.9 L 625.0,18.9 L 625.0,68.5 L 794.3,68.5 L 794.3,132.2 " fill="none" stroke="url(#strokeB)" stroke-width="1.34" stroke-linecap="round" stroke-linejoin="round"/><circle cx="625.0" cy="68.5" r="2.9" fill="#7C3AED" opacity="0.45"/><circle cx="794.3" cy="132.2" r="3.9" fill="#7C3AED" opacity="0.45"/><circle cx="794.3" cy="68.5" r="3.3" fill="#7C3AED" opacity="0.45"/></g>
<g opacity="0.213" filter="url(#softGlow)"><path d="M 21.0,1078.1 L 1722.6,1078.1 L 1722.6,1007.9 L 1468.5,1007.9 L 1468.5,40.3 " fill="none" stroke="url(#strokeB)" stroke-width="1.90" stroke-linecap="round" stroke-linejoin="round"/><circle cx="1468.5" cy="40.3" r="3.5" fill="#7C3AED" opacity="0.45"/><circle cx="21.0" cy="1078.1" r="2.8" fill="#7C3AED" opacity="0.45"/><circle cx="1468.5" cy="1007.9" r="3.5" fill="#7C3AED" opacity="0.45"/></g>
<g opacity="0.213" filter="url(#softGlow)"><path d="M 161.3,272.3 L 1727.1,272.3 L 1727.1,919.8 L 1901.7,919.8 L 1901.7,888.1 " fill="none" stroke="url(#strokeB)" stroke-width="1.97" stroke-linecap="round" stroke-linejoin="round"/><circle cx="1727.1" cy="272.3" r="2.2" fill="#7C3AED" opacity="0.45"/><circle cx="1901.7" cy="919.8" r="3.1" fill="#7C3AED" opacity="0.45"/><circle cx="1901.7" cy="888.1" r="2.5" fill="#7C3AED" opacity="0.45"/></g>
<g opacity="0.213" filter="url(#softGlow)"><path d="M 1017.1,967.4 L 199.1,967.4 L 199.1,11.5 L 85.3,11.5 L 85.3,933.5 " fill="none" stroke="url(#strokeB)" stroke-width="2.16" stroke-linecap="round" stroke-linejoin="round"/><circle cx="1017.1" cy="967.4" r="3.1" fill="#7C3AED" opacity="0.45"/><circle cx="199.1" cy="967.4" r="4.1" fill="#7C3AED" opacity="0.45"/><circle cx="85.3" cy="11.5" r="3.6" fill="#7C3AED" opacity="0.45"/></g>
<g opacity="0.213" filter="url(#softGlow)"><path d="M 1798.7,124.8 L 205.9,124.8 L 205.9,190.3 L 60.8,190.3 L 60.8,582.3 " fill="none" stroke="url(#strokeB)" stroke-width="1.67" stroke-linecap="round" stroke-linejoin="round"/><circle cx="1798.7" cy="124.8" r="3.4" fill="#7C3AED" opacity="0.45"/><circle cx="205.9" cy="190.3" r="2.6" fill="#7C3AED" opacity="0.45"/><circle cx="60.8" cy="190.3" r="3.6" fill="#7C3AED" opacity="0.45"/></g>
<g opacity="0.213" filter="url(#softGlow)"><path d="M 41.1,58.6 L 75.7,58.6 L 75.7,83.5 L 1910.2,83.5 L 1910.2,456.5 " fill="none" stroke="url(#strokeB)" stroke-width="1.51" stroke-linecap="round" stroke-linejoin="round"/><circle cx="1910.2" cy="456.5" r="2.9" fill="#7C3AED" opacity="0.45"/><circle cx="1910.2" cy="83.5" r="3.0" fill="#7C3AED" opacity="0.45"/><circle cx="75.7" cy="58.6" r="3.7" fill="#7C3AED" opacity="0.45"/></g>
<g opacity="0.213" filter="url(#softGlow)"><path d="M 1911.0,1036.4 L 58.7,1036.4 L 58.7,99.5 L 1750.5,99.5 L 1750.5,217.4 " fill="none" stroke="url(#strokeB)" stroke-width="1.45" stroke-linecap="round" stroke-linejoin="round"/><circle cx="1911.0" cy="1036.4" r="3.0" fill="#7C3AED" opacity="0.45"/><circle cx="1750.5" cy="99.5" r="3.4" fill="#7C3AED" opacity="0.45"/><circle cx="58.7" cy="1036.4" r="2.7" fill="#7C3AED" opacity="0.45"/></g>
<g opacity="0.213" filter="url(#softGlow)"><path d="M 22.3,1063.7 L 1725.3,1063.7 L 1725.3,63.6 L 1747.1,63.6 L 1747.1,970.1 " fill="none" stroke="url(#strokeB)" stroke-width="1.74" stroke-linecap="round" stroke-linejoin="round"/><circle cx="22.3" cy="1063.7" r="2.4" fill="#7C3AED" opacity="0.45"/><circle cx="1725.3" cy="1063.7" r="3.3" fill="#7C3AED" opacity="0.45"/><circle cx="1725.3" cy="63.6" r="2.5" fill="#7C3AED" opacity="0.45"/></g>
<g opacity="0.213" filter="url(#softGlow)"><path d="M 394.5,70.0 L 1871.7,70.0 L 1871.7,220.4 L 142.7,220.4 L 142.7,940.5 " fill="none" stroke="url(#strokeB)" stroke-width="1.55" stroke-linecap="round" stroke-linejoin="round"/><circle cx="394.5" cy="70.0" r="2.0" fill="#7C3AED" opacity="0.45"/><circle cx="142.7" cy="220.4" r="2.5" fill="#7C3AED" opacity="0.45"/><circle cx="142.7" cy="940.5" r="2.1" fill="#7C3AED" opacity="0.45"/></g>
<g opacity="0.213" filter="url(#softGlow)"><path d="M 768.5,1038.6 L 1750.6,1038.6 L 1750.6,880.7 L 1795.8,880.7 L 1795.8,140.8 " fill="none" stroke="url(#strokeB)" stroke-width="1.15" stroke-linecap="round" stroke-linejoin="round"/><circle cx="1750.6" cy="1038.6" r="2.7" fill="#7C3AED" opacity="0.45"/><circle cx="1795.8" cy="880.7" r="3.3" fill="#7C3AED" opacity="0.45"/><circle cx="1795.8" cy="140.8" r="3.7" fill="#7C3AED" opacity="0.45"/></g>
<g opacity="0.213" filter="url(#softGlow)"><path d="M 67.1,1.2 L 82.3,1.2 L 82.3,1041.6 L 1731.6,1041.6 L 1731.6,207.9 " fill="none" stroke="url(#strokeB)" stroke-width="1.60" stroke-linecap="round" stroke-linejoin="round"/><circle cx="67.1" cy="1.2" r="3.4" fill="#7C3AED" opacity="0.45"/><circle cx="82.3" cy="1.2" r="3.7" fill="#7C3AED" opacity="0.45"/><circle cx="1731.6" cy="1041.6" r="2.2" fill="#7C3AED" opacity="0.45"/></g>

<g opacity="0.773" filter="url(#hardGlow)">
  <circle cx="1859.3" cy="925.2" r="47.0" fill="#0A1224" opacity="0.65"/>
  <circle cx="1859.3" cy="925.2" r="47.0" fill="none" stroke="url(#strokeA)" stroke-width="3.8" opacity="0.85"/>
  <circle cx="1859.3" cy="925.2" r="40.4" fill="none" stroke="#22C55E" stroke-width="1.5" opacity="0.35"/>
  <polygon points="1871.5,893.6 1892.7,920.0 1880.6,951.6 1847.1,956.8 1825.9,930.5 1838.0,898.9" fill="none" stroke="url(#strokeB)" stroke-width="1.2" opacity="0.65"/>
  <polygon points="1867.1,916.3 1863.2,936.4 1847.7,923.0" fill="#22C55E" opacity="0.22" filter="url(#softGlow)"/>
</g>


<g opacity="0.404" filter="url(#hardGlow)">
  <circle cx="1931.7" cy="888.6" r="17.3" fill="#0A1224" opacity="0.65"/>
  <circle cx="1931.7" cy="888.6" r="17.3" fill="none" stroke="url(#strokeA)" stroke-width="2.0" opacity="0.85"/>
  <circle cx="1931.7" cy="888.6" r="14.9" fill="none" stroke="#7C3AED" stroke-width="1.5" opacity="0.35"/>
  <polygon points="1941.0,880.2 1943.6,892.4 1934.3,900.8 1922.4,897.0 1919.8,884.8 1929.1,876.4" fill="none" stroke="url(#strokeB)" stroke-width="1.2" opacity="0.65"/>
  
</g>


<g opacity="0.559" filter="url(#hardGlow)">
  <circle cx="1883.1" cy="900.8" r="22.3" fill="#0A1224" opacity="0.65"/>
  <circle cx="1883.1" cy="900.8" r="22.3" fill="none" stroke="url(#strokeA)" stroke-width="2.0" opacity="0.85"/>
  <circle cx="1883.1" cy="900.8" r="19.2" fill="none" stroke="#7C3AED" stroke-width="1.5" opacity="0.35"/>
  <polygon points="1884.1,916.9 1869.7,909.7 1868.7,893.6 1882.2,884.8 1896.5,892.0 1897.5,908.0" fill="none" stroke="url(#strokeB)" stroke-width="1.2" opacity="0.65"/>
  
</g>


<g opacity="0.834" filter="url(#hardGlow)">
  <circle cx="1770.9" cy="463.7" r="40.6" fill="#0A1224" opacity="0.65"/>
  <circle cx="1770.9" cy="463.7" r="40.6" fill="none" stroke="url(#strokeA)" stroke-width="3.2" opacity="0.85"/>
  <circle cx="1770.9" cy="463.7" r="34.9" fill="none" stroke="#22C55E" stroke-width="1.5" opacity="0.35"/>
  <polygon points="1750.3,443.0 1778.5,435.5 1799.1,456.2 1791.5,484.4 1763.3,491.9 1742.7,471.2" fill="none" stroke="url(#strokeB)" stroke-width="1.2" opacity="0.65"/>
  <polygon points="1766.6,454.4 1781.1,464.6 1765.0,472.1" fill="#22C55E" opacity="0.22" filter="url(#softGlow)"/>
</g>


<g opacity="0.561" filter="url(#hardGlow)">
  <circle cx="1739.7" cy="423.6" r="19.4" fill="#0A1224" opacity="0.65"/>
  <circle cx="1739.7" cy="423.6" r="19.4" fill="none" stroke="url(#strokeA)" stroke-width="2.0" opacity="0.85"/>
  <circle cx="1739.7" cy="423.6" r="16.7" fill="none" stroke="#7C3AED" stroke-width="1.5" opacity="0.35"/>
  <polygon points="1744.6,410.5 1753.5,421.3 1748.6,434.4 1734.8,436.7 1725.9,426.0 1730.8,412.8" fill="none" stroke="url(#strokeB)" stroke-width="1.2" opacity="0.65"/>
  <polygon points="1742.8,419.9 1741.3,428.2 1734.9,422.7" fill="#7C3AED" opacity="0.22" filter="url(#softGlow)"/>
</g>


<g opacity="0.538" filter="url(#hardGlow)">
  <circle cx="1718.8" cy="426.7" r="15.3" fill="#0A1224" opacity="0.65"/>
  <circle cx="1718.8" cy="426.7" r="15.3" fill="none" stroke="url(#strokeA)" stroke-width="2.0" opacity="0.85"/>
  <circle cx="1718.8" cy="426.7" r="13.1" fill="none" stroke="#7C3AED" stroke-width="1.5" opacity="0.35"/>
  <polygon points="1716.8,437.5 1708.5,430.4 1710.5,419.6 1720.9,415.9 1729.2,423.1 1727.2,433.9" fill="none" stroke="url(#strokeB)" stroke-width="1.2" opacity="0.65"/>
  <polygon points="1716.9,430.0 1717.0,423.4 1722.7,426.8" fill="#7C3AED" opacity="0.22" filter="url(#softGlow)"/>
</g>


<g opacity="0.802" filter="url(#hardGlow)">
  <circle cx="1797.7" cy="154.5" r="41.4" fill="#0A1224" opacity="0.65"/>
  <circle cx="1797.7" cy="154.5" r="41.4" fill="none" stroke="url(#strokeA)" stroke-width="3.3" opacity="0.85"/>
  <circle cx="1797.7" cy="154.5" r="35.6" fill="none" stroke="#22C55E" stroke-width="1.5" opacity="0.35"/>
  <polygon points="1805.6,125.8 1826.5,147.0 1818.7,175.7 1789.9,183.3 1768.9,162.1 1776.8,133.4" fill="none" stroke="url(#strokeB)" stroke-width="1.2" opacity="0.65"/>
  <polygon points="1803.7,146.0 1802.1,164.0 1787.3,153.6" fill="#22C55E" opacity="0.22" filter="url(#softGlow)"/>
</g>


<g opacity="0.462" filter="url(#hardGlow)">
  <circle cx="1863.3" cy="164.0" r="19.2" fill="#0A1224" opacity="0.65"/>
  <circle cx="1863.3" cy="164.0" r="19.2" fill="none" stroke="url(#strokeA)" stroke-width="2.0" opacity="0.85"/>
  <circle cx="1863.3" cy="164.0" r="16.5" fill="none" stroke="#7C3AED" stroke-width="1.5" opacity="0.35"/>
  <polygon points="1865.5,177.6 1852.5,172.7 1850.3,159.1 1861.0,150.3 1874.0,155.2 1876.2,168.9" fill="none" stroke="url(#strokeB)" stroke-width="1.2" opacity="0.65"/>
  <polygon points="1862.3,168.7 1859.6,160.8 1867.8,162.4" fill="#7C3AED" opacity="0.22" filter="url(#softGlow)"/>
</g>


<g opacity="0.598" filter="url(#hardGlow)">
  <circle cx="1839.3" cy="117.2" r="19.2" fill="#0A1224" opacity="0.65"/>
  <circle cx="1839.3" cy="117.2" r="19.2" fill="none" stroke="url(#strokeA)" stroke-width="2.0" opacity="0.85"/>
  <circle cx="1839.3" cy="117.2" r="16.5" fill="none" stroke="#7C3AED" stroke-width="1.5" opacity="0.35"/>
  <polygon points="1826.5,112.0 1837.5,103.5 1850.2,108.8 1852.1,122.5 1841.1,130.9 1828.3,125.7" fill="none" stroke="url(#strokeB)" stroke-width="1.2" opacity="0.65"/>
  <polygon points="1835.7,114.0 1843.9,115.8 1838.2,122.0" fill="#7C3AED" opacity="0.22" filter="url(#softGlow)"/>
</g>


<g opacity="0.672" filter="url(#hardGlow)">
  <circle cx="1902.4" cy="926.4" r="42.3" fill="#0A1224" opacity="0.65"/>
  <circle cx="1902.4" cy="926.4" r="42.3" fill="none" stroke="url(#strokeA)" stroke-width="3.4" opacity="0.85"/>
  <circle cx="1902.4" cy="926.4" r="36.4" fill="none" stroke="#22C55E" stroke-width="1.5" opacity="0.35"/>
  <polygon points="1884.2,950.8 1872.2,922.8 1890.4,898.4 1920.6,901.9 1932.7,929.9 1914.5,954.4" fill="none" stroke="url(#strokeB)" stroke-width="1.2" opacity="0.65"/>
  <polygon points="1893.5,932.2 1901.8,915.7 1912.0,931.2" fill="#22C55E" opacity="0.22" filter="url(#softGlow)"/>
</g>


<g opacity="0.635" filter="url(#hardGlow)">
  <circle cx="1939.0" cy="936.5" r="18.6" fill="#0A1224" opacity="0.65"/>
  <circle cx="1939.0" cy="936.5" r="18.6" fill="none" stroke="url(#strokeA)" stroke-width="2.0" opacity="0.85"/>
  <circle cx="1939.0" cy="936.5" r="16.0" fill="none" stroke="#7C3AED" stroke-width="1.5" opacity="0.35"/>
  <polygon points="1925.8,933.6 1934.9,923.7 1948.0,926.6 1952.1,939.4 1943.0,949.3 1929.9,946.4" fill="none" stroke="url(#strokeB)" stroke-width="1.2" opacity="0.65"/>
  
</g>


<g opacity="0.515" filter="url(#hardGlow)">
  <circle cx="1932.6" cy="932.7" r="15.9" fill="#0A1224" opacity="0.65"/>
  <circle cx="1932.6" cy="932.7" r="15.9" fill="none" stroke="url(#strokeA)" stroke-width="2.0" opacity="0.85"/>
  <circle cx="1932.6" cy="932.7" r="13.6" fill="none" stroke="#7C3AED" stroke-width="1.5" opacity="0.35"/>
  <polygon points="1944.0,934.1 1937.1,943.2 1925.8,941.8 1921.3,931.3 1928.1,922.2 1939.5,923.6" fill="none" stroke="url(#strokeB)" stroke-width="1.2" opacity="0.65"/>
  
</g>


<g opacity="0.439" transform="translate(1733.6,1071.8) rotate(-2.9)" filter="url(#softGlow)">
  <rect x="-93.8" y="-71.4" width="187.6" height="142.8" rx="14.3" fill="#050A12" opacity="0.25"/>
  <rect x="-93.8" y="-71.4" width="187.6" height="142.8" rx="14.3" fill="none" stroke="url(#strokeA)" stroke-width="7.1" opacity="0.85"/>
  <rect x="-82.4" y="-60.0" width="164.8" height="120.0" rx="10.0" fill="none" stroke="#7C3AED" stroke-width="2.9" opacity="0.35"/>
</g>


<g opacity="0.414" transform="translate(90.6,182.3) rotate(-6.9)" filter="url(#softGlow)">
  <rect x="-91.7" y="-79.4" width="183.4" height="158.7" rx="15.9" fill="#050A12" opacity="0.25"/>
  <rect x="-91.7" y="-79.4" width="183.4" height="158.7" rx="15.9" fill="none" stroke="url(#strokeA)" stroke-width="7.9" opacity="0.85"/>
  <rect x="-79.0" y="-66.7" width="158.0" height="133.3" rx="11.1" fill="none" stroke="#22C55E" stroke-width="3.2" opacity="0.35"/>
</g>


<g opacity="0.430" transform="translate(223.9,144.8) rotate(-1.6)" filter="url(#softGlow)">
  <rect x="-107.6" y="-85.8" width="215.3" height="171.6" rx="17.2" fill="#050A12" opacity="0.25"/>
  <rect x="-107.6" y="-85.8" width="215.3" height="171.6" rx="17.2" fill="none" stroke="url(#strokeA)" stroke-width="8.6" opacity="0.85"/>
  <rect x="-93.9" y="-72.1" width="187.8" height="144.1" rx="12.0" fill="none" stroke="#7C3AED" stroke-width="3.4" opacity="0.35"/>
</g>


<g opacity="0.274" transform="translate(145.9,76.7) rotate(0.3)" filter="url(#softGlow)">
  <rect x="-118.1" y="-96.6" width="236.1" height="193.2" rx="19.3" fill="#050A12" opacity="0.25"/>
  <rect x="-118.1" y="-96.6" width="236.1" height="193.2" rx="19.3" fill="none" stroke="url(#strokeA)" stroke-width="9.7" opacity="0.85"/>
  <rect x="-102.6" y="-81.1" width="205.2" height="162.3" rx="13.5" fill="none" stroke="#22C55E" stroke-width="3.9" opacity="0.35"/>
</g>


<g opacity="0.459" transform="translate(140.5,55.5) rotate(5.4)" filter="url(#softGlow)">
  <rect x="-34.0" y="-19.6" width="67.9" height="39.1" rx="12.0" fill="none" stroke="#22C55E" stroke-width="6.5" opacity="0.55"/>
  <rect x="-14.9" y="-9.8" width="67.9" height="39.1" rx="12.0" fill="none" stroke="url(#strokeA)" stroke-width="5.4" opacity="0.55"/>
</g>


<g opacity="0.225" transform="translate(104.1,232.6) rotate(-11.5)" filter="url(#softGlow)">
  <rect x="-44.9" y="-25.9" width="89.8" height="51.7" rx="15.8" fill="none" stroke="#7C3AED" stroke-width="8.6" opacity="0.55"/>
  <rect x="-19.8" y="-12.9" width="89.8" height="51.7" rx="15.8" fill="none" stroke="url(#strokeA)" stroke-width="7.2" opacity="0.55"/>
</g>


<g opacity="0.378" transform="translate(163.2,933.4) rotate(17.5)" filter="url(#softGlow)">
  <rect x="-35.6" y="-20.5" width="71.3" height="41.1" rx="12.5" fill="none" stroke="#22C55E" stroke-width="6.8" opacity="0.55"/>
  <rect x="-15.7" y="-10.3" width="71.3" height="41.1" rx="12.5" fill="none" stroke="url(#strokeA)" stroke-width="5.7" opacity="0.55"/>
</g>


<g opacity="0.404" transform="translate(1885.8,622.1) rotate(-14.3)" filter="url(#softGlow)">
  <rect x="-59.1" y="-34.1" width="118.2" height="68.1" rx="20.8" fill="none" stroke="#7C3AED" stroke-width="11.4" opacity="0.55"/>
  <rect x="-26.0" y="-17.0" width="118.2" height="68.1" rx="20.8" fill="none" stroke="url(#strokeA)" stroke-width="9.5" opacity="0.55"/>
</g>


<g opacity="0.224" transform="translate(1875.7,456.7) rotate(-6.4)" filter="url(#softGlow)">
  <rect x="-43.2" y="-24.9" width="86.4" height="49.8" rx="15.2" fill="none" stroke="#7C3AED" stroke-width="8.3" opacity="0.55"/>
  <rect x="-19.0" y="-12.4" width="86.4" height="49.8" rx="15.2" fill="none" stroke="url(#strokeA)" stroke-width="6.9" opacity="0.55"/>
</g>


<g opacity="0.350" transform="translate(131.5,891.8) rotate(-15.6)" filter="url(#softGlow)">
  <rect x="-35.2" y="-20.3" width="70.4" height="40.6" rx="12.4" fill="none" stroke="#22C55E" stroke-width="6.8" opacity="0.55"/>
  <rect x="-15.5" y="-10.1" width="70.4" height="40.6" rx="12.4" fill="none" stroke="url(#strokeA)" stroke-width="5.6" opacity="0.55"/>
</g>


<g opacity="0.201">
  <line x1="1817.6" y1="864.5" x2="1817.6" y2="962.7" stroke="#7C3AED" stroke-width="2.02" opacity="0.45"/>
  <rect x="1812.6" y="915.5" width="9.9" height="55.2" rx="3.3" fill="#0B1020" opacity="0.55" stroke="url(#strokeA)" stroke-width="1.2"/>
</g>

<g opacity="0.201">
  <line x1="239.3" y1="864.1" x2="239.3" y2="962.8" stroke="#7C3AED" stroke-width="1.27" opacity="0.45"/>
  <rect x="233.4" y="920.1" width="11.7" height="45.9" rx="3.9" fill="#0B1020" opacity="0.55" stroke="url(#strokeA)" stroke-width="1.2"/>
</g>

<g opacity="0.201">
  <line x1="120.6" y1="887.8" x2="120.6" y2="956.9" stroke="#7C3AED" stroke-width="2.18" opacity="0.45"/>
  <rect x="116.0" y="925.0" width="9.3" height="36.2" rx="3.1" fill="#0B1020" opacity="0.55" stroke="url(#strokeA)" stroke-width="1.2"/>
</g>
<circle cx="258.6" cy="35.1" r="3.1" fill="#22C55E" opacity="0.14" filter="url(#softGlow)"/>
<circle cx="1807.2" cy="608.1" r="1.8" fill="#22C55E" opacity="0.23" filter="url(#softGlow)"/>
<circle cx="1846.7" cy="212.4" r="2.8" fill="#22C55E" opacity="0.12" filter="url(#softGlow)"/>
<circle cx="1770.3" cy="17.3" r="2.6" fill="#22C55E" opacity="0.20" filter="url(#softGlow)"/>
<circle cx="1834.9" cy="603.9" r="2.7" fill="#22C55E" opacity="0.25" filter="url(#softGlow)"/>
<circle cx="785.4" cy="1036.3" r="2.4" fill="#22C55E" opacity="0.27" filter="url(#softGlow)"/>
<circle cx="160.6" cy="1030.3" r="1.6" fill="#22C55E" opacity="0.14" filter="url(#softGlow)"/>
<circle cx="1900.0" cy="593.9" r="1.4" fill="#22C55E" opacity="0.10" filter="url(#softGlow)"/>
<circle cx="1895.0" cy="1007.2" r="1.3" fill="#22C55E" opacity="0.20" filter="url(#softGlow)"/>
<circle cx="75.6" cy="1060.8" r="2.6" fill="#22C55E" opacity="0.24" filter="url(#softGlow)"/>
<circle cx="1797.6" cy="942.2" r="2.0" fill="#22C55E" opacity="0.12" filter="url(#softGlow)"/>
<circle cx="1840.5" cy="198.9" r="1.6" fill="#22C55E" opacity="0.11" filter="url(#softGlow)"/>
<circle cx="28.0" cy="201.0" r="1.6" fill="#22C55E" opacity="0.18" filter="url(#softGlow)"/>
<circle cx="1704.2" cy="84.1" r="2.4" fill="#22C55E" opacity="0.20" filter="url(#softGlow)"/>
<circle cx="1837.5" cy="79.5" r="1.9" fill="#22C55E" opacity="0.26" filter="url(#softGlow)"/>
<circle cx="1814.8" cy="996.2" r="2.0" fill="#22C55E" opacity="0.20" filter="url(#softGlow)"/>
<circle cx="1791.3" cy="471.4" r="2.2" fill="#22C55E" opacity="0.17" filter="url(#softGlow)"/>
<circle cx="1898.4" cy="953.0" r="1.9" fill="#22C55E" opacity="0.20" filter="url(#softGlow)"/>
<circle cx="35.9" cy="1027.9" r="2.0" fill="#22C55E" opacity="0.27" filter="url(#softGlow)"/>
</svg>