<svg xmlns="http://www.w3.org/2000/svg" width="1920" height="1080" viewBox="0 0 1920 1080" preserveAspectRatio="xMidYMid slice">
<defs>
  <linearGradient id="g0" x1="0" y1="0" x2="1" y2="1">
    <stop offset="0" stop-color="#0B1020"/>
    <stop offset="0.55" stop-color="#F97316" stop-opacity="0.9"/>
    <stop offset="1" stop-color="#020617"/>
  </linearGradient>
  <radialGradient id="g1" cx="20%" cy="15%" r="70%">
    <stop offset="0" stop-color="#06B6D4" stop-opacity="0.38"/>
    <stop offset="0.6" stop-color="#06B6D4" stop-opacity="0.08"/>
    <stop offset="1" stop-color="#06B6D4" stop-opacity="0"/>
  </radialGradient>
  <radialGradient id="g2" cx="85%" cy="80%" r="75%">
    <stop offset="0" stop-color="#06B6D4" stop-opacity="0.28"/>
    <stop offset="0.65" stop-color="#06B6D4" stop-opacity="0.06"/>
    <stop offset="1" stop-color="#06B6D4" stop-opacity="0"/>
  </radialGradient>
  <filter id="softGlow" x="-30%" y="-30%" width="160%" height="160%">
    <feGaussianBlur stdDeviation="12" result="b"/>
    <feMerge>
      <feMergeNode in="b"/>
      <feMergeNode in="SourceGraphic"/>
    </feMerge>
  </filter>
  <filter id="hardGlow" x="-40%" y="-40%" width="180%" height="180%">
    <feGaussianBlur stdDeviation="6" result="b"/>
    <feColorMatrix in="b" type="matrix" values="1 0 0 0 0  0 1 0 0 0  0 0 1 0 0  0 0 0 18 -7" result="c"/>
    <feMerge>
      <feMergeNode in="c"/>
      <feMergeNode in="SourceGraphic"/>
    </feMerge>
  </filter>
  <linearGradient id="strokeA" x1="0" y1="0" x2="1" y2="0">
    <stop offset="0" stop-color="#06B6D4" stop-opacity="0.9"/>
    <stop offset="0.5" stop-color="#FFFFFF" stop-opacity="0.25"/>
    <stop offset="1" stop-color="#06B6D4" stop-opacity="0.7"/>
  </linearGradient>
  <linearGradient id="strokeB" x1="0" y1="0" x2="0" y2="1">
    <stop offset="0" stop-color="#FFFFFF" stop-opacity="0.18"/>
    <stop offset="1" stop-color="#06B6D4" stop-opacity="0.55"/>
  </linearGradient>
</defs>
<rect x="0" y="0" width="1920" height="1080" fill="url(#g0)"/>
<rect x="0" y="0" width="1920" height="1080" fill="url(#g1)"/>
<rect x="0" y="0" width="1920" height="1080" fill="url(#g2)"/>


<defs>
  <radialGradient id="vign" cx="0.5000" cy="0.5093" r="0.85">
    <stop offset="0" stop-color="#000000" stop-opacity="0"/>
    <stop offset="0.55" stop-color="#000000" stop-opacity="0.217"/>
    <stop offset="1" stop-color="#000000" stop-opacity="0.620"/>
  </radialGradient>
</defs>
<rect x="0" y="0" width="1920" height="1080" fill="url(#vign)"/>

<g opacity="0.274" filter="url(#softGlow)"><path d="M 120.8,117.4 L 151.7,117.4 L 151.7,1008.3 L 73.5,1008.3 L 73.5,908.7 " fill="none" stroke="url(#strokeB)" stroke-width="1.31" stroke-linecap="round" stroke-linejoin="round"/><circle cx="151.7" cy="1008.3" r="2.7" fill="#06B6D4" opacity="0.45"/><circle cx="151.7" cy="117.4" r="3.0" fill="#06B6D4" opacity="0.45"/><circle cx="73.5" cy="1008.3" r="3.4" fill="#06B6D4" opacity="0.45"/></g>
<g opacity="0.274" filter="url(#softGlow)"><path d="M 1830.0,971.9 L 139.6,971.9 L 139.6,869.0 L 1767.1,869.0 L 1767.1,73.5 " fill="none" stroke="url(#strokeB)" stroke-width="1.61" stroke-linecap="round" stroke-linejoin="round"/><circle cx="1767.1" cy="73.5" r="3.5" fill="#06B6D4" opacity="0.45"/><circle cx="139.6" cy="971.9" r="2.8" fill="#06B6D4" opacity="0.45"/><circle cx="139.6" cy="869.0" r="2.3" fill="#06B6D4" opacity="0.45"/></g>
<g opacity="0.274" filter="url(#softGlow)"><path d="M 1857.1,1026.8 L 890.1,1026.8 L 890.1,64.2 L 1876.9,64.2 L 1876.9,951.4 " fill="none" stroke="url(#strokeB)" stroke-width="1.56" stroke-linecap="round" stroke-linejoin="round"/><circle cx="890.1" cy="64.2" r="4.0" fill="#06B6D4" opacity="0.45"/><circle cx="890.1" cy="1026.8" r="3.3" fill="#06B6D4" opacity="0.45"/><circle cx="1876.9" cy="951.4" r="3.7" fill="#06B6D4" opacity="0.45"/></g>
<g opacity="0.274" filter="url(#softGlow)"><path d="M 158.0,1001.0 L 1897.9,1001.0 L 1897.9,998.4 L 1715.2,998.4 L 1715.2,957.9 " fill="none" stroke="url(#strokeB)" stroke-width="1.29" stroke-linecap="round" stroke-linejoin="round"/><circle cx="158.0" cy="1001.0" r="2.7" fill="#06B6D4" opacity="0.45"/><circle cx="1715.2" cy="957.9" r="3.1" fill="#06B6D4" opacity="0.45"/><circle cx="1897.9" cy="998.4" r="2.4" fill="#06B6D4" opacity="0.45"/></g>
<g opacity="0.274" filter="url(#softGlow)"><path d="M 197.9,196.8 L 1919.1,196.8 L 1919.1,76.7 L 1908.4,76.7 L 1908.4,980.8 " fill="none" stroke="url(#strokeB)" stroke-width="1.95" stroke-linecap="round" stroke-linejoin="round"/><circle cx="1908.4" cy="76.7" r="3.9" fill="#06B6D4" opacity="0.45"/><circle cx="1908.4" cy="980.8" r="2.6" fill="#06B6D4" opacity="0.45"/><circle cx="197.9" cy="196.8" r="4.0" fill="#06B6D4" opacity="0.45"/></g>
<g opacity="0.274" filter="url(#softGlow)"><path d="M 1771.6,921.4 L 150.1,921.4 L 150.1,124.9 L 332.7,124.9 L 332.7,21.8 " fill="none" stroke="url(#strokeB)" stroke-width="1.35" stroke-linecap="round" stroke-linejoin="round"/><circle cx="150.1" cy="124.9" r="3.9" fill="#06B6D4" opacity="0.45"/><circle cx="332.7" cy="21.8" r="3.5" fill="#06B6D4" opacity="0.45"/><circle cx="1771.6" cy="921.4" r="3.8" fill="#06B6D4" opacity="0.45"/></g>
<g opacity="0.274" filter="url(#softGlow)"><path d="M 41.6,1001.9 L 1187.7,1001.9 L 1187.7,86.9 L 1915.8,86.9 L 1915.8,1017.9 " fill="none" stroke="url(#strokeB)" stroke-width="1.51" stroke-linecap="round" stroke-linejoin="round"/><circle cx="1187.7" cy="86.9" r="4.1" fill="#06B6D4" opacity="0.45"/><circle cx="1915.8" cy="1017.9" r="4.0" fill="#06B6D4" opacity="0.45"/><circle cx="41.6" cy="1001.9" r="3.4" fill="#06B6D4" opacity="0.45"/></g>
<g opacity="0.274" filter="url(#softGlow)"><path d="M 396.2,1077.3 L 1809.2,1077.3 L 1809.2,782.7 L 21.6,782.7 L 21.6,1071.3 " fill="none" stroke="url(#strokeB)" stroke-width="1.77" stroke-linecap="round" stroke-linejoin="round"/><circle cx="396.2" cy="1077.3" r="2.1" fill="#06B6D4" opacity="0.45"/><circle cx="21.6" cy="1071.3" r="3.0" fill="#06B6D4" opacity="0.45"/><circle cx="21.6" cy="782.7" r="4.1" fill="#06B6D4" opacity="0.45"/></g>
<g opacity="0.274" filter="url(#softGlow)"><path d="M 1137.1,1061.9 L 1875.7,1061.9 L 1875.7,196.8 L 735.9,196.8 L 735.9,35.3 " fill="none" stroke="url(#strokeB)" stroke-width="1.68" stroke-linecap="round" stroke-linejoin="round"/><circle cx="1875.7" cy="196.8" r="3.4" fill="#06B6D4" opacity="0.45"/><circle cx="1137.1" cy="1061.9" r="2.3" fill="#06B6D4" opacity="0.45"/><circle cx="735.9" cy="196.8" r="2.3" fill="#06B6D4" opacity="0.45"/></g>
<g opacity="0.274" filter="url(#softGlow)"><path d="M 1915.8,22.6 L 144.4,22.6 L 144.4,210.1 L 352.5,210.1 L 352.5,1047.8 " fill="none" stroke="url(#strokeB)" stroke-width="1.23" stroke-linecap="round" stroke-linejoin="round"/><circle cx="1915.8" cy="22.6" r="2.9" fill="#06B6D4" opacity="0.45"/><circle cx="352.5" cy="1047.8" r="3.1" fill="#06B6D4" opacity="0.45"/><circle cx="144.4" cy="210.1" r="4.1" fill="#06B6D4" opacity="0.45"/></g>
<g opacity="0.274" filter="url(#softGlow)"><path d="M 1839.3,967.4 L 1792.6,967.4 L 1792.6,1056.4 L 175.4,1056.4 L 175.4,251.3 " fill="none" stroke="url(#strokeB)" stroke-width="2.01" stroke-linecap="round" stroke-linejoin="round"/><circle cx="1792.6" cy="1056.4" r="3.2" fill="#06B6D4" opacity="0.45"/><circle cx="175.4" cy="1056.4" r="2.6" fill="#06B6D4" opacity="0.45"/><circle cx="1839.3" cy="967.4" r="3.1" fill="#06B6D4" opacity="0.45"/></g>
<g opacity="0.274" filter="url(#softGlow)"><path d="M 182.4,1002.8 L 185.6,1002.8 L 185.6,904.5 L 37.1,904.5 L 37.1,496.6 " fill="none" stroke="url(#strokeB)" stroke-width="2.10" stroke-linecap="round" stroke-linejoin="round"/><circle cx="182.4" cy="1002.8" r="3.1" fill="#06B6D4" opacity="0.45"/><circle cx="37.1" cy="904.5" r="3.0" fill="#06B6D4" opacity="0.45"/><circle cx="37.1" cy="496.6" r="2.8" fill="#06B6D4" opacity="0.45"/></g>
<g opacity="0.274" filter="url(#softGlow)"><path d="M 74.1,150.9 L 104.9,150.9 L 104.9,913.7 L 1904.4,913.7 L 1904.4,1035.7 " fill="none" stroke="url(#strokeB)" stroke-width="2.01" stroke-linecap="round" stroke-linejoin="round"/><circle cx="104.9" cy="913.7" r="3.0" fill="#06B6D4" opacity="0.45"/><circle cx="1904.4" cy="1035.7" r="3.4" fill="#06B6D4" opacity="0.45"/><circle cx="1904.4" cy="913.7" r="2.7" fill="#06B6D4" opacity="0.45"/></g>
<g opacity="0.274" filter="url(#softGlow)"><path d="M 182.1,864.8 L 1795.6,864.8 L 1795.6,1006.7 L 148.7,1006.7 L 148.7,1021.2 " fill="none" stroke="url(#strokeB)" stroke-width="1.48" stroke-linecap="round" stroke-linejoin="round"/><circle cx="148.7" cy="1021.2" r="4.1" fill="#06B6D4" opacity="0.45"/><circle cx="148.7" cy="1006.7" r="3.9" fill="#06B6D4" opacity="0.45"/><circle cx="1795.6" cy="1006.7" r="3.4" fill="#06B6D4" opacity="0.45"/></g>
<g opacity="0.274" filter="url(#softGlow)"><path d="M 1592.0,982.2 L 1771.4,982.2 L 1771.4,1069.3 L 23.6,1069.3 L 23.6,12.8 " fill="none" stroke="url(#strokeB)" stroke-width="1.80" stroke-linecap="round" stroke-linejoin="round"/><circle cx="1771.4" cy="982.2" r="3.7" fill="#06B6D4" opacity="0.45"/><circle cx="23.6" cy="1069.3" r="2.9" fill="#06B6D4" opacity="0.45"/><circle cx="23.6" cy="12.8" r="4.1" fill="#06B6D4" opacity="0.45"/></g>
<g opacity="0.274" filter="url(#softGlow)"><path d="M 1844.6,170.3 L 292.8,170.3 L 292.8,189.2 L 1394.2,189.2 L 1394.2,1011.4 " fill="none" stroke="url(#strokeB)" stroke-width="1.45" stroke-linecap="round" stroke-linejoin="round"/><circle cx="1394.2" cy="1011.4" r="3.0" fill="#06B6D4" opacity="0.45"/><circle cx="292.8" cy="189.2" r="2.1" fill="#06B6D4" opacity="0.45"/><circle cx="1394.2" cy="189.2" r="2.1" fill="#06B6D4" opacity="0.45"/></g>
<g opacity="0.274" filter="url(#softGlow)"><path d="M 93.5,1008.0 L 23.8,1008.0 L 23.8,162.3 L 179.9,162.3 L 179.9,877.5 " fill="none" stroke="url(#strokeB)" stroke-width="1.67" stroke-linecap="round" stroke-linejoin="round"/><circle cx="23.8" cy="162.3" r="3.4" fill="#06B6D4" opacity="0.45"/><circle cx="179.9" cy="162.3" r="3.8" fill="#06B6D4" opacity="0.45"/><circle cx="179.9" cy="877.5" r="3.9" fill="#06B6D4" opacity="0.45"/></g>
<g opacity="0.274" filter="url(#softGlow)"><path d="M 78.8,199.8 L 212.6,199.8 L 212.6,1011.0 L 26.6,1011.0 L 26.6,910.3 " fill="none" stroke="url(#strokeB)" stroke-width="1.40" stroke-linecap="round" stroke-linejoin="round"/><circle cx="26.6" cy="910.3" r="2.7" fill="#06B6D4" opacity="0.45"/><circle cx="78.8" cy="199.8" r="2.9" fill="#06B6D4" opacity="0.45"/><circle cx="212.6" cy="1011.0" r="3.2" fill="#06B6D4" opacity="0.45"/></g>
<g opacity="0.274" filter="url(#softGlow)"><path d="M 1161.2,81.4 L 6.0,81.4 L 6.0,847.7 L 112.8,847.7 L 112.8,12.1 " fill="none" stroke="url(#strokeB)" stroke-width="2.16" stroke-linecap="round" stroke-linejoin="round"/><circle cx="112.8" cy="847.7" r="3.9" fill="#06B6D4" opacity="0.45"/><circle cx="6.0" cy="847.7" r="2.3" fill="#06B6D4" opacity="0.45"/><circle cx="1161.2" cy="81.4" r="2.4" fill="#06B6D4" opacity="0.45"/></g>
<g opacity="0.274" filter="url(#softGlow)"><path d="M 1810.2,5.9 L 27.8,5.9 L 27.8,1001.7 L 69.0,1001.7 L 69.0,643.1 " fill="none" stroke="url(#strokeB)" stroke-width="1.21" stroke-linecap="round" stroke-linejoin="round"/><circle cx="27.8" cy="1001.7" r="3.3" fill="#06B6D4" opacity="0.45"/><circle cx="27.8" cy="5.9" r="4.0" fill="#06B6D4" opacity="0.45"/><circle cx="69.0" cy="643.1" r="3.1" fill="#06B6D4" opacity="0.45"/></g>

<g opacity="0.825" filter="url(#hardGlow)">
  <circle cx="1783.5" cy="13.0" r="48.6" fill="#0A1224" opacity="0.65"/>
  <circle cx="1783.5" cy="13.0" r="48.6" fill="none" stroke="url(#strokeA)" stroke-width="3.9" opacity="0.85"/>
  <circle cx="1783.5" cy="13.0" r="41.8" fill="none" stroke="#A3E635" stroke-width="1.5" opacity="0.35"/>
  <polygon points="1762.5,41.0 1748.8,8.8 1769.8,-19.2 1804.5,-14.9 1818.2,17.2 1797.2,45.2" fill="none" stroke="url(#strokeB)" stroke-width="1.2" opacity="0.65"/>
  <polygon points="1773.2,19.7 1782.8,0.8 1794.4,18.5" fill="#A3E635" opacity="0.22" filter="url(#softGlow)"/>
</g>


<g opacity="0.353" filter="url(#hardGlow)">
  <circle cx="1761.2" cy="1.8" r="20.0" fill="#0A1224" opacity="0.65"/>
  <circle cx="1761.2" cy="1.8" r="20.0" fill="none" stroke="url(#strokeA)" stroke-width="2.0" opacity="0.85"/>
  <circle cx="1761.2" cy="1.8" r="17.2" fill="none" stroke="#06B6D4" stroke-width="1.5" opacity="0.35"/>
  <polygon points="1749.4,-6.4 1762.5,-12.5 1774.2,-4.2 1773.0,10.1 1760.0,16.2 1748.2,7.9" fill="none" stroke="url(#strokeB)" stroke-width="1.2" opacity="0.65"/>
  <polygon points="1758.3,-2.3 1766.2,1.4 1759.1,6.4" fill="#06B6D4" opacity="0.22" filter="url(#softGlow)"/>
</g>


<g opacity="0.581" filter="url(#hardGlow)">
  <circle cx="1821.5" cy="12.2" r="23.1" fill="#0A1224" opacity="0.65"/>
  <circle cx="1821.5" cy="12.2" r="23.1" fill="none" stroke="url(#strokeA)" stroke-width="2.0" opacity="0.85"/>
  <circle cx="1821.5" cy="12.2" r="19.9" fill="none" stroke="#06B6D4" stroke-width="1.5" opacity="0.35"/>
  <polygon points="1836.3,19.7 1822.4,28.8 1807.5,21.3 1806.6,4.7 1820.5,-4.4 1835.4,3.1" fill="none" stroke="url(#strokeB)" stroke-width="1.2" opacity="0.65"/>
  
</g>


<g opacity="0.575" filter="url(#hardGlow)">
  <circle cx="1815.1" cy="32.0" r="24.4" fill="#0A1224" opacity="0.65"/>
  <circle cx="1815.1" cy="32.0" r="24.4" fill="none" stroke="url(#strokeA)" stroke-width="2.0" opacity="0.85"/>
  <circle cx="1815.1" cy="32.0" r="21.0" fill="none" stroke="#06B6D4" stroke-width="1.5" opacity="0.35"/>
  <polygon points="1820.9,15.4 1832.4,28.6 1826.6,45.2 1809.4,48.6 1797.9,35.3 1803.6,18.7" fill="none" stroke="url(#strokeB)" stroke-width="1.2" opacity="0.65"/>
  
</g>


<g opacity="0.877" filter="url(#hardGlow)">
  <circle cx="47.6" cy="226.1" r="63.0" fill="#0A1224" opacity="0.65"/>
  <circle cx="47.6" cy="226.1" r="63.0" fill="none" stroke="url(#strokeA)" stroke-width="5.0" opacity="0.85"/>
  <circle cx="47.6" cy="226.1" r="54.2" fill="none" stroke="#A3E635" stroke-width="1.9" opacity="0.35"/>
  <polygon points="12.1,254.3 5.5,209.4 41.0,181.2 83.2,197.8 89.8,242.7 54.3,270.9" fill="none" stroke="url(#strokeB)" stroke-width="1.6" opacity="0.65"/>
  <polygon points="32.6,231.1 50.8,210.5 59.5,236.6" fill="#A3E635" opacity="0.22" filter="url(#softGlow)"/>
</g>


<g opacity="0.624" filter="url(#hardGlow)">
  <circle cx="116.2" cy="176.9" r="34.2" fill="#0A1224" opacity="0.65"/>
  <circle cx="116.2" cy="176.9" r="34.2" fill="none" stroke="url(#strokeA)" stroke-width="2.7" opacity="0.85"/>
  <circle cx="116.2" cy="176.9" r="29.4" fill="none" stroke="#06B6D4" stroke-width="1.5" opacity="0.35"/>
  <polygon points="125.5,154.1 140.7,173.6 131.4,196.4 107.0,199.8 91.8,180.3 101.1,157.5" fill="none" stroke="url(#strokeB)" stroke-width="1.2" opacity="0.65"/>
  <polygon points="122.0,170.6 118.9,185.2 107.8,175.1" fill="#06B6D4" opacity="0.22" filter="url(#softGlow)"/>
</g>


<g opacity="0.831" filter="url(#hardGlow)">
  <circle cx="166.4" cy="90.3" r="68.0" fill="#0A1224" opacity="0.65"/>
  <circle cx="166.4" cy="90.3" r="68.0" fill="none" stroke="url(#strokeA)" stroke-width="5.4" opacity="0.85"/>
  <circle cx="166.4" cy="90.3" r="58.5" fill="none" stroke="#A3E635" stroke-width="2.0" opacity="0.35"/>
  <polygon points="199.6,54.2 214.3,101.0 181.1,137.1 133.3,126.4 118.6,79.7 151.8,43.6" fill="none" stroke="url(#strokeB)" stroke-width="1.7" opacity="0.65"/>
  <polygon points="181.7,82.4 165.7,107.4 152.0,81.1" fill="#A3E635" opacity="0.22" filter="url(#softGlow)"/>
</g>


<g opacity="0.594" filter="url(#hardGlow)">
  <circle cx="227.4" cy="49.3" r="27.8" fill="#0A1224" opacity="0.65"/>
  <circle cx="227.4" cy="49.3" r="27.8" fill="none" stroke="url(#strokeA)" stroke-width="2.2" opacity="0.85"/>
  <circle cx="227.4" cy="49.3" r="23.9" fill="none" stroke="#06B6D4" stroke-width="1.5" opacity="0.35"/>
  <polygon points="227.0,29.3 244.6,38.9 245.0,58.9 227.9,69.3 210.3,59.7 209.9,39.6" fill="none" stroke="url(#strokeB)" stroke-width="1.2" opacity="0.65"/>
  
</g>


<g opacity="0.460" filter="url(#hardGlow)">
  <circle cx="86.6" cy="31.8" r="35.0" fill="#0A1224" opacity="0.65"/>
  <circle cx="86.6" cy="31.8" r="35.0" fill="none" stroke="url(#strokeA)" stroke-width="2.8" opacity="0.85"/>
  <circle cx="86.6" cy="31.8" r="30.1" fill="none" stroke="#06B6D4" stroke-width="1.5" opacity="0.35"/>
  <polygon points="111.4,36.1 95.3,55.4 70.5,51.2 61.8,27.6 77.9,8.2 102.7,12.5" fill="none" stroke="url(#strokeB)" stroke-width="1.2" opacity="0.65"/>
  
</g>


<g opacity="0.801" filter="url(#hardGlow)">
  <circle cx="1895.8" cy="109.1" r="65.1" fill="#0A1224" opacity="0.65"/>
  <circle cx="1895.8" cy="109.1" r="65.1" fill="none" stroke="url(#strokeA)" stroke-width="5.2" opacity="0.85"/>
  <circle cx="1895.8" cy="109.1" r="56.0" fill="none" stroke="#A3E635" stroke-width="2.0" opacity="0.35"/>
  <polygon points="1877.1,152.1 1849.2,114.5 1867.9,71.5 1914.4,66.1 1942.3,103.8 1923.7,146.7" fill="none" stroke="url(#strokeB)" stroke-width="1.6" opacity="0.65"/>
  <polygon points="1884.5,121.0 1891.1,93.4 1911.7,112.9" fill="#A3E635" opacity="0.22" filter="url(#softGlow)"/>
</g>


<g opacity="0.359" filter="url(#hardGlow)">
  <circle cx="1830.3" cy="140.7" r="27.9" fill="#0A1224" opacity="0.65"/>
  <circle cx="1830.3" cy="140.7" r="27.9" fill="none" stroke="url(#strokeA)" stroke-width="2.2" opacity="0.85"/>
  <circle cx="1830.3" cy="140.7" r="24.0" fill="none" stroke="#06B6D4" stroke-width="1.5" opacity="0.35"/>
  <polygon points="1848.2,149.8 1831.3,160.7 1813.4,151.6 1812.4,131.5 1829.3,120.6 1847.2,129.7" fill="none" stroke="url(#strokeB)" stroke-width="1.2" opacity="0.65"/>
  <polygon points="1835.1,145.8 1823.4,142.2 1832.3,133.9" fill="#06B6D4" opacity="0.22" filter="url(#softGlow)"/>
</g>


<g opacity="0.509" filter="url(#hardGlow)">
  <circle cx="1981.8" cy="48.9" r="35.6" fill="#0A1224" opacity="0.65"/>
  <circle cx="1981.8" cy="48.9" r="35.6" fill="none" stroke="url(#strokeA)" stroke-width="2.8" opacity="0.85"/>
  <circle cx="1981.8" cy="48.9" r="30.6" fill="none" stroke="#06B6D4" stroke-width="1.5" opacity="0.35"/>
  <polygon points="2004.5,37.0 2003.5,62.6 1980.8,74.5 1959.1,60.8 1960.2,35.2 1982.9,23.3" fill="none" stroke="url(#strokeB)" stroke-width="1.2" opacity="0.65"/>
  <polygon points="1990.7,47.7 1978.4,57.2 1976.4,41.8" fill="#06B6D4" opacity="0.22" filter="url(#softGlow)"/>
</g>


<g opacity="0.495" filter="url(#hardGlow)">
  <circle cx="1869.8" cy="57.0" r="24.7" fill="#0A1224" opacity="0.65"/>
  <circle cx="1869.8" cy="57.0" r="24.7" fill="none" stroke="url(#strokeA)" stroke-width="2.0" opacity="0.85"/>
  <circle cx="1869.8" cy="57.0" r="21.3" fill="none" stroke="#06B6D4" stroke-width="1.5" opacity="0.35"/>
  <polygon points="1865.3,39.8 1882.5,44.5 1887.0,61.7 1874.4,74.2 1857.2,69.6 1852.7,52.4" fill="none" stroke="url(#strokeB)" stroke-width="1.2" opacity="0.65"/>
  
</g>


<g opacity="0.327" transform="translate(1627.1,127.9) rotate(1.4)" filter="url(#softGlow)">
  <rect x="-116.7" y="-92.3" width="233.4" height="184.6" rx="18.5" fill="#050A12" opacity="0.25"/>
  <rect x="-116.7" y="-92.3" width="233.4" height="184.6" rx="18.5" fill="none" stroke="url(#strokeA)" stroke-width="9.2" opacity="0.85"/>
  <rect x="-101.9" y="-77.5" width="203.8" height="155.0" rx="12.9" fill="none" stroke="#A3E635" stroke-width="3.7" opacity="0.35"/>
</g>


<g opacity="0.382" transform="translate(133.6,481.7) rotate(-0.7)" filter="url(#softGlow)">
  <rect x="-115.7" y="-96.9" width="231.3" height="193.7" rx="19.4" fill="#050A12" opacity="0.25"/>
  <rect x="-115.7" y="-96.9" width="231.3" height="193.7" rx="19.4" fill="none" stroke="url(#strokeA)" stroke-width="9.7" opacity="0.85"/>
  <rect x="-100.2" y="-81.4" width="200.3" height="162.7" rx="13.6" fill="none" stroke="#A3E635" stroke-width="3.9" opacity="0.35"/>
</g>


<g opacity="0.417" transform="translate(1821.6,924.8) rotate(7.3)" filter="url(#softGlow)">
  <rect x="-94.9" y="-78.7" width="189.7" height="157.3" rx="15.7" fill="#050A12" opacity="0.25"/>
  <rect x="-94.9" y="-78.7" width="189.7" height="157.3" rx="15.7" fill="none" stroke="url(#strokeA)" stroke-width="7.9" opacity="0.85"/>
  <rect x="-82.3" y="-66.1" width="164.6" height="132.2" rx="11.0" fill="none" stroke="#06B6D4" stroke-width="3.1" opacity="0.35"/>
</g>


<g opacity="0.400" transform="translate(1742.5,109.3) rotate(-14.6)" filter="url(#softGlow)">
  <rect x="-60.2" y="-34.7" width="120.4" height="69.3" rx="21.2" fill="none" stroke="#A3E635" stroke-width="11.6" opacity="0.55"/>
  <rect x="-26.5" y="-17.3" width="120.4" height="69.3" rx="21.2" fill="none" stroke="url(#strokeA)" stroke-width="9.6" opacity="0.55"/>
</g>


<g opacity="0.439" transform="translate(1874.1,930.9) rotate(-0.5)" filter="url(#softGlow)">
  <rect x="-39.2" y="-22.6" width="78.4" height="45.2" rx="13.8" fill="none" stroke="#A3E635" stroke-width="7.5" opacity="0.55"/>
  <rect x="-17.2" y="-11.3" width="78.4" height="45.2" rx="13.8" fill="none" stroke="url(#strokeA)" stroke-width="6.3" opacity="0.55"/>
</g>


<g opacity="0.357" transform="translate(1882.7,176.4) rotate(12.2)" filter="url(#softGlow)">
  <rect x="-44.3" y="-25.5" width="88.6" height="51.1" rx="15.6" fill="none" stroke="#A3E635" stroke-width="8.5" opacity="0.55"/>
  <rect x="-19.5" y="-12.8" width="88.6" height="51.1" rx="15.6" fill="none" stroke="url(#strokeA)" stroke-width="7.1" opacity="0.55"/>
</g>


<g opacity="0.247" transform="translate(1826.8,603.1) rotate(-4.2)" filter="url(#softGlow)">
  <rect x="-39.9" y="-23.0" width="79.7" height="45.9" rx="14.0" fill="none" stroke="#A3E635" stroke-width="7.7" opacity="0.55"/>
  <rect x="-17.5" y="-11.5" width="79.7" height="45.9" rx="14.0" fill="none" stroke="url(#strokeA)" stroke-width="6.4" opacity="0.55"/>
</g>


<g opacity="0.392" transform="translate(26.4,980.1) rotate(-5.5)" filter="url(#softGlow)">
  <rect x="-58.3" y="-33.6" width="116.6" height="67.2" rx="20.5" fill="none" stroke="#06B6D4" stroke-width="11.2" opacity="0.55"/>
  <rect x="-25.7" y="-16.8" width="116.6" height="67.2" rx="20.5" fill="none" stroke="url(#strokeA)" stroke-width="9.3" opacity="0.55"/>
</g>


<g opacity="0.303" transform="translate(1781.3,1033.4) rotate(7.9)" filter="url(#softGlow)">
  <rect x="-56.1" y="-32.3" width="112.2" height="64.7" rx="19.8" fill="none" stroke="#A3E635" stroke-width="10.8" opacity="0.55"/>
  <rect x="-24.7" y="-16.2" width="112.2" height="64.7" rx="19.8" fill="none" stroke="url(#strokeA)" stroke-width="9.0" opacity="0.55"/>
</g>


<g opacity="0.163">
  <line x1="1757.9" y1="880.0" x2="1757.9" y2="979.7" stroke="#06B6D4" stroke-width="1.87" opacity="0.45"/>
  <rect x="1754.8" y="935.0" width="6.0" height="49.6" rx="2.0" fill="#0B1020" opacity="0.55" stroke="url(#strokeA)" stroke-width="1.2"/>
</g>

<g opacity="0.163">
  <line x1="247.0" y1="919.7" x2="247.0" y2="969.8" stroke="#06B6D4" stroke-width="2.13" opacity="0.45"/>
  <rect x="241.9" y="950.1" width="10.2" height="19.3" rx="3.4" fill="#0B1020" opacity="0.55" stroke="url(#strokeA)" stroke-width="1.2"/>
</g>
<circle cx="1892.1" cy="1026.0" r="2.0" fill="#A3E635" opacity="0.20" filter="url(#softGlow)"/>
<circle cx="1892.3" cy="955.0" r="2.0" fill="#A3E635" opacity="0.17" filter="url(#softGlow)"/>
<circle cx="61.0" cy="1076.7" r="2.2" fill="#A3E635" opacity="0.17" filter="url(#softGlow)"/>
<circle cx="41.8" cy="886.5" r="1.4" fill="#A3E635" opacity="0.16" filter="url(#softGlow)"/>
<circle cx="165.9" cy="239.2" r="2.1" fill="#A3E635" opacity="0.20" filter="url(#softGlow)"/>
<circle cx="1753.8" cy="208.7" r="1.8" fill="#A3E635" opacity="0.25" filter="url(#softGlow)"/>
<circle cx="233.0" cy="212.6" r="2.7" fill="#A3E635" opacity="0.12" filter="url(#softGlow)"/>
<circle cx="78.6" cy="123.6" r="3.0" fill="#A3E635" opacity="0.18" filter="url(#softGlow)"/>
<circle cx="1323.6" cy="94.7" r="2.3" fill="#A3E635" opacity="0.18" filter="url(#softGlow)"/>
<circle cx="1897.9" cy="0.2" r="1.5" fill="#A3E635" opacity="0.26" filter="url(#softGlow)"/>
<circle cx="55.6" cy="730.1" r="1.5" fill="#A3E635" opacity="0.20" filter="url(#softGlow)"/>
<circle cx="1787.2" cy="933.7" r="1.7" fill="#A3E635" opacity="0.18" filter="url(#softGlow)"/>
<circle cx="988.5" cy="1031.7" r="2.8" fill="#A3E635" opacity="0.24" filter="url(#softGlow)"/>
<circle cx="118.0" cy="1054.8" r="2.5" fill="#A3E635" opacity="0.23" filter="url(#softGlow)"/>
<circle cx="6.2" cy="708.3" r="1.4" fill="#A3E635" opacity="0.25" filter="url(#softGlow)"/>
<circle cx="94.8" cy="838.2" r="3.1" fill="#A3E635" opacity="0.15" filter="url(#softGlow)"/>
<circle cx="104.3" cy="128.9" r="1.7" fill="#A3E635" opacity="0.21" filter="url(#softGlow)"/>
<circle cx="1874.0" cy="630.1" r="3.0" fill="#A3E635" opacity="0.23" filter="url(#softGlow)"/>
<circle cx="1850.1" cy="213.4" r="2.3" fill="#A3E635" opacity="0.11" filter="url(#softGlow)"/>
<circle cx="1711.4" cy="923.7" r="2.0" fill="#A3E635" opacity="0.11" filter="url(#softGlow)"/>
<circle cx="1366.8" cy="1066.2" r="1.4" fill="#A3E635" opacity="0.11" filter="url(#softGlow)"/>
<circle cx="1859.1" cy="960.1" r="1.5" fill="#A3E635" opacity="0.17" filter="url(#softGlow)"/>
<circle cx="141.2" cy="73.4" r="2.6" fill="#A3E635" opacity="0.23" filter="url(#softGlow)"/>
<circle cx="561.7" cy="1005.6" r="3.2" fill="#A3E635" opacity="0.20" filter="url(#softGlow)"/>
<circle cx="161.0" cy="485.0" r="1.9" fill="#A3E635" opacity="0.19" filter="url(#softGlow)"/>
<circle cx="1867.5" cy="292.8" r="1.3" fill="#A3E635" opacity="0.24" filter="url(#softGlow)"/>
<circle cx="1799.7" cy="167.2" r="2.2" fill="#A3E635" opacity="0.11" filter="url(#softGlow)"/>
<circle cx="1895.9" cy="822.1" r="1.8" fill="#A3E635" opacity="0.27" filter="url(#softGlow)"/>
<circle cx="1560.3" cy="1001.0" r="1.3" fill="#A3E635" opacity="0.27" filter="url(#softGlow)"/>
<circle cx="1730.6" cy="46.4" r="1.7" fill="#A3E635" opacity="0.17" filter="url(#softGlow)"/>
<circle cx="1828.8" cy="47.3" r="2.0" fill="#A3E635" opacity="0.11" filter="url(#softGlow)"/>
</svg>