<svg xmlns="http://www.w3.org/2000/svg" width="1920" height="1080" viewBox="0 0 1920 1080" preserveAspectRatio="xMidYMid slice">
<defs>
  <linearGradient id="g0" x1="0" y1="0" x2="1" y2="1">
    <stop offset="0" stop-color="#0B1020"/>
    <stop offset="0.55" stop-color="#00E5FF" stop-opacity="0.9"/>
    <stop offset="1" stop-color="#051018"/>
  </linearGradient>
  <radialGradient id="g1" cx="20%" cy="15%" r="70%">
    <stop offset="0" stop-color="#7C4DFF" stop-opacity="0.38"/>
    <stop offset="0.6" stop-color="#7C4DFF" stop-opacity="0.08"/>
    <stop offset="1" stop-color="#7C4DFF" stop-opacity="0"/>
  </radialGradient>
  <radialGradient id="g2" cx="85%" cy="80%" r="75%">
    <stop offset="0" stop-color="#7C4DFF" stop-opacity="0.28"/>
    <stop offset="0.65" stop-color="#7C4DFF" stop-opacity="0.06"/>
    <stop offset="1" stop-color="#7C4DFF" stop-opacity="0"/>
  </radialGradient>
  <filter id="softGlow" x="-30%" y="-30%" width="160%" height="160%">
    <feGaussianBlur stdDeviation="12" result="b"/>
    <feMerge>
      <feMergeNode in="b"/>
      <feMergeNode in="SourceGraphic"/>
    </feMerge>
  </filter>
  <filter id="hardGlow" x="-40%" y="-40%" width="180%" height="180%">
    <feGaussianBlur stdDeviation="6" result="b"/>
    <feColorMatrix in="b" type="matrix" values="1 0 0 0 0  0 1 0 0 0  0 0 1 0 0  0 0 0 18 -7" result="c"/>
    <feMerge>
      <feMergeNode in="c"/>
      <feMergeNode in="SourceGraphic"/>
    </feMerge>
  </filter>
  <linearGradient id="strokeA" x1="0" y1="0" x2="1" y2="0">
    <stop offset="0" stop-color="#7C4DFF" stop-opacity="0.9"/>
    <stop offset="0.5" stop-color="#FFFFFF" stop-opacity="0.25"/>
    <stop offset="1" stop-color="#7C4DFF" stop-opacity="0.7"/>
  </linearGradient>
  <linearGradient id="strokeB" x1="0" y1="0" x2="0" y2="1">
    <stop offset="0" stop-color="#FFFFFF" stop-opacity="0.18"/>
    <stop offset="1" stop-color="#7C4DFF" stop-opacity="0.55"/>
  </linearGradient>
</defs>
<rect x="0" y="0" width="1920" height="1080" fill="url(#g0)"/>
<rect x="0" y="0" width="1920" height="1080" fill="url(#g1)"/>
<rect x="0" y="0" width="1920" height="1080" fill="url(#g2)"/>


<defs>
  <radialGradient id="vign" cx="0.5000" cy="0.5093" r="0.85">
    <stop offset="0" stop-color="#000000" stop-opacity="0"/>
    <stop offset="0.55" stop-color="#000000" stop-opacity="0.217"/>
    <stop offset="1" stop-color="#000000" stop-opacity="0.620"/>
  </radialGradient>
</defs>
<rect x="0" y="0" width="1920" height="1080" fill="url(#vign)"/>

<g opacity="0.250" filter="url(#softGlow)"><path d="M 1716.8,1064.5 L 96.7,1064.5 L 96.7,102.3 L 184.3,102.3 L 184.3,752.8 " fill="none" stroke="url(#strokeB)" stroke-width="2.05" stroke-linecap="round" stroke-linejoin="round"/><circle cx="96.7" cy="102.3" r="3.7" fill="#FFB300" opacity="0.45"/><circle cx="184.3" cy="752.8" r="3.1" fill="#FFB300" opacity="0.45"/><circle cx="1716.8" cy="1064.5" r="2.3" fill="#FFB300" opacity="0.45"/></g>
<g opacity="0.250" filter="url(#softGlow)"><path d="M 1863.6,757.2 L 1847.7,757.2 L 1847.7,140.0 L 95.0,140.0 L 95.0,48.0 " fill="none" stroke="url(#strokeB)" stroke-width="1.23" stroke-linecap="round" stroke-linejoin="round"/><circle cx="1847.7" cy="757.2" r="3.7" fill="#FFB300" opacity="0.45"/><circle cx="95.0" cy="48.0" r="3.1" fill="#FFB300" opacity="0.45"/><circle cx="1847.7" cy="140.0" r="3.3" fill="#FFB300" opacity="0.45"/></g>
<g opacity="0.250" filter="url(#softGlow)"><path d="M 1640.5,99.1 L 1189.9,99.1 L 1189.9,974.5 L 1753.5,974.5 L 1753.5,786.1 " fill="none" stroke="url(#strokeB)" stroke-width="1.96" stroke-linecap="round" stroke-linejoin="round"/><circle cx="1753.5" cy="786.1" r="3.1" fill="#FFB300" opacity="0.45"/><circle cx="1753.5" cy="974.5" r="2.5" fill="#FFB300" opacity="0.45"/><circle cx="1640.5" cy="99.1" r="2.0" fill="#FFB300" opacity="0.45"/></g>
<g opacity="0.250" filter="url(#softGlow)"><path d="M 54.1,44.5 L 1871.1,44.5 L 1871.1,875.9 L 1752.9,875.9 L 1752.9,931.5 " fill="none" stroke="url(#strokeB)" stroke-width="1.65" stroke-linecap="round" stroke-linejoin="round"/><circle cx="1871.1" cy="44.5" r="3.4" fill="#FFB300" opacity="0.45"/><circle cx="1752.9" cy="931.5" r="3.7" fill="#FFB300" opacity="0.45"/><circle cx="1871.1" cy="875.9" r="4.1" fill="#FFB300" opacity="0.45"/></g>
<g opacity="0.250" filter="url(#softGlow)"><path d="M 1716.2,492.0 L 1194.7,492.0 L 1194.7,968.4 L 184.8,968.4 L 184.8,976.3 " fill="none" stroke="url(#strokeB)" stroke-width="2.12" stroke-linecap="round" stroke-linejoin="round"/><circle cx="1716.2" cy="492.0" r="2.8" fill="#FFB300" opacity="0.45"/><circle cx="184.8" cy="976.3" r="4.0" fill="#FFB300" opacity="0.45"/><circle cx="184.8" cy="968.4" r="3.8" fill="#FFB300" opacity="0.45"/></g>
<g opacity="0.250" filter="url(#softGlow)"><path d="M 1887.5,17.2 L 1082.0,17.2 L 1082.0,41.8 L 1806.6,41.8 L 1806.6,932.4 " fill="none" stroke="url(#strokeB)" stroke-width="1.18" stroke-linecap="round" stroke-linejoin="round"/><circle cx="1082.0" cy="17.2" r="4.0" fill="#FFB300" opacity="0.45"/><circle cx="1806.6" cy="932.4" r="2.9" fill="#FFB300" opacity="0.45"/><circle cx="1887.5" cy="17.2" r="2.0" fill="#FFB300" opacity="0.45"/></g>
<g opacity="0.250" filter="url(#softGlow)"><path d="M 902.6,105.1 L 1854.4,105.1 L 1854.4,945.4 L 157.1,945.4 L 157.1,161.3 " fill="none" stroke="url(#strokeB)" stroke-width="1.21" stroke-linecap="round" stroke-linejoin="round"/><circle cx="1854.4" cy="105.1" r="2.0" fill="#FFB300" opacity="0.45"/><circle cx="902.6" cy="105.1" r="2.5" fill="#FFB300" opacity="0.45"/><circle cx="157.1" cy="945.4" r="3.8" fill="#FFB300" opacity="0.45"/></g>
<g opacity="0.250" filter="url(#softGlow)"><path d="M 1854.1,471.0 L 84.8,471.0 L 84.8,401.9 L 192.9,401.9 L 192.9,1061.6 " fill="none" stroke="url(#strokeB)" stroke-width="1.89" stroke-linecap="round" stroke-linejoin="round"/><circle cx="84.8" cy="401.9" r="3.6" fill="#FFB300" opacity="0.45"/><circle cx="192.9" cy="401.9" r="2.6" fill="#FFB300" opacity="0.45"/><circle cx="84.8" cy="471.0" r="2.3" fill="#FFB300" opacity="0.45"/></g>
<g opacity="0.250" filter="url(#softGlow)"><path d="M 1843.5,82.8 L 3.0,82.8 L 3.0,43.7 L 265.9,43.7 L 265.9,890.8 " fill="none" stroke="url(#strokeB)" stroke-width="1.82" stroke-linecap="round" stroke-linejoin="round"/><circle cx="3.0" cy="82.8" r="2.6" fill="#FFB300" opacity="0.45"/><circle cx="265.9" cy="890.8" r="3.9" fill="#FFB300" opacity="0.45"/><circle cx="265.9" cy="43.7" r="2.7" fill="#FFB300" opacity="0.45"/></g>
<g opacity="0.250" filter="url(#softGlow)"><path d="M 207.9,1071.9 L 1810.0,1071.9 L 1810.0,67.8 L 208.5,67.8 L 208.5,215.0 " fill="none" stroke="url(#strokeB)" stroke-width="2.01" stroke-linecap="round" stroke-linejoin="round"/><circle cx="208.5" cy="67.8" r="2.9" fill="#FFB300" opacity="0.45"/><circle cx="208.5" cy="215.0" r="2.4" fill="#FFB300" opacity="0.45"/><circle cx="1810.0" cy="1071.9" r="3.5" fill="#FFB300" opacity="0.45"/></g>
<g opacity="0.250" filter="url(#softGlow)"><path d="M 1751.5,1039.3 L 1778.6,1039.3 L 1778.6,166.2 L 173.1,166.2 L 173.1,110.8 " fill="none" stroke="url(#strokeB)" stroke-width="2.15" stroke-linecap="round" stroke-linejoin="round"/><circle cx="173.1" cy="166.2" r="2.9" fill="#FFB300" opacity="0.45"/><circle cx="1778.6" cy="166.2" r="2.2" fill="#FFB300" opacity="0.45"/><circle cx="1751.5" cy="1039.3" r="3.4" fill="#FFB300" opacity="0.45"/></g>
<g opacity="0.250" filter="url(#softGlow)"><path d="M 1335.4,14.5 L 1843.5,14.5 L 1843.5,912.6 L 152.5,912.6 L 152.5,995.2 " fill="none" stroke="url(#strokeB)" stroke-width="1.86" stroke-linecap="round" stroke-linejoin="round"/><circle cx="152.5" cy="995.2" r="2.0" fill="#FFB300" opacity="0.45"/><circle cx="1843.5" cy="14.5" r="4.0" fill="#FFB300" opacity="0.45"/><circle cx="152.5" cy="912.6" r="3.2" fill="#FFB300" opacity="0.45"/></g>
<g opacity="0.250" filter="url(#softGlow)"><path d="M 1722.2,1054.2 L 1905.3,1054.2 L 1905.3,144.8 L 1567.5,144.8 L 1567.5,1016.4 " fill="none" stroke="url(#strokeB)" stroke-width="1.18" stroke-linecap="round" stroke-linejoin="round"/><circle cx="1567.5" cy="144.8" r="3.1" fill="#FFB300" opacity="0.45"/><circle cx="1567.5" cy="1016.4" r="3.7" fill="#FFB300" opacity="0.45"/><circle cx="1905.3" cy="144.8" r="2.8" fill="#FFB300" opacity="0.45"/></g>
<g opacity="0.250" filter="url(#softGlow)"><path d="M 6.7,925.6 L 1868.2,925.6 L 1868.2,904.6 L 89.9,904.6 L 89.9,6.8 " fill="none" stroke="url(#strokeB)" stroke-width="2.06" stroke-linecap="round" stroke-linejoin="round"/><circle cx="1868.2" cy="904.6" r="2.3" fill="#FFB300" opacity="0.45"/><circle cx="1868.2" cy="925.6" r="3.1" fill="#FFB300" opacity="0.45"/><circle cx="89.9" cy="904.6" r="4.2" fill="#FFB300" opacity="0.45"/></g>
<g opacity="0.250" filter="url(#softGlow)"><path d="M 1782.3,285.1 L 1817.5,285.1 L 1817.5,60.4 L 142.9,60.4 L 142.9,137.4 " fill="none" stroke="url(#strokeB)" stroke-width="1.89" stroke-linecap="round" stroke-linejoin="round"/><circle cx="142.9" cy="137.4" r="3.5" fill="#FFB300" opacity="0.45"/><circle cx="1817.5" cy="285.1" r="2.9" fill="#FFB300" opacity="0.45"/><circle cx="1817.5" cy="60.4" r="2.2" fill="#FFB300" opacity="0.45"/></g>
<g opacity="0.250" filter="url(#softGlow)"><path d="M 180.0,62.6 L 105.5,62.6 L 105.5,486.4 L 1866.3,486.4 L 1866.3,553.7 " fill="none" stroke="url(#strokeB)" stroke-width="1.54" stroke-linecap="round" stroke-linejoin="round"/><circle cx="1866.3" cy="486.4" r="3.3" fill="#FFB300" opacity="0.45"/><circle cx="105.5" cy="62.6" r="2.0" fill="#FFB300" opacity="0.45"/><circle cx="1866.3" cy="553.7" r="3.6" fill="#FFB300" opacity="0.45"/></g>
<g opacity="0.250" filter="url(#softGlow)"><path d="M 89.9,400.2 L 12.1,400.2 L 12.1,125.9 L 1828.0,125.9 L 1828.0,362.7 " fill="none" stroke="url(#strokeB)" stroke-width="1.95" stroke-linecap="round" stroke-linejoin="round"/><circle cx="1828.0" cy="362.7" r="2.6" fill="#FFB300" opacity="0.45"/><circle cx="12.1" cy="400.2" r="3.2" fill="#FFB300" opacity="0.45"/><circle cx="1828.0" cy="125.9" r="3.4" fill="#FFB300" opacity="0.45"/></g>
<g opacity="0.250" filter="url(#softGlow)"><path d="M 93.3,186.5 L 149.5,186.5 L 149.5,981.6 L 1026.7,981.6 L 1026.7,126.7 " fill="none" stroke="url(#strokeB)" stroke-width="1.84" stroke-linecap="round" stroke-linejoin="round"/><circle cx="149.5" cy="186.5" r="3.1" fill="#FFB300" opacity="0.45"/><circle cx="149.5" cy="981.6" r="3.5" fill="#FFB300" opacity="0.45"/><circle cx="93.3" cy="186.5" r="2.0" fill="#FFB300" opacity="0.45"/></g>
<g opacity="0.250" filter="url(#softGlow)"><path d="M 1781.3,154.7 L 1638.3,154.7 L 1638.3,107.2 L 946.3,107.2 L 946.3,3.5 " fill="none" stroke="url(#strokeB)" stroke-width="1.13" stroke-linecap="round" stroke-linejoin="round"/><circle cx="946.3" cy="107.2" r="3.6" fill="#FFB300" opacity="0.45"/><circle cx="1638.3" cy="154.7" r="4.0" fill="#FFB300" opacity="0.45"/><circle cx="946.3" cy="3.5" r="2.8" fill="#FFB300" opacity="0.45"/></g>
<g opacity="0.250" filter="url(#softGlow)"><path d="M 164.7,947.9 L 6.9,947.9 L 6.9,523.9 L 196.0,523.9 L 196.0,68.9 " fill="none" stroke="url(#strokeB)" stroke-width="1.70" stroke-linecap="round" stroke-linejoin="round"/><circle cx="6.9" cy="947.9" r="3.7" fill="#FFB300" opacity="0.45"/><circle cx="164.7" cy="947.9" r="3.5" fill="#FFB300" opacity="0.45"/><circle cx="196.0" cy="523.9" r="2.3" fill="#FFB300" opacity="0.45"/></g>
<g opacity="0.250" filter="url(#softGlow)"><path d="M 1859.3,1072.9 L 224.5,1072.9 L 224.5,913.4 L 1800.3,913.4 L 1800.3,52.0 " fill="none" stroke="url(#strokeB)" stroke-width="1.58" stroke-linecap="round" stroke-linejoin="round"/><circle cx="1859.3" cy="1072.9" r="3.1" fill="#FFB300" opacity="0.45"/><circle cx="224.5" cy="1072.9" r="2.8" fill="#FFB300" opacity="0.45"/><circle cx="224.5" cy="913.4" r="2.4" fill="#FFB300" opacity="0.45"/></g>

<g opacity="0.832" filter="url(#hardGlow)">
  <circle cx="120.8" cy="51.6" r="65.7" fill="#0A1224" opacity="0.65"/>
  <circle cx="120.8" cy="51.6" r="65.7" fill="none" stroke="url(#strokeA)" stroke-width="5.3" opacity="0.85"/>
  <circle cx="120.8" cy="51.6" r="56.5" fill="none" stroke="#7C4DFF" stroke-width="2.0" opacity="0.35"/>
  <polygon points="94.5,12.3 141.7,9.1 168.0,48.4 147.2,90.9 99.9,94.1 73.6,54.7" fill="none" stroke="url(#strokeB)" stroke-width="1.6" opacity="0.65"/>
  <polygon points="116.9,35.5 136.7,56.2 108.9,63.1" fill="#7C4DFF" opacity="0.22" filter="url(#softGlow)"/>
</g>


<g opacity="0.645" filter="url(#hardGlow)">
  <circle cx="84.3" cy="80.0" r="27.8" fill="#0A1224" opacity="0.65"/>
  <circle cx="84.3" cy="80.0" r="27.8" fill="none" stroke="url(#strokeA)" stroke-width="2.2" opacity="0.85"/>
  <circle cx="84.3" cy="80.0" r="23.9" fill="none" stroke="#FFB300" stroke-width="1.5" opacity="0.35"/>
  <polygon points="76.7,98.5 64.5,82.7 72.1,64.2 91.9,61.5 104.1,77.3 96.5,95.8" fill="none" stroke="url(#strokeB)" stroke-width="1.2" opacity="0.65"/>
  
</g>


<g opacity="0.589" filter="url(#hardGlow)">
  <circle cx="211.0" cy="127.4" r="23.4" fill="#0A1224" opacity="0.65"/>
  <circle cx="211.0" cy="127.4" r="23.4" fill="none" stroke="url(#strokeA)" stroke-width="2.0" opacity="0.85"/>
  <circle cx="211.0" cy="127.4" r="20.2" fill="none" stroke="#FFB300" stroke-width="1.5" opacity="0.35"/>
  <polygon points="227.8,129.0 217.9,142.8 201.1,141.1 194.2,125.7 204.0,112.0 220.8,113.7" fill="none" stroke="url(#strokeB)" stroke-width="1.2" opacity="0.65"/>
  <polygon points="216.3,129.9 206.1,130.7 210.5,121.5" fill="#FFB300" opacity="0.22" filter="url(#softGlow)"/>
</g>


<g opacity="0.356" filter="url(#hardGlow)">
  <circle cx="159.4" cy="125.9" r="29.1" fill="#0A1224" opacity="0.65"/>
  <circle cx="159.4" cy="125.9" r="29.1" fill="none" stroke="url(#strokeA)" stroke-width="2.3" opacity="0.85"/>
  <circle cx="159.4" cy="125.9" r="25.0" fill="none" stroke="#FFB300" stroke-width="1.5" opacity="0.35"/>
  <polygon points="144.9,110.8 165.2,105.8 179.7,120.9 173.9,141.0 153.5,146.0 139.1,130.8" fill="none" stroke="url(#strokeB)" stroke-width="1.2" opacity="0.65"/>
  <polygon points="156.4,119.2 166.7,126.7 155.1,131.8" fill="#FFB300" opacity="0.22" filter="url(#softGlow)"/>
</g>


<g opacity="0.806" filter="url(#hardGlow)">
  <circle cx="918.9" cy="76.9" r="44.4" fill="#0A1224" opacity="0.65"/>
  <circle cx="918.9" cy="76.9" r="44.4" fill="none" stroke="url(#strokeA)" stroke-width="3.6" opacity="0.85"/>
  <circle cx="918.9" cy="76.9" r="38.2" fill="none" stroke="#7C4DFF" stroke-width="1.5" opacity="0.35"/>
  <polygon points="887.0,74.4 905.1,48.0 937.0,50.5 950.8,79.4 932.7,105.7 900.8,103.3" fill="none" stroke="url(#strokeB)" stroke-width="1.2" opacity="0.65"/>
  <polygon points="908.7,72.2 928.0,70.4 920.0,88.0" fill="#7C4DFF" opacity="0.22" filter="url(#softGlow)"/>
</g>


<g opacity="0.469" filter="url(#hardGlow)">
  <circle cx="852.5" cy="117.9" r="16.3" fill="#0A1224" opacity="0.65"/>
  <circle cx="852.5" cy="117.9" r="16.3" fill="none" stroke="url(#strokeA)" stroke-width="2.0" opacity="0.85"/>
  <circle cx="852.5" cy="117.9" r="14.0" fill="none" stroke="#FFB300" stroke-width="1.5" opacity="0.35"/>
  <polygon points="851.7,106.2 862.2,111.3 863.1,123.0 853.4,129.6 842.9,124.6 842.0,112.9" fill="none" stroke="url(#strokeB)" stroke-width="1.2" opacity="0.65"/>
  
</g>


<g opacity="0.633" filter="url(#hardGlow)">
  <circle cx="897.9" cy="80.4" r="22.4" fill="#0A1224" opacity="0.65"/>
  <circle cx="897.9" cy="80.4" r="22.4" fill="none" stroke="url(#strokeA)" stroke-width="2.0" opacity="0.85"/>
  <circle cx="897.9" cy="80.4" r="19.3" fill="none" stroke="#FFB300" stroke-width="1.5" opacity="0.35"/>
  <polygon points="913.1,85.9 900.8,96.3 885.6,90.9 882.7,75.0 895.0,64.6 910.2,70.0" fill="none" stroke="url(#strokeB)" stroke-width="1.2" opacity="0.65"/>
  <polygon points="902.2,84.0 892.6,82.4 898.8,74.9" fill="#FFB300" opacity="0.22" filter="url(#softGlow)"/>
</g>


<g opacity="0.803" filter="url(#hardGlow)">
  <circle cx="80.1" cy="424.7" r="46.1" fill="#0A1224" opacity="0.65"/>
  <circle cx="80.1" cy="424.7" r="46.1" fill="none" stroke="url(#strokeA)" stroke-width="3.7" opacity="0.85"/>
  <circle cx="80.1" cy="424.7" r="39.7" fill="none" stroke="#7C4DFF" stroke-width="1.5" opacity="0.35"/>
  <polygon points="61.6,397.1 94.7,394.8 113.3,422.4 98.7,452.2 65.6,454.5 47.0,427.0" fill="none" stroke="url(#strokeB)" stroke-width="1.2" opacity="0.65"/>
  <polygon points="77.3,413.4 91.3,427.9 71.8,432.8" fill="#7C4DFF" opacity="0.22" filter="url(#softGlow)"/>
</g>


<g opacity="0.629" filter="url(#hardGlow)">
  <circle cx="144.5" cy="465.5" r="20.5" fill="#0A1224" opacity="0.65"/>
  <circle cx="144.5" cy="465.5" r="20.5" fill="none" stroke="url(#strokeA)" stroke-width="2.0" opacity="0.85"/>
  <circle cx="144.5" cy="465.5" r="17.6" fill="none" stroke="#FFB300" stroke-width="1.5" opacity="0.35"/>
  <polygon points="130.9,459.7 142.7,450.8 156.3,456.6 158.1,471.3 146.3,480.2 132.7,474.4" fill="none" stroke="url(#strokeB)" stroke-width="1.2" opacity="0.65"/>
  
</g>


<g opacity="0.501" filter="url(#hardGlow)">
  <circle cx="147.6" cy="401.1" r="17.6" fill="#0A1224" opacity="0.65"/>
  <circle cx="147.6" cy="401.1" r="17.6" fill="none" stroke="url(#strokeA)" stroke-width="2.0" opacity="0.85"/>
  <circle cx="147.6" cy="401.1" r="15.1" fill="none" stroke="#FFB300" stroke-width="1.5" opacity="0.35"/>
  <polygon points="160.1,402.6 152.5,412.8 140.0,411.3 135.0,399.6 142.6,389.5 155.2,391.0" fill="none" stroke="url(#strokeB)" stroke-width="1.2" opacity="0.65"/>
  <polygon points="151.5,403.1 143.8,403.5 147.3,396.7" fill="#FFB300" opacity="0.22" filter="url(#softGlow)"/>
</g>


<g opacity="0.853" filter="url(#hardGlow)">
  <circle cx="38.5" cy="78.1" r="65.0" fill="#0A1224" opacity="0.65"/>
  <circle cx="38.5" cy="78.1" r="65.0" fill="none" stroke="url(#strokeA)" stroke-width="5.2" opacity="0.85"/>
  <circle cx="38.5" cy="78.1" r="55.9" fill="none" stroke="#7C4DFF" stroke-width="2.0" opacity="0.35"/>
  <polygon points="6.7,112.6 -7.2,67.8 24.6,33.4 70.3,43.7 84.2,88.4 52.4,122.9" fill="none" stroke="url(#strokeB)" stroke-width="1.6" opacity="0.65"/>
  <polygon points="23.9,85.7 39.3,61.8 52.3,87.0" fill="#7C4DFF" opacity="0.22" filter="url(#softGlow)"/>
</g>


<g opacity="0.468" filter="url(#hardGlow)">
  <circle cx="42.6" cy="123.3" r="31.4" fill="#0A1224" opacity="0.65"/>
  <circle cx="42.6" cy="123.3" r="31.4" fill="none" stroke="url(#strokeA)" stroke-width="2.5" opacity="0.85"/>
  <circle cx="42.6" cy="123.3" r="27.0" fill="none" stroke="#FFB300" stroke-width="1.5" opacity="0.35"/>
  <polygon points="63.8,115.5 59.9,137.8 38.7,145.6 21.3,131.1 25.2,108.8 46.5,101.0" fill="none" stroke="url(#strokeB)" stroke-width="1.2" opacity="0.65"/>
  <polygon points="50.5,123.3 38.6,130.2 38.6,116.5" fill="#FFB300" opacity="0.22" filter="url(#softGlow)"/>
</g>


<g opacity="0.604" filter="url(#hardGlow)">
  <circle cx="29.3" cy="107.8" r="35.0" fill="#0A1224" opacity="0.65"/>
  <circle cx="29.3" cy="107.8" r="35.0" fill="none" stroke="url(#strokeA)" stroke-width="2.8" opacity="0.85"/>
  <circle cx="29.3" cy="107.8" r="30.1" fill="none" stroke="#FFB300" stroke-width="1.5" opacity="0.35"/>
  <polygon points="5.1,115.0 11.0,90.5 35.1,83.3 53.4,100.6 47.6,125.1 23.4,132.3" fill="none" stroke="url(#strokeB)" stroke-width="1.2" opacity="0.65"/>
  
</g>


<g opacity="0.814" filter="url(#hardGlow)">
  <circle cx="599.1" cy="1047.7" r="49.4" fill="#0A1224" opacity="0.65"/>
  <circle cx="599.1" cy="1047.7" r="49.4" fill="none" stroke="url(#strokeA)" stroke-width="4.0" opacity="0.85"/>
  <circle cx="599.1" cy="1047.7" r="42.5" fill="none" stroke="#7C4DFF" stroke-width="1.5" opacity="0.35"/>
  <polygon points="567.3,1063.9 569.2,1028.3 601.0,1012.2 630.8,1031.6 628.9,1067.2 597.1,1083.3" fill="none" stroke="url(#strokeB)" stroke-width="1.2" opacity="0.65"/>
  <polygon points="586.7,1049.2 603.9,1036.3 606.5,1057.7" fill="#7C4DFF" opacity="0.22" filter="url(#softGlow)"/>
</g>


<g opacity="0.587" filter="url(#hardGlow)">
  <circle cx="583.5" cy="1098.1" r="23.1" fill="#0A1224" opacity="0.65"/>
  <circle cx="583.5" cy="1098.1" r="23.1" fill="none" stroke="url(#strokeA)" stroke-width="2.0" opacity="0.85"/>
  <circle cx="583.5" cy="1098.1" r="19.9" fill="none" stroke="#FFB300" stroke-width="1.5" opacity="0.35"/>
  <polygon points="590.3,1082.9 600.1,1096.4 593.2,1111.6 576.6,1113.3 566.9,1099.7 573.8,1084.6" fill="none" stroke="url(#strokeB)" stroke-width="1.2" opacity="0.65"/>
  <polygon points="587.5,1093.9 585.1,1103.7 577.8,1096.7" fill="#FFB300" opacity="0.22" filter="url(#softGlow)"/>
</g>


<g opacity="0.386" filter="url(#hardGlow)">
  <circle cx="644.7" cy="1050.9" r="18.4" fill="#0A1224" opacity="0.65"/>
  <circle cx="644.7" cy="1050.9" r="18.4" fill="none" stroke="url(#strokeA)" stroke-width="2.0" opacity="0.85"/>
  <circle cx="644.7" cy="1050.9" r="15.8" fill="none" stroke="#FFB300" stroke-width="1.5" opacity="0.35"/>
  <polygon points="657.7,1048.3 653.4,1060.9 640.4,1063.4 631.7,1053.5 636.0,1040.9 649.0,1038.4" fill="none" stroke="url(#strokeB)" stroke-width="1.2" opacity="0.65"/>
  
</g>


<g opacity="0.633" filter="url(#hardGlow)">
  <circle cx="609.1" cy="1013.8" r="26.7" fill="#0A1224" opacity="0.65"/>
  <circle cx="609.1" cy="1013.8" r="26.7" fill="none" stroke="url(#strokeA)" stroke-width="2.1" opacity="0.85"/>
  <circle cx="609.1" cy="1013.8" r="23.0" fill="none" stroke="#FFB300" stroke-width="1.5" opacity="0.35"/>
  <polygon points="591.3,1021.0 593.9,1002.0 611.8,994.7 627.0,1006.5 624.3,1025.6 606.5,1032.9" fill="none" stroke="url(#strokeB)" stroke-width="1.2" opacity="0.65"/>
  <polygon points="602.4,1014.0 612.3,1007.8 612.7,1019.5" fill="#FFB300" opacity="0.22" filter="url(#softGlow)"/>
</g>


<g opacity="0.916" filter="url(#hardGlow)">
  <circle cx="1842.2" cy="597.8" r="60.1" fill="#0A1224" opacity="0.65"/>
  <circle cx="1842.2" cy="597.8" r="60.1" fill="none" stroke="url(#strokeA)" stroke-width="4.8" opacity="0.85"/>
  <circle cx="1842.2" cy="597.8" r="51.7" fill="none" stroke="#7C4DFF" stroke-width="1.8" opacity="0.35"/>
  <polygon points="1869.3,631.4 1826.6,638.1 1799.4,604.5 1815.0,564.1 1857.7,557.4 1884.9,591.1" fill="none" stroke="url(#strokeB)" stroke-width="1.5" opacity="0.65"/>
  <polygon points="1847.1,612.1 1827.3,594.9 1852.1,586.4" fill="#7C4DFF" opacity="0.22" filter="url(#softGlow)"/>
</g>


<g opacity="0.476" filter="url(#hardGlow)">
  <circle cx="1800.0" cy="542.3" r="23.3" fill="#0A1224" opacity="0.65"/>
  <circle cx="1800.0" cy="542.3" r="23.3" fill="none" stroke="url(#strokeA)" stroke-width="2.0" opacity="0.85"/>
  <circle cx="1800.0" cy="542.3" r="20.0" fill="none" stroke="#FFB300" stroke-width="1.5" opacity="0.35"/>
  <polygon points="1794.1,526.5 1810.7,529.4 1816.5,545.1 1805.8,558.0 1789.3,555.2 1783.4,539.5" fill="none" stroke="url(#strokeB)" stroke-width="1.2" opacity="0.65"/>
  
</g>


<g opacity="0.488" filter="url(#hardGlow)">
  <circle cx="1829.2" cy="667.9" r="23.9" fill="#0A1224" opacity="0.65"/>
  <circle cx="1829.2" cy="667.9" r="23.9" fill="none" stroke="url(#strokeA)" stroke-width="2.0" opacity="0.85"/>
  <circle cx="1829.2" cy="667.9" r="20.6" fill="none" stroke="#FFB300" stroke-width="1.5" opacity="0.35"/>
  <polygon points="1815.7,657.2 1831.7,650.9 1845.2,661.5 1842.7,678.6 1826.7,684.9 1813.2,674.2" fill="none" stroke="url(#strokeB)" stroke-width="1.2" opacity="0.65"/>
  
</g>


<g opacity="0.315" transform="translate(1804.1,49.6) rotate(1.0)" filter="url(#softGlow)">
  <rect x="-97.6" y="-74.3" width="195.2" height="148.6" rx="14.9" fill="#050A12" opacity="0.25"/>
  <rect x="-97.6" y="-74.3" width="195.2" height="148.6" rx="14.9" fill="none" stroke="url(#strokeA)" stroke-width="7.4" opacity="0.85"/>
  <rect x="-85.7" y="-62.4" width="171.4" height="124.8" rx="10.4" fill="none" stroke="#FFB300" stroke-width="3.0" opacity="0.35"/>
</g>


<g opacity="0.322" transform="translate(79.4,54.3) rotate(6.1)" filter="url(#softGlow)">
  <rect x="-103.2" y="-94.8" width="206.5" height="189.5" rx="19.0" fill="#050A12" opacity="0.25"/>
  <rect x="-103.2" y="-94.8" width="206.5" height="189.5" rx="19.0" fill="none" stroke="url(#strokeA)" stroke-width="9.5" opacity="0.85"/>
  <rect x="-88.1" y="-79.6" width="176.1" height="159.2" rx="13.3" fill="none" stroke="#FFB300" stroke-width="3.8" opacity="0.35"/>
</g>


<g opacity="0.311" transform="translate(992.8,128.1) rotate(6.9)" filter="url(#softGlow)">
  <rect x="-102.5" y="-85.3" width="205.0" height="170.5" rx="17.1" fill="#050A12" opacity="0.25"/>
  <rect x="-102.5" y="-85.3" width="205.0" height="170.5" rx="17.1" fill="none" stroke="url(#strokeA)" stroke-width="8.5" opacity="0.85"/>
  <rect x="-88.9" y="-71.6" width="177.7" height="143.3" rx="11.9" fill="none" stroke="#FFB300" stroke-width="3.4" opacity="0.35"/>
</g>


<g opacity="0.277" transform="translate(77.3,100.4) rotate(-0.3)" filter="url(#softGlow)">
  <rect x="-117.3" y="-109.4" width="234.6" height="218.8" rx="21.9" fill="#050A12" opacity="0.25"/>
  <rect x="-117.3" y="-109.4" width="234.6" height="218.8" rx="21.9" fill="none" stroke="url(#strokeA)" stroke-width="10.9" opacity="0.85"/>
  <rect x="-99.8" y="-91.9" width="199.5" height="183.8" rx="15.3" fill="none" stroke="#7C4DFF" stroke-width="4.4" opacity="0.35"/>
</g>


<g opacity="0.426" transform="translate(1913.2,75.2) rotate(-5.0)" filter="url(#softGlow)">
  <rect x="-84.7" y="-78.3" width="169.3" height="156.7" rx="15.7" fill="#050A12" opacity="0.25"/>
  <rect x="-84.7" y="-78.3" width="169.3" height="156.7" rx="15.7" fill="none" stroke="url(#strokeA)" stroke-width="7.8" opacity="0.85"/>
  <rect x="-72.1" y="-65.8" width="144.3" height="131.6" rx="11.0" fill="none" stroke="#FFB300" stroke-width="3.1" opacity="0.35"/>
</g>


<g opacity="0.248" transform="translate(1823.4,939.3) rotate(4.9)" filter="url(#softGlow)">
  <rect x="-40.0" y="-23.0" width="79.9" height="46.0" rx="14.1" fill="none" stroke="#FFB300" stroke-width="7.7" opacity="0.55"/>
  <rect x="-17.6" y="-11.5" width="79.9" height="46.0" rx="14.1" fill="none" stroke="url(#strokeA)" stroke-width="6.4" opacity="0.55"/>
</g>


<g opacity="0.428" transform="translate(150.6,114.9) rotate(4.0)" filter="url(#softGlow)">
  <rect x="-57.2" y="-32.9" width="114.4" height="65.9" rx="20.1" fill="none" stroke="#FFB300" stroke-width="11.0" opacity="0.55"/>
  <rect x="-25.2" y="-16.5" width="114.4" height="65.9" rx="20.1" fill="none" stroke="url(#strokeA)" stroke-width="9.1" opacity="0.55"/>
</g>


<g opacity="0.378" transform="translate(295.3,120.5) rotate(7.2)" filter="url(#softGlow)">
  <rect x="-35.2" y="-20.3" width="70.3" height="40.5" rx="12.4" fill="none" stroke="#FFB300" stroke-width="6.8" opacity="0.55"/>
  <rect x="-15.5" y="-10.1" width="70.3" height="40.5" rx="12.4" fill="none" stroke="url(#strokeA)" stroke-width="5.6" opacity="0.55"/>
</g>


<g opacity="0.451" transform="translate(157.8,624.1) rotate(-11.2)" filter="url(#softGlow)">
  <rect x="-42.5" y="-24.5" width="85.1" height="49.0" rx="15.0" fill="none" stroke="#FFB300" stroke-width="8.2" opacity="0.55"/>
  <rect x="-18.7" y="-12.3" width="85.1" height="49.0" rx="15.0" fill="none" stroke="url(#strokeA)" stroke-width="6.8" opacity="0.55"/>
</g>


<g opacity="0.444" transform="translate(1915.5,1021.1) rotate(-11.0)" filter="url(#softGlow)">
  <rect x="-59.5" y="-34.3" width="119.1" height="68.6" rx="21.0" fill="none" stroke="#FFB300" stroke-width="11.4" opacity="0.55"/>
  <rect x="-26.2" y="-17.1" width="119.1" height="68.6" rx="21.0" fill="none" stroke="url(#strokeA)" stroke-width="9.5" opacity="0.55"/>
</g>


<g opacity="0.288" transform="translate(1185.7,124.2) rotate(16.0)" filter="url(#softGlow)">
  <rect x="-60.2" y="-34.7" width="120.5" height="69.4" rx="21.2" fill="none" stroke="#FFB300" stroke-width="11.6" opacity="0.55"/>
  <rect x="-26.5" y="-17.4" width="120.5" height="69.4" rx="21.2" fill="none" stroke="url(#strokeA)" stroke-width="9.6" opacity="0.55"/>
</g>


<g opacity="0.347" transform="translate(1790.1,39.0) rotate(-13.1)" filter="url(#softGlow)">
  <rect x="-44.4" y="-25.6" width="88.8" height="51.2" rx="15.6" fill="none" stroke="#7C4DFF" stroke-width="8.5" opacity="0.55"/>
  <rect x="-19.5" y="-12.8" width="88.8" height="51.2" rx="15.6" fill="none" stroke="url(#strokeA)" stroke-width="7.1" opacity="0.55"/>
</g>


<g opacity="0.403" transform="translate(1878.5,22.7) rotate(-13.4)" filter="url(#softGlow)">
  <rect x="-54.8" y="-31.5" width="109.5" height="63.1" rx="19.3" fill="none" stroke="#FFB300" stroke-width="10.5" opacity="0.55"/>
  <rect x="-24.1" y="-15.8" width="109.5" height="63.1" rx="19.3" fill="none" stroke="url(#strokeA)" stroke-width="8.8" opacity="0.55"/>
</g>


<g opacity="0.410" transform="translate(1762.4,54.4) rotate(6.3)" filter="url(#softGlow)">
  <rect x="-50.8" y="-29.3" width="101.7" height="58.6" rx="17.9" fill="none" stroke="#FFB300" stroke-width="9.8" opacity="0.55"/>
  <rect x="-22.4" y="-14.6" width="101.7" height="58.6" rx="17.9" fill="none" stroke="url(#strokeA)" stroke-width="8.1" opacity="0.55"/>
</g>


<g opacity="0.384" transform="translate(1869.3,527.8) rotate(14.0)" filter="url(#softGlow)">
  <rect x="-56.2" y="-32.4" width="112.4" height="64.8" rx="19.8" fill="none" stroke="#7C4DFF" stroke-width="10.8" opacity="0.55"/>
  <rect x="-24.7" y="-16.2" width="112.4" height="64.8" rx="19.8" fill="none" stroke="url(#strokeA)" stroke-width="9.0" opacity="0.55"/>
</g>


<g opacity="0.153">
  <line x1="256.7" y1="929.4" x2="256.7" y2="996.6" stroke="#FFB300" stroke-width="1.90" opacity="0.45"/>
  <rect x="253.4" y="961.5" width="6.7" height="43.4" rx="2.2" fill="#0B1020" opacity="0.55" stroke="url(#strokeA)" stroke-width="1.2"/>
</g>

<g opacity="0.153">
  <line x1="458.1" y1="911.2" x2="458.1" y2="1001.2" stroke="#FFB300" stroke-width="1.84" opacity="0.45"/>
  <rect x="453.8" y="959.3" width="8.5" height="47.8" rx="2.8" fill="#0B1020" opacity="0.55" stroke="url(#strokeA)" stroke-width="1.2"/>
</g>

<g opacity="0.153">
  <line x1="63.3" y1="922.7" x2="63.3" y2="998.3" stroke="#FFB300" stroke-width="2.08" opacity="0.45"/>
  <rect x="58.1" y="960.4" width="10.5" height="45.6" rx="3.5" fill="#0B1020" opacity="0.55" stroke="url(#strokeA)" stroke-width="1.2"/>
</g>

<g opacity="0.153">
  <line x1="1321.2" y1="942.2" x2="1321.2" y2="993.4" stroke="#FFB300" stroke-width="1.54" opacity="0.45"/>
  <rect x="1317.4" y="972.5" width="7.8" height="21.4" rx="2.6" fill="#0B1020" opacity="0.55" stroke="url(#strokeA)" stroke-width="1.2"/>
</g>

<g opacity="0.153">
  <line x1="1563.2" y1="930.7" x2="1563.2" y2="996.3" stroke="#FFB300" stroke-width="1.58" opacity="0.45"/>
  <rect x="1559.6" y="968.9" width="7.2" height="28.6" rx="2.4" fill="#0B1020" opacity="0.55" stroke="url(#strokeA)" stroke-width="1.2"/>
</g>

<g opacity="0.153">
  <line x1="423.6" y1="910.7" x2="423.6" y2="1001.3" stroke="#FFB300" stroke-width="2.11" opacity="0.45"/>
  <rect x="419.1" y="961.8" width="9.0" height="42.8" rx="3.0" fill="#0B1020" opacity="0.55" stroke="url(#strokeA)" stroke-width="1.2"/>
</g>

<g opacity="0.153">
  <line x1="1565.2" y1="925.2" x2="1565.2" y2="997.7" stroke="#FFB300" stroke-width="2.07" opacity="0.45"/>
  <rect x="1560.4" y="960.0" width="9.6" height="46.4" rx="3.2" fill="#0B1020" opacity="0.55" stroke="url(#strokeA)" stroke-width="1.2"/>
</g>

<g opacity="0.153">
  <line x1="698.8" y1="944.0" x2="698.8" y2="993.0" stroke="#FFB300" stroke-width="1.13" opacity="0.45"/>
  <rect x="695.4" y="971.6" width="6.9" height="23.2" rx="2.3" fill="#0B1020" opacity="0.55" stroke="url(#strokeA)" stroke-width="1.2"/>
</g>

<g opacity="0.153">
  <line x1="1451.1" y1="933.9" x2="1451.1" y2="995.5" stroke="#FFB300" stroke-width="1.88" opacity="0.45"/>
  <rect x="1445.2" y="968.4" width="11.8" height="29.6" rx="3.9" fill="#0B1020" opacity="0.55" stroke="url(#strokeA)" stroke-width="1.2"/>
</g>

<g opacity="0.153">
  <line x1="108.1" y1="923.0" x2="108.1" y2="998.2" stroke="#FFB300" stroke-width="1.87" opacity="0.45"/>
  <rect x="103.5" y="959.9" width="9.1" height="46.6" rx="3.0" fill="#0B1020" opacity="0.55" stroke="url(#strokeA)" stroke-width="1.2"/>
</g>
<circle cx="143.4" cy="151.5" r="1.4" fill="#7C4DFF" opacity="0.26" filter="url(#softGlow)"/>
<circle cx="210.1" cy="65.8" r="1.5" fill="#7C4DFF" opacity="0.19" filter="url(#softGlow)"/>
<circle cx="1821.0" cy="148.1" r="2.2" fill="#7C4DFF" opacity="0.25" filter="url(#softGlow)"/>
<circle cx="1747.7" cy="62.4" r="2.0" fill="#7C4DFF" opacity="0.11" filter="url(#softGlow)"/>
<circle cx="1816.8" cy="983.5" r="1.6" fill="#7C4DFF" opacity="0.18" filter="url(#softGlow)"/>
<circle cx="1736.3" cy="147.3" r="2.4" fill="#7C4DFF" opacity="0.15" filter="url(#softGlow)"/>
<circle cx="176.0" cy="144.4" r="2.1" fill="#7C4DFF" opacity="0.11" filter="url(#softGlow)"/>
<circle cx="1811.0" cy="905.1" r="1.4" fill="#7C4DFF" opacity="0.24" filter="url(#softGlow)"/>
<circle cx="1801.0" cy="137.7" r="1.8" fill="#7C4DFF" opacity="0.19" filter="url(#softGlow)"/>
<circle cx="1829.8" cy="117.8" r="2.1" fill="#7C4DFF" opacity="0.26" filter="url(#softGlow)"/>
<circle cx="156.4" cy="56.0" r="2.1" fill="#7C4DFF" opacity="0.22" filter="url(#softGlow)"/>
<circle cx="155.2" cy="51.5" r="2.0" fill="#7C4DFF" opacity="0.15" filter="url(#softGlow)"/>
<circle cx="1787.9" cy="25.7" r="2.6" fill="#7C4DFF" opacity="0.16" filter="url(#softGlow)"/>
<circle cx="1793.4" cy="60.5" r="2.5" fill="#7C4DFF" opacity="0.28" filter="url(#softGlow)"/>
<circle cx="59.4" cy="160.6" r="1.6" fill="#7C4DFF" opacity="0.17" filter="url(#softGlow)"/>
<circle cx="2.1" cy="138.8" r="1.5" fill="#7C4DFF" opacity="0.19" filter="url(#softGlow)"/>
<circle cx="1753.7" cy="1050.5" r="2.4" fill="#7C4DFF" opacity="0.25" filter="url(#softGlow)"/>
<circle cx="198.6" cy="181.6" r="2.1" fill="#7C4DFF" opacity="0.16" filter="url(#softGlow)"/>
<circle cx="1814.0" cy="930.6" r="2.3" fill="#7C4DFF" opacity="0.12" filter="url(#softGlow)"/>
<circle cx="72.7" cy="35.1" r="1.5" fill="#7C4DFF" opacity="0.21" filter="url(#softGlow)"/>
</svg>