<svg xmlns="http://www.w3.org/2000/svg" width="1920" height="1080" viewBox="0 0 1920 1080" preserveAspectRatio="xMidYMid slice">
<defs>
  <linearGradient id="g0" x1="0" y1="0" x2="1" y2="1">
    <stop offset="0" stop-color="#0B1020"/>
    <stop offset="0.55" stop-color="#2DD4BF" stop-opacity="0.9"/>
    <stop offset="1" stop-color="#020617"/>
  </linearGradient>
  <radialGradient id="g1" cx="20%" cy="15%" r="70%">
    <stop offset="0" stop-color="#60A5FA" stop-opacity="0.38"/>
    <stop offset="0.6" stop-color="#60A5FA" stop-opacity="0.08"/>
    <stop offset="1" stop-color="#60A5FA" stop-opacity="0"/>
  </radialGradient>
  <radialGradient id="g2" cx="85%" cy="80%" r="75%">
    <stop offset="0" stop-color="#60A5FA" stop-opacity="0.28"/>
    <stop offset="0.65" stop-color="#60A5FA" stop-opacity="0.06"/>
    <stop offset="1" stop-color="#60A5FA" stop-opacity="0"/>
  </radialGradient>
  <filter id="softGlow" x="-30%" y="-30%" width="160%" height="160%">
    <feGaussianBlur stdDeviation="12" result="b"/>
    <feMerge>
      <feMergeNode in="b"/>
      <feMergeNode in="SourceGraphic"/>
    </feMerge>
  </filter>
  <filter id="hardGlow" x="-40%" y="-40%" width="180%" height="180%">
    <feGaussianBlur stdDeviation="6" result="b"/>
    <feColorMatrix in="b" type="matrix" values="1 0 0 0 0  0 1 0 0 0  0 0 1 0 0  0 0 0 18 -7" result="c"/>
    <feMerge>
      <feMergeNode in="c"/>
      <feMergeNode in="SourceGraphic"/>
    </feMerge>
  </filter>
  <linearGradient id="strokeA" x1="0" y1="0" x2="1" y2="0">
    <stop offset="0" stop-color="#60A5FA" stop-opacity="0.9"/>
    <stop offset="0.5" stop-color="#FFFFFF" stop-opacity="0.25"/>
    <stop offset="1" stop-color="#60A5FA" stop-opacity="0.7"/>
  </linearGradient>
  <linearGradient id="strokeB" x1="0" y1="0" x2="0" y2="1">
    <stop offset="0" stop-color="#FFFFFF" stop-opacity="0.18"/>
    <stop offset="1" stop-color="#60A5FA" stop-opacity="0.55"/>
  </linearGradient>
</defs>
<rect x="0" y="0" width="1920" height="1080" fill="url(#g0)"/>
<rect x="0" y="0" width="1920" height="1080" fill="url(#g1)"/>
<rect x="0" y="0" width="1920" height="1080" fill="url(#g2)"/>


<defs>
  <radialGradient id="vign" cx="0.5000" cy="0.5093" r="0.85">
    <stop offset="0" stop-color="#000000" stop-opacity="0"/>
    <stop offset="0.55" stop-color="#000000" stop-opacity="0.217"/>
    <stop offset="1" stop-color="#000000" stop-opacity="0.620"/>
  </radialGradient>
</defs>
<rect x="0" y="0" width="1920" height="1080" fill="url(#vign)"/>

<g opacity="0.263" filter="url(#softGlow)"><path d="M 1587.8,1055.3 L 172.0,1055.3 L 172.0,13.5 L 1708.0,13.5 L 1708.0,1069.9 " fill="none" stroke="url(#strokeB)" stroke-width="1.26" stroke-linecap="round" stroke-linejoin="round"/><circle cx="1708.0" cy="1069.9" r="2.8" fill="#F472B6" opacity="0.45"/><circle cx="1587.8" cy="1055.3" r="4.0" fill="#F472B6" opacity="0.45"/><circle cx="1708.0" cy="13.5" r="4.1" fill="#F472B6" opacity="0.45"/></g>
<g opacity="0.263" filter="url(#softGlow)"><path d="M 1830.1,877.5 L 133.4,877.5 L 133.4,633.8 L 1864.7,633.8 L 1864.7,1006.0 " fill="none" stroke="url(#strokeB)" stroke-width="1.32" stroke-linecap="round" stroke-linejoin="round"/><circle cx="1864.7" cy="633.8" r="3.2" fill="#F472B6" opacity="0.45"/><circle cx="133.4" cy="877.5" r="3.2" fill="#F472B6" opacity="0.45"/><circle cx="133.4" cy="633.8" r="2.6" fill="#F472B6" opacity="0.45"/></g>
<g opacity="0.263" filter="url(#softGlow)"><path d="M 947.1,64.2 L 70.8,64.2 L 70.8,670.9 L 59.0,670.9 L 59.0,902.1 " fill="none" stroke="url(#strokeB)" stroke-width="1.24" stroke-linecap="round" stroke-linejoin="round"/><circle cx="947.1" cy="64.2" r="3.4" fill="#F472B6" opacity="0.45"/><circle cx="70.8" cy="670.9" r="3.1" fill="#F472B6" opacity="0.45"/><circle cx="59.0" cy="670.9" r="2.1" fill="#F472B6" opacity="0.45"/></g>
<g opacity="0.263" filter="url(#softGlow)"><path d="M 1863.5,1058.4 L 1529.6,1058.4 L 1529.6,115.0 L 1912.5,115.0 L 1912.5,1060.7 " fill="none" stroke="url(#strokeB)" stroke-width="1.65" stroke-linecap="round" stroke-linejoin="round"/><circle cx="1529.6" cy="115.0" r="4.2" fill="#F472B6" opacity="0.45"/><circle cx="1912.5" cy="1060.7" r="2.3" fill="#F472B6" opacity="0.45"/><circle cx="1529.6" cy="1058.4" r="4.0" fill="#F472B6" opacity="0.45"/></g>
<g opacity="0.263" filter="url(#softGlow)"><path d="M 66.3,142.0 L 176.0,142.0 L 176.0,192.9 L 89.1,192.9 L 89.1,716.1 " fill="none" stroke="url(#strokeB)" stroke-width="1.61" stroke-linecap="round" stroke-linejoin="round"/><circle cx="89.1" cy="192.9" r="3.8" fill="#F472B6" opacity="0.45"/><circle cx="176.0" cy="192.9" r="2.1" fill="#F472B6" opacity="0.45"/><circle cx="176.0" cy="142.0" r="2.9" fill="#F472B6" opacity="0.45"/></g>
<g opacity="0.263" filter="url(#softGlow)"><path d="M 16.9,1051.4 L 1893.0,1051.4 L 1893.0,264.7 L 1783.4,264.7 L 1783.4,885.4 " fill="none" stroke="url(#strokeB)" stroke-width="1.82" stroke-linecap="round" stroke-linejoin="round"/><circle cx="1783.4" cy="885.4" r="3.0" fill="#F472B6" opacity="0.45"/><circle cx="1893.0" cy="264.7" r="2.4" fill="#F472B6" opacity="0.45"/><circle cx="16.9" cy="1051.4" r="2.7" fill="#F472B6" opacity="0.45"/></g>
<g opacity="0.263" filter="url(#softGlow)"><path d="M 132.8,916.1 L 1852.4,916.1 L 1852.4,892.3 L 720.3,892.3 L 720.3,1042.6 " fill="none" stroke="url(#strokeB)" stroke-width="1.57" stroke-linecap="round" stroke-linejoin="round"/><circle cx="132.8" cy="916.1" r="2.3" fill="#F472B6" opacity="0.45"/><circle cx="1852.4" cy="892.3" r="4.0" fill="#F472B6" opacity="0.45"/><circle cx="720.3" cy="1042.6" r="3.5" fill="#F472B6" opacity="0.45"/></g>
<g opacity="0.263" filter="url(#softGlow)"><path d="M 1762.2,239.0 L 37.8,239.0 L 37.8,1020.5 L 1891.3,1020.5 L 1891.3,908.8 " fill="none" stroke="url(#strokeB)" stroke-width="1.26" stroke-linecap="round" stroke-linejoin="round"/><circle cx="37.8" cy="1020.5" r="2.9" fill="#F472B6" opacity="0.45"/><circle cx="1891.3" cy="908.8" r="3.9" fill="#F472B6" opacity="0.45"/><circle cx="1891.3" cy="1020.5" r="4.0" fill="#F472B6" opacity="0.45"/></g>
<g opacity="0.263" filter="url(#softGlow)"><path d="M 195.0,785.4 L 299.8,785.4 L 299.8,175.6 L 36.1,175.6 L 36.1,196.1 " fill="none" stroke="url(#strokeB)" stroke-width="1.55" stroke-linecap="round" stroke-linejoin="round"/><circle cx="36.1" cy="175.6" r="4.1" fill="#F472B6" opacity="0.45"/><circle cx="195.0" cy="785.4" r="3.0" fill="#F472B6" opacity="0.45"/><circle cx="299.8" cy="175.6" r="3.3" fill="#F472B6" opacity="0.45"/></g>
<g opacity="0.263" filter="url(#softGlow)"><path d="M 19.2,40.8 L 185.6,40.8 L 185.6,13.8 L 1183.3,13.8 L 1183.3,86.0 " fill="none" stroke="url(#strokeB)" stroke-width="1.79" stroke-linecap="round" stroke-linejoin="round"/><circle cx="19.2" cy="40.8" r="3.9" fill="#F472B6" opacity="0.45"/><circle cx="1183.3" cy="86.0" r="3.8" fill="#F472B6" opacity="0.45"/><circle cx="185.6" cy="13.8" r="3.1" fill="#F472B6" opacity="0.45"/></g>
<g opacity="0.263" filter="url(#softGlow)"><path d="M 1656.5,54.2 L 4.4,54.2 L 4.4,210.9 L 77.7,210.9 L 77.7,20.5 " fill="none" stroke="url(#strokeB)" stroke-width="1.34" stroke-linecap="round" stroke-linejoin="round"/><circle cx="77.7" cy="210.9" r="2.2" fill="#F472B6" opacity="0.45"/><circle cx="4.4" cy="210.9" r="3.7" fill="#F472B6" opacity="0.45"/><circle cx="77.7" cy="20.5" r="3.8" fill="#F472B6" opacity="0.45"/></g>
<g opacity="0.263" filter="url(#softGlow)"><path d="M 80.4,319.5 L 877.3,319.5 L 877.3,31.3 L 181.3,31.3 L 181.3,1049.2 " fill="none" stroke="url(#strokeB)" stroke-width="2.16" stroke-linecap="round" stroke-linejoin="round"/><circle cx="877.3" cy="31.3" r="3.9" fill="#F472B6" opacity="0.45"/><circle cx="181.3" cy="1049.2" r="3.3" fill="#F472B6" opacity="0.45"/><circle cx="181.3" cy="31.3" r="3.9" fill="#F472B6" opacity="0.45"/></g>
<g opacity="0.263" filter="url(#softGlow)"><path d="M 206.6,58.3 L 1796.9,58.3 L 1796.9,6.3 L 1798.0,6.3 L 1798.0,192.3 " fill="none" stroke="url(#strokeB)" stroke-width="1.92" stroke-linecap="round" stroke-linejoin="round"/><circle cx="206.6" cy="58.3" r="3.9" fill="#F472B6" opacity="0.45"/><circle cx="1796.9" cy="58.3" r="2.5" fill="#F472B6" opacity="0.45"/><circle cx="1798.0" cy="192.3" r="2.8" fill="#F472B6" opacity="0.45"/></g>
<g opacity="0.263" filter="url(#softGlow)"><path d="M 29.2,101.7 L 146.2,101.7 L 146.2,1069.6 L 1782.0,1069.6 L 1782.0,940.0 " fill="none" stroke="url(#strokeB)" stroke-width="2.09" stroke-linecap="round" stroke-linejoin="round"/><circle cx="29.2" cy="101.7" r="3.9" fill="#F472B6" opacity="0.45"/><circle cx="146.2" cy="1069.6" r="2.8" fill="#F472B6" opacity="0.45"/><circle cx="146.2" cy="101.7" r="4.0" fill="#F472B6" opacity="0.45"/></g>

<g opacity="0.886" filter="url(#hardGlow)">
  <circle cx="1902.4" cy="913.2" r="54.5" fill="#0A1224" opacity="0.65"/>
  <circle cx="1902.4" cy="913.2" r="54.5" fill="none" stroke="url(#strokeA)" stroke-width="4.4" opacity="0.85"/>
  <circle cx="1902.4" cy="913.2" r="46.9" fill="none" stroke="#2DD4BF" stroke-width="1.6" opacity="0.35"/>
  <polygon points="1926.0,944.5 1887.1,949.3 1863.4,918.0 1878.8,881.9 1917.7,877.1 1941.3,908.4" fill="none" stroke="url(#strokeB)" stroke-width="1.4" opacity="0.65"/>
  <polygon points="1906.4,926.3 1889.0,910.1 1911.7,903.2" fill="#2DD4BF" opacity="0.22" filter="url(#softGlow)"/>
</g>


<g opacity="0.366" filter="url(#hardGlow)">
  <circle cx="1967.9" cy="934.3" r="28.2" fill="#0A1224" opacity="0.65"/>
  <circle cx="1967.9" cy="934.3" r="28.2" fill="none" stroke="url(#strokeA)" stroke-width="2.3" opacity="0.85"/>
  <circle cx="1967.9" cy="934.3" r="24.2" fill="none" stroke="#F472B6" stroke-width="1.5" opacity="0.35"/>
  <polygon points="1980.9,949.9 1960.9,953.3 1948.0,937.8 1955.0,918.7 1974.9,915.3 1987.9,930.8" fill="none" stroke="url(#strokeB)" stroke-width="1.2" opacity="0.65"/>
  
</g>


<g opacity="0.400" filter="url(#hardGlow)">
  <circle cx="1822.2" cy="864.9" r="19.6" fill="#0A1224" opacity="0.65"/>
  <circle cx="1822.2" cy="864.9" r="19.6" fill="none" stroke="url(#strokeA)" stroke-width="2.0" opacity="0.85"/>
  <circle cx="1822.2" cy="864.9" r="16.9" fill="none" stroke="#F472B6" stroke-width="1.5" opacity="0.35"/>
  <polygon points="1811.1,873.6 1809.1,859.6 1820.2,850.9 1833.3,856.2 1835.3,870.1 1824.2,878.9" fill="none" stroke="url(#strokeB)" stroke-width="1.2" opacity="0.65"/>
  
</g>


<g opacity="0.567" filter="url(#hardGlow)">
  <circle cx="1980.9" cy="874.4" r="27.7" fill="#0A1224" opacity="0.65"/>
  <circle cx="1980.9" cy="874.4" r="27.7" fill="none" stroke="url(#strokeA)" stroke-width="2.2" opacity="0.85"/>
  <circle cx="1980.9" cy="874.4" r="23.8" fill="none" stroke="#F472B6" stroke-width="1.5" opacity="0.35"/>
  <polygon points="1981.6,894.4 1964.0,885.0 1963.3,865.1 1980.2,854.5 1997.8,863.8 1998.5,883.8" fill="none" stroke="url(#strokeB)" stroke-width="1.2" opacity="0.65"/>
  
</g>


<g opacity="0.910" filter="url(#hardGlow)">
  <circle cx="1816.8" cy="994.5" r="62.6" fill="#0A1224" opacity="0.65"/>
  <circle cx="1816.8" cy="994.5" r="62.6" fill="none" stroke="url(#strokeA)" stroke-width="5.0" opacity="0.85"/>
  <circle cx="1816.8" cy="994.5" r="53.8" fill="none" stroke="#2DD4BF" stroke-width="1.9" opacity="0.35"/>
  <polygon points="1854.3,1019.6 1813.9,1039.5 1776.4,1014.4 1779.4,969.4 1819.8,949.5 1857.3,974.6" fill="none" stroke="url(#strokeB)" stroke-width="1.6" opacity="0.65"/>
  <polygon points="1826.2,1007.2 1801.2,996.2 1823.2,980.1" fill="#2DD4BF" opacity="0.22" filter="url(#softGlow)"/>
</g>


<g opacity="0.439" filter="url(#hardGlow)">
  <circle cx="1916.9" cy="984.9" r="25.5" fill="#0A1224" opacity="0.65"/>
  <circle cx="1916.9" cy="984.9" r="25.5" fill="none" stroke="url(#strokeA)" stroke-width="2.0" opacity="0.85"/>
  <circle cx="1916.9" cy="984.9" r="22.0" fill="none" stroke="#F472B6" stroke-width="1.5" opacity="0.35"/>
  <polygon points="1934.9,981.2 1929.1,998.7 1911.1,1002.4 1898.9,988.6 1904.7,971.2 1922.7,967.5" fill="none" stroke="url(#strokeB)" stroke-width="1.2" opacity="0.65"/>
  <polygon points="1923.3,985.9 1912.9,990.0 1914.5,978.9" fill="#F472B6" opacity="0.22" filter="url(#softGlow)"/>
</g>


<g opacity="0.392" filter="url(#hardGlow)">
  <circle cx="1838.8" cy="951.2" r="30.7" fill="#0A1224" opacity="0.65"/>
  <circle cx="1838.8" cy="951.2" r="30.7" fill="none" stroke="url(#strokeA)" stroke-width="2.5" opacity="0.85"/>
  <circle cx="1838.8" cy="951.2" r="26.4" fill="none" stroke="#F472B6" stroke-width="1.5" opacity="0.35"/>
  <polygon points="1860.8,953.4 1847.9,971.3 1825.9,969.1 1816.8,948.9 1829.7,931.0 1851.7,933.2" fill="none" stroke="url(#strokeB)" stroke-width="1.2" opacity="0.65"/>
  
</g>


<g opacity="0.891" filter="url(#hardGlow)">
  <circle cx="311.7" cy="58.2" r="45.7" fill="#0A1224" opacity="0.65"/>
  <circle cx="311.7" cy="58.2" r="45.7" fill="none" stroke="url(#strokeA)" stroke-width="3.7" opacity="0.85"/>
  <circle cx="311.7" cy="58.2" r="39.3" fill="none" stroke="#2DD4BF" stroke-width="1.5" opacity="0.35"/>
  <polygon points="341.5,72.4 314.3,91.1 284.6,76.9 282.0,44.1 309.2,25.4 338.9,39.6" fill="none" stroke="url(#strokeB)" stroke-width="1.2" opacity="0.65"/>
  <polygon points="319.8,66.5 300.6,61.1 314.8,47.1" fill="#2DD4BF" opacity="0.22" filter="url(#softGlow)"/>
</g>


<g opacity="0.400" filter="url(#hardGlow)">
  <circle cx="326.8" cy="53.2" r="21.8" fill="#0A1224" opacity="0.65"/>
  <circle cx="326.8" cy="53.2" r="21.8" fill="none" stroke="url(#strokeA)" stroke-width="2.0" opacity="0.85"/>
  <circle cx="326.8" cy="53.2" r="18.8" fill="none" stroke="#F472B6" stroke-width="1.5" opacity="0.35"/>
  <polygon points="313.2,61.1 313.2,45.4 326.8,37.5 340.4,45.4 340.4,61.1 326.8,68.9" fill="none" stroke="url(#strokeB)" stroke-width="1.2" opacity="0.65"/>
  
</g>


<g opacity="0.424" filter="url(#hardGlow)">
  <circle cx="284.1" cy="32.5" r="24.4" fill="#0A1224" opacity="0.65"/>
  <circle cx="284.1" cy="32.5" r="24.4" fill="none" stroke="url(#strokeA)" stroke-width="2.0" opacity="0.85"/>
  <circle cx="284.1" cy="32.5" r="21.0" fill="none" stroke="#F472B6" stroke-width="1.5" opacity="0.35"/>
  <polygon points="301.5,34.6 291.0,48.6 273.5,46.5 266.6,30.4 277.1,16.3 294.6,18.4" fill="none" stroke="url(#strokeB)" stroke-width="1.2" opacity="0.65"/>
  <polygon points="289.5,35.3 278.9,35.8 283.7,26.3" fill="#F472B6" opacity="0.22" filter="url(#softGlow)"/>
</g>


<g opacity="0.835" filter="url(#hardGlow)">
  <circle cx="1882.0" cy="32.3" r="62.4" fill="#0A1224" opacity="0.65"/>
  <circle cx="1882.0" cy="32.3" r="62.4" fill="none" stroke="url(#strokeA)" stroke-width="5.0" opacity="0.85"/>
  <circle cx="1882.0" cy="32.3" r="53.7" fill="none" stroke="#2DD4BF" stroke-width="1.9" opacity="0.35"/>
  <polygon points="1843.4,55.3 1842.8,10.4 1881.4,-12.6 1920.6,9.4 1921.2,54.3 1882.6,77.3" fill="none" stroke="url(#strokeB)" stroke-width="1.6" opacity="0.65"/>
  <polygon points="1866.6,35.3 1887.2,17.5 1892.3,44.3" fill="#2DD4BF" opacity="0.22" filter="url(#softGlow)"/>
</g>


<g opacity="0.541" filter="url(#hardGlow)">
  <circle cx="1850.9" cy="11.2" r="27.7" fill="#0A1224" opacity="0.65"/>
  <circle cx="1850.9" cy="11.2" r="27.7" fill="none" stroke="url(#strokeA)" stroke-width="2.2" opacity="0.85"/>
  <circle cx="1850.9" cy="11.2" r="23.8" fill="none" stroke="#F472B6" stroke-width="1.5" opacity="0.35"/>
  <polygon points="1852.5,-8.6 1868.9,2.7 1867.3,22.6 1849.3,31.1 1832.8,19.8 1834.4,-0.1" fill="none" stroke="url(#strokeB)" stroke-width="1.2" opacity="0.65"/>
  <polygon points="1853.8,4.9 1854.9,16.9 1843.9,11.9" fill="#F472B6" opacity="0.22" filter="url(#softGlow)"/>
</g>


<g opacity="0.473" filter="url(#hardGlow)">
  <circle cx="1848.5" cy="82.9" r="26.0" fill="#0A1224" opacity="0.65"/>
  <circle cx="1848.5" cy="82.9" r="26.0" fill="none" stroke="url(#strokeA)" stroke-width="2.1" opacity="0.85"/>
  <circle cx="1848.5" cy="82.9" r="22.4" fill="none" stroke="#F472B6" stroke-width="1.5" opacity="0.35"/>
  <polygon points="1835.2,69.7 1853.2,64.8 1866.5,78.0 1861.8,96.1 1843.7,101.0 1830.4,87.8" fill="none" stroke="url(#strokeB)" stroke-width="1.2" opacity="0.65"/>
  
</g>


<g opacity="0.865" filter="url(#hardGlow)">
  <circle cx="28.3" cy="89.8" r="64.1" fill="#0A1224" opacity="0.65"/>
  <circle cx="28.3" cy="89.8" r="64.1" fill="none" stroke="url(#strokeA)" stroke-width="5.1" opacity="0.85"/>
  <circle cx="28.3" cy="89.8" r="55.2" fill="none" stroke="#2DD4BF" stroke-width="1.9" opacity="0.35"/>
  <polygon points="-17.1,81.2 13.1,46.2 58.4,54.8 73.7,98.4 43.5,133.4 -1.8,124.8" fill="none" stroke="url(#strokeB)" stroke-width="1.6" opacity="0.65"/>
  <polygon points="14.4,81.6 42.4,81.9 28.1,106.0" fill="#2DD4BF" opacity="0.22" filter="url(#softGlow)"/>
</g>


<g opacity="0.601" filter="url(#hardGlow)">
  <circle cx="58.1" cy="43.7" r="33.0" fill="#0A1224" opacity="0.65"/>
  <circle cx="58.1" cy="43.7" r="33.0" fill="none" stroke="url(#strokeA)" stroke-width="2.6" opacity="0.85"/>
  <circle cx="58.1" cy="43.7" r="28.4" fill="none" stroke="#F472B6" stroke-width="1.5" opacity="0.35"/>
  <polygon points="38.2,56.7 36.9,33.0 56.9,20.0 78.1,30.8 79.4,54.5 59.4,67.5" fill="none" stroke="url(#strokeB)" stroke-width="1.2" opacity="0.65"/>
  
</g>


<g opacity="0.493" filter="url(#hardGlow)">
  <circle cx="118.1" cy="166.7" r="24.9" fill="#0A1224" opacity="0.65"/>
  <circle cx="118.1" cy="166.7" r="24.9" fill="none" stroke="url(#strokeA)" stroke-width="2.0" opacity="0.85"/>
  <circle cx="118.1" cy="166.7" r="21.4" fill="none" stroke="#F472B6" stroke-width="1.5" opacity="0.35"/>
  <polygon points="102.0,158.9 116.8,148.9 132.9,156.7 134.2,174.5 119.4,184.6 103.3,176.8" fill="none" stroke="url(#strokeB)" stroke-width="1.2" opacity="0.65"/>
  
</g>


<g opacity="0.647" filter="url(#hardGlow)">
  <circle cx="101.4" cy="155.2" r="34.9" fill="#0A1224" opacity="0.65"/>
  <circle cx="101.4" cy="155.2" r="34.9" fill="none" stroke="url(#strokeA)" stroke-width="2.8" opacity="0.85"/>
  <circle cx="101.4" cy="155.2" r="30.0" fill="none" stroke="#F472B6" stroke-width="1.5" opacity="0.35"/>
  <polygon points="125.7,161.7 107.9,179.5 83.7,173.0 77.2,148.7 95.0,131.0 119.2,137.5" fill="none" stroke="url(#strokeB)" stroke-width="1.2" opacity="0.65"/>
  <polygon points="108.6,160.3 93.5,158.9 102.2,146.5" fill="#F472B6" opacity="0.22" filter="url(#softGlow)"/>
</g>


<g opacity="0.736" filter="url(#hardGlow)">
  <circle cx="1761.3" cy="966.7" r="56.0" fill="#0A1224" opacity="0.65"/>
  <circle cx="1761.3" cy="966.7" r="56.0" fill="none" stroke="url(#strokeA)" stroke-width="4.5" opacity="0.85"/>
  <circle cx="1761.3" cy="966.7" r="48.2" fill="none" stroke="#2DD4BF" stroke-width="1.7" opacity="0.35"/>
  <polygon points="1724.9,984.2 1728.0,944.0 1764.3,926.5 1797.6,949.3 1794.6,989.5 1758.2,1006.9" fill="none" stroke="url(#strokeB)" stroke-width="1.4" opacity="0.65"/>
  <polygon points="1747.2,968.1 1767.1,953.9 1769.5,978.2" fill="#2DD4BF" opacity="0.22" filter="url(#softGlow)"/>
</g>


<g opacity="0.462" filter="url(#hardGlow)">
  <circle cx="1727.8" cy="926.9" r="25.2" fill="#0A1224" opacity="0.65"/>
  <circle cx="1727.8" cy="926.9" r="25.2" fill="none" stroke="url(#strokeA)" stroke-width="2.0" opacity="0.85"/>
  <circle cx="1727.8" cy="926.9" r="21.7" fill="none" stroke="#F472B6" stroke-width="1.5" opacity="0.35"/>
  <polygon points="1721.5,944.0 1709.9,930.0 1716.1,913.0 1734.0,909.9 1745.7,923.8 1739.4,940.9" fill="none" stroke="url(#strokeB)" stroke-width="1.2" opacity="0.65"/>
  
</g>


<g opacity="0.585" filter="url(#hardGlow)">
  <circle cx="1702.2" cy="1006.3" r="25.1" fill="#0A1224" opacity="0.65"/>
  <circle cx="1702.2" cy="1006.3" r="25.1" fill="none" stroke="url(#strokeA)" stroke-width="2.0" opacity="0.85"/>
  <circle cx="1702.2" cy="1006.3" r="21.5" fill="none" stroke="#F472B6" stroke-width="1.5" opacity="0.35"/>
  <polygon points="1691.1,992.1 1709.0,989.6 1720.1,1003.8 1713.3,1020.5 1695.4,1023.0 1684.3,1008.8" fill="none" stroke="url(#strokeB)" stroke-width="1.2" opacity="0.65"/>
  
</g>


<g opacity="0.371" transform="translate(98.1,850.7) rotate(3.6)" filter="url(#softGlow)">
  <rect x="-113.2" y="-81.0" width="226.4" height="162.0" rx="16.2" fill="#050A12" opacity="0.25"/>
  <rect x="-113.2" y="-81.0" width="226.4" height="162.0" rx="16.2" fill="none" stroke="url(#strokeA)" stroke-width="8.1" opacity="0.85"/>
  <rect x="-100.3" y="-68.1" width="200.5" height="136.1" rx="11.3" fill="none" stroke="#2DD4BF" stroke-width="3.2" opacity="0.35"/>
</g>


<g opacity="0.408" transform="translate(71.5,139.1) rotate(9.9)" filter="url(#softGlow)">
  <rect x="-76.8" y="-67.4" width="153.6" height="134.9" rx="13.5" fill="#050A12" opacity="0.25"/>
  <rect x="-76.8" y="-67.4" width="153.6" height="134.9" rx="13.5" fill="none" stroke="url(#strokeA)" stroke-width="6.7" opacity="0.85"/>
  <rect x="-66.0" y="-56.6" width="132.0" height="113.3" rx="9.4" fill="none" stroke="#F472B6" stroke-width="2.7" opacity="0.35"/>
</g>


<g opacity="0.325" transform="translate(68.0,76.4) rotate(-2.0)" filter="url(#softGlow)">
  <rect x="-78.4" y="-69.1" width="156.7" height="138.3" rx="13.8" fill="#050A12" opacity="0.25"/>
  <rect x="-78.4" y="-69.1" width="156.7" height="138.3" rx="13.8" fill="none" stroke="url(#strokeA)" stroke-width="6.9" opacity="0.85"/>
  <rect x="-67.3" y="-58.1" width="134.6" height="116.1" rx="9.7" fill="none" stroke="#F472B6" stroke-width="2.8" opacity="0.35"/>
</g>


<g opacity="0.351" transform="translate(1355.3,998.9) rotate(-10.0)" filter="url(#softGlow)">
  <rect x="-110.4" y="-97.6" width="220.9" height="195.2" rx="19.5" fill="#050A12" opacity="0.25"/>
  <rect x="-110.4" y="-97.6" width="220.9" height="195.2" rx="19.5" fill="none" stroke="url(#strokeA)" stroke-width="9.8" opacity="0.85"/>
  <rect x="-94.8" y="-82.0" width="189.7" height="163.9" rx="13.7" fill="none" stroke="#2DD4BF" stroke-width="3.9" opacity="0.35"/>
</g>


<g opacity="0.237" transform="translate(1739.2,404.1) rotate(0.6)" filter="url(#softGlow)">
  <rect x="-38.0" y="-21.9" width="75.9" height="43.7" rx="13.4" fill="none" stroke="#2DD4BF" stroke-width="7.3" opacity="0.55"/>
  <rect x="-16.7" y="-10.9" width="75.9" height="43.7" rx="13.4" fill="none" stroke="url(#strokeA)" stroke-width="6.1" opacity="0.55"/>
</g>


<g opacity="0.273" transform="translate(110.1,313.1) rotate(-13.4)" filter="url(#softGlow)">
  <rect x="-34.8" y="-20.1" width="69.7" height="40.1" rx="12.3" fill="none" stroke="#F472B6" stroke-width="6.7" opacity="0.55"/>
  <rect x="-15.3" y="-10.0" width="69.7" height="40.1" rx="12.3" fill="none" stroke="url(#strokeA)" stroke-width="5.6" opacity="0.55"/>
</g>


<g opacity="0.401" transform="translate(1897.6,100.0) rotate(16.7)" filter="url(#softGlow)">
  <rect x="-44.4" y="-25.6" width="88.7" height="51.1" rx="15.6" fill="none" stroke="#F472B6" stroke-width="8.5" opacity="0.55"/>
  <rect x="-19.5" y="-12.8" width="88.7" height="51.1" rx="15.6" fill="none" stroke="url(#strokeA)" stroke-width="7.1" opacity="0.55"/>
</g>


<g opacity="0.251" transform="translate(57.6,144.6) rotate(15.7)" filter="url(#softGlow)">
  <rect x="-47.2" y="-27.2" width="94.3" height="54.3" rx="16.6" fill="none" stroke="#F472B6" stroke-width="9.1" opacity="0.55"/>
  <rect x="-20.8" y="-13.6" width="94.3" height="54.3" rx="16.6" fill="none" stroke="url(#strokeA)" stroke-width="7.5" opacity="0.55"/>
</g>


<g opacity="0.437" transform="translate(121.1,657.6) rotate(3.5)" filter="url(#softGlow)">
  <rect x="-45.3" y="-26.1" width="90.5" height="52.1" rx="15.9" fill="none" stroke="#2DD4BF" stroke-width="8.7" opacity="0.55"/>
  <rect x="-19.9" y="-13.0" width="90.5" height="52.1" rx="15.9" fill="none" stroke="url(#strokeA)" stroke-width="7.2" opacity="0.55"/>
</g>


<g opacity="0.392" transform="translate(82.0,115.1) rotate(7.7)" filter="url(#softGlow)">
  <rect x="-60.4" y="-34.8" width="120.7" height="69.6" rx="21.3" fill="none" stroke="#F472B6" stroke-width="11.6" opacity="0.55"/>
  <rect x="-26.6" y="-17.4" width="120.7" height="69.6" rx="21.3" fill="none" stroke="url(#strokeA)" stroke-width="9.7" opacity="0.55"/>
</g>


<g opacity="0.456" transform="translate(143.4,740.8) rotate(16.0)" filter="url(#softGlow)">
  <rect x="-50.6" y="-29.1" width="101.1" height="58.2" rx="17.8" fill="none" stroke="#F472B6" stroke-width="9.7" opacity="0.55"/>
  <rect x="-22.2" y="-14.6" width="101.1" height="58.2" rx="17.8" fill="none" stroke="url(#strokeA)" stroke-width="8.1" opacity="0.55"/>
</g>


<g opacity="0.222">
  <line x1="1043.0" y1="899.5" x2="1043.0" y2="982.7" stroke="#F472B6" stroke-width="1.34" opacity="0.45"/>
  <rect x="1038.3" y="938.3" width="9.2" height="55.5" rx="3.1" fill="#0B1020" opacity="0.55" stroke="url(#strokeA)" stroke-width="1.2"/>
</g>

<g opacity="0.222">
  <line x1="429.6" y1="897.2" x2="429.6" y2="983.3" stroke="#F472B6" stroke-width="1.32" opacity="0.45"/>
  <rect x="425.7" y="937.3" width="7.8" height="57.4" rx="2.6" fill="#0B1020" opacity="0.55" stroke="url(#strokeA)" stroke-width="1.2"/>
</g>

<g opacity="0.222">
  <line x1="329.9" y1="909.4" x2="329.9" y2="980.2" stroke="#F472B6" stroke-width="1.15" opacity="0.45"/>
  <rect x="325.8" y="951.2" width="8.2" height="29.6" rx="2.7" fill="#0B1020" opacity="0.55" stroke="url(#strokeA)" stroke-width="1.2"/>
</g>

<g opacity="0.222">
  <line x1="1655.3" y1="906.5" x2="1655.3" y2="980.9" stroke="#F472B6" stroke-width="1.63" opacity="0.45"/>
  <rect x="1649.7" y="955.3" width="11.1" height="21.5" rx="3.7" fill="#0B1020" opacity="0.55" stroke="url(#strokeA)" stroke-width="1.2"/>
</g>

<g opacity="0.222">
  <line x1="791.1" y1="898.3" x2="791.1" y2="983.0" stroke="#F472B6" stroke-width="1.44" opacity="0.45"/>
  <rect x="787.9" y="937.5" width="6.5" height="57.0" rx="2.2" fill="#0B1020" opacity="0.55" stroke="url(#strokeA)" stroke-width="1.2"/>
</g>

<g opacity="0.222">
  <line x1="168.1" y1="896.6" x2="168.1" y2="983.4" stroke="#F472B6" stroke-width="1.16" opacity="0.45"/>
  <rect x="162.4" y="938.3" width="11.4" height="55.5" rx="3.8" fill="#0B1020" opacity="0.55" stroke="url(#strokeA)" stroke-width="1.2"/>
</g>

<g opacity="0.222">
  <line x1="655.1" y1="894.7" x2="655.1" y2="983.9" stroke="#F472B6" stroke-width="2.04" opacity="0.45"/>
  <rect x="651.3" y="941.4" width="7.7" height="49.2" rx="2.6" fill="#0B1020" opacity="0.55" stroke="url(#strokeA)" stroke-width="1.2"/>
</g>

<g opacity="0.222">
  <line x1="1696.4" y1="893.6" x2="1696.4" y2="984.2" stroke="#F472B6" stroke-width="2.00" opacity="0.45"/>
  <rect x="1691.3" y="947.1" width="10.1" height="37.9" rx="3.4" fill="#0B1020" opacity="0.55" stroke="url(#strokeA)" stroke-width="1.2"/>
</g>

<g opacity="0.222">
  <line x1="1117.8" y1="911.1" x2="1117.8" y2="979.8" stroke="#F472B6" stroke-width="1.02" opacity="0.45"/>
  <rect x="1112.1" y="947.8" width="11.4" height="36.6" rx="3.8" fill="#0B1020" opacity="0.55" stroke="url(#strokeA)" stroke-width="1.2"/>
</g>

<g opacity="0.222">
  <line x1="1337.0" y1="913.5" x2="1337.0" y2="979.2" stroke="#F472B6" stroke-width="1.27" opacity="0.45"/>
  <rect x="1331.6" y="947.7" width="10.8" height="36.6" rx="3.6" fill="#0B1020" opacity="0.55" stroke="url(#strokeA)" stroke-width="1.2"/>
</g>

<g opacity="0.222">
  <line x1="316.5" y1="906.1" x2="316.5" y2="981.0" stroke="#F472B6" stroke-width="1.93" opacity="0.45"/>
  <rect x="313.5" y="952.5" width="6.1" height="27.0" rx="2.0" fill="#0B1020" opacity="0.55" stroke="url(#strokeA)" stroke-width="1.2"/>
</g>

<g opacity="0.222">
  <line x1="837.1" y1="868.6" x2="837.1" y2="990.4" stroke="#F472B6" stroke-width="1.43" opacity="0.45"/>
  <rect x="832.1" y="936.6" width="10.1" height="58.8" rx="3.4" fill="#0B1020" opacity="0.55" stroke="url(#strokeA)" stroke-width="1.2"/>
</g>

<g opacity="0.222">
  <line x1="551.8" y1="897.2" x2="551.8" y2="983.3" stroke="#F472B6" stroke-width="1.85" opacity="0.45"/>
  <rect x="548.8" y="940.4" width="6.1" height="51.2" rx="2.0" fill="#0B1020" opacity="0.55" stroke="url(#strokeA)" stroke-width="1.2"/>
</g>

<g opacity="0.222">
  <line x1="312.5" y1="888.3" x2="312.5" y2="985.5" stroke="#F472B6" stroke-width="1.50" opacity="0.45"/>
  <rect x="308.2" y="939.6" width="8.7" height="52.9" rx="2.9" fill="#0B1020" opacity="0.55" stroke="url(#strokeA)" stroke-width="1.2"/>
</g>

<g opacity="0.222">
  <line x1="785.4" y1="908.6" x2="785.4" y2="980.4" stroke="#F472B6" stroke-width="1.84" opacity="0.45"/>
  <rect x="781.2" y="947.4" width="8.2" height="37.4" rx="2.7" fill="#0B1020" opacity="0.55" stroke="url(#strokeA)" stroke-width="1.2"/>
</g>
<circle cx="1886.5" cy="2.9" r="1.6" fill="#2DD4BF" opacity="0.24" filter="url(#softGlow)"/>
<circle cx="1880.4" cy="373.8" r="3.0" fill="#2DD4BF" opacity="0.12" filter="url(#softGlow)"/>
<circle cx="1836.3" cy="949.1" r="2.5" fill="#2DD4BF" opacity="0.14" filter="url(#softGlow)"/>
<circle cx="1801.5" cy="50.4" r="2.9" fill="#2DD4BF" opacity="0.27" filter="url(#softGlow)"/>
<circle cx="82.3" cy="171.3" r="3.1" fill="#2DD4BF" opacity="0.16" filter="url(#softGlow)"/>
<circle cx="72.9" cy="215.3" r="2.3" fill="#2DD4BF" opacity="0.21" filter="url(#softGlow)"/>
<circle cx="1809.6" cy="486.7" r="2.1" fill="#2DD4BF" opacity="0.16" filter="url(#softGlow)"/>
<circle cx="1835.8" cy="149.1" r="2.2" fill="#2DD4BF" opacity="0.18" filter="url(#softGlow)"/>
<circle cx="166.4" cy="573.6" r="3.1" fill="#2DD4BF" opacity="0.17" filter="url(#softGlow)"/>
<circle cx="1752.3" cy="1020.2" r="2.7" fill="#2DD4BF" opacity="0.18" filter="url(#softGlow)"/>
<circle cx="1755.9" cy="58.3" r="2.7" fill="#2DD4BF" opacity="0.18" filter="url(#softGlow)"/>
<circle cx="149.7" cy="775.6" r="1.3" fill="#2DD4BF" opacity="0.27" filter="url(#softGlow)"/>
<circle cx="90.0" cy="884.8" r="1.9" fill="#2DD4BF" opacity="0.14" filter="url(#softGlow)"/>
<circle cx="1707.0" cy="13.3" r="2.5" fill="#2DD4BF" opacity="0.23" filter="url(#softGlow)"/>
<circle cx="71.7" cy="135.9" r="1.5" fill="#2DD4BF" opacity="0.22" filter="url(#softGlow)"/>
<circle cx="140.5" cy="956.9" r="1.9" fill="#2DD4BF" opacity="0.16" filter="url(#softGlow)"/>
<circle cx="51.5" cy="110.5" r="2.9" fill="#2DD4BF" opacity="0.17" filter="url(#softGlow)"/>
<circle cx="1874.4" cy="178.7" r="1.4" fill="#2DD4BF" opacity="0.19" filter="url(#softGlow)"/>
<circle cx="1872.0" cy="25.1" r="1.6" fill="#2DD4BF" opacity="0.28" filter="url(#softGlow)"/>
<circle cx="1538.2" cy="60.3" r="3.0" fill="#2DD4BF" opacity="0.19" filter="url(#softGlow)"/>
<circle cx="1717.6" cy="69.9" r="2.8" fill="#2DD4BF" opacity="0.15" filter="url(#softGlow)"/>
<circle cx="1887.1" cy="113.4" r="2.0" fill="#2DD4BF" opacity="0.27" filter="url(#softGlow)"/>
<circle cx="1847.5" cy="41.6" r="1.8" fill="#2DD4BF" opacity="0.21" filter="url(#softGlow)"/>
</svg>