<svg xmlns="http://www.w3.org/2000/svg" width="1920" height="1080" viewBox="0 0 1920 1080" preserveAspectRatio="xMidYMid slice">
<defs>
  <linearGradient id="g0" x1="0" y1="0" x2="1" y2="1">
    <stop offset="0" stop-color="#0A0F1E"/>
    <stop offset="0.55" stop-color="#00FFA3" stop-opacity="0.9"/>
    <stop offset="1" stop-color="#050A12"/>
  </linearGradient>
  <radialGradient id="g1" cx="20%" cy="15%" r="70%">
    <stop offset="0" stop-color="#14C2FF" stop-opacity="0.38"/>
    <stop offset="0.6" stop-color="#14C2FF" stop-opacity="0.08"/>
    <stop offset="1" stop-color="#14C2FF" stop-opacity="0"/>
  </radialGradient>
  <radialGradient id="g2" cx="85%" cy="80%" r="75%">
    <stop offset="0" stop-color="#14C2FF" stop-opacity="0.28"/>
    <stop offset="0.65" stop-color="#14C2FF" stop-opacity="0.06"/>
    <stop offset="1" stop-color="#14C2FF" stop-opacity="0"/>
  </radialGradient>
  <filter id="softGlow" x="-30%" y="-30%" width="160%" height="160%">
    <feGaussianBlur stdDeviation="12" result="b"/>
    <feMerge>
      <feMergeNode in="b"/>
      <feMergeNode in="SourceGraphic"/>
    </feMerge>
  </filter>
  <filter id="hardGlow" x="-40%" y="-40%" width="180%" height="180%">
    <feGaussianBlur stdDeviation="6" result="b"/>
    <feColorMatrix in="b" type="matrix" values="1 0 0 0 0  0 1 0 0 0  0 0 1 0 0  0 0 0 18 -7" result="c"/>
    <feMerge>
      <feMergeNode in="c"/>
      <feMergeNode in="SourceGraphic"/>
    </feMerge>
  </filter>
  <linearGradient id="strokeA" x1="0" y1="0" x2="1" y2="0">
    <stop offset="0" stop-color="#14C2FF" stop-opacity="0.9"/>
    <stop offset="0.5" stop-color="#FFFFFF" stop-opacity="0.25"/>
    <stop offset="1" stop-color="#14C2FF" stop-opacity="0.7"/>
  </linearGradient>
  <linearGradient id="strokeB" x1="0" y1="0" x2="0" y2="1">
    <stop offset="0" stop-color="#FFFFFF" stop-opacity="0.18"/>
    <stop offset="1" stop-color="#14C2FF" stop-opacity="0.55"/>
  </linearGradient>
</defs>
<rect x="0" y="0" width="1920" height="1080" fill="url(#g0)"/>
<rect x="0" y="0" width="1920" height="1080" fill="url(#g1)"/>
<rect x="0" y="0" width="1920" height="1080" fill="url(#g2)"/>


<defs>
  <radialGradient id="vign" cx="0.5000" cy="0.5093" r="0.85">
    <stop offset="0" stop-color="#000000" stop-opacity="0"/>
    <stop offset="0.55" stop-color="#000000" stop-opacity="0.217"/>
    <stop offset="1" stop-color="#000000" stop-opacity="0.620"/>
  </radialGradient>
</defs>
<rect x="0" y="0" width="1920" height="1080" fill="url(#vign)"/>

<g opacity="0.242" filter="url(#softGlow)"><path d="M 1831.0,434.1 L 108.4,434.1 L 108.4,102.7 L 1806.1,102.7 L 1806.1,1030.3 " fill="none" stroke="url(#strokeB)" stroke-width="1.96" stroke-linecap="round" stroke-linejoin="round"/><circle cx="1806.1" cy="1030.3" r="2.7" fill="#FF4D8D" opacity="0.45"/><circle cx="108.4" cy="434.1" r="4.1" fill="#FF4D8D" opacity="0.45"/><circle cx="108.4" cy="102.7" r="2.8" fill="#FF4D8D" opacity="0.45"/></g>
<g opacity="0.242" filter="url(#softGlow)"><path d="M 172.1,78.0 L 423.1,78.0 L 423.1,25.5 L 1827.6,25.5 L 1827.6,994.5 " fill="none" stroke="url(#strokeB)" stroke-width="1.34" stroke-linecap="round" stroke-linejoin="round"/><circle cx="1827.6" cy="994.5" r="3.0" fill="#FF4D8D" opacity="0.45"/><circle cx="423.1" cy="78.0" r="2.9" fill="#FF4D8D" opacity="0.45"/><circle cx="423.1" cy="25.5" r="2.9" fill="#FF4D8D" opacity="0.45"/></g>
<g opacity="0.242" filter="url(#softGlow)"><path d="M 1823.8,1030.1 L 1806.7,1030.1 L 1806.7,90.9 L 30.0,90.9 L 30.0,1034.6 " fill="none" stroke="url(#strokeB)" stroke-width="1.80" stroke-linecap="round" stroke-linejoin="round"/><circle cx="1823.8" cy="1030.1" r="4.0" fill="#FF4D8D" opacity="0.45"/><circle cx="30.0" cy="90.9" r="2.9" fill="#FF4D8D" opacity="0.45"/><circle cx="1806.7" cy="1030.1" r="3.4" fill="#FF4D8D" opacity="0.45"/></g>
<g opacity="0.242" filter="url(#softGlow)"><path d="M 1915.7,909.9 L 1778.5,909.9 L 1778.5,409.3 L 1440.6,409.3 L 1440.6,114.2 " fill="none" stroke="url(#strokeB)" stroke-width="1.24" stroke-linecap="round" stroke-linejoin="round"/><circle cx="1915.7" cy="909.9" r="3.4" fill="#FF4D8D" opacity="0.45"/><circle cx="1440.6" cy="114.2" r="3.2" fill="#FF4D8D" opacity="0.45"/><circle cx="1778.5" cy="909.9" r="2.5" fill="#FF4D8D" opacity="0.45"/></g>
<g opacity="0.242" filter="url(#softGlow)"><path d="M 1898.7,888.0 L 1829.3,888.0 L 1829.3,173.8 L 96.1,173.8 L 96.1,150.3 " fill="none" stroke="url(#strokeB)" stroke-width="1.46" stroke-linecap="round" stroke-linejoin="round"/><circle cx="1829.3" cy="173.8" r="3.1" fill="#FF4D8D" opacity="0.45"/><circle cx="96.1" cy="150.3" r="3.0" fill="#FF4D8D" opacity="0.45"/><circle cx="1898.7" cy="888.0" r="2.0" fill="#FF4D8D" opacity="0.45"/></g>
<g opacity="0.242" filter="url(#softGlow)"><path d="M 1787.3,894.5 L 1742.9,894.5 L 1742.9,1001.5 L 116.0,1001.5 L 116.0,200.7 " fill="none" stroke="url(#strokeB)" stroke-width="1.86" stroke-linecap="round" stroke-linejoin="round"/><circle cx="1742.9" cy="1001.5" r="3.7" fill="#FF4D8D" opacity="0.45"/><circle cx="116.0" cy="1001.5" r="2.4" fill="#FF4D8D" opacity="0.45"/><circle cx="1742.9" cy="894.5" r="3.0" fill="#FF4D8D" opacity="0.45"/></g>
<g opacity="0.242" filter="url(#softGlow)"><path d="M 61.0,984.7 L 38.3,984.7 L 38.3,926.1 L 15.2,926.1 L 15.2,995.9 " fill="none" stroke="url(#strokeB)" stroke-width="1.17" stroke-linecap="round" stroke-linejoin="round"/><circle cx="15.2" cy="995.9" r="2.9" fill="#FF4D8D" opacity="0.45"/><circle cx="15.2" cy="926.1" r="3.7" fill="#FF4D8D" opacity="0.45"/><circle cx="61.0" cy="984.7" r="3.0" fill="#FF4D8D" opacity="0.45"/></g>
<g opacity="0.242" filter="url(#softGlow)"><path d="M 190.8,905.8 L 1842.6,905.8 L 1842.6,870.4 L 128.2,870.4 L 128.2,52.1 " fill="none" stroke="url(#strokeB)" stroke-width="1.25" stroke-linecap="round" stroke-linejoin="round"/><circle cx="1842.6" cy="870.4" r="3.0" fill="#FF4D8D" opacity="0.45"/><circle cx="128.2" cy="870.4" r="2.8" fill="#FF4D8D" opacity="0.45"/><circle cx="128.2" cy="52.1" r="2.2" fill="#FF4D8D" opacity="0.45"/></g>
<g opacity="0.242" filter="url(#softGlow)"><path d="M 1880.5,1049.6 L 1747.8,1049.6 L 1747.8,45.4 L 135.1,45.4 L 135.1,177.8 " fill="none" stroke="url(#strokeB)" stroke-width="1.32" stroke-linecap="round" stroke-linejoin="round"/><circle cx="1747.8" cy="45.4" r="3.2" fill="#FF4D8D" opacity="0.45"/><circle cx="1880.5" cy="1049.6" r="3.2" fill="#FF4D8D" opacity="0.45"/><circle cx="135.1" cy="45.4" r="4.1" fill="#FF4D8D" opacity="0.45"/></g>
<g opacity="0.242" filter="url(#softGlow)"><path d="M 1851.5,161.8 L 214.1,161.8 L 214.1,965.9 L 11.0,965.9 L 11.0,137.1 " fill="none" stroke="url(#strokeB)" stroke-width="1.32" stroke-linecap="round" stroke-linejoin="round"/><circle cx="214.1" cy="161.8" r="3.4" fill="#FF4D8D" opacity="0.45"/><circle cx="214.1" cy="965.9" r="3.6" fill="#FF4D8D" opacity="0.45"/><circle cx="11.0" cy="137.1" r="2.9" fill="#FF4D8D" opacity="0.45"/></g>
<g opacity="0.242" filter="url(#softGlow)"><path d="M 3.0,896.5 L 75.0,896.5 L 75.0,306.1 L 1890.7,306.1 L 1890.7,983.3 " fill="none" stroke="url(#strokeB)" stroke-width="1.12" stroke-linecap="round" stroke-linejoin="round"/><circle cx="3.0" cy="896.5" r="3.7" fill="#FF4D8D" opacity="0.45"/><circle cx="75.0" cy="896.5" r="2.7" fill="#FF4D8D" opacity="0.45"/><circle cx="1890.7" cy="306.1" r="2.1" fill="#FF4D8D" opacity="0.45"/></g>
<g opacity="0.242" filter="url(#softGlow)"><path d="M 1.9,1025.5 L 1290.0,1025.5 L 1290.0,102.2 L 1705.6,102.2 L 1705.6,628.1 " fill="none" stroke="url(#strokeB)" stroke-width="1.71" stroke-linecap="round" stroke-linejoin="round"/><circle cx="1290.0" cy="102.2" r="3.8" fill="#FF4D8D" opacity="0.45"/><circle cx="1290.0" cy="1025.5" r="3.6" fill="#FF4D8D" opacity="0.45"/><circle cx="1705.6" cy="628.1" r="3.6" fill="#FF4D8D" opacity="0.45"/></g>
<g opacity="0.242" filter="url(#softGlow)"><path d="M 49.4,526.1 L 1872.5,526.1 L 1872.5,727.9 L 1726.5,727.9 L 1726.5,935.9 " fill="none" stroke="url(#strokeB)" stroke-width="2.16" stroke-linecap="round" stroke-linejoin="round"/><circle cx="1872.5" cy="727.9" r="3.1" fill="#FF4D8D" opacity="0.45"/><circle cx="1726.5" cy="727.9" r="3.0" fill="#FF4D8D" opacity="0.45"/><circle cx="49.4" cy="526.1" r="2.3" fill="#FF4D8D" opacity="0.45"/></g>
<g opacity="0.242" filter="url(#softGlow)"><path d="M 1849.7,50.0 L 1890.5,50.0 L 1890.5,30.2 L 184.5,30.2 L 184.5,429.0 " fill="none" stroke="url(#strokeB)" stroke-width="2.12" stroke-linecap="round" stroke-linejoin="round"/><circle cx="184.5" cy="429.0" r="2.6" fill="#FF4D8D" opacity="0.45"/><circle cx="1890.5" cy="30.2" r="2.5" fill="#FF4D8D" opacity="0.45"/><circle cx="1890.5" cy="50.0" r="3.1" fill="#FF4D8D" opacity="0.45"/></g>
<g opacity="0.242" filter="url(#softGlow)"><path d="M 198.8,968.4 L 83.7,968.4 L 83.7,1026.2 L 56.3,1026.2 L 56.3,991.0 " fill="none" stroke="url(#strokeB)" stroke-width="2.11" stroke-linecap="round" stroke-linejoin="round"/><circle cx="83.7" cy="1026.2" r="2.4" fill="#FF4D8D" opacity="0.45"/><circle cx="56.3" cy="991.0" r="2.3" fill="#FF4D8D" opacity="0.45"/><circle cx="56.3" cy="1026.2" r="3.4" fill="#FF4D8D" opacity="0.45"/></g>
<g opacity="0.242" filter="url(#softGlow)"><path d="M 728.5,1065.1 L 1855.5,1065.1 L 1855.5,39.1 L 1722.3,39.1 L 1722.3,51.4 " fill="none" stroke="url(#strokeB)" stroke-width="1.84" stroke-linecap="round" stroke-linejoin="round"/><circle cx="1722.3" cy="51.4" r="2.4" fill="#FF4D8D" opacity="0.45"/><circle cx="728.5" cy="1065.1" r="3.6" fill="#FF4D8D" opacity="0.45"/><circle cx="1855.5" cy="39.1" r="4.2" fill="#FF4D8D" opacity="0.45"/></g>
<g opacity="0.242" filter="url(#softGlow)"><path d="M 1880.1,1014.3 L 1839.5,1014.3 L 1839.5,153.4 L 1844.5,153.4 L 1844.5,1007.9 " fill="none" stroke="url(#strokeB)" stroke-width="1.74" stroke-linecap="round" stroke-linejoin="round"/><circle cx="1880.1" cy="1014.3" r="2.8" fill="#FF4D8D" opacity="0.45"/><circle cx="1844.5" cy="153.4" r="4.0" fill="#FF4D8D" opacity="0.45"/><circle cx="1839.5" cy="1014.3" r="3.5" fill="#FF4D8D" opacity="0.45"/></g>

<g opacity="0.757" filter="url(#hardGlow)">
  <circle cx="141.8" cy="90.7" r="45.1" fill="#0A1224" opacity="0.65"/>
  <circle cx="141.8" cy="90.7" r="45.1" fill="none" stroke="url(#strokeA)" stroke-width="3.6" opacity="0.85"/>
  <circle cx="141.8" cy="90.7" r="38.8" fill="none" stroke="#00FFA3" stroke-width="1.5" opacity="0.35"/>
  <polygon points="113.3,106.3 114.0,73.8 142.5,58.2 170.3,75.0 169.6,107.5 141.1,123.2" fill="none" stroke="url(#strokeB)" stroke-width="1.2" opacity="0.65"/>
  <polygon points="130.5,92.4 145.9,80.1 148.9,99.5" fill="#00FFA3" opacity="0.22" filter="url(#softGlow)"/>
</g>


<g opacity="0.409" filter="url(#hardGlow)">
  <circle cx="139.4" cy="98.3" r="23.8" fill="#0A1224" opacity="0.65"/>
  <circle cx="139.4" cy="98.3" r="23.8" fill="none" stroke="url(#strokeA)" stroke-width="2.0" opacity="0.85"/>
  <circle cx="139.4" cy="98.3" r="20.4" fill="none" stroke="#FF4D8D" stroke-width="1.5" opacity="0.35"/>
  <polygon points="125.1,88.9 140.3,81.2 154.7,90.5 153.7,107.6 138.5,115.4 124.1,106.0" fill="none" stroke="url(#strokeB)" stroke-width="1.2" opacity="0.65"/>
  <polygon points="135.8,93.5 145.3,97.6 137.0,103.8" fill="#FF4D8D" opacity="0.22" filter="url(#softGlow)"/>
</g>


<g opacity="0.459" filter="url(#hardGlow)">
  <circle cx="162.1" cy="56.9" r="22.1" fill="#0A1224" opacity="0.65"/>
  <circle cx="162.1" cy="56.9" r="22.1" fill="none" stroke="url(#strokeA)" stroke-width="2.0" opacity="0.85"/>
  <circle cx="162.1" cy="56.9" r="19.0" fill="none" stroke="#FF4D8D" stroke-width="1.5" opacity="0.35"/>
  <polygon points="177.2,61.7 165.5,72.4 150.3,67.7 146.9,52.1 158.6,41.4 173.8,46.2" fill="none" stroke="url(#strokeB)" stroke-width="1.2" opacity="0.65"/>
  
</g>


<g opacity="0.903" filter="url(#hardGlow)">
  <circle cx="69.0" cy="96.3" r="41.6" fill="#0A1224" opacity="0.65"/>
  <circle cx="69.0" cy="96.3" r="41.6" fill="none" stroke="url(#strokeA)" stroke-width="3.3" opacity="0.85"/>
  <circle cx="69.0" cy="96.3" r="35.8" fill="none" stroke="#00FFA3" stroke-width="1.5" opacity="0.35"/>
  <polygon points="43.8,80.2 70.3,66.4 95.6,82.5 94.3,112.4 67.7,126.2 42.5,110.1" fill="none" stroke="url(#strokeB)" stroke-width="1.2" opacity="0.65"/>
  <polygon points="62.7,88.0 79.4,94.9 65.0,106.0" fill="#00FFA3" opacity="0.22" filter="url(#softGlow)"/>
</g>


<g opacity="0.592" filter="url(#hardGlow)">
  <circle cx="114.1" cy="89.9" r="19.3" fill="#0A1224" opacity="0.65"/>
  <circle cx="114.1" cy="89.9" r="19.3" fill="none" stroke="url(#strokeA)" stroke-width="2.0" opacity="0.85"/>
  <circle cx="114.1" cy="89.9" r="16.6" fill="none" stroke="#FF4D8D" stroke-width="1.5" opacity="0.35"/>
  <polygon points="124.9,81.1 127.1,94.8 116.3,103.6 103.3,98.7 101.1,84.9 111.9,76.2" fill="none" stroke="url(#strokeB)" stroke-width="1.2" opacity="0.65"/>
  
</g>


<g opacity="0.601" filter="url(#hardGlow)">
  <circle cx="37.8" cy="140.5" r="20.9" fill="#0A1224" opacity="0.65"/>
  <circle cx="37.8" cy="140.5" r="20.9" fill="none" stroke="url(#strokeA)" stroke-width="2.0" opacity="0.85"/>
  <circle cx="37.8" cy="140.5" r="18.0" fill="none" stroke="#FF4D8D" stroke-width="1.5" opacity="0.35"/>
  <polygon points="51.2,133.7 50.4,148.8 36.9,155.6 24.3,147.3 25.2,132.3 38.6,125.5" fill="none" stroke="url(#strokeB)" stroke-width="1.2" opacity="0.65"/>
  
</g>


<g opacity="0.707" filter="url(#hardGlow)">
  <circle cx="1782.0" cy="481.0" r="50.5" fill="#0A1224" opacity="0.65"/>
  <circle cx="1782.0" cy="481.0" r="50.5" fill="none" stroke="url(#strokeA)" stroke-width="4.0" opacity="0.85"/>
  <circle cx="1782.0" cy="481.0" r="43.4" fill="none" stroke="#00FFA3" stroke-width="1.5" opacity="0.35"/>
  <polygon points="1756.9,454.7 1792.2,446.1 1817.3,472.4 1807.1,507.3 1771.7,515.9 1746.6,489.6" fill="none" stroke="url(#strokeB)" stroke-width="1.3" opacity="0.65"/>
  <polygon points="1776.8,469.3 1794.6,482.4 1774.4,491.2" fill="#00FFA3" opacity="0.22" filter="url(#softGlow)"/>
</g>


<g opacity="0.625" filter="url(#hardGlow)">
  <circle cx="1758.6" cy="509.3" r="23.6" fill="#0A1224" opacity="0.65"/>
  <circle cx="1758.6" cy="509.3" r="23.6" fill="none" stroke="url(#strokeA)" stroke-width="2.0" opacity="0.85"/>
  <circle cx="1758.6" cy="509.3" r="20.3" fill="none" stroke="#FF4D8D" stroke-width="1.5" opacity="0.35"/>
  <polygon points="1767.1,494.6 1775.6,509.3 1767.1,524.1 1750.0,524.0 1741.6,509.3 1750.1,494.6" fill="none" stroke="url(#strokeB)" stroke-width="1.2" opacity="0.65"/>
  
</g>


<g opacity="0.479" filter="url(#hardGlow)">
  <circle cx="1848.3" cy="487.4" r="25.0" fill="#0A1224" opacity="0.65"/>
  <circle cx="1848.3" cy="487.4" r="25.0" fill="none" stroke="url(#strokeA)" stroke-width="2.0" opacity="0.85"/>
  <circle cx="1848.3" cy="487.4" r="21.5" fill="none" stroke="#FF4D8D" stroke-width="1.5" opacity="0.35"/>
  <polygon points="1865.6,482.3 1861.4,499.8 1844.1,505.0 1831.0,492.6 1835.2,475.0 1852.5,469.9" fill="none" stroke="url(#strokeB)" stroke-width="1.2" opacity="0.65"/>
  
</g>


<g opacity="0.834" filter="url(#hardGlow)">
  <circle cx="144.5" cy="5.2" r="61.5" fill="#0A1224" opacity="0.65"/>
  <circle cx="144.5" cy="5.2" r="61.5" fill="none" stroke="url(#strokeA)" stroke-width="4.9" opacity="0.85"/>
  <circle cx="144.5" cy="5.2" r="52.9" fill="none" stroke="#00FFA3" stroke-width="1.8" opacity="0.35"/>
  <polygon points="181.5,29.6 141.9,49.3 104.9,25.0 107.6,-19.2 147.2,-39.0 184.1,-14.6" fill="none" stroke="url(#strokeB)" stroke-width="1.5" opacity="0.65"/>
  <polygon points="153.8,17.6 129.1,6.9 150.7,-9.0" fill="#00FFA3" opacity="0.22" filter="url(#softGlow)"/>
</g>


<g opacity="0.390" filter="url(#hardGlow)">
  <circle cx="238.1" cy="66.3" r="26.7" fill="#0A1224" opacity="0.65"/>
  <circle cx="238.1" cy="66.3" r="26.7" fill="none" stroke="url(#strokeA)" stroke-width="2.1" opacity="0.85"/>
  <circle cx="238.1" cy="66.3" r="23.0" fill="none" stroke="#FF4D8D" stroke-width="1.5" opacity="0.35"/>
  <polygon points="219.0,68.5 226.6,50.8 245.7,48.6 257.2,64.0 249.6,81.7 230.5,83.9" fill="none" stroke="url(#strokeB)" stroke-width="1.2" opacity="0.65"/>
  <polygon points="231.5,64.7 242.7,61.3 240.0,72.7" fill="#FF4D8D" opacity="0.22" filter="url(#softGlow)"/>
</g>


<g opacity="0.646" filter="url(#hardGlow)">
  <circle cx="161.1" cy="18.0" r="32.2" fill="#0A1224" opacity="0.65"/>
  <circle cx="161.1" cy="18.0" r="32.2" fill="none" stroke="url(#strokeA)" stroke-width="2.6" opacity="0.85"/>
  <circle cx="161.1" cy="18.0" r="27.7" fill="none" stroke="#FF4D8D" stroke-width="1.5" opacity="0.35"/>
  <polygon points="156.0,-4.6 178.2,2.3 183.3,24.9 166.3,40.7 144.1,33.8 139.0,11.2" fill="none" stroke="url(#strokeB)" stroke-width="1.2" opacity="0.65"/>
  
</g>


<g opacity="0.300" transform="translate(143.6,3.5) rotate(-5.7)" filter="url(#softGlow)">
  <rect x="-96.5" y="-87.7" width="193.1" height="175.5" rx="17.5" fill="#050A12" opacity="0.25"/>
  <rect x="-96.5" y="-87.7" width="193.1" height="175.5" rx="17.5" fill="none" stroke="url(#strokeA)" stroke-width="8.8" opacity="0.85"/>
  <rect x="-82.5" y="-73.7" width="165.0" height="147.4" rx="12.3" fill="none" stroke="#00FFA3" stroke-width="3.5" opacity="0.35"/>
</g>


<g opacity="0.330" transform="translate(168.6,22.3) rotate(-5.0)" filter="url(#softGlow)">
  <rect x="-92.7" y="-63.9" width="185.4" height="127.7" rx="12.8" fill="#050A12" opacity="0.25"/>
  <rect x="-92.7" y="-63.9" width="185.4" height="127.7" rx="12.8" fill="none" stroke="url(#strokeA)" stroke-width="6.4" opacity="0.85"/>
  <rect x="-82.5" y="-53.7" width="165.0" height="107.3" rx="8.9" fill="none" stroke="#FF4D8D" stroke-width="2.6" opacity="0.35"/>
</g>


<g opacity="0.377" transform="translate(1803.6,1033.8) rotate(-2.3)" filter="url(#softGlow)">
  <rect x="-82.5" y="-57.2" width="165.1" height="114.3" rx="11.4" fill="#050A12" opacity="0.25"/>
  <rect x="-82.5" y="-57.2" width="165.1" height="114.3" rx="11.4" fill="none" stroke="url(#strokeA)" stroke-width="5.7" opacity="0.85"/>
  <rect x="-73.4" y="-48.0" width="146.8" height="96.0" rx="8.0" fill="none" stroke="#FF4D8D" stroke-width="2.3" opacity="0.35"/>
</g>


<g opacity="0.312" transform="translate(46.1,993.6) rotate(3.9)" filter="url(#softGlow)">
  <rect x="-99.1" y="-72.1" width="198.1" height="144.2" rx="14.4" fill="#050A12" opacity="0.25"/>
  <rect x="-99.1" y="-72.1" width="198.1" height="144.2" rx="14.4" fill="none" stroke="url(#strokeA)" stroke-width="7.2" opacity="0.85"/>
  <rect x="-87.5" y="-60.6" width="175.1" height="121.1" rx="10.1" fill="none" stroke="#FF4D8D" stroke-width="2.9" opacity="0.35"/>
</g>


<g opacity="0.304" transform="translate(1652.5,984.0) rotate(14.2)" filter="url(#softGlow)">
  <rect x="-58.9" y="-33.9" width="117.8" height="67.9" rx="20.7" fill="none" stroke="#00FFA3" stroke-width="11.3" opacity="0.55"/>
  <rect x="-25.9" y="-17.0" width="117.8" height="67.9" rx="20.7" fill="none" stroke="url(#strokeA)" stroke-width="9.4" opacity="0.55"/>
</g>


<g opacity="0.389" transform="translate(1645.9,42.0) rotate(-17.7)" filter="url(#softGlow)">
  <rect x="-49.4" y="-28.5" width="98.8" height="56.9" rx="17.4" fill="none" stroke="#FF4D8D" stroke-width="9.5" opacity="0.55"/>
  <rect x="-21.7" y="-14.2" width="98.8" height="56.9" rx="17.4" fill="none" stroke="url(#strokeA)" stroke-width="7.9" opacity="0.55"/>
</g>


<g opacity="0.331" transform="translate(1900.1,189.8) rotate(2.8)" filter="url(#softGlow)">
  <rect x="-42.8" y="-24.6" width="85.6" height="49.3" rx="15.1" fill="none" stroke="#FF4D8D" stroke-width="8.2" opacity="0.55"/>
  <rect x="-18.8" y="-12.3" width="85.6" height="49.3" rx="15.1" fill="none" stroke="url(#strokeA)" stroke-width="6.8" opacity="0.55"/>
</g>


<g opacity="0.473" transform="translate(116.2,941.8) rotate(5.4)" filter="url(#softGlow)">
  <rect x="-36.8" y="-21.2" width="73.6" height="42.4" rx="12.9" fill="none" stroke="#FF4D8D" stroke-width="7.1" opacity="0.55"/>
  <rect x="-16.2" y="-10.6" width="73.6" height="42.4" rx="12.9" fill="none" stroke="url(#strokeA)" stroke-width="5.9" opacity="0.55"/>
</g>


<g opacity="0.300" transform="translate(846.4,30.7) rotate(2.8)" filter="url(#softGlow)">
  <rect x="-53.4" y="-30.7" width="106.7" height="61.5" rx="18.8" fill="none" stroke="#00FFA3" stroke-width="10.2" opacity="0.55"/>
  <rect x="-23.5" y="-15.4" width="106.7" height="61.5" rx="18.8" fill="none" stroke="url(#strokeA)" stroke-width="8.5" opacity="0.55"/>
</g>


<g opacity="0.273" transform="translate(136.4,691.8) rotate(-5.0)" filter="url(#softGlow)">
  <rect x="-36.6" y="-21.1" width="73.3" height="42.2" rx="12.9" fill="none" stroke="#FF4D8D" stroke-width="7.0" opacity="0.55"/>
  <rect x="-16.1" y="-10.5" width="73.3" height="42.2" rx="12.9" fill="none" stroke="url(#strokeA)" stroke-width="5.9" opacity="0.55"/>
</g>


<g opacity="0.142">
  <line x1="221.9" y1="901.1" x2="221.9" y2="964.5" stroke="#FF4D8D" stroke-width="2.11" opacity="0.45"/>
  <rect x="217.9" y="940.1" width="8.1" height="23.5" rx="2.7" fill="#0B1020" opacity="0.55" stroke="url(#strokeA)" stroke-width="1.2"/>
</g>

<g opacity="0.142">
  <line x1="1761.1" y1="883.5" x2="1761.1" y2="968.9" stroke="#FF4D8D" stroke-width="1.83" opacity="0.45"/>
  <rect x="1755.5" y="931.3" width="11.3" height="41.1" rx="3.8" fill="#0B1020" opacity="0.55" stroke="url(#strokeA)" stroke-width="1.2"/>
</g>

<g opacity="0.142">
  <line x1="104.1" y1="883.9" x2="104.1" y2="968.8" stroke="#FF4D8D" stroke-width="1.23" opacity="0.45"/>
  <rect x="100.0" y="937.1" width="8.3" height="29.4" rx="2.8" fill="#0B1020" opacity="0.55" stroke="url(#strokeA)" stroke-width="1.2"/>
</g>

<g opacity="0.142">
  <line x1="247.2" y1="869.1" x2="247.2" y2="972.5" stroke="#FF4D8D" stroke-width="1.43" opacity="0.45"/>
  <rect x="241.3" y="924.1" width="11.9" height="55.5" rx="4.0" fill="#0B1020" opacity="0.55" stroke="url(#strokeA)" stroke-width="1.2"/>
</g>

<g opacity="0.142">
  <line x1="62.3" y1="866.6" x2="62.3" y2="973.1" stroke="#FF4D8D" stroke-width="1.61" opacity="0.45"/>
  <rect x="58.7" y="924.1" width="7.1" height="55.4" rx="2.4" fill="#0B1020" opacity="0.55" stroke="url(#strokeA)" stroke-width="1.2"/>
</g>

<g opacity="0.142">
  <line x1="124.4" y1="866.9" x2="124.4" y2="973.1" stroke="#FF4D8D" stroke-width="2.00" opacity="0.45"/>
  <rect x="119.6" y="927.9" width="9.7" height="47.9" rx="3.2" fill="#0B1020" opacity="0.55" stroke="url(#strokeA)" stroke-width="1.2"/>
</g>

<g opacity="0.142">
  <line x1="1622.1" y1="891.3" x2="1622.1" y2="967.0" stroke="#FF4D8D" stroke-width="1.91" opacity="0.45"/>
  <rect x="1618.6" y="938.5" width="7.1" height="26.6" rx="2.4" fill="#0B1020" opacity="0.55" stroke="url(#strokeA)" stroke-width="1.2"/>
</g>

<g opacity="0.142">
  <line x1="1664.5" y1="856.3" x2="1664.5" y2="975.7" stroke="#FF4D8D" stroke-width="1.59" opacity="0.45"/>
  <rect x="1660.6" y="923.9" width="7.9" height="55.9" rx="2.6" fill="#0B1020" opacity="0.55" stroke="url(#strokeA)" stroke-width="1.2"/>
</g>
<circle cx="145.9" cy="226.7" r="1.6" fill="#00FFA3" opacity="0.27" filter="url(#softGlow)"/>
<circle cx="1888.9" cy="369.5" r="2.0" fill="#00FFA3" opacity="0.13" filter="url(#softGlow)"/>
<circle cx="185.0" cy="892.4" r="1.9" fill="#00FFA3" opacity="0.10" filter="url(#softGlow)"/>
<circle cx="95.1" cy="994.4" r="2.7" fill="#00FFA3" opacity="0.15" filter="url(#softGlow)"/>
<circle cx="1836.2" cy="1052.6" r="2.9" fill="#00FFA3" opacity="0.19" filter="url(#softGlow)"/>
<circle cx="1914.8" cy="914.7" r="2.4" fill="#00FFA3" opacity="0.15" filter="url(#softGlow)"/>
<circle cx="199.6" cy="977.0" r="2.6" fill="#00FFA3" opacity="0.21" filter="url(#softGlow)"/>
<circle cx="1855.6" cy="920.6" r="2.9" fill="#00FFA3" opacity="0.14" filter="url(#softGlow)"/>
<circle cx="1859.1" cy="51.9" r="2.3" fill="#00FFA3" opacity="0.13" filter="url(#softGlow)"/>
<circle cx="63.2" cy="1061.7" r="1.9" fill="#00FFA3" opacity="0.27" filter="url(#softGlow)"/>
<circle cx="465.4" cy="1040.8" r="1.6" fill="#00FFA3" opacity="0.23" filter="url(#softGlow)"/>
<circle cx="231.4" cy="906.2" r="2.9" fill="#00FFA3" opacity="0.17" filter="url(#softGlow)"/>
<circle cx="52.8" cy="346.0" r="1.4" fill="#00FFA3" opacity="0.18" filter="url(#softGlow)"/>
<circle cx="1855.7" cy="288.4" r="2.8" fill="#00FFA3" opacity="0.24" filter="url(#softGlow)"/>
<circle cx="183.6" cy="928.9" r="1.8" fill="#00FFA3" opacity="0.15" filter="url(#softGlow)"/>
<circle cx="32.2" cy="196.5" r="3.0" fill="#00FFA3" opacity="0.23" filter="url(#softGlow)"/>
<circle cx="196.3" cy="105.0" r="3.1" fill="#00FFA3" opacity="0.16" filter="url(#softGlow)"/>
<circle cx="1880.5" cy="401.8" r="3.1" fill="#00FFA3" opacity="0.21" filter="url(#softGlow)"/>
<circle cx="117.7" cy="1014.3" r="2.9" fill="#00FFA3" opacity="0.14" filter="url(#softGlow)"/>
<circle cx="1762.4" cy="892.3" r="2.7" fill="#00FFA3" opacity="0.18" filter="url(#softGlow)"/>
<circle cx="111.8" cy="313.8" r="2.2" fill="#00FFA3" opacity="0.13" filter="url(#softGlow)"/>
<circle cx="1582.1" cy="1030.6" r="3.0" fill="#00FFA3" opacity="0.26" filter="url(#softGlow)"/>
<circle cx="171.0" cy="817.7" r="2.0" fill="#00FFA3" opacity="0.13" filter="url(#softGlow)"/>
<circle cx="201.7" cy="164.4" r="2.3" fill="#00FFA3" opacity="0.21" filter="url(#softGlow)"/>
<circle cx="71.8" cy="866.0" r="2.6" fill="#00FFA3" opacity="0.24" filter="url(#softGlow)"/>
<circle cx="1602.6" cy="979.8" r="2.0" fill="#00FFA3" opacity="0.22" filter="url(#softGlow)"/>
<circle cx="47.7" cy="964.5" r="2.8" fill="#00FFA3" opacity="0.26" filter="url(#softGlow)"/>
<circle cx="1842.9" cy="367.1" r="2.4" fill="#00FFA3" opacity="0.11" filter="url(#softGlow)"/>
<circle cx="1910.5" cy="950.2" r="3.0" fill="#00FFA3" opacity="0.22" filter="url(#softGlow)"/>
<circle cx="43.6" cy="1078.7" r="1.6" fill="#00FFA3" opacity="0.24" filter="url(#softGlow)"/>
<circle cx="70.2" cy="1004.9" r="1.9" fill="#00FFA3" opacity="0.24" filter="url(#softGlow)"/>
<circle cx="199.4" cy="1026.6" r="2.6" fill="#00FFA3" opacity="0.16" filter="url(#softGlow)"/>
</svg>