<svg xmlns="http://www.w3.org/2000/svg" width="900" height="1600" viewBox="0 0 900 1600" preserveAspectRatio="xMidYMid slice">
<defs>
  <linearGradient id="g0" x1="0" y1="0" x2="1" y2="1">
    <stop offset="0" stop-color="#0B1020"/>
    <stop offset="0.55" stop-color="#F97316" stop-opacity="0.9"/>
    <stop offset="1" stop-color="#020617"/>
  </linearGradient>
  <radialGradient id="g1" cx="20%" cy="15%" r="70%">
    <stop offset="0" stop-color="#06B6D4" stop-opacity="0.38"/>
    <stop offset="0.6" stop-color="#06B6D4" stop-opacity="0.08"/>
    <stop offset="1" stop-color="#06B6D4" stop-opacity="0"/>
  </radialGradient>
  <radialGradient id="g2" cx="85%" cy="80%" r="75%">
    <stop offset="0" stop-color="#06B6D4" stop-opacity="0.28"/>
    <stop offset="0.65" stop-color="#06B6D4" stop-opacity="0.06"/>
    <stop offset="1" stop-color="#06B6D4" stop-opacity="0"/>
  </radialGradient>
  <filter id="softGlow" x="-30%" y="-30%" width="160%" height="160%">
    <feGaussianBlur stdDeviation="12" result="b"/>
    <feMerge>
      <feMergeNode in="b"/>
      <feMergeNode in="SourceGraphic"/>
    </feMerge>
  </filter>
  <filter id="hardGlow" x="-40%" y="-40%" width="180%" height="180%">
    <feGaussianBlur stdDeviation="6" result="b"/>
    <feColorMatrix in="b" type="matrix" values="1 0 0 0 0  0 1 0 0 0  0 0 1 0 0  0 0 0 18 -7" result="c"/>
    <feMerge>
      <feMergeNode in="c"/>
      <feMergeNode in="SourceGraphic"/>
    </feMerge>
  </filter>
  <linearGradient id="strokeA" x1="0" y1="0" x2="1" y2="0">
    <stop offset="0" stop-color="#06B6D4" stop-opacity="0.9"/>
    <stop offset="0.5" stop-color="#FFFFFF" stop-opacity="0.25"/>
    <stop offset="1" stop-color="#06B6D4" stop-opacity="0.7"/>
  </linearGradient>
  <linearGradient id="strokeB" x1="0" y1="0" x2="0" y2="1">
    <stop offset="0" stop-color="#FFFFFF" stop-opacity="0.18"/>
    <stop offset="1" stop-color="#06B6D4" stop-opacity="0.55"/>
  </linearGradient>
</defs>
<rect x="0" y="0" width="900" height="1600" fill="url(#g0)"/>
<rect x="0" y="0" width="900" height="1600" fill="url(#g1)"/>
<rect x="0" y="0" width="900" height="1600" fill="url(#g2)"/>


<defs>
  <radialGradient id="vign" cx="0.5000" cy="0.5000" r="0.85">
    <stop offset="0" stop-color="#000000" stop-opacity="0"/>
    <stop offset="0.55" stop-color="#000000" stop-opacity="0.217"/>
    <stop offset="1" stop-color="#000000" stop-opacity="0.620"/>
  </radialGradient>
</defs>
<rect x="0" y="0" width="900" height="1600" fill="url(#vign)"/>

<g opacity="0.224" filter="url(#softGlow)"><path d="M 861.9,33.2 L 109.8,33.2 L 109.8,92.9 L 869.4,92.9 L 869.4,1513.4 " fill="none" stroke="url(#strokeB)" stroke-width="1.97" stroke-linecap="round" stroke-linejoin="round"/><circle cx="861.9" cy="33.2" r="2.4" fill="#F97316" opacity="0.45"/><circle cx="109.8" cy="33.2" r="3.9" fill="#F97316" opacity="0.45"/><circle cx="869.4" cy="92.9" r="3.6" fill="#F97316" opacity="0.45"/></g>
<g opacity="0.224" filter="url(#softGlow)"><path d="M 681.6,1560.7 L 0.9,1560.7 L 0.9,558.6 L 753.2,558.6 L 753.2,145.2 " fill="none" stroke="url(#strokeB)" stroke-width="1.78" stroke-linecap="round" stroke-linejoin="round"/><circle cx="681.6" cy="1560.7" r="4.0" fill="#F97316" opacity="0.45"/><circle cx="753.2" cy="145.2" r="2.9" fill="#F97316" opacity="0.45"/><circle cx="0.9" cy="558.6" r="2.0" fill="#F97316" opacity="0.45"/></g>
<g opacity="0.224" filter="url(#softGlow)"><path d="M 85.5,1598.3 L 133.4,1598.3 L 133.4,19.4 L 745.3,19.4 L 745.3,1553.7 " fill="none" stroke="url(#strokeB)" stroke-width="1.39" stroke-linecap="round" stroke-linejoin="round"/><circle cx="133.4" cy="1598.3" r="4.0" fill="#F97316" opacity="0.45"/><circle cx="745.3" cy="19.4" r="3.6" fill="#F97316" opacity="0.45"/><circle cx="745.3" cy="1553.7" r="2.9" fill="#F97316" opacity="0.45"/></g>
<g opacity="0.224" filter="url(#softGlow)"><path d="M 387.7,146.1 L 50.7,146.1 L 50.7,1095.5 L 201.2,1095.5 L 201.2,32.7 " fill="none" stroke="url(#strokeB)" stroke-width="1.18" stroke-linecap="round" stroke-linejoin="round"/><circle cx="50.7" cy="1095.5" r="3.0" fill="#F97316" opacity="0.45"/><circle cx="201.2" cy="32.7" r="3.2" fill="#F97316" opacity="0.45"/><circle cx="387.7" cy="146.1" r="2.1" fill="#F97316" opacity="0.45"/></g>
<g opacity="0.224" filter="url(#softGlow)"><path d="M 107.3,1468.8 L 815.1,1468.8 L 815.1,736.7 L 774.6,736.7 L 774.6,32.8 " fill="none" stroke="url(#strokeB)" stroke-width="1.66" stroke-linecap="round" stroke-linejoin="round"/><circle cx="107.3" cy="1468.8" r="3.2" fill="#F97316" opacity="0.45"/><circle cx="815.1" cy="1468.8" r="2.7" fill="#F97316" opacity="0.45"/><circle cx="774.6" cy="32.8" r="3.4" fill="#F97316" opacity="0.45"/></g>
<g opacity="0.224" filter="url(#softGlow)"><path d="M 854.1,1426.6 L 59.9,1426.6 L 59.9,1579.7 L 734.7,1579.7 L 734.7,179.4 " fill="none" stroke="url(#strokeB)" stroke-width="1.42" stroke-linecap="round" stroke-linejoin="round"/><circle cx="734.7" cy="179.4" r="3.4" fill="#F97316" opacity="0.45"/><circle cx="854.1" cy="1426.6" r="2.9" fill="#F97316" opacity="0.45"/><circle cx="734.7" cy="1579.7" r="3.0" fill="#F97316" opacity="0.45"/></g>
<g opacity="0.224" filter="url(#softGlow)"><path d="M 820.7,1427.9 L 0.5,1427.9 L 0.5,674.4 L 78.5,674.4 L 78.5,1513.0 " fill="none" stroke="url(#strokeB)" stroke-width="1.80" stroke-linecap="round" stroke-linejoin="round"/><circle cx="820.7" cy="1427.9" r="2.3" fill="#F97316" opacity="0.45"/><circle cx="78.5" cy="674.4" r="3.5" fill="#F97316" opacity="0.45"/><circle cx="0.5" cy="674.4" r="2.3" fill="#F97316" opacity="0.45"/></g>
<g opacity="0.224" filter="url(#softGlow)"><path d="M 747.5,1161.8 L 568.5,1161.8 L 568.5,31.1 L 862.7,31.1 L 862.7,1575.0 " fill="none" stroke="url(#strokeB)" stroke-width="1.69" stroke-linecap="round" stroke-linejoin="round"/><circle cx="862.7" cy="31.1" r="2.3" fill="#F97316" opacity="0.45"/><circle cx="568.5" cy="31.1" r="3.8" fill="#F97316" opacity="0.45"/><circle cx="568.5" cy="1161.8" r="3.8" fill="#F97316" opacity="0.45"/></g>
<g opacity="0.224" filter="url(#softGlow)"><path d="M 66.0,1478.2 L 846.1,1478.2 L 846.1,1453.7 L 791.4,1453.7 L 791.4,27.4 " fill="none" stroke="url(#strokeB)" stroke-width="1.68" stroke-linecap="round" stroke-linejoin="round"/><circle cx="846.1" cy="1453.7" r="2.5" fill="#F97316" opacity="0.45"/><circle cx="791.4" cy="27.4" r="3.4" fill="#F97316" opacity="0.45"/><circle cx="846.1" cy="1478.2" r="2.6" fill="#F97316" opacity="0.45"/></g>
<g opacity="0.224" filter="url(#softGlow)"><path d="M 848.6,1430.4 L 838.4,1430.4 L 838.4,22.4 L 758.9,22.4 L 758.9,18.6 " fill="none" stroke="url(#strokeB)" stroke-width="1.94" stroke-linecap="round" stroke-linejoin="round"/><circle cx="838.4" cy="1430.4" r="4.1" fill="#F97316" opacity="0.45"/><circle cx="848.6" cy="1430.4" r="2.5" fill="#F97316" opacity="0.45"/><circle cx="758.9" cy="18.6" r="3.9" fill="#F97316" opacity="0.45"/></g>
<g opacity="0.224" filter="url(#softGlow)"><path d="M 111.0,1447.2 L 12.3,1447.2 L 12.3,95.5 L 742.2,95.5 L 742.2,1393.0 " fill="none" stroke="url(#strokeB)" stroke-width="1.31" stroke-linecap="round" stroke-linejoin="round"/><circle cx="12.3" cy="95.5" r="3.8" fill="#F97316" opacity="0.45"/><circle cx="742.2" cy="1393.0" r="2.9" fill="#F97316" opacity="0.45"/><circle cx="111.0" cy="1447.2" r="3.9" fill="#F97316" opacity="0.45"/></g>
<g opacity="0.224" filter="url(#softGlow)"><path d="M 777.8,297.5 L 164.2,297.5 L 164.2,1501.1 L 253.9,1501.1 L 253.9,126.7 " fill="none" stroke="url(#strokeB)" stroke-width="1.87" stroke-linecap="round" stroke-linejoin="round"/><circle cx="164.2" cy="1501.1" r="3.4" fill="#F97316" opacity="0.45"/><circle cx="164.2" cy="297.5" r="3.9" fill="#F97316" opacity="0.45"/><circle cx="253.9" cy="1501.1" r="4.0" fill="#F97316" opacity="0.45"/></g>
<g opacity="0.224" filter="url(#softGlow)"><path d="M 886.4,1528.9 L 84.6,1528.9 L 84.6,172.6 L 861.4,172.6 L 861.4,50.4 " fill="none" stroke="url(#strokeB)" stroke-width="1.66" stroke-linecap="round" stroke-linejoin="round"/><circle cx="861.4" cy="172.6" r="2.8" fill="#F97316" opacity="0.45"/><circle cx="84.6" cy="172.6" r="2.7" fill="#F97316" opacity="0.45"/><circle cx="886.4" cy="1528.9" r="3.4" fill="#F97316" opacity="0.45"/></g>
<g opacity="0.224" filter="url(#softGlow)"><path d="M 41.4,1487.2 L 5.1,1487.2 L 5.1,1504.2 L 100.3,1504.2 L 100.3,161.3 " fill="none" stroke="url(#strokeB)" stroke-width="2.03" stroke-linecap="round" stroke-linejoin="round"/><circle cx="41.4" cy="1487.2" r="3.5" fill="#F97316" opacity="0.45"/><circle cx="5.1" cy="1487.2" r="3.7" fill="#F97316" opacity="0.45"/><circle cx="100.3" cy="1504.2" r="3.4" fill="#F97316" opacity="0.45"/></g>
<g opacity="0.224" filter="url(#softGlow)"><path d="M 775.0,0.2 L 761.3,0.2 L 761.3,947.8 L 102.1,947.8 L 102.1,1569.8 " fill="none" stroke="url(#strokeB)" stroke-width="1.50" stroke-linecap="round" stroke-linejoin="round"/><circle cx="102.1" cy="947.8" r="2.9" fill="#F97316" opacity="0.45"/><circle cx="775.0" cy="0.2" r="2.3" fill="#F97316" opacity="0.45"/><circle cx="102.1" cy="1569.8" r="2.7" fill="#F97316" opacity="0.45"/></g>
<g opacity="0.224" filter="url(#softGlow)"><path d="M 70.0,0.8 L 27.2,0.8 L 27.2,1263.9 L 61.3,1263.9 L 61.3,363.8 " fill="none" stroke="url(#strokeB)" stroke-width="1.96" stroke-linecap="round" stroke-linejoin="round"/><circle cx="27.2" cy="0.8" r="2.7" fill="#F97316" opacity="0.45"/><circle cx="61.3" cy="363.8" r="3.9" fill="#F97316" opacity="0.45"/><circle cx="70.0" cy="0.8" r="3.1" fill="#F97316" opacity="0.45"/></g>
<g opacity="0.224" filter="url(#softGlow)"><path d="M 170.9,134.1 L 82.8,134.1 L 82.8,1463.6 L 465.0,1463.6 L 465.0,1530.0 " fill="none" stroke="url(#strokeB)" stroke-width="1.85" stroke-linecap="round" stroke-linejoin="round"/><circle cx="82.8" cy="134.1" r="3.9" fill="#F97316" opacity="0.45"/><circle cx="465.0" cy="1463.6" r="3.2" fill="#F97316" opacity="0.45"/><circle cx="170.9" cy="134.1" r="2.9" fill="#F97316" opacity="0.45"/></g>
<g opacity="0.224" filter="url(#softGlow)"><path d="M 839.5,150.4 L 826.8,150.4 L 826.8,37.7 L 777.5,37.7 L 777.5,10.2 " fill="none" stroke="url(#strokeB)" stroke-width="1.46" stroke-linecap="round" stroke-linejoin="round"/><circle cx="826.8" cy="150.4" r="3.8" fill="#F97316" opacity="0.45"/><circle cx="777.5" cy="10.2" r="3.3" fill="#F97316" opacity="0.45"/><circle cx="826.8" cy="37.7" r="3.2" fill="#F97316" opacity="0.45"/></g>
<g opacity="0.224" filter="url(#softGlow)"><path d="M 82.3,1520.6 L 899.6,1520.6 L 899.6,1555.4 L 59.6,1555.4 L 59.6,1459.6 " fill="none" stroke="url(#strokeB)" stroke-width="1.36" stroke-linecap="round" stroke-linejoin="round"/><circle cx="899.6" cy="1555.4" r="3.1" fill="#F97316" opacity="0.45"/><circle cx="82.3" cy="1520.6" r="4.0" fill="#F97316" opacity="0.45"/><circle cx="59.6" cy="1555.4" r="3.7" fill="#F97316" opacity="0.45"/></g>
<g opacity="0.224" filter="url(#softGlow)"><path d="M 749.3,82.1 L 21.4,82.1 L 21.4,1487.2 L 867.6,1487.2 L 867.6,141.2 " fill="none" stroke="url(#strokeB)" stroke-width="1.23" stroke-linecap="round" stroke-linejoin="round"/><circle cx="867.6" cy="1487.2" r="2.7" fill="#F97316" opacity="0.45"/><circle cx="867.6" cy="141.2" r="3.8" fill="#F97316" opacity="0.45"/><circle cx="21.4" cy="1487.2" r="2.7" fill="#F97316" opacity="0.45"/></g>
<g opacity="0.224" filter="url(#softGlow)"><path d="M 779.4,1445.4 L 43.0,1445.4 L 43.0,6.6 L 895.0,6.6 L 895.0,1488.3 " fill="none" stroke="url(#strokeB)" stroke-width="1.74" stroke-linecap="round" stroke-linejoin="round"/><circle cx="43.0" cy="1445.4" r="2.1" fill="#F97316" opacity="0.45"/><circle cx="43.0" cy="6.6" r="2.9" fill="#F97316" opacity="0.45"/><circle cx="895.0" cy="6.6" r="3.2" fill="#F97316" opacity="0.45"/></g>
<g opacity="0.224" filter="url(#softGlow)"><path d="M 870.1,852.9 L 755.1,852.9 L 755.1,1431.3 L 361.4,1431.3 L 361.4,1516.8 " fill="none" stroke="url(#strokeB)" stroke-width="1.70" stroke-linecap="round" stroke-linejoin="round"/><circle cx="755.1" cy="1431.3" r="2.2" fill="#F97316" opacity="0.45"/><circle cx="361.4" cy="1431.3" r="3.0" fill="#F97316" opacity="0.45"/><circle cx="755.1" cy="852.9" r="2.9" fill="#F97316" opacity="0.45"/></g>

<g opacity="0.714" filter="url(#hardGlow)">
  <circle cx="20.0" cy="1520.2" r="54.6" fill="#0A1224" opacity="0.65"/>
  <circle cx="20.0" cy="1520.2" r="54.6" fill="none" stroke="url(#strokeA)" stroke-width="4.4" opacity="0.85"/>
  <circle cx="20.0" cy="1520.2" r="47.0" fill="none" stroke="#06B6D4" stroke-width="1.6" opacity="0.35"/>
  <polygon points="13.6,1481.4 50.4,1495.3 56.8,1534.1 26.3,1559.0 -10.4,1545.1 -16.8,1506.3" fill="none" stroke="url(#strokeB)" stroke-width="1.4" opacity="0.65"/>
  <polygon points="22.5,1506.7 30.4,1529.2 7.0,1524.8" fill="#06B6D4" opacity="0.22" filter="url(#softGlow)"/>
</g>


<g opacity="0.591" filter="url(#hardGlow)">
  <circle cx="101.4" cy="1470.9" r="28.1" fill="#0A1224" opacity="0.65"/>
  <circle cx="101.4" cy="1470.9" r="28.1" fill="none" stroke="url(#strokeA)" stroke-width="2.2" opacity="0.85"/>
  <circle cx="101.4" cy="1470.9" r="24.2" fill="none" stroke="#F97316" stroke-width="1.5" opacity="0.35"/>
  <polygon points="81.3,1472.5 89.9,1454.2 110.1,1452.6 121.6,1469.3 112.9,1487.6 92.8,1489.2" fill="none" stroke="url(#strokeB)" stroke-width="1.2" opacity="0.65"/>
  <polygon points="94.6,1469.0 106.5,1465.9 103.2,1477.8" fill="#F97316" opacity="0.22" filter="url(#softGlow)"/>
</g>


<g opacity="0.919" filter="url(#hardGlow)">
  <circle cx="856.4" cy="285.7" r="37.8" fill="#0A1224" opacity="0.65"/>
  <circle cx="856.4" cy="285.7" r="37.8" fill="none" stroke="url(#strokeA)" stroke-width="3.0" opacity="0.85"/>
  <circle cx="856.4" cy="285.7" r="32.5" fill="none" stroke="#06B6D4" stroke-width="1.5" opacity="0.35"/>
  <polygon points="853.3,312.8 831.4,296.6 834.5,269.5 859.5,258.7 881.4,274.9 878.3,302.0" fill="none" stroke="url(#strokeB)" stroke-width="1.2" opacity="0.65"/>
  <polygon points="852.1,294.3 851.1,277.8 865.9,285.2" fill="#06B6D4" opacity="0.22" filter="url(#softGlow)"/>
</g>


<g opacity="0.568" filter="url(#hardGlow)">
  <circle cx="830.6" cy="300.8" r="16.0" fill="#0A1224" opacity="0.65"/>
  <circle cx="830.6" cy="300.8" r="16.0" fill="none" stroke="url(#strokeA)" stroke-width="2.0" opacity="0.85"/>
  <circle cx="830.6" cy="300.8" r="13.7" fill="none" stroke="#F97316" stroke-width="1.5" opacity="0.35"/>
  <polygon points="838.9,293.0 841.6,304.1 833.2,312.0 822.2,308.7 819.6,297.5 827.9,289.7" fill="none" stroke="url(#strokeB)" stroke-width="1.2" opacity="0.65"/>
  
</g>


<g opacity="0.886" filter="url(#hardGlow)">
  <circle cx="64.9" cy="1534.3" r="37.9" fill="#0A1224" opacity="0.65"/>
  <circle cx="64.9" cy="1534.3" r="37.9" fill="none" stroke="url(#strokeA)" stroke-width="3.0" opacity="0.85"/>
  <circle cx="64.9" cy="1534.3" r="32.6" fill="none" stroke="#06B6D4" stroke-width="1.5" opacity="0.35"/>
  <polygon points="46.3,1554.3 38.2,1528.3 56.7,1508.2 83.4,1514.2 91.5,1540.3 73.0,1560.3" fill="none" stroke="url(#strokeB)" stroke-width="1.2" opacity="0.65"/>
  <polygon points="56.4,1538.6 65.3,1524.7 72.9,1539.4" fill="#06B6D4" opacity="0.22" filter="url(#softGlow)"/>
</g>


<g opacity="0.601" filter="url(#hardGlow)">
  <circle cx="36.1" cy="1525.7" r="15.7" fill="#0A1224" opacity="0.65"/>
  <circle cx="36.1" cy="1525.7" r="15.7" fill="none" stroke="url(#strokeA)" stroke-width="2.0" opacity="0.85"/>
  <circle cx="36.1" cy="1525.7" r="13.5" fill="none" stroke="#F97316" stroke-width="1.5" opacity="0.35"/>
  <polygon points="25.9,1530.5 26.9,1519.3 37.1,1514.5 46.3,1520.9 45.4,1532.1 35.2,1536.9" fill="none" stroke="url(#strokeB)" stroke-width="1.2" opacity="0.65"/>
  
</g>


<g opacity="0.646" filter="url(#hardGlow)">
  <circle cx="42.4" cy="1518.0" r="20.6" fill="#0A1224" opacity="0.65"/>
  <circle cx="42.4" cy="1518.0" r="20.6" fill="none" stroke="url(#strokeA)" stroke-width="2.0" opacity="0.85"/>
  <circle cx="42.4" cy="1518.0" r="17.7" fill="none" stroke="#F97316" stroke-width="1.5" opacity="0.35"/>
  <polygon points="45.8,1503.6 56.6,1513.7 53.2,1528.2 39.0,1532.4 28.2,1522.2 31.6,1507.8" fill="none" stroke="url(#strokeB)" stroke-width="1.2" opacity="0.65"/>
  <polygon points="45.3,1513.7 44.8,1522.6 37.2,1517.7" fill="#F97316" opacity="0.22" filter="url(#softGlow)"/>
</g>


<g opacity="0.916" filter="url(#hardGlow)">
  <circle cx="858.9" cy="1508.3" r="32.0" fill="#0A1224" opacity="0.65"/>
  <circle cx="858.9" cy="1508.3" r="32.0" fill="none" stroke="url(#strokeA)" stroke-width="2.6" opacity="0.85"/>
  <circle cx="858.9" cy="1508.3" r="27.5" fill="none" stroke="#06B6D4" stroke-width="1.5" opacity="0.35"/>
  <polygon points="877.5,1494.8 879.9,1517.6 861.3,1531.2 840.3,1521.9 837.8,1499.0 856.4,1485.5" fill="none" stroke="url(#strokeB)" stroke-width="1.2" opacity="0.65"/>
  <polygon points="866.6,1506.1 857.0,1516.2 853.1,1502.8" fill="#06B6D4" opacity="0.22" filter="url(#softGlow)"/>
</g>


<g opacity="0.644" filter="url(#hardGlow)">
  <circle cx="858.3" cy="1484.8" r="15.4" fill="#0A1224" opacity="0.65"/>
  <circle cx="858.3" cy="1484.8" r="15.4" fill="none" stroke="url(#strokeA)" stroke-width="2.0" opacity="0.85"/>
  <circle cx="858.3" cy="1484.8" r="13.2" fill="none" stroke="#F97316" stroke-width="1.5" opacity="0.35"/>
  <polygon points="861.7,1474.2 869.1,1482.4 865.8,1492.9 855.0,1495.3 847.5,1487.1 850.9,1476.6" fill="none" stroke="url(#strokeB)" stroke-width="1.2" opacity="0.65"/>
  <polygon points="860.7,1481.7 859.8,1488.3 854.5,1484.3" fill="#F97316" opacity="0.22" filter="url(#softGlow)"/>
</g>


<g opacity="0.829" filter="url(#hardGlow)">
  <circle cx="59.7" cy="110.0" r="54.6" fill="#0A1224" opacity="0.65"/>
  <circle cx="59.7" cy="110.0" r="54.6" fill="none" stroke="url(#strokeA)" stroke-width="4.4" opacity="0.85"/>
  <circle cx="59.7" cy="110.0" r="47.0" fill="none" stroke="#06B6D4" stroke-width="1.6" opacity="0.35"/>
  <polygon points="92.6,131.6 57.5,149.3 24.6,127.7 26.9,88.4 62.0,70.8 94.9,92.4" fill="none" stroke="url(#strokeB)" stroke-width="1.4" opacity="0.65"/>
  <polygon points="68.0,121.1 46.1,111.6 65.2,97.4" fill="#06B6D4" opacity="0.22" filter="url(#softGlow)"/>
</g>


<g opacity="0.634" filter="url(#hardGlow)">
  <circle cx="115.9" cy="174.9" r="22.9" fill="#0A1224" opacity="0.65"/>
  <circle cx="115.9" cy="174.9" r="22.9" fill="none" stroke="url(#strokeA)" stroke-width="2.0" opacity="0.85"/>
  <circle cx="115.9" cy="174.9" r="19.7" fill="none" stroke="#F97316" stroke-width="1.5" opacity="0.35"/>
  <polygon points="124.8,161.0 132.3,175.7 123.4,189.6 107.0,188.8 99.4,174.2 108.3,160.3" fill="none" stroke="url(#strokeB)" stroke-width="1.2" opacity="0.65"/>
  <polygon points="120.5,171.4 116.6,180.6 110.5,172.7" fill="#F97316" opacity="0.22" filter="url(#softGlow)"/>
</g>


<g opacity="0.727" filter="url(#hardGlow)">
  <circle cx="701.4" cy="1523.3" r="43.3" fill="#0A1224" opacity="0.65"/>
  <circle cx="701.4" cy="1523.3" r="43.3" fill="none" stroke="url(#strokeA)" stroke-width="3.5" opacity="0.85"/>
  <circle cx="701.4" cy="1523.3" r="37.2" fill="none" stroke="#06B6D4" stroke-width="1.5" opacity="0.35"/>
  <polygon points="670.5,1519.4 689.4,1494.6 720.3,1498.6 732.3,1527.3 713.4,1552.1 682.5,1548.1" fill="none" stroke="url(#strokeB)" stroke-width="1.2" opacity="0.65"/>
  <polygon points="691.7,1518.3 710.6,1517.5 701.9,1534.2" fill="#06B6D4" opacity="0.22" filter="url(#softGlow)"/>
</g>


<g opacity="0.443" filter="url(#hardGlow)">
  <circle cx="712.3" cy="1512.3" r="16.6" fill="#0A1224" opacity="0.65"/>
  <circle cx="712.3" cy="1512.3" r="16.6" fill="none" stroke="url(#strokeA)" stroke-width="2.0" opacity="0.85"/>
  <circle cx="712.3" cy="1512.3" r="14.3" fill="none" stroke="#F97316" stroke-width="1.5" opacity="0.35"/>
  <polygon points="719.7,1502.9 724.1,1514.0 716.8,1523.4 704.9,1521.7 700.5,1510.6 707.9,1501.2" fill="none" stroke="url(#strokeB)" stroke-width="1.2" opacity="0.65"/>
  <polygon points="715.9,1510.1 712.5,1516.5 708.6,1510.3" fill="#F97316" opacity="0.22" filter="url(#softGlow)"/>
</g>


<g opacity="0.668" filter="url(#hardGlow)">
  <circle cx="783.0" cy="106.5" r="52.0" fill="#0A1224" opacity="0.65"/>
  <circle cx="783.0" cy="106.5" r="52.0" fill="none" stroke="url(#strokeA)" stroke-width="4.2" opacity="0.85"/>
  <circle cx="783.0" cy="106.5" r="44.7" fill="none" stroke="#06B6D4" stroke-width="1.6" opacity="0.35"/>
  <polygon points="819.4,115.2 793.7,142.4 757.3,133.7 746.6,97.8 772.3,70.6 808.7,79.3" fill="none" stroke="url(#strokeB)" stroke-width="1.3" opacity="0.65"/>
  <polygon points="793.9,113.7 771.3,112.4 783.8,93.4" fill="#06B6D4" opacity="0.22" filter="url(#softGlow)"/>
</g>


<g opacity="0.411" filter="url(#hardGlow)">
  <circle cx="757.3" cy="57.1" r="22.9" fill="#0A1224" opacity="0.65"/>
  <circle cx="757.3" cy="57.1" r="22.9" fill="none" stroke="url(#strokeA)" stroke-width="2.0" opacity="0.85"/>
  <circle cx="757.3" cy="57.1" r="19.7" fill="none" stroke="#F97316" stroke-width="1.5" opacity="0.35"/>
  <polygon points="753.7,41.0 769.5,46.0 773.0,62.1 760.8,73.2 745.1,68.2 741.5,52.1" fill="none" stroke="url(#strokeB)" stroke-width="1.2" opacity="0.65"/>
  <polygon points="758.0,51.4 761.8,60.6 751.9,59.3" fill="#F97316" opacity="0.22" filter="url(#softGlow)"/>
</g>


<g opacity="0.303" transform="translate(821.4,382.3) rotate(5.4)" filter="url(#softGlow)">
  <rect x="-89.5" y="-75.3" width="178.9" height="150.5" rx="15.1" fill="#050A12" opacity="0.25"/>
  <rect x="-89.5" y="-75.3" width="178.9" height="150.5" rx="15.1" fill="none" stroke="url(#strokeA)" stroke-width="7.5" opacity="0.85"/>
  <rect x="-77.4" y="-63.2" width="154.9" height="126.5" rx="10.5" fill="none" stroke="#F97316" stroke-width="3.0" opacity="0.35"/>
</g>


<g opacity="0.338" transform="translate(4.7,1456.9) rotate(-0.7)" filter="url(#softGlow)">
  <rect x="-89.2" y="-67.0" width="178.3" height="133.9" rx="13.4" fill="#050A12" opacity="0.25"/>
  <rect x="-89.2" y="-67.0" width="178.3" height="133.9" rx="13.4" fill="none" stroke="url(#strokeA)" stroke-width="6.7" opacity="0.85"/>
  <rect x="-78.4" y="-56.2" width="156.9" height="112.5" rx="9.4" fill="none" stroke="#F97316" stroke-width="2.7" opacity="0.35"/>
</g>


<g opacity="0.283" transform="translate(132.5,46.9) rotate(1.6)" filter="url(#softGlow)">
  <rect x="-72.9" y="-60.0" width="145.8" height="120.0" rx="12.0" fill="#050A12" opacity="0.25"/>
  <rect x="-72.9" y="-60.0" width="145.8" height="120.0" rx="12.0" fill="none" stroke="url(#strokeA)" stroke-width="6.0" opacity="0.85"/>
  <rect x="-63.3" y="-50.4" width="126.6" height="100.8" rx="8.4" fill="none" stroke="#F97316" stroke-width="2.4" opacity="0.35"/>
</g>


<g opacity="0.399" transform="translate(83.7,106.6) rotate(9.8)" filter="url(#softGlow)">
  <rect x="-70.2" y="-58.2" width="140.3" height="116.4" rx="11.6" fill="#050A12" opacity="0.25"/>
  <rect x="-70.2" y="-58.2" width="140.3" height="116.4" rx="11.6" fill="none" stroke="url(#strokeA)" stroke-width="5.8" opacity="0.85"/>
  <rect x="-60.9" y="-48.9" width="121.7" height="97.8" rx="8.1" fill="none" stroke="#F97316" stroke-width="2.3" opacity="0.35"/>
</g>


<g opacity="0.310" transform="translate(45.0,97.0) rotate(-9.2)" filter="url(#softGlow)">
  <rect x="-90.1" y="-66.5" width="180.3" height="133.0" rx="13.3" fill="#050A12" opacity="0.25"/>
  <rect x="-90.1" y="-66.5" width="180.3" height="133.0" rx="13.3" fill="none" stroke="url(#strokeA)" stroke-width="6.7" opacity="0.85"/>
  <rect x="-79.5" y="-55.9" width="159.0" height="111.7" rx="9.3" fill="none" stroke="#06B6D4" stroke-width="2.7" opacity="0.35"/>
</g>


<g opacity="0.225" transform="translate(802.1,149.1) rotate(-16.8)" filter="url(#softGlow)">
  <rect x="-41.0" y="-23.6" width="82.0" height="47.2" rx="14.4" fill="none" stroke="#A3E635" stroke-width="7.9" opacity="0.55"/>
  <rect x="-18.0" y="-11.8" width="82.0" height="47.2" rx="14.4" fill="none" stroke="url(#strokeA)" stroke-width="6.6" opacity="0.55"/>
</g>


<g opacity="0.287" transform="translate(883.9,626.9) rotate(15.5)" filter="url(#softGlow)">
  <rect x="-33.4" y="-19.2" width="66.8" height="38.5" rx="11.8" fill="none" stroke="#F97316" stroke-width="6.4" opacity="0.55"/>
  <rect x="-14.7" y="-9.6" width="66.8" height="38.5" rx="11.8" fill="none" stroke="url(#strokeA)" stroke-width="5.3" opacity="0.55"/>
</g>


<g opacity="0.329" transform="translate(88.3,120.5) rotate(8.6)" filter="url(#softGlow)">
  <rect x="-38.9" y="-22.4" width="77.8" height="44.8" rx="13.7" fill="none" stroke="#F97316" stroke-width="7.5" opacity="0.55"/>
  <rect x="-17.1" y="-11.2" width="77.8" height="44.8" rx="13.7" fill="none" stroke="url(#strokeA)" stroke-width="6.2" opacity="0.55"/>
</g>


<g opacity="0.398" transform="translate(781.2,213.4) rotate(12.5)" filter="url(#softGlow)">
  <rect x="-30.1" y="-17.4" width="60.3" height="34.7" rx="10.6" fill="none" stroke="#06B6D4" stroke-width="5.8" opacity="0.55"/>
  <rect x="-13.3" y="-8.7" width="60.3" height="34.7" rx="10.6" fill="none" stroke="url(#strokeA)" stroke-width="4.8" opacity="0.55"/>
</g>


<g opacity="0.271" transform="translate(149.4,35.8) rotate(11.3)" filter="url(#softGlow)">
  <rect x="-38.3" y="-22.0" width="76.5" height="44.1" rx="13.5" fill="none" stroke="#06B6D4" stroke-width="7.3" opacity="0.55"/>
  <rect x="-16.8" y="-11.0" width="76.5" height="44.1" rx="13.5" fill="none" stroke="url(#strokeA)" stroke-width="6.1" opacity="0.55"/>
</g>


<g opacity="0.266" transform="translate(130.3,82.1) rotate(-6.1)" filter="url(#softGlow)">
  <rect x="-32.4" y="-18.7" width="64.9" height="37.4" rx="11.4" fill="none" stroke="#F97316" stroke-width="6.2" opacity="0.55"/>
  <rect x="-14.3" y="-9.3" width="64.9" height="37.4" rx="11.4" fill="none" stroke="url(#strokeA)" stroke-width="5.2" opacity="0.55"/>
</g>


<g opacity="0.268" transform="translate(815.2,776.6) rotate(12.6)" filter="url(#softGlow)">
  <rect x="-48.8" y="-28.1" width="97.6" height="56.2" rx="17.2" fill="none" stroke="#F97316" stroke-width="9.4" opacity="0.55"/>
  <rect x="-21.5" y="-14.1" width="97.6" height="56.2" rx="17.2" fill="none" stroke="url(#strokeA)" stroke-width="7.8" opacity="0.55"/>
</g>


<g opacity="0.166">
  <line x1="10.3" y1="1438.1" x2="10.3" y2="1501.1" stroke="#F97316" stroke-width="2.08" opacity="0.45"/>
  <rect x="7.1" y="1470.7" width="6.5" height="35.5" rx="2.2" fill="#0B1020" opacity="0.55" stroke="url(#strokeA)" stroke-width="1.2"/>
</g>

<g opacity="0.166">
  <line x1="187.1" y1="1440.2" x2="187.1" y2="1500.6" stroke="#F97316" stroke-width="2.09" opacity="0.45"/>
  <rect x="183.3" y="1475.7" width="7.7" height="25.6" rx="2.6" fill="#0B1020" opacity="0.55" stroke="url(#strokeA)" stroke-width="1.2"/>
</g>

<g opacity="0.166">
  <line x1="149.3" y1="1439.7" x2="149.3" y2="1500.7" stroke="#F97316" stroke-width="1.37" opacity="0.45"/>
  <rect x="144.8" y="1473.5" width="9.0" height="29.9" rx="3.0" fill="#0B1020" opacity="0.55" stroke="url(#strokeA)" stroke-width="1.2"/>
</g>

<g opacity="0.166">
  <line x1="863.8" y1="1440.1" x2="863.8" y2="1500.6" stroke="#F97316" stroke-width="2.10" opacity="0.45"/>
  <rect x="859.7" y="1471.9" width="8.2" height="33.1" rx="2.7" fill="#0B1020" opacity="0.55" stroke="url(#strokeA)" stroke-width="1.2"/>
</g>

<g opacity="0.166">
  <line x1="854.3" y1="1426.5" x2="854.3" y2="1504.0" stroke="#F97316" stroke-width="1.04" opacity="0.45"/>
  <rect x="851.2" y="1467.8" width="6.3" height="41.3" rx="2.1" fill="#0B1020" opacity="0.55" stroke="url(#strokeA)" stroke-width="1.2"/>
</g>

<g opacity="0.166">
  <line x1="156.1" y1="1418.8" x2="156.1" y2="1505.9" stroke="#F97316" stroke-width="1.41" opacity="0.45"/>
  <rect x="152.1" y="1470.4" width="8.0" height="36.2" rx="2.7" fill="#0B1020" opacity="0.55" stroke="url(#strokeA)" stroke-width="1.2"/>
</g>

<g opacity="0.166">
  <line x1="853.0" y1="1430.2" x2="853.0" y2="1503.1" stroke="#F97316" stroke-width="1.70" opacity="0.45"/>
  <rect x="847.2" y="1476.9" width="11.5" height="23.2" rx="3.8" fill="#0B1020" opacity="0.55" stroke="url(#strokeA)" stroke-width="1.2"/>
</g>

<g opacity="0.166">
  <line x1="897.3" y1="1414.0" x2="897.3" y2="1507.1" stroke="#F97316" stroke-width="1.80" opacity="0.45"/>
  <rect x="892.4" y="1459.6" width="9.8" height="57.8" rx="3.3" fill="#0B1020" opacity="0.55" stroke="url(#strokeA)" stroke-width="1.2"/>
</g>

<g opacity="0.166">
  <line x1="389.8" y1="1419.9" x2="389.8" y2="1505.6" stroke="#F97316" stroke-width="1.69" opacity="0.45"/>
  <rect x="384.0" y="1462.9" width="11.6" height="51.1" rx="3.9" fill="#0B1020" opacity="0.55" stroke="url(#strokeA)" stroke-width="1.2"/>
</g>

<g opacity="0.166">
  <line x1="72.5" y1="1430.7" x2="72.5" y2="1502.9" stroke="#F97316" stroke-width="1.09" opacity="0.45"/>
  <rect x="68.4" y="1472.8" width="8.2" height="31.4" rx="2.7" fill="#0B1020" opacity="0.55" stroke="url(#strokeA)" stroke-width="1.2"/>
</g>
<circle cx="875.5" cy="1578.6" r="2.6" fill="#06B6D4" opacity="0.24" filter="url(#softGlow)"/>
<circle cx="342.9" cy="1512.0" r="2.7" fill="#06B6D4" opacity="0.15" filter="url(#softGlow)"/>
<circle cx="736.0" cy="134.7" r="1.7" fill="#06B6D4" opacity="0.26" filter="url(#softGlow)"/>
<circle cx="14.4" cy="1591.1" r="3.1" fill="#06B6D4" opacity="0.19" filter="url(#softGlow)"/>
<circle cx="43.8" cy="599.6" r="2.6" fill="#06B6D4" opacity="0.24" filter="url(#softGlow)"/>
<circle cx="867.2" cy="95.5" r="1.7" fill="#06B6D4" opacity="0.21" filter="url(#softGlow)"/>
<circle cx="821.1" cy="1506.7" r="1.7" fill="#06B6D4" opacity="0.25" filter="url(#softGlow)"/>
<circle cx="787.3" cy="1177.0" r="2.0" fill="#06B6D4" opacity="0.15" filter="url(#softGlow)"/>
<circle cx="110.9" cy="1511.0" r="2.6" fill="#06B6D4" opacity="0.22" filter="url(#softGlow)"/>
<circle cx="94.9" cy="35.4" r="1.5" fill="#06B6D4" opacity="0.25" filter="url(#softGlow)"/>
<circle cx="97.5" cy="97.6" r="2.3" fill="#06B6D4" opacity="0.14" filter="url(#softGlow)"/>
<circle cx="754.5" cy="1523.2" r="2.8" fill="#06B6D4" opacity="0.25" filter="url(#softGlow)"/>
<circle cx="121.2" cy="103.3" r="1.9" fill="#06B6D4" opacity="0.28" filter="url(#softGlow)"/>
<circle cx="773.1" cy="1565.9" r="1.4" fill="#06B6D4" opacity="0.11" filter="url(#softGlow)"/>
<circle cx="209.7" cy="173.1" r="2.0" fill="#06B6D4" opacity="0.28" filter="url(#softGlow)"/>
<circle cx="781.0" cy="88.7" r="2.2" fill="#06B6D4" opacity="0.19" filter="url(#softGlow)"/>
<circle cx="60.0" cy="565.8" r="2.6" fill="#06B6D4" opacity="0.27" filter="url(#softGlow)"/>
<circle cx="721.8" cy="1590.8" r="1.4" fill="#06B6D4" opacity="0.16" filter="url(#softGlow)"/>
<circle cx="0.1" cy="1554.2" r="1.9" fill="#06B6D4" opacity="0.14" filter="url(#softGlow)"/>
<circle cx="833.9" cy="1510.5" r="2.5" fill="#06B6D4" opacity="0.10" filter="url(#softGlow)"/>
<circle cx="879.2" cy="1442.3" r="1.4" fill="#06B6D4" opacity="0.17" filter="url(#softGlow)"/>
<circle cx="40.6" cy="1227.6" r="1.3" fill="#06B6D4" opacity="0.21" filter="url(#softGlow)"/>
<circle cx="412.0" cy="1531.6" r="2.5" fill="#06B6D4" opacity="0.12" filter="url(#softGlow)"/>
<circle cx="110.8" cy="1446.6" r="3.0" fill="#06B6D4" opacity="0.26" filter="url(#softGlow)"/>
<circle cx="702.7" cy="158.4" r="1.4" fill="#06B6D4" opacity="0.13" filter="url(#softGlow)"/>
</svg>