<svg xmlns="http://www.w3.org/2000/svg" width="900" height="1600" viewBox="0 0 900 1600" preserveAspectRatio="xMidYMid slice">
<defs>
  <linearGradient id="g0" x1="0" y1="0" x2="1" y2="1">
    <stop offset="0" stop-color="#0B1020"/>
    <stop offset="0.55" stop-color="#2DD4BF" stop-opacity="0.9"/>
    <stop offset="1" stop-color="#020617"/>
  </linearGradient>
  <radialGradient id="g1" cx="20%" cy="15%" r="70%">
    <stop offset="0" stop-color="#60A5FA" stop-opacity="0.38"/>
    <stop offset="0.6" stop-color="#60A5FA" stop-opacity="0.08"/>
    <stop offset="1" stop-color="#60A5FA" stop-opacity="0"/>
  </radialGradient>
  <radialGradient id="g2" cx="85%" cy="80%" r="75%">
    <stop offset="0" stop-color="#60A5FA" stop-opacity="0.28"/>
    <stop offset="0.65" stop-color="#60A5FA" stop-opacity="0.06"/>
    <stop offset="1" stop-color="#60A5FA" stop-opacity="0"/>
  </radialGradient>
  <filter id="softGlow" x="-30%" y="-30%" width="160%" height="160%">
    <feGaussianBlur stdDeviation="12" result="b"/>
    <feMerge>
      <feMergeNode in="b"/>
      <feMergeNode in="SourceGraphic"/>
    </feMerge>
  </filter>
  <filter id="hardGlow" x="-40%" y="-40%" width="180%" height="180%">
    <feGaussianBlur stdDeviation="6" result="b"/>
    <feColorMatrix in="b" type="matrix" values="1 0 0 0 0  0 1 0 0 0  0 0 1 0 0  0 0 0 18 -7" result="c"/>
    <feMerge>
      <feMergeNode in="c"/>
      <feMergeNode in="SourceGraphic"/>
    </feMerge>
  </filter>
  <linearGradient id="strokeA" x1="0" y1="0" x2="1" y2="0">
    <stop offset="0" stop-color="#60A5FA" stop-opacity="0.9"/>
    <stop offset="0.5" stop-color="#FFFFFF" stop-opacity="0.25"/>
    <stop offset="1" stop-color="#60A5FA" stop-opacity="0.7"/>
  </linearGradient>
  <linearGradient id="strokeB" x1="0" y1="0" x2="0" y2="1">
    <stop offset="0" stop-color="#FFFFFF" stop-opacity="0.18"/>
    <stop offset="1" stop-color="#60A5FA" stop-opacity="0.55"/>
  </linearGradient>
</defs>
<rect x="0" y="0" width="900" height="1600" fill="url(#g0)"/>
<rect x="0" y="0" width="900" height="1600" fill="url(#g1)"/>
<rect x="0" y="0" width="900" height="1600" fill="url(#g2)"/>


<defs>
  <radialGradient id="vign" cx="0.5000" cy="0.5000" r="0.85">
    <stop offset="0" stop-color="#000000" stop-opacity="0"/>
    <stop offset="0.55" stop-color="#000000" stop-opacity="0.217"/>
    <stop offset="1" stop-color="#000000" stop-opacity="0.620"/>
  </radialGradient>
</defs>
<rect x="0" y="0" width="900" height="1600" fill="url(#vign)"/>

<g opacity="0.193" filter="url(#softGlow)"><path d="M 80.6,1538.6 L 167.3,1538.6 L 167.3,58.1 L 52.2,58.1 L 52.2,1436.3 " fill="none" stroke="url(#strokeB)" stroke-width="1.11" stroke-linecap="round" stroke-linejoin="round"/><circle cx="167.3" cy="58.1" r="4.0" fill="#F472B6" opacity="0.45"/><circle cx="52.2" cy="1436.3" r="3.8" fill="#F472B6" opacity="0.45"/><circle cx="167.3" cy="1538.6" r="2.9" fill="#F472B6" opacity="0.45"/></g>
<g opacity="0.193" filter="url(#softGlow)"><path d="M 608.1,11.1 L 123.9,11.1 L 123.9,17.2 L 176.8,17.2 L 176.8,1518.1 " fill="none" stroke="url(#strokeB)" stroke-width="1.43" stroke-linecap="round" stroke-linejoin="round"/><circle cx="608.1" cy="11.1" r="2.6" fill="#F472B6" opacity="0.45"/><circle cx="176.8" cy="17.2" r="2.9" fill="#F472B6" opacity="0.45"/><circle cx="123.9" cy="17.2" r="2.4" fill="#F472B6" opacity="0.45"/></g>
<g opacity="0.193" filter="url(#softGlow)"><path d="M 0.1,126.1 L 888.6,126.1 L 888.6,165.4 L 888.6,165.4 L 888.6,1451.3 " fill="none" stroke="url(#strokeB)" stroke-width="1.50" stroke-linecap="round" stroke-linejoin="round"/><circle cx="888.6" cy="165.4" r="4.1" fill="#F472B6" opacity="0.45"/><circle cx="888.6" cy="165.4" r="4.0" fill="#F472B6" opacity="0.45"/><circle cx="888.6" cy="1451.3" r="3.6" fill="#F472B6" opacity="0.45"/></g>
<g opacity="0.193" filter="url(#softGlow)"><path d="M 848.7,573.9 L 471.5,573.9 L 471.5,176.7 L 132.7,176.7 L 132.7,1558.2 " fill="none" stroke="url(#strokeB)" stroke-width="1.47" stroke-linecap="round" stroke-linejoin="round"/><circle cx="132.7" cy="176.7" r="2.6" fill="#F472B6" opacity="0.45"/><circle cx="848.7" cy="573.9" r="4.0" fill="#F472B6" opacity="0.45"/><circle cx="132.7" cy="1558.2" r="2.9" fill="#F472B6" opacity="0.45"/></g>
<g opacity="0.193" filter="url(#softGlow)"><path d="M 804.5,1586.3 L 381.5,1586.3 L 381.5,45.6 L 778.7,45.6 L 778.7,1093.5 " fill="none" stroke="url(#strokeB)" stroke-width="1.11" stroke-linecap="round" stroke-linejoin="round"/><circle cx="381.5" cy="1586.3" r="2.2" fill="#F472B6" opacity="0.45"/><circle cx="381.5" cy="45.6" r="2.6" fill="#F472B6" opacity="0.45"/><circle cx="804.5" cy="1586.3" r="4.0" fill="#F472B6" opacity="0.45"/></g>
<g opacity="0.193" filter="url(#softGlow)"><path d="M 859.2,1527.5 L 95.4,1527.5 L 95.4,1440.6 L 356.1,1440.6 L 356.1,1583.4 " fill="none" stroke="url(#strokeB)" stroke-width="1.79" stroke-linecap="round" stroke-linejoin="round"/><circle cx="859.2" cy="1527.5" r="3.2" fill="#F472B6" opacity="0.45"/><circle cx="356.1" cy="1583.4" r="2.9" fill="#F472B6" opacity="0.45"/><circle cx="95.4" cy="1440.6" r="3.4" fill="#F472B6" opacity="0.45"/></g>
<g opacity="0.193" filter="url(#softGlow)"><path d="M 815.2,58.5 L 861.3,58.5 L 861.3,114.7 L 783.1,114.7 L 783.1,162.3 " fill="none" stroke="url(#strokeB)" stroke-width="1.12" stroke-linecap="round" stroke-linejoin="round"/><circle cx="815.2" cy="58.5" r="2.1" fill="#F472B6" opacity="0.45"/><circle cx="783.1" cy="162.3" r="2.8" fill="#F472B6" opacity="0.45"/><circle cx="861.3" cy="58.5" r="2.8" fill="#F472B6" opacity="0.45"/></g>
<g opacity="0.193" filter="url(#softGlow)"><path d="M 754.3,11.2 L 844.2,11.2 L 844.2,1514.0 L 127.1,1514.0 L 127.1,807.6 " fill="none" stroke="url(#strokeB)" stroke-width="1.69" stroke-linecap="round" stroke-linejoin="round"/><circle cx="844.2" cy="1514.0" r="3.8" fill="#F472B6" opacity="0.45"/><circle cx="127.1" cy="1514.0" r="4.1" fill="#F472B6" opacity="0.45"/><circle cx="127.1" cy="807.6" r="3.2" fill="#F472B6" opacity="0.45"/></g>
<g opacity="0.193" filter="url(#softGlow)"><path d="M 120.1,976.0 L 803.1,976.0 L 803.1,1501.1 L 785.6,1501.1 L 785.6,1462.8 " fill="none" stroke="url(#strokeB)" stroke-width="1.43" stroke-linecap="round" stroke-linejoin="round"/><circle cx="803.1" cy="1501.1" r="2.2" fill="#F472B6" opacity="0.45"/><circle cx="785.6" cy="1501.1" r="3.4" fill="#F472B6" opacity="0.45"/><circle cx="785.6" cy="1462.8" r="2.5" fill="#F472B6" opacity="0.45"/></g>
<g opacity="0.193" filter="url(#softGlow)"><path d="M 743.5,157.7 L 764.3,157.7 L 764.3,174.1 L 753.3,174.1 L 753.3,1247.8 " fill="none" stroke="url(#strokeB)" stroke-width="2.15" stroke-linecap="round" stroke-linejoin="round"/><circle cx="753.3" cy="174.1" r="3.9" fill="#F472B6" opacity="0.45"/><circle cx="743.5" cy="157.7" r="4.0" fill="#F472B6" opacity="0.45"/><circle cx="764.3" cy="157.7" r="2.1" fill="#F472B6" opacity="0.45"/></g>
<g opacity="0.193" filter="url(#softGlow)"><path d="M 179.2,1594.5 L 106.0,1594.5 L 106.0,1446.2 L 766.2,1446.2 L 766.2,115.5 " fill="none" stroke="url(#strokeB)" stroke-width="1.50" stroke-linecap="round" stroke-linejoin="round"/><circle cx="179.2" cy="1594.5" r="3.8" fill="#F472B6" opacity="0.45"/><circle cx="766.2" cy="115.5" r="2.2" fill="#F472B6" opacity="0.45"/><circle cx="766.2" cy="1446.2" r="3.4" fill="#F472B6" opacity="0.45"/></g>
<g opacity="0.193" filter="url(#softGlow)"><path d="M 106.5,1444.4 L 887.8,1444.4 L 887.8,1565.2 L 539.8,1565.2 L 539.8,1487.8 " fill="none" stroke="url(#strokeB)" stroke-width="1.81" stroke-linecap="round" stroke-linejoin="round"/><circle cx="539.8" cy="1565.2" r="3.1" fill="#F472B6" opacity="0.45"/><circle cx="106.5" cy="1444.4" r="2.1" fill="#F472B6" opacity="0.45"/><circle cx="887.8" cy="1565.2" r="3.1" fill="#F472B6" opacity="0.45"/></g>
<g opacity="0.193" filter="url(#softGlow)"><path d="M 613.4,31.3 L 21.6,31.3 L 21.6,565.5 L 878.8,565.5 L 878.8,1484.2 " fill="none" stroke="url(#strokeB)" stroke-width="1.72" stroke-linecap="round" stroke-linejoin="round"/><circle cx="21.6" cy="565.5" r="2.6" fill="#F472B6" opacity="0.45"/><circle cx="878.8" cy="1484.2" r="4.0" fill="#F472B6" opacity="0.45"/><circle cx="21.6" cy="31.3" r="2.3" fill="#F472B6" opacity="0.45"/></g>
<g opacity="0.193" filter="url(#softGlow)"><path d="M 559.7,1572.3 L 860.9,1572.3 L 860.9,1568.2 L 729.6,1568.2 L 729.6,1558.3 " fill="none" stroke="url(#strokeB)" stroke-width="1.47" stroke-linecap="round" stroke-linejoin="round"/><circle cx="559.7" cy="1572.3" r="3.2" fill="#F472B6" opacity="0.45"/><circle cx="729.6" cy="1568.2" r="2.5" fill="#F472B6" opacity="0.45"/><circle cx="860.9" cy="1568.2" r="2.4" fill="#F472B6" opacity="0.45"/></g>
<g opacity="0.193" filter="url(#softGlow)"><path d="M 50.7,164.9 L 20.2,164.9 L 20.2,1456.0 L 861.4,1456.0 L 861.4,1582.9 " fill="none" stroke="url(#strokeB)" stroke-width="1.87" stroke-linecap="round" stroke-linejoin="round"/><circle cx="861.4" cy="1456.0" r="2.8" fill="#F472B6" opacity="0.45"/><circle cx="50.7" cy="164.9" r="3.4" fill="#F472B6" opacity="0.45"/><circle cx="20.2" cy="1456.0" r="3.1" fill="#F472B6" opacity="0.45"/></g>
<g opacity="0.193" filter="url(#softGlow)"><path d="M 76.6,572.8 L 296.5,572.8 L 296.5,1424.3 L 731.0,1424.3 L 731.0,27.1 " fill="none" stroke="url(#strokeB)" stroke-width="1.62" stroke-linecap="round" stroke-linejoin="round"/><circle cx="296.5" cy="572.8" r="2.7" fill="#F472B6" opacity="0.45"/><circle cx="731.0" cy="1424.3" r="2.4" fill="#F472B6" opacity="0.45"/><circle cx="731.0" cy="27.1" r="4.1" fill="#F472B6" opacity="0.45"/></g>

<g opacity="0.810" filter="url(#hardGlow)">
  <circle cx="380.4" cy="1565.4" r="41.0" fill="#0A1224" opacity="0.65"/>
  <circle cx="380.4" cy="1565.4" r="41.0" fill="none" stroke="url(#strokeA)" stroke-width="3.3" opacity="0.85"/>
  <circle cx="380.4" cy="1565.4" r="35.2" fill="none" stroke="#2DD4BF" stroke-width="1.5" opacity="0.35"/>
  <polygon points="363.6,1541.2 393.0,1538.7 409.8,1563.0 397.2,1589.6 367.8,1592.1 351.0,1567.9" fill="none" stroke="url(#strokeB)" stroke-width="1.2" opacity="0.65"/>
  <polygon points="377.8,1555.4 390.4,1568.1 373.1,1572.7" fill="#2DD4BF" opacity="0.22" filter="url(#softGlow)"/>
</g>


<g opacity="0.501" filter="url(#hardGlow)">
  <circle cx="327.1" cy="1561.2" r="21.5" fill="#0A1224" opacity="0.65"/>
  <circle cx="327.1" cy="1561.2" r="21.5" fill="none" stroke="url(#strokeA)" stroke-width="2.0" opacity="0.85"/>
  <circle cx="327.1" cy="1561.2" r="18.5" fill="none" stroke="#F472B6" stroke-width="1.5" opacity="0.35"/>
  <polygon points="342.1,1557.4 337.9,1572.3 322.9,1576.1 312.1,1565.0 316.3,1550.1 331.3,1546.4" fill="none" stroke="url(#strokeB)" stroke-width="1.2" opacity="0.65"/>
  
</g>


<g opacity="0.662" filter="url(#hardGlow)">
  <circle cx="797.2" cy="1525.0" r="42.2" fill="#0A1224" opacity="0.65"/>
  <circle cx="797.2" cy="1525.0" r="42.2" fill="none" stroke="url(#strokeA)" stroke-width="3.4" opacity="0.85"/>
  <circle cx="797.2" cy="1525.0" r="36.3" fill="none" stroke="#2DD4BF" stroke-width="1.5" opacity="0.35"/>
  <polygon points="768.5,1515.1 791.4,1495.2 820.1,1505.1 825.9,1534.9 803.0,1554.8 774.3,1544.9" fill="none" stroke="url(#strokeB)" stroke-width="1.2" opacity="0.65"/>
  <polygon points="788.9,1518.3 807.1,1521.2 795.6,1535.5" fill="#2DD4BF" opacity="0.22" filter="url(#softGlow)"/>
</g>


<g opacity="0.511" filter="url(#hardGlow)">
  <circle cx="853.0" cy="1559.9" r="18.0" fill="#0A1224" opacity="0.65"/>
  <circle cx="853.0" cy="1559.9" r="18.0" fill="none" stroke="url(#strokeA)" stroke-width="2.0" opacity="0.85"/>
  <circle cx="853.0" cy="1559.9" r="15.5" fill="none" stroke="#F472B6" stroke-width="1.5" opacity="0.35"/>
  <polygon points="864.8,1554.5 863.6,1567.4 851.8,1572.8 841.2,1565.3 842.4,1552.4 854.2,1547.0" fill="none" stroke="url(#strokeB)" stroke-width="1.2" opacity="0.65"/>
  <polygon points="857.5,1559.5 851.0,1564.0 850.4,1556.2" fill="#F472B6" opacity="0.22" filter="url(#softGlow)"/>
</g>


<g opacity="0.670" filter="url(#hardGlow)">
  <circle cx="121.4" cy="55.5" r="42.6" fill="#0A1224" opacity="0.65"/>
  <circle cx="121.4" cy="55.5" r="42.6" fill="none" stroke="url(#strokeA)" stroke-width="3.4" opacity="0.85"/>
  <circle cx="121.4" cy="55.5" r="36.6" fill="none" stroke="#2DD4BF" stroke-width="1.5" opacity="0.35"/>
  <polygon points="92.4,45.4 115.6,25.4 144.6,35.4 150.4,65.6 127.2,85.6 98.2,75.6" fill="none" stroke="url(#strokeB)" stroke-width="1.2" opacity="0.65"/>
  <polygon points="113.1,48.7 131.4,51.7 119.7,66.1" fill="#2DD4BF" opacity="0.22" filter="url(#softGlow)"/>
</g>


<g opacity="0.544" filter="url(#hardGlow)">
  <circle cx="132.4" cy="25.8" r="22.3" fill="#0A1224" opacity="0.65"/>
  <circle cx="132.4" cy="25.8" r="22.3" fill="none" stroke="url(#strokeA)" stroke-width="2.0" opacity="0.85"/>
  <circle cx="132.4" cy="25.8" r="19.2" fill="none" stroke="#F472B6" stroke-width="1.5" opacity="0.35"/>
  <polygon points="131.3,41.8 118.0,32.8 119.2,16.8 133.6,9.9 146.9,18.9 145.7,34.9" fill="none" stroke="url(#strokeB)" stroke-width="1.2" opacity="0.65"/>
  <polygon points="130.1,31.0 129.2,21.3 138.0,25.3" fill="#F472B6" opacity="0.22" filter="url(#softGlow)"/>
</g>


<g opacity="0.474" filter="url(#hardGlow)">
  <circle cx="101.0" cy="58.9" r="17.8" fill="#0A1224" opacity="0.65"/>
  <circle cx="101.0" cy="58.9" r="17.8" fill="none" stroke="url(#strokeA)" stroke-width="2.0" opacity="0.85"/>
  <circle cx="101.0" cy="58.9" r="15.3" fill="none" stroke="#F472B6" stroke-width="1.5" opacity="0.35"/>
  <polygon points="97.5,71.2 88.6,62.0 92.2,49.7 104.6,46.6 113.5,55.8 109.9,68.1" fill="none" stroke="url(#strokeB)" stroke-width="1.2" opacity="0.65"/>
  
</g>


<g opacity="0.681" filter="url(#hardGlow)">
  <circle cx="878.2" cy="1104.5" r="42.8" fill="#0A1224" opacity="0.65"/>
  <circle cx="878.2" cy="1104.5" r="42.8" fill="none" stroke="url(#strokeA)" stroke-width="3.4" opacity="0.85"/>
  <circle cx="878.2" cy="1104.5" r="36.8" fill="none" stroke="#2DD4BF" stroke-width="1.5" opacity="0.35"/>
  <polygon points="847.4,1104.8 862.5,1077.9 893.4,1077.6 909.1,1104.2 893.9,1131.1 863.1,1131.4" fill="none" stroke="url(#strokeB)" stroke-width="1.2" opacity="0.65"/>
  <polygon points="868.0,1100.9 886.4,1097.5 880.2,1115.1" fill="#2DD4BF" opacity="0.22" filter="url(#softGlow)"/>
</g>


<g opacity="0.611" filter="url(#hardGlow)">
  <circle cx="822.3" cy="1149.8" r="19.3" fill="#0A1224" opacity="0.65"/>
  <circle cx="822.3" cy="1149.8" r="19.3" fill="none" stroke="url(#strokeA)" stroke-width="2.0" opacity="0.85"/>
  <circle cx="822.3" cy="1149.8" r="16.6" fill="none" stroke="#F472B6" stroke-width="1.5" opacity="0.35"/>
  <polygon points="809.4,1144.6 820.3,1136.0 833.2,1141.2 835.2,1154.9 824.3,1163.5 811.4,1158.4" fill="none" stroke="url(#strokeB)" stroke-width="1.2" opacity="0.65"/>
  <polygon points="818.7,1146.5 826.9,1148.3 821.3,1154.5" fill="#F472B6" opacity="0.22" filter="url(#softGlow)"/>
</g>


<g opacity="0.469" filter="url(#hardGlow)">
  <circle cx="853.0" cy="1104.1" r="21.0" fill="#0A1224" opacity="0.65"/>
  <circle cx="853.0" cy="1104.1" r="21.0" fill="none" stroke="url(#strokeA)" stroke-width="2.0" opacity="0.85"/>
  <circle cx="853.0" cy="1104.1" r="18.1" fill="none" stroke="#F472B6" stroke-width="1.5" opacity="0.35"/>
  <polygon points="861.4,1116.7 846.3,1117.7 837.9,1105.1 844.6,1091.5 859.7,1090.6 868.1,1103.2" fill="none" stroke="url(#strokeB)" stroke-width="1.2" opacity="0.65"/>
  <polygon points="854.3,1109.3 847.9,1102.6 856.9,1100.5" fill="#F472B6" opacity="0.22" filter="url(#softGlow)"/>
</g>


<g opacity="0.448" transform="translate(723.5,143.9) rotate(-2.7)" filter="url(#softGlow)">
  <rect x="-76.6" y="-56.2" width="153.3" height="112.4" rx="11.2" fill="#050A12" opacity="0.25"/>
  <rect x="-76.6" y="-56.2" width="153.3" height="112.4" rx="11.2" fill="none" stroke="url(#strokeA)" stroke-width="5.6" opacity="0.85"/>
  <rect x="-67.6" y="-47.2" width="135.3" height="94.4" rx="7.9" fill="none" stroke="#F472B6" stroke-width="2.2" opacity="0.35"/>
</g>


<g opacity="0.440" transform="translate(95.3,1484.2) rotate(9.6)" filter="url(#softGlow)">
  <rect x="-63.0" y="-56.1" width="126.1" height="112.2" rx="11.2" fill="#050A12" opacity="0.25"/>
  <rect x="-63.0" y="-56.1" width="126.1" height="112.2" rx="11.2" fill="none" stroke="url(#strokeA)" stroke-width="5.6" opacity="0.85"/>
  <rect x="-54.0" y="-47.1" width="108.1" height="94.3" rx="7.9" fill="none" stroke="#F472B6" stroke-width="2.2" opacity="0.35"/>
</g>


<g opacity="0.330" transform="translate(750.0,68.3) rotate(6.1)" filter="url(#softGlow)">
  <rect x="-88.4" y="-69.2" width="176.8" height="138.4" rx="13.8" fill="#050A12" opacity="0.25"/>
  <rect x="-88.4" y="-69.2" width="176.8" height="138.4" rx="13.8" fill="none" stroke="url(#strokeA)" stroke-width="6.9" opacity="0.85"/>
  <rect x="-77.3" y="-58.1" width="154.7" height="116.2" rx="9.7" fill="none" stroke="#F472B6" stroke-width="2.8" opacity="0.35"/>
</g>


<g opacity="0.352" transform="translate(744.1,1535.1) rotate(-3.9)" filter="url(#softGlow)">
  <rect x="-69.1" y="-61.9" width="138.2" height="123.8" rx="12.4" fill="#050A12" opacity="0.25"/>
  <rect x="-69.1" y="-61.9" width="138.2" height="123.8" rx="12.4" fill="none" stroke="url(#strokeA)" stroke-width="6.2" opacity="0.85"/>
  <rect x="-59.2" y="-52.0" width="118.3" height="104.0" rx="8.7" fill="none" stroke="#F472B6" stroke-width="2.5" opacity="0.35"/>
</g>


<g opacity="0.252" transform="translate(830.2,886.9) rotate(-5.6)" filter="url(#softGlow)">
  <rect x="-41.9" y="-24.2" width="83.9" height="48.3" rx="14.8" fill="none" stroke="#F472B6" stroke-width="8.1" opacity="0.55"/>
  <rect x="-18.5" y="-12.1" width="83.9" height="48.3" rx="14.8" fill="none" stroke="url(#strokeA)" stroke-width="6.7" opacity="0.55"/>
</g>


<g opacity="0.480" transform="translate(720.1,1511.1) rotate(12.8)" filter="url(#softGlow)">
  <rect x="-28.2" y="-16.3" width="56.5" height="32.5" rx="9.9" fill="none" stroke="#F472B6" stroke-width="5.4" opacity="0.55"/>
  <rect x="-12.4" y="-8.1" width="56.5" height="32.5" rx="9.9" fill="none" stroke="url(#strokeA)" stroke-width="4.5" opacity="0.55"/>
</g>


<g opacity="0.302" transform="translate(108.1,63.3) rotate(12.5)" filter="url(#softGlow)">
  <rect x="-29.0" y="-16.7" width="58.1" height="33.5" rx="10.2" fill="none" stroke="#2DD4BF" stroke-width="5.6" opacity="0.55"/>
  <rect x="-12.8" y="-8.4" width="58.1" height="33.5" rx="10.2" fill="none" stroke="url(#strokeA)" stroke-width="4.6" opacity="0.55"/>
</g>


<g opacity="0.373" transform="translate(156.8,1426.5) rotate(8.7)" filter="url(#softGlow)">
  <rect x="-32.1" y="-18.5" width="64.2" height="37.0" rx="11.3" fill="none" stroke="#F472B6" stroke-width="6.2" opacity="0.55"/>
  <rect x="-14.1" y="-9.2" width="64.2" height="37.0" rx="11.3" fill="none" stroke="url(#strokeA)" stroke-width="5.1" opacity="0.55"/>
</g>


<g opacity="0.444" transform="translate(750.3,1526.3) rotate(-0.7)" filter="url(#softGlow)">
  <rect x="-39.0" y="-22.5" width="78.0" height="45.0" rx="13.7" fill="none" stroke="#F472B6" stroke-width="7.5" opacity="0.55"/>
  <rect x="-17.2" y="-11.2" width="78.0" height="45.0" rx="13.7" fill="none" stroke="url(#strokeA)" stroke-width="6.2" opacity="0.55"/>
</g>


<g opacity="0.306" transform="translate(173.1,1479.4) rotate(-13.6)" filter="url(#softGlow)">
  <rect x="-34.3" y="-19.8" width="68.6" height="39.5" rx="12.1" fill="none" stroke="#F472B6" stroke-width="6.6" opacity="0.55"/>
  <rect x="-15.1" y="-9.9" width="68.6" height="39.5" rx="12.1" fill="none" stroke="url(#strokeA)" stroke-width="5.5" opacity="0.55"/>
</g>


<g opacity="0.145">
  <line x1="371.2" y1="1441.4" x2="371.2" y2="1515.1" stroke="#F472B6" stroke-width="2.03" opacity="0.45"/>
  <rect x="366.3" y="1487.2" width="9.7" height="26.3" rx="3.2" fill="#0B1020" opacity="0.55" stroke="url(#strokeA)" stroke-width="1.2"/>
</g>

<g opacity="0.145">
  <line x1="140.2" y1="1426.9" x2="140.2" y2="1518.7" stroke="#F472B6" stroke-width="1.62" opacity="0.45"/>
  <rect x="135.0" y="1481.6" width="10.3" height="37.5" rx="3.4" fill="#0B1020" opacity="0.55" stroke="url(#strokeA)" stroke-width="1.2"/>
</g>

<g opacity="0.145">
  <line x1="168.9" y1="1445.9" x2="168.9" y2="1514.0" stroke="#F472B6" stroke-width="1.64" opacity="0.45"/>
  <rect x="165.2" y="1487.6" width="7.3" height="25.5" rx="2.4" fill="#0B1020" opacity="0.55" stroke="url(#strokeA)" stroke-width="1.2"/>
</g>

<g opacity="0.145">
  <line x1="770.6" y1="1405.2" x2="770.6" y2="1524.2" stroke="#F472B6" stroke-width="1.73" opacity="0.45"/>
  <rect x="766.9" y="1470.8" width="7.5" height="59.2" rx="2.5" fill="#0B1020" opacity="0.55" stroke="url(#strokeA)" stroke-width="1.2"/>
</g>

<g opacity="0.145">
  <line x1="839.8" y1="1430.3" x2="839.8" y2="1517.9" stroke="#F472B6" stroke-width="1.41" opacity="0.45"/>
  <rect x="834.6" y="1481.6" width="10.3" height="37.5" rx="3.4" fill="#0B1020" opacity="0.55" stroke="url(#strokeA)" stroke-width="1.2"/>
</g>

<g opacity="0.145">
  <line x1="847.2" y1="1433.9" x2="847.2" y2="1517.0" stroke="#F472B6" stroke-width="1.80" opacity="0.45"/>
  <rect x="843.5" y="1476.8" width="7.4" height="47.2" rx="2.5" fill="#0B1020" opacity="0.55" stroke="url(#strokeA)" stroke-width="1.2"/>
</g>

<g opacity="0.145">
  <line x1="715.6" y1="1419.7" x2="715.6" y2="1520.5" stroke="#F472B6" stroke-width="1.55" opacity="0.45"/>
  <rect x="711.6" y="1475.8" width="8.1" height="49.0" rx="2.7" fill="#0B1020" opacity="0.55" stroke="url(#strokeA)" stroke-width="1.2"/>
</g>

<g opacity="0.145">
  <line x1="35.1" y1="1458.3" x2="35.1" y2="1510.9" stroke="#F472B6" stroke-width="2.14" opacity="0.45"/>
  <rect x="29.5" y="1486.9" width="11.2" height="26.9" rx="3.7" fill="#0B1020" opacity="0.55" stroke="url(#strokeA)" stroke-width="1.2"/>
</g>

<g opacity="0.145">
  <line x1="224.2" y1="1420.5" x2="224.2" y2="1520.3" stroke="#F472B6" stroke-width="1.20" opacity="0.45"/>
  <rect x="219.0" y="1473.2" width="10.5" height="54.4" rx="3.5" fill="#0B1020" opacity="0.55" stroke="url(#strokeA)" stroke-width="1.2"/>
</g>

<g opacity="0.145">
  <line x1="98.8" y1="1456.0" x2="98.8" y2="1511.5" stroke="#F472B6" stroke-width="2.14" opacity="0.45"/>
  <rect x="93.2" y="1485.9" width="11.4" height="28.9" rx="3.8" fill="#0B1020" opacity="0.55" stroke="url(#strokeA)" stroke-width="1.2"/>
</g>

<g opacity="0.145">
  <line x1="187.5" y1="1432.2" x2="187.5" y2="1517.4" stroke="#F472B6" stroke-width="1.30" opacity="0.45"/>
  <rect x="183.9" y="1483.5" width="7.1" height="33.7" rx="2.4" fill="#0B1020" opacity="0.55" stroke="url(#strokeA)" stroke-width="1.2"/>
</g>

<g opacity="0.145">
  <line x1="790.0" y1="1427.8" x2="790.0" y2="1518.5" stroke="#F472B6" stroke-width="1.22" opacity="0.45"/>
  <rect x="786.2" y="1483.4" width="7.6" height="34.0" rx="2.5" fill="#0B1020" opacity="0.55" stroke="url(#strokeA)" stroke-width="1.2"/>
</g>

<g opacity="0.145">
  <line x1="854.5" y1="1429.4" x2="854.5" y2="1518.1" stroke="#F472B6" stroke-width="1.06" opacity="0.45"/>
  <rect x="849.7" y="1471.8" width="9.5" height="57.1" rx="3.2" fill="#0B1020" opacity="0.55" stroke="url(#strokeA)" stroke-width="1.2"/>
</g>

<g opacity="0.145">
  <line x1="641.3" y1="1419.3" x2="641.3" y2="1520.6" stroke="#F472B6" stroke-width="1.13" opacity="0.45"/>
  <rect x="635.7" y="1470.5" width="11.2" height="59.7" rx="3.7" fill="#0B1020" opacity="0.55" stroke="url(#strokeA)" stroke-width="1.2"/>
</g>

<g opacity="0.145">
  <line x1="751.5" y1="1439.1" x2="751.5" y2="1515.7" stroke="#F472B6" stroke-width="2.03" opacity="0.45"/>
  <rect x="745.9" y="1488.6" width="11.1" height="23.6" rx="3.7" fill="#0B1020" opacity="0.55" stroke="url(#strokeA)" stroke-width="1.2"/>
</g>

<g opacity="0.145">
  <line x1="531.9" y1="1434.7" x2="531.9" y2="1516.8" stroke="#F472B6" stroke-width="2.05" opacity="0.45"/>
  <rect x="526.9" y="1482.2" width="9.9" height="36.3" rx="3.3" fill="#0B1020" opacity="0.55" stroke="url(#strokeA)" stroke-width="1.2"/>
</g>
<circle cx="759.0" cy="76.7" r="1.4" fill="#2DD4BF" opacity="0.27" filter="url(#softGlow)"/>
<circle cx="870.2" cy="160.1" r="2.4" fill="#2DD4BF" opacity="0.25" filter="url(#softGlow)"/>
<circle cx="316.4" cy="1491.3" r="2.6" fill="#2DD4BF" opacity="0.14" filter="url(#softGlow)"/>
<circle cx="13.7" cy="1483.3" r="1.8" fill="#2DD4BF" opacity="0.16" filter="url(#softGlow)"/>
<circle cx="108.0" cy="82.1" r="2.4" fill="#2DD4BF" opacity="0.11" filter="url(#softGlow)"/>
<circle cx="847.0" cy="71.2" r="2.0" fill="#2DD4BF" opacity="0.24" filter="url(#softGlow)"/>
<circle cx="9.3" cy="1434.1" r="1.9" fill="#2DD4BF" opacity="0.13" filter="url(#softGlow)"/>
<circle cx="868.1" cy="147.6" r="1.3" fill="#2DD4BF" opacity="0.25" filter="url(#softGlow)"/>
<circle cx="756.9" cy="1574.2" r="1.7" fill="#2DD4BF" opacity="0.21" filter="url(#softGlow)"/>
<circle cx="169.9" cy="129.2" r="1.5" fill="#2DD4BF" opacity="0.15" filter="url(#softGlow)"/>
<circle cx="85.3" cy="52.0" r="2.4" fill="#2DD4BF" opacity="0.20" filter="url(#softGlow)"/>
<circle cx="264.4" cy="1585.2" r="1.8" fill="#2DD4BF" opacity="0.24" filter="url(#softGlow)"/>
<circle cx="203.0" cy="137.0" r="2.4" fill="#2DD4BF" opacity="0.25" filter="url(#softGlow)"/>
<circle cx="868.8" cy="2.5" r="2.3" fill="#2DD4BF" opacity="0.19" filter="url(#softGlow)"/>
<circle cx="815.8" cy="34.1" r="2.7" fill="#2DD4BF" opacity="0.26" filter="url(#softGlow)"/>
<circle cx="18.0" cy="1467.7" r="2.5" fill="#2DD4BF" opacity="0.20" filter="url(#softGlow)"/>
<circle cx="107.5" cy="1452.9" r="2.7" fill="#2DD4BF" opacity="0.13" filter="url(#softGlow)"/>
<circle cx="8.5" cy="23.7" r="2.0" fill="#2DD4BF" opacity="0.23" filter="url(#softGlow)"/>
<circle cx="34.4" cy="1583.3" r="1.6" fill="#2DD4BF" opacity="0.17" filter="url(#softGlow)"/>
<circle cx="179.1" cy="1584.8" r="3.0" fill="#2DD4BF" opacity="0.14" filter="url(#softGlow)"/>
<circle cx="666.5" cy="1476.3" r="1.7" fill="#2DD4BF" opacity="0.23" filter="url(#softGlow)"/>
<circle cx="853.4" cy="1554.3" r="1.5" fill="#2DD4BF" opacity="0.19" filter="url(#softGlow)"/>
<circle cx="789.6" cy="88.0" r="1.7" fill="#2DD4BF" opacity="0.15" filter="url(#softGlow)"/>
<circle cx="57.9" cy="1468.4" r="2.2" fill="#2DD4BF" opacity="0.22" filter="url(#softGlow)"/>
</svg>