<svg xmlns="http://www.w3.org/2000/svg" width="900" height="1600" viewBox="0 0 900 1600" preserveAspectRatio="xMidYMid slice">
<defs>
  <linearGradient id="g0" x1="0" y1="0" x2="1" y2="1">
    <stop offset="0" stop-color="#0B1020"/>
    <stop offset="0.55" stop-color="#00E5FF" stop-opacity="0.9"/>
    <stop offset="1" stop-color="#051018"/>
  </linearGradient>
  <radialGradient id="g1" cx="20%" cy="15%" r="70%">
    <stop offset="0" stop-color="#7C4DFF" stop-opacity="0.38"/>
    <stop offset="0.6" stop-color="#7C4DFF" stop-opacity="0.08"/>
    <stop offset="1" stop-color="#7C4DFF" stop-opacity="0"/>
  </radialGradient>
  <radialGradient id="g2" cx="85%" cy="80%" r="75%">
    <stop offset="0" stop-color="#7C4DFF" stop-opacity="0.28"/>
    <stop offset="0.65" stop-color="#7C4DFF" stop-opacity="0.06"/>
    <stop offset="1" stop-color="#7C4DFF" stop-opacity="0"/>
  </radialGradient>
  <filter id="softGlow" x="-30%" y="-30%" width="160%" height="160%">
    <feGaussianBlur stdDeviation="12" result="b"/>
    <feMerge>
      <feMergeNode in="b"/>
      <feMergeNode in="SourceGraphic"/>
    </feMerge>
  </filter>
  <filter id="hardGlow" x="-40%" y="-40%" width="180%" height="180%">
    <feGaussianBlur stdDeviation="6" result="b"/>
    <feColorMatrix in="b" type="matrix" values="1 0 0 0 0  0 1 0 0 0  0 0 1 0 0  0 0 0 18 -7" result="c"/>
    <feMerge>
      <feMergeNode in="c"/>
      <feMergeNode in="SourceGraphic"/>
    </feMerge>
  </filter>
  <linearGradient id="strokeA" x1="0" y1="0" x2="1" y2="0">
    <stop offset="0" stop-color="#7C4DFF" stop-opacity="0.9"/>
    <stop offset="0.5" stop-color="#FFFFFF" stop-opacity="0.25"/>
    <stop offset="1" stop-color="#7C4DFF" stop-opacity="0.7"/>
  </linearGradient>
  <linearGradient id="strokeB" x1="0" y1="0" x2="0" y2="1">
    <stop offset="0" stop-color="#FFFFFF" stop-opacity="0.18"/>
    <stop offset="1" stop-color="#7C4DFF" stop-opacity="0.55"/>
  </linearGradient>
</defs>
<rect x="0" y="0" width="900" height="1600" fill="url(#g0)"/>
<rect x="0" y="0" width="900" height="1600" fill="url(#g1)"/>
<rect x="0" y="0" width="900" height="1600" fill="url(#g2)"/>


<defs>
  <radialGradient id="vign" cx="0.5000" cy="0.5000" r="0.85">
    <stop offset="0" stop-color="#000000" stop-opacity="0"/>
    <stop offset="0.55" stop-color="#000000" stop-opacity="0.217"/>
    <stop offset="1" stop-color="#000000" stop-opacity="0.620"/>
  </radialGradient>
</defs>
<rect x="0" y="0" width="900" height="1600" fill="url(#vign)"/>

<g opacity="0.248" filter="url(#softGlow)"><path d="M 677.7,1470.6 L 106.3,1470.6 L 106.3,813.6 L 592.4,813.6 L 592.4,74.5 " fill="none" stroke="url(#strokeB)" stroke-width="1.21" stroke-linecap="round" stroke-linejoin="round"/><circle cx="592.4" cy="813.6" r="3.9" fill="#00E5FF" opacity="0.45"/><circle cx="106.3" cy="813.6" r="2.2" fill="#00E5FF" opacity="0.45"/><circle cx="592.4" cy="74.5" r="2.9" fill="#00E5FF" opacity="0.45"/></g>
<g opacity="0.248" filter="url(#softGlow)"><path d="M 101.7,219.9 L 888.3,219.9 L 888.3,1467.4 L 135.4,1467.4 L 135.4,217.2 " fill="none" stroke="url(#strokeB)" stroke-width="1.99" stroke-linecap="round" stroke-linejoin="round"/><circle cx="135.4" cy="217.2" r="4.1" fill="#00E5FF" opacity="0.45"/><circle cx="888.3" cy="219.9" r="3.3" fill="#00E5FF" opacity="0.45"/><circle cx="101.7" cy="219.9" r="2.7" fill="#00E5FF" opacity="0.45"/></g>
<g opacity="0.248" filter="url(#softGlow)"><path d="M 889.5,1503.9 L 1.4,1503.9 L 1.4,1453.7 L 724.1,1453.7 L 724.1,26.9 " fill="none" stroke="url(#strokeB)" stroke-width="1.27" stroke-linecap="round" stroke-linejoin="round"/><circle cx="1.4" cy="1503.9" r="3.3" fill="#00E5FF" opacity="0.45"/><circle cx="1.4" cy="1453.7" r="3.9" fill="#00E5FF" opacity="0.45"/><circle cx="724.1" cy="26.9" r="2.8" fill="#00E5FF" opacity="0.45"/></g>
<g opacity="0.248" filter="url(#softGlow)"><path d="M 141.7,267.9 L 186.1,267.9 L 186.1,1460.1 L 747.6,1460.1 L 747.6,1573.0 " fill="none" stroke="url(#strokeB)" stroke-width="1.87" stroke-linecap="round" stroke-linejoin="round"/><circle cx="141.7" cy="267.9" r="3.8" fill="#00E5FF" opacity="0.45"/><circle cx="747.6" cy="1460.1" r="3.7" fill="#00E5FF" opacity="0.45"/><circle cx="186.1" cy="267.9" r="2.1" fill="#00E5FF" opacity="0.45"/></g>
<g opacity="0.248" filter="url(#softGlow)"><path d="M 17.5,74.4 L 3.4,74.4 L 3.4,144.4 L 758.1,144.4 L 758.1,374.3 " fill="none" stroke="url(#strokeB)" stroke-width="1.44" stroke-linecap="round" stroke-linejoin="round"/><circle cx="758.1" cy="374.3" r="3.2" fill="#00E5FF" opacity="0.45"/><circle cx="3.4" cy="74.4" r="3.3" fill="#00E5FF" opacity="0.45"/><circle cx="17.5" cy="74.4" r="2.5" fill="#00E5FF" opacity="0.45"/></g>
<g opacity="0.248" filter="url(#softGlow)"><path d="M 5.9,302.0 L 820.9,302.0 L 820.9,148.3 L 133.9,148.3 L 133.9,1548.2 " fill="none" stroke="url(#strokeB)" stroke-width="2.11" stroke-linecap="round" stroke-linejoin="round"/><circle cx="133.9" cy="148.3" r="3.7" fill="#00E5FF" opacity="0.45"/><circle cx="820.9" cy="302.0" r="3.5" fill="#00E5FF" opacity="0.45"/><circle cx="5.9" cy="302.0" r="2.4" fill="#00E5FF" opacity="0.45"/></g>
<g opacity="0.248" filter="url(#softGlow)"><path d="M 822.0,31.7 L 30.6,31.7 L 30.6,1587.4 L 52.2,1587.4 L 52.2,17.1 " fill="none" stroke="url(#strokeB)" stroke-width="1.43" stroke-linecap="round" stroke-linejoin="round"/><circle cx="30.6" cy="31.7" r="2.5" fill="#00E5FF" opacity="0.45"/><circle cx="52.2" cy="17.1" r="3.6" fill="#00E5FF" opacity="0.45"/><circle cx="30.6" cy="1587.4" r="2.9" fill="#00E5FF" opacity="0.45"/></g>
<g opacity="0.248" filter="url(#softGlow)"><path d="M 835.7,1562.8 L 742.3,1562.8 L 742.3,148.6 L 736.0,148.6 L 736.0,1462.4 " fill="none" stroke="url(#strokeB)" stroke-width="2.01" stroke-linecap="round" stroke-linejoin="round"/><circle cx="736.0" cy="148.6" r="3.5" fill="#00E5FF" opacity="0.45"/><circle cx="736.0" cy="1462.4" r="4.0" fill="#00E5FF" opacity="0.45"/><circle cx="835.7" cy="1562.8" r="3.8" fill="#00E5FF" opacity="0.45"/></g>
<g opacity="0.248" filter="url(#softGlow)"><path d="M 136.9,1589.1 L 601.7,1589.1 L 601.7,1522.7 L 836.7,1522.7 L 836.7,158.5 " fill="none" stroke="url(#strokeB)" stroke-width="1.39" stroke-linecap="round" stroke-linejoin="round"/><circle cx="601.7" cy="1522.7" r="3.0" fill="#00E5FF" opacity="0.45"/><circle cx="836.7" cy="1522.7" r="3.5" fill="#00E5FF" opacity="0.45"/><circle cx="136.9" cy="1589.1" r="2.5" fill="#00E5FF" opacity="0.45"/></g>
<g opacity="0.248" filter="url(#softGlow)"><path d="M 96.7,134.4 L 128.8,134.4 L 128.8,666.0 L 788.3,666.0 L 788.3,145.5 " fill="none" stroke="url(#strokeB)" stroke-width="1.61" stroke-linecap="round" stroke-linejoin="round"/><circle cx="788.3" cy="666.0" r="3.5" fill="#00E5FF" opacity="0.45"/><circle cx="128.8" cy="666.0" r="2.3" fill="#00E5FF" opacity="0.45"/><circle cx="128.8" cy="134.4" r="2.2" fill="#00E5FF" opacity="0.45"/></g>
<g opacity="0.248" filter="url(#softGlow)"><path d="M 817.5,1514.4 L 21.7,1514.4 L 21.7,1447.1 L 838.2,1447.1 L 838.2,21.7 " fill="none" stroke="url(#strokeB)" stroke-width="1.80" stroke-linecap="round" stroke-linejoin="round"/><circle cx="21.7" cy="1514.4" r="2.6" fill="#00E5FF" opacity="0.45"/><circle cx="838.2" cy="1447.1" r="2.4" fill="#00E5FF" opacity="0.45"/><circle cx="21.7" cy="1447.1" r="3.9" fill="#00E5FF" opacity="0.45"/></g>
<g opacity="0.248" filter="url(#softGlow)"><path d="M 853.0,352.9 L 281.6,352.9 L 281.6,1490.3 L 34.3,1490.3 L 34.3,149.5 " fill="none" stroke="url(#strokeB)" stroke-width="1.91" stroke-linecap="round" stroke-linejoin="round"/><circle cx="34.3" cy="1490.3" r="2.7" fill="#00E5FF" opacity="0.45"/><circle cx="281.6" cy="352.9" r="3.7" fill="#00E5FF" opacity="0.45"/><circle cx="281.6" cy="1490.3" r="2.7" fill="#00E5FF" opacity="0.45"/></g>
<g opacity="0.248" filter="url(#softGlow)"><path d="M 757.6,958.8 L 871.9,958.8 L 871.9,1465.2 L 76.2,1465.2 L 76.2,546.4 " fill="none" stroke="url(#strokeB)" stroke-width="2.12" stroke-linecap="round" stroke-linejoin="round"/><circle cx="871.9" cy="958.8" r="4.0" fill="#00E5FF" opacity="0.45"/><circle cx="757.6" cy="958.8" r="2.1" fill="#00E5FF" opacity="0.45"/><circle cx="871.9" cy="1465.2" r="3.3" fill="#00E5FF" opacity="0.45"/></g>
<g opacity="0.248" filter="url(#softGlow)"><path d="M 176.2,1549.7 L 294.8,1549.7 L 294.8,1525.5 L 826.7,1525.5 L 826.7,87.2 " fill="none" stroke="url(#strokeB)" stroke-width="1.30" stroke-linecap="round" stroke-linejoin="round"/><circle cx="294.8" cy="1549.7" r="2.7" fill="#00E5FF" opacity="0.45"/><circle cx="826.7" cy="87.2" r="3.5" fill="#00E5FF" opacity="0.45"/><circle cx="176.2" cy="1549.7" r="2.2" fill="#00E5FF" opacity="0.45"/></g>
<g opacity="0.248" filter="url(#softGlow)"><path d="M 576.3,1478.0 L 105.3,1478.0 L 105.3,143.3 L 154.2,143.3 L 154.2,87.1 " fill="none" stroke="url(#strokeB)" stroke-width="1.11" stroke-linecap="round" stroke-linejoin="round"/><circle cx="154.2" cy="143.3" r="4.1" fill="#00E5FF" opacity="0.45"/><circle cx="576.3" cy="1478.0" r="2.6" fill="#00E5FF" opacity="0.45"/><circle cx="105.3" cy="1478.0" r="3.7" fill="#00E5FF" opacity="0.45"/></g>
<g opacity="0.248" filter="url(#softGlow)"><path d="M 21.9,36.4 L 742.1,36.4 L 742.1,89.8 L 893.3,89.8 L 893.3,1492.9 " fill="none" stroke="url(#strokeB)" stroke-width="1.19" stroke-linecap="round" stroke-linejoin="round"/><circle cx="893.3" cy="1492.9" r="3.5" fill="#00E5FF" opacity="0.45"/><circle cx="21.9" cy="36.4" r="3.5" fill="#00E5FF" opacity="0.45"/><circle cx="742.1" cy="89.8" r="2.5" fill="#00E5FF" opacity="0.45"/></g>
<g opacity="0.248" filter="url(#softGlow)"><path d="M 871.5,816.6 L 250.6,816.6 L 250.6,1452.4 L 43.7,1452.4 L 43.7,1420.4 " fill="none" stroke="url(#strokeB)" stroke-width="1.39" stroke-linecap="round" stroke-linejoin="round"/><circle cx="43.7" cy="1420.4" r="3.9" fill="#00E5FF" opacity="0.45"/><circle cx="871.5" cy="816.6" r="2.9" fill="#00E5FF" opacity="0.45"/><circle cx="43.7" cy="1452.4" r="4.1" fill="#00E5FF" opacity="0.45"/></g>
<g opacity="0.248" filter="url(#softGlow)"><path d="M 708.9,23.8 L 155.3,23.8 L 155.3,1570.6 L 46.0,1570.6 L 46.0,166.4 " fill="none" stroke="url(#strokeB)" stroke-width="1.40" stroke-linecap="round" stroke-linejoin="round"/><circle cx="155.3" cy="1570.6" r="2.8" fill="#00E5FF" opacity="0.45"/><circle cx="708.9" cy="23.8" r="2.6" fill="#00E5FF" opacity="0.45"/><circle cx="155.3" cy="23.8" r="3.2" fill="#00E5FF" opacity="0.45"/></g>
<g opacity="0.248" filter="url(#softGlow)"><path d="M 68.8,1579.3 L 827.9,1579.3 L 827.9,907.5 L 770.0,907.5 L 770.0,29.9 " fill="none" stroke="url(#strokeB)" stroke-width="2.03" stroke-linecap="round" stroke-linejoin="round"/><circle cx="68.8" cy="1579.3" r="3.1" fill="#00E5FF" opacity="0.45"/><circle cx="770.0" cy="29.9" r="2.6" fill="#00E5FF" opacity="0.45"/><circle cx="827.9" cy="1579.3" r="2.4" fill="#00E5FF" opacity="0.45"/></g>
<g opacity="0.248" filter="url(#softGlow)"><path d="M 180.8,56.1 L 28.9,56.1 L 28.9,756.4 L 25.9,756.4 L 25.9,1419.6 " fill="none" stroke="url(#strokeB)" stroke-width="1.11" stroke-linecap="round" stroke-linejoin="round"/><circle cx="25.9" cy="1419.6" r="3.6" fill="#00E5FF" opacity="0.45"/><circle cx="28.9" cy="56.1" r="3.0" fill="#00E5FF" opacity="0.45"/><circle cx="25.9" cy="756.4" r="3.0" fill="#00E5FF" opacity="0.45"/></g>
<g opacity="0.248" filter="url(#softGlow)"><path d="M 249.9,116.0 L 109.5,116.0 L 109.5,60.7 L 24.2,60.7 L 24.2,1527.6 " fill="none" stroke="url(#strokeB)" stroke-width="1.46" stroke-linecap="round" stroke-linejoin="round"/><circle cx="109.5" cy="60.7" r="2.4" fill="#00E5FF" opacity="0.45"/><circle cx="109.5" cy="116.0" r="4.0" fill="#00E5FF" opacity="0.45"/><circle cx="24.2" cy="60.7" r="3.7" fill="#00E5FF" opacity="0.45"/></g>
<g opacity="0.248" filter="url(#softGlow)"><path d="M 782.3,728.8 L 214.6,728.8 L 214.6,1573.0 L 851.8,1573.0 L 851.8,156.6 " fill="none" stroke="url(#strokeB)" stroke-width="1.33" stroke-linecap="round" stroke-linejoin="round"/><circle cx="214.6" cy="728.8" r="3.7" fill="#00E5FF" opacity="0.45"/><circle cx="782.3" cy="728.8" r="3.7" fill="#00E5FF" opacity="0.45"/><circle cx="851.8" cy="156.6" r="2.8" fill="#00E5FF" opacity="0.45"/></g>

<g opacity="0.862" filter="url(#hardGlow)">
  <circle cx="546.9" cy="1579.4" r="56.3" fill="#0A1224" opacity="0.65"/>
  <circle cx="546.9" cy="1579.4" r="56.3" fill="none" stroke="url(#strokeA)" stroke-width="4.5" opacity="0.85"/>
  <circle cx="546.9" cy="1579.4" r="48.5" fill="none" stroke="#7C4DFF" stroke-width="1.7" opacity="0.35"/>
  <polygon points="585.2,1565.9 577.7,1605.8 539.4,1619.2 508.6,1592.8 516.2,1552.9 554.5,1539.5" fill="none" stroke="url(#strokeB)" stroke-width="1.4" opacity="0.65"/>
  <polygon points="561.1,1579.5 539.7,1591.6 540.0,1567.0" fill="#7C4DFF" opacity="0.22" filter="url(#softGlow)"/>
</g>


<g opacity="0.379" filter="url(#hardGlow)">
  <circle cx="596.5" cy="1577.2" r="22.1" fill="#0A1224" opacity="0.65"/>
  <circle cx="596.5" cy="1577.2" r="22.1" fill="none" stroke="url(#strokeA)" stroke-width="2.0" opacity="0.85"/>
  <circle cx="596.5" cy="1577.2" r="19.0" fill="none" stroke="#00E5FF" stroke-width="1.5" opacity="0.35"/>
  <polygon points="591.7,1562.0 607.3,1565.5 612.0,1580.8 601.2,1592.5 585.7,1589.0 580.9,1573.7" fill="none" stroke="url(#strokeB)" stroke-width="1.2" opacity="0.65"/>
  <polygon points="596.7,1571.7 601.2,1580.3 591.5,1579.8" fill="#00E5FF" opacity="0.22" filter="url(#softGlow)"/>
</g>


<g opacity="0.639" filter="url(#hardGlow)">
  <circle cx="488.3" cy="1560.1" r="24.7" fill="#0A1224" opacity="0.65"/>
  <circle cx="488.3" cy="1560.1" r="24.7" fill="none" stroke="url(#strokeA)" stroke-width="2.0" opacity="0.85"/>
  <circle cx="488.3" cy="1560.1" r="21.3" fill="none" stroke="#00E5FF" stroke-width="1.5" opacity="0.35"/>
  <polygon points="499.1,1545.9 506.0,1562.4 495.2,1576.5 477.5,1574.2 470.6,1557.8 481.5,1543.6" fill="none" stroke="url(#strokeB)" stroke-width="1.2" opacity="0.65"/>
  <polygon points="493.6,1556.7 488.6,1566.3 482.8,1557.2" fill="#00E5FF" opacity="0.22" filter="url(#softGlow)"/>
</g>


<g opacity="0.355" filter="url(#hardGlow)">
  <circle cx="615.9" cy="1634.4" r="25.9" fill="#0A1224" opacity="0.65"/>
  <circle cx="615.9" cy="1634.4" r="25.9" fill="none" stroke="url(#strokeA)" stroke-width="2.1" opacity="0.85"/>
  <circle cx="615.9" cy="1634.4" r="22.3" fill="none" stroke="#00E5FF" stroke-width="1.5" opacity="0.35"/>
  <polygon points="633.4,1628.0 630.2,1646.4 612.7,1652.8 598.4,1640.9 601.5,1622.5 619.0,1616.1" fill="none" stroke="url(#strokeB)" stroke-width="1.2" opacity="0.65"/>
  
</g>


<g opacity="0.864" filter="url(#hardGlow)">
  <circle cx="655.8" cy="102.0" r="45.8" fill="#0A1224" opacity="0.65"/>
  <circle cx="655.8" cy="102.0" r="45.8" fill="none" stroke="url(#strokeA)" stroke-width="3.7" opacity="0.85"/>
  <circle cx="655.8" cy="102.0" r="39.4" fill="none" stroke="#7C4DFF" stroke-width="1.5" opacity="0.35"/>
  <polygon points="669.4,132.1 636.6,128.8 623.0,98.7 642.3,71.9 675.1,75.3 688.6,105.3" fill="none" stroke="url(#strokeB)" stroke-width="1.2" opacity="0.65"/>
  <polygon points="656.7,113.5 645.4,97.0 665.4,95.5" fill="#7C4DFF" opacity="0.22" filter="url(#softGlow)"/>
</g>


<g opacity="0.479" filter="url(#hardGlow)">
  <circle cx="673.1" cy="111.0" r="19.0" fill="#0A1224" opacity="0.65"/>
  <circle cx="673.1" cy="111.0" r="19.0" fill="none" stroke="url(#strokeA)" stroke-width="2.0" opacity="0.85"/>
  <circle cx="673.1" cy="111.0" r="16.3" fill="none" stroke="#00E5FF" stroke-width="1.5" opacity="0.35"/>
  <polygon points="685.9,106.2 683.6,119.7 670.8,124.4 660.3,115.7 662.6,102.2 675.4,97.5" fill="none" stroke="url(#strokeB)" stroke-width="1.2" opacity="0.65"/>
  <polygon points="677.9,110.9 670.7,115.1 670.7,106.8" fill="#00E5FF" opacity="0.22" filter="url(#softGlow)"/>
</g>


<g opacity="0.839" filter="url(#hardGlow)">
  <circle cx="809.5" cy="117.7" r="53.0" fill="#0A1224" opacity="0.65"/>
  <circle cx="809.5" cy="117.7" r="53.0" fill="none" stroke="url(#strokeA)" stroke-width="4.2" opacity="0.85"/>
  <circle cx="809.5" cy="117.7" r="45.6" fill="none" stroke="#7C4DFF" stroke-width="1.6" opacity="0.35"/>
  <polygon points="847.6,114.9 830.9,149.3 792.8,152.0 771.4,120.4 788.1,86.1 826.2,83.3" fill="none" stroke="url(#strokeB)" stroke-width="1.3" opacity="0.65"/>
  <polygon points="822.3,121.3 799.9,127.0 806.2,104.7" fill="#7C4DFF" opacity="0.22" filter="url(#softGlow)"/>
</g>


<g opacity="0.356" filter="url(#hardGlow)">
  <circle cx="828.1" cy="120.2" r="29.0" fill="#0A1224" opacity="0.65"/>
  <circle cx="828.1" cy="120.2" r="29.0" fill="none" stroke="url(#strokeA)" stroke-width="2.3" opacity="0.85"/>
  <circle cx="828.1" cy="120.2" r="25.0" fill="none" stroke="#00E5FF" stroke-width="1.5" opacity="0.35"/>
  <polygon points="807.7,124.6 814.1,104.7 834.6,100.3 848.6,115.9 842.1,135.7 821.7,140.1" fill="none" stroke="url(#strokeB)" stroke-width="1.2" opacity="0.65"/>
  <polygon points="820.9,119.2 832.6,114.5 830.9,127.0" fill="#00E5FF" opacity="0.22" filter="url(#softGlow)"/>
</g>


<g opacity="0.648" filter="url(#hardGlow)">
  <circle cx="749.4" cy="83.0" r="27.2" fill="#0A1224" opacity="0.65"/>
  <circle cx="749.4" cy="83.0" r="27.2" fill="none" stroke="url(#strokeA)" stroke-width="2.2" opacity="0.85"/>
  <circle cx="749.4" cy="83.0" r="23.4" fill="none" stroke="#00E5FF" stroke-width="1.5" opacity="0.35"/>
  <polygon points="752.8,102.3 734.4,95.7 730.9,76.3 745.9,63.7 764.4,70.4 767.8,89.7" fill="none" stroke="url(#strokeB)" stroke-width="1.2" opacity="0.65"/>
  <polygon points="748.2,89.8 744.1,78.6 755.8,80.7" fill="#00E5FF" opacity="0.22" filter="url(#softGlow)"/>
</g>


<g opacity="0.899" filter="url(#hardGlow)">
  <circle cx="689.4" cy="110.9" r="49.7" fill="#0A1224" opacity="0.65"/>
  <circle cx="689.4" cy="110.9" r="49.7" fill="none" stroke="url(#strokeA)" stroke-width="4.0" opacity="0.85"/>
  <circle cx="689.4" cy="110.9" r="42.7" fill="none" stroke="#7C4DFF" stroke-width="1.5" opacity="0.35"/>
  <polygon points="683.4,146.2 655.9,123.3 661.9,88.1 695.5,75.7 723.0,98.5 716.9,133.8" fill="none" stroke="url(#strokeB)" stroke-width="1.2" opacity="0.65"/>
  <polygon points="683.2,121.8 683.1,100.1 701.9,110.9" fill="#7C4DFF" opacity="0.22" filter="url(#softGlow)"/>
</g>


<g opacity="0.572" filter="url(#hardGlow)">
  <circle cx="645.4" cy="164.5" r="25.2" fill="#0A1224" opacity="0.65"/>
  <circle cx="645.4" cy="164.5" r="25.2" fill="none" stroke="url(#strokeA)" stroke-width="2.0" opacity="0.85"/>
  <circle cx="645.4" cy="164.5" r="21.6" fill="none" stroke="#00E5FF" stroke-width="1.5" opacity="0.35"/>
  <polygon points="645.2,146.4 661.0,155.3 661.1,173.5 645.5,182.6 629.7,173.7 629.6,155.6" fill="none" stroke="url(#strokeB)" stroke-width="1.2" opacity="0.65"/>
  <polygon points="647.5,158.5 649.5,169.3 639.1,165.7" fill="#00E5FF" opacity="0.22" filter="url(#softGlow)"/>
</g>


<g opacity="0.267" transform="translate(859.4,55.2) rotate(-9.8)" filter="url(#softGlow)">
  <rect x="-67.9" y="-58.0" width="135.8" height="116.0" rx="11.6" fill="#050A12" opacity="0.25"/>
  <rect x="-67.9" y="-58.0" width="135.8" height="116.0" rx="11.6" fill="none" stroke="url(#strokeA)" stroke-width="5.8" opacity="0.85"/>
  <rect x="-58.6" y="-48.7" width="117.3" height="97.4" rx="8.1" fill="none" stroke="#00E5FF" stroke-width="2.3" opacity="0.35"/>
</g>


<g opacity="0.276" transform="translate(840.1,877.5) rotate(-7.2)" filter="url(#softGlow)">
  <rect x="-96.8" y="-85.9" width="193.7" height="171.8" rx="17.2" fill="#050A12" opacity="0.25"/>
  <rect x="-96.8" y="-85.9" width="193.7" height="171.8" rx="17.2" fill="none" stroke="url(#strokeA)" stroke-width="8.6" opacity="0.85"/>
  <rect x="-83.1" y="-72.2" width="166.2" height="144.3" rx="12.0" fill="none" stroke="#7C4DFF" stroke-width="3.4" opacity="0.35"/>
</g>


<g opacity="0.392" transform="translate(835.8,57.9) rotate(-0.3)" filter="url(#softGlow)">
  <rect x="-84.9" y="-66.7" width="169.8" height="133.5" rx="13.3" fill="#050A12" opacity="0.25"/>
  <rect x="-84.9" y="-66.7" width="169.8" height="133.5" rx="13.3" fill="none" stroke="url(#strokeA)" stroke-width="6.7" opacity="0.85"/>
  <rect x="-74.2" y="-56.1" width="148.5" height="112.1" rx="9.3" fill="none" stroke="#7C4DFF" stroke-width="2.7" opacity="0.35"/>
</g>


<g opacity="0.341" transform="translate(887.5,1568.8) rotate(6.5)" filter="url(#softGlow)">
  <rect x="-68.5" y="-64.4" width="137.0" height="128.8" rx="12.9" fill="#050A12" opacity="0.25"/>
  <rect x="-68.5" y="-64.4" width="137.0" height="128.8" rx="12.9" fill="none" stroke="url(#strokeA)" stroke-width="6.4" opacity="0.85"/>
  <rect x="-58.2" y="-54.1" width="116.4" height="108.2" rx="9.0" fill="none" stroke="#7C4DFF" stroke-width="2.6" opacity="0.35"/>
</g>


<g opacity="0.321" transform="translate(805.3,1497.7) rotate(9.7)" filter="url(#softGlow)">
  <rect x="-47.8" y="-27.6" width="95.7" height="55.1" rx="16.8" fill="none" stroke="#FFB300" stroke-width="9.2" opacity="0.55"/>
  <rect x="-21.0" y="-13.8" width="95.7" height="55.1" rx="16.8" fill="none" stroke="url(#strokeA)" stroke-width="7.7" opacity="0.55"/>
</g>


<g opacity="0.295" transform="translate(788.6,1502.9) rotate(-1.9)" filter="url(#softGlow)">
  <rect x="-32.6" y="-18.8" width="65.2" height="37.6" rx="11.5" fill="none" stroke="#7C4DFF" stroke-width="6.3" opacity="0.55"/>
  <rect x="-14.4" y="-9.4" width="65.2" height="37.6" rx="11.5" fill="none" stroke="url(#strokeA)" stroke-width="5.2" opacity="0.55"/>
</g>


<g opacity="0.374" transform="translate(796.2,1033.3) rotate(-1.0)" filter="url(#softGlow)">
  <rect x="-32.3" y="-18.6" width="64.7" height="37.3" rx="11.4" fill="none" stroke="#7C4DFF" stroke-width="6.2" opacity="0.55"/>
  <rect x="-14.2" y="-9.3" width="64.7" height="37.3" rx="11.4" fill="none" stroke="url(#strokeA)" stroke-width="5.2" opacity="0.55"/>
</g>


<g opacity="0.307" transform="translate(110.7,1492.1) rotate(-14.1)" filter="url(#softGlow)">
  <rect x="-40.2" y="-23.1" width="80.4" height="46.3" rx="14.1" fill="none" stroke="#FFB300" stroke-width="7.7" opacity="0.55"/>
  <rect x="-17.7" y="-11.6" width="80.4" height="46.3" rx="14.1" fill="none" stroke="url(#strokeA)" stroke-width="6.4" opacity="0.55"/>
</g>


<g opacity="0.466" transform="translate(776.3,119.7) rotate(4.1)" filter="url(#softGlow)">
  <rect x="-40.7" y="-23.4" width="81.3" height="46.8" rx="14.3" fill="none" stroke="#00E5FF" stroke-width="7.8" opacity="0.55"/>
  <rect x="-17.9" y="-11.7" width="81.3" height="46.8" rx="14.3" fill="none" stroke="url(#strokeA)" stroke-width="6.5" opacity="0.55"/>
</g>


<g opacity="0.256" transform="translate(6.7,73.9) rotate(-6.5)" filter="url(#softGlow)">
  <rect x="-38.6" y="-22.2" width="77.2" height="44.5" rx="13.6" fill="none" stroke="#00E5FF" stroke-width="7.4" opacity="0.55"/>
  <rect x="-17.0" y="-11.1" width="77.2" height="44.5" rx="13.6" fill="none" stroke="url(#strokeA)" stroke-width="6.2" opacity="0.55"/>
</g>


<g opacity="0.355" transform="translate(79.7,184.2) rotate(-8.0)" filter="url(#softGlow)">
  <rect x="-30.8" y="-17.7" width="61.6" height="35.5" rx="10.8" fill="none" stroke="#FFB300" stroke-width="5.9" opacity="0.55"/>
  <rect x="-13.5" y="-8.9" width="61.6" height="35.5" rx="10.8" fill="none" stroke="url(#strokeA)" stroke-width="4.9" opacity="0.55"/>
</g>


<g opacity="0.144">
  <line x1="835.5" y1="1387.8" x2="835.5" y2="1481.0" stroke="#00E5FF" stroke-width="2.04" opacity="0.45"/>
  <rect x="830.9" y="1444.3" width="9.2" height="36.2" rx="3.1" fill="#0B1020" opacity="0.55" stroke="url(#strokeA)" stroke-width="1.2"/>
</g>

<g opacity="0.144">
  <line x1="712.2" y1="1373.5" x2="712.2" y2="1484.6" stroke="#00E5FF" stroke-width="1.24" opacity="0.45"/>
  <rect x="708.6" y="1436.9" width="7.3" height="51.0" rx="2.4" fill="#0B1020" opacity="0.55" stroke="url(#strokeA)" stroke-width="1.2"/>
</g>

<g opacity="0.144">
  <line x1="621.1" y1="1398.9" x2="621.1" y2="1478.3" stroke="#00E5FF" stroke-width="1.61" opacity="0.45"/>
  <rect x="617.4" y="1449.1" width="7.3" height="26.6" rx="2.4" fill="#0B1020" opacity="0.55" stroke="url(#strokeA)" stroke-width="1.2"/>
</g>

<g opacity="0.144">
  <line x1="889.5" y1="1371.3" x2="889.5" y2="1485.2" stroke="#00E5FF" stroke-width="1.67" opacity="0.45"/>
  <rect x="883.6" y="1432.5" width="11.8" height="59.9" rx="3.9" fill="#0B1020" opacity="0.55" stroke="url(#strokeA)" stroke-width="1.2"/>
</g>

<g opacity="0.144">
  <line x1="349.2" y1="1386.7" x2="349.2" y2="1481.3" stroke="#00E5FF" stroke-width="1.65" opacity="0.45"/>
  <rect x="345.3" y="1439.3" width="7.9" height="46.2" rx="2.6" fill="#0B1020" opacity="0.55" stroke="url(#strokeA)" stroke-width="1.2"/>
</g>

<g opacity="0.144">
  <line x1="57.8" y1="1385.8" x2="57.8" y2="1481.5" stroke="#00E5FF" stroke-width="1.68" opacity="0.45"/>
  <rect x="52.6" y="1434.8" width="10.5" height="55.2" rx="3.5" fill="#0B1020" opacity="0.55" stroke="url(#strokeA)" stroke-width="1.2"/>
</g>

<g opacity="0.144">
  <line x1="610.1" y1="1421.1" x2="610.1" y2="1472.7" stroke="#00E5FF" stroke-width="2.12" opacity="0.45"/>
  <rect x="604.2" y="1447.4" width="11.9" height="29.9" rx="4.0" fill="#0B1020" opacity="0.55" stroke="url(#strokeA)" stroke-width="1.2"/>
</g>

<g opacity="0.144">
  <line x1="168.1" y1="1386.5" x2="168.1" y2="1481.4" stroke="#00E5FF" stroke-width="1.14" opacity="0.45"/>
  <rect x="164.4" y="1440.2" width="7.5" height="44.3" rx="2.5" fill="#0B1020" opacity="0.55" stroke="url(#strokeA)" stroke-width="1.2"/>
</g>

<g opacity="0.144">
  <line x1="282.0" y1="1398.4" x2="282.0" y2="1478.4" stroke="#00E5FF" stroke-width="1.75" opacity="0.45"/>
  <rect x="278.8" y="1446.1" width="6.4" height="32.5" rx="2.1" fill="#0B1020" opacity="0.55" stroke="url(#strokeA)" stroke-width="1.2"/>
</g>

<g opacity="0.144">
  <line x1="10.8" y1="1377.6" x2="10.8" y2="1483.6" stroke="#00E5FF" stroke-width="1.30" opacity="0.45"/>
  <rect x="5.3" y="1436.1" width="10.9" height="52.7" rx="3.6" fill="#0B1020" opacity="0.55" stroke="url(#strokeA)" stroke-width="1.2"/>
</g>
<circle cx="131.8" cy="149.8" r="1.9" fill="#7C4DFF" opacity="0.26" filter="url(#softGlow)"/>
<circle cx="767.9" cy="157.1" r="2.7" fill="#7C4DFF" opacity="0.14" filter="url(#softGlow)"/>
<circle cx="122.0" cy="99.3" r="3.1" fill="#7C4DFF" opacity="0.26" filter="url(#softGlow)"/>
<circle cx="812.6" cy="976.4" r="3.1" fill="#7C4DFF" opacity="0.12" filter="url(#softGlow)"/>
<circle cx="746.6" cy="1490.9" r="1.3" fill="#7C4DFF" opacity="0.22" filter="url(#softGlow)"/>
<circle cx="76.0" cy="175.1" r="2.8" fill="#7C4DFF" opacity="0.22" filter="url(#softGlow)"/>
<circle cx="94.7" cy="1551.4" r="2.7" fill="#7C4DFF" opacity="0.14" filter="url(#softGlow)"/>
<circle cx="31.8" cy="981.4" r="2.1" fill="#7C4DFF" opacity="0.27" filter="url(#softGlow)"/>
<circle cx="84.3" cy="993.2" r="2.8" fill="#7C4DFF" opacity="0.16" filter="url(#softGlow)"/>
<circle cx="259.7" cy="95.6" r="2.9" fill="#7C4DFF" opacity="0.19" filter="url(#softGlow)"/>
<circle cx="734.9" cy="154.8" r="2.6" fill="#7C4DFF" opacity="0.15" filter="url(#softGlow)"/>
<circle cx="8.2" cy="1574.6" r="2.2" fill="#7C4DFF" opacity="0.14" filter="url(#softGlow)"/>
<circle cx="66.3" cy="637.2" r="1.8" fill="#7C4DFF" opacity="0.11" filter="url(#softGlow)"/>
<circle cx="867.9" cy="1587.0" r="2.0" fill="#7C4DFF" opacity="0.27" filter="url(#softGlow)"/>
<circle cx="86.7" cy="90.2" r="2.6" fill="#7C4DFF" opacity="0.25" filter="url(#softGlow)"/>
<circle cx="766.8" cy="80.5" r="2.6" fill="#7C4DFF" opacity="0.22" filter="url(#softGlow)"/>
<circle cx="9.8" cy="1428.4" r="1.9" fill="#7C4DFF" opacity="0.13" filter="url(#softGlow)"/>
<circle cx="746.8" cy="1562.0" r="2.9" fill="#7C4DFF" opacity="0.26" filter="url(#softGlow)"/>
</svg>