<svg xmlns="http://www.w3.org/2000/svg" width="900" height="1600" viewBox="0 0 900 1600" preserveAspectRatio="xMidYMid slice">
<defs>
  <linearGradient id="g0" x1="0" y1="0" x2="1" y2="1">
    <stop offset="0" stop-color="#0A0F1E"/>
    <stop offset="0.55" stop-color="#00FFA3" stop-opacity="0.9"/>
    <stop offset="1" stop-color="#050A12"/>
  </linearGradient>
  <radialGradient id="g1" cx="20%" cy="15%" r="70%">
    <stop offset="0" stop-color="#14C2FF" stop-opacity="0.38"/>
    <stop offset="0.6" stop-color="#14C2FF" stop-opacity="0.08"/>
    <stop offset="1" stop-color="#14C2FF" stop-opacity="0"/>
  </radialGradient>
  <radialGradient id="g2" cx="85%" cy="80%" r="75%">
    <stop offset="0" stop-color="#14C2FF" stop-opacity="0.28"/>
    <stop offset="0.65" stop-color="#14C2FF" stop-opacity="0.06"/>
    <stop offset="1" stop-color="#14C2FF" stop-opacity="0"/>
  </radialGradient>
  <filter id="softGlow" x="-30%" y="-30%" width="160%" height="160%">
    <feGaussianBlur stdDeviation="12" result="b"/>
    <feMerge>
      <feMergeNode in="b"/>
      <feMergeNode in="SourceGraphic"/>
    </feMerge>
  </filter>
  <filter id="hardGlow" x="-40%" y="-40%" width="180%" height="180%">
    <feGaussianBlur stdDeviation="6" result="b"/>
    <feColorMatrix in="b" type="matrix" values="1 0 0 0 0  0 1 0 0 0  0 0 1 0 0  0 0 0 18 -7" result="c"/>
    <feMerge>
      <feMergeNode in="c"/>
      <feMergeNode in="SourceGraphic"/>
    </feMerge>
  </filter>
  <linearGradient id="strokeA" x1="0" y1="0" x2="1" y2="0">
    <stop offset="0" stop-color="#14C2FF" stop-opacity="0.9"/>
    <stop offset="0.5" stop-color="#FFFFFF" stop-opacity="0.25"/>
    <stop offset="1" stop-color="#14C2FF" stop-opacity="0.7"/>
  </linearGradient>
  <linearGradient id="strokeB" x1="0" y1="0" x2="0" y2="1">
    <stop offset="0" stop-color="#FFFFFF" stop-opacity="0.18"/>
    <stop offset="1" stop-color="#14C2FF" stop-opacity="0.55"/>
  </linearGradient>
</defs>
<rect x="0" y="0" width="900" height="1600" fill="url(#g0)"/>
<rect x="0" y="0" width="900" height="1600" fill="url(#g1)"/>
<rect x="0" y="0" width="900" height="1600" fill="url(#g2)"/>


<defs>
  <radialGradient id="vign" cx="0.5000" cy="0.5000" r="0.85">
    <stop offset="0" stop-color="#000000" stop-opacity="0"/>
    <stop offset="0.55" stop-color="#000000" stop-opacity="0.217"/>
    <stop offset="1" stop-color="#000000" stop-opacity="0.620"/>
  </radialGradient>
</defs>
<rect x="0" y="0" width="900" height="1600" fill="url(#vign)"/>

<g opacity="0.194" filter="url(#softGlow)"><path d="M 839.1,133.0 L 836.1,133.0 L 836.1,1524.9 L 61.9,1524.9 L 61.9,100.3 " fill="none" stroke="url(#strokeB)" stroke-width="1.23" stroke-linecap="round" stroke-linejoin="round"/><circle cx="836.1" cy="133.0" r="4.1" fill="#14C2FF" opacity="0.45"/><circle cx="836.1" cy="1524.9" r="3.5" fill="#14C2FF" opacity="0.45"/><circle cx="61.9" cy="1524.9" r="3.1" fill="#14C2FF" opacity="0.45"/></g>
<g opacity="0.194" filter="url(#softGlow)"><path d="M 40.0,157.8 L 76.5,157.8 L 76.5,1360.2 L 165.4,1360.2 L 165.4,34.9 " fill="none" stroke="url(#strokeB)" stroke-width="2.09" stroke-linecap="round" stroke-linejoin="round"/><circle cx="76.5" cy="157.8" r="2.8" fill="#14C2FF" opacity="0.45"/><circle cx="40.0" cy="157.8" r="3.9" fill="#14C2FF" opacity="0.45"/><circle cx="165.4" cy="1360.2" r="3.9" fill="#14C2FF" opacity="0.45"/></g>
<g opacity="0.194" filter="url(#softGlow)"><path d="M 125.7,515.7 L 458.3,515.7 L 458.3,110.0 L 868.6,110.0 L 868.6,1201.5 " fill="none" stroke="url(#strokeB)" stroke-width="2.06" stroke-linecap="round" stroke-linejoin="round"/><circle cx="125.7" cy="515.7" r="2.9" fill="#14C2FF" opacity="0.45"/><circle cx="458.3" cy="515.7" r="3.4" fill="#14C2FF" opacity="0.45"/><circle cx="868.6" cy="110.0" r="2.7" fill="#14C2FF" opacity="0.45"/></g>
<g opacity="0.194" filter="url(#softGlow)"><path d="M 659.4,1485.7 L 165.3,1485.7 L 165.3,1530.6 L 29.3,1530.6 L 29.3,99.1 " fill="none" stroke="url(#strokeB)" stroke-width="1.51" stroke-linecap="round" stroke-linejoin="round"/><circle cx="659.4" cy="1485.7" r="3.1" fill="#14C2FF" opacity="0.45"/><circle cx="165.3" cy="1530.6" r="2.5" fill="#14C2FF" opacity="0.45"/><circle cx="165.3" cy="1485.7" r="3.1" fill="#14C2FF" opacity="0.45"/></g>
<g opacity="0.194" filter="url(#softGlow)"><path d="M 864.0,1552.9 L 151.9,1552.9 L 151.9,1385.9 L 99.3,1385.9 L 99.3,432.8 " fill="none" stroke="url(#strokeB)" stroke-width="2.15" stroke-linecap="round" stroke-linejoin="round"/><circle cx="151.9" cy="1385.9" r="2.1" fill="#14C2FF" opacity="0.45"/><circle cx="99.3" cy="432.8" r="4.1" fill="#14C2FF" opacity="0.45"/><circle cx="151.9" cy="1552.9" r="2.1" fill="#14C2FF" opacity="0.45"/></g>
<g opacity="0.194" filter="url(#softGlow)"><path d="M 153.4,218.7 L 764.7,218.7 L 764.7,154.6 L 804.7,154.6 L 804.7,441.1 " fill="none" stroke="url(#strokeB)" stroke-width="1.12" stroke-linecap="round" stroke-linejoin="round"/><circle cx="764.7" cy="218.7" r="2.7" fill="#14C2FF" opacity="0.45"/><circle cx="804.7" cy="154.6" r="2.1" fill="#14C2FF" opacity="0.45"/><circle cx="153.4" cy="218.7" r="2.8" fill="#14C2FF" opacity="0.45"/></g>
<g opacity="0.194" filter="url(#softGlow)"><path d="M 20.6,507.8 L 710.0,507.8 L 710.0,1498.4 L 325.7,1498.4 L 325.7,165.1 " fill="none" stroke="url(#strokeB)" stroke-width="1.85" stroke-linecap="round" stroke-linejoin="round"/><circle cx="20.6" cy="507.8" r="3.9" fill="#14C2FF" opacity="0.45"/><circle cx="325.7" cy="165.1" r="3.1" fill="#14C2FF" opacity="0.45"/><circle cx="325.7" cy="1498.4" r="2.5" fill="#14C2FF" opacity="0.45"/></g>
<g opacity="0.194" filter="url(#softGlow)"><path d="M 636.0,80.9 L 881.1,80.9 L 881.1,1580.8 L 34.9,1580.8 L 34.9,1116.1 " fill="none" stroke="url(#strokeB)" stroke-width="2.03" stroke-linecap="round" stroke-linejoin="round"/><circle cx="881.1" cy="1580.8" r="3.3" fill="#14C2FF" opacity="0.45"/><circle cx="636.0" cy="80.9" r="3.7" fill="#14C2FF" opacity="0.45"/><circle cx="881.1" cy="80.9" r="2.6" fill="#14C2FF" opacity="0.45"/></g>
<g opacity="0.194" filter="url(#softGlow)"><path d="M 810.0,35.1 L 721.9,35.1 L 721.9,170.0 L 860.0,170.0 L 860.0,417.3 " fill="none" stroke="url(#strokeB)" stroke-width="1.27" stroke-linecap="round" stroke-linejoin="round"/><circle cx="860.0" cy="170.0" r="2.5" fill="#14C2FF" opacity="0.45"/><circle cx="721.9" cy="35.1" r="3.6" fill="#14C2FF" opacity="0.45"/><circle cx="721.9" cy="170.0" r="2.1" fill="#14C2FF" opacity="0.45"/></g>
<g opacity="0.194" filter="url(#softGlow)"><path d="M 802.7,964.4 L 670.5,964.4 L 670.5,1475.3 L 830.1,1475.3 L 830.1,1532.1 " fill="none" stroke="url(#strokeB)" stroke-width="1.88" stroke-linecap="round" stroke-linejoin="round"/><circle cx="802.7" cy="964.4" r="3.2" fill="#14C2FF" opacity="0.45"/><circle cx="670.5" cy="964.4" r="4.1" fill="#14C2FF" opacity="0.45"/><circle cx="670.5" cy="1475.3" r="2.7" fill="#14C2FF" opacity="0.45"/></g>
<g opacity="0.194" filter="url(#softGlow)"><path d="M 138.0,177.0 L 765.5,177.0 L 765.5,1021.5 L 106.4,1021.5 L 106.4,63.3 " fill="none" stroke="url(#strokeB)" stroke-width="1.13" stroke-linecap="round" stroke-linejoin="round"/><circle cx="765.5" cy="1021.5" r="2.9" fill="#14C2FF" opacity="0.45"/><circle cx="106.4" cy="63.3" r="3.3" fill="#14C2FF" opacity="0.45"/><circle cx="106.4" cy="1021.5" r="2.7" fill="#14C2FF" opacity="0.45"/></g>
<g opacity="0.194" filter="url(#softGlow)"><path d="M 179.7,1517.0 L 150.4,1517.0 L 150.4,16.4 L 819.3,16.4 L 819.3,1154.8 " fill="none" stroke="url(#strokeB)" stroke-width="1.86" stroke-linecap="round" stroke-linejoin="round"/><circle cx="819.3" cy="1154.8" r="3.6" fill="#14C2FF" opacity="0.45"/><circle cx="819.3" cy="16.4" r="2.8" fill="#14C2FF" opacity="0.45"/><circle cx="150.4" cy="1517.0" r="3.4" fill="#14C2FF" opacity="0.45"/></g>
<g opacity="0.194" filter="url(#softGlow)"><path d="M 69.1,152.9 L 107.5,152.9 L 107.5,147.9 L 756.0,147.9 L 756.0,384.9 " fill="none" stroke="url(#strokeB)" stroke-width="2.11" stroke-linecap="round" stroke-linejoin="round"/><circle cx="107.5" cy="147.9" r="2.2" fill="#14C2FF" opacity="0.45"/><circle cx="107.5" cy="152.9" r="3.5" fill="#14C2FF" opacity="0.45"/><circle cx="756.0" cy="147.9" r="2.6" fill="#14C2FF" opacity="0.45"/></g>
<g opacity="0.194" filter="url(#softGlow)"><path d="M 879.3,1434.7 L 897.8,1434.7 L 897.8,99.2 L 41.5,99.2 L 41.5,484.4 " fill="none" stroke="url(#strokeB)" stroke-width="1.27" stroke-linecap="round" stroke-linejoin="round"/><circle cx="897.8" cy="99.2" r="3.5" fill="#14C2FF" opacity="0.45"/><circle cx="41.5" cy="99.2" r="2.5" fill="#14C2FF" opacity="0.45"/><circle cx="879.3" cy="1434.7" r="3.6" fill="#14C2FF" opacity="0.45"/></g>
<g opacity="0.194" filter="url(#softGlow)"><path d="M 42.8,77.6 L 802.7,77.6 L 802.7,36.2 L 768.0,36.2 L 768.0,1427.5 " fill="none" stroke="url(#strokeB)" stroke-width="1.82" stroke-linecap="round" stroke-linejoin="round"/><circle cx="768.0" cy="36.2" r="3.0" fill="#14C2FF" opacity="0.45"/><circle cx="802.7" cy="36.2" r="3.4" fill="#14C2FF" opacity="0.45"/><circle cx="768.0" cy="1427.5" r="3.7" fill="#14C2FF" opacity="0.45"/></g>
<g opacity="0.194" filter="url(#softGlow)"><path d="M 730.6,1548.0 L 63.0,1548.0 L 63.0,59.0 L 250.7,59.0 L 250.7,163.5 " fill="none" stroke="url(#strokeB)" stroke-width="1.16" stroke-linecap="round" stroke-linejoin="round"/><circle cx="250.7" cy="163.5" r="2.9" fill="#14C2FF" opacity="0.45"/><circle cx="63.0" cy="59.0" r="2.3" fill="#14C2FF" opacity="0.45"/><circle cx="250.7" cy="59.0" r="2.9" fill="#14C2FF" opacity="0.45"/></g>
<g opacity="0.194" filter="url(#softGlow)"><path d="M 7.8,1574.4 L 748.8,1574.4 L 748.8,1585.1 L 70.2,1585.1 L 70.2,1456.5 " fill="none" stroke="url(#strokeB)" stroke-width="1.49" stroke-linecap="round" stroke-linejoin="round"/><circle cx="70.2" cy="1585.1" r="4.0" fill="#14C2FF" opacity="0.45"/><circle cx="70.2" cy="1456.5" r="3.9" fill="#14C2FF" opacity="0.45"/><circle cx="748.8" cy="1574.4" r="2.7" fill="#14C2FF" opacity="0.45"/></g>
<g opacity="0.194" filter="url(#softGlow)"><path d="M 570.1,1423.8 L 798.2,1423.8 L 798.2,986.1 L 150.7,986.1 L 150.7,1570.0 " fill="none" stroke="url(#strokeB)" stroke-width="1.66" stroke-linecap="round" stroke-linejoin="round"/><circle cx="570.1" cy="1423.8" r="2.5" fill="#14C2FF" opacity="0.45"/><circle cx="150.7" cy="986.1" r="3.9" fill="#14C2FF" opacity="0.45"/><circle cx="150.7" cy="1570.0" r="2.7" fill="#14C2FF" opacity="0.45"/></g>
<g opacity="0.194" filter="url(#softGlow)"><path d="M 40.9,1420.0 L 184.2,1420.0 L 184.2,64.6 L 623.3,64.6 L 623.3,41.9 " fill="none" stroke="url(#strokeB)" stroke-width="1.12" stroke-linecap="round" stroke-linejoin="round"/><circle cx="184.2" cy="1420.0" r="3.7" fill="#14C2FF" opacity="0.45"/><circle cx="623.3" cy="64.6" r="2.0" fill="#14C2FF" opacity="0.45"/><circle cx="623.3" cy="41.9" r="3.7" fill="#14C2FF" opacity="0.45"/></g>

<g opacity="0.846" filter="url(#hardGlow)">
  <circle cx="822.0" cy="1505.1" r="39.2" fill="#0A1224" opacity="0.65"/>
  <circle cx="822.0" cy="1505.1" r="39.2" fill="none" stroke="url(#strokeA)" stroke-width="3.1" opacity="0.85"/>
  <circle cx="822.0" cy="1505.1" r="33.7" fill="none" stroke="#00FFA3" stroke-width="1.5" opacity="0.35"/>
  <polygon points="829.2,1532.4 801.9,1525.0 794.7,1497.6 814.8,1477.8 842.0,1485.2 849.2,1512.5" fill="none" stroke="url(#strokeB)" stroke-width="1.2" opacity="0.65"/>
  <polygon points="821.1,1514.9 813.9,1499.4 831.0,1500.9" fill="#00FFA3" opacity="0.22" filter="url(#softGlow)"/>
</g>


<g opacity="0.364" filter="url(#hardGlow)">
  <circle cx="781.0" cy="1474.3" r="16.2" fill="#0A1224" opacity="0.65"/>
  <circle cx="781.0" cy="1474.3" r="16.2" fill="none" stroke="url(#strokeA)" stroke-width="2.0" opacity="0.85"/>
  <circle cx="781.0" cy="1474.3" r="13.9" fill="none" stroke="#14C2FF" stroke-width="1.5" opacity="0.35"/>
  <polygon points="771.3,1480.8 770.5,1469.2 780.1,1462.6 790.6,1467.7 791.5,1479.4 781.8,1485.9" fill="none" stroke="url(#strokeB)" stroke-width="1.2" opacity="0.65"/>
  <polygon points="777.0,1475.3 782.1,1470.3 783.8,1477.2" fill="#14C2FF" opacity="0.22" filter="url(#softGlow)"/>
</g>


<g opacity="0.783" filter="url(#hardGlow)">
  <circle cx="52.8" cy="41.5" r="49.8" fill="#0A1224" opacity="0.65"/>
  <circle cx="52.8" cy="41.5" r="49.8" fill="none" stroke="url(#strokeA)" stroke-width="4.0" opacity="0.85"/>
  <circle cx="52.8" cy="41.5" r="42.8" fill="none" stroke="#00FFA3" stroke-width="1.5" opacity="0.35"/>
  <polygon points="25.1,18.6 58.7,6.1 86.3,29.0 80.4,64.3 46.8,76.8 19.2,54.0" fill="none" stroke="url(#strokeB)" stroke-width="1.2" opacity="0.65"/>
  <polygon points="46.4,30.7 65.3,41.4 46.6,52.4" fill="#00FFA3" opacity="0.22" filter="url(#softGlow)"/>
</g>


<g opacity="0.387" filter="url(#hardGlow)">
  <circle cx="50.7" cy="14.8" r="19.8" fill="#0A1224" opacity="0.65"/>
  <circle cx="50.7" cy="14.8" r="19.8" fill="none" stroke="url(#strokeA)" stroke-width="2.0" opacity="0.85"/>
  <circle cx="50.7" cy="14.8" r="17.0" fill="none" stroke="#14C2FF" stroke-width="1.5" opacity="0.35"/>
  <polygon points="43.1,2.7 57.4,2.2 65.0,14.3 58.3,26.9 44.0,27.4 36.5,15.3" fill="none" stroke="url(#strokeB)" stroke-width="1.2" opacity="0.65"/>
  
</g>


<g opacity="0.592" filter="url(#hardGlow)">
  <circle cx="11.7" cy="86.4" r="18.1" fill="#0A1224" opacity="0.65"/>
  <circle cx="11.7" cy="86.4" r="18.1" fill="none" stroke="url(#strokeA)" stroke-width="2.0" opacity="0.85"/>
  <circle cx="11.7" cy="86.4" r="15.5" fill="none" stroke="#14C2FF" stroke-width="1.5" opacity="0.35"/>
  <polygon points="11.7,99.4 0.4,92.9 0.4,79.9 11.6,73.4 22.9,79.8 23.0,92.8" fill="none" stroke="url(#strokeB)" stroke-width="1.2" opacity="0.65"/>
  <polygon points="10.1,90.6 8.7,82.9 16.2,85.6" fill="#14C2FF" opacity="0.22" filter="url(#softGlow)"/>
</g>


<g opacity="0.655" filter="url(#hardGlow)">
  <circle cx="40.4" cy="1539.0" r="38.0" fill="#0A1224" opacity="0.65"/>
  <circle cx="40.4" cy="1539.0" r="38.0" fill="none" stroke="url(#strokeA)" stroke-width="3.0" opacity="0.85"/>
  <circle cx="40.4" cy="1539.0" r="32.7" fill="none" stroke="#00FFA3" stroke-width="1.5" opacity="0.35"/>
  <polygon points="60.9,1557.1 35.0,1565.8 14.5,1547.7 19.9,1520.9 45.9,1512.2 66.4,1530.3" fill="none" stroke="url(#strokeB)" stroke-width="1.2" opacity="0.65"/>
  <polygon points="45.0,1547.4 30.9,1538.8 45.4,1530.9" fill="#00FFA3" opacity="0.22" filter="url(#softGlow)"/>
</g>


<g opacity="0.551" filter="url(#hardGlow)">
  <circle cx="32.6" cy="1563.3" r="20.5" fill="#0A1224" opacity="0.65"/>
  <circle cx="32.6" cy="1563.3" r="20.5" fill="none" stroke="url(#strokeA)" stroke-width="2.0" opacity="0.85"/>
  <circle cx="32.6" cy="1563.3" r="17.6" fill="none" stroke="#14C2FF" stroke-width="1.5" opacity="0.35"/>
  <polygon points="18.5,1558.9 29.4,1549.0 43.4,1553.4 46.7,1567.7 35.8,1577.7 21.7,1573.3" fill="none" stroke="url(#strokeB)" stroke-width="1.2" opacity="0.65"/>
  
</g>


<g opacity="0.376" filter="url(#hardGlow)">
  <circle cx="87.8" cy="1510.4" r="15.8" fill="#0A1224" opacity="0.65"/>
  <circle cx="87.8" cy="1510.4" r="15.8" fill="none" stroke="url(#strokeA)" stroke-width="2.0" opacity="0.85"/>
  <circle cx="87.8" cy="1510.4" r="13.6" fill="none" stroke="#14C2FF" stroke-width="1.5" opacity="0.35"/>
  <polygon points="86.0,1521.6 77.2,1514.4 79.0,1503.2 89.6,1499.2 98.4,1506.4 96.6,1517.6" fill="none" stroke="url(#strokeB)" stroke-width="1.2" opacity="0.65"/>
  <polygon points="85.9,1513.9 85.8,1507.0 91.8,1510.4" fill="#14C2FF" opacity="0.22" filter="url(#softGlow)"/>
</g>


<g opacity="0.685" filter="url(#hardGlow)">
  <circle cx="776.0" cy="85.9" r="47.4" fill="#0A1224" opacity="0.65"/>
  <circle cx="776.0" cy="85.9" r="47.4" fill="none" stroke="url(#strokeA)" stroke-width="3.8" opacity="0.85"/>
  <circle cx="776.0" cy="85.9" r="40.7" fill="none" stroke="#00FFA3" stroke-width="1.5" opacity="0.35"/>
  <polygon points="750.1,63.7 782.2,52.3 808.1,74.5 801.9,108.1 769.7,119.4 743.8,97.2" fill="none" stroke="url(#strokeB)" stroke-width="1.2" opacity="0.65"/>
  <polygon points="770.1,75.4 787.9,86.0 769.9,96.1" fill="#00FFA3" opacity="0.22" filter="url(#softGlow)"/>
</g>


<g opacity="0.375" filter="url(#hardGlow)">
  <circle cx="843.8" cy="66.0" r="18.2" fill="#0A1224" opacity="0.65"/>
  <circle cx="843.8" cy="66.0" r="18.2" fill="none" stroke="url(#strokeA)" stroke-width="2.0" opacity="0.85"/>
  <circle cx="843.8" cy="66.0" r="15.7" fill="none" stroke="#14C2FF" stroke-width="1.5" opacity="0.35"/>
  <polygon points="839.6,78.4 830.9,68.6 835.0,56.2 847.9,53.5 856.6,63.3 852.5,75.8" fill="none" stroke="url(#strokeB)" stroke-width="1.2" opacity="0.65"/>
  
</g>


<g opacity="0.363" filter="url(#hardGlow)">
  <circle cx="832.5" cy="69.1" r="25.0" fill="#0A1224" opacity="0.65"/>
  <circle cx="832.5" cy="69.1" r="25.0" fill="none" stroke="url(#strokeA)" stroke-width="2.0" opacity="0.85"/>
  <circle cx="832.5" cy="69.1" r="21.5" fill="none" stroke="#14C2FF" stroke-width="1.5" opacity="0.35"/>
  <polygon points="814.7,66.4 826.0,52.3 843.8,55.1 850.3,71.9 839.0,85.9 821.2,83.2" fill="none" stroke="url(#strokeB)" stroke-width="1.2" opacity="0.65"/>
  <polygon points="827.0,66.1 837.9,65.9 832.6,75.4" fill="#14C2FF" opacity="0.22" filter="url(#softGlow)"/>
</g>


<g opacity="0.486" filter="url(#hardGlow)">
  <circle cx="838.8" cy="54.9" r="17.5" fill="#0A1224" opacity="0.65"/>
  <circle cx="838.8" cy="54.9" r="17.5" fill="none" stroke="url(#strokeA)" stroke-width="2.0" opacity="0.85"/>
  <circle cx="838.8" cy="54.9" r="15.0" fill="none" stroke="#14C2FF" stroke-width="1.5" opacity="0.35"/>
  <polygon points="842.3,42.8 851.0,51.8 847.5,63.9 835.3,67.0 826.6,57.9 830.1,45.8" fill="none" stroke="url(#strokeB)" stroke-width="1.2" opacity="0.65"/>
  <polygon points="841.4,51.3 840.6,58.9 834.4,54.4" fill="#14C2FF" opacity="0.22" filter="url(#softGlow)"/>
</g>


<g opacity="0.887" filter="url(#hardGlow)">
  <circle cx="73.8" cy="1459.8" r="57.8" fill="#0A1224" opacity="0.65"/>
  <circle cx="73.8" cy="1459.8" r="57.8" fill="none" stroke="url(#strokeA)" stroke-width="4.6" opacity="0.85"/>
  <circle cx="73.8" cy="1459.8" r="49.7" fill="none" stroke="#00FFA3" stroke-width="1.7" opacity="0.35"/>
  <polygon points="115.0,1453.9 99.4,1492.5 58.2,1498.4 32.6,1465.6 48.1,1427.0 89.3,1421.2" fill="none" stroke="url(#strokeB)" stroke-width="1.4" opacity="0.65"/>
  <polygon points="88.0,1462.8 64.0,1470.6 69.3,1445.9" fill="#00FFA3" opacity="0.22" filter="url(#softGlow)"/>
</g>


<g opacity="0.449" filter="url(#hardGlow)">
  <circle cx="14.5" cy="1419.4" r="30.3" fill="#0A1224" opacity="0.65"/>
  <circle cx="14.5" cy="1419.4" r="30.3" fill="none" stroke="url(#strokeA)" stroke-width="2.4" opacity="0.85"/>
  <circle cx="14.5" cy="1419.4" r="26.0" fill="none" stroke="#14C2FF" stroke-width="1.5" opacity="0.35"/>
  <polygon points="33.7,1429.6 15.2,1441.2 -4.0,1430.9 -4.7,1409.1 13.8,1397.6 33.0,1407.8" fill="none" stroke="url(#strokeB)" stroke-width="1.2" opacity="0.65"/>
  <polygon points="19.6,1425.0 7.0,1420.9 16.9,1412.1" fill="#14C2FF" opacity="0.22" filter="url(#softGlow)"/>
</g>


<g opacity="0.386" filter="url(#hardGlow)">
  <circle cx="75.2" cy="1454.4" r="25.8" fill="#0A1224" opacity="0.65"/>
  <circle cx="75.2" cy="1454.4" r="25.8" fill="none" stroke="url(#strokeA)" stroke-width="2.1" opacity="0.85"/>
  <circle cx="75.2" cy="1454.4" r="22.2" fill="none" stroke="#14C2FF" stroke-width="1.5" opacity="0.35"/>
  <polygon points="91.5,1445.7 90.9,1464.2 74.5,1473.0 58.8,1463.1 59.4,1444.6 75.8,1435.9" fill="none" stroke="url(#strokeB)" stroke-width="1.2" opacity="0.65"/>
  
</g>


<g opacity="0.448" filter="url(#hardGlow)">
  <circle cx="140.3" cy="1488.3" r="28.0" fill="#0A1224" opacity="0.65"/>
  <circle cx="140.3" cy="1488.3" r="28.0" fill="none" stroke="url(#strokeA)" stroke-width="2.2" opacity="0.85"/>
  <circle cx="140.3" cy="1488.3" r="24.1" fill="none" stroke="#14C2FF" stroke-width="1.5" opacity="0.35"/>
  <polygon points="134.4,1469.0 154.0,1473.5 159.9,1492.8 146.1,1507.5 126.5,1503.0 120.6,1483.7" fill="none" stroke="url(#strokeB)" stroke-width="1.2" opacity="0.65"/>
  
</g>


<g opacity="0.866" filter="url(#hardGlow)">
  <circle cx="36.4" cy="133.8" r="47.5" fill="#0A1224" opacity="0.65"/>
  <circle cx="36.4" cy="133.8" r="47.5" fill="none" stroke="url(#strokeA)" stroke-width="3.8" opacity="0.85"/>
  <circle cx="36.4" cy="133.8" r="40.8" fill="none" stroke="#00FFA3" stroke-width="1.5" opacity="0.35"/>
  <polygon points="9.7,112.5 41.6,100.1 68.2,121.5 63.0,155.2 31.2,167.6 4.5,146.2" fill="none" stroke="url(#strokeB)" stroke-width="1.2" opacity="0.65"/>
  <polygon points="30.2,123.6 48.3,133.6 30.6,144.3" fill="#00FFA3" opacity="0.22" filter="url(#softGlow)"/>
</g>


<g opacity="0.463" filter="url(#hardGlow)">
  <circle cx="-19.5" cy="84.8" r="19.5" fill="#0A1224" opacity="0.65"/>
  <circle cx="-19.5" cy="84.8" r="19.5" fill="none" stroke="url(#strokeA)" stroke-width="2.0" opacity="0.85"/>
  <circle cx="-19.5" cy="84.8" r="16.7" fill="none" stroke="#14C2FF" stroke-width="1.5" opacity="0.35"/>
  <polygon points="-19.1,70.8 -7.2,78.1 -7.6,92.2 -19.9,98.8 -31.8,91.5 -31.4,77.4" fill="none" stroke="url(#strokeB)" stroke-width="1.2" opacity="0.65"/>
  <polygon points="-17.7,80.2 -16.5,88.7 -24.4,85.5" fill="#14C2FF" opacity="0.22" filter="url(#softGlow)"/>
</g>


<g opacity="0.445" filter="url(#hardGlow)">
  <circle cx="-22.4" cy="119.5" r="25.7" fill="#0A1224" opacity="0.65"/>
  <circle cx="-22.4" cy="119.5" r="25.7" fill="none" stroke="url(#strokeA)" stroke-width="2.1" opacity="0.85"/>
  <circle cx="-22.4" cy="119.5" r="22.1" fill="none" stroke="#14C2FF" stroke-width="1.5" opacity="0.35"/>
  <polygon points="-4.9,113.2 -8.2,131.4 -25.6,137.7 -39.8,125.8 -36.5,107.5 -19.1,101.2" fill="none" stroke="url(#strokeB)" stroke-width="1.2" opacity="0.65"/>
  
</g>


<g opacity="0.292" transform="translate(899.2,149.3) rotate(7.6)" filter="url(#softGlow)">
  <rect x="-90.9" y="-71.1" width="181.9" height="142.2" rx="14.2" fill="#050A12" opacity="0.25"/>
  <rect x="-90.9" y="-71.1" width="181.9" height="142.2" rx="14.2" fill="none" stroke="url(#strokeA)" stroke-width="7.1" opacity="0.85"/>
  <rect x="-79.6" y="-59.7" width="159.1" height="119.5" rx="10.0" fill="none" stroke="#00FFA3" stroke-width="2.8" opacity="0.35"/>
</g>


<g opacity="0.268" transform="translate(770.3,1035.9) rotate(9.0)" filter="url(#softGlow)">
  <rect x="-87.0" y="-65.6" width="174.1" height="131.2" rx="13.1" fill="#050A12" opacity="0.25"/>
  <rect x="-87.0" y="-65.6" width="174.1" height="131.2" rx="13.1" fill="none" stroke="url(#strokeA)" stroke-width="6.6" opacity="0.85"/>
  <rect x="-76.5" y="-55.1" width="153.1" height="110.2" rx="9.2" fill="none" stroke="#14C2FF" stroke-width="2.6" opacity="0.35"/>
</g>


<g opacity="0.436" transform="translate(773.6,1543.1) rotate(5.8)" filter="url(#softGlow)">
  <rect x="-93.4" y="-79.3" width="186.9" height="158.6" rx="15.9" fill="#050A12" opacity="0.25"/>
  <rect x="-93.4" y="-79.3" width="186.9" height="158.6" rx="15.9" fill="none" stroke="url(#strokeA)" stroke-width="7.9" opacity="0.85"/>
  <rect x="-80.7" y="-66.6" width="161.5" height="133.2" rx="11.1" fill="none" stroke="#00FFA3" stroke-width="3.2" opacity="0.35"/>
</g>


<g opacity="0.341" transform="translate(159.1,6.5) rotate(16.9)" filter="url(#softGlow)">
  <rect x="-45.2" y="-26.0" width="90.3" height="52.0" rx="15.9" fill="none" stroke="#14C2FF" stroke-width="8.7" opacity="0.55"/>
  <rect x="-19.9" y="-13.0" width="90.3" height="52.0" rx="15.9" fill="none" stroke="url(#strokeA)" stroke-width="7.2" opacity="0.55"/>
</g>


<g opacity="0.438" transform="translate(881.8,1160.4) rotate(-10.1)" filter="url(#softGlow)">
  <rect x="-48.9" y="-28.2" width="97.8" height="56.3" rx="17.2" fill="none" stroke="#FF4D8D" stroke-width="9.4" opacity="0.55"/>
  <rect x="-21.5" y="-14.1" width="97.8" height="56.3" rx="17.2" fill="none" stroke="url(#strokeA)" stroke-width="7.8" opacity="0.55"/>
</g>


<g opacity="0.427" transform="translate(60.3,86.7) rotate(-16.0)" filter="url(#softGlow)">
  <rect x="-29.0" y="-16.7" width="57.9" height="33.4" rx="10.2" fill="none" stroke="#14C2FF" stroke-width="5.6" opacity="0.55"/>
  <rect x="-12.7" y="-8.3" width="57.9" height="33.4" rx="10.2" fill="none" stroke="url(#strokeA)" stroke-width="4.6" opacity="0.55"/>
</g>


<g opacity="0.428" transform="translate(197.4,36.1) rotate(-13.9)" filter="url(#softGlow)">
  <rect x="-29.7" y="-17.1" width="59.5" height="34.3" rx="10.5" fill="none" stroke="#FF4D8D" stroke-width="5.7" opacity="0.55"/>
  <rect x="-13.1" y="-8.6" width="59.5" height="34.3" rx="10.5" fill="none" stroke="url(#strokeA)" stroke-width="4.8" opacity="0.55"/>
</g>


<g opacity="0.470" transform="translate(54.7,1444.2) rotate(-16.8)" filter="url(#softGlow)">
  <rect x="-39.2" y="-22.6" width="78.4" height="45.2" rx="13.8" fill="none" stroke="#14C2FF" stroke-width="7.5" opacity="0.55"/>
  <rect x="-17.3" y="-11.3" width="78.4" height="45.2" rx="13.8" fill="none" stroke="url(#strokeA)" stroke-width="6.3" opacity="0.55"/>
</g>


<g opacity="0.223" transform="translate(144.9,1571.9) rotate(-7.5)" filter="url(#softGlow)">
  <rect x="-46.5" y="-26.8" width="92.9" height="53.5" rx="16.4" fill="none" stroke="#14C2FF" stroke-width="8.9" opacity="0.55"/>
  <rect x="-20.4" y="-13.4" width="92.9" height="53.5" rx="16.4" fill="none" stroke="url(#strokeA)" stroke-width="7.4" opacity="0.55"/>
</g>


<g opacity="0.362" transform="translate(101.9,1533.5) rotate(10.9)" filter="url(#softGlow)">
  <rect x="-39.5" y="-22.8" width="79.0" height="45.5" rx="13.9" fill="none" stroke="#FF4D8D" stroke-width="7.6" opacity="0.55"/>
  <rect x="-17.4" y="-11.4" width="79.0" height="45.5" rx="13.9" fill="none" stroke="url(#strokeA)" stroke-width="6.3" opacity="0.55"/>
</g>


<g opacity="0.270" transform="translate(682.5,1569.7) rotate(-7.1)" filter="url(#softGlow)">
  <rect x="-50.2" y="-28.9" width="100.4" height="57.8" rx="17.7" fill="none" stroke="#FF4D8D" stroke-width="9.6" opacity="0.55"/>
  <rect x="-22.1" y="-14.5" width="100.4" height="57.8" rx="17.7" fill="none" stroke="url(#strokeA)" stroke-width="8.0" opacity="0.55"/>
</g>


<g opacity="0.260" transform="translate(150.7,166.6) rotate(-10.1)" filter="url(#softGlow)">
  <rect x="-34.8" y="-20.0" width="69.6" height="40.1" rx="12.2" fill="none" stroke="#FF4D8D" stroke-width="6.7" opacity="0.55"/>
  <rect x="-15.3" y="-10.0" width="69.6" height="40.1" rx="12.2" fill="none" stroke="url(#strokeA)" stroke-width="5.6" opacity="0.55"/>
</g>


<g opacity="0.211">
  <line x1="449.8" y1="1394.9" x2="449.8" y2="1476.4" stroke="#14C2FF" stroke-width="1.35" opacity="0.45"/>
  <rect x="445.2" y="1437.6" width="9.1" height="44.9" rx="3.0" fill="#0B1020" opacity="0.55" stroke="url(#strokeA)" stroke-width="1.2"/>
</g>

<g opacity="0.211">
  <line x1="150.3" y1="1370.0" x2="150.3" y2="1482.6" stroke="#14C2FF" stroke-width="1.56" opacity="0.45"/>
  <rect x="146.3" y="1431.0" width="7.9" height="58.2" rx="2.6" fill="#0B1020" opacity="0.55" stroke="url(#strokeA)" stroke-width="1.2"/>
</g>

<g opacity="0.211">
  <line x1="747.2" y1="1406.3" x2="747.2" y2="1473.5" stroke="#14C2FF" stroke-width="1.25" opacity="0.45"/>
  <rect x="741.7" y="1439.6" width="11.0" height="41.0" rx="3.7" fill="#0B1020" opacity="0.55" stroke="url(#strokeA)" stroke-width="1.2"/>
</g>

<g opacity="0.211">
  <line x1="570.1" y1="1402.3" x2="570.1" y2="1474.5" stroke="#14C2FF" stroke-width="1.27" opacity="0.45"/>
  <rect x="566.1" y="1437.3" width="8.0" height="45.6" rx="2.7" fill="#0B1020" opacity="0.55" stroke="url(#strokeA)" stroke-width="1.2"/>
</g>

<g opacity="0.211">
  <line x1="183.1" y1="1390.1" x2="183.1" y2="1477.6" stroke="#14C2FF" stroke-width="2.06" opacity="0.45"/>
  <rect x="179.4" y="1431.5" width="7.4" height="57.2" rx="2.5" fill="#0B1020" opacity="0.55" stroke="url(#strokeA)" stroke-width="1.2"/>
</g>

<g opacity="0.211">
  <line x1="677.2" y1="1393.3" x2="677.2" y2="1476.8" stroke="#14C2FF" stroke-width="1.29" opacity="0.45"/>
  <rect x="672.1" y="1437.4" width="10.3" height="45.4" rx="3.4" fill="#0B1020" opacity="0.55" stroke="url(#strokeA)" stroke-width="1.2"/>
</g>

<g opacity="0.211">
  <line x1="19.3" y1="1378.4" x2="19.3" y2="1480.5" stroke="#14C2FF" stroke-width="1.03" opacity="0.45"/>
  <rect x="14.0" y="1437.8" width="10.7" height="44.5" rx="3.6" fill="#0B1020" opacity="0.55" stroke="url(#strokeA)" stroke-width="1.2"/>
</g>

<g opacity="0.211">
  <line x1="19.3" y1="1399.9" x2="19.3" y2="1475.1" stroke="#14C2FF" stroke-width="1.17" opacity="0.45"/>
  <rect x="13.7" y="1437.1" width="11.2" height="46.0" rx="3.7" fill="#0B1020" opacity="0.55" stroke="url(#strokeA)" stroke-width="1.2"/>
</g>

<g opacity="0.211">
  <line x1="768.4" y1="1414.2" x2="768.4" y2="1471.5" stroke="#14C2FF" stroke-width="1.03" opacity="0.45"/>
  <rect x="765.2" y="1446.2" width="6.4" height="27.7" rx="2.1" fill="#0B1020" opacity="0.55" stroke="url(#strokeA)" stroke-width="1.2"/>
</g>

<g opacity="0.211">
  <line x1="15.8" y1="1376.9" x2="15.8" y2="1480.9" stroke="#14C2FF" stroke-width="1.14" opacity="0.45"/>
  <rect x="10.1" y="1432.6" width="11.4" height="55.0" rx="3.8" fill="#0B1020" opacity="0.55" stroke="url(#strokeA)" stroke-width="1.2"/>
</g>

<g opacity="0.211">
  <line x1="868.3" y1="1404.7" x2="868.3" y2="1473.9" stroke="#14C2FF" stroke-width="2.02" opacity="0.45"/>
  <rect x="863.3" y="1444.8" width="10.0" height="30.5" rx="3.3" fill="#0B1020" opacity="0.55" stroke="url(#strokeA)" stroke-width="1.2"/>
</g>

<g opacity="0.211">
  <line x1="726.0" y1="1378.1" x2="726.0" y2="1480.6" stroke="#14C2FF" stroke-width="1.67" opacity="0.45"/>
  <rect x="722.5" y="1439.0" width="7.0" height="42.2" rx="2.3" fill="#0B1020" opacity="0.55" stroke="url(#strokeA)" stroke-width="1.2"/>
</g>

<g opacity="0.211">
  <line x1="841.1" y1="1427.6" x2="841.1" y2="1468.2" stroke="#14C2FF" stroke-width="1.56" opacity="0.45"/>
  <rect x="838.0" y="1450.9" width="6.3" height="18.4" rx="2.1" fill="#0B1020" opacity="0.55" stroke="url(#strokeA)" stroke-width="1.2"/>
</g>

<g opacity="0.211">
  <line x1="208.5" y1="1408.1" x2="208.5" y2="1473.1" stroke="#14C2FF" stroke-width="1.74" opacity="0.45"/>
  <rect x="204.1" y="1439.1" width="8.7" height="41.9" rx="2.9" fill="#0B1020" opacity="0.55" stroke="url(#strokeA)" stroke-width="1.2"/>
</g>

<g opacity="0.211">
  <line x1="898.9" y1="1421.1" x2="898.9" y2="1469.8" stroke="#14C2FF" stroke-width="1.23" opacity="0.45"/>
  <rect x="895.1" y="1447.4" width="7.7" height="25.3" rx="2.6" fill="#0B1020" opacity="0.55" stroke="url(#strokeA)" stroke-width="1.2"/>
</g>
<circle cx="731.4" cy="67.0" r="3.1" fill="#00FFA3" opacity="0.26" filter="url(#softGlow)"/>
<circle cx="805.4" cy="46.4" r="2.6" fill="#00FFA3" opacity="0.26" filter="url(#softGlow)"/>
<circle cx="150.2" cy="1597.5" r="2.7" fill="#00FFA3" opacity="0.18" filter="url(#softGlow)"/>
<circle cx="122.6" cy="1157.6" r="2.4" fill="#00FFA3" opacity="0.27" filter="url(#softGlow)"/>
<circle cx="260.0" cy="1443.3" r="3.2" fill="#00FFA3" opacity="0.16" filter="url(#softGlow)"/>
<circle cx="176.3" cy="105.0" r="1.8" fill="#00FFA3" opacity="0.16" filter="url(#softGlow)"/>
<circle cx="607.5" cy="98.5" r="2.5" fill="#00FFA3" opacity="0.15" filter="url(#softGlow)"/>
<circle cx="851.5" cy="118.2" r="3.1" fill="#00FFA3" opacity="0.20" filter="url(#softGlow)"/>
<circle cx="150.8" cy="43.7" r="1.3" fill="#00FFA3" opacity="0.15" filter="url(#softGlow)"/>
<circle cx="782.8" cy="1441.1" r="2.5" fill="#00FFA3" opacity="0.20" filter="url(#softGlow)"/>
<circle cx="251.5" cy="38.7" r="2.7" fill="#00FFA3" opacity="0.19" filter="url(#softGlow)"/>
<circle cx="26.9" cy="1594.1" r="3.2" fill="#00FFA3" opacity="0.15" filter="url(#softGlow)"/>
<circle cx="24.2" cy="111.0" r="2.8" fill="#00FFA3" opacity="0.12" filter="url(#softGlow)"/>
<circle cx="740.5" cy="1560.2" r="2.5" fill="#00FFA3" opacity="0.14" filter="url(#softGlow)"/>
<circle cx="854.1" cy="1049.4" r="2.6" fill="#00FFA3" opacity="0.16" filter="url(#softGlow)"/>
<circle cx="8.5" cy="41.2" r="1.9" fill="#00FFA3" opacity="0.14" filter="url(#softGlow)"/>
<circle cx="780.8" cy="65.7" r="2.7" fill="#00FFA3" opacity="0.27" filter="url(#softGlow)"/>
<circle cx="94.8" cy="1450.0" r="2.3" fill="#00FFA3" opacity="0.13" filter="url(#softGlow)"/>
<circle cx="785.9" cy="1498.2" r="2.1" fill="#00FFA3" opacity="0.13" filter="url(#softGlow)"/>
<circle cx="159.5" cy="896.5" r="2.8" fill="#00FFA3" opacity="0.22" filter="url(#softGlow)"/>
<circle cx="751.7" cy="931.5" r="3.0" fill="#00FFA3" opacity="0.12" filter="url(#softGlow)"/>
<circle cx="780.5" cy="1429.6" r="2.3" fill="#00FFA3" opacity="0.22" filter="url(#softGlow)"/>
<circle cx="149.0" cy="1547.2" r="2.3" fill="#00FFA3" opacity="0.28" filter="url(#softGlow)"/>
<circle cx="743.8" cy="1450.0" r="2.3" fill="#00FFA3" opacity="0.28" filter="url(#softGlow)"/>
<circle cx="153.7" cy="1475.3" r="2.5" fill="#00FFA3" opacity="0.23" filter="url(#softGlow)"/>
<circle cx="14.3" cy="63.7" r="3.1" fill="#00FFA3" opacity="0.17" filter="url(#softGlow)"/>
<circle cx="508.9" cy="1484.7" r="2.4" fill="#00FFA3" opacity="0.25" filter="url(#softGlow)"/>
<circle cx="899.5" cy="1455.1" r="2.0" fill="#00FFA3" opacity="0.24" filter="url(#softGlow)"/>
<circle cx="479.5" cy="15.4" r="2.4" fill="#00FFA3" opacity="0.20" filter="url(#softGlow)"/>
<circle cx="721.1" cy="1599.1" r="2.2" fill="#00FFA3" opacity="0.11" filter="url(#softGlow)"/>
</svg>