<svg xmlns="http://www.w3.org/2000/svg" width="900" height="1600" viewBox="0 0 900 1600" preserveAspectRatio="xMidYMid slice">
<defs>
  <linearGradient id="g0" x1="0" y1="0" x2="1" y2="1">
    <stop offset="0" stop-color="#0B1020"/>
    <stop offset="0.55" stop-color="#00E5FF" stop-opacity="0.9"/>
    <stop offset="1" stop-color="#051018"/>
  </linearGradient>
  <radialGradient id="g1" cx="20%" cy="15%" r="70%">
    <stop offset="0" stop-color="#7C4DFF" stop-opacity="0.38"/>
    <stop offset="0.6" stop-color="#7C4DFF" stop-opacity="0.08"/>
    <stop offset="1" stop-color="#7C4DFF" stop-opacity="0"/>
  </radialGradient>
  <radialGradient id="g2" cx="85%" cy="80%" r="75%">
    <stop offset="0" stop-color="#7C4DFF" stop-opacity="0.28"/>
    <stop offset="0.65" stop-color="#7C4DFF" stop-opacity="0.06"/>
    <stop offset="1" stop-color="#7C4DFF" stop-opacity="0"/>
  </radialGradient>
  <filter id="softGlow" x="-30%" y="-30%" width="160%" height="160%">
    <feGaussianBlur stdDeviation="12" result="b"/>
    <feMerge>
      <feMergeNode in="b"/>
      <feMergeNode in="SourceGraphic"/>
    </feMerge>
  </filter>
  <filter id="hardGlow" x="-40%" y="-40%" width="180%" height="180%">
    <feGaussianBlur stdDeviation="6" result="b"/>
    <feColorMatrix in="b" type="matrix" values="1 0 0 0 0  0 1 0 0 0  0 0 1 0 0  0 0 0 18 -7" result="c"/>
    <feMerge>
      <feMergeNode in="c"/>
      <feMergeNode in="SourceGraphic"/>
    </feMerge>
  </filter>
  <linearGradient id="strokeA" x1="0" y1="0" x2="1" y2="0">
    <stop offset="0" stop-color="#7C4DFF" stop-opacity="0.9"/>
    <stop offset="0.5" stop-color="#FFFFFF" stop-opacity="0.25"/>
    <stop offset="1" stop-color="#7C4DFF" stop-opacity="0.7"/>
  </linearGradient>
  <linearGradient id="strokeB" x1="0" y1="0" x2="0" y2="1">
    <stop offset="0" stop-color="#FFFFFF" stop-opacity="0.18"/>
    <stop offset="1" stop-color="#7C4DFF" stop-opacity="0.55"/>
  </linearGradient>
</defs>
<rect x="0" y="0" width="900" height="1600" fill="url(#g0)"/>
<rect x="0" y="0" width="900" height="1600" fill="url(#g1)"/>
<rect x="0" y="0" width="900" height="1600" fill="url(#g2)"/>


<defs>
  <radialGradient id="vign" cx="0.5000" cy="0.5000" r="0.85">
    <stop offset="0" stop-color="#000000" stop-opacity="0"/>
    <stop offset="0.55" stop-color="#000000" stop-opacity="0.217"/>
    <stop offset="1" stop-color="#000000" stop-opacity="0.620"/>
  </radialGradient>
</defs>
<rect x="0" y="0" width="900" height="1600" fill="url(#vign)"/>

<g opacity="0.218" filter="url(#softGlow)"><path d="M 375.6,117.2 L 746.3,117.2 L 746.3,1120.4 L 815.0,1120.4 L 815.0,19.6 " fill="none" stroke="url(#strokeB)" stroke-width="2.06" stroke-linecap="round" stroke-linejoin="round"/><circle cx="815.0" cy="19.6" r="4.1" fill="#FFB300" opacity="0.45"/><circle cx="375.6" cy="117.2" r="2.4" fill="#FFB300" opacity="0.45"/><circle cx="746.3" cy="117.2" r="3.5" fill="#FFB300" opacity="0.45"/></g>
<g opacity="0.218" filter="url(#softGlow)"><path d="M 804.6,1466.7 L 745.4,1466.7 L 745.4,1231.9 L 883.4,1231.9 L 883.4,1039.3 " fill="none" stroke="url(#strokeB)" stroke-width="1.43" stroke-linecap="round" stroke-linejoin="round"/><circle cx="883.4" cy="1039.3" r="2.8" fill="#FFB300" opacity="0.45"/><circle cx="883.4" cy="1231.9" r="2.6" fill="#FFB300" opacity="0.45"/><circle cx="804.6" cy="1466.7" r="4.0" fill="#FFB300" opacity="0.45"/></g>
<g opacity="0.218" filter="url(#softGlow)"><path d="M 889.2,1223.0 L 742.0,1223.0 L 742.0,1233.2 L 748.1,1233.2 L 748.1,1503.1 " fill="none" stroke="url(#strokeB)" stroke-width="1.52" stroke-linecap="round" stroke-linejoin="round"/><circle cx="748.1" cy="1503.1" r="3.1" fill="#FFB300" opacity="0.45"/><circle cx="742.0" cy="1233.2" r="2.8" fill="#FFB300" opacity="0.45"/><circle cx="748.1" cy="1233.2" r="2.0" fill="#FFB300" opacity="0.45"/></g>
<g opacity="0.218" filter="url(#softGlow)"><path d="M 725.2,157.1 L 808.5,157.1 L 808.5,779.4 L 739.5,779.4 L 739.5,1510.6 " fill="none" stroke="url(#strokeB)" stroke-width="1.74" stroke-linecap="round" stroke-linejoin="round"/><circle cx="725.2" cy="157.1" r="2.3" fill="#FFB300" opacity="0.45"/><circle cx="739.5" cy="1510.6" r="3.7" fill="#FFB300" opacity="0.45"/><circle cx="808.5" cy="157.1" r="3.0" fill="#FFB300" opacity="0.45"/></g>
<g opacity="0.218" filter="url(#softGlow)"><path d="M 637.0,1593.9 L 854.2,1593.9 L 854.2,1460.0 L 25.1,1460.0 L 25.1,185.7 " fill="none" stroke="url(#strokeB)" stroke-width="1.31" stroke-linecap="round" stroke-linejoin="round"/><circle cx="854.2" cy="1593.9" r="2.5" fill="#FFB300" opacity="0.45"/><circle cx="25.1" cy="185.7" r="2.3" fill="#FFB300" opacity="0.45"/><circle cx="637.0" cy="1593.9" r="3.8" fill="#FFB300" opacity="0.45"/></g>
<g opacity="0.218" filter="url(#softGlow)"><path d="M 425.9,15.0 L 768.5,15.0 L 768.5,6.9 L 879.6,6.9 L 879.6,1496.4 " fill="none" stroke="url(#strokeB)" stroke-width="1.57" stroke-linecap="round" stroke-linejoin="round"/><circle cx="879.6" cy="6.9" r="4.1" fill="#FFB300" opacity="0.45"/><circle cx="768.5" cy="6.9" r="2.5" fill="#FFB300" opacity="0.45"/><circle cx="425.9" cy="15.0" r="4.1" fill="#FFB300" opacity="0.45"/></g>
<g opacity="0.218" filter="url(#softGlow)"><path d="M 795.7,1310.9 L 26.4,1310.9 L 26.4,1504.3 L 738.6,1504.3 L 738.6,1498.3 " fill="none" stroke="url(#strokeB)" stroke-width="1.26" stroke-linecap="round" stroke-linejoin="round"/><circle cx="795.7" cy="1310.9" r="2.6" fill="#FFB300" opacity="0.45"/><circle cx="738.6" cy="1504.3" r="2.7" fill="#FFB300" opacity="0.45"/><circle cx="26.4" cy="1310.9" r="2.2" fill="#FFB300" opacity="0.45"/></g>
<g opacity="0.218" filter="url(#softGlow)"><path d="M 116.2,142.4 L 861.6,142.4 L 861.6,677.2 L 857.2,677.2 L 857.2,140.5 " fill="none" stroke="url(#strokeB)" stroke-width="1.47" stroke-linecap="round" stroke-linejoin="round"/><circle cx="857.2" cy="677.2" r="4.0" fill="#FFB300" opacity="0.45"/><circle cx="857.2" cy="140.5" r="2.9" fill="#FFB300" opacity="0.45"/><circle cx="861.6" cy="142.4" r="3.0" fill="#FFB300" opacity="0.45"/></g>
<g opacity="0.218" filter="url(#softGlow)"><path d="M 838.7,11.6 L 1.7,11.6 L 1.7,1030.6 L 491.6,1030.6 L 491.6,107.7 " fill="none" stroke="url(#strokeB)" stroke-width="1.68" stroke-linecap="round" stroke-linejoin="round"/><circle cx="491.6" cy="107.7" r="3.7" fill="#FFB300" opacity="0.45"/><circle cx="491.6" cy="1030.6" r="2.4" fill="#FFB300" opacity="0.45"/><circle cx="1.7" cy="11.6" r="3.7" fill="#FFB300" opacity="0.45"/></g>
<g opacity="0.218" filter="url(#softGlow)"><path d="M 102.5,460.8 L 150.5,460.8 L 150.5,1443.0 L 86.6,1443.0 L 86.6,836.8 " fill="none" stroke="url(#strokeB)" stroke-width="1.79" stroke-linecap="round" stroke-linejoin="round"/><circle cx="150.5" cy="1443.0" r="3.8" fill="#FFB300" opacity="0.45"/><circle cx="150.5" cy="460.8" r="2.8" fill="#FFB300" opacity="0.45"/><circle cx="86.6" cy="1443.0" r="3.1" fill="#FFB300" opacity="0.45"/></g>
<g opacity="0.218" filter="url(#softGlow)"><path d="M 796.5,88.4 L 149.1,88.4 L 149.1,1480.1 L 852.6,1480.1 L 852.6,21.8 " fill="none" stroke="url(#strokeB)" stroke-width="1.64" stroke-linecap="round" stroke-linejoin="round"/><circle cx="149.1" cy="1480.1" r="3.8" fill="#FFB300" opacity="0.45"/><circle cx="852.6" cy="1480.1" r="4.0" fill="#FFB300" opacity="0.45"/><circle cx="796.5" cy="88.4" r="3.0" fill="#FFB300" opacity="0.45"/></g>
<g opacity="0.218" filter="url(#softGlow)"><path d="M 114.6,1460.6 L 803.9,1460.6 L 803.9,1563.6 L 872.8,1563.6 L 872.8,1505.0 " fill="none" stroke="url(#strokeB)" stroke-width="1.37" stroke-linecap="round" stroke-linejoin="round"/><circle cx="114.6" cy="1460.6" r="3.4" fill="#FFB300" opacity="0.45"/><circle cx="803.9" cy="1460.6" r="2.0" fill="#FFB300" opacity="0.45"/><circle cx="803.9" cy="1563.6" r="2.9" fill="#FFB300" opacity="0.45"/></g>
<g opacity="0.218" filter="url(#softGlow)"><path d="M 87.3,1006.6 L 795.5,1006.6 L 795.5,1579.9 L 79.1,1579.9 L 79.1,1449.2 " fill="none" stroke="url(#strokeB)" stroke-width="1.82" stroke-linecap="round" stroke-linejoin="round"/><circle cx="79.1" cy="1579.9" r="4.1" fill="#FFB300" opacity="0.45"/><circle cx="87.3" cy="1006.6" r="3.2" fill="#FFB300" opacity="0.45"/><circle cx="795.5" cy="1006.6" r="2.9" fill="#FFB300" opacity="0.45"/></g>
<g opacity="0.218" filter="url(#softGlow)"><path d="M 833.9,1594.7 L 127.2,1594.7 L 127.2,1367.1 L 645.8,1367.1 L 645.8,1441.6 " fill="none" stroke="url(#strokeB)" stroke-width="1.67" stroke-linecap="round" stroke-linejoin="round"/><circle cx="645.8" cy="1441.6" r="3.4" fill="#FFB300" opacity="0.45"/><circle cx="127.2" cy="1594.7" r="2.4" fill="#FFB300" opacity="0.45"/><circle cx="833.9" cy="1594.7" r="4.0" fill="#FFB300" opacity="0.45"/></g>
<g opacity="0.218" filter="url(#softGlow)"><path d="M 750.7,134.5 L 42.6,134.5 L 42.6,1584.7 L 65.8,1584.7 L 65.8,115.2 " fill="none" stroke="url(#strokeB)" stroke-width="1.15" stroke-linecap="round" stroke-linejoin="round"/><circle cx="750.7" cy="134.5" r="2.8" fill="#FFB300" opacity="0.45"/><circle cx="42.6" cy="134.5" r="2.2" fill="#FFB300" opacity="0.45"/><circle cx="65.8" cy="1584.7" r="2.2" fill="#FFB300" opacity="0.45"/></g>

<g opacity="0.884" filter="url(#hardGlow)">
  <circle cx="41.9" cy="83.7" r="51.8" fill="#0A1224" opacity="0.65"/>
  <circle cx="41.9" cy="83.7" r="51.8" fill="none" stroke="url(#strokeA)" stroke-width="4.1" opacity="0.85"/>
  <circle cx="41.9" cy="83.7" r="44.6" fill="none" stroke="#7C4DFF" stroke-width="1.6" opacity="0.35"/>
  <polygon points="49.1,120.4 13.8,108.2 6.6,71.6 34.8,47.1 70.1,59.2 77.2,95.9" fill="none" stroke="url(#strokeB)" stroke-width="1.3" opacity="0.65"/>
  <polygon points="39.9,96.6 31.8,75.5 54.1,79.1" fill="#7C4DFF" opacity="0.22" filter="url(#softGlow)"/>
</g>


<g opacity="0.580" filter="url(#hardGlow)">
  <circle cx="4.6" cy="31.0" r="18.2" fill="#0A1224" opacity="0.65"/>
  <circle cx="4.6" cy="31.0" r="18.2" fill="none" stroke="url(#strokeA)" stroke-width="2.0" opacity="0.85"/>
  <circle cx="4.6" cy="31.0" r="15.7" fill="none" stroke="#FFB300" stroke-width="1.5" opacity="0.35"/>
  <polygon points="-7.5,36.0 -5.8,23.0 6.4,18.0 16.8,26.0 15.1,39.0 2.9,44.0" fill="none" stroke="url(#strokeB)" stroke-width="1.2" opacity="0.65"/>
  
</g>


<g opacity="0.838" filter="url(#hardGlow)">
  <circle cx="64.2" cy="1145.4" r="57.8" fill="#0A1224" opacity="0.65"/>
  <circle cx="64.2" cy="1145.4" r="57.8" fill="none" stroke="url(#strokeA)" stroke-width="4.6" opacity="0.85"/>
  <circle cx="64.2" cy="1145.4" r="49.7" fill="none" stroke="#7C4DFF" stroke-width="1.7" opacity="0.35"/>
  <polygon points="23.1,1152.0 38.0,1113.1 79.1,1106.5 105.3,1138.8 90.5,1177.7 49.4,1184.3" fill="none" stroke="url(#strokeB)" stroke-width="1.4" opacity="0.65"/>
  <polygon points="49.9,1142.7 73.8,1134.4 69.0,1159.2" fill="#7C4DFF" opacity="0.22" filter="url(#softGlow)"/>
</g>


<g opacity="0.394" filter="url(#hardGlow)">
  <circle cx="61.1" cy="1084.4" r="24.9" fill="#0A1224" opacity="0.65"/>
  <circle cx="61.1" cy="1084.4" r="24.9" fill="none" stroke="url(#strokeA)" stroke-width="2.0" opacity="0.85"/>
  <circle cx="61.1" cy="1084.4" r="21.4" fill="none" stroke="#FFB300" stroke-width="1.5" opacity="0.35"/>
  <polygon points="67.0,1067.5 78.7,1081.1 72.8,1098.0 55.2,1101.3 43.5,1087.8 49.4,1070.9" fill="none" stroke="url(#strokeB)" stroke-width="1.2" opacity="0.65"/>
  
</g>


<g opacity="0.866" filter="url(#hardGlow)">
  <circle cx="90.5" cy="1499.9" r="50.2" fill="#0A1224" opacity="0.65"/>
  <circle cx="90.5" cy="1499.9" r="50.2" fill="none" stroke="url(#strokeA)" stroke-width="4.0" opacity="0.85"/>
  <circle cx="90.5" cy="1499.9" r="43.2" fill="none" stroke="#7C4DFF" stroke-width="1.5" opacity="0.35"/>
  <polygon points="90.1,1536.1 59.0,1517.6 59.4,1481.5 90.9,1463.8 122.0,1482.2 121.6,1518.3" fill="none" stroke="url(#strokeB)" stroke-width="1.3" opacity="0.65"/>
  <polygon points="86.0,1511.7 82.5,1490.1 103.0,1497.8" fill="#7C4DFF" opacity="0.22" filter="url(#softGlow)"/>
</g>


<g opacity="0.494" filter="url(#hardGlow)">
  <circle cx="83.0" cy="1461.6" r="25.4" fill="#0A1224" opacity="0.65"/>
  <circle cx="83.0" cy="1461.6" r="25.4" fill="none" stroke="url(#strokeA)" stroke-width="2.0" opacity="0.85"/>
  <circle cx="83.0" cy="1461.6" r="21.9" fill="none" stroke="#FFB300" stroke-width="1.5" opacity="0.35"/>
  <polygon points="101.2,1460.0 93.4,1476.6 75.2,1478.2 64.7,1463.1 72.5,1446.6 90.7,1445.0" fill="none" stroke="url(#strokeB)" stroke-width="1.2" opacity="0.65"/>
  <polygon points="89.1,1463.3 78.4,1466.1 81.3,1455.4" fill="#FFB300" opacity="0.22" filter="url(#softGlow)"/>
</g>


<g opacity="0.643" filter="url(#hardGlow)">
  <circle cx="68.0" cy="1518.5" r="17.8" fill="#0A1224" opacity="0.65"/>
  <circle cx="68.0" cy="1518.5" r="17.8" fill="none" stroke="url(#strokeA)" stroke-width="2.0" opacity="0.85"/>
  <circle cx="68.0" cy="1518.5" r="15.3" fill="none" stroke="#FFB300" stroke-width="1.5" opacity="0.35"/>
  <polygon points="60.6,1508.1 73.4,1506.9 80.7,1517.4 75.3,1529.0 62.6,1530.1 55.2,1519.7" fill="none" stroke="url(#strokeB)" stroke-width="1.2" opacity="0.65"/>
  
</g>


<g opacity="0.800" filter="url(#hardGlow)">
  <circle cx="17.3" cy="1542.6" r="44.0" fill="#0A1224" opacity="0.65"/>
  <circle cx="17.3" cy="1542.6" r="44.0" fill="none" stroke="url(#strokeA)" stroke-width="3.5" opacity="0.85"/>
  <circle cx="17.3" cy="1542.6" r="37.8" fill="none" stroke="#7C4DFF" stroke-width="1.5" opacity="0.35"/>
  <polygon points="36.0,1568.1 4.5,1571.6 -14.2,1546.0 -1.4,1517.0 30.0,1513.6 48.8,1539.1" fill="none" stroke="url(#strokeB)" stroke-width="1.2" opacity="0.65"/>
  <polygon points="20.4,1553.2 6.5,1539.9 25.0,1534.6" fill="#7C4DFF" opacity="0.22" filter="url(#softGlow)"/>
</g>


<g opacity="0.623" filter="url(#hardGlow)">
  <circle cx="-9.0" cy="1511.1" r="23.5" fill="#0A1224" opacity="0.65"/>
  <circle cx="-9.0" cy="1511.1" r="23.5" fill="none" stroke="url(#strokeA)" stroke-width="2.0" opacity="0.85"/>
  <circle cx="-9.0" cy="1511.1" r="20.2" fill="none" stroke="#FFB300" stroke-width="1.5" opacity="0.35"/>
  <polygon points="-25.1,1516.1 -21.4,1499.6 -5.3,1494.6 7.2,1506.1 3.5,1522.5 -12.7,1527.6" fill="none" stroke="url(#strokeB)" stroke-width="1.2" opacity="0.65"/>
  
</g>


<g opacity="0.902" filter="url(#hardGlow)">
  <circle cx="460.4" cy="1502.8" r="54.9" fill="#0A1224" opacity="0.65"/>
  <circle cx="460.4" cy="1502.8" r="54.9" fill="none" stroke="url(#strokeA)" stroke-width="4.4" opacity="0.85"/>
  <circle cx="460.4" cy="1502.8" r="47.2" fill="none" stroke="#7C4DFF" stroke-width="1.6" opacity="0.35"/>
  <polygon points="466.9,1463.9 497.4,1488.9 490.9,1527.9 453.9,1541.8 423.4,1516.7 429.9,1477.7" fill="none" stroke="url(#strokeB)" stroke-width="1.4" opacity="0.65"/>
  <polygon points="467.2,1490.8 467.4,1514.7 446.6,1503.0" fill="#7C4DFF" opacity="0.22" filter="url(#softGlow)"/>
</g>


<g opacity="0.555" filter="url(#hardGlow)">
  <circle cx="457.2" cy="1533.4" r="23.5" fill="#0A1224" opacity="0.65"/>
  <circle cx="457.2" cy="1533.4" r="23.5" fill="none" stroke="url(#strokeA)" stroke-width="2.0" opacity="0.85"/>
  <circle cx="457.2" cy="1533.4" r="20.2" fill="none" stroke="#FFB300" stroke-width="1.5" opacity="0.35"/>
  <polygon points="464.5,1548.7 447.6,1547.4 440.3,1532.1 449.9,1518.2 466.8,1519.5 474.1,1534.8" fill="none" stroke="url(#strokeB)" stroke-width="1.2" opacity="0.65"/>
  
</g>


<g opacity="0.377" filter="url(#hardGlow)">
  <circle cx="489.0" cy="1550.3" r="26.2" fill="#0A1224" opacity="0.65"/>
  <circle cx="489.0" cy="1550.3" r="26.2" fill="none" stroke="url(#strokeA)" stroke-width="2.1" opacity="0.85"/>
  <circle cx="489.0" cy="1550.3" r="22.5" fill="none" stroke="#FFB300" stroke-width="1.5" opacity="0.35"/>
  <polygon points="470.2,1551.4 478.7,1534.5 497.5,1533.5 507.9,1549.3 499.3,1566.1 480.5,1567.2" fill="none" stroke="url(#strokeB)" stroke-width="1.2" opacity="0.65"/>
  <polygon points="482.7,1548.4 493.8,1545.8 490.5,1556.7" fill="#FFB300" opacity="0.22" filter="url(#softGlow)"/>
</g>


<g opacity="0.537" filter="url(#hardGlow)">
  <circle cx="409.3" cy="1507.3" r="29.2" fill="#0A1224" opacity="0.65"/>
  <circle cx="409.3" cy="1507.3" r="29.2" fill="none" stroke="url(#strokeA)" stroke-width="2.3" opacity="0.85"/>
  <circle cx="409.3" cy="1507.3" r="25.1" fill="none" stroke="#FFB300" stroke-width="1.5" opacity="0.35"/>
  <polygon points="410.6,1486.3 428.1,1497.9 426.8,1518.9 408.0,1528.3 390.5,1516.7 391.7,1495.7" fill="none" stroke="url(#strokeB)" stroke-width="1.2" opacity="0.65"/>
  
</g>


<g opacity="0.387" transform="translate(860.9,256.1) rotate(8.0)" filter="url(#softGlow)">
  <rect x="-71.5" y="-51.0" width="143.0" height="102.1" rx="10.2" fill="#050A12" opacity="0.25"/>
  <rect x="-71.5" y="-51.0" width="143.0" height="102.1" rx="10.2" fill="none" stroke="url(#strokeA)" stroke-width="5.1" opacity="0.85"/>
  <rect x="-63.4" y="-42.9" width="126.7" height="85.7" rx="7.1" fill="none" stroke="#FFB300" stroke-width="2.0" opacity="0.35"/>
</g>


<g opacity="0.293" transform="translate(759.1,705.3) rotate(4.6)" filter="url(#softGlow)">
  <rect x="-86.9" y="-78.9" width="173.7" height="157.7" rx="15.8" fill="#050A12" opacity="0.25"/>
  <rect x="-86.9" y="-78.9" width="173.7" height="157.7" rx="15.8" fill="none" stroke="url(#strokeA)" stroke-width="7.9" opacity="0.85"/>
  <rect x="-74.2" y="-66.2" width="148.5" height="132.5" rx="11.0" fill="none" stroke="#FFB300" stroke-width="3.2" opacity="0.35"/>
</g>


<g opacity="0.384" transform="translate(77.9,1538.8) rotate(4.1)" filter="url(#softGlow)">
  <rect x="-90.7" y="-68.6" width="181.4" height="137.2" rx="13.7" fill="#050A12" opacity="0.25"/>
  <rect x="-90.7" y="-68.6" width="181.4" height="137.2" rx="13.7" fill="none" stroke="url(#strokeA)" stroke-width="6.9" opacity="0.85"/>
  <rect x="-79.7" y="-57.6" width="159.4" height="115.3" rx="9.6" fill="none" stroke="#FFB300" stroke-width="2.7" opacity="0.35"/>
</g>


<g opacity="0.306" transform="translate(35.1,715.5) rotate(-1.0)" filter="url(#softGlow)">
  <rect x="-92.0" y="-76.3" width="184.1" height="152.5" rx="15.3" fill="#050A12" opacity="0.25"/>
  <rect x="-92.0" y="-76.3" width="184.1" height="152.5" rx="15.3" fill="none" stroke="url(#strokeA)" stroke-width="7.6" opacity="0.85"/>
  <rect x="-79.8" y="-64.1" width="159.6" height="128.1" rx="10.7" fill="none" stroke="#FFB300" stroke-width="3.1" opacity="0.35"/>
</g>


<g opacity="0.416" transform="translate(732.3,1532.3) rotate(-10.5)" filter="url(#softGlow)">
  <rect x="-35.9" y="-20.7" width="71.9" height="41.4" rx="12.6" fill="none" stroke="#FFB300" stroke-width="6.9" opacity="0.55"/>
  <rect x="-15.8" y="-10.3" width="71.9" height="41.4" rx="12.6" fill="none" stroke="url(#strokeA)" stroke-width="5.7" opacity="0.55"/>
</g>


<g opacity="0.298" transform="translate(30.6,1438.3) rotate(16.8)" filter="url(#softGlow)">
  <rect x="-44.2" y="-25.4" width="88.3" height="50.9" rx="15.5" fill="none" stroke="#FFB300" stroke-width="8.5" opacity="0.55"/>
  <rect x="-19.4" y="-12.7" width="88.3" height="50.9" rx="15.5" fill="none" stroke="url(#strokeA)" stroke-width="7.1" opacity="0.55"/>
</g>


<g opacity="0.274" transform="translate(763.4,1411.9) rotate(5.7)" filter="url(#softGlow)">
  <rect x="-49.6" y="-28.6" width="99.3" height="57.2" rx="17.5" fill="none" stroke="#FFB300" stroke-width="9.5" opacity="0.55"/>
  <rect x="-21.8" y="-14.3" width="99.3" height="57.2" rx="17.5" fill="none" stroke="url(#strokeA)" stroke-width="7.9" opacity="0.55"/>
</g>


<g opacity="0.466" transform="translate(21.1,1554.2) rotate(-13.9)" filter="url(#softGlow)">
  <rect x="-45.8" y="-26.4" width="91.6" height="52.8" rx="16.1" fill="none" stroke="#7C4DFF" stroke-width="8.8" opacity="0.55"/>
  <rect x="-20.2" y="-13.2" width="91.6" height="52.8" rx="16.1" fill="none" stroke="url(#strokeA)" stroke-width="7.3" opacity="0.55"/>
</g>


<g opacity="0.249" transform="translate(123.5,156.6) rotate(-6.3)" filter="url(#softGlow)">
  <rect x="-32.5" y="-18.7" width="65.0" height="37.5" rx="11.4" fill="none" stroke="#FFB300" stroke-width="6.2" opacity="0.55"/>
  <rect x="-14.3" y="-9.4" width="65.0" height="37.5" rx="11.4" fill="none" stroke="url(#strokeA)" stroke-width="5.2" opacity="0.55"/>
</g>


<g opacity="0.446" transform="translate(840.9,98.5) rotate(16.0)" filter="url(#softGlow)">
  <rect x="-29.8" y="-17.2" width="59.6" height="34.3" rx="10.5" fill="none" stroke="#7C4DFF" stroke-width="5.7" opacity="0.55"/>
  <rect x="-13.1" y="-8.6" width="59.6" height="34.3" rx="10.5" fill="none" stroke="url(#strokeA)" stroke-width="4.8" opacity="0.55"/>
</g>


<g opacity="0.233" transform="translate(808.2,159.5) rotate(6.4)" filter="url(#softGlow)">
  <rect x="-34.0" y="-19.6" width="68.0" height="39.1" rx="12.0" fill="none" stroke="#7C4DFF" stroke-width="6.5" opacity="0.55"/>
  <rect x="-15.0" y="-9.8" width="68.0" height="39.1" rx="12.0" fill="none" stroke="url(#strokeA)" stroke-width="5.4" opacity="0.55"/>
</g>


<g opacity="0.430" transform="translate(782.3,1448.4) rotate(8.7)" filter="url(#softGlow)">
  <rect x="-38.4" y="-22.1" width="76.7" height="44.2" rx="13.5" fill="none" stroke="#7C4DFF" stroke-width="7.4" opacity="0.55"/>
  <rect x="-16.9" y="-11.0" width="76.7" height="44.2" rx="13.5" fill="none" stroke="url(#strokeA)" stroke-width="6.1" opacity="0.55"/>
</g>


<g opacity="0.256" transform="translate(761.7,1440.1) rotate(-9.4)" filter="url(#softGlow)">
  <rect x="-45.8" y="-26.4" width="91.6" height="52.7" rx="16.1" fill="none" stroke="#FFB300" stroke-width="8.8" opacity="0.55"/>
  <rect x="-20.1" y="-13.2" width="91.6" height="52.7" rx="16.1" fill="none" stroke="url(#strokeA)" stroke-width="7.3" opacity="0.55"/>
</g>


<g opacity="0.218">
  <line x1="563.9" y1="1462.0" x2="563.9" y2="1518.4" stroke="#FFB300" stroke-width="1.39" opacity="0.45"/>
  <rect x="559.1" y="1492.9" width="9.5" height="28.4" rx="3.2" fill="#0B1020" opacity="0.55" stroke="url(#strokeA)" stroke-width="1.2"/>
</g>

<g opacity="0.218">
  <line x1="761.5" y1="1424.9" x2="761.5" y2="1527.7" stroke="#FFB300" stroke-width="1.63" opacity="0.45"/>
  <rect x="755.9" y="1477.3" width="11.1" height="59.6" rx="3.7" fill="#0B1020" opacity="0.55" stroke="url(#strokeA)" stroke-width="1.2"/>
</g>

<g opacity="0.218">
  <line x1="733.0" y1="1430.7" x2="733.0" y2="1526.2" stroke="#FFB300" stroke-width="2.05" opacity="0.45"/>
  <rect x="729.3" y="1481.1" width="7.4" height="51.9" rx="2.5" fill="#0B1020" opacity="0.55" stroke="url(#strokeA)" stroke-width="1.2"/>
</g>

<g opacity="0.218">
  <line x1="391.9" y1="1467.8" x2="391.9" y2="1516.9" stroke="#FFB300" stroke-width="1.65" opacity="0.45"/>
  <rect x="387.5" y="1495.3" width="8.9" height="23.7" rx="3.0" fill="#0B1020" opacity="0.55" stroke="url(#strokeA)" stroke-width="1.2"/>
</g>

<g opacity="0.218">
  <line x1="197.2" y1="1430.1" x2="197.2" y2="1526.4" stroke="#FFB300" stroke-width="1.07" opacity="0.45"/>
  <rect x="192.3" y="1485.5" width="9.7" height="43.2" rx="3.2" fill="#0B1020" opacity="0.55" stroke="url(#strokeA)" stroke-width="1.2"/>
</g>

<g opacity="0.218">
  <line x1="884.3" y1="1436.8" x2="884.3" y2="1524.7" stroke="#FFB300" stroke-width="1.62" opacity="0.45"/>
  <rect x="878.8" y="1479.1" width="11.1" height="56.0" rx="3.7" fill="#0B1020" opacity="0.55" stroke="url(#strokeA)" stroke-width="1.2"/>
</g>

<g opacity="0.218">
  <line x1="71.5" y1="1442.3" x2="71.5" y2="1523.3" stroke="#FFB300" stroke-width="1.90" opacity="0.45"/>
  <rect x="66.0" y="1493.4" width="10.9" height="27.3" rx="3.6" fill="#0B1020" opacity="0.55" stroke="url(#strokeA)" stroke-width="1.2"/>
</g>

<g opacity="0.218">
  <line x1="350.8" y1="1437.9" x2="350.8" y2="1524.4" stroke="#FFB300" stroke-width="1.12" opacity="0.45"/>
  <rect x="345.1" y="1488.4" width="11.5" height="37.4" rx="3.8" fill="#0B1020" opacity="0.55" stroke="url(#strokeA)" stroke-width="1.2"/>
</g>

<g opacity="0.218">
  <line x1="327.4" y1="1429.2" x2="327.4" y2="1526.6" stroke="#FFB300" stroke-width="1.88" opacity="0.45"/>
  <rect x="322.5" y="1484.8" width="9.7" height="44.7" rx="3.2" fill="#0B1020" opacity="0.55" stroke="url(#strokeA)" stroke-width="1.2"/>
</g>

<g opacity="0.218">
  <line x1="633.4" y1="1456.6" x2="633.4" y2="1519.7" stroke="#FFB300" stroke-width="1.90" opacity="0.45"/>
  <rect x="628.3" y="1486.8" width="10.1" height="40.6" rx="3.4" fill="#0B1020" opacity="0.55" stroke="url(#strokeA)" stroke-width="1.2"/>
</g>

<g opacity="0.218">
  <line x1="795.2" y1="1429.2" x2="795.2" y2="1526.6" stroke="#FFB300" stroke-width="1.96" opacity="0.45"/>
  <rect x="789.5" y="1485.9" width="11.3" height="42.4" rx="3.8" fill="#0B1020" opacity="0.55" stroke="url(#strokeA)" stroke-width="1.2"/>
</g>

<g opacity="0.218">
  <line x1="149.2" y1="1465.9" x2="149.2" y2="1517.4" stroke="#FFB300" stroke-width="1.44" opacity="0.45"/>
  <rect x="146.0" y="1497.9" width="6.3" height="18.3" rx="2.1" fill="#0B1020" opacity="0.55" stroke="url(#strokeA)" stroke-width="1.2"/>
</g>

<g opacity="0.218">
  <line x1="684.7" y1="1436.5" x2="684.7" y2="1524.8" stroke="#FFB300" stroke-width="1.68" opacity="0.45"/>
  <rect x="679.7" y="1477.4" width="10.0" height="59.4" rx="3.3" fill="#0B1020" opacity="0.55" stroke="url(#strokeA)" stroke-width="1.2"/>
</g>

<g opacity="0.218">
  <line x1="476.9" y1="1454.2" x2="476.9" y2="1520.3" stroke="#FFB300" stroke-width="1.07" opacity="0.45"/>
  <rect x="473.5" y="1496.6" width="6.9" height="21.1" rx="2.3" fill="#0B1020" opacity="0.55" stroke="url(#strokeA)" stroke-width="1.2"/>
</g>

<g opacity="0.218">
  <line x1="685.5" y1="1465.0" x2="685.5" y2="1517.6" stroke="#FFB300" stroke-width="1.75" opacity="0.45"/>
  <rect x="681.9" y="1493.1" width="7.1" height="28.1" rx="2.4" fill="#0B1020" opacity="0.55" stroke="url(#strokeA)" stroke-width="1.2"/>
</g>

<g opacity="0.218">
  <line x1="300.6" y1="1432.9" x2="300.6" y2="1525.7" stroke="#FFB300" stroke-width="1.65" opacity="0.45"/>
  <rect x="297.3" y="1487.5" width="6.7" height="39.3" rx="2.2" fill="#0B1020" opacity="0.55" stroke="url(#strokeA)" stroke-width="1.2"/>
</g>
<circle cx="345.6" cy="1487.9" r="3.2" fill="#7C4DFF" opacity="0.21" filter="url(#softGlow)"/>
<circle cx="45.2" cy="1593.6" r="1.3" fill="#7C4DFF" opacity="0.22" filter="url(#softGlow)"/>
<circle cx="33.1" cy="1522.2" r="2.4" fill="#7C4DFF" opacity="0.12" filter="url(#softGlow)"/>
<circle cx="740.7" cy="121.4" r="3.1" fill="#7C4DFF" opacity="0.23" filter="url(#softGlow)"/>
<circle cx="22.7" cy="157.1" r="2.5" fill="#7C4DFF" opacity="0.24" filter="url(#softGlow)"/>
<circle cx="783.6" cy="1575.7" r="1.3" fill="#7C4DFF" opacity="0.16" filter="url(#softGlow)"/>
<circle cx="138.7" cy="1333.1" r="1.4" fill="#7C4DFF" opacity="0.10" filter="url(#softGlow)"/>
<circle cx="29.6" cy="1565.6" r="1.4" fill="#7C4DFF" opacity="0.21" filter="url(#softGlow)"/>
<circle cx="61.7" cy="79.5" r="2.7" fill="#7C4DFF" opacity="0.14" filter="url(#softGlow)"/>
<circle cx="848.0" cy="144.4" r="3.1" fill="#7C4DFF" opacity="0.19" filter="url(#softGlow)"/>
<circle cx="769.1" cy="723.2" r="1.8" fill="#7C4DFF" opacity="0.26" filter="url(#softGlow)"/>
<circle cx="880.7" cy="94.9" r="1.9" fill="#7C4DFF" opacity="0.10" filter="url(#softGlow)"/>
<circle cx="764.2" cy="1468.0" r="1.4" fill="#7C4DFF" opacity="0.27" filter="url(#softGlow)"/>
<circle cx="34.5" cy="16.6" r="1.7" fill="#7C4DFF" opacity="0.14" filter="url(#softGlow)"/>
<circle cx="199.9" cy="82.2" r="2.0" fill="#7C4DFF" opacity="0.20" filter="url(#softGlow)"/>
<circle cx="267.3" cy="1469.7" r="2.3" fill="#7C4DFF" opacity="0.23" filter="url(#softGlow)"/>
<circle cx="120.9" cy="928.7" r="2.9" fill="#7C4DFF" opacity="0.10" filter="url(#softGlow)"/>
<circle cx="53.7" cy="1448.7" r="1.7" fill="#7C4DFF" opacity="0.10" filter="url(#softGlow)"/>
</svg>