<svg xmlns="http://www.w3.org/2000/svg" width="900" height="1600" viewBox="0 0 900 1600" preserveAspectRatio="xMidYMid slice">
<defs>
  <linearGradient id="g0" x1="0" y1="0" x2="1" y2="1">
    <stop offset="0" stop-color="#0B1020"/>
    <stop offset="0.55" stop-color="#F97316" stop-opacity="0.9"/>
    <stop offset="1" stop-color="#020617"/>
  </linearGradient>
  <radialGradient id="g1" cx="20%" cy="15%" r="70%">
    <stop offset="0" stop-color="#06B6D4" stop-opacity="0.38"/>
    <stop offset="0.6" stop-color="#06B6D4" stop-opacity="0.08"/>
    <stop offset="1" stop-color="#06B6D4" stop-opacity="0"/>
  </radialGradient>
  <radialGradient id="g2" cx="85%" cy="80%" r="75%">
    <stop offset="0" stop-color="#06B6D4" stop-opacity="0.28"/>
    <stop offset="0.65" stop-color="#06B6D4" stop-opacity="0.06"/>
    <stop offset="1" stop-color="#06B6D4" stop-opacity="0"/>
  </radialGradient>
  <filter id="softGlow" x="-30%" y="-30%" width="160%" height="160%">
    <feGaussianBlur stdDeviation="12" result="b"/>
    <feMerge>
      <feMergeNode in="b"/>
      <feMergeNode in="SourceGraphic"/>
    </feMerge>
  </filter>
  <filter id="hardGlow" x="-40%" y="-40%" width="180%" height="180%">
    <feGaussianBlur stdDeviation="6" result="b"/>
    <feColorMatrix in="b" type="matrix" values="1 0 0 0 0  0 1 0 0 0  0 0 1 0 0  0 0 0 18 -7" result="c"/>
    <feMerge>
      <feMergeNode in="c"/>
      <feMergeNode in="SourceGraphic"/>
    </feMerge>
  </filter>
  <linearGradient id="strokeA" x1="0" y1="0" x2="1" y2="0">
    <stop offset="0" stop-color="#06B6D4" stop-opacity="0.9"/>
    <stop offset="0.5" stop-color="#FFFFFF" stop-opacity="0.25"/>
    <stop offset="1" stop-color="#06B6D4" stop-opacity="0.7"/>
  </linearGradient>
  <linearGradient id="strokeB" x1="0" y1="0" x2="0" y2="1">
    <stop offset="0" stop-color="#FFFFFF" stop-opacity="0.18"/>
    <stop offset="1" stop-color="#06B6D4" stop-opacity="0.55"/>
  </linearGradient>
</defs>
<rect x="0" y="0" width="900" height="1600" fill="url(#g0)"/>
<rect x="0" y="0" width="900" height="1600" fill="url(#g1)"/>
<rect x="0" y="0" width="900" height="1600" fill="url(#g2)"/>


<defs>
  <radialGradient id="vign" cx="0.5000" cy="0.5000" r="0.85">
    <stop offset="0" stop-color="#000000" stop-opacity="0"/>
    <stop offset="0.55" stop-color="#000000" stop-opacity="0.217"/>
    <stop offset="1" stop-color="#000000" stop-opacity="0.620"/>
  </radialGradient>
</defs>
<rect x="0" y="0" width="900" height="1600" fill="url(#vign)"/>

<g opacity="0.215" filter="url(#softGlow)"><path d="M 160.2,1547.7 L 134.9,1547.7 L 134.9,634.2 L 759.5,634.2 L 759.5,977.2 " fill="none" stroke="url(#strokeB)" stroke-width="2.14" stroke-linecap="round" stroke-linejoin="round"/><circle cx="759.5" cy="634.2" r="3.2" fill="#F97316" opacity="0.45"/><circle cx="160.2" cy="1547.7" r="3.9" fill="#F97316" opacity="0.45"/><circle cx="759.5" cy="977.2" r="4.0" fill="#F97316" opacity="0.45"/></g>
<g opacity="0.215" filter="url(#softGlow)"><path d="M 20.2,105.5 L 793.2,105.5 L 793.2,1505.1 L 705.0,1505.1 L 705.0,130.1 " fill="none" stroke="url(#strokeB)" stroke-width="1.56" stroke-linecap="round" stroke-linejoin="round"/><circle cx="705.0" cy="130.1" r="3.8" fill="#F97316" opacity="0.45"/><circle cx="705.0" cy="1505.1" r="3.6" fill="#F97316" opacity="0.45"/><circle cx="20.2" cy="105.5" r="2.2" fill="#F97316" opacity="0.45"/></g>
<g opacity="0.215" filter="url(#softGlow)"><path d="M 886.2,1101.6 L 79.4,1101.6 L 79.4,280.2 L 881.6,280.2 L 881.6,1582.8 " fill="none" stroke="url(#strokeB)" stroke-width="1.68" stroke-linecap="round" stroke-linejoin="round"/><circle cx="886.2" cy="1101.6" r="2.1" fill="#F97316" opacity="0.45"/><circle cx="881.6" cy="280.2" r="3.7" fill="#F97316" opacity="0.45"/><circle cx="79.4" cy="1101.6" r="3.3" fill="#F97316" opacity="0.45"/></g>
<g opacity="0.215" filter="url(#softGlow)"><path d="M 887.3,1148.8 L 796.8,1148.8 L 796.8,1452.7 L 23.3,1452.7 L 23.3,544.0 " fill="none" stroke="url(#strokeB)" stroke-width="2.01" stroke-linecap="round" stroke-linejoin="round"/><circle cx="23.3" cy="1452.7" r="3.0" fill="#F97316" opacity="0.45"/><circle cx="796.8" cy="1452.7" r="4.2" fill="#F97316" opacity="0.45"/><circle cx="796.8" cy="1148.8" r="3.3" fill="#F97316" opacity="0.45"/></g>
<g opacity="0.215" filter="url(#softGlow)"><path d="M 510.1,96.6 L 149.8,96.6 L 149.8,1476.4 L 734.4,1476.4 L 734.4,27.4 " fill="none" stroke="url(#strokeB)" stroke-width="2.08" stroke-linecap="round" stroke-linejoin="round"/><circle cx="734.4" cy="1476.4" r="2.4" fill="#F97316" opacity="0.45"/><circle cx="734.4" cy="27.4" r="2.4" fill="#F97316" opacity="0.45"/><circle cx="149.8" cy="1476.4" r="3.2" fill="#F97316" opacity="0.45"/></g>
<g opacity="0.215" filter="url(#softGlow)"><path d="M 141.2,687.2 L 54.1,687.2 L 54.1,1442.4 L 332.3,1442.4 L 332.3,8.3 " fill="none" stroke="url(#strokeB)" stroke-width="2.05" stroke-linecap="round" stroke-linejoin="round"/><circle cx="332.3" cy="1442.4" r="3.7" fill="#F97316" opacity="0.45"/><circle cx="141.2" cy="687.2" r="2.2" fill="#F97316" opacity="0.45"/><circle cx="332.3" cy="8.3" r="2.2" fill="#F97316" opacity="0.45"/></g>
<g opacity="0.215" filter="url(#softGlow)"><path d="M 770.4,18.9 L 55.5,18.9 L 55.5,528.9 L 530.6,528.9 L 530.6,1546.9 " fill="none" stroke="url(#strokeB)" stroke-width="2.00" stroke-linecap="round" stroke-linejoin="round"/><circle cx="530.6" cy="528.9" r="4.1" fill="#F97316" opacity="0.45"/><circle cx="55.5" cy="18.9" r="2.1" fill="#F97316" opacity="0.45"/><circle cx="770.4" cy="18.9" r="3.1" fill="#F97316" opacity="0.45"/></g>
<g opacity="0.215" filter="url(#softGlow)"><path d="M 98.7,305.7 L 830.4,305.7 L 830.4,111.1 L 257.6,111.1 L 257.6,1548.9 " fill="none" stroke="url(#strokeB)" stroke-width="1.44" stroke-linecap="round" stroke-linejoin="round"/><circle cx="98.7" cy="305.7" r="3.7" fill="#F97316" opacity="0.45"/><circle cx="830.4" cy="305.7" r="4.1" fill="#F97316" opacity="0.45"/><circle cx="257.6" cy="111.1" r="3.1" fill="#F97316" opacity="0.45"/></g>
<g opacity="0.215" filter="url(#softGlow)"><path d="M 886.4,1523.9 L 898.5,1523.9 L 898.5,52.0 L 331.3,52.0 L 331.3,82.6 " fill="none" stroke="url(#strokeB)" stroke-width="1.43" stroke-linecap="round" stroke-linejoin="round"/><circle cx="898.5" cy="1523.9" r="4.0" fill="#F97316" opacity="0.45"/><circle cx="886.4" cy="1523.9" r="3.7" fill="#F97316" opacity="0.45"/><circle cx="898.5" cy="52.0" r="2.6" fill="#F97316" opacity="0.45"/></g>
<g opacity="0.215" filter="url(#softGlow)"><path d="M 821.1,76.6 L 34.1,76.6 L 34.1,40.8 L 517.7,40.8 L 517.7,1458.5 " fill="none" stroke="url(#strokeB)" stroke-width="1.61" stroke-linecap="round" stroke-linejoin="round"/><circle cx="34.1" cy="76.6" r="3.5" fill="#F97316" opacity="0.45"/><circle cx="517.7" cy="1458.5" r="2.7" fill="#F97316" opacity="0.45"/><circle cx="517.7" cy="40.8" r="4.1" fill="#F97316" opacity="0.45"/></g>
<g opacity="0.215" filter="url(#softGlow)"><path d="M 793.3,818.4 L 877.4,818.4 L 877.4,886.6 L 349.2,886.6 L 349.2,1449.0 " fill="none" stroke="url(#strokeB)" stroke-width="1.87" stroke-linecap="round" stroke-linejoin="round"/><circle cx="349.2" cy="886.6" r="3.8" fill="#F97316" opacity="0.45"/><circle cx="877.4" cy="818.4" r="2.5" fill="#F97316" opacity="0.45"/><circle cx="349.2" cy="1449.0" r="3.2" fill="#F97316" opacity="0.45"/></g>
<g opacity="0.215" filter="url(#softGlow)"><path d="M 54.2,368.9 L 47.4,368.9 L 47.4,68.6 L 779.6,68.6 L 779.6,1539.4 " fill="none" stroke="url(#strokeB)" stroke-width="1.19" stroke-linecap="round" stroke-linejoin="round"/><circle cx="779.6" cy="1539.4" r="3.4" fill="#F97316" opacity="0.45"/><circle cx="47.4" cy="68.6" r="3.6" fill="#F97316" opacity="0.45"/><circle cx="779.6" cy="68.6" r="3.7" fill="#F97316" opacity="0.45"/></g>
<g opacity="0.215" filter="url(#softGlow)"><path d="M 862.2,78.0 L 30.8,78.0 L 30.8,1547.1 L 43.0,1547.1 L 43.0,1434.4 " fill="none" stroke="url(#strokeB)" stroke-width="1.66" stroke-linecap="round" stroke-linejoin="round"/><circle cx="30.8" cy="1547.1" r="3.0" fill="#F97316" opacity="0.45"/><circle cx="30.8" cy="78.0" r="3.9" fill="#F97316" opacity="0.45"/><circle cx="43.0" cy="1434.4" r="2.1" fill="#F97316" opacity="0.45"/></g>
<g opacity="0.215" filter="url(#softGlow)"><path d="M 829.0,862.0 L 802.9,862.0 L 802.9,69.2 L 836.5,69.2 L 836.5,1502.1 " fill="none" stroke="url(#strokeB)" stroke-width="1.95" stroke-linecap="round" stroke-linejoin="round"/><circle cx="836.5" cy="1502.1" r="3.8" fill="#F97316" opacity="0.45"/><circle cx="802.9" cy="862.0" r="3.1" fill="#F97316" opacity="0.45"/><circle cx="836.5" cy="69.2" r="3.7" fill="#F97316" opacity="0.45"/></g>
<g opacity="0.215" filter="url(#softGlow)"><path d="M 55.1,132.7 L 1.3,132.7 L 1.3,1588.9 L 742.5,1588.9 L 742.5,1487.3 " fill="none" stroke="url(#strokeB)" stroke-width="1.96" stroke-linecap="round" stroke-linejoin="round"/><circle cx="1.3" cy="1588.9" r="2.8" fill="#F97316" opacity="0.45"/><circle cx="1.3" cy="132.7" r="2.5" fill="#F97316" opacity="0.45"/><circle cx="742.5" cy="1588.9" r="2.3" fill="#F97316" opacity="0.45"/></g>
<g opacity="0.215" filter="url(#softGlow)"><path d="M 176.2,20.1 L 94.6,20.1 L 94.6,1011.9 L 825.2,1011.9 L 825.2,1066.7 " fill="none" stroke="url(#strokeB)" stroke-width="1.91" stroke-linecap="round" stroke-linejoin="round"/><circle cx="94.6" cy="1011.9" r="3.4" fill="#F97316" opacity="0.45"/><circle cx="825.2" cy="1066.7" r="3.9" fill="#F97316" opacity="0.45"/><circle cx="94.6" cy="20.1" r="3.8" fill="#F97316" opacity="0.45"/></g>
<g opacity="0.215" filter="url(#softGlow)"><path d="M 565.2,1494.6 L 465.1,1494.6 L 465.1,1504.6 L 808.9,1504.6 L 808.9,1486.7 " fill="none" stroke="url(#strokeB)" stroke-width="1.81" stroke-linecap="round" stroke-linejoin="round"/><circle cx="808.9" cy="1486.7" r="3.1" fill="#F97316" opacity="0.45"/><circle cx="565.2" cy="1494.6" r="3.6" fill="#F97316" opacity="0.45"/><circle cx="808.9" cy="1504.6" r="2.4" fill="#F97316" opacity="0.45"/></g>
<g opacity="0.215" filter="url(#softGlow)"><path d="M 834.3,168.5 L 33.5,168.5 L 33.5,1493.3 L 17.1,1493.3 L 17.1,40.6 " fill="none" stroke="url(#strokeB)" stroke-width="1.52" stroke-linecap="round" stroke-linejoin="round"/><circle cx="17.1" cy="1493.3" r="3.0" fill="#F97316" opacity="0.45"/><circle cx="33.5" cy="168.5" r="3.8" fill="#F97316" opacity="0.45"/><circle cx="834.3" cy="168.5" r="3.9" fill="#F97316" opacity="0.45"/></g>
<g opacity="0.215" filter="url(#softGlow)"><path d="M 432.3,176.9 L 111.6,176.9 L 111.6,61.7 L 763.9,61.7 L 763.9,1454.7 " fill="none" stroke="url(#strokeB)" stroke-width="1.94" stroke-linecap="round" stroke-linejoin="round"/><circle cx="111.6" cy="176.9" r="2.8" fill="#F97316" opacity="0.45"/><circle cx="763.9" cy="61.7" r="3.6" fill="#F97316" opacity="0.45"/><circle cx="111.6" cy="61.7" r="4.0" fill="#F97316" opacity="0.45"/></g>
<g opacity="0.215" filter="url(#softGlow)"><path d="M 177.0,1554.9 L 18.3,1554.9 L 18.3,166.7 L 853.8,166.7 L 853.8,135.6 " fill="none" stroke="url(#strokeB)" stroke-width="2.16" stroke-linecap="round" stroke-linejoin="round"/><circle cx="853.8" cy="166.7" r="3.2" fill="#F97316" opacity="0.45"/><circle cx="18.3" cy="1554.9" r="2.6" fill="#F97316" opacity="0.45"/><circle cx="177.0" cy="1554.9" r="2.7" fill="#F97316" opacity="0.45"/></g>

<g opacity="0.779" filter="url(#hardGlow)">
  <circle cx="803.0" cy="1560.8" r="40.3" fill="#0A1224" opacity="0.65"/>
  <circle cx="803.0" cy="1560.8" r="40.3" fill="none" stroke="url(#strokeA)" stroke-width="3.2" opacity="0.85"/>
  <circle cx="803.0" cy="1560.8" r="34.7" fill="none" stroke="#06B6D4" stroke-width="1.5" opacity="0.35"/>
  <polygon points="791.2,1534.2 820.1,1537.3 831.9,1563.8 814.8,1587.3 785.9,1584.3 774.1,1557.7" fill="none" stroke="url(#strokeB)" stroke-width="1.2" opacity="0.65"/>
  <polygon points="802.3,1550.6 812.1,1565.2 794.6,1566.5" fill="#06B6D4" opacity="0.22" filter="url(#softGlow)"/>
</g>


<g opacity="0.514" filter="url(#hardGlow)">
  <circle cx="774.2" cy="1559.1" r="21.0" fill="#0A1224" opacity="0.65"/>
  <circle cx="774.2" cy="1559.1" r="21.0" fill="none" stroke="url(#strokeA)" stroke-width="2.0" opacity="0.85"/>
  <circle cx="774.2" cy="1559.1" r="18.1" fill="none" stroke="#F97316" stroke-width="1.5" opacity="0.35"/>
  <polygon points="786.0,1568.6 771.9,1574.0 760.1,1564.5 762.4,1549.6 776.5,1544.2 788.3,1553.6" fill="none" stroke="url(#strokeB)" stroke-width="1.2" opacity="0.65"/>
  
</g>


<g opacity="0.622" filter="url(#hardGlow)">
  <circle cx="791.5" cy="1608.7" r="18.5" fill="#0A1224" opacity="0.65"/>
  <circle cx="791.5" cy="1608.7" r="18.5" fill="none" stroke="url(#strokeA)" stroke-width="2.0" opacity="0.85"/>
  <circle cx="791.5" cy="1608.7" r="15.9" fill="none" stroke="#F97316" stroke-width="1.5" opacity="0.35"/>
  <polygon points="790.7,1622.0 779.6,1614.7 780.3,1601.4 792.2,1595.4 803.4,1602.7 802.6,1616.0" fill="none" stroke="url(#strokeB)" stroke-width="1.2" opacity="0.65"/>
  <polygon points="789.6,1613.0 788.7,1605.0 796.1,1608.1" fill="#F97316" opacity="0.22" filter="url(#softGlow)"/>
</g>


<g opacity="0.615" filter="url(#hardGlow)">
  <circle cx="847.2" cy="1556.6" r="18.0" fill="#0A1224" opacity="0.65"/>
  <circle cx="847.2" cy="1556.6" r="18.0" fill="none" stroke="url(#strokeA)" stroke-width="2.0" opacity="0.85"/>
  <circle cx="847.2" cy="1556.6" r="15.5" fill="none" stroke="#F97316" stroke-width="1.5" opacity="0.35"/>
  <polygon points="859.0,1562.0 848.4,1569.5 836.6,1564.0 835.4,1551.1 846.0,1543.7 857.8,1549.1" fill="none" stroke="url(#strokeB)" stroke-width="1.2" opacity="0.65"/>
  <polygon points="850.4,1559.8 842.8,1557.8 848.3,1552.2" fill="#F97316" opacity="0.22" filter="url(#softGlow)"/>
</g>


<g opacity="0.720" filter="url(#hardGlow)">
  <circle cx="68.0" cy="734.4" r="46.5" fill="#0A1224" opacity="0.65"/>
  <circle cx="68.0" cy="734.4" r="46.5" fill="none" stroke="url(#strokeA)" stroke-width="3.7" opacity="0.85"/>
  <circle cx="68.0" cy="734.4" r="40.0" fill="none" stroke="#06B6D4" stroke-width="1.5" opacity="0.35"/>
  <polygon points="40.1,716.1 70.0,701.0 97.9,719.4 96.0,752.8 66.1,767.9 38.1,749.5" fill="none" stroke="url(#strokeB)" stroke-width="1.2" opacity="0.65"/>
  <polygon points="61.0,725.1 79.7,733.1 63.4,745.2" fill="#06B6D4" opacity="0.22" filter="url(#softGlow)"/>
</g>


<g opacity="0.648" filter="url(#hardGlow)">
  <circle cx="116.2" cy="750.2" r="22.2" fill="#0A1224" opacity="0.65"/>
  <circle cx="116.2" cy="750.2" r="22.2" fill="none" stroke="url(#strokeA)" stroke-width="2.0" opacity="0.85"/>
  <circle cx="116.2" cy="750.2" r="19.1" fill="none" stroke="#F97316" stroke-width="1.5" opacity="0.35"/>
  <polygon points="107.3,763.5 100.3,749.1 109.2,735.9 125.1,737.0 132.2,751.3 123.2,764.6" fill="none" stroke="url(#strokeB)" stroke-width="1.2" opacity="0.65"/>
  <polygon points="111.7,753.5 115.6,744.7 121.3,752.5" fill="#F97316" opacity="0.22" filter="url(#softGlow)"/>
</g>


<g opacity="0.520" filter="url(#hardGlow)">
  <circle cx="113.6" cy="765.0" r="17.2" fill="#0A1224" opacity="0.65"/>
  <circle cx="113.6" cy="765.0" r="17.2" fill="none" stroke="url(#strokeA)" stroke-width="2.0" opacity="0.85"/>
  <circle cx="113.6" cy="765.0" r="14.8" fill="none" stroke="#F97316" stroke-width="1.5" opacity="0.35"/>
  <polygon points="106.6,754.9 118.9,753.9 126.0,764.0 120.7,775.2 108.3,776.2 101.3,766.0" fill="none" stroke="url(#strokeB)" stroke-width="1.2" opacity="0.65"/>
  
</g>


<g opacity="0.483" filter="url(#hardGlow)">
  <circle cx="76.6" cy="730.8" r="19.1" fill="#0A1224" opacity="0.65"/>
  <circle cx="76.6" cy="730.8" r="19.1" fill="none" stroke="url(#strokeA)" stroke-width="2.0" opacity="0.85"/>
  <circle cx="76.6" cy="730.8" r="16.4" fill="none" stroke="#F97316" stroke-width="1.5" opacity="0.35"/>
  <polygon points="69.1,719.2 82.9,718.5 90.3,730.1 84.1,742.3 70.3,743.0 62.9,731.5" fill="none" stroke="url(#strokeB)" stroke-width="1.2" opacity="0.65"/>
  <polygon points="75.5,726.1 81.2,732.2 73.1,734.0" fill="#F97316" opacity="0.22" filter="url(#softGlow)"/>
</g>


<g opacity="0.719" filter="url(#hardGlow)">
  <circle cx="824.5" cy="1462.0" r="50.5" fill="#0A1224" opacity="0.65"/>
  <circle cx="824.5" cy="1462.0" r="50.5" fill="none" stroke="url(#strokeA)" stroke-width="4.0" opacity="0.85"/>
  <circle cx="824.5" cy="1462.0" r="43.4" fill="none" stroke="#06B6D4" stroke-width="1.5" opacity="0.35"/>
  <polygon points="847.4,1490.3 811.5,1495.9 788.6,1467.7 801.7,1433.7 837.6,1428.1 860.4,1456.3" fill="none" stroke="url(#strokeB)" stroke-width="1.3" opacity="0.65"/>
  <polygon points="828.6,1474.0 812.0,1459.6 832.9,1452.4" fill="#06B6D4" opacity="0.22" filter="url(#softGlow)"/>
</g>


<g opacity="0.551" filter="url(#hardGlow)">
  <circle cx="830.9" cy="1421.4" r="26.9" fill="#0A1224" opacity="0.65"/>
  <circle cx="830.9" cy="1421.4" r="26.9" fill="none" stroke="url(#strokeA)" stroke-width="2.2" opacity="0.85"/>
  <circle cx="830.9" cy="1421.4" r="23.1" fill="none" stroke="#F97316" stroke-width="1.5" opacity="0.35"/>
  <polygon points="829.2,1440.7 813.3,1429.6 815.1,1410.3 832.7,1402.2 848.5,1413.3 846.8,1432.6" fill="none" stroke="url(#strokeB)" stroke-width="1.2" opacity="0.65"/>
  <polygon points="828.0,1427.6 827.1,1415.9 837.7,1420.9" fill="#F97316" opacity="0.22" filter="url(#softGlow)"/>
</g>


<g opacity="0.431" filter="url(#hardGlow)">
  <circle cx="859.7" cy="1412.1" r="20.4" fill="#0A1224" opacity="0.65"/>
  <circle cx="859.7" cy="1412.1" r="20.4" fill="none" stroke="url(#strokeA)" stroke-width="2.0" opacity="0.85"/>
  <circle cx="859.7" cy="1412.1" r="17.5" fill="none" stroke="#F97316" stroke-width="1.5" opacity="0.35"/>
  <polygon points="847.1,1419.6 846.9,1404.9 859.6,1397.4 872.3,1404.7 872.5,1419.3 859.8,1426.8" fill="none" stroke="url(#strokeB)" stroke-width="1.2" opacity="0.65"/>
  
</g>


<g opacity="0.781" filter="url(#hardGlow)">
  <circle cx="528.1" cy="1530.2" r="46.8" fill="#0A1224" opacity="0.65"/>
  <circle cx="528.1" cy="1530.2" r="46.8" fill="none" stroke="url(#strokeA)" stroke-width="3.7" opacity="0.85"/>
  <circle cx="528.1" cy="1530.2" r="40.3" fill="none" stroke="#06B6D4" stroke-width="1.5" opacity="0.35"/>
  <polygon points="494.4,1528.1 513.1,1500.0 546.7,1502.1 561.7,1532.3 543.1,1560.3 509.4,1558.2" fill="none" stroke="url(#strokeB)" stroke-width="1.2" opacity="0.65"/>
  <polygon points="517.3,1525.4 537.6,1523.2 529.4,1541.9" fill="#06B6D4" opacity="0.22" filter="url(#softGlow)"/>
</g>


<g opacity="0.499" filter="url(#hardGlow)">
  <circle cx="470.9" cy="1519.6" r="22.6" fill="#0A1224" opacity="0.65"/>
  <circle cx="470.9" cy="1519.6" r="22.6" fill="none" stroke="url(#strokeA)" stroke-width="2.0" opacity="0.85"/>
  <circle cx="470.9" cy="1519.6" r="19.5" fill="none" stroke="#F97316" stroke-width="1.5" opacity="0.35"/>
  <polygon points="474.4,1535.5 458.8,1530.6 455.3,1514.7 467.4,1503.7 482.9,1508.6 486.4,1524.5" fill="none" stroke="url(#strokeB)" stroke-width="1.2" opacity="0.65"/>
  
</g>


<g opacity="0.549" filter="url(#hardGlow)">
  <circle cx="596.8" cy="1486.3" r="21.1" fill="#0A1224" opacity="0.65"/>
  <circle cx="596.8" cy="1486.3" r="21.1" fill="none" stroke="url(#strokeA)" stroke-width="2.0" opacity="0.85"/>
  <circle cx="596.8" cy="1486.3" r="18.2" fill="none" stroke="#F97316" stroke-width="1.5" opacity="0.35"/>
  <polygon points="602.2,1472.1 611.8,1483.9 606.4,1498.1 591.3,1500.5 581.8,1488.7 587.2,1474.5" fill="none" stroke="url(#strokeB)" stroke-width="1.2" opacity="0.65"/>
  
</g>


<g opacity="0.600" filter="url(#hardGlow)">
  <circle cx="521.6" cy="1573.3" r="18.1" fill="#0A1224" opacity="0.65"/>
  <circle cx="521.6" cy="1573.3" r="18.1" fill="none" stroke="url(#strokeA)" stroke-width="2.0" opacity="0.85"/>
  <circle cx="521.6" cy="1573.3" r="15.5" fill="none" stroke="#F97316" stroke-width="1.5" opacity="0.35"/>
  <polygon points="508.6,1573.8 514.7,1562.3 527.7,1561.8 534.6,1572.9 528.5,1584.4 515.5,1584.8" fill="none" stroke="url(#strokeB)" stroke-width="1.2" opacity="0.65"/>
  
</g>


<g opacity="0.329" transform="translate(792.0,429.5) rotate(-5.8)" filter="url(#softGlow)">
  <rect x="-73.0" y="-59.6" width="146.0" height="119.2" rx="11.9" fill="#050A12" opacity="0.25"/>
  <rect x="-73.0" y="-59.6" width="146.0" height="119.2" rx="11.9" fill="none" stroke="url(#strokeA)" stroke-width="6.0" opacity="0.85"/>
  <rect x="-63.5" y="-50.1" width="126.9" height="100.1" rx="8.3" fill="none" stroke="#F97316" stroke-width="2.4" opacity="0.35"/>
</g>


<g opacity="0.276" transform="translate(866.6,1506.1) rotate(8.7)" filter="url(#softGlow)">
  <rect x="-84.3" y="-79.4" width="168.6" height="158.7" rx="15.9" fill="#050A12" opacity="0.25"/>
  <rect x="-84.3" y="-79.4" width="168.6" height="158.7" rx="15.9" fill="none" stroke="url(#strokeA)" stroke-width="7.9" opacity="0.85"/>
  <rect x="-71.6" y="-66.7" width="143.2" height="133.3" rx="11.1" fill="none" stroke="#F97316" stroke-width="3.2" opacity="0.35"/>
</g>


<g opacity="0.396" transform="translate(802.3,764.0) rotate(9.4)" filter="url(#softGlow)">
  <rect x="-85.9" y="-64.6" width="171.8" height="129.2" rx="12.9" fill="#050A12" opacity="0.25"/>
  <rect x="-85.9" y="-64.6" width="171.8" height="129.2" rx="12.9" fill="none" stroke="url(#strokeA)" stroke-width="6.5" opacity="0.85"/>
  <rect x="-75.6" y="-54.2" width="151.2" height="108.5" rx="9.0" fill="none" stroke="#06B6D4" stroke-width="2.6" opacity="0.35"/>
</g>


<g opacity="0.417" transform="translate(816.1,139.2) rotate(-11.7)" filter="url(#softGlow)">
  <rect x="-29.4" y="-16.9" width="58.7" height="33.8" rx="10.3" fill="none" stroke="#06B6D4" stroke-width="5.6" opacity="0.55"/>
  <rect x="-12.9" y="-8.5" width="58.7" height="33.8" rx="10.3" fill="none" stroke="url(#strokeA)" stroke-width="4.7" opacity="0.55"/>
</g>


<g opacity="0.267" transform="translate(782.4,1497.5) rotate(-0.3)" filter="url(#softGlow)">
  <rect x="-48.9" y="-28.2" width="97.9" height="56.4" rx="17.2" fill="none" stroke="#F97316" stroke-width="9.4" opacity="0.55"/>
  <rect x="-21.5" y="-14.1" width="97.9" height="56.4" rx="17.2" fill="none" stroke="url(#strokeA)" stroke-width="7.8" opacity="0.55"/>
</g>


<g opacity="0.343" transform="translate(858.1,162.3) rotate(5.3)" filter="url(#softGlow)">
  <rect x="-45.3" y="-26.1" width="90.5" height="52.1" rx="15.9" fill="none" stroke="#06B6D4" stroke-width="8.7" opacity="0.55"/>
  <rect x="-19.9" y="-13.0" width="90.5" height="52.1" rx="15.9" fill="none" stroke="url(#strokeA)" stroke-width="7.2" opacity="0.55"/>
</g>


<g opacity="0.364" transform="translate(97.2,1016.7) rotate(-14.2)" filter="url(#softGlow)">
  <rect x="-47.0" y="-27.1" width="94.0" height="54.1" rx="16.5" fill="none" stroke="#F97316" stroke-width="9.0" opacity="0.55"/>
  <rect x="-20.7" y="-13.5" width="94.0" height="54.1" rx="16.5" fill="none" stroke="url(#strokeA)" stroke-width="7.5" opacity="0.55"/>
</g>


<g opacity="0.429" transform="translate(128.6,64.3) rotate(-2.4)" filter="url(#softGlow)">
  <rect x="-45.0" y="-25.9" width="90.1" height="51.9" rx="15.9" fill="none" stroke="#F97316" stroke-width="8.6" opacity="0.55"/>
  <rect x="-19.8" y="-13.0" width="90.1" height="51.9" rx="15.9" fill="none" stroke="url(#strokeA)" stroke-width="7.2" opacity="0.55"/>
</g>


<g opacity="0.261" transform="translate(12.5,64.8) rotate(3.3)" filter="url(#softGlow)">
  <rect x="-31.9" y="-18.4" width="63.8" height="36.8" rx="11.2" fill="none" stroke="#A3E635" stroke-width="6.1" opacity="0.55"/>
  <rect x="-14.0" y="-9.2" width="63.8" height="36.8" rx="11.2" fill="none" stroke="url(#strokeA)" stroke-width="5.1" opacity="0.55"/>
</g>


<g opacity="0.457" transform="translate(102.9,77.2) rotate(-13.1)" filter="url(#softGlow)">
  <rect x="-50.1" y="-28.9" width="100.3" height="57.8" rx="17.6" fill="none" stroke="#A3E635" stroke-width="9.6" opacity="0.55"/>
  <rect x="-22.1" y="-14.4" width="100.3" height="57.8" rx="17.6" fill="none" stroke="url(#strokeA)" stroke-width="8.0" opacity="0.55"/>
</g>


<g opacity="0.248" transform="translate(186.6,11.9) rotate(-10.8)" filter="url(#softGlow)">
  <rect x="-40.3" y="-23.2" width="80.6" height="46.4" rx="14.2" fill="none" stroke="#F97316" stroke-width="7.7" opacity="0.55"/>
  <rect x="-17.7" y="-11.6" width="80.6" height="46.4" rx="14.2" fill="none" stroke="url(#strokeA)" stroke-width="6.5" opacity="0.55"/>
</g>


<g opacity="0.398" transform="translate(121.8,1463.5) rotate(-13.8)" filter="url(#softGlow)">
  <rect x="-42.6" y="-24.5" width="85.1" height="49.0" rx="15.0" fill="none" stroke="#F97316" stroke-width="8.2" opacity="0.55"/>
  <rect x="-18.7" y="-12.3" width="85.1" height="49.0" rx="15.0" fill="none" stroke="url(#strokeA)" stroke-width="6.8" opacity="0.55"/>
</g>


<g opacity="0.298" transform="translate(691.9,1471.9) rotate(-16.4)" filter="url(#softGlow)">
  <rect x="-42.2" y="-24.3" width="84.4" height="48.6" rx="14.9" fill="none" stroke="#06B6D4" stroke-width="8.1" opacity="0.55"/>
  <rect x="-18.6" y="-12.2" width="84.4" height="48.6" rx="14.9" fill="none" stroke="url(#strokeA)" stroke-width="6.8" opacity="0.55"/>
</g>


<g opacity="0.219">
  <line x1="40.6" y1="1426.9" x2="40.6" y2="1496.1" stroke="#F97316" stroke-width="2.15" opacity="0.45"/>
  <rect x="34.9" y="1470.7" width="11.4" height="23.1" rx="3.8" fill="#0B1020" opacity="0.55" stroke="url(#strokeA)" stroke-width="1.2"/>
</g>

<g opacity="0.219">
  <line x1="371.0" y1="1417.9" x2="371.0" y2="1498.3" stroke="#F97316" stroke-width="1.05" opacity="0.45"/>
  <rect x="366.9" y="1455.4" width="8.2" height="53.7" rx="2.7" fill="#0B1020" opacity="0.55" stroke="url(#strokeA)" stroke-width="1.2"/>
</g>

<g opacity="0.219">
  <line x1="46.2" y1="1421.7" x2="46.2" y2="1497.4" stroke="#F97316" stroke-width="1.30" opacity="0.45"/>
  <rect x="41.1" y="1467.9" width="10.2" height="28.6" rx="3.4" fill="#0B1020" opacity="0.55" stroke="url(#strokeA)" stroke-width="1.2"/>
</g>

<g opacity="0.219">
  <line x1="9.3" y1="1437.3" x2="9.3" y2="1493.5" stroke="#F97316" stroke-width="1.59" opacity="0.45"/>
  <rect x="5.4" y="1468.0" width="7.8" height="28.6" rx="2.6" fill="#0B1020" opacity="0.55" stroke="url(#strokeA)" stroke-width="1.2"/>
</g>

<g opacity="0.219">
  <line x1="731.9" y1="1409.4" x2="731.9" y2="1500.4" stroke="#F97316" stroke-width="1.90" opacity="0.45"/>
  <rect x="728.9" y="1457.7" width="6.1" height="49.1" rx="2.0" fill="#0B1020" opacity="0.55" stroke="url(#strokeA)" stroke-width="1.2"/>
</g>

<g opacity="0.219">
  <line x1="168.4" y1="1413.7" x2="168.4" y2="1499.4" stroke="#F97316" stroke-width="2.09" opacity="0.45"/>
  <rect x="164.9" y="1457.5" width="7.0" height="49.4" rx="2.3" fill="#0B1020" opacity="0.55" stroke="url(#strokeA)" stroke-width="1.2"/>
</g>

<g opacity="0.219">
  <line x1="663.6" y1="1434.0" x2="663.6" y2="1494.3" stroke="#F97316" stroke-width="1.29" opacity="0.45"/>
  <rect x="658.2" y="1466.1" width="10.8" height="32.2" rx="3.6" fill="#0B1020" opacity="0.55" stroke="url(#strokeA)" stroke-width="1.2"/>
</g>

<g opacity="0.219">
  <line x1="79.2" y1="1418.0" x2="79.2" y2="1498.3" stroke="#F97316" stroke-width="1.65" opacity="0.45"/>
  <rect x="73.9" y="1467.9" width="10.6" height="28.7" rx="3.5" fill="#0B1020" opacity="0.55" stroke="url(#strokeA)" stroke-width="1.2"/>
</g>

<g opacity="0.219">
  <line x1="43.3" y1="1405.1" x2="43.3" y2="1501.5" stroke="#F97316" stroke-width="1.26" opacity="0.45"/>
  <rect x="39.1" y="1460.6" width="8.5" height="43.3" rx="2.8" fill="#0B1020" opacity="0.55" stroke="url(#strokeA)" stroke-width="1.2"/>
</g>

<g opacity="0.219">
  <line x1="634.6" y1="1414.6" x2="634.6" y2="1499.1" stroke="#F97316" stroke-width="1.60" opacity="0.45"/>
  <rect x="629.5" y="1465.9" width="10.0" height="32.7" rx="3.3" fill="#0B1020" opacity="0.55" stroke="url(#strokeA)" stroke-width="1.2"/>
</g>

<g opacity="0.219">
  <line x1="861.9" y1="1393.6" x2="861.9" y2="1504.4" stroke="#F97316" stroke-width="1.28" opacity="0.45"/>
  <rect x="857.7" y="1456.8" width="8.5" height="50.9" rx="2.8" fill="#0B1020" opacity="0.55" stroke="url(#strokeA)" stroke-width="1.2"/>
</g>

<g opacity="0.219">
  <line x1="192.9" y1="1414.4" x2="192.9" y2="1499.2" stroke="#F97316" stroke-width="1.30" opacity="0.45"/>
  <rect x="188.9" y="1461.8" width="7.9" height="40.8" rx="2.6" fill="#0B1020" opacity="0.55" stroke="url(#strokeA)" stroke-width="1.2"/>
</g>

<g opacity="0.219">
  <line x1="128.5" y1="1407.8" x2="128.5" y2="1500.8" stroke="#F97316" stroke-width="1.44" opacity="0.45"/>
  <rect x="124.2" y="1456.7" width="8.6" height="51.0" rx="2.9" fill="#0B1020" opacity="0.55" stroke="url(#strokeA)" stroke-width="1.2"/>
</g>
<circle cx="199.6" cy="12.6" r="1.3" fill="#06B6D4" opacity="0.26" filter="url(#softGlow)"/>
<circle cx="110.0" cy="55.2" r="1.6" fill="#06B6D4" opacity="0.23" filter="url(#softGlow)"/>
<circle cx="870.4" cy="119.8" r="1.4" fill="#06B6D4" opacity="0.17" filter="url(#softGlow)"/>
<circle cx="881.1" cy="1396.2" r="2.0" fill="#06B6D4" opacity="0.26" filter="url(#softGlow)"/>
<circle cx="507.5" cy="1442.4" r="2.3" fill="#06B6D4" opacity="0.23" filter="url(#softGlow)"/>
<circle cx="639.3" cy="38.8" r="2.1" fill="#06B6D4" opacity="0.17" filter="url(#softGlow)"/>
<circle cx="892.6" cy="1576.1" r="2.6" fill="#06B6D4" opacity="0.20" filter="url(#softGlow)"/>
<circle cx="144.5" cy="1594.0" r="2.8" fill="#06B6D4" opacity="0.21" filter="url(#softGlow)"/>
<circle cx="27.8" cy="107.7" r="3.1" fill="#06B6D4" opacity="0.25" filter="url(#softGlow)"/>
<circle cx="128.3" cy="1451.2" r="2.1" fill="#06B6D4" opacity="0.26" filter="url(#softGlow)"/>
<circle cx="54.5" cy="79.2" r="1.9" fill="#06B6D4" opacity="0.25" filter="url(#softGlow)"/>
<circle cx="156.1" cy="110.9" r="2.4" fill="#06B6D4" opacity="0.25" filter="url(#softGlow)"/>
<circle cx="193.5" cy="1597.6" r="2.9" fill="#06B6D4" opacity="0.24" filter="url(#softGlow)"/>
<circle cx="875.5" cy="616.4" r="2.0" fill="#06B6D4" opacity="0.16" filter="url(#softGlow)"/>
<circle cx="63.4" cy="1451.8" r="1.5" fill="#06B6D4" opacity="0.20" filter="url(#softGlow)"/>
<circle cx="764.7" cy="1531.6" r="2.9" fill="#06B6D4" opacity="0.23" filter="url(#softGlow)"/>
<circle cx="167.1" cy="1572.0" r="1.3" fill="#06B6D4" opacity="0.22" filter="url(#softGlow)"/>
<circle cx="168.2" cy="1556.3" r="2.7" fill="#06B6D4" opacity="0.25" filter="url(#softGlow)"/>
<circle cx="150.8" cy="1482.7" r="1.5" fill="#06B6D4" opacity="0.23" filter="url(#softGlow)"/>
<circle cx="803.9" cy="1299.7" r="2.4" fill="#06B6D4" opacity="0.17" filter="url(#softGlow)"/>
<circle cx="383.7" cy="68.3" r="2.2" fill="#06B6D4" opacity="0.16" filter="url(#softGlow)"/>
<circle cx="100.1" cy="45.8" r="1.4" fill="#06B6D4" opacity="0.16" filter="url(#softGlow)"/>
<circle cx="726.0" cy="1472.6" r="2.3" fill="#06B6D4" opacity="0.23" filter="url(#softGlow)"/>
</svg>