<svg xmlns="http://www.w3.org/2000/svg" width="900" height="1600" viewBox="0 0 900 1600" preserveAspectRatio="xMidYMid slice">
<defs>
  <linearGradient id="g0" x1="0" y1="0" x2="1" y2="1">
    <stop offset="0" stop-color="#0B1020"/>
    <stop offset="0.55" stop-color="#E11D48" stop-opacity="0.9"/>
    <stop offset="1" stop-color="#020617"/>
  </linearGradient>
  <radialGradient id="g1" cx="20%" cy="15%" r="70%">
    <stop offset="0" stop-color="#7C3AED" stop-opacity="0.38"/>
    <stop offset="0.6" stop-color="#7C3AED" stop-opacity="0.08"/>
    <stop offset="1" stop-color="#7C3AED" stop-opacity="0"/>
  </radialGradient>
  <radialGradient id="g2" cx="85%" cy="80%" r="75%">
    <stop offset="0" stop-color="#7C3AED" stop-opacity="0.28"/>
    <stop offset="0.65" stop-color="#7C3AED" stop-opacity="0.06"/>
    <stop offset="1" stop-color="#7C3AED" stop-opacity="0"/>
  </radialGradient>
  <filter id="softGlow" x="-30%" y="-30%" width="160%" height="160%">
    <feGaussianBlur stdDeviation="12" result="b"/>
    <feMerge>
      <feMergeNode in="b"/>
      <feMergeNode in="SourceGraphic"/>
    </feMerge>
  </filter>
  <filter id="hardGlow" x="-40%" y="-40%" width="180%" height="180%">
    <feGaussianBlur stdDeviation="6" result="b"/>
    <feColorMatrix in="b" type="matrix" values="1 0 0 0 0  0 1 0 0 0  0 0 1 0 0  0 0 0 18 -7" result="c"/>
    <feMerge>
      <feMergeNode in="c"/>
      <feMergeNode in="SourceGraphic"/>
    </feMerge>
  </filter>
  <linearGradient id="strokeA" x1="0" y1="0" x2="1" y2="0">
    <stop offset="0" stop-color="#7C3AED" stop-opacity="0.9"/>
    <stop offset="0.5" stop-color="#FFFFFF" stop-opacity="0.25"/>
    <stop offset="1" stop-color="#7C3AED" stop-opacity="0.7"/>
  </linearGradient>
  <linearGradient id="strokeB" x1="0" y1="0" x2="0" y2="1">
    <stop offset="0" stop-color="#FFFFFF" stop-opacity="0.18"/>
    <stop offset="1" stop-color="#7C3AED" stop-opacity="0.55"/>
  </linearGradient>
</defs>
<rect x="0" y="0" width="900" height="1600" fill="url(#g0)"/>
<rect x="0" y="0" width="900" height="1600" fill="url(#g1)"/>
<rect x="0" y="0" width="900" height="1600" fill="url(#g2)"/>


<defs>
  <radialGradient id="vign" cx="0.5000" cy="0.5000" r="0.85">
    <stop offset="0" stop-color="#000000" stop-opacity="0"/>
    <stop offset="0.55" stop-color="#000000" stop-opacity="0.217"/>
    <stop offset="1" stop-color="#000000" stop-opacity="0.620"/>
  </radialGradient>
</defs>
<rect x="0" y="0" width="900" height="1600" fill="url(#vign)"/>

<g opacity="0.244" filter="url(#softGlow)"><path d="M 813.0,166.8 L 607.8,166.8 L 607.8,35.0 L 849.5,35.0 L 849.5,1455.5 " fill="none" stroke="url(#strokeB)" stroke-width="1.46" stroke-linecap="round" stroke-linejoin="round"/><circle cx="607.8" cy="35.0" r="3.6" fill="#E11D48" opacity="0.45"/><circle cx="813.0" cy="166.8" r="3.3" fill="#E11D48" opacity="0.45"/><circle cx="607.8" cy="166.8" r="3.9" fill="#E11D48" opacity="0.45"/></g>
<g opacity="0.244" filter="url(#softGlow)"><path d="M 867.3,1556.7 L 857.1,1556.7 L 857.1,1597.3 L 740.0,1597.3 L 740.0,1151.9 " fill="none" stroke="url(#strokeB)" stroke-width="1.25" stroke-linecap="round" stroke-linejoin="round"/><circle cx="740.0" cy="1151.9" r="3.2" fill="#E11D48" opacity="0.45"/><circle cx="857.1" cy="1597.3" r="3.9" fill="#E11D48" opacity="0.45"/><circle cx="857.1" cy="1556.7" r="2.7" fill="#E11D48" opacity="0.45"/></g>
<g opacity="0.244" filter="url(#softGlow)"><path d="M 770.4,630.7 L 896.1,630.7 L 896.1,112.8 L 790.9,112.8 L 790.9,484.4 " fill="none" stroke="url(#strokeB)" stroke-width="1.15" stroke-linecap="round" stroke-linejoin="round"/><circle cx="896.1" cy="630.7" r="3.7" fill="#E11D48" opacity="0.45"/><circle cx="770.4" cy="630.7" r="3.9" fill="#E11D48" opacity="0.45"/><circle cx="896.1" cy="112.8" r="4.2" fill="#E11D48" opacity="0.45"/></g>
<g opacity="0.244" filter="url(#softGlow)"><path d="M 94.4,1285.6 L 893.5,1285.6 L 893.5,471.3 L 771.7,471.3 L 771.7,1549.8 " fill="none" stroke="url(#strokeB)" stroke-width="2.18" stroke-linecap="round" stroke-linejoin="round"/><circle cx="771.7" cy="471.3" r="2.5" fill="#E11D48" opacity="0.45"/><circle cx="771.7" cy="1549.8" r="2.0" fill="#E11D48" opacity="0.45"/><circle cx="893.5" cy="1285.6" r="3.2" fill="#E11D48" opacity="0.45"/></g>
<g opacity="0.244" filter="url(#softGlow)"><path d="M 890.2,1447.3 L 847.2,1447.3 L 847.2,1328.4 L 824.4,1328.4 L 824.4,91.6 " fill="none" stroke="url(#strokeB)" stroke-width="1.58" stroke-linecap="round" stroke-linejoin="round"/><circle cx="824.4" cy="1328.4" r="2.1" fill="#E11D48" opacity="0.45"/><circle cx="847.2" cy="1447.3" r="3.2" fill="#E11D48" opacity="0.45"/><circle cx="890.2" cy="1447.3" r="4.1" fill="#E11D48" opacity="0.45"/></g>
<g opacity="0.244" filter="url(#softGlow)"><path d="M 779.7,1564.1 L 55.8,1564.1 L 55.8,535.0 L 812.3,535.0 L 812.3,64.7 " fill="none" stroke="url(#strokeB)" stroke-width="1.76" stroke-linecap="round" stroke-linejoin="round"/><circle cx="55.8" cy="1564.1" r="3.1" fill="#E11D48" opacity="0.45"/><circle cx="779.7" cy="1564.1" r="2.3" fill="#E11D48" opacity="0.45"/><circle cx="812.3" cy="64.7" r="2.9" fill="#E11D48" opacity="0.45"/></g>
<g opacity="0.244" filter="url(#softGlow)"><path d="M 838.9,1526.1 L 746.1,1526.1 L 746.1,1518.4 L 158.3,1518.4 L 158.3,137.2 " fill="none" stroke="url(#strokeB)" stroke-width="1.96" stroke-linecap="round" stroke-linejoin="round"/><circle cx="158.3" cy="137.2" r="3.8" fill="#E11D48" opacity="0.45"/><circle cx="838.9" cy="1526.1" r="2.8" fill="#E11D48" opacity="0.45"/><circle cx="746.1" cy="1518.4" r="2.2" fill="#E11D48" opacity="0.45"/></g>
<g opacity="0.244" filter="url(#softGlow)"><path d="M 727.0,136.1 L 651.7,136.1 L 651.7,1444.5 L 72.9,1444.5 L 72.9,1423.1 " fill="none" stroke="url(#strokeB)" stroke-width="1.96" stroke-linecap="round" stroke-linejoin="round"/><circle cx="72.9" cy="1444.5" r="2.7" fill="#E11D48" opacity="0.45"/><circle cx="651.7" cy="136.1" r="3.6" fill="#E11D48" opacity="0.45"/><circle cx="72.9" cy="1423.1" r="3.0" fill="#E11D48" opacity="0.45"/></g>
<g opacity="0.244" filter="url(#softGlow)"><path d="M 146.3,1503.2 L 767.5,1503.2 L 767.5,869.1 L 172.0,869.1 L 172.0,1544.0 " fill="none" stroke="url(#strokeB)" stroke-width="1.44" stroke-linecap="round" stroke-linejoin="round"/><circle cx="172.0" cy="869.1" r="3.2" fill="#E11D48" opacity="0.45"/><circle cx="172.0" cy="1544.0" r="3.5" fill="#E11D48" opacity="0.45"/><circle cx="767.5" cy="869.1" r="3.1" fill="#E11D48" opacity="0.45"/></g>
<g opacity="0.244" filter="url(#softGlow)"><path d="M 45.4,1559.5 L 61.4,1559.5 L 61.4,1547.9 L 770.5,1547.9 L 770.5,491.7 " fill="none" stroke="url(#strokeB)" stroke-width="1.33" stroke-linecap="round" stroke-linejoin="round"/><circle cx="45.4" cy="1559.5" r="3.3" fill="#E11D48" opacity="0.45"/><circle cx="61.4" cy="1547.9" r="2.6" fill="#E11D48" opacity="0.45"/><circle cx="770.5" cy="491.7" r="3.8" fill="#E11D48" opacity="0.45"/></g>
<g opacity="0.244" filter="url(#softGlow)"><path d="M 650.1,1423.4 L 29.3,1423.4 L 29.3,1337.1 L 394.2,1337.1 L 394.2,64.0 " fill="none" stroke="url(#strokeB)" stroke-width="2.10" stroke-linecap="round" stroke-linejoin="round"/><circle cx="394.2" cy="1337.1" r="3.8" fill="#E11D48" opacity="0.45"/><circle cx="650.1" cy="1423.4" r="3.9" fill="#E11D48" opacity="0.45"/><circle cx="29.3" cy="1423.4" r="3.8" fill="#E11D48" opacity="0.45"/></g>
<g opacity="0.244" filter="url(#softGlow)"><path d="M 848.9,1580.0 L 10.8,1580.0 L 10.8,32.2 L 503.3,32.2 L 503.3,120.9 " fill="none" stroke="url(#strokeB)" stroke-width="1.41" stroke-linecap="round" stroke-linejoin="round"/><circle cx="10.8" cy="32.2" r="2.4" fill="#E11D48" opacity="0.45"/><circle cx="848.9" cy="1580.0" r="2.6" fill="#E11D48" opacity="0.45"/><circle cx="10.8" cy="1580.0" r="2.1" fill="#E11D48" opacity="0.45"/></g>
<g opacity="0.244" filter="url(#softGlow)"><path d="M 892.1,1526.3 L 801.6,1526.3 L 801.6,494.1 L 539.5,494.1 L 539.5,1456.3 " fill="none" stroke="url(#strokeB)" stroke-width="1.82" stroke-linecap="round" stroke-linejoin="round"/><circle cx="539.5" cy="494.1" r="2.0" fill="#E11D48" opacity="0.45"/><circle cx="539.5" cy="1456.3" r="3.1" fill="#E11D48" opacity="0.45"/><circle cx="801.6" cy="1526.3" r="2.2" fill="#E11D48" opacity="0.45"/></g>
<g opacity="0.244" filter="url(#softGlow)"><path d="M 121.5,1530.8 L 106.7,1530.8 L 106.7,1570.7 L 151.5,1570.7 L 151.5,100.8 " fill="none" stroke="url(#strokeB)" stroke-width="2.01" stroke-linecap="round" stroke-linejoin="round"/><circle cx="121.5" cy="1530.8" r="2.3" fill="#E11D48" opacity="0.45"/><circle cx="151.5" cy="100.8" r="2.2" fill="#E11D48" opacity="0.45"/><circle cx="106.7" cy="1530.8" r="3.6" fill="#E11D48" opacity="0.45"/></g>

<g opacity="0.752" filter="url(#hardGlow)">
  <circle cx="83.8" cy="1577.7" r="54.2" fill="#0A1224" opacity="0.65"/>
  <circle cx="83.8" cy="1577.7" r="54.2" fill="none" stroke="url(#strokeA)" stroke-width="4.3" opacity="0.85"/>
  <circle cx="83.8" cy="1577.7" r="46.7" fill="none" stroke="#7C3AED" stroke-width="1.6" opacity="0.35"/>
  <polygon points="100.9,1542.6 122.8,1575.0 105.7,1610.1 66.7,1612.8 44.8,1580.5 62.0,1545.4" fill="none" stroke="url(#strokeB)" stroke-width="1.4" opacity="0.65"/>
  <polygon points="93.6,1568.2 87.1,1591.0 70.7,1574.0" fill="#7C3AED" opacity="0.22" filter="url(#softGlow)"/>
</g>


<g opacity="0.512" filter="url(#hardGlow)">
  <circle cx="167.9" cy="1568.9" r="29.7" fill="#0A1224" opacity="0.65"/>
  <circle cx="167.9" cy="1568.9" r="29.7" fill="none" stroke="url(#strokeA)" stroke-width="2.4" opacity="0.85"/>
  <circle cx="167.9" cy="1568.9" r="25.5" fill="none" stroke="#E11D48" stroke-width="1.5" opacity="0.35"/>
  <polygon points="168.7,1547.6 186.8,1558.9 186.0,1580.3 167.0,1590.3 148.9,1578.9 149.8,1557.5" fill="none" stroke="url(#strokeB)" stroke-width="1.2" opacity="0.65"/>
  
</g>


<g opacity="0.605" filter="url(#hardGlow)">
  <circle cx="117.2" cy="1545.5" r="27.1" fill="#0A1224" opacity="0.65"/>
  <circle cx="117.2" cy="1545.5" r="27.1" fill="none" stroke="url(#strokeA)" stroke-width="2.2" opacity="0.85"/>
  <circle cx="117.2" cy="1545.5" r="23.3" fill="none" stroke="#E11D48" stroke-width="1.5" opacity="0.35"/>
  <polygon points="124.8,1563.5 105.5,1561.1 97.8,1543.1 109.6,1527.6 129.0,1529.9 136.6,1547.9" fill="none" stroke="url(#strokeB)" stroke-width="1.2" opacity="0.65"/>
  <polygon points="117.6,1552.3 111.1,1542.4 122.9,1541.8" fill="#E11D48" opacity="0.22" filter="url(#softGlow)"/>
</g>


<g opacity="0.530" filter="url(#hardGlow)">
  <circle cx="49.3" cy="1602.1" r="19.5" fill="#0A1224" opacity="0.65"/>
  <circle cx="49.3" cy="1602.1" r="19.5" fill="none" stroke="url(#strokeA)" stroke-width="2.0" opacity="0.85"/>
  <circle cx="49.3" cy="1602.1" r="16.8" fill="none" stroke="#E11D48" stroke-width="1.5" opacity="0.35"/>
  <polygon points="62.2,1607.7 50.9,1616.0 38.0,1610.4 36.4,1596.5 47.7,1588.1 60.6,1593.7" fill="none" stroke="url(#strokeB)" stroke-width="1.2" opacity="0.65"/>
  
</g>


<g opacity="0.803" filter="url(#hardGlow)">
  <circle cx="826.2" cy="1520.6" r="50.3" fill="#0A1224" opacity="0.65"/>
  <circle cx="826.2" cy="1520.6" r="50.3" fill="none" stroke="url(#strokeA)" stroke-width="4.0" opacity="0.85"/>
  <circle cx="826.2" cy="1520.6" r="43.2" fill="none" stroke="#7C3AED" stroke-width="1.5" opacity="0.35"/>
  <polygon points="847.2,1550.1 811.2,1553.5 790.2,1524.0 805.2,1491.1 841.3,1487.7 862.2,1517.2" fill="none" stroke="url(#strokeB)" stroke-width="1.3" opacity="0.65"/>
  <polygon points="829.6,1532.8 814.0,1517.4 835.1,1511.6" fill="#7C3AED" opacity="0.22" filter="url(#softGlow)"/>
</g>


<g opacity="0.499" filter="url(#hardGlow)">
  <circle cx="778.6" cy="1486.8" r="25.0" fill="#0A1224" opacity="0.65"/>
  <circle cx="778.6" cy="1486.8" r="25.0" fill="none" stroke="url(#strokeA)" stroke-width="2.0" opacity="0.85"/>
  <circle cx="778.6" cy="1486.8" r="21.5" fill="none" stroke="#E11D48" stroke-width="1.5" opacity="0.35"/>
  <polygon points="766.3,1499.9 761.2,1482.7 773.5,1469.6 791.0,1473.7 796.1,1490.9 783.8,1504.0" fill="none" stroke="url(#strokeB)" stroke-width="1.2" opacity="0.65"/>
  
</g>


<g opacity="0.601" filter="url(#hardGlow)">
  <circle cx="798.4" cy="1568.2" r="17.6" fill="#0A1224" opacity="0.65"/>
  <circle cx="798.4" cy="1568.2" r="17.6" fill="none" stroke="url(#strokeA)" stroke-width="2.0" opacity="0.85"/>
  <circle cx="798.4" cy="1568.2" r="15.2" fill="none" stroke="#E11D48" stroke-width="1.5" opacity="0.35"/>
  <polygon points="792.2,1579.3 785.7,1568.4 792.0,1557.3 804.6,1557.2 811.1,1568.1 804.9,1579.2" fill="none" stroke="url(#strokeB)" stroke-width="1.2" opacity="0.65"/>
  
</g>


<g opacity="0.533" filter="url(#hardGlow)">
  <circle cx="779.8" cy="1482.9" r="19.0" fill="#0A1224" opacity="0.65"/>
  <circle cx="779.8" cy="1482.9" r="19.0" fill="none" stroke="url(#strokeA)" stroke-width="2.0" opacity="0.85"/>
  <circle cx="779.8" cy="1482.9" r="16.4" fill="none" stroke="#E11D48" stroke-width="1.5" opacity="0.35"/>
  <polygon points="792.0,1489.1 780.6,1496.6 768.3,1490.4 767.6,1476.7 779.1,1469.2 791.3,1475.4" fill="none" stroke="url(#strokeB)" stroke-width="1.2" opacity="0.65"/>
  <polygon points="783.1,1486.4 775.2,1484.0 781.2,1478.3" fill="#E11D48" opacity="0.22" filter="url(#softGlow)"/>
</g>


<g opacity="0.689" filter="url(#hardGlow)">
  <circle cx="31.3" cy="377.1" r="42.8" fill="#0A1224" opacity="0.65"/>
  <circle cx="31.3" cy="377.1" r="42.8" fill="none" stroke="url(#strokeA)" stroke-width="3.4" opacity="0.85"/>
  <circle cx="31.3" cy="377.1" r="36.8" fill="none" stroke="#7C3AED" stroke-width="1.5" opacity="0.35"/>
  <polygon points="1.3,384.5 9.9,354.9 39.9,347.5 61.2,369.8 52.6,399.4 22.7,406.8" fill="none" stroke="url(#strokeB)" stroke-width="1.2" opacity="0.65"/>
  <polygon points="20.6,376.0 37.7,368.4 35.6,387.0" fill="#7C3AED" opacity="0.22" filter="url(#softGlow)"/>
</g>


<g opacity="0.503" filter="url(#hardGlow)">
  <circle cx="20.4" cy="350.3" r="15.8" fill="#0A1224" opacity="0.65"/>
  <circle cx="20.4" cy="350.3" r="15.8" fill="none" stroke="url(#strokeA)" stroke-width="2.0" opacity="0.85"/>
  <circle cx="20.4" cy="350.3" r="13.6" fill="none" stroke="#E11D48" stroke-width="1.5" opacity="0.35"/>
  <polygon points="10.4,355.8 10.7,344.4 20.6,338.9 30.4,344.8 30.1,356.2 20.2,361.7" fill="none" stroke="url(#strokeB)" stroke-width="1.2" opacity="0.65"/>
  <polygon points="16.5,350.9 21.8,346.6 22.9,353.4" fill="#E11D48" opacity="0.22" filter="url(#softGlow)"/>
</g>


<g opacity="0.677" filter="url(#hardGlow)">
  <circle cx="267.0" cy="1540.0" r="35.5" fill="#0A1224" opacity="0.65"/>
  <circle cx="267.0" cy="1540.0" r="35.5" fill="none" stroke="url(#strokeA)" stroke-width="2.8" opacity="0.85"/>
  <circle cx="267.0" cy="1540.0" r="30.5" fill="none" stroke="#7C3AED" stroke-width="1.5" opacity="0.35"/>
  <polygon points="290.0,1551.3 268.7,1565.5 245.8,1554.2 244.1,1528.7 265.4,1514.5 288.3,1525.8" fill="none" stroke="url(#strokeB)" stroke-width="1.2" opacity="0.65"/>
  <polygon points="273.2,1546.5 258.3,1542.1 269.5,1531.4" fill="#7C3AED" opacity="0.22" filter="url(#softGlow)"/>
</g>


<g opacity="0.456" filter="url(#hardGlow)">
  <circle cx="255.3" cy="1529.7" r="13.4" fill="#0A1224" opacity="0.65"/>
  <circle cx="255.3" cy="1529.7" r="13.4" fill="none" stroke="url(#strokeA)" stroke-width="2.0" opacity="0.85"/>
  <circle cx="255.3" cy="1529.7" r="11.5" fill="none" stroke="#E11D48" stroke-width="1.5" opacity="0.35"/>
  <polygon points="253.2,1520.2 262.4,1523.2 264.4,1532.6 257.3,1539.1 248.1,1536.1 246.1,1526.7" fill="none" stroke="url(#strokeB)" stroke-width="1.2" opacity="0.65"/>
  <polygon points="255.7,1526.3 257.9,1531.7 252.1,1530.9" fill="#E11D48" opacity="0.22" filter="url(#softGlow)"/>
</g>


<g opacity="0.577" filter="url(#hardGlow)">
  <circle cx="284.5" cy="1515.4" r="19.0" fill="#0A1224" opacity="0.65"/>
  <circle cx="284.5" cy="1515.4" r="19.0" fill="none" stroke="url(#strokeA)" stroke-width="2.0" opacity="0.85"/>
  <circle cx="284.5" cy="1515.4" r="16.3" fill="none" stroke="#E11D48" stroke-width="1.5" opacity="0.35"/>
  <polygon points="298.0,1517.8 289.1,1528.3 275.7,1525.8 271.1,1512.9 279.9,1502.5 293.4,1505.0" fill="none" stroke="url(#strokeB)" stroke-width="1.2" opacity="0.65"/>
  
</g>


<g opacity="0.567" filter="url(#hardGlow)">
  <circle cx="296.3" cy="1554.1" r="13.3" fill="#0A1224" opacity="0.65"/>
  <circle cx="296.3" cy="1554.1" r="13.3" fill="none" stroke="url(#strokeA)" stroke-width="2.0" opacity="0.85"/>
  <circle cx="296.3" cy="1554.1" r="11.5" fill="none" stroke="#E11D48" stroke-width="1.5" opacity="0.35"/>
  <polygon points="305.7,1556.0 299.5,1563.2 290.0,1561.4 286.9,1552.3 293.2,1545.1 302.6,1546.9" fill="none" stroke="url(#strokeB)" stroke-width="1.2" opacity="0.65"/>
  <polygon points="299.2,1555.9 293.4,1555.8 296.4,1550.8" fill="#E11D48" opacity="0.22" filter="url(#softGlow)"/>
</g>


<g opacity="0.909" filter="url(#hardGlow)">
  <circle cx="44.4" cy="1554.5" r="45.3" fill="#0A1224" opacity="0.65"/>
  <circle cx="44.4" cy="1554.5" r="45.3" fill="none" stroke="url(#strokeA)" stroke-width="3.6" opacity="0.85"/>
  <circle cx="44.4" cy="1554.5" r="38.9" fill="none" stroke="#7C3AED" stroke-width="1.5" opacity="0.35"/>
  <polygon points="76.5,1548.8 65.4,1579.5 33.3,1585.2 12.3,1560.3 23.4,1529.6 55.5,1523.9" fill="none" stroke="url(#strokeB)" stroke-width="1.2" opacity="0.65"/>
  <polygon points="55.6,1556.5 37.0,1563.3 40.4,1543.8" fill="#7C3AED" opacity="0.22" filter="url(#softGlow)"/>
</g>


<g opacity="0.600" filter="url(#hardGlow)">
  <circle cx="101.3" cy="1530.1" r="24.6" fill="#0A1224" opacity="0.65"/>
  <circle cx="101.3" cy="1530.1" r="24.6" fill="none" stroke="url(#strokeA)" stroke-width="2.0" opacity="0.85"/>
  <circle cx="101.3" cy="1530.1" r="21.1" fill="none" stroke="#E11D48" stroke-width="1.5" opacity="0.35"/>
  <polygon points="104.9,1512.8 118.1,1524.6 114.5,1541.9 97.6,1547.4 84.4,1535.6 88.1,1518.3" fill="none" stroke="url(#strokeB)" stroke-width="1.2" opacity="0.65"/>
  <polygon points="104.5,1524.9 104.2,1535.6 95.1,1529.9" fill="#E11D48" opacity="0.22" filter="url(#softGlow)"/>
</g>


<g opacity="0.701" filter="url(#hardGlow)">
  <circle cx="426.3" cy="1588.8" r="47.4" fill="#0A1224" opacity="0.65"/>
  <circle cx="426.3" cy="1588.8" r="47.4" fill="none" stroke="url(#strokeA)" stroke-width="3.8" opacity="0.85"/>
  <circle cx="426.3" cy="1588.8" r="40.7" fill="none" stroke="#7C3AED" stroke-width="1.5" opacity="0.35"/>
  <polygon points="421.7,1622.6 394.7,1601.7 399.4,1567.9 431.0,1555.0 457.9,1576.0 453.3,1609.8" fill="none" stroke="url(#strokeB)" stroke-width="1.2" opacity="0.65"/>
  <polygon points="420.8,1599.4 420.0,1578.7 438.3,1588.4" fill="#7C3AED" opacity="0.22" filter="url(#softGlow)"/>
</g>


<g opacity="0.557" filter="url(#hardGlow)">
  <circle cx="430.8" cy="1539.7" r="22.0" fill="#0A1224" opacity="0.65"/>
  <circle cx="430.8" cy="1539.7" r="22.0" fill="none" stroke="url(#strokeA)" stroke-width="2.0" opacity="0.85"/>
  <circle cx="430.8" cy="1539.7" r="18.9" fill="none" stroke="#E11D48" stroke-width="1.5" opacity="0.35"/>
  <polygon points="415.0,1540.6 422.1,1526.5 438.0,1525.6 446.7,1538.8 439.5,1553.0 423.7,1553.9" fill="none" stroke="url(#strokeB)" stroke-width="1.2" opacity="0.65"/>
  
</g>


<g opacity="0.403" filter="url(#hardGlow)">
  <circle cx="432.9" cy="1561.7" r="18.2" fill="#0A1224" opacity="0.65"/>
  <circle cx="432.9" cy="1561.7" r="18.2" fill="none" stroke="url(#strokeA)" stroke-width="2.0" opacity="0.85"/>
  <circle cx="432.9" cy="1561.7" r="15.7" fill="none" stroke="#E11D48" stroke-width="1.5" opacity="0.35"/>
  <polygon points="420.6,1557.2 430.8,1548.8 443.0,1553.4 445.2,1566.3 435.1,1574.7 422.8,1570.1" fill="none" stroke="url(#strokeB)" stroke-width="1.2" opacity="0.65"/>
  
</g>


<g opacity="0.366" transform="translate(173.4,1527.7) rotate(6.9)" filter="url(#softGlow)">
  <rect x="-77.3" y="-67.0" width="154.5" height="134.0" rx="13.4" fill="#050A12" opacity="0.25"/>
  <rect x="-77.3" y="-67.0" width="154.5" height="134.0" rx="13.4" fill="none" stroke="url(#strokeA)" stroke-width="6.7" opacity="0.85"/>
  <rect x="-66.5" y="-56.3" width="133.1" height="112.6" rx="9.4" fill="none" stroke="#22C55E" stroke-width="2.7" opacity="0.35"/>
</g>


<g opacity="0.374" transform="translate(788.8,435.2) rotate(4.4)" filter="url(#softGlow)">
  <rect x="-76.1" y="-55.3" width="152.3" height="110.6" rx="11.1" fill="#050A12" opacity="0.25"/>
  <rect x="-76.1" y="-55.3" width="152.3" height="110.6" rx="11.1" fill="none" stroke="url(#strokeA)" stroke-width="5.5" opacity="0.85"/>
  <rect x="-67.3" y="-46.5" width="134.6" height="92.9" rx="7.7" fill="none" stroke="#7C3AED" stroke-width="2.2" opacity="0.35"/>
</g>


<g opacity="0.266" transform="translate(798.9,234.8) rotate(-6.5)" filter="url(#softGlow)">
  <rect x="-84.0" y="-73.0" width="168.0" height="145.9" rx="14.6" fill="#050A12" opacity="0.25"/>
  <rect x="-84.0" y="-73.0" width="168.0" height="145.9" rx="14.6" fill="none" stroke="url(#strokeA)" stroke-width="7.3" opacity="0.85"/>
  <rect x="-72.3" y="-61.3" width="144.7" height="122.6" rx="10.2" fill="none" stroke="#7C3AED" stroke-width="2.9" opacity="0.35"/>
</g>


<g opacity="0.448" transform="translate(859.7,110.3) rotate(-8.4)" filter="url(#softGlow)">
  <rect x="-76.8" y="-67.7" width="153.7" height="135.5" rx="13.5" fill="#050A12" opacity="0.25"/>
  <rect x="-76.8" y="-67.7" width="153.7" height="135.5" rx="13.5" fill="none" stroke="url(#strokeA)" stroke-width="6.8" opacity="0.85"/>
  <rect x="-66.0" y="-56.9" width="132.0" height="113.8" rx="9.5" fill="none" stroke="#7C3AED" stroke-width="2.7" opacity="0.35"/>
</g>


<g opacity="0.425" transform="translate(156.4,85.7) rotate(-2.7)" filter="url(#softGlow)">
  <rect x="-48.6" y="-28.0" width="97.2" height="56.0" rx="17.1" fill="none" stroke="#E11D48" stroke-width="9.3" opacity="0.55"/>
  <rect x="-21.4" y="-14.0" width="97.2" height="56.0" rx="17.1" fill="none" stroke="url(#strokeA)" stroke-width="7.8" opacity="0.55"/>
</g>


<g opacity="0.403" transform="translate(854.9,1426.8) rotate(16.6)" filter="url(#softGlow)">
  <rect x="-39.1" y="-22.5" width="78.2" height="45.1" rx="13.8" fill="none" stroke="#22C55E" stroke-width="7.5" opacity="0.55"/>
  <rect x="-17.2" y="-11.3" width="78.2" height="45.1" rx="13.8" fill="none" stroke="url(#strokeA)" stroke-width="6.3" opacity="0.55"/>
</g>


<g opacity="0.271" transform="translate(895.2,1475.1) rotate(-4.7)" filter="url(#softGlow)">
  <rect x="-35.1" y="-20.2" width="70.2" height="40.4" rx="12.4" fill="none" stroke="#7C3AED" stroke-width="6.7" opacity="0.55"/>
  <rect x="-15.4" y="-10.1" width="70.2" height="40.4" rx="12.4" fill="none" stroke="url(#strokeA)" stroke-width="5.6" opacity="0.55"/>
</g>


<g opacity="0.339" transform="translate(732.7,73.6) rotate(8.5)" filter="url(#softGlow)">
  <rect x="-39.1" y="-22.5" width="78.3" height="45.1" rx="13.8" fill="none" stroke="#E11D48" stroke-width="7.5" opacity="0.55"/>
  <rect x="-17.2" y="-11.3" width="78.3" height="45.1" rx="13.8" fill="none" stroke="url(#strokeA)" stroke-width="6.3" opacity="0.55"/>
</g>


<g opacity="0.240" transform="translate(792.6,1465.7) rotate(16.6)" filter="url(#softGlow)">
  <rect x="-40.5" y="-23.3" width="81.0" height="46.7" rx="14.3" fill="none" stroke="#E11D48" stroke-width="7.8" opacity="0.55"/>
  <rect x="-17.8" y="-11.7" width="81.0" height="46.7" rx="14.3" fill="none" stroke="url(#strokeA)" stroke-width="6.5" opacity="0.55"/>
</g>


<g opacity="0.310" transform="translate(847.1,0.1) rotate(7.3)" filter="url(#softGlow)">
  <rect x="-37.1" y="-21.4" width="74.3" height="42.8" rx="13.1" fill="none" stroke="#22C55E" stroke-width="7.1" opacity="0.55"/>
  <rect x="-16.3" y="-10.7" width="74.3" height="42.8" rx="13.1" fill="none" stroke="url(#strokeA)" stroke-width="5.9" opacity="0.55"/>
</g>


<g opacity="0.465" transform="translate(873.8,170.7) rotate(9.4)" filter="url(#softGlow)">
  <rect x="-40.5" y="-23.3" width="81.0" height="46.6" rx="14.2" fill="none" stroke="#7C3AED" stroke-width="7.8" opacity="0.55"/>
  <rect x="-17.8" y="-11.7" width="81.0" height="46.6" rx="14.2" fill="none" stroke="url(#strokeA)" stroke-width="6.5" opacity="0.55"/>
</g>


<g opacity="0.187">
  <line x1="470.4" y1="1421.8" x2="470.4" y2="1528.9" stroke="#E11D48" stroke-width="1.62" opacity="0.45"/>
  <rect x="467.3" y="1482.6" width="6.3" height="49.9" rx="2.1" fill="#0B1020" opacity="0.55" stroke="url(#strokeA)" stroke-width="1.2"/>
</g>

<g opacity="0.187">
  <line x1="310.4" y1="1452.3" x2="310.4" y2="1521.3" stroke="#E11D48" stroke-width="1.40" opacity="0.45"/>
  <rect x="305.4" y="1490.1" width="10.0" height="34.8" rx="3.3" fill="#0B1020" opacity="0.55" stroke="url(#strokeA)" stroke-width="1.2"/>
</g>

<g opacity="0.187">
  <line x1="127.4" y1="1458.5" x2="127.4" y2="1519.7" stroke="#E11D48" stroke-width="1.66" opacity="0.45"/>
  <rect x="124.0" y="1497.6" width="6.8" height="19.7" rx="2.3" fill="#0B1020" opacity="0.55" stroke="url(#strokeA)" stroke-width="1.2"/>
</g>

<g opacity="0.187">
  <line x1="372.3" y1="1450.7" x2="372.3" y2="1521.7" stroke="#E11D48" stroke-width="1.66" opacity="0.45"/>
  <rect x="366.7" y="1491.3" width="11.2" height="32.3" rx="3.7" fill="#0B1020" opacity="0.55" stroke="url(#strokeA)" stroke-width="1.2"/>
</g>

<g opacity="0.187">
  <line x1="389.4" y1="1451.8" x2="389.4" y2="1521.4" stroke="#E11D48" stroke-width="1.35" opacity="0.45"/>
  <rect x="383.9" y="1490.4" width="11.0" height="34.1" rx="3.7" fill="#0B1020" opacity="0.55" stroke="url(#strokeA)" stroke-width="1.2"/>
</g>

<g opacity="0.187">
  <line x1="206.2" y1="1444.7" x2="206.2" y2="1523.2" stroke="#E11D48" stroke-width="1.55" opacity="0.45"/>
  <rect x="201.2" y="1483.1" width="10.1" height="48.8" rx="3.4" fill="#0B1020" opacity="0.55" stroke="url(#strokeA)" stroke-width="1.2"/>
</g>

<g opacity="0.187">
  <line x1="12.8" y1="1468.8" x2="12.8" y2="1517.2" stroke="#E11D48" stroke-width="1.78" opacity="0.45"/>
  <rect x="8.1" y="1498.2" width="9.5" height="18.5" rx="3.2" fill="#0B1020" opacity="0.55" stroke="url(#strokeA)" stroke-width="1.2"/>
</g>

<g opacity="0.187">
  <line x1="567.4" y1="1439.0" x2="567.4" y2="1524.6" stroke="#E11D48" stroke-width="2.13" opacity="0.45"/>
  <rect x="564.3" y="1480.8" width="6.3" height="53.4" rx="2.1" fill="#0B1020" opacity="0.55" stroke="url(#strokeA)" stroke-width="1.2"/>
</g>

<g opacity="0.187">
  <line x1="441.1" y1="1445.6" x2="441.1" y2="1523.0" stroke="#E11D48" stroke-width="2.17" opacity="0.45"/>
  <rect x="437.3" y="1490.2" width="7.6" height="34.7" rx="2.5" fill="#0B1020" opacity="0.55" stroke="url(#strokeA)" stroke-width="1.2"/>
</g>

<g opacity="0.187">
  <line x1="189.0" y1="1460.5" x2="189.0" y2="1519.2" stroke="#E11D48" stroke-width="1.95" opacity="0.45"/>
  <rect x="185.5" y="1496.6" width="6.9" height="21.8" rx="2.3" fill="#0B1020" opacity="0.55" stroke="url(#strokeA)" stroke-width="1.2"/>
</g>

<g opacity="0.187">
  <line x1="313.7" y1="1454.7" x2="313.7" y2="1520.7" stroke="#E11D48" stroke-width="1.42" opacity="0.45"/>
  <rect x="309.7" y="1495.4" width="8.0" height="24.1" rx="2.7" fill="#0B1020" opacity="0.55" stroke="url(#strokeA)" stroke-width="1.2"/>
</g>

<g opacity="0.187">
  <line x1="620.2" y1="1437.5" x2="620.2" y2="1525.0" stroke="#E11D48" stroke-width="1.48" opacity="0.45"/>
  <rect x="615.5" y="1491.5" width="9.3" height="31.9" rx="3.1" fill="#0B1020" opacity="0.55" stroke="url(#strokeA)" stroke-width="1.2"/>
</g>

<g opacity="0.187">
  <line x1="404.9" y1="1455.1" x2="404.9" y2="1520.6" stroke="#E11D48" stroke-width="2.10" opacity="0.45"/>
  <rect x="401.5" y="1486.5" width="6.7" height="42.1" rx="2.2" fill="#0B1020" opacity="0.55" stroke="url(#strokeA)" stroke-width="1.2"/>
</g>

<g opacity="0.187">
  <line x1="90.9" y1="1459.7" x2="90.9" y2="1519.4" stroke="#E11D48" stroke-width="1.02" opacity="0.45"/>
  <rect x="85.8" y="1494.8" width="10.3" height="25.4" rx="3.4" fill="#0B1020" opacity="0.55" stroke="url(#strokeA)" stroke-width="1.2"/>
</g>

<g opacity="0.187">
  <line x1="564.9" y1="1420.4" x2="564.9" y2="1529.3" stroke="#E11D48" stroke-width="1.19" opacity="0.45"/>
  <rect x="559.2" y="1480.8" width="11.5" height="53.3" rx="3.8" fill="#0B1020" opacity="0.55" stroke="url(#strokeA)" stroke-width="1.2"/>
</g>

<g opacity="0.187">
  <line x1="836.4" y1="1439.7" x2="836.4" y2="1524.4" stroke="#E11D48" stroke-width="2.09" opacity="0.45"/>
  <rect x="830.6" y="1482.8" width="11.6" height="49.4" rx="3.9" fill="#0B1020" opacity="0.55" stroke="url(#strokeA)" stroke-width="1.2"/>
</g>
<circle cx="73.7" cy="1477.8" r="3.1" fill="#7C3AED" opacity="0.18" filter="url(#softGlow)"/>
<circle cx="847.2" cy="1591.6" r="2.4" fill="#7C3AED" opacity="0.23" filter="url(#softGlow)"/>
<circle cx="787.7" cy="1426.1" r="1.3" fill="#7C3AED" opacity="0.23" filter="url(#softGlow)"/>
<circle cx="863.8" cy="86.1" r="2.8" fill="#7C3AED" opacity="0.22" filter="url(#softGlow)"/>
<circle cx="859.9" cy="1437.9" r="2.8" fill="#7C3AED" opacity="0.17" filter="url(#softGlow)"/>
<circle cx="835.3" cy="23.8" r="1.9" fill="#7C3AED" opacity="0.10" filter="url(#softGlow)"/>
<circle cx="133.5" cy="1480.8" r="3.0" fill="#7C3AED" opacity="0.19" filter="url(#softGlow)"/>
<circle cx="746.0" cy="819.8" r="1.9" fill="#7C3AED" opacity="0.25" filter="url(#softGlow)"/>
<circle cx="800.9" cy="177.5" r="2.2" fill="#7C3AED" opacity="0.11" filter="url(#softGlow)"/>
<circle cx="765.9" cy="1500.3" r="1.6" fill="#7C3AED" opacity="0.20" filter="url(#softGlow)"/>
<circle cx="863.2" cy="301.7" r="2.3" fill="#7C3AED" opacity="0.20" filter="url(#softGlow)"/>
<circle cx="73.7" cy="1231.5" r="2.0" fill="#7C3AED" opacity="0.13" filter="url(#softGlow)"/>
<circle cx="828.2" cy="1019.5" r="2.3" fill="#7C3AED" opacity="0.14" filter="url(#softGlow)"/>
<circle cx="860.5" cy="1493.1" r="2.8" fill="#7C3AED" opacity="0.23" filter="url(#softGlow)"/>
<circle cx="607.8" cy="1537.4" r="2.4" fill="#7C3AED" opacity="0.14" filter="url(#softGlow)"/>
<circle cx="84.4" cy="81.8" r="1.5" fill="#7C3AED" opacity="0.25" filter="url(#softGlow)"/>
<circle cx="881.4" cy="60.5" r="2.5" fill="#7C3AED" opacity="0.19" filter="url(#softGlow)"/>
<circle cx="846.0" cy="1587.3" r="2.3" fill="#7C3AED" opacity="0.27" filter="url(#softGlow)"/>
</svg>