<svg xmlns="http://www.w3.org/2000/svg" width="900" height="1600" viewBox="0 0 900 1600" preserveAspectRatio="xMidYMid slice">
<defs>
  <linearGradient id="g0" x1="0" y1="0" x2="1" y2="1">
    <stop offset="0" stop-color="#0B1020"/>
    <stop offset="0.55" stop-color="#2DD4BF" stop-opacity="0.9"/>
    <stop offset="1" stop-color="#020617"/>
  </linearGradient>
  <radialGradient id="g1" cx="20%" cy="15%" r="70%">
    <stop offset="0" stop-color="#60A5FA" stop-opacity="0.38"/>
    <stop offset="0.6" stop-color="#60A5FA" stop-opacity="0.08"/>
    <stop offset="1" stop-color="#60A5FA" stop-opacity="0"/>
  </radialGradient>
  <radialGradient id="g2" cx="85%" cy="80%" r="75%">
    <stop offset="0" stop-color="#60A5FA" stop-opacity="0.28"/>
    <stop offset="0.65" stop-color="#60A5FA" stop-opacity="0.06"/>
    <stop offset="1" stop-color="#60A5FA" stop-opacity="0"/>
  </radialGradient>
  <filter id="softGlow" x="-30%" y="-30%" width="160%" height="160%">
    <feGaussianBlur stdDeviation="12" result="b"/>
    <feMerge>
      <feMergeNode in="b"/>
      <feMergeNode in="SourceGraphic"/>
    </feMerge>
  </filter>
  <filter id="hardGlow" x="-40%" y="-40%" width="180%" height="180%">
    <feGaussianBlur stdDeviation="6" result="b"/>
    <feColorMatrix in="b" type="matrix" values="1 0 0 0 0  0 1 0 0 0  0 0 1 0 0  0 0 0 18 -7" result="c"/>
    <feMerge>
      <feMergeNode in="c"/>
      <feMergeNode in="SourceGraphic"/>
    </feMerge>
  </filter>
  <linearGradient id="strokeA" x1="0" y1="0" x2="1" y2="0">
    <stop offset="0" stop-color="#60A5FA" stop-opacity="0.9"/>
    <stop offset="0.5" stop-color="#FFFFFF" stop-opacity="0.25"/>
    <stop offset="1" stop-color="#60A5FA" stop-opacity="0.7"/>
  </linearGradient>
  <linearGradient id="strokeB" x1="0" y1="0" x2="0" y2="1">
    <stop offset="0" stop-color="#FFFFFF" stop-opacity="0.18"/>
    <stop offset="1" stop-color="#60A5FA" stop-opacity="0.55"/>
  </linearGradient>
</defs>
<rect x="0" y="0" width="900" height="1600" fill="url(#g0)"/>
<rect x="0" y="0" width="900" height="1600" fill="url(#g1)"/>
<rect x="0" y="0" width="900" height="1600" fill="url(#g2)"/>


<defs>
  <radialGradient id="vign" cx="0.5000" cy="0.5000" r="0.85">
    <stop offset="0" stop-color="#000000" stop-opacity="0"/>
    <stop offset="0.55" stop-color="#000000" stop-opacity="0.217"/>
    <stop offset="1" stop-color="#000000" stop-opacity="0.620"/>
  </radialGradient>
</defs>
<rect x="0" y="0" width="900" height="1600" fill="url(#vign)"/>

<g opacity="0.190" filter="url(#softGlow)"><path d="M 742.7,1497.9 L 457.5,1497.9 L 457.5,26.1 L 120.6,26.1 L 120.6,96.2 " fill="none" stroke="url(#strokeB)" stroke-width="2.19" stroke-linecap="round" stroke-linejoin="round"/><circle cx="457.5" cy="1497.9" r="2.1" fill="#2DD4BF" opacity="0.45"/><circle cx="457.5" cy="26.1" r="2.9" fill="#2DD4BF" opacity="0.45"/><circle cx="120.6" cy="26.1" r="4.0" fill="#2DD4BF" opacity="0.45"/></g>
<g opacity="0.190" filter="url(#softGlow)"><path d="M 130.2,1497.2 L 761.2,1497.2 L 761.2,1092.8 L 752.8,1092.8 L 752.8,1464.3 " fill="none" stroke="url(#strokeB)" stroke-width="1.15" stroke-linecap="round" stroke-linejoin="round"/><circle cx="761.2" cy="1092.8" r="2.5" fill="#2DD4BF" opacity="0.45"/><circle cx="752.8" cy="1092.8" r="3.6" fill="#2DD4BF" opacity="0.45"/><circle cx="761.2" cy="1497.2" r="2.8" fill="#2DD4BF" opacity="0.45"/></g>
<g opacity="0.190" filter="url(#softGlow)"><path d="M 28.6,873.0 L 774.5,873.0 L 774.5,0.2 L 44.1,0.2 L 44.1,132.1 " fill="none" stroke="url(#strokeB)" stroke-width="1.23" stroke-linecap="round" stroke-linejoin="round"/><circle cx="44.1" cy="0.2" r="4.0" fill="#2DD4BF" opacity="0.45"/><circle cx="28.6" cy="873.0" r="2.3" fill="#2DD4BF" opacity="0.45"/><circle cx="774.5" cy="873.0" r="2.9" fill="#2DD4BF" opacity="0.45"/></g>
<g opacity="0.190" filter="url(#softGlow)"><path d="M 129.2,166.4 L 785.4,166.4 L 785.4,1581.8 L 54.5,1581.8 L 54.5,1056.6 " fill="none" stroke="url(#strokeB)" stroke-width="1.86" stroke-linecap="round" stroke-linejoin="round"/><circle cx="54.5" cy="1581.8" r="2.8" fill="#2DD4BF" opacity="0.45"/><circle cx="54.5" cy="1056.6" r="2.1" fill="#2DD4BF" opacity="0.45"/><circle cx="129.2" cy="166.4" r="2.1" fill="#2DD4BF" opacity="0.45"/></g>
<g opacity="0.190" filter="url(#softGlow)"><path d="M 752.5,62.9 L 785.0,62.9 L 785.0,1595.4 L 840.0,1595.4 L 840.0,1506.5 " fill="none" stroke="url(#strokeB)" stroke-width="1.69" stroke-linecap="round" stroke-linejoin="round"/><circle cx="752.5" cy="62.9" r="2.5" fill="#2DD4BF" opacity="0.45"/><circle cx="785.0" cy="1595.4" r="2.9" fill="#2DD4BF" opacity="0.45"/><circle cx="785.0" cy="62.9" r="3.9" fill="#2DD4BF" opacity="0.45"/></g>
<g opacity="0.190" filter="url(#softGlow)"><path d="M 789.2,1574.1 L 5.2,1574.1 L 5.2,317.3 L 245.3,317.3 L 245.3,1588.1 " fill="none" stroke="url(#strokeB)" stroke-width="1.60" stroke-linecap="round" stroke-linejoin="round"/><circle cx="789.2" cy="1574.1" r="2.2" fill="#2DD4BF" opacity="0.45"/><circle cx="245.3" cy="1588.1" r="4.1" fill="#2DD4BF" opacity="0.45"/><circle cx="5.2" cy="317.3" r="3.7" fill="#2DD4BF" opacity="0.45"/></g>
<g opacity="0.190" filter="url(#softGlow)"><path d="M 40.6,165.8 L 94.5,165.8 L 94.5,1147.1 L 818.8,1147.1 L 818.8,1546.9 " fill="none" stroke="url(#strokeB)" stroke-width="1.88" stroke-linecap="round" stroke-linejoin="round"/><circle cx="818.8" cy="1546.9" r="3.3" fill="#2DD4BF" opacity="0.45"/><circle cx="40.6" cy="165.8" r="3.8" fill="#2DD4BF" opacity="0.45"/><circle cx="818.8" cy="1147.1" r="2.9" fill="#2DD4BF" opacity="0.45"/></g>
<g opacity="0.190" filter="url(#softGlow)"><path d="M 155.2,1572.4 L 824.3,1572.4 L 824.3,1501.6 L 33.0,1501.6 L 33.0,72.7 " fill="none" stroke="url(#strokeB)" stroke-width="1.36" stroke-linecap="round" stroke-linejoin="round"/><circle cx="33.0" cy="1501.6" r="2.7" fill="#2DD4BF" opacity="0.45"/><circle cx="824.3" cy="1501.6" r="2.2" fill="#2DD4BF" opacity="0.45"/><circle cx="155.2" cy="1572.4" r="4.1" fill="#2DD4BF" opacity="0.45"/></g>
<g opacity="0.190" filter="url(#softGlow)"><path d="M 377.3,1495.0 L 819.7,1495.0 L 819.7,1549.9 L 13.8,1549.9 L 13.8,150.6 " fill="none" stroke="url(#strokeB)" stroke-width="2.13" stroke-linecap="round" stroke-linejoin="round"/><circle cx="377.3" cy="1495.0" r="3.3" fill="#2DD4BF" opacity="0.45"/><circle cx="13.8" cy="150.6" r="2.2" fill="#2DD4BF" opacity="0.45"/><circle cx="819.7" cy="1495.0" r="3.2" fill="#2DD4BF" opacity="0.45"/></g>
<g opacity="0.190" filter="url(#softGlow)"><path d="M 861.6,810.7 L 723.1,810.7 L 723.1,61.4 L 174.9,61.4 L 174.9,104.5 " fill="none" stroke="url(#strokeB)" stroke-width="1.42" stroke-linecap="round" stroke-linejoin="round"/><circle cx="174.9" cy="104.5" r="3.4" fill="#2DD4BF" opacity="0.45"/><circle cx="174.9" cy="61.4" r="3.9" fill="#2DD4BF" opacity="0.45"/><circle cx="723.1" cy="61.4" r="4.0" fill="#2DD4BF" opacity="0.45"/></g>
<g opacity="0.190" filter="url(#softGlow)"><path d="M 804.0,152.1 L 879.1,152.1 L 879.1,1209.6 L 563.0,1209.6 L 563.0,105.8 " fill="none" stroke="url(#strokeB)" stroke-width="2.08" stroke-linecap="round" stroke-linejoin="round"/><circle cx="563.0" cy="105.8" r="2.8" fill="#2DD4BF" opacity="0.45"/><circle cx="563.0" cy="1209.6" r="3.0" fill="#2DD4BF" opacity="0.45"/><circle cx="879.1" cy="1209.6" r="3.6" fill="#2DD4BF" opacity="0.45"/></g>
<g opacity="0.190" filter="url(#softGlow)"><path d="M 563.8,1425.9 L 77.6,1425.9 L 77.6,178.2 L 91.9,178.2 L 91.9,33.0 " fill="none" stroke="url(#strokeB)" stroke-width="1.72" stroke-linecap="round" stroke-linejoin="round"/><circle cx="91.9" cy="33.0" r="2.3" fill="#2DD4BF" opacity="0.45"/><circle cx="91.9" cy="178.2" r="4.1" fill="#2DD4BF" opacity="0.45"/><circle cx="77.6" cy="178.2" r="3.8" fill="#2DD4BF" opacity="0.45"/></g>
<g opacity="0.190" filter="url(#softGlow)"><path d="M 53.7,160.9 L 493.3,160.9 L 493.3,77.0 L 893.2,77.0 L 893.2,1510.5 " fill="none" stroke="url(#strokeB)" stroke-width="1.59" stroke-linecap="round" stroke-linejoin="round"/><circle cx="893.2" cy="1510.5" r="3.2" fill="#2DD4BF" opacity="0.45"/><circle cx="53.7" cy="160.9" r="3.9" fill="#2DD4BF" opacity="0.45"/><circle cx="893.2" cy="77.0" r="3.2" fill="#2DD4BF" opacity="0.45"/></g>
<g opacity="0.190" filter="url(#softGlow)"><path d="M 12.3,797.3 L 66.0,797.3 L 66.0,2.2 L 29.2,2.2 L 29.2,1564.6 " fill="none" stroke="url(#strokeB)" stroke-width="1.13" stroke-linecap="round" stroke-linejoin="round"/><circle cx="29.2" cy="1564.6" r="2.5" fill="#2DD4BF" opacity="0.45"/><circle cx="29.2" cy="2.2" r="2.6" fill="#2DD4BF" opacity="0.45"/><circle cx="12.3" cy="797.3" r="2.4" fill="#2DD4BF" opacity="0.45"/></g>
<g opacity="0.190" filter="url(#softGlow)"><path d="M 104.3,834.5 L 838.3,834.5 L 838.3,350.1 L 621.2,350.1 L 621.2,169.1 " fill="none" stroke="url(#strokeB)" stroke-width="2.03" stroke-linecap="round" stroke-linejoin="round"/><circle cx="104.3" cy="834.5" r="2.5" fill="#2DD4BF" opacity="0.45"/><circle cx="621.2" cy="169.1" r="3.9" fill="#2DD4BF" opacity="0.45"/><circle cx="838.3" cy="350.1" r="4.1" fill="#2DD4BF" opacity="0.45"/></g>
<g opacity="0.190" filter="url(#softGlow)"><path d="M 765.7,869.1 L 898.8,869.1 L 898.8,1449.8 L 854.4,1449.8 L 854.4,1027.8 " fill="none" stroke="url(#strokeB)" stroke-width="1.68" stroke-linecap="round" stroke-linejoin="round"/><circle cx="854.4" cy="1449.8" r="3.3" fill="#2DD4BF" opacity="0.45"/><circle cx="854.4" cy="1027.8" r="3.4" fill="#2DD4BF" opacity="0.45"/><circle cx="898.8" cy="869.1" r="3.1" fill="#2DD4BF" opacity="0.45"/></g>

<g opacity="0.660" filter="url(#hardGlow)">
  <circle cx="781.8" cy="1190.3" r="32.9" fill="#0A1224" opacity="0.65"/>
  <circle cx="781.8" cy="1190.3" r="32.9" fill="none" stroke="url(#strokeA)" stroke-width="2.6" opacity="0.85"/>
  <circle cx="781.8" cy="1190.3" r="28.3" fill="none" stroke="#F472B6" stroke-width="1.5" opacity="0.35"/>
  <polygon points="803.1,1180.1 801.3,1203.7 780.0,1214.0 760.4,1200.6 762.2,1177.0 783.5,1166.7" fill="none" stroke="url(#strokeB)" stroke-width="1.2" opacity="0.65"/>
  <polygon points="790.0,1189.5 778.3,1197.9 776.9,1183.6" fill="#F472B6" opacity="0.22" filter="url(#softGlow)"/>
</g>


<g opacity="0.382" filter="url(#hardGlow)">
  <circle cx="829.0" cy="1204.0" r="15.0" fill="#0A1224" opacity="0.65"/>
  <circle cx="829.0" cy="1204.0" r="15.0" fill="none" stroke="url(#strokeA)" stroke-width="2.0" opacity="0.85"/>
  <circle cx="829.0" cy="1204.0" r="12.9" fill="none" stroke="#2DD4BF" stroke-width="1.5" opacity="0.35"/>
  <polygon points="820.2,1210.4 819.1,1199.7 827.8,1193.3 837.7,1197.7 838.8,1208.4 830.1,1214.8" fill="none" stroke="url(#strokeB)" stroke-width="1.2" opacity="0.65"/>
  
</g>


<g opacity="0.828" filter="url(#hardGlow)">
  <circle cx="102.6" cy="32.1" r="37.0" fill="#0A1224" opacity="0.65"/>
  <circle cx="102.6" cy="32.1" r="37.0" fill="none" stroke="url(#strokeA)" stroke-width="3.0" opacity="0.85"/>
  <circle cx="102.6" cy="32.1" r="31.8" fill="none" stroke="#F472B6" stroke-width="1.5" opacity="0.35"/>
  <polygon points="128.8,27.4 119.9,52.4 93.6,57.2 76.4,36.9 85.4,11.8 111.6,7.0" fill="none" stroke="url(#strokeB)" stroke-width="1.2" opacity="0.65"/>
  <polygon points="111.8,33.7 96.7,39.3 99.4,23.4" fill="#F472B6" opacity="0.22" filter="url(#softGlow)"/>
</g>


<g opacity="0.473" filter="url(#hardGlow)">
  <circle cx="116.1" cy="72.2" r="15.0" fill="#0A1224" opacity="0.65"/>
  <circle cx="116.1" cy="72.2" r="15.0" fill="none" stroke="url(#strokeA)" stroke-width="2.0" opacity="0.85"/>
  <circle cx="116.1" cy="72.2" r="12.9" fill="none" stroke="#2DD4BF" stroke-width="1.5" opacity="0.35"/>
  <polygon points="120.4,82.1 109.7,80.8 105.4,70.9 111.9,62.2 122.6,63.5 126.9,73.4" fill="none" stroke="url(#strokeB)" stroke-width="1.2" opacity="0.65"/>
  <polygon points="116.3,75.9 112.8,70.5 119.3,70.1" fill="#2DD4BF" opacity="0.22" filter="url(#softGlow)"/>
</g>


<g opacity="0.403" filter="url(#hardGlow)">
  <circle cx="145.7" cy="1.6" r="20.4" fill="#0A1224" opacity="0.65"/>
  <circle cx="145.7" cy="1.6" r="20.4" fill="none" stroke="url(#strokeA)" stroke-width="2.0" opacity="0.85"/>
  <circle cx="145.7" cy="1.6" r="17.5" fill="none" stroke="#2DD4BF" stroke-width="1.5" opacity="0.35"/>
  <polygon points="159.2,-4.0 157.3,10.5 143.7,16.1 132.1,7.2 134.0,-7.3 147.6,-12.9" fill="none" stroke="url(#strokeB)" stroke-width="1.2" opacity="0.65"/>
  <polygon points="150.8,1.4 143.3,6.1 142.9,-2.7" fill="#2DD4BF" opacity="0.22" filter="url(#softGlow)"/>
</g>


<g opacity="0.849" filter="url(#hardGlow)">
  <circle cx="87.6" cy="17.3" r="37.9" fill="#0A1224" opacity="0.65"/>
  <circle cx="87.6" cy="17.3" r="37.9" fill="none" stroke="url(#strokeA)" stroke-width="3.0" opacity="0.85"/>
  <circle cx="87.6" cy="17.3" r="32.6" fill="none" stroke="#F472B6" stroke-width="1.5" opacity="0.35"/>
  <polygon points="98.5,-7.7 114.7,14.3 103.8,39.3 76.6,42.3 60.4,20.3 71.4,-4.7" fill="none" stroke="url(#strokeB)" stroke-width="1.2" opacity="0.65"/>
  <polygon points="94.2,10.4 90.3,26.5 78.3,15.1" fill="#F472B6" opacity="0.22" filter="url(#softGlow)"/>
</g>


<g opacity="0.457" filter="url(#hardGlow)">
  <circle cx="102.3" cy="-13.4" r="19.7" fill="#0A1224" opacity="0.65"/>
  <circle cx="102.3" cy="-13.4" r="19.7" fill="none" stroke="url(#strokeA)" stroke-width="2.0" opacity="0.85"/>
  <circle cx="102.3" cy="-13.4" r="17.0" fill="none" stroke="#2DD4BF" stroke-width="1.5" opacity="0.35"/>
  <polygon points="89.5,-19.7 101.4,-27.6 114.1,-21.3 115.0,-7.1 103.2,0.8 90.4,-5.5" fill="none" stroke="url(#strokeB)" stroke-width="1.2" opacity="0.65"/>
  <polygon points="98.8,-17.0 107.1,-14.6 100.9,-8.6" fill="#2DD4BF" opacity="0.22" filter="url(#softGlow)"/>
</g>


<g opacity="0.901" filter="url(#hardGlow)">
  <circle cx="264.7" cy="1496.0" r="46.6" fill="#0A1224" opacity="0.65"/>
  <circle cx="264.7" cy="1496.0" r="46.6" fill="none" stroke="url(#strokeA)" stroke-width="3.7" opacity="0.85"/>
  <circle cx="264.7" cy="1496.0" r="40.0" fill="none" stroke="#F472B6" stroke-width="1.5" opacity="0.35"/>
  <polygon points="261.2,1529.4 234.1,1509.8 237.5,1476.4 268.1,1462.7 295.2,1482.3 291.8,1515.7" fill="none" stroke="url(#strokeB)" stroke-width="1.2" opacity="0.65"/>
  <polygon points="259.5,1506.6 258.1,1486.3 276.4,1495.2" fill="#F472B6" opacity="0.22" filter="url(#softGlow)"/>
</g>


<g opacity="0.631" filter="url(#hardGlow)">
  <circle cx="282.4" cy="1503.1" r="24.1" fill="#0A1224" opacity="0.65"/>
  <circle cx="282.4" cy="1503.1" r="24.1" fill="none" stroke="url(#strokeA)" stroke-width="2.0" opacity="0.85"/>
  <circle cx="282.4" cy="1503.1" r="20.7" fill="none" stroke="#2DD4BF" stroke-width="1.5" opacity="0.35"/>
  <polygon points="295.7,1492.0 298.6,1509.1 285.3,1520.2 269.0,1514.2 266.1,1497.1 279.4,1486.0" fill="none" stroke="url(#strokeB)" stroke-width="1.2" opacity="0.65"/>
  <polygon points="288.1,1501.0 281.3,1509.1 277.7,1499.2" fill="#2DD4BF" opacity="0.22" filter="url(#softGlow)"/>
</g>


<g opacity="0.366" filter="url(#hardGlow)">
  <circle cx="244.9" cy="1456.4" r="24.2" fill="#0A1224" opacity="0.65"/>
  <circle cx="244.9" cy="1456.4" r="24.2" fill="none" stroke="url(#strokeA)" stroke-width="2.0" opacity="0.85"/>
  <circle cx="244.9" cy="1456.4" r="20.8" fill="none" stroke="#2DD4BF" stroke-width="1.5" opacity="0.35"/>
  <polygon points="261.9,1452.7 256.6,1469.3 239.6,1473.0 227.9,1460.1 233.2,1443.5 250.2,1439.8" fill="none" stroke="url(#strokeB)" stroke-width="1.2" opacity="0.65"/>
  <polygon points="250.9,1457.2 241.2,1461.2 242.6,1450.7" fill="#2DD4BF" opacity="0.22" filter="url(#softGlow)"/>
</g>


<g opacity="0.357" filter="url(#hardGlow)">
  <circle cx="236.2" cy="1497.8" r="18.0" fill="#0A1224" opacity="0.65"/>
  <circle cx="236.2" cy="1497.8" r="18.0" fill="none" stroke="url(#strokeA)" stroke-width="2.0" opacity="0.85"/>
  <circle cx="236.2" cy="1497.8" r="15.4" fill="none" stroke="#2DD4BF" stroke-width="1.5" opacity="0.35"/>
  <polygon points="226.1,1505.9 224.1,1493.1 234.1,1485.0 246.2,1489.6 248.2,1502.4 238.2,1510.5" fill="none" stroke="url(#strokeB)" stroke-width="1.2" opacity="0.65"/>
  <polygon points="231.9,1499.2 237.0,1493.3 239.6,1500.7" fill="#2DD4BF" opacity="0.22" filter="url(#softGlow)"/>
</g>


<g opacity="0.652" filter="url(#hardGlow)">
  <circle cx="44.5" cy="1598.9" r="35.9" fill="#0A1224" opacity="0.65"/>
  <circle cx="44.5" cy="1598.9" r="35.9" fill="none" stroke="url(#strokeA)" stroke-width="2.9" opacity="0.85"/>
  <circle cx="44.5" cy="1598.9" r="30.9" fill="none" stroke="#F472B6" stroke-width="1.5" opacity="0.35"/>
  <polygon points="59.4,1620.1 33.7,1622.4 18.8,1601.2 29.7,1577.7 55.4,1575.4 70.3,1596.6" fill="none" stroke="url(#strokeB)" stroke-width="1.2" opacity="0.65"/>
  <polygon points="46.9,1607.7 35.8,1596.6 50.9,1592.5" fill="#F472B6" opacity="0.22" filter="url(#softGlow)"/>
</g>


<g opacity="0.401" filter="url(#hardGlow)">
  <circle cx="22.8" cy="1636.9" r="17.5" fill="#0A1224" opacity="0.65"/>
  <circle cx="22.8" cy="1636.9" r="17.5" fill="none" stroke="url(#strokeA)" stroke-width="2.0" opacity="0.85"/>
  <circle cx="22.8" cy="1636.9" r="15.1" fill="none" stroke="#2DD4BF" stroke-width="1.5" opacity="0.35"/>
  <polygon points="11.0,1641.5 13.0,1629.0 24.7,1624.5 34.6,1632.4 32.6,1644.8 20.9,1649.4" fill="none" stroke="url(#strokeB)" stroke-width="1.2" opacity="0.65"/>
  
</g>


<g opacity="0.600" filter="url(#hardGlow)">
  <circle cx="-5.2" cy="1565.1" r="18.3" fill="#0A1224" opacity="0.65"/>
  <circle cx="-5.2" cy="1565.1" r="18.3" fill="none" stroke="url(#strokeA)" stroke-width="2.0" opacity="0.85"/>
  <circle cx="-5.2" cy="1565.1" r="15.8" fill="none" stroke="#2DD4BF" stroke-width="1.5" opacity="0.35"/>
  <polygon points="5.9,1572.2 -5.8,1578.3 -16.9,1571.2 -16.4,1558.0 -4.7,1551.9 6.5,1559.0" fill="none" stroke="url(#strokeB)" stroke-width="1.2" opacity="0.65"/>
  
</g>


<g opacity="0.868" filter="url(#hardGlow)">
  <circle cx="758.9" cy="118.2" r="49.6" fill="#0A1224" opacity="0.65"/>
  <circle cx="758.9" cy="118.2" r="49.6" fill="none" stroke="url(#strokeA)" stroke-width="4.0" opacity="0.85"/>
  <circle cx="758.9" cy="118.2" r="42.7" fill="none" stroke="#F472B6" stroke-width="1.5" opacity="0.35"/>
  <polygon points="792.5,106.0 786.3,141.2 752.7,153.4 725.3,130.4 731.6,95.2 765.2,83.0" fill="none" stroke="url(#strokeB)" stroke-width="1.2" opacity="0.65"/>
  <polygon points="771.4,118.2 752.7,129.0 752.7,107.4" fill="#F472B6" opacity="0.22" filter="url(#softGlow)"/>
</g>


<g opacity="0.643" filter="url(#hardGlow)">
  <circle cx="825.7" cy="60.1" r="24.0" fill="#0A1224" opacity="0.65"/>
  <circle cx="825.7" cy="60.1" r="24.0" fill="none" stroke="url(#strokeA)" stroke-width="2.0" opacity="0.85"/>
  <circle cx="825.7" cy="60.1" r="20.7" fill="none" stroke="#2DD4BF" stroke-width="1.5" opacity="0.35"/>
  <polygon points="809.8,67.0 811.7,49.8 827.6,42.9 841.5,53.1 839.6,70.3 823.8,77.3" fill="none" stroke="url(#strokeB)" stroke-width="1.2" opacity="0.65"/>
  <polygon points="819.6,60.5 828.3,54.6 829.0,65.1" fill="#2DD4BF" opacity="0.22" filter="url(#softGlow)"/>
</g>


<g opacity="0.485" filter="url(#hardGlow)">
  <circle cx="713.3" cy="151.7" r="24.4" fill="#0A1224" opacity="0.65"/>
  <circle cx="713.3" cy="151.7" r="24.4" fill="none" stroke="url(#strokeA)" stroke-width="2.0" opacity="0.85"/>
  <circle cx="713.3" cy="151.7" r="21.0" fill="none" stroke="#2DD4BF" stroke-width="1.5" opacity="0.35"/>
  <polygon points="705.1,167.2 695.8,152.3 704.0,136.8 721.5,136.2 730.8,151.1 722.6,166.6" fill="none" stroke="url(#strokeB)" stroke-width="1.2" opacity="0.65"/>
  <polygon points="708.7,155.8 712.0,145.7 719.1,153.6" fill="#2DD4BF" opacity="0.22" filter="url(#softGlow)"/>
</g>


<g opacity="0.536" filter="url(#hardGlow)">
  <circle cx="729.4" cy="171.7" r="23.8" fill="#0A1224" opacity="0.65"/>
  <circle cx="729.4" cy="171.7" r="23.8" fill="none" stroke="url(#strokeA)" stroke-width="2.0" opacity="0.85"/>
  <circle cx="729.4" cy="171.7" r="20.4" fill="none" stroke="#2DD4BF" stroke-width="1.5" opacity="0.35"/>
  <polygon points="726.3,188.5 713.3,177.4 716.4,160.6 732.5,154.9 745.5,166.0 742.4,182.8" fill="none" stroke="url(#strokeB)" stroke-width="1.2" opacity="0.65"/>
  <polygon points="726.3,176.9 726.4,166.5 735.4,171.8" fill="#2DD4BF" opacity="0.22" filter="url(#softGlow)"/>
</g>


<g opacity="0.455" transform="translate(0.5,1131.5) rotate(-5.7)" filter="url(#softGlow)">
  <rect x="-66.6" y="-46.1" width="133.2" height="92.2" rx="9.2" fill="#050A12" opacity="0.25"/>
  <rect x="-66.6" y="-46.1" width="133.2" height="92.2" rx="9.2" fill="none" stroke="url(#strokeA)" stroke-width="4.6" opacity="0.85"/>
  <rect x="-59.2" y="-38.7" width="118.5" height="77.4" rx="6.5" fill="none" stroke="#2DD4BF" stroke-width="1.8" opacity="0.35"/>
</g>


<g opacity="0.395" transform="translate(253.2,0.2) rotate(6.4)" filter="url(#softGlow)">
  <rect x="-74.8" y="-70.9" width="149.5" height="141.8" rx="14.2" fill="#050A12" opacity="0.25"/>
  <rect x="-74.8" y="-70.9" width="149.5" height="141.8" rx="14.2" fill="none" stroke="url(#strokeA)" stroke-width="7.1" opacity="0.85"/>
  <rect x="-63.4" y="-59.6" width="126.8" height="119.1" rx="9.9" fill="none" stroke="#2DD4BF" stroke-width="2.8" opacity="0.35"/>
</g>


<g opacity="0.387" transform="translate(53.1,282.9) rotate(1.1)" filter="url(#softGlow)">
  <rect x="-84.7" y="-61.6" width="169.4" height="123.2" rx="12.3" fill="#050A12" opacity="0.25"/>
  <rect x="-84.7" y="-61.6" width="169.4" height="123.2" rx="12.3" fill="none" stroke="url(#strokeA)" stroke-width="6.2" opacity="0.85"/>
  <rect x="-74.8" y="-51.7" width="149.7" height="103.5" rx="8.6" fill="none" stroke="#F472B6" stroke-width="2.5" opacity="0.35"/>
</g>


<g opacity="0.453" transform="translate(832.6,38.6) rotate(-9.9)" filter="url(#softGlow)">
  <rect x="-40.7" y="-23.4" width="81.3" height="46.8" rx="14.3" fill="none" stroke="#F472B6" stroke-width="7.8" opacity="0.55"/>
  <rect x="-17.9" y="-11.7" width="81.3" height="46.8" rx="14.3" fill="none" stroke="url(#strokeA)" stroke-width="6.5" opacity="0.55"/>
</g>


<g opacity="0.337" transform="translate(748.7,1464.8) rotate(-1.1)" filter="url(#softGlow)">
  <rect x="-32.7" y="-18.8" width="65.4" height="37.7" rx="11.5" fill="none" stroke="#2DD4BF" stroke-width="6.3" opacity="0.55"/>
  <rect x="-14.4" y="-9.4" width="65.4" height="37.7" rx="11.5" fill="none" stroke="url(#strokeA)" stroke-width="5.2" opacity="0.55"/>
</g>


<g opacity="0.394" transform="translate(122.8,1574.5) rotate(-4.0)" filter="url(#softGlow)">
  <rect x="-36.7" y="-21.2" width="73.5" height="42.3" rx="12.9" fill="none" stroke="#2DD4BF" stroke-width="7.1" opacity="0.55"/>
  <rect x="-16.2" y="-10.6" width="73.5" height="42.3" rx="12.9" fill="none" stroke="url(#strokeA)" stroke-width="5.9" opacity="0.55"/>
</g>


<g opacity="0.333" transform="translate(45.2,1515.2) rotate(-16.2)" filter="url(#softGlow)">
  <rect x="-47.1" y="-27.1" width="94.2" height="54.3" rx="16.6" fill="none" stroke="#2DD4BF" stroke-width="9.0" opacity="0.55"/>
  <rect x="-20.7" y="-13.6" width="94.2" height="54.3" rx="16.6" fill="none" stroke="url(#strokeA)" stroke-width="7.5" opacity="0.55"/>
</g>


<g opacity="0.466" transform="translate(96.0,15.8) rotate(-10.5)" filter="url(#softGlow)">
  <rect x="-32.2" y="-18.5" width="64.4" height="37.1" rx="11.3" fill="none" stroke="#F472B6" stroke-width="6.2" opacity="0.55"/>
  <rect x="-14.2" y="-9.3" width="64.4" height="37.1" rx="11.3" fill="none" stroke="url(#strokeA)" stroke-width="5.2" opacity="0.55"/>
</g>


<g opacity="0.349" transform="translate(124.8,133.6) rotate(-16.6)" filter="url(#softGlow)">
  <rect x="-46.8" y="-27.0" width="93.7" height="54.0" rx="16.5" fill="none" stroke="#F472B6" stroke-width="9.0" opacity="0.55"/>
  <rect x="-20.6" y="-13.5" width="93.7" height="54.0" rx="16.5" fill="none" stroke="url(#strokeA)" stroke-width="7.5" opacity="0.55"/>
</g>


<g opacity="0.403" transform="translate(32.8,1564.2) rotate(8.1)" filter="url(#softGlow)">
  <rect x="-43.7" y="-25.2" width="87.5" height="50.4" rx="15.4" fill="none" stroke="#F472B6" stroke-width="8.4" opacity="0.55"/>
  <rect x="-19.2" y="-12.6" width="87.5" height="50.4" rx="15.4" fill="none" stroke="url(#strokeA)" stroke-width="7.0" opacity="0.55"/>
</g>


<g opacity="0.317" transform="translate(138.8,14.4) rotate(-9.5)" filter="url(#softGlow)">
  <rect x="-46.1" y="-26.5" width="92.1" height="53.1" rx="16.2" fill="none" stroke="#2DD4BF" stroke-width="8.8" opacity="0.55"/>
  <rect x="-20.3" y="-13.3" width="92.1" height="53.1" rx="16.2" fill="none" stroke="url(#strokeA)" stroke-width="7.4" opacity="0.55"/>
</g>


<g opacity="0.190">
  <line x1="138.4" y1="1450.3" x2="138.4" y2="1505.4" stroke="#2DD4BF" stroke-width="1.09" opacity="0.45"/>
  <rect x="133.1" y="1481.8" width="10.7" height="25.1" rx="3.6" fill="#0B1020" opacity="0.55" stroke="url(#strokeA)" stroke-width="1.2"/>
</g>

<g opacity="0.190">
  <line x1="118.5" y1="1423.4" x2="118.5" y2="1512.2" stroke="#2DD4BF" stroke-width="1.96" opacity="0.45"/>
  <rect x="115.1" y="1469.4" width="6.7" height="50.0" rx="2.2" fill="#0B1020" opacity="0.55" stroke="url(#strokeA)" stroke-width="1.2"/>
</g>

<g opacity="0.190">
  <line x1="25.6" y1="1446.5" x2="25.6" y2="1506.4" stroke="#2DD4BF" stroke-width="1.06" opacity="0.45"/>
  <rect x="21.5" y="1475.5" width="8.2" height="37.8" rx="2.7" fill="#0B1020" opacity="0.55" stroke="url(#strokeA)" stroke-width="1.2"/>
</g>

<g opacity="0.190">
  <line x1="784.5" y1="1440.6" x2="784.5" y2="1507.8" stroke="#2DD4BF" stroke-width="2.06" opacity="0.45"/>
  <rect x="780.6" y="1478.1" width="7.7" height="32.5" rx="2.6" fill="#0B1020" opacity="0.55" stroke="url(#strokeA)" stroke-width="1.2"/>
</g>

<g opacity="0.190">
  <line x1="141.9" y1="1422.4" x2="141.9" y2="1512.4" stroke="#2DD4BF" stroke-width="1.79" opacity="0.45"/>
  <rect x="137.4" y="1471.6" width="9.0" height="45.5" rx="3.0" fill="#0B1020" opacity="0.55" stroke="url(#strokeA)" stroke-width="1.2"/>
</g>

<g opacity="0.190">
  <line x1="236.9" y1="1447.6" x2="236.9" y2="1506.1" stroke="#2DD4BF" stroke-width="2.03" opacity="0.45"/>
  <rect x="231.9" y="1482.9" width="9.9" height="22.9" rx="3.3" fill="#0B1020" opacity="0.55" stroke="url(#strokeA)" stroke-width="1.2"/>
</g>

<g opacity="0.190">
  <line x1="42.4" y1="1426.9" x2="42.4" y2="1511.3" stroke="#2DD4BF" stroke-width="1.84" opacity="0.45"/>
  <rect x="37.3" y="1475.5" width="10.1" height="37.9" rx="3.4" fill="#0B1020" opacity="0.55" stroke="url(#strokeA)" stroke-width="1.2"/>
</g>

<g opacity="0.190">
  <line x1="738.3" y1="1422.9" x2="738.3" y2="1512.3" stroke="#2DD4BF" stroke-width="2.00" opacity="0.45"/>
  <rect x="735.0" y="1477.7" width="6.7" height="33.4" rx="2.2" fill="#0B1020" opacity="0.55" stroke="url(#strokeA)" stroke-width="1.2"/>
</g>

<g opacity="0.190">
  <line x1="535.7" y1="1442.5" x2="535.7" y2="1507.4" stroke="#2DD4BF" stroke-width="1.69" opacity="0.45"/>
  <rect x="532.5" y="1484.3" width="6.3" height="20.3" rx="2.1" fill="#0B1020" opacity="0.55" stroke="url(#strokeA)" stroke-width="1.2"/>
</g>

<g opacity="0.190">
  <line x1="197.8" y1="1412.1" x2="197.8" y2="1515.0" stroke="#2DD4BF" stroke-width="1.24" opacity="0.45"/>
  <rect x="194.8" y="1464.5" width="6.1" height="59.8" rx="2.0" fill="#0B1020" opacity="0.55" stroke="url(#strokeA)" stroke-width="1.2"/>
</g>

<g opacity="0.190">
  <line x1="615.6" y1="1431.2" x2="615.6" y2="1510.2" stroke="#2DD4BF" stroke-width="2.01" opacity="0.45"/>
  <rect x="610.2" y="1468.7" width="10.7" height="51.3" rx="3.6" fill="#0B1020" opacity="0.55" stroke="url(#strokeA)" stroke-width="1.2"/>
</g>

<g opacity="0.190">
  <line x1="12.8" y1="1415.9" x2="12.8" y2="1514.0" stroke="#2DD4BF" stroke-width="1.74" opacity="0.45"/>
  <rect x="7.6" y="1468.7" width="10.4" height="51.5" rx="3.5" fill="#0B1020" opacity="0.55" stroke="url(#strokeA)" stroke-width="1.2"/>
</g>

<g opacity="0.190">
  <line x1="649.3" y1="1429.5" x2="649.3" y2="1510.6" stroke="#2DD4BF" stroke-width="1.98" opacity="0.45"/>
  <rect x="645.4" y="1480.7" width="7.7" height="27.4" rx="2.6" fill="#0B1020" opacity="0.55" stroke="url(#strokeA)" stroke-width="1.2"/>
</g>

<g opacity="0.190">
  <line x1="602.1" y1="1401.9" x2="602.1" y2="1517.5" stroke="#2DD4BF" stroke-width="1.44" opacity="0.45"/>
  <rect x="598.8" y="1465.5" width="6.7" height="57.8" rx="2.2" fill="#0B1020" opacity="0.55" stroke="url(#strokeA)" stroke-width="1.2"/>
</g>

<g opacity="0.190">
  <line x1="633.5" y1="1424.2" x2="633.5" y2="1511.9" stroke="#2DD4BF" stroke-width="1.99" opacity="0.45"/>
  <rect x="629.9" y="1471.3" width="7.2" height="46.1" rx="2.4" fill="#0B1020" opacity="0.55" stroke="url(#strokeA)" stroke-width="1.2"/>
</g>
<circle cx="74.7" cy="20.5" r="2.7" fill="#F472B6" opacity="0.11" filter="url(#softGlow)"/>
<circle cx="260.9" cy="51.8" r="2.2" fill="#F472B6" opacity="0.27" filter="url(#softGlow)"/>
<circle cx="107.9" cy="1213.5" r="2.5" fill="#F472B6" opacity="0.15" filter="url(#softGlow)"/>
<circle cx="831.6" cy="1550.1" r="2.7" fill="#F472B6" opacity="0.17" filter="url(#softGlow)"/>
<circle cx="876.2" cy="148.5" r="2.7" fill="#F472B6" opacity="0.19" filter="url(#softGlow)"/>
<circle cx="95.6" cy="1438.0" r="1.8" fill="#F472B6" opacity="0.14" filter="url(#softGlow)"/>
<circle cx="18.6" cy="105.4" r="3.2" fill="#F472B6" opacity="0.12" filter="url(#softGlow)"/>
<circle cx="810.2" cy="54.9" r="2.7" fill="#F472B6" opacity="0.27" filter="url(#softGlow)"/>
<circle cx="54.2" cy="1520.2" r="1.8" fill="#F472B6" opacity="0.11" filter="url(#softGlow)"/>
<circle cx="140.9" cy="1398.1" r="3.1" fill="#F472B6" opacity="0.15" filter="url(#softGlow)"/>
<circle cx="158.4" cy="1357.0" r="3.0" fill="#F472B6" opacity="0.18" filter="url(#softGlow)"/>
<circle cx="559.2" cy="156.6" r="2.9" fill="#F472B6" opacity="0.14" filter="url(#softGlow)"/>
<circle cx="835.8" cy="1535.8" r="1.5" fill="#F472B6" opacity="0.20" filter="url(#softGlow)"/>
<circle cx="271.2" cy="38.9" r="2.7" fill="#F472B6" opacity="0.20" filter="url(#softGlow)"/>
<circle cx="798.3" cy="1594.7" r="1.9" fill="#F472B6" opacity="0.10" filter="url(#softGlow)"/>
<circle cx="874.7" cy="1423.0" r="3.0" fill="#F472B6" opacity="0.18" filter="url(#softGlow)"/>
<circle cx="94.1" cy="334.4" r="2.5" fill="#F472B6" opacity="0.18" filter="url(#softGlow)"/>
<circle cx="22.6" cy="1546.5" r="1.9" fill="#F472B6" opacity="0.18" filter="url(#softGlow)"/>
<circle cx="28.5" cy="32.8" r="2.3" fill="#F472B6" opacity="0.27" filter="url(#softGlow)"/>
<circle cx="32.7" cy="1448.7" r="2.2" fill="#F472B6" opacity="0.19" filter="url(#softGlow)"/>
<circle cx="424.8" cy="1590.5" r="2.6" fill="#F472B6" opacity="0.19" filter="url(#softGlow)"/>
<circle cx="3.4" cy="11.2" r="2.9" fill="#F472B6" opacity="0.14" filter="url(#softGlow)"/>
<circle cx="857.4" cy="89.1" r="1.8" fill="#F472B6" opacity="0.21" filter="url(#softGlow)"/>
<circle cx="797.0" cy="134.2" r="1.4" fill="#F472B6" opacity="0.22" filter="url(#softGlow)"/>
<circle cx="382.3" cy="49.8" r="2.8" fill="#F472B6" opacity="0.21" filter="url(#softGlow)"/>
<circle cx="285.1" cy="82.3" r="2.3" fill="#F472B6" opacity="0.19" filter="url(#softGlow)"/>
<circle cx="879.1" cy="1543.1" r="1.6" fill="#F472B6" opacity="0.13" filter="url(#softGlow)"/>
<circle cx="109.2" cy="928.0" r="1.6" fill="#F472B6" opacity="0.17" filter="url(#softGlow)"/>
<circle cx="125.4" cy="73.1" r="2.6" fill="#F472B6" opacity="0.13" filter="url(#softGlow)"/>
<circle cx="104.0" cy="540.9" r="2.8" fill="#F472B6" opacity="0.19" filter="url(#softGlow)"/>
<circle cx="118.5" cy="21.1" r="3.2" fill="#F472B6" opacity="0.16" filter="url(#softGlow)"/>
</svg>