<svg xmlns="http://www.w3.org/2000/svg" width="900" height="1600" viewBox="0 0 900 1600" preserveAspectRatio="xMidYMid slice">
<defs>
  <linearGradient id="g0" x1="0" y1="0" x2="1" y2="1">
    <stop offset="0" stop-color="#0B1020"/>
    <stop offset="0.55" stop-color="#E11D48" stop-opacity="0.9"/>
    <stop offset="1" stop-color="#020617"/>
  </linearGradient>
  <radialGradient id="g1" cx="20%" cy="15%" r="70%">
    <stop offset="0" stop-color="#7C3AED" stop-opacity="0.38"/>
    <stop offset="0.6" stop-color="#7C3AED" stop-opacity="0.08"/>
    <stop offset="1" stop-color="#7C3AED" stop-opacity="0"/>
  </radialGradient>
  <radialGradient id="g2" cx="85%" cy="80%" r="75%">
    <stop offset="0" stop-color="#7C3AED" stop-opacity="0.28"/>
    <stop offset="0.65" stop-color="#7C3AED" stop-opacity="0.06"/>
    <stop offset="1" stop-color="#7C3AED" stop-opacity="0"/>
  </radialGradient>
  <filter id="softGlow" x="-30%" y="-30%" width="160%" height="160%">
    <feGaussianBlur stdDeviation="12" result="b"/>
    <feMerge>
      <feMergeNode in="b"/>
      <feMergeNode in="SourceGraphic"/>
    </feMerge>
  </filter>
  <filter id="hardGlow" x="-40%" y="-40%" width="180%" height="180%">
    <feGaussianBlur stdDeviation="6" result="b"/>
    <feColorMatrix in="b" type="matrix" values="1 0 0 0 0  0 1 0 0 0  0 0 1 0 0  0 0 0 18 -7" result="c"/>
    <feMerge>
      <feMergeNode in="c"/>
      <feMergeNode in="SourceGraphic"/>
    </feMerge>
  </filter>
  <linearGradient id="strokeA" x1="0" y1="0" x2="1" y2="0">
    <stop offset="0" stop-color="#7C3AED" stop-opacity="0.9"/>
    <stop offset="0.5" stop-color="#FFFFFF" stop-opacity="0.25"/>
    <stop offset="1" stop-color="#7C3AED" stop-opacity="0.7"/>
  </linearGradient>
  <linearGradient id="strokeB" x1="0" y1="0" x2="0" y2="1">
    <stop offset="0" stop-color="#FFFFFF" stop-opacity="0.18"/>
    <stop offset="1" stop-color="#7C3AED" stop-opacity="0.55"/>
  </linearGradient>
</defs>
<rect x="0" y="0" width="900" height="1600" fill="url(#g0)"/>
<rect x="0" y="0" width="900" height="1600" fill="url(#g1)"/>
<rect x="0" y="0" width="900" height="1600" fill="url(#g2)"/>


<defs>
  <radialGradient id="vign" cx="0.5000" cy="0.5000" r="0.85">
    <stop offset="0" stop-color="#000000" stop-opacity="0"/>
    <stop offset="0.55" stop-color="#000000" stop-opacity="0.217"/>
    <stop offset="1" stop-color="#000000" stop-opacity="0.620"/>
  </radialGradient>
</defs>
<rect x="0" y="0" width="900" height="1600" fill="url(#vign)"/>

<g opacity="0.230" filter="url(#softGlow)"><path d="M 610.8,6.5 L 393.9,6.5 L 393.9,171.4 L 575.7,171.4 L 575.7,1465.9 " fill="none" stroke="url(#strokeB)" stroke-width="1.64" stroke-linecap="round" stroke-linejoin="round"/><circle cx="575.7" cy="1465.9" r="2.9" fill="#22C55E" opacity="0.45"/><circle cx="393.9" cy="171.4" r="2.8" fill="#22C55E" opacity="0.45"/><circle cx="575.7" cy="171.4" r="2.7" fill="#22C55E" opacity="0.45"/></g>
<g opacity="0.230" filter="url(#softGlow)"><path d="M 23.1,1484.3 L 171.7,1484.3 L 171.7,1469.3 L 790.9,1469.3 L 790.9,1420.5 " fill="none" stroke="url(#strokeB)" stroke-width="1.41" stroke-linecap="round" stroke-linejoin="round"/><circle cx="23.1" cy="1484.3" r="2.8" fill="#22C55E" opacity="0.45"/><circle cx="171.7" cy="1469.3" r="4.0" fill="#22C55E" opacity="0.45"/><circle cx="171.7" cy="1484.3" r="2.5" fill="#22C55E" opacity="0.45"/></g>
<g opacity="0.230" filter="url(#softGlow)"><path d="M 8.0,112.3 L 750.0,112.3 L 750.0,1446.6 L 48.8,1446.6 L 48.8,81.9 " fill="none" stroke="url(#strokeB)" stroke-width="2.05" stroke-linecap="round" stroke-linejoin="round"/><circle cx="48.8" cy="81.9" r="2.5" fill="#22C55E" opacity="0.45"/><circle cx="48.8" cy="1446.6" r="3.1" fill="#22C55E" opacity="0.45"/><circle cx="750.0" cy="112.3" r="3.8" fill="#22C55E" opacity="0.45"/></g>
<g opacity="0.230" filter="url(#softGlow)"><path d="M 751.1,1528.6 L 758.3,1528.6 L 758.3,83.0 L 820.3,83.0 L 820.3,99.3 " fill="none" stroke="url(#strokeB)" stroke-width="1.93" stroke-linecap="round" stroke-linejoin="round"/><circle cx="820.3" cy="83.0" r="4.0" fill="#22C55E" opacity="0.45"/><circle cx="758.3" cy="83.0" r="2.0" fill="#22C55E" opacity="0.45"/><circle cx="820.3" cy="99.3" r="2.6" fill="#22C55E" opacity="0.45"/></g>
<g opacity="0.230" filter="url(#softGlow)"><path d="M 68.6,28.9 L 17.6,28.9 L 17.6,77.3 L 29.6,77.3 L 29.6,317.3 " fill="none" stroke="url(#strokeB)" stroke-width="1.79" stroke-linecap="round" stroke-linejoin="round"/><circle cx="17.6" cy="77.3" r="4.2" fill="#22C55E" opacity="0.45"/><circle cx="29.6" cy="77.3" r="2.3" fill="#22C55E" opacity="0.45"/><circle cx="29.6" cy="317.3" r="2.7" fill="#22C55E" opacity="0.45"/></g>
<g opacity="0.230" filter="url(#softGlow)"><path d="M 64.1,1561.3 L 32.5,1561.3 L 32.5,203.9 L 147.8,203.9 L 147.8,86.8 " fill="none" stroke="url(#strokeB)" stroke-width="1.38" stroke-linecap="round" stroke-linejoin="round"/><circle cx="32.5" cy="1561.3" r="3.8" fill="#22C55E" opacity="0.45"/><circle cx="147.8" cy="86.8" r="4.0" fill="#22C55E" opacity="0.45"/><circle cx="64.1" cy="1561.3" r="4.0" fill="#22C55E" opacity="0.45"/></g>
<g opacity="0.230" filter="url(#softGlow)"><path d="M 126.8,1448.7 L 65.1,1448.7 L 65.1,341.7 L 93.7,341.7 L 93.7,46.3 " fill="none" stroke="url(#strokeB)" stroke-width="1.33" stroke-linecap="round" stroke-linejoin="round"/><circle cx="126.8" cy="1448.7" r="4.1" fill="#22C55E" opacity="0.45"/><circle cx="93.7" cy="341.7" r="3.3" fill="#22C55E" opacity="0.45"/><circle cx="65.1" cy="1448.7" r="2.1" fill="#22C55E" opacity="0.45"/></g>
<g opacity="0.230" filter="url(#softGlow)"><path d="M 142.8,600.6 L 758.7,600.6 L 758.7,44.3 L 281.4,44.3 L 281.4,1442.4 " fill="none" stroke="url(#strokeB)" stroke-width="1.60" stroke-linecap="round" stroke-linejoin="round"/><circle cx="142.8" cy="600.6" r="2.7" fill="#22C55E" opacity="0.45"/><circle cx="758.7" cy="600.6" r="3.8" fill="#22C55E" opacity="0.45"/><circle cx="281.4" cy="44.3" r="2.2" fill="#22C55E" opacity="0.45"/></g>
<g opacity="0.230" filter="url(#softGlow)"><path d="M 36.3,1434.9 L 61.8,1434.9 L 61.8,1495.1 L 153.8,1495.1 L 153.8,171.0 " fill="none" stroke="url(#strokeB)" stroke-width="2.13" stroke-linecap="round" stroke-linejoin="round"/><circle cx="153.8" cy="1495.1" r="2.5" fill="#22C55E" opacity="0.45"/><circle cx="153.8" cy="171.0" r="3.4" fill="#22C55E" opacity="0.45"/><circle cx="36.3" cy="1434.9" r="4.0" fill="#22C55E" opacity="0.45"/></g>
<g opacity="0.230" filter="url(#softGlow)"><path d="M 882.4,1458.3 L 877.1,1458.3 L 877.1,394.3 L 105.1,394.3 L 105.1,283.8 " fill="none" stroke="url(#strokeB)" stroke-width="1.20" stroke-linecap="round" stroke-linejoin="round"/><circle cx="105.1" cy="283.8" r="3.6" fill="#22C55E" opacity="0.45"/><circle cx="877.1" cy="1458.3" r="3.9" fill="#22C55E" opacity="0.45"/><circle cx="877.1" cy="394.3" r="2.3" fill="#22C55E" opacity="0.45"/></g>
<g opacity="0.230" filter="url(#softGlow)"><path d="M 841.7,653.1 L 159.6,653.1 L 159.6,1552.2 L 155.7,1552.2 L 155.7,31.3 " fill="none" stroke="url(#strokeB)" stroke-width="1.90" stroke-linecap="round" stroke-linejoin="round"/><circle cx="159.6" cy="653.1" r="2.7" fill="#22C55E" opacity="0.45"/><circle cx="155.7" cy="31.3" r="3.6" fill="#22C55E" opacity="0.45"/><circle cx="841.7" cy="653.1" r="3.8" fill="#22C55E" opacity="0.45"/></g>
<g opacity="0.230" filter="url(#softGlow)"><path d="M 267.6,1.9 L 340.4,1.9 L 340.4,24.8 L 146.7,24.8 L 146.7,936.1 " fill="none" stroke="url(#strokeB)" stroke-width="1.31" stroke-linecap="round" stroke-linejoin="round"/><circle cx="340.4" cy="24.8" r="2.2" fill="#22C55E" opacity="0.45"/><circle cx="340.4" cy="1.9" r="3.9" fill="#22C55E" opacity="0.45"/><circle cx="146.7" cy="24.8" r="2.7" fill="#22C55E" opacity="0.45"/></g>
<g opacity="0.230" filter="url(#softGlow)"><path d="M 336.1,49.5 L 740.0,49.5 L 740.0,150.8 L 740.4,150.8 L 740.4,154.0 " fill="none" stroke="url(#strokeB)" stroke-width="1.90" stroke-linecap="round" stroke-linejoin="round"/><circle cx="336.1" cy="49.5" r="3.4" fill="#22C55E" opacity="0.45"/><circle cx="740.4" cy="154.0" r="2.7" fill="#22C55E" opacity="0.45"/><circle cx="740.0" cy="49.5" r="3.7" fill="#22C55E" opacity="0.45"/></g>
<g opacity="0.230" filter="url(#softGlow)"><path d="M 814.6,297.4 L 127.0,297.4 L 127.0,1598.1 L 10.9,1598.1 L 10.9,2.6 " fill="none" stroke="url(#strokeB)" stroke-width="2.03" stroke-linecap="round" stroke-linejoin="round"/><circle cx="814.6" cy="297.4" r="3.6" fill="#22C55E" opacity="0.45"/><circle cx="10.9" cy="2.6" r="2.5" fill="#22C55E" opacity="0.45"/><circle cx="127.0" cy="297.4" r="4.1" fill="#22C55E" opacity="0.45"/></g>
<g opacity="0.230" filter="url(#softGlow)"><path d="M 86.5,1465.5 L 774.5,1465.5 L 774.5,1150.3 L 93.5,1150.3 L 93.5,1510.7 " fill="none" stroke="url(#strokeB)" stroke-width="1.30" stroke-linecap="round" stroke-linejoin="round"/><circle cx="93.5" cy="1150.3" r="4.0" fill="#22C55E" opacity="0.45"/><circle cx="774.5" cy="1465.5" r="2.6" fill="#22C55E" opacity="0.45"/><circle cx="93.5" cy="1510.7" r="3.2" fill="#22C55E" opacity="0.45"/></g>
<g opacity="0.230" filter="url(#softGlow)"><path d="M 477.9,18.3 L 581.2,18.3 L 581.2,47.2 L 28.8,47.2 L 28.8,955.9 " fill="none" stroke="url(#strokeB)" stroke-width="1.90" stroke-linecap="round" stroke-linejoin="round"/><circle cx="581.2" cy="18.3" r="4.2" fill="#22C55E" opacity="0.45"/><circle cx="28.8" cy="955.9" r="3.4" fill="#22C55E" opacity="0.45"/><circle cx="477.9" cy="18.3" r="3.8" fill="#22C55E" opacity="0.45"/></g>
<g opacity="0.230" filter="url(#softGlow)"><path d="M 204.5,1488.3 L 806.8,1488.3 L 806.8,419.4 L 138.1,419.4 L 138.1,1124.0 " fill="none" stroke="url(#strokeB)" stroke-width="1.16" stroke-linecap="round" stroke-linejoin="round"/><circle cx="806.8" cy="1488.3" r="3.1" fill="#22C55E" opacity="0.45"/><circle cx="138.1" cy="419.4" r="3.9" fill="#22C55E" opacity="0.45"/><circle cx="806.8" cy="419.4" r="3.1" fill="#22C55E" opacity="0.45"/></g>
<g opacity="0.230" filter="url(#softGlow)"><path d="M 92.9,21.6 L 56.0,21.6 L 56.0,106.4 L 740.4,106.4 L 740.4,35.4 " fill="none" stroke="url(#strokeB)" stroke-width="1.82" stroke-linecap="round" stroke-linejoin="round"/><circle cx="740.4" cy="35.4" r="3.8" fill="#22C55E" opacity="0.45"/><circle cx="56.0" cy="21.6" r="3.3" fill="#22C55E" opacity="0.45"/><circle cx="740.4" cy="106.4" r="2.7" fill="#22C55E" opacity="0.45"/></g>
<g opacity="0.230" filter="url(#softGlow)"><path d="M 663.1,155.9 L 849.1,155.9 L 849.1,171.2 L 800.2,171.2 L 800.2,1572.4 " fill="none" stroke="url(#strokeB)" stroke-width="1.50" stroke-linecap="round" stroke-linejoin="round"/><circle cx="663.1" cy="155.9" r="3.5" fill="#22C55E" opacity="0.45"/><circle cx="800.2" cy="1572.4" r="2.9" fill="#22C55E" opacity="0.45"/><circle cx="800.2" cy="171.2" r="3.0" fill="#22C55E" opacity="0.45"/></g>
<g opacity="0.230" filter="url(#softGlow)"><path d="M 826.8,76.9 L 107.8,76.9 L 107.8,1568.6 L 1.9,1568.6 L 1.9,162.2 " fill="none" stroke="url(#strokeB)" stroke-width="1.89" stroke-linecap="round" stroke-linejoin="round"/><circle cx="826.8" cy="76.9" r="4.1" fill="#22C55E" opacity="0.45"/><circle cx="107.8" cy="76.9" r="3.9" fill="#22C55E" opacity="0.45"/><circle cx="107.8" cy="1568.6" r="3.7" fill="#22C55E" opacity="0.45"/></g>
<g opacity="0.230" filter="url(#softGlow)"><path d="M 95.9,196.3 L 64.7,196.3 L 64.7,1523.4 L 50.7,1523.4 L 50.7,54.3 " fill="none" stroke="url(#strokeB)" stroke-width="1.87" stroke-linecap="round" stroke-linejoin="round"/><circle cx="50.7" cy="1523.4" r="3.7" fill="#22C55E" opacity="0.45"/><circle cx="50.7" cy="54.3" r="2.7" fill="#22C55E" opacity="0.45"/><circle cx="64.7" cy="196.3" r="2.6" fill="#22C55E" opacity="0.45"/></g>
<g opacity="0.230" filter="url(#softGlow)"><path d="M 782.8,1437.7 L 66.2,1437.7 L 66.2,173.9 L 115.3,173.9 L 115.3,440.7 " fill="none" stroke="url(#strokeB)" stroke-width="1.26" stroke-linecap="round" stroke-linejoin="round"/><circle cx="115.3" cy="173.9" r="4.0" fill="#22C55E" opacity="0.45"/><circle cx="66.2" cy="1437.7" r="3.4" fill="#22C55E" opacity="0.45"/><circle cx="115.3" cy="440.7" r="3.5" fill="#22C55E" opacity="0.45"/></g>

<g opacity="0.752" filter="url(#hardGlow)">
  <circle cx="887.4" cy="86.7" r="32.0" fill="#0A1224" opacity="0.65"/>
  <circle cx="887.4" cy="86.7" r="32.0" fill="none" stroke="url(#strokeA)" stroke-width="2.6" opacity="0.85"/>
  <circle cx="887.4" cy="86.7" r="27.5" fill="none" stroke="#E11D48" stroke-width="1.5" opacity="0.35"/>
  <polygon points="910.2,89.8 896.0,108.0 873.2,104.9 864.5,83.5 878.7,65.3 901.5,68.5" fill="none" stroke="url(#strokeB)" stroke-width="1.2" opacity="0.65"/>
  <polygon points="894.5,90.4 880.5,91.0 887.1,78.6" fill="#E11D48" opacity="0.22" filter="url(#softGlow)"/>
</g>


<g opacity="0.487" filter="url(#hardGlow)">
  <circle cx="868.5" cy="98.0" r="17.5" fill="#0A1224" opacity="0.65"/>
  <circle cx="868.5" cy="98.0" r="17.5" fill="none" stroke="url(#strokeA)" stroke-width="2.0" opacity="0.85"/>
  <circle cx="868.5" cy="98.0" r="15.0" fill="none" stroke="#22C55E" stroke-width="1.5" opacity="0.35"/>
  <polygon points="856.2,95.3 864.7,86.0 876.9,88.7 880.7,100.7 872.3,110.0 860.0,107.3" fill="none" stroke="url(#strokeB)" stroke-width="1.2" opacity="0.65"/>
  <polygon points="864.7,95.6 872.4,96.0 868.3,102.4" fill="#22C55E" opacity="0.22" filter="url(#softGlow)"/>
</g>


<g opacity="0.603" filter="url(#hardGlow)">
  <circle cx="896.7" cy="77.0" r="12.7" fill="#0A1224" opacity="0.65"/>
  <circle cx="896.7" cy="77.0" r="12.7" fill="none" stroke="url(#strokeA)" stroke-width="2.0" opacity="0.85"/>
  <circle cx="896.7" cy="77.0" r="10.9" fill="none" stroke="#22C55E" stroke-width="1.5" opacity="0.35"/>
  <polygon points="905.5,79.3 899.0,85.8 890.2,83.5 887.8,74.7 894.3,68.2 903.1,70.5" fill="none" stroke="url(#strokeB)" stroke-width="1.2" opacity="0.65"/>
  
</g>


<g opacity="0.518" filter="url(#hardGlow)">
  <circle cx="865.4" cy="97.0" r="13.1" fill="#0A1224" opacity="0.65"/>
  <circle cx="865.4" cy="97.0" r="13.1" fill="none" stroke="url(#strokeA)" stroke-width="2.0" opacity="0.85"/>
  <circle cx="865.4" cy="97.0" r="11.3" fill="none" stroke="#22C55E" stroke-width="1.5" opacity="0.35"/>
  <polygon points="869.8,88.6 874.8,96.6 870.4,105.0 860.9,105.4 855.9,97.4 860.3,89.0" fill="none" stroke="url(#strokeB)" stroke-width="1.2" opacity="0.65"/>
  
</g>


<g opacity="0.724" filter="url(#hardGlow)">
  <circle cx="769.7" cy="54.7" r="47.8" fill="#0A1224" opacity="0.65"/>
  <circle cx="769.7" cy="54.7" r="47.8" fill="none" stroke="url(#strokeA)" stroke-width="3.8" opacity="0.85"/>
  <circle cx="769.7" cy="54.7" r="41.1" fill="none" stroke="#E11D48" stroke-width="1.5" opacity="0.35"/>
  <polygon points="804.1,56.3 785.6,85.3 751.2,83.7 735.3,53.1 753.9,24.1 788.3,25.7" fill="none" stroke="url(#strokeB)" stroke-width="1.2" opacity="0.65"/>
  <polygon points="780.9,59.4 760.2,62.0 768.2,42.8" fill="#E11D48" opacity="0.22" filter="url(#softGlow)"/>
</g>


<g opacity="0.603" filter="url(#hardGlow)">
  <circle cx="833.3" cy="31.1" r="22.6" fill="#0A1224" opacity="0.65"/>
  <circle cx="833.3" cy="31.1" r="22.6" fill="none" stroke="url(#strokeA)" stroke-width="2.0" opacity="0.85"/>
  <circle cx="833.3" cy="31.1" r="19.4" fill="none" stroke="#22C55E" stroke-width="1.5" opacity="0.35"/>
  <polygon points="845.3,20.2 848.8,36.0 836.8,47.0 821.3,42.1 817.8,26.2 829.8,15.2" fill="none" stroke="url(#strokeB)" stroke-width="1.2" opacity="0.65"/>
  <polygon points="838.6,28.9 832.6,36.8 828.8,27.6" fill="#22C55E" opacity="0.22" filter="url(#softGlow)"/>
</g>


<g opacity="0.397" filter="url(#hardGlow)">
  <circle cx="781.0" cy="72.7" r="22.1" fill="#0A1224" opacity="0.65"/>
  <circle cx="781.0" cy="72.7" r="22.1" fill="none" stroke="url(#strokeA)" stroke-width="2.0" opacity="0.85"/>
  <circle cx="781.0" cy="72.7" r="19.0" fill="none" stroke="#22C55E" stroke-width="1.5" opacity="0.35"/>
  <polygon points="776.3,87.9 765.5,76.3 770.2,61.1 785.6,57.6 796.5,69.2 791.8,84.4" fill="none" stroke="url(#strokeB)" stroke-width="1.2" opacity="0.65"/>
  <polygon points="777.6,77.2 778.8,67.6 786.5,73.4" fill="#22C55E" opacity="0.22" filter="url(#softGlow)"/>
</g>


<g opacity="0.778" filter="url(#hardGlow)">
  <circle cx="845.8" cy="78.2" r="50.8" fill="#0A1224" opacity="0.65"/>
  <circle cx="845.8" cy="78.2" r="50.8" fill="none" stroke="url(#strokeA)" stroke-width="4.1" opacity="0.85"/>
  <circle cx="845.8" cy="78.2" r="43.7" fill="none" stroke="#E11D48" stroke-width="1.5" opacity="0.35"/>
  <polygon points="846.7,114.7 814.6,97.3 813.6,60.7 844.8,41.6 877.0,59.0 877.9,95.6" fill="none" stroke="url(#strokeB)" stroke-width="1.3" opacity="0.65"/>
  <polygon points="841.7,90.3 837.3,68.6 858.3,75.6" fill="#E11D48" opacity="0.22" filter="url(#softGlow)"/>
</g>


<g opacity="0.610" filter="url(#hardGlow)">
  <circle cx="904.9" cy="122.7" r="26.0" fill="#0A1224" opacity="0.65"/>
  <circle cx="904.9" cy="122.7" r="26.0" fill="none" stroke="url(#strokeA)" stroke-width="2.1" opacity="0.85"/>
  <circle cx="904.9" cy="122.7" r="22.3" fill="none" stroke="#22C55E" stroke-width="1.5" opacity="0.35"/>
  <polygon points="915.6,107.4 923.6,124.3 912.9,139.6 894.3,138.1 886.3,121.2 897.0,105.8" fill="none" stroke="url(#strokeB)" stroke-width="1.2" opacity="0.65"/>
  
</g>


<g opacity="0.724" filter="url(#hardGlow)">
  <circle cx="179.3" cy="26.9" r="41.8" fill="#0A1224" opacity="0.65"/>
  <circle cx="179.3" cy="26.9" r="41.8" fill="none" stroke="url(#strokeA)" stroke-width="3.3" opacity="0.85"/>
  <circle cx="179.3" cy="26.9" r="35.9" fill="none" stroke="#E11D48" stroke-width="1.5" opacity="0.35"/>
  <polygon points="209.1,30.2 191.3,54.4 161.4,51.1 149.4,23.5 167.2,-0.7 197.1,2.7" fill="none" stroke="url(#strokeB)" stroke-width="1.2" opacity="0.65"/>
  <polygon points="188.7,31.5 170.5,32.7 178.6,16.3" fill="#E11D48" opacity="0.22" filter="url(#softGlow)"/>
</g>


<g opacity="0.373" filter="url(#hardGlow)">
  <circle cx="181.7" cy="29.0" r="22.3" fill="#0A1224" opacity="0.65"/>
  <circle cx="181.7" cy="29.0" r="22.3" fill="none" stroke="url(#strokeA)" stroke-width="2.0" opacity="0.85"/>
  <circle cx="181.7" cy="29.0" r="19.2" fill="none" stroke="#22C55E" stroke-width="1.5" opacity="0.35"/>
  <polygon points="169.2,39.2 166.7,23.3 179.2,13.2 194.2,18.9 196.8,34.8 184.3,44.9" fill="none" stroke="url(#strokeB)" stroke-width="1.2" opacity="0.65"/>
  <polygon points="176.4,30.9 182.8,23.5 186.0,32.7" fill="#22C55E" opacity="0.22" filter="url(#softGlow)"/>
</g>


<g opacity="0.412" filter="url(#hardGlow)">
  <circle cx="144.6" cy="11.4" r="21.3" fill="#0A1224" opacity="0.65"/>
  <circle cx="144.6" cy="11.4" r="21.3" fill="none" stroke="url(#strokeA)" stroke-width="2.0" opacity="0.85"/>
  <circle cx="144.6" cy="11.4" r="18.3" fill="none" stroke="#22C55E" stroke-width="1.5" opacity="0.35"/>
  <polygon points="149.1,26.1 134.1,22.6 129.6,7.9 140.1,-3.3 155.1,0.1 159.6,14.8" fill="none" stroke="url(#strokeB)" stroke-width="1.2" opacity="0.65"/>
  
</g>


<g opacity="0.632" filter="url(#hardGlow)">
  <circle cx="140.1" cy="58.0" r="22.7" fill="#0A1224" opacity="0.65"/>
  <circle cx="140.1" cy="58.0" r="22.7" fill="none" stroke="url(#strokeA)" stroke-width="2.0" opacity="0.85"/>
  <circle cx="140.1" cy="58.0" r="19.5" fill="none" stroke="#22C55E" stroke-width="1.5" opacity="0.35"/>
  <polygon points="123.8,57.3 132.5,43.5 148.8,44.2 156.4,58.7 147.6,72.5 131.3,71.8" fill="none" stroke="url(#strokeB)" stroke-width="1.2" opacity="0.65"/>
  
</g>


<g opacity="0.898" filter="url(#hardGlow)">
  <circle cx="276.5" cy="1502.4" r="34.9" fill="#0A1224" opacity="0.65"/>
  <circle cx="276.5" cy="1502.4" r="34.9" fill="none" stroke="url(#strokeA)" stroke-width="2.8" opacity="0.85"/>
  <circle cx="276.5" cy="1502.4" r="30.0" fill="none" stroke="#E11D48" stroke-width="1.5" opacity="0.35"/>
  <polygon points="301.1,1507.5 284.4,1526.2 259.8,1521.2 251.9,1497.3 268.6,1478.6 293.2,1483.7" fill="none" stroke="url(#strokeB)" stroke-width="1.2" opacity="0.65"/>
  <polygon points="284.0,1507.0 268.8,1506.6 276.8,1493.6" fill="#E11D48" opacity="0.22" filter="url(#softGlow)"/>
</g>


<g opacity="0.532" filter="url(#hardGlow)">
  <circle cx="306.5" cy="1505.5" r="14.5" fill="#0A1224" opacity="0.65"/>
  <circle cx="306.5" cy="1505.5" r="14.5" fill="none" stroke="url(#strokeA)" stroke-width="2.0" opacity="0.85"/>
  <circle cx="306.5" cy="1505.5" r="12.4" fill="none" stroke="#22C55E" stroke-width="1.5" opacity="0.35"/>
  <polygon points="298.2,1511.8 296.9,1501.4 305.3,1495.2 314.9,1499.2 316.1,1509.6 307.8,1515.8" fill="none" stroke="url(#strokeB)" stroke-width="1.2" opacity="0.65"/>
  <polygon points="303.1,1506.6 307.4,1501.9 309.2,1508.0" fill="#22C55E" opacity="0.22" filter="url(#softGlow)"/>
</g>


<g opacity="0.518" filter="url(#hardGlow)">
  <circle cx="258.6" cy="1527.1" r="19.0" fill="#0A1224" opacity="0.65"/>
  <circle cx="258.6" cy="1527.1" r="19.0" fill="none" stroke="url(#strokeA)" stroke-width="2.0" opacity="0.85"/>
  <circle cx="258.6" cy="1527.1" r="16.3" fill="none" stroke="#22C55E" stroke-width="1.5" opacity="0.35"/>
  <polygon points="255.8,1540.4 245.7,1531.3 248.4,1518.0 261.4,1513.7 271.6,1522.8 268.8,1536.2" fill="none" stroke="url(#strokeB)" stroke-width="1.2" opacity="0.65"/>
  <polygon points="256.1,1531.1 256.4,1522.9 263.4,1527.2" fill="#22C55E" opacity="0.22" filter="url(#softGlow)"/>
</g>


<g opacity="0.329" transform="translate(829.9,61.1) rotate(0.1)" filter="url(#softGlow)">
  <rect x="-64.9" y="-59.1" width="129.8" height="118.2" rx="11.8" fill="#050A12" opacity="0.25"/>
  <rect x="-64.9" y="-59.1" width="129.8" height="118.2" rx="11.8" fill="none" stroke="url(#strokeA)" stroke-width="5.9" opacity="0.85"/>
  <rect x="-55.4" y="-49.6" width="110.8" height="99.3" rx="8.3" fill="none" stroke="#22C55E" stroke-width="2.4" opacity="0.35"/>
</g>


<g opacity="0.357" transform="translate(23.9,1478.2) rotate(3.9)" filter="url(#softGlow)">
  <rect x="-77.8" y="-60.3" width="155.6" height="120.6" rx="12.1" fill="#050A12" opacity="0.25"/>
  <rect x="-77.8" y="-60.3" width="155.6" height="120.6" rx="12.1" fill="none" stroke="url(#strokeA)" stroke-width="6.0" opacity="0.85"/>
  <rect x="-68.1" y="-50.7" width="136.3" height="101.3" rx="8.4" fill="none" stroke="#22C55E" stroke-width="2.4" opacity="0.35"/>
</g>


<g opacity="0.418" transform="translate(27.7,1528.5) rotate(3.0)" filter="url(#softGlow)">
  <rect x="-90.0" y="-85.5" width="180.1" height="171.0" rx="17.1" fill="#050A12" opacity="0.25"/>
  <rect x="-90.0" y="-85.5" width="180.1" height="171.0" rx="17.1" fill="none" stroke="url(#strokeA)" stroke-width="8.6" opacity="0.85"/>
  <rect x="-76.4" y="-71.8" width="152.7" height="143.7" rx="12.0" fill="none" stroke="#22C55E" stroke-width="3.4" opacity="0.35"/>
</g>


<g opacity="0.440" transform="translate(844.1,1510.0) rotate(-7.9)" filter="url(#softGlow)">
  <rect x="-96.3" y="-66.2" width="192.5" height="132.5" rx="13.2" fill="#050A12" opacity="0.25"/>
  <rect x="-96.3" y="-66.2" width="192.5" height="132.5" rx="13.2" fill="none" stroke="url(#strokeA)" stroke-width="6.6" opacity="0.85"/>
  <rect x="-85.7" y="-55.6" width="171.3" height="111.3" rx="9.3" fill="none" stroke="#E11D48" stroke-width="2.6" opacity="0.35"/>
</g>


<g opacity="0.234" transform="translate(445.7,1472.1) rotate(0.3)" filter="url(#softGlow)">
  <rect x="-45.8" y="-26.4" width="91.6" height="52.8" rx="16.1" fill="none" stroke="#22C55E" stroke-width="8.8" opacity="0.55"/>
  <rect x="-20.2" y="-13.2" width="91.6" height="52.8" rx="16.1" fill="none" stroke="url(#strokeA)" stroke-width="7.3" opacity="0.55"/>
</g>


<g opacity="0.224" transform="translate(885.3,129.1) rotate(16.5)" filter="url(#softGlow)">
  <rect x="-47.2" y="-27.2" width="94.3" height="54.3" rx="16.6" fill="none" stroke="#E11D48" stroke-width="9.1" opacity="0.55"/>
  <rect x="-20.8" y="-13.6" width="94.3" height="54.3" rx="16.6" fill="none" stroke="url(#strokeA)" stroke-width="7.5" opacity="0.55"/>
</g>


<g opacity="0.248" transform="translate(745.9,96.4) rotate(3.3)" filter="url(#softGlow)">
  <rect x="-35.5" y="-20.4" width="71.0" height="40.9" rx="12.5" fill="none" stroke="#22C55E" stroke-width="6.8" opacity="0.55"/>
  <rect x="-15.6" y="-10.2" width="71.0" height="40.9" rx="12.5" fill="none" stroke="url(#strokeA)" stroke-width="5.7" opacity="0.55"/>
</g>


<g opacity="0.275" transform="translate(63.2,1262.0) rotate(16.2)" filter="url(#softGlow)">
  <rect x="-42.6" y="-24.5" width="85.2" height="49.1" rx="15.0" fill="none" stroke="#22C55E" stroke-width="8.2" opacity="0.55"/>
  <rect x="-18.7" y="-12.3" width="85.2" height="49.1" rx="15.0" fill="none" stroke="url(#strokeA)" stroke-width="6.8" opacity="0.55"/>
</g>


<g opacity="0.289" transform="translate(122.6,1484.1) rotate(-9.3)" filter="url(#softGlow)">
  <rect x="-40.5" y="-23.3" width="81.1" height="46.7" rx="14.3" fill="none" stroke="#22C55E" stroke-width="7.8" opacity="0.55"/>
  <rect x="-17.8" y="-11.7" width="81.1" height="46.7" rx="14.3" fill="none" stroke="url(#strokeA)" stroke-width="6.5" opacity="0.55"/>
</g>


<g opacity="0.234" transform="translate(884.2,603.9) rotate(11.9)" filter="url(#softGlow)">
  <rect x="-40.9" y="-23.5" width="81.7" height="47.1" rx="14.4" fill="none" stroke="#22C55E" stroke-width="7.8" opacity="0.55"/>
  <rect x="-18.0" y="-11.8" width="81.7" height="47.1" rx="14.4" fill="none" stroke="url(#strokeA)" stroke-width="6.5" opacity="0.55"/>
</g>


<g opacity="0.165">
  <line x1="50.2" y1="1423.4" x2="50.2" y2="1487.2" stroke="#22C55E" stroke-width="1.41" opacity="0.45"/>
  <rect x="46.5" y="1462.7" width="7.3" height="23.6" rx="2.4" fill="#0B1020" opacity="0.55" stroke="url(#strokeA)" stroke-width="1.2"/>
</g>

<g opacity="0.165">
  <line x1="371.3" y1="1411.0" x2="371.3" y2="1490.3" stroke="#22C55E" stroke-width="1.62" opacity="0.45"/>
  <rect x="367.9" y="1454.9" width="6.7" height="39.2" rx="2.2" fill="#0B1020" opacity="0.55" stroke="url(#strokeA)" stroke-width="1.2"/>
</g>

<g opacity="0.165">
  <line x1="478.8" y1="1390.4" x2="478.8" y2="1495.5" stroke="#22C55E" stroke-width="2.00" opacity="0.45"/>
  <rect x="474.5" y="1447.8" width="8.7" height="53.3" rx="2.9" fill="#0B1020" opacity="0.55" stroke="url(#strokeA)" stroke-width="1.2"/>
</g>

<g opacity="0.165">
  <line x1="172.1" y1="1426.2" x2="172.1" y2="1486.5" stroke="#22C55E" stroke-width="1.41" opacity="0.45"/>
  <rect x="166.9" y="1465.2" width="10.4" height="18.6" rx="3.5" fill="#0B1020" opacity="0.55" stroke="url(#strokeA)" stroke-width="1.2"/>
</g>

<g opacity="0.165">
  <line x1="451.0" y1="1378.2" x2="451.0" y2="1498.5" stroke="#22C55E" stroke-width="1.62" opacity="0.45"/>
  <rect x="445.1" y="1444.9" width="11.7" height="59.1" rx="3.9" fill="#0B1020" opacity="0.55" stroke="url(#strokeA)" stroke-width="1.2"/>
</g>

<g opacity="0.165">
  <line x1="167.8" y1="1427.3" x2="167.8" y2="1486.2" stroke="#22C55E" stroke-width="1.01" opacity="0.45"/>
  <rect x="164.0" y="1459.3" width="7.5" height="30.2" rx="2.5" fill="#0B1020" opacity="0.55" stroke="url(#strokeA)" stroke-width="1.2"/>
</g>

<g opacity="0.165">
  <line x1="88.6" y1="1431.7" x2="88.6" y2="1485.1" stroke="#22C55E" stroke-width="1.17" opacity="0.45"/>
  <rect x="84.4" y="1460.1" width="8.4" height="28.6" rx="2.8" fill="#0B1020" opacity="0.55" stroke="url(#strokeA)" stroke-width="1.2"/>
</g>

<g opacity="0.165">
  <line x1="639.3" y1="1399.3" x2="639.3" y2="1493.3" stroke="#22C55E" stroke-width="1.90" opacity="0.45"/>
  <rect x="634.6" y="1454.6" width="9.4" height="39.8" rx="3.1" fill="#0B1020" opacity="0.55" stroke="url(#strokeA)" stroke-width="1.2"/>
</g>

<g opacity="0.165">
  <line x1="487.8" y1="1411.2" x2="487.8" y2="1490.3" stroke="#22C55E" stroke-width="1.95" opacity="0.45"/>
  <rect x="484.2" y="1450.3" width="7.0" height="48.3" rx="2.3" fill="#0B1020" opacity="0.55" stroke="url(#strokeA)" stroke-width="1.2"/>
</g>

<g opacity="0.165">
  <line x1="825.4" y1="1435.6" x2="825.4" y2="1484.2" stroke="#22C55E" stroke-width="1.08" opacity="0.45"/>
  <rect x="819.5" y="1462.3" width="11.7" height="24.2" rx="3.9" fill="#0B1020" opacity="0.55" stroke="url(#strokeA)" stroke-width="1.2"/>
</g>

<g opacity="0.165">
  <line x1="446.1" y1="1392.3" x2="446.1" y2="1495.0" stroke="#22C55E" stroke-width="1.50" opacity="0.45"/>
  <rect x="441.9" y="1451.0" width="8.5" height="46.8" rx="2.8" fill="#0B1020" opacity="0.55" stroke="url(#strokeA)" stroke-width="1.2"/>
</g>

<g opacity="0.165">
  <line x1="96.8" y1="1428.7" x2="96.8" y2="1485.9" stroke="#22C55E" stroke-width="1.48" opacity="0.45"/>
  <rect x="91.8" y="1458.1" width="10.0" height="32.6" rx="3.3" fill="#0B1020" opacity="0.55" stroke="url(#strokeA)" stroke-width="1.2"/>
</g>

<g opacity="0.165">
  <line x1="505.2" y1="1403.3" x2="505.2" y2="1492.2" stroke="#22C55E" stroke-width="1.07" opacity="0.45"/>
  <rect x="502.2" y="1452.2" width="6.0" height="44.4" rx="2.0" fill="#0B1020" opacity="0.55" stroke="url(#strokeA)" stroke-width="1.2"/>
</g>

<g opacity="0.165">
  <line x1="94.4" y1="1407.7" x2="94.4" y2="1491.1" stroke="#22C55E" stroke-width="1.51" opacity="0.45"/>
  <rect x="90.1" y="1460.2" width="8.6" height="28.4" rx="2.9" fill="#0B1020" opacity="0.55" stroke="url(#strokeA)" stroke-width="1.2"/>
</g>

<g opacity="0.165">
  <line x1="517.1" y1="1406.8" x2="517.1" y2="1491.4" stroke="#22C55E" stroke-width="2.01" opacity="0.45"/>
  <rect x="512.2" y="1457.3" width="9.9" height="34.2" rx="3.3" fill="#0B1020" opacity="0.55" stroke="url(#strokeA)" stroke-width="1.2"/>
</g>

<g opacity="0.165">
  <line x1="505.7" y1="1401.8" x2="505.7" y2="1492.6" stroke="#22C55E" stroke-width="1.11" opacity="0.45"/>
  <rect x="499.8" y="1451.3" width="11.7" height="46.3" rx="3.9" fill="#0B1020" opacity="0.55" stroke="url(#strokeA)" stroke-width="1.2"/>
</g>

<g opacity="0.165">
  <line x1="657.4" y1="1399.3" x2="657.4" y2="1493.2" stroke="#22C55E" stroke-width="1.98" opacity="0.45"/>
  <rect x="653.9" y="1455.3" width="7.0" height="38.3" rx="2.3" fill="#0B1020" opacity="0.55" stroke="url(#strokeA)" stroke-width="1.2"/>
</g>
<circle cx="135.7" cy="164.6" r="1.9" fill="#E11D48" opacity="0.19" filter="url(#softGlow)"/>
<circle cx="760.0" cy="1097.4" r="1.8" fill="#E11D48" opacity="0.10" filter="url(#softGlow)"/>
<circle cx="779.5" cy="92.5" r="3.1" fill="#E11D48" opacity="0.20" filter="url(#softGlow)"/>
<circle cx="240.7" cy="1420.2" r="2.1" fill="#E11D48" opacity="0.26" filter="url(#softGlow)"/>
<circle cx="101.9" cy="152.0" r="2.0" fill="#E11D48" opacity="0.24" filter="url(#softGlow)"/>
<circle cx="77.9" cy="1280.4" r="1.4" fill="#E11D48" opacity="0.18" filter="url(#softGlow)"/>
<circle cx="118.2" cy="155.8" r="1.9" fill="#E11D48" opacity="0.10" filter="url(#softGlow)"/>
<circle cx="29.7" cy="1482.8" r="1.6" fill="#E11D48" opacity="0.26" filter="url(#softGlow)"/>
<circle cx="738.7" cy="169.9" r="2.2" fill="#E11D48" opacity="0.15" filter="url(#softGlow)"/>
<circle cx="681.0" cy="1443.8" r="1.4" fill="#E11D48" opacity="0.14" filter="url(#softGlow)"/>
<circle cx="10.6" cy="57.6" r="2.5" fill="#E11D48" opacity="0.23" filter="url(#softGlow)"/>
<circle cx="868.7" cy="1449.9" r="2.7" fill="#E11D48" opacity="0.15" filter="url(#softGlow)"/>
<circle cx="148.3" cy="97.2" r="2.2" fill="#E11D48" opacity="0.17" filter="url(#softGlow)"/>
<circle cx="894.6" cy="74.9" r="1.8" fill="#E11D48" opacity="0.20" filter="url(#softGlow)"/>
<circle cx="740.8" cy="437.7" r="1.5" fill="#E11D48" opacity="0.10" filter="url(#softGlow)"/>
<circle cx="887.2" cy="1535.9" r="1.9" fill="#E11D48" opacity="0.17" filter="url(#softGlow)"/>
<circle cx="34.6" cy="1479.9" r="2.5" fill="#E11D48" opacity="0.28" filter="url(#softGlow)"/>
<circle cx="120.4" cy="1555.7" r="2.1" fill="#E11D48" opacity="0.28" filter="url(#softGlow)"/>
<circle cx="95.8" cy="1545.9" r="2.1" fill="#E11D48" opacity="0.22" filter="url(#softGlow)"/>
<circle cx="793.3" cy="1555.0" r="2.0" fill="#E11D48" opacity="0.19" filter="url(#softGlow)"/>
<circle cx="742.3" cy="168.1" r="3.1" fill="#E11D48" opacity="0.11" filter="url(#softGlow)"/>
<circle cx="149.1" cy="1445.9" r="1.9" fill="#E11D48" opacity="0.16" filter="url(#softGlow)"/>
<circle cx="741.6" cy="1169.4" r="2.5" fill="#E11D48" opacity="0.23" filter="url(#softGlow)"/>
<circle cx="771.1" cy="160.7" r="2.2" fill="#E11D48" opacity="0.11" filter="url(#softGlow)"/>
<circle cx="787.2" cy="1469.8" r="2.3" fill="#E11D48" opacity="0.20" filter="url(#softGlow)"/>
<circle cx="673.4" cy="1.1" r="3.2" fill="#E11D48" opacity="0.16" filter="url(#softGlow)"/>
</svg>