<svg xmlns="http://www.w3.org/2000/svg" width="900" height="1600" viewBox="0 0 900 1600" preserveAspectRatio="xMidYMid slice">
<defs>
  <linearGradient id="g0" x1="0" y1="0" x2="1" y2="1">
    <stop offset="0" stop-color="#0B1020"/>
    <stop offset="0.55" stop-color="#E11D48" stop-opacity="0.9"/>
    <stop offset="1" stop-color="#020617"/>
  </linearGradient>
  <radialGradient id="g1" cx="20%" cy="15%" r="70%">
    <stop offset="0" stop-color="#7C3AED" stop-opacity="0.38"/>
    <stop offset="0.6" stop-color="#7C3AED" stop-opacity="0.08"/>
    <stop offset="1" stop-color="#7C3AED" stop-opacity="0"/>
  </radialGradient>
  <radialGradient id="g2" cx="85%" cy="80%" r="75%">
    <stop offset="0" stop-color="#7C3AED" stop-opacity="0.28"/>
    <stop offset="0.65" stop-color="#7C3AED" stop-opacity="0.06"/>
    <stop offset="1" stop-color="#7C3AED" stop-opacity="0"/>
  </radialGradient>
  <filter id="softGlow" x="-30%" y="-30%" width="160%" height="160%">
    <feGaussianBlur stdDeviation="12" result="b"/>
    <feMerge>
      <feMergeNode in="b"/>
      <feMergeNode in="SourceGraphic"/>
    </feMerge>
  </filter>
  <filter id="hardGlow" x="-40%" y="-40%" width="180%" height="180%">
    <feGaussianBlur stdDeviation="6" result="b"/>
    <feColorMatrix in="b" type="matrix" values="1 0 0 0 0  0 1 0 0 0  0 0 1 0 0  0 0 0 18 -7" result="c"/>
    <feMerge>
      <feMergeNode in="c"/>
      <feMergeNode in="SourceGraphic"/>
    </feMerge>
  </filter>
  <linearGradient id="strokeA" x1="0" y1="0" x2="1" y2="0">
    <stop offset="0" stop-color="#7C3AED" stop-opacity="0.9"/>
    <stop offset="0.5" stop-color="#FFFFFF" stop-opacity="0.25"/>
    <stop offset="1" stop-color="#7C3AED" stop-opacity="0.7"/>
  </linearGradient>
  <linearGradient id="strokeB" x1="0" y1="0" x2="0" y2="1">
    <stop offset="0" stop-color="#FFFFFF" stop-opacity="0.18"/>
    <stop offset="1" stop-color="#7C3AED" stop-opacity="0.55"/>
  </linearGradient>
</defs>
<rect x="0" y="0" width="900" height="1600" fill="url(#g0)"/>
<rect x="0" y="0" width="900" height="1600" fill="url(#g1)"/>
<rect x="0" y="0" width="900" height="1600" fill="url(#g2)"/>


<defs>
  <radialGradient id="vign" cx="0.5000" cy="0.5000" r="0.85">
    <stop offset="0" stop-color="#000000" stop-opacity="0"/>
    <stop offset="0.55" stop-color="#000000" stop-opacity="0.217"/>
    <stop offset="1" stop-color="#000000" stop-opacity="0.620"/>
  </radialGradient>
</defs>
<rect x="0" y="0" width="900" height="1600" fill="url(#vign)"/>

<g opacity="0.186" filter="url(#softGlow)"><path d="M 850.9,76.9 L 878.3,76.9 L 878.3,86.0 L 731.2,86.0 L 731.2,1529.3 " fill="none" stroke="url(#strokeB)" stroke-width="1.62" stroke-linecap="round" stroke-linejoin="round"/><circle cx="878.3" cy="86.0" r="3.7" fill="#E11D48" opacity="0.45"/><circle cx="850.9" cy="76.9" r="2.5" fill="#E11D48" opacity="0.45"/><circle cx="878.3" cy="76.9" r="3.7" fill="#E11D48" opacity="0.45"/></g>
<g opacity="0.186" filter="url(#softGlow)"><path d="M 104.6,1477.9 L 756.4,1477.9 L 756.4,140.8 L 42.1,140.8 L 42.1,1475.1 " fill="none" stroke="url(#strokeB)" stroke-width="1.87" stroke-linecap="round" stroke-linejoin="round"/><circle cx="42.1" cy="1475.1" r="2.2" fill="#E11D48" opacity="0.45"/><circle cx="104.6" cy="1477.9" r="4.0" fill="#E11D48" opacity="0.45"/><circle cx="42.1" cy="140.8" r="3.0" fill="#E11D48" opacity="0.45"/></g>
<g opacity="0.186" filter="url(#softGlow)"><path d="M 841.1,1205.7 L 878.0,1205.7 L 878.0,1283.2 L 97.5,1283.2 L 97.5,26.2 " fill="none" stroke="url(#strokeB)" stroke-width="2.07" stroke-linecap="round" stroke-linejoin="round"/><circle cx="878.0" cy="1283.2" r="3.5" fill="#E11D48" opacity="0.45"/><circle cx="97.5" cy="1283.2" r="2.3" fill="#E11D48" opacity="0.45"/><circle cx="841.1" cy="1205.7" r="3.6" fill="#E11D48" opacity="0.45"/></g>
<g opacity="0.186" filter="url(#softGlow)"><path d="M 90.8,1188.7 L 60.0,1188.7 L 60.0,788.0 L 848.7,788.0 L 848.7,1457.5 " fill="none" stroke="url(#strokeB)" stroke-width="1.44" stroke-linecap="round" stroke-linejoin="round"/><circle cx="848.7" cy="1457.5" r="2.9" fill="#E11D48" opacity="0.45"/><circle cx="60.0" cy="788.0" r="2.2" fill="#E11D48" opacity="0.45"/><circle cx="60.0" cy="1188.7" r="2.0" fill="#E11D48" opacity="0.45"/></g>
<g opacity="0.186" filter="url(#softGlow)"><path d="M 104.1,43.4 L 762.8,43.4 L 762.8,30.6 L 164.2,30.6 L 164.2,1480.5 " fill="none" stroke="url(#strokeB)" stroke-width="1.18" stroke-linecap="round" stroke-linejoin="round"/><circle cx="762.8" cy="30.6" r="3.6" fill="#E11D48" opacity="0.45"/><circle cx="104.1" cy="43.4" r="3.1" fill="#E11D48" opacity="0.45"/><circle cx="762.8" cy="43.4" r="2.1" fill="#E11D48" opacity="0.45"/></g>
<g opacity="0.186" filter="url(#softGlow)"><path d="M 884.6,46.6 L 140.4,46.6 L 140.4,41.9 L 777.9,41.9 L 777.9,142.3 " fill="none" stroke="url(#strokeB)" stroke-width="1.84" stroke-linecap="round" stroke-linejoin="round"/><circle cx="777.9" cy="142.3" r="2.7" fill="#E11D48" opacity="0.45"/><circle cx="140.4" cy="41.9" r="3.1" fill="#E11D48" opacity="0.45"/><circle cx="777.9" cy="41.9" r="4.1" fill="#E11D48" opacity="0.45"/></g>
<g opacity="0.186" filter="url(#softGlow)"><path d="M 41.4,941.5 L 848.0,941.5 L 848.0,1452.5 L 860.7,1452.5 L 860.7,1567.2 " fill="none" stroke="url(#strokeB)" stroke-width="2.10" stroke-linecap="round" stroke-linejoin="round"/><circle cx="860.7" cy="1452.5" r="3.3" fill="#E11D48" opacity="0.45"/><circle cx="848.0" cy="941.5" r="2.1" fill="#E11D48" opacity="0.45"/><circle cx="848.0" cy="1452.5" r="3.2" fill="#E11D48" opacity="0.45"/></g>
<g opacity="0.186" filter="url(#softGlow)"><path d="M 862.1,1496.1 L 745.0,1496.1 L 745.0,67.1 L 1.6,67.1 L 1.6,1572.5 " fill="none" stroke="url(#strokeB)" stroke-width="2.17" stroke-linecap="round" stroke-linejoin="round"/><circle cx="745.0" cy="67.1" r="3.3" fill="#E11D48" opacity="0.45"/><circle cx="1.6" cy="67.1" r="4.0" fill="#E11D48" opacity="0.45"/><circle cx="862.1" cy="1496.1" r="3.5" fill="#E11D48" opacity="0.45"/></g>
<g opacity="0.186" filter="url(#softGlow)"><path d="M 869.3,1131.5 L 518.8,1131.5 L 518.8,59.7 L 170.2,59.7 L 170.2,132.7 " fill="none" stroke="url(#strokeB)" stroke-width="1.56" stroke-linecap="round" stroke-linejoin="round"/><circle cx="869.3" cy="1131.5" r="4.0" fill="#E11D48" opacity="0.45"/><circle cx="518.8" cy="59.7" r="3.5" fill="#E11D48" opacity="0.45"/><circle cx="170.2" cy="132.7" r="3.2" fill="#E11D48" opacity="0.45"/></g>
<g opacity="0.186" filter="url(#softGlow)"><path d="M 833.9,1482.0 L 853.6,1482.0 L 853.6,1566.3 L 28.2,1566.3 L 28.2,1491.3 " fill="none" stroke="url(#strokeB)" stroke-width="1.27" stroke-linecap="round" stroke-linejoin="round"/><circle cx="853.6" cy="1566.3" r="3.7" fill="#E11D48" opacity="0.45"/><circle cx="28.2" cy="1491.3" r="2.7" fill="#E11D48" opacity="0.45"/><circle cx="28.2" cy="1566.3" r="3.2" fill="#E11D48" opacity="0.45"/></g>
<g opacity="0.186" filter="url(#softGlow)"><path d="M 141.8,60.2 L 787.8,60.2 L 787.8,159.5 L 110.1,159.5 L 110.1,895.5 " fill="none" stroke="url(#strokeB)" stroke-width="1.12" stroke-linecap="round" stroke-linejoin="round"/><circle cx="141.8" cy="60.2" r="2.6" fill="#E11D48" opacity="0.45"/><circle cx="110.1" cy="159.5" r="4.0" fill="#E11D48" opacity="0.45"/><circle cx="787.8" cy="159.5" r="2.4" fill="#E11D48" opacity="0.45"/></g>
<g opacity="0.186" filter="url(#softGlow)"><path d="M 523.2,1476.9 L 822.3,1476.9 L 822.3,41.0 L 871.0,41.0 L 871.0,358.2 " fill="none" stroke="url(#strokeB)" stroke-width="1.44" stroke-linecap="round" stroke-linejoin="round"/><circle cx="871.0" cy="358.2" r="2.9" fill="#E11D48" opacity="0.45"/><circle cx="822.3" cy="1476.9" r="2.5" fill="#E11D48" opacity="0.45"/><circle cx="822.3" cy="41.0" r="2.9" fill="#E11D48" opacity="0.45"/></g>
<g opacity="0.186" filter="url(#softGlow)"><path d="M 24.3,1563.1 L 858.8,1563.1 L 858.8,1427.7 L 873.9,1427.7 L 873.9,1541.2 " fill="none" stroke="url(#strokeB)" stroke-width="1.73" stroke-linecap="round" stroke-linejoin="round"/><circle cx="858.8" cy="1427.7" r="4.0" fill="#E11D48" opacity="0.45"/><circle cx="858.8" cy="1563.1" r="3.5" fill="#E11D48" opacity="0.45"/><circle cx="24.3" cy="1563.1" r="3.8" fill="#E11D48" opacity="0.45"/></g>
<g opacity="0.186" filter="url(#softGlow)"><path d="M 886.2,1596.4 L 143.9,1596.4 L 143.9,178.1 L 837.3,178.1 L 837.3,1451.4 " fill="none" stroke="url(#strokeB)" stroke-width="1.65" stroke-linecap="round" stroke-linejoin="round"/><circle cx="886.2" cy="1596.4" r="2.9" fill="#E11D48" opacity="0.45"/><circle cx="837.3" cy="1451.4" r="3.4" fill="#E11D48" opacity="0.45"/><circle cx="143.9" cy="178.1" r="2.3" fill="#E11D48" opacity="0.45"/></g>
<g opacity="0.186" filter="url(#softGlow)"><path d="M 118.6,1404.1 L 722.5,1404.1 L 722.5,109.0 L 98.1,109.0 L 98.1,1492.0 " fill="none" stroke="url(#strokeB)" stroke-width="1.12" stroke-linecap="round" stroke-linejoin="round"/><circle cx="98.1" cy="109.0" r="2.4" fill="#E11D48" opacity="0.45"/><circle cx="98.1" cy="1492.0" r="2.1" fill="#E11D48" opacity="0.45"/><circle cx="118.6" cy="1404.1" r="3.0" fill="#E11D48" opacity="0.45"/></g>
<g opacity="0.186" filter="url(#softGlow)"><path d="M 434.0,1485.3 L 760.3,1485.3 L 760.3,174.4 L 442.0,174.4 L 442.0,1499.7 " fill="none" stroke="url(#strokeB)" stroke-width="1.52" stroke-linecap="round" stroke-linejoin="round"/><circle cx="442.0" cy="174.4" r="3.6" fill="#E11D48" opacity="0.45"/><circle cx="760.3" cy="174.4" r="3.3" fill="#E11D48" opacity="0.45"/><circle cx="760.3" cy="1485.3" r="2.5" fill="#E11D48" opacity="0.45"/></g>
<g opacity="0.186" filter="url(#softGlow)"><path d="M 21.7,661.7 L 897.0,661.7 L 897.0,32.2 L 65.1,32.2 L 65.1,98.1 " fill="none" stroke="url(#strokeB)" stroke-width="1.23" stroke-linecap="round" stroke-linejoin="round"/><circle cx="897.0" cy="32.2" r="4.0" fill="#E11D48" opacity="0.45"/><circle cx="65.1" cy="98.1" r="2.9" fill="#E11D48" opacity="0.45"/><circle cx="65.1" cy="32.2" r="3.3" fill="#E11D48" opacity="0.45"/></g>
<g opacity="0.186" filter="url(#softGlow)"><path d="M 169.8,41.3 L 498.3,41.3 L 498.3,1514.9 L 863.8,1514.9 L 863.8,121.3 " fill="none" stroke="url(#strokeB)" stroke-width="1.64" stroke-linecap="round" stroke-linejoin="round"/><circle cx="169.8" cy="41.3" r="3.4" fill="#E11D48" opacity="0.45"/><circle cx="863.8" cy="1514.9" r="3.9" fill="#E11D48" opacity="0.45"/><circle cx="498.3" cy="1514.9" r="2.3" fill="#E11D48" opacity="0.45"/></g>
<g opacity="0.186" filter="url(#softGlow)"><path d="M 597.9,1512.2 L 10.7,1512.2 L 10.7,826.5 L 326.9,826.5 L 326.9,1559.7 " fill="none" stroke="url(#strokeB)" stroke-width="1.20" stroke-linecap="round" stroke-linejoin="round"/><circle cx="326.9" cy="1559.7" r="3.4" fill="#E11D48" opacity="0.45"/><circle cx="326.9" cy="826.5" r="4.0" fill="#E11D48" opacity="0.45"/><circle cx="10.7" cy="1512.2" r="3.4" fill="#E11D48" opacity="0.45"/></g>
<g opacity="0.186" filter="url(#softGlow)"><path d="M 807.3,54.9 L 164.5,54.9 L 164.5,32.2 L 633.1,32.2 L 633.1,110.5 " fill="none" stroke="url(#strokeB)" stroke-width="1.62" stroke-linecap="round" stroke-linejoin="round"/><circle cx="164.5" cy="54.9" r="3.0" fill="#E11D48" opacity="0.45"/><circle cx="807.3" cy="54.9" r="3.0" fill="#E11D48" opacity="0.45"/><circle cx="633.1" cy="32.2" r="2.5" fill="#E11D48" opacity="0.45"/></g>
<g opacity="0.186" filter="url(#softGlow)"><path d="M 810.3,1554.9 L 113.8,1554.9 L 113.8,1487.2 L 825.3,1487.2 L 825.3,176.8 " fill="none" stroke="url(#strokeB)" stroke-width="1.53" stroke-linecap="round" stroke-linejoin="round"/><circle cx="113.8" cy="1554.9" r="3.5" fill="#E11D48" opacity="0.45"/><circle cx="113.8" cy="1487.2" r="3.4" fill="#E11D48" opacity="0.45"/><circle cx="810.3" cy="1554.9" r="2.7" fill="#E11D48" opacity="0.45"/></g>
<g opacity="0.186" filter="url(#softGlow)"><path d="M 230.4,138.9 L 792.3,138.9 L 792.3,1146.0 L 42.7,1146.0 L 42.7,257.2 " fill="none" stroke="url(#strokeB)" stroke-width="1.74" stroke-linecap="round" stroke-linejoin="round"/><circle cx="42.7" cy="1146.0" r="3.4" fill="#E11D48" opacity="0.45"/><circle cx="42.7" cy="257.2" r="3.2" fill="#E11D48" opacity="0.45"/><circle cx="792.3" cy="138.9" r="2.8" fill="#E11D48" opacity="0.45"/></g>

<g opacity="0.862" filter="url(#hardGlow)">
  <circle cx="108.9" cy="429.0" r="34.0" fill="#0A1224" opacity="0.65"/>
  <circle cx="108.9" cy="429.0" r="34.0" fill="none" stroke="url(#strokeA)" stroke-width="2.7" opacity="0.85"/>
  <circle cx="108.9" cy="429.0" r="29.2" fill="none" stroke="#22C55E" stroke-width="1.5" opacity="0.35"/>
  <polygon points="84.4,428.9 96.7,407.8 121.2,407.9 133.3,429.1 121.0,450.2 96.5,450.1" fill="none" stroke="url(#strokeB)" stroke-width="1.2" opacity="0.65"/>
  <polygon points="100.8,426.0 115.5,423.5 110.3,437.4" fill="#22C55E" opacity="0.22" filter="url(#softGlow)"/>
</g>


<g opacity="0.457" filter="url(#hardGlow)">
  <circle cx="113.6" cy="415.4" r="17.1" fill="#0A1224" opacity="0.65"/>
  <circle cx="113.6" cy="415.4" r="17.1" fill="none" stroke="url(#strokeA)" stroke-width="2.0" opacity="0.85"/>
  <circle cx="113.6" cy="415.4" r="14.7" fill="none" stroke="#E11D48" stroke-width="1.5" opacity="0.35"/>
  <polygon points="108.4,404.3 120.6,405.3 125.9,416.5 118.9,426.6 106.6,425.5 101.4,414.4" fill="none" stroke="url(#strokeB)" stroke-width="1.2" opacity="0.65"/>
  
</g>


<g opacity="0.394" filter="url(#hardGlow)">
  <circle cx="137.0" cy="420.4" r="13.7" fill="#0A1224" opacity="0.65"/>
  <circle cx="137.0" cy="420.4" r="13.7" fill="none" stroke="url(#strokeA)" stroke-width="2.0" opacity="0.85"/>
  <circle cx="137.0" cy="420.4" r="11.8" fill="none" stroke="#E11D48" stroke-width="1.5" opacity="0.35"/>
  <polygon points="146.6,418.1 143.8,427.6 134.1,429.9 127.3,422.7 130.2,413.2 139.8,410.9" fill="none" stroke="url(#strokeB)" stroke-width="1.2" opacity="0.65"/>
  <polygon points="140.4,420.8 134.9,423.2 135.6,417.2" fill="#E11D48" opacity="0.22" filter="url(#softGlow)"/>
</g>


<g opacity="0.780" filter="url(#hardGlow)">
  <circle cx="889.8" cy="1515.5" r="56.6" fill="#0A1224" opacity="0.65"/>
  <circle cx="889.8" cy="1515.5" r="56.6" fill="none" stroke="url(#strokeA)" stroke-width="4.5" opacity="0.85"/>
  <circle cx="889.8" cy="1515.5" r="48.7" fill="none" stroke="#22C55E" stroke-width="1.7" opacity="0.35"/>
  <polygon points="872.5,1552.4 849.2,1518.9 866.5,1482.0 907.1,1478.5 930.4,1512.0 913.1,1548.9" fill="none" stroke="url(#strokeB)" stroke-width="1.4" opacity="0.65"/>
  <polygon points="879.7,1525.5 886.2,1501.7 903.6,1519.2" fill="#22C55E" opacity="0.22" filter="url(#softGlow)"/>
</g>


<g opacity="0.559" filter="url(#hardGlow)">
  <circle cx="958.3" cy="1478.7" r="24.8" fill="#0A1224" opacity="0.65"/>
  <circle cx="958.3" cy="1478.7" r="24.8" fill="none" stroke="url(#strokeA)" stroke-width="2.0" opacity="0.85"/>
  <circle cx="958.3" cy="1478.7" r="21.4" fill="none" stroke="#E11D48" stroke-width="1.5" opacity="0.35"/>
  <polygon points="964.1,1461.7 975.8,1475.2 970.0,1492.1 952.5,1495.6 940.7,1482.1 946.5,1465.2" fill="none" stroke="url(#strokeB)" stroke-width="1.2" opacity="0.65"/>
  <polygon points="962.2,1473.8 960.5,1484.5 952.1,1477.7" fill="#E11D48" opacity="0.22" filter="url(#softGlow)"/>
</g>


<g opacity="0.590" filter="url(#hardGlow)">
  <circle cx="812.7" cy="1571.5" r="21.8" fill="#0A1224" opacity="0.65"/>
  <circle cx="812.7" cy="1571.5" r="21.8" fill="none" stroke="url(#strokeA)" stroke-width="2.0" opacity="0.85"/>
  <circle cx="812.7" cy="1571.5" r="18.8" fill="none" stroke="#E11D48" stroke-width="1.5" opacity="0.35"/>
  <polygon points="826.8,1564.6 825.7,1580.3 811.6,1587.2 798.5,1578.4 799.6,1562.7 813.7,1555.8" fill="none" stroke="url(#strokeB)" stroke-width="1.2" opacity="0.65"/>
  <polygon points="818.1,1570.9 810.4,1576.5 809.4,1567.1" fill="#E11D48" opacity="0.22" filter="url(#softGlow)"/>
</g>


<g opacity="0.594" filter="url(#hardGlow)">
  <circle cx="881.4" cy="1527.3" r="28.0" fill="#0A1224" opacity="0.65"/>
  <circle cx="881.4" cy="1527.3" r="28.0" fill="none" stroke="url(#strokeA)" stroke-width="2.2" opacity="0.85"/>
  <circle cx="881.4" cy="1527.3" r="24.1" fill="none" stroke="#E11D48" stroke-width="1.5" opacity="0.35"/>
  <polygon points="886.8,1507.9 900.9,1522.2 895.5,1541.7 876.0,1546.7 861.9,1532.3 867.3,1512.9" fill="none" stroke="url(#strokeB)" stroke-width="1.2" opacity="0.65"/>
  <polygon points="885.5,1521.5 884.3,1533.7 874.4,1526.6" fill="#E11D48" opacity="0.22" filter="url(#softGlow)"/>
</g>


<g opacity="0.763" filter="url(#hardGlow)">
  <circle cx="896.4" cy="1481.5" r="57.4" fill="#0A1224" opacity="0.65"/>
  <circle cx="896.4" cy="1481.5" r="57.4" fill="none" stroke="url(#strokeA)" stroke-width="4.6" opacity="0.85"/>
  <circle cx="896.4" cy="1481.5" r="49.3" fill="none" stroke="#22C55E" stroke-width="1.7" opacity="0.35"/>
  <polygon points="856.6,1470.3 886.2,1441.5 926.0,1452.7 936.1,1492.8 906.5,1521.6 866.8,1510.4" fill="none" stroke="url(#strokeB)" stroke-width="1.4" opacity="0.65"/>
  <polygon points="884.6,1473.1 909.6,1475.6 894.9,1495.9" fill="#22C55E" opacity="0.22" filter="url(#softGlow)"/>
</g>


<g opacity="0.576" filter="url(#hardGlow)">
  <circle cx="890.0" cy="1501.5" r="30.3" fill="#0A1224" opacity="0.65"/>
  <circle cx="890.0" cy="1501.5" r="30.3" fill="none" stroke="url(#strokeA)" stroke-width="2.4" opacity="0.85"/>
  <circle cx="890.0" cy="1501.5" r="26.1" fill="none" stroke="#E11D48" stroke-width="1.5" opacity="0.35"/>
  <polygon points="889.6,1479.7 908.7,1490.2 909.1,1512.0 890.5,1523.3 871.4,1512.8 870.9,1491.0" fill="none" stroke="url(#strokeB)" stroke-width="1.2" opacity="0.65"/>
  <polygon points="892.5,1494.3 895.1,1507.2 882.6,1503.0" fill="#E11D48" opacity="0.22" filter="url(#softGlow)"/>
</g>


<g opacity="0.622" filter="url(#hardGlow)">
  <circle cx="909.3" cy="1547.8" r="26.3" fill="#0A1224" opacity="0.65"/>
  <circle cx="909.3" cy="1547.8" r="26.3" fill="none" stroke="url(#strokeA)" stroke-width="2.1" opacity="0.85"/>
  <circle cx="909.3" cy="1547.8" r="22.6" fill="none" stroke="#E11D48" stroke-width="1.5" opacity="0.35"/>
  <polygon points="894.8,1559.9 891.5,1541.3 906.1,1529.1 923.8,1535.6 927.1,1554.3 912.6,1566.4" fill="none" stroke="url(#strokeB)" stroke-width="1.2" opacity="0.65"/>
  
</g>


<g opacity="0.453" filter="url(#hardGlow)">
  <circle cx="947.9" cy="1414.7" r="27.4" fill="#0A1224" opacity="0.65"/>
  <circle cx="947.9" cy="1414.7" r="27.4" fill="none" stroke="url(#strokeA)" stroke-width="2.2" opacity="0.85"/>
  <circle cx="947.9" cy="1414.7" r="23.5" fill="none" stroke="#E11D48" stroke-width="1.5" opacity="0.35"/>
  <polygon points="958.7,1431.2 939.0,1432.3 928.2,1415.9 937.1,1398.3 956.7,1397.1 967.6,1413.6" fill="none" stroke="url(#strokeB)" stroke-width="1.2" opacity="0.65"/>
  <polygon points="949.5,1421.4 941.3,1412.7 952.9,1410.0" fill="#E11D48" opacity="0.22" filter="url(#softGlow)"/>
</g>


<g opacity="0.792" filter="url(#hardGlow)">
  <circle cx="75.5" cy="8.9" r="50.4" fill="#0A1224" opacity="0.65"/>
  <circle cx="75.5" cy="8.9" r="50.4" fill="none" stroke="url(#strokeA)" stroke-width="4.0" opacity="0.85"/>
  <circle cx="75.5" cy="8.9" r="43.3" fill="none" stroke="#22C55E" stroke-width="1.5" opacity="0.35"/>
  <polygon points="101.1,-16.9 110.6,18.1 85.1,43.9 50.0,34.7 40.4,-0.3 66.0,-26.1" fill="none" stroke="url(#strokeB)" stroke-width="1.3" opacity="0.65"/>
  <polygon points="87.0,3.5 74.5,21.6 65.1,1.7" fill="#22C55E" opacity="0.22" filter="url(#softGlow)"/>
</g>


<g opacity="0.613" filter="url(#hardGlow)">
  <circle cx="124.8" cy="45.8" r="18.0" fill="#0A1224" opacity="0.65"/>
  <circle cx="124.8" cy="45.8" r="18.0" fill="none" stroke="url(#strokeA)" stroke-width="2.0" opacity="0.85"/>
  <circle cx="124.8" cy="45.8" r="15.4" fill="none" stroke="#E11D48" stroke-width="1.5" opacity="0.35"/>
  <polygon points="113.9,52.8 113.3,39.9 124.2,32.9 135.7,38.8 136.3,51.7 125.4,58.7" fill="none" stroke="url(#strokeB)" stroke-width="1.2" opacity="0.65"/>
  
</g>


<g opacity="0.493" filter="url(#hardGlow)">
  <circle cx="120.1" cy="6.1" r="23.1" fill="#0A1224" opacity="0.65"/>
  <circle cx="120.1" cy="6.1" r="23.1" fill="none" stroke="url(#strokeA)" stroke-width="2.0" opacity="0.85"/>
  <circle cx="120.1" cy="6.1" r="19.8" fill="none" stroke="#E11D48" stroke-width="1.5" opacity="0.35"/>
  <polygon points="103.5,4.5 113.2,-9.0 129.7,-7.4 136.6,7.7 126.9,21.3 110.4,19.7" fill="none" stroke="url(#strokeB)" stroke-width="1.2" opacity="0.65"/>
  
</g>


<g opacity="0.409" filter="url(#hardGlow)">
  <circle cx="96.5" cy="-18.2" r="18.4" fill="#0A1224" opacity="0.65"/>
  <circle cx="96.5" cy="-18.2" r="18.4" fill="none" stroke="url(#strokeA)" stroke-width="2.0" opacity="0.85"/>
  <circle cx="96.5" cy="-18.2" r="15.8" fill="none" stroke="#E11D48" stroke-width="1.5" opacity="0.35"/>
  <polygon points="90.6,-6.4 83.3,-17.4 89.2,-29.3 102.4,-30.1 109.7,-19.1 103.8,-7.2" fill="none" stroke="url(#strokeB)" stroke-width="1.2" opacity="0.65"/>
  
</g>


<g opacity="0.328" transform="translate(92.9,47.5) rotate(-9.2)" filter="url(#softGlow)">
  <rect x="-69.2" y="-58.8" width="138.4" height="117.5" rx="11.8" fill="#050A12" opacity="0.25"/>
  <rect x="-69.2" y="-58.8" width="138.4" height="117.5" rx="11.8" fill="none" stroke="url(#strokeA)" stroke-width="5.9" opacity="0.85"/>
  <rect x="-59.8" y="-49.4" width="119.6" height="98.7" rx="8.2" fill="none" stroke="#22C55E" stroke-width="2.4" opacity="0.35"/>
</g>


<g opacity="0.369" transform="translate(460.0,153.6) rotate(-4.9)" filter="url(#softGlow)">
  <rect x="-67.1" y="-60.8" width="134.2" height="121.6" rx="12.2" fill="#050A12" opacity="0.25"/>
  <rect x="-67.1" y="-60.8" width="134.2" height="121.6" rx="12.2" fill="none" stroke="url(#strokeA)" stroke-width="6.1" opacity="0.85"/>
  <rect x="-57.4" y="-51.1" width="114.8" height="102.1" rx="8.5" fill="none" stroke="#22C55E" stroke-width="2.4" opacity="0.35"/>
</g>


<g opacity="0.426" transform="translate(376.1,1534.7) rotate(-5.0)" filter="url(#softGlow)">
  <rect x="-71.3" y="-57.0" width="142.7" height="114.0" rx="11.4" fill="#050A12" opacity="0.25"/>
  <rect x="-71.3" y="-57.0" width="142.7" height="114.0" rx="11.4" fill="none" stroke="url(#strokeA)" stroke-width="5.7" opacity="0.85"/>
  <rect x="-62.2" y="-47.9" width="124.4" height="95.8" rx="8.0" fill="none" stroke="#22C55E" stroke-width="2.3" opacity="0.35"/>
</g>


<g opacity="0.441" transform="translate(891.0,156.3) rotate(3.4)" filter="url(#softGlow)">
  <rect x="-98.7" y="-70.8" width="197.3" height="141.6" rx="14.2" fill="#050A12" opacity="0.25"/>
  <rect x="-98.7" y="-70.8" width="197.3" height="141.6" rx="14.2" fill="none" stroke="url(#strokeA)" stroke-width="7.1" opacity="0.85"/>
  <rect x="-87.3" y="-59.5" width="174.7" height="119.0" rx="9.9" fill="none" stroke="#22C55E" stroke-width="2.8" opacity="0.35"/>
</g>


<g opacity="0.336" transform="translate(800.3,15.9) rotate(2.8)" filter="url(#softGlow)">
  <rect x="-93.1" y="-69.4" width="186.2" height="138.9" rx="13.9" fill="#050A12" opacity="0.25"/>
  <rect x="-93.1" y="-69.4" width="186.2" height="138.9" rx="13.9" fill="none" stroke="url(#strokeA)" stroke-width="6.9" opacity="0.85"/>
  <rect x="-82.0" y="-58.3" width="164.0" height="116.7" rx="9.7" fill="none" stroke="#E11D48" stroke-width="2.8" opacity="0.35"/>
</g>


<g opacity="0.268" transform="translate(134.9,1422.9) rotate(-1.2)" filter="url(#softGlow)">
  <rect x="-36.1" y="-20.8" width="72.2" height="41.6" rx="12.7" fill="none" stroke="#22C55E" stroke-width="6.9" opacity="0.55"/>
  <rect x="-15.9" y="-10.4" width="72.2" height="41.6" rx="12.7" fill="none" stroke="url(#strokeA)" stroke-width="5.8" opacity="0.55"/>
</g>


<g opacity="0.429" transform="translate(39.8,36.8) rotate(-14.5)" filter="url(#softGlow)">
  <rect x="-36.4" y="-21.0" width="72.8" height="41.9" rx="12.8" fill="none" stroke="#E11D48" stroke-width="7.0" opacity="0.55"/>
  <rect x="-16.0" y="-10.5" width="72.8" height="41.9" rx="12.8" fill="none" stroke="url(#strokeA)" stroke-width="5.8" opacity="0.55"/>
</g>


<g opacity="0.264" transform="translate(337.9,59.8) rotate(-16.0)" filter="url(#softGlow)">
  <rect x="-32.6" y="-18.8" width="65.2" height="37.5" rx="11.5" fill="none" stroke="#E11D48" stroke-width="6.3" opacity="0.55"/>
  <rect x="-14.3" y="-9.4" width="65.2" height="37.5" rx="11.5" fill="none" stroke="url(#strokeA)" stroke-width="5.2" opacity="0.55"/>
</g>


<g opacity="0.295" transform="translate(894.3,1447.3) rotate(-3.4)" filter="url(#softGlow)">
  <rect x="-48.1" y="-27.7" width="96.3" height="55.5" rx="16.9" fill="none" stroke="#E11D48" stroke-width="9.2" opacity="0.55"/>
  <rect x="-21.2" y="-13.9" width="96.3" height="55.5" rx="16.9" fill="none" stroke="url(#strokeA)" stroke-width="7.7" opacity="0.55"/>
</g>


<g opacity="0.327" transform="translate(297.4,1547.2) rotate(15.6)" filter="url(#softGlow)">
  <rect x="-30.1" y="-17.3" width="60.2" height="34.7" rx="10.6" fill="none" stroke="#22C55E" stroke-width="5.8" opacity="0.55"/>
  <rect x="-13.2" y="-8.7" width="60.2" height="34.7" rx="10.6" fill="none" stroke="url(#strokeA)" stroke-width="4.8" opacity="0.55"/>
</g>


<g opacity="0.438" transform="translate(854.7,1509.3) rotate(-16.4)" filter="url(#softGlow)">
  <rect x="-32.5" y="-18.7" width="64.9" height="37.4" rx="11.4" fill="none" stroke="#22C55E" stroke-width="6.2" opacity="0.55"/>
  <rect x="-14.3" y="-9.4" width="64.9" height="37.4" rx="11.4" fill="none" stroke="url(#strokeA)" stroke-width="5.2" opacity="0.55"/>
</g>


<g opacity="0.250" transform="translate(892.7,149.7) rotate(-13.0)" filter="url(#softGlow)">
  <rect x="-32.2" y="-18.5" width="64.3" height="37.0" rx="11.3" fill="none" stroke="#E11D48" stroke-width="6.2" opacity="0.55"/>
  <rect x="-14.2" y="-9.3" width="64.3" height="37.0" rx="11.3" fill="none" stroke="url(#strokeA)" stroke-width="5.1" opacity="0.55"/>
</g>


<g opacity="0.153">
  <line x1="136.4" y1="1386.5" x2="136.4" y2="1478.7" stroke="#E11D48" stroke-width="1.42" opacity="0.45"/>
  <rect x="132.3" y="1437.5" width="8.2" height="45.6" rx="2.7" fill="#0B1020" opacity="0.55" stroke="url(#strokeA)" stroke-width="1.2"/>
</g>

<g opacity="0.153">
  <line x1="285.6" y1="1386.0" x2="285.6" y2="1478.9" stroke="#E11D48" stroke-width="1.96" opacity="0.45"/>
  <rect x="281.2" y="1432.8" width="8.8" height="54.9" rx="2.9" fill="#0B1020" opacity="0.55" stroke="url(#strokeA)" stroke-width="1.2"/>
</g>

<g opacity="0.153">
  <line x1="313.6" y1="1396.9" x2="313.6" y2="1476.1" stroke="#E11D48" stroke-width="1.44" opacity="0.45"/>
  <rect x="307.8" y="1443.7" width="11.6" height="33.1" rx="3.9" fill="#0B1020" opacity="0.55" stroke="url(#strokeA)" stroke-width="1.2"/>
</g>

<g opacity="0.153">
  <line x1="800.7" y1="1396.1" x2="800.7" y2="1476.3" stroke="#E11D48" stroke-width="1.61" opacity="0.45"/>
  <rect x="796.3" y="1441.5" width="9.0" height="37.6" rx="3.0" fill="#0B1020" opacity="0.55" stroke="url(#strokeA)" stroke-width="1.2"/>
</g>

<g opacity="0.153">
  <line x1="1.2" y1="1381.8" x2="1.2" y2="1479.9" stroke="#E11D48" stroke-width="1.54" opacity="0.45"/>
  <rect x="-3.7" y="1440.6" width="9.8" height="39.4" rx="3.3" fill="#0B1020" opacity="0.55" stroke="url(#strokeA)" stroke-width="1.2"/>
</g>

<g opacity="0.153">
  <line x1="710.0" y1="1379.0" x2="710.0" y2="1480.6" stroke="#E11D48" stroke-width="1.42" opacity="0.45"/>
  <rect x="705.6" y="1430.6" width="8.8" height="59.4" rx="2.9" fill="#0B1020" opacity="0.55" stroke="url(#strokeA)" stroke-width="1.2"/>
</g>

<g opacity="0.153">
  <line x1="608.4" y1="1377.7" x2="608.4" y2="1480.9" stroke="#E11D48" stroke-width="2.12" opacity="0.45"/>
  <rect x="604.8" y="1433.7" width="7.2" height="53.2" rx="2.4" fill="#0B1020" opacity="0.55" stroke="url(#strokeA)" stroke-width="1.2"/>
</g>

<g opacity="0.153">
  <line x1="749.0" y1="1412.4" x2="749.0" y2="1472.2" stroke="#E11D48" stroke-width="1.64" opacity="0.45"/>
  <rect x="744.7" y="1449.9" width="8.7" height="20.8" rx="2.9" fill="#0B1020" opacity="0.55" stroke="url(#strokeA)" stroke-width="1.2"/>
</g>

<g opacity="0.153">
  <line x1="705.0" y1="1411.8" x2="705.0" y2="1472.4" stroke="#E11D48" stroke-width="1.90" opacity="0.45"/>
  <rect x="699.1" y="1450.4" width="11.8" height="19.8" rx="3.9" fill="#0B1020" opacity="0.55" stroke="url(#strokeA)" stroke-width="1.2"/>
</g>

<g opacity="0.153">
  <line x1="437.3" y1="1403.8" x2="437.3" y2="1474.4" stroke="#E11D48" stroke-width="1.67" opacity="0.45"/>
  <rect x="431.9" y="1442.0" width="10.8" height="36.6" rx="3.6" fill="#0B1020" opacity="0.55" stroke="url(#strokeA)" stroke-width="1.2"/>
</g>

<g opacity="0.153">
  <line x1="640.6" y1="1380.5" x2="640.6" y2="1480.2" stroke="#E11D48" stroke-width="1.20" opacity="0.45"/>
  <rect x="634.6" y="1435.6" width="11.9" height="49.4" rx="4.0" fill="#0B1020" opacity="0.55" stroke="url(#strokeA)" stroke-width="1.2"/>
</g>

<g opacity="0.153">
  <line x1="601.6" y1="1398.7" x2="601.6" y2="1475.7" stroke="#E11D48" stroke-width="1.05" opacity="0.45"/>
  <rect x="596.0" y="1444.5" width="11.2" height="31.5" rx="3.7" fill="#0B1020" opacity="0.55" stroke="url(#strokeA)" stroke-width="1.2"/>
</g>

<g opacity="0.153">
  <line x1="744.9" y1="1389.2" x2="744.9" y2="1478.1" stroke="#E11D48" stroke-width="1.09" opacity="0.45"/>
  <rect x="739.7" y="1439.1" width="10.5" height="42.4" rx="3.5" fill="#0B1020" opacity="0.55" stroke="url(#strokeA)" stroke-width="1.2"/>
</g>

<g opacity="0.153">
  <line x1="140.0" y1="1416.2" x2="140.0" y2="1471.3" stroke="#E11D48" stroke-width="1.96" opacity="0.45"/>
  <rect x="136.7" y="1450.1" width="6.5" height="20.4" rx="2.2" fill="#0B1020" opacity="0.55" stroke="url(#strokeA)" stroke-width="1.2"/>
</g>

<g opacity="0.153">
  <line x1="337.8" y1="1392.7" x2="337.8" y2="1477.2" stroke="#E11D48" stroke-width="1.88" opacity="0.45"/>
  <rect x="332.6" y="1444.8" width="10.4" height="30.9" rx="3.5" fill="#0B1020" opacity="0.55" stroke="url(#strokeA)" stroke-width="1.2"/>
</g>

<g opacity="0.153">
  <line x1="344.8" y1="1387.7" x2="344.8" y2="1478.4" stroke="#E11D48" stroke-width="1.92" opacity="0.45"/>
  <rect x="339.8" y="1430.4" width="10.0" height="59.8" rx="3.3" fill="#0B1020" opacity="0.55" stroke="url(#strokeA)" stroke-width="1.2"/>
</g>

<g opacity="0.153">
  <line x1="618.9" y1="1385.4" x2="618.9" y2="1479.0" stroke="#E11D48" stroke-width="1.85" opacity="0.45"/>
  <rect x="614.6" y="1436.2" width="8.7" height="48.2" rx="2.9" fill="#0B1020" opacity="0.55" stroke="url(#strokeA)" stroke-width="1.2"/>
</g>
<circle cx="34.8" cy="228.4" r="2.9" fill="#22C55E" opacity="0.28" filter="url(#softGlow)"/>
<circle cx="180.0" cy="95.0" r="2.0" fill="#22C55E" opacity="0.20" filter="url(#softGlow)"/>
<circle cx="824.9" cy="88.1" r="2.9" fill="#22C55E" opacity="0.27" filter="url(#softGlow)"/>
<circle cx="29.2" cy="812.4" r="2.9" fill="#22C55E" opacity="0.20" filter="url(#softGlow)"/>
<circle cx="25.8" cy="94.4" r="1.5" fill="#22C55E" opacity="0.19" filter="url(#softGlow)"/>
<circle cx="803.4" cy="137.0" r="1.6" fill="#22C55E" opacity="0.16" filter="url(#softGlow)"/>
<circle cx="557.9" cy="1454.0" r="2.0" fill="#22C55E" opacity="0.10" filter="url(#softGlow)"/>
<circle cx="98.2" cy="1503.3" r="1.7" fill="#22C55E" opacity="0.21" filter="url(#softGlow)"/>
<circle cx="151.9" cy="1576.2" r="2.4" fill="#22C55E" opacity="0.15" filter="url(#softGlow)"/>
<circle cx="168.5" cy="37.1" r="3.1" fill="#22C55E" opacity="0.23" filter="url(#softGlow)"/>
<circle cx="766.0" cy="137.5" r="2.7" fill="#22C55E" opacity="0.22" filter="url(#softGlow)"/>
<circle cx="184.9" cy="1527.0" r="1.4" fill="#22C55E" opacity="0.23" filter="url(#softGlow)"/>
<circle cx="137.9" cy="477.5" r="1.8" fill="#22C55E" opacity="0.24" filter="url(#softGlow)"/>
<circle cx="865.9" cy="1519.0" r="2.1" fill="#22C55E" opacity="0.25" filter="url(#softGlow)"/>
<circle cx="794.8" cy="1532.6" r="1.3" fill="#22C55E" opacity="0.15" filter="url(#softGlow)"/>
<circle cx="630.8" cy="1508.8" r="2.4" fill="#22C55E" opacity="0.26" filter="url(#softGlow)"/>
<circle cx="136.9" cy="125.1" r="3.0" fill="#22C55E" opacity="0.11" filter="url(#softGlow)"/>
<circle cx="121.1" cy="1244.7" r="3.1" fill="#22C55E" opacity="0.16" filter="url(#softGlow)"/>
<circle cx="848.5" cy="1556.3" r="1.8" fill="#22C55E" opacity="0.25" filter="url(#softGlow)"/>
<circle cx="839.5" cy="1468.4" r="1.8" fill="#22C55E" opacity="0.28" filter="url(#softGlow)"/>
<circle cx="316.3" cy="115.9" r="2.8" fill="#22C55E" opacity="0.19" filter="url(#softGlow)"/>
<circle cx="81.9" cy="161.1" r="2.8" fill="#22C55E" opacity="0.25" filter="url(#softGlow)"/>
<circle cx="26.3" cy="652.8" r="1.9" fill="#22C55E" opacity="0.14" filter="url(#softGlow)"/>
<circle cx="115.1" cy="153.3" r="2.8" fill="#22C55E" opacity="0.15" filter="url(#softGlow)"/>
<circle cx="66.9" cy="27.1" r="1.7" fill="#22C55E" opacity="0.20" filter="url(#softGlow)"/>
<circle cx="802.1" cy="138.8" r="1.6" fill="#22C55E" opacity="0.14" filter="url(#softGlow)"/>
<circle cx="145.0" cy="84.0" r="2.7" fill="#22C55E" opacity="0.17" filter="url(#softGlow)"/>
</svg>