<svg xmlns="http://www.w3.org/2000/svg" width="900" height="1600" viewBox="0 0 900 1600" preserveAspectRatio="xMidYMid slice">
<defs>
  <linearGradient id="g0" x1="0" y1="0" x2="1" y2="1">
    <stop offset="0" stop-color="#0A0F1E"/>
    <stop offset="0.55" stop-color="#00FFA3" stop-opacity="0.9"/>
    <stop offset="1" stop-color="#050A12"/>
  </linearGradient>
  <radialGradient id="g1" cx="20%" cy="15%" r="70%">
    <stop offset="0" stop-color="#14C2FF" stop-opacity="0.38"/>
    <stop offset="0.6" stop-color="#14C2FF" stop-opacity="0.08"/>
    <stop offset="1" stop-color="#14C2FF" stop-opacity="0"/>
  </radialGradient>
  <radialGradient id="g2" cx="85%" cy="80%" r="75%">
    <stop offset="0" stop-color="#14C2FF" stop-opacity="0.28"/>
    <stop offset="0.65" stop-color="#14C2FF" stop-opacity="0.06"/>
    <stop offset="1" stop-color="#14C2FF" stop-opacity="0"/>
  </radialGradient>
  <filter id="softGlow" x="-30%" y="-30%" width="160%" height="160%">
    <feGaussianBlur stdDeviation="12" result="b"/>
    <feMerge>
      <feMergeNode in="b"/>
      <feMergeNode in="SourceGraphic"/>
    </feMerge>
  </filter>
  <filter id="hardGlow" x="-40%" y="-40%" width="180%" height="180%">
    <feGaussianBlur stdDeviation="6" result="b"/>
    <feColorMatrix in="b" type="matrix" values="1 0 0 0 0  0 1 0 0 0  0 0 1 0 0  0 0 0 18 -7" result="c"/>
    <feMerge>
      <feMergeNode in="c"/>
      <feMergeNode in="SourceGraphic"/>
    </feMerge>
  </filter>
  <linearGradient id="strokeA" x1="0" y1="0" x2="1" y2="0">
    <stop offset="0" stop-color="#14C2FF" stop-opacity="0.9"/>
    <stop offset="0.5" stop-color="#FFFFFF" stop-opacity="0.25"/>
    <stop offset="1" stop-color="#14C2FF" stop-opacity="0.7"/>
  </linearGradient>
  <linearGradient id="strokeB" x1="0" y1="0" x2="0" y2="1">
    <stop offset="0" stop-color="#FFFFFF" stop-opacity="0.18"/>
    <stop offset="1" stop-color="#14C2FF" stop-opacity="0.55"/>
  </linearGradient>
</defs>
<rect x="0" y="0" width="900" height="1600" fill="url(#g0)"/>
<rect x="0" y="0" width="900" height="1600" fill="url(#g1)"/>
<rect x="0" y="0" width="900" height="1600" fill="url(#g2)"/>


<defs>
  <radialGradient id="vign" cx="0.5000" cy="0.5000" r="0.85">
    <stop offset="0" stop-color="#000000" stop-opacity="0"/>
    <stop offset="0.55" stop-color="#000000" stop-opacity="0.217"/>
    <stop offset="1" stop-color="#000000" stop-opacity="0.620"/>
  </radialGradient>
</defs>
<rect x="0" y="0" width="900" height="1600" fill="url(#vign)"/>

<g opacity="0.241" filter="url(#softGlow)"><path d="M 737.4,84.3 L 114.3,84.3 L 114.3,171.4 L 298.9,171.4 L 298.9,154.5 " fill="none" stroke="url(#strokeB)" stroke-width="1.59" stroke-linecap="round" stroke-linejoin="round"/><circle cx="737.4" cy="84.3" r="2.6" fill="#00FFA3" opacity="0.45"/><circle cx="298.9" cy="154.5" r="2.4" fill="#00FFA3" opacity="0.45"/><circle cx="114.3" cy="84.3" r="4.0" fill="#00FFA3" opacity="0.45"/></g>
<g opacity="0.241" filter="url(#softGlow)"><path d="M 821.0,127.3 L 850.1,127.3 L 850.1,681.1 L 27.7,681.1 L 27.7,51.0 " fill="none" stroke="url(#strokeB)" stroke-width="1.37" stroke-linecap="round" stroke-linejoin="round"/><circle cx="27.7" cy="681.1" r="4.2" fill="#00FFA3" opacity="0.45"/><circle cx="27.7" cy="51.0" r="3.9" fill="#00FFA3" opacity="0.45"/><circle cx="821.0" cy="127.3" r="2.8" fill="#00FFA3" opacity="0.45"/></g>
<g opacity="0.241" filter="url(#softGlow)"><path d="M 1.0,877.0 L 382.0,877.0 L 382.0,39.7 L 123.2,39.7 L 123.2,175.3 " fill="none" stroke="url(#strokeB)" stroke-width="1.51" stroke-linecap="round" stroke-linejoin="round"/><circle cx="123.2" cy="175.3" r="3.7" fill="#00FFA3" opacity="0.45"/><circle cx="382.0" cy="39.7" r="2.6" fill="#00FFA3" opacity="0.45"/><circle cx="1.0" cy="877.0" r="2.6" fill="#00FFA3" opacity="0.45"/></g>
<g opacity="0.241" filter="url(#softGlow)"><path d="M 871.6,1549.8 L 115.4,1549.8 L 115.4,36.5 L 699.1,36.5 L 699.1,1457.2 " fill="none" stroke="url(#strokeB)" stroke-width="1.90" stroke-linecap="round" stroke-linejoin="round"/><circle cx="115.4" cy="36.5" r="2.5" fill="#00FFA3" opacity="0.45"/><circle cx="699.1" cy="1457.2" r="2.3" fill="#00FFA3" opacity="0.45"/><circle cx="699.1" cy="36.5" r="3.7" fill="#00FFA3" opacity="0.45"/></g>
<g opacity="0.241" filter="url(#softGlow)"><path d="M 859.8,729.6 L 461.0,729.6 L 461.0,1427.4 L 871.7,1427.4 L 871.7,117.7 " fill="none" stroke="url(#strokeB)" stroke-width="1.67" stroke-linecap="round" stroke-linejoin="round"/><circle cx="871.7" cy="1427.4" r="3.0" fill="#00FFA3" opacity="0.45"/><circle cx="871.7" cy="117.7" r="2.1" fill="#00FFA3" opacity="0.45"/><circle cx="859.8" cy="729.6" r="2.1" fill="#00FFA3" opacity="0.45"/></g>
<g opacity="0.241" filter="url(#softGlow)"><path d="M 127.5,555.4 L 884.0,555.4 L 884.0,1164.8 L 809.7,1164.8 L 809.7,20.9 " fill="none" stroke="url(#strokeB)" stroke-width="1.56" stroke-linecap="round" stroke-linejoin="round"/><circle cx="884.0" cy="1164.8" r="2.0" fill="#00FFA3" opacity="0.45"/><circle cx="809.7" cy="20.9" r="3.8" fill="#00FFA3" opacity="0.45"/><circle cx="127.5" cy="555.4" r="2.4" fill="#00FFA3" opacity="0.45"/></g>
<g opacity="0.241" filter="url(#softGlow)"><path d="M 58.3,1541.9 L 523.8,1541.9 L 523.8,1507.2 L 118.8,1507.2 L 118.8,1525.4 " fill="none" stroke="url(#strokeB)" stroke-width="2.07" stroke-linecap="round" stroke-linejoin="round"/><circle cx="118.8" cy="1507.2" r="2.7" fill="#00FFA3" opacity="0.45"/><circle cx="118.8" cy="1525.4" r="3.5" fill="#00FFA3" opacity="0.45"/><circle cx="523.8" cy="1541.9" r="3.1" fill="#00FFA3" opacity="0.45"/></g>
<g opacity="0.241" filter="url(#softGlow)"><path d="M 165.7,75.8 L 837.4,75.8 L 837.4,1499.7 L 691.7,1499.7 L 691.7,54.7 " fill="none" stroke="url(#strokeB)" stroke-width="1.32" stroke-linecap="round" stroke-linejoin="round"/><circle cx="837.4" cy="75.8" r="3.2" fill="#00FFA3" opacity="0.45"/><circle cx="691.7" cy="1499.7" r="3.3" fill="#00FFA3" opacity="0.45"/><circle cx="691.7" cy="54.7" r="2.4" fill="#00FFA3" opacity="0.45"/></g>
<g opacity="0.241" filter="url(#softGlow)"><path d="M 870.7,1378.0 L 662.8,1378.0 L 662.8,1495.1 L 8.2,1495.1 L 8.2,1422.7 " fill="none" stroke="url(#strokeB)" stroke-width="1.38" stroke-linecap="round" stroke-linejoin="round"/><circle cx="8.2" cy="1495.1" r="3.7" fill="#00FFA3" opacity="0.45"/><circle cx="662.8" cy="1495.1" r="2.2" fill="#00FFA3" opacity="0.45"/><circle cx="662.8" cy="1378.0" r="2.4" fill="#00FFA3" opacity="0.45"/></g>
<g opacity="0.241" filter="url(#softGlow)"><path d="M 527.6,1543.5 L 779.1,1543.5 L 779.1,142.3 L 879.6,142.3 L 879.6,1160.5 " fill="none" stroke="url(#strokeB)" stroke-width="1.93" stroke-linecap="round" stroke-linejoin="round"/><circle cx="879.6" cy="142.3" r="2.7" fill="#00FFA3" opacity="0.45"/><circle cx="779.1" cy="1543.5" r="3.6" fill="#00FFA3" opacity="0.45"/><circle cx="779.1" cy="142.3" r="4.1" fill="#00FFA3" opacity="0.45"/></g>
<g opacity="0.241" filter="url(#softGlow)"><path d="M 47.2,128.8 L 103.4,128.8 L 103.4,81.9 L 793.1,81.9 L 793.1,92.6 " fill="none" stroke="url(#strokeB)" stroke-width="1.26" stroke-linecap="round" stroke-linejoin="round"/><circle cx="793.1" cy="92.6" r="3.9" fill="#00FFA3" opacity="0.45"/><circle cx="47.2" cy="128.8" r="2.8" fill="#00FFA3" opacity="0.45"/><circle cx="103.4" cy="128.8" r="3.8" fill="#00FFA3" opacity="0.45"/></g>
<g opacity="0.241" filter="url(#softGlow)"><path d="M 176.0,10.7 L 830.5,10.7 L 830.5,167.7 L 45.2,167.7 L 45.2,116.0 " fill="none" stroke="url(#strokeB)" stroke-width="1.83" stroke-linecap="round" stroke-linejoin="round"/><circle cx="176.0" cy="10.7" r="2.3" fill="#00FFA3" opacity="0.45"/><circle cx="45.2" cy="116.0" r="3.1" fill="#00FFA3" opacity="0.45"/><circle cx="830.5" cy="10.7" r="3.3" fill="#00FFA3" opacity="0.45"/></g>
<g opacity="0.241" filter="url(#softGlow)"><path d="M 168.5,1520.5 L 892.8,1520.5 L 892.8,119.3 L 817.5,119.3 L 817.5,1528.5 " fill="none" stroke="url(#strokeB)" stroke-width="1.69" stroke-linecap="round" stroke-linejoin="round"/><circle cx="817.5" cy="119.3" r="3.3" fill="#00FFA3" opacity="0.45"/><circle cx="168.5" cy="1520.5" r="4.2" fill="#00FFA3" opacity="0.45"/><circle cx="892.8" cy="1520.5" r="3.2" fill="#00FFA3" opacity="0.45"/></g>
<g opacity="0.241" filter="url(#softGlow)"><path d="M 39.6,170.1 L 161.1,170.1 L 161.1,169.6 L 858.1,169.6 L 858.1,169.4 " fill="none" stroke="url(#strokeB)" stroke-width="1.82" stroke-linecap="round" stroke-linejoin="round"/><circle cx="39.6" cy="170.1" r="2.3" fill="#00FFA3" opacity="0.45"/><circle cx="858.1" cy="169.6" r="3.8" fill="#00FFA3" opacity="0.45"/><circle cx="858.1" cy="169.4" r="3.8" fill="#00FFA3" opacity="0.45"/></g>
<g opacity="0.241" filter="url(#softGlow)"><path d="M 740.9,37.5 L 48.1,37.5 L 48.1,882.6 L 874.9,882.6 L 874.9,1538.9 " fill="none" stroke="url(#strokeB)" stroke-width="1.24" stroke-linecap="round" stroke-linejoin="round"/><circle cx="874.9" cy="882.6" r="3.7" fill="#00FFA3" opacity="0.45"/><circle cx="48.1" cy="882.6" r="4.1" fill="#00FFA3" opacity="0.45"/><circle cx="874.9" cy="1538.9" r="2.3" fill="#00FFA3" opacity="0.45"/></g>
<g opacity="0.241" filter="url(#softGlow)"><path d="M 882.4,1461.8 L 787.2,1461.8 L 787.2,908.3 L 894.6,908.3 L 894.6,1555.3 " fill="none" stroke="url(#strokeB)" stroke-width="1.74" stroke-linecap="round" stroke-linejoin="round"/><circle cx="894.6" cy="908.3" r="2.9" fill="#00FFA3" opacity="0.45"/><circle cx="787.2" cy="1461.8" r="3.8" fill="#00FFA3" opacity="0.45"/><circle cx="894.6" cy="1555.3" r="3.0" fill="#00FFA3" opacity="0.45"/></g>
<g opacity="0.241" filter="url(#softGlow)"><path d="M 156.5,1553.1 L 123.5,1553.1 L 123.5,1592.4 L 821.0,1592.4 L 821.0,131.5 " fill="none" stroke="url(#strokeB)" stroke-width="1.66" stroke-linecap="round" stroke-linejoin="round"/><circle cx="123.5" cy="1553.1" r="3.5" fill="#00FFA3" opacity="0.45"/><circle cx="821.0" cy="1592.4" r="3.4" fill="#00FFA3" opacity="0.45"/><circle cx="821.0" cy="131.5" r="2.9" fill="#00FFA3" opacity="0.45"/></g>
<g opacity="0.241" filter="url(#softGlow)"><path d="M 198.4,1589.4 L 124.2,1589.4 L 124.2,1199.9 L 138.1,1199.9 L 138.1,1078.3 " fill="none" stroke="url(#strokeB)" stroke-width="1.86" stroke-linecap="round" stroke-linejoin="round"/><circle cx="138.1" cy="1078.3" r="2.6" fill="#00FFA3" opacity="0.45"/><circle cx="198.4" cy="1589.4" r="3.4" fill="#00FFA3" opacity="0.45"/><circle cx="124.2" cy="1589.4" r="3.1" fill="#00FFA3" opacity="0.45"/></g>
<g opacity="0.241" filter="url(#softGlow)"><path d="M 37.3,1429.6 L 750.7,1429.6 L 750.7,151.3 L 723.5,151.3 L 723.5,1551.1 " fill="none" stroke="url(#strokeB)" stroke-width="1.46" stroke-linecap="round" stroke-linejoin="round"/><circle cx="37.3" cy="1429.6" r="3.1" fill="#00FFA3" opacity="0.45"/><circle cx="723.5" cy="151.3" r="2.6" fill="#00FFA3" opacity="0.45"/><circle cx="723.5" cy="1551.1" r="2.2" fill="#00FFA3" opacity="0.45"/></g>
<g opacity="0.241" filter="url(#softGlow)"><path d="M 94.5,109.5 L 346.2,109.5 L 346.2,154.4 L 882.3,154.4 L 882.3,506.1 " fill="none" stroke="url(#strokeB)" stroke-width="2.19" stroke-linecap="round" stroke-linejoin="round"/><circle cx="346.2" cy="154.4" r="2.6" fill="#00FFA3" opacity="0.45"/><circle cx="94.5" cy="109.5" r="2.7" fill="#00FFA3" opacity="0.45"/><circle cx="346.2" cy="109.5" r="2.9" fill="#00FFA3" opacity="0.45"/></g>
<g opacity="0.241" filter="url(#softGlow)"><path d="M 842.8,119.4 L 402.3,119.4 L 402.3,1456.8 L 814.0,1456.8 L 814.0,1324.1 " fill="none" stroke="url(#strokeB)" stroke-width="2.02" stroke-linecap="round" stroke-linejoin="round"/><circle cx="402.3" cy="1456.8" r="4.0" fill="#00FFA3" opacity="0.45"/><circle cx="814.0" cy="1324.1" r="3.1" fill="#00FFA3" opacity="0.45"/><circle cx="814.0" cy="1456.8" r="3.6" fill="#00FFA3" opacity="0.45"/></g>
<g opacity="0.241" filter="url(#softGlow)"><path d="M 13.2,428.1 L 736.4,428.1 L 736.4,1591.6 L 253.3,1591.6 L 253.3,145.2 " fill="none" stroke="url(#strokeB)" stroke-width="2.15" stroke-linecap="round" stroke-linejoin="round"/><circle cx="736.4" cy="1591.6" r="3.5" fill="#00FFA3" opacity="0.45"/><circle cx="253.3" cy="145.2" r="2.4" fill="#00FFA3" opacity="0.45"/><circle cx="13.2" cy="428.1" r="2.7" fill="#00FFA3" opacity="0.45"/></g>

<g opacity="0.790" filter="url(#hardGlow)">
  <circle cx="505.9" cy="1573.2" r="41.4" fill="#0A1224" opacity="0.65"/>
  <circle cx="505.9" cy="1573.2" r="41.4" fill="none" stroke="url(#strokeA)" stroke-width="3.3" opacity="0.85"/>
  <circle cx="505.9" cy="1573.2" r="35.6" fill="none" stroke="#FF4D8D" stroke-width="1.5" opacity="0.35"/>
  <polygon points="518.2,1600.4 488.5,1597.5 476.2,1570.3 493.5,1546.1 523.2,1549.0 535.5,1576.1" fill="none" stroke="url(#strokeB)" stroke-width="1.2" opacity="0.65"/>
  <polygon points="506.7,1583.6 496.5,1568.7 514.5,1567.3" fill="#FF4D8D" opacity="0.22" filter="url(#softGlow)"/>
</g>


<g opacity="0.580" filter="url(#hardGlow)">
  <circle cx="540.9" cy="1562.7" r="17.8" fill="#0A1224" opacity="0.65"/>
  <circle cx="540.9" cy="1562.7" r="17.8" fill="none" stroke="url(#strokeA)" stroke-width="2.0" opacity="0.85"/>
  <circle cx="540.9" cy="1562.7" r="15.3" fill="none" stroke="#00FFA3" stroke-width="1.5" opacity="0.35"/>
  <polygon points="553.7,1562.1 547.8,1573.5 534.9,1574.0 528.0,1563.2 534.0,1551.8 546.8,1551.3" fill="none" stroke="url(#strokeB)" stroke-width="1.2" opacity="0.65"/>
  
</g>


<g opacity="0.738" filter="url(#hardGlow)">
  <circle cx="142.2" cy="673.6" r="35.2" fill="#0A1224" opacity="0.65"/>
  <circle cx="142.2" cy="673.6" r="35.2" fill="none" stroke="url(#strokeA)" stroke-width="2.8" opacity="0.85"/>
  <circle cx="142.2" cy="673.6" r="30.3" fill="none" stroke="#FF4D8D" stroke-width="1.5" opacity="0.35"/>
  <polygon points="119.4,684.6 121.3,659.3 144.1,648.3 165.1,662.6 163.2,687.8 140.3,698.8" fill="none" stroke="url(#strokeB)" stroke-width="1.2" opacity="0.65"/>
  <polygon points="133.4,674.5 145.9,665.5 147.4,680.8" fill="#FF4D8D" opacity="0.22" filter="url(#softGlow)"/>
</g>


<g opacity="0.351" filter="url(#hardGlow)">
  <circle cx="142.9" cy="642.5" r="16.7" fill="#0A1224" opacity="0.65"/>
  <circle cx="142.9" cy="642.5" r="16.7" fill="none" stroke="url(#strokeA)" stroke-width="2.0" opacity="0.85"/>
  <circle cx="142.9" cy="642.5" r="14.4" fill="none" stroke="#00FFA3" stroke-width="1.5" opacity="0.35"/>
  <polygon points="145.7,654.2 134.2,650.8 131.3,639.1 140.0,630.8 151.6,634.2 154.4,645.9" fill="none" stroke="url(#strokeB)" stroke-width="1.2" opacity="0.65"/>
  <polygon points="142.4,646.7 139.5,640.0 146.7,640.8" fill="#00FFA3" opacity="0.22" filter="url(#softGlow)"/>
</g>


<g opacity="0.661" filter="url(#hardGlow)">
  <circle cx="123.0" cy="96.5" r="38.0" fill="#0A1224" opacity="0.65"/>
  <circle cx="123.0" cy="96.5" r="38.0" fill="none" stroke="url(#strokeA)" stroke-width="3.0" opacity="0.85"/>
  <circle cx="123.0" cy="96.5" r="32.7" fill="none" stroke="#FF4D8D" stroke-width="1.5" opacity="0.35"/>
  <polygon points="146.9,83.3 146.4,110.7 122.4,123.9 99.0,109.7 99.6,82.4 123.5,69.2" fill="none" stroke="url(#strokeB)" stroke-width="1.2" opacity="0.65"/>
  <polygon points="132.4,95.0 119.5,105.4 117.0,89.1" fill="#FF4D8D" opacity="0.22" filter="url(#softGlow)"/>
</g>


<g opacity="0.546" filter="url(#hardGlow)">
  <circle cx="178.8" cy="79.2" r="18.5" fill="#0A1224" opacity="0.65"/>
  <circle cx="178.8" cy="79.2" r="18.5" fill="none" stroke="url(#strokeA)" stroke-width="2.0" opacity="0.85"/>
  <circle cx="178.8" cy="79.2" r="15.9" fill="none" stroke="#00FFA3" stroke-width="1.5" opacity="0.35"/>
  <polygon points="177.6,66.0 189.7,71.6 190.9,84.8 180.0,92.5 168.0,86.9 166.7,73.7" fill="none" stroke="url(#strokeB)" stroke-width="1.2" opacity="0.65"/>
  
</g>


<g opacity="0.483" filter="url(#hardGlow)">
  <circle cx="176.3" cy="91.1" r="18.1" fill="#0A1224" opacity="0.65"/>
  <circle cx="176.3" cy="91.1" r="18.1" fill="none" stroke="url(#strokeA)" stroke-width="2.0" opacity="0.85"/>
  <circle cx="176.3" cy="91.1" r="15.5" fill="none" stroke="#00FFA3" stroke-width="1.5" opacity="0.35"/>
  <polygon points="180.0,78.7 189.0,88.1 185.3,100.6 172.6,103.6 163.7,94.2 167.4,81.7" fill="none" stroke="url(#strokeB)" stroke-width="1.2" opacity="0.65"/>
  <polygon points="179.0,87.5 178.1,95.3 171.8,90.6" fill="#00FFA3" opacity="0.22" filter="url(#softGlow)"/>
</g>


<g opacity="0.512" filter="url(#hardGlow)">
  <circle cx="167.8" cy="89.9" r="17.2" fill="#0A1224" opacity="0.65"/>
  <circle cx="167.8" cy="89.9" r="17.2" fill="none" stroke="url(#strokeA)" stroke-width="2.0" opacity="0.85"/>
  <circle cx="167.8" cy="89.9" r="14.8" fill="none" stroke="#00FFA3" stroke-width="1.5" opacity="0.35"/>
  <polygon points="156.0,86.1 165.2,77.8 177.0,81.5 179.7,93.6 170.5,102.0 158.7,98.2" fill="none" stroke="url(#strokeB)" stroke-width="1.2" opacity="0.65"/>
  
</g>


<g opacity="0.745" filter="url(#hardGlow)">
  <circle cx="404.6" cy="1572.8" r="32.9" fill="#0A1224" opacity="0.65"/>
  <circle cx="404.6" cy="1572.8" r="32.9" fill="none" stroke="url(#strokeA)" stroke-width="2.6" opacity="0.85"/>
  <circle cx="404.6" cy="1572.8" r="28.3" fill="none" stroke="#FF4D8D" stroke-width="1.5" opacity="0.35"/>
  <polygon points="413.6,1551.0 428.1,1569.7 419.0,1591.6 395.5,1594.7 381.1,1575.9 390.2,1554.0" fill="none" stroke="url(#strokeB)" stroke-width="1.2" opacity="0.65"/>
  <polygon points="410.2,1566.7 407.1,1580.7 396.5,1571.0" fill="#FF4D8D" opacity="0.22" filter="url(#softGlow)"/>
</g>


<g opacity="0.386" filter="url(#hardGlow)">
  <circle cx="424.2" cy="1559.2" r="13.0" fill="#0A1224" opacity="0.65"/>
  <circle cx="424.2" cy="1559.2" r="13.0" fill="none" stroke="url(#strokeA)" stroke-width="2.0" opacity="0.85"/>
  <circle cx="424.2" cy="1559.2" r="11.2" fill="none" stroke="#00FFA3" stroke-width="1.5" opacity="0.35"/>
  <polygon points="428.7,1551.0 433.6,1559.0 429.1,1567.2 419.8,1567.4 414.9,1559.4 419.4,1551.2" fill="none" stroke="url(#strokeB)" stroke-width="1.2" opacity="0.65"/>
  
</g>


<g opacity="0.534" filter="url(#hardGlow)">
  <circle cx="395.8" cy="1599.8" r="15.0" fill="#0A1224" opacity="0.65"/>
  <circle cx="395.8" cy="1599.8" r="15.0" fill="none" stroke="url(#strokeA)" stroke-width="2.0" opacity="0.85"/>
  <circle cx="395.8" cy="1599.8" r="12.9" fill="none" stroke="#00FFA3" stroke-width="1.5" opacity="0.35"/>
  <polygon points="385.3,1597.3 392.7,1589.4 403.3,1592.0 406.4,1602.3 398.9,1610.2 388.4,1607.7" fill="none" stroke="url(#strokeB)" stroke-width="1.2" opacity="0.65"/>
  
</g>


<g opacity="0.643" filter="url(#hardGlow)">
  <circle cx="451.7" cy="1597.3" r="12.5" fill="#0A1224" opacity="0.65"/>
  <circle cx="451.7" cy="1597.3" r="12.5" fill="none" stroke="url(#strokeA)" stroke-width="2.0" opacity="0.85"/>
  <circle cx="451.7" cy="1597.3" r="10.7" fill="none" stroke="#00FFA3" stroke-width="1.5" opacity="0.35"/>
  <polygon points="450.8,1588.3 459.0,1592.0 459.9,1600.9 452.6,1606.2 444.4,1602.5 443.5,1593.6" fill="none" stroke="url(#strokeB)" stroke-width="1.2" opacity="0.65"/>
  
</g>


<g opacity="0.661" filter="url(#hardGlow)">
  <circle cx="505.1" cy="1505.0" r="55.0" fill="#0A1224" opacity="0.65"/>
  <circle cx="505.1" cy="1505.0" r="55.0" fill="none" stroke="url(#strokeA)" stroke-width="4.4" opacity="0.85"/>
  <circle cx="505.1" cy="1505.0" r="47.3" fill="none" stroke="#FF4D8D" stroke-width="1.6" opacity="0.35"/>
  <polygon points="466.2,1497.5 492.1,1467.6 531.0,1475.1 543.9,1512.5 518.0,1542.5 479.1,1535.0" fill="none" stroke="url(#strokeB)" stroke-width="1.4" opacity="0.65"/>
  <polygon points="493.2,1497.9 517.2,1498.3 504.8,1518.9" fill="#FF4D8D" opacity="0.22" filter="url(#softGlow)"/>
</g>


<g opacity="0.378" filter="url(#hardGlow)">
  <circle cx="460.7" cy="1570.3" r="29.3" fill="#0A1224" opacity="0.65"/>
  <circle cx="460.7" cy="1570.3" r="29.3" fill="none" stroke="url(#strokeA)" stroke-width="2.3" opacity="0.85"/>
  <circle cx="460.7" cy="1570.3" r="25.2" fill="none" stroke="#00FFA3" stroke-width="1.5" opacity="0.35"/>
  <polygon points="460.7,1591.3 442.5,1580.9 442.4,1559.8 460.6,1549.2 478.9,1559.7 478.9,1580.7" fill="none" stroke="url(#strokeB)" stroke-width="1.2" opacity="0.65"/>
  
</g>


<g opacity="0.699" filter="url(#hardGlow)">
  <circle cx="218.3" cy="1506.6" r="35.0" fill="#0A1224" opacity="0.65"/>
  <circle cx="218.3" cy="1506.6" r="35.0" fill="none" stroke="url(#strokeA)" stroke-width="2.8" opacity="0.85"/>
  <circle cx="218.3" cy="1506.6" r="30.1" fill="none" stroke="#FF4D8D" stroke-width="1.5" opacity="0.35"/>
  <polygon points="206.6,1529.0 193.1,1507.7 204.8,1485.3 230.0,1484.3 243.5,1505.6 231.8,1527.9" fill="none" stroke="url(#strokeB)" stroke-width="1.2" opacity="0.65"/>
  <polygon points="211.8,1512.6 216.4,1498.0 226.7,1509.3" fill="#FF4D8D" opacity="0.22" filter="url(#softGlow)"/>
</g>


<g opacity="0.351" filter="url(#hardGlow)">
  <circle cx="248.4" cy="1482.4" r="14.9" fill="#0A1224" opacity="0.65"/>
  <circle cx="248.4" cy="1482.4" r="14.9" fill="none" stroke="url(#strokeA)" stroke-width="2.0" opacity="0.85"/>
  <circle cx="248.4" cy="1482.4" r="12.8" fill="none" stroke="#00FFA3" stroke-width="1.5" opacity="0.35"/>
  <polygon points="258.8,1484.9 251.4,1492.7 241.0,1490.2 237.9,1479.9 245.3,1472.1 255.7,1474.6" fill="none" stroke="url(#strokeB)" stroke-width="1.2" opacity="0.65"/>
  
</g>


<g opacity="0.417" filter="url(#hardGlow)">
  <circle cx="257.5" cy="1502.1" r="13.6" fill="#0A1224" opacity="0.65"/>
  <circle cx="257.5" cy="1502.1" r="13.6" fill="none" stroke="url(#strokeA)" stroke-width="2.0" opacity="0.85"/>
  <circle cx="257.5" cy="1502.1" r="11.7" fill="none" stroke="#00FFA3" stroke-width="1.5" opacity="0.35"/>
  <polygon points="256.1,1492.5 265.2,1496.1 266.6,1505.7 259.0,1511.8 249.9,1508.2 248.5,1498.5" fill="none" stroke="url(#strokeB)" stroke-width="1.2" opacity="0.65"/>
  <polygon points="258.2,1498.8 260.1,1504.4 254.3,1503.2" fill="#00FFA3" opacity="0.22" filter="url(#softGlow)"/>
</g>


<g opacity="0.811" filter="url(#hardGlow)">
  <circle cx="762.8" cy="1473.1" r="36.3" fill="#0A1224" opacity="0.65"/>
  <circle cx="762.8" cy="1473.1" r="36.3" fill="none" stroke="url(#strokeA)" stroke-width="2.9" opacity="0.85"/>
  <circle cx="762.8" cy="1473.1" r="31.2" fill="none" stroke="#FF4D8D" stroke-width="1.5" opacity="0.35"/>
  <polygon points="747.8,1451.7 773.8,1449.4 788.9,1470.8 777.9,1494.5 751.8,1496.9 736.8,1475.5" fill="none" stroke="url(#strokeB)" stroke-width="1.2" opacity="0.65"/>
  <polygon points="760.5,1464.3 771.7,1475.5 756.4,1479.6" fill="#FF4D8D" opacity="0.22" filter="url(#softGlow)"/>
</g>


<g opacity="0.491" filter="url(#hardGlow)">
  <circle cx="745.0" cy="1442.8" r="18.6" fill="#0A1224" opacity="0.65"/>
  <circle cx="745.0" cy="1442.8" r="18.6" fill="none" stroke="url(#strokeA)" stroke-width="2.0" opacity="0.85"/>
  <circle cx="745.0" cy="1442.8" r="16.0" fill="none" stroke="#00FFA3" stroke-width="1.5" opacity="0.35"/>
  <polygon points="746.5,1429.5 757.2,1437.4 755.8,1450.7 743.5,1456.1 732.7,1448.1 734.2,1434.8" fill="none" stroke="url(#strokeB)" stroke-width="1.2" opacity="0.65"/>
  <polygon points="747.1,1438.6 747.6,1446.7 740.3,1443.1" fill="#00FFA3" opacity="0.22" filter="url(#softGlow)"/>
</g>


<g opacity="0.544" filter="url(#hardGlow)">
  <circle cx="711.0" cy="1515.3" r="16.4" fill="#0A1224" opacity="0.65"/>
  <circle cx="711.0" cy="1515.3" r="16.4" fill="none" stroke="url(#strokeA)" stroke-width="2.0" opacity="0.85"/>
  <circle cx="711.0" cy="1515.3" r="14.1" fill="none" stroke="#00FFA3" stroke-width="1.5" opacity="0.35"/>
  <polygon points="717.1,1525.5 705.2,1525.6 699.2,1515.4 705.0,1505.1 716.9,1505.0 722.9,1515.2" fill="none" stroke="url(#strokeB)" stroke-width="1.2" opacity="0.65"/>
  <polygon points="711.8,1519.4 707.1,1513.9 714.2,1512.6" fill="#00FFA3" opacity="0.22" filter="url(#softGlow)"/>
</g>


<g opacity="0.610" filter="url(#hardGlow)">
  <circle cx="708.2" cy="1446.2" r="13.3" fill="#0A1224" opacity="0.65"/>
  <circle cx="708.2" cy="1446.2" r="13.3" fill="none" stroke="url(#strokeA)" stroke-width="2.0" opacity="0.85"/>
  <circle cx="708.2" cy="1446.2" r="11.4" fill="none" stroke="#00FFA3" stroke-width="1.5" opacity="0.35"/>
  <polygon points="699.0,1448.7 701.4,1439.5 710.6,1437.0 717.4,1443.7 715.0,1453.0 705.7,1455.5" fill="none" stroke="url(#strokeB)" stroke-width="1.2" opacity="0.65"/>
  
</g>


<g opacity="0.409" transform="translate(35.3,466.5) rotate(2.4)" filter="url(#softGlow)">
  <rect x="-90.9" y="-62.2" width="181.7" height="124.5" rx="12.4" fill="#050A12" opacity="0.25"/>
  <rect x="-90.9" y="-62.2" width="181.7" height="124.5" rx="12.4" fill="none" stroke="url(#strokeA)" stroke-width="6.2" opacity="0.85"/>
  <rect x="-80.9" y="-52.3" width="161.8" height="104.6" rx="8.7" fill="none" stroke="#FF4D8D" stroke-width="2.5" opacity="0.35"/>
</g>


<g opacity="0.417" transform="translate(7.8,1441.9) rotate(-5.1)" filter="url(#softGlow)">
  <rect x="-97.0" y="-69.6" width="194.0" height="139.2" rx="13.9" fill="#050A12" opacity="0.25"/>
  <rect x="-97.0" y="-69.6" width="194.0" height="139.2" rx="13.9" fill="none" stroke="url(#strokeA)" stroke-width="7.0" opacity="0.85"/>
  <rect x="-85.9" y="-58.5" width="171.7" height="116.9" rx="9.7" fill="none" stroke="#FF4D8D" stroke-width="2.8" opacity="0.35"/>
</g>


<g opacity="0.385" transform="translate(125.8,1568.8) rotate(-0.9)" filter="url(#softGlow)">
  <rect x="-82.7" y="-68.5" width="165.5" height="137.0" rx="13.7" fill="#050A12" opacity="0.25"/>
  <rect x="-82.7" y="-68.5" width="165.5" height="137.0" rx="13.7" fill="none" stroke="url(#strokeA)" stroke-width="6.9" opacity="0.85"/>
  <rect x="-71.8" y="-57.6" width="143.6" height="115.1" rx="9.6" fill="none" stroke="#00FFA3" stroke-width="2.7" opacity="0.35"/>
</g>


<g opacity="0.371" transform="translate(893.3,160.9) rotate(-1.4)" filter="url(#softGlow)">
  <rect x="-40.8" y="-23.5" width="81.6" height="47.0" rx="14.4" fill="none" stroke="#00FFA3" stroke-width="7.8" opacity="0.55"/>
  <rect x="-18.0" y="-11.8" width="81.6" height="47.0" rx="14.4" fill="none" stroke="url(#strokeA)" stroke-width="6.5" opacity="0.55"/>
</g>


<g opacity="0.244" transform="translate(398.5,52.2) rotate(2.2)" filter="url(#softGlow)">
  <rect x="-34.1" y="-19.7" width="68.3" height="39.3" rx="12.0" fill="none" stroke="#FF4D8D" stroke-width="6.6" opacity="0.55"/>
  <rect x="-15.0" y="-9.8" width="68.3" height="39.3" rx="12.0" fill="none" stroke="url(#strokeA)" stroke-width="5.5" opacity="0.55"/>
</g>


<g opacity="0.373" transform="translate(605.8,1571.7) rotate(10.2)" filter="url(#softGlow)">
  <rect x="-50.0" y="-28.8" width="100.1" height="57.7" rx="17.6" fill="none" stroke="#FF4D8D" stroke-width="9.6" opacity="0.55"/>
  <rect x="-22.0" y="-14.4" width="100.1" height="57.7" rx="17.6" fill="none" stroke="url(#strokeA)" stroke-width="8.0" opacity="0.55"/>
</g>


<g opacity="0.349" transform="translate(464.6,1535.5) rotate(9.3)" filter="url(#softGlow)">
  <rect x="-47.2" y="-27.2" width="94.4" height="54.4" rx="16.6" fill="none" stroke="#FF4D8D" stroke-width="9.1" opacity="0.55"/>
  <rect x="-20.8" y="-13.6" width="94.4" height="54.4" rx="16.6" fill="none" stroke="url(#strokeA)" stroke-width="7.6" opacity="0.55"/>
</g>


<g opacity="0.272" transform="translate(536.9,89.3) rotate(-3.3)" filter="url(#softGlow)">
  <rect x="-28.9" y="-16.6" width="57.8" height="33.3" rx="10.2" fill="none" stroke="#FF4D8D" stroke-width="5.5" opacity="0.55"/>
  <rect x="-12.7" y="-8.3" width="57.8" height="33.3" rx="10.2" fill="none" stroke="url(#strokeA)" stroke-width="4.6" opacity="0.55"/>
</g>


<g opacity="0.235" transform="translate(152.7,1463.5) rotate(-5.9)" filter="url(#softGlow)">
  <rect x="-34.4" y="-19.8" width="68.7" height="39.6" rx="12.1" fill="none" stroke="#FF4D8D" stroke-width="6.6" opacity="0.55"/>
  <rect x="-15.1" y="-9.9" width="68.7" height="39.6" rx="12.1" fill="none" stroke="url(#strokeA)" stroke-width="5.5" opacity="0.55"/>
</g>


<g opacity="0.309" transform="translate(20.9,1168.8) rotate(-8.8)" filter="url(#softGlow)">
  <rect x="-48.9" y="-28.2" width="97.7" height="56.3" rx="17.2" fill="none" stroke="#FF4D8D" stroke-width="9.4" opacity="0.55"/>
  <rect x="-21.5" y="-14.1" width="97.7" height="56.3" rx="17.2" fill="none" stroke="url(#strokeA)" stroke-width="7.8" opacity="0.55"/>
</g>


<g opacity="0.375" transform="translate(850.1,1566.0) rotate(17.4)" filter="url(#softGlow)">
  <rect x="-34.4" y="-19.8" width="68.8" height="39.6" rx="12.1" fill="none" stroke="#FF4D8D" stroke-width="6.6" opacity="0.55"/>
  <rect x="-15.1" y="-9.9" width="68.8" height="39.6" rx="12.1" fill="none" stroke="url(#strokeA)" stroke-width="5.5" opacity="0.55"/>
</g>


<g opacity="0.353" transform="translate(770.4,1423.2) rotate(-9.2)" filter="url(#softGlow)">
  <rect x="-28.5" y="-16.4" width="57.0" height="32.8" rx="10.0" fill="none" stroke="#FF4D8D" stroke-width="5.5" opacity="0.55"/>
  <rect x="-12.5" y="-8.2" width="57.0" height="32.8" rx="10.0" fill="none" stroke="url(#strokeA)" stroke-width="4.6" opacity="0.55"/>
</g>


<g opacity="0.230">
  <line x1="135.4" y1="1410.0" x2="135.4" y2="1507.4" stroke="#00FFA3" stroke-width="1.59" opacity="0.45"/>
  <rect x="131.9" y="1464.9" width="7.0" height="45.9" rx="2.3" fill="#0B1020" opacity="0.55" stroke="url(#strokeA)" stroke-width="1.2"/>
</g>

<g opacity="0.230">
  <line x1="351.7" y1="1405.5" x2="351.7" y2="1508.5" stroke="#00FFA3" stroke-width="2.08" opacity="0.45"/>
  <rect x="347.4" y="1466.0" width="8.7" height="43.9" rx="2.9" fill="#0B1020" opacity="0.55" stroke="url(#strokeA)" stroke-width="1.2"/>
</g>

<g opacity="0.230">
  <line x1="192.7" y1="1407.5" x2="192.7" y2="1508.0" stroke="#00FFA3" stroke-width="1.41" opacity="0.45"/>
  <rect x="187.1" y="1459.4" width="11.2" height="57.0" rx="3.7" fill="#0B1020" opacity="0.55" stroke="url(#strokeA)" stroke-width="1.2"/>
</g>

<g opacity="0.230">
  <line x1="862.5" y1="1439.8" x2="862.5" y2="1499.9" stroke="#00FFA3" stroke-width="1.70" opacity="0.45"/>
  <rect x="859.5" y="1472.1" width="6.1" height="31.6" rx="2.0" fill="#0B1020" opacity="0.55" stroke="url(#strokeA)" stroke-width="1.2"/>
</g>

<g opacity="0.230">
  <line x1="86.8" y1="1427.1" x2="86.8" y2="1503.1" stroke="#00FFA3" stroke-width="1.58" opacity="0.45"/>
  <rect x="82.5" y="1462.5" width="8.5" height="50.8" rx="2.8" fill="#0B1020" opacity="0.55" stroke="url(#strokeA)" stroke-width="1.2"/>
</g>

<g opacity="0.230">
  <line x1="79.6" y1="1417.5" x2="79.6" y2="1505.5" stroke="#00FFA3" stroke-width="1.53" opacity="0.45"/>
  <rect x="74.2" y="1464.5" width="10.8" height="46.7" rx="3.6" fill="#0B1020" opacity="0.55" stroke="url(#strokeA)" stroke-width="1.2"/>
</g>

<g opacity="0.230">
  <line x1="197.0" y1="1421.0" x2="197.0" y2="1504.6" stroke="#00FFA3" stroke-width="1.05" opacity="0.45"/>
  <rect x="191.6" y="1464.9" width="10.7" height="45.9" rx="3.6" fill="#0B1020" opacity="0.55" stroke="url(#strokeA)" stroke-width="1.2"/>
</g>

<g opacity="0.230">
  <line x1="465.2" y1="1415.3" x2="465.2" y2="1506.0" stroke="#00FFA3" stroke-width="2.02" opacity="0.45"/>
  <rect x="460.7" y="1459.0" width="9.0" height="57.9" rx="3.0" fill="#0B1020" opacity="0.55" stroke="url(#strokeA)" stroke-width="1.2"/>
</g>

<g opacity="0.230">
  <line x1="307.0" y1="1419.7" x2="307.0" y2="1504.9" stroke="#00FFA3" stroke-width="1.51" opacity="0.45"/>
  <rect x="301.9" y="1469.6" width="10.2" height="36.5" rx="3.4" fill="#0B1020" opacity="0.55" stroke="url(#strokeA)" stroke-width="1.2"/>
</g>

<g opacity="0.230">
  <line x1="434.0" y1="1415.8" x2="434.0" y2="1505.9" stroke="#00FFA3" stroke-width="2.06" opacity="0.45"/>
  <rect x="428.5" y="1470.7" width="10.9" height="34.3" rx="3.6" fill="#0B1020" opacity="0.55" stroke="url(#strokeA)" stroke-width="1.2"/>
</g>

<g opacity="0.230">
  <line x1="895.9" y1="1429.2" x2="895.9" y2="1502.6" stroke="#00FFA3" stroke-width="1.63" opacity="0.45"/>
  <rect x="890.4" y="1474.9" width="10.9" height="26.0" rx="3.6" fill="#0B1020" opacity="0.55" stroke="url(#strokeA)" stroke-width="1.2"/>
</g>

<g opacity="0.230">
  <line x1="121.9" y1="1446.0" x2="121.9" y2="1498.4" stroke="#00FFA3" stroke-width="1.26" opacity="0.45"/>
  <rect x="117.6" y="1477.8" width="8.5" height="20.1" rx="2.8" fill="#0B1020" opacity="0.55" stroke="url(#strokeA)" stroke-width="1.2"/>
</g>

<g opacity="0.230">
  <line x1="454.6" y1="1399.3" x2="454.6" y2="1510.0" stroke="#00FFA3" stroke-width="1.89" opacity="0.45"/>
  <rect x="450.0" y="1462.3" width="9.2" height="51.2" rx="3.1" fill="#0B1020" opacity="0.55" stroke="url(#strokeA)" stroke-width="1.2"/>
</g>
<circle cx="111.2" cy="30.2" r="2.5" fill="#FF4D8D" opacity="0.23" filter="url(#softGlow)"/>
<circle cx="474.7" cy="110.8" r="2.1" fill="#FF4D8D" opacity="0.22" filter="url(#softGlow)"/>
<circle cx="776.9" cy="1259.0" r="2.1" fill="#FF4D8D" opacity="0.23" filter="url(#softGlow)"/>
<circle cx="52.1" cy="1503.1" r="2.5" fill="#FF4D8D" opacity="0.10" filter="url(#softGlow)"/>
<circle cx="77.8" cy="1440.2" r="2.9" fill="#FF4D8D" opacity="0.13" filter="url(#softGlow)"/>
<circle cx="36.8" cy="1444.6" r="2.2" fill="#FF4D8D" opacity="0.15" filter="url(#softGlow)"/>
<circle cx="843.8" cy="1405.0" r="2.4" fill="#FF4D8D" opacity="0.14" filter="url(#softGlow)"/>
<circle cx="882.5" cy="134.4" r="1.5" fill="#FF4D8D" opacity="0.11" filter="url(#softGlow)"/>
<circle cx="863.3" cy="1423.6" r="2.5" fill="#FF4D8D" opacity="0.18" filter="url(#softGlow)"/>
<circle cx="788.6" cy="32.5" r="1.5" fill="#FF4D8D" opacity="0.21" filter="url(#softGlow)"/>
<circle cx="848.4" cy="22.5" r="2.2" fill="#FF4D8D" opacity="0.12" filter="url(#softGlow)"/>
<circle cx="794.2" cy="1507.1" r="1.4" fill="#FF4D8D" opacity="0.21" filter="url(#softGlow)"/>
<circle cx="85.6" cy="140.2" r="2.8" fill="#FF4D8D" opacity="0.26" filter="url(#softGlow)"/>
<circle cx="747.3" cy="1480.5" r="3.1" fill="#FF4D8D" opacity="0.14" filter="url(#softGlow)"/>
<circle cx="758.2" cy="1460.9" r="2.3" fill="#FF4D8D" opacity="0.28" filter="url(#softGlow)"/>
<circle cx="105.8" cy="1599.1" r="2.4" fill="#FF4D8D" opacity="0.20" filter="url(#softGlow)"/>
<circle cx="863.9" cy="75.1" r="1.6" fill="#FF4D8D" opacity="0.18" filter="url(#softGlow)"/>
<circle cx="47.6" cy="382.3" r="3.0" fill="#FF4D8D" opacity="0.19" filter="url(#softGlow)"/>
<circle cx="642.3" cy="7.6" r="1.8" fill="#FF4D8D" opacity="0.20" filter="url(#softGlow)"/>
<circle cx="872.7" cy="830.0" r="2.4" fill="#FF4D8D" opacity="0.13" filter="url(#softGlow)"/>
<circle cx="897.3" cy="1528.2" r="1.7" fill="#FF4D8D" opacity="0.19" filter="url(#softGlow)"/>
<circle cx="769.8" cy="125.9" r="1.4" fill="#FF4D8D" opacity="0.14" filter="url(#softGlow)"/>
<circle cx="20.2" cy="3.1" r="1.9" fill="#FF4D8D" opacity="0.15" filter="url(#softGlow)"/>
<circle cx="17.0" cy="169.6" r="1.8" fill="#FF4D8D" opacity="0.20" filter="url(#softGlow)"/>
<circle cx="60.0" cy="1486.7" r="1.5" fill="#FF4D8D" opacity="0.16" filter="url(#softGlow)"/>
<circle cx="128.8" cy="1485.9" r="1.7" fill="#FF4D8D" opacity="0.21" filter="url(#softGlow)"/>
<circle cx="791.6" cy="1409.1" r="2.9" fill="#FF4D8D" opacity="0.17" filter="url(#softGlow)"/>
<circle cx="198.4" cy="40.0" r="1.8" fill="#FF4D8D" opacity="0.15" filter="url(#softGlow)"/>
<circle cx="140.2" cy="1035.7" r="1.5" fill="#FF4D8D" opacity="0.19" filter="url(#softGlow)"/>
<circle cx="846.2" cy="1311.7" r="2.4" fill="#FF4D8D" opacity="0.22" filter="url(#softGlow)"/>
<circle cx="857.0" cy="710.6" r="2.4" fill="#FF4D8D" opacity="0.11" filter="url(#softGlow)"/>
</svg>