<svg xmlns="http://www.w3.org/2000/svg" width="900" height="1600" viewBox="0 0 900 1600" preserveAspectRatio="xMidYMid slice">
<defs>
  <linearGradient id="g0" x1="0" y1="0" x2="1" y2="1">
    <stop offset="0" stop-color="#0A0F1E"/>
    <stop offset="0.55" stop-color="#00FFA3" stop-opacity="0.9"/>
    <stop offset="1" stop-color="#050A12"/>
  </linearGradient>
  <radialGradient id="g1" cx="20%" cy="15%" r="70%">
    <stop offset="0" stop-color="#14C2FF" stop-opacity="0.38"/>
    <stop offset="0.6" stop-color="#14C2FF" stop-opacity="0.08"/>
    <stop offset="1" stop-color="#14C2FF" stop-opacity="0"/>
  </radialGradient>
  <radialGradient id="g2" cx="85%" cy="80%" r="75%">
    <stop offset="0" stop-color="#14C2FF" stop-opacity="0.28"/>
    <stop offset="0.65" stop-color="#14C2FF" stop-opacity="0.06"/>
    <stop offset="1" stop-color="#14C2FF" stop-opacity="0"/>
  </radialGradient>
  <filter id="softGlow" x="-30%" y="-30%" width="160%" height="160%">
    <feGaussianBlur stdDeviation="12" result="b"/>
    <feMerge>
      <feMergeNode in="b"/>
      <feMergeNode in="SourceGraphic"/>
    </feMerge>
  </filter>
  <filter id="hardGlow" x="-40%" y="-40%" width="180%" height="180%">
    <feGaussianBlur stdDeviation="6" result="b"/>
    <feColorMatrix in="b" type="matrix" values="1 0 0 0 0  0 1 0 0 0  0 0 1 0 0  0 0 0 18 -7" result="c"/>
    <feMerge>
      <feMergeNode in="c"/>
      <feMergeNode in="SourceGraphic"/>
    </feMerge>
  </filter>
  <linearGradient id="strokeA" x1="0" y1="0" x2="1" y2="0">
    <stop offset="0" stop-color="#14C2FF" stop-opacity="0.9"/>
    <stop offset="0.5" stop-color="#FFFFFF" stop-opacity="0.25"/>
    <stop offset="1" stop-color="#14C2FF" stop-opacity="0.7"/>
  </linearGradient>
  <linearGradient id="strokeB" x1="0" y1="0" x2="0" y2="1">
    <stop offset="0" stop-color="#FFFFFF" stop-opacity="0.18"/>
    <stop offset="1" stop-color="#14C2FF" stop-opacity="0.55"/>
  </linearGradient>
</defs>
<rect x="0" y="0" width="900" height="1600" fill="url(#g0)"/>
<rect x="0" y="0" width="900" height="1600" fill="url(#g1)"/>
<rect x="0" y="0" width="900" height="1600" fill="url(#g2)"/>


<defs>
  <radialGradient id="vign" cx="0.5000" cy="0.5000" r="0.85">
    <stop offset="0" stop-color="#000000" stop-opacity="0"/>
    <stop offset="0.55" stop-color="#000000" stop-opacity="0.217"/>
    <stop offset="1" stop-color="#000000" stop-opacity="0.620"/>
  </radialGradient>
</defs>
<rect x="0" y="0" width="900" height="1600" fill="url(#vign)"/>

<g opacity="0.209" filter="url(#softGlow)"><path d="M 724.4,1567.5 L 99.8,1567.5 L 99.8,1532.3 L 179.1,1532.3 L 179.1,84.5 " fill="none" stroke="url(#strokeB)" stroke-width="1.87" stroke-linecap="round" stroke-linejoin="round"/><circle cx="179.1" cy="84.5" r="3.3" fill="#00FFA3" opacity="0.45"/><circle cx="99.8" cy="1567.5" r="3.5" fill="#00FFA3" opacity="0.45"/><circle cx="724.4" cy="1567.5" r="3.2" fill="#00FFA3" opacity="0.45"/></g>
<g opacity="0.209" filter="url(#softGlow)"><path d="M 751.2,102.5 L 519.6,102.5 L 519.6,1524.5 L 120.1,1524.5 L 120.1,1516.6 " fill="none" stroke="url(#strokeB)" stroke-width="2.10" stroke-linecap="round" stroke-linejoin="round"/><circle cx="120.1" cy="1516.6" r="2.8" fill="#00FFA3" opacity="0.45"/><circle cx="519.6" cy="1524.5" r="3.4" fill="#00FFA3" opacity="0.45"/><circle cx="751.2" cy="102.5" r="2.9" fill="#00FFA3" opacity="0.45"/></g>
<g opacity="0.209" filter="url(#softGlow)"><path d="M 160.9,41.0 L 138.6,41.0 L 138.6,1443.6 L 33.5,1443.6 L 33.5,66.1 " fill="none" stroke="url(#strokeB)" stroke-width="1.84" stroke-linecap="round" stroke-linejoin="round"/><circle cx="33.5" cy="66.1" r="3.2" fill="#00FFA3" opacity="0.45"/><circle cx="138.6" cy="1443.6" r="4.0" fill="#00FFA3" opacity="0.45"/><circle cx="138.6" cy="41.0" r="2.6" fill="#00FFA3" opacity="0.45"/></g>
<g opacity="0.209" filter="url(#softGlow)"><path d="M 547.1,1431.7 L 592.9,1431.7 L 592.9,73.3 L 427.2,73.3 L 427.2,179.6 " fill="none" stroke="url(#strokeB)" stroke-width="1.31" stroke-linecap="round" stroke-linejoin="round"/><circle cx="547.1" cy="1431.7" r="3.2" fill="#00FFA3" opacity="0.45"/><circle cx="592.9" cy="73.3" r="2.3" fill="#00FFA3" opacity="0.45"/><circle cx="427.2" cy="179.6" r="2.3" fill="#00FFA3" opacity="0.45"/></g>
<g opacity="0.209" filter="url(#softGlow)"><path d="M 132.9,1478.0 L 276.9,1478.0 L 276.9,1464.8 L 326.0,1464.8 L 326.0,126.3 " fill="none" stroke="url(#strokeB)" stroke-width="1.12" stroke-linecap="round" stroke-linejoin="round"/><circle cx="132.9" cy="1478.0" r="3.3" fill="#00FFA3" opacity="0.45"/><circle cx="326.0" cy="126.3" r="2.4" fill="#00FFA3" opacity="0.45"/><circle cx="276.9" cy="1478.0" r="2.0" fill="#00FFA3" opacity="0.45"/></g>
<g opacity="0.209" filter="url(#softGlow)"><path d="M 157.4,48.3 L 674.1,48.3 L 674.1,1444.3 L 127.3,1444.3 L 127.3,1470.9 " fill="none" stroke="url(#strokeB)" stroke-width="1.27" stroke-linecap="round" stroke-linejoin="round"/><circle cx="127.3" cy="1470.9" r="2.3" fill="#00FFA3" opacity="0.45"/><circle cx="674.1" cy="1444.3" r="2.7" fill="#00FFA3" opacity="0.45"/><circle cx="127.3" cy="1444.3" r="2.1" fill="#00FFA3" opacity="0.45"/></g>
<g opacity="0.209" filter="url(#softGlow)"><path d="M 806.3,1581.3 L 128.3,1581.3 L 128.3,1440.8 L 584.3,1440.8 L 584.3,116.5 " fill="none" stroke="url(#strokeB)" stroke-width="1.13" stroke-linecap="round" stroke-linejoin="round"/><circle cx="584.3" cy="116.5" r="3.9" fill="#00FFA3" opacity="0.45"/><circle cx="584.3" cy="1440.8" r="3.7" fill="#00FFA3" opacity="0.45"/><circle cx="128.3" cy="1581.3" r="3.3" fill="#00FFA3" opacity="0.45"/></g>
<g opacity="0.209" filter="url(#softGlow)"><path d="M 330.0,1513.5 L 49.4,1513.5 L 49.4,1577.5 L 363.1,1577.5 L 363.1,1556.4 " fill="none" stroke="url(#strokeB)" stroke-width="1.20" stroke-linecap="round" stroke-linejoin="round"/><circle cx="49.4" cy="1513.5" r="4.1" fill="#00FFA3" opacity="0.45"/><circle cx="363.1" cy="1556.4" r="2.6" fill="#00FFA3" opacity="0.45"/><circle cx="363.1" cy="1577.5" r="3.0" fill="#00FFA3" opacity="0.45"/></g>
<g opacity="0.209" filter="url(#softGlow)"><path d="M 863.6,795.8 L 867.4,795.8 L 867.4,330.1 L 300.9,330.1 L 300.9,1561.1 " fill="none" stroke="url(#strokeB)" stroke-width="1.23" stroke-linecap="round" stroke-linejoin="round"/><circle cx="867.4" cy="795.8" r="2.1" fill="#00FFA3" opacity="0.45"/><circle cx="300.9" cy="330.1" r="2.4" fill="#00FFA3" opacity="0.45"/><circle cx="300.9" cy="1561.1" r="2.9" fill="#00FFA3" opacity="0.45"/></g>
<g opacity="0.209" filter="url(#softGlow)"><path d="M 748.1,1565.5 L 4.3,1565.5 L 4.3,936.3 L 23.1,936.3 L 23.1,90.9 " fill="none" stroke="url(#strokeB)" stroke-width="1.92" stroke-linecap="round" stroke-linejoin="round"/><circle cx="4.3" cy="1565.5" r="4.2" fill="#00FFA3" opacity="0.45"/><circle cx="748.1" cy="1565.5" r="3.9" fill="#00FFA3" opacity="0.45"/><circle cx="23.1" cy="90.9" r="4.2" fill="#00FFA3" opacity="0.45"/></g>
<g opacity="0.209" filter="url(#softGlow)"><path d="M 81.2,77.6 L 141.5,77.6 L 141.5,1568.7 L 309.3,1568.7 L 309.3,1562.6 " fill="none" stroke="url(#strokeB)" stroke-width="1.81" stroke-linecap="round" stroke-linejoin="round"/><circle cx="309.3" cy="1562.6" r="2.8" fill="#00FFA3" opacity="0.45"/><circle cx="309.3" cy="1568.7" r="3.5" fill="#00FFA3" opacity="0.45"/><circle cx="81.2" cy="77.6" r="4.0" fill="#00FFA3" opacity="0.45"/></g>
<g opacity="0.209" filter="url(#softGlow)"><path d="M 748.6,1497.2 L 861.7,1497.2 L 861.7,123.8 L 104.5,123.8 L 104.5,332.1 " fill="none" stroke="url(#strokeB)" stroke-width="1.58" stroke-linecap="round" stroke-linejoin="round"/><circle cx="104.5" cy="123.8" r="2.5" fill="#00FFA3" opacity="0.45"/><circle cx="104.5" cy="332.1" r="2.0" fill="#00FFA3" opacity="0.45"/><circle cx="861.7" cy="123.8" r="3.2" fill="#00FFA3" opacity="0.45"/></g>
<g opacity="0.209" filter="url(#softGlow)"><path d="M 812.1,1489.1 L 176.7,1489.1 L 176.7,66.9 L 298.4,66.9 L 298.4,1588.4 " fill="none" stroke="url(#strokeB)" stroke-width="1.19" stroke-linecap="round" stroke-linejoin="round"/><circle cx="176.7" cy="1489.1" r="2.4" fill="#00FFA3" opacity="0.45"/><circle cx="812.1" cy="1489.1" r="2.5" fill="#00FFA3" opacity="0.45"/><circle cx="176.7" cy="66.9" r="3.7" fill="#00FFA3" opacity="0.45"/></g>
<g opacity="0.209" filter="url(#softGlow)"><path d="M 778.4,53.3 L 24.1,53.3 L 24.1,104.2 L 894.2,104.2 L 894.2,178.8 " fill="none" stroke="url(#strokeB)" stroke-width="1.48" stroke-linecap="round" stroke-linejoin="round"/><circle cx="24.1" cy="104.2" r="3.4" fill="#00FFA3" opacity="0.45"/><circle cx="24.1" cy="53.3" r="2.1" fill="#00FFA3" opacity="0.45"/><circle cx="778.4" cy="53.3" r="2.8" fill="#00FFA3" opacity="0.45"/></g>
<g opacity="0.209" filter="url(#softGlow)"><path d="M 87.4,192.1 L 119.1,192.1 L 119.1,99.0 L 860.5,99.0 L 860.5,485.5 " fill="none" stroke="url(#strokeB)" stroke-width="2.14" stroke-linecap="round" stroke-linejoin="round"/><circle cx="119.1" cy="99.0" r="3.8" fill="#00FFA3" opacity="0.45"/><circle cx="860.5" cy="99.0" r="4.2" fill="#00FFA3" opacity="0.45"/><circle cx="87.4" cy="192.1" r="3.8" fill="#00FFA3" opacity="0.45"/></g>
<g opacity="0.209" filter="url(#softGlow)"><path d="M 9.6,1522.4 L 2.1,1522.4 L 2.1,70.2 L 834.0,70.2 L 834.0,1566.7 " fill="none" stroke="url(#strokeB)" stroke-width="2.15" stroke-linecap="round" stroke-linejoin="round"/><circle cx="2.1" cy="70.2" r="3.4" fill="#00FFA3" opacity="0.45"/><circle cx="9.6" cy="1522.4" r="4.2" fill="#00FFA3" opacity="0.45"/><circle cx="2.1" cy="1522.4" r="2.2" fill="#00FFA3" opacity="0.45"/></g>
<g opacity="0.209" filter="url(#softGlow)"><path d="M 781.1,1527.4 L 465.4,1527.4 L 465.4,88.3 L 9.1,88.3 L 9.1,1498.1 " fill="none" stroke="url(#strokeB)" stroke-width="1.18" stroke-linecap="round" stroke-linejoin="round"/><circle cx="9.1" cy="88.3" r="4.1" fill="#00FFA3" opacity="0.45"/><circle cx="465.4" cy="1527.4" r="3.8" fill="#00FFA3" opacity="0.45"/><circle cx="465.4" cy="88.3" r="3.8" fill="#00FFA3" opacity="0.45"/></g>
<g opacity="0.209" filter="url(#softGlow)"><path d="M 166.4,22.0 L 778.9,22.0 L 778.9,1480.3 L 846.9,1480.3 L 846.9,1427.7 " fill="none" stroke="url(#strokeB)" stroke-width="1.22" stroke-linecap="round" stroke-linejoin="round"/><circle cx="846.9" cy="1427.7" r="3.5" fill="#00FFA3" opacity="0.45"/><circle cx="166.4" cy="22.0" r="2.5" fill="#00FFA3" opacity="0.45"/><circle cx="778.9" cy="1480.3" r="3.7" fill="#00FFA3" opacity="0.45"/></g>

<g opacity="0.761" filter="url(#hardGlow)">
  <circle cx="115.0" cy="1596.0" r="53.6" fill="#0A1224" opacity="0.65"/>
  <circle cx="115.0" cy="1596.0" r="53.6" fill="none" stroke="url(#strokeA)" stroke-width="4.3" opacity="0.85"/>
  <circle cx="115.0" cy="1596.0" r="46.1" fill="none" stroke="#14C2FF" stroke-width="1.6" opacity="0.35"/>
  <polygon points="153.6,1594.5 135.7,1628.6 97.1,1630.2 76.5,1597.6 94.4,1563.4 132.9,1561.9" fill="none" stroke="url(#strokeB)" stroke-width="1.3" opacity="0.65"/>
  <polygon points="127.9,1600.1 105.0,1605.1 112.1,1582.8" fill="#14C2FF" opacity="0.22" filter="url(#softGlow)"/>
</g>


<g opacity="0.389" filter="url(#hardGlow)">
  <circle cx="190.9" cy="1601.1" r="24.5" fill="#0A1224" opacity="0.65"/>
  <circle cx="190.9" cy="1601.1" r="24.5" fill="none" stroke="url(#strokeA)" stroke-width="2.0" opacity="0.85"/>
  <circle cx="190.9" cy="1601.1" r="21.1" fill="none" stroke="#00FFA3" stroke-width="1.5" opacity="0.35"/>
  <polygon points="174.1,1595.7 187.2,1583.8 204.0,1589.2 207.7,1606.4 194.7,1618.3 177.9,1612.9" fill="none" stroke="url(#strokeB)" stroke-width="1.2" opacity="0.65"/>
  <polygon points="186.1,1597.3 196.6,1598.7 190.1,1607.2" fill="#00FFA3" opacity="0.22" filter="url(#softGlow)"/>
</g>


<g opacity="0.654" filter="url(#hardGlow)">
  <circle cx="108.8" cy="118.8" r="35.7" fill="#0A1224" opacity="0.65"/>
  <circle cx="108.8" cy="118.8" r="35.7" fill="none" stroke="url(#strokeA)" stroke-width="2.9" opacity="0.85"/>
  <circle cx="108.8" cy="118.8" r="30.7" fill="none" stroke="#14C2FF" stroke-width="1.5" opacity="0.35"/>
  <polygon points="126.9,137.2 101.9,143.6 83.9,125.2 90.8,100.4 115.7,94.0 133.8,112.4" fill="none" stroke="url(#strokeB)" stroke-width="1.2" opacity="0.65"/>
  <polygon points="112.6,127.0 99.9,117.9 114.1,111.5" fill="#14C2FF" opacity="0.22" filter="url(#softGlow)"/>
</g>


<g opacity="0.460" filter="url(#hardGlow)">
  <circle cx="106.6" cy="109.9" r="15.1" fill="#0A1224" opacity="0.65"/>
  <circle cx="106.6" cy="109.9" r="15.1" fill="none" stroke="url(#strokeA)" stroke-width="2.0" opacity="0.85"/>
  <circle cx="106.6" cy="109.9" r="13.0" fill="none" stroke="#00FFA3" stroke-width="1.5" opacity="0.35"/>
  <polygon points="101.9,100.1 112.7,100.9 117.4,110.7 111.3,119.7 100.5,118.8 95.8,109.1" fill="none" stroke="url(#strokeB)" stroke-width="1.2" opacity="0.65"/>
  
</g>


<g opacity="0.470" filter="url(#hardGlow)">
  <circle cx="123.0" cy="90.3" r="19.1" fill="#0A1224" opacity="0.65"/>
  <circle cx="123.0" cy="90.3" r="19.1" fill="none" stroke="url(#strokeA)" stroke-width="2.0" opacity="0.85"/>
  <circle cx="123.0" cy="90.3" r="16.4" fill="none" stroke="#00FFA3" stroke-width="1.5" opacity="0.35"/>
  <polygon points="131.5,79.5 136.6,92.3 128.1,103.1 114.5,101.1 109.4,88.4 117.9,77.5" fill="none" stroke="url(#strokeB)" stroke-width="1.2" opacity="0.65"/>
  <polygon points="127.1,87.8 123.1,95.1 118.8,88.0" fill="#00FFA3" opacity="0.22" filter="url(#softGlow)"/>
</g>


<g opacity="0.735" filter="url(#hardGlow)">
  <circle cx="95.5" cy="1571.0" r="33.9" fill="#0A1224" opacity="0.65"/>
  <circle cx="95.5" cy="1571.0" r="33.9" fill="none" stroke="url(#strokeA)" stroke-width="2.7" opacity="0.85"/>
  <circle cx="95.5" cy="1571.0" r="29.2" fill="none" stroke="#14C2FF" stroke-width="1.5" opacity="0.35"/>
  <polygon points="81.9,1550.7 106.2,1549.0 119.9,1569.3 109.1,1591.3 84.7,1592.9 71.1,1572.6" fill="none" stroke="url(#strokeB)" stroke-width="1.2" opacity="0.65"/>
  <polygon points="93.4,1562.7 103.7,1573.4 89.3,1576.9" fill="#14C2FF" opacity="0.22" filter="url(#softGlow)"/>
</g>


<g opacity="0.591" filter="url(#hardGlow)">
  <circle cx="57.3" cy="1604.2" r="16.5" fill="#0A1224" opacity="0.65"/>
  <circle cx="57.3" cy="1604.2" r="16.5" fill="none" stroke="url(#strokeA)" stroke-width="2.0" opacity="0.85"/>
  <circle cx="57.3" cy="1604.2" r="14.2" fill="none" stroke="#00FFA3" stroke-width="1.5" opacity="0.35"/>
  <polygon points="48.3,1612.0 46.1,1600.3 55.0,1592.5 66.3,1596.4 68.5,1608.0 59.6,1615.8" fill="none" stroke="url(#strokeB)" stroke-width="1.2" opacity="0.65"/>
  
</g>


<g opacity="0.449" filter="url(#hardGlow)">
  <circle cx="56.7" cy="1597.3" r="12.2" fill="#0A1224" opacity="0.65"/>
  <circle cx="56.7" cy="1597.3" r="12.2" fill="none" stroke="url(#strokeA)" stroke-width="2.0" opacity="0.85"/>
  <circle cx="56.7" cy="1597.3" r="10.5" fill="none" stroke="#00FFA3" stroke-width="1.5" opacity="0.35"/>
  <polygon points="53.6,1605.5 48.1,1598.7 51.2,1590.5 59.8,1589.1 65.3,1595.9 62.2,1604.1" fill="none" stroke="url(#strokeB)" stroke-width="1.2" opacity="0.65"/>
  <polygon points="54.7,1599.6 55.7,1594.4 59.7,1597.9" fill="#00FFA3" opacity="0.22" filter="url(#softGlow)"/>
</g>


<g opacity="0.528" filter="url(#hardGlow)">
  <circle cx="144.8" cy="1605.6" r="13.5" fill="#0A1224" opacity="0.65"/>
  <circle cx="144.8" cy="1605.6" r="13.5" fill="none" stroke="url(#strokeA)" stroke-width="2.0" opacity="0.85"/>
  <circle cx="144.8" cy="1605.6" r="11.6" fill="none" stroke="#00FFA3" stroke-width="1.5" opacity="0.35"/>
  <polygon points="135.9,1601.5 143.9,1595.9 152.7,1600.0 153.6,1609.6 145.6,1615.2 136.8,1611.2" fill="none" stroke="url(#strokeB)" stroke-width="1.2" opacity="0.65"/>
  
</g>


<g opacity="0.907" filter="url(#hardGlow)">
  <circle cx="101.7" cy="1145.4" r="33.7" fill="#0A1224" opacity="0.65"/>
  <circle cx="101.7" cy="1145.4" r="33.7" fill="none" stroke="url(#strokeA)" stroke-width="2.7" opacity="0.85"/>
  <circle cx="101.7" cy="1145.4" r="29.0" fill="none" stroke="#14C2FF" stroke-width="1.5" opacity="0.35"/>
  <polygon points="125.4,1140.5 117.8,1163.6 94.1,1168.5 77.9,1150.4 85.5,1127.3 109.3,1122.4" fill="none" stroke="url(#strokeB)" stroke-width="1.2" opacity="0.65"/>
  <polygon points="110.1,1146.7 96.4,1152.1 98.5,1137.5" fill="#14C2FF" opacity="0.22" filter="url(#softGlow)"/>
</g>


<g opacity="0.492" filter="url(#hardGlow)">
  <circle cx="58.4" cy="1180.6" r="17.4" fill="#0A1224" opacity="0.65"/>
  <circle cx="58.4" cy="1180.6" r="17.4" fill="none" stroke="url(#strokeA)" stroke-width="2.0" opacity="0.85"/>
  <circle cx="58.4" cy="1180.6" r="15.0" fill="none" stroke="#00FFA3" stroke-width="1.5" opacity="0.35"/>
  <polygon points="60.7,1192.9 48.9,1188.8 46.5,1176.5 56.0,1168.3 67.8,1172.4 70.2,1184.7" fill="none" stroke="url(#strokeB)" stroke-width="1.2" opacity="0.65"/>
  <polygon points="57.7,1185.0 54.9,1177.9 62.5,1179.1" fill="#00FFA3" opacity="0.22" filter="url(#softGlow)"/>
</g>


<g opacity="0.805" filter="url(#hardGlow)">
  <circle cx="852.0" cy="66.8" r="49.0" fill="#0A1224" opacity="0.65"/>
  <circle cx="852.0" cy="66.8" r="49.0" fill="none" stroke="url(#strokeA)" stroke-width="3.9" opacity="0.85"/>
  <circle cx="852.0" cy="66.8" r="42.2" fill="none" stroke="#14C2FF" stroke-width="1.5" opacity="0.35"/>
  <polygon points="816.9,63.6 837.3,34.8 872.4,38.0 887.2,70.1 866.8,98.9 831.6,95.7" fill="none" stroke="url(#strokeB)" stroke-width="1.2" opacity="0.65"/>
  <polygon points="840.8,61.6 862.2,59.8 853.0,79.1" fill="#14C2FF" opacity="0.22" filter="url(#softGlow)"/>
</g>


<g opacity="0.550" filter="url(#hardGlow)">
  <circle cx="918.8" cy="77.2" r="19.0" fill="#0A1224" opacity="0.65"/>
  <circle cx="918.8" cy="77.2" r="19.0" fill="none" stroke="url(#strokeA)" stroke-width="2.0" opacity="0.85"/>
  <circle cx="918.8" cy="77.2" r="16.3" fill="none" stroke="#00FFA3" stroke-width="1.5" opacity="0.35"/>
  <polygon points="912.9,64.8 926.6,65.9 932.4,78.3 924.7,89.5 911.1,88.4 905.2,76.1" fill="none" stroke="url(#strokeB)" stroke-width="1.2" opacity="0.65"/>
  
</g>


<g opacity="0.540" filter="url(#hardGlow)">
  <circle cx="906.4" cy="123.8" r="21.6" fill="#0A1224" opacity="0.65"/>
  <circle cx="906.4" cy="123.8" r="21.6" fill="none" stroke="url(#strokeA)" stroke-width="2.0" opacity="0.85"/>
  <circle cx="906.4" cy="123.8" r="18.5" fill="none" stroke="#00FFA3" stroke-width="1.5" opacity="0.35"/>
  <polygon points="891.6,119.3 902.8,108.7 917.7,113.1 921.3,128.2 910.0,138.8 895.2,134.4" fill="none" stroke="url(#strokeB)" stroke-width="1.2" opacity="0.65"/>
  
</g>


<g opacity="0.460" transform="translate(759.3,103.9) rotate(-9.4)" filter="url(#softGlow)">
  <rect x="-74.3" y="-53.2" width="148.7" height="106.4" rx="10.6" fill="#050A12" opacity="0.25"/>
  <rect x="-74.3" y="-53.2" width="148.7" height="106.4" rx="10.6" fill="none" stroke="url(#strokeA)" stroke-width="5.3" opacity="0.85"/>
  <rect x="-65.8" y="-44.7" width="131.7" height="89.3" rx="7.4" fill="none" stroke="#14C2FF" stroke-width="2.1" opacity="0.35"/>
</g>


<g opacity="0.303" transform="translate(541.5,74.1) rotate(-8.2)" filter="url(#softGlow)">
  <rect x="-83.6" y="-78.0" width="167.3" height="155.9" rx="15.6" fill="#050A12" opacity="0.25"/>
  <rect x="-83.6" y="-78.0" width="167.3" height="155.9" rx="15.6" fill="none" stroke="url(#strokeA)" stroke-width="7.8" opacity="0.85"/>
  <rect x="-71.2" y="-65.5" width="142.3" height="131.0" rx="10.9" fill="none" stroke="#00FFA3" stroke-width="3.1" opacity="0.35"/>
</g>


<g opacity="0.429" transform="translate(157.7,1466.9) rotate(-1.3)" filter="url(#softGlow)">
  <rect x="-70.5" y="-59.7" width="141.1" height="119.3" rx="11.9" fill="#050A12" opacity="0.25"/>
  <rect x="-70.5" y="-59.7" width="141.1" height="119.3" rx="11.9" fill="none" stroke="url(#strokeA)" stroke-width="6.0" opacity="0.85"/>
  <rect x="-61.0" y="-50.1" width="122.0" height="100.2" rx="8.4" fill="none" stroke="#FF4D8D" stroke-width="2.4" opacity="0.35"/>
</g>


<g opacity="0.274" transform="translate(145.7,1414.1) rotate(7.0)" filter="url(#softGlow)">
  <rect x="-48.2" y="-27.8" width="96.5" height="55.6" rx="17.0" fill="none" stroke="#00FFA3" stroke-width="9.3" opacity="0.55"/>
  <rect x="-21.2" y="-13.9" width="96.5" height="55.6" rx="17.0" fill="none" stroke="url(#strokeA)" stroke-width="7.7" opacity="0.55"/>
</g>


<g opacity="0.300" transform="translate(565.8,1571.0) rotate(11.8)" filter="url(#softGlow)">
  <rect x="-29.1" y="-16.8" width="58.3" height="33.6" rx="10.3" fill="none" stroke="#14C2FF" stroke-width="5.6" opacity="0.55"/>
  <rect x="-12.8" y="-8.4" width="58.3" height="33.6" rx="10.3" fill="none" stroke="url(#strokeA)" stroke-width="4.7" opacity="0.55"/>
</g>


<g opacity="0.441" transform="translate(430.1,150.5) rotate(-3.4)" filter="url(#softGlow)">
  <rect x="-46.8" y="-27.0" width="93.7" height="53.9" rx="16.5" fill="none" stroke="#14C2FF" stroke-width="9.0" opacity="0.55"/>
  <rect x="-20.6" y="-13.5" width="93.7" height="53.9" rx="16.5" fill="none" stroke="url(#strokeA)" stroke-width="7.5" opacity="0.55"/>
</g>


<g opacity="0.270" transform="translate(44.5,37.7) rotate(5.0)" filter="url(#softGlow)">
  <rect x="-47.2" y="-27.2" width="94.5" height="54.4" rx="16.6" fill="none" stroke="#FF4D8D" stroke-width="9.1" opacity="0.55"/>
  <rect x="-20.8" y="-13.6" width="94.5" height="54.4" rx="16.6" fill="none" stroke="url(#strokeA)" stroke-width="7.6" opacity="0.55"/>
</g>


<g opacity="0.319" transform="translate(739.6,47.9) rotate(17.9)" filter="url(#softGlow)">
  <rect x="-32.8" y="-18.9" width="65.6" height="37.8" rx="11.6" fill="none" stroke="#00FFA3" stroke-width="6.3" opacity="0.55"/>
  <rect x="-14.4" y="-9.5" width="65.6" height="37.8" rx="11.6" fill="none" stroke="url(#strokeA)" stroke-width="5.3" opacity="0.55"/>
</g>


<g opacity="0.240" transform="translate(170.3,1520.8) rotate(-6.2)" filter="url(#softGlow)">
  <rect x="-47.1" y="-27.1" width="94.1" height="54.2" rx="16.6" fill="none" stroke="#FF4D8D" stroke-width="9.0" opacity="0.55"/>
  <rect x="-20.7" y="-13.6" width="94.1" height="54.2" rx="16.6" fill="none" stroke="url(#strokeA)" stroke-width="7.5" opacity="0.55"/>
</g>


<g opacity="0.354" transform="translate(885.2,412.8) rotate(11.3)" filter="url(#softGlow)">
  <rect x="-43.8" y="-25.2" width="87.5" height="50.4" rx="15.4" fill="none" stroke="#00FFA3" stroke-width="8.4" opacity="0.55"/>
  <rect x="-19.3" y="-12.6" width="87.5" height="50.4" rx="15.4" fill="none" stroke="url(#strokeA)" stroke-width="7.0" opacity="0.55"/>
</g>


<g opacity="0.360" transform="translate(123.9,7.9) rotate(9.2)" filter="url(#softGlow)">
  <rect x="-44.1" y="-25.4" width="88.3" height="50.8" rx="15.5" fill="none" stroke="#FF4D8D" stroke-width="8.5" opacity="0.55"/>
  <rect x="-19.4" y="-12.7" width="88.3" height="50.8" rx="15.5" fill="none" stroke="url(#strokeA)" stroke-width="7.1" opacity="0.55"/>
</g>


<g opacity="0.392" transform="translate(527.0,1480.6) rotate(-14.2)" filter="url(#softGlow)">
  <rect x="-49.9" y="-28.7" width="99.7" height="57.4" rx="17.5" fill="none" stroke="#00FFA3" stroke-width="9.6" opacity="0.55"/>
  <rect x="-21.9" y="-14.4" width="99.7" height="57.4" rx="17.5" fill="none" stroke="url(#strokeA)" stroke-width="8.0" opacity="0.55"/>
</g>


<g opacity="0.224" transform="translate(17.6,1491.2) rotate(-0.3)" filter="url(#softGlow)">
  <rect x="-43.9" y="-25.3" width="87.9" height="50.6" rx="15.5" fill="none" stroke="#FF4D8D" stroke-width="8.4" opacity="0.55"/>
  <rect x="-19.3" y="-12.7" width="87.9" height="50.6" rx="15.5" fill="none" stroke="url(#strokeA)" stroke-width="7.0" opacity="0.55"/>
</g>


<g opacity="0.170">
  <line x1="110.7" y1="1447.8" x2="110.7" y2="1518.3" stroke="#00FFA3" stroke-width="1.65" opacity="0.45"/>
  <rect x="104.7" y="1492.4" width="11.9" height="23.5" rx="4.0" fill="#0B1020" opacity="0.55" stroke="url(#strokeA)" stroke-width="1.2"/>
</g>

<g opacity="0.170">
  <line x1="396.2" y1="1434.7" x2="396.2" y2="1521.5" stroke="#00FFA3" stroke-width="1.34" opacity="0.45"/>
  <rect x="391.0" y="1487.3" width="10.4" height="33.6" rx="3.5" fill="#0B1020" opacity="0.55" stroke="url(#strokeA)" stroke-width="1.2"/>
</g>

<g opacity="0.170">
  <line x1="265.6" y1="1467.6" x2="265.6" y2="1513.3" stroke="#00FFA3" stroke-width="1.62" opacity="0.45"/>
  <rect x="260.5" y="1494.9" width="10.1" height="18.6" rx="3.4" fill="#0B1020" opacity="0.55" stroke="url(#strokeA)" stroke-width="1.2"/>
</g>

<g opacity="0.170">
  <line x1="66.7" y1="1449.5" x2="66.7" y2="1517.8" stroke="#00FFA3" stroke-width="1.40" opacity="0.45"/>
  <rect x="63.2" y="1490.1" width="6.9" height="28.2" rx="2.3" fill="#0B1020" opacity="0.55" stroke="url(#strokeA)" stroke-width="1.2"/>
</g>

<g opacity="0.170">
  <line x1="615.0" y1="1450.6" x2="615.0" y2="1517.5" stroke="#00FFA3" stroke-width="2.08" opacity="0.45"/>
  <rect x="610.3" y="1484.2" width="9.6" height="39.9" rx="3.2" fill="#0B1020" opacity="0.55" stroke="url(#strokeA)" stroke-width="1.2"/>
</g>

<g opacity="0.170">
  <line x1="797.2" y1="1451.4" x2="797.2" y2="1517.4" stroke="#00FFA3" stroke-width="1.64" opacity="0.45"/>
  <rect x="793.6" y="1488.4" width="7.1" height="31.6" rx="2.4" fill="#0B1020" opacity="0.55" stroke="url(#strokeA)" stroke-width="1.2"/>
</g>

<g opacity="0.170">
  <line x1="523.6" y1="1446.5" x2="523.6" y2="1518.6" stroke="#00FFA3" stroke-width="1.08" opacity="0.45"/>
  <rect x="520.6" y="1488.7" width="6.1" height="31.0" rx="2.0" fill="#0B1020" opacity="0.55" stroke="url(#strokeA)" stroke-width="1.2"/>
</g>

<g opacity="0.170">
  <line x1="303.5" y1="1433.7" x2="303.5" y2="1521.8" stroke="#00FFA3" stroke-width="1.78" opacity="0.45"/>
  <rect x="298.5" y="1475.0" width="10.0" height="58.2" rx="3.3" fill="#0B1020" opacity="0.55" stroke="url(#strokeA)" stroke-width="1.2"/>
</g>

<g opacity="0.170">
  <line x1="281.4" y1="1420.0" x2="281.4" y2="1525.2" stroke="#00FFA3" stroke-width="1.72" opacity="0.45"/>
  <rect x="277.1" y="1474.7" width="8.6" height="58.9" rx="2.9" fill="#0B1020" opacity="0.55" stroke="url(#strokeA)" stroke-width="1.2"/>
</g>

<g opacity="0.170">
  <line x1="662.8" y1="1414.1" x2="662.8" y2="1526.7" stroke="#00FFA3" stroke-width="1.76" opacity="0.45"/>
  <rect x="658.5" y="1474.9" width="8.6" height="58.6" rx="2.9" fill="#0B1020" opacity="0.55" stroke="url(#strokeA)" stroke-width="1.2"/>
</g>

<g opacity="0.170">
  <line x1="174.2" y1="1431.0" x2="174.2" y2="1522.5" stroke="#00FFA3" stroke-width="1.45" opacity="0.45"/>
  <rect x="169.2" y="1483.1" width="10.0" height="42.2" rx="3.3" fill="#0B1020" opacity="0.55" stroke="url(#strokeA)" stroke-width="1.2"/>
</g>

<g opacity="0.170">
  <line x1="445.0" y1="1430.0" x2="445.0" y2="1522.7" stroke="#00FFA3" stroke-width="1.11" opacity="0.45"/>
  <rect x="439.8" y="1480.5" width="10.5" height="47.4" rx="3.5" fill="#0B1020" opacity="0.55" stroke="url(#strokeA)" stroke-width="1.2"/>
</g>

<g opacity="0.170">
  <line x1="708.5" y1="1419.8" x2="708.5" y2="1525.3" stroke="#00FFA3" stroke-width="1.49" opacity="0.45"/>
  <rect x="705.4" y="1477.0" width="6.2" height="54.3" rx="2.1" fill="#0B1020" opacity="0.55" stroke="url(#strokeA)" stroke-width="1.2"/>
</g>

<g opacity="0.170">
  <line x1="839.1" y1="1438.4" x2="839.1" y2="1520.6" stroke="#00FFA3" stroke-width="1.19" opacity="0.45"/>
  <rect x="833.4" y="1482.2" width="11.3" height="43.9" rx="3.8" fill="#0B1020" opacity="0.55" stroke="url(#strokeA)" stroke-width="1.2"/>
</g>

<g opacity="0.170">
  <line x1="723.2" y1="1461.9" x2="723.2" y2="1514.7" stroke="#00FFA3" stroke-width="1.69" opacity="0.45"/>
  <rect x="718.8" y="1492.0" width="8.7" height="24.3" rx="2.9" fill="#0B1020" opacity="0.55" stroke="url(#strokeA)" stroke-width="1.2"/>
</g>

<g opacity="0.170">
  <line x1="117.4" y1="1440.3" x2="117.4" y2="1520.1" stroke="#00FFA3" stroke-width="1.51" opacity="0.45"/>
  <rect x="113.0" y="1480.5" width="8.8" height="47.3" rx="2.9" fill="#0B1020" opacity="0.55" stroke="url(#strokeA)" stroke-width="1.2"/>
</g>

<g opacity="0.170">
  <line x1="488.5" y1="1414.0" x2="488.5" y2="1526.7" stroke="#00FFA3" stroke-width="2.03" opacity="0.45"/>
  <rect x="483.4" y="1477.8" width="10.3" height="52.8" rx="3.4" fill="#0B1020" opacity="0.55" stroke="url(#strokeA)" stroke-width="1.2"/>
</g>

<g opacity="0.170">
  <line x1="607.7" y1="1410.0" x2="607.7" y2="1527.7" stroke="#00FFA3" stroke-width="1.35" opacity="0.45"/>
  <rect x="603.9" y="1476.5" width="7.7" height="55.3" rx="2.6" fill="#0B1020" opacity="0.55" stroke="url(#strokeA)" stroke-width="1.2"/>
</g>
<circle cx="694.9" cy="155.6" r="2.1" fill="#14C2FF" opacity="0.25" filter="url(#softGlow)"/>
<circle cx="846.3" cy="1592.2" r="2.8" fill="#14C2FF" opacity="0.14" filter="url(#softGlow)"/>
<circle cx="882.1" cy="892.7" r="2.8" fill="#14C2FF" opacity="0.22" filter="url(#softGlow)"/>
<circle cx="865.7" cy="1503.4" r="3.0" fill="#14C2FF" opacity="0.20" filter="url(#softGlow)"/>
<circle cx="352.1" cy="1481.2" r="2.4" fill="#14C2FF" opacity="0.22" filter="url(#softGlow)"/>
<circle cx="150.1" cy="253.3" r="1.5" fill="#14C2FF" opacity="0.23" filter="url(#softGlow)"/>
<circle cx="129.2" cy="1128.8" r="1.4" fill="#14C2FF" opacity="0.27" filter="url(#softGlow)"/>
<circle cx="99.5" cy="111.7" r="2.1" fill="#14C2FF" opacity="0.25" filter="url(#softGlow)"/>
<circle cx="94.4" cy="1512.3" r="3.0" fill="#14C2FF" opacity="0.15" filter="url(#softGlow)"/>
<circle cx="711.9" cy="1434.2" r="2.2" fill="#14C2FF" opacity="0.21" filter="url(#softGlow)"/>
<circle cx="827.0" cy="1562.6" r="2.5" fill="#14C2FF" opacity="0.18" filter="url(#softGlow)"/>
<circle cx="716.4" cy="59.4" r="3.0" fill="#14C2FF" opacity="0.12" filter="url(#softGlow)"/>
<circle cx="744.5" cy="112.1" r="1.6" fill="#14C2FF" opacity="0.11" filter="url(#softGlow)"/>
<circle cx="875.1" cy="172.2" r="2.6" fill="#14C2FF" opacity="0.26" filter="url(#softGlow)"/>
<circle cx="38.0" cy="46.6" r="3.0" fill="#14C2FF" opacity="0.17" filter="url(#softGlow)"/>
<circle cx="777.2" cy="1536.1" r="1.7" fill="#14C2FF" opacity="0.21" filter="url(#softGlow)"/>
<circle cx="12.1" cy="30.9" r="2.6" fill="#14C2FF" opacity="0.14" filter="url(#softGlow)"/>
<circle cx="861.4" cy="1493.4" r="1.5" fill="#14C2FF" opacity="0.22" filter="url(#softGlow)"/>
<circle cx="127.7" cy="112.1" r="2.0" fill="#14C2FF" opacity="0.13" filter="url(#softGlow)"/>
<circle cx="756.5" cy="68.3" r="2.7" fill="#14C2FF" opacity="0.14" filter="url(#softGlow)"/>
</svg>