<svg xmlns="http://www.w3.org/2000/svg" width="900" height="1600" viewBox="0 0 900 1600" preserveAspectRatio="xMidYMid slice">
<defs>
  <linearGradient id="g0" x1="0" y1="0" x2="1" y2="1">
    <stop offset="0" stop-color="#0B0F1A"/>
    <stop offset="0.55" stop-color="#A855F7" stop-opacity="0.9"/>
    <stop offset="1" stop-color="#030712"/>
  </linearGradient>
  <radialGradient id="g1" cx="20%" cy="15%" r="70%">
    <stop offset="0" stop-color="#22D3EE" stop-opacity="0.38"/>
    <stop offset="0.6" stop-color="#22D3EE" stop-opacity="0.08"/>
    <stop offset="1" stop-color="#22D3EE" stop-opacity="0"/>
  </radialGradient>
  <radialGradient id="g2" cx="85%" cy="80%" r="75%">
    <stop offset="0" stop-color="#22D3EE" stop-opacity="0.28"/>
    <stop offset="0.65" stop-color="#22D3EE" stop-opacity="0.06"/>
    <stop offset="1" stop-color="#22D3EE" stop-opacity="0"/>
  </radialGradient>
  <filter id="softGlow" x="-30%" y="-30%" width="160%" height="160%">
    <feGaussianBlur stdDeviation="12" result="b"/>
    <feMerge>
      <feMergeNode in="b"/>
      <feMergeNode in="SourceGraphic"/>
    </feMerge>
  </filter>
  <filter id="hardGlow" x="-40%" y="-40%" width="180%" height="180%">
    <feGaussianBlur stdDeviation="6" result="b"/>
    <feColorMatrix in="b" type="matrix" values="1 0 0 0 0  0 1 0 0 0  0 0 1 0 0  0 0 0 18 -7" result="c"/>
    <feMerge>
      <feMergeNode in="c"/>
      <feMergeNode in="SourceGraphic"/>
    </feMerge>
  </filter>
  <linearGradient id="strokeA" x1="0" y1="0" x2="1" y2="0">
    <stop offset="0" stop-color="#22D3EE" stop-opacity="0.9"/>
    <stop offset="0.5" stop-color="#FFFFFF" stop-opacity="0.25"/>
    <stop offset="1" stop-color="#22D3EE" stop-opacity="0.7"/>
  </linearGradient>
  <linearGradient id="strokeB" x1="0" y1="0" x2="0" y2="1">
    <stop offset="0" stop-color="#FFFFFF" stop-opacity="0.18"/>
    <stop offset="1" stop-color="#22D3EE" stop-opacity="0.55"/>
  </linearGradient>
</defs>
<rect x="0" y="0" width="900" height="1600" fill="url(#g0)"/>
<rect x="0" y="0" width="900" height="1600" fill="url(#g1)"/>
<rect x="0" y="0" width="900" height="1600" fill="url(#g2)"/>


<defs>
  <radialGradient id="vign" cx="0.5000" cy="0.5000" r="0.85">
    <stop offset="0" stop-color="#000000" stop-opacity="0"/>
    <stop offset="0.55" stop-color="#000000" stop-opacity="0.217"/>
    <stop offset="1" stop-color="#000000" stop-opacity="0.620"/>
  </radialGradient>
</defs>
<rect x="0" y="0" width="900" height="1600" fill="url(#vign)"/>

<g opacity="0.198" filter="url(#softGlow)"><path d="M 857.5,160.9 L 770.2,160.9 L 770.2,98.3 L 662.7,98.3 L 662.7,1583.9 " fill="none" stroke="url(#strokeB)" stroke-width="1.97" stroke-linecap="round" stroke-linejoin="round"/><circle cx="662.7" cy="1583.9" r="3.5" fill="#22D3EE" opacity="0.45"/><circle cx="770.2" cy="160.9" r="2.1" fill="#22D3EE" opacity="0.45"/><circle cx="662.7" cy="98.3" r="2.6" fill="#22D3EE" opacity="0.45"/></g>
<g opacity="0.198" filter="url(#softGlow)"><path d="M 123.0,79.4 L 84.3,79.4 L 84.3,168.5 L 58.4,168.5 L 58.4,101.0 " fill="none" stroke="url(#strokeB)" stroke-width="1.37" stroke-linecap="round" stroke-linejoin="round"/><circle cx="84.3" cy="168.5" r="3.0" fill="#22D3EE" opacity="0.45"/><circle cx="58.4" cy="101.0" r="4.1" fill="#22D3EE" opacity="0.45"/><circle cx="84.3" cy="79.4" r="2.1" fill="#22D3EE" opacity="0.45"/></g>
<g opacity="0.198" filter="url(#softGlow)"><path d="M 893.6,528.4 L 83.6,528.4 L 83.6,72.5 L 510.6,72.5 L 510.6,63.0 " fill="none" stroke="url(#strokeB)" stroke-width="1.25" stroke-linecap="round" stroke-linejoin="round"/><circle cx="83.6" cy="72.5" r="3.3" fill="#22D3EE" opacity="0.45"/><circle cx="893.6" cy="528.4" r="2.4" fill="#22D3EE" opacity="0.45"/><circle cx="510.6" cy="72.5" r="4.1" fill="#22D3EE" opacity="0.45"/></g>
<g opacity="0.198" filter="url(#softGlow)"><path d="M 889.4,1511.7 L 857.8,1511.7 L 857.8,1547.8 L 115.9,1547.8 L 115.9,168.9 " fill="none" stroke="url(#strokeB)" stroke-width="1.46" stroke-linecap="round" stroke-linejoin="round"/><circle cx="857.8" cy="1511.7" r="3.3" fill="#22D3EE" opacity="0.45"/><circle cx="115.9" cy="168.9" r="2.0" fill="#22D3EE" opacity="0.45"/><circle cx="889.4" cy="1511.7" r="3.4" fill="#22D3EE" opacity="0.45"/></g>
<g opacity="0.198" filter="url(#softGlow)"><path d="M 344.4,175.2 L 160.2,175.2 L 160.2,1590.7 L 873.5,1590.7 L 873.5,122.3 " fill="none" stroke="url(#strokeB)" stroke-width="1.23" stroke-linecap="round" stroke-linejoin="round"/><circle cx="160.2" cy="175.2" r="3.3" fill="#22D3EE" opacity="0.45"/><circle cx="873.5" cy="1590.7" r="2.7" fill="#22D3EE" opacity="0.45"/><circle cx="344.4" cy="175.2" r="3.6" fill="#22D3EE" opacity="0.45"/></g>
<g opacity="0.198" filter="url(#softGlow)"><path d="M 37.3,729.4 L 883.1,729.4 L 883.1,671.5 L 821.0,671.5 L 821.0,282.4 " fill="none" stroke="url(#strokeB)" stroke-width="1.55" stroke-linecap="round" stroke-linejoin="round"/><circle cx="821.0" cy="282.4" r="2.9" fill="#22D3EE" opacity="0.45"/><circle cx="883.1" cy="729.4" r="3.2" fill="#22D3EE" opacity="0.45"/><circle cx="37.3" cy="729.4" r="3.3" fill="#22D3EE" opacity="0.45"/></g>
<g opacity="0.198" filter="url(#softGlow)"><path d="M 169.6,37.2 L 84.6,37.2 L 84.6,1459.2 L 876.8,1459.2 L 876.8,914.2 " fill="none" stroke="url(#strokeB)" stroke-width="1.85" stroke-linecap="round" stroke-linejoin="round"/><circle cx="876.8" cy="914.2" r="3.0" fill="#22D3EE" opacity="0.45"/><circle cx="876.8" cy="1459.2" r="2.4" fill="#22D3EE" opacity="0.45"/><circle cx="84.6" cy="37.2" r="2.7" fill="#22D3EE" opacity="0.45"/></g>
<g opacity="0.198" filter="url(#softGlow)"><path d="M 747.8,1473.5 L 731.1,1473.5 L 731.1,10.4 L 820.5,10.4 L 820.5,150.6 " fill="none" stroke="url(#strokeB)" stroke-width="1.69" stroke-linecap="round" stroke-linejoin="round"/><circle cx="731.1" cy="10.4" r="2.7" fill="#22D3EE" opacity="0.45"/><circle cx="820.5" cy="150.6" r="3.4" fill="#22D3EE" opacity="0.45"/><circle cx="731.1" cy="1473.5" r="2.9" fill="#22D3EE" opacity="0.45"/></g>
<g opacity="0.198" filter="url(#softGlow)"><path d="M 84.8,29.0 L 667.5,29.0 L 667.5,151.6 L 762.9,151.6 L 762.9,1466.7 " fill="none" stroke="url(#strokeB)" stroke-width="1.64" stroke-linecap="round" stroke-linejoin="round"/><circle cx="762.9" cy="151.6" r="2.0" fill="#22D3EE" opacity="0.45"/><circle cx="667.5" cy="151.6" r="3.8" fill="#22D3EE" opacity="0.45"/><circle cx="84.8" cy="29.0" r="2.4" fill="#22D3EE" opacity="0.45"/></g>
<g opacity="0.198" filter="url(#softGlow)"><path d="M 873.6,75.3 L 58.7,75.3 L 58.7,1584.1 L 607.6,1584.1 L 607.6,1553.2 " fill="none" stroke="url(#strokeB)" stroke-width="1.98" stroke-linecap="round" stroke-linejoin="round"/><circle cx="58.7" cy="75.3" r="3.8" fill="#22D3EE" opacity="0.45"/><circle cx="607.6" cy="1553.2" r="2.4" fill="#22D3EE" opacity="0.45"/><circle cx="58.7" cy="1584.1" r="2.1" fill="#22D3EE" opacity="0.45"/></g>
<g opacity="0.198" filter="url(#softGlow)"><path d="M 114.5,77.4 L 135.4,77.4 L 135.4,40.9 L 56.2,40.9 L 56.2,46.2 " fill="none" stroke="url(#strokeB)" stroke-width="1.25" stroke-linecap="round" stroke-linejoin="round"/><circle cx="135.4" cy="40.9" r="3.2" fill="#22D3EE" opacity="0.45"/><circle cx="56.2" cy="46.2" r="3.9" fill="#22D3EE" opacity="0.45"/><circle cx="56.2" cy="40.9" r="3.4" fill="#22D3EE" opacity="0.45"/></g>
<g opacity="0.198" filter="url(#softGlow)"><path d="M 880.4,1522.1 L 864.0,1522.1 L 864.0,1071.0 L 135.2,1071.0 L 135.2,72.3 " fill="none" stroke="url(#strokeB)" stroke-width="1.65" stroke-linecap="round" stroke-linejoin="round"/><circle cx="864.0" cy="1071.0" r="2.6" fill="#22D3EE" opacity="0.45"/><circle cx="864.0" cy="1522.1" r="3.4" fill="#22D3EE" opacity="0.45"/><circle cx="135.2" cy="72.3" r="3.7" fill="#22D3EE" opacity="0.45"/></g>
<g opacity="0.198" filter="url(#softGlow)"><path d="M 154.2,1429.5 L 793.8,1429.5 L 793.8,769.1 L 538.1,769.1 L 538.1,1526.1 " fill="none" stroke="url(#strokeB)" stroke-width="1.41" stroke-linecap="round" stroke-linejoin="round"/><circle cx="538.1" cy="1526.1" r="2.7" fill="#22D3EE" opacity="0.45"/><circle cx="154.2" cy="1429.5" r="3.3" fill="#22D3EE" opacity="0.45"/><circle cx="793.8" cy="769.1" r="2.4" fill="#22D3EE" opacity="0.45"/></g>
<g opacity="0.198" filter="url(#softGlow)"><path d="M 888.8,147.9 L 289.2,147.9 L 289.2,1526.6 L 0.7,1526.6 L 0.7,1467.4 " fill="none" stroke="url(#strokeB)" stroke-width="1.44" stroke-linecap="round" stroke-linejoin="round"/><circle cx="0.7" cy="1526.6" r="3.5" fill="#22D3EE" opacity="0.45"/><circle cx="289.2" cy="1526.6" r="3.3" fill="#22D3EE" opacity="0.45"/><circle cx="888.8" cy="147.9" r="3.8" fill="#22D3EE" opacity="0.45"/></g>

<g opacity="0.833" filter="url(#hardGlow)">
  <circle cx="837.2" cy="1557.1" r="31.6" fill="#0A1224" opacity="0.65"/>
  <circle cx="837.2" cy="1557.1" r="31.6" fill="none" stroke="url(#strokeA)" stroke-width="2.5" opacity="0.85"/>
  <circle cx="837.2" cy="1557.1" r="27.2" fill="none" stroke="#F59E0B" stroke-width="1.5" opacity="0.35"/>
  <polygon points="816.7,1567.0 818.4,1544.3 838.9,1534.4 857.7,1547.3 856.0,1570.0 835.5,1579.8" fill="none" stroke="url(#strokeB)" stroke-width="1.2" opacity="0.65"/>
  <polygon points="829.3,1557.9 840.5,1549.9 841.8,1563.6" fill="#F59E0B" opacity="0.22" filter="url(#softGlow)"/>
</g>


<g opacity="0.642" filter="url(#hardGlow)">
  <circle cx="886.5" cy="1542.8" r="13.0" fill="#0A1224" opacity="0.65"/>
  <circle cx="886.5" cy="1542.8" r="13.0" fill="none" stroke="url(#strokeA)" stroke-width="2.0" opacity="0.85"/>
  <circle cx="886.5" cy="1542.8" r="11.2" fill="none" stroke="#22D3EE" stroke-width="1.5" opacity="0.35"/>
  <polygon points="878.4,1538.1 886.5,1533.4 894.6,1538.1 894.7,1547.4 886.6,1552.2 878.4,1547.5" fill="none" stroke="url(#strokeB)" stroke-width="1.2" opacity="0.65"/>
  <polygon points="884.4,1540.3 889.8,1542.2 885.4,1545.9" fill="#22D3EE" opacity="0.22" filter="url(#softGlow)"/>
</g>


<g opacity="0.358" filter="url(#hardGlow)">
  <circle cx="877.5" cy="1564.4" r="14.3" fill="#0A1224" opacity="0.65"/>
  <circle cx="877.5" cy="1564.4" r="14.3" fill="none" stroke="url(#strokeA)" stroke-width="2.0" opacity="0.85"/>
  <circle cx="877.5" cy="1564.4" r="12.3" fill="none" stroke="#22D3EE" stroke-width="1.5" opacity="0.35"/>
  <polygon points="871.6,1572.9 867.3,1563.5 873.2,1555.1 883.4,1556.0 887.8,1565.3 881.9,1573.7" fill="none" stroke="url(#strokeB)" stroke-width="1.2" opacity="0.65"/>
  <polygon points="874.6,1566.5 877.2,1560.8 880.8,1565.9" fill="#22D3EE" opacity="0.22" filter="url(#softGlow)"/>
</g>


<g opacity="0.744" filter="url(#hardGlow)">
  <circle cx="34.0" cy="92.9" r="41.5" fill="#0A1224" opacity="0.65"/>
  <circle cx="34.0" cy="92.9" r="41.5" fill="none" stroke="url(#strokeA)" stroke-width="3.3" opacity="0.85"/>
  <circle cx="34.0" cy="92.9" r="35.7" fill="none" stroke="#F59E0B" stroke-width="1.5" opacity="0.35"/>
  <polygon points="36.5,122.7 9.5,110.0 7.0,80.2 31.5,63.1 58.5,75.8 61.1,105.6" fill="none" stroke="url(#strokeB)" stroke-width="1.2" opacity="0.65"/>
  <polygon points="31.3,103.0 26.6,85.5 44.1,90.2" fill="#F59E0B" opacity="0.22" filter="url(#softGlow)"/>
</g>


<g opacity="0.417" filter="url(#hardGlow)">
  <circle cx="59.9" cy="58.8" r="16.7" fill="#0A1224" opacity="0.65"/>
  <circle cx="59.9" cy="58.8" r="16.7" fill="none" stroke="url(#strokeA)" stroke-width="2.0" opacity="0.85"/>
  <circle cx="59.9" cy="58.8" r="14.4" fill="none" stroke="#22D3EE" stroke-width="1.5" opacity="0.35"/>
  <polygon points="47.9,58.5 54.2,48.2 66.2,48.6 72.0,59.1 65.7,69.4 53.6,69.1" fill="none" stroke="url(#strokeB)" stroke-width="1.2" opacity="0.65"/>
  <polygon points="56.0,57.3 63.2,56.2 60.6,63.0" fill="#22D3EE" opacity="0.22" filter="url(#softGlow)"/>
</g>


<g opacity="0.719" filter="url(#hardGlow)">
  <circle cx="764.2" cy="62.1" r="31.9" fill="#0A1224" opacity="0.65"/>
  <circle cx="764.2" cy="62.1" r="31.9" fill="none" stroke="url(#strokeA)" stroke-width="2.6" opacity="0.85"/>
  <circle cx="764.2" cy="62.1" r="27.4" fill="none" stroke="#F59E0B" stroke-width="1.5" opacity="0.35"/>
  <polygon points="742.1,55.7 758.6,39.8 780.7,46.1 786.2,68.4 769.7,84.4 747.6,78.0" fill="none" stroke="url(#strokeB)" stroke-width="1.2" opacity="0.65"/>
  <polygon points="757.7,57.3 771.5,58.8 763.3,70.1" fill="#F59E0B" opacity="0.22" filter="url(#softGlow)"/>
</g>


<g opacity="0.548" filter="url(#hardGlow)">
  <circle cx="803.1" cy="83.5" r="13.8" fill="#0A1224" opacity="0.65"/>
  <circle cx="803.1" cy="83.5" r="13.8" fill="none" stroke="url(#strokeA)" stroke-width="2.0" opacity="0.85"/>
  <circle cx="803.1" cy="83.5" r="11.9" fill="none" stroke="#22D3EE" stroke-width="1.5" opacity="0.35"/>
  <polygon points="793.8,87.0 795.4,77.2 804.6,73.7 812.3,79.9 810.8,89.8 801.5,93.3" fill="none" stroke="url(#strokeB)" stroke-width="1.2" opacity="0.65"/>
  
</g>


<g opacity="0.806" filter="url(#hardGlow)">
  <circle cx="820.7" cy="79.3" r="45.8" fill="#0A1224" opacity="0.65"/>
  <circle cx="820.7" cy="79.3" r="45.8" fill="none" stroke="url(#strokeA)" stroke-width="3.7" opacity="0.85"/>
  <circle cx="820.7" cy="79.3" r="39.4" fill="none" stroke="#F59E0B" stroke-width="1.5" opacity="0.35"/>
  <polygon points="818.8,112.2 791.2,94.1 793.2,61.2 822.6,46.3 850.1,64.4 848.2,97.4" fill="none" stroke="url(#strokeB)" stroke-width="1.2" opacity="0.65"/>
  <polygon points="816.1,89.9 813.8,70.0 832.2,77.9" fill="#F59E0B" opacity="0.22" filter="url(#softGlow)"/>
</g>


<g opacity="0.388" filter="url(#hardGlow)">
  <circle cx="868.1" cy="131.9" r="22.9" fill="#0A1224" opacity="0.65"/>
  <circle cx="868.1" cy="131.9" r="22.9" fill="none" stroke="url(#strokeA)" stroke-width="2.0" opacity="0.85"/>
  <circle cx="868.1" cy="131.9" r="19.7" fill="none" stroke="#22D3EE" stroke-width="1.5" opacity="0.35"/>
  <polygon points="877.1,118.1 884.6,132.7 875.6,146.5 859.2,145.7 851.7,131.1 860.6,117.2" fill="none" stroke="url(#strokeB)" stroke-width="1.2" opacity="0.65"/>
  
</g>


<g opacity="0.342" transform="translate(90.5,175.8) rotate(5.8)" filter="url(#softGlow)">
  <rect x="-93.6" y="-84.6" width="187.2" height="169.2" rx="16.9" fill="#050A12" opacity="0.25"/>
  <rect x="-93.6" y="-84.6" width="187.2" height="169.2" rx="16.9" fill="none" stroke="url(#strokeA)" stroke-width="8.5" opacity="0.85"/>
  <rect x="-80.1" y="-71.1" width="160.1" height="142.1" rx="11.8" fill="none" stroke="#22D3EE" stroke-width="3.4" opacity="0.35"/>
</g>


<g opacity="0.356" transform="translate(835.5,71.4) rotate(4.9)" filter="url(#softGlow)">
  <rect x="-70.8" y="-58.1" width="141.7" height="116.1" rx="11.6" fill="#050A12" opacity="0.25"/>
  <rect x="-70.8" y="-58.1" width="141.7" height="116.1" rx="11.6" fill="none" stroke="url(#strokeA)" stroke-width="5.8" opacity="0.85"/>
  <rect x="-61.6" y="-48.8" width="123.1" height="97.6" rx="8.1" fill="none" stroke="#F59E0B" stroke-width="2.3" opacity="0.35"/>
</g>


<g opacity="0.275" transform="translate(774.2,473.5) rotate(-0.4)" filter="url(#softGlow)">
  <rect x="-93.9" y="-82.2" width="187.8" height="164.5" rx="16.4" fill="#050A12" opacity="0.25"/>
  <rect x="-93.9" y="-82.2" width="187.8" height="164.5" rx="16.4" fill="none" stroke="url(#strokeA)" stroke-width="8.2" opacity="0.85"/>
  <rect x="-80.7" y="-69.1" width="161.5" height="138.2" rx="11.5" fill="none" stroke="#F59E0B" stroke-width="3.3" opacity="0.35"/>
</g>


<g opacity="0.457" transform="translate(137.7,1503.6) rotate(7.5)" filter="url(#softGlow)">
  <rect x="-42.1" y="-24.3" width="84.3" height="48.5" rx="14.8" fill="none" stroke="#22D3EE" stroke-width="8.1" opacity="0.55"/>
  <rect x="-18.5" y="-12.1" width="84.3" height="48.5" rx="14.8" fill="none" stroke="url(#strokeA)" stroke-width="6.7" opacity="0.55"/>
</g>


<g opacity="0.241" transform="translate(728.2,1594.6) rotate(-6.1)" filter="url(#softGlow)">
  <rect x="-37.6" y="-21.7" width="75.2" height="43.3" rx="13.2" fill="none" stroke="#F59E0B" stroke-width="7.2" opacity="0.55"/>
  <rect x="-16.6" y="-10.8" width="75.2" height="43.3" rx="13.2" fill="none" stroke="url(#strokeA)" stroke-width="6.0" opacity="0.55"/>
</g>


<g opacity="0.304" transform="translate(1.2,1527.7) rotate(8.3)" filter="url(#softGlow)">
  <rect x="-34.1" y="-19.6" width="68.1" height="39.2" rx="12.0" fill="none" stroke="#F59E0B" stroke-width="6.5" opacity="0.55"/>
  <rect x="-15.0" y="-9.8" width="68.1" height="39.2" rx="12.0" fill="none" stroke="url(#strokeA)" stroke-width="5.4" opacity="0.55"/>
</g>


<g opacity="0.424" transform="translate(130.6,10.2) rotate(11.3)" filter="url(#softGlow)">
  <rect x="-31.1" y="-17.9" width="62.2" height="35.8" rx="10.9" fill="none" stroke="#22D3EE" stroke-width="6.0" opacity="0.55"/>
  <rect x="-13.7" y="-9.0" width="62.2" height="35.8" rx="10.9" fill="none" stroke="url(#strokeA)" stroke-width="5.0" opacity="0.55"/>
</g>


<g opacity="0.314" transform="translate(739.2,105.0) rotate(7.4)" filter="url(#softGlow)">
  <rect x="-43.2" y="-24.9" width="86.4" height="49.8" rx="15.2" fill="none" stroke="#F59E0B" stroke-width="8.3" opacity="0.55"/>
  <rect x="-19.0" y="-12.4" width="86.4" height="49.8" rx="15.2" fill="none" stroke="url(#strokeA)" stroke-width="6.9" opacity="0.55"/>
</g>


<g opacity="0.314" transform="translate(24.2,108.1) rotate(15.1)" filter="url(#softGlow)">
  <rect x="-48.5" y="-27.9" width="97.0" height="55.8" rx="17.1" fill="none" stroke="#22D3EE" stroke-width="9.3" opacity="0.55"/>
  <rect x="-21.3" y="-14.0" width="97.0" height="55.8" rx="17.1" fill="none" stroke="url(#strokeA)" stroke-width="7.8" opacity="0.55"/>
</g>


<g opacity="0.437" transform="translate(140.5,1229.0) rotate(-0.6)" filter="url(#softGlow)">
  <rect x="-30.1" y="-17.3" width="60.1" height="34.6" rx="10.6" fill="none" stroke="#F59E0B" stroke-width="5.8" opacity="0.55"/>
  <rect x="-13.2" y="-8.7" width="60.1" height="34.6" rx="10.6" fill="none" stroke="url(#strokeA)" stroke-width="4.8" opacity="0.55"/>
</g>


<g opacity="0.456" transform="translate(791.7,1442.8) rotate(-10.4)" filter="url(#softGlow)">
  <rect x="-45.9" y="-26.4" width="91.8" height="52.9" rx="16.2" fill="none" stroke="#F59E0B" stroke-width="8.8" opacity="0.55"/>
  <rect x="-20.2" y="-13.2" width="91.8" height="52.9" rx="16.2" fill="none" stroke="url(#strokeA)" stroke-width="7.3" opacity="0.55"/>
</g>


<g opacity="0.173">
  <line x1="517.9" y1="1401.6" x2="517.9" y2="1489.0" stroke="#22D3EE" stroke-width="1.71" opacity="0.45"/>
  <rect x="514.5" y="1453.3" width="6.8" height="36.6" rx="2.3" fill="#0B1020" opacity="0.55" stroke="url(#strokeA)" stroke-width="1.2"/>
</g>

<g opacity="0.173">
  <line x1="555.7" y1="1425.8" x2="555.7" y2="1483.0" stroke="#22D3EE" stroke-width="1.62" opacity="0.45"/>
  <rect x="552.2" y="1461.0" width="6.9" height="21.1" rx="2.3" fill="#0B1020" opacity="0.55" stroke="url(#strokeA)" stroke-width="1.2"/>
</g>

<g opacity="0.173">
  <line x1="554.1" y1="1388.9" x2="554.1" y2="1492.2" stroke="#22D3EE" stroke-width="2.12" opacity="0.45"/>
  <rect x="549.1" y="1445.6" width="10.0" height="51.9" rx="3.3" fill="#0B1020" opacity="0.55" stroke="url(#strokeA)" stroke-width="1.2"/>
</g>

<g opacity="0.173">
  <line x1="343.8" y1="1423.1" x2="343.8" y2="1483.7" stroke="#22D3EE" stroke-width="1.45" opacity="0.45"/>
  <rect x="338.5" y="1458.9" width="10.5" height="25.2" rx="3.5" fill="#0B1020" opacity="0.55" stroke="url(#strokeA)" stroke-width="1.2"/>
</g>

<g opacity="0.173">
  <line x1="530.6" y1="1423.6" x2="530.6" y2="1483.5" stroke="#22D3EE" stroke-width="1.09" opacity="0.45"/>
  <rect x="525.1" y="1453.9" width="11.1" height="35.3" rx="3.7" fill="#0B1020" opacity="0.55" stroke="url(#strokeA)" stroke-width="1.2"/>
</g>

<g opacity="0.173">
  <line x1="411.2" y1="1429.8" x2="411.2" y2="1482.0" stroke="#22D3EE" stroke-width="1.78" opacity="0.45"/>
  <rect x="408.1" y="1457.9" width="6.1" height="27.4" rx="2.0" fill="#0B1020" opacity="0.55" stroke="url(#strokeA)" stroke-width="1.2"/>
</g>

<g opacity="0.173">
  <line x1="459.1" y1="1408.2" x2="459.1" y2="1487.4" stroke="#22D3EE" stroke-width="1.90" opacity="0.45"/>
  <rect x="454.4" y="1457.2" width="9.4" height="28.8" rx="3.1" fill="#0B1020" opacity="0.55" stroke="url(#strokeA)" stroke-width="1.2"/>
</g>

<g opacity="0.173">
  <line x1="37.7" y1="1399.4" x2="37.7" y2="1489.6" stroke="#22D3EE" stroke-width="1.96" opacity="0.45"/>
  <rect x="33.0" y="1443.0" width="9.4" height="57.1" rx="3.1" fill="#0B1020" opacity="0.55" stroke="url(#strokeA)" stroke-width="1.2"/>
</g>

<g opacity="0.173">
  <line x1="76.7" y1="1406.8" x2="76.7" y2="1487.7" stroke="#22D3EE" stroke-width="2.03" opacity="0.45"/>
  <rect x="73.0" y="1448.1" width="7.4" height="46.9" rx="2.5" fill="#0B1020" opacity="0.55" stroke="url(#strokeA)" stroke-width="1.2"/>
</g>

<g opacity="0.173">
  <line x1="739.9" y1="1420.6" x2="739.9" y2="1484.3" stroke="#22D3EE" stroke-width="1.60" opacity="0.45"/>
  <rect x="736.0" y="1454.2" width="7.7" height="34.7" rx="2.6" fill="#0B1020" opacity="0.55" stroke="url(#strokeA)" stroke-width="1.2"/>
</g>

<g opacity="0.173">
  <line x1="508.9" y1="1402.5" x2="508.9" y2="1488.8" stroke="#22D3EE" stroke-width="1.42" opacity="0.45"/>
  <rect x="504.7" y="1452.1" width="8.4" height="38.8" rx="2.8" fill="#0B1020" opacity="0.55" stroke="url(#strokeA)" stroke-width="1.2"/>
</g>

<g opacity="0.173">
  <line x1="211.3" y1="1413.4" x2="211.3" y2="1486.1" stroke="#22D3EE" stroke-width="2.10" opacity="0.45"/>
  <rect x="205.6" y="1453.8" width="11.4" height="35.4" rx="3.8" fill="#0B1020" opacity="0.55" stroke="url(#strokeA)" stroke-width="1.2"/>
</g>
<circle cx="123.6" cy="1097.8" r="1.7" fill="#F59E0B" opacity="0.14" filter="url(#softGlow)"/>
<circle cx="825.5" cy="177.4" r="2.9" fill="#F59E0B" opacity="0.21" filter="url(#softGlow)"/>
<circle cx="658.1" cy="1595.0" r="2.2" fill="#F59E0B" opacity="0.25" filter="url(#softGlow)"/>
<circle cx="742.0" cy="107.2" r="1.5" fill="#F59E0B" opacity="0.13" filter="url(#softGlow)"/>
<circle cx="748.5" cy="50.1" r="2.0" fill="#F59E0B" opacity="0.23" filter="url(#softGlow)"/>
<circle cx="20.8" cy="1578.9" r="2.9" fill="#F59E0B" opacity="0.10" filter="url(#softGlow)"/>
<circle cx="536.5" cy="1526.1" r="1.4" fill="#F59E0B" opacity="0.16" filter="url(#softGlow)"/>
<circle cx="67.4" cy="1448.6" r="2.2" fill="#F59E0B" opacity="0.24" filter="url(#softGlow)"/>
<circle cx="95.3" cy="1542.3" r="1.5" fill="#F59E0B" opacity="0.12" filter="url(#softGlow)"/>
<circle cx="868.7" cy="1490.9" r="2.8" fill="#F59E0B" opacity="0.26" filter="url(#softGlow)"/>
<circle cx="757.4" cy="1492.0" r="2.6" fill="#F59E0B" opacity="0.14" filter="url(#softGlow)"/>
<circle cx="748.0" cy="75.5" r="1.8" fill="#F59E0B" opacity="0.22" filter="url(#softGlow)"/>
<circle cx="761.3" cy="1591.6" r="1.8" fill="#F59E0B" opacity="0.22" filter="url(#softGlow)"/>
<circle cx="756.2" cy="332.3" r="2.1" fill="#F59E0B" opacity="0.27" filter="url(#softGlow)"/>
<circle cx="810.2" cy="781.2" r="1.4" fill="#F59E0B" opacity="0.16" filter="url(#softGlow)"/>
<circle cx="439.3" cy="1538.6" r="2.0" fill="#F59E0B" opacity="0.26" filter="url(#softGlow)"/>
<circle cx="141.2" cy="116.6" r="3.1" fill="#F59E0B" opacity="0.25" filter="url(#softGlow)"/>
<circle cx="743.4" cy="1588.9" r="1.7" fill="#F59E0B" opacity="0.11" filter="url(#softGlow)"/>
<circle cx="267.5" cy="1485.4" r="2.0" fill="#F59E0B" opacity="0.23" filter="url(#softGlow)"/>
<circle cx="889.6" cy="1482.9" r="3.1" fill="#F59E0B" opacity="0.18" filter="url(#softGlow)"/>
<circle cx="872.5" cy="1499.8" r="3.1" fill="#F59E0B" opacity="0.19" filter="url(#softGlow)"/>
<circle cx="486.3" cy="85.3" r="2.0" fill="#F59E0B" opacity="0.14" filter="url(#softGlow)"/>
</svg>