<svg xmlns="http://www.w3.org/2000/svg" width="900" height="1600" viewBox="0 0 900 1600" preserveAspectRatio="xMidYMid slice">
<defs>
  <linearGradient id="g0" x1="0" y1="0" x2="1" y2="1">
    <stop offset="0" stop-color="#0B0F1A"/>
    <stop offset="0.55" stop-color="#A855F7" stop-opacity="0.9"/>
    <stop offset="1" stop-color="#030712"/>
  </linearGradient>
  <radialGradient id="g1" cx="20%" cy="15%" r="70%">
    <stop offset="0" stop-color="#22D3EE" stop-opacity="0.38"/>
    <stop offset="0.6" stop-color="#22D3EE" stop-opacity="0.08"/>
    <stop offset="1" stop-color="#22D3EE" stop-opacity="0"/>
  </radialGradient>
  <radialGradient id="g2" cx="85%" cy="80%" r="75%">
    <stop offset="0" stop-color="#22D3EE" stop-opacity="0.28"/>
    <stop offset="0.65" stop-color="#22D3EE" stop-opacity="0.06"/>
    <stop offset="1" stop-color="#22D3EE" stop-opacity="0"/>
  </radialGradient>
  <filter id="softGlow" x="-30%" y="-30%" width="160%" height="160%">
    <feGaussianBlur stdDeviation="12" result="b"/>
    <feMerge>
      <feMergeNode in="b"/>
      <feMergeNode in="SourceGraphic"/>
    </feMerge>
  </filter>
  <filter id="hardGlow" x="-40%" y="-40%" width="180%" height="180%">
    <feGaussianBlur stdDeviation="6" result="b"/>
    <feColorMatrix in="b" type="matrix" values="1 0 0 0 0  0 1 0 0 0  0 0 1 0 0  0 0 0 18 -7" result="c"/>
    <feMerge>
      <feMergeNode in="c"/>
      <feMergeNode in="SourceGraphic"/>
    </feMerge>
  </filter>
  <linearGradient id="strokeA" x1="0" y1="0" x2="1" y2="0">
    <stop offset="0" stop-color="#22D3EE" stop-opacity="0.9"/>
    <stop offset="0.5" stop-color="#FFFFFF" stop-opacity="0.25"/>
    <stop offset="1" stop-color="#22D3EE" stop-opacity="0.7"/>
  </linearGradient>
  <linearGradient id="strokeB" x1="0" y1="0" x2="0" y2="1">
    <stop offset="0" stop-color="#FFFFFF" stop-opacity="0.18"/>
    <stop offset="1" stop-color="#22D3EE" stop-opacity="0.55"/>
  </linearGradient>
</defs>
<rect x="0" y="0" width="900" height="1600" fill="url(#g0)"/>
<rect x="0" y="0" width="900" height="1600" fill="url(#g1)"/>
<rect x="0" y="0" width="900" height="1600" fill="url(#g2)"/>


<defs>
  <radialGradient id="vign" cx="0.5000" cy="0.5000" r="0.85">
    <stop offset="0" stop-color="#000000" stop-opacity="0"/>
    <stop offset="0.55" stop-color="#000000" stop-opacity="0.217"/>
    <stop offset="1" stop-color="#000000" stop-opacity="0.620"/>
  </radialGradient>
</defs>
<rect x="0" y="0" width="900" height="1600" fill="url(#vign)"/>

<g opacity="0.208" filter="url(#softGlow)"><path d="M 146.2,141.3 L 825.1,141.3 L 825.1,1078.5 L 845.4,1078.5 L 845.4,23.1 " fill="none" stroke="url(#strokeB)" stroke-width="1.88" stroke-linecap="round" stroke-linejoin="round"/><circle cx="825.1" cy="141.3" r="2.7" fill="#A855F7" opacity="0.45"/><circle cx="825.1" cy="1078.5" r="3.0" fill="#A855F7" opacity="0.45"/><circle cx="845.4" cy="23.1" r="2.6" fill="#A855F7" opacity="0.45"/></g>
<g opacity="0.208" filter="url(#softGlow)"><path d="M 91.5,1086.7 L 137.7,1086.7 L 137.7,72.9 L 75.7,72.9 L 75.7,37.2 " fill="none" stroke="url(#strokeB)" stroke-width="1.49" stroke-linecap="round" stroke-linejoin="round"/><circle cx="137.7" cy="72.9" r="2.8" fill="#A855F7" opacity="0.45"/><circle cx="137.7" cy="1086.7" r="3.8" fill="#A855F7" opacity="0.45"/><circle cx="75.7" cy="37.2" r="2.2" fill="#A855F7" opacity="0.45"/></g>
<g opacity="0.208" filter="url(#softGlow)"><path d="M 812.2,1464.2 L 16.6,1464.2 L 16.6,144.2 L 428.7,144.2 L 428.7,1591.5 " fill="none" stroke="url(#strokeB)" stroke-width="1.51" stroke-linecap="round" stroke-linejoin="round"/><circle cx="16.6" cy="1464.2" r="3.2" fill="#A855F7" opacity="0.45"/><circle cx="428.7" cy="1591.5" r="3.1" fill="#A855F7" opacity="0.45"/><circle cx="812.2" cy="1464.2" r="3.6" fill="#A855F7" opacity="0.45"/></g>
<g opacity="0.208" filter="url(#softGlow)"><path d="M 118.1,69.6 L 431.1,69.6 L 431.1,76.8 L 351.4,76.8 L 351.4,1459.2 " fill="none" stroke="url(#strokeB)" stroke-width="1.58" stroke-linecap="round" stroke-linejoin="round"/><circle cx="431.1" cy="69.6" r="3.1" fill="#A855F7" opacity="0.45"/><circle cx="431.1" cy="76.8" r="3.8" fill="#A855F7" opacity="0.45"/><circle cx="351.4" cy="1459.2" r="3.9" fill="#A855F7" opacity="0.45"/></g>
<g opacity="0.208" filter="url(#softGlow)"><path d="M 9.2,1548.6 L 771.5,1548.6 L 771.5,82.2 L 63.9,82.2 L 63.9,1503.3 " fill="none" stroke="url(#strokeB)" stroke-width="1.51" stroke-linecap="round" stroke-linejoin="round"/><circle cx="63.9" cy="1503.3" r="2.8" fill="#A855F7" opacity="0.45"/><circle cx="63.9" cy="82.2" r="2.6" fill="#A855F7" opacity="0.45"/><circle cx="771.5" cy="82.2" r="2.1" fill="#A855F7" opacity="0.45"/></g>
<g opacity="0.208" filter="url(#softGlow)"><path d="M 847.5,1470.1 L 777.8,1470.1 L 777.8,1595.9 L 308.7,1595.9 L 308.7,1533.0 " fill="none" stroke="url(#strokeB)" stroke-width="1.67" stroke-linecap="round" stroke-linejoin="round"/><circle cx="777.8" cy="1470.1" r="3.3" fill="#A855F7" opacity="0.45"/><circle cx="308.7" cy="1595.9" r="2.5" fill="#A855F7" opacity="0.45"/><circle cx="308.7" cy="1533.0" r="2.5" fill="#A855F7" opacity="0.45"/></g>
<g opacity="0.208" filter="url(#softGlow)"><path d="M 67.1,1511.5 L 761.5,1511.5 L 761.5,1540.3 L 155.2,1540.3 L 155.2,1465.0 " fill="none" stroke="url(#strokeB)" stroke-width="1.96" stroke-linecap="round" stroke-linejoin="round"/><circle cx="761.5" cy="1511.5" r="2.5" fill="#A855F7" opacity="0.45"/><circle cx="155.2" cy="1540.3" r="3.2" fill="#A855F7" opacity="0.45"/><circle cx="67.1" cy="1511.5" r="2.2" fill="#A855F7" opacity="0.45"/></g>
<g opacity="0.208" filter="url(#softGlow)"><path d="M 432.9,1493.0 L 106.3,1493.0 L 106.3,79.2 L 779.4,79.2 L 779.4,39.2 " fill="none" stroke="url(#strokeB)" stroke-width="1.85" stroke-linecap="round" stroke-linejoin="round"/><circle cx="106.3" cy="79.2" r="4.1" fill="#A855F7" opacity="0.45"/><circle cx="106.3" cy="1493.0" r="2.2" fill="#A855F7" opacity="0.45"/><circle cx="432.9" cy="1493.0" r="2.5" fill="#A855F7" opacity="0.45"/></g>
<g opacity="0.208" filter="url(#softGlow)"><path d="M 3.5,111.8 L 743.4,111.8 L 743.4,99.6 L 565.2,99.6 L 565.2,132.5 " fill="none" stroke="url(#strokeB)" stroke-width="2.20" stroke-linecap="round" stroke-linejoin="round"/><circle cx="743.4" cy="99.6" r="2.4" fill="#A855F7" opacity="0.45"/><circle cx="743.4" cy="111.8" r="2.9" fill="#A855F7" opacity="0.45"/><circle cx="565.2" cy="99.6" r="3.2" fill="#A855F7" opacity="0.45"/></g>
<g opacity="0.208" filter="url(#softGlow)"><path d="M 82.4,965.4 L 167.8,965.4 L 167.8,1421.2 L 794.1,1421.2 L 794.1,1572.7 " fill="none" stroke="url(#strokeB)" stroke-width="2.20" stroke-linecap="round" stroke-linejoin="round"/><circle cx="794.1" cy="1572.7" r="3.3" fill="#A855F7" opacity="0.45"/><circle cx="794.1" cy="1421.2" r="4.2" fill="#A855F7" opacity="0.45"/><circle cx="167.8" cy="965.4" r="3.3" fill="#A855F7" opacity="0.45"/></g>
<g opacity="0.208" filter="url(#softGlow)"><path d="M 744.1,64.5 L 121.8,64.5 L 121.8,1365.3 L 168.0,1365.3 L 168.0,1431.8 " fill="none" stroke="url(#strokeB)" stroke-width="1.46" stroke-linecap="round" stroke-linejoin="round"/><circle cx="168.0" cy="1431.8" r="3.0" fill="#A855F7" opacity="0.45"/><circle cx="744.1" cy="64.5" r="3.5" fill="#A855F7" opacity="0.45"/><circle cx="168.0" cy="1365.3" r="2.7" fill="#A855F7" opacity="0.45"/></g>
<g opacity="0.208" filter="url(#softGlow)"><path d="M 837.6,1495.6 L 142.7,1495.6 L 142.7,1584.4 L 855.0,1584.4 L 855.0,20.6 " fill="none" stroke="url(#strokeB)" stroke-width="1.50" stroke-linecap="round" stroke-linejoin="round"/><circle cx="142.7" cy="1495.6" r="2.8" fill="#A855F7" opacity="0.45"/><circle cx="855.0" cy="20.6" r="2.1" fill="#A855F7" opacity="0.45"/><circle cx="855.0" cy="1584.4" r="2.4" fill="#A855F7" opacity="0.45"/></g>
<g opacity="0.208" filter="url(#softGlow)"><path d="M 153.8,1577.7 L 459.9,1577.7 L 459.9,62.1 L 93.4,62.1 L 93.4,157.6 " fill="none" stroke="url(#strokeB)" stroke-width="1.22" stroke-linecap="round" stroke-linejoin="round"/><circle cx="93.4" cy="157.6" r="2.9" fill="#A855F7" opacity="0.45"/><circle cx="459.9" cy="62.1" r="4.2" fill="#A855F7" opacity="0.45"/><circle cx="153.8" cy="1577.7" r="2.3" fill="#A855F7" opacity="0.45"/></g>
<g opacity="0.208" filter="url(#softGlow)"><path d="M 11.1,45.3 L 770.1,45.3 L 770.1,47.0 L 31.9,47.0 L 31.9,17.9 " fill="none" stroke="url(#strokeB)" stroke-width="1.60" stroke-linecap="round" stroke-linejoin="round"/><circle cx="770.1" cy="47.0" r="3.1" fill="#A855F7" opacity="0.45"/><circle cx="31.9" cy="17.9" r="3.2" fill="#A855F7" opacity="0.45"/><circle cx="770.1" cy="45.3" r="2.4" fill="#A855F7" opacity="0.45"/></g>
<g opacity="0.208" filter="url(#softGlow)"><path d="M 14.8,1492.0 L 798.0,1492.0 L 798.0,43.3 L 761.4,43.3 L 761.4,675.1 " fill="none" stroke="url(#strokeB)" stroke-width="1.57" stroke-linecap="round" stroke-linejoin="round"/><circle cx="761.4" cy="675.1" r="3.9" fill="#A855F7" opacity="0.45"/><circle cx="798.0" cy="1492.0" r="4.1" fill="#A855F7" opacity="0.45"/><circle cx="798.0" cy="43.3" r="3.6" fill="#A855F7" opacity="0.45"/></g>
<g opacity="0.208" filter="url(#softGlow)"><path d="M 838.5,16.8 L 45.5,16.8 L 45.5,157.5 L 54.2,157.5 L 54.2,45.2 " fill="none" stroke="url(#strokeB)" stroke-width="1.91" stroke-linecap="round" stroke-linejoin="round"/><circle cx="54.2" cy="157.5" r="2.6" fill="#A855F7" opacity="0.45"/><circle cx="45.5" cy="157.5" r="4.0" fill="#A855F7" opacity="0.45"/><circle cx="45.5" cy="16.8" r="2.1" fill="#A855F7" opacity="0.45"/></g>
<g opacity="0.208" filter="url(#softGlow)"><path d="M 53.0,147.7 L 341.6,147.7 L 341.6,136.0 L 30.4,136.0 L 30.4,96.8 " fill="none" stroke="url(#strokeB)" stroke-width="1.26" stroke-linecap="round" stroke-linejoin="round"/><circle cx="30.4" cy="136.0" r="2.3" fill="#A855F7" opacity="0.45"/><circle cx="53.0" cy="147.7" r="4.0" fill="#A855F7" opacity="0.45"/><circle cx="30.4" cy="96.8" r="3.4" fill="#A855F7" opacity="0.45"/></g>
<g opacity="0.208" filter="url(#softGlow)"><path d="M 742.9,82.1 L 749.0,82.1 L 749.0,146.6 L 890.3,146.6 L 890.3,1277.3 " fill="none" stroke="url(#strokeB)" stroke-width="1.32" stroke-linecap="round" stroke-linejoin="round"/><circle cx="890.3" cy="146.6" r="3.0" fill="#A855F7" opacity="0.45"/><circle cx="742.9" cy="82.1" r="3.0" fill="#A855F7" opacity="0.45"/><circle cx="749.0" cy="82.1" r="3.4" fill="#A855F7" opacity="0.45"/></g>
<g opacity="0.208" filter="url(#softGlow)"><path d="M 714.7,1547.5 L 766.3,1547.5 L 766.3,1433.2 L 161.4,1433.2 L 161.4,147.5 " fill="none" stroke="url(#strokeB)" stroke-width="2.04" stroke-linecap="round" stroke-linejoin="round"/><circle cx="161.4" cy="1433.2" r="3.4" fill="#A855F7" opacity="0.45"/><circle cx="161.4" cy="147.5" r="3.8" fill="#A855F7" opacity="0.45"/><circle cx="714.7" cy="1547.5" r="3.6" fill="#A855F7" opacity="0.45"/></g>
<g opacity="0.208" filter="url(#softGlow)"><path d="M 134.8,26.1 L 130.8,26.1 L 130.8,1421.7 L 739.5,1421.7 L 739.5,1537.8 " fill="none" stroke="url(#strokeB)" stroke-width="1.31" stroke-linecap="round" stroke-linejoin="round"/><circle cx="130.8" cy="26.1" r="3.6" fill="#A855F7" opacity="0.45"/><circle cx="739.5" cy="1421.7" r="3.6" fill="#A855F7" opacity="0.45"/><circle cx="134.8" cy="26.1" r="3.9" fill="#A855F7" opacity="0.45"/></g>
<g opacity="0.208" filter="url(#softGlow)"><path d="M 145.2,1456.7 L 83.6,1456.7 L 83.6,1512.0 L 373.3,1512.0 L 373.3,1483.9 " fill="none" stroke="url(#strokeB)" stroke-width="2.04" stroke-linecap="round" stroke-linejoin="round"/><circle cx="83.6" cy="1512.0" r="3.5" fill="#A855F7" opacity="0.45"/><circle cx="83.6" cy="1456.7" r="2.6" fill="#A855F7" opacity="0.45"/><circle cx="373.3" cy="1512.0" r="2.2" fill="#A855F7" opacity="0.45"/></g>

<g opacity="0.918" filter="url(#hardGlow)">
  <circle cx="19.5" cy="1142.5" r="38.3" fill="#0A1224" opacity="0.65"/>
  <circle cx="19.5" cy="1142.5" r="38.3" fill="none" stroke="url(#strokeA)" stroke-width="3.1" opacity="0.85"/>
  <circle cx="19.5" cy="1142.5" r="32.9" fill="none" stroke="#F59E0B" stroke-width="1.5" opacity="0.35"/>
  <polygon points="45.5,1133.2 40.6,1160.4 14.6,1169.6 -6.4,1151.8 -1.5,1124.6 24.5,1115.4" fill="none" stroke="url(#strokeB)" stroke-width="1.2" opacity="0.65"/>
  <polygon points="29.2,1142.6 14.7,1150.8 14.8,1134.1" fill="#F59E0B" opacity="0.22" filter="url(#softGlow)"/>
</g>


<g opacity="0.579" filter="url(#hardGlow)">
  <circle cx="33.7" cy="1182.3" r="15.8" fill="#0A1224" opacity="0.65"/>
  <circle cx="33.7" cy="1182.3" r="15.8" fill="none" stroke="url(#strokeA)" stroke-width="2.0" opacity="0.85"/>
  <circle cx="33.7" cy="1182.3" r="13.6" fill="none" stroke="#A855F7" stroke-width="1.5" opacity="0.35"/>
  <polygon points="39.9,1191.8 28.6,1192.5 22.3,1183.0 27.4,1172.9 38.8,1172.2 45.0,1181.7" fill="none" stroke="url(#strokeB)" stroke-width="1.2" opacity="0.65"/>
  
</g>


<g opacity="0.607" filter="url(#hardGlow)">
  <circle cx="-10.0" cy="1183.4" r="17.9" fill="#0A1224" opacity="0.65"/>
  <circle cx="-10.0" cy="1183.4" r="17.9" fill="none" stroke="url(#strokeA)" stroke-width="2.0" opacity="0.85"/>
  <circle cx="-10.0" cy="1183.4" r="15.4" fill="none" stroke="#A855F7" stroke-width="1.5" opacity="0.35"/>
  <polygon points="-21.2,1177.1 -10.1,1170.5 1.1,1176.9 1.3,1189.8 -9.8,1196.4 -21.1,1190.0" fill="none" stroke="url(#strokeB)" stroke-width="1.2" opacity="0.65"/>
  <polygon points="-12.9,1180.0 -5.5,1182.6 -11.5,1187.7" fill="#A855F7" opacity="0.22" filter="url(#softGlow)"/>
</g>


<g opacity="0.731" filter="url(#hardGlow)">
  <circle cx="797.8" cy="1149.4" r="55.1" fill="#0A1224" opacity="0.65"/>
  <circle cx="797.8" cy="1149.4" r="55.1" fill="none" stroke="url(#strokeA)" stroke-width="4.4" opacity="0.85"/>
  <circle cx="797.8" cy="1149.4" r="47.4" fill="none" stroke="#F59E0B" stroke-width="1.7" opacity="0.35"/>
  <polygon points="781.0,1113.5 820.5,1116.9 837.3,1152.8 814.5,1185.3 775.0,1181.9 758.3,1145.9" fill="none" stroke="url(#strokeB)" stroke-width="1.4" opacity="0.65"/>
  <polygon points="796.6,1135.6 810.4,1155.2 786.4,1157.3" fill="#F59E0B" opacity="0.22" filter="url(#softGlow)"/>
</g>


<g opacity="0.546" filter="url(#hardGlow)">
  <circle cx="758.3" cy="1119.0" r="23.9" fill="#0A1224" opacity="0.65"/>
  <circle cx="758.3" cy="1119.0" r="23.9" fill="none" stroke="url(#strokeA)" stroke-width="2.0" opacity="0.85"/>
  <circle cx="758.3" cy="1119.0" r="20.5" fill="none" stroke="#A855F7" stroke-width="1.5" opacity="0.35"/>
  <polygon points="770.8,1107.2 774.8,1124.0 762.3,1135.7 745.8,1130.8 741.9,1114.1 754.4,1102.3" fill="none" stroke="url(#strokeB)" stroke-width="1.2" opacity="0.65"/>
  
</g>


<g opacity="0.730" filter="url(#hardGlow)">
  <circle cx="56.7" cy="1012.5" r="39.8" fill="#0A1224" opacity="0.65"/>
  <circle cx="56.7" cy="1012.5" r="39.8" fill="none" stroke="url(#strokeA)" stroke-width="3.2" opacity="0.85"/>
  <circle cx="56.7" cy="1012.5" r="34.3" fill="none" stroke="#F59E0B" stroke-width="1.5" opacity="0.35"/>
  <polygon points="79.5,1029.8 53.1,1041.0 30.2,1023.7 33.8,995.2 60.2,984.1 83.1,1001.4" fill="none" stroke="url(#strokeB)" stroke-width="1.2" opacity="0.65"/>
  <polygon points="62.1,1021.0 46.6,1013.0 61.2,1003.6" fill="#F59E0B" opacity="0.22" filter="url(#softGlow)"/>
</g>


<g opacity="0.576" filter="url(#hardGlow)">
  <circle cx="70.3" cy="1040.7" r="16.0" fill="#0A1224" opacity="0.65"/>
  <circle cx="70.3" cy="1040.7" r="16.0" fill="none" stroke="url(#strokeA)" stroke-width="2.0" opacity="0.85"/>
  <circle cx="70.3" cy="1040.7" r="13.8" fill="none" stroke="#A855F7" stroke-width="1.5" opacity="0.35"/>
  <polygon points="76.8,1031.3 81.8,1041.7 75.2,1051.2 63.7,1050.2 58.8,1039.8 65.3,1030.3" fill="none" stroke="url(#strokeB)" stroke-width="1.2" opacity="0.65"/>
  <polygon points="73.6,1038.4 70.7,1044.8 66.6,1039.1" fill="#A855F7" opacity="0.22" filter="url(#softGlow)"/>
</g>


<g opacity="0.706" filter="url(#hardGlow)">
  <circle cx="676.8" cy="117.7" r="36.6" fill="#0A1224" opacity="0.65"/>
  <circle cx="676.8" cy="117.7" r="36.6" fill="none" stroke="url(#strokeA)" stroke-width="2.9" opacity="0.85"/>
  <circle cx="676.8" cy="117.7" r="31.5" fill="none" stroke="#F59E0B" stroke-width="1.5" opacity="0.35"/>
  <polygon points="665.5,141.5 650.5,119.8 661.8,96.0 688.1,93.8 703.1,115.6 691.7,139.4" fill="none" stroke="url(#strokeB)" stroke-width="1.2" opacity="0.65"/>
  <polygon points="670.2,124.2 674.4,108.7 685.7,120.1" fill="#F59E0B" opacity="0.22" filter="url(#softGlow)"/>
</g>


<g opacity="0.541" filter="url(#hardGlow)">
  <circle cx="692.5" cy="93.0" r="20.0" fill="#0A1224" opacity="0.65"/>
  <circle cx="692.5" cy="93.0" r="20.0" fill="none" stroke="url(#strokeA)" stroke-width="2.0" opacity="0.85"/>
  <circle cx="692.5" cy="93.0" r="17.2" fill="none" stroke="#A855F7" stroke-width="1.5" opacity="0.35"/>
  <polygon points="706.1,97.5 695.4,107.1 681.7,102.5 678.8,88.5 689.5,78.9 703.2,83.4" fill="none" stroke="url(#strokeB)" stroke-width="1.2" opacity="0.65"/>
  
</g>


<g opacity="0.824" filter="url(#hardGlow)">
  <circle cx="873.8" cy="139.6" r="45.9" fill="#0A1224" opacity="0.65"/>
  <circle cx="873.8" cy="139.6" r="45.9" fill="none" stroke="url(#strokeA)" stroke-width="3.7" opacity="0.85"/>
  <circle cx="873.8" cy="139.6" r="39.5" fill="none" stroke="#F59E0B" stroke-width="1.5" opacity="0.35"/>
  <polygon points="886.1,108.9 906.5,134.9 894.2,165.6 861.5,170.3 841.1,144.3 853.4,113.6" fill="none" stroke="url(#strokeB)" stroke-width="1.2" opacity="0.65"/>
  <polygon points="881.5,131.0 877.4,150.6 862.5,137.2" fill="#F59E0B" opacity="0.22" filter="url(#softGlow)"/>
</g>


<g opacity="0.406" filter="url(#hardGlow)">
  <circle cx="838.1" cy="167.2" r="24.4" fill="#0A1224" opacity="0.65"/>
  <circle cx="838.1" cy="167.2" r="24.4" fill="none" stroke="url(#strokeA)" stroke-width="2.0" opacity="0.85"/>
  <circle cx="838.1" cy="167.2" r="21.0" fill="none" stroke="#A855F7" stroke-width="1.5" opacity="0.35"/>
  <polygon points="821.9,174.1 824.1,156.6 840.2,149.7 854.3,160.3 852.1,177.7 836.0,184.6" fill="none" stroke="url(#strokeB)" stroke-width="1.2" opacity="0.65"/>
  <polygon points="832.0,167.5 840.9,161.7 841.5,172.3" fill="#A855F7" opacity="0.22" filter="url(#softGlow)"/>
</g>


<g opacity="0.401" filter="url(#hardGlow)">
  <circle cx="840.6" cy="177.8" r="18.0" fill="#0A1224" opacity="0.65"/>
  <circle cx="840.6" cy="177.8" r="18.0" fill="none" stroke="url(#strokeA)" stroke-width="2.0" opacity="0.85"/>
  <circle cx="840.6" cy="177.8" r="15.5" fill="none" stroke="#A855F7" stroke-width="1.5" opacity="0.35"/>
  <polygon points="839.0,165.0 850.9,169.9 852.6,182.8 842.3,190.7 830.3,185.7 828.6,172.8" fill="none" stroke="url(#strokeB)" stroke-width="1.2" opacity="0.65"/>
  
</g>


<g opacity="0.606" filter="url(#hardGlow)">
  <circle cx="865.5" cy="159.6" r="24.7" fill="#0A1224" opacity="0.65"/>
  <circle cx="865.5" cy="159.6" r="24.7" fill="none" stroke="url(#strokeA)" stroke-width="2.0" opacity="0.85"/>
  <circle cx="865.5" cy="159.6" r="21.3" fill="none" stroke="#A855F7" stroke-width="1.5" opacity="0.35"/>
  <polygon points="869.2,177.0 852.3,171.5 848.6,154.1 861.8,142.2 878.7,147.6 882.5,165.1" fill="none" stroke="url(#strokeB)" stroke-width="1.2" opacity="0.65"/>
  
</g>


<g opacity="0.313" transform="translate(779.2,79.5) rotate(-9.2)" filter="url(#softGlow)">
  <rect x="-89.2" y="-63.4" width="178.4" height="126.7" rx="12.7" fill="#050A12" opacity="0.25"/>
  <rect x="-89.2" y="-63.4" width="178.4" height="126.7" rx="12.7" fill="none" stroke="url(#strokeA)" stroke-width="6.3" opacity="0.85"/>
  <rect x="-79.0" y="-53.2" width="158.1" height="106.5" rx="8.9" fill="none" stroke="#F59E0B" stroke-width="2.5" opacity="0.35"/>
</g>


<g opacity="0.317" transform="translate(3.2,32.3) rotate(7.8)" filter="url(#softGlow)">
  <rect x="-87.0" y="-70.1" width="174.1" height="140.2" rx="14.0" fill="#050A12" opacity="0.25"/>
  <rect x="-87.0" y="-70.1" width="174.1" height="140.2" rx="14.0" fill="none" stroke="url(#strokeA)" stroke-width="7.0" opacity="0.85"/>
  <rect x="-75.8" y="-58.9" width="151.7" height="117.7" rx="9.8" fill="none" stroke="#F59E0B" stroke-width="2.8" opacity="0.35"/>
</g>


<g opacity="0.417" transform="translate(847.2,72.4) rotate(0.7)" filter="url(#softGlow)">
  <rect x="-98.5" y="-77.3" width="197.1" height="154.5" rx="15.5" fill="#050A12" opacity="0.25"/>
  <rect x="-98.5" y="-77.3" width="197.1" height="154.5" rx="15.5" fill="none" stroke="url(#strokeA)" stroke-width="7.7" opacity="0.85"/>
  <rect x="-86.2" y="-64.9" width="172.3" height="129.8" rx="10.8" fill="none" stroke="#F59E0B" stroke-width="3.1" opacity="0.35"/>
</g>


<g opacity="0.374" transform="translate(741.2,16.6) rotate(-5.4)" filter="url(#softGlow)">
  <rect x="-75.4" y="-65.7" width="150.9" height="131.4" rx="13.1" fill="#050A12" opacity="0.25"/>
  <rect x="-75.4" y="-65.7" width="150.9" height="131.4" rx="13.1" fill="none" stroke="url(#strokeA)" stroke-width="6.6" opacity="0.85"/>
  <rect x="-64.9" y="-55.2" width="129.8" height="110.4" rx="9.2" fill="none" stroke="#A855F7" stroke-width="2.6" opacity="0.35"/>
</g>


<g opacity="0.381" transform="translate(810.7,573.3) rotate(-12.0)" filter="url(#softGlow)">
  <rect x="-35.4" y="-20.4" width="70.7" height="40.7" rx="12.4" fill="none" stroke="#F59E0B" stroke-width="6.8" opacity="0.55"/>
  <rect x="-15.6" y="-10.2" width="70.7" height="40.7" rx="12.4" fill="none" stroke="url(#strokeA)" stroke-width="5.7" opacity="0.55"/>
</g>


<g opacity="0.244" transform="translate(895.9,27.6) rotate(8.8)" filter="url(#softGlow)">
  <rect x="-41.4" y="-23.9" width="82.9" height="47.7" rx="14.6" fill="none" stroke="#F59E0B" stroke-width="8.0" opacity="0.55"/>
  <rect x="-18.2" y="-11.9" width="82.9" height="47.7" rx="14.6" fill="none" stroke="url(#strokeA)" stroke-width="6.6" opacity="0.55"/>
</g>


<g opacity="0.252" transform="translate(653.9,156.7) rotate(10.7)" filter="url(#softGlow)">
  <rect x="-28.4" y="-16.3" width="56.7" height="32.7" rx="10.0" fill="none" stroke="#A855F7" stroke-width="5.4" opacity="0.55"/>
  <rect x="-12.5" y="-8.2" width="56.7" height="32.7" rx="10.0" fill="none" stroke="url(#strokeA)" stroke-width="4.5" opacity="0.55"/>
</g>


<g opacity="0.355" transform="translate(851.4,1448.1) rotate(17.6)" filter="url(#softGlow)">
  <rect x="-39.3" y="-22.6" width="78.5" height="45.2" rx="13.8" fill="none" stroke="#F59E0B" stroke-width="7.5" opacity="0.55"/>
  <rect x="-17.3" y="-11.3" width="78.5" height="45.2" rx="13.8" fill="none" stroke="url(#strokeA)" stroke-width="6.3" opacity="0.55"/>
</g>


<g opacity="0.451" transform="translate(98.1,9.3) rotate(-15.7)" filter="url(#softGlow)">
  <rect x="-48.2" y="-27.7" width="96.3" height="55.5" rx="17.0" fill="none" stroke="#F59E0B" stroke-width="9.2" opacity="0.55"/>
  <rect x="-21.2" y="-13.9" width="96.3" height="55.5" rx="17.0" fill="none" stroke="url(#strokeA)" stroke-width="7.7" opacity="0.55"/>
</g>


<g opacity="0.451" transform="translate(404.1,153.9) rotate(-5.0)" filter="url(#softGlow)">
  <rect x="-34.5" y="-19.9" width="69.0" height="39.7" rx="12.1" fill="none" stroke="#A855F7" stroke-width="6.6" opacity="0.55"/>
  <rect x="-15.2" y="-9.9" width="69.0" height="39.7" rx="12.1" fill="none" stroke="url(#strokeA)" stroke-width="5.5" opacity="0.55"/>
</g>


<g opacity="0.206">
  <line x1="842.1" y1="1387.1" x2="842.1" y2="1491.4" stroke="#A855F7" stroke-width="1.17" opacity="0.45"/>
  <rect x="837.8" y="1442.5" width="8.5" height="56.0" rx="2.8" fill="#0B1020" opacity="0.55" stroke="url(#strokeA)" stroke-width="1.2"/>
</g>

<g opacity="0.206">
  <line x1="721.3" y1="1404.2" x2="721.3" y2="1487.1" stroke="#A855F7" stroke-width="1.96" opacity="0.45"/>
  <rect x="717.3" y="1443.0" width="7.9" height="55.1" rx="2.6" fill="#0B1020" opacity="0.55" stroke="url(#strokeA)" stroke-width="1.2"/>
</g>

<g opacity="0.206">
  <line x1="58.1" y1="1404.7" x2="58.1" y2="1487.0" stroke="#A855F7" stroke-width="1.73" opacity="0.45"/>
  <rect x="53.1" y="1449.4" width="9.9" height="42.3" rx="3.3" fill="#0B1020" opacity="0.55" stroke="url(#strokeA)" stroke-width="1.2"/>
</g>

<g opacity="0.206">
  <line x1="304.4" y1="1408.4" x2="304.4" y2="1486.1" stroke="#A855F7" stroke-width="2.04" opacity="0.45"/>
  <rect x="299.8" y="1455.1" width="9.1" height="30.9" rx="3.0" fill="#0B1020" opacity="0.55" stroke="url(#strokeA)" stroke-width="1.2"/>
</g>

<g opacity="0.206">
  <line x1="346.8" y1="1414.7" x2="346.8" y2="1484.5" stroke="#A855F7" stroke-width="1.65" opacity="0.45"/>
  <rect x="343.3" y="1452.4" width="7.0" height="36.3" rx="2.3" fill="#0B1020" opacity="0.55" stroke="url(#strokeA)" stroke-width="1.2"/>
</g>

<g opacity="0.206">
  <line x1="116.7" y1="1397.7" x2="116.7" y2="1488.8" stroke="#A855F7" stroke-width="1.34" opacity="0.45"/>
  <rect x="111.6" y="1446.7" width="10.2" height="47.6" rx="3.4" fill="#0B1020" opacity="0.55" stroke="url(#strokeA)" stroke-width="1.2"/>
</g>

<g opacity="0.206">
  <line x1="860.2" y1="1408.7" x2="860.2" y2="1486.0" stroke="#A855F7" stroke-width="2.11" opacity="0.45"/>
  <rect x="855.5" y="1445.4" width="9.4" height="50.2" rx="3.1" fill="#0B1020" opacity="0.55" stroke="url(#strokeA)" stroke-width="1.2"/>
</g>

<g opacity="0.206">
  <line x1="294.3" y1="1412.9" x2="294.3" y2="1485.0" stroke="#A855F7" stroke-width="1.72" opacity="0.45"/>
  <rect x="291.2" y="1452.7" width="6.2" height="35.7" rx="2.1" fill="#0B1020" opacity="0.55" stroke="url(#strokeA)" stroke-width="1.2"/>
</g>

<g opacity="0.206">
  <line x1="525.7" y1="1412.4" x2="525.7" y2="1485.1" stroke="#A855F7" stroke-width="1.21" opacity="0.45"/>
  <rect x="520.8" y="1459.8" width="9.7" height="21.4" rx="3.2" fill="#0B1020" opacity="0.55" stroke="url(#strokeA)" stroke-width="1.2"/>
</g>

<g opacity="0.206">
  <line x1="162.1" y1="1405.6" x2="162.1" y2="1486.8" stroke="#A855F7" stroke-width="2.15" opacity="0.45"/>
  <rect x="157.1" y="1457.2" width="9.9" height="26.7" rx="3.3" fill="#0B1020" opacity="0.55" stroke="url(#strokeA)" stroke-width="1.2"/>
</g>

<g opacity="0.206">
  <line x1="183.7" y1="1435.3" x2="183.7" y2="1479.4" stroke="#A855F7" stroke-width="1.28" opacity="0.45"/>
  <rect x="178.7" y="1458.3" width="10.0" height="24.5" rx="3.3" fill="#0B1020" opacity="0.55" stroke="url(#strokeA)" stroke-width="1.2"/>
</g>

<g opacity="0.206">
  <line x1="582.4" y1="1383.8" x2="582.4" y2="1492.2" stroke="#A855F7" stroke-width="2.15" opacity="0.45"/>
  <rect x="576.8" y="1446.1" width="11.2" height="48.8" rx="3.7" fill="#0B1020" opacity="0.55" stroke="url(#strokeA)" stroke-width="1.2"/>
</g>

<g opacity="0.206">
  <line x1="420.4" y1="1389.6" x2="420.4" y2="1490.8" stroke="#A855F7" stroke-width="1.37" opacity="0.45"/>
  <rect x="415.0" y="1443.5" width="10.7" height="54.1" rx="3.6" fill="#0B1020" opacity="0.55" stroke="url(#strokeA)" stroke-width="1.2"/>
</g>
<circle cx="843.8" cy="1493.2" r="1.9" fill="#F59E0B" opacity="0.11" filter="url(#softGlow)"/>
<circle cx="639.3" cy="77.6" r="1.6" fill="#F59E0B" opacity="0.12" filter="url(#softGlow)"/>
<circle cx="69.9" cy="1593.0" r="3.1" fill="#F59E0B" opacity="0.11" filter="url(#softGlow)"/>
<circle cx="53.1" cy="132.2" r="2.0" fill="#F59E0B" opacity="0.23" filter="url(#softGlow)"/>
<circle cx="157.6" cy="159.6" r="1.6" fill="#F59E0B" opacity="0.26" filter="url(#softGlow)"/>
<circle cx="131.3" cy="172.4" r="1.8" fill="#F59E0B" opacity="0.21" filter="url(#softGlow)"/>
<circle cx="818.4" cy="89.6" r="1.7" fill="#F59E0B" opacity="0.14" filter="url(#softGlow)"/>
<circle cx="791.2" cy="133.5" r="1.7" fill="#F59E0B" opacity="0.26" filter="url(#softGlow)"/>
<circle cx="38.4" cy="1529.9" r="1.6" fill="#F59E0B" opacity="0.23" filter="url(#softGlow)"/>
<circle cx="9.9" cy="88.6" r="1.6" fill="#F59E0B" opacity="0.11" filter="url(#softGlow)"/>
<circle cx="86.1" cy="1499.1" r="2.7" fill="#F59E0B" opacity="0.11" filter="url(#softGlow)"/>
<circle cx="419.5" cy="1589.7" r="2.5" fill="#F59E0B" opacity="0.22" filter="url(#softGlow)"/>
<circle cx="99.3" cy="111.4" r="1.8" fill="#F59E0B" opacity="0.12" filter="url(#softGlow)"/>
<circle cx="136.9" cy="1509.3" r="2.9" fill="#F59E0B" opacity="0.24" filter="url(#softGlow)"/>
<circle cx="783.0" cy="1461.5" r="3.0" fill="#F59E0B" opacity="0.24" filter="url(#softGlow)"/>
<circle cx="103.8" cy="19.9" r="2.5" fill="#F59E0B" opacity="0.17" filter="url(#softGlow)"/>
<circle cx="11.8" cy="1423.4" r="1.8" fill="#F59E0B" opacity="0.26" filter="url(#softGlow)"/>
<circle cx="825.9" cy="1596.1" r="1.8" fill="#F59E0B" opacity="0.13" filter="url(#softGlow)"/>
<circle cx="102.9" cy="334.3" r="1.3" fill="#F59E0B" opacity="0.27" filter="url(#softGlow)"/>
<circle cx="51.1" cy="2.8" r="2.3" fill="#F59E0B" opacity="0.24" filter="url(#softGlow)"/>
<circle cx="118.7" cy="989.0" r="2.8" fill="#F59E0B" opacity="0.25" filter="url(#softGlow)"/>
<circle cx="76.8" cy="26.5" r="1.8" fill="#F59E0B" opacity="0.26" filter="url(#softGlow)"/>
<circle cx="832.7" cy="76.5" r="1.5" fill="#F59E0B" opacity="0.19" filter="url(#softGlow)"/>
<circle cx="457.8" cy="1514.0" r="1.7" fill="#F59E0B" opacity="0.24" filter="url(#softGlow)"/>
<circle cx="22.8" cy="51.6" r="1.9" fill="#F59E0B" opacity="0.27" filter="url(#softGlow)"/>
</svg>