<svg xmlns="http://www.w3.org/2000/svg" width="900" height="1600" viewBox="0 0 900 1600" preserveAspectRatio="xMidYMid slice">
<defs>
  <linearGradient id="g0" x1="0" y1="0" x2="1" y2="1">
    <stop offset="0" stop-color="#0B0F1A"/>
    <stop offset="0.55" stop-color="#A855F7" stop-opacity="0.9"/>
    <stop offset="1" stop-color="#030712"/>
  </linearGradient>
  <radialGradient id="g1" cx="20%" cy="15%" r="70%">
    <stop offset="0" stop-color="#22D3EE" stop-opacity="0.38"/>
    <stop offset="0.6" stop-color="#22D3EE" stop-opacity="0.08"/>
    <stop offset="1" stop-color="#22D3EE" stop-opacity="0"/>
  </radialGradient>
  <radialGradient id="g2" cx="85%" cy="80%" r="75%">
    <stop offset="0" stop-color="#22D3EE" stop-opacity="0.28"/>
    <stop offset="0.65" stop-color="#22D3EE" stop-opacity="0.06"/>
    <stop offset="1" stop-color="#22D3EE" stop-opacity="0"/>
  </radialGradient>
  <filter id="softGlow" x="-30%" y="-30%" width="160%" height="160%">
    <feGaussianBlur stdDeviation="12" result="b"/>
    <feMerge>
      <feMergeNode in="b"/>
      <feMergeNode in="SourceGraphic"/>
    </feMerge>
  </filter>
  <filter id="hardGlow" x="-40%" y="-40%" width="180%" height="180%">
    <feGaussianBlur stdDeviation="6" result="b"/>
    <feColorMatrix in="b" type="matrix" values="1 0 0 0 0  0 1 0 0 0  0 0 1 0 0  0 0 0 18 -7" result="c"/>
    <feMerge>
      <feMergeNode in="c"/>
      <feMergeNode in="SourceGraphic"/>
    </feMerge>
  </filter>
  <linearGradient id="strokeA" x1="0" y1="0" x2="1" y2="0">
    <stop offset="0" stop-color="#22D3EE" stop-opacity="0.9"/>
    <stop offset="0.5" stop-color="#FFFFFF" stop-opacity="0.25"/>
    <stop offset="1" stop-color="#22D3EE" stop-opacity="0.7"/>
  </linearGradient>
  <linearGradient id="strokeB" x1="0" y1="0" x2="0" y2="1">
    <stop offset="0" stop-color="#FFFFFF" stop-opacity="0.18"/>
    <stop offset="1" stop-color="#22D3EE" stop-opacity="0.55"/>
  </linearGradient>
</defs>
<rect x="0" y="0" width="900" height="1600" fill="url(#g0)"/>
<rect x="0" y="0" width="900" height="1600" fill="url(#g1)"/>
<rect x="0" y="0" width="900" height="1600" fill="url(#g2)"/>


<defs>
  <radialGradient id="vign" cx="0.5000" cy="0.5000" r="0.85">
    <stop offset="0" stop-color="#000000" stop-opacity="0"/>
    <stop offset="0.55" stop-color="#000000" stop-opacity="0.217"/>
    <stop offset="1" stop-color="#000000" stop-opacity="0.620"/>
  </radialGradient>
</defs>
<rect x="0" y="0" width="900" height="1600" fill="url(#vign)"/>

<g opacity="0.229" filter="url(#softGlow)"><path d="M 147.4,7.8 L 426.5,7.8 L 426.5,1501.7 L 870.4,1501.7 L 870.4,1089.6 " fill="none" stroke="url(#strokeB)" stroke-width="1.41" stroke-linecap="round" stroke-linejoin="round"/><circle cx="426.5" cy="1501.7" r="3.7" fill="#22D3EE" opacity="0.45"/><circle cx="870.4" cy="1501.7" r="3.2" fill="#22D3EE" opacity="0.45"/><circle cx="426.5" cy="7.8" r="3.6" fill="#22D3EE" opacity="0.45"/></g>
<g opacity="0.229" filter="url(#softGlow)"><path d="M 824.9,1520.4 L 756.2,1520.4 L 756.2,124.1 L 740.3,124.1 L 740.3,22.0 " fill="none" stroke="url(#strokeB)" stroke-width="2.02" stroke-linecap="round" stroke-linejoin="round"/><circle cx="756.2" cy="1520.4" r="2.1" fill="#22D3EE" opacity="0.45"/><circle cx="824.9" cy="1520.4" r="2.5" fill="#22D3EE" opacity="0.45"/><circle cx="740.3" cy="124.1" r="2.1" fill="#22D3EE" opacity="0.45"/></g>
<g opacity="0.229" filter="url(#softGlow)"><path d="M 769.7,233.3 L 898.8,233.3 L 898.8,1527.5 L 750.5,1527.5 L 750.5,40.3 " fill="none" stroke="url(#strokeB)" stroke-width="2.19" stroke-linecap="round" stroke-linejoin="round"/><circle cx="750.5" cy="1527.5" r="3.8" fill="#22D3EE" opacity="0.45"/><circle cx="769.7" cy="233.3" r="3.5" fill="#22D3EE" opacity="0.45"/><circle cx="898.8" cy="233.3" r="3.4" fill="#22D3EE" opacity="0.45"/></g>
<g opacity="0.229" filter="url(#softGlow)"><path d="M 291.1,1442.6 L 545.6,1442.6 L 545.6,21.9 L 838.0,21.9 L 838.0,531.6 " fill="none" stroke="url(#strokeB)" stroke-width="1.31" stroke-linecap="round" stroke-linejoin="round"/><circle cx="838.0" cy="21.9" r="3.1" fill="#22D3EE" opacity="0.45"/><circle cx="291.1" cy="1442.6" r="3.5" fill="#22D3EE" opacity="0.45"/><circle cx="545.6" cy="21.9" r="3.7" fill="#22D3EE" opacity="0.45"/></g>
<g opacity="0.229" filter="url(#softGlow)"><path d="M 886.7,1563.2 L 92.9,1563.2 L 92.9,1561.9 L 767.0,1561.9 L 767.0,146.5 " fill="none" stroke="url(#strokeB)" stroke-width="2.11" stroke-linecap="round" stroke-linejoin="round"/><circle cx="886.7" cy="1563.2" r="3.3" fill="#22D3EE" opacity="0.45"/><circle cx="92.9" cy="1563.2" r="3.8" fill="#22D3EE" opacity="0.45"/><circle cx="92.9" cy="1561.9" r="2.5" fill="#22D3EE" opacity="0.45"/></g>
<g opacity="0.229" filter="url(#softGlow)"><path d="M 470.3,130.9 L 150.3,130.9 L 150.3,1552.2 L 475.7,1552.2 L 475.7,137.7 " fill="none" stroke="url(#strokeB)" stroke-width="1.59" stroke-linecap="round" stroke-linejoin="round"/><circle cx="150.3" cy="130.9" r="2.6" fill="#22D3EE" opacity="0.45"/><circle cx="475.7" cy="1552.2" r="3.3" fill="#22D3EE" opacity="0.45"/><circle cx="150.3" cy="1552.2" r="3.2" fill="#22D3EE" opacity="0.45"/></g>
<g opacity="0.229" filter="url(#softGlow)"><path d="M 501.1,112.2 L 783.0,112.2 L 783.0,1578.1 L 580.7,1578.1 L 580.7,148.1 " fill="none" stroke="url(#strokeB)" stroke-width="1.49" stroke-linecap="round" stroke-linejoin="round"/><circle cx="580.7" cy="1578.1" r="3.8" fill="#22D3EE" opacity="0.45"/><circle cx="580.7" cy="148.1" r="2.1" fill="#22D3EE" opacity="0.45"/><circle cx="501.1" cy="112.2" r="2.7" fill="#22D3EE" opacity="0.45"/></g>
<g opacity="0.229" filter="url(#softGlow)"><path d="M 742.1,168.9 L 24.5,168.9 L 24.5,150.8 L 10.4,150.8 L 10.4,49.6 " fill="none" stroke="url(#strokeB)" stroke-width="1.43" stroke-linecap="round" stroke-linejoin="round"/><circle cx="10.4" cy="150.8" r="3.6" fill="#22D3EE" opacity="0.45"/><circle cx="24.5" cy="168.9" r="3.7" fill="#22D3EE" opacity="0.45"/><circle cx="742.1" cy="168.9" r="3.3" fill="#22D3EE" opacity="0.45"/></g>
<g opacity="0.229" filter="url(#softGlow)"><path d="M 116.0,37.3 L 873.8,37.3 L 873.8,1577.4 L 373.8,1577.4 L 373.8,1436.2 " fill="none" stroke="url(#strokeB)" stroke-width="1.26" stroke-linecap="round" stroke-linejoin="round"/><circle cx="373.8" cy="1577.4" r="3.2" fill="#22D3EE" opacity="0.45"/><circle cx="873.8" cy="1577.4" r="2.5" fill="#22D3EE" opacity="0.45"/><circle cx="116.0" cy="37.3" r="2.2" fill="#22D3EE" opacity="0.45"/></g>
<g opacity="0.229" filter="url(#softGlow)"><path d="M 610.1,149.5 L 424.9,149.5 L 424.9,1509.6 L 898.8,1509.6 L 898.8,1565.4 " fill="none" stroke="url(#strokeB)" stroke-width="1.77" stroke-linecap="round" stroke-linejoin="round"/><circle cx="610.1" cy="149.5" r="3.2" fill="#22D3EE" opacity="0.45"/><circle cx="424.9" cy="149.5" r="2.1" fill="#22D3EE" opacity="0.45"/><circle cx="898.8" cy="1509.6" r="2.8" fill="#22D3EE" opacity="0.45"/></g>
<g opacity="0.229" filter="url(#softGlow)"><path d="M 330.5,1488.8 L 885.6,1488.8 L 885.6,1461.0 L 748.0,1461.0 L 748.0,1471.0 " fill="none" stroke="url(#strokeB)" stroke-width="1.50" stroke-linecap="round" stroke-linejoin="round"/><circle cx="885.6" cy="1461.0" r="3.5" fill="#22D3EE" opacity="0.45"/><circle cx="748.0" cy="1471.0" r="3.6" fill="#22D3EE" opacity="0.45"/><circle cx="330.5" cy="1488.8" r="4.0" fill="#22D3EE" opacity="0.45"/></g>
<g opacity="0.229" filter="url(#softGlow)"><path d="M 68.4,1469.7 L 186.0,1469.7 L 186.0,1492.1 L 147.1,1492.1 L 147.1,297.7 " fill="none" stroke="url(#strokeB)" stroke-width="1.65" stroke-linecap="round" stroke-linejoin="round"/><circle cx="147.1" cy="297.7" r="2.8" fill="#22D3EE" opacity="0.45"/><circle cx="68.4" cy="1469.7" r="3.0" fill="#22D3EE" opacity="0.45"/><circle cx="147.1" cy="1492.1" r="3.2" fill="#22D3EE" opacity="0.45"/></g>
<g opacity="0.229" filter="url(#softGlow)"><path d="M 754.8,80.2 L 154.7,80.2 L 154.7,1376.2 L 21.0,1376.2 L 21.0,1440.2 " fill="none" stroke="url(#strokeB)" stroke-width="1.60" stroke-linecap="round" stroke-linejoin="round"/><circle cx="754.8" cy="80.2" r="2.5" fill="#22D3EE" opacity="0.45"/><circle cx="154.7" cy="1376.2" r="3.1" fill="#22D3EE" opacity="0.45"/><circle cx="21.0" cy="1376.2" r="3.4" fill="#22D3EE" opacity="0.45"/></g>
<g opacity="0.229" filter="url(#softGlow)"><path d="M 15.6,1360.6 L 776.5,1360.6 L 776.5,1573.1 L 741.2,1573.1 L 741.2,122.1 " fill="none" stroke="url(#strokeB)" stroke-width="1.31" stroke-linecap="round" stroke-linejoin="round"/><circle cx="15.6" cy="1360.6" r="3.9" fill="#22D3EE" opacity="0.45"/><circle cx="741.2" cy="122.1" r="3.2" fill="#22D3EE" opacity="0.45"/><circle cx="741.2" cy="1573.1" r="2.1" fill="#22D3EE" opacity="0.45"/></g>
<g opacity="0.229" filter="url(#softGlow)"><path d="M 861.1,726.2 L 853.2,726.2 L 853.2,1481.2 L 824.6,1481.2 L 824.6,1430.8 " fill="none" stroke="url(#strokeB)" stroke-width="1.21" stroke-linecap="round" stroke-linejoin="round"/><circle cx="824.6" cy="1481.2" r="3.7" fill="#22D3EE" opacity="0.45"/><circle cx="861.1" cy="726.2" r="2.2" fill="#22D3EE" opacity="0.45"/><circle cx="824.6" cy="1430.8" r="4.0" fill="#22D3EE" opacity="0.45"/></g>
<g opacity="0.229" filter="url(#softGlow)"><path d="M 23.2,1245.1 L 131.4,1245.1 L 131.4,157.7 L 838.8,157.7 L 838.8,1470.7 " fill="none" stroke="url(#strokeB)" stroke-width="1.12" stroke-linecap="round" stroke-linejoin="round"/><circle cx="131.4" cy="1245.1" r="2.2" fill="#22D3EE" opacity="0.45"/><circle cx="23.2" cy="1245.1" r="2.2" fill="#22D3EE" opacity="0.45"/><circle cx="838.8" cy="1470.7" r="3.1" fill="#22D3EE" opacity="0.45"/></g>
<g opacity="0.229" filter="url(#softGlow)"><path d="M 77.8,44.2 L 882.3,44.2 L 882.3,1476.6 L 780.6,1476.6 L 780.6,1457.2 " fill="none" stroke="url(#strokeB)" stroke-width="1.55" stroke-linecap="round" stroke-linejoin="round"/><circle cx="882.3" cy="1476.6" r="2.5" fill="#22D3EE" opacity="0.45"/><circle cx="77.8" cy="44.2" r="2.4" fill="#22D3EE" opacity="0.45"/><circle cx="882.3" cy="44.2" r="3.6" fill="#22D3EE" opacity="0.45"/></g>

<g opacity="0.774" filter="url(#hardGlow)">
  <circle cx="689.1" cy="62.4" r="42.4" fill="#0A1224" opacity="0.65"/>
  <circle cx="689.1" cy="62.4" r="42.4" fill="none" stroke="url(#strokeA)" stroke-width="3.4" opacity="0.85"/>
  <circle cx="689.1" cy="62.4" r="36.5" fill="none" stroke="#F59E0B" stroke-width="1.5" opacity="0.35"/>
  <polygon points="702.1,90.1 671.6,87.4 658.7,59.8 676.2,34.7 706.6,37.4 719.6,65.0" fill="none" stroke="url(#strokeB)" stroke-width="1.2" opacity="0.65"/>
  <polygon points="690.1,73.0 679.5,57.9 697.9,56.2" fill="#F59E0B" opacity="0.22" filter="url(#softGlow)"/>
</g>


<g opacity="0.469" filter="url(#hardGlow)">
  <circle cx="647.6" cy="28.2" r="22.3" fill="#0A1224" opacity="0.65"/>
  <circle cx="647.6" cy="28.2" r="22.3" fill="none" stroke="url(#strokeA)" stroke-width="2.0" opacity="0.85"/>
  <circle cx="647.6" cy="28.2" r="19.1" fill="none" stroke="#22D3EE" stroke-width="1.5" opacity="0.35"/>
  <polygon points="658.4,40.0 642.7,43.5 631.9,31.6 636.8,16.4 652.4,12.9 663.2,24.8" fill="none" stroke="url(#strokeB)" stroke-width="1.2" opacity="0.65"/>
  <polygon points="649.7,33.4 642.0,27.5 651.0,23.8" fill="#22D3EE" opacity="0.22" filter="url(#softGlow)"/>
</g>


<g opacity="0.366" filter="url(#hardGlow)">
  <circle cx="666.4" cy="47.9" r="19.6" fill="#0A1224" opacity="0.65"/>
  <circle cx="666.4" cy="47.9" r="19.6" fill="none" stroke="url(#strokeA)" stroke-width="2.0" opacity="0.85"/>
  <circle cx="666.4" cy="47.9" r="16.9" fill="none" stroke="#22D3EE" stroke-width="1.5" opacity="0.35"/>
  <polygon points="668.3,33.8 679.4,42.5 677.5,56.5 664.5,61.9 653.3,53.2 655.2,39.2" fill="none" stroke="url(#strokeB)" stroke-width="1.2" opacity="0.65"/>
  
</g>


<g opacity="0.738" filter="url(#hardGlow)">
  <circle cx="44.3" cy="597.8" r="38.4" fill="#0A1224" opacity="0.65"/>
  <circle cx="44.3" cy="597.8" r="38.4" fill="none" stroke="url(#strokeA)" stroke-width="3.1" opacity="0.85"/>
  <circle cx="44.3" cy="597.8" r="33.1" fill="none" stroke="#F59E0B" stroke-width="1.5" opacity="0.35"/>
  <polygon points="60.7,575.5 71.8,600.8 55.4,623.1 27.9,620.0 16.8,594.7 33.2,572.4" fill="none" stroke="url(#strokeB)" stroke-width="1.2" opacity="0.65"/>
  <polygon points="52.4,592.4 45.0,607.4 35.7,593.5" fill="#F59E0B" opacity="0.22" filter="url(#softGlow)"/>
</g>


<g opacity="0.518" filter="url(#hardGlow)">
  <circle cx="37.1" cy="635.5" r="18.6" fill="#0A1224" opacity="0.65"/>
  <circle cx="37.1" cy="635.5" r="18.6" fill="none" stroke="url(#strokeA)" stroke-width="2.0" opacity="0.85"/>
  <circle cx="37.1" cy="635.5" r="16.0" fill="none" stroke="#22D3EE" stroke-width="1.5" opacity="0.35"/>
  <polygon points="26.0,628.0 38.1,622.2 49.1,629.8 48.1,643.1 36.0,648.9 25.0,641.3" fill="none" stroke="url(#strokeB)" stroke-width="1.2" opacity="0.65"/>
  
</g>


<g opacity="0.587" filter="url(#hardGlow)">
  <circle cx="5.3" cy="582.4" r="14.4" fill="#0A1224" opacity="0.65"/>
  <circle cx="5.3" cy="582.4" r="14.4" fill="none" stroke="url(#strokeA)" stroke-width="2.0" opacity="0.85"/>
  <circle cx="5.3" cy="582.4" r="12.4" fill="none" stroke="#22D3EE" stroke-width="1.5" opacity="0.35"/>
  <polygon points="9.6,591.8 -0.7,590.8 -5.0,581.4 1.0,572.9 11.4,573.9 15.7,583.4" fill="none" stroke="url(#strokeB)" stroke-width="1.2" opacity="0.65"/>
  <polygon points="5.6,586.0 2.1,580.8 8.3,580.3" fill="#22D3EE" opacity="0.22" filter="url(#softGlow)"/>
</g>


<g opacity="0.375" filter="url(#hardGlow)">
  <circle cx="60.6" cy="585.9" r="14.0" fill="#0A1224" opacity="0.65"/>
  <circle cx="60.6" cy="585.9" r="14.0" fill="none" stroke="url(#strokeA)" stroke-width="2.0" opacity="0.85"/>
  <circle cx="60.6" cy="585.9" r="12.1" fill="none" stroke="#22D3EE" stroke-width="1.5" opacity="0.35"/>
  <polygon points="66.1,594.4 56.0,594.9 50.5,586.5 55.1,577.5 65.2,576.9 70.7,585.4" fill="none" stroke="url(#strokeB)" stroke-width="1.2" opacity="0.65"/>
  
</g>


<g opacity="0.764" filter="url(#hardGlow)">
  <circle cx="895.2" cy="781.8" r="54.2" fill="#0A1224" opacity="0.65"/>
  <circle cx="895.2" cy="781.8" r="54.2" fill="none" stroke="url(#strokeA)" stroke-width="4.3" opacity="0.85"/>
  <circle cx="895.2" cy="781.8" r="46.7" fill="none" stroke="#F59E0B" stroke-width="1.6" opacity="0.35"/>
  <polygon points="869.4,752.6 907.6,744.8 933.5,774.1 921.1,811.1 882.8,818.9 856.9,789.6" fill="none" stroke="url(#strokeB)" stroke-width="1.4" opacity="0.65"/>
  <polygon points="890.2,769.1 908.7,783.9 886.7,792.5" fill="#F59E0B" opacity="0.22" filter="url(#softGlow)"/>
</g>


<g opacity="0.631" filter="url(#hardGlow)">
  <circle cx="906.3" cy="792.4" r="26.7" fill="#0A1224" opacity="0.65"/>
  <circle cx="906.3" cy="792.4" r="26.7" fill="none" stroke="url(#strokeA)" stroke-width="2.1" opacity="0.85"/>
  <circle cx="906.3" cy="792.4" r="22.9" fill="none" stroke="#22D3EE" stroke-width="1.5" opacity="0.35"/>
  <polygon points="904.8,773.2 922.1,781.5 923.6,800.7 907.7,811.5 890.4,803.2 889.0,784.0" fill="none" stroke="url(#strokeB)" stroke-width="1.2" opacity="0.65"/>
  
</g>


<g opacity="0.490" filter="url(#hardGlow)">
  <circle cx="967.6" cy="836.0" r="22.3" fill="#0A1224" opacity="0.65"/>
  <circle cx="967.6" cy="836.0" r="22.3" fill="none" stroke="url(#strokeA)" stroke-width="2.0" opacity="0.85"/>
  <circle cx="967.6" cy="836.0" r="19.2" fill="none" stroke="#22D3EE" stroke-width="1.5" opacity="0.35"/>
  <polygon points="967.5,819.9 981.4,827.9 981.5,843.9 967.6,852.0 953.7,844.0 953.6,828.0" fill="none" stroke="url(#strokeB)" stroke-width="1.2" opacity="0.65"/>
  <polygon points="969.4,830.7 971.2,840.2 962.0,837.0" fill="#22D3EE" opacity="0.22" filter="url(#softGlow)"/>
</g>


<g opacity="0.641" filter="url(#hardGlow)">
  <circle cx="812.5" cy="795.6" r="26.0" fill="#0A1224" opacity="0.65"/>
  <circle cx="812.5" cy="795.6" r="26.0" fill="none" stroke="url(#strokeA)" stroke-width="2.1" opacity="0.85"/>
  <circle cx="812.5" cy="795.6" r="22.3" fill="none" stroke="#22D3EE" stroke-width="1.5" opacity="0.35"/>
  <polygon points="799.0,808.6 794.5,790.4 808.0,777.5 826.0,782.7 830.4,800.8 816.9,813.8" fill="none" stroke="url(#strokeB)" stroke-width="1.2" opacity="0.65"/>
  <polygon points="806.5,798.3 813.2,789.1 817.7,799.5" fill="#22D3EE" opacity="0.22" filter="url(#softGlow)"/>
</g>


<g opacity="0.851" filter="url(#hardGlow)">
  <circle cx="51.7" cy="73.3" r="48.0" fill="#0A1224" opacity="0.65"/>
  <circle cx="51.7" cy="73.3" r="48.0" fill="none" stroke="url(#strokeA)" stroke-width="3.8" opacity="0.85"/>
  <circle cx="51.7" cy="73.3" r="41.3" fill="none" stroke="#F59E0B" stroke-width="1.5" opacity="0.35"/>
  <polygon points="17.2,74.4 33.4,44.0 67.9,42.8 86.2,72.1 70.0,102.6 35.4,103.8" fill="none" stroke="url(#strokeB)" stroke-width="1.2" opacity="0.65"/>
  <polygon points="40.2,69.5 60.7,65.2 54.2,85.1" fill="#F59E0B" opacity="0.22" filter="url(#softGlow)"/>
</g>


<g opacity="0.441" filter="url(#hardGlow)">
  <circle cx="47.1" cy="82.7" r="25.7" fill="#0A1224" opacity="0.65"/>
  <circle cx="47.1" cy="82.7" r="25.7" fill="none" stroke="url(#strokeA)" stroke-width="2.1" opacity="0.85"/>
  <circle cx="47.1" cy="82.7" r="22.1" fill="none" stroke="#22D3EE" stroke-width="1.5" opacity="0.35"/>
  <polygon points="28.7,84.1 36.7,67.4 55.1,66.1 65.5,81.3 57.5,98.0 39.1,99.4" fill="none" stroke="url(#strokeB)" stroke-width="1.2" opacity="0.65"/>
  
</g>


<g opacity="0.552" filter="url(#hardGlow)">
  <circle cx="37.7" cy="124.0" r="20.9" fill="#0A1224" opacity="0.65"/>
  <circle cx="37.7" cy="124.0" r="20.9" fill="none" stroke="url(#strokeA)" stroke-width="2.0" opacity="0.85"/>
  <circle cx="37.7" cy="124.0" r="17.9" fill="none" stroke="#22D3EE" stroke-width="1.5" opacity="0.35"/>
  <polygon points="51.7,129.5 40.0,138.9 26.0,133.4 23.7,118.5 35.5,109.2 49.5,114.7" fill="none" stroke="url(#strokeB)" stroke-width="1.2" opacity="0.65"/>
  <polygon points="41.7,127.5 32.7,125.7 38.8,118.9" fill="#22D3EE" opacity="0.22" filter="url(#softGlow)"/>
</g>


<g opacity="0.763" filter="url(#hardGlow)">
  <circle cx="858.0" cy="611.1" r="57.9" fill="#0A1224" opacity="0.65"/>
  <circle cx="858.0" cy="611.1" r="57.9" fill="none" stroke="url(#strokeA)" stroke-width="4.6" opacity="0.85"/>
  <circle cx="858.0" cy="611.1" r="49.8" fill="none" stroke="#F59E0B" stroke-width="1.7" opacity="0.35"/>
  <polygon points="892.5,587.7 895.5,629.4 860.9,652.7 823.4,634.4 820.5,592.8 855.0,569.5" fill="none" stroke="url(#strokeB)" stroke-width="1.4" opacity="0.65"/>
  <polygon points="872.1,607.5 853.9,625.1 847.8,600.6" fill="#F59E0B" opacity="0.22" filter="url(#softGlow)"/>
</g>


<g opacity="0.379" filter="url(#hardGlow)">
  <circle cx="876.4" cy="558.8" r="23.8" fill="#0A1224" opacity="0.65"/>
  <circle cx="876.4" cy="558.8" r="23.8" fill="none" stroke="url(#strokeA)" stroke-width="2.0" opacity="0.85"/>
  <circle cx="876.4" cy="558.8" r="20.5" fill="none" stroke="#22D3EE" stroke-width="1.5" opacity="0.35"/>
  <polygon points="865.9,572.3 859.5,556.4 870.1,542.9 887.0,545.4 893.4,561.3 882.8,574.7" fill="none" stroke="url(#strokeB)" stroke-width="1.2" opacity="0.65"/>
  
</g>


<g opacity="0.485" filter="url(#hardGlow)">
  <circle cx="871.7" cy="580.2" r="26.0" fill="#0A1224" opacity="0.65"/>
  <circle cx="871.7" cy="580.2" r="26.0" fill="none" stroke="url(#strokeA)" stroke-width="2.1" opacity="0.85"/>
  <circle cx="871.7" cy="580.2" r="22.4" fill="none" stroke="#22D3EE" stroke-width="1.5" opacity="0.35"/>
  <polygon points="862.1,564.1 880.9,563.8 890.5,579.9 881.3,596.3 862.6,596.6 853.0,580.5" fill="none" stroke="url(#strokeB)" stroke-width="1.2" opacity="0.65"/>
  <polygon points="870.5,573.8 877.9,582.4 866.8,584.5" fill="#22D3EE" opacity="0.22" filter="url(#softGlow)"/>
</g>


<g opacity="0.666" filter="url(#hardGlow)">
  <circle cx="519.8" cy="113.0" r="43.9" fill="#0A1224" opacity="0.65"/>
  <circle cx="519.8" cy="113.0" r="43.9" fill="none" stroke="url(#strokeA)" stroke-width="3.5" opacity="0.85"/>
  <circle cx="519.8" cy="113.0" r="37.7" fill="none" stroke="#F59E0B" stroke-width="1.5" opacity="0.35"/>
  <polygon points="524.3,81.7 549.1,101.2 544.7,132.5 515.3,144.3 490.5,124.8 494.9,93.5" fill="none" stroke="url(#strokeB)" stroke-width="1.2" opacity="0.65"/>
  <polygon points="525.0,103.2 525.6,122.4 508.7,113.4" fill="#F59E0B" opacity="0.22" filter="url(#softGlow)"/>
</g>


<g opacity="0.450" filter="url(#hardGlow)">
  <circle cx="476.7" cy="96.7" r="23.3" fill="#0A1224" opacity="0.65"/>
  <circle cx="476.7" cy="96.7" r="23.3" fill="none" stroke="url(#strokeA)" stroke-width="2.0" opacity="0.85"/>
  <circle cx="476.7" cy="96.7" r="20.0" fill="none" stroke="#22D3EE" stroke-width="1.5" opacity="0.35"/>
  <polygon points="493.2,93.6 487.6,109.5 471.1,112.5 460.2,99.8 465.8,84.0 482.3,80.9" fill="none" stroke="url(#strokeB)" stroke-width="1.2" opacity="0.65"/>
  <polygon points="482.5,97.7 473.0,101.2 474.6,91.2" fill="#22D3EE" opacity="0.22" filter="url(#softGlow)"/>
</g>


<g opacity="0.494" filter="url(#hardGlow)">
  <circle cx="484.5" cy="153.8" r="17.4" fill="#0A1224" opacity="0.65"/>
  <circle cx="484.5" cy="153.8" r="17.4" fill="none" stroke="url(#strokeA)" stroke-width="2.0" opacity="0.85"/>
  <circle cx="484.5" cy="153.8" r="15.0" fill="none" stroke="#22D3EE" stroke-width="1.5" opacity="0.35"/>
  <polygon points="474.9,161.8 472.8,149.5 482.4,141.4 494.1,145.7 496.3,158.1 486.7,166.1" fill="none" stroke="url(#strokeB)" stroke-width="1.2" opacity="0.65"/>
  
</g>


<g opacity="0.364" filter="url(#hardGlow)">
  <circle cx="530.2" cy="70.8" r="15.5" fill="#0A1224" opacity="0.65"/>
  <circle cx="530.2" cy="70.8" r="15.5" fill="none" stroke="url(#strokeA)" stroke-width="2.0" opacity="0.85"/>
  <circle cx="530.2" cy="70.8" r="13.4" fill="none" stroke="#22D3EE" stroke-width="1.5" opacity="0.35"/>
  <polygon points="520.0,75.5 521.0,64.4 531.2,59.7 540.3,66.1 539.3,77.2 529.2,81.9" fill="none" stroke="url(#strokeB)" stroke-width="1.2" opacity="0.65"/>
  
</g>


<g opacity="0.377" transform="translate(81.5,65.1) rotate(6.5)" filter="url(#softGlow)">
  <rect x="-92.1" y="-66.3" width="184.2" height="132.6" rx="13.3" fill="#050A12" opacity="0.25"/>
  <rect x="-92.1" y="-66.3" width="184.2" height="132.6" rx="13.3" fill="none" stroke="url(#strokeA)" stroke-width="6.6" opacity="0.85"/>
  <rect x="-81.5" y="-55.7" width="162.9" height="111.4" rx="9.3" fill="none" stroke="#F59E0B" stroke-width="2.7" opacity="0.35"/>
</g>


<g opacity="0.293" transform="translate(16.1,1543.3) rotate(1.2)" filter="url(#softGlow)">
  <rect x="-97.7" y="-78.8" width="195.4" height="157.7" rx="15.8" fill="#050A12" opacity="0.25"/>
  <rect x="-97.7" y="-78.8" width="195.4" height="157.7" rx="15.8" fill="none" stroke="url(#strokeA)" stroke-width="7.9" opacity="0.85"/>
  <rect x="-85.1" y="-66.2" width="170.2" height="132.4" rx="11.0" fill="none" stroke="#F59E0B" stroke-width="3.2" opacity="0.35"/>
</g>


<g opacity="0.440" transform="translate(817.2,1575.2) rotate(-1.3)" filter="url(#softGlow)">
  <rect x="-67.2" y="-61.7" width="134.5" height="123.4" rx="12.3" fill="#050A12" opacity="0.25"/>
  <rect x="-67.2" y="-61.7" width="134.5" height="123.4" rx="12.3" fill="none" stroke="url(#strokeA)" stroke-width="6.2" opacity="0.85"/>
  <rect x="-57.4" y="-51.8" width="114.7" height="103.6" rx="8.6" fill="none" stroke="#F59E0B" stroke-width="2.5" opacity="0.35"/>
</g>


<g opacity="0.269" transform="translate(760.9,113.3) rotate(4.9)" filter="url(#softGlow)">
  <rect x="-28.8" y="-16.6" width="57.6" height="33.2" rx="10.1" fill="none" stroke="#F59E0B" stroke-width="5.5" opacity="0.55"/>
  <rect x="-12.7" y="-8.3" width="57.6" height="33.2" rx="10.1" fill="none" stroke="url(#strokeA)" stroke-width="4.6" opacity="0.55"/>
</g>


<g opacity="0.329" transform="translate(88.9,1454.1) rotate(-15.9)" filter="url(#softGlow)">
  <rect x="-29.0" y="-16.7" width="58.0" height="33.4" rx="10.2" fill="none" stroke="#22D3EE" stroke-width="5.6" opacity="0.55"/>
  <rect x="-12.8" y="-8.4" width="58.0" height="33.4" rx="10.2" fill="none" stroke="url(#strokeA)" stroke-width="4.6" opacity="0.55"/>
</g>


<g opacity="0.352" transform="translate(148.0,1116.0) rotate(-12.3)" filter="url(#softGlow)">
  <rect x="-50.1" y="-28.9" width="100.3" height="57.7" rx="17.6" fill="none" stroke="#22D3EE" stroke-width="9.6" opacity="0.55"/>
  <rect x="-22.1" y="-14.4" width="100.3" height="57.7" rx="17.6" fill="none" stroke="url(#strokeA)" stroke-width="8.0" opacity="0.55"/>
</g>


<g opacity="0.335" transform="translate(417.4,1532.3) rotate(15.3)" filter="url(#softGlow)">
  <rect x="-43.7" y="-25.2" width="87.4" height="50.4" rx="15.4" fill="none" stroke="#F59E0B" stroke-width="8.4" opacity="0.55"/>
  <rect x="-19.2" y="-12.6" width="87.4" height="50.4" rx="15.4" fill="none" stroke="url(#strokeA)" stroke-width="7.0" opacity="0.55"/>
</g>


<g opacity="0.467" transform="translate(874.6,1488.3) rotate(-15.9)" filter="url(#softGlow)">
  <rect x="-33.0" y="-19.0" width="66.0" height="38.0" rx="11.6" fill="none" stroke="#22D3EE" stroke-width="6.3" opacity="0.55"/>
  <rect x="-14.5" y="-9.5" width="66.0" height="38.0" rx="11.6" fill="none" stroke="url(#strokeA)" stroke-width="5.3" opacity="0.55"/>
</g>


<g opacity="0.445" transform="translate(151.0,1531.1) rotate(-7.7)" filter="url(#softGlow)">
  <rect x="-44.5" y="-25.6" width="89.1" height="51.3" rx="15.7" fill="none" stroke="#22D3EE" stroke-width="8.5" opacity="0.55"/>
  <rect x="-19.6" y="-12.8" width="89.1" height="51.3" rx="15.7" fill="none" stroke="url(#strokeA)" stroke-width="7.1" opacity="0.55"/>
</g>


<g opacity="0.336" transform="translate(169.1,1443.9) rotate(-5.0)" filter="url(#softGlow)">
  <rect x="-34.0" y="-19.6" width="68.0" height="39.2" rx="12.0" fill="none" stroke="#F59E0B" stroke-width="6.5" opacity="0.55"/>
  <rect x="-15.0" y="-9.8" width="68.0" height="39.2" rx="12.0" fill="none" stroke="url(#strokeA)" stroke-width="5.4" opacity="0.55"/>
</g>


<g opacity="0.298" transform="translate(869.8,1585.6) rotate(-12.6)" filter="url(#softGlow)">
  <rect x="-41.4" y="-23.9" width="82.8" height="47.7" rx="14.6" fill="none" stroke="#F59E0B" stroke-width="8.0" opacity="0.55"/>
  <rect x="-18.2" y="-11.9" width="82.8" height="47.7" rx="14.6" fill="none" stroke="url(#strokeA)" stroke-width="6.6" opacity="0.55"/>
</g>


<g opacity="0.275" transform="translate(444.7,164.7) rotate(8.3)" filter="url(#softGlow)">
  <rect x="-40.7" y="-23.5" width="81.5" height="46.9" rx="14.3" fill="none" stroke="#22D3EE" stroke-width="7.8" opacity="0.55"/>
  <rect x="-17.9" y="-11.7" width="81.5" height="46.9" rx="14.3" fill="none" stroke="url(#strokeA)" stroke-width="6.5" opacity="0.55"/>
</g>


<g opacity="0.353" transform="translate(121.5,1573.8) rotate(16.2)" filter="url(#softGlow)">
  <rect x="-30.1" y="-17.3" width="60.2" height="34.7" rx="10.6" fill="none" stroke="#22D3EE" stroke-width="5.8" opacity="0.55"/>
  <rect x="-13.2" y="-8.7" width="60.2" height="34.7" rx="10.6" fill="none" stroke="url(#strokeA)" stroke-width="4.8" opacity="0.55"/>
</g>


<g opacity="0.180">
  <line x1="645.7" y1="1417.3" x2="645.7" y2="1511.0" stroke="#22D3EE" stroke-width="1.15" opacity="0.45"/>
  <rect x="641.3" y="1465.6" width="8.8" height="53.3" rx="2.9" fill="#0B1020" opacity="0.55" stroke="url(#strokeA)" stroke-width="1.2"/>
</g>

<g opacity="0.180">
  <line x1="576.7" y1="1399.1" x2="576.7" y2="1515.5" stroke="#22D3EE" stroke-width="1.37" opacity="0.45"/>
  <rect x="572.2" y="1464.2" width="9.0" height="56.0" rx="3.0" fill="#0B1020" opacity="0.55" stroke="url(#strokeA)" stroke-width="1.2"/>
</g>

<g opacity="0.180">
  <line x1="769.6" y1="1404.5" x2="769.6" y2="1514.2" stroke="#22D3EE" stroke-width="1.71" opacity="0.45"/>
  <rect x="764.2" y="1465.9" width="10.8" height="52.7" rx="3.6" fill="#0B1020" opacity="0.55" stroke="url(#strokeA)" stroke-width="1.2"/>
</g>

<g opacity="0.180">
  <line x1="38.1" y1="1412.6" x2="38.1" y2="1512.1" stroke="#22D3EE" stroke-width="1.26" opacity="0.45"/>
  <rect x="33.7" y="1470.2" width="8.6" height="44.0" rx="2.9" fill="#0B1020" opacity="0.55" stroke="url(#strokeA)" stroke-width="1.2"/>
</g>

<g opacity="0.180">
  <line x1="788.4" y1="1436.9" x2="788.4" y2="1506.1" stroke="#22D3EE" stroke-width="2.07" opacity="0.45"/>
  <rect x="783.3" y="1478.4" width="10.3" height="27.7" rx="3.4" fill="#0B1020" opacity="0.55" stroke="url(#strokeA)" stroke-width="1.2"/>
</g>

<g opacity="0.180">
  <line x1="251.4" y1="1435.7" x2="251.4" y2="1506.4" stroke="#22D3EE" stroke-width="1.58" opacity="0.45"/>
  <rect x="246.1" y="1472.0" width="10.5" height="40.4" rx="3.5" fill="#0B1020" opacity="0.55" stroke="url(#strokeA)" stroke-width="1.2"/>
</g>

<g opacity="0.180">
  <line x1="724.6" y1="1430.4" x2="724.6" y2="1507.7" stroke="#22D3EE" stroke-width="1.82" opacity="0.45"/>
  <rect x="719.4" y="1468.5" width="10.6" height="47.4" rx="3.5" fill="#0B1020" opacity="0.55" stroke="url(#strokeA)" stroke-width="1.2"/>
</g>

<g opacity="0.180">
  <line x1="674.6" y1="1447.5" x2="674.6" y2="1503.4" stroke="#22D3EE" stroke-width="1.19" opacity="0.45"/>
  <rect x="670.4" y="1482.7" width="8.5" height="19.0" rx="2.8" fill="#0B1020" opacity="0.55" stroke="url(#strokeA)" stroke-width="1.2"/>
</g>

<g opacity="0.180">
  <line x1="444.4" y1="1416.6" x2="444.4" y2="1511.1" stroke="#22D3EE" stroke-width="1.49" opacity="0.45"/>
  <rect x="440.6" y="1465.0" width="7.7" height="54.5" rx="2.6" fill="#0B1020" opacity="0.55" stroke="url(#strokeA)" stroke-width="1.2"/>
</g>

<g opacity="0.180">
  <line x1="177.3" y1="1416.8" x2="177.3" y2="1511.1" stroke="#22D3EE" stroke-width="1.23" opacity="0.45"/>
  <rect x="172.9" y="1467.2" width="9.0" height="50.1" rx="3.0" fill="#0B1020" opacity="0.55" stroke="url(#strokeA)" stroke-width="1.2"/>
</g>

<g opacity="0.180">
  <line x1="607.0" y1="1460.1" x2="607.0" y2="1500.3" stroke="#22D3EE" stroke-width="1.26" opacity="0.45"/>
  <rect x="603.9" y="1482.2" width="6.2" height="20.0" rx="2.1" fill="#0B1020" opacity="0.55" stroke="url(#strokeA)" stroke-width="1.2"/>
</g>
<circle cx="196.3" cy="1443.2" r="2.2" fill="#F59E0B" opacity="0.20" filter="url(#softGlow)"/>
<circle cx="890.4" cy="1481.2" r="1.6" fill="#F59E0B" opacity="0.14" filter="url(#softGlow)"/>
<circle cx="875.6" cy="239.7" r="1.6" fill="#F59E0B" opacity="0.15" filter="url(#softGlow)"/>
<circle cx="794.6" cy="1521.4" r="2.9" fill="#F59E0B" opacity="0.16" filter="url(#softGlow)"/>
<circle cx="155.2" cy="170.0" r="3.1" fill="#F59E0B" opacity="0.15" filter="url(#softGlow)"/>
<circle cx="630.9" cy="1470.9" r="2.3" fill="#F59E0B" opacity="0.16" filter="url(#softGlow)"/>
<circle cx="804.3" cy="160.1" r="2.1" fill="#F59E0B" opacity="0.26" filter="url(#softGlow)"/>
<circle cx="18.8" cy="921.3" r="3.1" fill="#F59E0B" opacity="0.18" filter="url(#softGlow)"/>
<circle cx="881.9" cy="73.3" r="2.0" fill="#F59E0B" opacity="0.14" filter="url(#softGlow)"/>
<circle cx="26.3" cy="65.8" r="2.8" fill="#F59E0B" opacity="0.15" filter="url(#softGlow)"/>
<circle cx="795.5" cy="128.9" r="2.1" fill="#F59E0B" opacity="0.21" filter="url(#softGlow)"/>
<circle cx="105.0" cy="99.2" r="1.8" fill="#F59E0B" opacity="0.13" filter="url(#softGlow)"/>
<circle cx="21.8" cy="1255.1" r="2.1" fill="#F59E0B" opacity="0.27" filter="url(#softGlow)"/>
<circle cx="166.5" cy="58.1" r="1.7" fill="#F59E0B" opacity="0.19" filter="url(#softGlow)"/>
<circle cx="170.9" cy="86.3" r="3.2" fill="#F59E0B" opacity="0.17" filter="url(#softGlow)"/>
<circle cx="772.6" cy="265.1" r="1.9" fill="#F59E0B" opacity="0.12" filter="url(#softGlow)"/>
<circle cx="850.6" cy="1082.3" r="2.0" fill="#F59E0B" opacity="0.20" filter="url(#softGlow)"/>
<circle cx="3.1" cy="1554.4" r="1.9" fill="#F59E0B" opacity="0.12" filter="url(#softGlow)"/>
</svg>