<svg xmlns="http://www.w3.org/2000/svg" width="900" height="1600" viewBox="0 0 900 1600" preserveAspectRatio="xMidYMid slice">
<defs>
  <linearGradient id="g0" x1="0" y1="0" x2="1" y2="1">
    <stop offset="0" stop-color="#0B1020"/>
    <stop offset="0.55" stop-color="#F97316" stop-opacity="0.9"/>
    <stop offset="1" stop-color="#020617"/>
  </linearGradient>
  <radialGradient id="g1" cx="20%" cy="15%" r="70%">
    <stop offset="0" stop-color="#06B6D4" stop-opacity="0.38"/>
    <stop offset="0.6" stop-color="#06B6D4" stop-opacity="0.08"/>
    <stop offset="1" stop-color="#06B6D4" stop-opacity="0"/>
  </radialGradient>
  <radialGradient id="g2" cx="85%" cy="80%" r="75%">
    <stop offset="0" stop-color="#06B6D4" stop-opacity="0.28"/>
    <stop offset="0.65" stop-color="#06B6D4" stop-opacity="0.06"/>
    <stop offset="1" stop-color="#06B6D4" stop-opacity="0"/>
  </radialGradient>
  <filter id="softGlow" x="-30%" y="-30%" width="160%" height="160%">
    <feGaussianBlur stdDeviation="12" result="b"/>
    <feMerge>
      <feMergeNode in="b"/>
      <feMergeNode in="SourceGraphic"/>
    </feMerge>
  </filter>
  <filter id="hardGlow" x="-40%" y="-40%" width="180%" height="180%">
    <feGaussianBlur stdDeviation="6" result="b"/>
    <feColorMatrix in="b" type="matrix" values="1 0 0 0 0  0 1 0 0 0  0 0 1 0 0  0 0 0 18 -7" result="c"/>
    <feMerge>
      <feMergeNode in="c"/>
      <feMergeNode in="SourceGraphic"/>
    </feMerge>
  </filter>
  <linearGradient id="strokeA" x1="0" y1="0" x2="1" y2="0">
    <stop offset="0" stop-color="#06B6D4" stop-opacity="0.9"/>
    <stop offset="0.5" stop-color="#FFFFFF" stop-opacity="0.25"/>
    <stop offset="1" stop-color="#06B6D4" stop-opacity="0.7"/>
  </linearGradient>
  <linearGradient id="strokeB" x1="0" y1="0" x2="0" y2="1">
    <stop offset="0" stop-color="#FFFFFF" stop-opacity="0.18"/>
    <stop offset="1" stop-color="#06B6D4" stop-opacity="0.55"/>
  </linearGradient>
</defs>
<rect x="0" y="0" width="900" height="1600" fill="url(#g0)"/>
<rect x="0" y="0" width="900" height="1600" fill="url(#g1)"/>
<rect x="0" y="0" width="900" height="1600" fill="url(#g2)"/>


<defs>
  <radialGradient id="vign" cx="0.5000" cy="0.5000" r="0.85">
    <stop offset="0" stop-color="#000000" stop-opacity="0"/>
    <stop offset="0.55" stop-color="#000000" stop-opacity="0.217"/>
    <stop offset="1" stop-color="#000000" stop-opacity="0.620"/>
  </radialGradient>
</defs>
<rect x="0" y="0" width="900" height="1600" fill="url(#vign)"/>

<g opacity="0.194" filter="url(#softGlow)"><path d="M 50.6,1550.6 L 809.4,1550.6 L 809.4,1567.2 L 834.7,1567.2 L 834.7,29.9 " fill="none" stroke="url(#strokeB)" stroke-width="1.24" stroke-linecap="round" stroke-linejoin="round"/><circle cx="834.7" cy="1567.2" r="3.5" fill="#A3E635" opacity="0.45"/><circle cx="834.7" cy="29.9" r="2.3" fill="#A3E635" opacity="0.45"/><circle cx="809.4" cy="1550.6" r="3.1" fill="#A3E635" opacity="0.45"/></g>
<g opacity="0.194" filter="url(#softGlow)"><path d="M 271.2,1563.4 L 88.0,1563.4 L 88.0,1551.4 L 88.0,1551.4 L 88.0,1457.9 " fill="none" stroke="url(#strokeB)" stroke-width="1.66" stroke-linecap="round" stroke-linejoin="round"/><circle cx="88.0" cy="1563.4" r="4.1" fill="#A3E635" opacity="0.45"/><circle cx="88.0" cy="1551.4" r="2.2" fill="#A3E635" opacity="0.45"/><circle cx="88.0" cy="1457.9" r="3.8" fill="#A3E635" opacity="0.45"/></g>
<g opacity="0.194" filter="url(#softGlow)"><path d="M 152.8,89.9 L 869.6,89.9 L 869.6,1471.2 L 274.3,1471.2 L 274.3,174.4 " fill="none" stroke="url(#strokeB)" stroke-width="2.19" stroke-linecap="round" stroke-linejoin="round"/><circle cx="152.8" cy="89.9" r="4.0" fill="#A3E635" opacity="0.45"/><circle cx="274.3" cy="1471.2" r="2.3" fill="#A3E635" opacity="0.45"/><circle cx="869.6" cy="1471.2" r="3.3" fill="#A3E635" opacity="0.45"/></g>
<g opacity="0.194" filter="url(#softGlow)"><path d="M 798.1,1204.9 L 41.0,1204.9 L 41.0,658.7 L 832.0,658.7 L 832.0,1517.5 " fill="none" stroke="url(#strokeB)" stroke-width="1.22" stroke-linecap="round" stroke-linejoin="round"/><circle cx="832.0" cy="1517.5" r="3.5" fill="#A3E635" opacity="0.45"/><circle cx="41.0" cy="1204.9" r="2.7" fill="#A3E635" opacity="0.45"/><circle cx="798.1" cy="1204.9" r="2.2" fill="#A3E635" opacity="0.45"/></g>
<g opacity="0.194" filter="url(#softGlow)"><path d="M 47.8,1461.7 L 32.4,1461.7 L 32.4,147.8 L 167.3,147.8 L 167.3,148.3 " fill="none" stroke="url(#strokeB)" stroke-width="2.07" stroke-linecap="round" stroke-linejoin="round"/><circle cx="167.3" cy="148.3" r="3.6" fill="#A3E635" opacity="0.45"/><circle cx="32.4" cy="147.8" r="3.9" fill="#A3E635" opacity="0.45"/><circle cx="47.8" cy="1461.7" r="2.3" fill="#A3E635" opacity="0.45"/></g>
<g opacity="0.194" filter="url(#softGlow)"><path d="M 31.4,1478.9 L 22.2,1478.9 L 22.2,1579.7 L 744.5,1579.7 L 744.5,161.2 " fill="none" stroke="url(#strokeB)" stroke-width="1.32" stroke-linecap="round" stroke-linejoin="round"/><circle cx="22.2" cy="1478.9" r="2.2" fill="#A3E635" opacity="0.45"/><circle cx="31.4" cy="1478.9" r="3.3" fill="#A3E635" opacity="0.45"/><circle cx="22.2" cy="1579.7" r="3.8" fill="#A3E635" opacity="0.45"/></g>
<g opacity="0.194" filter="url(#softGlow)"><path d="M 766.8,118.5 L 123.1,118.5 L 123.1,653.7 L 365.0,653.7 L 365.0,151.5 " fill="none" stroke="url(#strokeB)" stroke-width="2.18" stroke-linecap="round" stroke-linejoin="round"/><circle cx="766.8" cy="118.5" r="3.9" fill="#A3E635" opacity="0.45"/><circle cx="123.1" cy="653.7" r="3.5" fill="#A3E635" opacity="0.45"/><circle cx="123.1" cy="118.5" r="3.1" fill="#A3E635" opacity="0.45"/></g>
<g opacity="0.194" filter="url(#softGlow)"><path d="M 639.6,40.5 L 100.3,40.5 L 100.3,1568.6 L 754.4,1568.6 L 754.4,1076.2 " fill="none" stroke="url(#strokeB)" stroke-width="1.65" stroke-linecap="round" stroke-linejoin="round"/><circle cx="754.4" cy="1076.2" r="3.1" fill="#A3E635" opacity="0.45"/><circle cx="639.6" cy="40.5" r="3.0" fill="#A3E635" opacity="0.45"/><circle cx="100.3" cy="40.5" r="2.6" fill="#A3E635" opacity="0.45"/></g>
<g opacity="0.194" filter="url(#softGlow)"><path d="M 790.2,1317.1 L 866.6,1317.1 L 866.6,172.6 L 749.2,172.6 L 749.2,1524.3 " fill="none" stroke="url(#strokeB)" stroke-width="1.21" stroke-linecap="round" stroke-linejoin="round"/><circle cx="866.6" cy="172.6" r="3.2" fill="#A3E635" opacity="0.45"/><circle cx="790.2" cy="1317.1" r="4.0" fill="#A3E635" opacity="0.45"/><circle cx="749.2" cy="172.6" r="4.0" fill="#A3E635" opacity="0.45"/></g>
<g opacity="0.194" filter="url(#softGlow)"><path d="M 785.4,3.8 L 850.5,3.8 L 850.5,916.1 L 736.9,916.1 L 736.9,109.1 " fill="none" stroke="url(#strokeB)" stroke-width="1.26" stroke-linecap="round" stroke-linejoin="round"/><circle cx="850.5" cy="916.1" r="2.6" fill="#A3E635" opacity="0.45"/><circle cx="785.4" cy="3.8" r="2.1" fill="#A3E635" opacity="0.45"/><circle cx="736.9" cy="109.1" r="3.1" fill="#A3E635" opacity="0.45"/></g>
<g opacity="0.194" filter="url(#softGlow)"><path d="M 614.4,139.4 L 828.7,139.4 L 828.7,123.6 L 886.4,123.6 L 886.4,72.5 " fill="none" stroke="url(#strokeB)" stroke-width="1.34" stroke-linecap="round" stroke-linejoin="round"/><circle cx="828.7" cy="139.4" r="3.6" fill="#A3E635" opacity="0.45"/><circle cx="886.4" cy="72.5" r="3.9" fill="#A3E635" opacity="0.45"/><circle cx="614.4" cy="139.4" r="2.1" fill="#A3E635" opacity="0.45"/></g>
<g opacity="0.194" filter="url(#softGlow)"><path d="M 339.4,84.1 L 830.0,84.1 L 830.0,147.2 L 462.4,147.2 L 462.4,1476.7 " fill="none" stroke="url(#strokeB)" stroke-width="1.28" stroke-linecap="round" stroke-linejoin="round"/><circle cx="462.4" cy="147.2" r="3.8" fill="#A3E635" opacity="0.45"/><circle cx="462.4" cy="1476.7" r="3.4" fill="#A3E635" opacity="0.45"/><circle cx="339.4" cy="84.1" r="3.2" fill="#A3E635" opacity="0.45"/></g>
<g opacity="0.194" filter="url(#softGlow)"><path d="M 568.2,1426.5 L 77.7,1426.5 L 77.7,1453.8 L 803.9,1453.8 L 803.9,258.1 " fill="none" stroke="url(#strokeB)" stroke-width="1.48" stroke-linecap="round" stroke-linejoin="round"/><circle cx="803.9" cy="1453.8" r="2.4" fill="#A3E635" opacity="0.45"/><circle cx="77.7" cy="1453.8" r="2.5" fill="#A3E635" opacity="0.45"/><circle cx="568.2" cy="1426.5" r="4.1" fill="#A3E635" opacity="0.45"/></g>
<g opacity="0.194" filter="url(#softGlow)"><path d="M 420.2,1514.2 L 745.5,1514.2 L 745.5,1519.9 L 785.5,1519.9 L 785.5,1352.6 " fill="none" stroke="url(#strokeB)" stroke-width="2.20" stroke-linecap="round" stroke-linejoin="round"/><circle cx="785.5" cy="1352.6" r="2.8" fill="#A3E635" opacity="0.45"/><circle cx="745.5" cy="1514.2" r="4.0" fill="#A3E635" opacity="0.45"/><circle cx="785.5" cy="1519.9" r="2.6" fill="#A3E635" opacity="0.45"/></g>
<g opacity="0.194" filter="url(#softGlow)"><path d="M 277.2,63.1 L 296.8,63.1 L 296.8,1521.8 L 807.7,1521.8 L 807.7,124.2 " fill="none" stroke="url(#strokeB)" stroke-width="2.12" stroke-linecap="round" stroke-linejoin="round"/><circle cx="296.8" cy="1521.8" r="3.0" fill="#A3E635" opacity="0.45"/><circle cx="807.7" cy="124.2" r="2.7" fill="#A3E635" opacity="0.45"/><circle cx="296.8" cy="63.1" r="3.7" fill="#A3E635" opacity="0.45"/></g>
<g opacity="0.194" filter="url(#softGlow)"><path d="M 8.6,156.2 L 20.3,156.2 L 20.3,1584.0 L 177.5,1584.0 L 177.5,1534.8 " fill="none" stroke="url(#strokeB)" stroke-width="2.07" stroke-linecap="round" stroke-linejoin="round"/><circle cx="177.5" cy="1584.0" r="4.0" fill="#A3E635" opacity="0.45"/><circle cx="20.3" cy="1584.0" r="3.3" fill="#A3E635" opacity="0.45"/><circle cx="177.5" cy="1534.8" r="2.3" fill="#A3E635" opacity="0.45"/></g>

<g opacity="0.780" filter="url(#hardGlow)">
  <circle cx="880.9" cy="1563.1" r="57.7" fill="#0A1224" opacity="0.65"/>
  <circle cx="880.9" cy="1563.1" r="57.7" fill="none" stroke="url(#strokeA)" stroke-width="4.6" opacity="0.85"/>
  <circle cx="880.9" cy="1563.1" r="49.6" fill="none" stroke="#06B6D4" stroke-width="1.7" opacity="0.35"/>
  <polygon points="917.7,1582.4 882.7,1604.6 845.8,1585.3 844.1,1543.8 879.2,1521.6 916.0,1540.8" fill="none" stroke="url(#strokeB)" stroke-width="1.4" opacity="0.65"/>
  <polygon points="890.7,1573.8 866.7,1566.2 885.3,1549.2" fill="#06B6D4" opacity="0.22" filter="url(#softGlow)"/>
</g>


<g opacity="0.520" filter="url(#hardGlow)">
  <circle cx="966.6" cy="1580.2" r="27.6" fill="#0A1224" opacity="0.65"/>
  <circle cx="966.6" cy="1580.2" r="27.6" fill="none" stroke="url(#strokeA)" stroke-width="2.2" opacity="0.85"/>
  <circle cx="966.6" cy="1580.2" r="23.7" fill="none" stroke="#A3E635" stroke-width="1.5" opacity="0.35"/>
  <polygon points="985.8,1575.2 980.6,1594.4 961.4,1599.4 947.4,1585.2 952.7,1566.1 971.9,1561.1" fill="none" stroke="url(#strokeB)" stroke-width="1.2" opacity="0.65"/>
  
</g>


<g opacity="0.506" filter="url(#hardGlow)">
  <circle cx="793.0" cy="1524.1" r="29.7" fill="#0A1224" opacity="0.65"/>
  <circle cx="793.0" cy="1524.1" r="29.7" fill="none" stroke="url(#strokeA)" stroke-width="2.4" opacity="0.85"/>
  <circle cx="793.0" cy="1524.1" r="25.5" fill="none" stroke="#A3E635" stroke-width="1.5" opacity="0.35"/>
  <polygon points="781.8,1505.9 803.2,1505.3 814.4,1523.5 804.2,1542.3 782.8,1542.9 771.6,1524.7" fill="none" stroke="url(#strokeB)" stroke-width="1.2" opacity="0.65"/>
  <polygon points="791.5,1516.8 800.1,1526.4 787.4,1529.0" fill="#A3E635" opacity="0.22" filter="url(#softGlow)"/>
</g>


<g opacity="0.384" filter="url(#hardGlow)">
  <circle cx="864.7" cy="1546.4" r="30.9" fill="#0A1224" opacity="0.65"/>
  <circle cx="864.7" cy="1546.4" r="30.9" fill="none" stroke="url(#strokeA)" stroke-width="2.5" opacity="0.85"/>
  <circle cx="864.7" cy="1546.4" r="26.5" fill="none" stroke="#A3E635" stroke-width="1.5" opacity="0.35"/>
  <polygon points="842.7,1549.4 851.1,1528.8 873.1,1525.8 886.7,1543.4 878.3,1563.9 856.3,1566.9" fill="none" stroke="url(#strokeB)" stroke-width="1.2" opacity="0.65"/>
  
</g>


<g opacity="0.674" filter="url(#hardGlow)">
  <circle cx="59.7" cy="677.1" r="34.7" fill="#0A1224" opacity="0.65"/>
  <circle cx="59.7" cy="677.1" r="34.7" fill="none" stroke="url(#strokeA)" stroke-width="2.8" opacity="0.85"/>
  <circle cx="59.7" cy="677.1" r="29.8" fill="none" stroke="#06B6D4" stroke-width="1.5" opacity="0.35"/>
  <polygon points="70.1,654.4 84.6,674.7 74.2,697.4 49.4,699.8 34.9,679.5 45.3,656.8" fill="none" stroke="url(#strokeB)" stroke-width="1.2" opacity="0.65"/>
  <polygon points="65.9,670.9 62.1,685.5 51.3,674.9" fill="#06B6D4" opacity="0.22" filter="url(#softGlow)"/>
</g>


<g opacity="0.523" filter="url(#hardGlow)">
  <circle cx="80.7" cy="687.7" r="15.5" fill="#0A1224" opacity="0.65"/>
  <circle cx="80.7" cy="687.7" r="15.5" fill="none" stroke="url(#strokeA)" stroke-width="2.0" opacity="0.85"/>
  <circle cx="80.7" cy="687.7" r="13.3" fill="none" stroke="#A3E635" stroke-width="1.5" opacity="0.35"/>
  <polygon points="84.5,677.2 91.7,685.8 87.9,696.3 76.9,698.2 69.7,689.7 73.5,679.2" fill="none" stroke="url(#strokeB)" stroke-width="1.2" opacity="0.65"/>
  <polygon points="83.2,684.7 82.0,691.4 76.8,687.1" fill="#A3E635" opacity="0.22" filter="url(#softGlow)"/>
</g>


<g opacity="0.490" filter="url(#hardGlow)">
  <circle cx="50.0" cy="707.9" r="13.3" fill="#0A1224" opacity="0.65"/>
  <circle cx="50.0" cy="707.9" r="13.3" fill="none" stroke="url(#strokeA)" stroke-width="2.0" opacity="0.85"/>
  <circle cx="50.0" cy="707.9" r="11.4" fill="none" stroke="#A3E635" stroke-width="1.5" opacity="0.35"/>
  <polygon points="58.9,711.6 51.3,717.4 42.4,713.7 41.2,704.2 48.8,698.4 57.6,702.1" fill="none" stroke="url(#strokeB)" stroke-width="1.2" opacity="0.65"/>
  <polygon points="52.5,710.2 46.8,708.9 50.7,704.6" fill="#A3E635" opacity="0.22" filter="url(#softGlow)"/>
</g>


<g opacity="0.881" filter="url(#hardGlow)">
  <circle cx="771.6" cy="392.6" r="41.0" fill="#0A1224" opacity="0.65"/>
  <circle cx="771.6" cy="392.6" r="41.0" fill="none" stroke="url(#strokeA)" stroke-width="3.3" opacity="0.85"/>
  <circle cx="771.6" cy="392.6" r="35.2" fill="none" stroke="#06B6D4" stroke-width="1.5" opacity="0.35"/>
  <polygon points="742.8,386.2 762.8,364.5 791.6,370.9 800.4,399.0 780.5,420.7 751.7,414.3" fill="none" stroke="url(#strokeB)" stroke-width="1.2" opacity="0.65"/>
  <polygon points="762.9,387.1 780.8,387.8 771.2,402.9" fill="#06B6D4" opacity="0.22" filter="url(#softGlow)"/>
</g>


<g opacity="0.462" filter="url(#hardGlow)">
  <circle cx="818.8" cy="418.2" r="14.9" fill="#0A1224" opacity="0.65"/>
  <circle cx="818.8" cy="418.2" r="14.9" fill="none" stroke="url(#strokeA)" stroke-width="2.0" opacity="0.85"/>
  <circle cx="818.8" cy="418.2" r="12.8" fill="none" stroke="#A3E635" stroke-width="1.5" opacity="0.35"/>
  <polygon points="821.5,428.6 811.1,425.7 808.5,415.3 816.1,407.8 826.5,410.7 829.2,421.1" fill="none" stroke="url(#strokeB)" stroke-width="1.2" opacity="0.65"/>
  <polygon points="818.4,422.0 815.7,416.0 822.2,416.7" fill="#A3E635" opacity="0.22" filter="url(#softGlow)"/>
</g>


<g opacity="0.869" filter="url(#hardGlow)">
  <circle cx="812.1" cy="448.7" r="58.2" fill="#0A1224" opacity="0.65"/>
  <circle cx="812.1" cy="448.7" r="58.2" fill="none" stroke="url(#strokeA)" stroke-width="4.7" opacity="0.85"/>
  <circle cx="812.1" cy="448.7" r="50.0" fill="none" stroke="#06B6D4" stroke-width="1.7" opacity="0.35"/>
  <polygon points="796.8,487.7 770.7,454.9 786.0,415.9 827.4,409.7 853.5,442.5 838.2,481.5" fill="none" stroke="url(#strokeB)" stroke-width="1.5" opacity="0.65"/>
  <polygon points="802.4,459.7 807.4,434.8 826.5,451.6" fill="#06B6D4" opacity="0.22" filter="url(#softGlow)"/>
</g>


<g opacity="0.439" filter="url(#hardGlow)">
  <circle cx="786.9" cy="457.0" r="24.2" fill="#0A1224" opacity="0.65"/>
  <circle cx="786.9" cy="457.0" r="24.2" fill="none" stroke="url(#strokeA)" stroke-width="2.0" opacity="0.85"/>
  <circle cx="786.9" cy="457.0" r="20.8" fill="none" stroke="#A3E635" stroke-width="1.5" opacity="0.35"/>
  <polygon points="790.2,439.9 803.4,451.3 800.1,468.4 783.6,474.1 770.4,462.7 773.7,445.6" fill="none" stroke="url(#strokeB)" stroke-width="1.2" opacity="0.65"/>
  
</g>


<g opacity="0.285" transform="translate(102.8,418.2) rotate(5.3)" filter="url(#softGlow)">
  <rect x="-65.8" y="-56.6" width="131.6" height="113.2" rx="11.3" fill="#050A12" opacity="0.25"/>
  <rect x="-65.8" y="-56.6" width="131.6" height="113.2" rx="11.3" fill="none" stroke="url(#strokeA)" stroke-width="5.7" opacity="0.85"/>
  <rect x="-56.8" y="-47.5" width="113.5" height="95.1" rx="7.9" fill="none" stroke="#A3E635" stroke-width="2.3" opacity="0.35"/>
</g>


<g opacity="0.435" transform="translate(745.1,89.8) rotate(-4.1)" filter="url(#softGlow)">
  <rect x="-87.0" y="-67.2" width="173.9" height="134.5" rx="13.4" fill="#050A12" opacity="0.25"/>
  <rect x="-87.0" y="-67.2" width="173.9" height="134.5" rx="13.4" fill="none" stroke="url(#strokeA)" stroke-width="6.7" opacity="0.85"/>
  <rect x="-76.2" y="-56.5" width="152.4" height="113.0" rx="9.4" fill="none" stroke="#06B6D4" stroke-width="2.7" opacity="0.35"/>
</g>


<g opacity="0.407" transform="translate(871.7,1573.3) rotate(-7.1)" filter="url(#softGlow)">
  <rect x="-94.4" y="-88.7" width="188.8" height="177.3" rx="17.7" fill="#050A12" opacity="0.25"/>
  <rect x="-94.4" y="-88.7" width="188.8" height="177.3" rx="17.7" fill="none" stroke="url(#strokeA)" stroke-width="8.9" opacity="0.85"/>
  <rect x="-80.2" y="-74.5" width="160.5" height="148.9" rx="12.4" fill="none" stroke="#A3E635" stroke-width="3.5" opacity="0.35"/>
</g>


<g opacity="0.376" transform="translate(651.9,1465.5) rotate(1.6)" filter="url(#softGlow)">
  <rect x="-72.7" y="-53.3" width="145.4" height="106.5" rx="10.7" fill="#050A12" opacity="0.25"/>
  <rect x="-72.7" y="-53.3" width="145.4" height="106.5" rx="10.7" fill="none" stroke="url(#strokeA)" stroke-width="5.3" opacity="0.85"/>
  <rect x="-64.2" y="-44.7" width="128.3" height="89.5" rx="7.5" fill="none" stroke="#A3E635" stroke-width="2.1" opacity="0.35"/>
</g>


<g opacity="0.452" transform="translate(748.0,1444.8) rotate(5.2)" filter="url(#softGlow)">
  <rect x="-48.8" y="-28.1" width="97.6" height="56.2" rx="17.2" fill="none" stroke="#A3E635" stroke-width="9.4" opacity="0.55"/>
  <rect x="-21.5" y="-14.1" width="97.6" height="56.2" rx="17.2" fill="none" stroke="url(#strokeA)" stroke-width="7.8" opacity="0.55"/>
</g>


<g opacity="0.237" transform="translate(879.3,1445.5) rotate(0.1)" filter="url(#softGlow)">
  <rect x="-42.6" y="-24.5" width="85.1" height="49.0" rx="15.0" fill="none" stroke="#A3E635" stroke-width="8.2" opacity="0.55"/>
  <rect x="-18.7" y="-12.3" width="85.1" height="49.0" rx="15.0" fill="none" stroke="url(#strokeA)" stroke-width="6.8" opacity="0.55"/>
</g>


<g opacity="0.330" transform="translate(57.1,106.1) rotate(0.7)" filter="url(#softGlow)">
  <rect x="-32.7" y="-18.8" width="65.4" height="37.7" rx="11.5" fill="none" stroke="#A3E635" stroke-width="6.3" opacity="0.55"/>
  <rect x="-14.4" y="-9.4" width="65.4" height="37.7" rx="11.5" fill="none" stroke="url(#strokeA)" stroke-width="5.2" opacity="0.55"/>
</g>


<g opacity="0.389" transform="translate(852.1,1430.5) rotate(5.0)" filter="url(#softGlow)">
  <rect x="-41.4" y="-23.8" width="82.7" height="47.7" rx="14.6" fill="none" stroke="#A3E635" stroke-width="7.9" opacity="0.55"/>
  <rect x="-18.2" y="-11.9" width="82.7" height="47.7" rx="14.6" fill="none" stroke="url(#strokeA)" stroke-width="6.6" opacity="0.55"/>
</g>


<g opacity="0.438" transform="translate(653.5,1559.2) rotate(11.1)" filter="url(#softGlow)">
  <rect x="-48.1" y="-27.7" width="96.3" height="55.5" rx="16.9" fill="none" stroke="#A3E635" stroke-width="9.2" opacity="0.55"/>
  <rect x="-21.2" y="-13.9" width="96.3" height="55.5" rx="16.9" fill="none" stroke="url(#strokeA)" stroke-width="7.7" opacity="0.55"/>
</g>


<g opacity="0.276" transform="translate(787.5,325.3) rotate(11.4)" filter="url(#softGlow)">
  <rect x="-42.3" y="-24.3" width="84.5" height="48.7" rx="14.9" fill="none" stroke="#06B6D4" stroke-width="8.1" opacity="0.55"/>
  <rect x="-18.6" y="-12.2" width="84.5" height="48.7" rx="14.9" fill="none" stroke="url(#strokeA)" stroke-width="6.8" opacity="0.55"/>
</g>


<g opacity="0.240" transform="translate(739.3,146.6) rotate(-16.9)" filter="url(#softGlow)">
  <rect x="-44.8" y="-25.8" width="89.6" height="51.6" rx="15.8" fill="none" stroke="#A3E635" stroke-width="8.6" opacity="0.55"/>
  <rect x="-19.7" y="-12.9" width="89.6" height="51.6" rx="15.8" fill="none" stroke="url(#strokeA)" stroke-width="7.2" opacity="0.55"/>
</g>


<g opacity="0.397" transform="translate(891.3,30.8) rotate(0.1)" filter="url(#softGlow)">
  <rect x="-38.2" y="-22.0" width="76.4" height="44.0" rx="13.5" fill="none" stroke="#A3E635" stroke-width="7.3" opacity="0.55"/>
  <rect x="-16.8" y="-11.0" width="76.4" height="44.0" rx="13.5" fill="none" stroke="url(#strokeA)" stroke-width="6.1" opacity="0.55"/>
</g>


<g opacity="0.278" transform="translate(165.9,43.6) rotate(-0.1)" filter="url(#softGlow)">
  <rect x="-34.0" y="-19.6" width="68.1" height="39.2" rx="12.0" fill="none" stroke="#A3E635" stroke-width="6.5" opacity="0.55"/>
  <rect x="-15.0" y="-9.8" width="68.1" height="39.2" rx="12.0" fill="none" stroke="url(#strokeA)" stroke-width="5.4" opacity="0.55"/>
</g>


<g opacity="0.278" transform="translate(264.6,1559.5) rotate(3.5)" filter="url(#softGlow)">
  <rect x="-35.7" y="-20.5" width="71.3" height="41.1" rx="12.5" fill="none" stroke="#A3E635" stroke-width="6.8" opacity="0.55"/>
  <rect x="-15.7" y="-10.3" width="71.3" height="41.1" rx="12.5" fill="none" stroke="url(#strokeA)" stroke-width="5.7" opacity="0.55"/>
</g>


<g opacity="0.179">
  <line x1="699.5" y1="1432.4" x2="699.5" y2="1507.6" stroke="#A3E635" stroke-width="1.30" opacity="0.45"/>
  <rect x="693.7" y="1470.0" width="11.5" height="45.3" rx="3.8" fill="#0B1020" opacity="0.55" stroke="url(#strokeA)" stroke-width="1.2"/>
</g>

<g opacity="0.179">
  <line x1="845.0" y1="1423.4" x2="845.0" y2="1509.9" stroke="#A3E635" stroke-width="1.81" opacity="0.45"/>
  <rect x="841.2" y="1469.7" width="7.4" height="45.7" rx="2.5" fill="#0B1020" opacity="0.55" stroke="url(#strokeA)" stroke-width="1.2"/>
</g>

<g opacity="0.179">
  <line x1="711.4" y1="1420.7" x2="711.4" y2="1510.6" stroke="#A3E635" stroke-width="1.48" opacity="0.45"/>
  <rect x="708.3" y="1465.3" width="6.1" height="54.6" rx="2.0" fill="#0B1020" opacity="0.55" stroke="url(#strokeA)" stroke-width="1.2"/>
</g>

<g opacity="0.179">
  <line x1="110.4" y1="1423.9" x2="110.4" y2="1509.7" stroke="#A3E635" stroke-width="1.57" opacity="0.45"/>
  <rect x="106.8" y="1471.8" width="7.3" height="41.5" rx="2.4" fill="#0B1020" opacity="0.55" stroke="url(#strokeA)" stroke-width="1.2"/>
</g>

<g opacity="0.179">
  <line x1="533.6" y1="1431.2" x2="533.6" y2="1507.9" stroke="#A3E635" stroke-width="1.16" opacity="0.45"/>
  <rect x="527.6" y="1474.5" width="11.9" height="36.2" rx="4.0" fill="#0B1020" opacity="0.55" stroke="url(#strokeA)" stroke-width="1.2"/>
</g>

<g opacity="0.179">
  <line x1="709.2" y1="1449.9" x2="709.2" y2="1503.3" stroke="#A3E635" stroke-width="1.60" opacity="0.45"/>
  <rect x="706.2" y="1476.9" width="6.0" height="31.4" rx="2.0" fill="#0B1020" opacity="0.55" stroke="url(#strokeA)" stroke-width="1.2"/>
</g>

<g opacity="0.179">
  <line x1="511.6" y1="1453.2" x2="511.6" y2="1502.4" stroke="#A3E635" stroke-width="1.65" opacity="0.45"/>
  <rect x="507.9" y="1479.2" width="7.5" height="26.7" rx="2.5" fill="#0B1020" opacity="0.55" stroke="url(#strokeA)" stroke-width="1.2"/>
</g>

<g opacity="0.179">
  <line x1="865.1" y1="1428.7" x2="865.1" y2="1508.6" stroke="#A3E635" stroke-width="1.81" opacity="0.45"/>
  <rect x="860.3" y="1477.3" width="9.7" height="30.5" rx="3.2" fill="#0B1020" opacity="0.55" stroke="url(#strokeA)" stroke-width="1.2"/>
</g>

<g opacity="0.179">
  <line x1="212.8" y1="1418.7" x2="212.8" y2="1511.1" stroke="#A3E635" stroke-width="1.65" opacity="0.45"/>
  <rect x="207.2" y="1465.4" width="11.3" height="54.3" rx="3.8" fill="#0B1020" opacity="0.55" stroke="url(#strokeA)" stroke-width="1.2"/>
</g>

<g opacity="0.179">
  <line x1="580.6" y1="1430.8" x2="580.6" y2="1508.0" stroke="#A3E635" stroke-width="1.43" opacity="0.45"/>
  <rect x="577.4" y="1478.8" width="6.4" height="27.5" rx="2.1" fill="#0B1020" opacity="0.55" stroke="url(#strokeA)" stroke-width="1.2"/>
</g>

<g opacity="0.179">
  <line x1="807.5" y1="1434.5" x2="807.5" y2="1507.1" stroke="#A3E635" stroke-width="1.17" opacity="0.45"/>
  <rect x="802.2" y="1472.6" width="10.5" height="40.0" rx="3.5" fill="#0B1020" opacity="0.55" stroke="url(#strokeA)" stroke-width="1.2"/>
</g>

<g opacity="0.179">
  <line x1="113.4" y1="1412.2" x2="113.4" y2="1512.7" stroke="#A3E635" stroke-width="1.35" opacity="0.45"/>
  <rect x="109.4" y="1466.0" width="8.0" height="53.2" rx="2.7" fill="#0B1020" opacity="0.55" stroke="url(#strokeA)" stroke-width="1.2"/>
</g>

<g opacity="0.179">
  <line x1="888.4" y1="1412.8" x2="888.4" y2="1512.5" stroke="#A3E635" stroke-width="1.78" opacity="0.45"/>
  <rect x="883.4" y="1468.6" width="10.0" height="47.9" rx="3.3" fill="#0B1020" opacity="0.55" stroke="url(#strokeA)" stroke-width="1.2"/>
</g>
<circle cx="57.2" cy="1383.0" r="2.9" fill="#06B6D4" opacity="0.10" filter="url(#softGlow)"/>
<circle cx="442.8" cy="1463.8" r="2.8" fill="#06B6D4" opacity="0.17" filter="url(#softGlow)"/>
<circle cx="749.8" cy="337.8" r="2.7" fill="#06B6D4" opacity="0.26" filter="url(#softGlow)"/>
<circle cx="104.0" cy="1567.8" r="1.7" fill="#06B6D4" opacity="0.27" filter="url(#softGlow)"/>
<circle cx="76.3" cy="556.4" r="3.2" fill="#06B6D4" opacity="0.14" filter="url(#softGlow)"/>
<circle cx="148.1" cy="35.9" r="1.5" fill="#06B6D4" opacity="0.13" filter="url(#softGlow)"/>
<circle cx="824.2" cy="272.6" r="3.0" fill="#06B6D4" opacity="0.11" filter="url(#softGlow)"/>
<circle cx="17.8" cy="1519.4" r="1.3" fill="#06B6D4" opacity="0.12" filter="url(#softGlow)"/>
<circle cx="759.9" cy="1469.4" r="1.4" fill="#06B6D4" opacity="0.11" filter="url(#softGlow)"/>
<circle cx="852.2" cy="103.6" r="1.6" fill="#06B6D4" opacity="0.25" filter="url(#softGlow)"/>
<circle cx="781.2" cy="35.2" r="2.4" fill="#06B6D4" opacity="0.13" filter="url(#softGlow)"/>
<circle cx="780.6" cy="92.4" r="1.9" fill="#06B6D4" opacity="0.16" filter="url(#softGlow)"/>
<circle cx="890.2" cy="10.9" r="2.0" fill="#06B6D4" opacity="0.14" filter="url(#softGlow)"/>
<circle cx="103.3" cy="1434.9" r="2.0" fill="#06B6D4" opacity="0.17" filter="url(#softGlow)"/>
<circle cx="846.0" cy="1519.1" r="2.8" fill="#06B6D4" opacity="0.16" filter="url(#softGlow)"/>
<circle cx="748.1" cy="86.9" r="2.9" fill="#06B6D4" opacity="0.17" filter="url(#softGlow)"/>
<circle cx="894.0" cy="1441.2" r="2.3" fill="#06B6D4" opacity="0.18" filter="url(#softGlow)"/>
<circle cx="769.0" cy="1587.7" r="1.8" fill="#06B6D4" opacity="0.17" filter="url(#softGlow)"/>
<circle cx="146.3" cy="1582.0" r="3.1" fill="#06B6D4" opacity="0.15" filter="url(#softGlow)"/>
<circle cx="899.9" cy="90.8" r="1.6" fill="#06B6D4" opacity="0.17" filter="url(#softGlow)"/>
<circle cx="833.5" cy="1526.2" r="2.8" fill="#06B6D4" opacity="0.15" filter="url(#softGlow)"/>
<circle cx="877.0" cy="767.6" r="1.6" fill="#06B6D4" opacity="0.25" filter="url(#softGlow)"/>
</svg>