<svg xmlns="http://www.w3.org/2000/svg" width="900" height="1600" viewBox="0 0 900 1600" preserveAspectRatio="xMidYMid slice">
<defs>
  <linearGradient id="g0" x1="0" y1="0" x2="1" y2="1">
    <stop offset="0" stop-color="#0B1020"/>
    <stop offset="0.55" stop-color="#F97316" stop-opacity="0.9"/>
    <stop offset="1" stop-color="#020617"/>
  </linearGradient>
  <radialGradient id="g1" cx="20%" cy="15%" r="70%">
    <stop offset="0" stop-color="#06B6D4" stop-opacity="0.38"/>
    <stop offset="0.6" stop-color="#06B6D4" stop-opacity="0.08"/>
    <stop offset="1" stop-color="#06B6D4" stop-opacity="0"/>
  </radialGradient>
  <radialGradient id="g2" cx="85%" cy="80%" r="75%">
    <stop offset="0" stop-color="#06B6D4" stop-opacity="0.28"/>
    <stop offset="0.65" stop-color="#06B6D4" stop-opacity="0.06"/>
    <stop offset="1" stop-color="#06B6D4" stop-opacity="0"/>
  </radialGradient>
  <filter id="softGlow" x="-30%" y="-30%" width="160%" height="160%">
    <feGaussianBlur stdDeviation="12" result="b"/>
    <feMerge>
      <feMergeNode in="b"/>
      <feMergeNode in="SourceGraphic"/>
    </feMerge>
  </filter>
  <filter id="hardGlow" x="-40%" y="-40%" width="180%" height="180%">
    <feGaussianBlur stdDeviation="6" result="b"/>
    <feColorMatrix in="b" type="matrix" values="1 0 0 0 0  0 1 0 0 0  0 0 1 0 0  0 0 0 18 -7" result="c"/>
    <feMerge>
      <feMergeNode in="c"/>
      <feMergeNode in="SourceGraphic"/>
    </feMerge>
  </filter>
  <linearGradient id="strokeA" x1="0" y1="0" x2="1" y2="0">
    <stop offset="0" stop-color="#06B6D4" stop-opacity="0.9"/>
    <stop offset="0.5" stop-color="#FFFFFF" stop-opacity="0.25"/>
    <stop offset="1" stop-color="#06B6D4" stop-opacity="0.7"/>
  </linearGradient>
  <linearGradient id="strokeB" x1="0" y1="0" x2="0" y2="1">
    <stop offset="0" stop-color="#FFFFFF" stop-opacity="0.18"/>
    <stop offset="1" stop-color="#06B6D4" stop-opacity="0.55"/>
  </linearGradient>
</defs>
<rect x="0" y="0" width="900" height="1600" fill="url(#g0)"/>
<rect x="0" y="0" width="900" height="1600" fill="url(#g1)"/>
<rect x="0" y="0" width="900" height="1600" fill="url(#g2)"/>


<defs>
  <radialGradient id="vign" cx="0.5000" cy="0.5000" r="0.85">
    <stop offset="0" stop-color="#000000" stop-opacity="0"/>
    <stop offset="0.55" stop-color="#000000" stop-opacity="0.217"/>
    <stop offset="1" stop-color="#000000" stop-opacity="0.620"/>
  </radialGradient>
</defs>
<rect x="0" y="0" width="900" height="1600" fill="url(#vign)"/>

<g opacity="0.265" filter="url(#softGlow)"><path d="M 882.6,1503.8 L 741.2,1503.8 L 741.2,1523.2 L 176.4,1523.2 L 176.4,1474.0 " fill="none" stroke="url(#strokeB)" stroke-width="2.14" stroke-linecap="round" stroke-linejoin="round"/><circle cx="176.4" cy="1523.2" r="3.6" fill="#06B6D4" opacity="0.45"/><circle cx="176.4" cy="1474.0" r="2.4" fill="#06B6D4" opacity="0.45"/><circle cx="741.2" cy="1523.2" r="3.2" fill="#06B6D4" opacity="0.45"/></g>
<g opacity="0.265" filter="url(#softGlow)"><path d="M 760.1,256.3 L 276.8,256.3 L 276.8,1575.2 L 827.1,1575.2 L 827.1,1171.8 " fill="none" stroke="url(#strokeB)" stroke-width="1.33" stroke-linecap="round" stroke-linejoin="round"/><circle cx="276.8" cy="256.3" r="3.3" fill="#06B6D4" opacity="0.45"/><circle cx="827.1" cy="1171.8" r="3.9" fill="#06B6D4" opacity="0.45"/><circle cx="276.8" cy="1575.2" r="3.6" fill="#06B6D4" opacity="0.45"/></g>
<g opacity="0.265" filter="url(#softGlow)"><path d="M 19.4,167.5 L 782.3,167.5 L 782.3,1487.9 L 733.1,1487.9 L 733.1,1574.1 " fill="none" stroke="url(#strokeB)" stroke-width="1.11" stroke-linecap="round" stroke-linejoin="round"/><circle cx="782.3" cy="1487.9" r="2.3" fill="#06B6D4" opacity="0.45"/><circle cx="733.1" cy="1574.1" r="2.7" fill="#06B6D4" opacity="0.45"/><circle cx="19.4" cy="167.5" r="4.0" fill="#06B6D4" opacity="0.45"/></g>
<g opacity="0.265" filter="url(#softGlow)"><path d="M 896.9,207.9 L 59.4,207.9 L 59.4,532.4 L 153.0,532.4 L 153.0,57.8 " fill="none" stroke="url(#strokeB)" stroke-width="1.63" stroke-linecap="round" stroke-linejoin="round"/><circle cx="59.4" cy="207.9" r="3.1" fill="#06B6D4" opacity="0.45"/><circle cx="896.9" cy="207.9" r="4.2" fill="#06B6D4" opacity="0.45"/><circle cx="59.4" cy="532.4" r="2.6" fill="#06B6D4" opacity="0.45"/></g>
<g opacity="0.265" filter="url(#softGlow)"><path d="M 835.9,937.1 L 882.4,937.1 L 882.4,1353.9 L 878.0,1353.9 L 878.0,1582.6 " fill="none" stroke="url(#strokeB)" stroke-width="1.22" stroke-linecap="round" stroke-linejoin="round"/><circle cx="878.0" cy="1582.6" r="3.4" fill="#06B6D4" opacity="0.45"/><circle cx="882.4" cy="1353.9" r="3.4" fill="#06B6D4" opacity="0.45"/><circle cx="878.0" cy="1353.9" r="2.9" fill="#06B6D4" opacity="0.45"/></g>
<g opacity="0.265" filter="url(#softGlow)"><path d="M 160.5,1462.6 L 44.4,1462.6 L 44.4,1473.4 L 747.1,1473.4 L 747.1,1563.7 " fill="none" stroke="url(#strokeB)" stroke-width="1.69" stroke-linecap="round" stroke-linejoin="round"/><circle cx="44.4" cy="1473.4" r="2.6" fill="#06B6D4" opacity="0.45"/><circle cx="747.1" cy="1563.7" r="4.1" fill="#06B6D4" opacity="0.45"/><circle cx="44.4" cy="1462.6" r="2.2" fill="#06B6D4" opacity="0.45"/></g>
<g opacity="0.265" filter="url(#softGlow)"><path d="M 127.6,110.1 L 789.0,110.1 L 789.0,1572.8 L 14.3,1572.8 L 14.3,254.3 " fill="none" stroke="url(#strokeB)" stroke-width="1.77" stroke-linecap="round" stroke-linejoin="round"/><circle cx="14.3" cy="254.3" r="2.4" fill="#06B6D4" opacity="0.45"/><circle cx="127.6" cy="110.1" r="2.6" fill="#06B6D4" opacity="0.45"/><circle cx="789.0" cy="1572.8" r="3.3" fill="#06B6D4" opacity="0.45"/></g>
<g opacity="0.265" filter="url(#softGlow)"><path d="M 63.8,1582.7 L 706.6,1582.7 L 706.6,1429.8 L 122.9,1429.8 L 122.9,1224.5 " fill="none" stroke="url(#strokeB)" stroke-width="1.65" stroke-linecap="round" stroke-linejoin="round"/><circle cx="122.9" cy="1429.8" r="2.6" fill="#06B6D4" opacity="0.45"/><circle cx="706.6" cy="1429.8" r="4.1" fill="#06B6D4" opacity="0.45"/><circle cx="122.9" cy="1224.5" r="3.1" fill="#06B6D4" opacity="0.45"/></g>
<g opacity="0.265" filter="url(#softGlow)"><path d="M 53.1,1487.5 L 80.3,1487.5 L 80.3,1420.6 L 77.4,1420.6 L 77.4,1449.5 " fill="none" stroke="url(#strokeB)" stroke-width="1.15" stroke-linecap="round" stroke-linejoin="round"/><circle cx="53.1" cy="1487.5" r="3.3" fill="#06B6D4" opacity="0.45"/><circle cx="77.4" cy="1449.5" r="3.1" fill="#06B6D4" opacity="0.45"/><circle cx="80.3" cy="1420.6" r="3.4" fill="#06B6D4" opacity="0.45"/></g>
<g opacity="0.265" filter="url(#softGlow)"><path d="M 848.5,1348.8 L 796.6,1348.8 L 796.6,21.4 L 751.8,21.4 L 751.8,1428.1 " fill="none" stroke="url(#strokeB)" stroke-width="1.50" stroke-linecap="round" stroke-linejoin="round"/><circle cx="751.8" cy="21.4" r="2.5" fill="#06B6D4" opacity="0.45"/><circle cx="796.6" cy="21.4" r="3.2" fill="#06B6D4" opacity="0.45"/><circle cx="848.5" cy="1348.8" r="2.8" fill="#06B6D4" opacity="0.45"/></g>
<g opacity="0.265" filter="url(#softGlow)"><path d="M 51.2,129.8 L 130.7,129.8 L 130.7,1568.3 L 72.5,1568.3 L 72.5,200.8 " fill="none" stroke="url(#strokeB)" stroke-width="1.21" stroke-linecap="round" stroke-linejoin="round"/><circle cx="72.5" cy="1568.3" r="3.8" fill="#06B6D4" opacity="0.45"/><circle cx="130.7" cy="129.8" r="3.8" fill="#06B6D4" opacity="0.45"/><circle cx="130.7" cy="1568.3" r="3.9" fill="#06B6D4" opacity="0.45"/></g>
<g opacity="0.265" filter="url(#softGlow)"><path d="M 892.4,1563.7 L 78.0,1563.7 L 78.0,1574.8 L 503.2,1574.8 L 503.2,1465.2 " fill="none" stroke="url(#strokeB)" stroke-width="1.51" stroke-linecap="round" stroke-linejoin="round"/><circle cx="503.2" cy="1574.8" r="3.9" fill="#06B6D4" opacity="0.45"/><circle cx="503.2" cy="1465.2" r="4.0" fill="#06B6D4" opacity="0.45"/><circle cx="78.0" cy="1574.8" r="2.9" fill="#06B6D4" opacity="0.45"/></g>
<g opacity="0.265" filter="url(#softGlow)"><path d="M 49.6,39.7 L 149.4,39.7 L 149.4,357.3 L 813.7,357.3 L 813.7,332.7 " fill="none" stroke="url(#strokeB)" stroke-width="1.66" stroke-linecap="round" stroke-linejoin="round"/><circle cx="149.4" cy="39.7" r="3.9" fill="#06B6D4" opacity="0.45"/><circle cx="149.4" cy="357.3" r="3.6" fill="#06B6D4" opacity="0.45"/><circle cx="813.7" cy="332.7" r="3.2" fill="#06B6D4" opacity="0.45"/></g>
<g opacity="0.265" filter="url(#softGlow)"><path d="M 240.9,86.2 L 808.2,86.2 L 808.2,817.7 L 12.5,817.7 L 12.5,503.6 " fill="none" stroke="url(#strokeB)" stroke-width="1.14" stroke-linecap="round" stroke-linejoin="round"/><circle cx="808.2" cy="817.7" r="2.3" fill="#06B6D4" opacity="0.45"/><circle cx="808.2" cy="86.2" r="2.1" fill="#06B6D4" opacity="0.45"/><circle cx="240.9" cy="86.2" r="2.8" fill="#06B6D4" opacity="0.45"/></g>
<g opacity="0.265" filter="url(#softGlow)"><path d="M 153.5,98.1 L 42.9,98.1 L 42.9,130.0 L 8.7,130.0 L 8.7,1469.4 " fill="none" stroke="url(#strokeB)" stroke-width="1.14" stroke-linecap="round" stroke-linejoin="round"/><circle cx="42.9" cy="98.1" r="2.8" fill="#06B6D4" opacity="0.45"/><circle cx="8.7" cy="1469.4" r="4.0" fill="#06B6D4" opacity="0.45"/><circle cx="8.7" cy="130.0" r="2.5" fill="#06B6D4" opacity="0.45"/></g>
<g opacity="0.265" filter="url(#softGlow)"><path d="M 36.6,1420.3 L 843.4,1420.3 L 843.4,1496.0 L 10.3,1496.0 L 10.3,1543.7 " fill="none" stroke="url(#strokeB)" stroke-width="1.13" stroke-linecap="round" stroke-linejoin="round"/><circle cx="36.6" cy="1420.3" r="2.5" fill="#06B6D4" opacity="0.45"/><circle cx="10.3" cy="1543.7" r="2.4" fill="#06B6D4" opacity="0.45"/><circle cx="10.3" cy="1496.0" r="2.9" fill="#06B6D4" opacity="0.45"/></g>
<g opacity="0.265" filter="url(#softGlow)"><path d="M 73.1,1505.6 L 92.6,1505.6 L 92.6,544.3 L 136.7,544.3 L 136.7,1371.0 " fill="none" stroke="url(#strokeB)" stroke-width="1.60" stroke-linecap="round" stroke-linejoin="round"/><circle cx="136.7" cy="544.3" r="3.0" fill="#06B6D4" opacity="0.45"/><circle cx="92.6" cy="544.3" r="2.1" fill="#06B6D4" opacity="0.45"/><circle cx="92.6" cy="1505.6" r="2.8" fill="#06B6D4" opacity="0.45"/></g>
<g opacity="0.265" filter="url(#softGlow)"><path d="M 140.8,1440.7 L 125.6,1440.7 L 125.6,1488.1 L 35.0,1488.1 L 35.0,1543.0 " fill="none" stroke="url(#strokeB)" stroke-width="1.56" stroke-linecap="round" stroke-linejoin="round"/><circle cx="125.6" cy="1488.1" r="2.7" fill="#06B6D4" opacity="0.45"/><circle cx="140.8" cy="1440.7" r="3.9" fill="#06B6D4" opacity="0.45"/><circle cx="125.6" cy="1440.7" r="2.5" fill="#06B6D4" opacity="0.45"/></g>
<g opacity="0.265" filter="url(#softGlow)"><path d="M 781.1,123.7 L 732.4,123.7 L 732.4,150.3 L 870.0,150.3 L 870.0,1521.8 " fill="none" stroke="url(#strokeB)" stroke-width="2.01" stroke-linecap="round" stroke-linejoin="round"/><circle cx="732.4" cy="123.7" r="3.9" fill="#06B6D4" opacity="0.45"/><circle cx="781.1" cy="123.7" r="4.0" fill="#06B6D4" opacity="0.45"/><circle cx="870.0" cy="1521.8" r="4.0" fill="#06B6D4" opacity="0.45"/></g>
<g opacity="0.265" filter="url(#softGlow)"><path d="M 1.7,1549.5 L 77.7,1549.5 L 77.7,1583.9 L 48.1,1583.9 L 48.1,154.5 " fill="none" stroke="url(#strokeB)" stroke-width="1.82" stroke-linecap="round" stroke-linejoin="round"/><circle cx="77.7" cy="1549.5" r="4.1" fill="#06B6D4" opacity="0.45"/><circle cx="48.1" cy="1583.9" r="2.3" fill="#06B6D4" opacity="0.45"/><circle cx="1.7" cy="1549.5" r="3.9" fill="#06B6D4" opacity="0.45"/></g>

<g opacity="0.663" filter="url(#hardGlow)">
  <circle cx="116.7" cy="1564.0" r="36.1" fill="#0A1224" opacity="0.65"/>
  <circle cx="116.7" cy="1564.0" r="36.1" fill="none" stroke="url(#strokeA)" stroke-width="2.9" opacity="0.85"/>
  <circle cx="116.7" cy="1564.0" r="31.1" fill="none" stroke="#A3E635" stroke-width="1.5" opacity="0.35"/>
  <polygon points="96.1,1548.1 120.1,1538.2 140.7,1554.0 137.3,1579.8 113.2,1589.8 92.6,1573.9" fill="none" stroke="url(#strokeB)" stroke-width="1.2" opacity="0.65"/>
  <polygon points="111.8,1556.3 125.8,1563.6 112.5,1572.0" fill="#A3E635" opacity="0.22" filter="url(#softGlow)"/>
</g>


<g opacity="0.416" filter="url(#hardGlow)">
  <circle cx="150.9" cy="1582.0" r="14.4" fill="#0A1224" opacity="0.65"/>
  <circle cx="150.9" cy="1582.0" r="14.4" fill="none" stroke="url(#strokeA)" stroke-width="2.0" opacity="0.85"/>
  <circle cx="150.9" cy="1582.0" r="12.4" fill="none" stroke="#06B6D4" stroke-width="1.5" opacity="0.35"/>
  <polygon points="149.8,1571.7 159.3,1575.9 160.4,1586.2 152.0,1592.4 142.5,1588.2 141.4,1577.8" fill="none" stroke="url(#strokeB)" stroke-width="1.2" opacity="0.65"/>
  <polygon points="151.8,1578.5 153.5,1584.6 147.4,1583.0" fill="#06B6D4" opacity="0.22" filter="url(#softGlow)"/>
</g>


<g opacity="0.667" filter="url(#hardGlow)">
  <circle cx="12.9" cy="1585.1" r="51.0" fill="#0A1224" opacity="0.65"/>
  <circle cx="12.9" cy="1585.1" r="51.0" fill="none" stroke="url(#strokeA)" stroke-width="4.1" opacity="0.85"/>
  <circle cx="12.9" cy="1585.1" r="43.9" fill="none" stroke="#A3E635" stroke-width="1.5" opacity="0.35"/>
  <polygon points="-0.7,1619.3 -23.5,1590.5 -10.0,1556.3 26.4,1550.9 49.2,1579.7 35.7,1613.9" fill="none" stroke="url(#strokeB)" stroke-width="1.3" opacity="0.65"/>
  <polygon points="4.3,1594.7 8.8,1572.9 25.5,1587.7" fill="#A3E635" opacity="0.22" filter="url(#softGlow)"/>
</g>


<g opacity="0.596" filter="url(#hardGlow)">
  <circle cx="85.4" cy="1640.1" r="22.4" fill="#0A1224" opacity="0.65"/>
  <circle cx="85.4" cy="1640.1" r="22.4" fill="none" stroke="url(#strokeA)" stroke-width="2.0" opacity="0.85"/>
  <circle cx="85.4" cy="1640.1" r="19.3" fill="none" stroke="#06B6D4" stroke-width="1.5" opacity="0.35"/>
  <polygon points="81.3,1655.7 69.8,1644.4 73.9,1628.8 89.4,1624.5 100.9,1635.8 96.9,1651.4" fill="none" stroke="url(#strokeB)" stroke-width="1.2" opacity="0.65"/>
  
</g>


<g opacity="0.506" filter="url(#hardGlow)">
  <circle cx="-40.2" cy="1645.3" r="20.5" fill="#0A1224" opacity="0.65"/>
  <circle cx="-40.2" cy="1645.3" r="20.5" fill="none" stroke="url(#strokeA)" stroke-width="2.0" opacity="0.85"/>
  <circle cx="-40.2" cy="1645.3" r="17.7" fill="none" stroke="#06B6D4" stroke-width="1.5" opacity="0.35"/>
  <polygon points="-53.6,1639.0 -41.4,1630.5 -28.1,1636.9 -26.8,1651.6 -39.0,1660.0 -52.4,1653.7" fill="none" stroke="url(#strokeB)" stroke-width="1.2" opacity="0.65"/>
  <polygon points="-43.9,1641.6 -35.2,1644.0 -41.6,1650.3" fill="#06B6D4" opacity="0.22" filter="url(#softGlow)"/>
</g>


<g opacity="0.552" filter="url(#hardGlow)">
  <circle cx="-46.6" cy="1646.0" r="22.9" fill="#0A1224" opacity="0.65"/>
  <circle cx="-46.6" cy="1646.0" r="22.9" fill="none" stroke="url(#strokeA)" stroke-width="2.0" opacity="0.85"/>
  <circle cx="-46.6" cy="1646.0" r="19.7" fill="none" stroke="#06B6D4" stroke-width="1.5" opacity="0.35"/>
  <polygon points="-62.8,1643.0 -52.1,1630.5 -35.9,1633.5 -30.3,1649.0 -41.0,1661.5 -57.3,1658.5" fill="none" stroke="url(#strokeB)" stroke-width="1.2" opacity="0.65"/>
  <polygon points="-51.5,1643.1 -41.5,1643.2 -46.6,1651.8" fill="#06B6D4" opacity="0.22" filter="url(#softGlow)"/>
</g>


<g opacity="0.916" filter="url(#hardGlow)">
  <circle cx="791.3" cy="1531.6" r="52.1" fill="#0A1224" opacity="0.65"/>
  <circle cx="791.3" cy="1531.6" r="52.1" fill="none" stroke="url(#strokeA)" stroke-width="4.2" opacity="0.85"/>
  <circle cx="791.3" cy="1531.6" r="44.8" fill="none" stroke="#A3E635" stroke-width="1.6" opacity="0.35"/>
  <polygon points="754.7,1539.7 765.9,1503.9 802.6,1495.8 827.9,1523.5 816.6,1559.3 780.0,1567.4" fill="none" stroke="url(#strokeB)" stroke-width="1.3" opacity="0.65"/>
  <polygon points="778.3,1529.9 799.3,1521.2 796.3,1543.7" fill="#A3E635" opacity="0.22" filter="url(#softGlow)"/>
</g>


<g opacity="0.376" filter="url(#hardGlow)">
  <circle cx="839.4" cy="1500.3" r="24.1" fill="#0A1224" opacity="0.65"/>
  <circle cx="839.4" cy="1500.3" r="24.1" fill="none" stroke="url(#strokeA)" stroke-width="2.0" opacity="0.85"/>
  <circle cx="839.4" cy="1500.3" r="20.7" fill="none" stroke="#06B6D4" stroke-width="1.5" opacity="0.35"/>
  <polygon points="822.3,1497.6 833.3,1484.1 850.4,1486.9 856.5,1503.1 845.6,1516.5 828.5,1513.8" fill="none" stroke="url(#strokeB)" stroke-width="1.2" opacity="0.65"/>
  <polygon points="834.1,1497.4 844.6,1497.2 839.5,1506.4" fill="#06B6D4" opacity="0.22" filter="url(#softGlow)"/>
</g>


<g opacity="0.637" filter="url(#hardGlow)">
  <circle cx="841.8" cy="1487.7" r="25.0" fill="#0A1224" opacity="0.65"/>
  <circle cx="841.8" cy="1487.7" r="25.0" fill="none" stroke="url(#strokeA)" stroke-width="2.0" opacity="0.85"/>
  <circle cx="841.8" cy="1487.7" r="21.5" fill="none" stroke="#06B6D4" stroke-width="1.5" opacity="0.35"/>
  <polygon points="858.0,1479.9 856.7,1497.8 840.5,1505.6 825.6,1495.6 826.9,1477.6 843.1,1469.8" fill="none" stroke="url(#strokeB)" stroke-width="1.2" opacity="0.65"/>
  <polygon points="848.1,1487.1 839.2,1493.4 838.1,1482.6" fill="#06B6D4" opacity="0.22" filter="url(#softGlow)"/>
</g>


<g opacity="0.808" filter="url(#hardGlow)">
  <circle cx="866.4" cy="1565.2" r="32.2" fill="#0A1224" opacity="0.65"/>
  <circle cx="866.4" cy="1565.2" r="32.2" fill="none" stroke="url(#strokeA)" stroke-width="2.6" opacity="0.85"/>
  <circle cx="866.4" cy="1565.2" r="27.7" fill="none" stroke="#A3E635" stroke-width="1.5" opacity="0.35"/>
  <polygon points="857.1,1543.9 880.2,1546.5 889.5,1567.8 875.7,1586.5 852.7,1583.9 843.4,1562.6" fill="none" stroke="url(#strokeB)" stroke-width="1.2" opacity="0.65"/>
  <polygon points="865.9,1557.1 873.7,1568.8 859.7,1569.7" fill="#A3E635" opacity="0.22" filter="url(#softGlow)"/>
</g>


<g opacity="0.362" filter="url(#hardGlow)">
  <circle cx="854.0" cy="1578.1" r="14.6" fill="#0A1224" opacity="0.65"/>
  <circle cx="854.0" cy="1578.1" r="14.6" fill="none" stroke="url(#strokeA)" stroke-width="2.0" opacity="0.85"/>
  <circle cx="854.0" cy="1578.1" r="12.6" fill="none" stroke="#06B6D4" stroke-width="1.5" opacity="0.35"/>
  <polygon points="852.2,1588.5 844.2,1581.7 846.0,1571.3 855.8,1567.7 863.9,1574.5 862.1,1584.8" fill="none" stroke="url(#strokeB)" stroke-width="1.2" opacity="0.65"/>
  
</g>


<g opacity="0.374" filter="url(#hardGlow)">
  <circle cx="902.0" cy="1554.4" r="14.5" fill="#0A1224" opacity="0.65"/>
  <circle cx="902.0" cy="1554.4" r="14.5" fill="none" stroke="url(#strokeA)" stroke-width="2.0" opacity="0.85"/>
  <circle cx="902.0" cy="1554.4" r="12.4" fill="none" stroke="#06B6D4" stroke-width="1.5" opacity="0.35"/>
  <polygon points="907.9,1563.0 897.6,1563.9 891.6,1555.3 896.0,1545.9 906.4,1545.0 912.3,1553.5" fill="none" stroke="url(#strokeB)" stroke-width="1.2" opacity="0.65"/>
  
</g>


<g opacity="0.760" filter="url(#hardGlow)">
  <circle cx="891.4" cy="991.6" r="39.7" fill="#0A1224" opacity="0.65"/>
  <circle cx="891.4" cy="991.6" r="39.7" fill="none" stroke="url(#strokeA)" stroke-width="3.2" opacity="0.85"/>
  <circle cx="891.4" cy="991.6" r="34.2" fill="none" stroke="#A3E635" stroke-width="1.5" opacity="0.35"/>
  <polygon points="898.1,1019.4 870.7,1011.3 864.0,983.4 884.7,963.7 912.2,971.9 918.8,999.7" fill="none" stroke="url(#strokeB)" stroke-width="1.2" opacity="0.65"/>
  <polygon points="890.3,1001.5 883.4,985.6 900.6,987.6" fill="#A3E635" opacity="0.22" filter="url(#softGlow)"/>
</g>


<g opacity="0.500" filter="url(#hardGlow)">
  <circle cx="841.0" cy="1038.4" r="17.6" fill="#0A1224" opacity="0.65"/>
  <circle cx="841.0" cy="1038.4" r="17.6" fill="none" stroke="url(#strokeA)" stroke-width="2.0" opacity="0.85"/>
  <circle cx="841.0" cy="1038.4" r="15.1" fill="none" stroke="#06B6D4" stroke-width="1.5" opacity="0.35"/>
  <polygon points="849.0,1028.5 853.5,1040.3 845.6,1050.2 833.1,1048.2 828.6,1036.4 836.5,1026.6" fill="none" stroke="url(#strokeB)" stroke-width="1.2" opacity="0.65"/>
  <polygon points="844.8,1036.1 841.1,1042.8 837.2,1036.2" fill="#06B6D4" opacity="0.22" filter="url(#softGlow)"/>
</g>


<g opacity="0.514" filter="url(#hardGlow)">
  <circle cx="909.0" cy="990.9" r="20.8" fill="#0A1224" opacity="0.65"/>
  <circle cx="909.0" cy="990.9" r="20.8" fill="none" stroke="url(#strokeA)" stroke-width="2.0" opacity="0.85"/>
  <circle cx="909.0" cy="990.9" r="17.9" fill="none" stroke="#06B6D4" stroke-width="1.5" opacity="0.35"/>
  <polygon points="907.0,1005.8 895.1,996.6 897.1,981.7 911.0,976.0 922.9,985.2 920.9,1000.1" fill="none" stroke="url(#strokeB)" stroke-width="1.2" opacity="0.65"/>
  
</g>


<g opacity="0.519" filter="url(#hardGlow)">
  <circle cx="885.7" cy="1007.1" r="14.8" fill="#0A1224" opacity="0.65"/>
  <circle cx="885.7" cy="1007.1" r="14.8" fill="none" stroke="url(#strokeA)" stroke-width="2.0" opacity="0.85"/>
  <circle cx="885.7" cy="1007.1" r="12.7" fill="none" stroke="#06B6D4" stroke-width="1.5" opacity="0.35"/>
  <polygon points="881.6,997.2 892.1,998.6 896.2,1008.5 889.7,1016.9 879.2,1015.5 875.1,1005.7" fill="none" stroke="url(#strokeB)" stroke-width="1.2" opacity="0.65"/>
  <polygon points="885.5,1003.4 889.0,1008.8 882.5,1009.1" fill="#06B6D4" opacity="0.22" filter="url(#softGlow)"/>
</g>


<g opacity="0.879" filter="url(#hardGlow)">
  <circle cx="118.3" cy="32.2" r="38.4" fill="#0A1224" opacity="0.65"/>
  <circle cx="118.3" cy="32.2" r="38.4" fill="none" stroke="url(#strokeA)" stroke-width="3.1" opacity="0.85"/>
  <circle cx="118.3" cy="32.2" r="33.0" fill="none" stroke="#A3E635" stroke-width="1.5" opacity="0.35"/>
  <polygon points="133.3,55.4 105.6,56.7 90.7,33.4 103.4,8.9 131.1,7.6 146.0,30.9" fill="none" stroke="url(#strokeB)" stroke-width="1.2" opacity="0.65"/>
  <polygon points="120.5,41.6 109.1,29.3 125.5,25.6" fill="#A3E635" opacity="0.22" filter="url(#softGlow)"/>
</g>


<g opacity="0.597" filter="url(#hardGlow)">
  <circle cx="149.3" cy="28.8" r="17.2" fill="#0A1224" opacity="0.65"/>
  <circle cx="149.3" cy="28.8" r="17.2" fill="none" stroke="url(#strokeA)" stroke-width="2.0" opacity="0.85"/>
  <circle cx="149.3" cy="28.8" r="14.8" fill="none" stroke="#06B6D4" stroke-width="1.5" opacity="0.35"/>
  <polygon points="160.1,34.8 149.5,41.1 138.7,35.1 138.5,22.8 149.1,16.4 159.9,22.4" fill="none" stroke="url(#strokeB)" stroke-width="1.2" opacity="0.65"/>
  <polygon points="152.1,32.0 145.0,29.6 150.7,24.7" fill="#06B6D4" opacity="0.22" filter="url(#softGlow)"/>
</g>


<g opacity="0.801" filter="url(#hardGlow)">
  <circle cx="782.5" cy="1572.3" r="43.0" fill="#0A1224" opacity="0.65"/>
  <circle cx="782.5" cy="1572.3" r="43.0" fill="none" stroke="url(#strokeA)" stroke-width="3.4" opacity="0.85"/>
  <circle cx="782.5" cy="1572.3" r="36.9" fill="none" stroke="#A3E635" stroke-width="1.5" opacity="0.35"/>
  <polygon points="772.1,1601.4 752.1,1577.8 762.6,1548.6 793.0,1543.1 813.0,1566.8 802.5,1595.9" fill="none" stroke="url(#strokeB)" stroke-width="1.2" opacity="0.65"/>
  <polygon points="775.6,1580.6 778.8,1562.1 793.2,1574.1" fill="#A3E635" opacity="0.22" filter="url(#softGlow)"/>
</g>


<g opacity="0.486" filter="url(#hardGlow)">
  <circle cx="816.1" cy="1612.7" r="21.3" fill="#0A1224" opacity="0.65"/>
  <circle cx="816.1" cy="1612.7" r="21.3" fill="none" stroke="url(#strokeA)" stroke-width="2.0" opacity="0.85"/>
  <circle cx="816.1" cy="1612.7" r="18.3" fill="none" stroke="#06B6D4" stroke-width="1.5" opacity="0.35"/>
  <polygon points="802.8,1620.4 802.8,1605.1 816.1,1597.4 829.4,1605.0 829.4,1620.4 816.1,1628.0" fill="none" stroke="url(#strokeB)" stroke-width="1.2" opacity="0.65"/>
  
</g>


<g opacity="0.614" filter="url(#hardGlow)">
  <circle cx="819.7" cy="1609.2" r="19.8" fill="#0A1224" opacity="0.65"/>
  <circle cx="819.7" cy="1609.2" r="19.8" fill="none" stroke="url(#strokeA)" stroke-width="2.0" opacity="0.85"/>
  <circle cx="819.7" cy="1609.2" r="17.0" fill="none" stroke="#06B6D4" stroke-width="1.5" opacity="0.35"/>
  <polygon points="807.4,1602.1 819.7,1595.0 832.1,1602.1 832.1,1616.4 819.7,1623.5 807.4,1616.3" fill="none" stroke="url(#strokeB)" stroke-width="1.2" opacity="0.65"/>
  
</g>


<g opacity="0.580" filter="url(#hardGlow)">
  <circle cx="715.9" cy="1598.9" r="21.7" fill="#0A1224" opacity="0.65"/>
  <circle cx="715.9" cy="1598.9" r="21.7" fill="none" stroke="url(#strokeA)" stroke-width="2.0" opacity="0.85"/>
  <circle cx="715.9" cy="1598.9" r="18.6" fill="none" stroke="#06B6D4" stroke-width="1.5" opacity="0.35"/>
  <polygon points="730.7,1594.1 727.5,1609.3 712.7,1614.1 701.1,1603.7 704.3,1588.4 719.1,1583.6" fill="none" stroke="url(#strokeB)" stroke-width="1.2" opacity="0.65"/>
  <polygon points="721.4,1599.1 713.0,1603.5 713.3,1594.1" fill="#06B6D4" opacity="0.22" filter="url(#softGlow)"/>
</g>


<g opacity="0.441" transform="translate(772.7,1562.2) rotate(-5.3)" filter="url(#softGlow)">
  <rect x="-92.9" y="-69.4" width="185.8" height="138.9" rx="13.9" fill="#050A12" opacity="0.25"/>
  <rect x="-92.9" y="-69.4" width="185.8" height="138.9" rx="13.9" fill="none" stroke="url(#strokeA)" stroke-width="6.9" opacity="0.85"/>
  <rect x="-81.8" y="-58.3" width="163.5" height="116.7" rx="9.7" fill="none" stroke="#06B6D4" stroke-width="2.8" opacity="0.35"/>
</g>


<g opacity="0.326" transform="translate(64.8,1497.0) rotate(9.2)" filter="url(#softGlow)">
  <rect x="-92.0" y="-70.3" width="184.1" height="140.5" rx="14.1" fill="#050A12" opacity="0.25"/>
  <rect x="-92.0" y="-70.3" width="184.1" height="140.5" rx="14.1" fill="none" stroke="url(#strokeA)" stroke-width="7.0" opacity="0.85"/>
  <rect x="-80.8" y="-59.0" width="161.6" height="118.0" rx="9.8" fill="none" stroke="#06B6D4" stroke-width="2.8" opacity="0.35"/>
</g>


<g opacity="0.397" transform="translate(836.4,122.6) rotate(-7.4)" filter="url(#softGlow)">
  <rect x="-73.5" y="-53.3" width="147.0" height="106.6" rx="10.7" fill="#050A12" opacity="0.25"/>
  <rect x="-73.5" y="-53.3" width="147.0" height="106.6" rx="10.7" fill="none" stroke="url(#strokeA)" stroke-width="5.3" opacity="0.85"/>
  <rect x="-65.0" y="-44.8" width="130.0" height="89.5" rx="7.5" fill="none" stroke="#A3E635" stroke-width="2.1" opacity="0.35"/>
</g>


<g opacity="0.417" transform="translate(131.2,38.2) rotate(-6.3)" filter="url(#softGlow)">
  <rect x="-75.3" y="-65.3" width="150.6" height="130.5" rx="13.1" fill="#050A12" opacity="0.25"/>
  <rect x="-75.3" y="-65.3" width="150.6" height="130.5" rx="13.1" fill="none" stroke="url(#strokeA)" stroke-width="6.5" opacity="0.85"/>
  <rect x="-64.8" y="-54.8" width="129.7" height="109.6" rx="9.1" fill="none" stroke="#06B6D4" stroke-width="2.6" opacity="0.35"/>
</g>


<g opacity="0.330" transform="translate(874.3,140.7) rotate(1.0)" filter="url(#softGlow)">
  <rect x="-78.1" y="-62.9" width="156.2" height="125.8" rx="12.6" fill="#050A12" opacity="0.25"/>
  <rect x="-78.1" y="-62.9" width="156.2" height="125.8" rx="12.6" fill="none" stroke="url(#strokeA)" stroke-width="6.3" opacity="0.85"/>
  <rect x="-68.1" y="-52.8" width="136.1" height="105.6" rx="8.8" fill="none" stroke="#06B6D4" stroke-width="2.5" opacity="0.35"/>
</g>


<g opacity="0.307" transform="translate(57.7,1446.6) rotate(14.3)" filter="url(#softGlow)">
  <rect x="-43.2" y="-24.9" width="86.4" height="49.8" rx="15.2" fill="none" stroke="#A3E635" stroke-width="8.3" opacity="0.55"/>
  <rect x="-19.0" y="-12.4" width="86.4" height="49.8" rx="15.2" fill="none" stroke="url(#strokeA)" stroke-width="6.9" opacity="0.55"/>
</g>


<g opacity="0.354" transform="translate(875.4,218.5) rotate(-6.2)" filter="url(#softGlow)">
  <rect x="-33.5" y="-19.3" width="67.0" height="38.6" rx="11.8" fill="none" stroke="#06B6D4" stroke-width="6.4" opacity="0.55"/>
  <rect x="-14.7" y="-9.6" width="67.0" height="38.6" rx="11.8" fill="none" stroke="url(#strokeA)" stroke-width="5.4" opacity="0.55"/>
</g>


<g opacity="0.382" transform="translate(16.0,1546.0) rotate(0.3)" filter="url(#softGlow)">
  <rect x="-37.1" y="-21.4" width="74.2" height="42.7" rx="13.1" fill="none" stroke="#A3E635" stroke-width="7.1" opacity="0.55"/>
  <rect x="-16.3" y="-10.7" width="74.2" height="42.7" rx="13.1" fill="none" stroke="url(#strokeA)" stroke-width="5.9" opacity="0.55"/>
</g>


<g opacity="0.245" transform="translate(245.4,173.2) rotate(-4.9)" filter="url(#softGlow)">
  <rect x="-28.1" y="-16.2" width="56.3" height="32.4" rx="9.9" fill="none" stroke="#A3E635" stroke-width="5.4" opacity="0.55"/>
  <rect x="-12.4" y="-8.1" width="56.3" height="32.4" rx="9.9" fill="none" stroke="url(#strokeA)" stroke-width="4.5" opacity="0.55"/>
</g>


<g opacity="0.401" transform="translate(25.2,148.7) rotate(14.6)" filter="url(#softGlow)">
  <rect x="-32.5" y="-18.7" width="64.9" height="37.4" rx="11.4" fill="none" stroke="#A3E635" stroke-width="6.2" opacity="0.55"/>
  <rect x="-14.3" y="-9.4" width="64.9" height="37.4" rx="11.4" fill="none" stroke="url(#strokeA)" stroke-width="5.2" opacity="0.55"/>
</g>


<g opacity="0.341" transform="translate(858.7,129.3) rotate(5.7)" filter="url(#softGlow)">
  <rect x="-31.1" y="-17.9" width="62.1" height="35.8" rx="10.9" fill="none" stroke="#06B6D4" stroke-width="6.0" opacity="0.55"/>
  <rect x="-13.7" y="-8.9" width="62.1" height="35.8" rx="10.9" fill="none" stroke="url(#strokeA)" stroke-width="5.0" opacity="0.55"/>
</g>


<g opacity="0.360" transform="translate(883.4,1428.0) rotate(-10.2)" filter="url(#softGlow)">
  <rect x="-34.9" y="-20.1" width="69.8" height="40.2" rx="12.3" fill="none" stroke="#A3E635" stroke-width="6.7" opacity="0.55"/>
  <rect x="-15.4" y="-10.1" width="69.8" height="40.2" rx="12.3" fill="none" stroke="url(#strokeA)" stroke-width="5.6" opacity="0.55"/>
</g>


<g opacity="0.219">
  <line x1="223.2" y1="1422.0" x2="223.2" y2="1490.4" stroke="#06B6D4" stroke-width="1.18" opacity="0.45"/>
  <rect x="218.4" y="1463.1" width="9.6" height="27.2" rx="3.2" fill="#0B1020" opacity="0.55" stroke="url(#strokeA)" stroke-width="1.2"/>
</g>

<g opacity="0.219">
  <line x1="577.2" y1="1414.5" x2="577.2" y2="1492.2" stroke="#06B6D4" stroke-width="1.98" opacity="0.45"/>
  <rect x="572.9" y="1451.0" width="8.6" height="51.4" rx="2.9" fill="#0B1020" opacity="0.55" stroke="url(#strokeA)" stroke-width="1.2"/>
</g>

<g opacity="0.219">
  <line x1="148.2" y1="1428.2" x2="148.2" y2="1488.8" stroke="#06B6D4" stroke-width="1.85" opacity="0.45"/>
  <rect x="143.3" y="1466.9" width="9.9" height="19.5" rx="3.3" fill="#0B1020" opacity="0.55" stroke="url(#strokeA)" stroke-width="1.2"/>
</g>

<g opacity="0.219">
  <line x1="414.2" y1="1424.5" x2="414.2" y2="1489.7" stroke="#06B6D4" stroke-width="1.83" opacity="0.45"/>
  <rect x="410.1" y="1466.9" width="8.4" height="19.6" rx="2.8" fill="#0B1020" opacity="0.55" stroke="url(#strokeA)" stroke-width="1.2"/>
</g>

<g opacity="0.219">
  <line x1="153.3" y1="1412.0" x2="153.3" y2="1492.9" stroke="#06B6D4" stroke-width="1.26" opacity="0.45"/>
  <rect x="150.2" y="1452.8" width="6.1" height="47.7" rx="2.0" fill="#0B1020" opacity="0.55" stroke="url(#strokeA)" stroke-width="1.2"/>
</g>

<g opacity="0.219">
  <line x1="671.4" y1="1431.2" x2="671.4" y2="1488.1" stroke="#06B6D4" stroke-width="2.20" opacity="0.45"/>
  <rect x="665.7" y="1461.1" width="11.3" height="31.2" rx="3.8" fill="#0B1020" opacity="0.55" stroke="url(#strokeA)" stroke-width="1.2"/>
</g>

<g opacity="0.219">
  <line x1="863.1" y1="1391.7" x2="863.1" y2="1497.9" stroke="#06B6D4" stroke-width="2.09" opacity="0.45"/>
  <rect x="857.7" y="1454.2" width="10.9" height="44.9" rx="3.6" fill="#0B1020" opacity="0.55" stroke="url(#strokeA)" stroke-width="1.2"/>
</g>

<g opacity="0.219">
  <line x1="777.0" y1="1422.0" x2="777.0" y2="1490.3" stroke="#06B6D4" stroke-width="1.66" opacity="0.45"/>
  <rect x="771.3" y="1463.7" width="11.4" height="25.9" rx="3.8" fill="#0B1020" opacity="0.55" stroke="url(#strokeA)" stroke-width="1.2"/>
</g>

<g opacity="0.219">
  <line x1="457.0" y1="1428.2" x2="457.0" y2="1488.8" stroke="#06B6D4" stroke-width="1.85" opacity="0.45"/>
  <rect x="452.8" y="1460.7" width="8.3" height="32.0" rx="2.8" fill="#0B1020" opacity="0.55" stroke="url(#strokeA)" stroke-width="1.2"/>
</g>

<g opacity="0.219">
  <line x1="590.8" y1="1406.7" x2="590.8" y2="1494.2" stroke="#06B6D4" stroke-width="1.14" opacity="0.45"/>
  <rect x="586.4" y="1449.3" width="8.8" height="54.7" rx="2.9" fill="#0B1020" opacity="0.55" stroke="url(#strokeA)" stroke-width="1.2"/>
</g>

<g opacity="0.219">
  <line x1="302.8" y1="1412.0" x2="302.8" y2="1492.9" stroke="#06B6D4" stroke-width="1.74" opacity="0.45"/>
  <rect x="297.5" y="1462.4" width="10.6" height="28.7" rx="3.5" fill="#0B1020" opacity="0.55" stroke="url(#strokeA)" stroke-width="1.2"/>
</g>

<g opacity="0.219">
  <line x1="339.8" y1="1397.4" x2="339.8" y2="1496.5" stroke="#06B6D4" stroke-width="1.24" opacity="0.45"/>
  <rect x="335.3" y="1449.4" width="9.0" height="54.6" rx="3.0" fill="#0B1020" opacity="0.55" stroke="url(#strokeA)" stroke-width="1.2"/>
</g>

<g opacity="0.219">
  <line x1="384.8" y1="1408.5" x2="384.8" y2="1493.7" stroke="#06B6D4" stroke-width="1.18" opacity="0.45"/>
  <rect x="379.4" y="1449.9" width="10.9" height="53.6" rx="3.6" fill="#0B1020" opacity="0.55" stroke="url(#strokeA)" stroke-width="1.2"/>
</g>

<g opacity="0.219">
  <line x1="401.0" y1="1412.9" x2="401.0" y2="1492.6" stroke="#06B6D4" stroke-width="1.16" opacity="0.45"/>
  <rect x="396.1" y="1461.4" width="9.7" height="30.6" rx="3.2" fill="#0B1020" opacity="0.55" stroke="url(#strokeA)" stroke-width="1.2"/>
</g>

<g opacity="0.219">
  <line x1="358.0" y1="1425.3" x2="358.0" y2="1489.5" stroke="#06B6D4" stroke-width="1.86" opacity="0.45"/>
  <rect x="354.0" y="1461.3" width="8.0" height="30.8" rx="2.7" fill="#0B1020" opacity="0.55" stroke="url(#strokeA)" stroke-width="1.2"/>
</g>
<circle cx="726.0" cy="1447.6" r="2.0" fill="#A3E635" opacity="0.22" filter="url(#softGlow)"/>
<circle cx="11.3" cy="115.4" r="1.4" fill="#A3E635" opacity="0.23" filter="url(#softGlow)"/>
<circle cx="57.5" cy="17.9" r="2.7" fill="#A3E635" opacity="0.13" filter="url(#softGlow)"/>
<circle cx="129.2" cy="9.5" r="1.8" fill="#A3E635" opacity="0.15" filter="url(#softGlow)"/>
<circle cx="356.0" cy="105.4" r="2.7" fill="#A3E635" opacity="0.22" filter="url(#softGlow)"/>
<circle cx="55.4" cy="1467.9" r="2.0" fill="#A3E635" opacity="0.19" filter="url(#softGlow)"/>
<circle cx="740.2" cy="17.8" r="2.7" fill="#A3E635" opacity="0.21" filter="url(#softGlow)"/>
<circle cx="596.2" cy="1520.5" r="1.4" fill="#A3E635" opacity="0.28" filter="url(#softGlow)"/>
<circle cx="347.3" cy="2.4" r="1.6" fill="#A3E635" opacity="0.24" filter="url(#softGlow)"/>
<circle cx="756.1" cy="1544.5" r="2.2" fill="#A3E635" opacity="0.28" filter="url(#softGlow)"/>
<circle cx="776.8" cy="1454.6" r="2.0" fill="#A3E635" opacity="0.18" filter="url(#softGlow)"/>
<circle cx="79.8" cy="1147.1" r="3.1" fill="#A3E635" opacity="0.19" filter="url(#softGlow)"/>
<circle cx="94.6" cy="1453.5" r="3.1" fill="#A3E635" opacity="0.18" filter="url(#softGlow)"/>
<circle cx="694.9" cy="1579.2" r="1.5" fill="#A3E635" opacity="0.14" filter="url(#softGlow)"/>
<circle cx="724.5" cy="1518.9" r="2.7" fill="#A3E635" opacity="0.16" filter="url(#softGlow)"/>
<circle cx="141.2" cy="68.9" r="2.6" fill="#A3E635" opacity="0.26" filter="url(#softGlow)"/>
<circle cx="873.6" cy="509.1" r="2.7" fill="#A3E635" opacity="0.21" filter="url(#softGlow)"/>
<circle cx="640.8" cy="119.4" r="1.8" fill="#A3E635" opacity="0.14" filter="url(#softGlow)"/>
<circle cx="86.0" cy="25.5" r="1.7" fill="#A3E635" opacity="0.20" filter="url(#softGlow)"/>
</svg>