<svg xmlns="http://www.w3.org/2000/svg" width="900" height="1600" viewBox="0 0 900 1600" preserveAspectRatio="xMidYMid slice">
<defs>
  <linearGradient id="g0" x1="0" y1="0" x2="1" y2="1">
    <stop offset="0" stop-color="#0B1020"/>
    <stop offset="0.55" stop-color="#F97316" stop-opacity="0.9"/>
    <stop offset="1" stop-color="#020617"/>
  </linearGradient>
  <radialGradient id="g1" cx="20%" cy="15%" r="70%">
    <stop offset="0" stop-color="#06B6D4" stop-opacity="0.38"/>
    <stop offset="0.6" stop-color="#06B6D4" stop-opacity="0.08"/>
    <stop offset="1" stop-color="#06B6D4" stop-opacity="0"/>
  </radialGradient>
  <radialGradient id="g2" cx="85%" cy="80%" r="75%">
    <stop offset="0" stop-color="#06B6D4" stop-opacity="0.28"/>
    <stop offset="0.65" stop-color="#06B6D4" stop-opacity="0.06"/>
    <stop offset="1" stop-color="#06B6D4" stop-opacity="0"/>
  </radialGradient>
  <filter id="softGlow" x="-30%" y="-30%" width="160%" height="160%">
    <feGaussianBlur stdDeviation="12" result="b"/>
    <feMerge>
      <feMergeNode in="b"/>
      <feMergeNode in="SourceGraphic"/>
    </feMerge>
  </filter>
  <filter id="hardGlow" x="-40%" y="-40%" width="180%" height="180%">
    <feGaussianBlur stdDeviation="6" result="b"/>
    <feColorMatrix in="b" type="matrix" values="1 0 0 0 0  0 1 0 0 0  0 0 1 0 0  0 0 0 18 -7" result="c"/>
    <feMerge>
      <feMergeNode in="c"/>
      <feMergeNode in="SourceGraphic"/>
    </feMerge>
  </filter>
  <linearGradient id="strokeA" x1="0" y1="0" x2="1" y2="0">
    <stop offset="0" stop-color="#06B6D4" stop-opacity="0.9"/>
    <stop offset="0.5" stop-color="#FFFFFF" stop-opacity="0.25"/>
    <stop offset="1" stop-color="#06B6D4" stop-opacity="0.7"/>
  </linearGradient>
  <linearGradient id="strokeB" x1="0" y1="0" x2="0" y2="1">
    <stop offset="0" stop-color="#FFFFFF" stop-opacity="0.18"/>
    <stop offset="1" stop-color="#06B6D4" stop-opacity="0.55"/>
  </linearGradient>
</defs>
<rect x="0" y="0" width="900" height="1600" fill="url(#g0)"/>
<rect x="0" y="0" width="900" height="1600" fill="url(#g1)"/>
<rect x="0" y="0" width="900" height="1600" fill="url(#g2)"/>


<defs>
  <radialGradient id="vign" cx="0.5000" cy="0.5000" r="0.85">
    <stop offset="0" stop-color="#000000" stop-opacity="0"/>
    <stop offset="0.55" stop-color="#000000" stop-opacity="0.217"/>
    <stop offset="1" stop-color="#000000" stop-opacity="0.620"/>
  </radialGradient>
</defs>
<rect x="0" y="0" width="900" height="1600" fill="url(#vign)"/>

<g opacity="0.193" filter="url(#softGlow)"><path d="M 844.6,184.5 L 721.2,184.5 L 721.2,1581.7 L 775.0,1581.7 L 775.0,94.2 " fill="none" stroke="url(#strokeB)" stroke-width="1.44" stroke-linecap="round" stroke-linejoin="round"/><circle cx="721.2" cy="1581.7" r="3.4" fill="#06B6D4" opacity="0.45"/><circle cx="775.0" cy="94.2" r="3.5" fill="#06B6D4" opacity="0.45"/><circle cx="844.6" cy="184.5" r="2.6" fill="#06B6D4" opacity="0.45"/></g>
<g opacity="0.193" filter="url(#softGlow)"><path d="M 808.2,12.6 L 785.8,12.6 L 785.8,1449.4 L 154.0,1449.4 L 154.0,1525.6 " fill="none" stroke="url(#strokeB)" stroke-width="1.45" stroke-linecap="round" stroke-linejoin="round"/><circle cx="154.0" cy="1525.6" r="4.0" fill="#06B6D4" opacity="0.45"/><circle cx="785.8" cy="12.6" r="4.1" fill="#06B6D4" opacity="0.45"/><circle cx="154.0" cy="1449.4" r="2.2" fill="#06B6D4" opacity="0.45"/></g>
<g opacity="0.193" filter="url(#softGlow)"><path d="M 8.3,114.8 L 44.0,114.8 L 44.0,113.4 L 844.2,113.4 L 844.2,57.3 " fill="none" stroke="url(#strokeB)" stroke-width="1.63" stroke-linecap="round" stroke-linejoin="round"/><circle cx="844.2" cy="113.4" r="3.4" fill="#06B6D4" opacity="0.45"/><circle cx="44.0" cy="114.8" r="2.8" fill="#06B6D4" opacity="0.45"/><circle cx="844.2" cy="57.3" r="2.6" fill="#06B6D4" opacity="0.45"/></g>
<g opacity="0.193" filter="url(#softGlow)"><path d="M 35.8,155.5 L 17.4,155.5 L 17.4,28.6 L 747.2,28.6 L 747.2,634.9 " fill="none" stroke="url(#strokeB)" stroke-width="1.72" stroke-linecap="round" stroke-linejoin="round"/><circle cx="17.4" cy="155.5" r="2.3" fill="#06B6D4" opacity="0.45"/><circle cx="747.2" cy="28.6" r="3.1" fill="#06B6D4" opacity="0.45"/><circle cx="35.8" cy="155.5" r="2.1" fill="#06B6D4" opacity="0.45"/></g>
<g opacity="0.193" filter="url(#softGlow)"><path d="M 62.9,9.3 L 62.1,9.3 L 62.1,1429.8 L 801.5,1429.8 L 801.5,1577.1 " fill="none" stroke="url(#strokeB)" stroke-width="1.40" stroke-linecap="round" stroke-linejoin="round"/><circle cx="62.1" cy="1429.8" r="4.2" fill="#06B6D4" opacity="0.45"/><circle cx="801.5" cy="1577.1" r="2.1" fill="#06B6D4" opacity="0.45"/><circle cx="62.9" cy="9.3" r="3.1" fill="#06B6D4" opacity="0.45"/></g>
<g opacity="0.193" filter="url(#softGlow)"><path d="M 132.3,1553.8 L 182.8,1553.8 L 182.8,1557.0 L 879.4,1557.0 L 879.4,195.2 " fill="none" stroke="url(#strokeB)" stroke-width="1.37" stroke-linecap="round" stroke-linejoin="round"/><circle cx="879.4" cy="1557.0" r="3.4" fill="#06B6D4" opacity="0.45"/><circle cx="132.3" cy="1553.8" r="3.6" fill="#06B6D4" opacity="0.45"/><circle cx="182.8" cy="1553.8" r="3.4" fill="#06B6D4" opacity="0.45"/></g>
<g opacity="0.193" filter="url(#softGlow)"><path d="M 114.8,1559.5 L 820.7,1559.5 L 820.7,557.1 L 44.0,557.1 L 44.0,1560.7 " fill="none" stroke="url(#strokeB)" stroke-width="1.72" stroke-linecap="round" stroke-linejoin="round"/><circle cx="44.0" cy="1560.7" r="2.0" fill="#06B6D4" opacity="0.45"/><circle cx="44.0" cy="557.1" r="3.5" fill="#06B6D4" opacity="0.45"/><circle cx="820.7" cy="557.1" r="3.1" fill="#06B6D4" opacity="0.45"/></g>
<g opacity="0.193" filter="url(#softGlow)"><path d="M 744.8,1432.4 L 108.4,1432.4 L 108.4,1421.5 L 75.8,1421.5 L 75.8,32.7 " fill="none" stroke="url(#strokeB)" stroke-width="1.17" stroke-linecap="round" stroke-linejoin="round"/><circle cx="108.4" cy="1432.4" r="2.5" fill="#06B6D4" opacity="0.45"/><circle cx="108.4" cy="1421.5" r="2.2" fill="#06B6D4" opacity="0.45"/><circle cx="75.8" cy="1421.5" r="2.5" fill="#06B6D4" opacity="0.45"/></g>
<g opacity="0.193" filter="url(#softGlow)"><path d="M 372.4,14.4 L 74.5,14.4 L 74.5,137.5 L 62.8,137.5 L 62.8,1514.6 " fill="none" stroke="url(#strokeB)" stroke-width="1.51" stroke-linecap="round" stroke-linejoin="round"/><circle cx="74.5" cy="14.4" r="2.4" fill="#06B6D4" opacity="0.45"/><circle cx="74.5" cy="137.5" r="2.5" fill="#06B6D4" opacity="0.45"/><circle cx="62.8" cy="1514.6" r="2.0" fill="#06B6D4" opacity="0.45"/></g>
<g opacity="0.193" filter="url(#softGlow)"><path d="M 744.5,1574.1 L 164.4,1574.1 L 164.4,1596.4 L 731.1,1596.4 L 731.1,1543.2 " fill="none" stroke="url(#strokeB)" stroke-width="1.23" stroke-linecap="round" stroke-linejoin="round"/><circle cx="731.1" cy="1543.2" r="2.8" fill="#06B6D4" opacity="0.45"/><circle cx="164.4" cy="1574.1" r="2.8" fill="#06B6D4" opacity="0.45"/><circle cx="731.1" cy="1596.4" r="2.3" fill="#06B6D4" opacity="0.45"/></g>
<g opacity="0.193" filter="url(#softGlow)"><path d="M 620.1,1584.7 L 810.0,1584.7 L 810.0,124.5 L 122.7,124.5 L 122.7,100.3 " fill="none" stroke="url(#strokeB)" stroke-width="1.63" stroke-linecap="round" stroke-linejoin="round"/><circle cx="122.7" cy="124.5" r="2.2" fill="#06B6D4" opacity="0.45"/><circle cx="122.7" cy="100.3" r="3.8" fill="#06B6D4" opacity="0.45"/><circle cx="810.0" cy="124.5" r="3.7" fill="#06B6D4" opacity="0.45"/></g>
<g opacity="0.193" filter="url(#softGlow)"><path d="M 64.2,81.8 L 780.2,81.8 L 780.2,1530.7 L 276.5,1530.7 L 276.5,1491.3 " fill="none" stroke="url(#strokeB)" stroke-width="1.28" stroke-linecap="round" stroke-linejoin="round"/><circle cx="276.5" cy="1530.7" r="2.7" fill="#06B6D4" opacity="0.45"/><circle cx="780.2" cy="1530.7" r="2.5" fill="#06B6D4" opacity="0.45"/><circle cx="276.5" cy="1491.3" r="2.8" fill="#06B6D4" opacity="0.45"/></g>
<g opacity="0.193" filter="url(#softGlow)"><path d="M 95.8,352.7 L 551.3,352.7 L 551.3,17.1 L 779.6,17.1 L 779.6,109.3 " fill="none" stroke="url(#strokeB)" stroke-width="1.78" stroke-linecap="round" stroke-linejoin="round"/><circle cx="95.8" cy="352.7" r="3.9" fill="#06B6D4" opacity="0.45"/><circle cx="779.6" cy="109.3" r="4.1" fill="#06B6D4" opacity="0.45"/><circle cx="551.3" cy="352.7" r="3.5" fill="#06B6D4" opacity="0.45"/></g>
<g opacity="0.193" filter="url(#softGlow)"><path d="M 44.6,1553.2 L 157.0,1553.2 L 157.0,1064.4 L 847.5,1064.4 L 847.5,69.0 " fill="none" stroke="url(#strokeB)" stroke-width="1.94" stroke-linecap="round" stroke-linejoin="round"/><circle cx="847.5" cy="69.0" r="3.4" fill="#06B6D4" opacity="0.45"/><circle cx="44.6" cy="1553.2" r="3.7" fill="#06B6D4" opacity="0.45"/><circle cx="157.0" cy="1553.2" r="3.3" fill="#06B6D4" opacity="0.45"/></g>
<g opacity="0.193" filter="url(#softGlow)"><path d="M 855.3,1193.0 L 816.4,1193.0 L 816.4,1426.0 L 138.8,1426.0 L 138.8,92.9 " fill="none" stroke="url(#strokeB)" stroke-width="1.55" stroke-linecap="round" stroke-linejoin="round"/><circle cx="855.3" cy="1193.0" r="3.7" fill="#06B6D4" opacity="0.45"/><circle cx="138.8" cy="92.9" r="3.0" fill="#06B6D4" opacity="0.45"/><circle cx="138.8" cy="1426.0" r="2.3" fill="#06B6D4" opacity="0.45"/></g>
<g opacity="0.193" filter="url(#softGlow)"><path d="M 40.9,1570.8 L 481.3,1570.8 L 481.3,1534.2 L 811.0,1534.2 L 811.0,336.4 " fill="none" stroke="url(#strokeB)" stroke-width="1.13" stroke-linecap="round" stroke-linejoin="round"/><circle cx="481.3" cy="1570.8" r="4.2" fill="#06B6D4" opacity="0.45"/><circle cx="811.0" cy="336.4" r="2.5" fill="#06B6D4" opacity="0.45"/><circle cx="40.9" cy="1570.8" r="3.2" fill="#06B6D4" opacity="0.45"/></g>
<g opacity="0.193" filter="url(#softGlow)"><path d="M 800.1,26.4 L 856.9,26.4 L 856.9,1504.5 L 205.6,1504.5 L 205.6,48.4 " fill="none" stroke="url(#strokeB)" stroke-width="1.20" stroke-linecap="round" stroke-linejoin="round"/><circle cx="856.9" cy="1504.5" r="2.2" fill="#06B6D4" opacity="0.45"/><circle cx="205.6" cy="1504.5" r="3.4" fill="#06B6D4" opacity="0.45"/><circle cx="856.9" cy="26.4" r="3.2" fill="#06B6D4" opacity="0.45"/></g>
<g opacity="0.193" filter="url(#softGlow)"><path d="M 180.8,22.6 L 823.3,22.6 L 823.3,466.5 L 816.7,466.5 L 816.7,5.8 " fill="none" stroke="url(#strokeB)" stroke-width="1.75" stroke-linecap="round" stroke-linejoin="round"/><circle cx="816.7" cy="466.5" r="2.9" fill="#06B6D4" opacity="0.45"/><circle cx="823.3" cy="466.5" r="3.9" fill="#06B6D4" opacity="0.45"/><circle cx="823.3" cy="22.6" r="3.3" fill="#06B6D4" opacity="0.45"/></g>
<g opacity="0.193" filter="url(#softGlow)"><path d="M 461.1,55.9 L 97.3,55.9 L 97.3,1477.0 L 84.9,1477.0 L 84.9,1590.2 " fill="none" stroke="url(#strokeB)" stroke-width="1.59" stroke-linecap="round" stroke-linejoin="round"/><circle cx="84.9" cy="1590.2" r="3.2" fill="#06B6D4" opacity="0.45"/><circle cx="84.9" cy="1477.0" r="3.2" fill="#06B6D4" opacity="0.45"/><circle cx="97.3" cy="55.9" r="2.6" fill="#06B6D4" opacity="0.45"/></g>
<g opacity="0.193" filter="url(#softGlow)"><path d="M 510.6,1588.2 L 881.2,1588.2 L 881.2,1582.3 L 148.3,1582.3 L 148.3,1466.6 " fill="none" stroke="url(#strokeB)" stroke-width="1.88" stroke-linecap="round" stroke-linejoin="round"/><circle cx="510.6" cy="1588.2" r="3.7" fill="#06B6D4" opacity="0.45"/><circle cx="881.2" cy="1588.2" r="2.2" fill="#06B6D4" opacity="0.45"/><circle cx="148.3" cy="1466.6" r="3.1" fill="#06B6D4" opacity="0.45"/></g>
<g opacity="0.193" filter="url(#softGlow)"><path d="M 846.6,1268.0 L 894.4,1268.0 L 894.4,1562.8 L 243.5,1562.8 L 243.5,1446.2 " fill="none" stroke="url(#strokeB)" stroke-width="1.10" stroke-linecap="round" stroke-linejoin="round"/><circle cx="894.4" cy="1562.8" r="3.9" fill="#06B6D4" opacity="0.45"/><circle cx="894.4" cy="1268.0" r="3.6" fill="#06B6D4" opacity="0.45"/><circle cx="243.5" cy="1446.2" r="3.1" fill="#06B6D4" opacity="0.45"/></g>
<g opacity="0.193" filter="url(#softGlow)"><path d="M 835.7,83.6 L 814.8,83.6 L 814.8,1571.1 L 884.5,1571.1 L 884.5,1426.6 " fill="none" stroke="url(#strokeB)" stroke-width="1.77" stroke-linecap="round" stroke-linejoin="round"/><circle cx="814.8" cy="1571.1" r="3.2" fill="#06B6D4" opacity="0.45"/><circle cx="884.5" cy="1571.1" r="2.3" fill="#06B6D4" opacity="0.45"/><circle cx="814.8" cy="83.6" r="3.7" fill="#06B6D4" opacity="0.45"/></g>

<g opacity="0.851" filter="url(#hardGlow)">
  <circle cx="777.3" cy="103.2" r="57.8" fill="#0A1224" opacity="0.65"/>
  <circle cx="777.3" cy="103.2" r="57.8" fill="none" stroke="url(#strokeA)" stroke-width="4.6" opacity="0.85"/>
  <circle cx="777.3" cy="103.2" r="49.7" fill="none" stroke="#F97316" stroke-width="1.7" opacity="0.35"/>
  <polygon points="818.9,101.7 799.4,138.5 757.8,140.0 735.7,104.7 755.1,67.9 796.8,66.4" fill="none" stroke="url(#strokeB)" stroke-width="1.4" opacity="0.65"/>
  <polygon points="791.1,107.7 766.5,113.0 774.2,89.0" fill="#F97316" opacity="0.22" filter="url(#softGlow)"/>
</g>


<g opacity="0.644" filter="url(#hardGlow)">
  <circle cx="736.7" cy="76.1" r="30.1" fill="#0A1224" opacity="0.65"/>
  <circle cx="736.7" cy="76.1" r="30.1" fill="none" stroke="url(#strokeA)" stroke-width="2.4" opacity="0.85"/>
  <circle cx="736.7" cy="76.1" r="25.9" fill="none" stroke="#06B6D4" stroke-width="1.5" opacity="0.35"/>
  <polygon points="716.3,83.5 720.1,62.2 740.5,54.8 757.0,68.7 753.3,90.0 732.9,97.4" fill="none" stroke="url(#strokeB)" stroke-width="1.2" opacity="0.65"/>
  <polygon points="729.1,76.1 740.5,69.6 740.5,82.7" fill="#06B6D4" opacity="0.22" filter="url(#softGlow)"/>
</g>


<g opacity="0.384" filter="url(#hardGlow)">
  <circle cx="788.9" cy="155.6" r="26.9" fill="#0A1224" opacity="0.65"/>
  <circle cx="788.9" cy="155.6" r="26.9" fill="none" stroke="url(#strokeA)" stroke-width="2.2" opacity="0.85"/>
  <circle cx="788.9" cy="155.6" r="23.1" fill="none" stroke="#06B6D4" stroke-width="1.5" opacity="0.35"/>
  <polygon points="770.6,162.0 774.2,143.0 792.4,136.6 807.1,149.2 803.6,168.2 785.3,174.6" fill="none" stroke="url(#strokeB)" stroke-width="1.2" opacity="0.65"/>
  <polygon points="782.1,155.5 792.3,149.8 792.2,161.5" fill="#06B6D4" opacity="0.22" filter="url(#softGlow)"/>
</g>


<g opacity="0.426" filter="url(#hardGlow)">
  <circle cx="733.2" cy="106.6" r="22.7" fill="#0A1224" opacity="0.65"/>
  <circle cx="733.2" cy="106.6" r="22.7" fill="none" stroke="url(#strokeA)" stroke-width="2.0" opacity="0.85"/>
  <circle cx="733.2" cy="106.6" r="19.5" fill="none" stroke="#06B6D4" stroke-width="1.5" opacity="0.35"/>
  <polygon points="722.5,94.3 738.5,91.1 749.3,103.5 744.0,118.9 728.0,122.1 717.2,109.7" fill="none" stroke="url(#strokeB)" stroke-width="1.2" opacity="0.65"/>
  <polygon points="731.2,101.3 738.9,107.5 729.7,111.1" fill="#06B6D4" opacity="0.22" filter="url(#softGlow)"/>
</g>


<g opacity="0.762" filter="url(#hardGlow)">
  <circle cx="19.8" cy="1577.8" r="54.1" fill="#0A1224" opacity="0.65"/>
  <circle cx="19.8" cy="1577.8" r="54.1" fill="none" stroke="url(#strokeA)" stroke-width="4.3" opacity="0.85"/>
  <circle cx="19.8" cy="1577.8" r="46.6" fill="none" stroke="#F97316" stroke-width="1.6" opacity="0.35"/>
  <polygon points="-19.2,1579.6 -1.3,1545.0 37.6,1543.1 58.7,1575.9 40.9,1610.6 1.9,1612.4" fill="none" stroke="url(#strokeB)" stroke-width="1.4" opacity="0.65"/>
  <polygon points="6.7,1573.7 29.8,1568.5 22.8,1591.1" fill="#F97316" opacity="0.22" filter="url(#softGlow)"/>
</g>


<g opacity="0.645" filter="url(#hardGlow)">
  <circle cx="10.8" cy="1591.7" r="26.4" fill="#0A1224" opacity="0.65"/>
  <circle cx="10.8" cy="1591.7" r="26.4" fill="none" stroke="url(#strokeA)" stroke-width="2.1" opacity="0.85"/>
  <circle cx="10.8" cy="1591.7" r="22.7" fill="none" stroke="#06B6D4" stroke-width="1.5" opacity="0.35"/>
  <polygon points="27.1,1601.5 10.4,1610.7 -5.9,1601.0 -5.5,1581.9 11.1,1572.7 27.4,1582.5" fill="none" stroke="url(#strokeB)" stroke-width="1.2" opacity="0.65"/>
  
</g>


<g opacity="0.484" filter="url(#hardGlow)">
  <circle cx="-15.6" cy="1534.2" r="20.1" fill="#0A1224" opacity="0.65"/>
  <circle cx="-15.6" cy="1534.2" r="20.1" fill="none" stroke="url(#strokeA)" stroke-width="2.0" opacity="0.85"/>
  <circle cx="-15.6" cy="1534.2" r="17.3" fill="none" stroke="#06B6D4" stroke-width="1.5" opacity="0.35"/>
  <polygon points="-1.1,1533.3 -7.6,1546.3 -22.1,1547.2 -30.1,1535.1 -23.6,1522.1 -9.1,1521.2" fill="none" stroke="url(#strokeB)" stroke-width="1.2" opacity="0.65"/>
  <polygon points="-10.7,1535.6 -19.3,1537.7 -16.8,1529.3" fill="#06B6D4" opacity="0.22" filter="url(#softGlow)"/>
</g>


<g opacity="0.623" filter="url(#hardGlow)">
  <circle cx="-15.2" cy="1615.8" r="26.6" fill="#0A1224" opacity="0.65"/>
  <circle cx="-15.2" cy="1615.8" r="26.6" fill="none" stroke="url(#strokeA)" stroke-width="2.1" opacity="0.85"/>
  <circle cx="-15.2" cy="1615.8" r="22.9" fill="none" stroke="#06B6D4" stroke-width="1.5" opacity="0.35"/>
  <polygon points="-0.5,1628.2 -18.5,1634.7 -33.2,1622.4 -29.9,1603.5 -11.8,1597.0 2.8,1609.3" fill="none" stroke="url(#strokeB)" stroke-width="1.2" opacity="0.65"/>
  <polygon points="-11.8,1621.7 -21.9,1615.8 -11.8,1610.0" fill="#06B6D4" opacity="0.22" filter="url(#softGlow)"/>
</g>


<g opacity="0.808" filter="url(#hardGlow)">
  <circle cx="793.1" cy="1479.0" r="36.9" fill="#0A1224" opacity="0.65"/>
  <circle cx="793.1" cy="1479.0" r="36.9" fill="none" stroke="url(#strokeA)" stroke-width="3.0" opacity="0.85"/>
  <circle cx="793.1" cy="1479.0" r="31.8" fill="none" stroke="#F97316" stroke-width="1.5" opacity="0.35"/>
  <polygon points="782.7,1503.5 766.7,1482.2 777.1,1457.8 803.4,1454.5 819.5,1475.7 809.1,1500.2" fill="none" stroke="url(#strokeB)" stroke-width="1.2" opacity="0.65"/>
  <polygon points="786.8,1485.8 790.4,1470.1 802.2,1481.0" fill="#F97316" opacity="0.22" filter="url(#softGlow)"/>
</g>


<g opacity="0.626" filter="url(#hardGlow)">
  <circle cx="823.7" cy="1477.8" r="16.3" fill="#0A1224" opacity="0.65"/>
  <circle cx="823.7" cy="1477.8" r="16.3" fill="none" stroke="url(#strokeA)" stroke-width="2.0" opacity="0.85"/>
  <circle cx="823.7" cy="1477.8" r="14.0" fill="none" stroke="#06B6D4" stroke-width="1.5" opacity="0.35"/>
  <polygon points="812.3,1475.0 820.3,1466.5 831.8,1469.2 835.1,1480.5 827.1,1489.0 815.6,1486.3" fill="none" stroke="url(#strokeB)" stroke-width="1.2" opacity="0.65"/>
  
</g>


<g opacity="0.486" filter="url(#hardGlow)">
  <circle cx="762.2" cy="1465.5" r="18.1" fill="#0A1224" opacity="0.65"/>
  <circle cx="762.2" cy="1465.5" r="18.1" fill="none" stroke="url(#strokeA)" stroke-width="2.0" opacity="0.85"/>
  <circle cx="762.2" cy="1465.5" r="15.5" fill="none" stroke="#06B6D4" stroke-width="1.5" opacity="0.35"/>
  <polygon points="774.4,1461.0 772.2,1473.8 760.0,1478.3 750.0,1469.9 752.2,1457.1 764.5,1452.6" fill="none" stroke="url(#strokeB)" stroke-width="1.2" opacity="0.65"/>
  
</g>


<g opacity="0.828" filter="url(#hardGlow)">
  <circle cx="824.9" cy="1467.8" r="48.0" fill="#0A1224" opacity="0.65"/>
  <circle cx="824.9" cy="1467.8" r="48.0" fill="none" stroke="url(#strokeA)" stroke-width="3.8" opacity="0.85"/>
  <circle cx="824.9" cy="1467.8" r="41.2" fill="none" stroke="#F97316" stroke-width="1.5" opacity="0.35"/>
  <polygon points="794.1,1452.2 823.0,1433.3 853.8,1449.0 855.7,1483.4 826.7,1502.3 795.9,1486.7" fill="none" stroke="url(#strokeB)" stroke-width="1.2" opacity="0.65"/>
  <polygon points="816.6,1459.0 836.6,1465.1 821.4,1479.4" fill="#F97316" opacity="0.22" filter="url(#softGlow)"/>
</g>


<g opacity="0.421" filter="url(#hardGlow)">
  <circle cx="880.3" cy="1466.5" r="20.8" fill="#0A1224" opacity="0.65"/>
  <circle cx="880.3" cy="1466.5" r="20.8" fill="none" stroke="url(#strokeA)" stroke-width="2.0" opacity="0.85"/>
  <circle cx="880.3" cy="1466.5" r="17.9" fill="none" stroke="#06B6D4" stroke-width="1.5" opacity="0.35"/>
  <polygon points="892.8,1474.8 879.3,1481.5 866.8,1473.2 867.8,1458.2 881.2,1451.5 893.7,1459.9" fill="none" stroke="url(#strokeB)" stroke-width="1.2" opacity="0.65"/>
  
</g>


<g opacity="0.645" filter="url(#hardGlow)">
  <circle cx="798.2" cy="1410.7" r="20.0" fill="#0A1224" opacity="0.65"/>
  <circle cx="798.2" cy="1410.7" r="20.0" fill="none" stroke="url(#strokeA)" stroke-width="2.0" opacity="0.85"/>
  <circle cx="798.2" cy="1410.7" r="17.2" fill="none" stroke="#06B6D4" stroke-width="1.5" opacity="0.35"/>
  <polygon points="805.3,1398.2 812.5,1410.7 805.4,1423.1 791.0,1423.2 783.8,1410.8 790.9,1398.3" fill="none" stroke="url(#strokeB)" stroke-width="1.2" opacity="0.65"/>
  
</g>


<g opacity="0.509" filter="url(#hardGlow)">
  <circle cx="841.3" cy="1455.3" r="25.1" fill="#0A1224" opacity="0.65"/>
  <circle cx="841.3" cy="1455.3" r="25.1" fill="none" stroke="url(#strokeA)" stroke-width="2.0" opacity="0.85"/>
  <circle cx="841.3" cy="1455.3" r="21.6" fill="none" stroke="#06B6D4" stroke-width="1.5" opacity="0.35"/>
  <polygon points="824.5,1462.1 827.1,1444.2 843.8,1437.4 858.0,1448.5 855.5,1466.4 838.8,1473.2" fill="none" stroke="url(#strokeB)" stroke-width="1.2" opacity="0.65"/>
  <polygon points="835.0,1455.5 844.3,1449.7 844.6,1460.7" fill="#06B6D4" opacity="0.22" filter="url(#softGlow)"/>
</g>


<g opacity="0.441" transform="translate(819.5,132.4) rotate(-8.6)" filter="url(#softGlow)">
  <rect x="-88.6" y="-82.8" width="177.2" height="165.7" rx="16.6" fill="#050A12" opacity="0.25"/>
  <rect x="-88.6" y="-82.8" width="177.2" height="165.7" rx="16.6" fill="none" stroke="url(#strokeA)" stroke-width="8.3" opacity="0.85"/>
  <rect x="-75.3" y="-69.6" width="150.6" height="139.2" rx="11.6" fill="none" stroke="#06B6D4" stroke-width="3.3" opacity="0.35"/>
</g>


<g opacity="0.365" transform="translate(94.8,50.5) rotate(-2.2)" filter="url(#softGlow)">
  <rect x="-85.2" y="-68.8" width="170.4" height="137.5" rx="13.8" fill="#050A12" opacity="0.25"/>
  <rect x="-85.2" y="-68.8" width="170.4" height="137.5" rx="13.8" fill="none" stroke="url(#strokeA)" stroke-width="6.9" opacity="0.85"/>
  <rect x="-74.2" y="-57.8" width="148.4" height="115.5" rx="9.6" fill="none" stroke="#A3E635" stroke-width="2.8" opacity="0.35"/>
</g>


<g opacity="0.274" transform="translate(43.2,0.2) rotate(4.1)" filter="url(#softGlow)">
  <rect x="-93.5" y="-80.1" width="186.9" height="160.2" rx="16.0" fill="#050A12" opacity="0.25"/>
  <rect x="-93.5" y="-80.1" width="186.9" height="160.2" rx="16.0" fill="none" stroke="url(#strokeA)" stroke-width="8.0" opacity="0.85"/>
  <rect x="-80.7" y="-67.3" width="161.3" height="134.6" rx="11.2" fill="none" stroke="#06B6D4" stroke-width="3.2" opacity="0.35"/>
</g>


<g opacity="0.332" transform="translate(711.5,1489.4) rotate(7.3)" filter="url(#softGlow)">
  <rect x="-97.9" y="-79.5" width="195.8" height="159.1" rx="15.9" fill="#050A12" opacity="0.25"/>
  <rect x="-97.9" y="-79.5" width="195.8" height="159.1" rx="15.9" fill="none" stroke="url(#strokeA)" stroke-width="8.0" opacity="0.85"/>
  <rect x="-85.2" y="-66.8" width="170.4" height="133.6" rx="11.1" fill="none" stroke="#F97316" stroke-width="3.2" opacity="0.35"/>
</g>


<g opacity="0.428" transform="translate(3.8,1454.7) rotate(-2.7)" filter="url(#softGlow)">
  <rect x="-80.3" y="-56.3" width="160.6" height="112.6" rx="11.3" fill="#050A12" opacity="0.25"/>
  <rect x="-80.3" y="-56.3" width="160.6" height="112.6" rx="11.3" fill="none" stroke="url(#strokeA)" stroke-width="5.6" opacity="0.85"/>
  <rect x="-71.3" y="-47.3" width="142.6" height="94.6" rx="7.9" fill="none" stroke="#A3E635" stroke-width="2.3" opacity="0.35"/>
</g>


<g opacity="0.471" transform="translate(110.5,1596.2) rotate(2.1)" filter="url(#softGlow)">
  <rect x="-33.8" y="-19.5" width="67.6" height="38.9" rx="11.9" fill="none" stroke="#F97316" stroke-width="6.5" opacity="0.55"/>
  <rect x="-14.9" y="-9.7" width="67.6" height="38.9" rx="11.9" fill="none" stroke="url(#strokeA)" stroke-width="5.4" opacity="0.55"/>
</g>


<g opacity="0.229" transform="translate(52.1,1541.0) rotate(-16.1)" filter="url(#softGlow)">
  <rect x="-47.0" y="-27.1" width="94.1" height="54.2" rx="16.6" fill="none" stroke="#F97316" stroke-width="9.0" opacity="0.55"/>
  <rect x="-20.7" y="-13.5" width="94.1" height="54.2" rx="16.6" fill="none" stroke="url(#strokeA)" stroke-width="7.5" opacity="0.55"/>
</g>


<g opacity="0.464" transform="translate(117.4,173.7) rotate(12.1)" filter="url(#softGlow)">
  <rect x="-30.6" y="-17.6" width="61.2" height="35.2" rx="10.8" fill="none" stroke="#A3E635" stroke-width="5.9" opacity="0.55"/>
  <rect x="-13.5" y="-8.8" width="61.2" height="35.2" rx="10.8" fill="none" stroke="url(#strokeA)" stroke-width="4.9" opacity="0.55"/>
</g>


<g opacity="0.236" transform="translate(720.8,1599.6) rotate(4.3)" filter="url(#softGlow)">
  <rect x="-44.0" y="-25.3" width="87.9" height="50.6" rx="15.5" fill="none" stroke="#06B6D4" stroke-width="8.4" opacity="0.55"/>
  <rect x="-19.3" y="-12.7" width="87.9" height="50.6" rx="15.5" fill="none" stroke="url(#strokeA)" stroke-width="7.0" opacity="0.55"/>
</g>


<g opacity="0.433" transform="translate(5.0,121.0) rotate(-15.9)" filter="url(#softGlow)">
  <rect x="-45.7" y="-26.3" width="91.5" height="52.7" rx="16.1" fill="none" stroke="#F97316" stroke-width="8.8" opacity="0.55"/>
  <rect x="-20.1" y="-13.2" width="91.5" height="52.7" rx="16.1" fill="none" stroke="url(#strokeA)" stroke-width="7.3" opacity="0.55"/>
</g>


<g opacity="0.431" transform="translate(531.0,42.2) rotate(16.4)" filter="url(#softGlow)">
  <rect x="-30.5" y="-17.6" width="61.0" height="35.1" rx="10.7" fill="none" stroke="#A3E635" stroke-width="5.9" opacity="0.55"/>
  <rect x="-13.4" y="-8.8" width="61.0" height="35.1" rx="10.7" fill="none" stroke="url(#strokeA)" stroke-width="4.9" opacity="0.55"/>
</g>


<g opacity="0.435" transform="translate(139.5,1434.8) rotate(-4.6)" filter="url(#softGlow)">
  <rect x="-33.4" y="-19.2" width="66.8" height="38.5" rx="11.8" fill="none" stroke="#F97316" stroke-width="6.4" opacity="0.55"/>
  <rect x="-14.7" y="-9.6" width="66.8" height="38.5" rx="11.8" fill="none" stroke="url(#strokeA)" stroke-width="5.3" opacity="0.55"/>
</g>


<g opacity="0.474" transform="translate(19.3,47.8) rotate(11.8)" filter="url(#softGlow)">
  <rect x="-42.2" y="-24.3" width="84.3" height="48.6" rx="14.8" fill="none" stroke="#06B6D4" stroke-width="8.1" opacity="0.55"/>
  <rect x="-18.6" y="-12.1" width="84.3" height="48.6" rx="14.8" fill="none" stroke="url(#strokeA)" stroke-width="6.7" opacity="0.55"/>
</g>


<g opacity="0.354" transform="translate(377.5,101.9) rotate(1.6)" filter="url(#softGlow)">
  <rect x="-43.9" y="-25.3" width="87.8" height="50.6" rx="15.5" fill="none" stroke="#06B6D4" stroke-width="8.4" opacity="0.55"/>
  <rect x="-19.3" y="-12.6" width="87.8" height="50.6" rx="15.5" fill="none" stroke="url(#strokeA)" stroke-width="7.0" opacity="0.55"/>
</g>


<g opacity="0.184">
  <line x1="207.8" y1="1458.0" x2="207.8" y2="1510.9" stroke="#06B6D4" stroke-width="1.16" opacity="0.45"/>
  <rect x="202.2" y="1490.1" width="11.3" height="20.5" rx="3.8" fill="#0B1020" opacity="0.55" stroke="url(#strokeA)" stroke-width="1.2"/>
</g>

<g opacity="0.184">
  <line x1="498.5" y1="1459.2" x2="498.5" y2="1510.6" stroke="#06B6D4" stroke-width="1.71" opacity="0.45"/>
  <rect x="494.7" y="1487.5" width="7.7" height="25.8" rx="2.6" fill="#0B1020" opacity="0.55" stroke="url(#strokeA)" stroke-width="1.2"/>
</g>

<g opacity="0.184">
  <line x1="35.3" y1="1443.5" x2="35.3" y2="1514.5" stroke="#06B6D4" stroke-width="1.21" opacity="0.45"/>
  <rect x="30.5" y="1477.7" width="9.5" height="45.2" rx="3.2" fill="#0B1020" opacity="0.55" stroke="url(#strokeA)" stroke-width="1.2"/>
</g>

<g opacity="0.184">
  <line x1="723.7" y1="1432.8" x2="723.7" y2="1517.2" stroke="#06B6D4" stroke-width="1.06" opacity="0.45"/>
  <rect x="718.7" y="1473.4" width="10.0" height="53.9" rx="3.3" fill="#0B1020" opacity="0.55" stroke="url(#strokeA)" stroke-width="1.2"/>
</g>

<g opacity="0.184">
  <line x1="182.5" y1="1443.8" x2="182.5" y2="1514.5" stroke="#06B6D4" stroke-width="1.84" opacity="0.45"/>
  <rect x="178.4" y="1489.8" width="8.3" height="21.2" rx="2.8" fill="#0B1020" opacity="0.55" stroke="url(#strokeA)" stroke-width="1.2"/>
</g>

<g opacity="0.184">
  <line x1="332.4" y1="1443.9" x2="332.4" y2="1514.5" stroke="#06B6D4" stroke-width="1.00" opacity="0.45"/>
  <rect x="328.2" y="1484.1" width="8.3" height="32.4" rx="2.8" fill="#0B1020" opacity="0.55" stroke="url(#strokeA)" stroke-width="1.2"/>
</g>

<g opacity="0.184">
  <line x1="599.3" y1="1407.2" x2="599.3" y2="1523.6" stroke="#06B6D4" stroke-width="1.14" opacity="0.45"/>
  <rect x="595.7" y="1471.7" width="7.3" height="57.4" rx="2.4" fill="#0B1020" opacity="0.55" stroke="url(#strokeA)" stroke-width="1.2"/>
</g>

<g opacity="0.184">
  <line x1="610.0" y1="1420.5" x2="610.0" y2="1520.3" stroke="#06B6D4" stroke-width="2.14" opacity="0.45"/>
  <rect x="606.5" y="1477.4" width="7.1" height="45.9" rx="2.4" fill="#0B1020" opacity="0.55" stroke="url(#strokeA)" stroke-width="1.2"/>
</g>

<g opacity="0.184">
  <line x1="877.2" y1="1451.1" x2="877.2" y2="1512.7" stroke="#06B6D4" stroke-width="2.08" opacity="0.45"/>
  <rect x="873.0" y="1489.4" width="8.5" height="21.9" rx="2.8" fill="#0B1020" opacity="0.55" stroke="url(#strokeA)" stroke-width="1.2"/>
</g>

<g opacity="0.184">
  <line x1="679.0" y1="1449.4" x2="679.0" y2="1513.1" stroke="#06B6D4" stroke-width="1.03" opacity="0.45"/>
  <rect x="675.9" y="1483.5" width="6.3" height="33.7" rx="2.1" fill="#0B1020" opacity="0.55" stroke="url(#strokeA)" stroke-width="1.2"/>
</g>

<g opacity="0.184">
  <line x1="97.4" y1="1422.8" x2="97.4" y2="1519.7" stroke="#06B6D4" stroke-width="1.23" opacity="0.45"/>
  <rect x="93.6" y="1480.8" width="7.6" height="39.1" rx="2.5" fill="#0B1020" opacity="0.55" stroke="url(#strokeA)" stroke-width="1.2"/>
</g>

<g opacity="0.184">
  <line x1="88.6" y1="1440.3" x2="88.6" y2="1515.4" stroke="#06B6D4" stroke-width="1.10" opacity="0.45"/>
  <rect x="84.9" y="1485.9" width="7.3" height="28.9" rx="2.4" fill="#0B1020" opacity="0.55" stroke="url(#strokeA)" stroke-width="1.2"/>
</g>

<g opacity="0.184">
  <line x1="5.3" y1="1412.2" x2="5.3" y2="1522.4" stroke="#06B6D4" stroke-width="2.07" opacity="0.45"/>
  <rect x="1.3" y="1473.1" width="7.9" height="54.4" rx="2.6" fill="#0B1020" opacity="0.55" stroke="url(#strokeA)" stroke-width="1.2"/>
</g>

<g opacity="0.184">
  <line x1="616.2" y1="1440.2" x2="616.2" y2="1515.4" stroke="#06B6D4" stroke-width="1.89" opacity="0.45"/>
  <rect x="612.5" y="1475.9" width="7.4" height="48.8" rx="2.5" fill="#0B1020" opacity="0.55" stroke="url(#strokeA)" stroke-width="1.2"/>
</g>

<g opacity="0.184">
  <line x1="403.9" y1="1448.6" x2="403.9" y2="1513.3" stroke="#06B6D4" stroke-width="1.44" opacity="0.45"/>
  <rect x="400.3" y="1487.3" width="7.2" height="26.0" rx="2.4" fill="#0B1020" opacity="0.55" stroke="url(#strokeA)" stroke-width="1.2"/>
</g>

<g opacity="0.184">
  <line x1="2.5" y1="1446.9" x2="2.5" y2="1513.7" stroke="#06B6D4" stroke-width="1.14" opacity="0.45"/>
  <rect x="-3.4" y="1486.6" width="11.6" height="27.4" rx="3.9" fill="#0B1020" opacity="0.55" stroke="url(#strokeA)" stroke-width="1.2"/>
</g>
<circle cx="694.9" cy="1429.3" r="2.1" fill="#F97316" opacity="0.17" filter="url(#softGlow)"/>
<circle cx="761.6" cy="8.1" r="2.5" fill="#F97316" opacity="0.10" filter="url(#softGlow)"/>
<circle cx="861.3" cy="555.8" r="2.1" fill="#F97316" opacity="0.14" filter="url(#softGlow)"/>
<circle cx="772.3" cy="1.7" r="2.3" fill="#F97316" opacity="0.16" filter="url(#softGlow)"/>
<circle cx="795.2" cy="12.3" r="1.6" fill="#F97316" opacity="0.17" filter="url(#softGlow)"/>
<circle cx="848.2" cy="808.7" r="1.9" fill="#F97316" opacity="0.14" filter="url(#softGlow)"/>
<circle cx="744.7" cy="1424.1" r="2.3" fill="#F97316" opacity="0.11" filter="url(#softGlow)"/>
<circle cx="29.3" cy="1449.0" r="1.8" fill="#F97316" opacity="0.16" filter="url(#softGlow)"/>
<circle cx="8.3" cy="632.5" r="2.2" fill="#F97316" opacity="0.10" filter="url(#softGlow)"/>
<circle cx="31.8" cy="1455.8" r="2.4" fill="#F97316" opacity="0.19" filter="url(#softGlow)"/>
<circle cx="173.7" cy="1588.9" r="3.1" fill="#F97316" opacity="0.16" filter="url(#softGlow)"/>
<circle cx="114.2" cy="1435.7" r="1.7" fill="#F97316" opacity="0.12" filter="url(#softGlow)"/>
<circle cx="813.4" cy="63.0" r="1.4" fill="#F97316" opacity="0.21" filter="url(#softGlow)"/>
<circle cx="85.4" cy="93.6" r="1.5" fill="#F97316" opacity="0.14" filter="url(#softGlow)"/>
<circle cx="91.9" cy="1578.8" r="2.7" fill="#F97316" opacity="0.11" filter="url(#softGlow)"/>
<circle cx="709.0" cy="26.0" r="1.3" fill="#F97316" opacity="0.15" filter="url(#softGlow)"/>
<circle cx="864.3" cy="890.7" r="2.0" fill="#F97316" opacity="0.15" filter="url(#softGlow)"/>
<circle cx="139.3" cy="1211.9" r="3.0" fill="#F97316" opacity="0.23" filter="url(#softGlow)"/>
<circle cx="725.9" cy="9.4" r="1.6" fill="#F97316" opacity="0.27" filter="url(#softGlow)"/>
<circle cx="43.2" cy="1583.3" r="1.9" fill="#F97316" opacity="0.19" filter="url(#softGlow)"/>
<circle cx="812.7" cy="7.7" r="3.0" fill="#F97316" opacity="0.18" filter="url(#softGlow)"/>
<circle cx="92.2" cy="365.1" r="3.1" fill="#F97316" opacity="0.23" filter="url(#softGlow)"/>
<circle cx="725.2" cy="1577.3" r="1.8" fill="#F97316" opacity="0.19" filter="url(#softGlow)"/>
<circle cx="148.8" cy="1443.8" r="1.6" fill="#F97316" opacity="0.19" filter="url(#softGlow)"/>
<circle cx="115.8" cy="120.2" r="1.9" fill="#F97316" opacity="0.23" filter="url(#softGlow)"/>
<circle cx="141.6" cy="240.7" r="2.4" fill="#F97316" opacity="0.25" filter="url(#softGlow)"/>
<circle cx="148.3" cy="77.7" r="2.3" fill="#F97316" opacity="0.22" filter="url(#softGlow)"/>
<circle cx="871.7" cy="171.9" r="1.8" fill="#F97316" opacity="0.21" filter="url(#softGlow)"/>
<circle cx="743.2" cy="1441.5" r="1.9" fill="#F97316" opacity="0.27" filter="url(#softGlow)"/>
</svg>