<svg xmlns="http://www.w3.org/2000/svg" width="900" height="1600" viewBox="0 0 900 1600" preserveAspectRatio="xMidYMid slice">
<defs>
  <linearGradient id="g0" x1="0" y1="0" x2="1" y2="1">
    <stop offset="0" stop-color="#0B1020"/>
    <stop offset="0.55" stop-color="#F97316" stop-opacity="0.9"/>
    <stop offset="1" stop-color="#020617"/>
  </linearGradient>
  <radialGradient id="g1" cx="20%" cy="15%" r="70%">
    <stop offset="0" stop-color="#06B6D4" stop-opacity="0.38"/>
    <stop offset="0.6" stop-color="#06B6D4" stop-opacity="0.08"/>
    <stop offset="1" stop-color="#06B6D4" stop-opacity="0"/>
  </radialGradient>
  <radialGradient id="g2" cx="85%" cy="80%" r="75%">
    <stop offset="0" stop-color="#06B6D4" stop-opacity="0.28"/>
    <stop offset="0.65" stop-color="#06B6D4" stop-opacity="0.06"/>
    <stop offset="1" stop-color="#06B6D4" stop-opacity="0"/>
  </radialGradient>
  <filter id="softGlow" x="-30%" y="-30%" width="160%" height="160%">
    <feGaussianBlur stdDeviation="12" result="b"/>
    <feMerge>
      <feMergeNode in="b"/>
      <feMergeNode in="SourceGraphic"/>
    </feMerge>
  </filter>
  <filter id="hardGlow" x="-40%" y="-40%" width="180%" height="180%">
    <feGaussianBlur stdDeviation="6" result="b"/>
    <feColorMatrix in="b" type="matrix" values="1 0 0 0 0  0 1 0 0 0  0 0 1 0 0  0 0 0 18 -7" result="c"/>
    <feMerge>
      <feMergeNode in="c"/>
      <feMergeNode in="SourceGraphic"/>
    </feMerge>
  </filter>
  <linearGradient id="strokeA" x1="0" y1="0" x2="1" y2="0">
    <stop offset="0" stop-color="#06B6D4" stop-opacity="0.9"/>
    <stop offset="0.5" stop-color="#FFFFFF" stop-opacity="0.25"/>
    <stop offset="1" stop-color="#06B6D4" stop-opacity="0.7"/>
  </linearGradient>
  <linearGradient id="strokeB" x1="0" y1="0" x2="0" y2="1">
    <stop offset="0" stop-color="#FFFFFF" stop-opacity="0.18"/>
    <stop offset="1" stop-color="#06B6D4" stop-opacity="0.55"/>
  </linearGradient>
</defs>
<rect x="0" y="0" width="900" height="1600" fill="url(#g0)"/>
<rect x="0" y="0" width="900" height="1600" fill="url(#g1)"/>
<rect x="0" y="0" width="900" height="1600" fill="url(#g2)"/>


<defs>
  <radialGradient id="vign" cx="0.5000" cy="0.5000" r="0.85">
    <stop offset="0" stop-color="#000000" stop-opacity="0"/>
    <stop offset="0.55" stop-color="#000000" stop-opacity="0.217"/>
    <stop offset="1" stop-color="#000000" stop-opacity="0.620"/>
  </radialGradient>
</defs>
<rect x="0" y="0" width="900" height="1600" fill="url(#vign)"/>

<g opacity="0.206" filter="url(#softGlow)"><path d="M 800.2,21.7 L 515.5,21.7 L 515.5,1506.7 L 785.0,1506.7 L 785.0,66.9 " fill="none" stroke="url(#strokeB)" stroke-width="1.81" stroke-linecap="round" stroke-linejoin="round"/><circle cx="785.0" cy="66.9" r="3.2" fill="#A3E635" opacity="0.45"/><circle cx="515.5" cy="21.7" r="3.7" fill="#A3E635" opacity="0.45"/><circle cx="800.2" cy="21.7" r="3.3" fill="#A3E635" opacity="0.45"/></g>
<g opacity="0.206" filter="url(#softGlow)"><path d="M 783.7,1420.2 L 848.1,1420.2 L 848.1,53.8 L 39.1,53.8 L 39.1,174.6 " fill="none" stroke="url(#strokeB)" stroke-width="2.07" stroke-linecap="round" stroke-linejoin="round"/><circle cx="39.1" cy="174.6" r="2.7" fill="#A3E635" opacity="0.45"/><circle cx="783.7" cy="1420.2" r="3.1" fill="#A3E635" opacity="0.45"/><circle cx="39.1" cy="53.8" r="2.6" fill="#A3E635" opacity="0.45"/></g>
<g opacity="0.206" filter="url(#softGlow)"><path d="M 777.2,121.5 L 172.1,121.5 L 172.1,1528.4 L 660.9,1528.4 L 660.9,133.6 " fill="none" stroke="url(#strokeB)" stroke-width="1.88" stroke-linecap="round" stroke-linejoin="round"/><circle cx="172.1" cy="1528.4" r="2.6" fill="#A3E635" opacity="0.45"/><circle cx="777.2" cy="121.5" r="3.1" fill="#A3E635" opacity="0.45"/><circle cx="172.1" cy="121.5" r="3.2" fill="#A3E635" opacity="0.45"/></g>
<g opacity="0.206" filter="url(#softGlow)"><path d="M 64.5,1523.3 L 764.1,1523.3 L 764.1,86.0 L 120.8,86.0 L 120.8,2.1 " fill="none" stroke="url(#strokeB)" stroke-width="2.15" stroke-linecap="round" stroke-linejoin="round"/><circle cx="120.8" cy="2.1" r="4.1" fill="#A3E635" opacity="0.45"/><circle cx="764.1" cy="86.0" r="2.3" fill="#A3E635" opacity="0.45"/><circle cx="120.8" cy="86.0" r="3.7" fill="#A3E635" opacity="0.45"/></g>
<g opacity="0.206" filter="url(#softGlow)"><path d="M 706.6,1566.0 L 284.9,1566.0 L 284.9,1538.5 L 48.1,1538.5 L 48.1,310.6 " fill="none" stroke="url(#strokeB)" stroke-width="1.55" stroke-linecap="round" stroke-linejoin="round"/><circle cx="48.1" cy="1538.5" r="2.9" fill="#A3E635" opacity="0.45"/><circle cx="284.9" cy="1538.5" r="3.1" fill="#A3E635" opacity="0.45"/><circle cx="48.1" cy="310.6" r="3.0" fill="#A3E635" opacity="0.45"/></g>
<g opacity="0.206" filter="url(#softGlow)"><path d="M 589.5,86.4 L 189.6,86.4 L 189.6,21.0 L 825.7,21.0 L 825.7,141.3 " fill="none" stroke="url(#strokeB)" stroke-width="1.89" stroke-linecap="round" stroke-linejoin="round"/><circle cx="189.6" cy="86.4" r="2.6" fill="#A3E635" opacity="0.45"/><circle cx="589.5" cy="86.4" r="3.2" fill="#A3E635" opacity="0.45"/><circle cx="825.7" cy="21.0" r="4.0" fill="#A3E635" opacity="0.45"/></g>
<g opacity="0.206" filter="url(#softGlow)"><path d="M 860.9,1581.5 L 813.7,1581.5 L 813.7,1435.0 L 145.5,1435.0 L 145.5,1598.8 " fill="none" stroke="url(#strokeB)" stroke-width="1.48" stroke-linecap="round" stroke-linejoin="round"/><circle cx="813.7" cy="1581.5" r="4.1" fill="#A3E635" opacity="0.45"/><circle cx="860.9" cy="1581.5" r="3.5" fill="#A3E635" opacity="0.45"/><circle cx="813.7" cy="1435.0" r="2.6" fill="#A3E635" opacity="0.45"/></g>
<g opacity="0.206" filter="url(#softGlow)"><path d="M 49.0,152.3 L 144.3,152.3 L 144.3,1442.9 L 23.2,1442.9 L 23.2,1427.5 " fill="none" stroke="url(#strokeB)" stroke-width="1.44" stroke-linecap="round" stroke-linejoin="round"/><circle cx="144.3" cy="152.3" r="3.3" fill="#A3E635" opacity="0.45"/><circle cx="23.2" cy="1442.9" r="3.5" fill="#A3E635" opacity="0.45"/><circle cx="144.3" cy="1442.9" r="2.3" fill="#A3E635" opacity="0.45"/></g>
<g opacity="0.206" filter="url(#softGlow)"><path d="M 57.7,1471.5 L 174.5,1471.5 L 174.5,1550.8 L 750.0,1550.8 L 750.0,47.3 " fill="none" stroke="url(#strokeB)" stroke-width="1.12" stroke-linecap="round" stroke-linejoin="round"/><circle cx="174.5" cy="1550.8" r="2.7" fill="#A3E635" opacity="0.45"/><circle cx="57.7" cy="1471.5" r="2.3" fill="#A3E635" opacity="0.45"/><circle cx="174.5" cy="1471.5" r="3.9" fill="#A3E635" opacity="0.45"/></g>
<g opacity="0.206" filter="url(#softGlow)"><path d="M 117.7,681.7 L 815.6,681.7 L 815.6,1593.0 L 557.9,1593.0 L 557.9,1582.7 " fill="none" stroke="url(#strokeB)" stroke-width="1.61" stroke-linecap="round" stroke-linejoin="round"/><circle cx="117.7" cy="681.7" r="3.1" fill="#A3E635" opacity="0.45"/><circle cx="557.9" cy="1582.7" r="4.1" fill="#A3E635" opacity="0.45"/><circle cx="557.9" cy="1593.0" r="2.3" fill="#A3E635" opacity="0.45"/></g>
<g opacity="0.206" filter="url(#softGlow)"><path d="M 108.6,141.1 L 7.2,141.1 L 7.2,155.5 L 111.5,155.5 L 111.5,70.1 " fill="none" stroke="url(#strokeB)" stroke-width="1.42" stroke-linecap="round" stroke-linejoin="round"/><circle cx="7.2" cy="141.1" r="3.4" fill="#A3E635" opacity="0.45"/><circle cx="7.2" cy="155.5" r="3.3" fill="#A3E635" opacity="0.45"/><circle cx="111.5" cy="155.5" r="2.9" fill="#A3E635" opacity="0.45"/></g>
<g opacity="0.206" filter="url(#softGlow)"><path d="M 887.0,1587.5 L 111.9,1587.5 L 111.9,1491.9 L 121.3,1491.9 L 121.3,18.2 " fill="none" stroke="url(#strokeB)" stroke-width="2.03" stroke-linecap="round" stroke-linejoin="round"/><circle cx="121.3" cy="18.2" r="4.2" fill="#A3E635" opacity="0.45"/><circle cx="121.3" cy="1491.9" r="2.9" fill="#A3E635" opacity="0.45"/><circle cx="887.0" cy="1587.5" r="3.5" fill="#A3E635" opacity="0.45"/></g>
<g opacity="0.206" filter="url(#softGlow)"><path d="M 35.2,1589.8 L 734.8,1589.8 L 734.8,1460.2 L 118.3,1460.2 L 118.3,1590.4 " fill="none" stroke="url(#strokeB)" stroke-width="1.49" stroke-linecap="round" stroke-linejoin="round"/><circle cx="118.3" cy="1590.4" r="2.3" fill="#A3E635" opacity="0.45"/><circle cx="35.2" cy="1589.8" r="3.9" fill="#A3E635" opacity="0.45"/><circle cx="118.3" cy="1460.2" r="3.5" fill="#A3E635" opacity="0.45"/></g>
<g opacity="0.206" filter="url(#softGlow)"><path d="M 19.4,145.6 L 86.7,145.6 L 86.7,1496.0 L 747.7,1496.0 L 747.7,1592.9 " fill="none" stroke="url(#strokeB)" stroke-width="1.50" stroke-linecap="round" stroke-linejoin="round"/><circle cx="86.7" cy="145.6" r="2.6" fill="#A3E635" opacity="0.45"/><circle cx="747.7" cy="1496.0" r="2.8" fill="#A3E635" opacity="0.45"/><circle cx="86.7" cy="1496.0" r="4.1" fill="#A3E635" opacity="0.45"/></g>
<g opacity="0.206" filter="url(#softGlow)"><path d="M 723.1,115.8 L 833.3,115.8 L 833.3,136.6 L 790.4,136.6 L 790.4,1551.0 " fill="none" stroke="url(#strokeB)" stroke-width="2.04" stroke-linecap="round" stroke-linejoin="round"/><circle cx="790.4" cy="136.6" r="3.6" fill="#A3E635" opacity="0.45"/><circle cx="833.3" cy="136.6" r="2.3" fill="#A3E635" opacity="0.45"/><circle cx="790.4" cy="1551.0" r="2.5" fill="#A3E635" opacity="0.45"/></g>
<g opacity="0.206" filter="url(#softGlow)"><path d="M 419.8,1514.8 L 723.0,1514.8 L 723.0,1476.5 L 161.8,1476.5 L 161.8,1548.6 " fill="none" stroke="url(#strokeB)" stroke-width="1.32" stroke-linecap="round" stroke-linejoin="round"/><circle cx="723.0" cy="1514.8" r="3.6" fill="#A3E635" opacity="0.45"/><circle cx="161.8" cy="1476.5" r="3.1" fill="#A3E635" opacity="0.45"/><circle cx="161.8" cy="1548.6" r="3.5" fill="#A3E635" opacity="0.45"/></g>
<g opacity="0.206" filter="url(#softGlow)"><path d="M 776.1,102.0 L 772.0,102.0 L 772.0,1530.7 L 55.1,1530.7 L 55.1,71.9 " fill="none" stroke="url(#strokeB)" stroke-width="1.52" stroke-linecap="round" stroke-linejoin="round"/><circle cx="776.1" cy="102.0" r="2.3" fill="#A3E635" opacity="0.45"/><circle cx="55.1" cy="1530.7" r="3.7" fill="#A3E635" opacity="0.45"/><circle cx="772.0" cy="1530.7" r="2.0" fill="#A3E635" opacity="0.45"/></g>
<g opacity="0.206" filter="url(#softGlow)"><path d="M 68.1,42.6 L 80.4,42.6 L 80.4,1583.0 L 817.8,1583.0 L 817.8,1584.1 " fill="none" stroke="url(#strokeB)" stroke-width="1.73" stroke-linecap="round" stroke-linejoin="round"/><circle cx="80.4" cy="1583.0" r="2.7" fill="#A3E635" opacity="0.45"/><circle cx="80.4" cy="42.6" r="3.6" fill="#A3E635" opacity="0.45"/><circle cx="817.8" cy="1583.0" r="4.0" fill="#A3E635" opacity="0.45"/></g>
<g opacity="0.206" filter="url(#softGlow)"><path d="M 868.3,1597.0 L 751.8,1597.0 L 751.8,1467.1 L 61.4,1467.1 L 61.4,146.5 " fill="none" stroke="url(#strokeB)" stroke-width="1.70" stroke-linecap="round" stroke-linejoin="round"/><circle cx="751.8" cy="1597.0" r="4.0" fill="#A3E635" opacity="0.45"/><circle cx="868.3" cy="1597.0" r="2.2" fill="#A3E635" opacity="0.45"/><circle cx="61.4" cy="146.5" r="4.1" fill="#A3E635" opacity="0.45"/></g>
<g opacity="0.206" filter="url(#softGlow)"><path d="M 143.4,158.1 L 743.6,158.1 L 743.6,1508.0 L 831.6,1508.0 L 831.6,1298.8 " fill="none" stroke="url(#strokeB)" stroke-width="1.14" stroke-linecap="round" stroke-linejoin="round"/><circle cx="743.6" cy="1508.0" r="4.0" fill="#A3E635" opacity="0.45"/><circle cx="143.4" cy="158.1" r="2.4" fill="#A3E635" opacity="0.45"/><circle cx="831.6" cy="1298.8" r="2.3" fill="#A3E635" opacity="0.45"/></g>

<g opacity="0.880" filter="url(#hardGlow)">
  <circle cx="880.4" cy="1401.3" r="36.1" fill="#0A1224" opacity="0.65"/>
  <circle cx="880.4" cy="1401.3" r="36.1" fill="none" stroke="url(#strokeA)" stroke-width="2.9" opacity="0.85"/>
  <circle cx="880.4" cy="1401.3" r="31.0" fill="none" stroke="#06B6D4" stroke-width="1.5" opacity="0.35"/>
  <polygon points="906.1,1405.4 889.7,1425.6 864.0,1421.4 854.8,1397.2 871.2,1377.0 896.8,1381.1" fill="none" stroke="url(#strokeB)" stroke-width="1.2" opacity="0.65"/>
  <polygon points="888.4,1405.7 872.6,1405.9 880.3,1392.2" fill="#06B6D4" opacity="0.22" filter="url(#softGlow)"/>
</g>


<g opacity="0.647" filter="url(#hardGlow)">
  <circle cx="852.5" cy="1430.0" r="17.4" fill="#0A1224" opacity="0.65"/>
  <circle cx="852.5" cy="1430.0" r="17.4" fill="none" stroke="url(#strokeA)" stroke-width="2.0" opacity="0.85"/>
  <circle cx="852.5" cy="1430.0" r="15.0" fill="none" stroke="#A3E635" stroke-width="1.5" opacity="0.35"/>
  <polygon points="854.3,1442.4 842.6,1437.8 840.8,1425.3 850.6,1417.5 862.3,1422.2 864.1,1434.6" fill="none" stroke="url(#strokeB)" stroke-width="1.2" opacity="0.65"/>
  
</g>


<g opacity="0.571" filter="url(#hardGlow)">
  <circle cx="849.8" cy="1373.4" r="19.5" fill="#0A1224" opacity="0.65"/>
  <circle cx="849.8" cy="1373.4" r="19.5" fill="none" stroke="url(#strokeA)" stroke-width="2.0" opacity="0.85"/>
  <circle cx="849.8" cy="1373.4" r="16.8" fill="none" stroke="#A3E635" stroke-width="1.5" opacity="0.35"/>
  <polygon points="837.5,1380.2 837.8,1366.1 850.0,1359.4 862.0,1366.6 861.8,1380.7 849.5,1387.4" fill="none" stroke="url(#strokeB)" stroke-width="1.2" opacity="0.65"/>
  
</g>


<g opacity="0.735" filter="url(#hardGlow)">
  <circle cx="800.3" cy="877.8" r="43.1" fill="#0A1224" opacity="0.65"/>
  <circle cx="800.3" cy="877.8" r="43.1" fill="none" stroke="url(#strokeA)" stroke-width="3.4" opacity="0.85"/>
  <circle cx="800.3" cy="877.8" r="37.1" fill="none" stroke="#06B6D4" stroke-width="1.5" opacity="0.35"/>
  <polygon points="777.7,899.0 770.6,868.8 793.2,847.6 822.9,856.5 830.0,886.7 807.4,908.0" fill="none" stroke="url(#strokeB)" stroke-width="1.2" opacity="0.65"/>
  <polygon points="790.3,882.1 801.6,867.0 809.0,884.3" fill="#06B6D4" opacity="0.22" filter="url(#softGlow)"/>
</g>


<g opacity="0.470" filter="url(#hardGlow)">
  <circle cx="867.0" cy="890.8" r="18.4" fill="#0A1224" opacity="0.65"/>
  <circle cx="867.0" cy="890.8" r="18.4" fill="none" stroke="url(#strokeA)" stroke-width="2.0" opacity="0.85"/>
  <circle cx="867.0" cy="890.8" r="15.8" fill="none" stroke="#A3E635" stroke-width="1.5" opacity="0.35"/>
  <polygon points="854.4,886.6 864.3,877.8 876.9,882.0 879.5,895.0 869.6,903.7 857.0,899.5" fill="none" stroke="url(#strokeB)" stroke-width="1.2" opacity="0.65"/>
  
</g>


<g opacity="0.469" filter="url(#hardGlow)">
  <circle cx="811.0" cy="899.6" r="16.8" fill="#0A1224" opacity="0.65"/>
  <circle cx="811.0" cy="899.6" r="16.8" fill="none" stroke="url(#strokeA)" stroke-width="2.0" opacity="0.85"/>
  <circle cx="811.0" cy="899.6" r="14.5" fill="none" stroke="#A3E635" stroke-width="1.5" opacity="0.35"/>
  <polygon points="822.3,904.2 812.7,911.6 801.5,907.0 799.8,895.0 809.4,887.6 820.6,892.1" fill="none" stroke="url(#strokeB)" stroke-width="1.2" opacity="0.65"/>
  
</g>


<g opacity="0.662" filter="url(#hardGlow)">
  <circle cx="495.0" cy="21.4" r="54.1" fill="#0A1224" opacity="0.65"/>
  <circle cx="495.0" cy="21.4" r="54.1" fill="none" stroke="url(#strokeA)" stroke-width="4.3" opacity="0.85"/>
  <circle cx="495.0" cy="21.4" r="46.5" fill="none" stroke="#06B6D4" stroke-width="1.6" opacity="0.35"/>
  <polygon points="517.8,52.9 479.1,57.0 456.2,25.5 472.1,-10.1 510.8,-14.1 533.7,17.4" fill="none" stroke="url(#strokeB)" stroke-width="1.4" opacity="0.65"/>
  <polygon points="498.7,34.5 481.7,18.1 504.4,11.6" fill="#06B6D4" opacity="0.22" filter="url(#softGlow)"/>
</g>


<g opacity="0.385" filter="url(#hardGlow)">
  <circle cx="431.9" cy="67.5" r="19.0" fill="#0A1224" opacity="0.65"/>
  <circle cx="431.9" cy="67.5" r="19.0" fill="none" stroke="url(#strokeA)" stroke-width="2.0" opacity="0.85"/>
  <circle cx="431.9" cy="67.5" r="16.3" fill="none" stroke="#A3E635" stroke-width="1.5" opacity="0.35"/>
  <polygon points="440.1,56.6 445.5,69.2 437.2,80.1 423.7,78.4 418.3,65.8 426.6,54.9" fill="none" stroke="url(#strokeB)" stroke-width="1.2" opacity="0.65"/>
  <polygon points="435.9,64.9 432.1,72.3 427.6,65.3" fill="#A3E635" opacity="0.22" filter="url(#softGlow)"/>
</g>


<g opacity="0.407" filter="url(#hardGlow)">
  <circle cx="521.7" cy="25.4" r="19.3" fill="#0A1224" opacity="0.65"/>
  <circle cx="521.7" cy="25.4" r="19.3" fill="none" stroke="url(#strokeA)" stroke-width="2.0" opacity="0.85"/>
  <circle cx="521.7" cy="25.4" r="16.6" fill="none" stroke="#A3E635" stroke-width="1.5" opacity="0.35"/>
  <polygon points="512.0,35.3 508.3,22.0 518.0,12.1 531.4,15.5 535.1,28.9 525.4,38.8" fill="none" stroke="url(#strokeB)" stroke-width="1.2" opacity="0.65"/>
  
</g>


<g opacity="0.752" filter="url(#hardGlow)">
  <circle cx="100.7" cy="760.8" r="42.3" fill="#0A1224" opacity="0.65"/>
  <circle cx="100.7" cy="760.8" r="42.3" fill="none" stroke="url(#strokeA)" stroke-width="3.4" opacity="0.85"/>
  <circle cx="100.7" cy="760.8" r="36.4" fill="none" stroke="#06B6D4" stroke-width="1.5" opacity="0.35"/>
  <polygon points="130.8,765.1 112.0,789.0 81.8,784.7 70.5,756.4 89.3,732.5 119.5,736.8" fill="none" stroke="url(#strokeB)" stroke-width="1.2" opacity="0.65"/>
  <polygon points="110.1,765.8 91.6,766.4 100.3,750.1" fill="#06B6D4" opacity="0.22" filter="url(#softGlow)"/>
</g>


<g opacity="0.391" filter="url(#hardGlow)">
  <circle cx="99.9" cy="718.2" r="19.0" fill="#0A1224" opacity="0.65"/>
  <circle cx="99.9" cy="718.2" r="19.0" fill="none" stroke="url(#strokeA)" stroke-width="2.0" opacity="0.85"/>
  <circle cx="99.9" cy="718.2" r="16.3" fill="none" stroke="#A3E635" stroke-width="1.5" opacity="0.35"/>
  <polygon points="86.7,722.1 89.9,708.8 103.0,704.9 113.0,714.3 109.8,727.6 96.7,731.5" fill="none" stroke="url(#strokeB)" stroke-width="1.2" opacity="0.65"/>
  
</g>


<g opacity="0.383" filter="url(#hardGlow)">
  <circle cx="59.6" cy="720.0" r="16.7" fill="#0A1224" opacity="0.65"/>
  <circle cx="59.6" cy="720.0" r="16.7" fill="none" stroke="url(#strokeA)" stroke-width="2.0" opacity="0.85"/>
  <circle cx="59.6" cy="720.0" r="14.3" fill="none" stroke="#A3E635" stroke-width="1.5" opacity="0.35"/>
  <polygon points="47.6,720.4 53.1,709.8 65.1,709.3 71.6,719.5 66.0,730.1 54.0,730.6" fill="none" stroke="url(#strokeB)" stroke-width="1.2" opacity="0.65"/>
  
</g>


<g opacity="0.397" filter="url(#hardGlow)">
  <circle cx="80.4" cy="789.8" r="16.7" fill="#0A1224" opacity="0.65"/>
  <circle cx="80.4" cy="789.8" r="16.7" fill="none" stroke="url(#strokeA)" stroke-width="2.0" opacity="0.85"/>
  <circle cx="80.4" cy="789.8" r="14.4" fill="none" stroke="#A3E635" stroke-width="1.5" opacity="0.35"/>
  <polygon points="80.5,801.8 70.0,795.9 69.9,783.9 80.2,777.7 90.7,783.6 90.8,795.6" fill="none" stroke="url(#strokeB)" stroke-width="1.2" opacity="0.65"/>
  <polygon points="79.0,793.7 77.6,786.6 84.5,789.0" fill="#A3E635" opacity="0.22" filter="url(#softGlow)"/>
</g>


<g opacity="0.775" filter="url(#hardGlow)">
  <circle cx="848.2" cy="1552.4" r="48.4" fill="#0A1224" opacity="0.65"/>
  <circle cx="848.2" cy="1552.4" r="48.4" fill="none" stroke="url(#strokeA)" stroke-width="3.9" opacity="0.85"/>
  <circle cx="848.2" cy="1552.4" r="41.6" fill="none" stroke="#06B6D4" stroke-width="1.5" opacity="0.35"/>
  <polygon points="837.7,1519.2 871.7,1526.7 882.2,1559.9 858.7,1585.6 824.7,1578.1 814.2,1544.9" fill="none" stroke="url(#strokeB)" stroke-width="1.2" opacity="0.65"/>
  <polygon points="848.7,1540.2 858.5,1558.9 837.4,1558.0" fill="#06B6D4" opacity="0.22" filter="url(#softGlow)"/>
</g>


<g opacity="0.430" filter="url(#hardGlow)">
  <circle cx="856.4" cy="1517.6" r="19.1" fill="#0A1224" opacity="0.65"/>
  <circle cx="856.4" cy="1517.6" r="19.1" fill="none" stroke="url(#strokeA)" stroke-width="2.0" opacity="0.85"/>
  <circle cx="856.4" cy="1517.6" r="16.4" fill="none" stroke="#A3E635" stroke-width="1.5" opacity="0.35"/>
  <polygon points="848.2,1528.7 842.7,1516.1 850.8,1505.0 864.5,1506.6 870.0,1519.2 861.9,1530.2" fill="none" stroke="url(#strokeB)" stroke-width="1.2" opacity="0.65"/>
  <polygon points="852.4,1520.3 856.1,1512.8 860.7,1519.8" fill="#A3E635" opacity="0.22" filter="url(#softGlow)"/>
</g>


<g opacity="0.441" filter="url(#hardGlow)">
  <circle cx="795.4" cy="1515.0" r="18.0" fill="#0A1224" opacity="0.65"/>
  <circle cx="795.4" cy="1515.0" r="18.0" fill="none" stroke="url(#strokeA)" stroke-width="2.0" opacity="0.85"/>
  <circle cx="795.4" cy="1515.0" r="15.5" fill="none" stroke="#A3E635" stroke-width="1.5" opacity="0.35"/>
  <polygon points="802.9,1504.4 808.3,1516.2 800.8,1526.8 787.9,1525.5 782.5,1513.7 790.0,1503.2" fill="none" stroke="url(#strokeB)" stroke-width="1.2" opacity="0.65"/>
  <polygon points="799.1,1512.4 795.7,1519.5 791.3,1513.0" fill="#A3E635" opacity="0.22" filter="url(#softGlow)"/>
</g>


<g opacity="0.411" filter="url(#hardGlow)">
  <circle cx="888.7" cy="1584.9" r="20.6" fill="#0A1224" opacity="0.65"/>
  <circle cx="888.7" cy="1584.9" r="20.6" fill="none" stroke="url(#strokeA)" stroke-width="2.0" opacity="0.85"/>
  <circle cx="888.7" cy="1584.9" r="17.7" fill="none" stroke="#A3E635" stroke-width="1.5" opacity="0.35"/>
  <polygon points="894.4,1571.2 903.4,1583.0 897.7,1596.7 883.0,1598.6 874.0,1586.8 879.7,1573.1" fill="none" stroke="url(#strokeB)" stroke-width="1.2" opacity="0.65"/>
  <polygon points="892.2,1581.1 890.2,1589.8 883.6,1583.7" fill="#A3E635" opacity="0.22" filter="url(#softGlow)"/>
</g>


<g opacity="0.388" transform="translate(810.8,1192.9) rotate(-6.8)" filter="url(#softGlow)">
  <rect x="-77.7" y="-67.1" width="155.3" height="134.2" rx="13.4" fill="#050A12" opacity="0.25"/>
  <rect x="-77.7" y="-67.1" width="155.3" height="134.2" rx="13.4" fill="none" stroke="url(#strokeA)" stroke-width="6.7" opacity="0.85"/>
  <rect x="-66.9" y="-56.3" width="133.9" height="112.7" rx="9.4" fill="none" stroke="#A3E635" stroke-width="2.7" opacity="0.35"/>
</g>


<g opacity="0.315" transform="translate(113.4,807.5) rotate(5.5)" filter="url(#softGlow)">
  <rect x="-72.6" y="-67.6" width="145.2" height="135.3" rx="13.5" fill="#050A12" opacity="0.25"/>
  <rect x="-72.6" y="-67.6" width="145.2" height="135.3" rx="13.5" fill="none" stroke="url(#strokeA)" stroke-width="6.8" opacity="0.85"/>
  <rect x="-61.8" y="-56.8" width="123.6" height="113.6" rx="9.5" fill="none" stroke="#A3E635" stroke-width="2.7" opacity="0.35"/>
</g>


<g opacity="0.370" transform="translate(106.6,130.5) rotate(-6.7)" filter="url(#softGlow)">
  <rect x="-85.3" y="-68.2" width="170.5" height="136.4" rx="13.6" fill="#050A12" opacity="0.25"/>
  <rect x="-85.3" y="-68.2" width="170.5" height="136.4" rx="13.6" fill="none" stroke="url(#strokeA)" stroke-width="6.8" opacity="0.85"/>
  <rect x="-74.3" y="-57.3" width="148.7" height="114.6" rx="9.5" fill="none" stroke="#A3E635" stroke-width="2.7" opacity="0.35"/>
</g>


<g opacity="0.270" transform="translate(841.1,89.2) rotate(3.6)" filter="url(#softGlow)">
  <rect x="-80.3" y="-70.3" width="160.7" height="140.6" rx="14.1" fill="#050A12" opacity="0.25"/>
  <rect x="-80.3" y="-70.3" width="160.7" height="140.6" rx="14.1" fill="none" stroke="url(#strokeA)" stroke-width="7.0" opacity="0.85"/>
  <rect x="-69.1" y="-59.0" width="138.2" height="118.1" rx="9.8" fill="none" stroke="#06B6D4" stroke-width="2.8" opacity="0.35"/>
</g>


<g opacity="0.373" transform="translate(856.6,705.4) rotate(1.7)" filter="url(#softGlow)">
  <rect x="-81.2" y="-55.7" width="162.4" height="111.5" rx="11.1" fill="#050A12" opacity="0.25"/>
  <rect x="-81.2" y="-55.7" width="162.4" height="111.5" rx="11.1" fill="none" stroke="url(#strokeA)" stroke-width="5.6" opacity="0.85"/>
  <rect x="-72.3" y="-46.8" width="144.5" height="93.6" rx="7.8" fill="none" stroke="#06B6D4" stroke-width="2.2" opacity="0.35"/>
</g>


<g opacity="0.365" transform="translate(816.2,176.8) rotate(-1.1)" filter="url(#softGlow)">
  <rect x="-46.5" y="-26.8" width="92.9" height="53.5" rx="16.4" fill="none" stroke="#A3E635" stroke-width="8.9" opacity="0.55"/>
  <rect x="-20.4" y="-13.4" width="92.9" height="53.5" rx="16.4" fill="none" stroke="url(#strokeA)" stroke-width="7.4" opacity="0.55"/>
</g>


<g opacity="0.380" transform="translate(459.1,129.3) rotate(-6.9)" filter="url(#softGlow)">
  <rect x="-46.4" y="-26.7" width="92.8" height="53.5" rx="16.3" fill="none" stroke="#A3E635" stroke-width="8.9" opacity="0.55"/>
  <rect x="-20.4" y="-13.4" width="92.8" height="53.5" rx="16.3" fill="none" stroke="url(#strokeA)" stroke-width="7.4" opacity="0.55"/>
</g>


<g opacity="0.246" transform="translate(119.3,1496.1) rotate(-0.2)" filter="url(#softGlow)">
  <rect x="-36.1" y="-20.8" width="72.2" height="41.6" rx="12.7" fill="none" stroke="#A3E635" stroke-width="6.9" opacity="0.55"/>
  <rect x="-15.9" y="-10.4" width="72.2" height="41.6" rx="12.7" fill="none" stroke="url(#strokeA)" stroke-width="5.8" opacity="0.55"/>
</g>


<g opacity="0.260" transform="translate(27.5,1375.1) rotate(3.1)" filter="url(#softGlow)">
  <rect x="-37.2" y="-21.4" width="74.5" height="42.9" rx="13.1" fill="none" stroke="#06B6D4" stroke-width="7.1" opacity="0.55"/>
  <rect x="-16.4" y="-10.7" width="74.5" height="42.9" rx="13.1" fill="none" stroke="url(#strokeA)" stroke-width="6.0" opacity="0.55"/>
</g>


<g opacity="0.434" transform="translate(124.9,105.8) rotate(7.6)" filter="url(#softGlow)">
  <rect x="-35.6" y="-20.5" width="71.2" height="41.0" rx="12.5" fill="none" stroke="#A3E635" stroke-width="6.8" opacity="0.55"/>
  <rect x="-15.7" y="-10.3" width="71.2" height="41.0" rx="12.5" fill="none" stroke="url(#strokeA)" stroke-width="5.7" opacity="0.55"/>
</g>


<g opacity="0.314" transform="translate(889.7,1541.0) rotate(-9.5)" filter="url(#softGlow)">
  <rect x="-45.6" y="-26.3" width="91.2" height="52.6" rx="16.1" fill="none" stroke="#A3E635" stroke-width="8.8" opacity="0.55"/>
  <rect x="-20.1" y="-13.1" width="91.2" height="52.6" rx="16.1" fill="none" stroke="url(#strokeA)" stroke-width="7.3" opacity="0.55"/>
</g>


<g opacity="0.259" transform="translate(794.1,166.0) rotate(0.0)" filter="url(#softGlow)">
  <rect x="-39.7" y="-22.8" width="79.3" height="45.7" rx="14.0" fill="none" stroke="#A3E635" stroke-width="7.6" opacity="0.55"/>
  <rect x="-17.4" y="-11.4" width="79.3" height="45.7" rx="14.0" fill="none" stroke="url(#strokeA)" stroke-width="6.3" opacity="0.55"/>
</g>


<g opacity="0.182">
  <line x1="175.9" y1="1428.6" x2="175.9" y2="1478.6" stroke="#A3E635" stroke-width="1.07" opacity="0.45"/>
  <rect x="172.7" y="1454.3" width="6.5" height="28.5" rx="2.2" fill="#0B1020" opacity="0.55" stroke="url(#strokeA)" stroke-width="1.2"/>
</g>

<g opacity="0.182">
  <line x1="663.7" y1="1433.2" x2="663.7" y2="1477.4" stroke="#A3E635" stroke-width="1.95" opacity="0.45"/>
  <rect x="660.0" y="1457.5" width="7.4" height="22.2" rx="2.5" fill="#0B1020" opacity="0.55" stroke="url(#strokeA)" stroke-width="1.2"/>
</g>

<g opacity="0.182">
  <line x1="885.9" y1="1393.4" x2="885.9" y2="1487.4" stroke="#A3E635" stroke-width="1.85" opacity="0.45"/>
  <rect x="881.3" y="1439.2" width="9.2" height="58.8" rx="3.1" fill="#0B1020" opacity="0.55" stroke="url(#strokeA)" stroke-width="1.2"/>
</g>

<g opacity="0.182">
  <line x1="412.2" y1="1391.3" x2="412.2" y2="1487.9" stroke="#A3E635" stroke-width="1.66" opacity="0.45"/>
  <rect x="407.6" y="1442.4" width="9.1" height="52.4" rx="3.0" fill="#0B1020" opacity="0.55" stroke="url(#strokeA)" stroke-width="1.2"/>
</g>

<g opacity="0.182">
  <line x1="592.3" y1="1403.1" x2="592.3" y2="1485.0" stroke="#A3E635" stroke-width="1.90" opacity="0.45"/>
  <rect x="587.3" y="1448.8" width="9.9" height="39.6" rx="3.3" fill="#0B1020" opacity="0.55" stroke="url(#strokeA)" stroke-width="1.2"/>
</g>

<g opacity="0.182">
  <line x1="431.1" y1="1419.0" x2="431.1" y2="1481.0" stroke="#A3E635" stroke-width="1.73" opacity="0.45"/>
  <rect x="426.6" y="1455.9" width="9.1" height="25.4" rx="3.0" fill="#0B1020" opacity="0.55" stroke="url(#strokeA)" stroke-width="1.2"/>
</g>

<g opacity="0.182">
  <line x1="27.9" y1="1386.3" x2="27.9" y2="1489.2" stroke="#A3E635" stroke-width="2.04" opacity="0.45"/>
  <rect x="22.6" y="1442.2" width="10.6" height="52.7" rx="3.5" fill="#0B1020" opacity="0.55" stroke="url(#strokeA)" stroke-width="1.2"/>
</g>

<g opacity="0.182">
  <line x1="781.7" y1="1410.1" x2="781.7" y2="1483.2" stroke="#A3E635" stroke-width="2.00" opacity="0.45"/>
  <rect x="778.0" y="1449.9" width="7.4" height="37.3" rx="2.5" fill="#0B1020" opacity="0.55" stroke="url(#strokeA)" stroke-width="1.2"/>
</g>

<g opacity="0.182">
  <line x1="179.5" y1="1393.8" x2="179.5" y2="1487.3" stroke="#A3E635" stroke-width="1.25" opacity="0.45"/>
  <rect x="174.2" y="1441.2" width="10.7" height="54.7" rx="3.6" fill="#0B1020" opacity="0.55" stroke="url(#strokeA)" stroke-width="1.2"/>
</g>

<g opacity="0.182">
  <line x1="582.8" y1="1401.5" x2="582.8" y2="1485.4" stroke="#A3E635" stroke-width="2.18" opacity="0.45"/>
  <rect x="578.0" y="1450.6" width="9.7" height="36.0" rx="3.2" fill="#0B1020" opacity="0.55" stroke="url(#strokeA)" stroke-width="1.2"/>
</g>

<g opacity="0.182">
  <line x1="438.9" y1="1410.5" x2="438.9" y2="1483.1" stroke="#A3E635" stroke-width="1.78" opacity="0.45"/>
  <rect x="435.8" y="1451.4" width="6.3" height="34.3" rx="2.1" fill="#0B1020" opacity="0.55" stroke="url(#strokeA)" stroke-width="1.2"/>
</g>

<g opacity="0.182">
  <line x1="101.6" y1="1389.6" x2="101.6" y2="1488.3" stroke="#A3E635" stroke-width="1.74" opacity="0.45"/>
  <rect x="97.4" y="1444.5" width="8.3" height="48.1" rx="2.8" fill="#0B1020" opacity="0.55" stroke="url(#strokeA)" stroke-width="1.2"/>
</g>

<g opacity="0.182">
  <line x1="174.3" y1="1409.0" x2="174.3" y2="1483.5" stroke="#A3E635" stroke-width="2.18" opacity="0.45"/>
  <rect x="170.8" y="1455.5" width="7.0" height="26.2" rx="2.3" fill="#0B1020" opacity="0.55" stroke="url(#strokeA)" stroke-width="1.2"/>
</g>
<circle cx="816.0" cy="21.7" r="2.7" fill="#06B6D4" opacity="0.15" filter="url(#softGlow)"/>
<circle cx="468.8" cy="67.3" r="1.5" fill="#06B6D4" opacity="0.12" filter="url(#softGlow)"/>
<circle cx="752.3" cy="60.3" r="1.5" fill="#06B6D4" opacity="0.21" filter="url(#softGlow)"/>
<circle cx="35.8" cy="1539.9" r="3.0" fill="#06B6D4" opacity="0.11" filter="url(#softGlow)"/>
<circle cx="139.4" cy="302.6" r="3.0" fill="#06B6D4" opacity="0.26" filter="url(#softGlow)"/>
<circle cx="172.7" cy="65.3" r="3.1" fill="#06B6D4" opacity="0.14" filter="url(#softGlow)"/>
<circle cx="778.3" cy="1403.0" r="2.1" fill="#06B6D4" opacity="0.26" filter="url(#softGlow)"/>
<circle cx="48.1" cy="1438.6" r="2.5" fill="#06B6D4" opacity="0.11" filter="url(#softGlow)"/>
<circle cx="306.2" cy="164.5" r="1.3" fill="#06B6D4" opacity="0.18" filter="url(#softGlow)"/>
<circle cx="82.4" cy="1576.8" r="2.7" fill="#06B6D4" opacity="0.10" filter="url(#softGlow)"/>
<circle cx="784.7" cy="1476.3" r="2.2" fill="#06B6D4" opacity="0.26" filter="url(#softGlow)"/>
<circle cx="781.6" cy="36.7" r="1.5" fill="#06B6D4" opacity="0.12" filter="url(#softGlow)"/>
<circle cx="400.5" cy="164.4" r="2.2" fill="#06B6D4" opacity="0.24" filter="url(#softGlow)"/>
<circle cx="742.6" cy="33.3" r="1.5" fill="#06B6D4" opacity="0.20" filter="url(#softGlow)"/>
<circle cx="84.9" cy="705.1" r="1.8" fill="#06B6D4" opacity="0.22" filter="url(#softGlow)"/>
<circle cx="533.6" cy="119.7" r="2.3" fill="#06B6D4" opacity="0.16" filter="url(#softGlow)"/>
<circle cx="33.6" cy="133.1" r="3.1" fill="#06B6D4" opacity="0.17" filter="url(#softGlow)"/>
<circle cx="766.2" cy="1560.9" r="1.9" fill="#06B6D4" opacity="0.22" filter="url(#softGlow)"/>
<circle cx="147.4" cy="1555.7" r="2.5" fill="#06B6D4" opacity="0.11" filter="url(#softGlow)"/>
<circle cx="73.8" cy="1582.6" r="1.7" fill="#06B6D4" opacity="0.24" filter="url(#softGlow)"/>
<circle cx="167.5" cy="81.7" r="3.1" fill="#06B6D4" opacity="0.10" filter="url(#softGlow)"/>
<circle cx="138.2" cy="150.9" r="3.0" fill="#06B6D4" opacity="0.23" filter="url(#softGlow)"/>
<circle cx="14.1" cy="16.6" r="1.8" fill="#06B6D4" opacity="0.23" filter="url(#softGlow)"/>
</svg>