<svg xmlns="http://www.w3.org/2000/svg" width="900" height="1600" viewBox="0 0 900 1600" preserveAspectRatio="xMidYMid slice">
<defs>
  <linearGradient id="g0" x1="0" y1="0" x2="1" y2="1">
    <stop offset="0" stop-color="#0B0F1A"/>
    <stop offset="0.55" stop-color="#A855F7" stop-opacity="0.9"/>
    <stop offset="1" stop-color="#030712"/>
  </linearGradient>
  <radialGradient id="g1" cx="20%" cy="15%" r="70%">
    <stop offset="0" stop-color="#22D3EE" stop-opacity="0.38"/>
    <stop offset="0.6" stop-color="#22D3EE" stop-opacity="0.08"/>
    <stop offset="1" stop-color="#22D3EE" stop-opacity="0"/>
  </radialGradient>
  <radialGradient id="g2" cx="85%" cy="80%" r="75%">
    <stop offset="0" stop-color="#22D3EE" stop-opacity="0.28"/>
    <stop offset="0.65" stop-color="#22D3EE" stop-opacity="0.06"/>
    <stop offset="1" stop-color="#22D3EE" stop-opacity="0"/>
  </radialGradient>
  <filter id="softGlow" x="-30%" y="-30%" width="160%" height="160%">
    <feGaussianBlur stdDeviation="12" result="b"/>
    <feMerge>
      <feMergeNode in="b"/>
      <feMergeNode in="SourceGraphic"/>
    </feMerge>
  </filter>
  <filter id="hardGlow" x="-40%" y="-40%" width="180%" height="180%">
    <feGaussianBlur stdDeviation="6" result="b"/>
    <feColorMatrix in="b" type="matrix" values="1 0 0 0 0  0 1 0 0 0  0 0 1 0 0  0 0 0 18 -7" result="c"/>
    <feMerge>
      <feMergeNode in="c"/>
      <feMergeNode in="SourceGraphic"/>
    </feMerge>
  </filter>
  <linearGradient id="strokeA" x1="0" y1="0" x2="1" y2="0">
    <stop offset="0" stop-color="#22D3EE" stop-opacity="0.9"/>
    <stop offset="0.5" stop-color="#FFFFFF" stop-opacity="0.25"/>
    <stop offset="1" stop-color="#22D3EE" stop-opacity="0.7"/>
  </linearGradient>
  <linearGradient id="strokeB" x1="0" y1="0" x2="0" y2="1">
    <stop offset="0" stop-color="#FFFFFF" stop-opacity="0.18"/>
    <stop offset="1" stop-color="#22D3EE" stop-opacity="0.55"/>
  </linearGradient>
</defs>
<rect x="0" y="0" width="900" height="1600" fill="url(#g0)"/>
<rect x="0" y="0" width="900" height="1600" fill="url(#g1)"/>
<rect x="0" y="0" width="900" height="1600" fill="url(#g2)"/>


<defs>
  <radialGradient id="vign" cx="0.5000" cy="0.5000" r="0.85">
    <stop offset="0" stop-color="#000000" stop-opacity="0"/>
    <stop offset="0.55" stop-color="#000000" stop-opacity="0.217"/>
    <stop offset="1" stop-color="#000000" stop-opacity="0.620"/>
  </radialGradient>
</defs>
<rect x="0" y="0" width="900" height="1600" fill="url(#vign)"/>

<g opacity="0.204" filter="url(#softGlow)"><path d="M 131.8,650.5 L 121.5,650.5 L 121.5,48.3 L 134.6,48.3 L 134.6,1599.1 " fill="none" stroke="url(#strokeB)" stroke-width="1.20" stroke-linecap="round" stroke-linejoin="round"/><circle cx="131.8" cy="650.5" r="2.2" fill="#22D3EE" opacity="0.45"/><circle cx="121.5" cy="48.3" r="2.8" fill="#22D3EE" opacity="0.45"/><circle cx="121.5" cy="650.5" r="2.4" fill="#22D3EE" opacity="0.45"/></g>
<g opacity="0.204" filter="url(#softGlow)"><path d="M 759.8,7.3 L 117.2,7.3 L 117.2,1598.8 L 98.7,1598.8 L 98.7,87.5 " fill="none" stroke="url(#strokeB)" stroke-width="1.69" stroke-linecap="round" stroke-linejoin="round"/><circle cx="98.7" cy="87.5" r="2.2" fill="#22D3EE" opacity="0.45"/><circle cx="759.8" cy="7.3" r="3.9" fill="#22D3EE" opacity="0.45"/><circle cx="98.7" cy="1598.8" r="4.1" fill="#22D3EE" opacity="0.45"/></g>
<g opacity="0.204" filter="url(#softGlow)"><path d="M 869.3,593.9 L 174.9,593.9 L 174.9,158.8 L 512.8,158.8 L 512.8,74.5 " fill="none" stroke="url(#strokeB)" stroke-width="1.89" stroke-linecap="round" stroke-linejoin="round"/><circle cx="512.8" cy="74.5" r="3.7" fill="#22D3EE" opacity="0.45"/><circle cx="174.9" cy="158.8" r="3.8" fill="#22D3EE" opacity="0.45"/><circle cx="174.9" cy="593.9" r="3.0" fill="#22D3EE" opacity="0.45"/></g>
<g opacity="0.204" filter="url(#softGlow)"><path d="M 111.6,1541.6 L 810.6,1541.6 L 810.6,142.6 L 129.9,142.6 L 129.9,117.7 " fill="none" stroke="url(#strokeB)" stroke-width="1.44" stroke-linecap="round" stroke-linejoin="round"/><circle cx="111.6" cy="1541.6" r="3.4" fill="#22D3EE" opacity="0.45"/><circle cx="810.6" cy="1541.6" r="2.5" fill="#22D3EE" opacity="0.45"/><circle cx="129.9" cy="142.6" r="2.2" fill="#22D3EE" opacity="0.45"/></g>
<g opacity="0.204" filter="url(#softGlow)"><path d="M 92.8,3.6 L 106.6,3.6 L 106.6,1542.5 L 195.9,1542.5 L 195.9,105.6 " fill="none" stroke="url(#strokeB)" stroke-width="1.70" stroke-linecap="round" stroke-linejoin="round"/><circle cx="92.8" cy="3.6" r="3.0" fill="#22D3EE" opacity="0.45"/><circle cx="106.6" cy="3.6" r="2.9" fill="#22D3EE" opacity="0.45"/><circle cx="106.6" cy="1542.5" r="2.8" fill="#22D3EE" opacity="0.45"/></g>
<g opacity="0.204" filter="url(#softGlow)"><path d="M 112.5,1515.9 L 81.4,1515.9 L 81.4,73.7 L 716.2,73.7 L 716.2,1586.0 " fill="none" stroke="url(#strokeB)" stroke-width="1.17" stroke-linecap="round" stroke-linejoin="round"/><circle cx="716.2" cy="73.7" r="3.8" fill="#22D3EE" opacity="0.45"/><circle cx="81.4" cy="73.7" r="4.1" fill="#22D3EE" opacity="0.45"/><circle cx="716.2" cy="1586.0" r="3.8" fill="#22D3EE" opacity="0.45"/></g>
<g opacity="0.204" filter="url(#softGlow)"><path d="M 114.5,43.8 L 815.8,43.8 L 815.8,149.4 L 131.9,149.4 L 131.9,1230.0 " fill="none" stroke="url(#strokeB)" stroke-width="1.85" stroke-linecap="round" stroke-linejoin="round"/><circle cx="815.8" cy="43.8" r="2.4" fill="#22D3EE" opacity="0.45"/><circle cx="131.9" cy="1230.0" r="2.6" fill="#22D3EE" opacity="0.45"/><circle cx="131.9" cy="149.4" r="3.2" fill="#22D3EE" opacity="0.45"/></g>
<g opacity="0.204" filter="url(#softGlow)"><path d="M 95.8,1564.8 L 886.4,1564.8 L 886.4,61.1 L 792.2,61.1 L 792.2,95.6 " fill="none" stroke="url(#strokeB)" stroke-width="1.77" stroke-linecap="round" stroke-linejoin="round"/><circle cx="886.4" cy="61.1" r="2.4" fill="#22D3EE" opacity="0.45"/><circle cx="792.2" cy="95.6" r="3.5" fill="#22D3EE" opacity="0.45"/><circle cx="886.4" cy="1564.8" r="3.5" fill="#22D3EE" opacity="0.45"/></g>
<g opacity="0.204" filter="url(#softGlow)"><path d="M 31.8,74.6 L 878.9,74.6 L 878.9,1450.3 L 830.2,1450.3 L 830.2,1457.2 " fill="none" stroke="url(#strokeB)" stroke-width="1.27" stroke-linecap="round" stroke-linejoin="round"/><circle cx="830.2" cy="1450.3" r="3.1" fill="#22D3EE" opacity="0.45"/><circle cx="31.8" cy="74.6" r="3.1" fill="#22D3EE" opacity="0.45"/><circle cx="878.9" cy="1450.3" r="2.5" fill="#22D3EE" opacity="0.45"/></g>
<g opacity="0.204" filter="url(#softGlow)"><path d="M 44.3,429.1 L 44.1,429.1 L 44.1,28.5 L 815.9,28.5 L 815.9,145.2 " fill="none" stroke="url(#strokeB)" stroke-width="2.11" stroke-linecap="round" stroke-linejoin="round"/><circle cx="44.3" cy="429.1" r="3.0" fill="#22D3EE" opacity="0.45"/><circle cx="815.9" cy="28.5" r="3.6" fill="#22D3EE" opacity="0.45"/><circle cx="44.1" cy="429.1" r="2.3" fill="#22D3EE" opacity="0.45"/></g>
<g opacity="0.204" filter="url(#softGlow)"><path d="M 24.4,1515.7 L 782.7,1515.7 L 782.7,1393.8 L 844.7,1393.8 L 844.7,1411.2 " fill="none" stroke="url(#strokeB)" stroke-width="2.20" stroke-linecap="round" stroke-linejoin="round"/><circle cx="24.4" cy="1515.7" r="3.8" fill="#22D3EE" opacity="0.45"/><circle cx="844.7" cy="1393.8" r="3.4" fill="#22D3EE" opacity="0.45"/><circle cx="782.7" cy="1515.7" r="3.8" fill="#22D3EE" opacity="0.45"/></g>
<g opacity="0.204" filter="url(#softGlow)"><path d="M 822.3,1571.2 L 118.5,1571.2 L 118.5,152.0 L 846.6,152.0 L 846.6,1555.3 " fill="none" stroke="url(#strokeB)" stroke-width="1.90" stroke-linecap="round" stroke-linejoin="round"/><circle cx="822.3" cy="1571.2" r="4.1" fill="#22D3EE" opacity="0.45"/><circle cx="846.6" cy="152.0" r="2.4" fill="#22D3EE" opacity="0.45"/><circle cx="846.6" cy="1555.3" r="3.3" fill="#22D3EE" opacity="0.45"/></g>
<g opacity="0.204" filter="url(#softGlow)"><path d="M 870.1,869.9 L 53.4,869.9 L 53.4,1420.8 L 829.5,1420.8 L 829.5,10.1 " fill="none" stroke="url(#strokeB)" stroke-width="1.93" stroke-linecap="round" stroke-linejoin="round"/><circle cx="829.5" cy="10.1" r="2.3" fill="#22D3EE" opacity="0.45"/><circle cx="53.4" cy="869.9" r="2.8" fill="#22D3EE" opacity="0.45"/><circle cx="870.1" cy="869.9" r="2.5" fill="#22D3EE" opacity="0.45"/></g>
<g opacity="0.204" filter="url(#softGlow)"><path d="M 409.9,120.7 L 150.4,120.7 L 150.4,1425.9 L 94.7,1425.9 L 94.7,27.3 " fill="none" stroke="url(#strokeB)" stroke-width="2.03" stroke-linecap="round" stroke-linejoin="round"/><circle cx="409.9" cy="120.7" r="4.1" fill="#22D3EE" opacity="0.45"/><circle cx="94.7" cy="1425.9" r="2.5" fill="#22D3EE" opacity="0.45"/><circle cx="150.4" cy="1425.9" r="3.5" fill="#22D3EE" opacity="0.45"/></g>
<g opacity="0.204" filter="url(#softGlow)"><path d="M 33.6,149.8 L 106.0,149.8 L 106.0,1363.3 L 805.1,1363.3 L 805.1,1498.9 " fill="none" stroke="url(#strokeB)" stroke-width="1.98" stroke-linecap="round" stroke-linejoin="round"/><circle cx="805.1" cy="1363.3" r="3.2" fill="#22D3EE" opacity="0.45"/><circle cx="805.1" cy="1498.9" r="2.9" fill="#22D3EE" opacity="0.45"/><circle cx="106.0" cy="149.8" r="2.7" fill="#22D3EE" opacity="0.45"/></g>
<g opacity="0.204" filter="url(#softGlow)"><path d="M 870.3,783.2 L 48.1,783.2 L 48.1,1555.4 L 576.7,1555.4 L 576.7,77.1 " fill="none" stroke="url(#strokeB)" stroke-width="1.38" stroke-linecap="round" stroke-linejoin="round"/><circle cx="576.7" cy="1555.4" r="3.9" fill="#22D3EE" opacity="0.45"/><circle cx="48.1" cy="1555.4" r="2.6" fill="#22D3EE" opacity="0.45"/><circle cx="576.7" cy="77.1" r="3.0" fill="#22D3EE" opacity="0.45"/></g>
<g opacity="0.204" filter="url(#softGlow)"><path d="M 16.6,219.8 L 28.6,219.8 L 28.6,1499.7 L 806.6,1499.7 L 806.6,1431.0 " fill="none" stroke="url(#strokeB)" stroke-width="2.17" stroke-linecap="round" stroke-linejoin="round"/><circle cx="806.6" cy="1431.0" r="2.8" fill="#22D3EE" opacity="0.45"/><circle cx="28.6" cy="219.8" r="2.4" fill="#22D3EE" opacity="0.45"/><circle cx="806.6" cy="1499.7" r="3.2" fill="#22D3EE" opacity="0.45"/></g>
<g opacity="0.204" filter="url(#softGlow)"><path d="M 723.2,1581.4 L 785.2,1581.4 L 785.2,1596.3 L 2.7,1596.3 L 2.7,143.2 " fill="none" stroke="url(#strokeB)" stroke-width="1.19" stroke-linecap="round" stroke-linejoin="round"/><circle cx="2.7" cy="1596.3" r="3.5" fill="#22D3EE" opacity="0.45"/><circle cx="785.2" cy="1581.4" r="4.2" fill="#22D3EE" opacity="0.45"/><circle cx="785.2" cy="1596.3" r="2.5" fill="#22D3EE" opacity="0.45"/></g>
<g opacity="0.204" filter="url(#softGlow)"><path d="M 117.0,1574.0 L 109.9,1574.0 L 109.9,469.9 L 28.9,469.9 L 28.9,369.1 " fill="none" stroke="url(#strokeB)" stroke-width="1.56" stroke-linecap="round" stroke-linejoin="round"/><circle cx="117.0" cy="1574.0" r="3.0" fill="#22D3EE" opacity="0.45"/><circle cx="109.9" cy="469.9" r="2.5" fill="#22D3EE" opacity="0.45"/><circle cx="109.9" cy="1574.0" r="3.9" fill="#22D3EE" opacity="0.45"/></g>
<g opacity="0.204" filter="url(#softGlow)"><path d="M 66.6,1565.6 L 261.3,1565.6 L 261.3,1557.0 L 738.1,1557.0 L 738.1,1590.7 " fill="none" stroke="url(#strokeB)" stroke-width="1.72" stroke-linecap="round" stroke-linejoin="round"/><circle cx="261.3" cy="1565.6" r="2.5" fill="#22D3EE" opacity="0.45"/><circle cx="66.6" cy="1565.6" r="3.4" fill="#22D3EE" opacity="0.45"/><circle cx="261.3" cy="1557.0" r="4.0" fill="#22D3EE" opacity="0.45"/></g>

<g opacity="0.861" filter="url(#hardGlow)">
  <circle cx="87.3" cy="1549.4" r="53.8" fill="#0A1224" opacity="0.65"/>
  <circle cx="87.3" cy="1549.4" r="53.8" fill="none" stroke="url(#strokeA)" stroke-width="4.3" opacity="0.85"/>
  <circle cx="87.3" cy="1549.4" r="46.3" fill="none" stroke="#F59E0B" stroke-width="1.6" opacity="0.35"/>
  <polygon points="95.2,1587.3 58.4,1575.1 50.6,1537.2 79.5,1511.4 116.3,1523.7 124.1,1561.6" fill="none" stroke="url(#strokeB)" stroke-width="1.3" opacity="0.65"/>
  <polygon points="85.4,1562.8 76.7,1541.0 99.9,1544.4" fill="#F59E0B" opacity="0.22" filter="url(#softGlow)"/>
</g>


<g opacity="0.427" filter="url(#hardGlow)">
  <circle cx="44.4" cy="1611.0" r="19.6" fill="#0A1224" opacity="0.65"/>
  <circle cx="44.4" cy="1611.0" r="19.6" fill="none" stroke="url(#strokeA)" stroke-width="2.0" opacity="0.85"/>
  <circle cx="44.4" cy="1611.0" r="16.9" fill="none" stroke="#22D3EE" stroke-width="1.5" opacity="0.35"/>
  <polygon points="55.9,1619.2 43.0,1625.0 31.5,1616.8 32.9,1602.8 45.8,1596.9 57.3,1605.2" fill="none" stroke="url(#strokeB)" stroke-width="1.2" opacity="0.65"/>
  <polygon points="47.2,1615.1 39.5,1611.4 46.5,1606.5" fill="#22D3EE" opacity="0.22" filter="url(#softGlow)"/>
</g>


<g opacity="0.552" filter="url(#hardGlow)">
  <circle cx="130.4" cy="1611.8" r="21.7" fill="#0A1224" opacity="0.65"/>
  <circle cx="130.4" cy="1611.8" r="21.7" fill="none" stroke="url(#strokeA)" stroke-width="2.0" opacity="0.85"/>
  <circle cx="130.4" cy="1611.8" r="18.6" fill="none" stroke="#22D3EE" stroke-width="1.5" opacity="0.35"/>
  <polygon points="142.2,1601.5 145.2,1616.8 133.5,1627.1 118.7,1622.1 115.7,1606.8 127.4,1596.5" fill="none" stroke="url(#strokeB)" stroke-width="1.2" opacity="0.65"/>
  
</g>


<g opacity="0.462" filter="url(#hardGlow)">
  <circle cx="155.1" cy="1595.9" r="27.7" fill="#0A1224" opacity="0.65"/>
  <circle cx="155.1" cy="1595.9" r="27.7" fill="none" stroke="url(#strokeA)" stroke-width="2.2" opacity="0.85"/>
  <circle cx="155.1" cy="1595.9" r="23.9" fill="none" stroke="#22D3EE" stroke-width="1.5" opacity="0.35"/>
  <polygon points="139.8,1583.0 158.6,1576.2 173.9,1589.1 170.3,1608.8 151.6,1615.5 136.3,1602.7" fill="none" stroke="url(#strokeB)" stroke-width="1.2" opacity="0.65"/>
  
</g>


<g opacity="0.821" filter="url(#hardGlow)">
  <circle cx="289.8" cy="68.2" r="32.6" fill="#0A1224" opacity="0.65"/>
  <circle cx="289.8" cy="68.2" r="32.6" fill="none" stroke="url(#strokeA)" stroke-width="2.6" opacity="0.85"/>
  <circle cx="289.8" cy="68.2" r="28.0" fill="none" stroke="#F59E0B" stroke-width="1.5" opacity="0.35"/>
  <polygon points="267.3,74.8 272.9,52.0 295.4,45.5 312.3,61.7 306.7,84.5 284.2,91.0" fill="none" stroke="url(#strokeB)" stroke-width="1.2" opacity="0.65"/>
  <polygon points="281.6,67.7 294.4,61.4 293.4,75.6" fill="#F59E0B" opacity="0.22" filter="url(#softGlow)"/>
</g>


<g opacity="0.602" filter="url(#hardGlow)">
  <circle cx="313.8" cy="93.7" r="17.0" fill="#0A1224" opacity="0.65"/>
  <circle cx="313.8" cy="93.7" r="17.0" fill="none" stroke="url(#strokeA)" stroke-width="2.0" opacity="0.85"/>
  <circle cx="313.8" cy="93.7" r="14.6" fill="none" stroke="#22D3EE" stroke-width="1.5" opacity="0.35"/>
  <polygon points="311.2,105.6 302.2,97.4 304.8,85.4 316.4,81.7 325.5,89.9 322.9,101.9" fill="none" stroke="url(#strokeB)" stroke-width="1.2" opacity="0.65"/>
  
</g>


<g opacity="0.381" filter="url(#hardGlow)">
  <circle cx="291.8" cy="63.0" r="16.5" fill="#0A1224" opacity="0.65"/>
  <circle cx="291.8" cy="63.0" r="16.5" fill="none" stroke="url(#strokeA)" stroke-width="2.0" opacity="0.85"/>
  <circle cx="291.8" cy="63.0" r="14.2" fill="none" stroke="#22D3EE" stroke-width="1.5" opacity="0.35"/>
  <polygon points="299.3,72.2 287.6,74.2 280.0,64.9 284.2,53.8 296.0,51.9 303.5,61.1" fill="none" stroke="url(#strokeB)" stroke-width="1.2" opacity="0.65"/>
  
</g>


<g opacity="0.608" filter="url(#hardGlow)">
  <circle cx="247.0" cy="54.8" r="15.1" fill="#0A1224" opacity="0.65"/>
  <circle cx="247.0" cy="54.8" r="15.1" fill="none" stroke="url(#strokeA)" stroke-width="2.0" opacity="0.85"/>
  <circle cx="247.0" cy="54.8" r="13.0" fill="none" stroke="#22D3EE" stroke-width="1.5" opacity="0.35"/>
  <polygon points="246.0,44.0 255.9,48.5 256.9,59.3 248.0,65.6 238.1,61.1 237.1,50.3" fill="none" stroke="url(#strokeB)" stroke-width="1.2" opacity="0.65"/>
  
</g>


<g opacity="0.829" filter="url(#hardGlow)">
  <circle cx="757.5" cy="121.0" r="37.8" fill="#0A1224" opacity="0.65"/>
  <circle cx="757.5" cy="121.0" r="37.8" fill="none" stroke="url(#strokeA)" stroke-width="3.0" opacity="0.85"/>
  <circle cx="757.5" cy="121.0" r="32.5" fill="none" stroke="#F59E0B" stroke-width="1.5" opacity="0.35"/>
  <polygon points="782.4,132.0 760.4,148.1 735.5,137.1 732.6,110.0 754.6,93.9 779.5,105.0" fill="none" stroke="url(#strokeB)" stroke-width="1.2" opacity="0.65"/>
  <polygon points="764.4,127.6 748.4,123.7 759.8,111.8" fill="#F59E0B" opacity="0.22" filter="url(#softGlow)"/>
</g>


<g opacity="0.499" filter="url(#hardGlow)">
  <circle cx="748.9" cy="111.4" r="19.7" fill="#0A1224" opacity="0.65"/>
  <circle cx="748.9" cy="111.4" r="19.7" fill="none" stroke="url(#strokeA)" stroke-width="2.0" opacity="0.85"/>
  <circle cx="748.9" cy="111.4" r="16.9" fill="none" stroke="#22D3EE" stroke-width="1.5" opacity="0.35"/>
  <polygon points="738.0,120.5 735.6,106.6 746.4,97.5 759.7,102.3 762.2,116.3 751.3,125.4" fill="none" stroke="url(#strokeB)" stroke-width="1.2" opacity="0.65"/>
  <polygon points="744.2,113.1 749.7,106.6 752.7,114.6" fill="#22D3EE" opacity="0.22" filter="url(#softGlow)"/>
</g>


<g opacity="0.550" filter="url(#hardGlow)">
  <circle cx="700.8" cy="91.7" r="18.9" fill="#0A1224" opacity="0.65"/>
  <circle cx="700.8" cy="91.7" r="18.9" fill="none" stroke="url(#strokeA)" stroke-width="2.0" opacity="0.85"/>
  <circle cx="700.8" cy="91.7" r="16.3" fill="none" stroke="#22D3EE" stroke-width="1.5" opacity="0.35"/>
  <polygon points="705.4,104.6 692.0,102.1 687.4,89.2 696.3,78.9 709.7,81.4 714.2,94.2" fill="none" stroke="url(#strokeB)" stroke-width="1.2" opacity="0.65"/>
  
</g>


<g opacity="0.784" filter="url(#hardGlow)">
  <circle cx="814.4" cy="1587.8" r="54.7" fill="#0A1224" opacity="0.65"/>
  <circle cx="814.4" cy="1587.8" r="54.7" fill="none" stroke="url(#strokeA)" stroke-width="4.4" opacity="0.85"/>
  <circle cx="814.4" cy="1587.8" r="47.0" fill="none" stroke="#F59E0B" stroke-width="1.6" opacity="0.35"/>
  <polygon points="787.1,1616.2 776.2,1578.4 803.5,1550.0 841.7,1559.4 852.7,1597.2 825.4,1625.6" fill="none" stroke="url(#strokeB)" stroke-width="1.4" opacity="0.65"/>
  <polygon points="802.1,1593.9 815.4,1574.0 825.9,1595.5" fill="#F59E0B" opacity="0.22" filter="url(#softGlow)"/>
</g>


<g opacity="0.444" filter="url(#hardGlow)">
  <circle cx="762.0" cy="1556.3" r="22.8" fill="#0A1224" opacity="0.65"/>
  <circle cx="762.0" cy="1556.3" r="22.8" fill="none" stroke="url(#strokeA)" stroke-width="2.0" opacity="0.85"/>
  <circle cx="762.0" cy="1556.3" r="19.6" fill="none" stroke="#22D3EE" stroke-width="1.5" opacity="0.35"/>
  <polygon points="776.7,1563.5 763.1,1572.7 748.3,1565.5 747.2,1549.1 760.8,1539.9 775.6,1547.1" fill="none" stroke="url(#strokeB)" stroke-width="1.2" opacity="0.65"/>
  
</g>


<g opacity="0.535" filter="url(#hardGlow)">
  <circle cx="747.4" cy="1622.1" r="20.2" fill="#0A1224" opacity="0.65"/>
  <circle cx="747.4" cy="1622.1" r="20.2" fill="none" stroke="url(#strokeA)" stroke-width="2.0" opacity="0.85"/>
  <circle cx="747.4" cy="1622.1" r="17.4" fill="none" stroke="#22D3EE" stroke-width="1.5" opacity="0.35"/>
  <polygon points="760.3,1628.8 748.1,1636.6 735.1,1629.9 734.5,1615.4 746.8,1607.5 759.7,1614.2" fill="none" stroke="url(#strokeB)" stroke-width="1.2" opacity="0.65"/>
  
</g>


<g opacity="0.855" filter="url(#hardGlow)">
  <circle cx="822.8" cy="819.2" r="58.3" fill="#0A1224" opacity="0.65"/>
  <circle cx="822.8" cy="819.2" r="58.3" fill="none" stroke="url(#strokeA)" stroke-width="4.7" opacity="0.85"/>
  <circle cx="822.8" cy="819.2" r="50.2" fill="none" stroke="#F59E0B" stroke-width="1.7" opacity="0.35"/>
  <polygon points="781.6,827.2 795.3,787.5 836.5,779.4 864.0,811.1 850.4,850.8 809.2,858.9" fill="none" stroke="url(#strokeB)" stroke-width="1.5" opacity="0.65"/>
  <polygon points="808.3,816.9 832.1,807.7 828.1,832.9" fill="#F59E0B" opacity="0.22" filter="url(#softGlow)"/>
</g>


<g opacity="0.452" filter="url(#hardGlow)">
  <circle cx="887.0" cy="847.8" r="28.2" fill="#0A1224" opacity="0.65"/>
  <circle cx="887.0" cy="847.8" r="28.2" fill="none" stroke="url(#strokeA)" stroke-width="2.3" opacity="0.85"/>
  <circle cx="887.0" cy="847.8" r="24.2" fill="none" stroke="#22D3EE" stroke-width="1.5" opacity="0.35"/>
  <polygon points="897.6,830.5 907.3,848.3 896.7,865.6 876.5,865.1 866.8,847.3 877.3,830.0" fill="none" stroke="url(#strokeB)" stroke-width="1.2" opacity="0.65"/>
  <polygon points="892.6,843.4 888.1,854.8 880.4,845.2" fill="#22D3EE" opacity="0.22" filter="url(#softGlow)"/>
</g>


<g opacity="0.514" filter="url(#hardGlow)">
  <circle cx="818.0" cy="788.6" r="26.4" fill="#0A1224" opacity="0.65"/>
  <circle cx="818.0" cy="788.6" r="26.4" fill="none" stroke="url(#strokeA)" stroke-width="2.1" opacity="0.85"/>
  <circle cx="818.0" cy="788.6" r="22.7" fill="none" stroke="#22D3EE" stroke-width="1.5" opacity="0.35"/>
  <polygon points="833.5,799.6 816.2,807.5 800.7,796.5 802.6,777.5 819.9,769.7 835.3,780.7" fill="none" stroke="url(#strokeB)" stroke-width="1.2" opacity="0.65"/>
  <polygon points="821.8,794.1 811.4,789.1 820.9,782.6" fill="#22D3EE" opacity="0.22" filter="url(#softGlow)"/>
</g>


<g opacity="0.902" filter="url(#hardGlow)">
  <circle cx="107.0" cy="131.8" r="48.1" fill="#0A1224" opacity="0.65"/>
  <circle cx="107.0" cy="131.8" r="48.1" fill="none" stroke="url(#strokeA)" stroke-width="3.9" opacity="0.85"/>
  <circle cx="107.0" cy="131.8" r="41.4" fill="none" stroke="#F59E0B" stroke-width="1.5" opacity="0.35"/>
  <polygon points="110.1,166.3 78.6,151.7 75.6,117.2 104.0,97.3 135.4,111.9 138.4,146.4" fill="none" stroke="url(#strokeB)" stroke-width="1.2" opacity="0.65"/>
  <polygon points="103.9,143.5 98.4,123.2 118.7,128.6" fill="#F59E0B" opacity="0.22" filter="url(#softGlow)"/>
</g>


<g opacity="0.558" filter="url(#hardGlow)">
  <circle cx="94.5" cy="179.3" r="25.1" fill="#0A1224" opacity="0.65"/>
  <circle cx="94.5" cy="179.3" r="25.1" fill="none" stroke="url(#strokeA)" stroke-width="2.0" opacity="0.85"/>
  <circle cx="94.5" cy="179.3" r="21.6" fill="none" stroke="#22D3EE" stroke-width="1.5" opacity="0.35"/>
  <polygon points="90.4,196.9 77.2,184.5 81.3,166.9 98.6,161.6 111.8,174.0 107.7,191.6" fill="none" stroke="url(#strokeB)" stroke-width="1.2" opacity="0.65"/>
  <polygon points="91.1,184.6 91.6,173.6 100.8,179.6" fill="#22D3EE" opacity="0.22" filter="url(#softGlow)"/>
</g>


<g opacity="0.510" filter="url(#hardGlow)">
  <circle cx="100.1" cy="79.1" r="24.6" fill="#0A1224" opacity="0.65"/>
  <circle cx="100.1" cy="79.1" r="24.6" fill="none" stroke="url(#strokeA)" stroke-width="2.0" opacity="0.85"/>
  <circle cx="100.1" cy="79.1" r="21.2" fill="none" stroke="#22D3EE" stroke-width="1.5" opacity="0.35"/>
  <polygon points="103.3,96.5 86.6,90.6 83.4,73.1 96.9,61.6 113.6,67.6 116.8,85.0" fill="none" stroke="url(#strokeB)" stroke-width="1.2" opacity="0.65"/>
  <polygon points="99.1,85.2 95.4,75.1 106.0,76.9" fill="#22D3EE" opacity="0.22" filter="url(#softGlow)"/>
</g>


<g opacity="0.401" filter="url(#hardGlow)">
  <circle cx="83.3" cy="102.4" r="24.4" fill="#0A1224" opacity="0.65"/>
  <circle cx="83.3" cy="102.4" r="24.4" fill="none" stroke="url(#strokeA)" stroke-width="2.0" opacity="0.85"/>
  <circle cx="83.3" cy="102.4" r="21.0" fill="none" stroke="#22D3EE" stroke-width="1.5" opacity="0.35"/>
  <polygon points="95.2,115.4 78.0,119.2 66.2,106.2 71.4,89.5 88.6,85.7 100.5,98.6" fill="none" stroke="url(#strokeB)" stroke-width="1.2" opacity="0.65"/>
  
</g>


<g opacity="0.448" transform="translate(764.1,326.4) rotate(6.5)" filter="url(#softGlow)">
  <rect x="-70.9" y="-66.1" width="141.9" height="132.3" rx="13.2" fill="#050A12" opacity="0.25"/>
  <rect x="-70.9" y="-66.1" width="141.9" height="132.3" rx="13.2" fill="none" stroke="url(#strokeA)" stroke-width="6.6" opacity="0.85"/>
  <rect x="-60.3" y="-55.6" width="120.7" height="111.1" rx="9.3" fill="none" stroke="#22D3EE" stroke-width="2.6" opacity="0.35"/>
</g>


<g opacity="0.378" transform="translate(39.6,1521.9) rotate(4.8)" filter="url(#softGlow)">
  <rect x="-70.6" y="-64.7" width="141.2" height="129.3" rx="12.9" fill="#050A12" opacity="0.25"/>
  <rect x="-70.6" y="-64.7" width="141.2" height="129.3" rx="12.9" fill="none" stroke="url(#strokeA)" stroke-width="6.5" opacity="0.85"/>
  <rect x="-60.2" y="-54.3" width="120.5" height="108.6" rx="9.1" fill="none" stroke="#F59E0B" stroke-width="2.6" opacity="0.35"/>
</g>


<g opacity="0.282" transform="translate(792.7,51.2) rotate(2.8)" filter="url(#softGlow)">
  <rect x="-88.4" y="-76.4" width="176.9" height="152.7" rx="15.3" fill="#050A12" opacity="0.25"/>
  <rect x="-88.4" y="-76.4" width="176.9" height="152.7" rx="15.3" fill="none" stroke="url(#strokeA)" stroke-width="7.6" opacity="0.85"/>
  <rect x="-76.2" y="-64.1" width="152.4" height="128.3" rx="10.7" fill="none" stroke="#F59E0B" stroke-width="3.1" opacity="0.35"/>
</g>


<g opacity="0.372" transform="translate(266.0,127.0) rotate(-1.8)" filter="url(#softGlow)">
  <rect x="-37.3" y="-21.5" width="74.6" height="42.9" rx="13.1" fill="none" stroke="#F59E0B" stroke-width="7.2" opacity="0.55"/>
  <rect x="-16.4" y="-10.7" width="74.6" height="42.9" rx="13.1" fill="none" stroke="url(#strokeA)" stroke-width="6.0" opacity="0.55"/>
</g>


<g opacity="0.400" transform="translate(628.7,136.5) rotate(-3.1)" filter="url(#softGlow)">
  <rect x="-28.9" y="-16.7" width="57.8" height="33.3" rx="10.2" fill="none" stroke="#F59E0B" stroke-width="5.6" opacity="0.55"/>
  <rect x="-12.7" y="-8.3" width="57.8" height="33.3" rx="10.2" fill="none" stroke="url(#strokeA)" stroke-width="4.6" opacity="0.55"/>
</g>


<g opacity="0.464" transform="translate(731.3,1478.3) rotate(-12.7)" filter="url(#softGlow)">
  <rect x="-37.8" y="-21.8" width="75.6" height="43.6" rx="13.3" fill="none" stroke="#F59E0B" stroke-width="7.3" opacity="0.55"/>
  <rect x="-16.6" y="-10.9" width="75.6" height="43.6" rx="13.3" fill="none" stroke="url(#strokeA)" stroke-width="6.0" opacity="0.55"/>
</g>


<g opacity="0.325" transform="translate(772.8,110.0) rotate(-13.8)" filter="url(#softGlow)">
  <rect x="-49.3" y="-28.4" width="98.6" height="56.8" rx="17.3" fill="none" stroke="#F59E0B" stroke-width="9.5" opacity="0.55"/>
  <rect x="-21.7" y="-14.2" width="98.6" height="56.8" rx="17.3" fill="none" stroke="url(#strokeA)" stroke-width="7.9" opacity="0.55"/>
</g>


<g opacity="0.433" transform="translate(260.6,141.2) rotate(-6.5)" filter="url(#softGlow)">
  <rect x="-32.9" y="-19.0" width="65.9" height="37.9" rx="11.6" fill="none" stroke="#F59E0B" stroke-width="6.3" opacity="0.55"/>
  <rect x="-14.5" y="-9.5" width="65.9" height="37.9" rx="11.6" fill="none" stroke="url(#strokeA)" stroke-width="5.3" opacity="0.55"/>
</g>


<g opacity="0.313" transform="translate(804.3,1547.1) rotate(12.3)" filter="url(#softGlow)">
  <rect x="-38.5" y="-22.2" width="77.0" height="44.4" rx="13.6" fill="none" stroke="#22D3EE" stroke-width="7.4" opacity="0.55"/>
  <rect x="-17.0" y="-11.1" width="77.0" height="44.4" rx="13.6" fill="none" stroke="url(#strokeA)" stroke-width="6.2" opacity="0.55"/>
</g>


<g opacity="0.287" transform="translate(723.0,155.0) rotate(-6.7)" filter="url(#softGlow)">
  <rect x="-44.4" y="-25.6" width="88.7" height="51.1" rx="15.6" fill="none" stroke="#F59E0B" stroke-width="8.5" opacity="0.55"/>
  <rect x="-19.5" y="-12.8" width="88.7" height="51.1" rx="15.6" fill="none" stroke="url(#strokeA)" stroke-width="7.1" opacity="0.55"/>
</g>


<g opacity="0.433" transform="translate(54.5,1457.3) rotate(-5.9)" filter="url(#softGlow)">
  <rect x="-37.3" y="-21.5" width="74.7" height="43.0" rx="13.1" fill="none" stroke="#F59E0B" stroke-width="7.2" opacity="0.55"/>
  <rect x="-16.4" y="-10.8" width="74.7" height="43.0" rx="13.1" fill="none" stroke="url(#strokeA)" stroke-width="6.0" opacity="0.55"/>
</g>


<g opacity="0.330" transform="translate(178.8,94.8) rotate(-3.9)" filter="url(#softGlow)">
  <rect x="-48.1" y="-27.7" width="96.2" height="55.4" rx="16.9" fill="none" stroke="#F59E0B" stroke-width="9.2" opacity="0.55"/>
  <rect x="-21.2" y="-13.9" width="96.2" height="55.4" rx="16.9" fill="none" stroke="url(#strokeA)" stroke-width="7.7" opacity="0.55"/>
</g>


<g opacity="0.264" transform="translate(401.9,1540.6) rotate(-8.8)" filter="url(#softGlow)">
  <rect x="-44.3" y="-25.5" width="88.6" height="51.0" rx="15.6" fill="none" stroke="#22D3EE" stroke-width="8.5" opacity="0.55"/>
  <rect x="-19.5" y="-12.8" width="88.6" height="51.0" rx="15.6" fill="none" stroke="url(#strokeA)" stroke-width="7.1" opacity="0.55"/>
</g>


<g opacity="0.232">
  <line x1="457.6" y1="1458.0" x2="457.6" y2="1517.9" stroke="#22D3EE" stroke-width="1.80" opacity="0.45"/>
  <rect x="452.9" y="1489.2" width="9.5" height="33.4" rx="3.2" fill="#0B1020" opacity="0.55" stroke="url(#strokeA)" stroke-width="1.2"/>
</g>

<g opacity="0.232">
  <line x1="614.7" y1="1435.7" x2="614.7" y2="1523.5" stroke="#22D3EE" stroke-width="1.58" opacity="0.45"/>
  <rect x="610.4" y="1485.5" width="8.6" height="40.7" rx="2.9" fill="#0B1020" opacity="0.55" stroke="url(#strokeA)" stroke-width="1.2"/>
</g>

<g opacity="0.232">
  <line x1="420.0" y1="1442.1" x2="420.0" y2="1521.9" stroke="#22D3EE" stroke-width="1.99" opacity="0.45"/>
  <rect x="414.4" y="1483.0" width="11.2" height="45.9" rx="3.7" fill="#0B1020" opacity="0.55" stroke="url(#strokeA)" stroke-width="1.2"/>
</g>

<g opacity="0.232">
  <line x1="13.2" y1="1446.7" x2="13.2" y2="1520.7" stroke="#22D3EE" stroke-width="1.85" opacity="0.45"/>
  <rect x="8.8" y="1490.3" width="8.9" height="31.3" rx="3.0" fill="#0B1020" opacity="0.55" stroke="url(#strokeA)" stroke-width="1.2"/>
</g>

<g opacity="0.232">
  <line x1="747.2" y1="1442.0" x2="747.2" y2="1521.9" stroke="#22D3EE" stroke-width="1.97" opacity="0.45"/>
  <rect x="742.4" y="1488.2" width="9.5" height="35.3" rx="3.2" fill="#0B1020" opacity="0.55" stroke="url(#strokeA)" stroke-width="1.2"/>
</g>

<g opacity="0.232">
  <line x1="369.3" y1="1447.7" x2="369.3" y2="1520.5" stroke="#22D3EE" stroke-width="1.31" opacity="0.45"/>
  <rect x="363.6" y="1491.1" width="11.4" height="29.6" rx="3.8" fill="#0B1020" opacity="0.55" stroke="url(#strokeA)" stroke-width="1.2"/>
</g>

<g opacity="0.232">
  <line x1="90.3" y1="1444.3" x2="90.3" y2="1521.3" stroke="#22D3EE" stroke-width="1.95" opacity="0.45"/>
  <rect x="85.3" y="1482.1" width="10.1" height="47.6" rx="3.4" fill="#0B1020" opacity="0.55" stroke="url(#strokeA)" stroke-width="1.2"/>
</g>

<g opacity="0.232">
  <line x1="891.4" y1="1416.4" x2="891.4" y2="1528.3" stroke="#22D3EE" stroke-width="1.69" opacity="0.45"/>
  <rect x="888.4" y="1477.1" width="6.0" height="57.6" rx="2.0" fill="#0B1020" opacity="0.55" stroke="url(#strokeA)" stroke-width="1.2"/>
</g>

<g opacity="0.232">
  <line x1="496.4" y1="1435.2" x2="496.4" y2="1523.6" stroke="#22D3EE" stroke-width="1.89" opacity="0.45"/>
  <rect x="491.5" y="1483.3" width="9.8" height="45.1" rx="3.3" fill="#0B1020" opacity="0.55" stroke="url(#strokeA)" stroke-width="1.2"/>
</g>

<g opacity="0.232">
  <line x1="112.0" y1="1421.7" x2="112.0" y2="1527.0" stroke="#22D3EE" stroke-width="2.14" opacity="0.45"/>
  <rect x="106.8" y="1483.7" width="10.4" height="44.4" rx="3.5" fill="#0B1020" opacity="0.55" stroke="url(#strokeA)" stroke-width="1.2"/>
</g>

<g opacity="0.232">
  <line x1="66.5" y1="1427.2" x2="66.5" y2="1525.6" stroke="#22D3EE" stroke-width="2.18" opacity="0.45"/>
  <rect x="63.0" y="1479.1" width="6.9" height="53.6" rx="2.3" fill="#0B1020" opacity="0.55" stroke="url(#strokeA)" stroke-width="1.2"/>
</g>

<g opacity="0.232">
  <line x1="587.6" y1="1441.7" x2="587.6" y2="1522.0" stroke="#22D3EE" stroke-width="1.20" opacity="0.45"/>
  <rect x="581.8" y="1485.8" width="11.5" height="40.2" rx="3.8" fill="#0B1020" opacity="0.55" stroke="url(#strokeA)" stroke-width="1.2"/>
</g>
<circle cx="133.6" cy="1430.0" r="1.3" fill="#F59E0B" opacity="0.14" filter="url(#softGlow)"/>
<circle cx="727.8" cy="1435.9" r="1.4" fill="#F59E0B" opacity="0.10" filter="url(#softGlow)"/>
<circle cx="83.2" cy="145.5" r="1.3" fill="#F59E0B" opacity="0.17" filter="url(#softGlow)"/>
<circle cx="844.7" cy="796.2" r="2.3" fill="#F59E0B" opacity="0.14" filter="url(#softGlow)"/>
<circle cx="826.0" cy="1156.2" r="2.8" fill="#F59E0B" opacity="0.27" filter="url(#softGlow)"/>
<circle cx="805.2" cy="53.9" r="1.5" fill="#F59E0B" opacity="0.15" filter="url(#softGlow)"/>
<circle cx="885.2" cy="30.8" r="2.5" fill="#F59E0B" opacity="0.16" filter="url(#softGlow)"/>
<circle cx="796.7" cy="840.4" r="2.0" fill="#F59E0B" opacity="0.19" filter="url(#softGlow)"/>
<circle cx="854.1" cy="167.1" r="2.7" fill="#F59E0B" opacity="0.12" filter="url(#softGlow)"/>
<circle cx="833.1" cy="1539.8" r="2.7" fill="#F59E0B" opacity="0.18" filter="url(#softGlow)"/>
<circle cx="263.2" cy="1522.9" r="2.0" fill="#F59E0B" opacity="0.18" filter="url(#softGlow)"/>
<circle cx="36.5" cy="1547.2" r="1.8" fill="#F59E0B" opacity="0.20" filter="url(#softGlow)"/>
<circle cx="227.8" cy="1490.6" r="3.1" fill="#F59E0B" opacity="0.22" filter="url(#softGlow)"/>
<circle cx="730.3" cy="60.4" r="1.8" fill="#F59E0B" opacity="0.28" filter="url(#softGlow)"/>
<circle cx="7.1" cy="956.7" r="3.0" fill="#F59E0B" opacity="0.20" filter="url(#softGlow)"/>
<circle cx="0.2" cy="1420.8" r="2.3" fill="#F59E0B" opacity="0.17" filter="url(#softGlow)"/>
<circle cx="127.7" cy="156.4" r="3.1" fill="#F59E0B" opacity="0.10" filter="url(#softGlow)"/>
<circle cx="896.4" cy="17.4" r="1.7" fill="#F59E0B" opacity="0.26" filter="url(#softGlow)"/>
<circle cx="41.8" cy="1568.4" r="2.5" fill="#F59E0B" opacity="0.13" filter="url(#softGlow)"/>
<circle cx="348.9" cy="1437.4" r="2.5" fill="#F59E0B" opacity="0.26" filter="url(#softGlow)"/>
<circle cx="95.4" cy="1501.0" r="1.6" fill="#F59E0B" opacity="0.23" filter="url(#softGlow)"/>
</svg>