<svg xmlns="http://www.w3.org/2000/svg" width="900" height="1600" viewBox="0 0 900 1600" preserveAspectRatio="xMidYMid slice">
<defs>
  <linearGradient id="g0" x1="0" y1="0" x2="1" y2="1">
    <stop offset="0" stop-color="#0B1020"/>
    <stop offset="0.55" stop-color="#00E5FF" stop-opacity="0.9"/>
    <stop offset="1" stop-color="#051018"/>
  </linearGradient>
  <radialGradient id="g1" cx="20%" cy="15%" r="70%">
    <stop offset="0" stop-color="#7C4DFF" stop-opacity="0.38"/>
    <stop offset="0.6" stop-color="#7C4DFF" stop-opacity="0.08"/>
    <stop offset="1" stop-color="#7C4DFF" stop-opacity="0"/>
  </radialGradient>
  <radialGradient id="g2" cx="85%" cy="80%" r="75%">
    <stop offset="0" stop-color="#7C4DFF" stop-opacity="0.28"/>
    <stop offset="0.65" stop-color="#7C4DFF" stop-opacity="0.06"/>
    <stop offset="1" stop-color="#7C4DFF" stop-opacity="0"/>
  </radialGradient>
  <filter id="softGlow" x="-30%" y="-30%" width="160%" height="160%">
    <feGaussianBlur stdDeviation="12" result="b"/>
    <feMerge>
      <feMergeNode in="b"/>
      <feMergeNode in="SourceGraphic"/>
    </feMerge>
  </filter>
  <filter id="hardGlow" x="-40%" y="-40%" width="180%" height="180%">
    <feGaussianBlur stdDeviation="6" result="b"/>
    <feColorMatrix in="b" type="matrix" values="1 0 0 0 0  0 1 0 0 0  0 0 1 0 0  0 0 0 18 -7" result="c"/>
    <feMerge>
      <feMergeNode in="c"/>
      <feMergeNode in="SourceGraphic"/>
    </feMerge>
  </filter>
  <linearGradient id="strokeA" x1="0" y1="0" x2="1" y2="0">
    <stop offset="0" stop-color="#7C4DFF" stop-opacity="0.9"/>
    <stop offset="0.5" stop-color="#FFFFFF" stop-opacity="0.25"/>
    <stop offset="1" stop-color="#7C4DFF" stop-opacity="0.7"/>
  </linearGradient>
  <linearGradient id="strokeB" x1="0" y1="0" x2="0" y2="1">
    <stop offset="0" stop-color="#FFFFFF" stop-opacity="0.18"/>
    <stop offset="1" stop-color="#7C4DFF" stop-opacity="0.55"/>
  </linearGradient>
</defs>
<rect x="0" y="0" width="900" height="1600" fill="url(#g0)"/>
<rect x="0" y="0" width="900" height="1600" fill="url(#g1)"/>
<rect x="0" y="0" width="900" height="1600" fill="url(#g2)"/>


<defs>
  <radialGradient id="vign" cx="0.5000" cy="0.5000" r="0.85">
    <stop offset="0" stop-color="#000000" stop-opacity="0"/>
    <stop offset="0.55" stop-color="#000000" stop-opacity="0.217"/>
    <stop offset="1" stop-color="#000000" stop-opacity="0.620"/>
  </radialGradient>
</defs>
<rect x="0" y="0" width="900" height="1600" fill="url(#vign)"/>

<g opacity="0.195" filter="url(#softGlow)"><path d="M 128.8,1554.5 L 12.4,1554.5 L 12.4,787.2 L 852.0,787.2 L 852.0,1581.5 " fill="none" stroke="url(#strokeB)" stroke-width="1.89" stroke-linecap="round" stroke-linejoin="round"/><circle cx="12.4" cy="787.2" r="2.4" fill="#FFB300" opacity="0.45"/><circle cx="852.0" cy="787.2" r="3.3" fill="#FFB300" opacity="0.45"/><circle cx="12.4" cy="1554.5" r="2.7" fill="#FFB300" opacity="0.45"/></g>
<g opacity="0.195" filter="url(#softGlow)"><path d="M 724.9,1434.0 L 383.2,1434.0 L 383.2,46.2 L 787.2,46.2 L 787.2,87.4 " fill="none" stroke="url(#strokeB)" stroke-width="1.26" stroke-linecap="round" stroke-linejoin="round"/><circle cx="724.9" cy="1434.0" r="3.8" fill="#FFB300" opacity="0.45"/><circle cx="383.2" cy="46.2" r="4.1" fill="#FFB300" opacity="0.45"/><circle cx="787.2" cy="46.2" r="3.9" fill="#FFB300" opacity="0.45"/></g>
<g opacity="0.195" filter="url(#softGlow)"><path d="M 741.6,790.3 L 25.5,790.3 L 25.5,131.6 L 133.3,131.6 L 133.3,1284.9 " fill="none" stroke="url(#strokeB)" stroke-width="2.10" stroke-linecap="round" stroke-linejoin="round"/><circle cx="133.3" cy="1284.9" r="3.9" fill="#FFB300" opacity="0.45"/><circle cx="25.5" cy="790.3" r="3.5" fill="#FFB300" opacity="0.45"/><circle cx="741.6" cy="790.3" r="3.7" fill="#FFB300" opacity="0.45"/></g>
<g opacity="0.195" filter="url(#softGlow)"><path d="M 37.6,552.3 L 803.0,552.3 L 803.0,8.0 L 75.2,8.0 L 75.2,62.4 " fill="none" stroke="url(#strokeB)" stroke-width="2.16" stroke-linecap="round" stroke-linejoin="round"/><circle cx="803.0" cy="552.3" r="3.1" fill="#FFB300" opacity="0.45"/><circle cx="75.2" cy="8.0" r="3.6" fill="#FFB300" opacity="0.45"/><circle cx="75.2" cy="62.4" r="4.2" fill="#FFB300" opacity="0.45"/></g>
<g opacity="0.195" filter="url(#softGlow)"><path d="M 770.6,1535.9 L 769.5,1535.9 L 769.5,1592.8 L 892.6,1592.8 L 892.6,1478.4 " fill="none" stroke="url(#strokeB)" stroke-width="2.16" stroke-linecap="round" stroke-linejoin="round"/><circle cx="770.6" cy="1535.9" r="3.6" fill="#FFB300" opacity="0.45"/><circle cx="892.6" cy="1592.8" r="3.2" fill="#FFB300" opacity="0.45"/><circle cx="892.6" cy="1478.4" r="3.4" fill="#FFB300" opacity="0.45"/></g>
<g opacity="0.195" filter="url(#softGlow)"><path d="M 77.3,1110.1 L 462.2,1110.1 L 462.2,1566.7 L 76.0,1566.7 L 76.0,68.9 " fill="none" stroke="url(#strokeB)" stroke-width="1.41" stroke-linecap="round" stroke-linejoin="round"/><circle cx="77.3" cy="1110.1" r="2.1" fill="#FFB300" opacity="0.45"/><circle cx="462.2" cy="1566.7" r="3.2" fill="#FFB300" opacity="0.45"/><circle cx="462.2" cy="1110.1" r="3.4" fill="#FFB300" opacity="0.45"/></g>
<g opacity="0.195" filter="url(#softGlow)"><path d="M 128.2,1526.0 L 140.2,1526.0 L 140.2,106.9 L 2.6,106.9 L 2.6,1259.9 " fill="none" stroke="url(#strokeB)" stroke-width="1.82" stroke-linecap="round" stroke-linejoin="round"/><circle cx="140.2" cy="1526.0" r="2.0" fill="#FFB300" opacity="0.45"/><circle cx="128.2" cy="1526.0" r="3.7" fill="#FFB300" opacity="0.45"/><circle cx="2.6" cy="106.9" r="2.7" fill="#FFB300" opacity="0.45"/></g>
<g opacity="0.195" filter="url(#softGlow)"><path d="M 740.3,963.4 L 872.6,963.4 L 872.6,1590.8 L 80.9,1590.8 L 80.9,4.6 " fill="none" stroke="url(#strokeB)" stroke-width="1.31" stroke-linecap="round" stroke-linejoin="round"/><circle cx="80.9" cy="4.6" r="2.6" fill="#FFB300" opacity="0.45"/><circle cx="872.6" cy="1590.8" r="3.0" fill="#FFB300" opacity="0.45"/><circle cx="872.6" cy="963.4" r="3.1" fill="#FFB300" opacity="0.45"/></g>
<g opacity="0.195" filter="url(#softGlow)"><path d="M 78.9,172.1 L 136.7,172.1 L 136.7,85.0 L 126.2,85.0 L 126.2,1517.3 " fill="none" stroke="url(#strokeB)" stroke-width="1.93" stroke-linecap="round" stroke-linejoin="round"/><circle cx="126.2" cy="1517.3" r="3.4" fill="#FFB300" opacity="0.45"/><circle cx="136.7" cy="172.1" r="3.6" fill="#FFB300" opacity="0.45"/><circle cx="126.2" cy="85.0" r="3.2" fill="#FFB300" opacity="0.45"/></g>
<g opacity="0.195" filter="url(#softGlow)"><path d="M 877.6,809.9 L 157.7,809.9 L 157.7,78.8 L 67.9,78.8 L 67.9,74.8 " fill="none" stroke="url(#strokeB)" stroke-width="2.15" stroke-linecap="round" stroke-linejoin="round"/><circle cx="157.7" cy="78.8" r="2.3" fill="#FFB300" opacity="0.45"/><circle cx="67.9" cy="74.8" r="2.0" fill="#FFB300" opacity="0.45"/><circle cx="67.9" cy="78.8" r="3.9" fill="#FFB300" opacity="0.45"/></g>
<g opacity="0.195" filter="url(#softGlow)"><path d="M 30.4,1400.0 L 856.2,1400.0 L 856.2,246.1 L 17.6,246.1 L 17.6,4.6 " fill="none" stroke="url(#strokeB)" stroke-width="2.15" stroke-linecap="round" stroke-linejoin="round"/><circle cx="17.6" cy="246.1" r="2.3" fill="#FFB300" opacity="0.45"/><circle cx="30.4" cy="1400.0" r="3.6" fill="#FFB300" opacity="0.45"/><circle cx="856.2" cy="246.1" r="2.8" fill="#FFB300" opacity="0.45"/></g>
<g opacity="0.195" filter="url(#softGlow)"><path d="M 13.5,34.7 L 425.7,34.7 L 425.7,1577.2 L 141.8,1577.2 L 141.8,1450.1 " fill="none" stroke="url(#strokeB)" stroke-width="1.58" stroke-linecap="round" stroke-linejoin="round"/><circle cx="141.8" cy="1450.1" r="2.5" fill="#FFB300" opacity="0.45"/><circle cx="425.7" cy="1577.2" r="3.8" fill="#FFB300" opacity="0.45"/><circle cx="13.5" cy="34.7" r="2.4" fill="#FFB300" opacity="0.45"/></g>
<g opacity="0.195" filter="url(#softGlow)"><path d="M 143.6,1490.3 L 69.6,1490.3 L 69.6,750.0 L 73.8,750.0 L 73.8,1594.4 " fill="none" stroke="url(#strokeB)" stroke-width="1.66" stroke-linecap="round" stroke-linejoin="round"/><circle cx="143.6" cy="1490.3" r="2.3" fill="#FFB300" opacity="0.45"/><circle cx="69.6" cy="1490.3" r="3.8" fill="#FFB300" opacity="0.45"/><circle cx="73.8" cy="1594.4" r="4.1" fill="#FFB300" opacity="0.45"/></g>
<g opacity="0.195" filter="url(#softGlow)"><path d="M 136.3,515.0 L 60.2,515.0 L 60.2,177.0 L 756.6,177.0 L 756.6,892.9 " fill="none" stroke="url(#strokeB)" stroke-width="1.89" stroke-linecap="round" stroke-linejoin="round"/><circle cx="60.2" cy="177.0" r="2.2" fill="#FFB300" opacity="0.45"/><circle cx="136.3" cy="515.0" r="2.7" fill="#FFB300" opacity="0.45"/><circle cx="756.6" cy="177.0" r="2.4" fill="#FFB300" opacity="0.45"/></g>
<g opacity="0.195" filter="url(#softGlow)"><path d="M 74.7,430.6 L 11.6,430.6 L 11.6,1005.8 L 529.9,1005.8 L 529.9,8.7 " fill="none" stroke="url(#strokeB)" stroke-width="2.00" stroke-linecap="round" stroke-linejoin="round"/><circle cx="529.9" cy="1005.8" r="2.1" fill="#FFB300" opacity="0.45"/><circle cx="11.6" cy="430.6" r="2.4" fill="#FFB300" opacity="0.45"/><circle cx="74.7" cy="430.6" r="2.1" fill="#FFB300" opacity="0.45"/></g>
<g opacity="0.195" filter="url(#softGlow)"><path d="M 72.3,1580.3 L 857.8,1580.3 L 857.8,41.8 L 138.1,41.8 L 138.1,1491.9 " fill="none" stroke="url(#strokeB)" stroke-width="1.77" stroke-linecap="round" stroke-linejoin="round"/><circle cx="857.8" cy="41.8" r="3.9" fill="#FFB300" opacity="0.45"/><circle cx="857.8" cy="1580.3" r="3.9" fill="#FFB300" opacity="0.45"/><circle cx="138.1" cy="1491.9" r="2.8" fill="#FFB300" opacity="0.45"/></g>
<g opacity="0.195" filter="url(#softGlow)"><path d="M 581.6,131.3 L 365.0,131.3 L 365.0,1467.1 L 692.1,1467.1 L 692.1,1585.7 " fill="none" stroke="url(#strokeB)" stroke-width="1.67" stroke-linecap="round" stroke-linejoin="round"/><circle cx="365.0" cy="1467.1" r="3.0" fill="#FFB300" opacity="0.45"/><circle cx="692.1" cy="1585.7" r="4.0" fill="#FFB300" opacity="0.45"/><circle cx="581.6" cy="131.3" r="3.0" fill="#FFB300" opacity="0.45"/></g>
<g opacity="0.195" filter="url(#softGlow)"><path d="M 800.7,1430.1 L 802.3,1430.1 L 802.3,420.5 L 794.3,420.5 L 794.3,250.8 " fill="none" stroke="url(#strokeB)" stroke-width="2.16" stroke-linecap="round" stroke-linejoin="round"/><circle cx="794.3" cy="250.8" r="3.6" fill="#FFB300" opacity="0.45"/><circle cx="802.3" cy="1430.1" r="2.4" fill="#FFB300" opacity="0.45"/><circle cx="794.3" cy="420.5" r="2.6" fill="#FFB300" opacity="0.45"/></g>
<g opacity="0.195" filter="url(#softGlow)"><path d="M 426.4,1428.4 L 864.1,1428.4 L 864.1,1004.4 L 721.6,1004.4 L 721.6,1459.3 " fill="none" stroke="url(#strokeB)" stroke-width="1.55" stroke-linecap="round" stroke-linejoin="round"/><circle cx="721.6" cy="1459.3" r="3.1" fill="#FFB300" opacity="0.45"/><circle cx="721.6" cy="1004.4" r="2.3" fill="#FFB300" opacity="0.45"/><circle cx="426.4" cy="1428.4" r="2.6" fill="#FFB300" opacity="0.45"/></g>

<g opacity="0.698" filter="url(#hardGlow)">
  <circle cx="138.4" cy="134.4" r="56.1" fill="#0A1224" opacity="0.65"/>
  <circle cx="138.4" cy="134.4" r="56.1" fill="none" stroke="url(#strokeA)" stroke-width="4.5" opacity="0.85"/>
  <circle cx="138.4" cy="134.4" r="48.2" fill="none" stroke="#00E5FF" stroke-width="1.7" opacity="0.35"/>
  <polygon points="117.5,168.9 98.0,133.6 118.9,99.0 159.3,99.8 178.8,135.2 157.9,169.7" fill="none" stroke="url(#strokeB)" stroke-width="1.4" opacity="0.65"/>
  <polygon points="127.4,143.2 136.2,120.4 151.6,139.5" fill="#00E5FF" opacity="0.22" filter="url(#softGlow)"/>
</g>


<g opacity="0.393" filter="url(#hardGlow)">
  <circle cx="188.5" cy="164.2" r="29.8" fill="#0A1224" opacity="0.65"/>
  <circle cx="188.5" cy="164.2" r="29.8" fill="none" stroke="url(#strokeA)" stroke-width="2.4" opacity="0.85"/>
  <circle cx="188.5" cy="164.2" r="25.6" fill="none" stroke="#FFB300" stroke-width="1.5" opacity="0.35"/>
  <polygon points="168.0,158.1 183.5,143.4 204.1,149.5 209.0,170.4 193.4,185.1 172.9,178.9" fill="none" stroke="url(#strokeB)" stroke-width="1.2" opacity="0.65"/>
  
</g>


<g opacity="0.723" filter="url(#hardGlow)">
  <circle cx="63.5" cy="64.6" r="32.0" fill="#0A1224" opacity="0.65"/>
  <circle cx="63.5" cy="64.6" r="32.0" fill="none" stroke="url(#strokeA)" stroke-width="2.6" opacity="0.85"/>
  <circle cx="63.5" cy="64.6" r="27.5" fill="none" stroke="#00E5FF" stroke-width="1.5" opacity="0.35"/>
  <polygon points="42.2,73.5 45.1,50.6 66.4,41.7 84.8,55.6 81.9,78.5 60.6,87.4" fill="none" stroke="url(#strokeB)" stroke-width="1.2" opacity="0.65"/>
  <polygon points="55.4,65.0 67.2,57.4 67.9,71.3" fill="#00E5FF" opacity="0.22" filter="url(#softGlow)"/>
</g>


<g opacity="0.568" filter="url(#hardGlow)">
  <circle cx="93.0" cy="52.5" r="15.2" fill="#0A1224" opacity="0.65"/>
  <circle cx="93.0" cy="52.5" r="15.2" fill="none" stroke="url(#strokeA)" stroke-width="2.0" opacity="0.85"/>
  <circle cx="93.0" cy="52.5" r="13.1" fill="none" stroke="#FFB300" stroke-width="1.5" opacity="0.35"/>
  <polygon points="82.7,48.6 91.2,41.6 101.5,45.5 103.3,56.3 94.8,63.3 84.6,59.5" fill="none" stroke="url(#strokeB)" stroke-width="1.2" opacity="0.65"/>
  
</g>


<g opacity="0.867" filter="url(#hardGlow)">
  <circle cx="804.1" cy="1.0" r="51.3" fill="#0A1224" opacity="0.65"/>
  <circle cx="804.1" cy="1.0" r="51.3" fill="none" stroke="url(#strokeA)" stroke-width="4.1" opacity="0.85"/>
  <circle cx="804.1" cy="1.0" r="44.1" fill="none" stroke="#00E5FF" stroke-width="1.5" opacity="0.35"/>
  <polygon points="823.8,32.2 786.9,33.7 767.2,2.5 784.4,-30.2 821.3,-31.7 841.0,-0.5" fill="none" stroke="url(#strokeB)" stroke-width="1.3" opacity="0.65"/>
  <polygon points="806.9,13.6 791.8,-2.9 813.7,-7.7" fill="#00E5FF" opacity="0.22" filter="url(#softGlow)"/>
</g>


<g opacity="0.385" filter="url(#hardGlow)">
  <circle cx="877.7" cy="-16.3" r="27.5" fill="#0A1224" opacity="0.65"/>
  <circle cx="877.7" cy="-16.3" r="27.5" fill="none" stroke="url(#strokeA)" stroke-width="2.2" opacity="0.85"/>
  <circle cx="877.7" cy="-16.3" r="23.7" fill="none" stroke="#FFB300" stroke-width="1.5" opacity="0.35"/>
  <polygon points="895.5,-7.8 879.2,3.4 861.3,-5.1 859.8,-24.9 876.1,-36.1 894.0,-27.5" fill="none" stroke="url(#strokeB)" stroke-width="1.2" opacity="0.65"/>
  
</g>


<g opacity="0.869" filter="url(#hardGlow)">
  <circle cx="885.3" cy="29.2" r="35.6" fill="#0A1224" opacity="0.65"/>
  <circle cx="885.3" cy="29.2" r="35.6" fill="none" stroke="url(#strokeA)" stroke-width="2.8" opacity="0.85"/>
  <circle cx="885.3" cy="29.2" r="30.6" fill="none" stroke="#00E5FF" stroke-width="1.5" opacity="0.35"/>
  <polygon points="886.6,54.8 863.8,43.2 862.5,17.6 884.0,3.6 906.8,15.3 908.1,40.9" fill="none" stroke="url(#strokeB)" stroke-width="1.2" opacity="0.65"/>
  <polygon points="882.7,37.8 879.2,22.6 894.1,27.2" fill="#00E5FF" opacity="0.22" filter="url(#softGlow)"/>
</g>


<g opacity="0.421" filter="url(#hardGlow)">
  <circle cx="857.7" cy="2.7" r="15.7" fill="#0A1224" opacity="0.65"/>
  <circle cx="857.7" cy="2.7" r="15.7" fill="none" stroke="url(#strokeA)" stroke-width="2.0" opacity="0.85"/>
  <circle cx="857.7" cy="2.7" r="13.5" fill="none" stroke="#FFB300" stroke-width="1.5" opacity="0.35"/>
  <polygon points="866.4,-4.6 868.4,6.5 859.7,13.8 849.1,10.0 847.1,-1.1 855.7,-8.4" fill="none" stroke="url(#strokeB)" stroke-width="1.2" opacity="0.65"/>
  <polygon points="861.4,1.3 857.1,6.6 854.7,0.2" fill="#FFB300" opacity="0.22" filter="url(#softGlow)"/>
</g>


<g opacity="0.868" filter="url(#hardGlow)">
  <circle cx="760.4" cy="1507.3" r="45.5" fill="#0A1224" opacity="0.65"/>
  <circle cx="760.4" cy="1507.3" r="45.5" fill="none" stroke="url(#strokeA)" stroke-width="3.6" opacity="0.85"/>
  <circle cx="760.4" cy="1507.3" r="39.1" fill="none" stroke="#00E5FF" stroke-width="1.5" opacity="0.35"/>
  <polygon points="770.2,1538.5 738.3,1531.4 728.5,1500.1 750.7,1476.0 782.6,1483.1 792.4,1514.4" fill="none" stroke="url(#strokeB)" stroke-width="1.2" opacity="0.65"/>
  <polygon points="759.9,1518.7 750.8,1501.1 770.6,1502.0" fill="#00E5FF" opacity="0.22" filter="url(#softGlow)"/>
</g>


<g opacity="0.488" filter="url(#hardGlow)">
  <circle cx="716.3" cy="1513.5" r="20.5" fill="#0A1224" opacity="0.65"/>
  <circle cx="716.3" cy="1513.5" r="20.5" fill="none" stroke="url(#strokeA)" stroke-width="2.0" opacity="0.85"/>
  <circle cx="716.3" cy="1513.5" r="17.6" fill="none" stroke="#FFB300" stroke-width="1.5" opacity="0.35"/>
  <polygon points="705.3,1523.4 702.3,1508.9 713.2,1499.1 727.3,1503.6 730.3,1518.1 719.3,1527.9" fill="none" stroke="url(#strokeB)" stroke-width="1.2" opacity="0.65"/>
  
</g>


<g opacity="0.811" filter="url(#hardGlow)">
  <circle cx="783.9" cy="313.7" r="53.8" fill="#0A1224" opacity="0.65"/>
  <circle cx="783.9" cy="313.7" r="53.8" fill="none" stroke="url(#strokeA)" stroke-width="4.3" opacity="0.85"/>
  <circle cx="783.9" cy="313.7" r="46.3" fill="none" stroke="#00E5FF" stroke-width="1.6" opacity="0.35"/>
  <polygon points="805.8,345.7 767.2,348.7 745.2,316.7 762.0,281.8 800.6,278.7 822.5,310.7" fill="none" stroke="url(#strokeB)" stroke-width="1.3" opacity="0.65"/>
  <polygon points="787.3,326.9 770.8,310.1 793.6,304.2" fill="#00E5FF" opacity="0.22" filter="url(#softGlow)"/>
</g>


<g opacity="0.615" filter="url(#hardGlow)">
  <circle cx="751.8" cy="318.6" r="26.7" fill="#0A1224" opacity="0.65"/>
  <circle cx="751.8" cy="318.6" r="26.7" fill="none" stroke="url(#strokeA)" stroke-width="2.1" opacity="0.85"/>
  <circle cx="751.8" cy="318.6" r="23.0" fill="none" stroke="#FFB300" stroke-width="1.5" opacity="0.35"/>
  <polygon points="747.3,337.3 733.3,324.0 737.9,305.3 756.4,299.8 770.3,313.1 765.8,331.8" fill="none" stroke="url(#strokeB)" stroke-width="1.2" opacity="0.65"/>
  <polygon points="748.1,324.2 748.8,312.5 758.6,319.0" fill="#FFB300" opacity="0.22" filter="url(#softGlow)"/>
</g>


<g opacity="0.352" filter="url(#hardGlow)">
  <circle cx="801.3" cy="343.8" r="25.0" fill="#0A1224" opacity="0.65"/>
  <circle cx="801.3" cy="343.8" r="25.0" fill="none" stroke="url(#strokeA)" stroke-width="2.0" opacity="0.85"/>
  <circle cx="801.3" cy="343.8" r="21.5" fill="none" stroke="#FFB300" stroke-width="1.5" opacity="0.35"/>
  <polygon points="818.7,348.4 806.0,361.1 788.7,356.5 784.0,339.2 796.7,326.4 814.0,331.0" fill="none" stroke="url(#strokeB)" stroke-width="1.2" opacity="0.65"/>
  <polygon points="806.5,347.4 795.7,346.4 801.9,337.5" fill="#FFB300" opacity="0.22" filter="url(#softGlow)"/>
</g>


<g opacity="0.266" transform="translate(25.7,67.8) rotate(4.4)" filter="url(#softGlow)">
  <rect x="-72.9" y="-62.4" width="145.7" height="124.8" rx="12.5" fill="#050A12" opacity="0.25"/>
  <rect x="-72.9" y="-62.4" width="145.7" height="124.8" rx="12.5" fill="none" stroke="url(#strokeA)" stroke-width="6.2" opacity="0.85"/>
  <rect x="-62.9" y="-52.4" width="125.7" height="104.8" rx="8.7" fill="none" stroke="#FFB300" stroke-width="2.5" opacity="0.35"/>
</g>


<g opacity="0.357" transform="translate(17.2,1208.1) rotate(2.4)" filter="url(#softGlow)">
  <rect x="-92.7" y="-63.5" width="185.3" height="127.0" rx="12.7" fill="#050A12" opacity="0.25"/>
  <rect x="-92.7" y="-63.5" width="185.3" height="127.0" rx="12.7" fill="none" stroke="url(#strokeA)" stroke-width="6.4" opacity="0.85"/>
  <rect x="-82.5" y="-53.4" width="165.0" height="106.7" rx="8.9" fill="none" stroke="#FFB300" stroke-width="2.5" opacity="0.35"/>
</g>


<g opacity="0.262" transform="translate(367.5,140.6) rotate(-3.3)" filter="url(#softGlow)">
  <rect x="-80.1" y="-59.3" width="160.2" height="118.6" rx="11.9" fill="#050A12" opacity="0.25"/>
  <rect x="-80.1" y="-59.3" width="160.2" height="118.6" rx="11.9" fill="none" stroke="url(#strokeA)" stroke-width="5.9" opacity="0.85"/>
  <rect x="-70.6" y="-49.8" width="141.2" height="99.7" rx="8.3" fill="none" stroke="#FFB300" stroke-width="2.4" opacity="0.35"/>
</g>


<g opacity="0.286" transform="translate(139.2,804.6) rotate(-1.3)" filter="url(#softGlow)">
  <rect x="-81.0" y="-66.5" width="162.0" height="133.1" rx="13.3" fill="#050A12" opacity="0.25"/>
  <rect x="-81.0" y="-66.5" width="162.0" height="133.1" rx="13.3" fill="none" stroke="url(#strokeA)" stroke-width="6.7" opacity="0.85"/>
  <rect x="-70.4" y="-55.9" width="140.7" height="111.8" rx="9.3" fill="none" stroke="#FFB300" stroke-width="2.7" opacity="0.35"/>
</g>


<g opacity="0.355" transform="translate(158.9,6.7) rotate(-9.3)" filter="url(#softGlow)">
  <rect x="-95.1" y="-74.9" width="190.2" height="149.8" rx="15.0" fill="#050A12" opacity="0.25"/>
  <rect x="-95.1" y="-74.9" width="190.2" height="149.8" rx="15.0" fill="none" stroke="url(#strokeA)" stroke-width="7.5" opacity="0.85"/>
  <rect x="-83.1" y="-62.9" width="166.3" height="125.8" rx="10.5" fill="none" stroke="#FFB300" stroke-width="3.0" opacity="0.35"/>
</g>


<g opacity="0.376" transform="translate(756.8,1450.4) rotate(-14.2)" filter="url(#softGlow)">
  <rect x="-31.8" y="-18.3" width="63.6" height="36.6" rx="11.2" fill="none" stroke="#FFB300" stroke-width="6.1" opacity="0.55"/>
  <rect x="-14.0" y="-9.2" width="63.6" height="36.6" rx="11.2" fill="none" stroke="url(#strokeA)" stroke-width="5.1" opacity="0.55"/>
</g>


<g opacity="0.310" transform="translate(55.0,129.7) rotate(-15.7)" filter="url(#softGlow)">
  <rect x="-44.5" y="-25.6" width="88.9" height="51.2" rx="15.7" fill="none" stroke="#00E5FF" stroke-width="8.5" opacity="0.55"/>
  <rect x="-19.6" y="-12.8" width="88.9" height="51.2" rx="15.7" fill="none" stroke="url(#strokeA)" stroke-width="7.1" opacity="0.55"/>
</g>


<g opacity="0.265" transform="translate(333.0,1504.8) rotate(17.5)" filter="url(#softGlow)">
  <rect x="-39.3" y="-22.6" width="78.6" height="45.3" rx="13.8" fill="none" stroke="#FFB300" stroke-width="7.5" opacity="0.55"/>
  <rect x="-17.3" y="-11.3" width="78.6" height="45.3" rx="13.8" fill="none" stroke="url(#strokeA)" stroke-width="6.3" opacity="0.55"/>
</g>


<g opacity="0.292" transform="translate(28.2,1151.2) rotate(-4.2)" filter="url(#softGlow)">
  <rect x="-45.6" y="-26.2" width="91.1" height="52.5" rx="16.0" fill="none" stroke="#FFB300" stroke-width="8.7" opacity="0.55"/>
  <rect x="-20.0" y="-13.1" width="91.1" height="52.5" rx="16.0" fill="none" stroke="url(#strokeA)" stroke-width="7.3" opacity="0.55"/>
</g>


<g opacity="0.403" transform="translate(104.7,48.9) rotate(7.1)" filter="url(#softGlow)">
  <rect x="-50.4" y="-29.0" width="100.8" height="58.1" rx="17.7" fill="none" stroke="#FFB300" stroke-width="9.7" opacity="0.55"/>
  <rect x="-22.2" y="-14.5" width="100.8" height="58.1" rx="17.7" fill="none" stroke="url(#strokeA)" stroke-width="8.1" opacity="0.55"/>
</g>


<g opacity="0.404" transform="translate(837.0,114.5) rotate(6.9)" filter="url(#softGlow)">
  <rect x="-29.6" y="-17.0" width="59.2" height="34.1" rx="10.4" fill="none" stroke="#FFB300" stroke-width="5.7" opacity="0.55"/>
  <rect x="-13.0" y="-8.5" width="59.2" height="34.1" rx="10.4" fill="none" stroke="url(#strokeA)" stroke-width="4.7" opacity="0.55"/>
</g>


<g opacity="0.366" transform="translate(389.1,60.2) rotate(-7.3)" filter="url(#softGlow)">
  <rect x="-44.7" y="-25.7" width="89.4" height="51.5" rx="15.7" fill="none" stroke="#FFB300" stroke-width="8.6" opacity="0.55"/>
  <rect x="-19.7" y="-12.9" width="89.4" height="51.5" rx="15.7" fill="none" stroke="url(#strokeA)" stroke-width="7.2" opacity="0.55"/>
</g>


<g opacity="0.310" transform="translate(802.0,1555.9) rotate(13.3)" filter="url(#softGlow)">
  <rect x="-31.9" y="-18.4" width="63.7" height="36.7" rx="11.2" fill="none" stroke="#00E5FF" stroke-width="6.1" opacity="0.55"/>
  <rect x="-14.0" y="-9.2" width="63.7" height="36.7" rx="11.2" fill="none" stroke="url(#strokeA)" stroke-width="5.1" opacity="0.55"/>
</g>


<g opacity="0.408" transform="translate(20.7,1560.8) rotate(12.0)" filter="url(#softGlow)">
  <rect x="-42.4" y="-24.4" width="84.7" height="48.8" rx="14.9" fill="none" stroke="#FFB300" stroke-width="8.1" opacity="0.55"/>
  <rect x="-18.6" y="-12.2" width="84.7" height="48.8" rx="14.9" fill="none" stroke="url(#strokeA)" stroke-width="6.8" opacity="0.55"/>
</g>


<g opacity="0.148">
  <line x1="652.2" y1="1430.2" x2="652.2" y2="1513.3" stroke="#FFB300" stroke-width="1.13" opacity="0.45"/>
  <rect x="648.3" y="1477.4" width="7.9" height="38.6" rx="2.6" fill="#0B1020" opacity="0.55" stroke="url(#strokeA)" stroke-width="1.2"/>
</g>

<g opacity="0.148">
  <line x1="579.7" y1="1460.0" x2="579.7" y2="1505.8" stroke="#FFB300" stroke-width="2.06" opacity="0.45"/>
  <rect x="575.7" y="1486.1" width="7.9" height="21.2" rx="2.6" fill="#0B1020" opacity="0.55" stroke="url(#strokeA)" stroke-width="1.2"/>
</g>

<g opacity="0.148">
  <line x1="354.3" y1="1424.7" x2="354.3" y2="1514.6" stroke="#FFB300" stroke-width="2.15" opacity="0.45"/>
  <rect x="348.8" y="1479.3" width="10.9" height="34.8" rx="3.6" fill="#0B1020" opacity="0.55" stroke="url(#strokeA)" stroke-width="1.2"/>
</g>

<g opacity="0.148">
  <line x1="108.0" y1="1422.4" x2="108.0" y2="1515.2" stroke="#FFB300" stroke-width="2.10" opacity="0.45"/>
  <rect x="102.8" y="1469.0" width="10.4" height="55.2" rx="3.5" fill="#0B1020" opacity="0.55" stroke="url(#strokeA)" stroke-width="1.2"/>
</g>

<g opacity="0.148">
  <line x1="604.3" y1="1417.7" x2="604.3" y2="1516.4" stroke="#FFB300" stroke-width="1.56" opacity="0.45"/>
  <rect x="598.3" y="1467.5" width="12.0" height="58.4" rx="4.0" fill="#0B1020" opacity="0.55" stroke="url(#strokeA)" stroke-width="1.2"/>
</g>

<g opacity="0.148">
  <line x1="297.4" y1="1431.8" x2="297.4" y2="1512.9" stroke="#FFB300" stroke-width="1.75" opacity="0.45"/>
  <rect x="292.3" y="1481.9" width="10.2" height="29.6" rx="3.4" fill="#0B1020" opacity="0.55" stroke="url(#strokeA)" stroke-width="1.2"/>
</g>

<g opacity="0.148">
  <line x1="239.7" y1="1428.0" x2="239.7" y2="1513.8" stroke="#FFB300" stroke-width="1.70" opacity="0.45"/>
  <rect x="233.8" y="1477.3" width="11.7" height="38.6" rx="3.9" fill="#0B1020" opacity="0.55" stroke="url(#strokeA)" stroke-width="1.2"/>
</g>

<g opacity="0.148">
  <line x1="141.3" y1="1436.0" x2="141.3" y2="1511.8" stroke="#FFB300" stroke-width="1.40" opacity="0.45"/>
  <rect x="138.3" y="1483.5" width="6.1" height="26.4" rx="2.0" fill="#0B1020" opacity="0.55" stroke="url(#strokeA)" stroke-width="1.2"/>
</g>

<g opacity="0.148">
  <line x1="606.5" y1="1437.4" x2="606.5" y2="1511.5" stroke="#FFB300" stroke-width="1.65" opacity="0.45"/>
  <rect x="600.8" y="1478.7" width="11.4" height="36.0" rx="3.8" fill="#0B1020" opacity="0.55" stroke="url(#strokeA)" stroke-width="1.2"/>
</g>

<g opacity="0.148">
  <line x1="798.1" y1="1425.2" x2="798.1" y2="1514.5" stroke="#FFB300" stroke-width="1.44" opacity="0.45"/>
  <rect x="793.9" y="1471.1" width="8.5" height="51.1" rx="2.8" fill="#0B1020" opacity="0.55" stroke="url(#strokeA)" stroke-width="1.2"/>
</g>

<g opacity="0.148">
  <line x1="493.9" y1="1432.8" x2="493.9" y2="1512.6" stroke="#FFB300" stroke-width="1.01" opacity="0.45"/>
  <rect x="489.5" y="1481.9" width="8.8" height="29.5" rx="2.9" fill="#0B1020" opacity="0.55" stroke="url(#strokeA)" stroke-width="1.2"/>
</g>

<g opacity="0.148">
  <line x1="167.9" y1="1416.4" x2="167.9" y2="1516.7" stroke="#FFB300" stroke-width="1.58" opacity="0.45"/>
  <rect x="164.3" y="1472.7" width="7.3" height="48.0" rx="2.4" fill="#0B1020" opacity="0.55" stroke="url(#strokeA)" stroke-width="1.2"/>
</g>

<g opacity="0.148">
  <line x1="297.0" y1="1409.7" x2="297.0" y2="1518.4" stroke="#FFB300" stroke-width="1.55" opacity="0.45"/>
  <rect x="292.6" y="1472.8" width="8.8" height="47.7" rx="2.9" fill="#0B1020" opacity="0.55" stroke="url(#strokeA)" stroke-width="1.2"/>
</g>

<g opacity="0.148">
  <line x1="83.0" y1="1424.8" x2="83.0" y2="1514.6" stroke="#FFB300" stroke-width="1.55" opacity="0.45"/>
  <rect x="77.4" y="1478.7" width="11.1" height="36.0" rx="3.7" fill="#0B1020" opacity="0.55" stroke="url(#strokeA)" stroke-width="1.2"/>
</g>

<g opacity="0.148">
  <line x1="506.6" y1="1442.4" x2="506.6" y2="1510.2" stroke="#FFB300" stroke-width="1.46" opacity="0.45"/>
  <rect x="502.4" y="1474.8" width="8.5" height="43.6" rx="2.8" fill="#0B1020" opacity="0.55" stroke="url(#strokeA)" stroke-width="1.2"/>
</g>

<g opacity="0.148">
  <line x1="723.2" y1="1446.2" x2="723.2" y2="1509.3" stroke="#FFB300" stroke-width="1.15" opacity="0.45"/>
  <rect x="720.0" y="1476.7" width="6.3" height="40.0" rx="2.1" fill="#0B1020" opacity="0.55" stroke="url(#strokeA)" stroke-width="1.2"/>
</g>

<g opacity="0.148">
  <line x1="239.7" y1="1432.1" x2="239.7" y2="1512.8" stroke="#FFB300" stroke-width="1.60" opacity="0.45"/>
  <rect x="234.0" y="1470.5" width="11.3" height="52.4" rx="3.8" fill="#0B1020" opacity="0.55" stroke="url(#strokeA)" stroke-width="1.2"/>
</g>

<g opacity="0.148">
  <line x1="524.1" y1="1414.3" x2="524.1" y2="1517.3" stroke="#FFB300" stroke-width="1.66" opacity="0.45"/>
  <rect x="521.0" y="1474.3" width="6.3" height="44.7" rx="2.1" fill="#0B1020" opacity="0.55" stroke="url(#strokeA)" stroke-width="1.2"/>
</g>
<circle cx="763.1" cy="1491.0" r="2.2" fill="#00E5FF" opacity="0.18" filter="url(#softGlow)"/>
<circle cx="786.5" cy="827.8" r="2.9" fill="#00E5FF" opacity="0.28" filter="url(#softGlow)"/>
<circle cx="773.3" cy="1519.1" r="2.5" fill="#00E5FF" opacity="0.15" filter="url(#softGlow)"/>
<circle cx="893.8" cy="25.4" r="2.5" fill="#00E5FF" opacity="0.20" filter="url(#softGlow)"/>
<circle cx="49.7" cy="1422.5" r="2.2" fill="#00E5FF" opacity="0.15" filter="url(#softGlow)"/>
<circle cx="899.9" cy="479.6" r="1.4" fill="#00E5FF" opacity="0.10" filter="url(#softGlow)"/>
<circle cx="820.0" cy="450.0" r="1.5" fill="#00E5FF" opacity="0.18" filter="url(#softGlow)"/>
<circle cx="122.6" cy="262.4" r="1.5" fill="#00E5FF" opacity="0.14" filter="url(#softGlow)"/>
<circle cx="157.6" cy="748.9" r="1.3" fill="#00E5FF" opacity="0.10" filter="url(#softGlow)"/>
<circle cx="16.6" cy="1391.2" r="2.7" fill="#00E5FF" opacity="0.22" filter="url(#softGlow)"/>
<circle cx="179.3" cy="1593.1" r="1.6" fill="#00E5FF" opacity="0.26" filter="url(#softGlow)"/>
<circle cx="764.3" cy="558.4" r="2.1" fill="#00E5FF" opacity="0.19" filter="url(#softGlow)"/>
<circle cx="214.5" cy="115.6" r="3.1" fill="#00E5FF" opacity="0.14" filter="url(#softGlow)"/>
<circle cx="735.0" cy="1588.0" r="2.1" fill="#00E5FF" opacity="0.25" filter="url(#softGlow)"/>
<circle cx="43.0" cy="114.0" r="2.8" fill="#00E5FF" opacity="0.13" filter="url(#softGlow)"/>
<circle cx="371.7" cy="1493.0" r="1.4" fill="#00E5FF" opacity="0.15" filter="url(#softGlow)"/>
<circle cx="124.6" cy="21.5" r="3.1" fill="#00E5FF" opacity="0.25" filter="url(#softGlow)"/>
<circle cx="18.5" cy="1413.6" r="2.7" fill="#00E5FF" opacity="0.15" filter="url(#softGlow)"/>
<circle cx="796.4" cy="292.5" r="3.2" fill="#00E5FF" opacity="0.26" filter="url(#softGlow)"/>
<circle cx="150.4" cy="1541.1" r="1.3" fill="#00E5FF" opacity="0.12" filter="url(#softGlow)"/>
<circle cx="87.8" cy="1501.7" r="2.7" fill="#00E5FF" opacity="0.11" filter="url(#softGlow)"/>
<circle cx="18.2" cy="416.3" r="2.1" fill="#00E5FF" opacity="0.15" filter="url(#softGlow)"/>
<circle cx="410.5" cy="1584.8" r="1.8" fill="#00E5FF" opacity="0.13" filter="url(#softGlow)"/>
<circle cx="24.0" cy="1574.0" r="2.8" fill="#00E5FF" opacity="0.14" filter="url(#softGlow)"/>
<circle cx="830.3" cy="1532.8" r="2.1" fill="#00E5FF" opacity="0.19" filter="url(#softGlow)"/>
<circle cx="157.8" cy="43.1" r="2.6" fill="#00E5FF" opacity="0.27" filter="url(#softGlow)"/>
</svg>