<svg xmlns="http://www.w3.org/2000/svg" width="900" height="1600" viewBox="0 0 900 1600" preserveAspectRatio="xMidYMid slice">
<defs>
  <linearGradient id="g0" x1="0" y1="0" x2="1" y2="1">
    <stop offset="0" stop-color="#0B1020"/>
    <stop offset="0.55" stop-color="#00E5FF" stop-opacity="0.9"/>
    <stop offset="1" stop-color="#051018"/>
  </linearGradient>
  <radialGradient id="g1" cx="20%" cy="15%" r="70%">
    <stop offset="0" stop-color="#7C4DFF" stop-opacity="0.38"/>
    <stop offset="0.6" stop-color="#7C4DFF" stop-opacity="0.08"/>
    <stop offset="1" stop-color="#7C4DFF" stop-opacity="0"/>
  </radialGradient>
  <radialGradient id="g2" cx="85%" cy="80%" r="75%">
    <stop offset="0" stop-color="#7C4DFF" stop-opacity="0.28"/>
    <stop offset="0.65" stop-color="#7C4DFF" stop-opacity="0.06"/>
    <stop offset="1" stop-color="#7C4DFF" stop-opacity="0"/>
  </radialGradient>
  <filter id="softGlow" x="-30%" y="-30%" width="160%" height="160%">
    <feGaussianBlur stdDeviation="12" result="b"/>
    <feMerge>
      <feMergeNode in="b"/>
      <feMergeNode in="SourceGraphic"/>
    </feMerge>
  </filter>
  <filter id="hardGlow" x="-40%" y="-40%" width="180%" height="180%">
    <feGaussianBlur stdDeviation="6" result="b"/>
    <feColorMatrix in="b" type="matrix" values="1 0 0 0 0  0 1 0 0 0  0 0 1 0 0  0 0 0 18 -7" result="c"/>
    <feMerge>
      <feMergeNode in="c"/>
      <feMergeNode in="SourceGraphic"/>
    </feMerge>
  </filter>
  <linearGradient id="strokeA" x1="0" y1="0" x2="1" y2="0">
    <stop offset="0" stop-color="#7C4DFF" stop-opacity="0.9"/>
    <stop offset="0.5" stop-color="#FFFFFF" stop-opacity="0.25"/>
    <stop offset="1" stop-color="#7C4DFF" stop-opacity="0.7"/>
  </linearGradient>
  <linearGradient id="strokeB" x1="0" y1="0" x2="0" y2="1">
    <stop offset="0" stop-color="#FFFFFF" stop-opacity="0.18"/>
    <stop offset="1" stop-color="#7C4DFF" stop-opacity="0.55"/>
  </linearGradient>
</defs>
<rect x="0" y="0" width="900" height="1600" fill="url(#g0)"/>
<rect x="0" y="0" width="900" height="1600" fill="url(#g1)"/>
<rect x="0" y="0" width="900" height="1600" fill="url(#g2)"/>


<defs>
  <radialGradient id="vign" cx="0.5000" cy="0.5000" r="0.85">
    <stop offset="0" stop-color="#000000" stop-opacity="0"/>
    <stop offset="0.55" stop-color="#000000" stop-opacity="0.217"/>
    <stop offset="1" stop-color="#000000" stop-opacity="0.620"/>
  </radialGradient>
</defs>
<rect x="0" y="0" width="900" height="1600" fill="url(#vign)"/>

<g opacity="0.265" filter="url(#softGlow)"><path d="M 668.4,117.3 L 1.5,117.3 L 1.5,14.5 L 781.2,14.5 L 781.2,347.1 " fill="none" stroke="url(#strokeB)" stroke-width="1.29" stroke-linecap="round" stroke-linejoin="round"/><circle cx="781.2" cy="347.1" r="3.1" fill="#7C4DFF" opacity="0.45"/><circle cx="1.5" cy="117.3" r="3.3" fill="#7C4DFF" opacity="0.45"/><circle cx="781.2" cy="14.5" r="3.0" fill="#7C4DFF" opacity="0.45"/></g>
<g opacity="0.265" filter="url(#softGlow)"><path d="M 769.1,1552.9 L 571.1,1552.9 L 571.1,1534.7 L 64.4,1534.7 L 64.4,1515.2 " fill="none" stroke="url(#strokeB)" stroke-width="1.42" stroke-linecap="round" stroke-linejoin="round"/><circle cx="769.1" cy="1552.9" r="2.5" fill="#7C4DFF" opacity="0.45"/><circle cx="64.4" cy="1534.7" r="3.2" fill="#7C4DFF" opacity="0.45"/><circle cx="571.1" cy="1534.7" r="2.6" fill="#7C4DFF" opacity="0.45"/></g>
<g opacity="0.265" filter="url(#softGlow)"><path d="M 820.5,1474.7 L 801.0,1474.7 L 801.0,286.7 L 874.5,286.7 L 874.5,1367.4 " fill="none" stroke="url(#strokeB)" stroke-width="1.68" stroke-linecap="round" stroke-linejoin="round"/><circle cx="801.0" cy="1474.7" r="3.4" fill="#7C4DFF" opacity="0.45"/><circle cx="874.5" cy="286.7" r="2.1" fill="#7C4DFF" opacity="0.45"/><circle cx="820.5" cy="1474.7" r="3.4" fill="#7C4DFF" opacity="0.45"/></g>
<g opacity="0.265" filter="url(#softGlow)"><path d="M 173.1,1567.8 L 152.7,1567.8 L 152.7,1584.4 L 822.1,1584.4 L 822.1,1591.9 " fill="none" stroke="url(#strokeB)" stroke-width="1.44" stroke-linecap="round" stroke-linejoin="round"/><circle cx="173.1" cy="1567.8" r="4.2" fill="#7C4DFF" opacity="0.45"/><circle cx="152.7" cy="1567.8" r="2.7" fill="#7C4DFF" opacity="0.45"/><circle cx="822.1" cy="1584.4" r="2.7" fill="#7C4DFF" opacity="0.45"/></g>
<g opacity="0.265" filter="url(#softGlow)"><path d="M 74.4,721.8 L 314.8,721.8 L 314.8,1554.3 L 70.1,1554.3 L 70.1,161.9 " fill="none" stroke="url(#strokeB)" stroke-width="1.19" stroke-linecap="round" stroke-linejoin="round"/><circle cx="314.8" cy="721.8" r="3.6" fill="#7C4DFF" opacity="0.45"/><circle cx="314.8" cy="1554.3" r="3.5" fill="#7C4DFF" opacity="0.45"/><circle cx="70.1" cy="161.9" r="4.1" fill="#7C4DFF" opacity="0.45"/></g>
<g opacity="0.265" filter="url(#softGlow)"><path d="M 878.9,944.1 L 167.1,944.1 L 167.1,173.5 L 97.1,173.5 L 97.1,1484.3 " fill="none" stroke="url(#strokeB)" stroke-width="2.04" stroke-linecap="round" stroke-linejoin="round"/><circle cx="167.1" cy="944.1" r="3.9" fill="#7C4DFF" opacity="0.45"/><circle cx="878.9" cy="944.1" r="3.2" fill="#7C4DFF" opacity="0.45"/><circle cx="97.1" cy="173.5" r="4.0" fill="#7C4DFF" opacity="0.45"/></g>
<g opacity="0.265" filter="url(#softGlow)"><path d="M 39.6,1493.8 L 25.5,1493.8 L 25.5,121.8 L 78.8,121.8 L 78.8,35.7 " fill="none" stroke="url(#strokeB)" stroke-width="1.76" stroke-linecap="round" stroke-linejoin="round"/><circle cx="25.5" cy="121.8" r="2.1" fill="#7C4DFF" opacity="0.45"/><circle cx="39.6" cy="1493.8" r="3.6" fill="#7C4DFF" opacity="0.45"/><circle cx="25.5" cy="1493.8" r="2.7" fill="#7C4DFF" opacity="0.45"/></g>
<g opacity="0.265" filter="url(#softGlow)"><path d="M 57.7,161.6 L 129.7,161.6 L 129.7,1478.1 L 789.2,1478.1 L 789.2,28.6 " fill="none" stroke="url(#strokeB)" stroke-width="1.42" stroke-linecap="round" stroke-linejoin="round"/><circle cx="789.2" cy="28.6" r="2.5" fill="#7C4DFF" opacity="0.45"/><circle cx="789.2" cy="1478.1" r="2.5" fill="#7C4DFF" opacity="0.45"/><circle cx="129.7" cy="1478.1" r="2.4" fill="#7C4DFF" opacity="0.45"/></g>
<g opacity="0.265" filter="url(#softGlow)"><path d="M 30.8,165.6 L 126.2,165.6 L 126.2,1550.3 L 779.5,1550.3 L 779.5,1545.2 " fill="none" stroke="url(#strokeB)" stroke-width="1.98" stroke-linecap="round" stroke-linejoin="round"/><circle cx="779.5" cy="1545.2" r="2.1" fill="#7C4DFF" opacity="0.45"/><circle cx="30.8" cy="165.6" r="2.9" fill="#7C4DFF" opacity="0.45"/><circle cx="126.2" cy="1550.3" r="2.8" fill="#7C4DFF" opacity="0.45"/></g>
<g opacity="0.265" filter="url(#softGlow)"><path d="M 797.4,109.0 L 348.3,109.0 L 348.3,1561.0 L 57.9,1561.0 L 57.9,194.7 " fill="none" stroke="url(#strokeB)" stroke-width="1.30" stroke-linecap="round" stroke-linejoin="round"/><circle cx="57.9" cy="194.7" r="2.2" fill="#7C4DFF" opacity="0.45"/><circle cx="57.9" cy="1561.0" r="2.2" fill="#7C4DFF" opacity="0.45"/><circle cx="797.4" cy="109.0" r="2.8" fill="#7C4DFF" opacity="0.45"/></g>
<g opacity="0.265" filter="url(#softGlow)"><path d="M 823.3,1440.9 L 161.9,1440.9 L 161.9,1558.1 L 89.7,1558.1 L 89.7,1098.5 " fill="none" stroke="url(#strokeB)" stroke-width="2.19" stroke-linecap="round" stroke-linejoin="round"/><circle cx="161.9" cy="1440.9" r="3.0" fill="#7C4DFF" opacity="0.45"/><circle cx="823.3" cy="1440.9" r="2.5" fill="#7C4DFF" opacity="0.45"/><circle cx="89.7" cy="1558.1" r="2.3" fill="#7C4DFF" opacity="0.45"/></g>
<g opacity="0.265" filter="url(#softGlow)"><path d="M 124.1,13.9 L 5.0,13.9 L 5.0,1430.1 L 775.2,1430.1 L 775.2,1485.7 " fill="none" stroke="url(#strokeB)" stroke-width="1.73" stroke-linecap="round" stroke-linejoin="round"/><circle cx="5.0" cy="13.9" r="3.5" fill="#7C4DFF" opacity="0.45"/><circle cx="775.2" cy="1430.1" r="3.1" fill="#7C4DFF" opacity="0.45"/><circle cx="124.1" cy="13.9" r="3.8" fill="#7C4DFF" opacity="0.45"/></g>
<g opacity="0.265" filter="url(#softGlow)"><path d="M 794.8,99.2 L 84.3,99.2 L 84.3,1568.5 L 739.2,1568.5 L 739.2,144.4 " fill="none" stroke="url(#strokeB)" stroke-width="1.97" stroke-linecap="round" stroke-linejoin="round"/><circle cx="84.3" cy="99.2" r="3.6" fill="#7C4DFF" opacity="0.45"/><circle cx="739.2" cy="144.4" r="2.3" fill="#7C4DFF" opacity="0.45"/><circle cx="84.3" cy="1568.5" r="3.5" fill="#7C4DFF" opacity="0.45"/></g>
<g opacity="0.265" filter="url(#softGlow)"><path d="M 745.6,697.3 L 88.6,697.3 L 88.6,1576.1 L 165.3,1576.1 L 165.3,1486.2 " fill="none" stroke="url(#strokeB)" stroke-width="1.78" stroke-linecap="round" stroke-linejoin="round"/><circle cx="88.6" cy="1576.1" r="4.0" fill="#7C4DFF" opacity="0.45"/><circle cx="165.3" cy="1486.2" r="3.1" fill="#7C4DFF" opacity="0.45"/><circle cx="165.3" cy="1576.1" r="2.8" fill="#7C4DFF" opacity="0.45"/></g>
<g opacity="0.265" filter="url(#softGlow)"><path d="M 89.7,1455.2 L 57.4,1455.2 L 57.4,96.5 L 796.7,96.5 L 796.7,129.7 " fill="none" stroke="url(#strokeB)" stroke-width="1.49" stroke-linecap="round" stroke-linejoin="round"/><circle cx="89.7" cy="1455.2" r="3.6" fill="#7C4DFF" opacity="0.45"/><circle cx="796.7" cy="129.7" r="4.1" fill="#7C4DFF" opacity="0.45"/><circle cx="796.7" cy="96.5" r="2.3" fill="#7C4DFF" opacity="0.45"/></g>
<g opacity="0.265" filter="url(#softGlow)"><path d="M 19.4,705.4 L 738.3,705.4 L 738.3,1442.7 L 820.3,1442.7 L 820.3,463.8 " fill="none" stroke="url(#strokeB)" stroke-width="1.18" stroke-linecap="round" stroke-linejoin="round"/><circle cx="820.3" cy="463.8" r="2.9" fill="#7C4DFF" opacity="0.45"/><circle cx="820.3" cy="1442.7" r="3.3" fill="#7C4DFF" opacity="0.45"/><circle cx="738.3" cy="1442.7" r="4.0" fill="#7C4DFF" opacity="0.45"/></g>
<g opacity="0.265" filter="url(#softGlow)"><path d="M 449.9,11.8 L 147.3,11.8 L 147.3,1436.9 L 103.4,1436.9 L 103.4,1399.8 " fill="none" stroke="url(#strokeB)" stroke-width="1.46" stroke-linecap="round" stroke-linejoin="round"/><circle cx="449.9" cy="11.8" r="3.8" fill="#7C4DFF" opacity="0.45"/><circle cx="147.3" cy="1436.9" r="3.4" fill="#7C4DFF" opacity="0.45"/><circle cx="103.4" cy="1399.8" r="3.2" fill="#7C4DFF" opacity="0.45"/></g>
<g opacity="0.265" filter="url(#softGlow)"><path d="M 853.2,59.5 L 886.3,59.5 L 886.3,1488.3 L 114.8,1488.3 L 114.8,37.4 " fill="none" stroke="url(#strokeB)" stroke-width="1.57" stroke-linecap="round" stroke-linejoin="round"/><circle cx="886.3" cy="59.5" r="2.3" fill="#7C4DFF" opacity="0.45"/><circle cx="114.8" cy="37.4" r="3.8" fill="#7C4DFF" opacity="0.45"/><circle cx="114.8" cy="1488.3" r="3.9" fill="#7C4DFF" opacity="0.45"/></g>
<g opacity="0.265" filter="url(#softGlow)"><path d="M 98.9,1444.9 L 215.0,1444.9 L 215.0,1453.5 L 64.2,1453.5 L 64.2,139.9 " fill="none" stroke="url(#strokeB)" stroke-width="1.73" stroke-linecap="round" stroke-linejoin="round"/><circle cx="64.2" cy="139.9" r="3.4" fill="#7C4DFF" opacity="0.45"/><circle cx="64.2" cy="1453.5" r="3.6" fill="#7C4DFF" opacity="0.45"/><circle cx="215.0" cy="1444.9" r="3.8" fill="#7C4DFF" opacity="0.45"/></g>

<g opacity="0.866" filter="url(#hardGlow)">
  <circle cx="844.0" cy="252.9" r="53.5" fill="#0A1224" opacity="0.65"/>
  <circle cx="844.0" cy="252.9" r="53.5" fill="none" stroke="url(#strokeA)" stroke-width="4.3" opacity="0.85"/>
  <circle cx="844.0" cy="252.9" r="46.0" fill="none" stroke="#00E5FF" stroke-width="1.6" opacity="0.35"/>
  <polygon points="836.4,215.1 872.9,227.4 880.5,265.2 851.6,290.7 815.1,278.4 807.5,240.6" fill="none" stroke="url(#strokeB)" stroke-width="1.3" opacity="0.65"/>
  <polygon points="846.0,239.6 854.5,261.3 831.4,257.8" fill="#00E5FF" opacity="0.22" filter="url(#softGlow)"/>
</g>


<g opacity="0.578" filter="url(#hardGlow)">
  <circle cx="765.0" cy="294.0" r="19.8" fill="#0A1224" opacity="0.65"/>
  <circle cx="765.0" cy="294.0" r="19.8" fill="none" stroke="url(#strokeA)" stroke-width="2.0" opacity="0.85"/>
  <circle cx="765.0" cy="294.0" r="17.0" fill="none" stroke="#7C4DFF" stroke-width="1.5" opacity="0.35"/>
  <polygon points="776.2,302.7 763.1,308.1 751.8,299.4 753.7,285.3 766.9,279.9 778.1,288.6" fill="none" stroke="url(#strokeB)" stroke-width="1.2" opacity="0.65"/>
  
</g>


<g opacity="0.704" filter="url(#hardGlow)">
  <circle cx="857.7" cy="1581.8" r="38.7" fill="#0A1224" opacity="0.65"/>
  <circle cx="857.7" cy="1581.8" r="38.7" fill="none" stroke="url(#strokeA)" stroke-width="3.1" opacity="0.85"/>
  <circle cx="857.7" cy="1581.8" r="33.3" fill="none" stroke="#00E5FF" stroke-width="1.5" opacity="0.35"/>
  <polygon points="830.0,1578.7 846.5,1556.3 874.3,1559.4 885.4,1585.0 868.8,1607.4 841.1,1604.3" fill="none" stroke="url(#strokeB)" stroke-width="1.2" opacity="0.65"/>
  <polygon points="848.9,1577.5 865.8,1576.5 858.3,1591.6" fill="#00E5FF" opacity="0.22" filter="url(#softGlow)"/>
</g>


<g opacity="0.359" filter="url(#hardGlow)">
  <circle cx="834.2" cy="1601.2" r="19.1" fill="#0A1224" opacity="0.65"/>
  <circle cx="834.2" cy="1601.2" r="19.1" fill="none" stroke="url(#strokeA)" stroke-width="2.0" opacity="0.85"/>
  <circle cx="834.2" cy="1601.2" r="16.4" fill="none" stroke="#7C4DFF" stroke-width="1.5" opacity="0.35"/>
  <polygon points="834.5,1614.9 822.4,1608.3 822.1,1594.6 833.8,1587.4 845.9,1594.0 846.2,1607.8" fill="none" stroke="url(#strokeB)" stroke-width="1.2" opacity="0.65"/>
  
</g>


<g opacity="0.535" filter="url(#hardGlow)">
  <circle cx="881.2" cy="1569.6" r="17.1" fill="#0A1224" opacity="0.65"/>
  <circle cx="881.2" cy="1569.6" r="17.1" fill="none" stroke="url(#strokeA)" stroke-width="2.0" opacity="0.85"/>
  <circle cx="881.2" cy="1569.6" r="14.7" fill="none" stroke="#7C4DFF" stroke-width="1.5" opacity="0.35"/>
  <polygon points="869.1,1571.7 873.4,1560.2 885.5,1558.1 893.4,1567.6 889.1,1579.1 877.0,1581.2" fill="none" stroke="url(#strokeB)" stroke-width="1.2" opacity="0.65"/>
  
</g>


<g opacity="0.840" filter="url(#hardGlow)">
  <circle cx="710.5" cy="78.0" r="32.8" fill="#0A1224" opacity="0.65"/>
  <circle cx="710.5" cy="78.0" r="32.8" fill="none" stroke="url(#strokeA)" stroke-width="2.6" opacity="0.85"/>
  <circle cx="710.5" cy="78.0" r="28.2" fill="none" stroke="#00E5FF" stroke-width="1.5" opacity="0.35"/>
  <polygon points="698.6,57.6 722.3,57.5 734.2,77.9 722.5,98.4 698.8,98.5 686.9,78.1" fill="none" stroke="url(#strokeB)" stroke-width="1.2" opacity="0.65"/>
  <polygon points="709.1,69.9 718.3,80.8 704.2,83.4" fill="#00E5FF" opacity="0.22" filter="url(#softGlow)"/>
</g>


<g opacity="0.394" filter="url(#hardGlow)">
  <circle cx="664.8" cy="115.1" r="15.5" fill="#0A1224" opacity="0.65"/>
  <circle cx="664.8" cy="115.1" r="15.5" fill="none" stroke="url(#strokeA)" stroke-width="2.0" opacity="0.85"/>
  <circle cx="664.8" cy="115.1" r="13.3" fill="none" stroke="#7C4DFF" stroke-width="1.5" opacity="0.35"/>
  <polygon points="662.7,126.1 654.3,118.8 656.4,107.8 667.0,104.2 675.4,111.5 673.2,122.5" fill="none" stroke="url(#strokeB)" stroke-width="1.2" opacity="0.65"/>
  <polygon points="662.8,118.5 662.9,111.7 668.7,115.2" fill="#7C4DFF" opacity="0.22" filter="url(#softGlow)"/>
</g>


<g opacity="0.426" filter="url(#hardGlow)">
  <circle cx="693.3" cy="102.5" r="12.3" fill="#0A1224" opacity="0.65"/>
  <circle cx="693.3" cy="102.5" r="12.3" fill="none" stroke="url(#strokeA)" stroke-width="2.0" opacity="0.85"/>
  <circle cx="693.3" cy="102.5" r="10.5" fill="none" stroke="#7C4DFF" stroke-width="1.5" opacity="0.35"/>
  <polygon points="685.4,98.7 692.7,93.7 700.6,97.6 701.2,106.4 693.9,111.3 686.0,107.5" fill="none" stroke="url(#strokeB)" stroke-width="1.2" opacity="0.65"/>
  <polygon points="691.2,100.3 696.3,101.8 692.5,105.5" fill="#7C4DFF" opacity="0.22" filter="url(#softGlow)"/>
</g>


<g opacity="0.534" filter="url(#hardGlow)">
  <circle cx="699.5" cy="51.7" r="12.2" fill="#0A1224" opacity="0.65"/>
  <circle cx="699.5" cy="51.7" r="12.2" fill="none" stroke="url(#strokeA)" stroke-width="2.0" opacity="0.85"/>
  <circle cx="699.5" cy="51.7" r="10.5" fill="none" stroke="#7C4DFF" stroke-width="1.5" opacity="0.35"/>
  <polygon points="703.5,59.5 694.7,59.0 690.7,51.2 695.5,43.8 704.3,44.3 708.3,52.2" fill="none" stroke="url(#strokeB)" stroke-width="1.2" opacity="0.65"/>
  
</g>


<g opacity="0.813" filter="url(#hardGlow)">
  <circle cx="101.2" cy="1496.9" r="39.1" fill="#0A1224" opacity="0.65"/>
  <circle cx="101.2" cy="1496.9" r="39.1" fill="none" stroke="url(#strokeA)" stroke-width="3.1" opacity="0.85"/>
  <circle cx="101.2" cy="1496.9" r="33.6" fill="none" stroke="#00E5FF" stroke-width="1.5" opacity="0.35"/>
  <polygon points="84.9,1474.0 112.9,1471.3 129.2,1494.2 117.5,1519.8 89.5,1522.5 73.2,1499.6" fill="none" stroke="url(#strokeB)" stroke-width="1.2" opacity="0.65"/>
  <polygon points="98.6,1487.4 110.7,1499.4 94.3,1503.9" fill="#00E5FF" opacity="0.22" filter="url(#softGlow)"/>
</g>


<g opacity="0.402" filter="url(#hardGlow)">
  <circle cx="159.5" cy="1502.5" r="18.2" fill="#0A1224" opacity="0.65"/>
  <circle cx="159.5" cy="1502.5" r="18.2" fill="none" stroke="url(#strokeA)" stroke-width="2.0" opacity="0.85"/>
  <circle cx="159.5" cy="1502.5" r="15.7" fill="none" stroke="#7C4DFF" stroke-width="1.5" opacity="0.35"/>
  <polygon points="148.5,1509.6 147.9,1496.5 158.9,1489.4 170.6,1495.4 171.2,1508.5 160.2,1515.6" fill="none" stroke="url(#strokeB)" stroke-width="1.2" opacity="0.65"/>
  
</g>


<g opacity="0.378" filter="url(#hardGlow)">
  <circle cx="130.2" cy="1454.3" r="19.2" fill="#0A1224" opacity="0.65"/>
  <circle cx="130.2" cy="1454.3" r="19.2" fill="none" stroke="url(#strokeA)" stroke-width="2.0" opacity="0.85"/>
  <circle cx="130.2" cy="1454.3" r="16.5" fill="none" stroke="#7C4DFF" stroke-width="1.5" opacity="0.35"/>
  <polygon points="124.2,1466.8 116.4,1455.4 122.4,1442.9 136.2,1441.9 144.0,1453.3 138.0,1465.8" fill="none" stroke="url(#strokeB)" stroke-width="1.2" opacity="0.65"/>
  
</g>


<g opacity="0.779" filter="url(#hardGlow)">
  <circle cx="72.8" cy="1539.8" r="46.2" fill="#0A1224" opacity="0.65"/>
  <circle cx="72.8" cy="1539.8" r="46.2" fill="none" stroke="url(#strokeA)" stroke-width="3.7" opacity="0.85"/>
  <circle cx="72.8" cy="1539.8" r="39.7" fill="none" stroke="#00E5FF" stroke-width="1.5" opacity="0.35"/>
  <polygon points="104.3,1529.2 97.8,1561.8 66.3,1572.3 41.3,1550.4 47.9,1517.8 79.4,1507.2" fill="none" stroke="url(#strokeB)" stroke-width="1.2" opacity="0.65"/>
  <polygon points="84.5,1540.1 66.8,1549.7 67.3,1529.6" fill="#00E5FF" opacity="0.22" filter="url(#softGlow)"/>
</g>


<g opacity="0.504" filter="url(#hardGlow)">
  <circle cx="68.9" cy="1554.7" r="25.1" fill="#0A1224" opacity="0.65"/>
  <circle cx="68.9" cy="1554.7" r="25.1" fill="none" stroke="url(#strokeA)" stroke-width="2.0" opacity="0.85"/>
  <circle cx="68.9" cy="1554.7" r="21.6" fill="none" stroke="#7C4DFF" stroke-width="1.5" opacity="0.35"/>
  <polygon points="51.8,1549.0 65.3,1536.9 82.5,1542.7 86.1,1560.4 72.6,1572.4 55.4,1566.7" fill="none" stroke="url(#strokeB)" stroke-width="1.2" opacity="0.65"/>
  <polygon points="64.0,1550.7 74.8,1552.3 68.0,1560.9" fill="#7C4DFF" opacity="0.22" filter="url(#softGlow)"/>
</g>


<g opacity="0.628" filter="url(#hardGlow)">
  <circle cx="123.0" cy="1486.5" r="24.7" fill="#0A1224" opacity="0.65"/>
  <circle cx="123.0" cy="1486.5" r="24.7" fill="none" stroke="url(#strokeA)" stroke-width="2.0" opacity="0.85"/>
  <circle cx="123.0" cy="1486.5" r="21.3" fill="none" stroke="#7C4DFF" stroke-width="1.5" opacity="0.35"/>
  <polygon points="113.6,1471.4 131.4,1470.8 140.9,1485.9 132.5,1501.6 114.7,1502.2 105.2,1487.1" fill="none" stroke="url(#strokeB)" stroke-width="1.2" opacity="0.65"/>
  <polygon points="121.8,1480.4 129.0,1488.4 118.4,1490.6" fill="#7C4DFF" opacity="0.22" filter="url(#softGlow)"/>
</g>


<g opacity="0.910" filter="url(#hardGlow)">
  <circle cx="834.1" cy="1543.3" r="55.6" fill="#0A1224" opacity="0.65"/>
  <circle cx="834.1" cy="1543.3" r="55.6" fill="none" stroke="url(#strokeA)" stroke-width="4.4" opacity="0.85"/>
  <circle cx="834.1" cy="1543.3" r="47.8" fill="none" stroke="#00E5FF" stroke-width="1.7" opacity="0.35"/>
  <polygon points="849.1,1580.4 809.5,1574.8 794.5,1537.7 819.1,1506.2 858.8,1511.7 873.8,1548.8" fill="none" stroke="url(#strokeB)" stroke-width="1.4" opacity="0.65"/>
  <polygon points="834.6,1557.3 821.8,1536.7 846.0,1535.8" fill="#00E5FF" opacity="0.22" filter="url(#softGlow)"/>
</g>


<g opacity="0.384" filter="url(#hardGlow)">
  <circle cx="781.8" cy="1549.1" r="23.3" fill="#0A1224" opacity="0.65"/>
  <circle cx="781.8" cy="1549.1" r="23.3" fill="none" stroke="url(#strokeA)" stroke-width="2.0" opacity="0.85"/>
  <circle cx="781.8" cy="1549.1" r="20.1" fill="none" stroke="#7C4DFF" stroke-width="1.5" opacity="0.35"/>
  <polygon points="765.7,1553.8 769.6,1537.5 785.7,1532.8 797.9,1544.4 793.9,1560.7 777.8,1565.4" fill="none" stroke="url(#strokeB)" stroke-width="1.2" opacity="0.65"/>
  <polygon points="775.9,1548.7 785.0,1544.2 784.4,1554.4" fill="#7C4DFF" opacity="0.22" filter="url(#softGlow)"/>
</g>


<g opacity="0.448" transform="translate(71.4,66.1) rotate(9.5)" filter="url(#softGlow)">
  <rect x="-71.9" y="-60.5" width="143.9" height="120.9" rx="12.1" fill="#050A12" opacity="0.25"/>
  <rect x="-71.9" y="-60.5" width="143.9" height="120.9" rx="12.1" fill="none" stroke="url(#strokeA)" stroke-width="6.0" opacity="0.85"/>
  <rect x="-62.3" y="-50.8" width="124.5" height="101.6" rx="8.5" fill="none" stroke="#FFB300" stroke-width="2.4" opacity="0.35"/>
</g>


<g opacity="0.299" transform="translate(562.9,10.6) rotate(-4.0)" filter="url(#softGlow)">
  <rect x="-90.6" y="-76.7" width="181.2" height="153.5" rx="15.3" fill="#050A12" opacity="0.25"/>
  <rect x="-90.6" y="-76.7" width="181.2" height="153.5" rx="15.3" fill="none" stroke="url(#strokeA)" stroke-width="7.7" opacity="0.85"/>
  <rect x="-78.3" y="-64.5" width="156.6" height="128.9" rx="10.7" fill="none" stroke="#FFB300" stroke-width="3.1" opacity="0.35"/>
</g>


<g opacity="0.327" transform="translate(780.4,1585.7) rotate(2.9)" filter="url(#softGlow)">
  <rect x="-67.7" y="-55.1" width="135.4" height="110.1" rx="11.0" fill="#050A12" opacity="0.25"/>
  <rect x="-67.7" y="-55.1" width="135.4" height="110.1" rx="11.0" fill="none" stroke="url(#strokeA)" stroke-width="5.5" opacity="0.85"/>
  <rect x="-58.9" y="-46.3" width="117.7" height="92.5" rx="7.7" fill="none" stroke="#00E5FF" stroke-width="2.2" opacity="0.35"/>
</g>


<g opacity="0.368" transform="translate(99.2,1477.0) rotate(-0.7)" filter="url(#softGlow)">
  <rect x="-94.9" y="-72.5" width="189.9" height="145.0" rx="14.5" fill="#050A12" opacity="0.25"/>
  <rect x="-94.9" y="-72.5" width="189.9" height="145.0" rx="14.5" fill="none" stroke="url(#strokeA)" stroke-width="7.2" opacity="0.85"/>
  <rect x="-83.3" y="-60.9" width="166.7" height="121.8" rx="10.1" fill="none" stroke="#FFB300" stroke-width="2.9" opacity="0.35"/>
</g>


<g opacity="0.275" transform="translate(145.8,102.5) rotate(5.7)" filter="url(#softGlow)">
  <rect x="-79.3" y="-75.2" width="158.6" height="150.4" rx="15.0" fill="#050A12" opacity="0.25"/>
  <rect x="-79.3" y="-75.2" width="158.6" height="150.4" rx="15.0" fill="none" stroke="url(#strokeA)" stroke-width="7.5" opacity="0.85"/>
  <rect x="-67.3" y="-63.2" width="134.6" height="126.4" rx="10.5" fill="none" stroke="#FFB300" stroke-width="3.0" opacity="0.35"/>
</g>


<g opacity="0.416" transform="translate(815.5,177.2) rotate(7.3)" filter="url(#softGlow)">
  <rect x="-45.7" y="-26.3" width="91.3" height="52.6" rx="16.1" fill="none" stroke="#7C4DFF" stroke-width="8.8" opacity="0.55"/>
  <rect x="-20.1" y="-13.1" width="91.3" height="52.6" rx="16.1" fill="none" stroke="url(#strokeA)" stroke-width="7.3" opacity="0.55"/>
</g>


<g opacity="0.428" transform="translate(338.3,98.9) rotate(-3.2)" filter="url(#softGlow)">
  <rect x="-30.5" y="-17.5" width="60.9" height="35.1" rx="10.7" fill="none" stroke="#00E5FF" stroke-width="5.8" opacity="0.55"/>
  <rect x="-13.4" y="-8.8" width="60.9" height="35.1" rx="10.7" fill="none" stroke="url(#strokeA)" stroke-width="4.9" opacity="0.55"/>
</g>


<g opacity="0.323" transform="translate(88.1,59.5) rotate(-8.8)" filter="url(#softGlow)">
  <rect x="-50.3" y="-29.0" width="100.7" height="58.0" rx="17.7" fill="none" stroke="#FFB300" stroke-width="9.7" opacity="0.55"/>
  <rect x="-22.1" y="-14.5" width="100.7" height="58.0" rx="17.7" fill="none" stroke="url(#strokeA)" stroke-width="8.1" opacity="0.55"/>
</g>


<g opacity="0.472" transform="translate(632.8,1457.5) rotate(17.5)" filter="url(#softGlow)">
  <rect x="-29.8" y="-17.1" width="59.5" height="34.3" rx="10.5" fill="none" stroke="#FFB300" stroke-width="5.7" opacity="0.55"/>
  <rect x="-13.1" y="-8.6" width="59.5" height="34.3" rx="10.5" fill="none" stroke="url(#strokeA)" stroke-width="4.8" opacity="0.55"/>
</g>


<g opacity="0.289" transform="translate(176.9,1570.3) rotate(-2.1)" filter="url(#softGlow)">
  <rect x="-42.6" y="-24.5" width="85.2" height="49.1" rx="15.0" fill="none" stroke="#7C4DFF" stroke-width="8.2" opacity="0.55"/>
  <rect x="-18.7" y="-12.3" width="85.2" height="49.1" rx="15.0" fill="none" stroke="url(#strokeA)" stroke-width="6.8" opacity="0.55"/>
</g>


<g opacity="0.240" transform="translate(60.7,46.1) rotate(17.7)" filter="url(#softGlow)">
  <rect x="-33.2" y="-19.1" width="66.5" height="38.3" rx="11.7" fill="none" stroke="#00E5FF" stroke-width="6.4" opacity="0.55"/>
  <rect x="-14.6" y="-9.6" width="66.5" height="38.3" rx="11.7" fill="none" stroke="url(#strokeA)" stroke-width="5.3" opacity="0.55"/>
</g>


<g opacity="0.286" transform="translate(772.9,59.9) rotate(-16.2)" filter="url(#softGlow)">
  <rect x="-29.4" y="-17.0" width="58.9" height="33.9" rx="10.4" fill="none" stroke="#7C4DFF" stroke-width="5.7" opacity="0.55"/>
  <rect x="-13.0" y="-8.5" width="58.9" height="33.9" rx="10.4" fill="none" stroke="url(#strokeA)" stroke-width="4.7" opacity="0.55"/>
</g>


<g opacity="0.314" transform="translate(691.9,1461.7) rotate(-12.2)" filter="url(#softGlow)">
  <rect x="-50.3" y="-29.0" width="100.5" height="57.9" rx="17.7" fill="none" stroke="#00E5FF" stroke-width="9.7" opacity="0.55"/>
  <rect x="-22.1" y="-14.5" width="100.5" height="57.9" rx="17.7" fill="none" stroke="url(#strokeA)" stroke-width="8.0" opacity="0.55"/>
</g>


<g opacity="0.374" transform="translate(482.9,1424.1) rotate(6.2)" filter="url(#softGlow)">
  <rect x="-34.4" y="-19.8" width="68.8" height="39.6" rx="12.1" fill="none" stroke="#7C4DFF" stroke-width="6.6" opacity="0.55"/>
  <rect x="-15.1" y="-9.9" width="68.8" height="39.6" rx="12.1" fill="none" stroke="url(#strokeA)" stroke-width="5.5" opacity="0.55"/>
</g>


<g opacity="0.218">
  <line x1="400.2" y1="1407.1" x2="400.2" y2="1487.1" stroke="#7C4DFF" stroke-width="1.74" opacity="0.45"/>
  <rect x="396.0" y="1449.0" width="8.3" height="44.2" rx="2.8" fill="#0B1020" opacity="0.55" stroke="url(#strokeA)" stroke-width="1.2"/>
</g>

<g opacity="0.218">
  <line x1="729.6" y1="1382.4" x2="729.6" y2="1493.3" stroke="#7C4DFF" stroke-width="1.43" opacity="0.45"/>
  <rect x="723.8" y="1441.3" width="11.7" height="59.5" rx="3.9" fill="#0B1020" opacity="0.55" stroke="url(#strokeA)" stroke-width="1.2"/>
</g>

<g opacity="0.218">
  <line x1="818.2" y1="1401.4" x2="818.2" y2="1488.5" stroke="#7C4DFF" stroke-width="1.92" opacity="0.45"/>
  <rect x="813.2" y="1445.4" width="9.9" height="51.5" rx="3.3" fill="#0B1020" opacity="0.55" stroke="url(#strokeA)" stroke-width="1.2"/>
</g>

<g opacity="0.218">
  <line x1="279.5" y1="1436.4" x2="279.5" y2="1479.8" stroke="#7C4DFF" stroke-width="1.73" opacity="0.45"/>
  <rect x="275.0" y="1461.2" width="8.9" height="19.8" rx="3.0" fill="#0B1020" opacity="0.55" stroke="url(#strokeA)" stroke-width="1.2"/>
</g>

<g opacity="0.218">
  <line x1="126.8" y1="1408.6" x2="126.8" y2="1486.7" stroke="#7C4DFF" stroke-width="1.67" opacity="0.45"/>
  <rect x="122.5" y="1459.2" width="8.6" height="23.9" rx="2.9" fill="#0B1020" opacity="0.55" stroke="url(#strokeA)" stroke-width="1.2"/>
</g>

<g opacity="0.218">
  <line x1="759.5" y1="1409.2" x2="759.5" y2="1486.6" stroke="#7C4DFF" stroke-width="1.21" opacity="0.45"/>
  <rect x="755.3" y="1447.1" width="8.4" height="48.0" rx="2.8" fill="#0B1020" opacity="0.55" stroke="url(#strokeA)" stroke-width="1.2"/>
</g>

<g opacity="0.218">
  <line x1="708.2" y1="1412.7" x2="708.2" y2="1485.7" stroke="#7C4DFF" stroke-width="2.04" opacity="0.45"/>
  <rect x="702.9" y="1452.6" width="10.5" height="36.9" rx="3.5" fill="#0B1020" opacity="0.55" stroke="url(#strokeA)" stroke-width="1.2"/>
</g>

<g opacity="0.218">
  <line x1="882.5" y1="1391.8" x2="882.5" y2="1490.9" stroke="#7C4DFF" stroke-width="1.57" opacity="0.45"/>
  <rect x="877.9" y="1449.7" width="9.1" height="42.9" rx="3.0" fill="#0B1020" opacity="0.55" stroke="url(#strokeA)" stroke-width="1.2"/>
</g>

<g opacity="0.218">
  <line x1="155.8" y1="1425.7" x2="155.8" y2="1482.5" stroke="#7C4DFF" stroke-width="1.58" opacity="0.45"/>
  <rect x="151.2" y="1457.8" width="9.2" height="26.6" rx="3.1" fill="#0B1020" opacity="0.55" stroke="url(#strokeA)" stroke-width="1.2"/>
</g>

<g opacity="0.218">
  <line x1="258.1" y1="1385.2" x2="258.1" y2="1492.6" stroke="#7C4DFF" stroke-width="1.35" opacity="0.45"/>
  <rect x="253.0" y="1445.4" width="10.2" height="51.5" rx="3.4" fill="#0B1020" opacity="0.55" stroke="url(#strokeA)" stroke-width="1.2"/>
</g>

<g opacity="0.218">
  <line x1="145.5" y1="1428.0" x2="145.5" y2="1481.9" stroke="#7C4DFF" stroke-width="1.38" opacity="0.45"/>
  <rect x="139.9" y="1455.0" width="11.2" height="32.3" rx="3.7" fill="#0B1020" opacity="0.55" stroke="url(#strokeA)" stroke-width="1.2"/>
</g>

<g opacity="0.218">
  <line x1="246.3" y1="1434.7" x2="246.3" y2="1480.2" stroke="#7C4DFF" stroke-width="1.46" opacity="0.45"/>
  <rect x="242.1" y="1461.3" width="8.4" height="19.6" rx="2.8" fill="#0B1020" opacity="0.55" stroke="url(#strokeA)" stroke-width="1.2"/>
</g>

<g opacity="0.218">
  <line x1="498.7" y1="1414.4" x2="498.7" y2="1485.3" stroke="#7C4DFF" stroke-width="1.84" opacity="0.45"/>
  <rect x="493.2" y="1453.0" width="11.0" height="36.2" rx="3.7" fill="#0B1020" opacity="0.55" stroke="url(#strokeA)" stroke-width="1.2"/>
</g>
<circle cx="761.3" cy="1536.0" r="3.1" fill="#00E5FF" opacity="0.28" filter="url(#softGlow)"/>
<circle cx="103.9" cy="135.3" r="1.5" fill="#00E5FF" opacity="0.24" filter="url(#softGlow)"/>
<circle cx="551.8" cy="1503.3" r="2.6" fill="#00E5FF" opacity="0.25" filter="url(#softGlow)"/>
<circle cx="760.3" cy="23.1" r="2.7" fill="#00E5FF" opacity="0.16" filter="url(#softGlow)"/>
<circle cx="548.8" cy="89.2" r="3.1" fill="#00E5FF" opacity="0.13" filter="url(#softGlow)"/>
<circle cx="815.6" cy="126.2" r="2.9" fill="#00E5FF" opacity="0.20" filter="url(#softGlow)"/>
<circle cx="486.4" cy="1560.1" r="2.1" fill="#00E5FF" opacity="0.15" filter="url(#softGlow)"/>
<circle cx="77.5" cy="137.9" r="1.7" fill="#00E5FF" opacity="0.16" filter="url(#softGlow)"/>
<circle cx="859.6" cy="1463.6" r="2.6" fill="#00E5FF" opacity="0.18" filter="url(#softGlow)"/>
<circle cx="28.1" cy="66.2" r="2.7" fill="#00E5FF" opacity="0.18" filter="url(#softGlow)"/>
<circle cx="822.8" cy="26.5" r="2.3" fill="#00E5FF" opacity="0.18" filter="url(#softGlow)"/>
<circle cx="84.5" cy="96.1" r="2.2" fill="#00E5FF" opacity="0.26" filter="url(#softGlow)"/>
<circle cx="138.4" cy="1064.0" r="1.7" fill="#00E5FF" opacity="0.11" filter="url(#softGlow)"/>
<circle cx="853.1" cy="1483.4" r="1.9" fill="#00E5FF" opacity="0.17" filter="url(#softGlow)"/>
<circle cx="891.1" cy="70.3" r="2.6" fill="#00E5FF" opacity="0.19" filter="url(#softGlow)"/>
<circle cx="882.1" cy="1530.5" r="2.4" fill="#00E5FF" opacity="0.18" filter="url(#softGlow)"/>
<circle cx="147.9" cy="1422.8" r="3.0" fill="#00E5FF" opacity="0.13" filter="url(#softGlow)"/>
<circle cx="820.7" cy="1467.9" r="3.0" fill="#00E5FF" opacity="0.12" filter="url(#softGlow)"/>
<circle cx="822.8" cy="1480.0" r="1.6" fill="#00E5FF" opacity="0.14" filter="url(#softGlow)"/>
<circle cx="733.9" cy="107.2" r="2.4" fill="#00E5FF" opacity="0.27" filter="url(#softGlow)"/>
<circle cx="155.1" cy="86.1" r="1.5" fill="#00E5FF" opacity="0.28" filter="url(#softGlow)"/>
<circle cx="46.7" cy="907.0" r="1.7" fill="#00E5FF" opacity="0.27" filter="url(#softGlow)"/>
<circle cx="56.0" cy="1583.9" r="2.3" fill="#00E5FF" opacity="0.21" filter="url(#softGlow)"/>
<circle cx="856.5" cy="165.6" r="2.8" fill="#00E5FF" opacity="0.25" filter="url(#softGlow)"/>
<circle cx="805.4" cy="1495.0" r="2.8" fill="#00E5FF" opacity="0.14" filter="url(#softGlow)"/>
<circle cx="892.7" cy="147.9" r="2.1" fill="#00E5FF" opacity="0.16" filter="url(#softGlow)"/>
<circle cx="75.6" cy="1481.4" r="1.7" fill="#00E5FF" opacity="0.21" filter="url(#softGlow)"/>
<circle cx="50.7" cy="149.9" r="2.6" fill="#00E5FF" opacity="0.17" filter="url(#softGlow)"/>
<circle cx="166.0" cy="59.9" r="1.5" fill="#00E5FF" opacity="0.24" filter="url(#softGlow)"/>
<circle cx="813.9" cy="93.3" r="3.2" fill="#00E5FF" opacity="0.11" filter="url(#softGlow)"/>
</svg>