<svg xmlns="http://www.w3.org/2000/svg" width="36" height="24" viewBox="0 0 36 24">
  <rect width="36" height="24" fill="#FFFFFF"/>
  <!-- 13 stripes -->
  <g fill="#B22234">
    <rect y="0" width="36" height="1.846"/>
    <rect y="3.692" width="36" height="1.846"/>
    <rect y="7.384" width="36" height="1.846"/>
    <rect y="11.076" width="36" height="1.846"/>
    <rect y="14.768" width="36" height="1.846"/>
    <rect y="18.460" width="36" height="1.846"/>
    <rect y="22.152" width="36" height="1.846"/>
  </g>
  <!-- canton -->
  <rect width="14.4" height="12.923" fill="#3C3B6E"/>
  <!-- simple stars (dots) -->
  <g fill="#FFFFFF">
    <circle cx="2.0" cy="1.8" r="0.45"/><circle cx="4.0" cy="1.8" r="0.45"/><circle cx="6.0" cy="1.8" r="0.45"/><circle cx="8.0" cy="1.8" r="0.45"/><circle cx="10.0" cy="1.8" r="0.45"/><circle cx="12.0" cy="1.8" r="0.45"/>
    <circle cx="3.0" cy="3.4" r="0.45"/><circle cx="5.0" cy="3.4" r="0.45"/><circle cx="7.0" cy="3.4" r="0.45"/><circle cx="9.0" cy="3.4" r="0.45"/><circle cx="11.0" cy="3.4" r="0.45"/><circle cx="13.0" cy="3.4" r="0.45"/>
    <circle cx="2.0" cy="5.0" r="0.45"/><circle cx="4.0" cy="5.0" r="0.45"/><circle cx="6.0" cy="5.0" r="0.45"/><circle cx="8.0" cy="5.0" r="0.45"/><circle cx="10.0" cy="5.0" r="0.45"/><circle cx="12.0" cy="5.0" r="0.45"/>
    <circle cx="3.0" cy="6.6" r="0.45"/><circle cx="5.0" cy="6.6" r="0.45"/><circle cx="7.0" cy="6.6" r="0.45"/><circle cx="9.0" cy="6.6" r="0.45"/><circle cx="11.0" cy="6.6" r="0.45"/><circle cx="13.0" cy="6.6" r="0.45"/>
    <circle cx="2.0" cy="8.2" r="0.45"/><circle cx="4.0" cy="8.2" r="0.45"/><circle cx="6.0" cy="8.2" r="0.45"/><circle cx="8.0" cy="8.2" r="0.45"/><circle cx="10.0" cy="8.2" r="0.45"/><circle cx="12.0" cy="8.2" r="0.45"/>
    <circle cx="3.0" cy="9.8" r="0.45"/><circle cx="5.0" cy="9.8" r="0.45"/><circle cx="7.0" cy="9.8" r="0.45"/><circle cx="9.0" cy="9.8" r="0.45"/><circle cx="11.0" cy="9.8" r="0.45"/><circle cx="13.0" cy="9.8" r="0.45"/>
    <circle cx="2.0" cy="11.4" r="0.45"/><circle cx="4.0" cy="11.4" r="0.45"/><circle cx="6.0" cy="11.4" r="0.45"/><circle cx="8.0" cy="11.4" r="0.45"/><circle cx="10.0" cy="11.4" r="0.45"/><circle cx="12.0" cy="11.4" r="0.45"/>
  </g>
</svg>
