<svg xmlns="http://www.w3.org/2000/svg" width="1920" height="1080" viewBox="0 0 1920 1080" preserveAspectRatio="xMidYMid slice">
<defs>
  <linearGradient id="g0" x1="0" y1="0" x2="1" y2="1">
    <stop offset="0" stop-color="#0B0F1A"/>
    <stop offset="0.55" stop-color="#A855F7" stop-opacity="0.9"/>
    <stop offset="1" stop-color="#030712"/>
  </linearGradient>
  <radialGradient id="g1" cx="20%" cy="15%" r="70%">
    <stop offset="0" stop-color="#22D3EE" stop-opacity="0.38"/>
    <stop offset="0.6" stop-color="#22D3EE" stop-opacity="0.08"/>
    <stop offset="1" stop-color="#22D3EE" stop-opacity="0"/>
  </radialGradient>
  <radialGradient id="g2" cx="85%" cy="80%" r="75%">
    <stop offset="0" stop-color="#22D3EE" stop-opacity="0.28"/>
    <stop offset="0.65" stop-color="#22D3EE" stop-opacity="0.06"/>
    <stop offset="1" stop-color="#22D3EE" stop-opacity="0"/>
  </radialGradient>
  <filter id="softGlow" x="-30%" y="-30%" width="160%" height="160%">
    <feGaussianBlur stdDeviation="12" result="b"/>
    <feMerge>
      <feMergeNode in="b"/>
      <feMergeNode in="SourceGraphic"/>
    </feMerge>
  </filter>
  <filter id="hardGlow" x="-40%" y="-40%" width="180%" height="180%">
    <feGaussianBlur stdDeviation="6" result="b"/>
    <feColorMatrix in="b" type="matrix" values="1 0 0 0 0  0 1 0 0 0  0 0 1 0 0  0 0 0 18 -7" result="c"/>
    <feMerge>
      <feMergeNode in="c"/>
      <feMergeNode in="SourceGraphic"/>
    </feMerge>
  </filter>
  <linearGradient id="strokeA" x1="0" y1="0" x2="1" y2="0">
    <stop offset="0" stop-color="#22D3EE" stop-opacity="0.9"/>
    <stop offset="0.5" stop-color="#FFFFFF" stop-opacity="0.25"/>
    <stop offset="1" stop-color="#22D3EE" stop-opacity="0.7"/>
  </linearGradient>
  <linearGradient id="strokeB" x1="0" y1="0" x2="0" y2="1">
    <stop offset="0" stop-color="#FFFFFF" stop-opacity="0.18"/>
    <stop offset="1" stop-color="#22D3EE" stop-opacity="0.55"/>
  </linearGradient>
</defs>
<rect x="0" y="0" width="1920" height="1080" fill="url(#g0)"/>
<rect x="0" y="0" width="1920" height="1080" fill="url(#g1)"/>
<rect x="0" y="0" width="1920" height="1080" fill="url(#g2)"/>


<defs>
  <radialGradient id="vign" cx="0.5000" cy="0.5093" r="0.85">
    <stop offset="0" stop-color="#000000" stop-opacity="0"/>
    <stop offset="0.55" stop-color="#000000" stop-opacity="0.217"/>
    <stop offset="1" stop-color="#000000" stop-opacity="0.620"/>
  </radialGradient>
</defs>
<rect x="0" y="0" width="1920" height="1080" fill="url(#vign)"/>

<g opacity="0.246" filter="url(#softGlow)"><path d="M 1754.6,1022.7 L 190.4,1022.7 L 190.4,318.7 L 90.2,318.7 L 90.2,167.2 " fill="none" stroke="url(#strokeB)" stroke-width="1.10" stroke-linecap="round" stroke-linejoin="round"/><circle cx="90.2" cy="318.7" r="2.4" fill="#A855F7" opacity="0.45"/><circle cx="190.4" cy="1022.7" r="3.9" fill="#A855F7" opacity="0.45"/><circle cx="1754.6" cy="1022.7" r="2.4" fill="#A855F7" opacity="0.45"/></g>
<g opacity="0.246" filter="url(#softGlow)"><path d="M 1874.1,881.9 L 168.7,881.9 L 168.7,197.9 L 26.2,197.9 L 26.2,6.7 " fill="none" stroke="url(#strokeB)" stroke-width="1.66" stroke-linecap="round" stroke-linejoin="round"/><circle cx="168.7" cy="881.9" r="2.9" fill="#A855F7" opacity="0.45"/><circle cx="26.2" cy="197.9" r="2.2" fill="#A855F7" opacity="0.45"/><circle cx="26.2" cy="6.7" r="3.7" fill="#A855F7" opacity="0.45"/></g>
<g opacity="0.246" filter="url(#softGlow)"><path d="M 725.8,1030.5 L 1834.5,1030.5 L 1834.5,1040.2 L 1782.9,1040.2 L 1782.9,45.6 " fill="none" stroke="url(#strokeB)" stroke-width="1.90" stroke-linecap="round" stroke-linejoin="round"/><circle cx="1834.5" cy="1040.2" r="2.6" fill="#A855F7" opacity="0.45"/><circle cx="1782.9" cy="45.6" r="4.1" fill="#A855F7" opacity="0.45"/><circle cx="1782.9" cy="1040.2" r="3.4" fill="#A855F7" opacity="0.45"/></g>
<g opacity="0.246" filter="url(#softGlow)"><path d="M 1899.5,182.5 L 1670.5,182.5 L 1670.5,914.5 L 1757.0,914.5 L 1757.0,823.8 " fill="none" stroke="url(#strokeB)" stroke-width="1.23" stroke-linecap="round" stroke-linejoin="round"/><circle cx="1899.5" cy="182.5" r="2.5" fill="#A855F7" opacity="0.45"/><circle cx="1670.5" cy="182.5" r="2.8" fill="#A855F7" opacity="0.45"/><circle cx="1757.0" cy="823.8" r="3.9" fill="#A855F7" opacity="0.45"/></g>
<g opacity="0.246" filter="url(#softGlow)"><path d="M 1764.2,109.2 L 199.7,109.2 L 199.7,1007.3 L 1900.6,1007.3 L 1900.6,1055.4 " fill="none" stroke="url(#strokeB)" stroke-width="1.26" stroke-linecap="round" stroke-linejoin="round"/><circle cx="1900.6" cy="1055.4" r="3.2" fill="#A855F7" opacity="0.45"/><circle cx="199.7" cy="1007.3" r="3.7" fill="#A855F7" opacity="0.45"/><circle cx="1764.2" cy="109.2" r="2.0" fill="#A855F7" opacity="0.45"/></g>
<g opacity="0.246" filter="url(#softGlow)"><path d="M 1822.1,25.5 L 1858.7,25.5 L 1858.7,26.9 L 76.1,26.9 L 76.1,766.8 " fill="none" stroke="url(#strokeB)" stroke-width="2.15" stroke-linecap="round" stroke-linejoin="round"/><circle cx="1858.7" cy="26.9" r="3.6" fill="#A855F7" opacity="0.45"/><circle cx="76.1" cy="26.9" r="3.3" fill="#A855F7" opacity="0.45"/><circle cx="1858.7" cy="25.5" r="3.2" fill="#A855F7" opacity="0.45"/></g>
<g opacity="0.246" filter="url(#softGlow)"><path d="M 6.3,674.4 L 1903.8,674.4 L 1903.8,350.9 L 1473.5,350.9 L 1473.5,9.6 " fill="none" stroke="url(#strokeB)" stroke-width="1.74" stroke-linecap="round" stroke-linejoin="round"/><circle cx="1903.8" cy="674.4" r="4.2" fill="#A855F7" opacity="0.45"/><circle cx="1473.5" cy="350.9" r="4.1" fill="#A855F7" opacity="0.45"/><circle cx="1903.8" cy="350.9" r="3.5" fill="#A855F7" opacity="0.45"/></g>
<g opacity="0.246" filter="url(#softGlow)"><path d="M 745.0,60.2 L 123.0,60.2 L 123.0,1063.5 L 1685.2,1063.5 L 1685.2,178.0 " fill="none" stroke="url(#strokeB)" stroke-width="1.44" stroke-linecap="round" stroke-linejoin="round"/><circle cx="1685.2" cy="178.0" r="2.8" fill="#A855F7" opacity="0.45"/><circle cx="1685.2" cy="1063.5" r="2.5" fill="#A855F7" opacity="0.45"/><circle cx="123.0" cy="1063.5" r="2.4" fill="#A855F7" opacity="0.45"/></g>
<g opacity="0.246" filter="url(#softGlow)"><path d="M 1866.3,131.5 L 77.2,131.5 L 77.2,960.5 L 1885.3,960.5 L 1885.3,139.0 " fill="none" stroke="url(#strokeB)" stroke-width="1.69" stroke-linecap="round" stroke-linejoin="round"/><circle cx="77.2" cy="960.5" r="2.6" fill="#A855F7" opacity="0.45"/><circle cx="77.2" cy="131.5" r="3.9" fill="#A855F7" opacity="0.45"/><circle cx="1885.3" cy="960.5" r="3.0" fill="#A855F7" opacity="0.45"/></g>
<g opacity="0.246" filter="url(#softGlow)"><path d="M 1695.9,865.4 L 1721.2,865.4 L 1721.2,156.5 L 210.6,156.5 L 210.6,871.8 " fill="none" stroke="url(#strokeB)" stroke-width="1.91" stroke-linecap="round" stroke-linejoin="round"/><circle cx="210.6" cy="156.5" r="3.9" fill="#A855F7" opacity="0.45"/><circle cx="1721.2" cy="156.5" r="3.4" fill="#A855F7" opacity="0.45"/><circle cx="210.6" cy="871.8" r="4.1" fill="#A855F7" opacity="0.45"/></g>
<g opacity="0.246" filter="url(#softGlow)"><path d="M 184.6,213.1 L 40.1,213.1 L 40.1,43.2 L 184.1,43.2 L 184.1,900.2 " fill="none" stroke="url(#strokeB)" stroke-width="1.91" stroke-linecap="round" stroke-linejoin="round"/><circle cx="184.1" cy="900.2" r="3.6" fill="#A855F7" opacity="0.45"/><circle cx="184.1" cy="43.2" r="2.3" fill="#A855F7" opacity="0.45"/><circle cx="184.6" cy="213.1" r="3.9" fill="#A855F7" opacity="0.45"/></g>
<g opacity="0.246" filter="url(#softGlow)"><path d="M 1864.7,138.3 L 8.4,138.3 L 8.4,585.8 L 103.6,585.8 L 103.6,899.0 " fill="none" stroke="url(#strokeB)" stroke-width="1.58" stroke-linecap="round" stroke-linejoin="round"/><circle cx="8.4" cy="138.3" r="3.5" fill="#A855F7" opacity="0.45"/><circle cx="103.6" cy="585.8" r="2.9" fill="#A855F7" opacity="0.45"/><circle cx="103.6" cy="899.0" r="2.6" fill="#A855F7" opacity="0.45"/></g>
<g opacity="0.246" filter="url(#softGlow)"><path d="M 28.3,536.1 L 1844.7,536.1 L 1844.7,97.7 L 36.3,97.7 L 36.3,1063.3 " fill="none" stroke="url(#strokeB)" stroke-width="1.49" stroke-linecap="round" stroke-linejoin="round"/><circle cx="1844.7" cy="536.1" r="2.7" fill="#A855F7" opacity="0.45"/><circle cx="1844.7" cy="97.7" r="4.0" fill="#A855F7" opacity="0.45"/><circle cx="36.3" cy="97.7" r="2.6" fill="#A855F7" opacity="0.45"/></g>
<g opacity="0.246" filter="url(#softGlow)"><path d="M 1898.9,1035.0 L 1914.0,1035.0 L 1914.0,966.8 L 53.9,966.8 L 53.9,569.3 " fill="none" stroke="url(#strokeB)" stroke-width="1.25" stroke-linecap="round" stroke-linejoin="round"/><circle cx="53.9" cy="966.8" r="2.0" fill="#A855F7" opacity="0.45"/><circle cx="1914.0" cy="966.8" r="3.9" fill="#A855F7" opacity="0.45"/><circle cx="53.9" cy="569.3" r="3.5" fill="#A855F7" opacity="0.45"/></g>

<g opacity="0.834" filter="url(#hardGlow)">
  <circle cx="897.9" cy="16.7" r="41.0" fill="#0A1224" opacity="0.65"/>
  <circle cx="897.9" cy="16.7" r="41.0" fill="none" stroke="url(#strokeA)" stroke-width="3.3" opacity="0.85"/>
  <circle cx="897.9" cy="16.7" r="35.3" fill="none" stroke="#22D3EE" stroke-width="1.5" opacity="0.35"/>
  <polygon points="926.5,9.1 918.8,37.6 890.2,45.3 869.4,24.4 877.0,-4.2 905.6,-11.8" fill="none" stroke="url(#strokeB)" stroke-width="1.2" opacity="0.65"/>
  <polygon points="908.2,17.6 892.0,25.2 893.5,7.3" fill="#22D3EE" opacity="0.22" filter="url(#softGlow)"/>
</g>


<g opacity="0.522" filter="url(#hardGlow)">
  <circle cx="962.7" cy="-24.0" r="19.0" fill="#0A1224" opacity="0.65"/>
  <circle cx="962.7" cy="-24.0" r="19.0" fill="none" stroke="url(#strokeA)" stroke-width="2.0" opacity="0.85"/>
  <circle cx="962.7" cy="-24.0" r="16.4" fill="none" stroke="#A855F7" stroke-width="1.5" opacity="0.35"/>
  <polygon points="974.1,-16.4 961.9,-10.3 950.5,-17.9 951.3,-31.6 963.6,-37.7 975.0,-30.1" fill="none" stroke="url(#strokeB)" stroke-width="1.2" opacity="0.65"/>
  <polygon points="965.6,-20.1 958.0,-23.5 964.6,-28.4" fill="#A855F7" opacity="0.22" filter="url(#softGlow)"/>
</g>


<g opacity="0.439" filter="url(#hardGlow)">
  <circle cx="887.1" cy="48.2" r="21.3" fill="#0A1224" opacity="0.65"/>
  <circle cx="887.1" cy="48.2" r="21.3" fill="none" stroke="url(#strokeA)" stroke-width="2.0" opacity="0.85"/>
  <circle cx="887.1" cy="48.2" r="18.3" fill="none" stroke="#A855F7" stroke-width="1.5" opacity="0.35"/>
  <polygon points="893.2,62.3 878.0,60.6 871.9,46.5 880.9,34.2 896.1,35.9 902.3,49.9" fill="none" stroke="url(#strokeB)" stroke-width="1.2" opacity="0.65"/>
  <polygon points="887.4,53.6 882.3,45.9 891.5,45.3" fill="#A855F7" opacity="0.22" filter="url(#softGlow)"/>
</g>


<g opacity="0.915" filter="url(#hardGlow)">
  <circle cx="67.3" cy="536.3" r="45.6" fill="#0A1224" opacity="0.65"/>
  <circle cx="67.3" cy="536.3" r="45.6" fill="none" stroke="url(#strokeA)" stroke-width="3.6" opacity="0.85"/>
  <circle cx="67.3" cy="536.3" r="39.2" fill="none" stroke="#22D3EE" stroke-width="1.5" opacity="0.35"/>
  <polygon points="50.8,507.9 83.6,507.9 100.1,536.3 83.7,564.7 50.9,564.8 34.5,536.4" fill="none" stroke="url(#strokeB)" stroke-width="1.2" opacity="0.65"/>
  <polygon points="65.3,525.0 78.1,540.2 58.5,543.7" fill="#22D3EE" opacity="0.22" filter="url(#softGlow)"/>
</g>


<g opacity="0.407" filter="url(#hardGlow)">
  <circle cx="117.0" cy="528.6" r="22.2" fill="#0A1224" opacity="0.65"/>
  <circle cx="117.0" cy="528.6" r="22.2" fill="none" stroke="url(#strokeA)" stroke-width="2.0" opacity="0.85"/>
  <circle cx="117.0" cy="528.6" r="19.1" fill="none" stroke="#A855F7" stroke-width="1.5" opacity="0.35"/>
  <polygon points="103.0,536.3 103.4,520.3 117.4,512.7 131.0,521.0 130.6,536.9 116.6,544.6" fill="none" stroke="url(#strokeB)" stroke-width="1.2" opacity="0.65"/>
  <polygon points="111.5,529.5 119.1,523.4 120.5,533.0" fill="#A855F7" opacity="0.22" filter="url(#softGlow)"/>
</g>


<g opacity="0.544" filter="url(#hardGlow)">
  <circle cx="24.9" cy="562.4" r="17.5" fill="#0A1224" opacity="0.65"/>
  <circle cx="24.9" cy="562.4" r="17.5" fill="none" stroke="url(#strokeA)" stroke-width="2.0" opacity="0.85"/>
  <circle cx="24.9" cy="562.4" r="15.1" fill="none" stroke="#A855F7" stroke-width="1.5" opacity="0.35"/>
  <polygon points="35.6,569.1 24.5,575.0 13.7,568.4 14.1,555.7 25.3,549.8 36.0,556.4" fill="none" stroke="url(#strokeB)" stroke-width="1.2" opacity="0.65"/>
  <polygon points="27.6,565.9 20.5,563.0 26.5,558.3" fill="#A855F7" opacity="0.22" filter="url(#softGlow)"/>
</g>


<g opacity="0.393" filter="url(#hardGlow)">
  <circle cx="67.0" cy="510.2" r="23.4" fill="#0A1224" opacity="0.65"/>
  <circle cx="67.0" cy="510.2" r="23.4" fill="none" stroke="url(#strokeA)" stroke-width="2.0" opacity="0.85"/>
  <circle cx="67.0" cy="510.2" r="20.1" fill="none" stroke="#A855F7" stroke-width="1.5" opacity="0.35"/>
  <polygon points="62.1,526.3 50.6,514.0 55.6,497.9 72.0,494.2 83.4,506.5 78.5,522.5" fill="none" stroke="url(#strokeB)" stroke-width="1.2" opacity="0.65"/>
  
</g>


<g opacity="0.742" filter="url(#hardGlow)">
  <circle cx="17.3" cy="983.9" r="62.9" fill="#0A1224" opacity="0.65"/>
  <circle cx="17.3" cy="983.9" r="62.9" fill="none" stroke="url(#strokeA)" stroke-width="5.0" opacity="0.85"/>
  <circle cx="17.3" cy="983.9" r="54.1" fill="none" stroke="#22D3EE" stroke-width="1.9" opacity="0.35"/>
  <polygon points="57.4,962.7 55.7,1007.9 15.7,1029.1 -22.7,1005.1 -21.0,959.8 19.0,938.6" fill="none" stroke="url(#strokeB)" stroke-width="1.6" opacity="0.65"/>
  <polygon points="33.0,981.7 11.4,998.5 7.6,971.4" fill="#22D3EE" opacity="0.22" filter="url(#softGlow)"/>
</g>


<g opacity="0.643" filter="url(#hardGlow)">
  <circle cx="89.2" cy="942.4" r="25.6" fill="#0A1224" opacity="0.65"/>
  <circle cx="89.2" cy="942.4" r="25.6" fill="none" stroke="url(#strokeA)" stroke-width="2.0" opacity="0.85"/>
  <circle cx="89.2" cy="942.4" r="22.0" fill="none" stroke="#A855F7" stroke-width="1.5" opacity="0.35"/>
  <polygon points="91.1,924.1 106.0,935.0 104.1,953.3 87.2,960.8 72.3,949.9 74.3,931.6" fill="none" stroke="url(#strokeB)" stroke-width="1.2" opacity="0.65"/>
  <polygon points="92.0,936.6 92.8,947.8 82.7,942.9" fill="#A855F7" opacity="0.22" filter="url(#softGlow)"/>
</g>


<g opacity="0.748" filter="url(#hardGlow)">
  <circle cx="1888.8" cy="136.3" r="48.8" fill="#0A1224" opacity="0.65"/>
  <circle cx="1888.8" cy="136.3" r="48.8" fill="none" stroke="url(#strokeA)" stroke-width="3.9" opacity="0.85"/>
  <circle cx="1888.8" cy="136.3" r="42.0" fill="none" stroke="#22D3EE" stroke-width="1.5" opacity="0.35"/>
  <polygon points="1859.2,155.2 1857.6,120.1 1887.3,101.2 1918.5,117.4 1920.0,152.5 1890.4,171.4" fill="none" stroke="url(#strokeB)" stroke-width="1.2" opacity="0.65"/>
  <polygon points="1876.8,139.0 1892.5,124.6 1897.1,145.4" fill="#22D3EE" opacity="0.22" filter="url(#softGlow)"/>
</g>


<g opacity="0.407" filter="url(#hardGlow)">
  <circle cx="1837.1" cy="153.5" r="22.1" fill="#0A1224" opacity="0.65"/>
  <circle cx="1837.1" cy="153.5" r="22.1" fill="none" stroke="url(#strokeA)" stroke-width="2.0" opacity="0.85"/>
  <circle cx="1837.1" cy="153.5" r="19.0" fill="none" stroke="#A855F7" stroke-width="1.5" opacity="0.35"/>
  <polygon points="1821.6,156.9 1826.4,141.8 1842.0,138.4 1852.7,150.1 1847.9,165.3 1832.3,168.7" fill="none" stroke="url(#strokeB)" stroke-width="1.2" opacity="0.65"/>
  <polygon points="1831.6,152.8 1840.5,149.1 1839.3,158.7" fill="#A855F7" opacity="0.22" filter="url(#softGlow)"/>
</g>


<g opacity="0.796" filter="url(#hardGlow)">
  <circle cx="1835.8" cy="46.7" r="64.1" fill="#0A1224" opacity="0.65"/>
  <circle cx="1835.8" cy="46.7" r="64.1" fill="none" stroke="url(#strokeA)" stroke-width="5.1" opacity="0.85"/>
  <circle cx="1835.8" cy="46.7" r="55.2" fill="none" stroke="#22D3EE" stroke-width="1.9" opacity="0.35"/>
  <polygon points="1791.5,59.7 1802.3,14.8 1846.6,1.8 1880.1,33.6 1869.2,78.5 1824.9,91.6" fill="none" stroke="url(#strokeB)" stroke-width="1.6" opacity="0.65"/>
  <polygon points="1819.6,45.7 1844.7,33.2 1843.0,61.2" fill="#22D3EE" opacity="0.22" filter="url(#softGlow)"/>
</g>


<g opacity="0.360" filter="url(#hardGlow)">
  <circle cx="1767.9" cy="93.1" r="25.0" fill="#0A1224" opacity="0.65"/>
  <circle cx="1767.9" cy="93.1" r="25.0" fill="none" stroke="url(#strokeA)" stroke-width="2.0" opacity="0.85"/>
  <circle cx="1767.9" cy="93.1" r="21.5" fill="none" stroke="#A855F7" stroke-width="1.5" opacity="0.35"/>
  <polygon points="1780.1,79.8 1785.5,97.0 1773.2,110.3 1755.7,106.3 1750.3,89.1 1762.5,75.9" fill="none" stroke="url(#strokeB)" stroke-width="1.2" opacity="0.65"/>
  <polygon points="1773.5,90.2 1767.6,99.4 1762.6,89.7" fill="#A855F7" opacity="0.22" filter="url(#softGlow)"/>
</g>


<g opacity="0.433" filter="url(#hardGlow)">
  <circle cx="1858.9" cy="-19.9" r="26.6" fill="#0A1224" opacity="0.65"/>
  <circle cx="1858.9" cy="-19.9" r="26.6" fill="none" stroke="url(#strokeA)" stroke-width="2.1" opacity="0.85"/>
  <circle cx="1858.9" cy="-19.9" r="22.8" fill="none" stroke="#A855F7" stroke-width="1.5" opacity="0.35"/>
  <polygon points="1839.9,-22.4 1851.5,-37.6 1870.5,-35.1 1877.8,-17.4 1866.2,-2.3 1847.2,-4.8" fill="none" stroke="url(#strokeB)" stroke-width="1.2" opacity="0.65"/>
  
</g>


<g opacity="0.695" filter="url(#hardGlow)">
  <circle cx="1837.4" cy="133.7" r="63.7" fill="#0A1224" opacity="0.65"/>
  <circle cx="1837.4" cy="133.7" r="63.7" fill="none" stroke="url(#strokeA)" stroke-width="5.1" opacity="0.85"/>
  <circle cx="1837.4" cy="133.7" r="54.8" fill="none" stroke="#22D3EE" stroke-width="1.9" opacity="0.35"/>
  <polygon points="1883.2,133.1 1860.8,173.1 1815.0,173.7 1791.5,134.3 1814.0,94.3 1859.8,93.7" fill="none" stroke="url(#strokeB)" stroke-width="1.6" opacity="0.65"/>
  <polygon points="1852.5,139.0 1825.2,144.1 1834.4,117.9" fill="#22D3EE" opacity="0.22" filter="url(#softGlow)"/>
</g>


<g opacity="0.534" filter="url(#hardGlow)">
  <circle cx="1934.9" cy="182.6" r="24.7" fill="#0A1224" opacity="0.65"/>
  <circle cx="1934.9" cy="182.6" r="24.7" fill="none" stroke="url(#strokeA)" stroke-width="2.0" opacity="0.85"/>
  <circle cx="1934.9" cy="182.6" r="21.3" fill="none" stroke="#A855F7" stroke-width="1.5" opacity="0.35"/>
  <polygon points="1924.3,168.2 1942.0,166.2 1952.6,180.5 1945.5,196.9 1927.8,198.9 1917.2,184.6" fill="none" stroke="url(#strokeB)" stroke-width="1.2" opacity="0.65"/>
  <polygon points="1933.1,176.6 1941.0,184.0 1930.6,187.1" fill="#A855F7" opacity="0.22" filter="url(#softGlow)"/>
</g>


<g opacity="0.462" filter="url(#hardGlow)">
  <circle cx="1782.3" cy="158.4" r="34.0" fill="#0A1224" opacity="0.65"/>
  <circle cx="1782.3" cy="158.4" r="34.0" fill="none" stroke="url(#strokeA)" stroke-width="2.7" opacity="0.85"/>
  <circle cx="1782.3" cy="158.4" r="29.2" fill="none" stroke="#A855F7" stroke-width="1.5" opacity="0.35"/>
  <polygon points="1792.8,180.5 1768.4,178.6 1757.9,156.5 1771.8,136.3 1796.1,138.2 1806.7,160.3" fill="none" stroke="url(#strokeB)" stroke-width="1.2" opacity="0.65"/>
  <polygon points="1783.1,166.9 1774.5,154.8 1789.3,153.4" fill="#A855F7" opacity="0.22" filter="url(#softGlow)"/>
</g>


<g opacity="0.319" transform="translate(129.4,810.4) rotate(6.2)" filter="url(#softGlow)">
  <rect x="-76.5" y="-62.1" width="153.0" height="124.2" rx="12.4" fill="#050A12" opacity="0.25"/>
  <rect x="-76.5" y="-62.1" width="153.0" height="124.2" rx="12.4" fill="none" stroke="url(#strokeA)" stroke-width="6.2" opacity="0.85"/>
  <rect x="-66.6" y="-52.2" width="133.2" height="104.3" rx="8.7" fill="none" stroke="#A855F7" stroke-width="2.5" opacity="0.35"/>
</g>


<g opacity="0.377" transform="translate(1847.9,178.2) rotate(-10.0)" filter="url(#softGlow)">
  <rect x="-89.4" y="-78.8" width="178.8" height="157.7" rx="15.8" fill="#050A12" opacity="0.25"/>
  <rect x="-89.4" y="-78.8" width="178.8" height="157.7" rx="15.8" fill="none" stroke="url(#strokeA)" stroke-width="7.9" opacity="0.85"/>
  <rect x="-76.8" y="-66.2" width="153.6" height="132.4" rx="11.0" fill="none" stroke="#F59E0B" stroke-width="3.2" opacity="0.35"/>
</g>


<g opacity="0.325" transform="translate(138.2,976.9) rotate(-6.0)" filter="url(#softGlow)">
  <rect x="-89.0" y="-79.5" width="178.0" height="159.1" rx="15.9" fill="#050A12" opacity="0.25"/>
  <rect x="-89.0" y="-79.5" width="178.0" height="159.1" rx="15.9" fill="none" stroke="url(#strokeA)" stroke-width="8.0" opacity="0.85"/>
  <rect x="-76.3" y="-66.8" width="152.5" height="133.6" rx="11.1" fill="none" stroke="#22D3EE" stroke-width="3.2" opacity="0.35"/>
</g>


<g opacity="0.393" transform="translate(10.4,521.7) rotate(-1.6)" filter="url(#softGlow)">
  <rect x="-80.8" y="-61.6" width="161.7" height="123.3" rx="12.3" fill="#050A12" opacity="0.25"/>
  <rect x="-80.8" y="-61.6" width="161.7" height="123.3" rx="12.3" fill="none" stroke="url(#strokeA)" stroke-width="6.2" opacity="0.85"/>
  <rect x="-71.0" y="-51.8" width="142.0" height="103.5" rx="8.6" fill="none" stroke="#A855F7" stroke-width="2.5" opacity="0.35"/>
</g>


<g opacity="0.311" transform="translate(184.2,165.9) rotate(7.7)" filter="url(#softGlow)">
  <rect x="-113.8" y="-104.3" width="227.5" height="208.6" rx="20.9" fill="#050A12" opacity="0.25"/>
  <rect x="-113.8" y="-104.3" width="227.5" height="208.6" rx="20.9" fill="none" stroke="url(#strokeA)" stroke-width="10.4" opacity="0.85"/>
  <rect x="-97.1" y="-87.6" width="194.1" height="175.2" rx="14.6" fill="none" stroke="#F59E0B" stroke-width="4.2" opacity="0.35"/>
</g>


<g opacity="0.346" transform="translate(1858.2,1057.5) rotate(-10.1)" filter="url(#softGlow)">
  <rect x="-43.0" y="-24.8" width="86.1" height="49.6" rx="15.2" fill="none" stroke="#A855F7" stroke-width="8.3" opacity="0.55"/>
  <rect x="-18.9" y="-12.4" width="86.1" height="49.6" rx="15.2" fill="none" stroke="url(#strokeA)" stroke-width="6.9" opacity="0.55"/>
</g>


<g opacity="0.434" transform="translate(74.6,992.7) rotate(2.3)" filter="url(#softGlow)">
  <rect x="-60.4" y="-34.8" width="120.8" height="69.6" rx="21.3" fill="none" stroke="#22D3EE" stroke-width="11.6" opacity="0.55"/>
  <rect x="-26.6" y="-17.4" width="120.8" height="69.6" rx="21.3" fill="none" stroke="url(#strokeA)" stroke-width="9.7" opacity="0.55"/>
</g>


<g opacity="0.312" transform="translate(1450.8,9.4) rotate(8.2)" filter="url(#softGlow)">
  <rect x="-58.0" y="-33.4" width="116.1" height="66.9" rx="20.4" fill="none" stroke="#22D3EE" stroke-width="11.1" opacity="0.55"/>
  <rect x="-25.5" y="-16.7" width="116.1" height="66.9" rx="20.4" fill="none" stroke="url(#strokeA)" stroke-width="9.3" opacity="0.55"/>
</g>


<g opacity="0.336" transform="translate(10.0,43.2) rotate(-12.1)" filter="url(#softGlow)">
  <rect x="-60.6" y="-34.9" width="121.3" height="69.9" rx="21.3" fill="none" stroke="#F59E0B" stroke-width="11.6" opacity="0.55"/>
  <rect x="-26.7" y="-17.5" width="121.3" height="69.9" rx="21.3" fill="none" stroke="url(#strokeA)" stroke-width="9.7" opacity="0.55"/>
</g>


<g opacity="0.223" transform="translate(105.9,1070.5) rotate(2.6)" filter="url(#softGlow)">
  <rect x="-57.2" y="-33.0" width="114.4" height="65.9" rx="20.1" fill="none" stroke="#F59E0B" stroke-width="11.0" opacity="0.55"/>
  <rect x="-25.2" y="-16.5" width="114.4" height="65.9" rx="20.1" fill="none" stroke="url(#strokeA)" stroke-width="9.2" opacity="0.55"/>
</g>


<g opacity="0.259" transform="translate(182.7,15.8) rotate(11.3)" filter="url(#softGlow)">
  <rect x="-57.1" y="-32.9" width="114.1" height="65.7" rx="20.1" fill="none" stroke="#A855F7" stroke-width="11.0" opacity="0.55"/>
  <rect x="-25.1" y="-16.4" width="114.1" height="65.7" rx="20.1" fill="none" stroke="url(#strokeA)" stroke-width="9.1" opacity="0.55"/>
</g>


<g opacity="0.214">
  <line x1="1515.1" y1="879.8" x2="1515.1" y2="988.8" stroke="#A855F7" stroke-width="1.54" opacity="0.45"/>
  <rect x="1510.1" y="941.6" width="10.0" height="50.8" rx="3.3" fill="#0B1020" opacity="0.55" stroke="url(#strokeA)" stroke-width="1.2"/>
</g>

<g opacity="0.214">
  <line x1="1152.1" y1="899.2" x2="1152.1" y2="984.0" stroke="#A855F7" stroke-width="1.44" opacity="0.45"/>
  <rect x="1147.7" y="951.0" width="8.7" height="32.0" rx="2.9" fill="#0B1020" opacity="0.55" stroke="url(#strokeA)" stroke-width="1.2"/>
</g>

<g opacity="0.214">
  <line x1="183.4" y1="887.5" x2="183.4" y2="986.9" stroke="#A855F7" stroke-width="1.18" opacity="0.45"/>
  <rect x="178.0" y="939.5" width="10.9" height="55.1" rx="3.6" fill="#0B1020" opacity="0.55" stroke="url(#strokeA)" stroke-width="1.2"/>
</g>

<g opacity="0.214">
  <line x1="599.5" y1="881.0" x2="599.5" y2="988.5" stroke="#A855F7" stroke-width="2.08" opacity="0.45"/>
  <rect x="596.5" y="940.7" width="6.0" height="52.7" rx="2.0" fill="#0B1020" opacity="0.55" stroke="url(#strokeA)" stroke-width="1.2"/>
</g>

<g opacity="0.214">
  <line x1="1012.1" y1="881.7" x2="1012.1" y2="988.4" stroke="#A855F7" stroke-width="2.05" opacity="0.45"/>
  <rect x="1007.8" y="942.2" width="8.7" height="49.7" rx="2.9" fill="#0B1020" opacity="0.55" stroke="url(#strokeA)" stroke-width="1.2"/>
</g>

<g opacity="0.214">
  <line x1="234.2" y1="889.8" x2="234.2" y2="986.3" stroke="#A855F7" stroke-width="1.50" opacity="0.45"/>
  <rect x="229.6" y="947.3" width="9.3" height="39.5" rx="3.1" fill="#0B1020" opacity="0.55" stroke="url(#strokeA)" stroke-width="1.2"/>
</g>

<g opacity="0.214">
  <line x1="1412.9" y1="896.6" x2="1412.9" y2="984.6" stroke="#A855F7" stroke-width="1.43" opacity="0.45"/>
  <rect x="1409.8" y="950.3" width="6.2" height="33.4" rx="2.1" fill="#0B1020" opacity="0.55" stroke="url(#strokeA)" stroke-width="1.2"/>
</g>

<g opacity="0.214">
  <line x1="1912.6" y1="914.6" x2="1912.6" y2="980.1" stroke="#A855F7" stroke-width="1.92" opacity="0.45"/>
  <rect x="1907.0" y="951.8" width="11.4" height="30.4" rx="3.8" fill="#0B1020" opacity="0.55" stroke="url(#strokeA)" stroke-width="1.2"/>
</g>

<g opacity="0.214">
  <line x1="1218.9" y1="928.5" x2="1218.9" y2="976.6" stroke="#A855F7" stroke-width="1.47" opacity="0.45"/>
  <rect x="1213.0" y="953.0" width="11.9" height="28.0" rx="4.0" fill="#0B1020" opacity="0.55" stroke="url(#strokeA)" stroke-width="1.2"/>
</g>

<g opacity="0.214">
  <line x1="71.9" y1="878.0" x2="71.9" y2="989.3" stroke="#A855F7" stroke-width="1.19" opacity="0.45"/>
  <rect x="66.2" y="937.1" width="11.3" height="59.8" rx="3.8" fill="#0B1020" opacity="0.55" stroke="url(#strokeA)" stroke-width="1.2"/>
</g>

<g opacity="0.214">
  <line x1="1063.3" y1="886.2" x2="1063.3" y2="987.2" stroke="#A855F7" stroke-width="1.50" opacity="0.45"/>
  <rect x="1059.6" y="941.2" width="7.4" height="51.7" rx="2.5" fill="#0B1020" opacity="0.55" stroke="url(#strokeA)" stroke-width="1.2"/>
</g>

<g opacity="0.214">
  <line x1="667.1" y1="925.3" x2="667.1" y2="977.5" stroke="#A855F7" stroke-width="1.39" opacity="0.45"/>
  <rect x="662.5" y="953.1" width="9.3" height="27.8" rx="3.1" fill="#0B1020" opacity="0.55" stroke="url(#strokeA)" stroke-width="1.2"/>
</g>

<g opacity="0.214">
  <line x1="1731.5" y1="886.8" x2="1731.5" y2="987.1" stroke="#A855F7" stroke-width="1.81" opacity="0.45"/>
  <rect x="1728.0" y="941.4" width="6.9" height="51.3" rx="2.3" fill="#0B1020" opacity="0.55" stroke="url(#strokeA)" stroke-width="1.2"/>
</g>

<g opacity="0.214">
  <line x1="0.9" y1="921.0" x2="0.9" y2="978.5" stroke="#A855F7" stroke-width="1.46" opacity="0.45"/>
  <rect x="-4.2" y="955.2" width="10.2" height="23.6" rx="3.4" fill="#0B1020" opacity="0.55" stroke="url(#strokeA)" stroke-width="1.2"/>
</g>
<circle cx="214.8" cy="1051.3" r="3.2" fill="#22D3EE" opacity="0.24" filter="url(#softGlow)"/>
<circle cx="1812.2" cy="158.2" r="1.5" fill="#22D3EE" opacity="0.18" filter="url(#softGlow)"/>
<circle cx="106.8" cy="405.8" r="3.1" fill="#22D3EE" opacity="0.11" filter="url(#softGlow)"/>
<circle cx="15.8" cy="180.2" r="2.6" fill="#22D3EE" opacity="0.13" filter="url(#softGlow)"/>
<circle cx="1707.7" cy="778.0" r="2.0" fill="#22D3EE" opacity="0.15" filter="url(#softGlow)"/>
<circle cx="95.3" cy="959.0" r="1.4" fill="#22D3EE" opacity="0.11" filter="url(#softGlow)"/>
<circle cx="23.6" cy="633.7" r="2.1" fill="#22D3EE" opacity="0.23" filter="url(#softGlow)"/>
<circle cx="1755.4" cy="1030.1" r="1.4" fill="#22D3EE" opacity="0.19" filter="url(#softGlow)"/>
<circle cx="1871.5" cy="872.6" r="1.5" fill="#22D3EE" opacity="0.26" filter="url(#softGlow)"/>
<circle cx="1852.6" cy="1051.4" r="2.8" fill="#22D3EE" opacity="0.13" filter="url(#softGlow)"/>
<circle cx="215.1" cy="133.6" r="3.0" fill="#22D3EE" opacity="0.10" filter="url(#softGlow)"/>
<circle cx="1881.7" cy="25.4" r="2.5" fill="#22D3EE" opacity="0.14" filter="url(#softGlow)"/>
<circle cx="1822.1" cy="95.8" r="1.8" fill="#22D3EE" opacity="0.15" filter="url(#softGlow)"/>
<circle cx="179.3" cy="83.6" r="2.9" fill="#22D3EE" opacity="0.11" filter="url(#softGlow)"/>
<circle cx="39.0" cy="227.6" r="1.8" fill="#22D3EE" opacity="0.11" filter="url(#softGlow)"/>
<circle cx="1787.0" cy="129.2" r="1.9" fill="#22D3EE" opacity="0.15" filter="url(#softGlow)"/>
<circle cx="158.6" cy="31.3" r="1.7" fill="#22D3EE" opacity="0.26" filter="url(#softGlow)"/>
<circle cx="60.0" cy="1027.5" r="2.8" fill="#22D3EE" opacity="0.13" filter="url(#softGlow)"/>
<circle cx="202.8" cy="139.7" r="2.5" fill="#22D3EE" opacity="0.19" filter="url(#softGlow)"/>
<circle cx="183.4" cy="4.6" r="2.5" fill="#22D3EE" opacity="0.25" filter="url(#softGlow)"/>
<circle cx="1749.1" cy="853.7" r="2.0" fill="#22D3EE" opacity="0.17" filter="url(#softGlow)"/>
<circle cx="1866.1" cy="945.4" r="2.5" fill="#22D3EE" opacity="0.27" filter="url(#softGlow)"/>
<circle cx="180.2" cy="171.2" r="1.9" fill="#22D3EE" opacity="0.27" filter="url(#softGlow)"/>
<circle cx="146.9" cy="72.9" r="1.5" fill="#22D3EE" opacity="0.21" filter="url(#softGlow)"/>
<circle cx="1798.7" cy="194.7" r="1.7" fill="#22D3EE" opacity="0.15" filter="url(#softGlow)"/>
<circle cx="1747.6" cy="105.3" r="2.2" fill="#22D3EE" opacity="0.18" filter="url(#softGlow)"/>
</svg>