<svg xmlns="http://www.w3.org/2000/svg" width="1920" height="1080" viewBox="0 0 1920 1080" preserveAspectRatio="xMidYMid slice">
<defs>
  <linearGradient id="g0" x1="0" y1="0" x2="1" y2="1">
    <stop offset="0" stop-color="#0B0F1A"/>
    <stop offset="0.55" stop-color="#A855F7" stop-opacity="0.9"/>
    <stop offset="1" stop-color="#030712"/>
  </linearGradient>
  <radialGradient id="g1" cx="20%" cy="15%" r="70%">
    <stop offset="0" stop-color="#22D3EE" stop-opacity="0.38"/>
    <stop offset="0.6" stop-color="#22D3EE" stop-opacity="0.08"/>
    <stop offset="1" stop-color="#22D3EE" stop-opacity="0"/>
  </radialGradient>
  <radialGradient id="g2" cx="85%" cy="80%" r="75%">
    <stop offset="0" stop-color="#22D3EE" stop-opacity="0.28"/>
    <stop offset="0.65" stop-color="#22D3EE" stop-opacity="0.06"/>
    <stop offset="1" stop-color="#22D3EE" stop-opacity="0"/>
  </radialGradient>
  <filter id="softGlow" x="-30%" y="-30%" width="160%" height="160%">
    <feGaussianBlur stdDeviation="12" result="b"/>
    <feMerge>
      <feMergeNode in="b"/>
      <feMergeNode in="SourceGraphic"/>
    </feMerge>
  </filter>
  <filter id="hardGlow" x="-40%" y="-40%" width="180%" height="180%">
    <feGaussianBlur stdDeviation="6" result="b"/>
    <feColorMatrix in="b" type="matrix" values="1 0 0 0 0  0 1 0 0 0  0 0 1 0 0  0 0 0 18 -7" result="c"/>
    <feMerge>
      <feMergeNode in="c"/>
      <feMergeNode in="SourceGraphic"/>
    </feMerge>
  </filter>
  <linearGradient id="strokeA" x1="0" y1="0" x2="1" y2="0">
    <stop offset="0" stop-color="#22D3EE" stop-opacity="0.9"/>
    <stop offset="0.5" stop-color="#FFFFFF" stop-opacity="0.25"/>
    <stop offset="1" stop-color="#22D3EE" stop-opacity="0.7"/>
  </linearGradient>
  <linearGradient id="strokeB" x1="0" y1="0" x2="0" y2="1">
    <stop offset="0" stop-color="#FFFFFF" stop-opacity="0.18"/>
    <stop offset="1" stop-color="#22D3EE" stop-opacity="0.55"/>
  </linearGradient>
</defs>
<rect x="0" y="0" width="1920" height="1080" fill="url(#g0)"/>
<rect x="0" y="0" width="1920" height="1080" fill="url(#g1)"/>
<rect x="0" y="0" width="1920" height="1080" fill="url(#g2)"/>


<defs>
  <radialGradient id="vign" cx="0.5000" cy="0.5093" r="0.85">
    <stop offset="0" stop-color="#000000" stop-opacity="0"/>
    <stop offset="0.55" stop-color="#000000" stop-opacity="0.217"/>
    <stop offset="1" stop-color="#000000" stop-opacity="0.620"/>
  </radialGradient>
</defs>
<rect x="0" y="0" width="1920" height="1080" fill="url(#vign)"/>

<g opacity="0.199" filter="url(#softGlow)"><path d="M 1351.0,129.8 L 215.7,129.8 L 215.7,443.3 L 1888.1,443.3 L 1888.1,171.0 " fill="none" stroke="url(#strokeB)" stroke-width="1.41" stroke-linecap="round" stroke-linejoin="round"/><circle cx="1888.1" cy="171.0" r="3.5" fill="#22D3EE" opacity="0.45"/><circle cx="215.7" cy="129.8" r="3.8" fill="#22D3EE" opacity="0.45"/><circle cx="215.7" cy="443.3" r="2.9" fill="#22D3EE" opacity="0.45"/></g>
<g opacity="0.199" filter="url(#softGlow)"><path d="M 1723.9,96.4 L 191.1,96.4 L 191.1,1003.4 L 1201.8,1003.4 L 1201.8,85.1 " fill="none" stroke="url(#strokeB)" stroke-width="2.19" stroke-linecap="round" stroke-linejoin="round"/><circle cx="1201.8" cy="1003.4" r="3.5" fill="#22D3EE" opacity="0.45"/><circle cx="1723.9" cy="96.4" r="2.4" fill="#22D3EE" opacity="0.45"/><circle cx="1201.8" cy="85.1" r="2.2" fill="#22D3EE" opacity="0.45"/></g>
<g opacity="0.199" filter="url(#softGlow)"><path d="M 17.3,71.9 L 1813.9,71.9 L 1813.9,993.9 L 26.0,993.9 L 26.0,368.3 " fill="none" stroke="url(#strokeB)" stroke-width="1.92" stroke-linecap="round" stroke-linejoin="round"/><circle cx="26.0" cy="368.3" r="4.0" fill="#22D3EE" opacity="0.45"/><circle cx="26.0" cy="993.9" r="2.1" fill="#22D3EE" opacity="0.45"/><circle cx="1813.9" cy="71.9" r="2.5" fill="#22D3EE" opacity="0.45"/></g>
<g opacity="0.199" filter="url(#softGlow)"><path d="M 1729.2,449.1 L 1782.6,449.1 L 1782.6,5.6 L 87.5,5.6 L 87.5,899.7 " fill="none" stroke="url(#strokeB)" stroke-width="2.03" stroke-linecap="round" stroke-linejoin="round"/><circle cx="1782.6" cy="5.6" r="2.5" fill="#22D3EE" opacity="0.45"/><circle cx="1782.6" cy="449.1" r="4.1" fill="#22D3EE" opacity="0.45"/><circle cx="87.5" cy="5.6" r="3.6" fill="#22D3EE" opacity="0.45"/></g>
<g opacity="0.199" filter="url(#softGlow)"><path d="M 198.5,672.9 L 1895.4,672.9 L 1895.4,981.6 L 50.0,981.6 L 50.0,132.8 " fill="none" stroke="url(#strokeB)" stroke-width="1.31" stroke-linecap="round" stroke-linejoin="round"/><circle cx="198.5" cy="672.9" r="2.1" fill="#22D3EE" opacity="0.45"/><circle cx="50.0" cy="981.6" r="2.8" fill="#22D3EE" opacity="0.45"/><circle cx="50.0" cy="132.8" r="3.5" fill="#22D3EE" opacity="0.45"/></g>
<g opacity="0.199" filter="url(#softGlow)"><path d="M 1743.7,47.7 L 34.2,47.7 L 34.2,333.4 L 1864.5,333.4 L 1864.5,182.5 " fill="none" stroke="url(#strokeB)" stroke-width="1.57" stroke-linecap="round" stroke-linejoin="round"/><circle cx="1864.5" cy="182.5" r="2.8" fill="#22D3EE" opacity="0.45"/><circle cx="34.2" cy="47.7" r="2.7" fill="#22D3EE" opacity="0.45"/><circle cx="1743.7" cy="47.7" r="3.9" fill="#22D3EE" opacity="0.45"/></g>
<g opacity="0.199" filter="url(#softGlow)"><path d="M 139.1,1029.6 L 1757.5,1029.6 L 1757.5,957.2 L 163.3,957.2 L 163.3,187.3 " fill="none" stroke="url(#strokeB)" stroke-width="1.65" stroke-linecap="round" stroke-linejoin="round"/><circle cx="1757.5" cy="957.2" r="4.1" fill="#22D3EE" opacity="0.45"/><circle cx="1757.5" cy="1029.6" r="3.4" fill="#22D3EE" opacity="0.45"/><circle cx="163.3" cy="957.2" r="2.2" fill="#22D3EE" opacity="0.45"/></g>
<g opacity="0.199" filter="url(#softGlow)"><path d="M 1.6,128.8 L 1774.5,128.8 L 1774.5,1031.8 L 1849.6,1031.8 L 1849.6,110.0 " fill="none" stroke="url(#strokeB)" stroke-width="1.88" stroke-linecap="round" stroke-linejoin="round"/><circle cx="1849.6" cy="1031.8" r="3.1" fill="#22D3EE" opacity="0.45"/><circle cx="1774.5" cy="128.8" r="2.4" fill="#22D3EE" opacity="0.45"/><circle cx="1849.6" cy="110.0" r="4.1" fill="#22D3EE" opacity="0.45"/></g>
<g opacity="0.199" filter="url(#softGlow)"><path d="M 792.7,32.9 L 1799.1,32.9 L 1799.1,964.1 L 1816.8,964.1 L 1816.8,887.6 " fill="none" stroke="url(#strokeB)" stroke-width="1.71" stroke-linecap="round" stroke-linejoin="round"/><circle cx="1799.1" cy="964.1" r="4.1" fill="#22D3EE" opacity="0.45"/><circle cx="1816.8" cy="964.1" r="4.1" fill="#22D3EE" opacity="0.45"/><circle cx="1816.8" cy="887.6" r="2.8" fill="#22D3EE" opacity="0.45"/></g>
<g opacity="0.199" filter="url(#softGlow)"><path d="M 1669.1,126.2 L 34.8,126.2 L 34.8,943.5 L 212.7,943.5 L 212.7,871.7 " fill="none" stroke="url(#strokeB)" stroke-width="2.00" stroke-linecap="round" stroke-linejoin="round"/><circle cx="34.8" cy="126.2" r="2.9" fill="#22D3EE" opacity="0.45"/><circle cx="1669.1" cy="126.2" r="4.0" fill="#22D3EE" opacity="0.45"/><circle cx="212.7" cy="871.7" r="3.9" fill="#22D3EE" opacity="0.45"/></g>
<g opacity="0.199" filter="url(#softGlow)"><path d="M 1900.8,924.9 L 85.6,924.9 L 85.6,1028.6 L 116.8,1028.6 L 116.8,123.0 " fill="none" stroke="url(#strokeB)" stroke-width="1.27" stroke-linecap="round" stroke-linejoin="round"/><circle cx="85.6" cy="1028.6" r="2.8" fill="#22D3EE" opacity="0.45"/><circle cx="116.8" cy="1028.6" r="2.6" fill="#22D3EE" opacity="0.45"/><circle cx="116.8" cy="123.0" r="2.1" fill="#22D3EE" opacity="0.45"/></g>
<g opacity="0.199" filter="url(#softGlow)"><path d="M 106.2,139.3 L 1752.4,139.3 L 1752.4,90.8 L 1746.9,90.8 L 1746.9,170.4 " fill="none" stroke="url(#strokeB)" stroke-width="1.69" stroke-linecap="round" stroke-linejoin="round"/><circle cx="1752.4" cy="90.8" r="4.2" fill="#22D3EE" opacity="0.45"/><circle cx="106.2" cy="139.3" r="3.9" fill="#22D3EE" opacity="0.45"/><circle cx="1746.9" cy="90.8" r="2.5" fill="#22D3EE" opacity="0.45"/></g>
<g opacity="0.199" filter="url(#softGlow)"><path d="M 1885.6,1023.9 L 1731.3,1023.9 L 1731.3,1017.5 L 1762.0,1017.5 L 1762.0,934.4 " fill="none" stroke="url(#strokeB)" stroke-width="1.61" stroke-linecap="round" stroke-linejoin="round"/><circle cx="1762.0" cy="934.4" r="2.2" fill="#22D3EE" opacity="0.45"/><circle cx="1731.3" cy="1017.5" r="3.9" fill="#22D3EE" opacity="0.45"/><circle cx="1731.3" cy="1023.9" r="2.5" fill="#22D3EE" opacity="0.45"/></g>
<g opacity="0.199" filter="url(#softGlow)"><path d="M 1900.5,1032.1 L 878.8,1032.1 L 878.8,120.7 L 140.2,120.7 L 140.2,236.4 " fill="none" stroke="url(#strokeB)" stroke-width="1.13" stroke-linecap="round" stroke-linejoin="round"/><circle cx="140.2" cy="236.4" r="2.0" fill="#22D3EE" opacity="0.45"/><circle cx="140.2" cy="120.7" r="3.6" fill="#22D3EE" opacity="0.45"/><circle cx="1900.5" cy="1032.1" r="2.3" fill="#22D3EE" opacity="0.45"/></g>
<g opacity="0.199" filter="url(#softGlow)"><path d="M 194.6,875.2 L 1888.0,875.2 L 1888.0,518.4 L 127.1,518.4 L 127.1,160.4 " fill="none" stroke="url(#strokeB)" stroke-width="1.52" stroke-linecap="round" stroke-linejoin="round"/><circle cx="127.1" cy="160.4" r="4.0" fill="#22D3EE" opacity="0.45"/><circle cx="1888.0" cy="518.4" r="3.1" fill="#22D3EE" opacity="0.45"/><circle cx="127.1" cy="518.4" r="2.5" fill="#22D3EE" opacity="0.45"/></g>
<g opacity="0.199" filter="url(#softGlow)"><path d="M 1754.2,74.9 L 291.3,74.9 L 291.3,5.9 L 447.7,5.9 L 447.7,1024.4 " fill="none" stroke="url(#strokeB)" stroke-width="1.21" stroke-linecap="round" stroke-linejoin="round"/><circle cx="291.3" cy="74.9" r="3.4" fill="#22D3EE" opacity="0.45"/><circle cx="447.7" cy="5.9" r="3.0" fill="#22D3EE" opacity="0.45"/><circle cx="447.7" cy="1024.4" r="3.8" fill="#22D3EE" opacity="0.45"/></g>
<g opacity="0.199" filter="url(#softGlow)"><path d="M 126.3,121.6 L 1714.2,121.6 L 1714.2,962.6 L 1770.6,962.6 L 1770.6,1043.9 " fill="none" stroke="url(#strokeB)" stroke-width="1.29" stroke-linecap="round" stroke-linejoin="round"/><circle cx="1714.2" cy="962.6" r="2.3" fill="#22D3EE" opacity="0.45"/><circle cx="1770.6" cy="962.6" r="2.3" fill="#22D3EE" opacity="0.45"/><circle cx="1770.6" cy="1043.9" r="2.4" fill="#22D3EE" opacity="0.45"/></g>
<g opacity="0.199" filter="url(#softGlow)"><path d="M 1836.7,98.7 L 198.6,98.7 L 198.6,1068.4 L 1267.5,1068.4 L 1267.5,68.2 " fill="none" stroke="url(#strokeB)" stroke-width="1.41" stroke-linecap="round" stroke-linejoin="round"/><circle cx="1836.7" cy="98.7" r="3.9" fill="#22D3EE" opacity="0.45"/><circle cx="198.6" cy="1068.4" r="2.7" fill="#22D3EE" opacity="0.45"/><circle cx="1267.5" cy="1068.4" r="2.3" fill="#22D3EE" opacity="0.45"/></g>
<g opacity="0.199" filter="url(#softGlow)"><path d="M 24.5,954.3 L 1823.0,954.3 L 1823.0,80.4 L 121.5,80.4 L 121.5,354.5 " fill="none" stroke="url(#strokeB)" stroke-width="1.45" stroke-linecap="round" stroke-linejoin="round"/><circle cx="1823.0" cy="80.4" r="3.8" fill="#22D3EE" opacity="0.45"/><circle cx="121.5" cy="80.4" r="3.3" fill="#22D3EE" opacity="0.45"/><circle cx="121.5" cy="354.5" r="2.8" fill="#22D3EE" opacity="0.45"/></g>
<g opacity="0.199" filter="url(#softGlow)"><path d="M 182.2,934.7 L 21.2,934.7 L 21.2,1055.0 L 1275.7,1055.0 L 1275.7,1033.2 " fill="none" stroke="url(#strokeB)" stroke-width="1.32" stroke-linecap="round" stroke-linejoin="round"/><circle cx="182.2" cy="934.7" r="3.4" fill="#22D3EE" opacity="0.45"/><circle cx="21.2" cy="1055.0" r="4.2" fill="#22D3EE" opacity="0.45"/><circle cx="21.2" cy="934.7" r="4.1" fill="#22D3EE" opacity="0.45"/></g>
<g opacity="0.199" filter="url(#softGlow)"><path d="M 1779.1,1064.0 L 212.7,1064.0 L 212.7,996.5 L 783.8,996.5 L 783.8,118.2 " fill="none" stroke="url(#strokeB)" stroke-width="2.17" stroke-linecap="round" stroke-linejoin="round"/><circle cx="1779.1" cy="1064.0" r="2.2" fill="#22D3EE" opacity="0.45"/><circle cx="212.7" cy="1064.0" r="2.1" fill="#22D3EE" opacity="0.45"/><circle cx="212.7" cy="996.5" r="2.7" fill="#22D3EE" opacity="0.45"/></g>

<g opacity="0.724" filter="url(#hardGlow)">
  <circle cx="1804.1" cy="431.7" r="53.3" fill="#0A1224" opacity="0.65"/>
  <circle cx="1804.1" cy="431.7" r="53.3" fill="none" stroke="url(#strokeA)" stroke-width="4.3" opacity="0.85"/>
  <circle cx="1804.1" cy="431.7" r="45.8" fill="none" stroke="#A855F7" stroke-width="1.6" opacity="0.35"/>
  <polygon points="1782.2,463.1 1765.9,428.4 1787.8,396.9 1826.0,400.2 1842.3,434.9 1820.4,466.4" fill="none" stroke="url(#strokeB)" stroke-width="1.3" opacity="0.65"/>
  <polygon points="1793.1,439.4 1802.9,418.3 1816.3,437.3" fill="#A855F7" opacity="0.22" filter="url(#softGlow)"/>
</g>


<g opacity="0.499" filter="url(#hardGlow)">
  <circle cx="1827.8" cy="452.6" r="20.3" fill="#0A1224" opacity="0.65"/>
  <circle cx="1827.8" cy="452.6" r="20.3" fill="none" stroke="url(#strokeA)" stroke-width="2.0" opacity="0.85"/>
  <circle cx="1827.8" cy="452.6" r="17.5" fill="none" stroke="#22D3EE" stroke-width="1.5" opacity="0.35"/>
  <polygon points="1813.1,451.8 1821.1,439.5 1835.7,440.3 1842.4,453.3 1834.4,465.6 1819.8,464.9" fill="none" stroke="url(#strokeB)" stroke-width="1.2" opacity="0.65"/>
  <polygon points="1823.0,450.6 1831.8,449.5 1828.4,457.7" fill="#22D3EE" opacity="0.22" filter="url(#softGlow)"/>
</g>


<g opacity="0.575" filter="url(#hardGlow)">
  <circle cx="1754.1" cy="394.5" r="27.9" fill="#0A1224" opacity="0.65"/>
  <circle cx="1754.1" cy="394.5" r="27.9" fill="none" stroke="url(#strokeA)" stroke-width="2.2" opacity="0.85"/>
  <circle cx="1754.1" cy="394.5" r="24.0" fill="none" stroke="#22D3EE" stroke-width="1.5" opacity="0.35"/>
  <polygon points="1774.2,395.4 1763.4,412.4 1743.4,411.5 1734.0,393.7 1744.8,376.7 1764.9,377.6" fill="none" stroke="url(#strokeB)" stroke-width="1.2" opacity="0.65"/>
  
</g>


<g opacity="0.622" filter="url(#hardGlow)">
  <circle cx="1795.8" cy="394.8" r="21.5" fill="#0A1224" opacity="0.65"/>
  <circle cx="1795.8" cy="394.8" r="21.5" fill="none" stroke="url(#strokeA)" stroke-width="2.0" opacity="0.85"/>
  <circle cx="1795.8" cy="394.8" r="18.5" fill="none" stroke="#22D3EE" stroke-width="1.5" opacity="0.35"/>
  <polygon points="1801.6,380.5 1811.1,392.7 1805.3,407.0 1790.0,409.2 1780.5,397.0 1786.3,382.6" fill="none" stroke="url(#strokeB)" stroke-width="1.2" opacity="0.65"/>
  <polygon points="1799.4,390.8 1797.5,400.0 1790.5,393.7" fill="#22D3EE" opacity="0.22" filter="url(#softGlow)"/>
</g>


<g opacity="0.813" filter="url(#hardGlow)">
  <circle cx="1052.9" cy="18.7" r="43.9" fill="#0A1224" opacity="0.65"/>
  <circle cx="1052.9" cy="18.7" r="43.9" fill="none" stroke="url(#strokeA)" stroke-width="3.5" opacity="0.85"/>
  <circle cx="1052.9" cy="18.7" r="37.8" fill="none" stroke="#A855F7" stroke-width="1.5" opacity="0.35"/>
  <polygon points="1080.5,34.1 1053.4,50.3 1025.8,34.9 1025.3,3.3 1052.5,-12.9 1080.1,2.5" fill="none" stroke="url(#strokeB)" stroke-width="1.2" opacity="0.65"/>
  <polygon points="1060.2,27.0 1042.1,20.8 1056.6,8.2" fill="#A855F7" opacity="0.22" filter="url(#softGlow)"/>
</g>


<g opacity="0.594" filter="url(#hardGlow)">
  <circle cx="982.8" cy="54.0" r="22.4" fill="#0A1224" opacity="0.65"/>
  <circle cx="982.8" cy="54.0" r="22.4" fill="none" stroke="url(#strokeA)" stroke-width="2.0" opacity="0.85"/>
  <circle cx="982.8" cy="54.0" r="19.3" fill="none" stroke="#22D3EE" stroke-width="1.5" opacity="0.35"/>
  <polygon points="966.7,54.3 974.6,40.2 990.7,39.9 999.0,53.8 991.1,67.9 975.0,68.1" fill="none" stroke="url(#strokeB)" stroke-width="1.2" opacity="0.65"/>
  <polygon points="977.5,52.2 987.1,50.3 983.9,59.6" fill="#22D3EE" opacity="0.22" filter="url(#softGlow)"/>
</g>


<g opacity="0.460" filter="url(#hardGlow)">
  <circle cx="1078.8" cy="47.1" r="17.1" fill="#0A1224" opacity="0.65"/>
  <circle cx="1078.8" cy="47.1" r="17.1" fill="none" stroke="url(#strokeA)" stroke-width="2.0" opacity="0.85"/>
  <circle cx="1078.8" cy="47.1" r="14.7" fill="none" stroke="#22D3EE" stroke-width="1.5" opacity="0.35"/>
  <polygon points="1067.1,50.7 1069.8,38.7 1081.5,35.1 1090.6,43.4 1087.9,55.4 1076.1,59.1" fill="none" stroke="url(#strokeB)" stroke-width="1.2" opacity="0.65"/>
  
</g>


<g opacity="0.831" filter="url(#hardGlow)">
  <circle cx="1872.0" cy="1021.2" r="50.9" fill="#0A1224" opacity="0.65"/>
  <circle cx="1872.0" cy="1021.2" r="50.9" fill="none" stroke="url(#strokeA)" stroke-width="4.1" opacity="0.85"/>
  <circle cx="1872.0" cy="1021.2" r="43.8" fill="none" stroke="#A855F7" stroke-width="1.5" opacity="0.35"/>
  <polygon points="1859.2,986.8 1895.3,992.9 1908.1,1027.3 1884.8,1055.5 1848.6,1049.4 1835.9,1015.1" fill="none" stroke="url(#strokeB)" stroke-width="1.3" opacity="0.65"/>
  <polygon points="1871.9,1008.3 1883.1,1027.5 1860.9,1027.7" fill="#A855F7" opacity="0.22" filter="url(#softGlow)"/>
</g>


<g opacity="0.354" filter="url(#hardGlow)">
  <circle cx="1871.1" cy="1048.5" r="22.3" fill="#0A1224" opacity="0.65"/>
  <circle cx="1871.1" cy="1048.5" r="22.3" fill="none" stroke="url(#strokeA)" stroke-width="2.0" opacity="0.85"/>
  <circle cx="1871.1" cy="1048.5" r="19.2" fill="none" stroke="#22D3EE" stroke-width="1.5" opacity="0.35"/>
  <polygon points="1868.0,1032.7 1883.2,1037.9 1886.3,1053.6 1874.3,1064.2 1859.1,1059.1 1855.9,1043.3" fill="none" stroke="url(#strokeB)" stroke-width="1.2" opacity="0.65"/>
  
</g>


<g opacity="0.476" filter="url(#hardGlow)">
  <circle cx="1947.3" cy="1076.1" r="22.0" fill="#0A1224" opacity="0.65"/>
  <circle cx="1947.3" cy="1076.1" r="22.0" fill="none" stroke="url(#strokeA)" stroke-width="2.0" opacity="0.85"/>
  <circle cx="1947.3" cy="1076.1" r="18.9" fill="none" stroke="#22D3EE" stroke-width="1.5" opacity="0.35"/>
  <polygon points="1947.4,1060.3 1961.1,1068.3 1961.0,1084.1 1947.2,1092.0 1933.6,1084.0 1933.7,1068.1" fill="none" stroke="url(#strokeB)" stroke-width="1.2" opacity="0.65"/>
  
</g>


<g opacity="0.809" filter="url(#hardGlow)">
  <circle cx="1792.3" cy="1029.9" r="42.4" fill="#0A1224" opacity="0.65"/>
  <circle cx="1792.3" cy="1029.9" r="42.4" fill="none" stroke="url(#strokeA)" stroke-width="3.4" opacity="0.85"/>
  <circle cx="1792.3" cy="1029.9" r="36.4" fill="none" stroke="#A855F7" stroke-width="1.5" opacity="0.35"/>
  <polygon points="1763.0,1021.2 1785.1,1000.2 1814.4,1008.9 1821.5,1038.5 1799.4,1059.5 1770.2,1050.9" fill="none" stroke="url(#strokeB)" stroke-width="1.2" opacity="0.65"/>
  <polygon points="1783.7,1023.5 1802.1,1025.6 1791.1,1040.5" fill="#A855F7" opacity="0.22" filter="url(#softGlow)"/>
</g>


<g opacity="0.350" filter="url(#hardGlow)">
  <circle cx="1749.0" cy="1008.5" r="23.3" fill="#0A1224" opacity="0.65"/>
  <circle cx="1749.0" cy="1008.5" r="23.3" fill="none" stroke="url(#strokeA)" stroke-width="2.0" opacity="0.85"/>
  <circle cx="1749.0" cy="1008.5" r="20.0" fill="none" stroke="#22D3EE" stroke-width="1.5" opacity="0.35"/>
  <polygon points="1733.1,1013.7 1736.6,997.3 1752.5,992.1 1765.0,1003.3 1761.5,1019.7 1745.5,1024.9" fill="none" stroke="url(#strokeB)" stroke-width="1.2" opacity="0.65"/>
  
</g>


<g opacity="0.598" filter="url(#hardGlow)">
  <circle cx="1849.4" cy="986.5" r="19.0" fill="#0A1224" opacity="0.65"/>
  <circle cx="1849.4" cy="986.5" r="19.0" fill="none" stroke="url(#strokeA)" stroke-width="2.0" opacity="0.85"/>
  <circle cx="1849.4" cy="986.5" r="16.3" fill="none" stroke="#22D3EE" stroke-width="1.5" opacity="0.35"/>
  <polygon points="1857.3,997.6 1843.7,998.9 1835.8,987.7 1841.6,975.3 1855.2,974.1 1863.1,985.2" fill="none" stroke="url(#strokeB)" stroke-width="1.2" opacity="0.65"/>
  <polygon points="1850.7,991.1 1844.8,985.3 1852.8,983.1" fill="#22D3EE" opacity="0.22" filter="url(#softGlow)"/>
</g>


<g opacity="0.393" filter="url(#hardGlow)">
  <circle cx="1728.9" cy="1014.2" r="22.9" fill="#0A1224" opacity="0.65"/>
  <circle cx="1728.9" cy="1014.2" r="22.9" fill="none" stroke="url(#strokeA)" stroke-width="2.0" opacity="0.85"/>
  <circle cx="1728.9" cy="1014.2" r="19.7" fill="none" stroke="#22D3EE" stroke-width="1.5" opacity="0.35"/>
  <polygon points="1718.7,1027.1 1712.7,1011.8 1722.9,998.9 1739.2,1001.3 1745.2,1016.6 1735.0,1029.5" fill="none" stroke="url(#strokeB)" stroke-width="1.2" opacity="0.65"/>
  <polygon points="1724.0,1017.2 1728.8,1008.4 1734.0,1016.9" fill="#22D3EE" opacity="0.22" filter="url(#softGlow)"/>
</g>


<g opacity="0.817" filter="url(#hardGlow)">
  <circle cx="74.0" cy="17.2" r="64.0" fill="#0A1224" opacity="0.65"/>
  <circle cx="74.0" cy="17.2" r="64.0" fill="none" stroke="url(#strokeA)" stroke-width="5.1" opacity="0.85"/>
  <circle cx="74.0" cy="17.2" r="55.1" fill="none" stroke="#A855F7" stroke-width="1.9" opacity="0.35"/>
  <polygon points="36.0,43.3 32.4,-2.7 70.4,-28.8 112.0,-9.0 115.7,37.0 77.7,63.1" fill="none" stroke="url(#strokeB)" stroke-width="1.6" opacity="0.65"/>
  <polygon points="58.4,21.2 78.3,1.6 85.3,28.7" fill="#A855F7" opacity="0.22" filter="url(#softGlow)"/>
</g>


<g opacity="0.456" filter="url(#hardGlow)">
  <circle cx="49.5" cy="-42.7" r="32.1" fill="#0A1224" opacity="0.65"/>
  <circle cx="49.5" cy="-42.7" r="32.1" fill="none" stroke="url(#strokeA)" stroke-width="2.6" opacity="0.85"/>
  <circle cx="49.5" cy="-42.7" r="27.6" fill="none" stroke="#22D3EE" stroke-width="1.5" opacity="0.35"/>
  <polygon points="72.3,-39.2 57.9,-21.2 35.0,-24.7 26.6,-46.2 41.0,-64.2 63.9,-60.8" fill="none" stroke="url(#strokeB)" stroke-width="1.2" opacity="0.65"/>
  
</g>


<g opacity="0.790" filter="url(#hardGlow)">
  <circle cx="1912.1" cy="627.0" r="46.2" fill="#0A1224" opacity="0.65"/>
  <circle cx="1912.1" cy="627.0" r="46.2" fill="none" stroke="url(#strokeA)" stroke-width="3.7" opacity="0.85"/>
  <circle cx="1912.1" cy="627.0" r="39.8" fill="none" stroke="#A855F7" stroke-width="1.5" opacity="0.35"/>
  <polygon points="1881.0,639.0 1886.2,606.1 1917.2,594.1 1943.1,615.0 1938.0,647.9 1907.0,659.9" fill="none" stroke="url(#strokeB)" stroke-width="1.2" opacity="0.65"/>
  <polygon points="1900.4,627.3 1917.7,616.8 1918.1,637.0" fill="#A855F7" opacity="0.22" filter="url(#softGlow)"/>
</g>


<g opacity="0.487" filter="url(#hardGlow)">
  <circle cx="1925.9" cy="597.8" r="18.6" fill="#0A1224" opacity="0.65"/>
  <circle cx="1925.9" cy="597.8" r="18.6" fill="none" stroke="url(#strokeA)" stroke-width="2.0" opacity="0.85"/>
  <circle cx="1925.9" cy="597.8" r="16.0" fill="none" stroke="#22D3EE" stroke-width="1.5" opacity="0.35"/>
  <polygon points="1915.3,589.7 1927.6,584.5 1938.3,592.6 1936.6,605.9 1924.3,611.1 1913.6,603.0" fill="none" stroke="url(#strokeB)" stroke-width="1.2" opacity="0.65"/>
  
</g>


<g opacity="0.266" transform="translate(168.2,982.2) rotate(4.9)" filter="url(#softGlow)">
  <rect x="-117.4" y="-82.0" width="234.8" height="164.1" rx="16.4" fill="#050A12" opacity="0.25"/>
  <rect x="-117.4" y="-82.0" width="234.8" height="164.1" rx="16.4" fill="none" stroke="url(#strokeA)" stroke-width="8.2" opacity="0.85"/>
  <rect x="-104.3" y="-68.9" width="208.5" height="137.8" rx="11.5" fill="none" stroke="#22D3EE" stroke-width="3.3" opacity="0.35"/>
</g>


<g opacity="0.412" transform="translate(1827.9,107.5) rotate(8.8)" filter="url(#softGlow)">
  <rect x="-109.8" y="-77.1" width="219.6" height="154.2" rx="15.4" fill="#050A12" opacity="0.25"/>
  <rect x="-109.8" y="-77.1" width="219.6" height="154.2" rx="15.4" fill="none" stroke="url(#strokeA)" stroke-width="7.7" opacity="0.85"/>
  <rect x="-97.5" y="-64.7" width="194.9" height="129.5" rx="10.8" fill="none" stroke="#F59E0B" stroke-width="3.1" opacity="0.35"/>
</g>


<g opacity="0.370" transform="translate(36.9,1006.2) rotate(3.3)" filter="url(#softGlow)">
  <rect x="-88.4" y="-80.6" width="176.9" height="161.2" rx="16.1" fill="#050A12" opacity="0.25"/>
  <rect x="-88.4" y="-80.6" width="176.9" height="161.2" rx="16.1" fill="none" stroke="url(#strokeA)" stroke-width="8.1" opacity="0.85"/>
  <rect x="-75.6" y="-67.7" width="151.1" height="135.4" rx="11.3" fill="none" stroke="#A855F7" stroke-width="3.2" opacity="0.35"/>
</g>


<g opacity="0.458" transform="translate(407.0,127.6) rotate(-1.6)" filter="url(#softGlow)">
  <rect x="-87.8" y="-67.4" width="175.7" height="134.9" rx="13.5" fill="#050A12" opacity="0.25"/>
  <rect x="-87.8" y="-67.4" width="175.7" height="134.9" rx="13.5" fill="none" stroke="url(#strokeA)" stroke-width="6.7" opacity="0.85"/>
  <rect x="-77.0" y="-56.6" width="154.1" height="113.3" rx="9.4" fill="none" stroke="#A855F7" stroke-width="2.7" opacity="0.35"/>
</g>


<g opacity="0.299" transform="translate(1740.0,943.0) rotate(-9.0)" filter="url(#softGlow)">
  <rect x="-109.0" y="-80.9" width="218.0" height="161.8" rx="16.2" fill="#050A12" opacity="0.25"/>
  <rect x="-109.0" y="-80.9" width="218.0" height="161.8" rx="16.2" fill="none" stroke="url(#strokeA)" stroke-width="8.1" opacity="0.85"/>
  <rect x="-96.1" y="-67.9" width="192.2" height="135.9" rx="11.3" fill="none" stroke="#A855F7" stroke-width="3.2" opacity="0.35"/>
</g>


<g opacity="0.473" transform="translate(904.2,45.7) rotate(-16.1)" filter="url(#softGlow)">
  <rect x="-53.9" y="-31.1" width="107.9" height="62.1" rx="19.0" fill="none" stroke="#22D3EE" stroke-width="10.4" opacity="0.55"/>
  <rect x="-23.7" y="-15.5" width="107.9" height="62.1" rx="19.0" fill="none" stroke="url(#strokeA)" stroke-width="8.6" opacity="0.55"/>
</g>


<g opacity="0.356" transform="translate(412.5,1079.3) rotate(-14.1)" filter="url(#softGlow)">
  <rect x="-44.1" y="-25.4" width="88.1" height="50.8" rx="15.5" fill="none" stroke="#22D3EE" stroke-width="8.5" opacity="0.55"/>
  <rect x="-19.4" y="-12.7" width="88.1" height="50.8" rx="15.5" fill="none" stroke="url(#strokeA)" stroke-width="7.0" opacity="0.55"/>
</g>


<g opacity="0.398" transform="translate(1863.0,935.3) rotate(-9.8)" filter="url(#softGlow)">
  <rect x="-56.6" y="-32.6" width="113.3" height="65.2" rx="19.9" fill="none" stroke="#A855F7" stroke-width="10.9" opacity="0.55"/>
  <rect x="-24.9" y="-16.3" width="113.3" height="65.2" rx="19.9" fill="none" stroke="url(#strokeA)" stroke-width="9.1" opacity="0.55"/>
</g>


<g opacity="0.472" transform="translate(1829.0,986.1) rotate(-8.4)" filter="url(#softGlow)">
  <rect x="-54.6" y="-31.5" width="109.3" height="62.9" rx="19.2" fill="none" stroke="#22D3EE" stroke-width="10.5" opacity="0.55"/>
  <rect x="-24.0" y="-15.7" width="109.3" height="62.9" rx="19.2" fill="none" stroke="url(#strokeA)" stroke-width="8.7" opacity="0.55"/>
</g>


<g opacity="0.303" transform="translate(55.9,47.1) rotate(10.0)" filter="url(#softGlow)">
  <rect x="-45.4" y="-26.2" width="90.9" height="52.3" rx="16.0" fill="none" stroke="#F59E0B" stroke-width="8.7" opacity="0.55"/>
  <rect x="-20.0" y="-13.1" width="90.9" height="52.3" rx="16.0" fill="none" stroke="url(#strokeA)" stroke-width="7.3" opacity="0.55"/>
</g>


<g opacity="0.470" transform="translate(1146.1,57.7) rotate(-3.8)" filter="url(#softGlow)">
  <rect x="-45.4" y="-26.2" width="90.8" height="52.3" rx="16.0" fill="none" stroke="#A855F7" stroke-width="8.7" opacity="0.55"/>
  <rect x="-20.0" y="-13.1" width="90.8" height="52.3" rx="16.0" fill="none" stroke="url(#strokeA)" stroke-width="7.3" opacity="0.55"/>
</g>


<g opacity="0.385" transform="translate(1876.8,45.1) rotate(-6.7)" filter="url(#softGlow)">
  <rect x="-38.4" y="-22.1" width="76.7" height="44.2" rx="13.5" fill="none" stroke="#22D3EE" stroke-width="7.4" opacity="0.55"/>
  <rect x="-16.9" y="-11.0" width="76.7" height="44.2" rx="13.5" fill="none" stroke="url(#strokeA)" stroke-width="6.1" opacity="0.55"/>
</g>


<g opacity="0.180">
  <line x1="1750.0" y1="937.3" x2="1750.0" y2="996.9" stroke="#22D3EE" stroke-width="1.32" opacity="0.45"/>
  <rect x="1746.4" y="970.4" width="7.2" height="29.2" rx="2.4" fill="#0B1020" opacity="0.55" stroke="url(#strokeA)" stroke-width="1.2"/>
</g>

<g opacity="0.180">
  <line x1="628.2" y1="909.2" x2="628.2" y2="1004.0" stroke="#22D3EE" stroke-width="2.09" opacity="0.45"/>
  <rect x="624.7" y="956.1" width="6.9" height="57.8" rx="2.3" fill="#0B1020" opacity="0.55" stroke="url(#strokeA)" stroke-width="1.2"/>
</g>

<g opacity="0.180">
  <line x1="643.6" y1="931.9" x2="643.6" y2="998.3" stroke="#22D3EE" stroke-width="1.62" opacity="0.45"/>
  <rect x="639.8" y="966.6" width="7.5" height="36.9" rx="2.5" fill="#0B1020" opacity="0.55" stroke="url(#strokeA)" stroke-width="1.2"/>
</g>

<g opacity="0.180">
  <line x1="1777.3" y1="924.5" x2="1777.3" y2="1000.1" stroke="#22D3EE" stroke-width="1.41" opacity="0.45"/>
  <rect x="1773.7" y="965.5" width="7.2" height="39.0" rx="2.4" fill="#0B1020" opacity="0.55" stroke="url(#strokeA)" stroke-width="1.2"/>
</g>

<g opacity="0.180">
  <line x1="259.4" y1="917.2" x2="259.4" y2="1002.0" stroke="#22D3EE" stroke-width="1.09" opacity="0.45"/>
  <rect x="254.9" y="970.1" width="9.1" height="29.8" rx="3.0" fill="#0B1020" opacity="0.55" stroke="url(#strokeA)" stroke-width="1.2"/>
</g>

<g opacity="0.180">
  <line x1="287.6" y1="891.6" x2="287.6" y2="1008.4" stroke="#22D3EE" stroke-width="1.07" opacity="0.45"/>
  <rect x="281.9" y="956.1" width="11.3" height="57.8" rx="3.8" fill="#0B1020" opacity="0.55" stroke="url(#strokeA)" stroke-width="1.2"/>
</g>

<g opacity="0.180">
  <line x1="641.5" y1="931.6" x2="641.5" y2="998.4" stroke="#22D3EE" stroke-width="1.44" opacity="0.45"/>
  <rect x="635.8" y="967.6" width="11.6" height="34.8" rx="3.9" fill="#0B1020" opacity="0.55" stroke="url(#strokeA)" stroke-width="1.2"/>
</g>

<g opacity="0.180">
  <line x1="544.2" y1="904.2" x2="544.2" y2="1005.2" stroke="#22D3EE" stroke-width="1.12" opacity="0.45"/>
  <rect x="540.2" y="956.3" width="8.1" height="57.5" rx="2.7" fill="#0B1020" opacity="0.55" stroke="url(#strokeA)" stroke-width="1.2"/>
</g>

<g opacity="0.180">
  <line x1="724.1" y1="928.4" x2="724.1" y2="999.2" stroke="#22D3EE" stroke-width="1.57" opacity="0.45"/>
  <rect x="720.1" y="972.5" width="8.0" height="25.1" rx="2.7" fill="#0B1020" opacity="0.55" stroke="url(#strokeA)" stroke-width="1.2"/>
</g>

<g opacity="0.180">
  <line x1="1078.8" y1="920.6" x2="1078.8" y2="1001.1" stroke="#22D3EE" stroke-width="1.01" opacity="0.45"/>
  <rect x="1075.1" y="966.9" width="7.4" height="36.3" rx="2.5" fill="#0B1020" opacity="0.55" stroke="url(#strokeA)" stroke-width="1.2"/>
</g>

<g opacity="0.180">
  <line x1="483.4" y1="931.8" x2="483.4" y2="998.3" stroke="#22D3EE" stroke-width="1.01" opacity="0.45"/>
  <rect x="480.1" y="976.0" width="6.5" height="18.0" rx="2.2" fill="#0B1020" opacity="0.55" stroke="url(#strokeA)" stroke-width="1.2"/>
</g>

<g opacity="0.180">
  <line x1="189.1" y1="909.1" x2="189.1" y2="1004.0" stroke="#22D3EE" stroke-width="2.15" opacity="0.45"/>
  <rect x="183.1" y="965.0" width="12.0" height="40.1" rx="4.0" fill="#0B1020" opacity="0.55" stroke="url(#strokeA)" stroke-width="1.2"/>
</g>

<g opacity="0.180">
  <line x1="1089.6" y1="926.6" x2="1089.6" y2="999.6" stroke="#22D3EE" stroke-width="2.04" opacity="0.45"/>
  <rect x="1085.4" y="967.5" width="8.4" height="35.0" rx="2.8" fill="#0B1020" opacity="0.55" stroke="url(#strokeA)" stroke-width="1.2"/>
</g>

<g opacity="0.180">
  <line x1="306.8" y1="891.4" x2="306.8" y2="1008.4" stroke="#22D3EE" stroke-width="1.61" opacity="0.45"/>
  <rect x="303.8" y="958.0" width="6.0" height="54.1" rx="2.0" fill="#0B1020" opacity="0.55" stroke="url(#strokeA)" stroke-width="1.2"/>
</g>
<circle cx="95.9" cy="77.1" r="1.5" fill="#A855F7" opacity="0.22" filter="url(#softGlow)"/>
<circle cx="203.7" cy="8.9" r="2.7" fill="#A855F7" opacity="0.18" filter="url(#softGlow)"/>
<circle cx="1889.8" cy="304.8" r="1.7" fill="#A855F7" opacity="0.22" filter="url(#softGlow)"/>
<circle cx="1666.2" cy="17.5" r="2.0" fill="#A855F7" opacity="0.16" filter="url(#softGlow)"/>
<circle cx="1827.1" cy="881.3" r="2.4" fill="#A855F7" opacity="0.26" filter="url(#softGlow)"/>
<circle cx="875.2" cy="77.5" r="1.8" fill="#A855F7" opacity="0.14" filter="url(#softGlow)"/>
<circle cx="205.0" cy="966.5" r="2.3" fill="#A855F7" opacity="0.23" filter="url(#softGlow)"/>
<circle cx="1.3" cy="647.0" r="1.4" fill="#A855F7" opacity="0.17" filter="url(#softGlow)"/>
<circle cx="50.4" cy="981.2" r="2.8" fill="#A855F7" opacity="0.24" filter="url(#softGlow)"/>
<circle cx="1731.8" cy="56.8" r="1.4" fill="#A855F7" opacity="0.10" filter="url(#softGlow)"/>
<circle cx="110.7" cy="1020.3" r="2.8" fill="#A855F7" opacity="0.16" filter="url(#softGlow)"/>
<circle cx="1829.2" cy="1003.8" r="3.1" fill="#A855F7" opacity="0.22" filter="url(#softGlow)"/>
<circle cx="151.2" cy="1040.0" r="2.1" fill="#A855F7" opacity="0.17" filter="url(#softGlow)"/>
<circle cx="767.8" cy="1008.0" r="2.1" fill="#A855F7" opacity="0.19" filter="url(#softGlow)"/>
<circle cx="161.0" cy="89.9" r="2.3" fill="#A855F7" opacity="0.20" filter="url(#softGlow)"/>
<circle cx="1918.2" cy="376.0" r="2.0" fill="#A855F7" opacity="0.20" filter="url(#softGlow)"/>
<circle cx="1766.8" cy="889.8" r="2.8" fill="#A855F7" opacity="0.25" filter="url(#softGlow)"/>
<circle cx="1795.2" cy="1029.3" r="2.6" fill="#A855F7" opacity="0.25" filter="url(#softGlow)"/>
<circle cx="1828.8" cy="1001.8" r="1.4" fill="#A855F7" opacity="0.14" filter="url(#softGlow)"/>
<circle cx="57.0" cy="94.3" r="1.9" fill="#A855F7" opacity="0.12" filter="url(#softGlow)"/>
<circle cx="1725.7" cy="58.4" r="1.9" fill="#A855F7" opacity="0.12" filter="url(#softGlow)"/>
<circle cx="201.6" cy="648.4" r="1.8" fill="#A855F7" opacity="0.12" filter="url(#softGlow)"/>
<circle cx="1499.5" cy="10.6" r="2.3" fill="#A855F7" opacity="0.20" filter="url(#softGlow)"/>
<circle cx="1820.2" cy="578.4" r="2.4" fill="#A855F7" opacity="0.21" filter="url(#softGlow)"/>
<circle cx="1793.3" cy="920.9" r="2.0" fill="#A855F7" opacity="0.22" filter="url(#softGlow)"/>
</svg>