<svg xmlns="http://www.w3.org/2000/svg" width="1920" height="1080" viewBox="0 0 1920 1080" preserveAspectRatio="xMidYMid slice">
<defs>
  <linearGradient id="g0" x1="0" y1="0" x2="1" y2="1">
    <stop offset="0" stop-color="#0A0F1E"/>
    <stop offset="0.55" stop-color="#00FFA3" stop-opacity="0.9"/>
    <stop offset="1" stop-color="#050A12"/>
  </linearGradient>
  <radialGradient id="g1" cx="20%" cy="15%" r="70%">
    <stop offset="0" stop-color="#14C2FF" stop-opacity="0.38"/>
    <stop offset="0.6" stop-color="#14C2FF" stop-opacity="0.08"/>
    <stop offset="1" stop-color="#14C2FF" stop-opacity="0"/>
  </radialGradient>
  <radialGradient id="g2" cx="85%" cy="80%" r="75%">
    <stop offset="0" stop-color="#14C2FF" stop-opacity="0.28"/>
    <stop offset="0.65" stop-color="#14C2FF" stop-opacity="0.06"/>
    <stop offset="1" stop-color="#14C2FF" stop-opacity="0"/>
  </radialGradient>
  <filter id="softGlow" x="-30%" y="-30%" width="160%" height="160%">
    <feGaussianBlur stdDeviation="12" result="b"/>
    <feMerge>
      <feMergeNode in="b"/>
      <feMergeNode in="SourceGraphic"/>
    </feMerge>
  </filter>
  <filter id="hardGlow" x="-40%" y="-40%" width="180%" height="180%">
    <feGaussianBlur stdDeviation="6" result="b"/>
    <feColorMatrix in="b" type="matrix" values="1 0 0 0 0  0 1 0 0 0  0 0 1 0 0  0 0 0 18 -7" result="c"/>
    <feMerge>
      <feMergeNode in="c"/>
      <feMergeNode in="SourceGraphic"/>
    </feMerge>
  </filter>
  <linearGradient id="strokeA" x1="0" y1="0" x2="1" y2="0">
    <stop offset="0" stop-color="#14C2FF" stop-opacity="0.9"/>
    <stop offset="0.5" stop-color="#FFFFFF" stop-opacity="0.25"/>
    <stop offset="1" stop-color="#14C2FF" stop-opacity="0.7"/>
  </linearGradient>
  <linearGradient id="strokeB" x1="0" y1="0" x2="0" y2="1">
    <stop offset="0" stop-color="#FFFFFF" stop-opacity="0.18"/>
    <stop offset="1" stop-color="#14C2FF" stop-opacity="0.55"/>
  </linearGradient>
</defs>
<rect x="0" y="0" width="1920" height="1080" fill="url(#g0)"/>
<rect x="0" y="0" width="1920" height="1080" fill="url(#g1)"/>
<rect x="0" y="0" width="1920" height="1080" fill="url(#g2)"/>


<defs>
  <radialGradient id="vign" cx="0.5000" cy="0.5093" r="0.85">
    <stop offset="0" stop-color="#000000" stop-opacity="0"/>
    <stop offset="0.55" stop-color="#000000" stop-opacity="0.217"/>
    <stop offset="1" stop-color="#000000" stop-opacity="0.620"/>
  </radialGradient>
</defs>
<rect x="0" y="0" width="1920" height="1080" fill="url(#vign)"/>

<g opacity="0.194" filter="url(#softGlow)"><path d="M 35.4,155.9 L 1660.9,155.9 L 1660.9,996.1 L 53.8,996.1 L 53.8,761.7 " fill="none" stroke="url(#strokeB)" stroke-width="1.62" stroke-linecap="round" stroke-linejoin="round"/><circle cx="1660.9" cy="155.9" r="2.5" fill="#14C2FF" opacity="0.45"/><circle cx="35.4" cy="155.9" r="2.7" fill="#14C2FF" opacity="0.45"/><circle cx="1660.9" cy="996.1" r="2.8" fill="#14C2FF" opacity="0.45"/></g>
<g opacity="0.194" filter="url(#softGlow)"><path d="M 1791.3,85.7 L 24.3,85.7 L 24.3,981.8 L 93.4,981.8 L 93.4,99.6 " fill="none" stroke="url(#strokeB)" stroke-width="2.12" stroke-linecap="round" stroke-linejoin="round"/><circle cx="24.3" cy="981.8" r="3.7" fill="#14C2FF" opacity="0.45"/><circle cx="93.4" cy="99.6" r="4.1" fill="#14C2FF" opacity="0.45"/><circle cx="1791.3" cy="85.7" r="2.5" fill="#14C2FF" opacity="0.45"/></g>
<g opacity="0.194" filter="url(#softGlow)"><path d="M 213.8,200.2 L 1789.4,200.2 L 1789.4,1044.7 L 57.2,1044.7 L 57.2,102.1 " fill="none" stroke="url(#strokeB)" stroke-width="1.95" stroke-linecap="round" stroke-linejoin="round"/><circle cx="1789.4" cy="200.2" r="4.0" fill="#14C2FF" opacity="0.45"/><circle cx="57.2" cy="1044.7" r="3.9" fill="#14C2FF" opacity="0.45"/><circle cx="57.2" cy="102.1" r="2.6" fill="#14C2FF" opacity="0.45"/></g>
<g opacity="0.194" filter="url(#softGlow)"><path d="M 125.0,995.1 L 148.4,995.1 L 148.4,1070.9 L 102.5,1070.9 L 102.5,702.9 " fill="none" stroke="url(#strokeB)" stroke-width="2.02" stroke-linecap="round" stroke-linejoin="round"/><circle cx="148.4" cy="1070.9" r="3.8" fill="#14C2FF" opacity="0.45"/><circle cx="102.5" cy="1070.9" r="2.5" fill="#14C2FF" opacity="0.45"/><circle cx="125.0" cy="995.1" r="2.1" fill="#14C2FF" opacity="0.45"/></g>
<g opacity="0.194" filter="url(#softGlow)"><path d="M 1738.2,87.3 L 1862.5,87.3 L 1862.5,1041.9 L 1812.9,1041.9 L 1812.9,884.4 " fill="none" stroke="url(#strokeB)" stroke-width="1.16" stroke-linecap="round" stroke-linejoin="round"/><circle cx="1862.5" cy="87.3" r="3.8" fill="#14C2FF" opacity="0.45"/><circle cx="1862.5" cy="1041.9" r="3.5" fill="#14C2FF" opacity="0.45"/><circle cx="1812.9" cy="884.4" r="3.8" fill="#14C2FF" opacity="0.45"/></g>
<g opacity="0.194" filter="url(#softGlow)"><path d="M 1717.0,55.1 L 57.8,55.1 L 57.8,1072.1 L 1267.6,1072.1 L 1267.6,114.5 " fill="none" stroke="url(#strokeB)" stroke-width="2.07" stroke-linecap="round" stroke-linejoin="round"/><circle cx="1267.6" cy="1072.1" r="4.0" fill="#14C2FF" opacity="0.45"/><circle cx="1267.6" cy="114.5" r="3.1" fill="#14C2FF" opacity="0.45"/><circle cx="57.8" cy="1072.1" r="3.5" fill="#14C2FF" opacity="0.45"/></g>
<g opacity="0.194" filter="url(#softGlow)"><path d="M 1720.8,1061.5 L 1844.5,1061.5 L 1844.5,1056.5 L 1910.2,1056.5 L 1910.2,312.9 " fill="none" stroke="url(#strokeB)" stroke-width="1.58" stroke-linecap="round" stroke-linejoin="round"/><circle cx="1844.5" cy="1056.5" r="3.0" fill="#14C2FF" opacity="0.45"/><circle cx="1844.5" cy="1061.5" r="3.3" fill="#14C2FF" opacity="0.45"/><circle cx="1720.8" cy="1061.5" r="3.1" fill="#14C2FF" opacity="0.45"/></g>
<g opacity="0.194" filter="url(#softGlow)"><path d="M 87.9,962.6 L 1655.2,962.6 L 1655.2,950.6 L 41.3,950.6 L 41.3,100.8 " fill="none" stroke="url(#strokeB)" stroke-width="1.78" stroke-linecap="round" stroke-linejoin="round"/><circle cx="1655.2" cy="950.6" r="2.0" fill="#14C2FF" opacity="0.45"/><circle cx="41.3" cy="950.6" r="3.4" fill="#14C2FF" opacity="0.45"/><circle cx="41.3" cy="100.8" r="2.4" fill="#14C2FF" opacity="0.45"/></g>
<g opacity="0.194" filter="url(#softGlow)"><path d="M 1912.1,0.1 L 156.8,0.1 L 156.8,12.4 L 1713.3,12.4 L 1713.3,115.3 " fill="none" stroke="url(#strokeB)" stroke-width="1.11" stroke-linecap="round" stroke-linejoin="round"/><circle cx="156.8" cy="0.1" r="2.7" fill="#14C2FF" opacity="0.45"/><circle cx="156.8" cy="12.4" r="4.0" fill="#14C2FF" opacity="0.45"/><circle cx="1912.1" cy="0.1" r="2.8" fill="#14C2FF" opacity="0.45"/></g>
<g opacity="0.194" filter="url(#softGlow)"><path d="M 1814.8,175.1 L 1775.2,175.1 L 1775.2,188.5 L 1782.2,188.5 L 1782.2,200.9 " fill="none" stroke="url(#strokeB)" stroke-width="1.38" stroke-linecap="round" stroke-linejoin="round"/><circle cx="1814.8" cy="175.1" r="2.6" fill="#14C2FF" opacity="0.45"/><circle cx="1782.2" cy="188.5" r="2.1" fill="#14C2FF" opacity="0.45"/><circle cx="1782.2" cy="200.9" r="3.2" fill="#14C2FF" opacity="0.45"/></g>
<g opacity="0.194" filter="url(#softGlow)"><path d="M 97.8,154.3 L 109.1,154.3 L 109.1,964.3 L 175.6,964.3 L 175.6,932.3 " fill="none" stroke="url(#strokeB)" stroke-width="1.61" stroke-linecap="round" stroke-linejoin="round"/><circle cx="109.1" cy="964.3" r="3.1" fill="#14C2FF" opacity="0.45"/><circle cx="109.1" cy="154.3" r="2.2" fill="#14C2FF" opacity="0.45"/><circle cx="175.6" cy="964.3" r="2.8" fill="#14C2FF" opacity="0.45"/></g>
<g opacity="0.194" filter="url(#softGlow)"><path d="M 43.8,922.2 L 79.5,922.2 L 79.5,1006.4 L 98.4,1006.4 L 98.4,181.7 " fill="none" stroke="url(#strokeB)" stroke-width="1.42" stroke-linecap="round" stroke-linejoin="round"/><circle cx="98.4" cy="181.7" r="2.9" fill="#14C2FF" opacity="0.45"/><circle cx="43.8" cy="922.2" r="2.9" fill="#14C2FF" opacity="0.45"/><circle cx="79.5" cy="1006.4" r="3.8" fill="#14C2FF" opacity="0.45"/></g>
<g opacity="0.194" filter="url(#softGlow)"><path d="M 1744.6,483.8 L 1724.1,483.8 L 1724.1,4.1 L 1741.2,4.1 L 1741.2,875.2 " fill="none" stroke="url(#strokeB)" stroke-width="1.51" stroke-linecap="round" stroke-linejoin="round"/><circle cx="1724.1" cy="4.1" r="4.1" fill="#14C2FF" opacity="0.45"/><circle cx="1741.2" cy="4.1" r="2.2" fill="#14C2FF" opacity="0.45"/><circle cx="1744.6" cy="483.8" r="4.2" fill="#14C2FF" opacity="0.45"/></g>
<g opacity="0.194" filter="url(#softGlow)"><path d="M 1844.4,257.7 L 179.7,257.7 L 179.7,764.4 L 213.8,764.4 L 213.8,109.7 " fill="none" stroke="url(#strokeB)" stroke-width="1.94" stroke-linecap="round" stroke-linejoin="round"/><circle cx="1844.4" cy="257.7" r="3.9" fill="#14C2FF" opacity="0.45"/><circle cx="179.7" cy="764.4" r="3.2" fill="#14C2FF" opacity="0.45"/><circle cx="213.8" cy="109.7" r="2.5" fill="#14C2FF" opacity="0.45"/></g>
<g opacity="0.194" filter="url(#softGlow)"><path d="M 40.9,466.0 L 29.6,466.0 L 29.6,1037.8 L 95.1,1037.8 L 95.1,967.6 " fill="none" stroke="url(#strokeB)" stroke-width="1.46" stroke-linecap="round" stroke-linejoin="round"/><circle cx="95.1" cy="1037.8" r="2.5" fill="#14C2FF" opacity="0.45"/><circle cx="29.6" cy="1037.8" r="2.3" fill="#14C2FF" opacity="0.45"/><circle cx="40.9" cy="466.0" r="3.8" fill="#14C2FF" opacity="0.45"/></g>
<g opacity="0.194" filter="url(#softGlow)"><path d="M 62.1,107.2 L 168.8,107.2 L 168.8,963.2 L 12.4,963.2 L 12.4,15.5 " fill="none" stroke="url(#strokeB)" stroke-width="2.17" stroke-linecap="round" stroke-linejoin="round"/><circle cx="12.4" cy="963.2" r="2.6" fill="#14C2FF" opacity="0.45"/><circle cx="168.8" cy="107.2" r="3.7" fill="#14C2FF" opacity="0.45"/><circle cx="168.8" cy="963.2" r="3.2" fill="#14C2FF" opacity="0.45"/></g>

<g opacity="0.898" filter="url(#hardGlow)">
  <circle cx="1862.1" cy="198.9" r="48.7" fill="#0A1224" opacity="0.65"/>
  <circle cx="1862.1" cy="198.9" r="48.7" fill="none" stroke="url(#strokeA)" stroke-width="3.9" opacity="0.85"/>
  <circle cx="1862.1" cy="198.9" r="41.9" fill="none" stroke="#FF4D8D" stroke-width="1.5" opacity="0.35"/>
  <polygon points="1895.5,188.1 1888.2,222.4 1854.8,233.2 1828.7,209.7 1836.1,175.4 1869.5,164.6" fill="none" stroke="url(#strokeB)" stroke-width="1.2" opacity="0.65"/>
  <polygon points="1874.4,199.4 1855.6,209.3 1856.4,188.1" fill="#FF4D8D" opacity="0.22" filter="url(#softGlow)"/>
</g>


<g opacity="0.461" filter="url(#hardGlow)">
  <circle cx="1828.9" cy="170.5" r="18.5" fill="#0A1224" opacity="0.65"/>
  <circle cx="1828.9" cy="170.5" r="18.5" fill="none" stroke="url(#strokeA)" stroke-width="2.0" opacity="0.85"/>
  <circle cx="1828.9" cy="170.5" r="15.9" fill="none" stroke="#14C2FF" stroke-width="1.5" opacity="0.35"/>
  <polygon points="1838.1,160.9 1841.8,173.7 1832.6,183.3 1819.6,180.1 1815.9,167.3 1825.2,157.7" fill="none" stroke="url(#strokeB)" stroke-width="1.2" opacity="0.65"/>
  
</g>


<g opacity="0.385" filter="url(#hardGlow)">
  <circle cx="1856.3" cy="192.4" r="26.5" fill="#0A1224" opacity="0.65"/>
  <circle cx="1856.3" cy="192.4" r="26.5" fill="none" stroke="url(#strokeA)" stroke-width="2.1" opacity="0.85"/>
  <circle cx="1856.3" cy="192.4" r="22.8" fill="none" stroke="#14C2FF" stroke-width="1.5" opacity="0.35"/>
  <polygon points="1871.6,180.9 1873.9,199.9 1858.7,211.3 1841.1,203.9 1838.8,185.0 1854.0,173.5" fill="none" stroke="url(#strokeB)" stroke-width="1.2" opacity="0.65"/>
  
</g>


<g opacity="0.853" filter="url(#hardGlow)">
  <circle cx="1842.5" cy="989.4" r="40.1" fill="#0A1224" opacity="0.65"/>
  <circle cx="1842.5" cy="989.4" r="40.1" fill="none" stroke="url(#strokeA)" stroke-width="3.2" opacity="0.85"/>
  <circle cx="1842.5" cy="989.4" r="34.5" fill="none" stroke="#FF4D8D" stroke-width="1.5" opacity="0.35"/>
  <polygon points="1855.9,963.8 1871.3,988.3 1857.9,1013.8 1829.0,1014.9 1813.6,990.5 1827.1,965.0" fill="none" stroke="url(#strokeB)" stroke-width="1.2" opacity="0.65"/>
  <polygon points="1850.0,982.6 1844.6,999.3 1832.9,986.3" fill="#FF4D8D" opacity="0.22" filter="url(#softGlow)"/>
</g>


<g opacity="0.581" filter="url(#hardGlow)">
  <circle cx="1876.3" cy="952.9" r="18.9" fill="#0A1224" opacity="0.65"/>
  <circle cx="1876.3" cy="952.9" r="18.9" fill="none" stroke="url(#strokeA)" stroke-width="2.0" opacity="0.85"/>
  <circle cx="1876.3" cy="952.9" r="16.2" fill="none" stroke="#14C2FF" stroke-width="1.5" opacity="0.35"/>
  <polygon points="1869.4,941.1 1883.0,941.1 1889.9,952.8 1883.1,964.6 1869.5,964.7 1862.7,952.9" fill="none" stroke="url(#strokeB)" stroke-width="1.2" opacity="0.65"/>
  <polygon points="1875.4,948.2 1880.7,954.5 1872.6,956.0" fill="#14C2FF" opacity="0.22" filter="url(#softGlow)"/>
</g>


<g opacity="0.362" filter="url(#hardGlow)">
  <circle cx="1862.3" cy="1028.6" r="15.9" fill="#0A1224" opacity="0.65"/>
  <circle cx="1862.3" cy="1028.6" r="15.9" fill="none" stroke="url(#strokeA)" stroke-width="2.0" opacity="0.85"/>
  <circle cx="1862.3" cy="1028.6" r="13.7" fill="none" stroke="#14C2FF" stroke-width="1.5" opacity="0.35"/>
  <polygon points="1860.6,1017.3 1871.3,1021.5 1873.0,1032.9 1864.0,1040.0 1853.3,1035.8 1851.6,1024.4" fill="none" stroke="url(#strokeB)" stroke-width="1.2" opacity="0.65"/>
  
</g>


<g opacity="0.523" filter="url(#hardGlow)">
  <circle cx="1875.7" cy="1032.6" r="18.6" fill="#0A1224" opacity="0.65"/>
  <circle cx="1875.7" cy="1032.6" r="18.6" fill="none" stroke="url(#strokeA)" stroke-width="2.0" opacity="0.85"/>
  <circle cx="1875.7" cy="1032.6" r="16.0" fill="none" stroke="#14C2FF" stroke-width="1.5" opacity="0.35"/>
  <polygon points="1874.6,1019.3 1886.7,1025.0 1887.8,1038.4 1876.7,1046.0 1864.6,1040.3 1863.5,1026.9" fill="none" stroke="url(#strokeB)" stroke-width="1.2" opacity="0.65"/>
  
</g>


<g opacity="0.686" filter="url(#hardGlow)">
  <circle cx="1819.1" cy="115.7" r="62.1" fill="#0A1224" opacity="0.65"/>
  <circle cx="1819.1" cy="115.7" r="62.1" fill="none" stroke="url(#strokeA)" stroke-width="5.0" opacity="0.85"/>
  <circle cx="1819.1" cy="115.7" r="53.4" fill="none" stroke="#FF4D8D" stroke-width="1.9" opacity="0.35"/>
  <polygon points="1863.8,115.7 1841.5,154.4 1796.8,154.5 1774.4,115.8 1796.7,77.0 1841.4,77.0" fill="none" stroke="url(#strokeB)" stroke-width="1.6" opacity="0.65"/>
  <polygon points="1833.8,121.1 1807.1,125.8 1816.4,100.3" fill="#FF4D8D" opacity="0.22" filter="url(#softGlow)"/>
</g>


<g opacity="0.367" filter="url(#hardGlow)">
  <circle cx="1853.0" cy="180.9" r="32.7" fill="#0A1224" opacity="0.65"/>
  <circle cx="1853.0" cy="180.9" r="32.7" fill="none" stroke="url(#strokeA)" stroke-width="2.6" opacity="0.85"/>
  <circle cx="1853.0" cy="180.9" r="28.1" fill="none" stroke="#14C2FF" stroke-width="1.5" opacity="0.35"/>
  <polygon points="1855.9,204.2 1834.2,195.0 1831.4,171.6 1850.2,157.5 1871.8,166.7 1874.7,190.1" fill="none" stroke="url(#strokeB)" stroke-width="1.2" opacity="0.65"/>
  
</g>


<g opacity="0.861" filter="url(#hardGlow)">
  <circle cx="1847.6" cy="942.6" r="68.3" fill="#0A1224" opacity="0.65"/>
  <circle cx="1847.6" cy="942.6" r="68.3" fill="none" stroke="url(#strokeA)" stroke-width="5.5" opacity="0.85"/>
  <circle cx="1847.6" cy="942.6" r="58.7" fill="none" stroke="#FF4D8D" stroke-width="2.0" opacity="0.35"/>
  <polygon points="1867.0,987.8 1818.2,982.0 1798.8,936.8 1828.2,897.4 1877.0,903.3 1896.4,948.4" fill="none" stroke="url(#strokeB)" stroke-width="1.7" opacity="0.65"/>
  <polygon points="1848.6,959.8 1832.3,934.9 1862.0,933.2" fill="#FF4D8D" opacity="0.22" filter="url(#softGlow)"/>
</g>


<g opacity="0.481" filter="url(#hardGlow)">
  <circle cx="1928.8" cy="953.3" r="28.5" fill="#0A1224" opacity="0.65"/>
  <circle cx="1928.8" cy="953.3" r="28.5" fill="none" stroke="url(#strokeA)" stroke-width="2.3" opacity="0.85"/>
  <circle cx="1928.8" cy="953.3" r="24.5" fill="none" stroke="#14C2FF" stroke-width="1.5" opacity="0.35"/>
  <polygon points="1946.3,964.0 1928.3,973.8 1910.8,963.1 1911.3,942.5 1929.4,932.8 1946.9,943.5" fill="none" stroke="url(#strokeB)" stroke-width="1.2" opacity="0.65"/>
  <polygon points="1933.3,958.9 1921.7,954.3 1931.5,946.6" fill="#14C2FF" opacity="0.22" filter="url(#softGlow)"/>
</g>


<g opacity="0.837" filter="url(#hardGlow)">
  <circle cx="1759.1" cy="494.8" r="53.5" fill="#0A1224" opacity="0.65"/>
  <circle cx="1759.1" cy="494.8" r="53.5" fill="none" stroke="url(#strokeA)" stroke-width="4.3" opacity="0.85"/>
  <circle cx="1759.1" cy="494.8" r="46.0" fill="none" stroke="#FF4D8D" stroke-width="1.6" opacity="0.35"/>
  <polygon points="1797.0,501.9 1771.9,531.1 1734.1,524.0 1721.3,487.7 1746.3,458.4 1784.2,465.5" fill="none" stroke="url(#strokeB)" stroke-width="1.3" opacity="0.65"/>
  <polygon points="1770.7,501.6 1747.4,501.4 1759.3,481.3" fill="#FF4D8D" opacity="0.22" filter="url(#softGlow)"/>
</g>


<g opacity="0.426" filter="url(#hardGlow)">
  <circle cx="1768.3" cy="539.9" r="29.1" fill="#0A1224" opacity="0.65"/>
  <circle cx="1768.3" cy="539.9" r="29.1" fill="none" stroke="url(#strokeA)" stroke-width="2.3" opacity="0.85"/>
  <circle cx="1768.3" cy="539.9" r="25.0" fill="none" stroke="#14C2FF" stroke-width="1.5" opacity="0.35"/>
  <polygon points="1748.1,534.1 1763.2,519.5 1783.3,525.3 1788.4,545.6 1773.3,560.2 1753.2,554.4" fill="none" stroke="url(#strokeB)" stroke-width="1.2" opacity="0.65"/>
  <polygon points="1762.3,535.5 1775.0,536.9 1767.5,547.2" fill="#14C2FF" opacity="0.22" filter="url(#softGlow)"/>
</g>


<g opacity="0.568" filter="url(#hardGlow)">
  <circle cx="1702.4" cy="473.3" r="27.8" fill="#0A1224" opacity="0.65"/>
  <circle cx="1702.4" cy="473.3" r="27.8" fill="none" stroke="url(#strokeA)" stroke-width="2.2" opacity="0.85"/>
  <circle cx="1702.4" cy="473.3" r="23.9" fill="none" stroke="#14C2FF" stroke-width="1.5" opacity="0.35"/>
  <polygon points="1686.5,461.1 1705.0,453.4 1720.9,465.6 1718.3,485.4 1699.8,493.1 1684.0,481.0" fill="none" stroke="url(#strokeB)" stroke-width="1.2" opacity="0.65"/>
  
</g>


<g opacity="0.460" filter="url(#hardGlow)">
  <circle cx="1824.5" cy="557.8" r="21.7" fill="#0A1224" opacity="0.65"/>
  <circle cx="1824.5" cy="557.8" r="21.7" fill="none" stroke="url(#strokeA)" stroke-width="2.0" opacity="0.85"/>
  <circle cx="1824.5" cy="557.8" r="18.6" fill="none" stroke="#14C2FF" stroke-width="1.5" opacity="0.35"/>
  <polygon points="1809.9,563.4 1812.4,548.0 1827.0,542.4 1839.1,552.3 1836.6,567.7 1822.0,573.2" fill="none" stroke="url(#strokeB)" stroke-width="1.2" opacity="0.65"/>
  
</g>


<g opacity="0.300" transform="translate(1740.3,58.4) rotate(-6.2)" filter="url(#softGlow)">
  <rect x="-86.8" y="-64.0" width="173.6" height="128.1" rx="12.8" fill="#050A12" opacity="0.25"/>
  <rect x="-86.8" y="-64.0" width="173.6" height="128.1" rx="12.8" fill="none" stroke="url(#strokeA)" stroke-width="6.4" opacity="0.85"/>
  <rect x="-76.6" y="-53.8" width="153.1" height="107.6" rx="9.0" fill="none" stroke="#FF4D8D" stroke-width="2.6" opacity="0.35"/>
</g>


<g opacity="0.400" transform="translate(1803.8,896.2) rotate(-2.0)" filter="url(#softGlow)">
  <rect x="-102.1" y="-84.1" width="204.2" height="168.2" rx="16.8" fill="#050A12" opacity="0.25"/>
  <rect x="-102.1" y="-84.1" width="204.2" height="168.2" rx="16.8" fill="none" stroke="url(#strokeA)" stroke-width="8.4" opacity="0.85"/>
  <rect x="-88.7" y="-70.7" width="177.3" height="141.3" rx="11.8" fill="none" stroke="#FF4D8D" stroke-width="3.4" opacity="0.35"/>
</g>


<g opacity="0.320" transform="translate(1033.6,1021.2) rotate(-8.4)" filter="url(#softGlow)">
  <rect x="-110.4" y="-96.0" width="220.9" height="192.0" rx="19.2" fill="#050A12" opacity="0.25"/>
  <rect x="-110.4" y="-96.0" width="220.9" height="192.0" rx="19.2" fill="none" stroke="url(#strokeA)" stroke-width="9.6" opacity="0.85"/>
  <rect x="-95.1" y="-80.6" width="190.1" height="161.2" rx="13.4" fill="none" stroke="#FF4D8D" stroke-width="3.8" opacity="0.35"/>
</g>


<g opacity="0.301" transform="translate(1733.9,7.4) rotate(-0.4)" filter="url(#softGlow)">
  <rect x="-87.9" y="-64.3" width="175.9" height="128.6" rx="12.9" fill="#050A12" opacity="0.25"/>
  <rect x="-87.9" y="-64.3" width="175.9" height="128.6" rx="12.9" fill="none" stroke="url(#strokeA)" stroke-width="6.4" opacity="0.85"/>
  <rect x="-77.7" y="-54.0" width="155.3" height="108.1" rx="9.0" fill="none" stroke="#FF4D8D" stroke-width="2.6" opacity="0.35"/>
</g>


<g opacity="0.319" transform="translate(1028.7,129.3) rotate(-12.4)" filter="url(#softGlow)">
  <rect x="-48.5" y="-28.0" width="97.1" height="55.9" rx="17.1" fill="none" stroke="#FF4D8D" stroke-width="9.3" opacity="0.55"/>
  <rect x="-21.4" y="-14.0" width="97.1" height="55.9" rx="17.1" fill="none" stroke="url(#strokeA)" stroke-width="7.8" opacity="0.55"/>
</g>


<g opacity="0.371" transform="translate(63.0,374.6) rotate(4.8)" filter="url(#softGlow)">
  <rect x="-52.7" y="-30.4" width="105.4" height="60.7" rx="18.6" fill="none" stroke="#14C2FF" stroke-width="10.1" opacity="0.55"/>
  <rect x="-23.2" y="-15.2" width="105.4" height="60.7" rx="18.6" fill="none" stroke="url(#strokeA)" stroke-width="8.4" opacity="0.55"/>
</g>


<g opacity="0.440" transform="translate(189.9,165.8) rotate(-17.5)" filter="url(#softGlow)">
  <rect x="-38.5" y="-22.2" width="77.0" height="44.3" rx="13.5" fill="none" stroke="#FF4D8D" stroke-width="7.4" opacity="0.55"/>
  <rect x="-16.9" y="-11.1" width="77.0" height="44.3" rx="13.5" fill="none" stroke="url(#strokeA)" stroke-width="6.2" opacity="0.55"/>
</g>


<g opacity="0.369" transform="translate(1779.2,25.3) rotate(-1.4)" filter="url(#softGlow)">
  <rect x="-49.8" y="-28.7" width="99.5" height="57.3" rx="17.5" fill="none" stroke="#14C2FF" stroke-width="9.6" opacity="0.55"/>
  <rect x="-21.9" y="-14.3" width="99.5" height="57.3" rx="17.5" fill="none" stroke="url(#strokeA)" stroke-width="8.0" opacity="0.55"/>
</g>


<g opacity="0.322" transform="translate(49.3,246.6) rotate(2.6)" filter="url(#softGlow)">
  <rect x="-34.5" y="-19.9" width="69.0" height="39.8" rx="12.1" fill="none" stroke="#FF4D8D" stroke-width="6.6" opacity="0.55"/>
  <rect x="-15.2" y="-9.9" width="69.0" height="39.8" rx="12.1" fill="none" stroke="url(#strokeA)" stroke-width="5.5" opacity="0.55"/>
</g>


<g opacity="0.462" transform="translate(182.3,29.5) rotate(3.1)" filter="url(#softGlow)">
  <rect x="-57.1" y="-32.9" width="114.1" height="65.7" rx="20.1" fill="none" stroke="#FF4D8D" stroke-width="11.0" opacity="0.55"/>
  <rect x="-25.1" y="-16.4" width="114.1" height="65.7" rx="20.1" fill="none" stroke="url(#strokeA)" stroke-width="9.1" opacity="0.55"/>
</g>


<g opacity="0.377" transform="translate(1754.3,173.5) rotate(-0.6)" filter="url(#softGlow)">
  <rect x="-38.7" y="-22.3" width="77.5" height="44.6" rx="13.6" fill="none" stroke="#FF4D8D" stroke-width="7.4" opacity="0.55"/>
  <rect x="-17.0" y="-11.2" width="77.5" height="44.6" rx="13.6" fill="none" stroke="url(#strokeA)" stroke-width="6.2" opacity="0.55"/>
</g>


<g opacity="0.325" transform="translate(46.8,893.6) rotate(-15.4)" filter="url(#softGlow)">
  <rect x="-40.4" y="-23.2" width="80.7" height="46.5" rx="14.2" fill="none" stroke="#14C2FF" stroke-width="7.7" opacity="0.55"/>
  <rect x="-17.8" y="-11.6" width="80.7" height="46.5" rx="14.2" fill="none" stroke="url(#strokeA)" stroke-width="6.5" opacity="0.55"/>
</g>


<g opacity="0.195">
  <line x1="206.5" y1="892.7" x2="206.5" y2="958.6" stroke="#14C2FF" stroke-width="1.01" opacity="0.45"/>
  <rect x="203.2" y="925.3" width="6.5" height="40.3" rx="2.2" fill="#0B1020" opacity="0.55" stroke="url(#strokeA)" stroke-width="1.2"/>
</g>

<g opacity="0.195">
  <line x1="1756.5" y1="877.9" x2="1756.5" y2="962.3" stroke="#14C2FF" stroke-width="1.42" opacity="0.45"/>
  <rect x="1751.8" y="919.2" width="9.3" height="52.4" rx="3.1" fill="#0B1020" opacity="0.55" stroke="url(#strokeA)" stroke-width="1.2"/>
</g>

<g opacity="0.195">
  <line x1="90.4" y1="874.6" x2="90.4" y2="963.1" stroke="#14C2FF" stroke-width="2.00" opacity="0.45"/>
  <rect x="86.9" y="927.9" width="7.0" height="35.0" rx="2.3" fill="#0B1020" opacity="0.55" stroke="url(#strokeA)" stroke-width="1.2"/>
</g>

<g opacity="0.195">
  <line x1="96.8" y1="897.7" x2="96.8" y2="957.4" stroke="#14C2FF" stroke-width="2.00" opacity="0.45"/>
  <rect x="92.6" y="935.8" width="8.3" height="19.2" rx="2.8" fill="#0B1020" opacity="0.55" stroke="url(#strokeA)" stroke-width="1.2"/>
</g>
<circle cx="129.5" cy="205.7" r="3.2" fill="#FF4D8D" opacity="0.15" filter="url(#softGlow)"/>
<circle cx="183.1" cy="166.7" r="2.9" fill="#FF4D8D" opacity="0.12" filter="url(#softGlow)"/>
<circle cx="1779.0" cy="926.2" r="2.7" fill="#FF4D8D" opacity="0.22" filter="url(#softGlow)"/>
<circle cx="1267.0" cy="974.4" r="2.6" fill="#FF4D8D" opacity="0.20" filter="url(#softGlow)"/>
<circle cx="1888.2" cy="67.8" r="2.7" fill="#FF4D8D" opacity="0.10" filter="url(#softGlow)"/>
<circle cx="1885.7" cy="54.3" r="2.4" fill="#FF4D8D" opacity="0.26" filter="url(#softGlow)"/>
<circle cx="220.1" cy="903.0" r="2.0" fill="#FF4D8D" opacity="0.26" filter="url(#softGlow)"/>
<circle cx="1779.1" cy="664.7" r="1.7" fill="#FF4D8D" opacity="0.21" filter="url(#softGlow)"/>
<circle cx="1477.0" cy="10.1" r="1.8" fill="#FF4D8D" opacity="0.27" filter="url(#softGlow)"/>
<circle cx="1757.9" cy="225.0" r="3.0" fill="#FF4D8D" opacity="0.20" filter="url(#softGlow)"/>
<circle cx="194.0" cy="146.9" r="1.6" fill="#FF4D8D" opacity="0.12" filter="url(#softGlow)"/>
<circle cx="123.4" cy="1058.4" r="2.5" fill="#FF4D8D" opacity="0.18" filter="url(#softGlow)"/>
<circle cx="110.6" cy="137.9" r="1.7" fill="#FF4D8D" opacity="0.12" filter="url(#softGlow)"/>
<circle cx="864.0" cy="122.8" r="1.9" fill="#FF4D8D" opacity="0.10" filter="url(#softGlow)"/>
<circle cx="131.2" cy="922.9" r="1.8" fill="#FF4D8D" opacity="0.12" filter="url(#softGlow)"/>
<circle cx="1704.8" cy="132.2" r="2.8" fill="#FF4D8D" opacity="0.14" filter="url(#softGlow)"/>
<circle cx="64.3" cy="674.8" r="1.6" fill="#FF4D8D" opacity="0.25" filter="url(#softGlow)"/>
<circle cx="1912.0" cy="125.8" r="1.9" fill="#FF4D8D" opacity="0.20" filter="url(#softGlow)"/>
<circle cx="1830.1" cy="21.9" r="1.4" fill="#FF4D8D" opacity="0.22" filter="url(#softGlow)"/>
<circle cx="1769.5" cy="68.6" r="1.3" fill="#FF4D8D" opacity="0.11" filter="url(#softGlow)"/>
<circle cx="1890.4" cy="367.4" r="2.9" fill="#FF4D8D" opacity="0.20" filter="url(#softGlow)"/>
<circle cx="1840.2" cy="981.6" r="2.0" fill="#FF4D8D" opacity="0.21" filter="url(#softGlow)"/>
<circle cx="1783.6" cy="984.6" r="2.7" fill="#FF4D8D" opacity="0.12" filter="url(#softGlow)"/>
<circle cx="195.6" cy="858.1" r="1.9" fill="#FF4D8D" opacity="0.22" filter="url(#softGlow)"/>
</svg>