<svg xmlns="http://www.w3.org/2000/svg" width="1920" height="1080" viewBox="0 0 1920 1080" preserveAspectRatio="xMidYMid slice">
<defs>
  <linearGradient id="g0" x1="0" y1="0" x2="1" y2="1">
    <stop offset="0" stop-color="#0B1020"/>
    <stop offset="0.55" stop-color="#00E5FF" stop-opacity="0.9"/>
    <stop offset="1" stop-color="#051018"/>
  </linearGradient>
  <radialGradient id="g1" cx="20%" cy="15%" r="70%">
    <stop offset="0" stop-color="#7C4DFF" stop-opacity="0.38"/>
    <stop offset="0.6" stop-color="#7C4DFF" stop-opacity="0.08"/>
    <stop offset="1" stop-color="#7C4DFF" stop-opacity="0"/>
  </radialGradient>
  <radialGradient id="g2" cx="85%" cy="80%" r="75%">
    <stop offset="0" stop-color="#7C4DFF" stop-opacity="0.28"/>
    <stop offset="0.65" stop-color="#7C4DFF" stop-opacity="0.06"/>
    <stop offset="1" stop-color="#7C4DFF" stop-opacity="0"/>
  </radialGradient>
  <filter id="softGlow" x="-30%" y="-30%" width="160%" height="160%">
    <feGaussianBlur stdDeviation="12" result="b"/>
    <feMerge>
      <feMergeNode in="b"/>
      <feMergeNode in="SourceGraphic"/>
    </feMerge>
  </filter>
  <filter id="hardGlow" x="-40%" y="-40%" width="180%" height="180%">
    <feGaussianBlur stdDeviation="6" result="b"/>
    <feColorMatrix in="b" type="matrix" values="1 0 0 0 0  0 1 0 0 0  0 0 1 0 0  0 0 0 18 -7" result="c"/>
    <feMerge>
      <feMergeNode in="c"/>
      <feMergeNode in="SourceGraphic"/>
    </feMerge>
  </filter>
  <linearGradient id="strokeA" x1="0" y1="0" x2="1" y2="0">
    <stop offset="0" stop-color="#7C4DFF" stop-opacity="0.9"/>
    <stop offset="0.5" stop-color="#FFFFFF" stop-opacity="0.25"/>
    <stop offset="1" stop-color="#7C4DFF" stop-opacity="0.7"/>
  </linearGradient>
  <linearGradient id="strokeB" x1="0" y1="0" x2="0" y2="1">
    <stop offset="0" stop-color="#FFFFFF" stop-opacity="0.18"/>
    <stop offset="1" stop-color="#7C4DFF" stop-opacity="0.55"/>
  </linearGradient>
</defs>
<rect x="0" y="0" width="1920" height="1080" fill="url(#g0)"/>
<rect x="0" y="0" width="1920" height="1080" fill="url(#g1)"/>
<rect x="0" y="0" width="1920" height="1080" fill="url(#g2)"/>


<defs>
  <radialGradient id="vign" cx="0.5000" cy="0.5093" r="0.85">
    <stop offset="0" stop-color="#000000" stop-opacity="0"/>
    <stop offset="0.55" stop-color="#000000" stop-opacity="0.217"/>
    <stop offset="1" stop-color="#000000" stop-opacity="0.620"/>
  </radialGradient>
</defs>
<rect x="0" y="0" width="1920" height="1080" fill="url(#vign)"/>

<g opacity="0.255" filter="url(#softGlow)"><path d="M 923.1,132.8 L 1749.4,132.8 L 1749.4,1016.6 L 1887.6,1016.6 L 1887.6,884.5 " fill="none" stroke="url(#strokeB)" stroke-width="1.45" stroke-linecap="round" stroke-linejoin="round"/><circle cx="923.1" cy="132.8" r="4.1" fill="#7C4DFF" opacity="0.45"/><circle cx="1749.4" cy="132.8" r="3.5" fill="#7C4DFF" opacity="0.45"/><circle cx="1749.4" cy="1016.6" r="3.0" fill="#7C4DFF" opacity="0.45"/></g>
<g opacity="0.255" filter="url(#softGlow)"><path d="M 69.1,1069.4 L 1861.5,1069.4 L 1861.5,688.2 L 1773.1,688.2 L 1773.1,953.9 " fill="none" stroke="url(#strokeB)" stroke-width="1.33" stroke-linecap="round" stroke-linejoin="round"/><circle cx="1773.1" cy="953.9" r="2.4" fill="#7C4DFF" opacity="0.45"/><circle cx="1861.5" cy="688.2" r="2.3" fill="#7C4DFF" opacity="0.45"/><circle cx="1861.5" cy="1069.4" r="2.6" fill="#7C4DFF" opacity="0.45"/></g>
<g opacity="0.255" filter="url(#softGlow)"><path d="M 26.6,989.6 L 1823.2,989.6 L 1823.2,904.5 L 1728.7,904.5 L 1728.7,188.7 " fill="none" stroke="url(#strokeB)" stroke-width="2.08" stroke-linecap="round" stroke-linejoin="round"/><circle cx="1728.7" cy="904.5" r="3.0" fill="#7C4DFF" opacity="0.45"/><circle cx="1823.2" cy="904.5" r="2.5" fill="#7C4DFF" opacity="0.45"/><circle cx="1728.7" cy="188.7" r="3.8" fill="#7C4DFF" opacity="0.45"/></g>
<g opacity="0.255" filter="url(#softGlow)"><path d="M 1847.5,943.7 L 1739.5,943.7 L 1739.5,217.2 L 1794.9,217.2 L 1794.9,29.4 " fill="none" stroke="url(#strokeB)" stroke-width="1.55" stroke-linecap="round" stroke-linejoin="round"/><circle cx="1794.9" cy="217.2" r="2.1" fill="#7C4DFF" opacity="0.45"/><circle cx="1794.9" cy="29.4" r="3.3" fill="#7C4DFF" opacity="0.45"/><circle cx="1739.5" cy="943.7" r="3.8" fill="#7C4DFF" opacity="0.45"/></g>
<g opacity="0.255" filter="url(#softGlow)"><path d="M 1734.7,1026.8 L 101.8,1026.8 L 101.8,372.5 L 1509.5,372.5 L 1509.5,975.3 " fill="none" stroke="url(#strokeB)" stroke-width="1.66" stroke-linecap="round" stroke-linejoin="round"/><circle cx="1734.7" cy="1026.8" r="2.1" fill="#7C4DFF" opacity="0.45"/><circle cx="1509.5" cy="372.5" r="4.1" fill="#7C4DFF" opacity="0.45"/><circle cx="101.8" cy="372.5" r="2.1" fill="#7C4DFF" opacity="0.45"/></g>
<g opacity="0.255" filter="url(#softGlow)"><path d="M 1827.3,890.5 L 51.1,890.5 L 51.1,1021.8 L 1709.4,1021.8 L 1709.4,977.6 " fill="none" stroke="url(#strokeB)" stroke-width="1.63" stroke-linecap="round" stroke-linejoin="round"/><circle cx="1827.3" cy="890.5" r="3.9" fill="#7C4DFF" opacity="0.45"/><circle cx="1709.4" cy="1021.8" r="2.5" fill="#7C4DFF" opacity="0.45"/><circle cx="51.1" cy="890.5" r="2.2" fill="#7C4DFF" opacity="0.45"/></g>
<g opacity="0.255" filter="url(#softGlow)"><path d="M 20.9,895.5 L 1704.7,895.5 L 1704.7,55.2 L 173.6,55.2 L 173.6,830.5 " fill="none" stroke="url(#strokeB)" stroke-width="1.19" stroke-linecap="round" stroke-linejoin="round"/><circle cx="173.6" cy="55.2" r="3.3" fill="#7C4DFF" opacity="0.45"/><circle cx="1704.7" cy="55.2" r="4.0" fill="#7C4DFF" opacity="0.45"/><circle cx="173.6" cy="830.5" r="3.5" fill="#7C4DFF" opacity="0.45"/></g>
<g opacity="0.255" filter="url(#softGlow)"><path d="M 74.2,306.1 L 1705.0,306.1 L 1705.0,1036.4 L 190.4,1036.4 L 190.4,256.2 " fill="none" stroke="url(#strokeB)" stroke-width="1.52" stroke-linecap="round" stroke-linejoin="round"/><circle cx="74.2" cy="306.1" r="3.7" fill="#7C4DFF" opacity="0.45"/><circle cx="1705.0" cy="306.1" r="2.6" fill="#7C4DFF" opacity="0.45"/><circle cx="190.4" cy="256.2" r="2.8" fill="#7C4DFF" opacity="0.45"/></g>
<g opacity="0.255" filter="url(#softGlow)"><path d="M 620.7,123.0 L 1773.7,123.0 L 1773.7,264.3 L 162.9,264.3 L 162.9,108.4 " fill="none" stroke="url(#strokeB)" stroke-width="2.14" stroke-linecap="round" stroke-linejoin="round"/><circle cx="162.9" cy="264.3" r="3.0" fill="#7C4DFF" opacity="0.45"/><circle cx="162.9" cy="108.4" r="3.1" fill="#7C4DFF" opacity="0.45"/><circle cx="1773.7" cy="123.0" r="3.6" fill="#7C4DFF" opacity="0.45"/></g>
<g opacity="0.255" filter="url(#softGlow)"><path d="M 1597.2,1058.0 L 69.4,1058.0 L 69.4,951.0 L 1721.6,951.0 L 1721.6,1044.0 " fill="none" stroke="url(#strokeB)" stroke-width="1.34" stroke-linecap="round" stroke-linejoin="round"/><circle cx="1721.6" cy="951.0" r="2.1" fill="#7C4DFF" opacity="0.45"/><circle cx="69.4" cy="951.0" r="3.6" fill="#7C4DFF" opacity="0.45"/><circle cx="1721.6" cy="1044.0" r="2.4" fill="#7C4DFF" opacity="0.45"/></g>
<g opacity="0.255" filter="url(#softGlow)"><path d="M 1723.2,920.7 L 126.7,920.7 L 126.7,709.6 L 1879.3,709.6 L 1879.3,604.4 " fill="none" stroke="url(#strokeB)" stroke-width="1.58" stroke-linecap="round" stroke-linejoin="round"/><circle cx="126.7" cy="920.7" r="2.7" fill="#7C4DFF" opacity="0.45"/><circle cx="1879.3" cy="709.6" r="3.9" fill="#7C4DFF" opacity="0.45"/><circle cx="126.7" cy="709.6" r="3.5" fill="#7C4DFF" opacity="0.45"/></g>
<g opacity="0.255" filter="url(#softGlow)"><path d="M 146.5,287.5 L 189.5,287.5 L 189.5,538.5 L 941.9,538.5 L 941.9,995.1 " fill="none" stroke="url(#strokeB)" stroke-width="1.75" stroke-linecap="round" stroke-linejoin="round"/><circle cx="941.9" cy="538.5" r="3.5" fill="#7C4DFF" opacity="0.45"/><circle cx="146.5" cy="287.5" r="4.0" fill="#7C4DFF" opacity="0.45"/><circle cx="189.5" cy="538.5" r="3.7" fill="#7C4DFF" opacity="0.45"/></g>
<g opacity="0.255" filter="url(#softGlow)"><path d="M 135.9,940.2 L 700.8,940.2 L 700.8,63.6 L 1734.5,63.6 L 1734.5,588.8 " fill="none" stroke="url(#strokeB)" stroke-width="1.36" stroke-linecap="round" stroke-linejoin="round"/><circle cx="135.9" cy="940.2" r="3.6" fill="#7C4DFF" opacity="0.45"/><circle cx="700.8" cy="63.6" r="3.9" fill="#7C4DFF" opacity="0.45"/><circle cx="700.8" cy="940.2" r="2.4" fill="#7C4DFF" opacity="0.45"/></g>
<g opacity="0.255" filter="url(#softGlow)"><path d="M 1882.6,48.8 L 210.3,48.8 L 210.3,202.4 L 1229.8,202.4 L 1229.8,112.3 " fill="none" stroke="url(#strokeB)" stroke-width="1.11" stroke-linecap="round" stroke-linejoin="round"/><circle cx="210.3" cy="48.8" r="3.9" fill="#7C4DFF" opacity="0.45"/><circle cx="1882.6" cy="48.8" r="2.8" fill="#7C4DFF" opacity="0.45"/><circle cx="1229.8" cy="202.4" r="4.0" fill="#7C4DFF" opacity="0.45"/></g>
<g opacity="0.255" filter="url(#softGlow)"><path d="M 1823.2,221.3 L 120.9,221.3 L 120.9,887.3 L 145.3,887.3 L 145.3,5.9 " fill="none" stroke="url(#strokeB)" stroke-width="2.06" stroke-linecap="round" stroke-linejoin="round"/><circle cx="145.3" cy="887.3" r="2.1" fill="#7C4DFF" opacity="0.45"/><circle cx="120.9" cy="221.3" r="3.5" fill="#7C4DFF" opacity="0.45"/><circle cx="1823.2" cy="221.3" r="3.3" fill="#7C4DFF" opacity="0.45"/></g>
<g opacity="0.255" filter="url(#softGlow)"><path d="M 1878.3,912.6 L 125.4,912.6 L 125.4,705.2 L 1656.2,705.2 L 1656.2,1058.7 " fill="none" stroke="url(#strokeB)" stroke-width="1.70" stroke-linecap="round" stroke-linejoin="round"/><circle cx="1878.3" cy="912.6" r="3.7" fill="#7C4DFF" opacity="0.45"/><circle cx="1656.2" cy="1058.7" r="2.6" fill="#7C4DFF" opacity="0.45"/><circle cx="1656.2" cy="705.2" r="2.6" fill="#7C4DFF" opacity="0.45"/></g>
<g opacity="0.255" filter="url(#softGlow)"><path d="M 1716.4,50.6 L 126.7,50.6 L 126.7,62.0 L 1798.5,62.0 L 1798.5,195.4 " fill="none" stroke="url(#strokeB)" stroke-width="1.31" stroke-linecap="round" stroke-linejoin="round"/><circle cx="126.7" cy="62.0" r="3.4" fill="#7C4DFF" opacity="0.45"/><circle cx="1798.5" cy="195.4" r="2.2" fill="#7C4DFF" opacity="0.45"/><circle cx="1716.4" cy="50.6" r="4.1" fill="#7C4DFF" opacity="0.45"/></g>
<g opacity="0.255" filter="url(#softGlow)"><path d="M 1881.9,236.9 L 934.0,236.9 L 934.0,118.2 L 1704.4,118.2 L 1704.4,133.9 " fill="none" stroke="url(#strokeB)" stroke-width="1.94" stroke-linecap="round" stroke-linejoin="round"/><circle cx="934.0" cy="118.2" r="2.5" fill="#7C4DFF" opacity="0.45"/><circle cx="934.0" cy="236.9" r="2.0" fill="#7C4DFF" opacity="0.45"/><circle cx="1704.4" cy="118.2" r="3.3" fill="#7C4DFF" opacity="0.45"/></g>
<g opacity="0.255" filter="url(#softGlow)"><path d="M 1863.8,338.8 L 1797.1,338.8 L 1797.1,980.9 L 113.5,980.9 L 113.5,183.4 " fill="none" stroke="url(#strokeB)" stroke-width="2.15" stroke-linecap="round" stroke-linejoin="round"/><circle cx="1863.8" cy="338.8" r="2.5" fill="#7C4DFF" opacity="0.45"/><circle cx="113.5" cy="183.4" r="3.5" fill="#7C4DFF" opacity="0.45"/><circle cx="113.5" cy="980.9" r="3.2" fill="#7C4DFF" opacity="0.45"/></g>
<g opacity="0.255" filter="url(#softGlow)"><path d="M 1876.2,923.5 L 99.6,923.5 L 99.6,10.8 L 1750.6,10.8 L 1750.6,976.5 " fill="none" stroke="url(#strokeB)" stroke-width="1.97" stroke-linecap="round" stroke-linejoin="round"/><circle cx="1750.6" cy="976.5" r="3.1" fill="#7C4DFF" opacity="0.45"/><circle cx="1876.2" cy="923.5" r="3.7" fill="#7C4DFF" opacity="0.45"/><circle cx="99.6" cy="923.5" r="3.8" fill="#7C4DFF" opacity="0.45"/></g>

<g opacity="0.814" filter="url(#hardGlow)">
  <circle cx="3.1" cy="105.4" r="64.2" fill="#0A1224" opacity="0.65"/>
  <circle cx="3.1" cy="105.4" r="64.2" fill="none" stroke="url(#strokeA)" stroke-width="5.1" opacity="0.85"/>
  <circle cx="3.1" cy="105.4" r="55.2" fill="none" stroke="#00E5FF" stroke-width="1.9" opacity="0.35"/>
  <polygon points="48.9,98.9 31.6,141.8 -14.2,148.2 -42.6,111.8 -25.3,69.0 20.4,62.5" fill="none" stroke="url(#strokeB)" stroke-width="1.6" opacity="0.65"/>
  <polygon points="18.9,108.7 -7.7,117.4 -1.9,90.0" fill="#00E5FF" opacity="0.22" filter="url(#softGlow)"/>
</g>


<g opacity="0.626" filter="url(#hardGlow)">
  <circle cx="-22.9" cy="86.4" r="24.8" fill="#0A1224" opacity="0.65"/>
  <circle cx="-22.9" cy="86.4" r="24.8" fill="none" stroke="url(#strokeA)" stroke-width="2.0" opacity="0.85"/>
  <circle cx="-22.9" cy="86.4" r="21.3" fill="none" stroke="#7C4DFF" stroke-width="1.5" opacity="0.35"/>
  <polygon points="-25.6,104.1 -39.6,92.9 -36.8,75.3 -20.2,68.8 -6.3,80.0 -9.0,97.6" fill="none" stroke="url(#strokeB)" stroke-width="1.2" opacity="0.65"/>
  <polygon points="-25.9,91.9 -26.2,81.1 -16.7,86.3" fill="#7C4DFF" opacity="0.22" filter="url(#softGlow)"/>
</g>


<g opacity="0.691" filter="url(#hardGlow)">
  <circle cx="164.9" cy="954.2" r="47.0" fill="#0A1224" opacity="0.65"/>
  <circle cx="164.9" cy="954.2" r="47.0" fill="none" stroke="url(#strokeA)" stroke-width="3.8" opacity="0.85"/>
  <circle cx="164.9" cy="954.2" r="40.4" fill="none" stroke="#00E5FF" stroke-width="1.5" opacity="0.35"/>
  <polygon points="131.7,960.9 142.5,928.9 175.6,922.1 198.0,947.5 187.3,979.6 154.1,986.3" fill="none" stroke="url(#strokeB)" stroke-width="1.2" opacity="0.65"/>
  <polygon points="153.2,952.4 172.3,944.9 169.2,965.2" fill="#00E5FF" opacity="0.22" filter="url(#softGlow)"/>
</g>


<g opacity="0.544" filter="url(#hardGlow)">
  <circle cx="119.6" cy="950.7" r="24.2" fill="#0A1224" opacity="0.65"/>
  <circle cx="119.6" cy="950.7" r="24.2" fill="none" stroke="url(#strokeA)" stroke-width="2.0" opacity="0.85"/>
  <circle cx="119.6" cy="950.7" r="20.8" fill="none" stroke="#7C4DFF" stroke-width="1.5" opacity="0.35"/>
  <polygon points="120.9,968.1 105.2,960.5 103.8,943.2 118.2,933.3 133.9,940.8 135.3,958.2" fill="none" stroke="url(#strokeB)" stroke-width="1.2" opacity="0.65"/>
  <polygon points="117.9,956.5 115.3,946.3 125.5,949.1" fill="#7C4DFF" opacity="0.22" filter="url(#softGlow)"/>
</g>


<g opacity="0.612" filter="url(#hardGlow)">
  <circle cx="128.9" cy="945.3" r="22.5" fill="#0A1224" opacity="0.65"/>
  <circle cx="128.9" cy="945.3" r="22.5" fill="none" stroke="url(#strokeA)" stroke-width="2.0" opacity="0.85"/>
  <circle cx="128.9" cy="945.3" r="19.3" fill="none" stroke="#7C4DFF" stroke-width="1.5" opacity="0.35"/>
  <polygon points="142.7,953.8 128.4,961.4 114.7,952.9 115.2,936.7 129.5,929.1 143.2,937.6" fill="none" stroke="url(#strokeB)" stroke-width="1.2" opacity="0.65"/>
  
</g>


<g opacity="0.769" filter="url(#hardGlow)">
  <circle cx="1906.0" cy="1003.9" r="56.0" fill="#0A1224" opacity="0.65"/>
  <circle cx="1906.0" cy="1003.9" r="56.0" fill="none" stroke="url(#strokeA)" stroke-width="4.5" opacity="0.85"/>
  <circle cx="1906.0" cy="1003.9" r="48.2" fill="none" stroke="#00E5FF" stroke-width="1.7" opacity="0.35"/>
  <polygon points="1946.1,999.4 1929.9,1036.3 1889.8,1040.9 1865.9,1008.4 1882.0,971.4 1922.1,966.9" fill="none" stroke="url(#strokeB)" stroke-width="1.4" opacity="0.65"/>
  <polygon points="1919.7,1007.2 1896.2,1014.1 1902.0,990.3" fill="#00E5FF" opacity="0.22" filter="url(#softGlow)"/>
</g>


<g opacity="0.640" filter="url(#hardGlow)">
  <circle cx="1821.3" cy="981.2" r="19.7" fill="#0A1224" opacity="0.65"/>
  <circle cx="1821.3" cy="981.2" r="19.7" fill="none" stroke="url(#strokeA)" stroke-width="2.0" opacity="0.85"/>
  <circle cx="1821.3" cy="981.2" r="17.0" fill="none" stroke="#7C4DFF" stroke-width="1.5" opacity="0.35"/>
  <polygon points="1811.6,991.6 1807.5,978.0 1817.2,967.6 1831.1,970.9 1835.1,984.5 1825.4,994.8" fill="none" stroke="url(#strokeB)" stroke-width="1.2" opacity="0.65"/>
  
</g>


<g opacity="0.424" filter="url(#hardGlow)">
  <circle cx="1875.6" cy="1070.7" r="20.8" fill="#0A1224" opacity="0.65"/>
  <circle cx="1875.6" cy="1070.7" r="20.8" fill="none" stroke="url(#strokeA)" stroke-width="2.0" opacity="0.85"/>
  <circle cx="1875.6" cy="1070.7" r="17.9" fill="none" stroke="#7C4DFF" stroke-width="1.5" opacity="0.35"/>
  <polygon points="1867.5,1058.1 1882.4,1057.4 1890.6,1069.9 1883.8,1083.3 1868.8,1084.0 1860.7,1071.5" fill="none" stroke="url(#strokeB)" stroke-width="1.2" opacity="0.65"/>
  <polygon points="1874.4,1065.6 1880.6,1072.2 1871.8,1074.3" fill="#7C4DFF" opacity="0.22" filter="url(#softGlow)"/>
</g>


<g opacity="0.648" filter="url(#hardGlow)">
  <circle cx="1878.2" cy="1000.6" r="21.4" fill="#0A1224" opacity="0.65"/>
  <circle cx="1878.2" cy="1000.6" r="21.4" fill="none" stroke="url(#strokeA)" stroke-width="2.0" opacity="0.85"/>
  <circle cx="1878.2" cy="1000.6" r="18.4" fill="none" stroke="#7C4DFF" stroke-width="1.5" opacity="0.35"/>
  <polygon points="1875.6,985.5 1890.0,990.8 1892.6,1006.0 1880.8,1015.8 1866.4,1010.4 1863.8,995.3" fill="none" stroke="url(#strokeB)" stroke-width="1.2" opacity="0.65"/>
  <polygon points="1879.2,995.3 1882.3,1004.1 1873.1,1002.4" fill="#7C4DFF" opacity="0.22" filter="url(#softGlow)"/>
</g>


<g opacity="0.679" filter="url(#hardGlow)">
  <circle cx="155.0" cy="155.7" r="41.9" fill="#0A1224" opacity="0.65"/>
  <circle cx="155.0" cy="155.7" r="41.9" fill="none" stroke="url(#strokeA)" stroke-width="3.4" opacity="0.85"/>
  <circle cx="155.0" cy="155.7" r="36.0" fill="none" stroke="#00E5FF" stroke-width="1.5" opacity="0.35"/>
  <polygon points="159.3,125.9 183.0,144.6 178.6,174.4 150.6,185.6 126.9,166.9 131.3,137.1" fill="none" stroke="url(#strokeB)" stroke-width="1.2" opacity="0.65"/>
  <polygon points="160.0,146.5 160.5,164.7 144.4,156.1" fill="#00E5FF" opacity="0.22" filter="url(#softGlow)"/>
</g>


<g opacity="0.350" filter="url(#hardGlow)">
  <circle cx="206.7" cy="126.4" r="19.4" fill="#0A1224" opacity="0.65"/>
  <circle cx="206.7" cy="126.4" r="19.4" fill="none" stroke="url(#strokeA)" stroke-width="2.0" opacity="0.85"/>
  <circle cx="206.7" cy="126.4" r="16.6" fill="none" stroke="#7C4DFF" stroke-width="1.5" opacity="0.35"/>
  <polygon points="219.2,120.2 218.3,134.1 205.8,140.3 194.2,132.6 195.1,118.7 207.5,112.5" fill="none" stroke="url(#strokeB)" stroke-width="1.2" opacity="0.65"/>
  <polygon points="211.5,125.9 204.7,130.9 203.8,122.5" fill="#7C4DFF" opacity="0.22" filter="url(#softGlow)"/>
</g>


<g opacity="0.411" filter="url(#hardGlow)">
  <circle cx="181.5" cy="162.0" r="14.9" fill="#0A1224" opacity="0.65"/>
  <circle cx="181.5" cy="162.0" r="14.9" fill="none" stroke="url(#strokeA)" stroke-width="2.0" opacity="0.85"/>
  <circle cx="181.5" cy="162.0" r="12.8" fill="none" stroke="#7C4DFF" stroke-width="1.5" opacity="0.35"/>
  <polygon points="173.1,155.4 183.1,151.4 191.5,158.1 189.9,168.7 179.9,172.7 171.5,166.0" fill="none" stroke="url(#strokeB)" stroke-width="1.2" opacity="0.65"/>
  <polygon points="179.5,158.8 185.3,161.9 179.7,165.4" fill="#7C4DFF" opacity="0.22" filter="url(#softGlow)"/>
</g>


<g opacity="0.371" transform="translate(1776.4,920.9) rotate(0.2)" filter="url(#softGlow)">
  <rect x="-81.9" y="-73.0" width="163.9" height="146.0" rx="14.6" fill="#050A12" opacity="0.25"/>
  <rect x="-81.9" y="-73.0" width="163.9" height="146.0" rx="14.6" fill="none" stroke="url(#strokeA)" stroke-width="7.3" opacity="0.85"/>
  <rect x="-70.3" y="-61.3" width="140.5" height="122.7" rx="10.2" fill="none" stroke="#FFB300" stroke-width="2.9" opacity="0.35"/>
</g>


<g opacity="0.414" transform="translate(149.3,329.7) rotate(-1.8)" filter="url(#softGlow)">
  <rect x="-91.1" y="-84.2" width="182.2" height="168.3" rx="16.8" fill="#050A12" opacity="0.25"/>
  <rect x="-91.1" y="-84.2" width="182.2" height="168.3" rx="16.8" fill="none" stroke="url(#strokeA)" stroke-width="8.4" opacity="0.85"/>
  <rect x="-77.6" y="-70.7" width="155.2" height="141.4" rx="11.8" fill="none" stroke="#00E5FF" stroke-width="3.4" opacity="0.35"/>
</g>


<g opacity="0.418" transform="translate(151.8,928.9) rotate(-4.2)" filter="url(#softGlow)">
  <rect x="-96.8" y="-65.9" width="193.5" height="131.9" rx="13.2" fill="#050A12" opacity="0.25"/>
  <rect x="-96.8" y="-65.9" width="193.5" height="131.9" rx="13.2" fill="none" stroke="url(#strokeA)" stroke-width="6.6" opacity="0.85"/>
  <rect x="-86.2" y="-55.4" width="172.4" height="110.8" rx="9.2" fill="none" stroke="#00E5FF" stroke-width="2.6" opacity="0.35"/>
</g>


<g opacity="0.233" transform="translate(195.8,958.4) rotate(-11.2)" filter="url(#softGlow)">
  <rect x="-51.9" y="-29.9" width="103.8" height="59.8" rx="18.3" fill="none" stroke="#00E5FF" stroke-width="10.0" opacity="0.55"/>
  <rect x="-22.8" y="-14.9" width="103.8" height="59.8" rx="18.3" fill="none" stroke="url(#strokeA)" stroke-width="8.3" opacity="0.55"/>
</g>


<g opacity="0.461" transform="translate(204.3,288.2) rotate(-4.4)" filter="url(#softGlow)">
  <rect x="-55.8" y="-32.1" width="111.6" height="64.3" rx="19.6" fill="none" stroke="#00E5FF" stroke-width="10.7" opacity="0.55"/>
  <rect x="-24.5" y="-16.1" width="111.6" height="64.3" rx="19.6" fill="none" stroke="url(#strokeA)" stroke-width="8.9" opacity="0.55"/>
</g>


<g opacity="0.285" transform="translate(134.2,123.9) rotate(-4.6)" filter="url(#softGlow)">
  <rect x="-44.2" y="-25.5" width="88.5" height="51.0" rx="15.6" fill="none" stroke="#00E5FF" stroke-width="8.5" opacity="0.55"/>
  <rect x="-19.5" y="-12.7" width="88.5" height="51.0" rx="15.6" fill="none" stroke="url(#strokeA)" stroke-width="7.1" opacity="0.55"/>
</g>


<g opacity="0.421" transform="translate(135.4,1052.8) rotate(-16.0)" filter="url(#softGlow)">
  <rect x="-53.3" y="-30.7" width="106.5" height="61.4" rx="18.7" fill="none" stroke="#7C4DFF" stroke-width="10.2" opacity="0.55"/>
  <rect x="-23.4" y="-15.3" width="106.5" height="61.4" rx="18.7" fill="none" stroke="url(#strokeA)" stroke-width="8.5" opacity="0.55"/>
</g>


<g opacity="0.338" transform="translate(1735.7,970.2) rotate(-5.3)" filter="url(#softGlow)">
  <rect x="-36.6" y="-21.1" width="73.2" height="42.2" rx="12.9" fill="none" stroke="#7C4DFF" stroke-width="7.0" opacity="0.55"/>
  <rect x="-16.1" y="-10.5" width="73.2" height="42.2" rx="12.9" fill="none" stroke="url(#strokeA)" stroke-width="5.9" opacity="0.55"/>
</g>


<g opacity="0.426" transform="translate(1871.8,1066.4) rotate(10.4)" filter="url(#softGlow)">
  <rect x="-48.7" y="-28.0" width="97.3" height="56.1" rx="17.1" fill="none" stroke="#FFB300" stroke-width="9.3" opacity="0.55"/>
  <rect x="-21.4" y="-14.0" width="97.3" height="56.1" rx="17.1" fill="none" stroke="url(#strokeA)" stroke-width="7.8" opacity="0.55"/>
</g>


<g opacity="0.336" transform="translate(518.0,1047.0) rotate(-2.1)" filter="url(#softGlow)">
  <rect x="-39.9" y="-23.0" width="79.8" height="46.0" rx="14.1" fill="none" stroke="#00E5FF" stroke-width="7.7" opacity="0.55"/>
  <rect x="-17.6" y="-11.5" width="79.8" height="46.0" rx="14.1" fill="none" stroke="url(#strokeA)" stroke-width="6.4" opacity="0.55"/>
</g>


<g opacity="0.265" transform="translate(1800.6,866.7) rotate(7.3)" filter="url(#softGlow)">
  <rect x="-53.0" y="-30.5" width="105.9" height="61.0" rx="18.6" fill="none" stroke="#00E5FF" stroke-width="10.2" opacity="0.55"/>
  <rect x="-23.3" y="-15.3" width="105.9" height="61.0" rx="18.6" fill="none" stroke="url(#strokeA)" stroke-width="8.5" opacity="0.55"/>
</g>


<g opacity="0.426" transform="translate(1361.8,1020.3) rotate(1.5)" filter="url(#softGlow)">
  <rect x="-40.2" y="-23.2" width="80.5" height="46.3" rx="14.2" fill="none" stroke="#7C4DFF" stroke-width="7.7" opacity="0.55"/>
  <rect x="-17.7" y="-11.6" width="80.5" height="46.3" rx="14.2" fill="none" stroke="url(#strokeA)" stroke-width="6.4" opacity="0.55"/>
</g>


<g opacity="0.288" transform="translate(105.0,16.4) rotate(6.9)" filter="url(#softGlow)">
  <rect x="-35.6" y="-20.5" width="71.2" height="41.0" rx="12.5" fill="none" stroke="#7C4DFF" stroke-width="6.8" opacity="0.55"/>
  <rect x="-15.7" y="-10.2" width="71.2" height="41.0" rx="12.5" fill="none" stroke="url(#strokeA)" stroke-width="5.7" opacity="0.55"/>
</g>


<g opacity="0.224">
  <line x1="1219.5" y1="893.3" x2="1219.5" y2="1001.7" stroke="#7C4DFF" stroke-width="1.18" opacity="0.45"/>
  <rect x="1215.8" y="951.7" width="7.5" height="56.7" rx="2.5" fill="#0B1020" opacity="0.55" stroke="url(#strokeA)" stroke-width="1.2"/>
</g>

<g opacity="0.224">
  <line x1="1820.7" y1="911.0" x2="1820.7" y2="997.3" stroke="#7C4DFF" stroke-width="1.91" opacity="0.45"/>
  <rect x="1814.7" y="955.1" width="11.9" height="49.9" rx="4.0" fill="#0B1020" opacity="0.55" stroke="url(#strokeA)" stroke-width="1.2"/>
</g>

<g opacity="0.224">
  <line x1="209.7" y1="920.9" x2="209.7" y2="994.8" stroke="#7C4DFF" stroke-width="1.74" opacity="0.45"/>
  <rect x="204.1" y="965.9" width="11.2" height="28.4" rx="3.7" fill="#0B1020" opacity="0.55" stroke="url(#strokeA)" stroke-width="1.2"/>
</g>

<g opacity="0.224">
  <line x1="1016.0" y1="909.1" x2="1016.0" y2="997.8" stroke="#7C4DFF" stroke-width="1.75" opacity="0.45"/>
  <rect x="1011.5" y="951.6" width="9.0" height="56.8" rx="3.0" fill="#0B1020" opacity="0.55" stroke="url(#strokeA)" stroke-width="1.2"/>
</g>

<g opacity="0.224">
  <line x1="1341.4" y1="918.3" x2="1341.4" y2="995.5" stroke="#7C4DFF" stroke-width="1.61" opacity="0.45"/>
  <rect x="1335.5" y="955.8" width="11.7" height="48.6" rx="3.9" fill="#0B1020" opacity="0.55" stroke="url(#strokeA)" stroke-width="1.2"/>
</g>

<g opacity="0.224">
  <line x1="364.4" y1="902.6" x2="364.4" y2="999.4" stroke="#7C4DFF" stroke-width="1.31" opacity="0.45"/>
  <rect x="359.5" y="952.3" width="9.8" height="55.5" rx="3.3" fill="#0B1020" opacity="0.55" stroke="url(#strokeA)" stroke-width="1.2"/>
</g>

<g opacity="0.224">
  <line x1="1804.3" y1="914.0" x2="1804.3" y2="996.5" stroke="#7C4DFF" stroke-width="1.88" opacity="0.45"/>
  <rect x="1800.7" y="956.9" width="7.3" height="46.3" rx="2.4" fill="#0B1020" opacity="0.55" stroke="url(#strokeA)" stroke-width="1.2"/>
</g>

<g opacity="0.224">
  <line x1="922.5" y1="906.7" x2="922.5" y2="998.4" stroke="#7C4DFF" stroke-width="1.76" opacity="0.45"/>
  <rect x="919.4" y="961.8" width="6.3" height="36.4" rx="2.1" fill="#0B1020" opacity="0.55" stroke="url(#strokeA)" stroke-width="1.2"/>
</g>

<g opacity="0.224">
  <line x1="538.2" y1="920.0" x2="538.2" y2="995.1" stroke="#7C4DFF" stroke-width="1.18" opacity="0.45"/>
  <rect x="532.4" y="956.5" width="11.6" height="47.0" rx="3.9" fill="#0B1020" opacity="0.55" stroke="url(#strokeA)" stroke-width="1.2"/>
</g>

<g opacity="0.224">
  <line x1="149.8" y1="898.7" x2="149.8" y2="1000.4" stroke="#7C4DFF" stroke-width="1.05" opacity="0.45"/>
  <rect x="146.6" y="959.2" width="6.5" height="41.7" rx="2.2" fill="#0B1020" opacity="0.55" stroke="url(#strokeA)" stroke-width="1.2"/>
</g>

<g opacity="0.224">
  <line x1="1204.4" y1="904.4" x2="1204.4" y2="999.0" stroke="#7C4DFF" stroke-width="1.16" opacity="0.45"/>
  <rect x="1199.2" y="961.2" width="10.5" height="37.6" rx="3.5" fill="#0B1020" opacity="0.55" stroke="url(#strokeA)" stroke-width="1.2"/>
</g>
<circle cx="207.5" cy="925.1" r="1.4" fill="#00E5FF" opacity="0.20" filter="url(#softGlow)"/>
<circle cx="1752.5" cy="969.4" r="1.7" fill="#00E5FF" opacity="0.21" filter="url(#softGlow)"/>
<circle cx="46.7" cy="959.7" r="1.5" fill="#00E5FF" opacity="0.26" filter="url(#softGlow)"/>
<circle cx="132.8" cy="99.6" r="1.8" fill="#00E5FF" opacity="0.16" filter="url(#softGlow)"/>
<circle cx="128.5" cy="908.1" r="1.7" fill="#00E5FF" opacity="0.12" filter="url(#softGlow)"/>
<circle cx="222.0" cy="128.6" r="2.0" fill="#00E5FF" opacity="0.19" filter="url(#softGlow)"/>
<circle cx="389.3" cy="39.7" r="1.3" fill="#00E5FF" opacity="0.14" filter="url(#softGlow)"/>
<circle cx="193.0" cy="88.9" r="2.8" fill="#00E5FF" opacity="0.17" filter="url(#softGlow)"/>
<circle cx="201.2" cy="214.6" r="2.0" fill="#00E5FF" opacity="0.15" filter="url(#softGlow)"/>
<circle cx="621.5" cy="82.1" r="1.8" fill="#00E5FF" opacity="0.25" filter="url(#softGlow)"/>
<circle cx="1832.5" cy="987.9" r="2.8" fill="#00E5FF" opacity="0.20" filter="url(#softGlow)"/>
<circle cx="215.2" cy="166.5" r="2.2" fill="#00E5FF" opacity="0.15" filter="url(#softGlow)"/>
<circle cx="1455.4" cy="69.2" r="1.3" fill="#00E5FF" opacity="0.22" filter="url(#softGlow)"/>
<circle cx="1723.0" cy="71.9" r="1.5" fill="#00E5FF" opacity="0.26" filter="url(#softGlow)"/>
<circle cx="358.9" cy="988.4" r="1.9" fill="#00E5FF" opacity="0.20" filter="url(#softGlow)"/>
<circle cx="1266.0" cy="1064.3" r="1.9" fill="#00E5FF" opacity="0.20" filter="url(#softGlow)"/>
<circle cx="1797.7" cy="1034.5" r="1.6" fill="#00E5FF" opacity="0.24" filter="url(#softGlow)"/>
<circle cx="63.6" cy="182.6" r="1.4" fill="#00E5FF" opacity="0.14" filter="url(#softGlow)"/>
<circle cx="1154.7" cy="117.3" r="2.6" fill="#00E5FF" opacity="0.24" filter="url(#softGlow)"/>
</svg>