<svg xmlns="http://www.w3.org/2000/svg" width="1920" height="1080" viewBox="0 0 1920 1080" preserveAspectRatio="xMidYMid slice">
<defs>
  <linearGradient id="g0" x1="0" y1="0" x2="1" y2="1">
    <stop offset="0" stop-color="#0B0F1A"/>
    <stop offset="0.55" stop-color="#A855F7" stop-opacity="0.9"/>
    <stop offset="1" stop-color="#030712"/>
  </linearGradient>
  <radialGradient id="g1" cx="20%" cy="15%" r="70%">
    <stop offset="0" stop-color="#22D3EE" stop-opacity="0.38"/>
    <stop offset="0.6" stop-color="#22D3EE" stop-opacity="0.08"/>
    <stop offset="1" stop-color="#22D3EE" stop-opacity="0"/>
  </radialGradient>
  <radialGradient id="g2" cx="85%" cy="80%" r="75%">
    <stop offset="0" stop-color="#22D3EE" stop-opacity="0.28"/>
    <stop offset="0.65" stop-color="#22D3EE" stop-opacity="0.06"/>
    <stop offset="1" stop-color="#22D3EE" stop-opacity="0"/>
  </radialGradient>
  <filter id="softGlow" x="-30%" y="-30%" width="160%" height="160%">
    <feGaussianBlur stdDeviation="12" result="b"/>
    <feMerge>
      <feMergeNode in="b"/>
      <feMergeNode in="SourceGraphic"/>
    </feMerge>
  </filter>
  <filter id="hardGlow" x="-40%" y="-40%" width="180%" height="180%">
    <feGaussianBlur stdDeviation="6" result="b"/>
    <feColorMatrix in="b" type="matrix" values="1 0 0 0 0  0 1 0 0 0  0 0 1 0 0  0 0 0 18 -7" result="c"/>
    <feMerge>
      <feMergeNode in="c"/>
      <feMergeNode in="SourceGraphic"/>
    </feMerge>
  </filter>
  <linearGradient id="strokeA" x1="0" y1="0" x2="1" y2="0">
    <stop offset="0" stop-color="#22D3EE" stop-opacity="0.9"/>
    <stop offset="0.5" stop-color="#FFFFFF" stop-opacity="0.25"/>
    <stop offset="1" stop-color="#22D3EE" stop-opacity="0.7"/>
  </linearGradient>
  <linearGradient id="strokeB" x1="0" y1="0" x2="0" y2="1">
    <stop offset="0" stop-color="#FFFFFF" stop-opacity="0.18"/>
    <stop offset="1" stop-color="#22D3EE" stop-opacity="0.55"/>
  </linearGradient>
</defs>
<rect x="0" y="0" width="1920" height="1080" fill="url(#g0)"/>
<rect x="0" y="0" width="1920" height="1080" fill="url(#g1)"/>
<rect x="0" y="0" width="1920" height="1080" fill="url(#g2)"/>


<defs>
  <radialGradient id="vign" cx="0.5000" cy="0.5093" r="0.85">
    <stop offset="0" stop-color="#000000" stop-opacity="0"/>
    <stop offset="0.55" stop-color="#000000" stop-opacity="0.217"/>
    <stop offset="1" stop-color="#000000" stop-opacity="0.620"/>
  </radialGradient>
</defs>
<rect x="0" y="0" width="1920" height="1080" fill="url(#vign)"/>

<g opacity="0.217" filter="url(#softGlow)"><path d="M 1748.6,138.5 L 1743.6,138.5 L 1743.6,57.5 L 1917.5,57.5 L 1917.5,32.9 " fill="none" stroke="url(#strokeB)" stroke-width="1.78" stroke-linecap="round" stroke-linejoin="round"/><circle cx="1748.6" cy="138.5" r="2.7" fill="#A855F7" opacity="0.45"/><circle cx="1917.5" cy="32.9" r="4.1" fill="#A855F7" opacity="0.45"/><circle cx="1917.5" cy="57.5" r="2.6" fill="#A855F7" opacity="0.45"/></g>
<g opacity="0.217" filter="url(#softGlow)"><path d="M 82.3,51.4 L 1717.1,51.4 L 1717.1,970.1 L 26.2,970.1 L 26.2,122.2 " fill="none" stroke="url(#strokeB)" stroke-width="1.11" stroke-linecap="round" stroke-linejoin="round"/><circle cx="26.2" cy="970.1" r="3.6" fill="#A855F7" opacity="0.45"/><circle cx="26.2" cy="122.2" r="2.6" fill="#A855F7" opacity="0.45"/><circle cx="1717.1" cy="51.4" r="2.8" fill="#A855F7" opacity="0.45"/></g>
<g opacity="0.217" filter="url(#softGlow)"><path d="M 24.2,296.6 L 131.3,296.6 L 131.3,1052.8 L 0.7,1052.8 L 0.7,60.6 " fill="none" stroke="url(#strokeB)" stroke-width="1.81" stroke-linecap="round" stroke-linejoin="round"/><circle cx="131.3" cy="296.6" r="3.0" fill="#A855F7" opacity="0.45"/><circle cx="0.7" cy="60.6" r="2.5" fill="#A855F7" opacity="0.45"/><circle cx="0.7" cy="1052.8" r="3.8" fill="#A855F7" opacity="0.45"/></g>
<g opacity="0.217" filter="url(#softGlow)"><path d="M 1726.4,94.5 L 108.0,94.5 L 108.0,205.7 L 19.3,205.7 L 19.3,96.5 " fill="none" stroke="url(#strokeB)" stroke-width="1.21" stroke-linecap="round" stroke-linejoin="round"/><circle cx="108.0" cy="94.5" r="4.0" fill="#A855F7" opacity="0.45"/><circle cx="19.3" cy="205.7" r="2.3" fill="#A855F7" opacity="0.45"/><circle cx="108.0" cy="205.7" r="3.9" fill="#A855F7" opacity="0.45"/></g>
<g opacity="0.217" filter="url(#softGlow)"><path d="M 1873.1,78.8 L 2.9,78.8 L 2.9,17.4 L 71.8,17.4 L 71.8,210.5 " fill="none" stroke="url(#strokeB)" stroke-width="1.26" stroke-linecap="round" stroke-linejoin="round"/><circle cx="2.9" cy="78.8" r="2.9" fill="#A855F7" opacity="0.45"/><circle cx="1873.1" cy="78.8" r="3.0" fill="#A855F7" opacity="0.45"/><circle cx="2.9" cy="17.4" r="3.9" fill="#A855F7" opacity="0.45"/></g>
<g opacity="0.217" filter="url(#softGlow)"><path d="M 12.1,141.6 L 1696.8,141.6 L 1696.8,103.4 L 185.7,103.4 L 185.7,340.7 " fill="none" stroke="url(#strokeB)" stroke-width="2.05" stroke-linecap="round" stroke-linejoin="round"/><circle cx="1696.8" cy="103.4" r="2.5" fill="#A855F7" opacity="0.45"/><circle cx="185.7" cy="340.7" r="3.1" fill="#A855F7" opacity="0.45"/><circle cx="185.7" cy="103.4" r="3.8" fill="#A855F7" opacity="0.45"/></g>
<g opacity="0.217" filter="url(#softGlow)"><path d="M 1406.5,51.4 L 174.3,51.4 L 174.3,944.4 L 123.3,944.4 L 123.3,965.7 " fill="none" stroke="url(#strokeB)" stroke-width="1.62" stroke-linecap="round" stroke-linejoin="round"/><circle cx="123.3" cy="965.7" r="2.7" fill="#A855F7" opacity="0.45"/><circle cx="174.3" cy="51.4" r="2.8" fill="#A855F7" opacity="0.45"/><circle cx="123.3" cy="944.4" r="3.7" fill="#A855F7" opacity="0.45"/></g>
<g opacity="0.217" filter="url(#softGlow)"><path d="M 1737.9,70.8 L 80.3,70.8 L 80.3,44.1 L 1787.7,44.1 L 1787.7,1069.3 " fill="none" stroke="url(#strokeB)" stroke-width="2.16" stroke-linecap="round" stroke-linejoin="round"/><circle cx="1787.7" cy="1069.3" r="2.6" fill="#A855F7" opacity="0.45"/><circle cx="80.3" cy="44.1" r="2.2" fill="#A855F7" opacity="0.45"/><circle cx="1787.7" cy="44.1" r="4.0" fill="#A855F7" opacity="0.45"/></g>
<g opacity="0.217" filter="url(#softGlow)"><path d="M 608.2,989.0 L 1829.3,989.0 L 1829.3,448.3 L 71.3,448.3 L 71.3,864.6 " fill="none" stroke="url(#strokeB)" stroke-width="1.38" stroke-linecap="round" stroke-linejoin="round"/><circle cx="1829.3" cy="989.0" r="2.8" fill="#A855F7" opacity="0.45"/><circle cx="71.3" cy="448.3" r="2.5" fill="#A855F7" opacity="0.45"/><circle cx="71.3" cy="864.6" r="3.9" fill="#A855F7" opacity="0.45"/></g>
<g opacity="0.217" filter="url(#softGlow)"><path d="M 128.4,65.9 L 2.7,65.9 L 2.7,989.3 L 10.4,989.3 L 10.4,155.0 " fill="none" stroke="url(#strokeB)" stroke-width="1.90" stroke-linecap="round" stroke-linejoin="round"/><circle cx="2.7" cy="989.3" r="2.9" fill="#A855F7" opacity="0.45"/><circle cx="10.4" cy="989.3" r="4.1" fill="#A855F7" opacity="0.45"/><circle cx="10.4" cy="155.0" r="3.9" fill="#A855F7" opacity="0.45"/></g>
<g opacity="0.217" filter="url(#softGlow)"><path d="M 1896.0,1040.6 L 1855.9,1040.6 L 1855.9,201.9 L 1917.5,201.9 L 1917.5,834.6 " fill="none" stroke="url(#strokeB)" stroke-width="2.00" stroke-linecap="round" stroke-linejoin="round"/><circle cx="1917.5" cy="201.9" r="2.3" fill="#A855F7" opacity="0.45"/><circle cx="1896.0" cy="1040.6" r="3.0" fill="#A855F7" opacity="0.45"/><circle cx="1855.9" cy="1040.6" r="2.1" fill="#A855F7" opacity="0.45"/></g>
<g opacity="0.217" filter="url(#softGlow)"><path d="M 1808.3,971.9 L 1868.2,971.9 L 1868.2,182.1 L 166.7,182.1 L 166.7,193.1 " fill="none" stroke="url(#strokeB)" stroke-width="1.40" stroke-linecap="round" stroke-linejoin="round"/><circle cx="166.7" cy="193.1" r="2.6" fill="#A855F7" opacity="0.45"/><circle cx="1868.2" cy="971.9" r="2.4" fill="#A855F7" opacity="0.45"/><circle cx="1868.2" cy="182.1" r="3.2" fill="#A855F7" opacity="0.45"/></g>
<g opacity="0.217" filter="url(#softGlow)"><path d="M 1712.2,963.4 L 1817.4,963.4 L 1817.4,183.4 L 621.4,183.4 L 621.4,962.8 " fill="none" stroke="url(#strokeB)" stroke-width="1.37" stroke-linecap="round" stroke-linejoin="round"/><circle cx="621.4" cy="962.8" r="2.7" fill="#A855F7" opacity="0.45"/><circle cx="621.4" cy="183.4" r="2.0" fill="#A855F7" opacity="0.45"/><circle cx="1712.2" cy="963.4" r="2.6" fill="#A855F7" opacity="0.45"/></g>
<g opacity="0.217" filter="url(#softGlow)"><path d="M 1906.6,898.3 L 1773.6,898.3 L 1773.6,881.9 L 1051.3,881.9 L 1051.3,101.9 " fill="none" stroke="url(#strokeB)" stroke-width="2.12" stroke-linecap="round" stroke-linejoin="round"/><circle cx="1906.6" cy="898.3" r="4.1" fill="#A855F7" opacity="0.45"/><circle cx="1773.6" cy="898.3" r="2.7" fill="#A855F7" opacity="0.45"/><circle cx="1051.3" cy="881.9" r="4.2" fill="#A855F7" opacity="0.45"/></g>
<g opacity="0.217" filter="url(#softGlow)"><path d="M 10.5,1000.0 L 1718.4,1000.0 L 1718.4,918.0 L 1818.1,918.0 L 1818.1,951.1 " fill="none" stroke="url(#strokeB)" stroke-width="1.98" stroke-linecap="round" stroke-linejoin="round"/><circle cx="1818.1" cy="918.0" r="2.6" fill="#A855F7" opacity="0.45"/><circle cx="1718.4" cy="1000.0" r="4.2" fill="#A855F7" opacity="0.45"/><circle cx="1818.1" cy="951.1" r="2.0" fill="#A855F7" opacity="0.45"/></g>
<g opacity="0.217" filter="url(#softGlow)"><path d="M 117.0,33.4 L 1790.9,33.4 L 1790.9,940.1 L 186.6,940.1 L 186.6,125.2 " fill="none" stroke="url(#strokeB)" stroke-width="1.81" stroke-linecap="round" stroke-linejoin="round"/><circle cx="186.6" cy="940.1" r="3.3" fill="#A855F7" opacity="0.45"/><circle cx="1790.9" cy="33.4" r="2.3" fill="#A855F7" opacity="0.45"/><circle cx="117.0" cy="33.4" r="3.0" fill="#A855F7" opacity="0.45"/></g>
<g opacity="0.217" filter="url(#softGlow)"><path d="M 64.3,1035.4 L 1751.7,1035.4 L 1751.7,168.7 L 239.0,168.7 L 239.0,1034.4 " fill="none" stroke="url(#strokeB)" stroke-width="1.42" stroke-linecap="round" stroke-linejoin="round"/><circle cx="1751.7" cy="168.7" r="3.1" fill="#A855F7" opacity="0.45"/><circle cx="239.0" cy="168.7" r="2.3" fill="#A855F7" opacity="0.45"/><circle cx="64.3" cy="1035.4" r="2.2" fill="#A855F7" opacity="0.45"/></g>
<g opacity="0.217" filter="url(#softGlow)"><path d="M 1716.5,139.4 L 1806.6,139.4 L 1806.6,1019.6 L 100.7,1019.6 L 100.7,48.8 " fill="none" stroke="url(#strokeB)" stroke-width="1.97" stroke-linecap="round" stroke-linejoin="round"/><circle cx="1806.6" cy="139.4" r="3.3" fill="#A855F7" opacity="0.45"/><circle cx="100.7" cy="48.8" r="3.7" fill="#A855F7" opacity="0.45"/><circle cx="100.7" cy="1019.6" r="2.1" fill="#A855F7" opacity="0.45"/></g>
<g opacity="0.217" filter="url(#softGlow)"><path d="M 1780.4,215.1 L 11.3,215.1 L 11.3,968.3 L 171.7,968.3 L 171.7,128.9 " fill="none" stroke="url(#strokeB)" stroke-width="1.60" stroke-linecap="round" stroke-linejoin="round"/><circle cx="11.3" cy="968.3" r="4.2" fill="#A855F7" opacity="0.45"/><circle cx="11.3" cy="215.1" r="2.2" fill="#A855F7" opacity="0.45"/><circle cx="171.7" cy="128.9" r="3.0" fill="#A855F7" opacity="0.45"/></g>
<g opacity="0.217" filter="url(#softGlow)"><path d="M 171.5,195.8 L 1725.8,195.8 L 1725.8,1017.5 L 15.6,1017.5 L 15.6,474.5 " fill="none" stroke="url(#strokeB)" stroke-width="2.14" stroke-linecap="round" stroke-linejoin="round"/><circle cx="171.5" cy="195.8" r="4.2" fill="#A855F7" opacity="0.45"/><circle cx="1725.8" cy="1017.5" r="2.3" fill="#A855F7" opacity="0.45"/><circle cx="15.6" cy="474.5" r="3.5" fill="#A855F7" opacity="0.45"/></g>
<g opacity="0.217" filter="url(#softGlow)"><path d="M 86.1,71.8 L 175.1,71.8 L 175.1,25.4 L 1864.4,25.4 L 1864.4,51.9 " fill="none" stroke="url(#strokeB)" stroke-width="1.80" stroke-linecap="round" stroke-linejoin="round"/><circle cx="1864.4" cy="25.4" r="3.7" fill="#A855F7" opacity="0.45"/><circle cx="175.1" cy="25.4" r="3.3" fill="#A855F7" opacity="0.45"/><circle cx="175.1" cy="71.8" r="3.5" fill="#A855F7" opacity="0.45"/></g>

<g opacity="0.797" filter="url(#hardGlow)">
  <circle cx="26.8" cy="94.6" r="44.3" fill="#0A1224" opacity="0.65"/>
  <circle cx="26.8" cy="94.6" r="44.3" fill="none" stroke="url(#strokeA)" stroke-width="3.5" opacity="0.85"/>
  <circle cx="26.8" cy="94.6" r="38.1" fill="none" stroke="#22D3EE" stroke-width="1.5" opacity="0.35"/>
  <polygon points="2.0,74.5 31.7,63.0 56.6,83.1 51.7,114.6 21.9,126.1 -3.0,106.1" fill="none" stroke="url(#strokeB)" stroke-width="1.2" opacity="0.65"/>
  <polygon points="21.0,85.0 38.0,94.4 21.4,104.4" fill="#22D3EE" opacity="0.22" filter="url(#softGlow)"/>
</g>


<g opacity="0.587" filter="url(#hardGlow)">
  <circle cx="82.5" cy="123.8" r="17.7" fill="#0A1224" opacity="0.65"/>
  <circle cx="82.5" cy="123.8" r="17.7" fill="none" stroke="url(#strokeA)" stroke-width="2.0" opacity="0.85"/>
  <circle cx="82.5" cy="123.8" r="15.2" fill="none" stroke="#A855F7" stroke-width="1.5" opacity="0.35"/>
  <polygon points="74.8,134.0 69.8,122.3 77.5,112.1 90.1,113.7 95.1,125.4 87.4,135.6" fill="none" stroke="url(#strokeB)" stroke-width="1.2" opacity="0.65"/>
  <polygon points="78.7,126.3 82.2,119.4 86.4,125.9" fill="#A855F7" opacity="0.22" filter="url(#softGlow)"/>
</g>


<g opacity="0.438" filter="url(#hardGlow)">
  <circle cx="-41.4" cy="129.6" r="18.9" fill="#0A1224" opacity="0.65"/>
  <circle cx="-41.4" cy="129.6" r="18.9" fill="none" stroke="url(#strokeA)" stroke-width="2.0" opacity="0.85"/>
  <circle cx="-41.4" cy="129.6" r="16.3" fill="none" stroke="#A855F7" stroke-width="1.5" opacity="0.35"/>
  <polygon points="-30.5,121.4 -28.9,134.9 -39.8,143.1 -52.3,137.7 -53.9,124.2 -43.0,116.0" fill="none" stroke="url(#strokeB)" stroke-width="1.2" opacity="0.65"/>
  
</g>


<g opacity="0.723" filter="url(#hardGlow)">
  <circle cx="1781.8" cy="88.4" r="55.4" fill="#0A1224" opacity="0.65"/>
  <circle cx="1781.8" cy="88.4" r="55.4" fill="none" stroke="url(#strokeA)" stroke-width="4.4" opacity="0.85"/>
  <circle cx="1781.8" cy="88.4" r="47.6" fill="none" stroke="#22D3EE" stroke-width="1.7" opacity="0.35"/>
  <polygon points="1757.1,57.1 1796.5,51.3 1821.2,82.6 1806.5,119.6 1767.1,125.4 1742.4,94.1" fill="none" stroke="url(#strokeB)" stroke-width="1.4" opacity="0.65"/>
  <polygon points="1777.4,75.1 1795.5,91.2 1772.5,98.8" fill="#22D3EE" opacity="0.22" filter="url(#softGlow)"/>
</g>


<g opacity="0.473" filter="url(#hardGlow)">
  <circle cx="1704.9" cy="78.4" r="19.9" fill="#0A1224" opacity="0.65"/>
  <circle cx="1704.9" cy="78.4" r="19.9" fill="none" stroke="url(#strokeA)" stroke-width="2.0" opacity="0.85"/>
  <circle cx="1704.9" cy="78.4" r="17.1" fill="none" stroke="#A855F7" stroke-width="1.5" opacity="0.35"/>
  <polygon points="1708.8,64.6 1718.8,74.9 1714.9,88.6 1701.0,92.1 1691.0,81.9 1694.9,68.1" fill="none" stroke="url(#strokeB)" stroke-width="1.2" opacity="0.65"/>
  <polygon points="1707.8,74.3 1706.9,82.9 1699.9,77.8" fill="#A855F7" opacity="0.22" filter="url(#softGlow)"/>
</g>


<g opacity="0.518" filter="url(#hardGlow)">
  <circle cx="1826.6" cy="130.2" r="22.2" fill="#0A1224" opacity="0.65"/>
  <circle cx="1826.6" cy="130.2" r="22.2" fill="none" stroke="url(#strokeA)" stroke-width="2.0" opacity="0.85"/>
  <circle cx="1826.6" cy="130.2" r="19.1" fill="none" stroke="#A855F7" stroke-width="1.5" opacity="0.35"/>
  <polygon points="1811.2,134.3 1815.4,118.9 1830.8,114.8 1842.0,126.1 1837.9,141.5 1822.4,145.6" fill="none" stroke="url(#strokeB)" stroke-width="1.2" opacity="0.65"/>
  
</g>


<g opacity="0.546" filter="url(#hardGlow)">
  <circle cx="1719.6" cy="114.5" r="28.0" fill="#0A1224" opacity="0.65"/>
  <circle cx="1719.6" cy="114.5" r="28.0" fill="none" stroke="url(#strokeA)" stroke-width="2.2" opacity="0.85"/>
  <circle cx="1719.6" cy="114.5" r="24.1" fill="none" stroke="#A855F7" stroke-width="1.5" opacity="0.35"/>
  <polygon points="1735.5,126.9 1716.7,134.5 1700.9,122.0 1703.7,102.0 1722.5,94.5 1738.3,107.0" fill="none" stroke="url(#strokeB)" stroke-width="1.2" opacity="0.65"/>
  
</g>


<g opacity="0.795" filter="url(#hardGlow)">
  <circle cx="101.6" cy="736.4" r="67.7" fill="#0A1224" opacity="0.65"/>
  <circle cx="101.6" cy="736.4" r="67.7" fill="none" stroke="url(#strokeA)" stroke-width="5.4" opacity="0.85"/>
  <circle cx="101.6" cy="736.4" r="58.2" fill="none" stroke="#22D3EE" stroke-width="2.0" opacity="0.35"/>
  <polygon points="105.7,687.8 145.7,715.6 141.6,764.2 97.5,784.9 57.5,757.1 61.6,708.5" fill="none" stroke="url(#strokeB)" stroke-width="1.7" opacity="0.65"/>
  <polygon points="108.8,720.9 111.4,750.3 84.6,737.9" fill="#22D3EE" opacity="0.22" filter="url(#softGlow)"/>
</g>


<g opacity="0.363" filter="url(#hardGlow)">
  <circle cx="118.0" cy="679.6" r="25.4" fill="#0A1224" opacity="0.65"/>
  <circle cx="118.0" cy="679.6" r="25.4" fill="none" stroke="url(#strokeA)" stroke-width="2.0" opacity="0.85"/>
  <circle cx="118.0" cy="679.6" r="21.8" fill="none" stroke="#A855F7" stroke-width="1.5" opacity="0.35"/>
  <polygon points="100.5,674.5 113.6,661.9 131.1,667.0 135.5,684.7 122.4,697.3 104.8,692.3" fill="none" stroke="url(#strokeB)" stroke-width="1.2" opacity="0.65"/>
  
</g>


<g opacity="0.919" filter="url(#hardGlow)">
  <circle cx="13.7" cy="54.0" r="58.3" fill="#0A1224" opacity="0.65"/>
  <circle cx="13.7" cy="54.0" r="58.3" fill="none" stroke="url(#strokeA)" stroke-width="4.7" opacity="0.85"/>
  <circle cx="13.7" cy="54.0" r="50.1" fill="none" stroke="#22D3EE" stroke-width="1.7" opacity="0.35"/>
  <polygon points="25.2,94.4 -15.5,84.2 -27.0,43.8 2.2,13.7 42.9,23.9 54.4,64.3" fill="none" stroke="url(#strokeB)" stroke-width="1.5" opacity="0.65"/>
  <polygon points="12.7,68.7 1.5,45.8 26.9,47.6" fill="#22D3EE" opacity="0.22" filter="url(#softGlow)"/>
</g>


<g opacity="0.630" filter="url(#hardGlow)">
  <circle cx="64.9" cy="88.8" r="29.3" fill="#0A1224" opacity="0.65"/>
  <circle cx="64.9" cy="88.8" r="29.3" fill="none" stroke="url(#strokeA)" stroke-width="2.3" opacity="0.85"/>
  <circle cx="64.9" cy="88.8" r="25.2" fill="none" stroke="#A855F7" stroke-width="1.5" opacity="0.35"/>
  <polygon points="54.2,107.0 43.8,88.7 54.4,70.4 75.5,70.6 86.0,88.9 75.3,107.1" fill="none" stroke="url(#strokeB)" stroke-width="1.2" opacity="0.65"/>
  
</g>


<g opacity="0.642" filter="url(#hardGlow)">
  <circle cx="-13.1" cy="-15.9" r="31.0" fill="#0A1224" opacity="0.65"/>
  <circle cx="-13.1" cy="-15.9" r="31.0" fill="none" stroke="url(#strokeA)" stroke-width="2.5" opacity="0.85"/>
  <circle cx="-13.1" cy="-15.9" r="26.7" fill="none" stroke="#A855F7" stroke-width="1.5" opacity="0.35"/>
  <polygon points="-20.2,5.3 -35.0,-11.4 -27.9,-32.6 -6.1,-37.1 8.8,-20.4 1.7,0.8" fill="none" stroke="url(#strokeB)" stroke-width="1.2" opacity="0.65"/>
  
</g>


<g opacity="0.354" transform="translate(134.1,1001.7) rotate(-8.7)" filter="url(#softGlow)">
  <rect x="-84.9" y="-79.1" width="169.8" height="158.2" rx="15.8" fill="#050A12" opacity="0.25"/>
  <rect x="-84.9" y="-79.1" width="169.8" height="158.2" rx="15.8" fill="none" stroke="url(#strokeA)" stroke-width="7.9" opacity="0.85"/>
  <rect x="-72.2" y="-66.4" width="144.5" height="132.9" rx="11.1" fill="none" stroke="#22D3EE" stroke-width="3.2" opacity="0.35"/>
</g>


<g opacity="0.279" transform="translate(55.5,86.1) rotate(-0.3)" filter="url(#softGlow)">
  <rect x="-87.7" y="-80.1" width="175.3" height="160.2" rx="16.0" fill="#050A12" opacity="0.25"/>
  <rect x="-87.7" y="-80.1" width="175.3" height="160.2" rx="16.0" fill="none" stroke="url(#strokeA)" stroke-width="8.0" opacity="0.85"/>
  <rect x="-74.9" y="-67.3" width="149.7" height="134.5" rx="11.2" fill="none" stroke="#22D3EE" stroke-width="3.2" opacity="0.35"/>
</g>


<g opacity="0.440" transform="translate(1753.1,963.9) rotate(-5.7)" filter="url(#softGlow)">
  <rect x="-94.1" y="-85.1" width="188.3" height="170.2" rx="17.0" fill="#050A12" opacity="0.25"/>
  <rect x="-94.1" y="-85.1" width="188.3" height="170.2" rx="17.0" fill="none" stroke="url(#strokeA)" stroke-width="8.5" opacity="0.85"/>
  <rect x="-80.5" y="-71.5" width="161.0" height="143.0" rx="11.9" fill="none" stroke="#F59E0B" stroke-width="3.4" opacity="0.35"/>
</g>


<g opacity="0.331" transform="translate(282.5,82.2) rotate(7.9)" filter="url(#softGlow)">
  <rect x="-118.4" y="-95.7" width="236.9" height="191.4" rx="19.1" fill="#050A12" opacity="0.25"/>
  <rect x="-118.4" y="-95.7" width="236.9" height="191.4" rx="19.1" fill="none" stroke="url(#strokeA)" stroke-width="9.6" opacity="0.85"/>
  <rect x="-103.1" y="-80.4" width="206.3" height="160.7" rx="13.4" fill="none" stroke="#F59E0B" stroke-width="3.8" opacity="0.35"/>
</g>


<g opacity="0.357" transform="translate(1552.1,968.4) rotate(-8.6)" filter="url(#softGlow)">
  <rect x="-117.0" y="-87.3" width="234.0" height="174.6" rx="17.5" fill="#050A12" opacity="0.25"/>
  <rect x="-117.0" y="-87.3" width="234.0" height="174.6" rx="17.5" fill="none" stroke="url(#strokeA)" stroke-width="8.7" opacity="0.85"/>
  <rect x="-103.0" y="-73.3" width="206.1" height="146.7" rx="12.2" fill="none" stroke="#22D3EE" stroke-width="3.5" opacity="0.35"/>
</g>


<g opacity="0.349" transform="translate(212.5,644.7) rotate(17.1)" filter="url(#softGlow)">
  <rect x="-57.9" y="-33.3" width="115.7" height="66.7" rx="20.4" fill="none" stroke="#A855F7" stroke-width="11.1" opacity="0.55"/>
  <rect x="-25.5" y="-16.7" width="115.7" height="66.7" rx="20.4" fill="none" stroke="url(#strokeA)" stroke-width="9.3" opacity="0.55"/>
</g>


<g opacity="0.342" transform="translate(1638.1,46.1) rotate(3.7)" filter="url(#softGlow)">
  <rect x="-55.3" y="-31.8" width="110.5" height="63.7" rx="19.5" fill="none" stroke="#F59E0B" stroke-width="10.6" opacity="0.55"/>
  <rect x="-24.3" y="-15.9" width="110.5" height="63.7" rx="19.5" fill="none" stroke="url(#strokeA)" stroke-width="8.8" opacity="0.55"/>
</g>


<g opacity="0.430" transform="translate(685.8,73.1) rotate(0.8)" filter="url(#softGlow)">
  <rect x="-45.5" y="-26.2" width="91.0" height="52.4" rx="16.0" fill="none" stroke="#A855F7" stroke-width="8.7" opacity="0.55"/>
  <rect x="-20.0" y="-13.1" width="91.0" height="52.4" rx="16.0" fill="none" stroke="url(#strokeA)" stroke-width="7.3" opacity="0.55"/>
</g>


<g opacity="0.440" transform="translate(114.3,122.9) rotate(-4.1)" filter="url(#softGlow)">
  <rect x="-49.3" y="-28.4" width="98.6" height="56.8" rx="17.4" fill="none" stroke="#22D3EE" stroke-width="9.5" opacity="0.55"/>
  <rect x="-21.7" y="-14.2" width="98.6" height="56.8" rx="17.4" fill="none" stroke="url(#strokeA)" stroke-width="7.9" opacity="0.55"/>
</g>


<g opacity="0.435" transform="translate(654.4,1041.4) rotate(-1.6)" filter="url(#softGlow)">
  <rect x="-55.6" y="-32.0" width="111.2" height="64.0" rx="19.6" fill="none" stroke="#F59E0B" stroke-width="10.7" opacity="0.55"/>
  <rect x="-24.5" y="-16.0" width="111.2" height="64.0" rx="19.6" fill="none" stroke="url(#strokeA)" stroke-width="8.9" opacity="0.55"/>
</g>


<g opacity="0.307" transform="translate(172.3,933.2) rotate(9.1)" filter="url(#softGlow)">
  <rect x="-43.6" y="-25.1" width="87.2" height="50.2" rx="15.3" fill="none" stroke="#A855F7" stroke-width="8.4" opacity="0.55"/>
  <rect x="-19.2" y="-12.6" width="87.2" height="50.2" rx="15.3" fill="none" stroke="url(#strokeA)" stroke-width="7.0" opacity="0.55"/>
</g>


<g opacity="0.438" transform="translate(1891.5,4.3) rotate(-15.8)" filter="url(#softGlow)">
  <rect x="-49.8" y="-28.7" width="99.5" height="57.3" rx="17.5" fill="none" stroke="#F59E0B" stroke-width="9.6" opacity="0.55"/>
  <rect x="-21.9" y="-14.3" width="99.5" height="57.3" rx="17.5" fill="none" stroke="url(#strokeA)" stroke-width="8.0" opacity="0.55"/>
</g>


<g opacity="0.256" transform="translate(210.0,204.2) rotate(-7.0)" filter="url(#softGlow)">
  <rect x="-35.3" y="-20.3" width="70.6" height="40.7" rx="12.4" fill="none" stroke="#22D3EE" stroke-width="6.8" opacity="0.55"/>
  <rect x="-15.5" y="-10.2" width="70.6" height="40.7" rx="12.4" fill="none" stroke="url(#strokeA)" stroke-width="5.7" opacity="0.55"/>
</g>


<g opacity="0.412" transform="translate(1812.6,176.1) rotate(-4.9)" filter="url(#softGlow)">
  <rect x="-41.6" y="-23.9" width="83.1" height="47.9" rx="14.6" fill="none" stroke="#22D3EE" stroke-width="8.0" opacity="0.55"/>
  <rect x="-18.3" y="-12.0" width="83.1" height="47.9" rx="14.6" fill="none" stroke="url(#strokeA)" stroke-width="6.7" opacity="0.55"/>
</g>


<g opacity="0.195">
  <line x1="279.0" y1="896.1" x2="279.0" y2="972.3" stroke="#A855F7" stroke-width="1.11" opacity="0.45"/>
  <rect x="273.8" y="944.0" width="10.4" height="26.2" rx="3.5" fill="#0B1020" opacity="0.55" stroke="url(#strokeA)" stroke-width="1.2"/>
</g>

<g opacity="0.195">
  <line x1="122.1" y1="888.1" x2="122.1" y2="974.3" stroke="#A855F7" stroke-width="1.20" opacity="0.45"/>
  <rect x="118.8" y="936.6" width="6.5" height="40.8" rx="2.2" fill="#0B1020" opacity="0.55" stroke="url(#strokeA)" stroke-width="1.2"/>
</g>

<g opacity="0.195">
  <line x1="1746.4" y1="914.5" x2="1746.4" y2="967.7" stroke="#A855F7" stroke-width="1.13" opacity="0.45"/>
  <rect x="1743.1" y="942.4" width="6.7" height="29.4" rx="2.2" fill="#0B1020" opacity="0.55" stroke="url(#strokeA)" stroke-width="1.2"/>
</g>

<g opacity="0.195">
  <line x1="1722.1" y1="913.9" x2="1722.1" y2="967.9" stroke="#A855F7" stroke-width="1.06" opacity="0.45"/>
  <rect x="1717.6" y="944.9" width="9.1" height="24.4" rx="3.0" fill="#0B1020" opacity="0.55" stroke="url(#strokeA)" stroke-width="1.2"/>
</g>

<g opacity="0.195">
  <line x1="96.6" y1="864.0" x2="96.6" y2="980.3" stroke="#A855F7" stroke-width="1.19" opacity="0.45"/>
  <rect x="92.1" y="930.5" width="9.0" height="53.1" rx="3.0" fill="#0B1020" opacity="0.55" stroke="url(#strokeA)" stroke-width="1.2"/>
</g>
<circle cx="59.6" cy="1064.8" r="2.6" fill="#22D3EE" opacity="0.11" filter="url(#softGlow)"/>
<circle cx="214.7" cy="83.3" r="1.5" fill="#22D3EE" opacity="0.22" filter="url(#softGlow)"/>
<circle cx="121.6" cy="1079.1" r="1.7" fill="#22D3EE" opacity="0.21" filter="url(#softGlow)"/>
<circle cx="1907.8" cy="4.3" r="2.0" fill="#22D3EE" opacity="0.13" filter="url(#softGlow)"/>
<circle cx="577.7" cy="1052.1" r="2.7" fill="#22D3EE" opacity="0.13" filter="url(#softGlow)"/>
<circle cx="74.5" cy="284.3" r="2.0" fill="#22D3EE" opacity="0.21" filter="url(#softGlow)"/>
<circle cx="192.2" cy="910.5" r="1.8" fill="#22D3EE" opacity="0.22" filter="url(#softGlow)"/>
<circle cx="85.2" cy="1004.8" r="3.0" fill="#22D3EE" opacity="0.16" filter="url(#softGlow)"/>
<circle cx="1865.9" cy="58.0" r="2.5" fill="#22D3EE" opacity="0.12" filter="url(#softGlow)"/>
<circle cx="1852.1" cy="37.8" r="2.0" fill="#22D3EE" opacity="0.11" filter="url(#softGlow)"/>
<circle cx="1898.2" cy="69.7" r="2.6" fill="#22D3EE" opacity="0.16" filter="url(#softGlow)"/>
<circle cx="1731.7" cy="874.9" r="2.8" fill="#22D3EE" opacity="0.25" filter="url(#softGlow)"/>
<circle cx="1757.7" cy="3.7" r="2.2" fill="#22D3EE" opacity="0.24" filter="url(#softGlow)"/>
<circle cx="45.1" cy="194.0" r="1.7" fill="#22D3EE" opacity="0.17" filter="url(#softGlow)"/>
<circle cx="1776.4" cy="574.5" r="2.9" fill="#22D3EE" opacity="0.28" filter="url(#softGlow)"/>
<circle cx="1836.9" cy="926.9" r="2.2" fill="#22D3EE" opacity="0.26" filter="url(#softGlow)"/>
<circle cx="51.7" cy="895.4" r="1.6" fill="#22D3EE" opacity="0.13" filter="url(#softGlow)"/>
<circle cx="540.6" cy="1005.3" r="2.1" fill="#22D3EE" opacity="0.23" filter="url(#softGlow)"/>
<circle cx="1817.3" cy="942.8" r="2.5" fill="#22D3EE" opacity="0.13" filter="url(#softGlow)"/>
<circle cx="11.2" cy="133.2" r="2.0" fill="#22D3EE" opacity="0.21" filter="url(#softGlow)"/>
<circle cx="1761.9" cy="957.6" r="3.2" fill="#22D3EE" opacity="0.13" filter="url(#softGlow)"/>
<circle cx="1768.0" cy="1058.8" r="3.2" fill="#22D3EE" opacity="0.15" filter="url(#softGlow)"/>
</svg>