<svg xmlns="http://www.w3.org/2000/svg" width="1920" height="1080" viewBox="0 0 1920 1080" preserveAspectRatio="xMidYMid slice">
<defs>
  <linearGradient id="g0" x1="0" y1="0" x2="1" y2="1">
    <stop offset="0" stop-color="#0B0F1A"/>
    <stop offset="0.55" stop-color="#A855F7" stop-opacity="0.9"/>
    <stop offset="1" stop-color="#030712"/>
  </linearGradient>
  <radialGradient id="g1" cx="20%" cy="15%" r="70%">
    <stop offset="0" stop-color="#22D3EE" stop-opacity="0.38"/>
    <stop offset="0.6" stop-color="#22D3EE" stop-opacity="0.08"/>
    <stop offset="1" stop-color="#22D3EE" stop-opacity="0"/>
  </radialGradient>
  <radialGradient id="g2" cx="85%" cy="80%" r="75%">
    <stop offset="0" stop-color="#22D3EE" stop-opacity="0.28"/>
    <stop offset="0.65" stop-color="#22D3EE" stop-opacity="0.06"/>
    <stop offset="1" stop-color="#22D3EE" stop-opacity="0"/>
  </radialGradient>
  <filter id="softGlow" x="-30%" y="-30%" width="160%" height="160%">
    <feGaussianBlur stdDeviation="12" result="b"/>
    <feMerge>
      <feMergeNode in="b"/>
      <feMergeNode in="SourceGraphic"/>
    </feMerge>
  </filter>
  <filter id="hardGlow" x="-40%" y="-40%" width="180%" height="180%">
    <feGaussianBlur stdDeviation="6" result="b"/>
    <feColorMatrix in="b" type="matrix" values="1 0 0 0 0  0 1 0 0 0  0 0 1 0 0  0 0 0 18 -7" result="c"/>
    <feMerge>
      <feMergeNode in="c"/>
      <feMergeNode in="SourceGraphic"/>
    </feMerge>
  </filter>
  <linearGradient id="strokeA" x1="0" y1="0" x2="1" y2="0">
    <stop offset="0" stop-color="#22D3EE" stop-opacity="0.9"/>
    <stop offset="0.5" stop-color="#FFFFFF" stop-opacity="0.25"/>
    <stop offset="1" stop-color="#22D3EE" stop-opacity="0.7"/>
  </linearGradient>
  <linearGradient id="strokeB" x1="0" y1="0" x2="0" y2="1">
    <stop offset="0" stop-color="#FFFFFF" stop-opacity="0.18"/>
    <stop offset="1" stop-color="#22D3EE" stop-opacity="0.55"/>
  </linearGradient>
</defs>
<rect x="0" y="0" width="1920" height="1080" fill="url(#g0)"/>
<rect x="0" y="0" width="1920" height="1080" fill="url(#g1)"/>
<rect x="0" y="0" width="1920" height="1080" fill="url(#g2)"/>


<defs>
  <radialGradient id="vign" cx="0.5000" cy="0.5093" r="0.85">
    <stop offset="0" stop-color="#000000" stop-opacity="0"/>
    <stop offset="0.55" stop-color="#000000" stop-opacity="0.217"/>
    <stop offset="1" stop-color="#000000" stop-opacity="0.620"/>
  </radialGradient>
</defs>
<rect x="0" y="0" width="1920" height="1080" fill="url(#vign)"/>

<g opacity="0.238" filter="url(#softGlow)"><path d="M 52.3,144.2 L 1749.5,144.2 L 1749.5,150.3 L 1785.5,150.3 L 1785.5,991.3 " fill="none" stroke="url(#strokeB)" stroke-width="2.10" stroke-linecap="round" stroke-linejoin="round"/><circle cx="1785.5" cy="150.3" r="3.5" fill="#F59E0B" opacity="0.45"/><circle cx="1749.5" cy="144.2" r="3.7" fill="#F59E0B" opacity="0.45"/><circle cx="52.3" cy="144.2" r="3.1" fill="#F59E0B" opacity="0.45"/></g>
<g opacity="0.238" filter="url(#softGlow)"><path d="M 156.5,1024.2 L 1792.3,1024.2 L 1792.3,52.5 L 1870.2,52.5 L 1870.2,1049.7 " fill="none" stroke="url(#strokeB)" stroke-width="1.89" stroke-linecap="round" stroke-linejoin="round"/><circle cx="1792.3" cy="52.5" r="3.3" fill="#F59E0B" opacity="0.45"/><circle cx="1870.2" cy="52.5" r="3.0" fill="#F59E0B" opacity="0.45"/><circle cx="156.5" cy="1024.2" r="2.9" fill="#F59E0B" opacity="0.45"/></g>
<g opacity="0.238" filter="url(#softGlow)"><path d="M 1867.1,931.9 L 190.1,931.9 L 190.1,1017.1 L 192.0,1017.1 L 192.0,308.1 " fill="none" stroke="url(#strokeB)" stroke-width="1.39" stroke-linecap="round" stroke-linejoin="round"/><circle cx="192.0" cy="1017.1" r="2.6" fill="#F59E0B" opacity="0.45"/><circle cx="190.1" cy="931.9" r="2.6" fill="#F59E0B" opacity="0.45"/><circle cx="190.1" cy="1017.1" r="3.2" fill="#F59E0B" opacity="0.45"/></g>
<g opacity="0.238" filter="url(#softGlow)"><path d="M 1838.1,507.8 L 1784.0,507.8 L 1784.0,887.4 L 1831.0,887.4 L 1831.0,182.3 " fill="none" stroke="url(#strokeB)" stroke-width="1.22" stroke-linecap="round" stroke-linejoin="round"/><circle cx="1784.0" cy="507.8" r="2.4" fill="#F59E0B" opacity="0.45"/><circle cx="1838.1" cy="507.8" r="2.3" fill="#F59E0B" opacity="0.45"/><circle cx="1784.0" cy="887.4" r="2.6" fill="#F59E0B" opacity="0.45"/></g>
<g opacity="0.238" filter="url(#softGlow)"><path d="M 1835.0,926.8 L 526.9,926.8 L 526.9,107.9 L 5.4,107.9 L 5.4,327.3 " fill="none" stroke="url(#strokeB)" stroke-width="1.87" stroke-linecap="round" stroke-linejoin="round"/><circle cx="5.4" cy="107.9" r="3.1" fill="#F59E0B" opacity="0.45"/><circle cx="526.9" cy="107.9" r="4.2" fill="#F59E0B" opacity="0.45"/><circle cx="1835.0" cy="926.8" r="2.5" fill="#F59E0B" opacity="0.45"/></g>
<g opacity="0.238" filter="url(#softGlow)"><path d="M 127.7,1069.4 L 767.0,1069.4 L 767.0,977.7 L 1841.1,977.7 L 1841.1,102.3 " fill="none" stroke="url(#strokeB)" stroke-width="1.59" stroke-linecap="round" stroke-linejoin="round"/><circle cx="767.0" cy="977.7" r="2.6" fill="#F59E0B" opacity="0.45"/><circle cx="127.7" cy="1069.4" r="4.0" fill="#F59E0B" opacity="0.45"/><circle cx="767.0" cy="1069.4" r="4.0" fill="#F59E0B" opacity="0.45"/></g>
<g opacity="0.238" filter="url(#softGlow)"><path d="M 966.8,5.9 L 1755.8,5.9 L 1755.8,1025.7 L 52.8,1025.7 L 52.8,866.5 " fill="none" stroke="url(#strokeB)" stroke-width="1.65" stroke-linecap="round" stroke-linejoin="round"/><circle cx="52.8" cy="1025.7" r="2.4" fill="#F59E0B" opacity="0.45"/><circle cx="52.8" cy="866.5" r="3.2" fill="#F59E0B" opacity="0.45"/><circle cx="1755.8" cy="1025.7" r="3.0" fill="#F59E0B" opacity="0.45"/></g>
<g opacity="0.238" filter="url(#softGlow)"><path d="M 1835.1,133.2 L 1794.9,133.2 L 1794.9,62.2 L 1768.2,62.2 L 1768.2,883.9 " fill="none" stroke="url(#strokeB)" stroke-width="2.06" stroke-linecap="round" stroke-linejoin="round"/><circle cx="1794.9" cy="133.2" r="3.2" fill="#F59E0B" opacity="0.45"/><circle cx="1794.9" cy="62.2" r="3.9" fill="#F59E0B" opacity="0.45"/><circle cx="1768.2" cy="883.9" r="3.3" fill="#F59E0B" opacity="0.45"/></g>
<g opacity="0.238" filter="url(#softGlow)"><path d="M 58.4,150.6 L 1846.7,150.6 L 1846.7,894.4 L 53.3,894.4 L 53.3,208.2 " fill="none" stroke="url(#strokeB)" stroke-width="1.92" stroke-linecap="round" stroke-linejoin="round"/><circle cx="58.4" cy="150.6" r="3.5" fill="#F59E0B" opacity="0.45"/><circle cx="53.3" cy="894.4" r="2.2" fill="#F59E0B" opacity="0.45"/><circle cx="1846.7" cy="150.6" r="2.1" fill="#F59E0B" opacity="0.45"/></g>
<g opacity="0.238" filter="url(#softGlow)"><path d="M 1144.8,1027.0 L 29.6,1027.0 L 29.6,982.9 L 202.6,982.9 L 202.6,966.1 " fill="none" stroke="url(#strokeB)" stroke-width="1.45" stroke-linecap="round" stroke-linejoin="round"/><circle cx="29.6" cy="1027.0" r="2.2" fill="#F59E0B" opacity="0.45"/><circle cx="202.6" cy="982.9" r="3.6" fill="#F59E0B" opacity="0.45"/><circle cx="1144.8" cy="1027.0" r="3.7" fill="#F59E0B" opacity="0.45"/></g>
<g opacity="0.238" filter="url(#softGlow)"><path d="M 1804.0,876.2 L 149.3,876.2 L 149.3,155.5 L 1747.0,155.5 L 1747.0,1020.8 " fill="none" stroke="url(#strokeB)" stroke-width="2.06" stroke-linecap="round" stroke-linejoin="round"/><circle cx="149.3" cy="876.2" r="2.1" fill="#F59E0B" opacity="0.45"/><circle cx="149.3" cy="155.5" r="2.9" fill="#F59E0B" opacity="0.45"/><circle cx="1747.0" cy="155.5" r="3.6" fill="#F59E0B" opacity="0.45"/></g>
<g opacity="0.238" filter="url(#softGlow)"><path d="M 96.1,1050.4 L 230.8,1050.4 L 230.8,64.6 L 142.9,64.6 L 142.9,6.1 " fill="none" stroke="url(#strokeB)" stroke-width="1.62" stroke-linecap="round" stroke-linejoin="round"/><circle cx="142.9" cy="64.6" r="3.7" fill="#F59E0B" opacity="0.45"/><circle cx="142.9" cy="6.1" r="3.9" fill="#F59E0B" opacity="0.45"/><circle cx="96.1" cy="1050.4" r="2.6" fill="#F59E0B" opacity="0.45"/></g>
<g opacity="0.238" filter="url(#softGlow)"><path d="M 1784.3,168.2 L 51.3,168.2 L 51.3,1006.1 L 160.5,1006.1 L 160.5,1056.5 " fill="none" stroke="url(#strokeB)" stroke-width="1.29" stroke-linecap="round" stroke-linejoin="round"/><circle cx="51.3" cy="168.2" r="2.2" fill="#F59E0B" opacity="0.45"/><circle cx="160.5" cy="1006.1" r="4.1" fill="#F59E0B" opacity="0.45"/><circle cx="160.5" cy="1056.5" r="3.6" fill="#F59E0B" opacity="0.45"/></g>
<g opacity="0.238" filter="url(#softGlow)"><path d="M 136.6,71.4 L 100.0,71.4 L 100.0,251.4 L 1815.9,251.4 L 1815.9,256.4 " fill="none" stroke="url(#strokeB)" stroke-width="2.14" stroke-linecap="round" stroke-linejoin="round"/><circle cx="1815.9" cy="256.4" r="2.1" fill="#F59E0B" opacity="0.45"/><circle cx="1815.9" cy="251.4" r="2.2" fill="#F59E0B" opacity="0.45"/><circle cx="100.0" cy="71.4" r="2.4" fill="#F59E0B" opacity="0.45"/></g>
<g opacity="0.238" filter="url(#softGlow)"><path d="M 1860.0,169.5 L 1607.8,169.5 L 1607.8,31.3 L 32.5,31.3 L 32.5,977.0 " fill="none" stroke="url(#strokeB)" stroke-width="1.69" stroke-linecap="round" stroke-linejoin="round"/><circle cx="32.5" cy="977.0" r="2.4" fill="#F59E0B" opacity="0.45"/><circle cx="1607.8" cy="169.5" r="3.9" fill="#F59E0B" opacity="0.45"/><circle cx="32.5" cy="31.3" r="3.9" fill="#F59E0B" opacity="0.45"/></g>
<g opacity="0.238" filter="url(#softGlow)"><path d="M 1842.3,149.0 L 1858.7,149.0 L 1858.7,937.7 L 153.9,937.7 L 153.9,150.0 " fill="none" stroke="url(#strokeB)" stroke-width="1.83" stroke-linecap="round" stroke-linejoin="round"/><circle cx="1858.7" cy="149.0" r="3.7" fill="#F59E0B" opacity="0.45"/><circle cx="1842.3" cy="149.0" r="4.1" fill="#F59E0B" opacity="0.45"/><circle cx="153.9" cy="937.7" r="2.5" fill="#F59E0B" opacity="0.45"/></g>
<g opacity="0.238" filter="url(#softGlow)"><path d="M 1781.5,166.4 L 80.7,166.4 L 80.7,1065.6 L 105.8,1065.6 L 105.8,380.4 " fill="none" stroke="url(#strokeB)" stroke-width="1.98" stroke-linecap="round" stroke-linejoin="round"/><circle cx="105.8" cy="380.4" r="3.7" fill="#F59E0B" opacity="0.45"/><circle cx="105.8" cy="1065.6" r="3.6" fill="#F59E0B" opacity="0.45"/><circle cx="80.7" cy="166.4" r="2.4" fill="#F59E0B" opacity="0.45"/></g>
<g opacity="0.238" filter="url(#softGlow)"><path d="M 1848.0,629.5 L 976.5,629.5 L 976.5,979.6 L 1724.6,979.6 L 1724.6,174.4 " fill="none" stroke="url(#strokeB)" stroke-width="1.30" stroke-linecap="round" stroke-linejoin="round"/><circle cx="976.5" cy="629.5" r="2.6" fill="#F59E0B" opacity="0.45"/><circle cx="1724.6" cy="174.4" r="3.4" fill="#F59E0B" opacity="0.45"/><circle cx="1848.0" cy="629.5" r="2.3" fill="#F59E0B" opacity="0.45"/></g>

<g opacity="0.905" filter="url(#hardGlow)">
  <circle cx="1343.1" cy="1076.1" r="43.9" fill="#0A1224" opacity="0.65"/>
  <circle cx="1343.1" cy="1076.1" r="43.9" fill="none" stroke="url(#strokeA)" stroke-width="3.5" opacity="0.85"/>
  <circle cx="1343.1" cy="1076.1" r="37.8" fill="none" stroke="#22D3EE" stroke-width="1.5" opacity="0.35"/>
  <polygon points="1374.1,1082.7 1352.9,1106.2 1322.0,1099.6 1312.2,1069.5 1333.4,1046.0 1364.3,1052.6" fill="none" stroke="url(#strokeB)" stroke-width="1.2" opacity="0.65"/>
  <polygon points="1352.5,1082.0 1333.4,1081.3 1343.5,1065.0" fill="#22D3EE" opacity="0.22" filter="url(#softGlow)"/>
</g>


<g opacity="0.421" filter="url(#hardGlow)">
  <circle cx="1390.3" cy="1116.1" r="22.7" fill="#0A1224" opacity="0.65"/>
  <circle cx="1390.3" cy="1116.1" r="22.7" fill="none" stroke="url(#strokeA)" stroke-width="2.0" opacity="0.85"/>
  <circle cx="1390.3" cy="1116.1" r="19.6" fill="none" stroke="#F59E0B" stroke-width="1.5" opacity="0.35"/>
  <polygon points="1403.2,1106.0 1405.5,1122.2 1392.6,1132.3 1377.4,1126.2 1375.1,1110.0 1388.0,1099.9" fill="none" stroke="url(#strokeB)" stroke-width="1.2" opacity="0.65"/>
  
</g>


<g opacity="0.417" filter="url(#hardGlow)">
  <circle cx="1350.0" cy="1117.2" r="23.0" fill="#0A1224" opacity="0.65"/>
  <circle cx="1350.0" cy="1117.2" r="23.0" fill="none" stroke="url(#strokeA)" stroke-width="2.0" opacity="0.85"/>
  <circle cx="1350.0" cy="1117.2" r="19.8" fill="none" stroke="#F59E0B" stroke-width="1.5" opacity="0.35"/>
  <polygon points="1361.6,1105.4 1366.0,1121.3 1354.4,1133.2 1338.4,1129.0 1333.9,1113.1 1345.5,1101.2" fill="none" stroke="url(#strokeB)" stroke-width="1.2" opacity="0.65"/>
  
</g>


<g opacity="0.906" filter="url(#hardGlow)">
  <circle cx="1881.6" cy="238.4" r="41.0" fill="#0A1224" opacity="0.65"/>
  <circle cx="1881.6" cy="238.4" r="41.0" fill="none" stroke="url(#strokeA)" stroke-width="3.3" opacity="0.85"/>
  <circle cx="1881.6" cy="238.4" r="35.3" fill="none" stroke="#22D3EE" stroke-width="1.5" opacity="0.35"/>
  <polygon points="1857.3,255.3 1854.8,225.8 1879.0,208.9 1905.8,221.5 1908.3,250.9 1884.1,267.8" fill="none" stroke="url(#strokeB)" stroke-width="1.2" opacity="0.65"/>
  <polygon points="1871.6,241.0 1884.3,228.4 1888.9,245.7" fill="#22D3EE" opacity="0.22" filter="url(#softGlow)"/>
</g>


<g opacity="0.379" filter="url(#hardGlow)">
  <circle cx="1936.4" cy="284.3" r="15.7" fill="#0A1224" opacity="0.65"/>
  <circle cx="1936.4" cy="284.3" r="15.7" fill="none" stroke="url(#strokeA)" stroke-width="2.0" opacity="0.85"/>
  <circle cx="1936.4" cy="284.3" r="13.5" fill="none" stroke="#F59E0B" stroke-width="1.5" opacity="0.35"/>
  <polygon points="1938.2,295.4 1927.7,291.4 1925.9,280.3 1934.6,273.2 1945.1,277.2 1947.0,288.3" fill="none" stroke="url(#strokeB)" stroke-width="1.2" opacity="0.65"/>
  <polygon points="1935.7,288.2 1933.4,281.7 1940.1,283.0" fill="#F59E0B" opacity="0.22" filter="url(#softGlow)"/>
</g>


<g opacity="0.351" filter="url(#hardGlow)">
  <circle cx="1880.9" cy="190.3" r="16.7" fill="#0A1224" opacity="0.65"/>
  <circle cx="1880.9" cy="190.3" r="16.7" fill="none" stroke="url(#strokeA)" stroke-width="2.0" opacity="0.85"/>
  <circle cx="1880.9" cy="190.3" r="14.4" fill="none" stroke="#F59E0B" stroke-width="1.5" opacity="0.35"/>
  <polygon points="1892.9,189.9 1887.2,200.5 1875.2,200.9 1868.9,190.7 1874.6,180.1 1886.6,179.7" fill="none" stroke="url(#strokeB)" stroke-width="1.2" opacity="0.65"/>
  
</g>


<g opacity="0.685" filter="url(#hardGlow)">
  <circle cx="1792.9" cy="23.8" r="56.9" fill="#0A1224" opacity="0.65"/>
  <circle cx="1792.9" cy="23.8" r="56.9" fill="none" stroke="url(#strokeA)" stroke-width="4.6" opacity="0.85"/>
  <circle cx="1792.9" cy="23.8" r="48.9" fill="none" stroke="#22D3EE" stroke-width="1.7" opacity="0.35"/>
  <polygon points="1811.9,60.1 1771.0,58.4 1752.0,22.1 1774.0,-12.5 1814.9,-10.7 1833.8,25.6" fill="none" stroke="url(#strokeB)" stroke-width="1.4" opacity="0.65"/>
  <polygon points="1794.8,38.0 1779.7,18.4 1804.3,15.1" fill="#22D3EE" opacity="0.22" filter="url(#softGlow)"/>
</g>


<g opacity="0.646" filter="url(#hardGlow)">
  <circle cx="1832.5" cy="32.6" r="22.4" fill="#0A1224" opacity="0.65"/>
  <circle cx="1832.5" cy="32.6" r="22.4" fill="none" stroke="url(#strokeA)" stroke-width="2.0" opacity="0.85"/>
  <circle cx="1832.5" cy="32.6" r="19.3" fill="none" stroke="#F59E0B" stroke-width="1.5" opacity="0.35"/>
  <polygon points="1816.5,33.8 1823.4,19.3 1839.5,18.1 1848.6,31.4 1841.6,45.9 1825.5,47.1" fill="none" stroke="url(#strokeB)" stroke-width="1.2" opacity="0.65"/>
  <polygon points="1827.1,31.1 1836.6,28.7 1833.9,38.1" fill="#F59E0B" opacity="0.22" filter="url(#softGlow)"/>
</g>


<g opacity="0.420" filter="url(#hardGlow)">
  <circle cx="1852.2" cy="9.8" r="20.0" fill="#0A1224" opacity="0.65"/>
  <circle cx="1852.2" cy="9.8" r="20.0" fill="none" stroke="url(#strokeA)" stroke-width="2.0" opacity="0.85"/>
  <circle cx="1852.2" cy="9.8" r="17.2" fill="none" stroke="#F59E0B" stroke-width="1.5" opacity="0.35"/>
  <polygon points="1864.0,1.6 1865.2,16.0 1853.3,24.2 1840.3,18.0 1839.1,3.6 1851.0,-4.6" fill="none" stroke="url(#strokeB)" stroke-width="1.2" opacity="0.65"/>
  <polygon points="1857.0,8.5 1850.8,14.7 1848.6,6.2" fill="#F59E0B" opacity="0.22" filter="url(#softGlow)"/>
</g>


<g opacity="0.809" filter="url(#hardGlow)">
  <circle cx="157.0" cy="81.1" r="56.5" fill="#0A1224" opacity="0.65"/>
  <circle cx="157.0" cy="81.1" r="56.5" fill="none" stroke="url(#strokeA)" stroke-width="4.5" opacity="0.85"/>
  <circle cx="157.0" cy="81.1" r="48.6" fill="none" stroke="#22D3EE" stroke-width="1.7" opacity="0.35"/>
  <polygon points="184.0,50.7 196.8,89.4 169.7,119.7 129.9,111.5 117.1,72.8 144.2,42.4" fill="none" stroke="url(#strokeB)" stroke-width="1.4" opacity="0.65"/>
  <polygon points="169.5,74.4 156.5,95.3 144.8,73.6" fill="#22D3EE" opacity="0.22" filter="url(#softGlow)"/>
</g>


<g opacity="0.467" filter="url(#hardGlow)">
  <circle cx="218.2" cy="69.2" r="21.6" fill="#0A1224" opacity="0.65"/>
  <circle cx="218.2" cy="69.2" r="21.6" fill="none" stroke="url(#strokeA)" stroke-width="2.0" opacity="0.85"/>
  <circle cx="218.2" cy="69.2" r="18.6" fill="none" stroke="#F59E0B" stroke-width="1.5" opacity="0.35"/>
  <polygon points="226.2,55.9 233.8,69.5 225.7,82.9 210.1,82.6 202.6,68.9 210.7,55.6" fill="none" stroke="url(#strokeB)" stroke-width="1.2" opacity="0.65"/>
  <polygon points="222.4,65.8 219.0,74.6 213.1,67.3" fill="#F59E0B" opacity="0.22" filter="url(#softGlow)"/>
</g>


<g opacity="0.387" filter="url(#hardGlow)">
  <circle cx="190.0" cy="36.0" r="20.3" fill="#0A1224" opacity="0.65"/>
  <circle cx="190.0" cy="36.0" r="20.3" fill="none" stroke="url(#strokeA)" stroke-width="2.0" opacity="0.85"/>
  <circle cx="190.0" cy="36.0" r="17.5" fill="none" stroke="#F59E0B" stroke-width="1.5" opacity="0.35"/>
  <polygon points="197.5,23.4 204.6,36.3 197.0,48.8 182.4,48.5 175.3,35.7 182.9,23.1" fill="none" stroke="url(#strokeB)" stroke-width="1.2" opacity="0.65"/>
  
</g>


<g opacity="0.566" filter="url(#hardGlow)">
  <circle cx="236.9" cy="78.5" r="28.2" fill="#0A1224" opacity="0.65"/>
  <circle cx="236.9" cy="78.5" r="28.2" fill="none" stroke="url(#strokeA)" stroke-width="2.3" opacity="0.85"/>
  <circle cx="236.9" cy="78.5" r="24.3" fill="none" stroke="#F59E0B" stroke-width="1.5" opacity="0.35"/>
  <polygon points="227.0,60.8 247.3,61.1 257.2,78.8 246.8,96.3 226.5,96.0 216.6,78.3" fill="none" stroke="url(#strokeB)" stroke-width="1.2" opacity="0.65"/>
  
</g>


<g opacity="0.307" transform="translate(159.0,932.7) rotate(1.9)" filter="url(#softGlow)">
  <rect x="-98.4" y="-88.3" width="196.7" height="176.6" rx="17.7" fill="#050A12" opacity="0.25"/>
  <rect x="-98.4" y="-88.3" width="196.7" height="176.6" rx="17.7" fill="none" stroke="url(#strokeA)" stroke-width="8.8" opacity="0.85"/>
  <rect x="-84.2" y="-74.2" width="168.5" height="148.3" rx="12.4" fill="none" stroke="#22D3EE" stroke-width="3.5" opacity="0.35"/>
</g>


<g opacity="0.394" transform="translate(1766.7,130.7) rotate(8.1)" filter="url(#softGlow)">
  <rect x="-94.2" y="-69.3" width="188.4" height="138.6" rx="13.9" fill="#050A12" opacity="0.25"/>
  <rect x="-94.2" y="-69.3" width="188.4" height="138.6" rx="13.9" fill="none" stroke="url(#strokeA)" stroke-width="6.9" opacity="0.85"/>
  <rect x="-83.1" y="-58.2" width="166.2" height="116.5" rx="9.7" fill="none" stroke="#F59E0B" stroke-width="2.8" opacity="0.35"/>
</g>


<g opacity="0.326" transform="translate(1732.9,3.9) rotate(8.1)" filter="url(#softGlow)">
  <rect x="-101.6" y="-88.6" width="203.1" height="177.1" rx="17.7" fill="#050A12" opacity="0.25"/>
  <rect x="-101.6" y="-88.6" width="203.1" height="177.1" rx="17.7" fill="none" stroke="url(#strokeA)" stroke-width="8.9" opacity="0.85"/>
  <rect x="-87.4" y="-74.4" width="174.8" height="148.8" rx="12.4" fill="none" stroke="#F59E0B" stroke-width="3.5" opacity="0.35"/>
</g>


<g opacity="0.323" transform="translate(1837.9,161.5) rotate(2.5)" filter="url(#softGlow)">
  <rect x="-85.5" y="-77.1" width="170.9" height="154.3" rx="15.4" fill="#050A12" opacity="0.25"/>
  <rect x="-85.5" y="-77.1" width="170.9" height="154.3" rx="15.4" fill="none" stroke="url(#strokeA)" stroke-width="7.7" opacity="0.85"/>
  <rect x="-73.1" y="-64.8" width="146.2" height="129.6" rx="10.8" fill="none" stroke="#22D3EE" stroke-width="3.1" opacity="0.35"/>
</g>


<g opacity="0.363" transform="translate(1818.2,985.6) rotate(9.8)" filter="url(#softGlow)">
  <rect x="-40.4" y="-23.3" width="80.8" height="46.5" rx="14.2" fill="none" stroke="#F59E0B" stroke-width="7.8" opacity="0.55"/>
  <rect x="-17.8" y="-11.6" width="80.8" height="46.5" rx="14.2" fill="none" stroke="url(#strokeA)" stroke-width="6.5" opacity="0.55"/>
</g>


<g opacity="0.431" transform="translate(1471.3,992.5) rotate(-13.3)" filter="url(#softGlow)">
  <rect x="-44.5" y="-25.6" width="88.9" height="51.2" rx="15.7" fill="none" stroke="#F59E0B" stroke-width="8.5" opacity="0.55"/>
  <rect x="-19.6" y="-12.8" width="88.9" height="51.2" rx="15.7" fill="none" stroke="url(#strokeA)" stroke-width="7.1" opacity="0.55"/>
</g>


<g opacity="0.419" transform="translate(42.1,163.8) rotate(-6.2)" filter="url(#softGlow)">
  <rect x="-40.3" y="-23.2" width="80.6" height="46.4" rx="14.2" fill="none" stroke="#22D3EE" stroke-width="7.7" opacity="0.55"/>
  <rect x="-17.7" y="-11.6" width="80.6" height="46.4" rx="14.2" fill="none" stroke="url(#strokeA)" stroke-width="6.4" opacity="0.55"/>
</g>


<g opacity="0.452" transform="translate(1721.9,14.1) rotate(-1.3)" filter="url(#softGlow)">
  <rect x="-53.9" y="-31.1" width="107.8" height="62.1" rx="19.0" fill="none" stroke="#F59E0B" stroke-width="10.4" opacity="0.55"/>
  <rect x="-23.7" y="-15.5" width="107.8" height="62.1" rx="19.0" fill="none" stroke="url(#strokeA)" stroke-width="8.6" opacity="0.55"/>
</g>


<g opacity="0.436" transform="translate(1125.3,111.3) rotate(-12.5)" filter="url(#softGlow)">
  <rect x="-53.0" y="-30.5" width="106.0" height="61.1" rx="18.7" fill="none" stroke="#F59E0B" stroke-width="10.2" opacity="0.55"/>
  <rect x="-23.3" y="-15.3" width="106.0" height="61.1" rx="18.7" fill="none" stroke="url(#strokeA)" stroke-width="8.5" opacity="0.55"/>
</g>


<g opacity="0.293" transform="translate(166.8,150.2) rotate(14.3)" filter="url(#softGlow)">
  <rect x="-57.1" y="-32.9" width="114.1" height="65.7" rx="20.1" fill="none" stroke="#F59E0B" stroke-width="11.0" opacity="0.55"/>
  <rect x="-25.1" y="-16.4" width="114.1" height="65.7" rx="20.1" fill="none" stroke="url(#strokeA)" stroke-width="9.1" opacity="0.55"/>
</g>


<g opacity="0.224" transform="translate(137.5,358.2) rotate(6.7)" filter="url(#softGlow)">
  <rect x="-43.4" y="-25.0" width="86.9" height="50.0" rx="15.3" fill="none" stroke="#F59E0B" stroke-width="8.3" opacity="0.55"/>
  <rect x="-19.1" y="-12.5" width="86.9" height="50.0" rx="15.3" fill="none" stroke="url(#strokeA)" stroke-width="6.9" opacity="0.55"/>
</g>


<g opacity="0.461" transform="translate(1853.8,967.3) rotate(1.9)" filter="url(#softGlow)">
  <rect x="-49.3" y="-28.4" width="98.5" height="56.7" rx="17.3" fill="none" stroke="#F59E0B" stroke-width="9.5" opacity="0.55"/>
  <rect x="-21.7" y="-14.2" width="98.5" height="56.7" rx="17.3" fill="none" stroke="url(#strokeA)" stroke-width="7.9" opacity="0.55"/>
</g>


<g opacity="0.161">
  <line x1="1539.0" y1="893.3" x2="1539.0" y2="1011.0" stroke="#F59E0B" stroke-width="2.05" opacity="0.45"/>
  <rect x="1533.7" y="960.2" width="10.5" height="54.4" rx="3.5" fill="#0B1020" opacity="0.55" stroke="url(#strokeA)" stroke-width="1.2"/>
</g>

<g opacity="0.161">
  <line x1="1216.6" y1="901.6" x2="1216.6" y2="1008.9" stroke="#F59E0B" stroke-width="1.67" opacity="0.45"/>
  <rect x="1213.5" y="963.3" width="6.2" height="48.2" rx="2.1" fill="#0B1020" opacity="0.55" stroke="url(#strokeA)" stroke-width="1.2"/>
</g>

<g opacity="0.161">
  <line x1="557.9" y1="914.8" x2="557.9" y2="1005.6" stroke="#F59E0B" stroke-width="1.75" opacity="0.45"/>
  <rect x="551.9" y="961.0" width="12.0" height="52.8" rx="4.0" fill="#0B1020" opacity="0.55" stroke="url(#strokeA)" stroke-width="1.2"/>
</g>

<g opacity="0.161">
  <line x1="94.8" y1="936.7" x2="94.8" y2="1000.1" stroke="#F59E0B" stroke-width="1.19" opacity="0.45"/>
  <rect x="91.8" y="975.4" width="6.1" height="24.1" rx="2.0" fill="#0B1020" opacity="0.55" stroke="url(#strokeA)" stroke-width="1.2"/>
</g>

<g opacity="0.161">
  <line x1="88.1" y1="920.9" x2="88.1" y2="1004.1" stroke="#F59E0B" stroke-width="1.63" opacity="0.45"/>
  <rect x="84.3" y="968.3" width="7.5" height="38.3" rx="2.5" fill="#0B1020" opacity="0.55" stroke="url(#strokeA)" stroke-width="1.2"/>
</g>

<g opacity="0.161">
  <line x1="51.2" y1="909.5" x2="51.2" y2="1006.9" stroke="#F59E0B" stroke-width="2.05" opacity="0.45"/>
  <rect x="47.5" y="965.4" width="7.4" height="44.1" rx="2.5" fill="#0B1020" opacity="0.55" stroke="url(#strokeA)" stroke-width="1.2"/>
</g>

<g opacity="0.161">
  <line x1="1141.1" y1="953.9" x2="1141.1" y2="995.8" stroke="#F59E0B" stroke-width="1.41" opacity="0.45"/>
  <rect x="1136.7" y="976.8" width="8.8" height="21.3" rx="2.9" fill="#0B1020" opacity="0.55" stroke="url(#strokeA)" stroke-width="1.2"/>
</g>

<g opacity="0.161">
  <line x1="578.3" y1="948.9" x2="578.3" y2="997.1" stroke="#F59E0B" stroke-width="1.33" opacity="0.45"/>
  <rect x="573.0" y="977.9" width="10.6" height="19.0" rx="3.5" fill="#0B1020" opacity="0.55" stroke="url(#strokeA)" stroke-width="1.2"/>
</g>

<g opacity="0.161">
  <line x1="287.4" y1="922.0" x2="287.4" y2="1003.8" stroke="#F59E0B" stroke-width="1.54" opacity="0.45"/>
  <rect x="283.2" y="966.5" width="8.3" height="41.9" rx="2.8" fill="#0B1020" opacity="0.55" stroke="url(#strokeA)" stroke-width="1.2"/>
</g>

<g opacity="0.161">
  <line x1="1106.8" y1="908.7" x2="1106.8" y2="1007.1" stroke="#F59E0B" stroke-width="1.23" opacity="0.45"/>
  <rect x="1101.8" y="962.4" width="10.0" height="50.1" rx="3.3" fill="#0B1020" opacity="0.55" stroke="url(#strokeA)" stroke-width="1.2"/>
</g>

<g opacity="0.161">
  <line x1="1412.8" y1="916.4" x2="1412.8" y2="1005.2" stroke="#F59E0B" stroke-width="1.49" opacity="0.45"/>
  <rect x="1409.3" y="960.6" width="7.1" height="53.7" rx="2.4" fill="#0B1020" opacity="0.55" stroke="url(#strokeA)" stroke-width="1.2"/>
</g>

<g opacity="0.161">
  <line x1="1666.4" y1="909.1" x2="1666.4" y2="1007.0" stroke="#F59E0B" stroke-width="1.73" opacity="0.45"/>
  <rect x="1661.9" y="966.8" width="9.0" height="41.2" rx="3.0" fill="#0B1020" opacity="0.55" stroke="url(#strokeA)" stroke-width="1.2"/>
</g>

<g opacity="0.161">
  <line x1="200.9" y1="934.2" x2="200.9" y2="1000.7" stroke="#F59E0B" stroke-width="1.99" opacity="0.45"/>
  <rect x="195.7" y="965.9" width="10.5" height="43.0" rx="3.5" fill="#0B1020" opacity="0.55" stroke="url(#strokeA)" stroke-width="1.2"/>
</g>

<g opacity="0.161">
  <line x1="1652.3" y1="940.9" x2="1652.3" y2="999.1" stroke="#F59E0B" stroke-width="1.99" opacity="0.45"/>
  <rect x="1648.8" y="973.9" width="6.9" height="27.1" rx="2.3" fill="#0B1020" opacity="0.55" stroke="url(#strokeA)" stroke-width="1.2"/>
</g>
<circle cx="162.9" cy="112.4" r="1.5" fill="#22D3EE" opacity="0.15" filter="url(#softGlow)"/>
<circle cx="858.9" cy="1022.7" r="1.9" fill="#22D3EE" opacity="0.26" filter="url(#softGlow)"/>
<circle cx="1716.1" cy="991.3" r="2.4" fill="#22D3EE" opacity="0.15" filter="url(#softGlow)"/>
<circle cx="73.2" cy="877.4" r="2.5" fill="#22D3EE" opacity="0.17" filter="url(#softGlow)"/>
<circle cx="1895.5" cy="168.3" r="2.3" fill="#22D3EE" opacity="0.14" filter="url(#softGlow)"/>
<circle cx="1753.9" cy="197.6" r="3.2" fill="#22D3EE" opacity="0.15" filter="url(#softGlow)"/>
<circle cx="1728.2" cy="114.2" r="2.8" fill="#22D3EE" opacity="0.23" filter="url(#softGlow)"/>
<circle cx="288.3" cy="113.0" r="3.1" fill="#22D3EE" opacity="0.18" filter="url(#softGlow)"/>
<circle cx="1583.6" cy="29.6" r="2.9" fill="#22D3EE" opacity="0.23" filter="url(#softGlow)"/>
<circle cx="133.8" cy="127.2" r="3.1" fill="#22D3EE" opacity="0.21" filter="url(#softGlow)"/>
<circle cx="192.4" cy="267.8" r="2.2" fill="#22D3EE" opacity="0.10" filter="url(#softGlow)"/>
<circle cx="1737.1" cy="96.9" r="2.2" fill="#22D3EE" opacity="0.12" filter="url(#softGlow)"/>
<circle cx="113.9" cy="187.0" r="2.5" fill="#22D3EE" opacity="0.25" filter="url(#softGlow)"/>
<circle cx="1338.6" cy="1037.3" r="1.7" fill="#22D3EE" opacity="0.20" filter="url(#softGlow)"/>
<circle cx="1834.2" cy="1077.1" r="1.5" fill="#22D3EE" opacity="0.12" filter="url(#softGlow)"/>
<circle cx="207.1" cy="885.0" r="1.7" fill="#22D3EE" opacity="0.22" filter="url(#softGlow)"/>
<circle cx="118.5" cy="96.1" r="2.2" fill="#22D3EE" opacity="0.11" filter="url(#softGlow)"/>
<circle cx="488.1" cy="6.9" r="2.5" fill="#22D3EE" opacity="0.25" filter="url(#softGlow)"/>
<circle cx="172.8" cy="108.0" r="1.6" fill="#22D3EE" opacity="0.11" filter="url(#softGlow)"/>
<circle cx="136.6" cy="195.2" r="2.0" fill="#22D3EE" opacity="0.15" filter="url(#softGlow)"/>
</svg>