<svg xmlns="http://www.w3.org/2000/svg" width="1920" height="1080" viewBox="0 0 1920 1080" preserveAspectRatio="xMidYMid slice">
<defs>
  <linearGradient id="g0" x1="0" y1="0" x2="1" y2="1">
    <stop offset="0" stop-color="#0B1020"/>
    <stop offset="0.55" stop-color="#2DD4BF" stop-opacity="0.9"/>
    <stop offset="1" stop-color="#020617"/>
  </linearGradient>
  <radialGradient id="g1" cx="20%" cy="15%" r="70%">
    <stop offset="0" stop-color="#60A5FA" stop-opacity="0.38"/>
    <stop offset="0.6" stop-color="#60A5FA" stop-opacity="0.08"/>
    <stop offset="1" stop-color="#60A5FA" stop-opacity="0"/>
  </radialGradient>
  <radialGradient id="g2" cx="85%" cy="80%" r="75%">
    <stop offset="0" stop-color="#60A5FA" stop-opacity="0.28"/>
    <stop offset="0.65" stop-color="#60A5FA" stop-opacity="0.06"/>
    <stop offset="1" stop-color="#60A5FA" stop-opacity="0"/>
  </radialGradient>
  <filter id="softGlow" x="-30%" y="-30%" width="160%" height="160%">
    <feGaussianBlur stdDeviation="12" result="b"/>
    <feMerge>
      <feMergeNode in="b"/>
      <feMergeNode in="SourceGraphic"/>
    </feMerge>
  </filter>
  <filter id="hardGlow" x="-40%" y="-40%" width="180%" height="180%">
    <feGaussianBlur stdDeviation="6" result="b"/>
    <feColorMatrix in="b" type="matrix" values="1 0 0 0 0  0 1 0 0 0  0 0 1 0 0  0 0 0 18 -7" result="c"/>
    <feMerge>
      <feMergeNode in="c"/>
      <feMergeNode in="SourceGraphic"/>
    </feMerge>
  </filter>
  <linearGradient id="strokeA" x1="0" y1="0" x2="1" y2="0">
    <stop offset="0" stop-color="#60A5FA" stop-opacity="0.9"/>
    <stop offset="0.5" stop-color="#FFFFFF" stop-opacity="0.25"/>
    <stop offset="1" stop-color="#60A5FA" stop-opacity="0.7"/>
  </linearGradient>
  <linearGradient id="strokeB" x1="0" y1="0" x2="0" y2="1">
    <stop offset="0" stop-color="#FFFFFF" stop-opacity="0.18"/>
    <stop offset="1" stop-color="#60A5FA" stop-opacity="0.55"/>
  </linearGradient>
</defs>
<rect x="0" y="0" width="1920" height="1080" fill="url(#g0)"/>
<rect x="0" y="0" width="1920" height="1080" fill="url(#g1)"/>
<rect x="0" y="0" width="1920" height="1080" fill="url(#g2)"/>


<defs>
  <radialGradient id="vign" cx="0.5000" cy="0.5093" r="0.85">
    <stop offset="0" stop-color="#000000" stop-opacity="0"/>
    <stop offset="0.55" stop-color="#000000" stop-opacity="0.217"/>
    <stop offset="1" stop-color="#000000" stop-opacity="0.620"/>
  </radialGradient>
</defs>
<rect x="0" y="0" width="1920" height="1080" fill="url(#vign)"/>

<g opacity="0.252" filter="url(#softGlow)"><path d="M 54.1,11.4 L 694.0,11.4 L 694.0,966.4 L 25.9,966.4 L 25.9,960.3 " fill="none" stroke="url(#strokeB)" stroke-width="1.61" stroke-linecap="round" stroke-linejoin="round"/><circle cx="694.0" cy="11.4" r="3.4" fill="#60A5FA" opacity="0.45"/><circle cx="54.1" cy="11.4" r="2.2" fill="#60A5FA" opacity="0.45"/><circle cx="694.0" cy="966.4" r="2.5" fill="#60A5FA" opacity="0.45"/></g>
<g opacity="0.252" filter="url(#softGlow)"><path d="M 434.7,63.6 L 40.7,63.6 L 40.7,314.8 L 72.9,314.8 L 72.9,1058.8 " fill="none" stroke="url(#strokeB)" stroke-width="1.54" stroke-linecap="round" stroke-linejoin="round"/><circle cx="434.7" cy="63.6" r="2.5" fill="#60A5FA" opacity="0.45"/><circle cx="72.9" cy="1058.8" r="3.1" fill="#60A5FA" opacity="0.45"/><circle cx="40.7" cy="314.8" r="2.7" fill="#60A5FA" opacity="0.45"/></g>
<g opacity="0.252" filter="url(#softGlow)"><path d="M 1913.4,1059.7 L 43.9,1059.7 L 43.9,922.0 L 211.4,922.0 L 211.4,305.3 " fill="none" stroke="url(#strokeB)" stroke-width="1.33" stroke-linecap="round" stroke-linejoin="round"/><circle cx="1913.4" cy="1059.7" r="4.2" fill="#60A5FA" opacity="0.45"/><circle cx="43.9" cy="922.0" r="3.8" fill="#60A5FA" opacity="0.45"/><circle cx="211.4" cy="305.3" r="3.0" fill="#60A5FA" opacity="0.45"/></g>
<g opacity="0.252" filter="url(#softGlow)"><path d="M 31.2,214.0 L 43.9,214.0 L 43.9,117.8 L 92.5,117.8 L 92.5,117.7 " fill="none" stroke="url(#strokeB)" stroke-width="1.81" stroke-linecap="round" stroke-linejoin="round"/><circle cx="43.9" cy="214.0" r="2.5" fill="#60A5FA" opacity="0.45"/><circle cx="43.9" cy="117.8" r="3.2" fill="#60A5FA" opacity="0.45"/><circle cx="92.5" cy="117.7" r="3.0" fill="#60A5FA" opacity="0.45"/></g>
<g opacity="0.252" filter="url(#softGlow)"><path d="M 1866.5,28.5 L 811.5,28.5 L 811.5,31.4 L 800.5,31.4 L 800.5,1026.5 " fill="none" stroke="url(#strokeB)" stroke-width="1.66" stroke-linecap="round" stroke-linejoin="round"/><circle cx="811.5" cy="31.4" r="2.9" fill="#60A5FA" opacity="0.45"/><circle cx="811.5" cy="28.5" r="3.6" fill="#60A5FA" opacity="0.45"/><circle cx="800.5" cy="1026.5" r="3.9" fill="#60A5FA" opacity="0.45"/></g>
<g opacity="0.252" filter="url(#softGlow)"><path d="M 1811.7,704.5 L 10.2,704.5 L 10.2,743.4 L 1837.2,743.4 L 1837.2,958.0 " fill="none" stroke="url(#strokeB)" stroke-width="1.45" stroke-linecap="round" stroke-linejoin="round"/><circle cx="1837.2" cy="743.4" r="3.1" fill="#60A5FA" opacity="0.45"/><circle cx="10.2" cy="743.4" r="3.4" fill="#60A5FA" opacity="0.45"/><circle cx="10.2" cy="704.5" r="2.2" fill="#60A5FA" opacity="0.45"/></g>
<g opacity="0.252" filter="url(#softGlow)"><path d="M 1901.8,956.6 L 1850.0,956.6 L 1850.0,872.7 L 616.8,872.7 L 616.8,1028.9 " fill="none" stroke="url(#strokeB)" stroke-width="1.51" stroke-linecap="round" stroke-linejoin="round"/><circle cx="616.8" cy="872.7" r="3.2" fill="#60A5FA" opacity="0.45"/><circle cx="1850.0" cy="956.6" r="3.0" fill="#60A5FA" opacity="0.45"/><circle cx="1850.0" cy="872.7" r="3.0" fill="#60A5FA" opacity="0.45"/></g>
<g opacity="0.252" filter="url(#softGlow)"><path d="M 92.0,1036.7 L 658.6,1036.7 L 658.6,58.5 L 18.9,58.5 L 18.9,866.3 " fill="none" stroke="url(#strokeB)" stroke-width="1.77" stroke-linecap="round" stroke-linejoin="round"/><circle cx="658.6" cy="1036.7" r="2.3" fill="#60A5FA" opacity="0.45"/><circle cx="92.0" cy="1036.7" r="3.7" fill="#60A5FA" opacity="0.45"/><circle cx="658.6" cy="58.5" r="2.6" fill="#60A5FA" opacity="0.45"/></g>
<g opacity="0.252" filter="url(#softGlow)"><path d="M 433.8,1009.9 L 55.7,1009.9 L 55.7,980.4 L 1868.1,980.4 L 1868.1,215.1 " fill="none" stroke="url(#strokeB)" stroke-width="1.80" stroke-linecap="round" stroke-linejoin="round"/><circle cx="55.7" cy="1009.9" r="3.9" fill="#60A5FA" opacity="0.45"/><circle cx="55.7" cy="980.4" r="3.8" fill="#60A5FA" opacity="0.45"/><circle cx="1868.1" cy="215.1" r="3.5" fill="#60A5FA" opacity="0.45"/></g>
<g opacity="0.252" filter="url(#softGlow)"><path d="M 1750.6,871.9 L 1670.0,871.9 L 1670.0,1043.8 L 1800.5,1043.8 L 1800.5,890.0 " fill="none" stroke="url(#strokeB)" stroke-width="1.17" stroke-linecap="round" stroke-linejoin="round"/><circle cx="1800.5" cy="1043.8" r="2.9" fill="#60A5FA" opacity="0.45"/><circle cx="1800.5" cy="890.0" r="2.4" fill="#60A5FA" opacity="0.45"/><circle cx="1670.0" cy="1043.8" r="4.1" fill="#60A5FA" opacity="0.45"/></g>
<g opacity="0.252" filter="url(#softGlow)"><path d="M 1835.2,164.1 L 97.3,164.1 L 97.3,12.8 L 1823.4,12.8 L 1823.4,145.1 " fill="none" stroke="url(#strokeB)" stroke-width="1.56" stroke-linecap="round" stroke-linejoin="round"/><circle cx="1823.4" cy="12.8" r="2.2" fill="#60A5FA" opacity="0.45"/><circle cx="1823.4" cy="145.1" r="3.0" fill="#60A5FA" opacity="0.45"/><circle cx="97.3" cy="164.1" r="2.3" fill="#60A5FA" opacity="0.45"/></g>
<g opacity="0.252" filter="url(#softGlow)"><path d="M 307.9,75.6 L 189.9,75.6 L 189.9,176.5 L 3.0,176.5 L 3.0,163.7 " fill="none" stroke="url(#strokeB)" stroke-width="2.04" stroke-linecap="round" stroke-linejoin="round"/><circle cx="189.9" cy="75.6" r="3.3" fill="#60A5FA" opacity="0.45"/><circle cx="3.0" cy="163.7" r="2.2" fill="#60A5FA" opacity="0.45"/><circle cx="189.9" cy="176.5" r="3.1" fill="#60A5FA" opacity="0.45"/></g>
<g opacity="0.252" filter="url(#softGlow)"><path d="M 267.7,38.2 L 1239.0,38.2 L 1239.0,9.4 L 110.4,9.4 L 110.4,69.1 " fill="none" stroke="url(#strokeB)" stroke-width="1.50" stroke-linecap="round" stroke-linejoin="round"/><circle cx="1239.0" cy="9.4" r="2.5" fill="#60A5FA" opacity="0.45"/><circle cx="110.4" cy="9.4" r="3.0" fill="#60A5FA" opacity="0.45"/><circle cx="110.4" cy="69.1" r="2.3" fill="#60A5FA" opacity="0.45"/></g>
<g opacity="0.252" filter="url(#softGlow)"><path d="M 205.2,821.0 L 163.4,821.0 L 163.4,1061.1 L 52.0,1061.1 L 52.0,771.2 " fill="none" stroke="url(#strokeB)" stroke-width="1.44" stroke-linecap="round" stroke-linejoin="round"/><circle cx="163.4" cy="1061.1" r="3.8" fill="#60A5FA" opacity="0.45"/><circle cx="52.0" cy="1061.1" r="3.1" fill="#60A5FA" opacity="0.45"/><circle cx="163.4" cy="821.0" r="4.1" fill="#60A5FA" opacity="0.45"/></g>
<g opacity="0.252" filter="url(#softGlow)"><path d="M 47.7,1003.2 L 1710.1,1003.2 L 1710.1,23.5 L 1732.9,23.5 L 1732.9,74.3 " fill="none" stroke="url(#strokeB)" stroke-width="1.87" stroke-linecap="round" stroke-linejoin="round"/><circle cx="1710.1" cy="23.5" r="3.5" fill="#60A5FA" opacity="0.45"/><circle cx="1710.1" cy="1003.2" r="3.5" fill="#60A5FA" opacity="0.45"/><circle cx="1732.9" cy="23.5" r="2.0" fill="#60A5FA" opacity="0.45"/></g>
<g opacity="0.252" filter="url(#softGlow)"><path d="M 102.0,603.5 L 66.3,603.5 L 66.3,1075.8 L 127.5,1075.8 L 127.5,334.4 " fill="none" stroke="url(#strokeB)" stroke-width="1.58" stroke-linecap="round" stroke-linejoin="round"/><circle cx="127.5" cy="334.4" r="3.1" fill="#60A5FA" opacity="0.45"/><circle cx="102.0" cy="603.5" r="2.1" fill="#60A5FA" opacity="0.45"/><circle cx="66.3" cy="603.5" r="2.7" fill="#60A5FA" opacity="0.45"/></g>
<g opacity="0.252" filter="url(#softGlow)"><path d="M 1710.1,987.2 L 140.5,987.2 L 140.5,883.5 L 1723.4,883.5 L 1723.4,141.4 " fill="none" stroke="url(#strokeB)" stroke-width="1.48" stroke-linecap="round" stroke-linejoin="round"/><circle cx="140.5" cy="883.5" r="2.7" fill="#60A5FA" opacity="0.45"/><circle cx="140.5" cy="987.2" r="3.1" fill="#60A5FA" opacity="0.45"/><circle cx="1710.1" cy="987.2" r="2.4" fill="#60A5FA" opacity="0.45"/></g>

<g opacity="0.819" filter="url(#hardGlow)">
  <circle cx="120.0" cy="972.1" r="64.3" fill="#0A1224" opacity="0.65"/>
  <circle cx="120.0" cy="972.1" r="64.3" fill="none" stroke="url(#strokeA)" stroke-width="5.1" opacity="0.85"/>
  <circle cx="120.0" cy="972.1" r="55.3" fill="none" stroke="#F472B6" stroke-width="1.9" opacity="0.35"/>
  <polygon points="125.2,926.1 162.4,953.5 157.3,999.5 114.9,1018.1 77.6,990.6 82.8,944.6" fill="none" stroke="url(#strokeB)" stroke-width="1.6" opacity="0.65"/>
  <polygon points="127.2,957.5 129.0,985.5 103.9,973.1" fill="#F472B6" opacity="0.22" filter="url(#softGlow)"/>
</g>


<g opacity="0.355" filter="url(#hardGlow)">
  <circle cx="215.2" cy="969.2" r="28.7" fill="#0A1224" opacity="0.65"/>
  <circle cx="215.2" cy="969.2" r="28.7" fill="none" stroke="url(#strokeA)" stroke-width="2.3" opacity="0.85"/>
  <circle cx="215.2" cy="969.2" r="24.7" fill="none" stroke="#60A5FA" stroke-width="1.5" opacity="0.35"/>
  <polygon points="226.9,986.3 206.3,987.8 194.6,970.8 203.6,952.1 224.2,950.6 235.8,967.6" fill="none" stroke="url(#strokeB)" stroke-width="1.2" opacity="0.65"/>
  <polygon points="217.0,976.2 208.3,967.2 220.4,964.1" fill="#60A5FA" opacity="0.22" filter="url(#softGlow)"/>
</g>


<g opacity="0.914" filter="url(#hardGlow)">
  <circle cx="153.9" cy="827.5" r="52.0" fill="#0A1224" opacity="0.65"/>
  <circle cx="153.9" cy="827.5" r="52.0" fill="none" stroke="url(#strokeA)" stroke-width="4.2" opacity="0.85"/>
  <circle cx="153.9" cy="827.5" r="44.7" fill="none" stroke="#F472B6" stroke-width="1.6" opacity="0.35"/>
  <polygon points="148.6,790.4 183.3,804.3 188.7,841.4 159.2,864.5 124.5,850.6 119.1,813.5" fill="none" stroke="url(#strokeB)" stroke-width="1.3" opacity="0.65"/>
  <polygon points="156.6,814.6 163.7,836.2 141.4,831.5" fill="#F472B6" opacity="0.22" filter="url(#softGlow)"/>
</g>


<g opacity="0.635" filter="url(#hardGlow)">
  <circle cx="78.8" cy="849.9" r="24.8" fill="#0A1224" opacity="0.65"/>
  <circle cx="78.8" cy="849.9" r="24.8" fill="none" stroke="url(#strokeA)" stroke-width="2.0" opacity="0.85"/>
  <circle cx="78.8" cy="849.9" r="21.3" fill="none" stroke="#60A5FA" stroke-width="1.5" opacity="0.35"/>
  <polygon points="71.0,865.9 61.0,851.1 68.9,835.1 86.7,833.9 96.6,848.7 88.8,864.7" fill="none" stroke="url(#strokeB)" stroke-width="1.2" opacity="0.65"/>
  
</g>


<g opacity="0.914" filter="url(#hardGlow)">
  <circle cx="43.0" cy="1001.9" r="66.3" fill="#0A1224" opacity="0.65"/>
  <circle cx="43.0" cy="1001.9" r="66.3" fill="none" stroke="url(#strokeA)" stroke-width="5.3" opacity="0.85"/>
  <circle cx="43.0" cy="1001.9" r="57.0" fill="none" stroke="#F472B6" stroke-width="2.0" opacity="0.35"/>
  <polygon points="57.9,1047.3 11.1,1037.4 -3.7,992.0 28.2,956.5 74.9,966.3 89.8,1011.7" fill="none" stroke="url(#strokeB)" stroke-width="1.7" opacity="0.65"/>
  <polygon points="42.5,1018.6 28.9,993.0 57.8,994.0" fill="#F472B6" opacity="0.22" filter="url(#softGlow)"/>
</g>


<g opacity="0.573" filter="url(#hardGlow)">
  <circle cx="-36.9" cy="1010.0" r="33.2" fill="#0A1224" opacity="0.65"/>
  <circle cx="-36.9" cy="1010.0" r="33.2" fill="none" stroke="url(#strokeA)" stroke-width="2.7" opacity="0.85"/>
  <circle cx="-36.9" cy="1010.0" r="28.6" fill="none" stroke="#60A5FA" stroke-width="1.5" opacity="0.35"/>
  <polygon points="-24.2,1030.2 -48.1,1031.2 -60.8,1010.9 -49.7,989.8 -25.8,988.8 -13.0,1009.1" fill="none" stroke="url(#strokeB)" stroke-width="1.2" opacity="0.65"/>
  <polygon points="-35.2,1018.2 -44.9,1007.4 -30.7,1004.4" fill="#60A5FA" opacity="0.22" filter="url(#softGlow)"/>
</g>


<g opacity="0.482" filter="url(#hardGlow)">
  <circle cx="-62.0" cy="1071.3" r="23.4" fill="#0A1224" opacity="0.65"/>
  <circle cx="-62.0" cy="1071.3" r="23.4" fill="none" stroke="url(#strokeA)" stroke-width="2.0" opacity="0.85"/>
  <circle cx="-62.0" cy="1071.3" r="20.1" fill="none" stroke="#60A5FA" stroke-width="1.5" opacity="0.35"/>
  <polygon points="-46.1,1076.9 -58.9,1087.8 -74.8,1082.3 -77.9,1065.7 -65.1,1054.7 -49.2,1060.3" fill="none" stroke="url(#strokeB)" stroke-width="1.2" opacity="0.65"/>
  <polygon points="-57.4,1075.0 -67.5,1073.4 -61.0,1065.5" fill="#60A5FA" opacity="0.22" filter="url(#softGlow)"/>
</g>


<g opacity="0.498" filter="url(#hardGlow)">
  <circle cx="146.9" cy="936.9" r="34.3" fill="#0A1224" opacity="0.65"/>
  <circle cx="146.9" cy="936.9" r="34.3" fill="none" stroke="url(#strokeA)" stroke-width="2.7" opacity="0.85"/>
  <circle cx="146.9" cy="936.9" r="29.5" fill="none" stroke="#60A5FA" stroke-width="1.5" opacity="0.35"/>
  <polygon points="167.7,923.7 168.7,948.4 147.8,961.5 126.0,950.0 125.0,925.4 145.9,912.2" fill="none" stroke="url(#strokeB)" stroke-width="1.2" opacity="0.65"/>
  
</g>


<g opacity="0.877" filter="url(#hardGlow)">
  <circle cx="158.2" cy="148.3" r="47.7" fill="#0A1224" opacity="0.65"/>
  <circle cx="158.2" cy="148.3" r="47.7" fill="none" stroke="url(#strokeA)" stroke-width="3.8" opacity="0.85"/>
  <circle cx="158.2" cy="148.3" r="41.0" fill="none" stroke="#F472B6" stroke-width="1.5" opacity="0.35"/>
  <polygon points="181.8,173.4 148.3,181.2 124.8,156.2 134.7,123.3 168.1,115.4 191.7,140.5" fill="none" stroke="url(#strokeB)" stroke-width="1.2" opacity="0.65"/>
  <polygon points="163.0,159.4 146.3,146.9 165.4,138.7" fill="#F472B6" opacity="0.22" filter="url(#softGlow)"/>
</g>


<g opacity="0.557" filter="url(#hardGlow)">
  <circle cx="99.4" cy="203.0" r="17.9" fill="#0A1224" opacity="0.65"/>
  <circle cx="99.4" cy="203.0" r="17.9" fill="none" stroke="url(#strokeA)" stroke-width="2.0" opacity="0.85"/>
  <circle cx="99.4" cy="203.0" r="15.4" fill="none" stroke="#60A5FA" stroke-width="1.5" opacity="0.35"/>
  <polygon points="87.1,199.2 96.6,190.4 108.9,194.3 111.7,206.8 102.2,215.5 89.9,211.7" fill="none" stroke="url(#strokeB)" stroke-width="1.2" opacity="0.65"/>
  
</g>


<g opacity="0.594" filter="url(#hardGlow)">
  <circle cx="114.2" cy="139.4" r="21.6" fill="#0A1224" opacity="0.65"/>
  <circle cx="114.2" cy="139.4" r="21.6" fill="none" stroke="url(#strokeA)" stroke-width="2.0" opacity="0.85"/>
  <circle cx="114.2" cy="139.4" r="18.5" fill="none" stroke="#60A5FA" stroke-width="1.5" opacity="0.35"/>
  <polygon points="126.1,149.5 111.5,154.7 99.6,144.7 102.4,129.4 117.0,124.2 128.8,134.2" fill="none" stroke="url(#strokeB)" stroke-width="1.2" opacity="0.65"/>
  
</g>


<g opacity="0.424" filter="url(#hardGlow)">
  <circle cx="131.5" cy="189.5" r="26.2" fill="#0A1224" opacity="0.65"/>
  <circle cx="131.5" cy="189.5" r="26.2" fill="none" stroke="url(#strokeA)" stroke-width="2.1" opacity="0.85"/>
  <circle cx="131.5" cy="189.5" r="22.5" fill="none" stroke="#60A5FA" stroke-width="1.5" opacity="0.35"/>
  <polygon points="143.1,204.4 124.4,207.0 112.8,192.1 119.9,174.6 138.6,172.0 150.2,186.9" fill="none" stroke="url(#strokeB)" stroke-width="1.2" opacity="0.65"/>
  <polygon points="133.5,195.8 125.0,188.1 135.9,184.6" fill="#60A5FA" opacity="0.22" filter="url(#softGlow)"/>
</g>


<g opacity="0.726" filter="url(#hardGlow)">
  <circle cx="49.8" cy="922.8" r="64.0" fill="#0A1224" opacity="0.65"/>
  <circle cx="49.8" cy="922.8" r="64.0" fill="none" stroke="url(#strokeA)" stroke-width="5.1" opacity="0.85"/>
  <circle cx="49.8" cy="922.8" r="55.0" fill="none" stroke="#F472B6" stroke-width="1.9" opacity="0.35"/>
  <polygon points="59.9,967.7 15.9,954.0 5.8,909.0 39.7,877.8 83.6,891.5 93.7,936.5" fill="none" stroke="url(#strokeB)" stroke-width="1.6" opacity="0.65"/>
  <polygon points="47.7,938.8 37.0,913.0 64.7,916.5" fill="#F472B6" opacity="0.22" filter="url(#softGlow)"/>
</g>


<g opacity="0.547" filter="url(#hardGlow)">
  <circle cx="-13.3" cy="983.7" r="31.8" fill="#0A1224" opacity="0.65"/>
  <circle cx="-13.3" cy="983.7" r="31.8" fill="none" stroke="url(#strokeA)" stroke-width="2.5" opacity="0.85"/>
  <circle cx="-13.3" cy="983.7" r="27.3" fill="none" stroke="#60A5FA" stroke-width="1.5" opacity="0.35"/>
  <polygon points="0.9,965.7 9.4,986.9 -4.8,1004.9 -27.4,1001.7 -35.9,980.4 -21.8,962.4" fill="none" stroke="url(#strokeB)" stroke-width="1.2" opacity="0.65"/>
  <polygon points="-6.5,979.5 -13.0,991.7 -20.3,979.9" fill="#60A5FA" opacity="0.22" filter="url(#softGlow)"/>
</g>


<g opacity="0.650" filter="url(#hardGlow)">
  <circle cx="125.9" cy="930.7" r="32.2" fill="#0A1224" opacity="0.65"/>
  <circle cx="125.9" cy="930.7" r="32.2" fill="none" stroke="url(#strokeA)" stroke-width="2.6" opacity="0.85"/>
  <circle cx="125.9" cy="930.7" r="27.7" fill="none" stroke="#60A5FA" stroke-width="1.5" opacity="0.35"/>
  <polygon points="148.8,934.2 134.4,952.3 111.5,948.8 103.0,927.3 117.5,909.2 140.4,912.7" fill="none" stroke="url(#strokeB)" stroke-width="1.2" opacity="0.65"/>
  
</g>


<g opacity="0.469" filter="url(#hardGlow)">
  <circle cx="74.1" cy="949.2" r="24.1" fill="#0A1224" opacity="0.65"/>
  <circle cx="74.1" cy="949.2" r="24.1" fill="none" stroke="url(#strokeA)" stroke-width="2.0" opacity="0.85"/>
  <circle cx="74.1" cy="949.2" r="20.7" fill="none" stroke="#60A5FA" stroke-width="1.5" opacity="0.35"/>
  <polygon points="79.6,932.7 91.1,945.7 85.7,962.2 68.7,965.7 57.1,952.7 62.6,936.2" fill="none" stroke="url(#strokeB)" stroke-width="1.2" opacity="0.65"/>
  
</g>


<g opacity="0.842" filter="url(#hardGlow)">
  <circle cx="126.7" cy="925.1" r="57.9" fill="#0A1224" opacity="0.65"/>
  <circle cx="126.7" cy="925.1" r="57.9" fill="none" stroke="url(#strokeA)" stroke-width="4.6" opacity="0.85"/>
  <circle cx="126.7" cy="925.1" r="49.8" fill="none" stroke="#F472B6" stroke-width="1.7" opacity="0.35"/>
  <polygon points="125.0,966.7 89.8,944.4 91.5,902.8 128.5,883.5 163.7,905.8 161.9,947.4" fill="none" stroke="url(#strokeB)" stroke-width="1.4" opacity="0.65"/>
  <polygon points="121.2,938.6 117.8,913.6 141.2,923.2" fill="#F472B6" opacity="0.22" filter="url(#softGlow)"/>
</g>


<g opacity="0.535" filter="url(#hardGlow)">
  <circle cx="105.1" cy="912.0" r="21.0" fill="#0A1224" opacity="0.65"/>
  <circle cx="105.1" cy="912.0" r="21.0" fill="none" stroke="url(#strokeA)" stroke-width="2.0" opacity="0.85"/>
  <circle cx="105.1" cy="912.0" r="18.1" fill="none" stroke="#60A5FA" stroke-width="1.5" opacity="0.35"/>
  <polygon points="106.9,927.1 93.0,921.0 91.3,906.0 103.4,897.0 117.3,903.0 119.0,918.1" fill="none" stroke="url(#strokeB)" stroke-width="1.2" opacity="0.65"/>
  <polygon points="103.9,917.2 101.3,908.4 110.2,910.5" fill="#60A5FA" opacity="0.22" filter="url(#softGlow)"/>
</g>


<g opacity="0.463" filter="url(#hardGlow)">
  <circle cx="180.7" cy="860.5" r="21.1" fill="#0A1224" opacity="0.65"/>
  <circle cx="180.7" cy="860.5" r="21.1" fill="none" stroke="url(#strokeA)" stroke-width="2.0" opacity="0.85"/>
  <circle cx="180.7" cy="860.5" r="18.1" fill="none" stroke="#60A5FA" stroke-width="1.5" opacity="0.35"/>
  <polygon points="195.4,856.7 191.3,871.3 176.6,875.1 166.0,864.2 170.1,849.6 184.8,845.9" fill="none" stroke="url(#strokeB)" stroke-width="1.2" opacity="0.65"/>
  
</g>


<g opacity="0.448" transform="translate(1885.9,1058.7) rotate(-0.2)" filter="url(#softGlow)">
  <rect x="-93.4" y="-71.8" width="186.7" height="143.6" rx="14.4" fill="#050A12" opacity="0.25"/>
  <rect x="-93.4" y="-71.8" width="186.7" height="143.6" rx="14.4" fill="none" stroke="url(#strokeA)" stroke-width="7.2" opacity="0.85"/>
  <rect x="-81.9" y="-60.3" width="163.8" height="120.6" rx="10.1" fill="none" stroke="#F472B6" stroke-width="2.9" opacity="0.35"/>
</g>


<g opacity="0.348" transform="translate(1794.6,174.1) rotate(-5.1)" filter="url(#softGlow)">
  <rect x="-103.6" y="-92.4" width="207.2" height="184.7" rx="18.5" fill="#050A12" opacity="0.25"/>
  <rect x="-103.6" y="-92.4" width="207.2" height="184.7" rx="18.5" fill="none" stroke="url(#strokeA)" stroke-width="9.2" opacity="0.85"/>
  <rect x="-88.8" y="-77.6" width="177.6" height="155.2" rx="12.9" fill="none" stroke="#60A5FA" stroke-width="3.7" opacity="0.35"/>
</g>


<g opacity="0.382" transform="translate(140.3,918.2) rotate(-2.7)" filter="url(#softGlow)">
  <rect x="-76.7" y="-54.7" width="153.4" height="109.5" rx="10.9" fill="#050A12" opacity="0.25"/>
  <rect x="-76.7" y="-54.7" width="153.4" height="109.5" rx="10.9" fill="none" stroke="url(#strokeA)" stroke-width="5.5" opacity="0.85"/>
  <rect x="-67.9" y="-46.0" width="135.9" height="92.0" rx="7.7" fill="none" stroke="#F472B6" stroke-width="2.2" opacity="0.35"/>
</g>


<g opacity="0.283" transform="translate(76.0,24.7) rotate(-7.5)" filter="url(#softGlow)">
  <rect x="-76.0" y="-54.8" width="152.0" height="109.6" rx="11.0" fill="#050A12" opacity="0.25"/>
  <rect x="-76.0" y="-54.8" width="152.0" height="109.6" rx="11.0" fill="none" stroke="url(#strokeA)" stroke-width="5.5" opacity="0.85"/>
  <rect x="-67.2" y="-46.0" width="134.4" height="92.1" rx="7.7" fill="none" stroke="#60A5FA" stroke-width="2.2" opacity="0.35"/>
</g>


<g opacity="0.280" transform="translate(102.4,137.3) rotate(-4.4)" filter="url(#softGlow)">
  <rect x="-90.7" y="-67.9" width="181.4" height="135.8" rx="13.6" fill="#050A12" opacity="0.25"/>
  <rect x="-90.7" y="-67.9" width="181.4" height="135.8" rx="13.6" fill="none" stroke="url(#strokeA)" stroke-width="6.8" opacity="0.85"/>
  <rect x="-79.9" y="-57.1" width="159.7" height="114.1" rx="9.5" fill="none" stroke="#60A5FA" stroke-width="2.7" opacity="0.35"/>
</g>


<g opacity="0.334" transform="translate(44.9,126.1) rotate(13.8)" filter="url(#softGlow)">
  <rect x="-46.3" y="-26.6" width="92.5" height="53.3" rx="16.3" fill="none" stroke="#F472B6" stroke-width="8.9" opacity="0.55"/>
  <rect x="-20.4" y="-13.3" width="92.5" height="53.3" rx="16.3" fill="none" stroke="url(#strokeA)" stroke-width="7.4" opacity="0.55"/>
</g>


<g opacity="0.380" transform="translate(1892.4,166.4) rotate(-3.0)" filter="url(#softGlow)">
  <rect x="-50.5" y="-29.1" width="100.9" height="58.1" rx="17.8" fill="none" stroke="#F472B6" stroke-width="9.7" opacity="0.55"/>
  <rect x="-22.2" y="-14.5" width="100.9" height="58.1" rx="17.8" fill="none" stroke="url(#strokeA)" stroke-width="8.1" opacity="0.55"/>
</g>


<g opacity="0.414" transform="translate(75.5,167.3) rotate(4.6)" filter="url(#softGlow)">
  <rect x="-41.6" y="-24.0" width="83.2" height="48.0" rx="14.7" fill="none" stroke="#60A5FA" stroke-width="8.0" opacity="0.55"/>
  <rect x="-18.3" y="-12.0" width="83.2" height="48.0" rx="14.7" fill="none" stroke="url(#strokeA)" stroke-width="6.7" opacity="0.55"/>
</g>


<g opacity="0.458" transform="translate(1892.8,1007.1) rotate(-9.9)" filter="url(#softGlow)">
  <rect x="-51.6" y="-29.7" width="103.1" height="59.4" rx="18.2" fill="none" stroke="#F472B6" stroke-width="9.9" opacity="0.55"/>
  <rect x="-22.7" y="-14.9" width="103.1" height="59.4" rx="18.2" fill="none" stroke="url(#strokeA)" stroke-width="8.3" opacity="0.55"/>
</g>


<g opacity="0.385" transform="translate(134.0,388.4) rotate(-1.3)" filter="url(#softGlow)">
  <rect x="-42.2" y="-24.3" width="84.3" height="48.6" rx="14.8" fill="none" stroke="#F472B6" stroke-width="8.1" opacity="0.55"/>
  <rect x="-18.6" y="-12.1" width="84.3" height="48.6" rx="14.8" fill="none" stroke="url(#strokeA)" stroke-width="6.7" opacity="0.55"/>
</g>


<g opacity="0.295" transform="translate(1804.5,104.7) rotate(-10.6)" filter="url(#softGlow)">
  <rect x="-51.1" y="-29.4" width="102.2" height="58.9" rx="18.0" fill="none" stroke="#F472B6" stroke-width="9.8" opacity="0.55"/>
  <rect x="-22.5" y="-14.7" width="102.2" height="58.9" rx="18.0" fill="none" stroke="url(#strokeA)" stroke-width="8.2" opacity="0.55"/>
</g>


<g opacity="0.473" transform="translate(1768.0,925.0) rotate(6.0)" filter="url(#softGlow)">
  <rect x="-47.3" y="-27.2" width="94.5" height="54.4" rx="16.6" fill="none" stroke="#F472B6" stroke-width="9.1" opacity="0.55"/>
  <rect x="-20.8" y="-13.6" width="94.5" height="54.4" rx="16.6" fill="none" stroke="url(#strokeA)" stroke-width="7.6" opacity="0.55"/>
</g>


<g opacity="0.300" transform="translate(92.0,812.9) rotate(-2.1)" filter="url(#softGlow)">
  <rect x="-47.9" y="-27.6" width="95.7" height="55.1" rx="16.8" fill="none" stroke="#F472B6" stroke-width="9.2" opacity="0.55"/>
  <rect x="-21.1" y="-13.8" width="95.7" height="55.1" rx="16.8" fill="none" stroke="url(#strokeA)" stroke-width="7.7" opacity="0.55"/>
</g>


<g opacity="0.195">
  <line x1="97.9" y1="916.1" x2="97.9" y2="968.5" stroke="#60A5FA" stroke-width="2.17" opacity="0.45"/>
  <rect x="94.0" y="948.7" width="7.8" height="18.6" rx="2.6" fill="#0B1020" opacity="0.55" stroke="url(#strokeA)" stroke-width="1.2"/>
</g>

<g opacity="0.195">
  <line x1="12.3" y1="878.6" x2="12.3" y2="977.8" stroke="#60A5FA" stroke-width="1.60" opacity="0.45"/>
  <rect x="7.1" y="938.2" width="10.5" height="39.7" rx="3.5" fill="#0B1020" opacity="0.55" stroke="url(#strokeA)" stroke-width="1.2"/>
</g>

<g opacity="0.195">
  <line x1="149.8" y1="904.3" x2="149.8" y2="971.4" stroke="#60A5FA" stroke-width="1.16" opacity="0.45"/>
  <rect x="145.4" y="946.4" width="8.8" height="23.2" rx="2.9" fill="#0B1020" opacity="0.55" stroke="url(#strokeA)" stroke-width="1.2"/>
</g>

<g opacity="0.195">
  <line x1="291.4" y1="886.7" x2="291.4" y2="975.8" stroke="#60A5FA" stroke-width="1.86" opacity="0.45"/>
  <rect x="285.6" y="940.7" width="11.7" height="34.6" rx="3.9" fill="#0B1020" opacity="0.55" stroke="url(#strokeA)" stroke-width="1.2"/>
</g>

<g opacity="0.195">
  <line x1="1801.1" y1="880.2" x2="1801.1" y2="977.4" stroke="#60A5FA" stroke-width="1.11" opacity="0.45"/>
  <rect x="1796.9" y="935.8" width="8.3" height="44.3" rx="2.8" fill="#0B1020" opacity="0.55" stroke="url(#strokeA)" stroke-width="1.2"/>
</g>
<circle cx="206.0" cy="62.4" r="1.3" fill="#F472B6" opacity="0.12" filter="url(#softGlow)"/>
<circle cx="123.4" cy="26.8" r="2.6" fill="#F472B6" opacity="0.17" filter="url(#softGlow)"/>
<circle cx="1841.8" cy="1019.2" r="2.1" fill="#F472B6" opacity="0.17" filter="url(#softGlow)"/>
<circle cx="207.3" cy="944.0" r="1.5" fill="#F472B6" opacity="0.27" filter="url(#softGlow)"/>
<circle cx="109.2" cy="744.1" r="2.7" fill="#F472B6" opacity="0.27" filter="url(#softGlow)"/>
<circle cx="136.6" cy="1019.7" r="2.5" fill="#F472B6" opacity="0.14" filter="url(#softGlow)"/>
<circle cx="42.4" cy="1036.2" r="2.1" fill="#F472B6" opacity="0.11" filter="url(#softGlow)"/>
<circle cx="1762.5" cy="965.8" r="3.1" fill="#F472B6" opacity="0.16" filter="url(#softGlow)"/>
<circle cx="44.5" cy="155.2" r="3.1" fill="#F472B6" opacity="0.21" filter="url(#softGlow)"/>
<circle cx="1847.5" cy="1002.9" r="2.5" fill="#F472B6" opacity="0.26" filter="url(#softGlow)"/>
<circle cx="1836.3" cy="796.4" r="2.7" fill="#F472B6" opacity="0.10" filter="url(#softGlow)"/>
<circle cx="86.8" cy="574.1" r="2.7" fill="#F472B6" opacity="0.23" filter="url(#softGlow)"/>
<circle cx="183.9" cy="31.8" r="2.1" fill="#F472B6" opacity="0.23" filter="url(#softGlow)"/>
<circle cx="1707.1" cy="84.1" r="1.3" fill="#F472B6" opacity="0.11" filter="url(#softGlow)"/>
<circle cx="307.7" cy="110.6" r="1.5" fill="#F472B6" opacity="0.17" filter="url(#softGlow)"/>
<circle cx="178.2" cy="85.1" r="1.9" fill="#F472B6" opacity="0.21" filter="url(#softGlow)"/>
<circle cx="8.2" cy="82.6" r="2.6" fill="#F472B6" opacity="0.12" filter="url(#softGlow)"/>
<circle cx="1756.6" cy="312.7" r="1.7" fill="#F472B6" opacity="0.19" filter="url(#softGlow)"/>
<circle cx="174.3" cy="112.3" r="2.8" fill="#F472B6" opacity="0.26" filter="url(#softGlow)"/>
<circle cx="61.9" cy="111.6" r="2.5" fill="#F472B6" opacity="0.27" filter="url(#softGlow)"/>
<circle cx="1804.2" cy="1059.7" r="2.8" fill="#F472B6" opacity="0.16" filter="url(#softGlow)"/>
<circle cx="171.9" cy="155.0" r="1.9" fill="#F472B6" opacity="0.28" filter="url(#softGlow)"/>
<circle cx="120.2" cy="199.4" r="2.1" fill="#F472B6" opacity="0.19" filter="url(#softGlow)"/>
<circle cx="149.2" cy="194.1" r="1.9" fill="#F472B6" opacity="0.14" filter="url(#softGlow)"/>
<circle cx="1857.4" cy="1035.6" r="1.6" fill="#F472B6" opacity="0.26" filter="url(#softGlow)"/>
<circle cx="1863.6" cy="869.4" r="2.9" fill="#F472B6" opacity="0.12" filter="url(#softGlow)"/>
</svg>