<svg xmlns="http://www.w3.org/2000/svg" width="1920" height="1080" viewBox="0 0 1920 1080" preserveAspectRatio="xMidYMid slice">
<defs>
  <linearGradient id="g0" x1="0" y1="0" x2="1" y2="1">
    <stop offset="0" stop-color="#0B1020"/>
    <stop offset="0.55" stop-color="#E11D48" stop-opacity="0.9"/>
    <stop offset="1" stop-color="#020617"/>
  </linearGradient>
  <radialGradient id="g1" cx="20%" cy="15%" r="70%">
    <stop offset="0" stop-color="#7C3AED" stop-opacity="0.38"/>
    <stop offset="0.6" stop-color="#7C3AED" stop-opacity="0.08"/>
    <stop offset="1" stop-color="#7C3AED" stop-opacity="0"/>
  </radialGradient>
  <radialGradient id="g2" cx="85%" cy="80%" r="75%">
    <stop offset="0" stop-color="#7C3AED" stop-opacity="0.28"/>
    <stop offset="0.65" stop-color="#7C3AED" stop-opacity="0.06"/>
    <stop offset="1" stop-color="#7C3AED" stop-opacity="0"/>
  </radialGradient>
  <filter id="softGlow" x="-30%" y="-30%" width="160%" height="160%">
    <feGaussianBlur stdDeviation="12" result="b"/>
    <feMerge>
      <feMergeNode in="b"/>
      <feMergeNode in="SourceGraphic"/>
    </feMerge>
  </filter>
  <filter id="hardGlow" x="-40%" y="-40%" width="180%" height="180%">
    <feGaussianBlur stdDeviation="6" result="b"/>
    <feColorMatrix in="b" type="matrix" values="1 0 0 0 0  0 1 0 0 0  0 0 1 0 0  0 0 0 18 -7" result="c"/>
    <feMerge>
      <feMergeNode in="c"/>
      <feMergeNode in="SourceGraphic"/>
    </feMerge>
  </filter>
  <linearGradient id="strokeA" x1="0" y1="0" x2="1" y2="0">
    <stop offset="0" stop-color="#7C3AED" stop-opacity="0.9"/>
    <stop offset="0.5" stop-color="#FFFFFF" stop-opacity="0.25"/>
    <stop offset="1" stop-color="#7C3AED" stop-opacity="0.7"/>
  </linearGradient>
  <linearGradient id="strokeB" x1="0" y1="0" x2="0" y2="1">
    <stop offset="0" stop-color="#FFFFFF" stop-opacity="0.18"/>
    <stop offset="1" stop-color="#7C3AED" stop-opacity="0.55"/>
  </linearGradient>
</defs>
<rect x="0" y="0" width="1920" height="1080" fill="url(#g0)"/>
<rect x="0" y="0" width="1920" height="1080" fill="url(#g1)"/>
<rect x="0" y="0" width="1920" height="1080" fill="url(#g2)"/>


<defs>
  <radialGradient id="vign" cx="0.5000" cy="0.5093" r="0.85">
    <stop offset="0" stop-color="#000000" stop-opacity="0"/>
    <stop offset="0.55" stop-color="#000000" stop-opacity="0.217"/>
    <stop offset="1" stop-color="#000000" stop-opacity="0.620"/>
  </radialGradient>
</defs>
<rect x="0" y="0" width="1920" height="1080" fill="url(#vign)"/>

<g opacity="0.200" filter="url(#softGlow)"><path d="M 108.3,84.1 L 90.2,84.1 L 90.2,215.7 L 1896.0,215.7 L 1896.0,922.8 " fill="none" stroke="url(#strokeB)" stroke-width="2.01" stroke-linecap="round" stroke-linejoin="round"/><circle cx="90.2" cy="84.1" r="2.6" fill="#7C3AED" opacity="0.45"/><circle cx="90.2" cy="215.7" r="3.2" fill="#7C3AED" opacity="0.45"/><circle cx="1896.0" cy="922.8" r="2.1" fill="#7C3AED" opacity="0.45"/></g>
<g opacity="0.200" filter="url(#softGlow)"><path d="M 198.6,1041.1 L 44.1,1041.1 L 44.1,353.1 L 42.6,353.1 L 42.6,35.3 " fill="none" stroke="url(#strokeB)" stroke-width="1.74" stroke-linecap="round" stroke-linejoin="round"/><circle cx="198.6" cy="1041.1" r="2.9" fill="#7C3AED" opacity="0.45"/><circle cx="44.1" cy="1041.1" r="3.7" fill="#7C3AED" opacity="0.45"/><circle cx="44.1" cy="353.1" r="2.9" fill="#7C3AED" opacity="0.45"/></g>
<g opacity="0.200" filter="url(#softGlow)"><path d="M 1805.6,751.2 L 1761.6,751.2 L 1761.6,365.9 L 1843.7,365.9 L 1843.7,40.2 " fill="none" stroke="url(#strokeB)" stroke-width="2.20" stroke-linecap="round" stroke-linejoin="round"/><circle cx="1843.7" cy="40.2" r="2.3" fill="#7C3AED" opacity="0.45"/><circle cx="1761.6" cy="365.9" r="2.4" fill="#7C3AED" opacity="0.45"/><circle cx="1761.6" cy="751.2" r="3.7" fill="#7C3AED" opacity="0.45"/></g>
<g opacity="0.200" filter="url(#softGlow)"><path d="M 169.4,176.6 L 1808.5,176.6 L 1808.5,195.7 L 1906.9,195.7 L 1906.9,8.8 " fill="none" stroke="url(#strokeB)" stroke-width="1.88" stroke-linecap="round" stroke-linejoin="round"/><circle cx="1808.5" cy="176.6" r="2.6" fill="#7C3AED" opacity="0.45"/><circle cx="1808.5" cy="195.7" r="2.3" fill="#7C3AED" opacity="0.45"/><circle cx="1906.9" cy="195.7" r="3.8" fill="#7C3AED" opacity="0.45"/></g>
<g opacity="0.200" filter="url(#softGlow)"><path d="M 134.4,385.6 L 41.6,385.6 L 41.6,19.4 L 1892.7,19.4 L 1892.7,1013.1 " fill="none" stroke="url(#strokeB)" stroke-width="1.21" stroke-linecap="round" stroke-linejoin="round"/><circle cx="1892.7" cy="1013.1" r="2.8" fill="#7C3AED" opacity="0.45"/><circle cx="134.4" cy="385.6" r="2.0" fill="#7C3AED" opacity="0.45"/><circle cx="41.6" cy="385.6" r="2.7" fill="#7C3AED" opacity="0.45"/></g>
<g opacity="0.200" filter="url(#softGlow)"><path d="M 1717.9,879.7 L 1177.6,879.7 L 1177.6,122.0 L 1791.7,122.0 L 1791.7,88.0 " fill="none" stroke="url(#strokeB)" stroke-width="1.54" stroke-linecap="round" stroke-linejoin="round"/><circle cx="1717.9" cy="879.7" r="2.2" fill="#7C3AED" opacity="0.45"/><circle cx="1177.6" cy="122.0" r="2.8" fill="#7C3AED" opacity="0.45"/><circle cx="1791.7" cy="88.0" r="2.4" fill="#7C3AED" opacity="0.45"/></g>
<g opacity="0.200" filter="url(#softGlow)"><path d="M 613.5,1079.3 L 68.8,1079.3 L 68.8,1004.6 L 1860.4,1004.6 L 1860.4,280.4 " fill="none" stroke="url(#strokeB)" stroke-width="1.75" stroke-linecap="round" stroke-linejoin="round"/><circle cx="1860.4" cy="280.4" r="4.0" fill="#7C3AED" opacity="0.45"/><circle cx="68.8" cy="1004.6" r="4.2" fill="#7C3AED" opacity="0.45"/><circle cx="613.5" cy="1079.3" r="3.7" fill="#7C3AED" opacity="0.45"/></g>
<g opacity="0.200" filter="url(#softGlow)"><path d="M 778.4,1008.0 L 1733.4,1008.0 L 1733.4,114.9 L 1723.9,114.9 L 1723.9,428.0 " fill="none" stroke="url(#strokeB)" stroke-width="1.20" stroke-linecap="round" stroke-linejoin="round"/><circle cx="1723.9" cy="428.0" r="2.5" fill="#7C3AED" opacity="0.45"/><circle cx="1733.4" cy="1008.0" r="4.0" fill="#7C3AED" opacity="0.45"/><circle cx="778.4" cy="1008.0" r="2.3" fill="#7C3AED" opacity="0.45"/></g>
<g opacity="0.200" filter="url(#softGlow)"><path d="M 1784.5,1007.7 L 1757.0,1007.7 L 1757.0,788.1 L 681.4,788.1 L 681.4,5.1 " fill="none" stroke="url(#strokeB)" stroke-width="1.13" stroke-linecap="round" stroke-linejoin="round"/><circle cx="1757.0" cy="788.1" r="3.2" fill="#7C3AED" opacity="0.45"/><circle cx="1757.0" cy="1007.7" r="3.4" fill="#7C3AED" opacity="0.45"/><circle cx="681.4" cy="788.1" r="4.1" fill="#7C3AED" opacity="0.45"/></g>
<g opacity="0.200" filter="url(#softGlow)"><path d="M 93.1,7.4 L 1723.8,7.4 L 1723.8,1025.2 L 1807.5,1025.2 L 1807.5,893.9 " fill="none" stroke="url(#strokeB)" stroke-width="1.39" stroke-linecap="round" stroke-linejoin="round"/><circle cx="1807.5" cy="893.9" r="2.2" fill="#7C3AED" opacity="0.45"/><circle cx="93.1" cy="7.4" r="4.0" fill="#7C3AED" opacity="0.45"/><circle cx="1723.8" cy="1025.2" r="3.7" fill="#7C3AED" opacity="0.45"/></g>
<g opacity="0.200" filter="url(#softGlow)"><path d="M 5.9,971.2 L 1625.3,971.2 L 1625.3,933.8 L 1772.0,933.8 L 1772.0,994.9 " fill="none" stroke="url(#strokeB)" stroke-width="1.40" stroke-linecap="round" stroke-linejoin="round"/><circle cx="1772.0" cy="933.8" r="2.5" fill="#7C3AED" opacity="0.45"/><circle cx="1772.0" cy="994.9" r="2.1" fill="#7C3AED" opacity="0.45"/><circle cx="1625.3" cy="933.8" r="3.1" fill="#7C3AED" opacity="0.45"/></g>
<g opacity="0.200" filter="url(#softGlow)"><path d="M 184.7,1032.9 L 1913.9,1032.9 L 1913.9,114.3 L 181.9,114.3 L 181.9,50.2 " fill="none" stroke="url(#strokeB)" stroke-width="1.32" stroke-linecap="round" stroke-linejoin="round"/><circle cx="181.9" cy="50.2" r="2.1" fill="#7C3AED" opacity="0.45"/><circle cx="184.7" cy="1032.9" r="2.9" fill="#7C3AED" opacity="0.45"/><circle cx="1913.9" cy="1032.9" r="3.0" fill="#7C3AED" opacity="0.45"/></g>
<g opacity="0.200" filter="url(#softGlow)"><path d="M 1777.0,1066.5 L 1769.4,1066.5 L 1769.4,894.2 L 1831.9,894.2 L 1831.9,1067.5 " fill="none" stroke="url(#strokeB)" stroke-width="1.42" stroke-linecap="round" stroke-linejoin="round"/><circle cx="1831.9" cy="894.2" r="4.1" fill="#7C3AED" opacity="0.45"/><circle cx="1777.0" cy="1066.5" r="3.3" fill="#7C3AED" opacity="0.45"/><circle cx="1769.4" cy="894.2" r="3.3" fill="#7C3AED" opacity="0.45"/></g>
<g opacity="0.200" filter="url(#softGlow)"><path d="M 1792.7,103.0 L 1786.7,103.0 L 1786.7,134.9 L 88.2,134.9 L 88.2,23.8 " fill="none" stroke="url(#strokeB)" stroke-width="1.36" stroke-linecap="round" stroke-linejoin="round"/><circle cx="1792.7" cy="103.0" r="2.3" fill="#7C3AED" opacity="0.45"/><circle cx="1786.7" cy="134.9" r="2.1" fill="#7C3AED" opacity="0.45"/><circle cx="88.2" cy="23.8" r="2.9" fill="#7C3AED" opacity="0.45"/></g>
<g opacity="0.200" filter="url(#softGlow)"><path d="M 1255.1,1041.3 L 1713.6,1041.3 L 1713.6,339.3 L 45.0,339.3 L 45.0,885.2 " fill="none" stroke="url(#strokeB)" stroke-width="1.42" stroke-linecap="round" stroke-linejoin="round"/><circle cx="1713.6" cy="339.3" r="2.0" fill="#7C3AED" opacity="0.45"/><circle cx="45.0" cy="885.2" r="3.3" fill="#7C3AED" opacity="0.45"/><circle cx="45.0" cy="339.3" r="4.1" fill="#7C3AED" opacity="0.45"/></g>

<g opacity="0.697" filter="url(#hardGlow)">
  <circle cx="1848.9" cy="314.9" r="49.8" fill="#0A1224" opacity="0.65"/>
  <circle cx="1848.9" cy="314.9" r="49.8" fill="none" stroke="url(#strokeA)" stroke-width="4.0" opacity="0.85"/>
  <circle cx="1848.9" cy="314.9" r="42.8" fill="none" stroke="#22C55E" stroke-width="1.5" opacity="0.35"/>
  <polygon points="1813.1,313.2 1832.5,283.0 1868.3,284.8 1884.7,316.7 1865.3,346.8 1829.5,345.0" fill="none" stroke="url(#strokeB)" stroke-width="1.2" opacity="0.65"/>
  <polygon points="1837.4,310.0 1858.9,307.3 1850.5,327.4" fill="#22C55E" opacity="0.22" filter="url(#softGlow)"/>
</g>


<g opacity="0.363" filter="url(#hardGlow)">
  <circle cx="1916.2" cy="354.2" r="20.5" fill="#0A1224" opacity="0.65"/>
  <circle cx="1916.2" cy="354.2" r="20.5" fill="none" stroke="url(#strokeA)" stroke-width="2.0" opacity="0.85"/>
  <circle cx="1916.2" cy="354.2" r="17.7" fill="none" stroke="#7C3AED" stroke-width="1.5" opacity="0.35"/>
  <polygon points="1925.9,343.0 1930.7,357.0 1921.0,368.2 1906.5,365.4 1901.6,351.4 1911.4,340.2" fill="none" stroke="url(#strokeB)" stroke-width="1.2" opacity="0.65"/>
  
</g>


<g opacity="0.488" filter="url(#hardGlow)">
  <circle cx="1799.1" cy="301.3" r="18.9" fill="#0A1224" opacity="0.65"/>
  <circle cx="1799.1" cy="301.3" r="18.9" fill="none" stroke="url(#strokeA)" stroke-width="2.0" opacity="0.85"/>
  <circle cx="1799.1" cy="301.3" r="16.2" fill="none" stroke="#7C3AED" stroke-width="1.5" opacity="0.35"/>
  <polygon points="1812.7,302.2 1805.1,313.5 1791.5,312.6 1785.5,300.4 1793.1,289.1 1806.7,290.0" fill="none" stroke="url(#strokeB)" stroke-width="1.2" opacity="0.65"/>
  
</g>


<g opacity="0.597" filter="url(#hardGlow)">
  <circle cx="1801.6" cy="342.1" r="24.0" fill="#0A1224" opacity="0.65"/>
  <circle cx="1801.6" cy="342.1" r="24.0" fill="none" stroke="url(#strokeA)" stroke-width="2.0" opacity="0.85"/>
  <circle cx="1801.6" cy="342.1" r="20.6" fill="none" stroke="#7C3AED" stroke-width="1.5" opacity="0.35"/>
  <polygon points="1812.5,355.5 1795.5,358.2 1784.6,344.8 1790.7,328.7 1807.8,325.9 1818.7,339.3" fill="none" stroke="url(#strokeB)" stroke-width="1.2" opacity="0.65"/>
  
</g>


<g opacity="0.691" filter="url(#hardGlow)">
  <circle cx="1917.9" cy="758.4" r="57.8" fill="#0A1224" opacity="0.65"/>
  <circle cx="1917.9" cy="758.4" r="57.8" fill="none" stroke="url(#strokeA)" stroke-width="4.6" opacity="0.85"/>
  <circle cx="1917.9" cy="758.4" r="49.7" fill="none" stroke="#22C55E" stroke-width="1.7" opacity="0.35"/>
  <polygon points="1941.5,724.1 1959.4,761.7 1935.8,796.0 1894.3,792.7 1876.4,755.1 1900.0,720.8" fill="none" stroke="url(#strokeB)" stroke-width="1.4" opacity="0.65"/>
  <polygon points="1929.8,750.0 1919.3,772.9 1904.7,752.3" fill="#22C55E" opacity="0.22" filter="url(#softGlow)"/>
</g>


<g opacity="0.398" filter="url(#hardGlow)">
  <circle cx="1992.2" cy="752.2" r="29.7" fill="#0A1224" opacity="0.65"/>
  <circle cx="1992.2" cy="752.2" r="29.7" fill="none" stroke="url(#strokeA)" stroke-width="2.4" opacity="0.85"/>
  <circle cx="1992.2" cy="752.2" r="25.5" fill="none" stroke="#7C3AED" stroke-width="1.5" opacity="0.35"/>
  <polygon points="2005.0,769.2 1983.8,771.8 1971.0,754.7 1979.4,735.1 2000.6,732.5 2013.4,749.6" fill="none" stroke="url(#strokeB)" stroke-width="1.2" opacity="0.65"/>
  <polygon points="1994.4,759.3 1984.9,750.5 1997.3,746.7" fill="#7C3AED" opacity="0.22" filter="url(#softGlow)"/>
</g>


<g opacity="0.568" filter="url(#hardGlow)">
  <circle cx="1849.4" cy="734.8" r="28.4" fill="#0A1224" opacity="0.65"/>
  <circle cx="1849.4" cy="734.8" r="28.4" fill="none" stroke="url(#strokeA)" stroke-width="2.3" opacity="0.85"/>
  <circle cx="1849.4" cy="734.8" r="24.4" fill="none" stroke="#7C3AED" stroke-width="1.5" opacity="0.35"/>
  <polygon points="1836.8,718.6 1857.1,715.8 1869.6,732.0 1861.9,750.9 1841.6,753.7 1829.1,737.5" fill="none" stroke="url(#strokeB)" stroke-width="1.2" opacity="0.65"/>
  
</g>


<g opacity="0.391" filter="url(#hardGlow)">
  <circle cx="1923.4" cy="819.6" r="22.5" fill="#0A1224" opacity="0.65"/>
  <circle cx="1923.4" cy="819.6" r="22.5" fill="none" stroke="url(#strokeA)" stroke-width="2.0" opacity="0.85"/>
  <circle cx="1923.4" cy="819.6" r="19.3" fill="none" stroke="#7C3AED" stroke-width="1.5" opacity="0.35"/>
  <polygon points="1922.6,803.5 1937.0,810.8 1937.8,827.0 1924.3,835.8 1909.9,828.4 1909.0,812.3" fill="none" stroke="url(#strokeB)" stroke-width="1.2" opacity="0.65"/>
  <polygon points="1925.1,814.2 1927.3,823.8 1917.9,820.9" fill="#7C3AED" opacity="0.22" filter="url(#softGlow)"/>
</g>


<g opacity="0.873" filter="url(#hardGlow)">
  <circle cx="162.0" cy="139.4" r="63.6" fill="#0A1224" opacity="0.65"/>
  <circle cx="162.0" cy="139.4" r="63.6" fill="none" stroke="url(#strokeA)" stroke-width="5.1" opacity="0.85"/>
  <circle cx="162.0" cy="139.4" r="54.7" fill="none" stroke="#22C55E" stroke-width="1.9" opacity="0.35"/>
  <polygon points="177.5,182.5 132.4,174.3 117.0,131.2 146.5,96.3 191.6,104.5 207.1,147.5" fill="none" stroke="url(#strokeB)" stroke-width="1.6" opacity="0.65"/>
  <polygon points="161.9,155.4 148.2,131.3 175.9,131.4" fill="#22C55E" opacity="0.22" filter="url(#softGlow)"/>
</g>


<g opacity="0.414" filter="url(#hardGlow)">
  <circle cx="135.6" cy="80.2" r="25.8" fill="#0A1224" opacity="0.65"/>
  <circle cx="135.6" cy="80.2" r="25.8" fill="none" stroke="url(#strokeA)" stroke-width="2.1" opacity="0.85"/>
  <circle cx="135.6" cy="80.2" r="22.2" fill="none" stroke="#7C3AED" stroke-width="1.5" opacity="0.35"/>
  <polygon points="153.8,84.0 141.4,97.8 123.2,94.0 117.4,76.4 129.8,62.5 148.0,66.3" fill="none" stroke="url(#strokeB)" stroke-width="1.2" opacity="0.65"/>
  <polygon points="141.1,83.6 129.9,83.3 135.8,73.7" fill="#7C3AED" opacity="0.22" filter="url(#softGlow)"/>
</g>


<g opacity="0.778" filter="url(#hardGlow)">
  <circle cx="70.7" cy="1054.4" r="63.1" fill="#0A1224" opacity="0.65"/>
  <circle cx="70.7" cy="1054.4" r="63.1" fill="none" stroke="url(#strokeA)" stroke-width="5.0" opacity="0.85"/>
  <circle cx="70.7" cy="1054.4" r="54.2" fill="none" stroke="#22C55E" stroke-width="1.9" opacity="0.35"/>
  <polygon points="28.1,1038.9 62.9,1009.7 105.5,1025.3 113.4,1070.0 78.6,1099.2 35.9,1083.6" fill="none" stroke="url(#strokeB)" stroke-width="1.6" opacity="0.65"/>
  <polygon points="58.6,1044.2 85.7,1049.0 68.0,1070.1" fill="#22C55E" opacity="0.22" filter="url(#softGlow)"/>
</g>


<g opacity="0.366" filter="url(#hardGlow)">
  <circle cx="54.0" cy="1129.7" r="22.6" fill="#0A1224" opacity="0.65"/>
  <circle cx="54.0" cy="1129.7" r="22.6" fill="none" stroke="url(#strokeA)" stroke-width="2.0" opacity="0.85"/>
  <circle cx="54.0" cy="1129.7" r="19.5" fill="none" stroke="#7C3AED" stroke-width="1.5" opacity="0.35"/>
  <polygon points="37.7,1130.2 45.4,1115.8 61.6,1115.3 70.2,1129.1 62.6,1143.5 46.3,1144.0" fill="none" stroke="url(#strokeB)" stroke-width="1.2" opacity="0.65"/>
  
</g>


<g opacity="0.601" filter="url(#hardGlow)">
  <circle cx="21.7" cy="1030.1" r="24.4" fill="#0A1224" opacity="0.65"/>
  <circle cx="21.7" cy="1030.1" r="24.4" fill="none" stroke="url(#strokeA)" stroke-width="2.0" opacity="0.85"/>
  <circle cx="21.7" cy="1030.1" r="21.0" fill="none" stroke="#7C3AED" stroke-width="1.5" opacity="0.35"/>
  <polygon points="33.1,1043.4 15.8,1046.6 4.4,1033.3 10.3,1016.8 27.5,1013.6 38.9,1026.9" fill="none" stroke="url(#strokeB)" stroke-width="1.2" opacity="0.65"/>
  <polygon points="23.8,1035.8 15.6,1029.1 25.6,1025.4" fill="#7C3AED" opacity="0.22" filter="url(#softGlow)"/>
</g>


<g opacity="0.840" filter="url(#hardGlow)">
  <circle cx="209.4" cy="127.4" r="38.3" fill="#0A1224" opacity="0.65"/>
  <circle cx="209.4" cy="127.4" r="38.3" fill="none" stroke="url(#strokeA)" stroke-width="3.1" opacity="0.85"/>
  <circle cx="209.4" cy="127.4" r="33.0" fill="none" stroke="#22C55E" stroke-width="1.5" opacity="0.35"/>
  <polygon points="181.9,129.5 193.9,104.6 221.4,102.5 237.0,125.3 225.0,150.2 197.4,152.3" fill="none" stroke="url(#strokeB)" stroke-width="1.2" opacity="0.65"/>
  <polygon points="200.1,124.8 216.3,120.7 211.8,136.8" fill="#22C55E" opacity="0.22" filter="url(#softGlow)"/>
</g>


<g opacity="0.389" filter="url(#hardGlow)">
  <circle cx="226.1" cy="84.2" r="19.3" fill="#0A1224" opacity="0.65"/>
  <circle cx="226.1" cy="84.2" r="19.3" fill="none" stroke="url(#strokeA)" stroke-width="2.0" opacity="0.85"/>
  <circle cx="226.1" cy="84.2" r="16.6" fill="none" stroke="#7C3AED" stroke-width="1.5" opacity="0.35"/>
  <polygon points="232.5,96.5 218.6,96.0 212.2,83.7 219.6,71.9 233.5,72.4 240.0,84.8" fill="none" stroke="url(#strokeB)" stroke-width="1.2" opacity="0.65"/>
  
</g>


<g opacity="0.885" filter="url(#hardGlow)">
  <circle cx="48.0" cy="6.3" r="53.8" fill="#0A1224" opacity="0.65"/>
  <circle cx="48.0" cy="6.3" r="53.8" fill="none" stroke="url(#strokeA)" stroke-width="4.3" opacity="0.85"/>
  <circle cx="48.0" cy="6.3" r="46.2" fill="none" stroke="#22C55E" stroke-width="1.6" opacity="0.35"/>
  <polygon points="64.5,41.3 25.9,38.1 9.5,3.0 31.6,-28.7 70.1,-25.5 86.6,9.5" fill="none" stroke="url(#strokeB)" stroke-width="1.3" opacity="0.65"/>
  <polygon points="49.2,19.8 35.7,0.6 59.1,-1.5" fill="#22C55E" opacity="0.22" filter="url(#softGlow)"/>
</g>


<g opacity="0.530" filter="url(#hardGlow)">
  <circle cx="38.7" cy="-24.5" r="21.7" fill="#0A1224" opacity="0.65"/>
  <circle cx="38.7" cy="-24.5" r="21.7" fill="none" stroke="url(#strokeA)" stroke-width="2.0" opacity="0.85"/>
  <circle cx="38.7" cy="-24.5" r="18.7" fill="none" stroke="#7C3AED" stroke-width="1.5" opacity="0.35"/>
  <polygon points="37.1,-40.1 51.4,-33.8 53.0,-18.2 40.4,-9.0 26.1,-15.3 24.4,-30.9" fill="none" stroke="url(#strokeB)" stroke-width="1.2" opacity="0.65"/>
  <polygon points="40.1,-29.9 42.7,-20.8 33.5,-23.0" fill="#7C3AED" opacity="0.22" filter="url(#softGlow)"/>
</g>


<g opacity="0.340" transform="translate(19.6,134.4) rotate(8.4)" filter="url(#softGlow)">
  <rect x="-83.9" y="-73.6" width="167.9" height="147.2" rx="14.7" fill="#050A12" opacity="0.25"/>
  <rect x="-83.9" y="-73.6" width="167.9" height="147.2" rx="14.7" fill="none" stroke="url(#strokeA)" stroke-width="7.4" opacity="0.85"/>
  <rect x="-72.1" y="-61.8" width="144.3" height="123.7" rx="10.3" fill="none" stroke="#22C55E" stroke-width="2.9" opacity="0.35"/>
</g>


<g opacity="0.265" transform="translate(1781.3,107.1) rotate(-9.7)" filter="url(#softGlow)">
  <rect x="-104.8" y="-99.0" width="209.7" height="198.0" rx="19.8" fill="#050A12" opacity="0.25"/>
  <rect x="-104.8" y="-99.0" width="209.7" height="198.0" rx="19.8" fill="none" stroke="url(#strokeA)" stroke-width="9.9" opacity="0.85"/>
  <rect x="-89.0" y="-83.2" width="178.0" height="166.3" rx="13.9" fill="none" stroke="#7C3AED" stroke-width="4.0" opacity="0.35"/>
</g>


<g opacity="0.386" transform="translate(1912.7,13.8) rotate(1.3)" filter="url(#softGlow)">
  <rect x="-118.5" y="-86.6" width="237.1" height="173.3" rx="17.3" fill="#050A12" opacity="0.25"/>
  <rect x="-118.5" y="-86.6" width="237.1" height="173.3" rx="17.3" fill="none" stroke="url(#strokeA)" stroke-width="8.7" opacity="0.85"/>
  <rect x="-104.7" y="-72.8" width="209.3" height="145.5" rx="12.1" fill="none" stroke="#7C3AED" stroke-width="3.5" opacity="0.35"/>
</g>


<g opacity="0.393" transform="translate(1740.7,523.6) rotate(3.9)" filter="url(#softGlow)">
  <rect x="-105.4" y="-93.6" width="210.9" height="187.2" rx="18.7" fill="#050A12" opacity="0.25"/>
  <rect x="-105.4" y="-93.6" width="210.9" height="187.2" rx="18.7" fill="none" stroke="url(#strokeA)" stroke-width="9.4" opacity="0.85"/>
  <rect x="-90.5" y="-78.6" width="180.9" height="157.2" rx="13.1" fill="none" stroke="#22C55E" stroke-width="3.7" opacity="0.35"/>
</g>


<g opacity="0.389" transform="translate(16.5,1021.2) rotate(5.9)" filter="url(#softGlow)">
  <rect x="-109.5" y="-93.5" width="218.9" height="187.0" rx="18.7" fill="#050A12" opacity="0.25"/>
  <rect x="-109.5" y="-93.5" width="218.9" height="187.0" rx="18.7" fill="none" stroke="url(#strokeA)" stroke-width="9.4" opacity="0.85"/>
  <rect x="-94.5" y="-78.5" width="189.0" height="157.1" rx="13.1" fill="none" stroke="#7C3AED" stroke-width="3.7" opacity="0.35"/>
</g>


<g opacity="0.460" transform="translate(215.4,508.9) rotate(-10.4)" filter="url(#softGlow)">
  <rect x="-41.7" y="-24.0" width="83.5" height="48.1" rx="14.7" fill="none" stroke="#22C55E" stroke-width="8.0" opacity="0.55"/>
  <rect x="-18.4" y="-12.0" width="83.5" height="48.1" rx="14.7" fill="none" stroke="url(#strokeA)" stroke-width="6.7" opacity="0.55"/>
</g>


<g opacity="0.277" transform="translate(1827.5,103.0) rotate(-2.5)" filter="url(#softGlow)">
  <rect x="-42.4" y="-24.4" width="84.8" height="48.8" rx="14.9" fill="none" stroke="#22C55E" stroke-width="8.1" opacity="0.55"/>
  <rect x="-18.6" y="-12.2" width="84.8" height="48.8" rx="14.9" fill="none" stroke="url(#strokeA)" stroke-width="6.8" opacity="0.55"/>
</g>


<g opacity="0.308" transform="translate(1859.3,900.3) rotate(-8.1)" filter="url(#softGlow)">
  <rect x="-43.7" y="-25.2" width="87.5" height="50.4" rx="15.4" fill="none" stroke="#22C55E" stroke-width="8.4" opacity="0.55"/>
  <rect x="-19.2" y="-12.6" width="87.5" height="50.4" rx="15.4" fill="none" stroke="url(#strokeA)" stroke-width="7.0" opacity="0.55"/>
</g>


<g opacity="0.284" transform="translate(31.4,984.6) rotate(-16.9)" filter="url(#softGlow)">
  <rect x="-60.5" y="-34.8" width="121.0" height="69.7" rx="21.3" fill="none" stroke="#7C3AED" stroke-width="11.6" opacity="0.55"/>
  <rect x="-26.6" y="-17.4" width="121.0" height="69.7" rx="21.3" fill="none" stroke="url(#strokeA)" stroke-width="9.7" opacity="0.55"/>
</g>


<g opacity="0.382" transform="translate(1791.0,202.6) rotate(8.8)" filter="url(#softGlow)">
  <rect x="-57.2" y="-33.0" width="114.5" height="65.9" rx="20.1" fill="none" stroke="#22C55E" stroke-width="11.0" opacity="0.55"/>
  <rect x="-25.2" y="-16.5" width="114.5" height="65.9" rx="20.1" fill="none" stroke="url(#strokeA)" stroke-width="9.2" opacity="0.55"/>
</g>


<g opacity="0.363" transform="translate(139.2,871.8) rotate(-12.2)" filter="url(#softGlow)">
  <rect x="-59.7" y="-34.4" width="119.3" height="68.7" rx="21.0" fill="none" stroke="#22C55E" stroke-width="11.5" opacity="0.55"/>
  <rect x="-26.3" y="-17.2" width="119.3" height="68.7" rx="21.0" fill="none" stroke="url(#strokeA)" stroke-width="9.5" opacity="0.55"/>
</g>


<g opacity="0.232">
  <line x1="1813.2" y1="905.2" x2="1813.2" y2="964.9" stroke="#7C3AED" stroke-width="1.30" opacity="0.45"/>
  <rect x="1807.3" y="940.2" width="11.7" height="25.4" rx="3.9" fill="#0B1020" opacity="0.55" stroke="url(#strokeA)" stroke-width="1.2"/>
</g>

<g opacity="0.232">
  <line x1="205.5" y1="900.3" x2="205.5" y2="966.1" stroke="#7C3AED" stroke-width="1.58" opacity="0.45"/>
  <rect x="201.0" y="934.7" width="9.1" height="36.4" rx="3.0" fill="#0B1020" opacity="0.55" stroke="url(#strokeA)" stroke-width="1.2"/>
</g>

<g opacity="0.232">
  <line x1="1687.1" y1="915.3" x2="1687.1" y2="962.3" stroke="#7C3AED" stroke-width="1.72" opacity="0.45"/>
  <rect x="1682.4" y="939.3" width="9.3" height="27.2" rx="3.1" fill="#0B1020" opacity="0.55" stroke="url(#strokeA)" stroke-width="1.2"/>
</g>

<g opacity="0.232">
  <line x1="89.3" y1="877.3" x2="89.3" y2="971.8" stroke="#7C3AED" stroke-width="1.88" opacity="0.45"/>
  <rect x="84.3" y="934.7" width="9.9" height="36.5" rx="3.3" fill="#0B1020" opacity="0.55" stroke="url(#strokeA)" stroke-width="1.2"/>
</g>
<circle cx="153.4" cy="1012.1" r="2.2" fill="#22C55E" opacity="0.17" filter="url(#softGlow)"/>
<circle cx="12.5" cy="873.1" r="1.7" fill="#22C55E" opacity="0.26" filter="url(#softGlow)"/>
<circle cx="1898.8" cy="101.0" r="3.0" fill="#22C55E" opacity="0.27" filter="url(#softGlow)"/>
<circle cx="1068.6" cy="974.1" r="2.1" fill="#22C55E" opacity="0.16" filter="url(#softGlow)"/>
<circle cx="19.2" cy="90.5" r="1.3" fill="#22C55E" opacity="0.26" filter="url(#softGlow)"/>
<circle cx="244.1" cy="907.4" r="1.5" fill="#22C55E" opacity="0.15" filter="url(#softGlow)"/>
<circle cx="14.5" cy="107.5" r="2.5" fill="#22C55E" opacity="0.27" filter="url(#softGlow)"/>
<circle cx="1223.1" cy="122.7" r="2.6" fill="#22C55E" opacity="0.22" filter="url(#softGlow)"/>
<circle cx="1839.9" cy="891.7" r="1.8" fill="#22C55E" opacity="0.24" filter="url(#softGlow)"/>
<circle cx="1917.9" cy="659.8" r="2.4" fill="#22C55E" opacity="0.20" filter="url(#softGlow)"/>
<circle cx="1341.5" cy="1036.6" r="2.0" fill="#22C55E" opacity="0.11" filter="url(#softGlow)"/>
<circle cx="1800.5" cy="1036.2" r="2.1" fill="#22C55E" opacity="0.26" filter="url(#softGlow)"/>
<circle cx="40.2" cy="431.6" r="1.7" fill="#22C55E" opacity="0.21" filter="url(#softGlow)"/>
<circle cx="543.6" cy="987.3" r="1.8" fill="#22C55E" opacity="0.25" filter="url(#softGlow)"/>
<circle cx="25.8" cy="1.4" r="1.4" fill="#22C55E" opacity="0.20" filter="url(#softGlow)"/>
<circle cx="138.9" cy="16.7" r="2.7" fill="#22C55E" opacity="0.26" filter="url(#softGlow)"/>
<circle cx="1863.1" cy="118.3" r="2.9" fill="#22C55E" opacity="0.17" filter="url(#softGlow)"/>
<circle cx="50.7" cy="923.8" r="1.4" fill="#22C55E" opacity="0.22" filter="url(#softGlow)"/>
<circle cx="1693.8" cy="65.2" r="2.9" fill="#22C55E" opacity="0.13" filter="url(#softGlow)"/>
<circle cx="92.7" cy="129.2" r="1.7" fill="#22C55E" opacity="0.27" filter="url(#softGlow)"/>
<circle cx="1792.6" cy="1004.4" r="3.1" fill="#22C55E" opacity="0.21" filter="url(#softGlow)"/>
</svg>