<svg xmlns="http://www.w3.org/2000/svg" width="1920" height="1080" viewBox="0 0 1920 1080" preserveAspectRatio="xMidYMid slice">
<defs>
  <linearGradient id="g0" x1="0" y1="0" x2="1" y2="1">
    <stop offset="0" stop-color="#0A0F1E"/>
    <stop offset="0.55" stop-color="#00FFA3" stop-opacity="0.9"/>
    <stop offset="1" stop-color="#050A12"/>
  </linearGradient>
  <radialGradient id="g1" cx="20%" cy="15%" r="70%">
    <stop offset="0" stop-color="#14C2FF" stop-opacity="0.38"/>
    <stop offset="0.6" stop-color="#14C2FF" stop-opacity="0.08"/>
    <stop offset="1" stop-color="#14C2FF" stop-opacity="0"/>
  </radialGradient>
  <radialGradient id="g2" cx="85%" cy="80%" r="75%">
    <stop offset="0" stop-color="#14C2FF" stop-opacity="0.28"/>
    <stop offset="0.65" stop-color="#14C2FF" stop-opacity="0.06"/>
    <stop offset="1" stop-color="#14C2FF" stop-opacity="0"/>
  </radialGradient>
  <filter id="softGlow" x="-30%" y="-30%" width="160%" height="160%">
    <feGaussianBlur stdDeviation="12" result="b"/>
    <feMerge>
      <feMergeNode in="b"/>
      <feMergeNode in="SourceGraphic"/>
    </feMerge>
  </filter>
  <filter id="hardGlow" x="-40%" y="-40%" width="180%" height="180%">
    <feGaussianBlur stdDeviation="6" result="b"/>
    <feColorMatrix in="b" type="matrix" values="1 0 0 0 0  0 1 0 0 0  0 0 1 0 0  0 0 0 18 -7" result="c"/>
    <feMerge>
      <feMergeNode in="c"/>
      <feMergeNode in="SourceGraphic"/>
    </feMerge>
  </filter>
  <linearGradient id="strokeA" x1="0" y1="0" x2="1" y2="0">
    <stop offset="0" stop-color="#14C2FF" stop-opacity="0.9"/>
    <stop offset="0.5" stop-color="#FFFFFF" stop-opacity="0.25"/>
    <stop offset="1" stop-color="#14C2FF" stop-opacity="0.7"/>
  </linearGradient>
  <linearGradient id="strokeB" x1="0" y1="0" x2="0" y2="1">
    <stop offset="0" stop-color="#FFFFFF" stop-opacity="0.18"/>
    <stop offset="1" stop-color="#14C2FF" stop-opacity="0.55"/>
  </linearGradient>
</defs>
<rect x="0" y="0" width="1920" height="1080" fill="url(#g0)"/>
<rect x="0" y="0" width="1920" height="1080" fill="url(#g1)"/>
<rect x="0" y="0" width="1920" height="1080" fill="url(#g2)"/>


<defs>
  <radialGradient id="vign" cx="0.5000" cy="0.5093" r="0.85">
    <stop offset="0" stop-color="#000000" stop-opacity="0"/>
    <stop offset="0.55" stop-color="#000000" stop-opacity="0.217"/>
    <stop offset="1" stop-color="#000000" stop-opacity="0.620"/>
  </radialGradient>
</defs>
<rect x="0" y="0" width="1920" height="1080" fill="url(#vign)"/>

<g opacity="0.230" filter="url(#softGlow)"><path d="M 1744.1,38.7 L 1825.9,38.7 L 1825.9,1060.1 L 1829.8,1060.1 L 1829.8,932.4 " fill="none" stroke="url(#strokeB)" stroke-width="1.97" stroke-linecap="round" stroke-linejoin="round"/><circle cx="1829.8" cy="932.4" r="2.2" fill="#FF4D8D" opacity="0.45"/><circle cx="1825.9" cy="38.7" r="2.7" fill="#FF4D8D" opacity="0.45"/><circle cx="1829.8" cy="1060.1" r="2.0" fill="#FF4D8D" opacity="0.45"/></g>
<g opacity="0.230" filter="url(#softGlow)"><path d="M 550.3,993.7 L 1918.6,993.7 L 1918.6,62.9 L 80.3,62.9 L 80.3,896.2 " fill="none" stroke="url(#strokeB)" stroke-width="1.58" stroke-linecap="round" stroke-linejoin="round"/><circle cx="80.3" cy="896.2" r="3.8" fill="#FF4D8D" opacity="0.45"/><circle cx="1918.6" cy="62.9" r="2.4" fill="#FF4D8D" opacity="0.45"/><circle cx="1918.6" cy="993.7" r="3.3" fill="#FF4D8D" opacity="0.45"/></g>
<g opacity="0.230" filter="url(#softGlow)"><path d="M 65.4,461.2 L 1729.7,461.2 L 1729.7,876.1 L 198.6,876.1 L 198.6,120.7 " fill="none" stroke="url(#strokeB)" stroke-width="1.25" stroke-linecap="round" stroke-linejoin="round"/><circle cx="198.6" cy="876.1" r="3.0" fill="#FF4D8D" opacity="0.45"/><circle cx="65.4" cy="461.2" r="3.7" fill="#FF4D8D" opacity="0.45"/><circle cx="1729.7" cy="876.1" r="2.7" fill="#FF4D8D" opacity="0.45"/></g>
<g opacity="0.230" filter="url(#softGlow)"><path d="M 1814.3,154.4 L 179.7,154.4 L 179.7,1030.2 L 1796.4,1030.2 L 1796.4,1001.8 " fill="none" stroke="url(#strokeB)" stroke-width="1.25" stroke-linecap="round" stroke-linejoin="round"/><circle cx="179.7" cy="154.4" r="2.5" fill="#FF4D8D" opacity="0.45"/><circle cx="1796.4" cy="1030.2" r="2.5" fill="#FF4D8D" opacity="0.45"/><circle cx="179.7" cy="1030.2" r="2.5" fill="#FF4D8D" opacity="0.45"/></g>
<g opacity="0.230" filter="url(#softGlow)"><path d="M 1725.8,887.6 L 1768.4,887.6 L 1768.4,963.0 L 1830.5,963.0 L 1830.5,115.3 " fill="none" stroke="url(#strokeB)" stroke-width="1.81" stroke-linecap="round" stroke-linejoin="round"/><circle cx="1768.4" cy="887.6" r="2.3" fill="#FF4D8D" opacity="0.45"/><circle cx="1830.5" cy="115.3" r="3.2" fill="#FF4D8D" opacity="0.45"/><circle cx="1768.4" cy="963.0" r="2.8" fill="#FF4D8D" opacity="0.45"/></g>
<g opacity="0.230" filter="url(#softGlow)"><path d="M 210.2,893.1 L 1896.0,893.1 L 1896.0,196.1 L 1881.5,196.1 L 1881.5,94.9 " fill="none" stroke="url(#strokeB)" stroke-width="2.15" stroke-linecap="round" stroke-linejoin="round"/><circle cx="1896.0" cy="196.1" r="2.0" fill="#FF4D8D" opacity="0.45"/><circle cx="1881.5" cy="94.9" r="2.7" fill="#FF4D8D" opacity="0.45"/><circle cx="210.2" cy="893.1" r="3.1" fill="#FF4D8D" opacity="0.45"/></g>
<g opacity="0.230" filter="url(#softGlow)"><path d="M 92.0,755.2 L 1743.3,755.2 L 1743.3,921.3 L 1721.4,921.3 L 1721.4,1027.8 " fill="none" stroke="url(#strokeB)" stroke-width="1.29" stroke-linecap="round" stroke-linejoin="round"/><circle cx="1721.4" cy="921.3" r="2.7" fill="#FF4D8D" opacity="0.45"/><circle cx="1743.3" cy="921.3" r="3.9" fill="#FF4D8D" opacity="0.45"/><circle cx="1743.3" cy="755.2" r="3.1" fill="#FF4D8D" opacity="0.45"/></g>
<g opacity="0.230" filter="url(#softGlow)"><path d="M 1844.5,133.6 L 120.3,133.6 L 120.3,55.3 L 171.5,55.3 L 171.5,384.9 " fill="none" stroke="url(#strokeB)" stroke-width="1.79" stroke-linecap="round" stroke-linejoin="round"/><circle cx="120.3" cy="133.6" r="2.3" fill="#FF4D8D" opacity="0.45"/><circle cx="171.5" cy="384.9" r="3.8" fill="#FF4D8D" opacity="0.45"/><circle cx="120.3" cy="55.3" r="3.2" fill="#FF4D8D" opacity="0.45"/></g>
<g opacity="0.230" filter="url(#softGlow)"><path d="M 1832.8,98.4 L 180.1,98.4 L 180.1,337.1 L 20.4,337.1 L 20.4,865.8 " fill="none" stroke="url(#strokeB)" stroke-width="2.07" stroke-linecap="round" stroke-linejoin="round"/><circle cx="180.1" cy="337.1" r="4.2" fill="#FF4D8D" opacity="0.45"/><circle cx="20.4" cy="337.1" r="2.5" fill="#FF4D8D" opacity="0.45"/><circle cx="180.1" cy="98.4" r="4.2" fill="#FF4D8D" opacity="0.45"/></g>
<g opacity="0.230" filter="url(#softGlow)"><path d="M 1718.5,928.5 L 1772.1,928.5 L 1772.1,1029.0 L 17.2,1029.0 L 17.2,935.2 " fill="none" stroke="url(#strokeB)" stroke-width="1.13" stroke-linecap="round" stroke-linejoin="round"/><circle cx="1772.1" cy="1029.0" r="3.5" fill="#FF4D8D" opacity="0.45"/><circle cx="1718.5" cy="928.5" r="2.9" fill="#FF4D8D" opacity="0.45"/><circle cx="1772.1" cy="928.5" r="4.1" fill="#FF4D8D" opacity="0.45"/></g>
<g opacity="0.230" filter="url(#softGlow)"><path d="M 179.6,893.3 L 118.9,893.3 L 118.9,961.4 L 1820.8,961.4 L 1820.8,731.0 " fill="none" stroke="url(#strokeB)" stroke-width="2.09" stroke-linecap="round" stroke-linejoin="round"/><circle cx="1820.8" cy="961.4" r="3.3" fill="#FF4D8D" opacity="0.45"/><circle cx="118.9" cy="893.3" r="2.9" fill="#FF4D8D" opacity="0.45"/><circle cx="118.9" cy="961.4" r="3.1" fill="#FF4D8D" opacity="0.45"/></g>
<g opacity="0.230" filter="url(#softGlow)"><path d="M 1723.9,881.4 L 192.8,881.4 L 192.8,463.6 L 1908.9,463.6 L 1908.9,181.8 " fill="none" stroke="url(#strokeB)" stroke-width="1.84" stroke-linecap="round" stroke-linejoin="round"/><circle cx="1723.9" cy="881.4" r="3.4" fill="#FF4D8D" opacity="0.45"/><circle cx="1908.9" cy="463.6" r="3.0" fill="#FF4D8D" opacity="0.45"/><circle cx="192.8" cy="463.6" r="3.3" fill="#FF4D8D" opacity="0.45"/></g>
<g opacity="0.230" filter="url(#softGlow)"><path d="M 76.8,664.4 L 1783.3,664.4 L 1783.3,23.1 L 1738.4,23.1 L 1738.4,1079.0 " fill="none" stroke="url(#strokeB)" stroke-width="1.48" stroke-linecap="round" stroke-linejoin="round"/><circle cx="1738.4" cy="23.1" r="2.5" fill="#FF4D8D" opacity="0.45"/><circle cx="1783.3" cy="23.1" r="3.9" fill="#FF4D8D" opacity="0.45"/><circle cx="1783.3" cy="664.4" r="3.0" fill="#FF4D8D" opacity="0.45"/></g>
<g opacity="0.230" filter="url(#softGlow)"><path d="M 150.7,168.5 L 1786.6,168.5 L 1786.6,890.8 L 1783.5,890.8 L 1783.5,374.0 " fill="none" stroke="url(#strokeB)" stroke-width="1.30" stroke-linecap="round" stroke-linejoin="round"/><circle cx="150.7" cy="168.5" r="2.4" fill="#FF4D8D" opacity="0.45"/><circle cx="1786.6" cy="168.5" r="3.6" fill="#FF4D8D" opacity="0.45"/><circle cx="1783.5" cy="374.0" r="2.6" fill="#FF4D8D" opacity="0.45"/></g>
<g opacity="0.230" filter="url(#softGlow)"><path d="M 1866.8,1000.6 L 13.4,1000.6 L 13.4,88.4 L 124.2,88.4 L 124.2,981.4 " fill="none" stroke="url(#strokeB)" stroke-width="1.64" stroke-linecap="round" stroke-linejoin="round"/><circle cx="124.2" cy="88.4" r="2.7" fill="#FF4D8D" opacity="0.45"/><circle cx="13.4" cy="1000.6" r="3.2" fill="#FF4D8D" opacity="0.45"/><circle cx="1866.8" cy="1000.6" r="3.6" fill="#FF4D8D" opacity="0.45"/></g>
<g opacity="0.230" filter="url(#softGlow)"><path d="M 207.9,114.2 L 1690.0,114.2 L 1690.0,115.8 L 1905.8,115.8 L 1905.8,175.9 " fill="none" stroke="url(#strokeB)" stroke-width="1.16" stroke-linecap="round" stroke-linejoin="round"/><circle cx="1690.0" cy="115.8" r="2.2" fill="#FF4D8D" opacity="0.45"/><circle cx="207.9" cy="114.2" r="2.9" fill="#FF4D8D" opacity="0.45"/><circle cx="1690.0" cy="114.2" r="3.3" fill="#FF4D8D" opacity="0.45"/></g>
<g opacity="0.230" filter="url(#softGlow)"><path d="M 1734.1,1011.3 L 1778.0,1011.3 L 1778.0,916.8 L 537.6,916.8 L 537.6,1072.0 " fill="none" stroke="url(#strokeB)" stroke-width="1.71" stroke-linecap="round" stroke-linejoin="round"/><circle cx="537.6" cy="1072.0" r="3.9" fill="#FF4D8D" opacity="0.45"/><circle cx="1778.0" cy="1011.3" r="4.2" fill="#FF4D8D" opacity="0.45"/><circle cx="537.6" cy="916.8" r="3.8" fill="#FF4D8D" opacity="0.45"/></g>
<g opacity="0.230" filter="url(#softGlow)"><path d="M 1874.6,147.7 L 1809.1,147.7 L 1809.1,30.5 L 130.7,30.5 L 130.7,186.0 " fill="none" stroke="url(#strokeB)" stroke-width="2.17" stroke-linecap="round" stroke-linejoin="round"/><circle cx="130.7" cy="186.0" r="2.8" fill="#FF4D8D" opacity="0.45"/><circle cx="1809.1" cy="30.5" r="2.3" fill="#FF4D8D" opacity="0.45"/><circle cx="1874.6" cy="147.7" r="4.0" fill="#FF4D8D" opacity="0.45"/></g>

<g opacity="0.834" filter="url(#hardGlow)">
  <circle cx="133.7" cy="1001.5" r="38.1" fill="#0A1224" opacity="0.65"/>
  <circle cx="133.7" cy="1001.5" r="38.1" fill="none" stroke="url(#strokeA)" stroke-width="3.0" opacity="0.85"/>
  <circle cx="133.7" cy="1001.5" r="32.8" fill="none" stroke="#00FFA3" stroke-width="1.5" opacity="0.35"/>
  <polygon points="112.0,1018.3 108.3,991.2 130.0,974.4 155.3,984.7 159.1,1011.9 137.4,1028.7" fill="none" stroke="url(#strokeB)" stroke-width="1.2" opacity="0.65"/>
  <polygon points="124.5,1004.5 135.7,992.2 140.8,1008.0" fill="#00FFA3" opacity="0.22" filter="url(#softGlow)"/>
</g>


<g opacity="0.443" filter="url(#hardGlow)">
  <circle cx="186.1" cy="969.3" r="13.5" fill="#0A1224" opacity="0.65"/>
  <circle cx="186.1" cy="969.3" r="13.5" fill="none" stroke="url(#strokeA)" stroke-width="2.0" opacity="0.85"/>
  <circle cx="186.1" cy="969.3" r="11.6" fill="none" stroke="#FF4D8D" stroke-width="1.5" opacity="0.35"/>
  <polygon points="177.4,964.8 185.6,959.6 194.2,964.0 194.7,973.7 186.5,979.0 177.9,974.5" fill="none" stroke="url(#strokeB)" stroke-width="1.2" opacity="0.65"/>
  
</g>


<g opacity="0.385" filter="url(#hardGlow)">
  <circle cx="87.4" cy="957.4" r="18.2" fill="#0A1224" opacity="0.65"/>
  <circle cx="87.4" cy="957.4" r="18.2" fill="none" stroke="url(#strokeA)" stroke-width="2.0" opacity="0.85"/>
  <circle cx="87.4" cy="957.4" r="15.7" fill="none" stroke="#FF4D8D" stroke-width="1.5" opacity="0.35"/>
  <polygon points="81.6,945.6 94.7,946.5 100.4,958.3 93.1,969.2 80.0,968.3 74.3,956.5" fill="none" stroke="url(#strokeB)" stroke-width="1.2" opacity="0.65"/>
  
</g>


<g opacity="0.577" filter="url(#hardGlow)">
  <circle cx="148.1" cy="964.3" r="18.2" fill="#0A1224" opacity="0.65"/>
  <circle cx="148.1" cy="964.3" r="18.2" fill="none" stroke="url(#strokeA)" stroke-width="2.0" opacity="0.85"/>
  <circle cx="148.1" cy="964.3" r="15.6" fill="none" stroke="#FF4D8D" stroke-width="1.5" opacity="0.35"/>
  <polygon points="137.6,956.5 149.7,951.3 160.2,959.1 158.6,972.1 146.6,977.3 136.1,969.5" fill="none" stroke="url(#strokeB)" stroke-width="1.2" opacity="0.65"/>
  <polygon points="145.6,960.4 152.7,964.0 146.1,968.4" fill="#FF4D8D" opacity="0.22" filter="url(#softGlow)"/>
</g>


<g opacity="0.785" filter="url(#hardGlow)">
  <circle cx="1391.6" cy="1033.6" r="53.7" fill="#0A1224" opacity="0.65"/>
  <circle cx="1391.6" cy="1033.6" r="53.7" fill="none" stroke="url(#strokeA)" stroke-width="4.3" opacity="0.85"/>
  <circle cx="1391.6" cy="1033.6" r="46.2" fill="none" stroke="#00FFA3" stroke-width="1.6" opacity="0.35"/>
  <polygon points="1363.0,1059.6 1354.8,1021.8 1383.4,995.8 1420.3,1007.6 1428.5,1045.4 1399.9,1071.4" fill="none" stroke="url(#strokeB)" stroke-width="1.3" opacity="0.65"/>
  <polygon points="1379.1,1038.7 1393.5,1020.2 1402.4,1041.9" fill="#00FFA3" opacity="0.22" filter="url(#softGlow)"/>
</g>


<g opacity="0.381" filter="url(#hardGlow)">
  <circle cx="1335.1" cy="980.6" r="26.4" fill="#0A1224" opacity="0.65"/>
  <circle cx="1335.1" cy="980.6" r="26.4" fill="none" stroke="url(#strokeA)" stroke-width="2.1" opacity="0.85"/>
  <circle cx="1335.1" cy="980.6" r="22.7" fill="none" stroke="#FF4D8D" stroke-width="1.5" opacity="0.35"/>
  <polygon points="1317.3,987.3 1320.3,968.6 1338.1,961.8 1352.9,973.8 1349.8,992.6 1332.1,999.4" fill="none" stroke="url(#strokeB)" stroke-width="1.2" opacity="0.65"/>
  
</g>


<g opacity="0.593" filter="url(#hardGlow)">
  <circle cx="1395.5" cy="1048.5" r="24.5" fill="#0A1224" opacity="0.65"/>
  <circle cx="1395.5" cy="1048.5" r="24.5" fill="none" stroke="url(#strokeA)" stroke-width="2.0" opacity="0.85"/>
  <circle cx="1395.5" cy="1048.5" r="21.1" fill="none" stroke="#FF4D8D" stroke-width="1.5" opacity="0.35"/>
  <polygon points="1389.4,1065.1 1378.1,1051.5 1384.3,1034.9 1401.7,1032.0 1412.9,1045.6 1406.8,1062.2" fill="none" stroke="url(#strokeB)" stroke-width="1.2" opacity="0.65"/>
  <polygon points="1391.5,1053.3 1393.5,1042.7 1401.6,1049.7" fill="#FF4D8D" opacity="0.22" filter="url(#softGlow)"/>
</g>


<g opacity="0.352" filter="url(#hardGlow)">
  <circle cx="1355.8" cy="1091.1" r="23.3" fill="#0A1224" opacity="0.65"/>
  <circle cx="1355.8" cy="1091.1" r="23.3" fill="none" stroke="url(#strokeA)" stroke-width="2.0" opacity="0.85"/>
  <circle cx="1355.8" cy="1091.1" r="20.0" fill="none" stroke="#FF4D8D" stroke-width="1.5" opacity="0.35"/>
  <polygon points="1362.7,1075.9 1372.5,1089.4 1365.7,1104.7 1349.0,1106.4 1339.2,1092.9 1346.0,1077.6" fill="none" stroke="url(#strokeB)" stroke-width="1.2" opacity="0.65"/>
  <polygon points="1359.9,1086.9 1357.5,1096.8 1350.2,1089.7" fill="#FF4D8D" opacity="0.22" filter="url(#softGlow)"/>
</g>


<g opacity="0.917" filter="url(#hardGlow)">
  <circle cx="129.2" cy="950.5" r="59.0" fill="#0A1224" opacity="0.65"/>
  <circle cx="129.2" cy="950.5" r="59.0" fill="none" stroke="url(#strokeA)" stroke-width="4.7" opacity="0.85"/>
  <circle cx="129.2" cy="950.5" r="50.8" fill="none" stroke="#00FFA3" stroke-width="1.8" opacity="0.35"/>
  <polygon points="144.9,990.0 102.8,983.8 87.2,944.3 113.6,911.0 155.6,917.2 171.2,956.7" fill="none" stroke="url(#strokeB)" stroke-width="1.5" opacity="0.65"/>
  <polygon points="129.6,965.4 116.1,943.5 141.9,942.7" fill="#00FFA3" opacity="0.22" filter="url(#softGlow)"/>
</g>


<g opacity="0.584" filter="url(#hardGlow)">
  <circle cx="194.9" cy="912.4" r="28.9" fill="#0A1224" opacity="0.65"/>
  <circle cx="194.9" cy="912.4" r="28.9" fill="none" stroke="url(#strokeA)" stroke-width="2.3" opacity="0.85"/>
  <circle cx="194.9" cy="912.4" r="24.8" fill="none" stroke="#FF4D8D" stroke-width="1.5" opacity="0.35"/>
  <polygon points="202.9,893.2 215.5,909.7 207.6,928.9 187.0,931.6 174.3,915.1 182.3,895.9" fill="none" stroke="url(#strokeB)" stroke-width="1.2" opacity="0.65"/>
  <polygon points="199.8,907.1 197.1,919.4 187.8,910.8" fill="#FF4D8D" opacity="0.22" filter="url(#softGlow)"/>
</g>


<g opacity="0.412" filter="url(#hardGlow)">
  <circle cx="158.8" cy="884.2" r="22.0" fill="#0A1224" opacity="0.65"/>
  <circle cx="158.8" cy="884.2" r="22.0" fill="none" stroke="url(#strokeA)" stroke-width="2.0" opacity="0.85"/>
  <circle cx="158.8" cy="884.2" r="19.0" fill="none" stroke="#FF4D8D" stroke-width="1.5" opacity="0.35"/>
  <polygon points="174.4,887.1 164.1,899.2 148.5,896.3 143.2,881.3 153.5,869.2 169.1,872.2" fill="none" stroke="url(#strokeB)" stroke-width="1.2" opacity="0.65"/>
  
</g>


<g opacity="0.467" filter="url(#hardGlow)">
  <circle cx="182.9" cy="909.4" r="31.2" fill="#0A1224" opacity="0.65"/>
  <circle cx="182.9" cy="909.4" r="31.2" fill="none" stroke="url(#strokeA)" stroke-width="2.5" opacity="0.85"/>
  <circle cx="182.9" cy="909.4" r="26.8" fill="none" stroke="#FF4D8D" stroke-width="1.5" opacity="0.35"/>
  <polygon points="171.4,890.2 193.8,889.8 205.4,909.0 194.5,928.7 172.0,929.0 160.5,909.8" fill="none" stroke="url(#strokeB)" stroke-width="1.2" opacity="0.65"/>
  <polygon points="181.4,901.7 190.3,912.0 177.0,914.6" fill="#FF4D8D" opacity="0.22" filter="url(#softGlow)"/>
</g>


<g opacity="0.711" filter="url(#hardGlow)">
  <circle cx="1801.5" cy="46.4" r="40.8" fill="#0A1224" opacity="0.65"/>
  <circle cx="1801.5" cy="46.4" r="40.8" fill="none" stroke="url(#strokeA)" stroke-width="3.3" opacity="0.85"/>
  <circle cx="1801.5" cy="46.4" r="35.1" fill="none" stroke="#00FFA3" stroke-width="1.5" opacity="0.35"/>
  <polygon points="1774.9,58.7 1777.5,29.5 1804.2,17.1 1828.2,34.1 1825.5,63.3 1798.9,75.7" fill="none" stroke="url(#strokeB)" stroke-width="1.2" opacity="0.65"/>
  <polygon points="1791.3,47.3 1805.9,37.1 1807.4,54.8" fill="#00FFA3" opacity="0.22" filter="url(#softGlow)"/>
</g>


<g opacity="0.407" filter="url(#hardGlow)">
  <circle cx="1847.3" cy="46.4" r="15.5" fill="#0A1224" opacity="0.65"/>
  <circle cx="1847.3" cy="46.4" r="15.5" fill="none" stroke="url(#strokeA)" stroke-width="2.0" opacity="0.85"/>
  <circle cx="1847.3" cy="46.4" r="13.3" fill="none" stroke="#FF4D8D" stroke-width="1.5" opacity="0.35"/>
  <polygon points="1858.0,49.4 1850.1,57.2 1839.4,54.2 1836.6,43.4 1844.6,35.6 1855.3,38.6" fill="none" stroke="url(#strokeB)" stroke-width="1.2" opacity="0.65"/>
  <polygon points="1850.5,48.7 1843.8,48.0 1847.7,42.5" fill="#FF4D8D" opacity="0.22" filter="url(#softGlow)"/>
</g>


<g opacity="0.729" filter="url(#hardGlow)">
  <circle cx="1841.6" cy="1047.0" r="39.3" fill="#0A1224" opacity="0.65"/>
  <circle cx="1841.6" cy="1047.0" r="39.3" fill="none" stroke="url(#strokeA)" stroke-width="3.1" opacity="0.85"/>
  <circle cx="1841.6" cy="1047.0" r="33.8" fill="none" stroke="#00FFA3" stroke-width="1.5" opacity="0.35"/>
  <polygon points="1857.3,1023.4 1869.9,1048.8 1854.1,1072.4 1825.9,1070.5 1813.3,1045.1 1829.1,1021.6" fill="none" stroke="url(#strokeB)" stroke-width="1.2" opacity="0.65"/>
  <polygon points="1849.6,1041.1 1842.7,1056.8 1832.5,1043.0" fill="#00FFA3" opacity="0.22" filter="url(#softGlow)"/>
</g>


<g opacity="0.556" filter="url(#hardGlow)">
  <circle cx="1883.8" cy="1018.4" r="16.2" fill="#0A1224" opacity="0.65"/>
  <circle cx="1883.8" cy="1018.4" r="16.2" fill="none" stroke="url(#strokeA)" stroke-width="2.0" opacity="0.85"/>
  <circle cx="1883.8" cy="1018.4" r="13.9" fill="none" stroke="#FF4D8D" stroke-width="1.5" opacity="0.35"/>
  <polygon points="1872.1,1019.0 1877.5,1008.6 1889.2,1008.0 1895.5,1017.9 1890.1,1028.2 1878.5,1028.8" fill="none" stroke="url(#strokeB)" stroke-width="1.2" opacity="0.65"/>
  <polygon points="1879.9,1017.2 1886.8,1015.6 1884.7,1022.4" fill="#FF4D8D" opacity="0.22" filter="url(#softGlow)"/>
</g>


<g opacity="0.888" filter="url(#hardGlow)">
  <circle cx="1766.6" cy="16.2" r="52.0" fill="#0A1224" opacity="0.65"/>
  <circle cx="1766.6" cy="16.2" r="52.0" fill="none" stroke="url(#strokeA)" stroke-width="4.2" opacity="0.85"/>
  <circle cx="1766.6" cy="16.2" r="44.8" fill="none" stroke="#00FFA3" stroke-width="1.6" opacity="0.35"/>
  <polygon points="1753.5,51.3 1729.7,22.4 1742.8,-12.7 1779.8,-18.9 1803.6,10.0 1790.5,45.1" fill="none" stroke="url(#strokeB)" stroke-width="1.3" opacity="0.65"/>
  <polygon points="1758.1,26.2 1762.3,3.8 1779.5,18.6" fill="#00FFA3" opacity="0.22" filter="url(#softGlow)"/>
</g>


<g opacity="0.360" filter="url(#hardGlow)">
  <circle cx="1707.3" cy="55.5" r="25.7" fill="#0A1224" opacity="0.65"/>
  <circle cx="1707.3" cy="55.5" r="25.7" fill="none" stroke="url(#strokeA)" stroke-width="2.1" opacity="0.85"/>
  <circle cx="1707.3" cy="55.5" r="22.1" fill="none" stroke="#FF4D8D" stroke-width="1.5" opacity="0.35"/>
  <polygon points="1716.7,71.4 1698.3,71.6 1688.9,55.7 1697.9,39.6 1716.4,39.4 1725.8,55.3" fill="none" stroke="url(#strokeB)" stroke-width="1.2" opacity="0.65"/>
  
</g>


<g opacity="0.517" filter="url(#hardGlow)">
  <circle cx="1712.7" cy="29.9" r="24.7" fill="#0A1224" opacity="0.65"/>
  <circle cx="1712.7" cy="29.9" r="24.7" fill="none" stroke="url(#strokeA)" stroke-width="2.0" opacity="0.85"/>
  <circle cx="1712.7" cy="29.9" r="21.3" fill="none" stroke="#FF4D8D" stroke-width="1.5" opacity="0.35"/>
  <polygon points="1696.1,36.5 1698.7,18.9 1715.3,12.3 1729.2,23.4 1726.6,41.0 1710.0,47.5" fill="none" stroke="url(#strokeB)" stroke-width="1.2" opacity="0.65"/>
  
</g>


<g opacity="0.421" filter="url(#hardGlow)">
  <circle cx="1818.7" cy="24.0" r="21.9" fill="#0A1224" opacity="0.65"/>
  <circle cx="1818.7" cy="24.0" r="21.9" fill="none" stroke="url(#strokeA)" stroke-width="2.0" opacity="0.85"/>
  <circle cx="1818.7" cy="24.0" r="18.8" fill="none" stroke="#FF4D8D" stroke-width="1.5" opacity="0.35"/>
  <polygon points="1812.9,38.7 1803.1,26.3 1808.9,11.7 1824.5,9.4 1834.3,21.7 1828.5,36.4" fill="none" stroke="url(#strokeB)" stroke-width="1.2" opacity="0.65"/>
  
</g>


<g opacity="0.766" filter="url(#hardGlow)">
  <circle cx="1830.4" cy="287.1" r="47.5" fill="#0A1224" opacity="0.65"/>
  <circle cx="1830.4" cy="287.1" r="47.5" fill="none" stroke="url(#strokeA)" stroke-width="3.8" opacity="0.85"/>
  <circle cx="1830.4" cy="287.1" r="40.8" fill="none" stroke="#00FFA3" stroke-width="1.5" opacity="0.35"/>
  <polygon points="1859.0,268.4 1860.9,302.5 1832.3,321.2 1801.8,305.8 1799.9,271.7 1828.5,253.0" fill="none" stroke="url(#strokeB)" stroke-width="1.2" opacity="0.65"/>
  <polygon points="1842.1,284.4 1827.0,298.5 1822.2,278.4" fill="#00FFA3" opacity="0.22" filter="url(#softGlow)"/>
</g>


<g opacity="0.461" filter="url(#hardGlow)">
  <circle cx="1768.8" cy="263.9" r="20.5" fill="#0A1224" opacity="0.65"/>
  <circle cx="1768.8" cy="263.9" r="20.5" fill="none" stroke="url(#strokeA)" stroke-width="2.0" opacity="0.85"/>
  <circle cx="1768.8" cy="263.9" r="17.6" fill="none" stroke="#FF4D8D" stroke-width="1.5" opacity="0.35"/>
  <polygon points="1768.8,278.7 1756.0,271.3 1756.0,256.6 1768.7,249.2 1781.5,256.5 1781.5,271.2" fill="none" stroke="url(#strokeB)" stroke-width="1.2" opacity="0.65"/>
  
</g>


<g opacity="0.419" filter="url(#hardGlow)">
  <circle cx="1884.8" cy="310.1" r="19.8" fill="#0A1224" opacity="0.65"/>
  <circle cx="1884.8" cy="310.1" r="19.8" fill="none" stroke="url(#strokeA)" stroke-width="2.0" opacity="0.85"/>
  <circle cx="1884.8" cy="310.1" r="17.0" fill="none" stroke="#FF4D8D" stroke-width="1.5" opacity="0.35"/>
  <polygon points="1890.7,297.1 1899.0,308.7 1893.1,321.6 1879.0,323.1 1870.7,311.5 1876.5,298.5" fill="none" stroke="url(#strokeB)" stroke-width="1.2" opacity="0.65"/>
  <polygon points="1888.3,306.5 1886.2,314.9 1880.0,308.9" fill="#FF4D8D" opacity="0.22" filter="url(#softGlow)"/>
</g>


<g opacity="0.530" filter="url(#hardGlow)">
  <circle cx="1845.3" cy="286.8" r="21.0" fill="#0A1224" opacity="0.65"/>
  <circle cx="1845.3" cy="286.8" r="21.0" fill="none" stroke="url(#strokeA)" stroke-width="2.0" opacity="0.85"/>
  <circle cx="1845.3" cy="286.8" r="18.1" fill="none" stroke="#FF4D8D" stroke-width="1.5" opacity="0.35"/>
  <polygon points="1830.5,283.8 1840.5,272.4 1855.4,275.5 1860.1,289.9 1850.1,301.2 1835.2,298.1" fill="none" stroke="url(#strokeB)" stroke-width="1.2" opacity="0.65"/>
  
</g>


<g opacity="0.458" transform="translate(165.4,650.3) rotate(-5.7)" filter="url(#softGlow)">
  <rect x="-84.3" y="-73.9" width="168.6" height="147.8" rx="14.8" fill="#050A12" opacity="0.25"/>
  <rect x="-84.3" y="-73.9" width="168.6" height="147.8" rx="14.8" fill="none" stroke="url(#strokeA)" stroke-width="7.4" opacity="0.85"/>
  <rect x="-72.5" y="-62.1" width="145.0" height="124.2" rx="10.3" fill="none" stroke="#FF4D8D" stroke-width="3.0" opacity="0.35"/>
</g>


<g opacity="0.374" transform="translate(51.1,176.8) rotate(7.4)" filter="url(#softGlow)">
  <rect x="-93.6" y="-79.9" width="187.3" height="159.9" rx="16.0" fill="#050A12" opacity="0.25"/>
  <rect x="-93.6" y="-79.9" width="187.3" height="159.9" rx="16.0" fill="none" stroke="url(#strokeA)" stroke-width="8.0" opacity="0.85"/>
  <rect x="-80.8" y="-67.2" width="161.7" height="134.3" rx="11.2" fill="none" stroke="#FF4D8D" stroke-width="3.2" opacity="0.35"/>
</g>


<g opacity="0.408" transform="translate(765.1,1059.4) rotate(8.5)" filter="url(#softGlow)">
  <rect x="-103.2" y="-84.1" width="206.4" height="168.3" rx="16.8" fill="#050A12" opacity="0.25"/>
  <rect x="-103.2" y="-84.1" width="206.4" height="168.3" rx="16.8" fill="none" stroke="url(#strokeA)" stroke-width="8.4" opacity="0.85"/>
  <rect x="-89.8" y="-70.7" width="179.5" height="141.4" rx="11.8" fill="none" stroke="#00FFA3" stroke-width="3.4" opacity="0.35"/>
</g>


<g opacity="0.295" transform="translate(199.9,913.6) rotate(-2.4)" filter="url(#softGlow)">
  <rect x="-108.5" y="-89.4" width="217.0" height="178.8" rx="17.9" fill="#050A12" opacity="0.25"/>
  <rect x="-108.5" y="-89.4" width="217.0" height="178.8" rx="17.9" fill="none" stroke="url(#strokeA)" stroke-width="8.9" opacity="0.85"/>
  <rect x="-94.2" y="-75.1" width="188.3" height="150.2" rx="12.5" fill="none" stroke="#FF4D8D" stroke-width="3.6" opacity="0.35"/>
</g>


<g opacity="0.471" transform="translate(1712.7,29.1) rotate(-12.0)" filter="url(#softGlow)">
  <rect x="-59.1" y="-34.0" width="118.2" height="68.1" rx="20.8" fill="none" stroke="#FF4D8D" stroke-width="11.3" opacity="0.55"/>
  <rect x="-26.0" y="-17.0" width="118.2" height="68.1" rx="20.8" fill="none" stroke="url(#strokeA)" stroke-width="9.5" opacity="0.55"/>
</g>


<g opacity="0.330" transform="translate(1865.9,83.7) rotate(-7.8)" filter="url(#softGlow)">
  <rect x="-58.2" y="-33.5" width="116.3" height="67.0" rx="20.5" fill="none" stroke="#00FFA3" stroke-width="11.2" opacity="0.55"/>
  <rect x="-25.6" y="-16.7" width="116.3" height="67.0" rx="20.5" fill="none" stroke="url(#strokeA)" stroke-width="9.3" opacity="0.55"/>
</g>


<g opacity="0.294" transform="translate(92.9,45.0) rotate(-8.0)" filter="url(#softGlow)">
  <rect x="-58.6" y="-33.8" width="117.3" height="67.6" rx="20.6" fill="none" stroke="#00FFA3" stroke-width="11.3" opacity="0.55"/>
  <rect x="-25.8" y="-16.9" width="117.3" height="67.6" rx="20.6" fill="none" stroke="url(#strokeA)" stroke-width="9.4" opacity="0.55"/>
</g>


<g opacity="0.263" transform="translate(109.7,120.4) rotate(-3.1)" filter="url(#softGlow)">
  <rect x="-35.9" y="-20.7" width="71.8" height="41.4" rx="12.6" fill="none" stroke="#00FFA3" stroke-width="6.9" opacity="0.55"/>
  <rect x="-15.8" y="-10.3" width="71.8" height="41.4" rx="12.6" fill="none" stroke="url(#strokeA)" stroke-width="5.7" opacity="0.55"/>
</g>


<g opacity="0.413" transform="translate(1866.3,473.7) rotate(-3.1)" filter="url(#softGlow)">
  <rect x="-56.0" y="-32.3" width="112.1" height="64.6" rx="19.7" fill="none" stroke="#FF4D8D" stroke-width="10.8" opacity="0.55"/>
  <rect x="-24.7" y="-16.1" width="112.1" height="64.6" rx="19.7" fill="none" stroke="url(#strokeA)" stroke-width="9.0" opacity="0.55"/>
</g>


<g opacity="0.309" transform="translate(85.3,649.0) rotate(-6.0)" filter="url(#softGlow)">
  <rect x="-46.8" y="-27.0" width="93.7" height="54.0" rx="16.5" fill="none" stroke="#FF4D8D" stroke-width="9.0" opacity="0.55"/>
  <rect x="-20.6" y="-13.5" width="93.7" height="54.0" rx="16.5" fill="none" stroke="url(#strokeA)" stroke-width="7.5" opacity="0.55"/>
</g>


<g opacity="0.307" transform="translate(1819.7,986.8) rotate(-1.8)" filter="url(#softGlow)">
  <rect x="-59.6" y="-34.3" width="119.2" height="68.7" rx="21.0" fill="none" stroke="#FF4D8D" stroke-width="11.4" opacity="0.55"/>
  <rect x="-26.2" y="-17.2" width="119.2" height="68.7" rx="21.0" fill="none" stroke="url(#strokeA)" stroke-width="9.5" opacity="0.55"/>
</g>


<g opacity="0.275" transform="translate(183.5,52.5) rotate(-14.3)" filter="url(#softGlow)">
  <rect x="-48.4" y="-27.9" width="96.8" height="55.7" rx="17.0" fill="none" stroke="#00FFA3" stroke-width="9.3" opacity="0.55"/>
  <rect x="-21.3" y="-13.9" width="96.8" height="55.7" rx="17.0" fill="none" stroke="url(#strokeA)" stroke-width="7.7" opacity="0.55"/>
</g>


<g opacity="0.211">
  <line x1="33.4" y1="914.6" x2="33.4" y2="1001.4" stroke="#FF4D8D" stroke-width="1.13" opacity="0.45"/>
  <rect x="29.4" y="957.1" width="8.1" height="53.8" rx="2.7" fill="#0B1020" opacity="0.55" stroke="url(#strokeA)" stroke-width="1.2"/>
</g>

<g opacity="0.211">
  <line x1="1659.7" y1="908.5" x2="1659.7" y2="1002.9" stroke="#FF4D8D" stroke-width="1.30" opacity="0.45"/>
  <rect x="1655.9" y="958.2" width="7.5" height="51.7" rx="2.5" fill="#0B1020" opacity="0.55" stroke="url(#strokeA)" stroke-width="1.2"/>
</g>

<g opacity="0.211">
  <line x1="1104.1" y1="931.3" x2="1104.1" y2="997.2" stroke="#FF4D8D" stroke-width="1.21" opacity="0.45"/>
  <rect x="1100.7" y="968.0" width="6.9" height="32.2" rx="2.3" fill="#0B1020" opacity="0.55" stroke="url(#strokeA)" stroke-width="1.2"/>
</g>

<g opacity="0.211">
  <line x1="986.6" y1="926.1" x2="986.6" y2="998.5" stroke="#FF4D8D" stroke-width="2.05" opacity="0.45"/>
  <rect x="981.3" y="974.5" width="10.5" height="19.1" rx="3.5" fill="#0B1020" opacity="0.55" stroke="url(#strokeA)" stroke-width="1.2"/>
</g>

<g opacity="0.211">
  <line x1="1592.0" y1="927.0" x2="1592.0" y2="998.3" stroke="#FF4D8D" stroke-width="1.48" opacity="0.45"/>
  <rect x="1586.4" y="964.4" width="11.1" height="39.3" rx="3.7" fill="#0B1020" opacity="0.55" stroke="url(#strokeA)" stroke-width="1.2"/>
</g>

<g opacity="0.211">
  <line x1="1058.1" y1="936.3" x2="1058.1" y2="996.0" stroke="#FF4D8D" stroke-width="1.50" opacity="0.45"/>
  <rect x="1052.3" y="970.1" width="11.6" height="27.9" rx="3.9" fill="#0B1020" opacity="0.55" stroke="url(#strokeA)" stroke-width="1.2"/>
</g>

<g opacity="0.211">
  <line x1="1515.8" y1="887.3" x2="1515.8" y2="1008.2" stroke="#FF4D8D" stroke-width="1.11" opacity="0.45"/>
  <rect x="1510.1" y="955.3" width="11.3" height="57.4" rx="3.8" fill="#0B1020" opacity="0.55" stroke="url(#strokeA)" stroke-width="1.2"/>
</g>

<g opacity="0.211">
  <line x1="1421.4" y1="927.7" x2="1421.4" y2="998.1" stroke="#FF4D8D" stroke-width="1.80" opacity="0.45"/>
  <rect x="1416.8" y="974.5" width="9.1" height="19.1" rx="3.0" fill="#0B1020" opacity="0.55" stroke="url(#strokeA)" stroke-width="1.2"/>
</g>

<g opacity="0.211">
  <line x1="992.6" y1="931.8" x2="992.6" y2="997.1" stroke="#FF4D8D" stroke-width="1.95" opacity="0.45"/>
  <rect x="988.1" y="965.7" width="9.0" height="36.6" rx="3.0" fill="#0B1020" opacity="0.55" stroke="url(#strokeA)" stroke-width="1.2"/>
</g>

<g opacity="0.211">
  <line x1="614.9" y1="912.9" x2="614.9" y2="1001.8" stroke="#FF4D8D" stroke-width="1.64" opacity="0.45"/>
  <rect x="611.8" y="961.7" width="6.3" height="44.6" rx="2.1" fill="#0B1020" opacity="0.55" stroke="url(#strokeA)" stroke-width="1.2"/>
</g>

<g opacity="0.211">
  <line x1="211.8" y1="930.8" x2="211.8" y2="997.4" stroke="#FF4D8D" stroke-width="1.22" opacity="0.45"/>
  <rect x="205.9" y="969.2" width="11.8" height="29.6" rx="3.9" fill="#0B1020" opacity="0.55" stroke="url(#strokeA)" stroke-width="1.2"/>
</g>
<circle cx="201.9" cy="131.4" r="2.9" fill="#00FFA3" opacity="0.22" filter="url(#softGlow)"/>
<circle cx="1808.1" cy="835.2" r="2.1" fill="#00FFA3" opacity="0.24" filter="url(#softGlow)"/>
<circle cx="1813.3" cy="1057.7" r="2.0" fill="#00FFA3" opacity="0.15" filter="url(#softGlow)"/>
<circle cx="21.2" cy="203.3" r="2.8" fill="#00FFA3" opacity="0.25" filter="url(#softGlow)"/>
<circle cx="1883.2" cy="42.0" r="1.7" fill="#00FFA3" opacity="0.11" filter="url(#softGlow)"/>
<circle cx="50.8" cy="647.4" r="2.0" fill="#00FFA3" opacity="0.19" filter="url(#softGlow)"/>
<circle cx="1832.0" cy="174.8" r="2.2" fill="#00FFA3" opacity="0.12" filter="url(#softGlow)"/>
<circle cx="1892.7" cy="936.6" r="2.9" fill="#00FFA3" opacity="0.11" filter="url(#softGlow)"/>
<circle cx="118.9" cy="1021.9" r="2.5" fill="#00FFA3" opacity="0.22" filter="url(#softGlow)"/>
<circle cx="123.5" cy="162.7" r="1.5" fill="#00FFA3" opacity="0.24" filter="url(#softGlow)"/>
<circle cx="414.9" cy="3.3" r="2.2" fill="#00FFA3" opacity="0.26" filter="url(#softGlow)"/>
<circle cx="34.5" cy="732.6" r="2.4" fill="#00FFA3" opacity="0.20" filter="url(#softGlow)"/>
<circle cx="155.9" cy="48.8" r="1.3" fill="#00FFA3" opacity="0.20" filter="url(#softGlow)"/>
<circle cx="47.6" cy="997.3" r="2.9" fill="#00FFA3" opacity="0.20" filter="url(#softGlow)"/>
<circle cx="164.4" cy="95.4" r="2.5" fill="#00FFA3" opacity="0.19" filter="url(#softGlow)"/>
<circle cx="21.1" cy="194.2" r="2.5" fill="#00FFA3" opacity="0.10" filter="url(#softGlow)"/>
<circle cx="686.7" cy="7.3" r="1.4" fill="#00FFA3" opacity="0.19" filter="url(#softGlow)"/>
<circle cx="71.5" cy="546.8" r="2.0" fill="#00FFA3" opacity="0.26" filter="url(#softGlow)"/>
<circle cx="5.5" cy="462.9" r="2.9" fill="#00FFA3" opacity="0.25" filter="url(#softGlow)"/>
<circle cx="71.4" cy="12.9" r="3.1" fill="#00FFA3" opacity="0.12" filter="url(#softGlow)"/>
<circle cx="1867.6" cy="53.6" r="3.1" fill="#00FFA3" opacity="0.23" filter="url(#softGlow)"/>
<circle cx="531.0" cy="36.5" r="3.2" fill="#00FFA3" opacity="0.23" filter="url(#softGlow)"/>
<circle cx="1765.5" cy="969.3" r="2.2" fill="#00FFA3" opacity="0.11" filter="url(#softGlow)"/>
<circle cx="1087.0" cy="983.5" r="1.5" fill="#00FFA3" opacity="0.15" filter="url(#softGlow)"/>
<circle cx="132.3" cy="1021.1" r="1.7" fill="#00FFA3" opacity="0.19" filter="url(#softGlow)"/>
<circle cx="1765.4" cy="167.0" r="2.8" fill="#00FFA3" opacity="0.12" filter="url(#softGlow)"/>
<circle cx="771.3" cy="128.0" r="2.6" fill="#00FFA3" opacity="0.22" filter="url(#softGlow)"/>
<circle cx="1778.4" cy="198.5" r="3.2" fill="#00FFA3" opacity="0.17" filter="url(#softGlow)"/>
<circle cx="1900.5" cy="1050.0" r="2.4" fill="#00FFA3" opacity="0.27" filter="url(#softGlow)"/>
</svg>