<svg xmlns="http://www.w3.org/2000/svg" width="1920" height="1080" viewBox="0 0 1920 1080" preserveAspectRatio="xMidYMid slice">
<defs>
  <linearGradient id="g0" x1="0" y1="0" x2="1" y2="1">
    <stop offset="0" stop-color="#0A0F1E"/>
    <stop offset="0.55" stop-color="#00FFA3" stop-opacity="0.9"/>
    <stop offset="1" stop-color="#050A12"/>
  </linearGradient>
  <radialGradient id="g1" cx="20%" cy="15%" r="70%">
    <stop offset="0" stop-color="#14C2FF" stop-opacity="0.38"/>
    <stop offset="0.6" stop-color="#14C2FF" stop-opacity="0.08"/>
    <stop offset="1" stop-color="#14C2FF" stop-opacity="0"/>
  </radialGradient>
  <radialGradient id="g2" cx="85%" cy="80%" r="75%">
    <stop offset="0" stop-color="#14C2FF" stop-opacity="0.28"/>
    <stop offset="0.65" stop-color="#14C2FF" stop-opacity="0.06"/>
    <stop offset="1" stop-color="#14C2FF" stop-opacity="0"/>
  </radialGradient>
  <filter id="softGlow" x="-30%" y="-30%" width="160%" height="160%">
    <feGaussianBlur stdDeviation="12" result="b"/>
    <feMerge>
      <feMergeNode in="b"/>
      <feMergeNode in="SourceGraphic"/>
    </feMerge>
  </filter>
  <filter id="hardGlow" x="-40%" y="-40%" width="180%" height="180%">
    <feGaussianBlur stdDeviation="6" result="b"/>
    <feColorMatrix in="b" type="matrix" values="1 0 0 0 0  0 1 0 0 0  0 0 1 0 0  0 0 0 18 -7" result="c"/>
    <feMerge>
      <feMergeNode in="c"/>
      <feMergeNode in="SourceGraphic"/>
    </feMerge>
  </filter>
  <linearGradient id="strokeA" x1="0" y1="0" x2="1" y2="0">
    <stop offset="0" stop-color="#14C2FF" stop-opacity="0.9"/>
    <stop offset="0.5" stop-color="#FFFFFF" stop-opacity="0.25"/>
    <stop offset="1" stop-color="#14C2FF" stop-opacity="0.7"/>
  </linearGradient>
  <linearGradient id="strokeB" x1="0" y1="0" x2="0" y2="1">
    <stop offset="0" stop-color="#FFFFFF" stop-opacity="0.18"/>
    <stop offset="1" stop-color="#14C2FF" stop-opacity="0.55"/>
  </linearGradient>
</defs>
<rect x="0" y="0" width="1920" height="1080" fill="url(#g0)"/>
<rect x="0" y="0" width="1920" height="1080" fill="url(#g1)"/>
<rect x="0" y="0" width="1920" height="1080" fill="url(#g2)"/>


<defs>
  <radialGradient id="vign" cx="0.5000" cy="0.5093" r="0.85">
    <stop offset="0" stop-color="#000000" stop-opacity="0"/>
    <stop offset="0.55" stop-color="#000000" stop-opacity="0.217"/>
    <stop offset="1" stop-color="#000000" stop-opacity="0.620"/>
  </radialGradient>
</defs>
<rect x="0" y="0" width="1920" height="1080" fill="url(#vign)"/>

<g opacity="0.190" filter="url(#softGlow)"><path d="M 1887.9,184.3 L 1810.1,184.3 L 1810.1,942.3 L 172.3,942.3 L 172.3,104.5 " fill="none" stroke="url(#strokeB)" stroke-width="1.48" stroke-linecap="round" stroke-linejoin="round"/><circle cx="1810.1" cy="942.3" r="3.4" fill="#00FFA3" opacity="0.45"/><circle cx="172.3" cy="104.5" r="2.9" fill="#00FFA3" opacity="0.45"/><circle cx="1810.1" cy="184.3" r="2.4" fill="#00FFA3" opacity="0.45"/></g>
<g opacity="0.190" filter="url(#softGlow)"><path d="M 179.8,143.9 L 1911.6,143.9 L 1911.6,1007.3 L 23.8,1007.3 L 23.8,277.6 " fill="none" stroke="url(#strokeB)" stroke-width="1.58" stroke-linecap="round" stroke-linejoin="round"/><circle cx="23.8" cy="277.6" r="3.0" fill="#00FFA3" opacity="0.45"/><circle cx="1911.6" cy="143.9" r="2.4" fill="#00FFA3" opacity="0.45"/><circle cx="1911.6" cy="1007.3" r="2.9" fill="#00FFA3" opacity="0.45"/></g>
<g opacity="0.190" filter="url(#softGlow)"><path d="M 1014.3,87.2 L 1751.5,87.2 L 1751.5,876.9 L 1796.0,876.9 L 1796.0,811.4 " fill="none" stroke="url(#strokeB)" stroke-width="1.31" stroke-linecap="round" stroke-linejoin="round"/><circle cx="1014.3" cy="87.2" r="3.0" fill="#00FFA3" opacity="0.45"/><circle cx="1751.5" cy="876.9" r="3.1" fill="#00FFA3" opacity="0.45"/><circle cx="1796.0" cy="811.4" r="3.5" fill="#00FFA3" opacity="0.45"/></g>
<g opacity="0.190" filter="url(#softGlow)"><path d="M 81.7,35.6 L 582.7,35.6 L 582.7,61.9 L 1776.8,61.9 L 1776.8,1028.3 " fill="none" stroke="url(#strokeB)" stroke-width="1.34" stroke-linecap="round" stroke-linejoin="round"/><circle cx="81.7" cy="35.6" r="2.1" fill="#00FFA3" opacity="0.45"/><circle cx="582.7" cy="61.9" r="4.2" fill="#00FFA3" opacity="0.45"/><circle cx="1776.8" cy="61.9" r="2.4" fill="#00FFA3" opacity="0.45"/></g>
<g opacity="0.190" filter="url(#softGlow)"><path d="M 493.8,113.8 L 113.9,113.8 L 113.9,519.4 L 1879.3,519.4 L 1879.3,248.3 " fill="none" stroke="url(#strokeB)" stroke-width="1.79" stroke-linecap="round" stroke-linejoin="round"/><circle cx="1879.3" cy="248.3" r="3.6" fill="#00FFA3" opacity="0.45"/><circle cx="113.9" cy="113.8" r="3.7" fill="#00FFA3" opacity="0.45"/><circle cx="113.9" cy="519.4" r="3.9" fill="#00FFA3" opacity="0.45"/></g>
<g opacity="0.190" filter="url(#softGlow)"><path d="M 1785.1,997.3 L 1812.0,997.3 L 1812.0,815.6 L 194.0,815.6 L 194.0,180.2 " fill="none" stroke="url(#strokeB)" stroke-width="1.35" stroke-linecap="round" stroke-linejoin="round"/><circle cx="1812.0" cy="815.6" r="3.2" fill="#00FFA3" opacity="0.45"/><circle cx="194.0" cy="815.6" r="3.3" fill="#00FFA3" opacity="0.45"/><circle cx="1812.0" cy="997.3" r="3.3" fill="#00FFA3" opacity="0.45"/></g>
<g opacity="0.190" filter="url(#softGlow)"><path d="M 46.0,1008.0 L 1868.0,1008.0 L 1868.0,1003.8 L 40.5,1003.8 L 40.5,919.6 " fill="none" stroke="url(#strokeB)" stroke-width="2.16" stroke-linecap="round" stroke-linejoin="round"/><circle cx="46.0" cy="1008.0" r="3.0" fill="#00FFA3" opacity="0.45"/><circle cx="1868.0" cy="1008.0" r="3.5" fill="#00FFA3" opacity="0.45"/><circle cx="40.5" cy="1003.8" r="3.0" fill="#00FFA3" opacity="0.45"/></g>
<g opacity="0.190" filter="url(#softGlow)"><path d="M 1777.3,887.8 L 1711.2,887.8 L 1711.2,54.3 L 9.9,54.3 L 9.9,82.6 " fill="none" stroke="url(#strokeB)" stroke-width="1.66" stroke-linecap="round" stroke-linejoin="round"/><circle cx="9.9" cy="82.6" r="2.9" fill="#00FFA3" opacity="0.45"/><circle cx="1711.2" cy="54.3" r="3.7" fill="#00FFA3" opacity="0.45"/><circle cx="1711.2" cy="887.8" r="4.2" fill="#00FFA3" opacity="0.45"/></g>
<g opacity="0.190" filter="url(#softGlow)"><path d="M 134.1,709.5 L 1905.7,709.5 L 1905.7,771.5 L 1848.3,771.5 L 1848.3,30.7 " fill="none" stroke="url(#strokeB)" stroke-width="1.49" stroke-linecap="round" stroke-linejoin="round"/><circle cx="1905.7" cy="709.5" r="2.4" fill="#00FFA3" opacity="0.45"/><circle cx="1848.3" cy="771.5" r="3.1" fill="#00FFA3" opacity="0.45"/><circle cx="1905.7" cy="771.5" r="3.1" fill="#00FFA3" opacity="0.45"/></g>
<g opacity="0.190" filter="url(#softGlow)"><path d="M 95.8,151.5 L 1710.0,151.5 L 1710.0,280.4 L 1759.2,280.4 L 1759.2,137.1 " fill="none" stroke="url(#strokeB)" stroke-width="2.13" stroke-linecap="round" stroke-linejoin="round"/><circle cx="1759.2" cy="280.4" r="3.7" fill="#00FFA3" opacity="0.45"/><circle cx="1710.0" cy="280.4" r="3.5" fill="#00FFA3" opacity="0.45"/><circle cx="1710.0" cy="151.5" r="2.9" fill="#00FFA3" opacity="0.45"/></g>
<g opacity="0.190" filter="url(#softGlow)"><path d="M 186.5,129.6 L 1737.7,129.6 L 1737.7,880.5 L 25.7,880.5 L 25.7,139.8 " fill="none" stroke="url(#strokeB)" stroke-width="1.49" stroke-linecap="round" stroke-linejoin="round"/><circle cx="186.5" cy="129.6" r="3.4" fill="#00FFA3" opacity="0.45"/><circle cx="1737.7" cy="129.6" r="3.4" fill="#00FFA3" opacity="0.45"/><circle cx="25.7" cy="880.5" r="2.1" fill="#00FFA3" opacity="0.45"/></g>
<g opacity="0.190" filter="url(#softGlow)"><path d="M 90.2,606.4 L 1285.4,606.4 L 1285.4,45.9 L 60.4,45.9 L 60.4,1036.4 " fill="none" stroke="url(#strokeB)" stroke-width="1.94" stroke-linecap="round" stroke-linejoin="round"/><circle cx="60.4" cy="45.9" r="2.3" fill="#00FFA3" opacity="0.45"/><circle cx="60.4" cy="1036.4" r="2.0" fill="#00FFA3" opacity="0.45"/><circle cx="1285.4" cy="606.4" r="2.1" fill="#00FFA3" opacity="0.45"/></g>
<g opacity="0.190" filter="url(#softGlow)"><path d="M 11.1,600.6 L 77.3,600.6 L 77.3,127.4 L 340.1,127.4 L 340.1,1065.8 " fill="none" stroke="url(#strokeB)" stroke-width="1.19" stroke-linecap="round" stroke-linejoin="round"/><circle cx="77.3" cy="127.4" r="2.4" fill="#00FFA3" opacity="0.45"/><circle cx="11.1" cy="600.6" r="3.1" fill="#00FFA3" opacity="0.45"/><circle cx="340.1" cy="127.4" r="3.5" fill="#00FFA3" opacity="0.45"/></g>
<g opacity="0.190" filter="url(#softGlow)"><path d="M 75.5,891.0 L 1775.4,891.0 L 1775.4,1012.0 L 1872.4,1012.0 L 1872.4,27.1 " fill="none" stroke="url(#strokeB)" stroke-width="1.48" stroke-linecap="round" stroke-linejoin="round"/><circle cx="75.5" cy="891.0" r="3.0" fill="#00FFA3" opacity="0.45"/><circle cx="1872.4" cy="27.1" r="3.2" fill="#00FFA3" opacity="0.45"/><circle cx="1775.4" cy="1012.0" r="3.3" fill="#00FFA3" opacity="0.45"/></g>
<g opacity="0.190" filter="url(#softGlow)"><path d="M 1901.2,208.6 L 1902.2,208.6 L 1902.2,921.8 L 1901.1,921.8 L 1901.1,923.9 " fill="none" stroke="url(#strokeB)" stroke-width="1.82" stroke-linecap="round" stroke-linejoin="round"/><circle cx="1901.2" cy="208.6" r="2.9" fill="#00FFA3" opacity="0.45"/><circle cx="1901.1" cy="923.9" r="3.7" fill="#00FFA3" opacity="0.45"/><circle cx="1901.1" cy="921.8" r="2.4" fill="#00FFA3" opacity="0.45"/></g>
<g opacity="0.190" filter="url(#softGlow)"><path d="M 1866.8,503.4 L 1882.2,503.4 L 1882.2,1003.0 L 214.5,1003.0 L 214.5,665.1 " fill="none" stroke="url(#strokeB)" stroke-width="1.69" stroke-linecap="round" stroke-linejoin="round"/><circle cx="1866.8" cy="503.4" r="3.6" fill="#00FFA3" opacity="0.45"/><circle cx="1882.2" cy="503.4" r="3.7" fill="#00FFA3" opacity="0.45"/><circle cx="1882.2" cy="1003.0" r="2.8" fill="#00FFA3" opacity="0.45"/></g>

<g opacity="0.862" filter="url(#hardGlow)">
  <circle cx="140.5" cy="15.3" r="51.8" fill="#0A1224" opacity="0.65"/>
  <circle cx="140.5" cy="15.3" r="51.8" fill="none" stroke="url(#strokeA)" stroke-width="4.1" opacity="0.85"/>
  <circle cx="140.5" cy="15.3" r="44.5" fill="none" stroke="#14C2FF" stroke-width="1.6" opacity="0.35"/>
  <polygon points="124.4,-18.3 161.6,-15.4 177.7,18.2 156.6,48.9 119.5,46.1 103.4,12.5" fill="none" stroke="url(#strokeB)" stroke-width="1.3" opacity="0.65"/>
  <polygon points="139.3,2.4 152.4,20.7 129.9,22.9" fill="#14C2FF" opacity="0.22" filter="url(#softGlow)"/>
</g>


<g opacity="0.384" filter="url(#hardGlow)">
  <circle cx="173.8" cy="-10.2" r="27.7" fill="#0A1224" opacity="0.65"/>
  <circle cx="173.8" cy="-10.2" r="27.7" fill="none" stroke="url(#strokeA)" stroke-width="2.2" opacity="0.85"/>
  <circle cx="173.8" cy="-10.2" r="23.8" fill="none" stroke="#00FFA3" stroke-width="1.5" opacity="0.35"/>
  <polygon points="162.3,6.1 153.9,-12.0 165.5,-28.3 185.3,-26.4 193.7,-8.3 182.1,8.0" fill="none" stroke="url(#strokeB)" stroke-width="1.2" opacity="0.65"/>
  
</g>


<g opacity="0.387" filter="url(#hardGlow)">
  <circle cx="202.1" cy="42.9" r="22.7" fill="#0A1224" opacity="0.65"/>
  <circle cx="202.1" cy="42.9" r="22.7" fill="none" stroke="url(#strokeA)" stroke-width="2.0" opacity="0.85"/>
  <circle cx="202.1" cy="42.9" r="19.6" fill="none" stroke="#00FFA3" stroke-width="1.5" opacity="0.35"/>
  <polygon points="189.1,52.8 187.0,36.6 200.0,26.7 215.1,33.0 217.2,49.2 204.2,59.2" fill="none" stroke="url(#strokeB)" stroke-width="1.2" opacity="0.65"/>
  
</g>


<g opacity="0.814" filter="url(#hardGlow)">
  <circle cx="1444.5" cy="1061.6" r="68.8" fill="#0A1224" opacity="0.65"/>
  <circle cx="1444.5" cy="1061.6" r="68.8" fill="none" stroke="url(#strokeA)" stroke-width="5.5" opacity="0.85"/>
  <circle cx="1444.5" cy="1061.6" r="59.1" fill="none" stroke="#14C2FF" stroke-width="2.1" opacity="0.35"/>
  <polygon points="1414.1,1022.5 1463.1,1015.7 1493.5,1054.7 1474.9,1100.6 1425.9,1107.5 1395.5,1068.4" fill="none" stroke="url(#strokeB)" stroke-width="1.7" opacity="0.65"/>
  <polygon points="1439.2,1045.1 1461.5,1065.2 1432.9,1074.4" fill="#14C2FF" opacity="0.22" filter="url(#softGlow)"/>
</g>


<g opacity="0.577" filter="url(#hardGlow)">
  <circle cx="1381.9" cy="1000.3" r="24.5" fill="#0A1224" opacity="0.65"/>
  <circle cx="1381.9" cy="1000.3" r="24.5" fill="none" stroke="url(#strokeA)" stroke-width="2.0" opacity="0.85"/>
  <circle cx="1381.9" cy="1000.3" r="21.1" fill="none" stroke="#00FFA3" stroke-width="1.5" opacity="0.35"/>
  <polygon points="1387.5,1017.0 1370.2,1013.5 1364.6,996.8 1376.2,983.5 1393.5,987.0 1399.2,1003.7" fill="none" stroke="url(#strokeB)" stroke-width="1.2" opacity="0.65"/>
  
</g>


<g opacity="0.811" filter="url(#hardGlow)">
  <circle cx="49.9" cy="66.1" r="50.5" fill="#0A1224" opacity="0.65"/>
  <circle cx="49.9" cy="66.1" r="50.5" fill="none" stroke="url(#strokeA)" stroke-width="4.0" opacity="0.85"/>
  <circle cx="49.9" cy="66.1" r="43.5" fill="none" stroke="#14C2FF" stroke-width="1.5" opacity="0.35"/>
  <polygon points="48.7,29.8 80.8,46.9 82.0,83.3 51.1,102.5 19.0,85.4 17.8,49.0" fill="none" stroke="url(#strokeB)" stroke-width="1.3" opacity="0.65"/>
  <polygon points="53.9,54.0 58.4,75.6 37.5,68.8" fill="#14C2FF" opacity="0.22" filter="url(#softGlow)"/>
</g>


<g opacity="0.587" filter="url(#hardGlow)">
  <circle cx="31.1" cy="12.9" r="27.6" fill="#0A1224" opacity="0.65"/>
  <circle cx="31.1" cy="12.9" r="27.6" fill="none" stroke="url(#strokeA)" stroke-width="2.2" opacity="0.85"/>
  <circle cx="31.1" cy="12.9" r="23.8" fill="none" stroke="#00FFA3" stroke-width="1.5" opacity="0.35"/>
  <polygon points="34.5,-6.7 49.8,6.0 46.4,25.6 27.7,32.5 12.4,19.8 15.8,0.2" fill="none" stroke="url(#strokeB)" stroke-width="1.2" opacity="0.65"/>
  <polygon points="34.6,6.8 34.6,18.9 24.1,12.9" fill="#00FFA3" opacity="0.22" filter="url(#softGlow)"/>
</g>


<g opacity="0.407" filter="url(#hardGlow)">
  <circle cx="38.8" cy="37.1" r="18.8" fill="#0A1224" opacity="0.65"/>
  <circle cx="38.8" cy="37.1" r="18.8" fill="none" stroke="url(#strokeA)" stroke-width="2.0" opacity="0.85"/>
  <circle cx="38.8" cy="37.1" r="16.2" fill="none" stroke="#00FFA3" stroke-width="1.5" opacity="0.35"/>
  <polygon points="30.1,26.7 43.5,24.4 52.1,34.8 47.4,47.6 34.0,49.8 25.4,39.4" fill="none" stroke="url(#strokeB)" stroke-width="1.2" opacity="0.65"/>
  
</g>


<g opacity="0.817" filter="url(#hardGlow)">
  <circle cx="158.1" cy="1019.6" r="51.7" fill="#0A1224" opacity="0.65"/>
  <circle cx="158.1" cy="1019.6" r="51.7" fill="none" stroke="url(#strokeA)" stroke-width="4.1" opacity="0.85"/>
  <circle cx="158.1" cy="1019.6" r="44.5" fill="none" stroke="#14C2FF" stroke-width="1.6" opacity="0.35"/>
  <polygon points="127.8,1041.1 124.2,1004.1 154.6,982.5 188.4,998.0 192.0,1035.1 161.6,1056.6" fill="none" stroke="url(#strokeB)" stroke-width="1.3" opacity="0.65"/>
  <polygon points="145.5,1023.0 161.4,1007.0 167.4,1028.7" fill="#14C2FF" opacity="0.22" filter="url(#softGlow)"/>
</g>


<g opacity="0.511" filter="url(#hardGlow)">
  <circle cx="215.7" cy="1072.7" r="20.4" fill="#0A1224" opacity="0.65"/>
  <circle cx="215.7" cy="1072.7" r="20.4" fill="none" stroke="url(#strokeA)" stroke-width="2.0" opacity="0.85"/>
  <circle cx="215.7" cy="1072.7" r="17.5" fill="none" stroke="#00FFA3" stroke-width="1.5" opacity="0.35"/>
  <polygon points="229.8,1076.8 219.2,1086.9 205.1,1082.9 201.6,1068.6 212.2,1058.4 226.3,1062.5" fill="none" stroke="url(#strokeB)" stroke-width="1.2" opacity="0.65"/>
  
</g>


<g opacity="0.622" filter="url(#hardGlow)">
  <circle cx="87.8" cy="1046.1" r="21.5" fill="#0A1224" opacity="0.65"/>
  <circle cx="87.8" cy="1046.1" r="21.5" fill="none" stroke="url(#strokeA)" stroke-width="2.0" opacity="0.85"/>
  <circle cx="87.8" cy="1046.1" r="18.5" fill="none" stroke="#00FFA3" stroke-width="1.5" opacity="0.35"/>
  <polygon points="102.1,1052.0 89.9,1061.5 75.5,1055.6 73.5,1040.2 85.8,1030.7 100.1,1036.6" fill="none" stroke="url(#strokeB)" stroke-width="1.2" opacity="0.65"/>
  
</g>


<g opacity="0.457" filter="url(#hardGlow)">
  <circle cx="150.0" cy="983.3" r="24.0" fill="#0A1224" opacity="0.65"/>
  <circle cx="150.0" cy="983.3" r="24.0" fill="none" stroke="url(#strokeA)" stroke-width="2.0" opacity="0.85"/>
  <circle cx="150.0" cy="983.3" r="20.7" fill="none" stroke="#00FFA3" stroke-width="1.5" opacity="0.35"/>
  <polygon points="133.2,978.9 145.4,966.6 162.2,970.9 166.7,987.6 154.6,1000.0 137.8,995.6" fill="none" stroke="url(#strokeB)" stroke-width="1.2" opacity="0.65"/>
  
</g>


<g opacity="0.457" transform="translate(969.1,93.3) rotate(6.9)" filter="url(#softGlow)">
  <rect x="-105.0" y="-86.2" width="210.0" height="172.4" rx="17.2" fill="#050A12" opacity="0.25"/>
  <rect x="-105.0" y="-86.2" width="210.0" height="172.4" rx="17.2" fill="none" stroke="url(#strokeA)" stroke-width="8.6" opacity="0.85"/>
  <rect x="-91.2" y="-72.4" width="182.4" height="144.8" rx="12.1" fill="none" stroke="#FF4D8D" stroke-width="3.4" opacity="0.35"/>
</g>


<g opacity="0.459" transform="translate(4.8,1075.2) rotate(1.6)" filter="url(#softGlow)">
  <rect x="-101.9" y="-79.7" width="203.9" height="159.4" rx="15.9" fill="#050A12" opacity="0.25"/>
  <rect x="-101.9" y="-79.7" width="203.9" height="159.4" rx="15.9" fill="none" stroke="url(#strokeA)" stroke-width="8.0" opacity="0.85"/>
  <rect x="-89.2" y="-66.9" width="178.4" height="133.9" rx="11.2" fill="none" stroke="#FF4D8D" stroke-width="3.2" opacity="0.35"/>
</g>


<g opacity="0.330" transform="translate(21.4,905.9) rotate(-8.7)" filter="url(#softGlow)">
  <rect x="-111.9" y="-105.4" width="223.8" height="210.9" rx="21.1" fill="#050A12" opacity="0.25"/>
  <rect x="-111.9" y="-105.4" width="223.8" height="210.9" rx="21.1" fill="none" stroke="url(#strokeA)" stroke-width="10.5" opacity="0.85"/>
  <rect x="-95.1" y="-88.6" width="190.1" height="177.1" rx="14.8" fill="none" stroke="#00FFA3" stroke-width="4.2" opacity="0.35"/>
</g>


<g opacity="0.269" transform="translate(1783.5,881.1) rotate(9.3)" filter="url(#softGlow)">
  <rect x="-42.3" y="-24.4" width="84.7" height="48.8" rx="14.9" fill="none" stroke="#00FFA3" stroke-width="8.1" opacity="0.55"/>
  <rect x="-18.6" y="-12.2" width="84.7" height="48.8" rx="14.9" fill="none" stroke="url(#strokeA)" stroke-width="6.8" opacity="0.55"/>
</g>


<g opacity="0.454" transform="translate(13.3,423.9) rotate(10.4)" filter="url(#softGlow)">
  <rect x="-47.3" y="-27.3" width="94.7" height="54.5" rx="16.7" fill="none" stroke="#14C2FF" stroke-width="9.1" opacity="0.55"/>
  <rect x="-20.8" y="-13.6" width="94.7" height="54.5" rx="16.7" fill="none" stroke="url(#strokeA)" stroke-width="7.6" opacity="0.55"/>
</g>


<g opacity="0.391" transform="translate(1718.9,525.5) rotate(-17.8)" filter="url(#softGlow)">
  <rect x="-42.2" y="-24.3" width="84.4" height="48.6" rx="14.9" fill="none" stroke="#FF4D8D" stroke-width="8.1" opacity="0.55"/>
  <rect x="-18.6" y="-12.2" width="84.4" height="48.6" rx="14.9" fill="none" stroke="url(#strokeA)" stroke-width="6.8" opacity="0.55"/>
</g>


<g opacity="0.230" transform="translate(1833.5,64.5) rotate(1.6)" filter="url(#softGlow)">
  <rect x="-43.2" y="-24.9" width="86.4" height="49.8" rx="15.2" fill="none" stroke="#14C2FF" stroke-width="8.3" opacity="0.55"/>
  <rect x="-19.0" y="-12.4" width="86.4" height="49.8" rx="15.2" fill="none" stroke="url(#strokeA)" stroke-width="6.9" opacity="0.55"/>
</g>


<g opacity="0.447" transform="translate(475.7,1014.0) rotate(-15.1)" filter="url(#softGlow)">
  <rect x="-36.1" y="-20.8" width="72.2" height="41.6" rx="12.7" fill="none" stroke="#00FFA3" stroke-width="6.9" opacity="0.55"/>
  <rect x="-15.9" y="-10.4" width="72.2" height="41.6" rx="12.7" fill="none" stroke="url(#strokeA)" stroke-width="5.8" opacity="0.55"/>
</g>


<g opacity="0.253" transform="translate(64.8,883.7) rotate(-15.2)" filter="url(#softGlow)">
  <rect x="-34.9" y="-20.1" width="69.8" height="40.2" rx="12.3" fill="none" stroke="#14C2FF" stroke-width="6.7" opacity="0.55"/>
  <rect x="-15.4" y="-10.1" width="69.8" height="40.2" rx="12.3" fill="none" stroke="url(#strokeA)" stroke-width="5.6" opacity="0.55"/>
</g>


<g opacity="0.347" transform="translate(1900.4,84.6) rotate(14.8)" filter="url(#softGlow)">
  <rect x="-36.2" y="-20.9" width="72.5" height="41.8" rx="12.8" fill="none" stroke="#14C2FF" stroke-width="7.0" opacity="0.55"/>
  <rect x="-15.9" y="-10.4" width="72.5" height="41.8" rx="12.8" fill="none" stroke="url(#strokeA)" stroke-width="5.8" opacity="0.55"/>
</g>


<g opacity="0.460" transform="translate(1778.7,141.8) rotate(-11.6)" filter="url(#softGlow)">
  <rect x="-44.1" y="-25.4" width="88.2" height="50.8" rx="15.5" fill="none" stroke="#FF4D8D" stroke-width="8.5" opacity="0.55"/>
  <rect x="-19.4" y="-12.7" width="88.2" height="50.8" rx="15.5" fill="none" stroke="url(#strokeA)" stroke-width="7.1" opacity="0.55"/>
</g>


<g opacity="0.380" transform="translate(1838.4,367.4) rotate(1.9)" filter="url(#softGlow)">
  <rect x="-41.9" y="-24.2" width="83.9" height="48.3" rx="14.8" fill="none" stroke="#14C2FF" stroke-width="8.1" opacity="0.55"/>
  <rect x="-18.5" y="-12.1" width="83.9" height="48.3" rx="14.8" fill="none" stroke="url(#strokeA)" stroke-width="6.7" opacity="0.55"/>
</g>


<g opacity="0.237">
  <line x1="388.5" y1="922.4" x2="388.5" y2="981.5" stroke="#00FFA3" stroke-width="2.03" opacity="0.45"/>
  <rect x="384.4" y="951.3" width="8.2" height="36.8" rx="2.7" fill="#0B1020" opacity="0.55" stroke="url(#strokeA)" stroke-width="1.2"/>
</g>

<g opacity="0.237">
  <line x1="757.6" y1="913.5" x2="757.6" y2="983.7" stroke="#00FFA3" stroke-width="1.78" opacity="0.45"/>
  <rect x="752.4" y="955.7" width="10.3" height="27.9" rx="3.4" fill="#0B1020" opacity="0.55" stroke="url(#strokeA)" stroke-width="1.2"/>
</g>

<g opacity="0.237">
  <line x1="62.8" y1="896.7" x2="62.8" y2="987.9" stroke="#00FFA3" stroke-width="1.37" opacity="0.45"/>
  <rect x="58.7" y="945.2" width="8.2" height="49.0" rx="2.7" fill="#0B1020" opacity="0.55" stroke="url(#strokeA)" stroke-width="1.2"/>
</g>

<g opacity="0.237">
  <line x1="1058.1" y1="894.7" x2="1058.1" y2="988.4" stroke="#00FFA3" stroke-width="2.15" opacity="0.45"/>
  <rect x="1053.5" y="940.5" width="9.2" height="58.3" rx="3.1" fill="#0B1020" opacity="0.55" stroke="url(#strokeA)" stroke-width="1.2"/>
</g>

<g opacity="0.237">
  <line x1="1104.3" y1="888.1" x2="1104.3" y2="990.1" stroke="#00FFA3" stroke-width="2.14" opacity="0.45"/>
  <rect x="1098.5" y="944.9" width="11.7" height="49.5" rx="3.9" fill="#0B1020" opacity="0.55" stroke="url(#strokeA)" stroke-width="1.2"/>
</g>

<g opacity="0.237">
  <line x1="1477.6" y1="916.8" x2="1477.6" y2="982.9" stroke="#00FFA3" stroke-width="1.99" opacity="0.45"/>
  <rect x="1473.8" y="952.2" width="7.6" height="35.0" rx="2.5" fill="#0B1020" opacity="0.55" stroke="url(#strokeA)" stroke-width="1.2"/>
</g>

<g opacity="0.237">
  <line x1="1123.8" y1="904.8" x2="1123.8" y2="985.9" stroke="#00FFA3" stroke-width="1.16" opacity="0.45"/>
  <rect x="1120.0" y="950.1" width="7.5" height="39.0" rx="2.5" fill="#0B1020" opacity="0.55" stroke="url(#strokeA)" stroke-width="1.2"/>
</g>

<g opacity="0.237">
  <line x1="588.7" y1="900.1" x2="588.7" y2="987.1" stroke="#00FFA3" stroke-width="1.79" opacity="0.45"/>
  <rect x="584.6" y="947.1" width="8.2" height="45.1" rx="2.7" fill="#0B1020" opacity="0.55" stroke="url(#strokeA)" stroke-width="1.2"/>
</g>

<g opacity="0.237">
  <line x1="1482.2" y1="931.3" x2="1482.2" y2="979.2" stroke="#00FFA3" stroke-width="2.02" opacity="0.45"/>
  <rect x="1476.7" y="958.5" width="10.9" height="22.3" rx="3.6" fill="#0B1020" opacity="0.55" stroke="url(#strokeA)" stroke-width="1.2"/>
</g>

<g opacity="0.237">
  <line x1="624.2" y1="904.7" x2="624.2" y2="985.9" stroke="#00FFA3" stroke-width="1.74" opacity="0.45"/>
  <rect x="618.9" y="950.6" width="10.4" height="38.2" rx="3.5" fill="#0B1020" opacity="0.55" stroke="url(#strokeA)" stroke-width="1.2"/>
</g>
<circle cx="1911.5" cy="880.8" r="1.3" fill="#14C2FF" opacity="0.19" filter="url(#softGlow)"/>
<circle cx="37.2" cy="886.6" r="2.4" fill="#14C2FF" opacity="0.17" filter="url(#softGlow)"/>
<circle cx="1870.0" cy="148.6" r="2.2" fill="#14C2FF" opacity="0.16" filter="url(#softGlow)"/>
<circle cx="70.5" cy="377.3" r="2.4" fill="#14C2FF" opacity="0.23" filter="url(#softGlow)"/>
<circle cx="1630.0" cy="150.7" r="3.0" fill="#14C2FF" opacity="0.18" filter="url(#softGlow)"/>
<circle cx="1700.3" cy="922.5" r="2.1" fill="#14C2FF" opacity="0.27" filter="url(#softGlow)"/>
<circle cx="87.8" cy="278.3" r="2.9" fill="#14C2FF" opacity="0.11" filter="url(#softGlow)"/>
<circle cx="1720.5" cy="63.5" r="1.5" fill="#14C2FF" opacity="0.26" filter="url(#softGlow)"/>
<circle cx="1891.0" cy="138.1" r="2.1" fill="#14C2FF" opacity="0.27" filter="url(#softGlow)"/>
<circle cx="339.5" cy="976.3" r="3.0" fill="#14C2FF" opacity="0.14" filter="url(#softGlow)"/>
<circle cx="66.4" cy="499.8" r="1.9" fill="#14C2FF" opacity="0.10" filter="url(#softGlow)"/>
<circle cx="1760.8" cy="444.4" r="2.9" fill="#14C2FF" opacity="0.23" filter="url(#softGlow)"/>
<circle cx="109.2" cy="1057.7" r="1.9" fill="#14C2FF" opacity="0.20" filter="url(#softGlow)"/>
<circle cx="1793.1" cy="881.9" r="2.3" fill="#14C2FF" opacity="0.24" filter="url(#softGlow)"/>
<circle cx="412.4" cy="1066.3" r="1.5" fill="#14C2FF" opacity="0.15" filter="url(#softGlow)"/>
<circle cx="1766.7" cy="3.2" r="2.9" fill="#14C2FF" opacity="0.26" filter="url(#softGlow)"/>
<circle cx="164.9" cy="882.2" r="2.9" fill="#14C2FF" opacity="0.14" filter="url(#softGlow)"/>
<circle cx="174.3" cy="221.3" r="2.4" fill="#14C2FF" opacity="0.16" filter="url(#softGlow)"/>
<circle cx="1917.9" cy="187.8" r="2.0" fill="#14C2FF" opacity="0.15" filter="url(#softGlow)"/>
<circle cx="63.8" cy="1052.3" r="1.8" fill="#14C2FF" opacity="0.20" filter="url(#softGlow)"/>
<circle cx="1785.2" cy="98.6" r="1.8" fill="#14C2FF" opacity="0.12" filter="url(#softGlow)"/>
<circle cx="1751.7" cy="801.5" r="1.6" fill="#14C2FF" opacity="0.26" filter="url(#softGlow)"/>
<circle cx="147.0" cy="931.8" r="3.0" fill="#14C2FF" opacity="0.15" filter="url(#softGlow)"/>
</svg>