<svg xmlns="http://www.w3.org/2000/svg" width="1920" height="1080" viewBox="0 0 1920 1080" preserveAspectRatio="xMidYMid slice">
<defs>
  <linearGradient id="g0" x1="0" y1="0" x2="1" y2="1">
    <stop offset="0" stop-color="#0B1020"/>
    <stop offset="0.55" stop-color="#2DD4BF" stop-opacity="0.9"/>
    <stop offset="1" stop-color="#020617"/>
  </linearGradient>
  <radialGradient id="g1" cx="20%" cy="15%" r="70%">
    <stop offset="0" stop-color="#60A5FA" stop-opacity="0.38"/>
    <stop offset="0.6" stop-color="#60A5FA" stop-opacity="0.08"/>
    <stop offset="1" stop-color="#60A5FA" stop-opacity="0"/>
  </radialGradient>
  <radialGradient id="g2" cx="85%" cy="80%" r="75%">
    <stop offset="0" stop-color="#60A5FA" stop-opacity="0.28"/>
    <stop offset="0.65" stop-color="#60A5FA" stop-opacity="0.06"/>
    <stop offset="1" stop-color="#60A5FA" stop-opacity="0"/>
  </radialGradient>
  <filter id="softGlow" x="-30%" y="-30%" width="160%" height="160%">
    <feGaussianBlur stdDeviation="12" result="b"/>
    <feMerge>
      <feMergeNode in="b"/>
      <feMergeNode in="SourceGraphic"/>
    </feMerge>
  </filter>
  <filter id="hardGlow" x="-40%" y="-40%" width="180%" height="180%">
    <feGaussianBlur stdDeviation="6" result="b"/>
    <feColorMatrix in="b" type="matrix" values="1 0 0 0 0  0 1 0 0 0  0 0 1 0 0  0 0 0 18 -7" result="c"/>
    <feMerge>
      <feMergeNode in="c"/>
      <feMergeNode in="SourceGraphic"/>
    </feMerge>
  </filter>
  <linearGradient id="strokeA" x1="0" y1="0" x2="1" y2="0">
    <stop offset="0" stop-color="#60A5FA" stop-opacity="0.9"/>
    <stop offset="0.5" stop-color="#FFFFFF" stop-opacity="0.25"/>
    <stop offset="1" stop-color="#60A5FA" stop-opacity="0.7"/>
  </linearGradient>
  <linearGradient id="strokeB" x1="0" y1="0" x2="0" y2="1">
    <stop offset="0" stop-color="#FFFFFF" stop-opacity="0.18"/>
    <stop offset="1" stop-color="#60A5FA" stop-opacity="0.55"/>
  </linearGradient>
</defs>
<rect x="0" y="0" width="1920" height="1080" fill="url(#g0)"/>
<rect x="0" y="0" width="1920" height="1080" fill="url(#g1)"/>
<rect x="0" y="0" width="1920" height="1080" fill="url(#g2)"/>


<defs>
  <radialGradient id="vign" cx="0.5000" cy="0.5093" r="0.85">
    <stop offset="0" stop-color="#000000" stop-opacity="0"/>
    <stop offset="0.55" stop-color="#000000" stop-opacity="0.217"/>
    <stop offset="1" stop-color="#000000" stop-opacity="0.620"/>
  </radialGradient>
</defs>
<rect x="0" y="0" width="1920" height="1080" fill="url(#vign)"/>

<g opacity="0.276" filter="url(#softGlow)"><path d="M 382.3,1056.0 L 129.8,1056.0 L 129.8,37.3 L 1786.2,37.3 L 1786.2,628.1 " fill="none" stroke="url(#strokeB)" stroke-width="1.90" stroke-linecap="round" stroke-linejoin="round"/><circle cx="382.3" cy="1056.0" r="2.3" fill="#60A5FA" opacity="0.45"/><circle cx="1786.2" cy="628.1" r="3.9" fill="#60A5FA" opacity="0.45"/><circle cx="129.8" cy="1056.0" r="2.6" fill="#60A5FA" opacity="0.45"/></g>
<g opacity="0.276" filter="url(#softGlow)"><path d="M 209.0,61.4 L 15.1,61.4 L 15.1,12.0 L 27.3,12.0 L 27.3,1075.8 " fill="none" stroke="url(#strokeB)" stroke-width="1.37" stroke-linecap="round" stroke-linejoin="round"/><circle cx="15.1" cy="12.0" r="2.9" fill="#60A5FA" opacity="0.45"/><circle cx="27.3" cy="12.0" r="2.4" fill="#60A5FA" opacity="0.45"/><circle cx="15.1" cy="61.4" r="2.9" fill="#60A5FA" opacity="0.45"/></g>
<g opacity="0.276" filter="url(#softGlow)"><path d="M 1727.0,1074.5 L 1789.6,1074.5 L 1789.6,1004.8 L 1919.9,1004.8 L 1919.9,621.6 " fill="none" stroke="url(#strokeB)" stroke-width="1.38" stroke-linecap="round" stroke-linejoin="round"/><circle cx="1789.6" cy="1004.8" r="2.0" fill="#60A5FA" opacity="0.45"/><circle cx="1727.0" cy="1074.5" r="3.3" fill="#60A5FA" opacity="0.45"/><circle cx="1919.9" cy="1004.8" r="3.0" fill="#60A5FA" opacity="0.45"/></g>
<g opacity="0.276" filter="url(#softGlow)"><path d="M 64.7,844.4 L 332.8,844.4 L 332.8,982.5 L 704.8,982.5 L 704.8,975.5 " fill="none" stroke="url(#strokeB)" stroke-width="1.89" stroke-linecap="round" stroke-linejoin="round"/><circle cx="332.8" cy="844.4" r="2.7" fill="#60A5FA" opacity="0.45"/><circle cx="332.8" cy="982.5" r="2.8" fill="#60A5FA" opacity="0.45"/><circle cx="704.8" cy="982.5" r="3.5" fill="#60A5FA" opacity="0.45"/></g>
<g opacity="0.276" filter="url(#softGlow)"><path d="M 1529.4,53.1 L 1734.4,53.1 L 1734.4,302.3 L 1855.0,302.3 L 1855.0,530.9 " fill="none" stroke="url(#strokeB)" stroke-width="1.44" stroke-linecap="round" stroke-linejoin="round"/><circle cx="1734.4" cy="302.3" r="2.3" fill="#60A5FA" opacity="0.45"/><circle cx="1529.4" cy="53.1" r="3.0" fill="#60A5FA" opacity="0.45"/><circle cx="1855.0" cy="302.3" r="3.3" fill="#60A5FA" opacity="0.45"/></g>
<g opacity="0.276" filter="url(#softGlow)"><path d="M 1882.9,286.3 L 699.4,286.3 L 699.4,1026.5 L 141.7,1026.5 L 141.7,336.0 " fill="none" stroke="url(#strokeB)" stroke-width="1.37" stroke-linecap="round" stroke-linejoin="round"/><circle cx="699.4" cy="1026.5" r="2.2" fill="#60A5FA" opacity="0.45"/><circle cx="141.7" cy="1026.5" r="2.8" fill="#60A5FA" opacity="0.45"/><circle cx="1882.9" cy="286.3" r="3.6" fill="#60A5FA" opacity="0.45"/></g>
<g opacity="0.276" filter="url(#softGlow)"><path d="M 1364.0,986.0 L 1805.3,986.0 L 1805.3,856.2 L 140.2,856.2 L 140.2,170.5 " fill="none" stroke="url(#strokeB)" stroke-width="1.27" stroke-linecap="round" stroke-linejoin="round"/><circle cx="140.2" cy="856.2" r="3.3" fill="#60A5FA" opacity="0.45"/><circle cx="140.2" cy="170.5" r="2.6" fill="#60A5FA" opacity="0.45"/><circle cx="1805.3" cy="856.2" r="2.7" fill="#60A5FA" opacity="0.45"/></g>
<g opacity="0.276" filter="url(#softGlow)"><path d="M 48.5,556.4 L 55.3,556.4 L 55.3,947.4 L 1850.2,947.4 L 1850.2,34.4 " fill="none" stroke="url(#strokeB)" stroke-width="1.22" stroke-linecap="round" stroke-linejoin="round"/><circle cx="1850.2" cy="34.4" r="3.1" fill="#60A5FA" opacity="0.45"/><circle cx="55.3" cy="947.4" r="2.7" fill="#60A5FA" opacity="0.45"/><circle cx="48.5" cy="556.4" r="2.8" fill="#60A5FA" opacity="0.45"/></g>
<g opacity="0.276" filter="url(#softGlow)"><path d="M 148.4,309.4 L 67.3,309.4 L 67.3,963.0 L 124.8,963.0 L 124.8,1055.1 " fill="none" stroke="url(#strokeB)" stroke-width="2.17" stroke-linecap="round" stroke-linejoin="round"/><circle cx="148.4" cy="309.4" r="4.0" fill="#60A5FA" opacity="0.45"/><circle cx="67.3" cy="309.4" r="3.7" fill="#60A5FA" opacity="0.45"/><circle cx="124.8" cy="963.0" r="3.1" fill="#60A5FA" opacity="0.45"/></g>
<g opacity="0.276" filter="url(#softGlow)"><path d="M 1758.1,1047.9 L 1727.7,1047.9 L 1727.7,1032.5 L 183.4,1032.5 L 183.4,1050.3 " fill="none" stroke="url(#strokeB)" stroke-width="1.88" stroke-linecap="round" stroke-linejoin="round"/><circle cx="1727.7" cy="1047.9" r="3.8" fill="#60A5FA" opacity="0.45"/><circle cx="1758.1" cy="1047.9" r="3.8" fill="#60A5FA" opacity="0.45"/><circle cx="183.4" cy="1050.3" r="3.6" fill="#60A5FA" opacity="0.45"/></g>
<g opacity="0.276" filter="url(#softGlow)"><path d="M 203.9,161.2 L 1720.1,161.2 L 1720.1,2.7 L 139.2,2.7 L 139.2,286.8 " fill="none" stroke="url(#strokeB)" stroke-width="1.80" stroke-linecap="round" stroke-linejoin="round"/><circle cx="203.9" cy="161.2" r="2.5" fill="#60A5FA" opacity="0.45"/><circle cx="1720.1" cy="161.2" r="3.3" fill="#60A5FA" opacity="0.45"/><circle cx="139.2" cy="286.8" r="4.2" fill="#60A5FA" opacity="0.45"/></g>
<g opacity="0.276" filter="url(#softGlow)"><path d="M 1912.3,924.0 L 1704.2,924.0 L 1704.2,89.4 L 182.0,89.4 L 182.0,134.2 " fill="none" stroke="url(#strokeB)" stroke-width="1.71" stroke-linecap="round" stroke-linejoin="round"/><circle cx="1704.2" cy="89.4" r="3.7" fill="#60A5FA" opacity="0.45"/><circle cx="182.0" cy="134.2" r="3.5" fill="#60A5FA" opacity="0.45"/><circle cx="1704.2" cy="924.0" r="3.9" fill="#60A5FA" opacity="0.45"/></g>
<g opacity="0.276" filter="url(#softGlow)"><path d="M 1732.9,208.9 L 119.9,208.9 L 119.9,30.7 L 68.5,30.7 L 68.5,517.1 " fill="none" stroke="url(#strokeB)" stroke-width="2.03" stroke-linecap="round" stroke-linejoin="round"/><circle cx="68.5" cy="30.7" r="3.4" fill="#60A5FA" opacity="0.45"/><circle cx="68.5" cy="517.1" r="3.4" fill="#60A5FA" opacity="0.45"/><circle cx="1732.9" cy="208.9" r="2.5" fill="#60A5FA" opacity="0.45"/></g>
<g opacity="0.276" filter="url(#softGlow)"><path d="M 1778.3,539.4 L 212.2,539.4 L 212.2,1003.9 L 1903.4,1003.9 L 1903.4,158.6 " fill="none" stroke="url(#strokeB)" stroke-width="2.19" stroke-linecap="round" stroke-linejoin="round"/><circle cx="212.2" cy="1003.9" r="4.2" fill="#60A5FA" opacity="0.45"/><circle cx="212.2" cy="539.4" r="2.8" fill="#60A5FA" opacity="0.45"/><circle cx="1778.3" cy="539.4" r="4.1" fill="#60A5FA" opacity="0.45"/></g>

<g opacity="0.854" filter="url(#hardGlow)">
  <circle cx="216.7" cy="951.6" r="55.6" fill="#0A1224" opacity="0.65"/>
  <circle cx="216.7" cy="951.6" r="55.6" fill="none" stroke="url(#strokeA)" stroke-width="4.4" opacity="0.85"/>
  <circle cx="216.7" cy="951.6" r="47.8" fill="none" stroke="#2DD4BF" stroke-width="1.7" opacity="0.35"/>
  <polygon points="203.3,989.4 177.3,958.9 190.7,921.2 230.0,913.9 256.0,944.4 242.6,982.1" fill="none" stroke="url(#strokeB)" stroke-width="1.4" opacity="0.65"/>
  <polygon points="207.7,962.4 211.8,938.5 230.5,953.9" fill="#2DD4BF" opacity="0.22" filter="url(#softGlow)"/>
</g>


<g opacity="0.417" filter="url(#hardGlow)">
  <circle cx="269.6" cy="910.3" r="23.0" fill="#0A1224" opacity="0.65"/>
  <circle cx="269.6" cy="910.3" r="23.0" fill="none" stroke="url(#strokeA)" stroke-width="2.0" opacity="0.85"/>
  <circle cx="269.6" cy="910.3" r="19.8" fill="none" stroke="#60A5FA" stroke-width="1.5" opacity="0.35"/>
  <polygon points="258.8,897.8 275.1,894.7 285.9,907.2 280.4,922.8 264.2,925.9 253.4,913.4" fill="none" stroke="url(#strokeB)" stroke-width="1.2" opacity="0.65"/>
  <polygon points="267.6,904.9 275.3,911.2 266.0,914.8" fill="#60A5FA" opacity="0.22" filter="url(#softGlow)"/>
</g>


<g opacity="0.714" filter="url(#hardGlow)">
  <circle cx="67.9" cy="684.9" r="65.5" fill="#0A1224" opacity="0.65"/>
  <circle cx="67.9" cy="684.9" r="65.5" fill="none" stroke="url(#strokeA)" stroke-width="5.2" opacity="0.85"/>
  <circle cx="67.9" cy="684.9" r="56.3" fill="none" stroke="#2DD4BF" stroke-width="2.0" opacity="0.35"/>
  <polygon points="111.5,666.7 105.4,713.5 61.9,731.6 24.4,703.0 30.5,656.2 74.0,638.1" fill="none" stroke="url(#strokeB)" stroke-width="1.6" opacity="0.65"/>
  <polygon points="84.4,684.1 60.3,699.5 59.0,671.0" fill="#2DD4BF" opacity="0.22" filter="url(#softGlow)"/>
</g>


<g opacity="0.410" filter="url(#hardGlow)">
  <circle cx="-29.6" cy="660.4" r="32.3" fill="#0A1224" opacity="0.65"/>
  <circle cx="-29.6" cy="660.4" r="32.3" fill="none" stroke="url(#strokeA)" stroke-width="2.6" opacity="0.85"/>
  <circle cx="-29.6" cy="660.4" r="27.8" fill="none" stroke="#60A5FA" stroke-width="1.5" opacity="0.35"/>
  <polygon points="-18.3,640.0 -6.3,660.0 -17.6,680.3 -40.9,680.7 -52.9,660.8 -41.6,640.4" fill="none" stroke="url(#strokeB)" stroke-width="1.2" opacity="0.65"/>
  
</g>


<g opacity="0.444" filter="url(#hardGlow)">
  <circle cx="170.6" cy="608.8" r="35.2" fill="#0A1224" opacity="0.65"/>
  <circle cx="170.6" cy="608.8" r="35.2" fill="none" stroke="url(#strokeA)" stroke-width="2.8" opacity="0.85"/>
  <circle cx="170.6" cy="608.8" r="30.2" fill="none" stroke="#60A5FA" stroke-width="1.5" opacity="0.35"/>
  <polygon points="195.8,606.5 185.1,629.5 159.9,631.7 145.4,611.0 156.0,588.0 181.2,585.8" fill="none" stroke="url(#strokeB)" stroke-width="1.2" opacity="0.65"/>
  
</g>


<g opacity="0.712" filter="url(#hardGlow)">
  <circle cx="1883.1" cy="946.5" r="58.5" fill="#0A1224" opacity="0.65"/>
  <circle cx="1883.1" cy="946.5" r="58.5" fill="none" stroke="url(#strokeA)" stroke-width="4.7" opacity="0.85"/>
  <circle cx="1883.1" cy="946.5" r="50.3" fill="none" stroke="#2DD4BF" stroke-width="1.8" opacity="0.35"/>
  <polygon points="1876.0,988.0 1843.6,961.2 1850.6,919.6 1890.1,905.0 1922.5,931.8 1915.5,973.3" fill="none" stroke="url(#strokeB)" stroke-width="1.5" opacity="0.65"/>
  <polygon points="1875.8,959.3 1875.6,933.8 1897.8,946.4" fill="#2DD4BF" opacity="0.22" filter="url(#softGlow)"/>
</g>


<g opacity="0.536" filter="url(#hardGlow)">
  <circle cx="1915.6" cy="878.2" r="24.9" fill="#0A1224" opacity="0.65"/>
  <circle cx="1915.6" cy="878.2" r="24.9" fill="none" stroke="url(#strokeA)" stroke-width="2.0" opacity="0.85"/>
  <circle cx="1915.6" cy="878.2" r="21.4" fill="none" stroke="#60A5FA" stroke-width="1.5" opacity="0.35"/>
  <polygon points="1899.3,870.5 1914.1,860.3 1930.3,867.9 1931.8,885.8 1917.1,896.0 1900.8,888.4" fill="none" stroke="url(#strokeB)" stroke-width="1.2" opacity="0.65"/>
  
</g>


<g opacity="0.574" filter="url(#hardGlow)">
  <circle cx="1817.5" cy="926.8" r="25.2" fill="#0A1224" opacity="0.65"/>
  <circle cx="1817.5" cy="926.8" r="25.2" fill="none" stroke="url(#strokeA)" stroke-width="2.0" opacity="0.85"/>
  <circle cx="1817.5" cy="926.8" r="21.7" fill="none" stroke="#60A5FA" stroke-width="1.5" opacity="0.35"/>
  <polygon points="1800.1,921.7 1813.2,909.1 1830.6,914.2 1834.9,931.9 1821.8,944.4 1804.4,939.3" fill="none" stroke="url(#strokeB)" stroke-width="1.2" opacity="0.65"/>
  
</g>


<g opacity="0.862" filter="url(#hardGlow)">
  <circle cx="1829.0" cy="294.1" r="38.0" fill="#0A1224" opacity="0.65"/>
  <circle cx="1829.0" cy="294.1" r="38.0" fill="none" stroke="url(#strokeA)" stroke-width="3.0" opacity="0.85"/>
  <circle cx="1829.0" cy="294.1" r="32.7" fill="none" stroke="#2DD4BF" stroke-width="1.5" opacity="0.35"/>
  <polygon points="1814.4,317.3 1801.6,293.1 1816.1,269.9 1843.5,270.9 1856.3,295.1 1841.8,318.3" fill="none" stroke="url(#strokeB)" stroke-width="1.2" opacity="0.65"/>
  <polygon points="1821.4,300.0 1827.6,284.6 1837.9,297.7" fill="#2DD4BF" opacity="0.22" filter="url(#softGlow)"/>
</g>


<g opacity="0.585" filter="url(#hardGlow)">
  <circle cx="1844.2" cy="317.8" r="20.9" fill="#0A1224" opacity="0.65"/>
  <circle cx="1844.2" cy="317.8" r="20.9" fill="none" stroke="url(#strokeA)" stroke-width="2.0" opacity="0.85"/>
  <circle cx="1844.2" cy="317.8" r="18.0" fill="none" stroke="#60A5FA" stroke-width="1.5" opacity="0.35"/>
  <polygon points="1832.3,308.7 1846.2,302.9 1858.1,312.1 1856.2,327.0 1842.3,332.7 1830.3,323.6" fill="none" stroke="url(#strokeB)" stroke-width="1.2" opacity="0.65"/>
  <polygon points="1841.4,313.4 1849.5,317.6 1841.8,322.5" fill="#60A5FA" opacity="0.22" filter="url(#softGlow)"/>
</g>


<g opacity="0.812" filter="url(#hardGlow)">
  <circle cx="1780.6" cy="943.3" r="45.5" fill="#0A1224" opacity="0.65"/>
  <circle cx="1780.6" cy="943.3" r="45.5" fill="none" stroke="url(#strokeA)" stroke-width="3.6" opacity="0.85"/>
  <circle cx="1780.6" cy="943.3" r="39.1" fill="none" stroke="#2DD4BF" stroke-width="1.5" opacity="0.35"/>
  <polygon points="1748.1,947.5 1760.7,917.3 1793.2,913.1 1813.0,939.1 1800.4,969.3 1768.0,973.5" fill="none" stroke="url(#strokeB)" stroke-width="1.2" opacity="0.65"/>
  <polygon points="1769.4,940.8 1788.3,934.9 1784.0,954.2" fill="#2DD4BF" opacity="0.22" filter="url(#softGlow)"/>
</g>


<g opacity="0.499" filter="url(#hardGlow)">
  <circle cx="1813.5" cy="994.0" r="24.1" fill="#0A1224" opacity="0.65"/>
  <circle cx="1813.5" cy="994.0" r="24.1" fill="none" stroke="url(#strokeA)" stroke-width="2.0" opacity="0.85"/>
  <circle cx="1813.5" cy="994.0" r="20.7" fill="none" stroke="#60A5FA" stroke-width="1.5" opacity="0.35"/>
  <polygon points="1807.7,1010.4 1796.4,997.2 1802.2,980.8 1819.2,977.6 1830.5,990.8 1824.7,1007.2" fill="none" stroke="url(#strokeB)" stroke-width="1.2" opacity="0.65"/>
  
</g>


<g opacity="0.537" filter="url(#hardGlow)">
  <circle cx="1810.9" cy="975.2" r="19.6" fill="#0A1224" opacity="0.65"/>
  <circle cx="1810.9" cy="975.2" r="19.6" fill="none" stroke="url(#strokeA)" stroke-width="2.0" opacity="0.85"/>
  <circle cx="1810.9" cy="975.2" r="16.9" fill="none" stroke="#60A5FA" stroke-width="1.5" opacity="0.35"/>
  <polygon points="1799.7,983.8 1797.8,969.8 1809.0,961.2 1822.1,966.5 1824.0,980.5 1812.8,989.2" fill="none" stroke="url(#strokeB)" stroke-width="1.2" opacity="0.65"/>
  
</g>


<g opacity="0.841" filter="url(#hardGlow)">
  <circle cx="56.5" cy="963.5" r="51.5" fill="#0A1224" opacity="0.65"/>
  <circle cx="56.5" cy="963.5" r="51.5" fill="none" stroke="url(#strokeA)" stroke-width="4.1" opacity="0.85"/>
  <circle cx="56.5" cy="963.5" r="44.3" fill="none" stroke="#2DD4BF" stroke-width="1.5" opacity="0.35"/>
  <polygon points="92.1,973.9 65.3,999.5 29.7,989.1 20.9,953.0 47.8,927.4 83.4,937.9" fill="none" stroke="url(#strokeB)" stroke-width="1.3" opacity="0.65"/>
  <polygon points="67.0,971.2 44.6,968.7 58.0,950.6" fill="#2DD4BF" opacity="0.22" filter="url(#softGlow)"/>
</g>


<g opacity="0.459" filter="url(#hardGlow)">
  <circle cx="-16.4" cy="1001.2" r="23.4" fill="#0A1224" opacity="0.65"/>
  <circle cx="-16.4" cy="1001.2" r="23.4" fill="none" stroke="url(#strokeA)" stroke-width="2.0" opacity="0.85"/>
  <circle cx="-16.4" cy="1001.2" r="20.1" fill="none" stroke="#60A5FA" stroke-width="1.5" opacity="0.35"/>
  <polygon points="-22.7,1016.8 -33.1,1003.5 -26.7,987.9 -10.0,985.5 0.3,998.9 -6.0,1014.5" fill="none" stroke="url(#strokeB)" stroke-width="1.2" opacity="0.65"/>
  
</g>


<g opacity="0.615" filter="url(#hardGlow)">
  <circle cx="56.0" cy="998.3" r="27.2" fill="#0A1224" opacity="0.65"/>
  <circle cx="56.0" cy="998.3" r="27.2" fill="none" stroke="url(#strokeA)" stroke-width="2.2" opacity="0.85"/>
  <circle cx="56.0" cy="998.3" r="23.4" fill="none" stroke="#60A5FA" stroke-width="1.5" opacity="0.35"/>
  <polygon points="63.7,1016.4 44.2,1014.0 36.5,996.0 48.3,980.3 67.8,982.6 75.5,1000.7" fill="none" stroke="url(#strokeB)" stroke-width="1.2" opacity="0.65"/>
  
</g>


<g opacity="0.849" filter="url(#hardGlow)">
  <circle cx="1824.8" cy="983.1" r="68.9" fill="#0A1224" opacity="0.65"/>
  <circle cx="1824.8" cy="983.1" r="68.9" fill="none" stroke="url(#strokeA)" stroke-width="5.5" opacity="0.85"/>
  <circle cx="1824.8" cy="983.1" r="59.2" fill="none" stroke="#2DD4BF" stroke-width="2.1" opacity="0.35"/>
  <polygon points="1853.8,942.9 1874.1,988.1 1845.1,1028.4 1795.8,1023.3 1775.5,978.1 1804.5,937.9" fill="none" stroke="url(#strokeB)" stroke-width="1.7" opacity="0.65"/>
  <polygon points="1839.1,973.4 1826.1,1000.4 1809.2,975.6" fill="#2DD4BF" opacity="0.22" filter="url(#softGlow)"/>
</g>


<g opacity="0.595" filter="url(#hardGlow)">
  <circle cx="1717.1" cy="1062.9" r="34.1" fill="#0A1224" opacity="0.65"/>
  <circle cx="1717.1" cy="1062.9" r="34.1" fill="none" stroke="url(#strokeA)" stroke-width="2.7" opacity="0.85"/>
  <circle cx="1717.1" cy="1062.9" r="29.3" fill="none" stroke="#60A5FA" stroke-width="1.5" opacity="0.35"/>
  <polygon points="1727.3,1085.2 1702.9,1082.8 1692.7,1060.5 1707.0,1040.6 1731.4,1042.9 1741.6,1065.2" fill="none" stroke="url(#strokeB)" stroke-width="1.2" opacity="0.65"/>
  <polygon points="1717.8,1071.4 1709.4,1059.2 1724.2,1058.0" fill="#60A5FA" opacity="0.22" filter="url(#softGlow)"/>
</g>


<g opacity="0.381" filter="url(#hardGlow)">
  <circle cx="1931.5" cy="1018.0" r="30.2" fill="#0A1224" opacity="0.65"/>
  <circle cx="1931.5" cy="1018.0" r="30.2" fill="none" stroke="url(#strokeA)" stroke-width="2.4" opacity="0.85"/>
  <circle cx="1931.5" cy="1018.0" r="26.0" fill="none" stroke="#60A5FA" stroke-width="1.5" opacity="0.35"/>
  <polygon points="1944.9,1035.2 1923.4,1038.2 1910.0,1021.0 1918.1,1000.9 1939.7,997.9 1953.1,1015.0" fill="none" stroke="url(#strokeB)" stroke-width="1.2" opacity="0.65"/>
  
</g>


<g opacity="0.424" transform="translate(178.0,1060.8) rotate(8.7)" filter="url(#softGlow)">
  <rect x="-105.8" y="-76.3" width="211.5" height="152.5" rx="15.3" fill="#050A12" opacity="0.25"/>
  <rect x="-105.8" y="-76.3" width="211.5" height="152.5" rx="15.3" fill="none" stroke="url(#strokeA)" stroke-width="7.6" opacity="0.85"/>
  <rect x="-93.6" y="-64.1" width="187.1" height="128.1" rx="10.7" fill="none" stroke="#60A5FA" stroke-width="3.1" opacity="0.35"/>
</g>


<g opacity="0.308" transform="translate(152.3,963.3) rotate(5.2)" filter="url(#softGlow)">
  <rect x="-112.6" y="-84.5" width="225.2" height="169.0" rx="16.9" fill="#050A12" opacity="0.25"/>
  <rect x="-112.6" y="-84.5" width="225.2" height="169.0" rx="16.9" fill="none" stroke="url(#strokeA)" stroke-width="8.4" opacity="0.85"/>
  <rect x="-99.1" y="-71.0" width="198.2" height="141.9" rx="11.8" fill="none" stroke="#60A5FA" stroke-width="3.4" opacity="0.35"/>
</g>


<g opacity="0.304" transform="translate(1857.8,19.3) rotate(-2.6)" filter="url(#softGlow)">
  <rect x="-94.2" y="-74.8" width="188.4" height="149.5" rx="15.0" fill="#050A12" opacity="0.25"/>
  <rect x="-94.2" y="-74.8" width="188.4" height="149.5" rx="15.0" fill="none" stroke="url(#strokeA)" stroke-width="7.5" opacity="0.85"/>
  <rect x="-82.2" y="-62.8" width="164.4" height="125.6" rx="10.5" fill="none" stroke="#F472B6" stroke-width="3.0" opacity="0.35"/>
</g>


<g opacity="0.335" transform="translate(1572.8,1076.0) rotate(-8.8)" filter="url(#softGlow)">
  <rect x="-107.8" y="-91.6" width="215.7" height="183.2" rx="18.3" fill="#050A12" opacity="0.25"/>
  <rect x="-107.8" y="-91.6" width="215.7" height="183.2" rx="18.3" fill="none" stroke="url(#strokeA)" stroke-width="9.2" opacity="0.85"/>
  <rect x="-93.2" y="-76.9" width="186.4" height="153.9" rx="12.8" fill="none" stroke="#60A5FA" stroke-width="3.7" opacity="0.35"/>
</g>


<g opacity="0.389" transform="translate(49.0,1056.9) rotate(-2.6)" filter="url(#softGlow)">
  <rect x="-80.6" y="-59.9" width="161.2" height="119.8" rx="12.0" fill="#050A12" opacity="0.25"/>
  <rect x="-80.6" y="-59.9" width="161.2" height="119.8" rx="12.0" fill="none" stroke="url(#strokeA)" stroke-width="6.0" opacity="0.85"/>
  <rect x="-71.0" y="-50.3" width="142.0" height="100.7" rx="8.4" fill="none" stroke="#60A5FA" stroke-width="2.4" opacity="0.35"/>
</g>


<g opacity="0.433" transform="translate(1782.0,159.5) rotate(-9.6)" filter="url(#softGlow)">
  <rect x="-38.4" y="-22.1" width="76.9" height="44.3" rx="13.5" fill="none" stroke="#60A5FA" stroke-width="7.4" opacity="0.55"/>
  <rect x="-16.9" y="-11.1" width="76.9" height="44.3" rx="13.5" fill="none" stroke="url(#strokeA)" stroke-width="6.1" opacity="0.55"/>
</g>


<g opacity="0.471" transform="translate(1752.7,116.7) rotate(14.5)" filter="url(#softGlow)">
  <rect x="-58.7" y="-33.8" width="117.4" height="67.6" rx="20.7" fill="none" stroke="#F472B6" stroke-width="11.3" opacity="0.55"/>
  <rect x="-25.8" y="-16.9" width="117.4" height="67.6" rx="20.7" fill="none" stroke="url(#strokeA)" stroke-width="9.4" opacity="0.55"/>
</g>


<g opacity="0.451" transform="translate(69.7,9.6) rotate(-9.0)" filter="url(#softGlow)">
  <rect x="-41.5" y="-23.9" width="83.0" height="47.8" rx="14.6" fill="none" stroke="#60A5FA" stroke-width="8.0" opacity="0.55"/>
  <rect x="-18.3" y="-11.9" width="83.0" height="47.8" rx="14.6" fill="none" stroke="url(#strokeA)" stroke-width="6.6" opacity="0.55"/>
</g>


<g opacity="0.244" transform="translate(1890.0,197.2) rotate(2.1)" filter="url(#softGlow)">
  <rect x="-41.6" y="-24.0" width="83.3" height="48.0" rx="14.7" fill="none" stroke="#F472B6" stroke-width="8.0" opacity="0.55"/>
  <rect x="-18.3" y="-12.0" width="83.3" height="48.0" rx="14.7" fill="none" stroke="url(#strokeA)" stroke-width="6.7" opacity="0.55"/>
</g>


<g opacity="0.306" transform="translate(57.2,159.5) rotate(1.6)" filter="url(#softGlow)">
  <rect x="-35.6" y="-20.5" width="71.2" height="41.0" rx="12.5" fill="none" stroke="#60A5FA" stroke-width="6.8" opacity="0.55"/>
  <rect x="-15.7" y="-10.2" width="71.2" height="41.0" rx="12.5" fill="none" stroke="url(#strokeA)" stroke-width="5.7" opacity="0.55"/>
</g>


<g opacity="0.238" transform="translate(1906.1,124.1) rotate(12.1)" filter="url(#softGlow)">
  <rect x="-50.8" y="-29.3" width="101.7" height="58.6" rx="17.9" fill="none" stroke="#F472B6" stroke-width="9.8" opacity="0.55"/>
  <rect x="-22.4" y="-14.6" width="101.7" height="58.6" rx="17.9" fill="none" stroke="url(#strokeA)" stroke-width="8.1" opacity="0.55"/>
</g>


<g opacity="0.372" transform="translate(1738.9,106.7) rotate(-2.2)" filter="url(#softGlow)">
  <rect x="-45.0" y="-25.9" width="90.0" height="51.8" rx="15.8" fill="none" stroke="#2DD4BF" stroke-width="8.6" opacity="0.55"/>
  <rect x="-19.8" y="-13.0" width="90.0" height="51.8" rx="15.8" fill="none" stroke="url(#strokeA)" stroke-width="7.2" opacity="0.55"/>
</g>


<g opacity="0.468" transform="translate(1758.2,203.0) rotate(-2.8)" filter="url(#softGlow)">
  <rect x="-56.4" y="-32.5" width="112.7" height="64.9" rx="19.8" fill="none" stroke="#F472B6" stroke-width="10.8" opacity="0.55"/>
  <rect x="-24.8" y="-16.2" width="112.7" height="64.9" rx="19.8" fill="none" stroke="url(#strokeA)" stroke-width="9.0" opacity="0.55"/>
</g>


<g opacity="0.437" transform="translate(8.1,894.9) rotate(-7.2)" filter="url(#softGlow)">
  <rect x="-52.6" y="-30.3" width="105.3" height="60.6" rx="18.5" fill="none" stroke="#60A5FA" stroke-width="10.1" opacity="0.55"/>
  <rect x="-23.2" y="-15.2" width="105.3" height="60.6" rx="18.5" fill="none" stroke="url(#strokeA)" stroke-width="8.4" opacity="0.55"/>
</g>


<g opacity="0.150">
  <line x1="95.1" y1="869.5" x2="95.1" y2="975.0" stroke="#60A5FA" stroke-width="1.75" opacity="0.45"/>
  <rect x="91.7" y="928.9" width="6.7" height="50.0" rx="2.2" fill="#0B1020" opacity="0.55" stroke="url(#strokeA)" stroke-width="1.2"/>
</g>

<g opacity="0.150">
  <line x1="1803.6" y1="892.2" x2="1803.6" y2="969.3" stroke="#60A5FA" stroke-width="1.51" opacity="0.45"/>
  <rect x="1798.1" y="935.8" width="11.1" height="36.3" rx="3.7" fill="#0B1020" opacity="0.55" stroke="url(#strokeA)" stroke-width="1.2"/>
</g>

<g opacity="0.150">
  <line x1="1888.2" y1="876.7" x2="1888.2" y2="973.2" stroke="#60A5FA" stroke-width="1.02" opacity="0.45"/>
  <rect x="1883.9" y="931.2" width="8.6" height="45.4" rx="2.9" fill="#0B1020" opacity="0.55" stroke="url(#strokeA)" stroke-width="1.2"/>
</g>

<g opacity="0.150">
  <line x1="1621.9" y1="885.9" x2="1621.9" y2="970.9" stroke="#60A5FA" stroke-width="1.63" opacity="0.45"/>
  <rect x="1618.8" y="936.0" width="6.2" height="35.9" rx="2.1" fill="#0B1020" opacity="0.55" stroke="url(#strokeA)" stroke-width="1.2"/>
</g>
<circle cx="1799.2" cy="153.8" r="2.9" fill="#2DD4BF" opacity="0.24" filter="url(#softGlow)"/>
<circle cx="1800.5" cy="987.7" r="2.5" fill="#2DD4BF" opacity="0.21" filter="url(#softGlow)"/>
<circle cx="1730.6" cy="1037.1" r="2.8" fill="#2DD4BF" opacity="0.21" filter="url(#softGlow)"/>
<circle cx="1570.6" cy="1010.8" r="2.3" fill="#2DD4BF" opacity="0.27" filter="url(#softGlow)"/>
<circle cx="1803.3" cy="713.7" r="1.9" fill="#2DD4BF" opacity="0.18" filter="url(#softGlow)"/>
<circle cx="175.2" cy="140.7" r="3.0" fill="#2DD4BF" opacity="0.11" filter="url(#softGlow)"/>
<circle cx="1869.4" cy="1008.8" r="2.2" fill="#2DD4BF" opacity="0.12" filter="url(#softGlow)"/>
<circle cx="1822.2" cy="881.5" r="1.8" fill="#2DD4BF" opacity="0.18" filter="url(#softGlow)"/>
<circle cx="1872.3" cy="148.5" r="1.8" fill="#2DD4BF" opacity="0.14" filter="url(#softGlow)"/>
<circle cx="488.5" cy="990.7" r="2.3" fill="#2DD4BF" opacity="0.27" filter="url(#softGlow)"/>
<circle cx="198.0" cy="4.8" r="1.3" fill="#2DD4BF" opacity="0.12" filter="url(#softGlow)"/>
<circle cx="1872.0" cy="1.0" r="2.2" fill="#2DD4BF" opacity="0.16" filter="url(#softGlow)"/>
<circle cx="104.0" cy="919.4" r="2.6" fill="#2DD4BF" opacity="0.18" filter="url(#softGlow)"/>
<circle cx="84.9" cy="460.2" r="2.7" fill="#2DD4BF" opacity="0.12" filter="url(#softGlow)"/>
<circle cx="68.7" cy="29.6" r="1.7" fill="#2DD4BF" opacity="0.24" filter="url(#softGlow)"/>
<circle cx="1.8" cy="940.6" r="1.3" fill="#2DD4BF" opacity="0.13" filter="url(#softGlow)"/>
<circle cx="1844.3" cy="47.5" r="2.3" fill="#2DD4BF" opacity="0.19" filter="url(#softGlow)"/>
<circle cx="204.7" cy="1076.6" r="1.5" fill="#2DD4BF" opacity="0.20" filter="url(#softGlow)"/>
<circle cx="118.6" cy="1037.5" r="1.4" fill="#2DD4BF" opacity="0.27" filter="url(#softGlow)"/>
<circle cx="1782.3" cy="968.0" r="1.5" fill="#2DD4BF" opacity="0.17" filter="url(#softGlow)"/>
<circle cx="1749.6" cy="1021.7" r="1.8" fill="#2DD4BF" opacity="0.24" filter="url(#softGlow)"/>
<circle cx="176.1" cy="1060.2" r="3.1" fill="#2DD4BF" opacity="0.19" filter="url(#softGlow)"/>
<circle cx="206.8" cy="944.6" r="2.2" fill="#2DD4BF" opacity="0.27" filter="url(#softGlow)"/>
<circle cx="1908.4" cy="1066.6" r="2.0" fill="#2DD4BF" opacity="0.21" filter="url(#softGlow)"/>
<circle cx="570.2" cy="16.2" r="3.1" fill="#2DD4BF" opacity="0.20" filter="url(#softGlow)"/>
<circle cx="164.5" cy="17.1" r="1.7" fill="#2DD4BF" opacity="0.14" filter="url(#softGlow)"/>
<circle cx="1835.7" cy="935.4" r="3.0" fill="#2DD4BF" opacity="0.15" filter="url(#softGlow)"/>
</svg>