<svg xmlns="http://www.w3.org/2000/svg" width="1920" height="1080" viewBox="0 0 1920 1080" preserveAspectRatio="xMidYMid slice">
<defs>
  <linearGradient id="g0" x1="0" y1="0" x2="1" y2="1">
    <stop offset="0" stop-color="#0B1020"/>
    <stop offset="0.55" stop-color="#F97316" stop-opacity="0.9"/>
    <stop offset="1" stop-color="#020617"/>
  </linearGradient>
  <radialGradient id="g1" cx="20%" cy="15%" r="70%">
    <stop offset="0" stop-color="#06B6D4" stop-opacity="0.38"/>
    <stop offset="0.6" stop-color="#06B6D4" stop-opacity="0.08"/>
    <stop offset="1" stop-color="#06B6D4" stop-opacity="0"/>
  </radialGradient>
  <radialGradient id="g2" cx="85%" cy="80%" r="75%">
    <stop offset="0" stop-color="#06B6D4" stop-opacity="0.28"/>
    <stop offset="0.65" stop-color="#06B6D4" stop-opacity="0.06"/>
    <stop offset="1" stop-color="#06B6D4" stop-opacity="0"/>
  </radialGradient>
  <filter id="softGlow" x="-30%" y="-30%" width="160%" height="160%">
    <feGaussianBlur stdDeviation="12" result="b"/>
    <feMerge>
      <feMergeNode in="b"/>
      <feMergeNode in="SourceGraphic"/>
    </feMerge>
  </filter>
  <filter id="hardGlow" x="-40%" y="-40%" width="180%" height="180%">
    <feGaussianBlur stdDeviation="6" result="b"/>
    <feColorMatrix in="b" type="matrix" values="1 0 0 0 0  0 1 0 0 0  0 0 1 0 0  0 0 0 18 -7" result="c"/>
    <feMerge>
      <feMergeNode in="c"/>
      <feMergeNode in="SourceGraphic"/>
    </feMerge>
  </filter>
  <linearGradient id="strokeA" x1="0" y1="0" x2="1" y2="0">
    <stop offset="0" stop-color="#06B6D4" stop-opacity="0.9"/>
    <stop offset="0.5" stop-color="#FFFFFF" stop-opacity="0.25"/>
    <stop offset="1" stop-color="#06B6D4" stop-opacity="0.7"/>
  </linearGradient>
  <linearGradient id="strokeB" x1="0" y1="0" x2="0" y2="1">
    <stop offset="0" stop-color="#FFFFFF" stop-opacity="0.18"/>
    <stop offset="1" stop-color="#06B6D4" stop-opacity="0.55"/>
  </linearGradient>
</defs>
<rect x="0" y="0" width="1920" height="1080" fill="url(#g0)"/>
<rect x="0" y="0" width="1920" height="1080" fill="url(#g1)"/>
<rect x="0" y="0" width="1920" height="1080" fill="url(#g2)"/>


<defs>
  <radialGradient id="vign" cx="0.5000" cy="0.5093" r="0.85">
    <stop offset="0" stop-color="#000000" stop-opacity="0"/>
    <stop offset="0.55" stop-color="#000000" stop-opacity="0.217"/>
    <stop offset="1" stop-color="#000000" stop-opacity="0.620"/>
  </radialGradient>
</defs>
<rect x="0" y="0" width="1920" height="1080" fill="url(#vign)"/>

<g opacity="0.233" filter="url(#softGlow)"><path d="M 62.3,728.2 L 147.2,728.2 L 147.2,169.6 L 1900.6,169.6 L 1900.6,1007.5 " fill="none" stroke="url(#strokeB)" stroke-width="1.29" stroke-linecap="round" stroke-linejoin="round"/><circle cx="62.3" cy="728.2" r="2.1" fill="#06B6D4" opacity="0.45"/><circle cx="147.2" cy="169.6" r="3.7" fill="#06B6D4" opacity="0.45"/><circle cx="147.2" cy="728.2" r="2.2" fill="#06B6D4" opacity="0.45"/></g>
<g opacity="0.233" filter="url(#softGlow)"><path d="M 412.8,982.6 L 165.3,982.6 L 165.3,1047.6 L 1840.4,1047.6 L 1840.4,202.6 " fill="none" stroke="url(#strokeB)" stroke-width="1.86" stroke-linecap="round" stroke-linejoin="round"/><circle cx="1840.4" cy="1047.6" r="3.8" fill="#06B6D4" opacity="0.45"/><circle cx="165.3" cy="982.6" r="2.7" fill="#06B6D4" opacity="0.45"/><circle cx="412.8" cy="982.6" r="3.7" fill="#06B6D4" opacity="0.45"/></g>
<g opacity="0.233" filter="url(#softGlow)"><path d="M 55.7,1005.3 L 1800.4,1005.3 L 1800.4,968.9 L 616.8,968.9 L 616.8,69.2 " fill="none" stroke="url(#strokeB)" stroke-width="1.76" stroke-linecap="round" stroke-linejoin="round"/><circle cx="1800.4" cy="1005.3" r="3.0" fill="#06B6D4" opacity="0.45"/><circle cx="616.8" cy="69.2" r="3.6" fill="#06B6D4" opacity="0.45"/><circle cx="616.8" cy="968.9" r="3.3" fill="#06B6D4" opacity="0.45"/></g>
<g opacity="0.233" filter="url(#softGlow)"><path d="M 196.4,1061.1 L 214.1,1061.1 L 214.1,555.8 L 1848.9,555.8 L 1848.9,168.9 " fill="none" stroke="url(#strokeB)" stroke-width="1.21" stroke-linecap="round" stroke-linejoin="round"/><circle cx="196.4" cy="1061.1" r="3.2" fill="#06B6D4" opacity="0.45"/><circle cx="214.1" cy="555.8" r="3.0" fill="#06B6D4" opacity="0.45"/><circle cx="1848.9" cy="168.9" r="2.6" fill="#06B6D4" opacity="0.45"/></g>
<g opacity="0.233" filter="url(#softGlow)"><path d="M 1714.3,172.3 L 180.3,172.3 L 180.3,950.2 L 232.3,950.2 L 232.3,42.8 " fill="none" stroke="url(#strokeB)" stroke-width="1.28" stroke-linecap="round" stroke-linejoin="round"/><circle cx="1714.3" cy="172.3" r="2.2" fill="#06B6D4" opacity="0.45"/><circle cx="232.3" cy="950.2" r="3.4" fill="#06B6D4" opacity="0.45"/><circle cx="232.3" cy="42.8" r="2.8" fill="#06B6D4" opacity="0.45"/></g>
<g opacity="0.233" filter="url(#softGlow)"><path d="M 103.1,94.0 L 1823.5,94.0 L 1823.5,1039.4 L 143.1,1039.4 L 143.1,101.9 " fill="none" stroke="url(#strokeB)" stroke-width="1.52" stroke-linecap="round" stroke-linejoin="round"/><circle cx="1823.5" cy="1039.4" r="3.1" fill="#06B6D4" opacity="0.45"/><circle cx="143.1" cy="1039.4" r="2.8" fill="#06B6D4" opacity="0.45"/><circle cx="1823.5" cy="94.0" r="2.6" fill="#06B6D4" opacity="0.45"/></g>
<g opacity="0.233" filter="url(#softGlow)"><path d="M 215.8,1017.4 L 207.2,1017.4 L 207.2,536.1 L 71.5,536.1 L 71.5,188.5 " fill="none" stroke="url(#strokeB)" stroke-width="1.37" stroke-linecap="round" stroke-linejoin="round"/><circle cx="71.5" cy="536.1" r="3.0" fill="#06B6D4" opacity="0.45"/><circle cx="215.8" cy="1017.4" r="4.1" fill="#06B6D4" opacity="0.45"/><circle cx="207.2" cy="536.1" r="2.2" fill="#06B6D4" opacity="0.45"/></g>
<g opacity="0.233" filter="url(#softGlow)"><path d="M 50.3,1078.6 L 1836.5,1078.6 L 1836.5,188.8 L 1797.8,188.8 L 1797.8,160.5 " fill="none" stroke="url(#strokeB)" stroke-width="1.27" stroke-linecap="round" stroke-linejoin="round"/><circle cx="1797.8" cy="160.5" r="3.1" fill="#06B6D4" opacity="0.45"/><circle cx="1797.8" cy="188.8" r="4.1" fill="#06B6D4" opacity="0.45"/><circle cx="50.3" cy="1078.6" r="2.7" fill="#06B6D4" opacity="0.45"/></g>
<g opacity="0.233" filter="url(#softGlow)"><path d="M 1441.2,42.9 L 1755.8,42.9 L 1755.8,347.2 L 97.4,347.2 L 97.4,227.7 " fill="none" stroke="url(#strokeB)" stroke-width="1.89" stroke-linecap="round" stroke-linejoin="round"/><circle cx="97.4" cy="347.2" r="3.7" fill="#06B6D4" opacity="0.45"/><circle cx="1441.2" cy="42.9" r="2.7" fill="#06B6D4" opacity="0.45"/><circle cx="1755.8" cy="42.9" r="4.1" fill="#06B6D4" opacity="0.45"/></g>
<g opacity="0.233" filter="url(#softGlow)"><path d="M 206.6,51.9 L 185.6,51.9 L 185.6,651.1 L 1802.3,651.1 L 1802.3,39.4 " fill="none" stroke="url(#strokeB)" stroke-width="1.14" stroke-linecap="round" stroke-linejoin="round"/><circle cx="185.6" cy="51.9" r="3.0" fill="#06B6D4" opacity="0.45"/><circle cx="1802.3" cy="39.4" r="2.2" fill="#06B6D4" opacity="0.45"/><circle cx="1802.3" cy="651.1" r="2.6" fill="#06B6D4" opacity="0.45"/></g>
<g opacity="0.233" filter="url(#softGlow)"><path d="M 127.9,557.0 L 142.6,557.0 L 142.6,606.1 L 164.3,606.1 L 164.3,138.7 " fill="none" stroke="url(#strokeB)" stroke-width="1.18" stroke-linecap="round" stroke-linejoin="round"/><circle cx="127.9" cy="557.0" r="3.8" fill="#06B6D4" opacity="0.45"/><circle cx="142.6" cy="606.1" r="3.1" fill="#06B6D4" opacity="0.45"/><circle cx="164.3" cy="606.1" r="3.2" fill="#06B6D4" opacity="0.45"/></g>
<g opacity="0.233" filter="url(#softGlow)"><path d="M 36.1,1021.3 L 103.7,1021.3 L 103.7,915.5 L 59.2,915.5 L 59.2,204.4 " fill="none" stroke="url(#strokeB)" stroke-width="1.67" stroke-linecap="round" stroke-linejoin="round"/><circle cx="103.7" cy="915.5" r="2.8" fill="#06B6D4" opacity="0.45"/><circle cx="103.7" cy="1021.3" r="3.8" fill="#06B6D4" opacity="0.45"/><circle cx="59.2" cy="915.5" r="2.7" fill="#06B6D4" opacity="0.45"/></g>
<g opacity="0.233" filter="url(#softGlow)"><path d="M 1871.4,964.6 L 109.2,964.6 L 109.2,952.8 L 188.2,952.8 L 188.2,89.3 " fill="none" stroke="url(#strokeB)" stroke-width="1.92" stroke-linecap="round" stroke-linejoin="round"/><circle cx="188.2" cy="89.3" r="3.3" fill="#06B6D4" opacity="0.45"/><circle cx="1871.4" cy="964.6" r="2.0" fill="#06B6D4" opacity="0.45"/><circle cx="109.2" cy="952.8" r="3.4" fill="#06B6D4" opacity="0.45"/></g>
<g opacity="0.233" filter="url(#softGlow)"><path d="M 1732.4,164.1 L 275.4,164.1 L 275.4,949.5 L 1908.0,949.5 L 1908.0,154.5 " fill="none" stroke="url(#strokeB)" stroke-width="1.81" stroke-linecap="round" stroke-linejoin="round"/><circle cx="275.4" cy="164.1" r="2.9" fill="#06B6D4" opacity="0.45"/><circle cx="1732.4" cy="164.1" r="2.3" fill="#06B6D4" opacity="0.45"/><circle cx="1908.0" cy="154.5" r="4.0" fill="#06B6D4" opacity="0.45"/></g>
<g opacity="0.233" filter="url(#softGlow)"><path d="M 52.7,101.7 L 1895.3,101.7 L 1895.3,947.3 L 1886.2,947.3 L 1886.2,697.8 " fill="none" stroke="url(#strokeB)" stroke-width="1.40" stroke-linecap="round" stroke-linejoin="round"/><circle cx="1886.2" cy="947.3" r="2.1" fill="#06B6D4" opacity="0.45"/><circle cx="1895.3" cy="101.7" r="3.6" fill="#06B6D4" opacity="0.45"/><circle cx="1895.3" cy="947.3" r="3.7" fill="#06B6D4" opacity="0.45"/></g>
<g opacity="0.233" filter="url(#softGlow)"><path d="M 1815.6,967.6 L 1840.9,967.6 L 1840.9,26.4 L 139.9,26.4 L 139.9,566.9 " fill="none" stroke="url(#strokeB)" stroke-width="1.87" stroke-linecap="round" stroke-linejoin="round"/><circle cx="1840.9" cy="26.4" r="3.4" fill="#06B6D4" opacity="0.45"/><circle cx="1815.6" cy="967.6" r="2.2" fill="#06B6D4" opacity="0.45"/><circle cx="139.9" cy="26.4" r="2.7" fill="#06B6D4" opacity="0.45"/></g>
<g opacity="0.233" filter="url(#softGlow)"><path d="M 33.0,1015.0 L 88.0,1015.0 L 88.0,4.4 L 31.7,4.4 L 31.7,141.1 " fill="none" stroke="url(#strokeB)" stroke-width="1.55" stroke-linecap="round" stroke-linejoin="round"/><circle cx="31.7" cy="141.1" r="3.9" fill="#06B6D4" opacity="0.45"/><circle cx="31.7" cy="4.4" r="2.2" fill="#06B6D4" opacity="0.45"/><circle cx="88.0" cy="1015.0" r="3.2" fill="#06B6D4" opacity="0.45"/></g>
<g opacity="0.233" filter="url(#softGlow)"><path d="M 1828.2,1046.0 L 1443.8,1046.0 L 1443.8,117.8 L 171.9,117.8 L 171.9,34.5 " fill="none" stroke="url(#strokeB)" stroke-width="1.86" stroke-linecap="round" stroke-linejoin="round"/><circle cx="1828.2" cy="1046.0" r="2.1" fill="#06B6D4" opacity="0.45"/><circle cx="171.9" cy="34.5" r="2.2" fill="#06B6D4" opacity="0.45"/><circle cx="171.9" cy="117.8" r="2.8" fill="#06B6D4" opacity="0.45"/></g>
<g opacity="0.233" filter="url(#softGlow)"><path d="M 47.8,54.8 L 1708.7,54.8 L 1708.7,169.0 L 64.7,169.0 L 64.7,1032.6 " fill="none" stroke="url(#strokeB)" stroke-width="1.82" stroke-linecap="round" stroke-linejoin="round"/><circle cx="1708.7" cy="54.8" r="2.5" fill="#06B6D4" opacity="0.45"/><circle cx="64.7" cy="1032.6" r="3.5" fill="#06B6D4" opacity="0.45"/><circle cx="64.7" cy="169.0" r="3.4" fill="#06B6D4" opacity="0.45"/></g>
<g opacity="0.233" filter="url(#softGlow)"><path d="M 122.9,3.0 L 1859.0,3.0 L 1859.0,141.4 L 1778.3,141.4 L 1778.3,926.3 " fill="none" stroke="url(#strokeB)" stroke-width="1.65" stroke-linecap="round" stroke-linejoin="round"/><circle cx="1859.0" cy="3.0" r="3.7" fill="#06B6D4" opacity="0.45"/><circle cx="1778.3" cy="141.4" r="2.9" fill="#06B6D4" opacity="0.45"/><circle cx="1859.0" cy="141.4" r="4.1" fill="#06B6D4" opacity="0.45"/></g>
<g opacity="0.233" filter="url(#softGlow)"><path d="M 1748.7,870.3 L 904.9,870.3 L 904.9,988.1 L 1759.7,988.1 L 1759.7,153.1 " fill="none" stroke="url(#strokeB)" stroke-width="1.53" stroke-linecap="round" stroke-linejoin="round"/><circle cx="1748.7" cy="870.3" r="2.0" fill="#06B6D4" opacity="0.45"/><circle cx="904.9" cy="988.1" r="3.6" fill="#06B6D4" opacity="0.45"/><circle cx="1759.7" cy="988.1" r="2.6" fill="#06B6D4" opacity="0.45"/></g>
<g opacity="0.233" filter="url(#softGlow)"><path d="M 7.7,793.5 L 198.8,793.5 L 198.8,80.5 L 1913.6,80.5 L 1913.6,139.0 " fill="none" stroke="url(#strokeB)" stroke-width="1.13" stroke-linecap="round" stroke-linejoin="round"/><circle cx="198.8" cy="793.5" r="3.2" fill="#06B6D4" opacity="0.45"/><circle cx="7.7" cy="793.5" r="2.0" fill="#06B6D4" opacity="0.45"/><circle cx="198.8" cy="80.5" r="3.1" fill="#06B6D4" opacity="0.45"/></g>

<g opacity="0.661" filter="url(#hardGlow)">
  <circle cx="1776.0" cy="98.5" r="59.2" fill="#0A1224" opacity="0.65"/>
  <circle cx="1776.0" cy="98.5" r="59.2" fill="none" stroke="url(#strokeA)" stroke-width="4.7" opacity="0.85"/>
  <circle cx="1776.0" cy="98.5" r="51.0" fill="none" stroke="#A3E635" stroke-width="1.8" opacity="0.35"/>
  <polygon points="1817.4,108.6 1788.0,139.4 1746.5,129.3 1734.6,88.4 1764.0,57.5 1805.5,67.7" fill="none" stroke="url(#strokeB)" stroke-width="1.5" opacity="0.65"/>
  <polygon points="1788.4,106.8 1762.6,105.1 1777.0,83.6" fill="#A3E635" opacity="0.22" filter="url(#softGlow)"/>
</g>


<g opacity="0.492" filter="url(#hardGlow)">
  <circle cx="1686.2" cy="163.3" r="21.0" fill="#0A1224" opacity="0.65"/>
  <circle cx="1686.2" cy="163.3" r="21.0" fill="none" stroke="url(#strokeA)" stroke-width="2.0" opacity="0.85"/>
  <circle cx="1686.2" cy="163.3" r="18.0" fill="none" stroke="#06B6D4" stroke-width="1.5" opacity="0.35"/>
  <polygon points="1671.8,158.5 1683.1,148.5 1697.4,153.3 1700.5,168.0 1689.2,178.1 1674.9,173.3" fill="none" stroke="url(#strokeB)" stroke-width="1.2" opacity="0.65"/>
  <polygon points="1682.0,160.0 1691.1,161.3 1685.4,168.5" fill="#06B6D4" opacity="0.22" filter="url(#softGlow)"/>
</g>


<g opacity="0.494" filter="url(#hardGlow)">
  <circle cx="1827.8" cy="31.8" r="29.7" fill="#0A1224" opacity="0.65"/>
  <circle cx="1827.8" cy="31.8" r="29.7" fill="none" stroke="url(#strokeA)" stroke-width="2.4" opacity="0.85"/>
  <circle cx="1827.8" cy="31.8" r="25.5" fill="none" stroke="#06B6D4" stroke-width="1.5" opacity="0.35"/>
  <polygon points="1807.3,37.9 1812.3,17.1 1832.8,11.0 1848.3,25.7 1843.4,46.5 1822.9,52.6" fill="none" stroke="url(#strokeB)" stroke-width="1.2" opacity="0.65"/>
  
</g>


<g opacity="0.486" filter="url(#hardGlow)">
  <circle cx="1819.0" cy="122.8" r="23.5" fill="#0A1224" opacity="0.65"/>
  <circle cx="1819.0" cy="122.8" r="23.5" fill="none" stroke="url(#strokeA)" stroke-width="2.0" opacity="0.85"/>
  <circle cx="1819.0" cy="122.8" r="20.2" fill="none" stroke="#06B6D4" stroke-width="1.5" opacity="0.35"/>
  <polygon points="1802.2,120.5 1812.5,107.1 1829.3,109.3 1835.7,125.0 1825.4,138.4 1808.7,136.2" fill="none" stroke="url(#strokeB)" stroke-width="1.2" opacity="0.65"/>
  <polygon points="1813.7,120.0 1824.0,119.6 1819.2,128.7" fill="#06B6D4" opacity="0.22" filter="url(#softGlow)"/>
</g>


<g opacity="0.724" filter="url(#hardGlow)">
  <circle cx="1794.9" cy="96.5" r="65.1" fill="#0A1224" opacity="0.65"/>
  <circle cx="1794.9" cy="96.5" r="65.1" fill="none" stroke="url(#strokeA)" stroke-width="5.2" opacity="0.85"/>
  <circle cx="1794.9" cy="96.5" r="56.0" fill="none" stroke="#A3E635" stroke-width="2.0" opacity="0.35"/>
  <polygon points="1778.1,140.3 1748.6,104.0 1765.3,60.2 1811.6,52.8 1841.1,89.1 1824.4,132.9" fill="none" stroke="url(#strokeB)" stroke-width="1.6" opacity="0.65"/>
  <polygon points="1784.1,108.9 1789.5,81.0 1811.0,99.7" fill="#A3E635" opacity="0.22" filter="url(#softGlow)"/>
</g>


<g opacity="0.585" filter="url(#hardGlow)">
  <circle cx="1877.3" cy="99.1" r="34.2" fill="#0A1224" opacity="0.65"/>
  <circle cx="1877.3" cy="99.1" r="34.2" fill="none" stroke="url(#strokeA)" stroke-width="2.7" opacity="0.85"/>
  <circle cx="1877.3" cy="99.1" r="29.4" fill="none" stroke="#06B6D4" stroke-width="1.5" opacity="0.35"/>
  <polygon points="1856.2,86.3 1877.8,74.5 1898.8,87.2 1898.3,111.8 1876.8,123.7 1855.7,110.9" fill="none" stroke="url(#strokeB)" stroke-width="1.2" opacity="0.65"/>
  <polygon points="1871.9,92.4 1885.8,97.8 1874.1,107.1" fill="#06B6D4" opacity="0.22" filter="url(#softGlow)"/>
</g>


<g opacity="0.653" filter="url(#hardGlow)">
  <circle cx="26.5" cy="138.9" r="69.9" fill="#0A1224" opacity="0.65"/>
  <circle cx="26.5" cy="138.9" r="69.9" fill="none" stroke="url(#strokeA)" stroke-width="5.6" opacity="0.85"/>
  <circle cx="26.5" cy="138.9" r="60.1" fill="none" stroke="#A3E635" stroke-width="2.1" opacity="0.35"/>
  <polygon points="74.5,154.1 37.3,188.0 -10.6,172.8 -21.5,123.7 15.7,89.7 63.7,104.9" fill="none" stroke="url(#strokeB)" stroke-width="1.7" opacity="0.65"/>
  <polygon points="40.5,149.6 10.2,145.6 28.8,121.4" fill="#A3E635" opacity="0.22" filter="url(#softGlow)"/>
</g>


<g opacity="0.378" filter="url(#hardGlow)">
  <circle cx="87.6" cy="209.0" r="25.5" fill="#0A1224" opacity="0.65"/>
  <circle cx="87.6" cy="209.0" r="25.5" fill="none" stroke="url(#strokeA)" stroke-width="2.0" opacity="0.85"/>
  <circle cx="87.6" cy="209.0" r="21.9" fill="none" stroke="#06B6D4" stroke-width="1.5" opacity="0.35"/>
  <polygon points="105.6,205.6 99.6,222.9 81.6,226.4 69.6,212.5 75.6,195.2 93.6,191.7" fill="none" stroke="url(#strokeB)" stroke-width="1.2" opacity="0.65"/>
  
</g>


<g opacity="0.780" filter="url(#hardGlow)">
  <circle cx="1550.3" cy="88.9" r="49.3" fill="#0A1224" opacity="0.65"/>
  <circle cx="1550.3" cy="88.9" r="49.3" fill="none" stroke="url(#strokeA)" stroke-width="3.9" opacity="0.85"/>
  <circle cx="1550.3" cy="88.9" r="42.4" fill="none" stroke="#A3E635" stroke-width="1.5" opacity="0.35"/>
  <polygon points="1540.1,123.0 1515.7,97.2 1525.9,63.2 1560.4,54.9 1584.8,80.7 1574.6,114.7" fill="none" stroke="url(#strokeB)" stroke-width="1.2" opacity="0.65"/>
  <polygon points="1542.9,98.9 1545.3,77.5 1562.6,90.4" fill="#A3E635" opacity="0.22" filter="url(#softGlow)"/>
</g>


<g opacity="0.283" transform="translate(41.2,1011.6) rotate(5.5)" filter="url(#softGlow)">
  <rect x="-89.1" y="-82.2" width="178.1" height="164.3" rx="16.4" fill="#050A12" opacity="0.25"/>
  <rect x="-89.1" y="-82.2" width="178.1" height="164.3" rx="16.4" fill="none" stroke="url(#strokeA)" stroke-width="8.2" opacity="0.85"/>
  <rect x="-75.9" y="-69.0" width="151.8" height="138.0" rx="11.5" fill="none" stroke="#06B6D4" stroke-width="3.3" opacity="0.35"/>
</g>


<g opacity="0.425" transform="translate(1793.8,22.7) rotate(-4.0)" filter="url(#softGlow)">
  <rect x="-103.2" y="-95.4" width="206.4" height="190.9" rx="19.1" fill="#050A12" opacity="0.25"/>
  <rect x="-103.2" y="-95.4" width="206.4" height="190.9" rx="19.1" fill="none" stroke="url(#strokeA)" stroke-width="9.5" opacity="0.85"/>
  <rect x="-87.9" y="-80.2" width="175.8" height="160.3" rx="13.4" fill="none" stroke="#A3E635" stroke-width="3.8" opacity="0.35"/>
</g>


<g opacity="0.316" transform="translate(161.3,133.4) rotate(9.0)" filter="url(#softGlow)">
  <rect x="-101.6" y="-79.4" width="203.1" height="158.7" rx="15.9" fill="#050A12" opacity="0.25"/>
  <rect x="-101.6" y="-79.4" width="203.1" height="158.7" rx="15.9" fill="none" stroke="url(#strokeA)" stroke-width="7.9" opacity="0.85"/>
  <rect x="-88.9" y="-66.7" width="177.8" height="133.3" rx="11.1" fill="none" stroke="#A3E635" stroke-width="3.2" opacity="0.35"/>
</g>


<g opacity="0.404" transform="translate(32.4,1055.8) rotate(0.4)" filter="url(#softGlow)">
  <rect x="-85.4" y="-67.2" width="170.8" height="134.4" rx="13.4" fill="#050A12" opacity="0.25"/>
  <rect x="-85.4" y="-67.2" width="170.8" height="134.4" rx="13.4" fill="none" stroke="url(#strokeA)" stroke-width="6.7" opacity="0.85"/>
  <rect x="-74.6" y="-56.5" width="149.3" height="112.9" rx="9.4" fill="none" stroke="#06B6D4" stroke-width="2.7" opacity="0.35"/>
</g>


<g opacity="0.369" transform="translate(108.8,997.0) rotate(11.4)" filter="url(#softGlow)">
  <rect x="-41.7" y="-24.0" width="83.5" height="48.1" rx="14.7" fill="none" stroke="#06B6D4" stroke-width="8.0" opacity="0.55"/>
  <rect x="-18.4" y="-12.0" width="83.5" height="48.1" rx="14.7" fill="none" stroke="url(#strokeA)" stroke-width="6.7" opacity="0.55"/>
</g>


<g opacity="0.437" transform="translate(1699.4,191.2) rotate(-9.1)" filter="url(#softGlow)">
  <rect x="-38.7" y="-22.3" width="77.3" height="44.5" rx="13.6" fill="none" stroke="#06B6D4" stroke-width="7.4" opacity="0.55"/>
  <rect x="-17.0" y="-11.1" width="77.3" height="44.5" rx="13.6" fill="none" stroke="url(#strokeA)" stroke-width="6.2" opacity="0.55"/>
</g>


<g opacity="0.284" transform="translate(75.9,819.5) rotate(9.8)" filter="url(#softGlow)">
  <rect x="-47.9" y="-27.6" width="95.9" height="55.2" rx="16.9" fill="none" stroke="#A3E635" stroke-width="9.2" opacity="0.55"/>
  <rect x="-21.1" y="-13.8" width="95.9" height="55.2" rx="16.9" fill="none" stroke="url(#strokeA)" stroke-width="7.7" opacity="0.55"/>
</g>


<g opacity="0.463" transform="translate(1910.7,125.8) rotate(-6.3)" filter="url(#softGlow)">
  <rect x="-59.5" y="-34.2" width="118.9" height="68.5" rx="20.9" fill="none" stroke="#06B6D4" stroke-width="11.4" opacity="0.55"/>
  <rect x="-26.2" y="-17.1" width="118.9" height="68.5" rx="20.9" fill="none" stroke="url(#strokeA)" stroke-width="9.5" opacity="0.55"/>
</g>


<g opacity="0.373" transform="translate(169.5,147.1) rotate(8.3)" filter="url(#softGlow)">
  <rect x="-34.8" y="-20.0" width="69.5" height="40.0" rx="12.2" fill="none" stroke="#A3E635" stroke-width="6.7" opacity="0.55"/>
  <rect x="-15.3" y="-10.0" width="69.5" height="40.0" rx="12.2" fill="none" stroke="url(#strokeA)" stroke-width="5.6" opacity="0.55"/>
</g>


<g opacity="0.384" transform="translate(5.7,121.7) rotate(14.6)" filter="url(#softGlow)">
  <rect x="-44.5" y="-25.6" width="89.0" height="51.3" rx="15.7" fill="none" stroke="#A3E635" stroke-width="8.5" opacity="0.55"/>
  <rect x="-19.6" y="-12.8" width="89.0" height="51.3" rx="15.7" fill="none" stroke="url(#strokeA)" stroke-width="7.1" opacity="0.55"/>
</g>


<g opacity="0.314" transform="translate(151.6,1034.6) rotate(3.1)" filter="url(#softGlow)">
  <rect x="-42.7" y="-24.6" width="85.4" height="49.2" rx="15.0" fill="none" stroke="#A3E635" stroke-width="8.2" opacity="0.55"/>
  <rect x="-18.8" y="-12.3" width="85.4" height="49.2" rx="15.0" fill="none" stroke="url(#strokeA)" stroke-width="6.8" opacity="0.55"/>
</g>


<g opacity="0.345" transform="translate(487.0,55.9) rotate(9.2)" filter="url(#softGlow)">
  <rect x="-36.3" y="-20.9" width="72.7" height="41.9" rx="12.8" fill="none" stroke="#06B6D4" stroke-width="7.0" opacity="0.55"/>
  <rect x="-16.0" y="-10.5" width="72.7" height="41.9" rx="12.8" fill="none" stroke="url(#strokeA)" stroke-width="5.8" opacity="0.55"/>
</g>


<g opacity="0.267" transform="translate(1839.1,110.2) rotate(-0.9)" filter="url(#softGlow)">
  <rect x="-47.2" y="-27.2" width="94.3" height="54.3" rx="16.6" fill="none" stroke="#A3E635" stroke-width="9.1" opacity="0.55"/>
  <rect x="-20.7" y="-13.6" width="94.3" height="54.3" rx="16.6" fill="none" stroke="url(#strokeA)" stroke-width="7.5" opacity="0.55"/>
</g>


<g opacity="0.166">
  <line x1="1664.9" y1="914.6" x2="1664.9" y2="1008.3" stroke="#06B6D4" stroke-width="1.83" opacity="0.45"/>
  <rect x="1661.5" y="961.5" width="6.9" height="56.2" rx="2.3" fill="#0B1020" opacity="0.55" stroke="url(#strokeA)" stroke-width="1.2"/>
</g>

<g opacity="0.166">
  <line x1="595.6" y1="911.5" x2="595.6" y2="1009.1" stroke="#06B6D4" stroke-width="1.02" opacity="0.45"/>
  <rect x="592.1" y="962.3" width="7.0" height="54.5" rx="2.3" fill="#0B1020" opacity="0.55" stroke="url(#strokeA)" stroke-width="1.2"/>
</g>

<g opacity="0.166">
  <line x1="313.0" y1="904.7" x2="313.0" y2="1010.8" stroke="#06B6D4" stroke-width="1.81" opacity="0.45"/>
  <rect x="309.0" y="963.7" width="7.9" height="51.7" rx="2.6" fill="#0B1020" opacity="0.55" stroke="url(#strokeA)" stroke-width="1.2"/>
</g>

<g opacity="0.166">
  <line x1="562.1" y1="905.7" x2="562.1" y2="1010.5" stroke="#06B6D4" stroke-width="1.49" opacity="0.45"/>
  <rect x="557.7" y="963.5" width="8.7" height="52.2" rx="2.9" fill="#0B1020" opacity="0.55" stroke="url(#strokeA)" stroke-width="1.2"/>
</g>

<g opacity="0.166">
  <line x1="253.9" y1="907.0" x2="253.9" y2="1010.2" stroke="#06B6D4" stroke-width="2.17" opacity="0.45"/>
  <rect x="250.6" y="960.6" width="6.5" height="58.0" rx="2.2" fill="#0B1020" opacity="0.55" stroke="url(#strokeA)" stroke-width="1.2"/>
</g>

<g opacity="0.166">
  <line x1="224.8" y1="928.1" x2="224.8" y2="1004.9" stroke="#06B6D4" stroke-width="1.22" opacity="0.45"/>
  <rect x="221.2" y="973.2" width="7.1" height="32.7" rx="2.4" fill="#0B1020" opacity="0.55" stroke="url(#strokeA)" stroke-width="1.2"/>
</g>

<g opacity="0.166">
  <line x1="372.7" y1="899.2" x2="372.7" y2="1012.2" stroke="#06B6D4" stroke-width="2.16" opacity="0.45"/>
  <rect x="368.3" y="962.8" width="8.8" height="53.5" rx="2.9" fill="#0B1020" opacity="0.55" stroke="url(#strokeA)" stroke-width="1.2"/>
</g>

<g opacity="0.166">
  <line x1="502.9" y1="931.5" x2="502.9" y2="1004.1" stroke="#06B6D4" stroke-width="1.59" opacity="0.45"/>
  <rect x="499.4" y="980.0" width="7.0" height="19.2" rx="2.3" fill="#0B1020" opacity="0.55" stroke="url(#strokeA)" stroke-width="1.2"/>
</g>

<g opacity="0.166">
  <line x1="550.5" y1="913.6" x2="550.5" y2="1008.6" stroke="#06B6D4" stroke-width="1.32" opacity="0.45"/>
  <rect x="544.7" y="961.5" width="11.5" height="56.2" rx="3.8" fill="#0B1020" opacity="0.55" stroke="url(#strokeA)" stroke-width="1.2"/>
</g>

<g opacity="0.166">
  <line x1="937.4" y1="945.9" x2="937.4" y2="1000.5" stroke="#06B6D4" stroke-width="2.06" opacity="0.45"/>
  <rect x="932.4" y="980.4" width="10.0" height="18.2" rx="3.3" fill="#0B1020" opacity="0.55" stroke="url(#strokeA)" stroke-width="1.2"/>
</g>

<g opacity="0.166">
  <line x1="503.8" y1="915.1" x2="503.8" y2="1008.2" stroke="#06B6D4" stroke-width="1.07" opacity="0.45"/>
  <rect x="497.9" y="970.8" width="11.8" height="37.6" rx="3.9" fill="#0B1020" opacity="0.55" stroke="url(#strokeA)" stroke-width="1.2"/>
</g>

<g opacity="0.166">
  <line x1="1085.8" y1="924.5" x2="1085.8" y2="1005.8" stroke="#06B6D4" stroke-width="1.37" opacity="0.45"/>
  <rect x="1080.6" y="970.4" width="10.4" height="38.4" rx="3.5" fill="#0B1020" opacity="0.55" stroke="url(#strokeA)" stroke-width="1.2"/>
</g>

<g opacity="0.166">
  <line x1="793.7" y1="924.0" x2="793.7" y2="1006.0" stroke="#06B6D4" stroke-width="1.42" opacity="0.45"/>
  <rect x="789.8" y="971.1" width="7.9" height="37.0" rx="2.6" fill="#0B1020" opacity="0.55" stroke="url(#strokeA)" stroke-width="1.2"/>
</g>

<g opacity="0.166">
  <line x1="592.3" y1="923.5" x2="592.3" y2="1006.1" stroke="#06B6D4" stroke-width="1.11" opacity="0.45"/>
  <rect x="587.6" y="969.1" width="9.4" height="40.9" rx="3.1" fill="#0B1020" opacity="0.55" stroke="url(#strokeA)" stroke-width="1.2"/>
</g>

<g opacity="0.166">
  <line x1="862.7" y1="920.7" x2="862.7" y2="1006.8" stroke="#06B6D4" stroke-width="2.06" opacity="0.45"/>
  <rect x="857.5" y="972.1" width="10.4" height="34.9" rx="3.5" fill="#0B1020" opacity="0.55" stroke="url(#strokeA)" stroke-width="1.2"/>
</g>

<g opacity="0.166">
  <line x1="521.5" y1="923.9" x2="521.5" y2="1006.0" stroke="#06B6D4" stroke-width="1.77" opacity="0.45"/>
  <rect x="518.3" y="975.7" width="6.4" height="27.7" rx="2.1" fill="#0B1020" opacity="0.55" stroke="url(#strokeA)" stroke-width="1.2"/>
</g>
<circle cx="75.6" cy="190.6" r="1.6" fill="#A3E635" opacity="0.27" filter="url(#softGlow)"/>
<circle cx="124.8" cy="879.7" r="1.7" fill="#A3E635" opacity="0.16" filter="url(#softGlow)"/>
<circle cx="25.1" cy="31.3" r="2.9" fill="#A3E635" opacity="0.23" filter="url(#softGlow)"/>
<circle cx="82.3" cy="873.7" r="1.7" fill="#A3E635" opacity="0.10" filter="url(#softGlow)"/>
<circle cx="1827.6" cy="1014.6" r="1.5" fill="#A3E635" opacity="0.15" filter="url(#softGlow)"/>
<circle cx="1547.3" cy="1024.9" r="1.7" fill="#A3E635" opacity="0.18" filter="url(#softGlow)"/>
<circle cx="199.9" cy="176.2" r="2.0" fill="#A3E635" opacity="0.22" filter="url(#softGlow)"/>
<circle cx="111.6" cy="37.6" r="1.7" fill="#A3E635" opacity="0.14" filter="url(#softGlow)"/>
<circle cx="1736.9" cy="188.8" r="3.0" fill="#A3E635" opacity="0.17" filter="url(#softGlow)"/>
<circle cx="413.6" cy="1078.6" r="1.9" fill="#A3E635" opacity="0.21" filter="url(#softGlow)"/>
<circle cx="124.6" cy="125.9" r="2.5" fill="#A3E635" opacity="0.18" filter="url(#softGlow)"/>
<circle cx="18.2" cy="702.7" r="2.7" fill="#A3E635" opacity="0.17" filter="url(#softGlow)"/>
<circle cx="203.5" cy="486.1" r="2.5" fill="#A3E635" opacity="0.22" filter="url(#softGlow)"/>
<circle cx="1853.2" cy="49.2" r="3.1" fill="#A3E635" opacity="0.16" filter="url(#softGlow)"/>
<circle cx="153.5" cy="876.3" r="1.5" fill="#A3E635" opacity="0.28" filter="url(#softGlow)"/>
<circle cx="1781.4" cy="1052.8" r="1.3" fill="#A3E635" opacity="0.26" filter="url(#softGlow)"/>
<circle cx="1861.0" cy="1005.3" r="2.9" fill="#A3E635" opacity="0.26" filter="url(#softGlow)"/>
<circle cx="275.0" cy="1009.7" r="1.4" fill="#A3E635" opacity="0.13" filter="url(#softGlow)"/>
<circle cx="2.4" cy="838.7" r="2.6" fill="#A3E635" opacity="0.19" filter="url(#softGlow)"/>
<circle cx="1727.3" cy="1062.5" r="2.7" fill="#A3E635" opacity="0.20" filter="url(#softGlow)"/>
</svg>