<svg xmlns="http://www.w3.org/2000/svg" width="1920" height="1080" viewBox="0 0 1920 1080" preserveAspectRatio="xMidYMid slice">
<defs>
  <linearGradient id="g0" x1="0" y1="0" x2="1" y2="1">
    <stop offset="0" stop-color="#0B0F1A"/>
    <stop offset="0.55" stop-color="#A855F7" stop-opacity="0.9"/>
    <stop offset="1" stop-color="#030712"/>
  </linearGradient>
  <radialGradient id="g1" cx="20%" cy="15%" r="70%">
    <stop offset="0" stop-color="#22D3EE" stop-opacity="0.38"/>
    <stop offset="0.6" stop-color="#22D3EE" stop-opacity="0.08"/>
    <stop offset="1" stop-color="#22D3EE" stop-opacity="0"/>
  </radialGradient>
  <radialGradient id="g2" cx="85%" cy="80%" r="75%">
    <stop offset="0" stop-color="#22D3EE" stop-opacity="0.28"/>
    <stop offset="0.65" stop-color="#22D3EE" stop-opacity="0.06"/>
    <stop offset="1" stop-color="#22D3EE" stop-opacity="0"/>
  </radialGradient>
  <filter id="softGlow" x="-30%" y="-30%" width="160%" height="160%">
    <feGaussianBlur stdDeviation="12" result="b"/>
    <feMerge>
      <feMergeNode in="b"/>
      <feMergeNode in="SourceGraphic"/>
    </feMerge>
  </filter>
  <filter id="hardGlow" x="-40%" y="-40%" width="180%" height="180%">
    <feGaussianBlur stdDeviation="6" result="b"/>
    <feColorMatrix in="b" type="matrix" values="1 0 0 0 0  0 1 0 0 0  0 0 1 0 0  0 0 0 18 -7" result="c"/>
    <feMerge>
      <feMergeNode in="c"/>
      <feMergeNode in="SourceGraphic"/>
    </feMerge>
  </filter>
  <linearGradient id="strokeA" x1="0" y1="0" x2="1" y2="0">
    <stop offset="0" stop-color="#22D3EE" stop-opacity="0.9"/>
    <stop offset="0.5" stop-color="#FFFFFF" stop-opacity="0.25"/>
    <stop offset="1" stop-color="#22D3EE" stop-opacity="0.7"/>
  </linearGradient>
  <linearGradient id="strokeB" x1="0" y1="0" x2="0" y2="1">
    <stop offset="0" stop-color="#FFFFFF" stop-opacity="0.18"/>
    <stop offset="1" stop-color="#22D3EE" stop-opacity="0.55"/>
  </linearGradient>
</defs>
<rect x="0" y="0" width="1920" height="1080" fill="url(#g0)"/>
<rect x="0" y="0" width="1920" height="1080" fill="url(#g1)"/>
<rect x="0" y="0" width="1920" height="1080" fill="url(#g2)"/>


<defs>
  <radialGradient id="vign" cx="0.5000" cy="0.5093" r="0.85">
    <stop offset="0" stop-color="#000000" stop-opacity="0"/>
    <stop offset="0.55" stop-color="#000000" stop-opacity="0.217"/>
    <stop offset="1" stop-color="#000000" stop-opacity="0.620"/>
  </radialGradient>
</defs>
<rect x="0" y="0" width="1920" height="1080" fill="url(#vign)"/>

<g opacity="0.266" filter="url(#softGlow)"><path d="M 1715.1,41.2 L 114.6,41.2 L 114.6,876.5 L 1801.4,876.5 L 1801.4,195.7 " fill="none" stroke="url(#strokeB)" stroke-width="1.64" stroke-linecap="round" stroke-linejoin="round"/><circle cx="1715.1" cy="41.2" r="2.1" fill="#22D3EE" opacity="0.45"/><circle cx="1801.4" cy="195.7" r="4.1" fill="#22D3EE" opacity="0.45"/><circle cx="114.6" cy="876.5" r="3.4" fill="#22D3EE" opacity="0.45"/></g>
<g opacity="0.266" filter="url(#softGlow)"><path d="M 240.3,214.6 L 103.5,214.6 L 103.5,865.7 L 1895.2,865.7 L 1895.2,634.5 " fill="none" stroke="url(#strokeB)" stroke-width="1.37" stroke-linecap="round" stroke-linejoin="round"/><circle cx="103.5" cy="214.6" r="2.6" fill="#22D3EE" opacity="0.45"/><circle cx="103.5" cy="865.7" r="3.9" fill="#22D3EE" opacity="0.45"/><circle cx="240.3" cy="214.6" r="3.0" fill="#22D3EE" opacity="0.45"/></g>
<g opacity="0.266" filter="url(#softGlow)"><path d="M 1849.0,356.9 L 64.8,356.9 L 64.8,117.9 L 1910.4,117.9 L 1910.4,950.6 " fill="none" stroke="url(#strokeB)" stroke-width="1.87" stroke-linecap="round" stroke-linejoin="round"/><circle cx="1910.4" cy="950.6" r="3.5" fill="#22D3EE" opacity="0.45"/><circle cx="1849.0" cy="356.9" r="4.0" fill="#22D3EE" opacity="0.45"/><circle cx="64.8" cy="117.9" r="2.1" fill="#22D3EE" opacity="0.45"/></g>
<g opacity="0.266" filter="url(#softGlow)"><path d="M 933.0,992.6 L 35.6,992.6 L 35.6,174.7 L 1844.8,174.7 L 1844.8,875.1 " fill="none" stroke="url(#strokeB)" stroke-width="1.29" stroke-linecap="round" stroke-linejoin="round"/><circle cx="933.0" cy="992.6" r="2.8" fill="#22D3EE" opacity="0.45"/><circle cx="1844.8" cy="174.7" r="2.6" fill="#22D3EE" opacity="0.45"/><circle cx="1844.8" cy="875.1" r="2.5" fill="#22D3EE" opacity="0.45"/></g>
<g opacity="0.266" filter="url(#softGlow)"><path d="M 693.3,975.4 L 764.5,975.4 L 764.5,1054.2 L 575.8,1054.2 L 575.8,987.4 " fill="none" stroke="url(#strokeB)" stroke-width="2.19" stroke-linecap="round" stroke-linejoin="round"/><circle cx="764.5" cy="1054.2" r="3.8" fill="#22D3EE" opacity="0.45"/><circle cx="764.5" cy="975.4" r="2.1" fill="#22D3EE" opacity="0.45"/><circle cx="575.8" cy="1054.2" r="2.5" fill="#22D3EE" opacity="0.45"/></g>
<g opacity="0.266" filter="url(#softGlow)"><path d="M 133.0,1058.0 L 1715.6,1058.0 L 1715.6,51.5 L 207.8,51.5 L 207.8,149.1 " fill="none" stroke="url(#strokeB)" stroke-width="1.38" stroke-linecap="round" stroke-linejoin="round"/><circle cx="1715.6" cy="51.5" r="2.5" fill="#22D3EE" opacity="0.45"/><circle cx="133.0" cy="1058.0" r="2.2" fill="#22D3EE" opacity="0.45"/><circle cx="1715.6" cy="1058.0" r="3.4" fill="#22D3EE" opacity="0.45"/></g>
<g opacity="0.266" filter="url(#softGlow)"><path d="M 1910.5,944.4 L 1904.9,944.4 L 1904.9,75.9 L 1911.9,75.9 L 1911.9,187.6 " fill="none" stroke="url(#strokeB)" stroke-width="1.97" stroke-linecap="round" stroke-linejoin="round"/><circle cx="1911.9" cy="187.6" r="4.0" fill="#22D3EE" opacity="0.45"/><circle cx="1904.9" cy="944.4" r="3.3" fill="#22D3EE" opacity="0.45"/><circle cx="1910.5" cy="944.4" r="2.5" fill="#22D3EE" opacity="0.45"/></g>
<g opacity="0.266" filter="url(#softGlow)"><path d="M 938.2,72.5 L 1814.2,72.5 L 1814.2,882.0 L 203.4,882.0 L 203.4,1008.9 " fill="none" stroke="url(#strokeB)" stroke-width="1.56" stroke-linecap="round" stroke-linejoin="round"/><circle cx="938.2" cy="72.5" r="4.0" fill="#22D3EE" opacity="0.45"/><circle cx="203.4" cy="1008.9" r="2.0" fill="#22D3EE" opacity="0.45"/><circle cx="203.4" cy="882.0" r="3.9" fill="#22D3EE" opacity="0.45"/></g>
<g opacity="0.266" filter="url(#softGlow)"><path d="M 31.1,22.1 L 35.7,22.1 L 35.7,158.4 L 1005.9,158.4 L 1005.9,75.3 " fill="none" stroke="url(#strokeB)" stroke-width="1.56" stroke-linecap="round" stroke-linejoin="round"/><circle cx="1005.9" cy="75.3" r="2.4" fill="#22D3EE" opacity="0.45"/><circle cx="35.7" cy="158.4" r="2.6" fill="#22D3EE" opacity="0.45"/><circle cx="1005.9" cy="158.4" r="3.0" fill="#22D3EE" opacity="0.45"/></g>
<g opacity="0.266" filter="url(#softGlow)"><path d="M 1914.6,96.9 L 1733.1,96.9 L 1733.1,182.6 L 1069.4,182.6 L 1069.4,981.1 " fill="none" stroke="url(#strokeB)" stroke-width="1.22" stroke-linecap="round" stroke-linejoin="round"/><circle cx="1914.6" cy="96.9" r="3.9" fill="#22D3EE" opacity="0.45"/><circle cx="1069.4" cy="981.1" r="2.9" fill="#22D3EE" opacity="0.45"/><circle cx="1733.1" cy="96.9" r="3.3" fill="#22D3EE" opacity="0.45"/></g>
<g opacity="0.266" filter="url(#softGlow)"><path d="M 47.8,970.5 L 272.7,970.5 L 272.7,3.4 L 743.6,3.4 L 743.6,1037.8 " fill="none" stroke="url(#strokeB)" stroke-width="1.76" stroke-linecap="round" stroke-linejoin="round"/><circle cx="272.7" cy="970.5" r="4.0" fill="#22D3EE" opacity="0.45"/><circle cx="743.6" cy="3.4" r="2.3" fill="#22D3EE" opacity="0.45"/><circle cx="272.7" cy="3.4" r="4.1" fill="#22D3EE" opacity="0.45"/></g>
<g opacity="0.266" filter="url(#softGlow)"><path d="M 1721.1,945.0 L 1776.4,945.0 L 1776.4,69.1 L 53.7,69.1 L 53.7,879.9 " fill="none" stroke="url(#strokeB)" stroke-width="1.44" stroke-linecap="round" stroke-linejoin="round"/><circle cx="53.7" cy="879.9" r="2.3" fill="#22D3EE" opacity="0.45"/><circle cx="1776.4" cy="69.1" r="3.9" fill="#22D3EE" opacity="0.45"/><circle cx="1776.4" cy="945.0" r="2.3" fill="#22D3EE" opacity="0.45"/></g>
<g opacity="0.266" filter="url(#softGlow)"><path d="M 213.0,15.2 L 20.6,15.2 L 20.6,560.8 L 205.7,560.8 L 205.7,1071.3 " fill="none" stroke="url(#strokeB)" stroke-width="1.43" stroke-linecap="round" stroke-linejoin="round"/><circle cx="20.6" cy="15.2" r="3.2" fill="#22D3EE" opacity="0.45"/><circle cx="213.0" cy="15.2" r="3.8" fill="#22D3EE" opacity="0.45"/><circle cx="20.6" cy="560.8" r="4.1" fill="#22D3EE" opacity="0.45"/></g>
<g opacity="0.266" filter="url(#softGlow)"><path d="M 128.3,1045.7 L 149.7,1045.7 L 149.7,846.1 L 1897.3,846.1 L 1897.3,179.4 " fill="none" stroke="url(#strokeB)" stroke-width="2.10" stroke-linecap="round" stroke-linejoin="round"/><circle cx="128.3" cy="1045.7" r="3.9" fill="#22D3EE" opacity="0.45"/><circle cx="149.7" cy="1045.7" r="3.5" fill="#22D3EE" opacity="0.45"/><circle cx="1897.3" cy="846.1" r="2.3" fill="#22D3EE" opacity="0.45"/></g>
<g opacity="0.266" filter="url(#softGlow)"><path d="M 63.5,958.5 L 201.6,958.5 L 201.6,483.6 L 35.2,483.6 L 35.2,674.0 " fill="none" stroke="url(#strokeB)" stroke-width="2.03" stroke-linecap="round" stroke-linejoin="round"/><circle cx="35.2" cy="483.6" r="3.3" fill="#22D3EE" opacity="0.45"/><circle cx="35.2" cy="674.0" r="3.9" fill="#22D3EE" opacity="0.45"/><circle cx="201.6" cy="483.6" r="3.1" fill="#22D3EE" opacity="0.45"/></g>
<g opacity="0.266" filter="url(#softGlow)"><path d="M 1704.4,30.4 L 77.7,30.4 L 77.7,1013.4 L 204.3,1013.4 L 204.3,195.3 " fill="none" stroke="url(#strokeB)" stroke-width="2.07" stroke-linecap="round" stroke-linejoin="round"/><circle cx="204.3" cy="195.3" r="2.7" fill="#22D3EE" opacity="0.45"/><circle cx="1704.4" cy="30.4" r="2.1" fill="#22D3EE" opacity="0.45"/><circle cx="77.7" cy="30.4" r="2.3" fill="#22D3EE" opacity="0.45"/></g>
<g opacity="0.266" filter="url(#softGlow)"><path d="M 1760.2,661.9 L 1757.3,661.9 L 1757.3,21.5 L 154.8,21.5 L 154.8,183.9 " fill="none" stroke="url(#strokeB)" stroke-width="1.94" stroke-linecap="round" stroke-linejoin="round"/><circle cx="154.8" cy="21.5" r="3.3" fill="#22D3EE" opacity="0.45"/><circle cx="154.8" cy="183.9" r="3.1" fill="#22D3EE" opacity="0.45"/><circle cx="1757.3" cy="661.9" r="2.2" fill="#22D3EE" opacity="0.45"/></g>
<g opacity="0.266" filter="url(#softGlow)"><path d="M 121.9,216.9 L 140.0,216.9 L 140.0,1064.3 L 113.6,1064.3 L 113.6,36.2 " fill="none" stroke="url(#strokeB)" stroke-width="1.22" stroke-linecap="round" stroke-linejoin="round"/><circle cx="140.0" cy="216.9" r="3.6" fill="#22D3EE" opacity="0.45"/><circle cx="113.6" cy="1064.3" r="3.6" fill="#22D3EE" opacity="0.45"/><circle cx="121.9" cy="216.9" r="2.1" fill="#22D3EE" opacity="0.45"/></g>
<g opacity="0.266" filter="url(#softGlow)"><path d="M 78.7,223.5 L 1674.0,223.5 L 1674.0,74.8 L 212.7,74.8 L 212.7,49.9 " fill="none" stroke="url(#strokeB)" stroke-width="1.76" stroke-linecap="round" stroke-linejoin="round"/><circle cx="212.7" cy="74.8" r="2.5" fill="#22D3EE" opacity="0.45"/><circle cx="212.7" cy="49.9" r="2.3" fill="#22D3EE" opacity="0.45"/><circle cx="78.7" cy="223.5" r="3.5" fill="#22D3EE" opacity="0.45"/></g>

<g opacity="0.687" filter="url(#hardGlow)">
  <circle cx="1871.6" cy="136.0" r="46.4" fill="#0A1224" opacity="0.65"/>
  <circle cx="1871.6" cy="136.0" r="46.4" fill="none" stroke="url(#strokeA)" stroke-width="3.7" opacity="0.85"/>
  <circle cx="1871.6" cy="136.0" r="39.9" fill="none" stroke="#A855F7" stroke-width="1.5" opacity="0.35"/>
  <polygon points="1838.8,142.0 1850.0,110.5 1882.9,104.5 1904.5,130.0 1893.3,161.4 1860.4,167.4" fill="none" stroke="url(#strokeB)" stroke-width="1.2" opacity="0.65"/>
  <polygon points="1860.1,134.0 1879.1,127.0 1875.7,146.9" fill="#A855F7" opacity="0.22" filter="url(#softGlow)"/>
</g>


<g opacity="0.613" filter="url(#hardGlow)">
  <circle cx="1831.5" cy="89.5" r="19.1" fill="#0A1224" opacity="0.65"/>
  <circle cx="1831.5" cy="89.5" r="19.1" fill="none" stroke="url(#strokeA)" stroke-width="2.0" opacity="0.85"/>
  <circle cx="1831.5" cy="89.5" r="16.4" fill="none" stroke="#22D3EE" stroke-width="1.5" opacity="0.35"/>
  <polygon points="1833.5,103.1 1820.7,98.0 1818.7,84.4 1829.5,75.8 1842.3,80.9 1844.3,94.5" fill="none" stroke="url(#strokeB)" stroke-width="1.2" opacity="0.65"/>
  
</g>


<g opacity="0.675" filter="url(#hardGlow)">
  <circle cx="147.1" cy="146.9" r="49.1" fill="#0A1224" opacity="0.65"/>
  <circle cx="147.1" cy="146.9" r="49.1" fill="none" stroke="url(#strokeA)" stroke-width="3.9" opacity="0.85"/>
  <circle cx="147.1" cy="146.9" r="42.2" fill="none" stroke="#A855F7" stroke-width="1.5" opacity="0.35"/>
  <polygon points="134.3,114.0 169.3,119.4 182.1,152.3 159.9,179.9 125.0,174.5 112.2,141.5" fill="none" stroke="url(#strokeB)" stroke-width="1.2" opacity="0.65"/>
  <polygon points="146.9,134.6 158.0,152.9 136.6,153.3" fill="#A855F7" opacity="0.22" filter="url(#softGlow)"/>
</g>


<g opacity="0.589" filter="url(#hardGlow)">
  <circle cx="89.2" cy="102.9" r="22.5" fill="#0A1224" opacity="0.65"/>
  <circle cx="89.2" cy="102.9" r="22.5" fill="none" stroke="url(#strokeA)" stroke-width="2.0" opacity="0.85"/>
  <circle cx="89.2" cy="102.9" r="19.4" fill="none" stroke="#22D3EE" stroke-width="1.5" opacity="0.35"/>
  <polygon points="73.5,98.9 84.8,87.3 100.6,91.3 104.9,107.0 93.6,118.6 77.9,114.5" fill="none" stroke="url(#strokeB)" stroke-width="1.2" opacity="0.65"/>
  
</g>


<g opacity="0.418" filter="url(#hardGlow)">
  <circle cx="198.8" cy="118.5" r="18.7" fill="#0A1224" opacity="0.65"/>
  <circle cx="198.8" cy="118.5" r="18.7" fill="none" stroke="url(#strokeA)" stroke-width="2.0" opacity="0.85"/>
  <circle cx="198.8" cy="118.5" r="16.1" fill="none" stroke="#22D3EE" stroke-width="1.5" opacity="0.35"/>
  <polygon points="208.9,127.3 196.2,131.7 186.1,122.8 188.7,109.6 201.4,105.3 211.6,114.1" fill="none" stroke="url(#strokeB)" stroke-width="1.2" opacity="0.65"/>
  
</g>


<g opacity="0.601" filter="url(#hardGlow)">
  <circle cx="218.9" cy="128.9" r="22.9" fill="#0A1224" opacity="0.65"/>
  <circle cx="218.9" cy="128.9" r="22.9" fill="none" stroke="url(#strokeA)" stroke-width="2.0" opacity="0.85"/>
  <circle cx="218.9" cy="128.9" r="19.7" fill="none" stroke="#22D3EE" stroke-width="1.5" opacity="0.35"/>
  <polygon points="203.0,124.5 214.8,112.9 230.7,117.3 234.9,133.3 223.1,144.9 207.2,140.5" fill="none" stroke="url(#strokeB)" stroke-width="1.2" opacity="0.65"/>
  <polygon points="214.2,125.6 224.2,126.5 218.4,134.7" fill="#22D3EE" opacity="0.22" filter="url(#softGlow)"/>
</g>


<g opacity="0.793" filter="url(#hardGlow)">
  <circle cx="650.5" cy="118.3" r="44.1" fill="#0A1224" opacity="0.65"/>
  <circle cx="650.5" cy="118.3" r="44.1" fill="none" stroke="url(#strokeA)" stroke-width="3.5" opacity="0.85"/>
  <circle cx="650.5" cy="118.3" r="38.0" fill="none" stroke="#A855F7" stroke-width="1.5" opacity="0.35"/>
  <polygon points="640.1,88.4 671.3,94.3 681.8,124.3 661.0,148.3 629.8,142.4 619.3,112.4" fill="none" stroke="url(#strokeB)" stroke-width="1.2" opacity="0.65"/>
  <polygon points="650.7,107.2 660.1,124.0 640.8,123.8" fill="#A855F7" opacity="0.22" filter="url(#softGlow)"/>
</g>


<g opacity="0.524" filter="url(#hardGlow)">
  <circle cx="656.3" cy="75.6" r="21.5" fill="#0A1224" opacity="0.65"/>
  <circle cx="656.3" cy="75.6" r="21.5" fill="none" stroke="url(#strokeA)" stroke-width="2.0" opacity="0.85"/>
  <circle cx="656.3" cy="75.6" r="18.5" fill="none" stroke="#22D3EE" stroke-width="1.5" opacity="0.35"/>
  <polygon points="661.1,60.8 671.4,72.3 666.7,87.0 651.5,90.3 641.2,78.8 645.9,64.1" fill="none" stroke="url(#strokeB)" stroke-width="1.2" opacity="0.65"/>
  
</g>


<g opacity="0.681" filter="url(#hardGlow)">
  <circle cx="1257.8" cy="1021.7" r="69.0" fill="#0A1224" opacity="0.65"/>
  <circle cx="1257.8" cy="1021.7" r="69.0" fill="none" stroke="url(#strokeA)" stroke-width="5.5" opacity="0.85"/>
  <circle cx="1257.8" cy="1021.7" r="59.3" fill="none" stroke="#A855F7" stroke-width="2.1" opacity="0.35"/>
  <polygon points="1291.5,985.2 1306.2,1032.7 1272.5,1069.2 1224.1,1058.2 1209.3,1010.8 1243.0,974.3" fill="none" stroke="url(#strokeB)" stroke-width="1.7" opacity="0.65"/>
  <polygon points="1273.2,1013.8 1257.0,1039.1 1243.2,1012.3" fill="#A855F7" opacity="0.22" filter="url(#softGlow)"/>
</g>


<g opacity="0.465" filter="url(#hardGlow)">
  <circle cx="1285.7" cy="1035.5" r="27.5" fill="#0A1224" opacity="0.65"/>
  <circle cx="1285.7" cy="1035.5" r="27.5" fill="none" stroke="url(#strokeA)" stroke-width="2.2" opacity="0.85"/>
  <circle cx="1285.7" cy="1035.5" r="23.6" fill="none" stroke="#22D3EE" stroke-width="1.5" opacity="0.35"/>
  <polygon points="1298.3,1050.7 1278.8,1054.0 1266.3,1038.8 1273.2,1020.2 1292.6,1016.9 1305.2,1032.2" fill="none" stroke="url(#strokeB)" stroke-width="1.2" opacity="0.65"/>
  
</g>


<g opacity="0.591" filter="url(#hardGlow)">
  <circle cx="1358.1" cy="1022.1" r="27.3" fill="#0A1224" opacity="0.65"/>
  <circle cx="1358.1" cy="1022.1" r="27.3" fill="none" stroke="url(#strokeA)" stroke-width="2.2" opacity="0.85"/>
  <circle cx="1358.1" cy="1022.1" r="23.5" fill="none" stroke="#22D3EE" stroke-width="1.5" opacity="0.35"/>
  <polygon points="1377.7,1020.7 1369.1,1038.4 1349.4,1039.8 1338.5,1023.4 1347.1,1005.8 1366.7,1004.4" fill="none" stroke="url(#strokeB)" stroke-width="1.2" opacity="0.65"/>
  
</g>


<g opacity="0.590" filter="url(#hardGlow)">
  <circle cx="1243.6" cy="1100.2" r="34.1" fill="#0A1224" opacity="0.65"/>
  <circle cx="1243.6" cy="1100.2" r="34.1" fill="none" stroke="url(#strokeA)" stroke-width="2.7" opacity="0.85"/>
  <circle cx="1243.6" cy="1100.2" r="29.3" fill="none" stroke="#22D3EE" stroke-width="1.5" opacity="0.35"/>
  <polygon points="1220.3,1092.3 1238.7,1076.1 1262.0,1083.9 1266.8,1108.0 1248.4,1124.3 1225.1,1116.4" fill="none" stroke="url(#strokeB)" stroke-width="1.2" opacity="0.65"/>
  <polygon points="1236.8,1094.8 1251.6,1097.0 1242.3,1108.7" fill="#22D3EE" opacity="0.22" filter="url(#softGlow)"/>
</g>


<g opacity="0.751" filter="url(#hardGlow)">
  <circle cx="1772.9" cy="590.2" r="59.1" fill="#0A1224" opacity="0.65"/>
  <circle cx="1772.9" cy="590.2" r="59.1" fill="none" stroke="url(#strokeA)" stroke-width="4.7" opacity="0.85"/>
  <circle cx="1772.9" cy="590.2" r="50.9" fill="none" stroke="#A855F7" stroke-width="1.8" opacity="0.35"/>
  <polygon points="1814.9,583.1 1800.0,623.0 1758.1,630.0 1730.9,597.2 1745.8,557.3 1787.8,550.3" fill="none" stroke="url(#strokeB)" stroke-width="1.5" opacity="0.65"/>
  <polygon points="1787.6,592.9 1763.3,601.5 1767.9,576.1" fill="#A855F7" opacity="0.22" filter="url(#softGlow)"/>
</g>


<g opacity="0.537" filter="url(#hardGlow)">
  <circle cx="1846.8" cy="580.7" r="30.9" fill="#0A1224" opacity="0.65"/>
  <circle cx="1846.8" cy="580.7" r="30.9" fill="none" stroke="url(#strokeA)" stroke-width="2.5" opacity="0.85"/>
  <circle cx="1846.8" cy="580.7" r="26.6" fill="none" stroke="#22D3EE" stroke-width="1.5" opacity="0.35"/>
  <polygon points="1824.8,584.3 1832.7,563.5 1854.7,559.9 1868.7,577.2 1860.8,598.0 1838.9,601.5" fill="none" stroke="url(#strokeB)" stroke-width="1.2" opacity="0.65"/>
  
</g>


<g opacity="0.353" filter="url(#hardGlow)">
  <circle cx="1861.9" cy="609.6" r="23.0" fill="#0A1224" opacity="0.65"/>
  <circle cx="1861.9" cy="609.6" r="23.0" fill="none" stroke="url(#strokeA)" stroke-width="2.0" opacity="0.85"/>
  <circle cx="1861.9" cy="609.6" r="19.7" fill="none" stroke="#22D3EE" stroke-width="1.5" opacity="0.35"/>
  <polygon points="1846.0,614.2 1850.0,598.1 1865.8,593.5 1877.8,605.0 1873.8,621.0 1858.0,625.6" fill="none" stroke="url(#strokeB)" stroke-width="1.2" opacity="0.65"/>
  
</g>


<g opacity="0.472" filter="url(#hardGlow)">
  <circle cx="1762.3" cy="563.2" r="27.2" fill="#0A1224" opacity="0.65"/>
  <circle cx="1762.3" cy="563.2" r="27.2" fill="none" stroke="url(#strokeA)" stroke-width="2.2" opacity="0.85"/>
  <circle cx="1762.3" cy="563.2" r="23.4" fill="none" stroke="#22D3EE" stroke-width="1.5" opacity="0.35"/>
  <polygon points="1742.9,565.8 1750.3,547.7 1769.7,545.1 1781.7,560.6 1774.2,578.7 1754.8,581.3" fill="none" stroke="url(#strokeB)" stroke-width="1.2" opacity="0.65"/>
  
</g>


<g opacity="0.748" filter="url(#hardGlow)">
  <circle cx="38.8" cy="960.9" r="65.7" fill="#0A1224" opacity="0.65"/>
  <circle cx="38.8" cy="960.9" r="65.7" fill="none" stroke="url(#strokeA)" stroke-width="5.3" opacity="0.85"/>
  <circle cx="38.8" cy="960.9" r="56.5" fill="none" stroke="#A855F7" stroke-width="2.0" opacity="0.35"/>
  <polygon points="43.7,913.8 82.0,941.5 77.1,988.6 33.9,1008.0 -4.4,980.2 0.5,933.1" fill="none" stroke="url(#strokeB)" stroke-width="1.6" opacity="0.65"/>
  <polygon points="46.0,946.0 48.1,974.6 22.3,962.1" fill="#A855F7" opacity="0.22" filter="url(#softGlow)"/>
</g>


<g opacity="0.464" filter="url(#hardGlow)">
  <circle cx="0.5" cy="1033.2" r="23.8" fill="#0A1224" opacity="0.65"/>
  <circle cx="0.5" cy="1033.2" r="23.8" fill="none" stroke="url(#strokeA)" stroke-width="2.0" opacity="0.85"/>
  <circle cx="0.5" cy="1033.2" r="20.4" fill="none" stroke="#22D3EE" stroke-width="1.5" opacity="0.35"/>
  <polygon points="17.5,1032.2 9.9,1047.5 -7.2,1048.6 -16.6,1034.3 -9.0,1019.0 8.1,1017.9" fill="none" stroke="url(#strokeB)" stroke-width="1.2" opacity="0.65"/>
  <polygon points="6.2,1034.9 -3.9,1037.4 -0.9,1027.4" fill="#22D3EE" opacity="0.22" filter="url(#softGlow)"/>
</g>


<g opacity="0.512" filter="url(#hardGlow)">
  <circle cx="70.0" cy="1006.8" r="28.5" fill="#0A1224" opacity="0.65"/>
  <circle cx="70.0" cy="1006.8" r="28.5" fill="none" stroke="url(#strokeA)" stroke-width="2.3" opacity="0.85"/>
  <circle cx="70.0" cy="1006.8" r="24.5" fill="none" stroke="#22D3EE" stroke-width="1.5" opacity="0.35"/>
  <polygon points="50.5,1013.2 54.8,993.1 74.3,986.7 89.6,1000.5 85.3,1020.5 65.8,1026.9" fill="none" stroke="url(#strokeB)" stroke-width="1.2" opacity="0.65"/>
  <polygon points="62.9,1006.6 73.8,1000.7 73.4,1013.2" fill="#22D3EE" opacity="0.22" filter="url(#softGlow)"/>
</g>


<g opacity="0.372" filter="url(#hardGlow)">
  <circle cx="22.8" cy="1007.7" r="35.2" fill="#0A1224" opacity="0.65"/>
  <circle cx="22.8" cy="1007.7" r="35.2" fill="none" stroke="url(#strokeA)" stroke-width="2.8" opacity="0.85"/>
  <circle cx="22.8" cy="1007.7" r="30.2" fill="none" stroke="#22D3EE" stroke-width="1.5" opacity="0.35"/>
  <polygon points="34.5,985.3 48.0,1006.6 36.3,1029.1 11.0,1030.1 -2.5,1008.8 9.2,986.3" fill="none" stroke="url(#strokeB)" stroke-width="1.2" opacity="0.65"/>
  
</g>


<g opacity="0.445" transform="translate(65.0,903.1) rotate(5.6)" filter="url(#softGlow)">
  <rect x="-114.4" y="-89.7" width="228.7" height="179.4" rx="17.9" fill="#050A12" opacity="0.25"/>
  <rect x="-114.4" y="-89.7" width="228.7" height="179.4" rx="17.9" fill="none" stroke="url(#strokeA)" stroke-width="9.0" opacity="0.85"/>
  <rect x="-100.0" y="-75.4" width="200.0" height="150.7" rx="12.6" fill="none" stroke="#A855F7" stroke-width="3.6" opacity="0.35"/>
</g>


<g opacity="0.382" transform="translate(1854.5,992.2) rotate(2.6)" filter="url(#softGlow)">
  <rect x="-86.2" y="-78.8" width="172.4" height="157.6" rx="15.8" fill="#050A12" opacity="0.25"/>
  <rect x="-86.2" y="-78.8" width="172.4" height="157.6" rx="15.8" fill="none" stroke="url(#strokeA)" stroke-width="7.9" opacity="0.85"/>
  <rect x="-73.6" y="-66.2" width="147.1" height="132.4" rx="11.0" fill="none" stroke="#F59E0B" stroke-width="3.2" opacity="0.35"/>
</g>


<g opacity="0.301" transform="translate(185.1,79.1) rotate(-9.7)" filter="url(#softGlow)">
  <rect x="-87.2" y="-73.8" width="174.4" height="147.6" rx="14.8" fill="#050A12" opacity="0.25"/>
  <rect x="-87.2" y="-73.8" width="174.4" height="147.6" rx="14.8" fill="none" stroke="url(#strokeA)" stroke-width="7.4" opacity="0.85"/>
  <rect x="-75.4" y="-62.0" width="150.8" height="124.0" rx="10.3" fill="none" stroke="#22D3EE" stroke-width="3.0" opacity="0.35"/>
</g>


<g opacity="0.314" transform="translate(331.2,127.8) rotate(-2.0)" filter="url(#softGlow)">
  <rect x="-99.4" y="-70.8" width="198.7" height="141.7" rx="14.2" fill="#050A12" opacity="0.25"/>
  <rect x="-99.4" y="-70.8" width="198.7" height="141.7" rx="14.2" fill="none" stroke="url(#strokeA)" stroke-width="7.1" opacity="0.85"/>
  <rect x="-88.0" y="-59.5" width="176.0" height="119.0" rx="9.9" fill="none" stroke="#A855F7" stroke-width="2.8" opacity="0.35"/>
</g>


<g opacity="0.332" transform="translate(62.6,114.6) rotate(-3.9)" filter="url(#softGlow)">
  <rect x="-78.8" y="-69.6" width="157.7" height="139.3" rx="13.9" fill="#050A12" opacity="0.25"/>
  <rect x="-78.8" y="-69.6" width="157.7" height="139.3" rx="13.9" fill="none" stroke="url(#strokeA)" stroke-width="7.0" opacity="0.85"/>
  <rect x="-67.7" y="-58.5" width="135.4" height="117.0" rx="9.7" fill="none" stroke="#A855F7" stroke-width="2.8" opacity="0.35"/>
</g>


<g opacity="0.227" transform="translate(1832.8,182.5) rotate(-10.2)" filter="url(#softGlow)">
  <rect x="-34.1" y="-19.6" width="68.2" height="39.3" rx="12.0" fill="none" stroke="#22D3EE" stroke-width="6.5" opacity="0.55"/>
  <rect x="-15.0" y="-9.8" width="68.2" height="39.3" rx="12.0" fill="none" stroke="url(#strokeA)" stroke-width="5.5" opacity="0.55"/>
</g>


<g opacity="0.265" transform="translate(1454.1,10.7) rotate(2.7)" filter="url(#softGlow)">
  <rect x="-55.1" y="-31.7" width="110.2" height="63.5" rx="19.4" fill="none" stroke="#22D3EE" stroke-width="10.6" opacity="0.55"/>
  <rect x="-24.2" y="-15.9" width="110.2" height="63.5" rx="19.4" fill="none" stroke="url(#strokeA)" stroke-width="8.8" opacity="0.55"/>
</g>


<g opacity="0.339" transform="translate(199.1,923.5) rotate(16.8)" filter="url(#softGlow)">
  <rect x="-40.7" y="-23.4" width="81.4" height="46.9" rx="14.3" fill="none" stroke="#22D3EE" stroke-width="7.8" opacity="0.55"/>
  <rect x="-17.9" y="-11.7" width="81.4" height="46.9" rx="14.3" fill="none" stroke="url(#strokeA)" stroke-width="6.5" opacity="0.55"/>
</g>


<g opacity="0.432" transform="translate(20.5,634.7) rotate(17.9)" filter="url(#softGlow)">
  <rect x="-46.9" y="-27.0" width="93.8" height="54.0" rx="16.5" fill="none" stroke="#A855F7" stroke-width="9.0" opacity="0.55"/>
  <rect x="-20.6" y="-13.5" width="93.8" height="54.0" rx="16.5" fill="none" stroke="url(#strokeA)" stroke-width="7.5" opacity="0.55"/>
</g>


<g opacity="0.328" transform="translate(5.0,30.4) rotate(-18.0)" filter="url(#softGlow)">
  <rect x="-36.7" y="-21.2" width="73.5" height="42.3" rx="12.9" fill="none" stroke="#22D3EE" stroke-width="7.1" opacity="0.55"/>
  <rect x="-16.2" y="-10.6" width="73.5" height="42.3" rx="12.9" fill="none" stroke="url(#strokeA)" stroke-width="5.9" opacity="0.55"/>
</g>


<g opacity="0.236" transform="translate(1800.0,629.9) rotate(8.6)" filter="url(#softGlow)">
  <rect x="-46.9" y="-27.0" width="93.8" height="54.0" rx="16.5" fill="none" stroke="#F59E0B" stroke-width="9.0" opacity="0.55"/>
  <rect x="-20.6" y="-13.5" width="93.8" height="54.0" rx="16.5" fill="none" stroke="url(#strokeA)" stroke-width="7.5" opacity="0.55"/>
</g>


<g opacity="0.323" transform="translate(1769.3,164.0) rotate(4.0)" filter="url(#softGlow)">
  <rect x="-59.1" y="-34.0" width="118.2" height="68.1" rx="20.8" fill="none" stroke="#A855F7" stroke-width="11.3" opacity="0.55"/>
  <rect x="-26.0" y="-17.0" width="118.2" height="68.1" rx="20.8" fill="none" stroke="url(#strokeA)" stroke-width="9.5" opacity="0.55"/>
</g>


<g opacity="0.233">
  <line x1="126.7" y1="894.0" x2="126.7" y2="957.4" stroke="#22D3EE" stroke-width="1.67" opacity="0.45"/>
  <rect x="121.9" y="933.1" width="9.6" height="23.3" rx="3.2" fill="#0B1020" opacity="0.55" stroke="url(#strokeA)" stroke-width="1.2"/>
</g>

<g opacity="0.233">
  <line x1="1627.7" y1="902.0" x2="1627.7" y2="955.4" stroke="#22D3EE" stroke-width="1.70" opacity="0.45"/>
  <rect x="1624.1" y="932.4" width="7.3" height="24.6" rx="2.4" fill="#0B1020" opacity="0.55" stroke="url(#strokeA)" stroke-width="1.2"/>
</g>
<circle cx="55.7" cy="124.1" r="1.8" fill="#A855F7" opacity="0.26" filter="url(#softGlow)"/>
<circle cx="51.1" cy="716.2" r="2.4" fill="#A855F7" opacity="0.14" filter="url(#softGlow)"/>
<circle cx="173.0" cy="85.8" r="2.5" fill="#A855F7" opacity="0.22" filter="url(#softGlow)"/>
<circle cx="29.9" cy="896.8" r="2.4" fill="#A855F7" opacity="0.16" filter="url(#softGlow)"/>
<circle cx="1891.9" cy="1069.7" r="2.9" fill="#A855F7" opacity="0.19" filter="url(#softGlow)"/>
<circle cx="1705.0" cy="990.8" r="1.4" fill="#A855F7" opacity="0.22" filter="url(#softGlow)"/>
<circle cx="1735.6" cy="739.1" r="2.5" fill="#A855F7" opacity="0.21" filter="url(#softGlow)"/>
<circle cx="35.4" cy="938.5" r="1.6" fill="#A855F7" opacity="0.14" filter="url(#softGlow)"/>
<circle cx="111.8" cy="1069.8" r="2.1" fill="#A855F7" opacity="0.28" filter="url(#softGlow)"/>
<circle cx="165.5" cy="163.4" r="2.1" fill="#A855F7" opacity="0.26" filter="url(#softGlow)"/>
<circle cx="1829.7" cy="996.9" r="2.6" fill="#A855F7" opacity="0.17" filter="url(#softGlow)"/>
<circle cx="182.1" cy="1074.9" r="2.7" fill="#A855F7" opacity="0.25" filter="url(#softGlow)"/>
<circle cx="1827.1" cy="186.3" r="1.5" fill="#A855F7" opacity="0.24" filter="url(#softGlow)"/>
<circle cx="8.2" cy="153.2" r="2.6" fill="#A855F7" opacity="0.21" filter="url(#softGlow)"/>
<circle cx="1764.8" cy="25.3" r="2.2" fill="#A855F7" opacity="0.22" filter="url(#softGlow)"/>
<circle cx="62.2" cy="563.4" r="1.4" fill="#A855F7" opacity="0.18" filter="url(#softGlow)"/>
<circle cx="115.9" cy="876.9" r="1.8" fill="#A855F7" opacity="0.24" filter="url(#softGlow)"/>
<circle cx="1714.6" cy="958.3" r="2.2" fill="#A855F7" opacity="0.21" filter="url(#softGlow)"/>
<circle cx="1828.5" cy="12.6" r="1.6" fill="#A855F7" opacity="0.25" filter="url(#softGlow)"/>
<circle cx="31.9" cy="98.3" r="3.0" fill="#A855F7" opacity="0.15" filter="url(#softGlow)"/>
<circle cx="187.5" cy="45.4" r="3.1" fill="#A855F7" opacity="0.27" filter="url(#softGlow)"/>
<circle cx="1875.9" cy="101.9" r="1.6" fill="#A855F7" opacity="0.15" filter="url(#softGlow)"/>
<circle cx="39.2" cy="127.4" r="2.9" fill="#A855F7" opacity="0.17" filter="url(#softGlow)"/>
<circle cx="1724.0" cy="966.2" r="1.4" fill="#A855F7" opacity="0.14" filter="url(#softGlow)"/>
<circle cx="22.1" cy="43.1" r="2.6" fill="#A855F7" opacity="0.11" filter="url(#softGlow)"/>
<circle cx="1739.0" cy="603.0" r="2.0" fill="#A855F7" opacity="0.21" filter="url(#softGlow)"/>
<circle cx="1111.1" cy="55.4" r="3.0" fill="#A855F7" opacity="0.12" filter="url(#softGlow)"/>
<circle cx="57.2" cy="944.8" r="1.3" fill="#A855F7" opacity="0.24" filter="url(#softGlow)"/>
<circle cx="1896.1" cy="407.0" r="1.8" fill="#A855F7" opacity="0.16" filter="url(#softGlow)"/>
</svg>