<svg xmlns="http://www.w3.org/2000/svg" width="1920" height="1080" viewBox="0 0 1920 1080" preserveAspectRatio="xMidYMid slice">
<defs>
  <linearGradient id="g0" x1="0" y1="0" x2="1" y2="1">
    <stop offset="0" stop-color="#0B1020"/>
    <stop offset="0.55" stop-color="#00E5FF" stop-opacity="0.9"/>
    <stop offset="1" stop-color="#051018"/>
  </linearGradient>
  <radialGradient id="g1" cx="20%" cy="15%" r="70%">
    <stop offset="0" stop-color="#7C4DFF" stop-opacity="0.38"/>
    <stop offset="0.6" stop-color="#7C4DFF" stop-opacity="0.08"/>
    <stop offset="1" stop-color="#7C4DFF" stop-opacity="0"/>
  </radialGradient>
  <radialGradient id="g2" cx="85%" cy="80%" r="75%">
    <stop offset="0" stop-color="#7C4DFF" stop-opacity="0.28"/>
    <stop offset="0.65" stop-color="#7C4DFF" stop-opacity="0.06"/>
    <stop offset="1" stop-color="#7C4DFF" stop-opacity="0"/>
  </radialGradient>
  <filter id="softGlow" x="-30%" y="-30%" width="160%" height="160%">
    <feGaussianBlur stdDeviation="12" result="b"/>
    <feMerge>
      <feMergeNode in="b"/>
      <feMergeNode in="SourceGraphic"/>
    </feMerge>
  </filter>
  <filter id="hardGlow" x="-40%" y="-40%" width="180%" height="180%">
    <feGaussianBlur stdDeviation="6" result="b"/>
    <feColorMatrix in="b" type="matrix" values="1 0 0 0 0  0 1 0 0 0  0 0 1 0 0  0 0 0 18 -7" result="c"/>
    <feMerge>
      <feMergeNode in="c"/>
      <feMergeNode in="SourceGraphic"/>
    </feMerge>
  </filter>
  <linearGradient id="strokeA" x1="0" y1="0" x2="1" y2="0">
    <stop offset="0" stop-color="#7C4DFF" stop-opacity="0.9"/>
    <stop offset="0.5" stop-color="#FFFFFF" stop-opacity="0.25"/>
    <stop offset="1" stop-color="#7C4DFF" stop-opacity="0.7"/>
  </linearGradient>
  <linearGradient id="strokeB" x1="0" y1="0" x2="0" y2="1">
    <stop offset="0" stop-color="#FFFFFF" stop-opacity="0.18"/>
    <stop offset="1" stop-color="#7C4DFF" stop-opacity="0.55"/>
  </linearGradient>
</defs>
<rect x="0" y="0" width="1920" height="1080" fill="url(#g0)"/>
<rect x="0" y="0" width="1920" height="1080" fill="url(#g1)"/>
<rect x="0" y="0" width="1920" height="1080" fill="url(#g2)"/>


<defs>
  <radialGradient id="vign" cx="0.5000" cy="0.5093" r="0.85">
    <stop offset="0" stop-color="#000000" stop-opacity="0"/>
    <stop offset="0.55" stop-color="#000000" stop-opacity="0.217"/>
    <stop offset="1" stop-color="#000000" stop-opacity="0.620"/>
  </radialGradient>
</defs>
<rect x="0" y="0" width="1920" height="1080" fill="url(#vign)"/>

<g opacity="0.245" filter="url(#softGlow)"><path d="M 200.6,88.4 L 1908.8,88.4 L 1908.8,99.5 L 933.9,99.5 L 933.9,19.8 " fill="none" stroke="url(#strokeB)" stroke-width="1.56" stroke-linecap="round" stroke-linejoin="round"/><circle cx="1908.8" cy="88.4" r="2.0" fill="#7C4DFF" opacity="0.45"/><circle cx="200.6" cy="88.4" r="3.1" fill="#7C4DFF" opacity="0.45"/><circle cx="933.9" cy="19.8" r="3.1" fill="#7C4DFF" opacity="0.45"/></g>
<g opacity="0.245" filter="url(#softGlow)"><path d="M 213.8,270.2 L 43.3,270.2 L 43.3,622.6 L 1844.5,622.6 L 1844.5,108.7 " fill="none" stroke="url(#strokeB)" stroke-width="1.92" stroke-linecap="round" stroke-linejoin="round"/><circle cx="213.8" cy="270.2" r="3.3" fill="#7C4DFF" opacity="0.45"/><circle cx="1844.5" cy="108.7" r="3.0" fill="#7C4DFF" opacity="0.45"/><circle cx="1844.5" cy="622.6" r="2.1" fill="#7C4DFF" opacity="0.45"/></g>
<g opacity="0.245" filter="url(#softGlow)"><path d="M 1773.1,992.6 L 118.5,992.6 L 118.5,1016.2 L 1852.0,1016.2 L 1852.0,698.5 " fill="none" stroke="url(#strokeB)" stroke-width="1.46" stroke-linecap="round" stroke-linejoin="round"/><circle cx="1773.1" cy="992.6" r="2.7" fill="#7C4DFF" opacity="0.45"/><circle cx="1852.0" cy="1016.2" r="3.4" fill="#7C4DFF" opacity="0.45"/><circle cx="118.5" cy="1016.2" r="3.8" fill="#7C4DFF" opacity="0.45"/></g>
<g opacity="0.245" filter="url(#softGlow)"><path d="M 1774.9,32.9 L 1859.8,32.9 L 1859.8,879.8 L 108.3,879.8 L 108.3,744.4 " fill="none" stroke="url(#strokeB)" stroke-width="1.20" stroke-linecap="round" stroke-linejoin="round"/><circle cx="1859.8" cy="32.9" r="3.9" fill="#7C4DFF" opacity="0.45"/><circle cx="108.3" cy="744.4" r="2.8" fill="#7C4DFF" opacity="0.45"/><circle cx="1859.8" cy="879.8" r="2.5" fill="#7C4DFF" opacity="0.45"/></g>
<g opacity="0.245" filter="url(#softGlow)"><path d="M 133.1,992.1 L 180.9,992.1 L 180.9,572.7 L 145.8,572.7 L 145.8,7.4 " fill="none" stroke="url(#strokeB)" stroke-width="2.14" stroke-linecap="round" stroke-linejoin="round"/><circle cx="180.9" cy="572.7" r="3.1" fill="#7C4DFF" opacity="0.45"/><circle cx="145.8" cy="572.7" r="3.3" fill="#7C4DFF" opacity="0.45"/><circle cx="145.8" cy="7.4" r="3.7" fill="#7C4DFF" opacity="0.45"/></g>
<g opacity="0.245" filter="url(#softGlow)"><path d="M 144.0,887.8 L 122.1,887.8 L 122.1,27.6 L 1768.0,27.6 L 1768.0,607.1 " fill="none" stroke="url(#strokeB)" stroke-width="1.87" stroke-linecap="round" stroke-linejoin="round"/><circle cx="1768.0" cy="607.1" r="3.2" fill="#7C4DFF" opacity="0.45"/><circle cx="1768.0" cy="27.6" r="4.0" fill="#7C4DFF" opacity="0.45"/><circle cx="122.1" cy="27.6" r="2.3" fill="#7C4DFF" opacity="0.45"/></g>
<g opacity="0.245" filter="url(#softGlow)"><path d="M 55.8,878.9 L 1759.2,878.9 L 1759.2,65.2 L 1748.8,65.2 L 1748.8,35.2 " fill="none" stroke="url(#strokeB)" stroke-width="1.77" stroke-linecap="round" stroke-linejoin="round"/><circle cx="1748.8" cy="65.2" r="2.7" fill="#7C4DFF" opacity="0.45"/><circle cx="55.8" cy="878.9" r="3.5" fill="#7C4DFF" opacity="0.45"/><circle cx="1759.2" cy="65.2" r="2.7" fill="#7C4DFF" opacity="0.45"/></g>
<g opacity="0.245" filter="url(#softGlow)"><path d="M 116.5,62.1 L 1735.2,62.1 L 1735.2,114.8 L 60.0,114.8 L 60.0,816.3 " fill="none" stroke="url(#strokeB)" stroke-width="1.88" stroke-linecap="round" stroke-linejoin="round"/><circle cx="60.0" cy="114.8" r="2.3" fill="#7C4DFF" opacity="0.45"/><circle cx="1735.2" cy="114.8" r="3.5" fill="#7C4DFF" opacity="0.45"/><circle cx="1735.2" cy="62.1" r="4.0" fill="#7C4DFF" opacity="0.45"/></g>
<g opacity="0.245" filter="url(#softGlow)"><path d="M 1789.8,127.6 L 143.7,127.6 L 143.7,995.9 L 166.9,995.9 L 166.9,51.6 " fill="none" stroke="url(#strokeB)" stroke-width="2.16" stroke-linecap="round" stroke-linejoin="round"/><circle cx="1789.8" cy="127.6" r="4.1" fill="#7C4DFF" opacity="0.45"/><circle cx="143.7" cy="995.9" r="2.0" fill="#7C4DFF" opacity="0.45"/><circle cx="166.9" cy="995.9" r="3.5" fill="#7C4DFF" opacity="0.45"/></g>
<g opacity="0.245" filter="url(#softGlow)"><path d="M 1849.3,112.0 L 1750.1,112.0 L 1750.1,464.9 L 176.5,464.9 L 176.5,998.4 " fill="none" stroke="url(#strokeB)" stroke-width="1.69" stroke-linecap="round" stroke-linejoin="round"/><circle cx="176.5" cy="464.9" r="3.0" fill="#7C4DFF" opacity="0.45"/><circle cx="1750.1" cy="464.9" r="3.6" fill="#7C4DFF" opacity="0.45"/><circle cx="1849.3" cy="112.0" r="4.2" fill="#7C4DFF" opacity="0.45"/></g>
<g opacity="0.245" filter="url(#softGlow)"><path d="M 72.2,923.4 L 1863.0,923.4 L 1863.0,55.0 L 178.0,55.0 L 178.0,867.2 " fill="none" stroke="url(#strokeB)" stroke-width="1.89" stroke-linecap="round" stroke-linejoin="round"/><circle cx="178.0" cy="867.2" r="2.4" fill="#7C4DFF" opacity="0.45"/><circle cx="1863.0" cy="55.0" r="3.2" fill="#7C4DFF" opacity="0.45"/><circle cx="1863.0" cy="923.4" r="4.1" fill="#7C4DFF" opacity="0.45"/></g>
<g opacity="0.245" filter="url(#softGlow)"><path d="M 1747.5,952.5 L 334.3,952.5 L 334.3,12.8 L 48.2,12.8 L 48.2,17.0 " fill="none" stroke="url(#strokeB)" stroke-width="1.41" stroke-linecap="round" stroke-linejoin="round"/><circle cx="48.2" cy="17.0" r="3.6" fill="#7C4DFF" opacity="0.45"/><circle cx="48.2" cy="12.8" r="3.0" fill="#7C4DFF" opacity="0.45"/><circle cx="334.3" cy="952.5" r="3.4" fill="#7C4DFF" opacity="0.45"/></g>
<g opacity="0.245" filter="url(#softGlow)"><path d="M 1335.8,1043.0 L 1805.4,1043.0 L 1805.4,54.7 L 1916.3,54.7 L 1916.3,62.1 " fill="none" stroke="url(#strokeB)" stroke-width="1.22" stroke-linecap="round" stroke-linejoin="round"/><circle cx="1805.4" cy="1043.0" r="3.1" fill="#7C4DFF" opacity="0.45"/><circle cx="1916.3" cy="62.1" r="3.4" fill="#7C4DFF" opacity="0.45"/><circle cx="1916.3" cy="54.7" r="3.8" fill="#7C4DFF" opacity="0.45"/></g>
<g opacity="0.245" filter="url(#softGlow)"><path d="M 167.4,969.1 L 133.9,969.1 L 133.9,138.3 L 1783.3,138.3 L 1783.3,21.7 " fill="none" stroke="url(#strokeB)" stroke-width="1.93" stroke-linecap="round" stroke-linejoin="round"/><circle cx="167.4" cy="969.1" r="3.7" fill="#7C4DFF" opacity="0.45"/><circle cx="1783.3" cy="21.7" r="3.3" fill="#7C4DFF" opacity="0.45"/><circle cx="133.9" cy="138.3" r="4.1" fill="#7C4DFF" opacity="0.45"/></g>
<g opacity="0.245" filter="url(#softGlow)"><path d="M 1827.8,215.7 L 1797.6,215.7 L 1797.6,771.7 L 1.7,771.7 L 1.7,1018.8 " fill="none" stroke="url(#strokeB)" stroke-width="1.68" stroke-linecap="round" stroke-linejoin="round"/><circle cx="1827.8" cy="215.7" r="3.3" fill="#7C4DFF" opacity="0.45"/><circle cx="1.7" cy="1018.8" r="3.1" fill="#7C4DFF" opacity="0.45"/><circle cx="1.7" cy="771.7" r="2.6" fill="#7C4DFF" opacity="0.45"/></g>
<g opacity="0.245" filter="url(#softGlow)"><path d="M 154.7,896.8 L 1890.4,896.8 L 1890.4,252.0 L 1832.2,252.0 L 1832.2,314.8 " fill="none" stroke="url(#strokeB)" stroke-width="1.34" stroke-linecap="round" stroke-linejoin="round"/><circle cx="1890.4" cy="896.8" r="3.7" fill="#7C4DFF" opacity="0.45"/><circle cx="1832.2" cy="314.8" r="3.0" fill="#7C4DFF" opacity="0.45"/><circle cx="1832.2" cy="252.0" r="2.9" fill="#7C4DFF" opacity="0.45"/></g>
<g opacity="0.245" filter="url(#softGlow)"><path d="M 1756.9,101.0 L 1898.8,101.0 L 1898.8,702.7 L 1842.2,702.7 L 1842.2,216.0 " fill="none" stroke="url(#strokeB)" stroke-width="1.31" stroke-linecap="round" stroke-linejoin="round"/><circle cx="1756.9" cy="101.0" r="3.5" fill="#7C4DFF" opacity="0.45"/><circle cx="1842.2" cy="702.7" r="2.1" fill="#7C4DFF" opacity="0.45"/><circle cx="1898.8" cy="101.0" r="4.0" fill="#7C4DFF" opacity="0.45"/></g>
<g opacity="0.245" filter="url(#softGlow)"><path d="M 1133.5,35.8 L 1868.1,35.8 L 1868.1,100.1 L 1711.1,100.1 L 1711.1,201.8 " fill="none" stroke="url(#strokeB)" stroke-width="1.46" stroke-linecap="round" stroke-linejoin="round"/><circle cx="1711.1" cy="100.1" r="2.6" fill="#7C4DFF" opacity="0.45"/><circle cx="1711.1" cy="201.8" r="3.9" fill="#7C4DFF" opacity="0.45"/><circle cx="1868.1" cy="35.8" r="3.1" fill="#7C4DFF" opacity="0.45"/></g>
<g opacity="0.245" filter="url(#softGlow)"><path d="M 149.5,5.1 L 1729.4,5.1 L 1729.4,560.0 L 1802.1,560.0 L 1802.1,960.6 " fill="none" stroke="url(#strokeB)" stroke-width="2.01" stroke-linecap="round" stroke-linejoin="round"/><circle cx="1802.1" cy="560.0" r="2.6" fill="#7C4DFF" opacity="0.45"/><circle cx="1802.1" cy="960.6" r="3.0" fill="#7C4DFF" opacity="0.45"/><circle cx="149.5" cy="5.1" r="2.8" fill="#7C4DFF" opacity="0.45"/></g>

<g opacity="0.727" filter="url(#hardGlow)">
  <circle cx="1797.2" cy="1075.6" r="45.9" fill="#0A1224" opacity="0.65"/>
  <circle cx="1797.2" cy="1075.6" r="45.9" fill="none" stroke="url(#strokeA)" stroke-width="3.7" opacity="0.85"/>
  <circle cx="1797.2" cy="1075.6" r="39.4" fill="none" stroke="#00E5FF" stroke-width="1.5" opacity="0.35"/>
  <polygon points="1800.0,1108.5 1770.1,1094.5 1767.3,1061.6 1794.5,1042.7 1824.3,1056.8 1827.1,1089.7" fill="none" stroke="url(#strokeB)" stroke-width="1.2" opacity="0.65"/>
  <polygon points="1794.2,1086.8 1789.1,1067.4 1808.4,1072.7" fill="#00E5FF" opacity="0.22" filter="url(#softGlow)"/>
</g>


<g opacity="0.504" filter="url(#hardGlow)">
  <circle cx="1792.2" cy="1127.9" r="20.0" fill="#0A1224" opacity="0.65"/>
  <circle cx="1792.2" cy="1127.9" r="20.0" fill="none" stroke="url(#strokeA)" stroke-width="2.0" opacity="0.85"/>
  <circle cx="1792.2" cy="1127.9" r="17.2" fill="none" stroke="#7C4DFF" stroke-width="1.5" opacity="0.35"/>
  <polygon points="1782.0,1117.7 1795.9,1113.9 1806.1,1124.1 1802.4,1138.1 1788.5,1141.8 1778.2,1131.6" fill="none" stroke="url(#strokeB)" stroke-width="1.2" opacity="0.65"/>
  
</g>


<g opacity="0.890" filter="url(#hardGlow)">
  <circle cx="1786.3" cy="917.0" r="38.9" fill="#0A1224" opacity="0.65"/>
  <circle cx="1786.3" cy="917.0" r="38.9" fill="none" stroke="url(#strokeA)" stroke-width="3.1" opacity="0.85"/>
  <circle cx="1786.3" cy="917.0" r="33.4" fill="none" stroke="#00E5FF" stroke-width="1.5" opacity="0.35"/>
  <polygon points="1814.2,919.7 1797.9,942.4 1770.0,939.7 1758.4,914.3 1774.7,891.5 1802.6,894.2" fill="none" stroke="url(#strokeB)" stroke-width="1.2" opacity="0.65"/>
  <polygon points="1795.1,921.2 1778.2,922.5 1785.5,907.2" fill="#00E5FF" opacity="0.22" filter="url(#softGlow)"/>
</g>


<g opacity="0.534" filter="url(#hardGlow)">
  <circle cx="1842.8" cy="924.2" r="19.8" fill="#0A1224" opacity="0.65"/>
  <circle cx="1842.8" cy="924.2" r="19.8" fill="none" stroke="url(#strokeA)" stroke-width="2.0" opacity="0.85"/>
  <circle cx="1842.8" cy="924.2" r="17.1" fill="none" stroke="#7C4DFF" stroke-width="1.5" opacity="0.35"/>
  <polygon points="1853.8,933.2 1840.5,938.2 1829.4,929.2 1831.8,915.1 1845.2,910.1 1856.2,919.2" fill="none" stroke="url(#strokeB)" stroke-width="1.2" opacity="0.65"/>
  
</g>


<g opacity="0.377" filter="url(#hardGlow)">
  <circle cx="1807.7" cy="947.2" r="21.3" fill="#0A1224" opacity="0.65"/>
  <circle cx="1807.7" cy="947.2" r="21.3" fill="none" stroke="url(#strokeA)" stroke-width="2.0" opacity="0.85"/>
  <circle cx="1807.7" cy="947.2" r="18.3" fill="none" stroke="#7C4DFF" stroke-width="1.5" opacity="0.35"/>
  <polygon points="1792.4,946.3 1800.9,933.5 1816.2,934.4 1823.0,948.2 1814.6,961.0 1799.2,960.0" fill="none" stroke="url(#strokeB)" stroke-width="1.2" opacity="0.65"/>
  
</g>


<g opacity="0.776" filter="url(#hardGlow)">
  <circle cx="43.1" cy="987.4" r="62.4" fill="#0A1224" opacity="0.65"/>
  <circle cx="43.1" cy="987.4" r="62.4" fill="none" stroke="url(#strokeA)" stroke-width="5.0" opacity="0.85"/>
  <circle cx="43.1" cy="987.4" r="53.7" fill="none" stroke="#00E5FF" stroke-width="1.9" opacity="0.35"/>
  <polygon points="50.2,1031.8 8.2,1015.8 1.1,971.4 35.9,943.1 77.9,959.1 85.1,1003.4" fill="none" stroke="url(#strokeB)" stroke-width="1.6" opacity="0.65"/>
  <polygon points="40.1,1002.9 31.2,977.1 57.9,982.3" fill="#00E5FF" opacity="0.22" filter="url(#softGlow)"/>
</g>


<g opacity="0.385" filter="url(#hardGlow)">
  <circle cx="113.3" cy="1003.6" r="32.1" fill="#0A1224" opacity="0.65"/>
  <circle cx="113.3" cy="1003.6" r="32.1" fill="none" stroke="url(#strokeA)" stroke-width="2.6" opacity="0.85"/>
  <circle cx="113.3" cy="1003.6" r="27.6" fill="none" stroke="#7C4DFF" stroke-width="1.5" opacity="0.35"/>
  <polygon points="110.1,980.7 131.5,989.4 134.7,1012.3 116.5,1026.5 95.1,1017.9 91.9,995.0" fill="none" stroke="url(#strokeB)" stroke-width="1.2" opacity="0.65"/>
  
</g>


<g opacity="0.543" filter="url(#hardGlow)">
  <circle cx="48.7" cy="941.3" r="33.2" fill="#0A1224" opacity="0.65"/>
  <circle cx="48.7" cy="941.3" r="33.2" fill="none" stroke="url(#strokeA)" stroke-width="2.7" opacity="0.85"/>
  <circle cx="48.7" cy="941.3" r="28.6" fill="none" stroke="#7C4DFF" stroke-width="1.5" opacity="0.35"/>
  <polygon points="27.4,930.5 47.4,917.4 68.7,928.2 70.1,952.1 50.1,965.2 28.7,954.4" fill="none" stroke="url(#strokeB)" stroke-width="1.2" opacity="0.65"/>
  <polygon points="43.0,935.2 56.9,939.4 46.3,949.3" fill="#7C4DFF" opacity="0.22" filter="url(#softGlow)"/>
</g>


<g opacity="0.807" filter="url(#hardGlow)">
  <circle cx="1789.3" cy="162.6" r="61.8" fill="#0A1224" opacity="0.65"/>
  <circle cx="1789.3" cy="162.6" r="61.8" fill="none" stroke="url(#strokeA)" stroke-width="4.9" opacity="0.85"/>
  <circle cx="1789.3" cy="162.6" r="53.1" fill="none" stroke="#00E5FF" stroke-width="1.9" opacity="0.35"/>
  <polygon points="1826.4,187.2 1786.6,207.0 1749.5,182.5 1752.2,138.1 1792.0,118.3 1829.1,142.8" fill="none" stroke="url(#strokeB)" stroke-width="1.5" opacity="0.65"/>
  <polygon points="1798.6,175.2 1773.9,164.4 1795.5,148.4" fill="#00E5FF" opacity="0.22" filter="url(#softGlow)"/>
</g>


<g opacity="0.610" filter="url(#hardGlow)">
  <circle cx="1733.6" cy="92.0" r="33.7" fill="#0A1224" opacity="0.65"/>
  <circle cx="1733.6" cy="92.0" r="33.7" fill="none" stroke="url(#strokeA)" stroke-width="2.7" opacity="0.85"/>
  <circle cx="1733.6" cy="92.0" r="29.0" fill="none" stroke="#7C4DFF" stroke-width="1.5" opacity="0.35"/>
  <polygon points="1757.8,92.5 1745.3,113.3 1721.0,112.8 1709.3,91.6 1721.8,70.8 1746.1,71.3" fill="none" stroke="url(#strokeB)" stroke-width="1.2" opacity="0.65"/>
  <polygon points="1741.5,95.1 1727.0,97.4 1732.2,83.6" fill="#7C4DFF" opacity="0.22" filter="url(#softGlow)"/>
</g>


<g opacity="0.379" filter="url(#hardGlow)">
  <circle cx="1771.5" cy="151.9" r="22.4" fill="#0A1224" opacity="0.65"/>
  <circle cx="1771.5" cy="151.9" r="22.4" fill="none" stroke="url(#strokeA)" stroke-width="2.0" opacity="0.85"/>
  <circle cx="1771.5" cy="151.9" r="19.2" fill="none" stroke="#7C4DFF" stroke-width="1.5" opacity="0.35"/>
  <polygon points="1759.7,162.8 1756.2,147.1 1768.1,136.2 1783.4,141.0 1786.9,156.8 1775.0,167.6" fill="none" stroke="url(#strokeB)" stroke-width="1.2" opacity="0.65"/>
  <polygon points="1766.3,154.1 1772.3,146.3 1776.0,155.3" fill="#7C4DFF" opacity="0.22" filter="url(#softGlow)"/>
</g>


<g opacity="0.530" filter="url(#hardGlow)">
  <circle cx="1746.0" cy="217.2" r="24.0" fill="#0A1224" opacity="0.65"/>
  <circle cx="1746.0" cy="217.2" r="24.0" fill="none" stroke="url(#strokeA)" stroke-width="2.0" opacity="0.85"/>
  <circle cx="1746.0" cy="217.2" r="20.6" fill="none" stroke="#7C4DFF" stroke-width="1.5" opacity="0.35"/>
  <polygon points="1739.3,201.3 1756.4,203.5 1763.1,219.4 1752.6,233.1 1735.5,230.9 1728.8,215.0" fill="none" stroke="url(#strokeB)" stroke-width="1.2" opacity="0.65"/>
  <polygon points="1745.7,211.2 1751.3,220.0 1740.9,220.5" fill="#7C4DFF" opacity="0.22" filter="url(#softGlow)"/>
</g>


<g opacity="0.408" transform="translate(89.6,156.9) rotate(5.4)" filter="url(#softGlow)">
  <rect x="-82.2" y="-58.6" width="164.4" height="117.1" rx="11.7" fill="#050A12" opacity="0.25"/>
  <rect x="-82.2" y="-58.6" width="164.4" height="117.1" rx="11.7" fill="none" stroke="url(#strokeA)" stroke-width="5.9" opacity="0.85"/>
  <rect x="-72.8" y="-49.2" width="145.7" height="98.4" rx="8.2" fill="none" stroke="#00E5FF" stroke-width="2.3" opacity="0.35"/>
</g>


<g opacity="0.416" transform="translate(1893.6,771.5) rotate(-4.3)" filter="url(#softGlow)">
  <rect x="-112.0" y="-88.7" width="224.1" height="177.4" rx="17.7" fill="#050A12" opacity="0.25"/>
  <rect x="-112.0" y="-88.7" width="224.1" height="177.4" rx="17.7" fill="none" stroke="url(#strokeA)" stroke-width="8.9" opacity="0.85"/>
  <rect x="-97.9" y="-74.5" width="195.7" height="149.0" rx="12.4" fill="none" stroke="#00E5FF" stroke-width="3.5" opacity="0.35"/>
</g>


<g opacity="0.386" transform="translate(134.0,32.5) rotate(-5.4)" filter="url(#softGlow)">
  <rect x="-87.7" y="-77.0" width="175.4" height="154.0" rx="15.4" fill="#050A12" opacity="0.25"/>
  <rect x="-87.7" y="-77.0" width="175.4" height="154.0" rx="15.4" fill="none" stroke="url(#strokeA)" stroke-width="7.7" opacity="0.85"/>
  <rect x="-75.4" y="-64.7" width="150.7" height="129.4" rx="10.8" fill="none" stroke="#00E5FF" stroke-width="3.1" opacity="0.35"/>
</g>


<g opacity="0.441" transform="translate(324.6,1046.0) rotate(7.3)" filter="url(#softGlow)">
  <rect x="-89.6" y="-72.3" width="179.3" height="144.7" rx="14.5" fill="#050A12" opacity="0.25"/>
  <rect x="-89.6" y="-72.3" width="179.3" height="144.7" rx="14.5" fill="none" stroke="url(#strokeA)" stroke-width="7.2" opacity="0.85"/>
  <rect x="-78.1" y="-60.8" width="156.1" height="121.5" rx="10.1" fill="none" stroke="#FFB300" stroke-width="2.9" opacity="0.35"/>
</g>


<g opacity="0.411" transform="translate(1743.2,298.9) rotate(-2.8)" filter="url(#softGlow)">
  <rect x="-92.0" y="-82.9" width="184.0" height="165.8" rx="16.6" fill="#050A12" opacity="0.25"/>
  <rect x="-92.0" y="-82.9" width="184.0" height="165.8" rx="16.6" fill="none" stroke="url(#strokeA)" stroke-width="8.3" opacity="0.85"/>
  <rect x="-78.7" y="-69.6" width="157.5" height="139.2" rx="11.6" fill="none" stroke="#FFB300" stroke-width="3.3" opacity="0.35"/>
</g>


<g opacity="0.457" transform="translate(1750.1,1020.4) rotate(7.3)" filter="url(#softGlow)">
  <rect x="-52.1" y="-30.0" width="104.2" height="60.0" rx="18.3" fill="none" stroke="#00E5FF" stroke-width="10.0" opacity="0.55"/>
  <rect x="-22.9" y="-15.0" width="104.2" height="60.0" rx="18.3" fill="none" stroke="url(#strokeA)" stroke-width="8.3" opacity="0.55"/>
</g>


<g opacity="0.320" transform="translate(41.3,165.2) rotate(12.7)" filter="url(#softGlow)">
  <rect x="-44.5" y="-25.6" width="88.9" height="51.2" rx="15.6" fill="none" stroke="#7C4DFF" stroke-width="8.5" opacity="0.55"/>
  <rect x="-19.6" y="-12.8" width="88.9" height="51.2" rx="15.6" fill="none" stroke="url(#strokeA)" stroke-width="7.1" opacity="0.55"/>
</g>


<g opacity="0.354" transform="translate(340.0,984.2) rotate(-17.3)" filter="url(#softGlow)">
  <rect x="-42.2" y="-24.3" width="84.3" height="48.6" rx="14.8" fill="none" stroke="#FFB300" stroke-width="8.1" opacity="0.55"/>
  <rect x="-18.6" y="-12.1" width="84.3" height="48.6" rx="14.8" fill="none" stroke="url(#strokeA)" stroke-width="6.7" opacity="0.55"/>
</g>


<g opacity="0.263" transform="translate(1845.5,58.4) rotate(8.9)" filter="url(#softGlow)">
  <rect x="-38.4" y="-22.1" width="76.9" height="44.3" rx="13.5" fill="none" stroke="#7C4DFF" stroke-width="7.4" opacity="0.55"/>
  <rect x="-16.9" y="-11.1" width="76.9" height="44.3" rx="13.5" fill="none" stroke="url(#strokeA)" stroke-width="6.1" opacity="0.55"/>
</g>


<g opacity="0.397" transform="translate(1821.6,1044.7) rotate(12.8)" filter="url(#softGlow)">
  <rect x="-41.5" y="-23.9" width="83.0" height="47.8" rx="14.6" fill="none" stroke="#00E5FF" stroke-width="8.0" opacity="0.55"/>
  <rect x="-18.3" y="-12.0" width="83.0" height="47.8" rx="14.6" fill="none" stroke="url(#strokeA)" stroke-width="6.6" opacity="0.55"/>
</g>


<g opacity="0.446" transform="translate(1756.9,1009.3) rotate(7.8)" filter="url(#softGlow)">
  <rect x="-37.3" y="-21.5" width="74.7" height="43.0" rx="13.1" fill="none" stroke="#7C4DFF" stroke-width="7.2" opacity="0.55"/>
  <rect x="-16.4" y="-10.8" width="74.7" height="43.0" rx="13.1" fill="none" stroke="url(#strokeA)" stroke-width="6.0" opacity="0.55"/>
</g>


<g opacity="0.182">
  <line x1="905.5" y1="891.9" x2="905.5" y2="982.3" stroke="#7C4DFF" stroke-width="1.08" opacity="0.45"/>
  <rect x="900.1" y="934.6" width="10.9" height="59.1" rx="3.6" fill="#0B1020" opacity="0.55" stroke="url(#strokeA)" stroke-width="1.2"/>
</g>

<g opacity="0.182">
  <line x1="1015.0" y1="929.0" x2="1015.0" y2="973.0" stroke="#7C4DFF" stroke-width="1.09" opacity="0.45"/>
  <rect x="1011.8" y="954.6" width="6.3" height="19.3" rx="2.1" fill="#0B1020" opacity="0.55" stroke="url(#strokeA)" stroke-width="1.2"/>
</g>

<g opacity="0.182">
  <line x1="532.4" y1="908.8" x2="532.4" y2="978.1" stroke="#7C4DFF" stroke-width="1.81" opacity="0.45"/>
  <rect x="527.7" y="948.4" width="9.5" height="31.7" rx="3.2" fill="#0B1020" opacity="0.55" stroke="url(#strokeA)" stroke-width="1.2"/>
</g>

<g opacity="0.182">
  <line x1="520.1" y1="877.8" x2="520.1" y2="985.8" stroke="#7C4DFF" stroke-width="1.89" opacity="0.45"/>
  <rect x="514.3" y="940.3" width="11.5" height="47.9" rx="3.8" fill="#0B1020" opacity="0.55" stroke="url(#strokeA)" stroke-width="1.2"/>
</g>

<g opacity="0.182">
  <line x1="1591.9" y1="920.5" x2="1591.9" y2="975.1" stroke="#7C4DFF" stroke-width="1.20" opacity="0.45"/>
  <rect x="1588.2" y="952.5" width="7.4" height="23.5" rx="2.5" fill="#0B1020" opacity="0.55" stroke="url(#strokeA)" stroke-width="1.2"/>
</g>

<g opacity="0.182">
  <line x1="1583.3" y1="877.7" x2="1583.3" y2="985.9" stroke="#7C4DFF" stroke-width="1.02" opacity="0.45"/>
  <rect x="1579.4" y="936.0" width="7.8" height="56.4" rx="2.6" fill="#0B1020" opacity="0.55" stroke="url(#strokeA)" stroke-width="1.2"/>
</g>

<g opacity="0.182">
  <line x1="1732.8" y1="905.8" x2="1732.8" y2="978.8" stroke="#7C4DFF" stroke-width="1.02" opacity="0.45"/>
  <rect x="1726.8" y="941.9" width="12.0" height="44.5" rx="4.0" fill="#0B1020" opacity="0.55" stroke="url(#strokeA)" stroke-width="1.2"/>
</g>

<g opacity="0.182">
  <line x1="1452.3" y1="927.3" x2="1452.3" y2="973.4" stroke="#7C4DFF" stroke-width="1.53" opacity="0.45"/>
  <rect x="1448.2" y="953.3" width="8.1" height="21.8" rx="2.7" fill="#0B1020" opacity="0.55" stroke="url(#strokeA)" stroke-width="1.2"/>
</g>

<g opacity="0.182">
  <line x1="293.8" y1="928.5" x2="293.8" y2="973.2" stroke="#7C4DFF" stroke-width="1.86" opacity="0.45"/>
  <rect x="290.8" y="952.5" width="6.2" height="23.3" rx="2.1" fill="#0B1020" opacity="0.55" stroke="url(#strokeA)" stroke-width="1.2"/>
</g>

<g opacity="0.182">
  <line x1="543.8" y1="896.6" x2="543.8" y2="981.1" stroke="#7C4DFF" stroke-width="1.09" opacity="0.45"/>
  <rect x="538.3" y="946.0" width="11.1" height="36.5" rx="3.7" fill="#0B1020" opacity="0.55" stroke="url(#strokeA)" stroke-width="1.2"/>
</g>

<g opacity="0.182">
  <line x1="1740.9" y1="928.4" x2="1740.9" y2="973.2" stroke="#7C4DFF" stroke-width="1.03" opacity="0.45"/>
  <rect x="1735.8" y="953.9" width="10.4" height="20.6" rx="3.5" fill="#0B1020" opacity="0.55" stroke="url(#strokeA)" stroke-width="1.2"/>
</g>

<g opacity="0.182">
  <line x1="1830.0" y1="892.1" x2="1830.0" y2="982.3" stroke="#7C4DFF" stroke-width="1.10" opacity="0.45"/>
  <rect x="1826.9" y="942.9" width="6.3" height="42.6" rx="2.1" fill="#0B1020" opacity="0.55" stroke="url(#strokeA)" stroke-width="1.2"/>
</g>

<g opacity="0.182">
  <line x1="1141.1" y1="886.6" x2="1141.1" y2="983.6" stroke="#7C4DFF" stroke-width="1.79" opacity="0.45"/>
  <rect x="1135.8" y="944.6" width="10.7" height="39.1" rx="3.6" fill="#0B1020" opacity="0.55" stroke="url(#strokeA)" stroke-width="1.2"/>
</g>

<g opacity="0.182">
  <line x1="954.0" y1="894.8" x2="954.0" y2="981.6" stroke="#7C4DFF" stroke-width="1.80" opacity="0.45"/>
  <rect x="948.6" y="941.9" width="10.7" height="44.7" rx="3.6" fill="#0B1020" opacity="0.55" stroke="url(#strokeA)" stroke-width="1.2"/>
</g>

<g opacity="0.182">
  <line x1="1045.2" y1="918.9" x2="1045.2" y2="975.6" stroke="#7C4DFF" stroke-width="1.33" opacity="0.45"/>
  <rect x="1040.0" y="946.8" width="10.4" height="34.7" rx="3.5" fill="#0B1020" opacity="0.55" stroke="url(#strokeA)" stroke-width="1.2"/>
</g>

<g opacity="0.182">
  <line x1="865.6" y1="892.5" x2="865.6" y2="982.2" stroke="#7C4DFF" stroke-width="1.38" opacity="0.45"/>
  <rect x="860.6" y="945.4" width="10.0" height="37.5" rx="3.3" fill="#0B1020" opacity="0.55" stroke="url(#strokeA)" stroke-width="1.2"/>
</g>

<g opacity="0.182">
  <line x1="1047.1" y1="916.6" x2="1047.1" y2="976.1" stroke="#7C4DFF" stroke-width="1.56" opacity="0.45"/>
  <rect x="1041.8" y="953.2" width="10.6" height="22.0" rx="3.5" fill="#0B1020" opacity="0.55" stroke="url(#strokeA)" stroke-width="1.2"/>
</g>
<circle cx="586.3" cy="1077.6" r="2.7" fill="#00E5FF" opacity="0.18" filter="url(#softGlow)"/>
<circle cx="88.4" cy="122.4" r="2.2" fill="#00E5FF" opacity="0.22" filter="url(#softGlow)"/>
<circle cx="1866.3" cy="982.9" r="3.1" fill="#00E5FF" opacity="0.28" filter="url(#softGlow)"/>
<circle cx="1842.7" cy="943.4" r="3.1" fill="#00E5FF" opacity="0.11" filter="url(#softGlow)"/>
<circle cx="1900.7" cy="888.6" r="3.1" fill="#00E5FF" opacity="0.27" filter="url(#softGlow)"/>
<circle cx="109.3" cy="58.6" r="2.4" fill="#00E5FF" opacity="0.11" filter="url(#softGlow)"/>
<circle cx="1857.9" cy="864.0" r="2.5" fill="#00E5FF" opacity="0.18" filter="url(#softGlow)"/>
<circle cx="171.1" cy="198.8" r="2.6" fill="#00E5FF" opacity="0.26" filter="url(#softGlow)"/>
<circle cx="112.2" cy="5.6" r="2.7" fill="#00E5FF" opacity="0.20" filter="url(#softGlow)"/>
<circle cx="1061.8" cy="22.9" r="1.9" fill="#00E5FF" opacity="0.11" filter="url(#softGlow)"/>
<circle cx="1796.6" cy="1041.1" r="3.1" fill="#00E5FF" opacity="0.22" filter="url(#softGlow)"/>
<circle cx="125.5" cy="946.7" r="1.3" fill="#00E5FF" opacity="0.11" filter="url(#softGlow)"/>
<circle cx="45.1" cy="181.7" r="1.9" fill="#00E5FF" opacity="0.17" filter="url(#softGlow)"/>
<circle cx="1875.8" cy="541.3" r="2.3" fill="#00E5FF" opacity="0.18" filter="url(#softGlow)"/>
<circle cx="1871.7" cy="981.5" r="1.9" fill="#00E5FF" opacity="0.14" filter="url(#softGlow)"/>
<circle cx="26.5" cy="485.6" r="3.0" fill="#00E5FF" opacity="0.14" filter="url(#softGlow)"/>
<circle cx="118.6" cy="864.5" r="3.0" fill="#00E5FF" opacity="0.25" filter="url(#softGlow)"/>
<circle cx="1826.7" cy="1039.4" r="3.0" fill="#00E5FF" opacity="0.24" filter="url(#softGlow)"/>
<circle cx="129.0" cy="197.3" r="2.0" fill="#00E5FF" opacity="0.25" filter="url(#softGlow)"/>
<circle cx="1869.0" cy="156.3" r="2.4" fill="#00E5FF" opacity="0.23" filter="url(#softGlow)"/>
<circle cx="1902.2" cy="48.3" r="1.8" fill="#00E5FF" opacity="0.14" filter="url(#softGlow)"/>
<circle cx="147.5" cy="768.4" r="1.3" fill="#00E5FF" opacity="0.10" filter="url(#softGlow)"/>
<circle cx="131.2" cy="898.6" r="2.8" fill="#00E5FF" opacity="0.17" filter="url(#softGlow)"/>
<circle cx="1898.2" cy="813.4" r="1.4" fill="#00E5FF" opacity="0.27" filter="url(#softGlow)"/>
<circle cx="56.8" cy="1076.5" r="1.9" fill="#00E5FF" opacity="0.27" filter="url(#softGlow)"/>
<circle cx="161.6" cy="866.5" r="3.1" fill="#00E5FF" opacity="0.23" filter="url(#softGlow)"/>
<circle cx="19.2" cy="726.6" r="2.6" fill="#00E5FF" opacity="0.13" filter="url(#softGlow)"/>
</svg>