<svg xmlns="http://www.w3.org/2000/svg" width="1920" height="1080" viewBox="0 0 1920 1080" preserveAspectRatio="xMidYMid slice">
<defs>
  <linearGradient id="g0" x1="0" y1="0" x2="1" y2="1">
    <stop offset="0" stop-color="#0B1020"/>
    <stop offset="0.55" stop-color="#F97316" stop-opacity="0.9"/>
    <stop offset="1" stop-color="#020617"/>
  </linearGradient>
  <radialGradient id="g1" cx="20%" cy="15%" r="70%">
    <stop offset="0" stop-color="#06B6D4" stop-opacity="0.38"/>
    <stop offset="0.6" stop-color="#06B6D4" stop-opacity="0.08"/>
    <stop offset="1" stop-color="#06B6D4" stop-opacity="0"/>
  </radialGradient>
  <radialGradient id="g2" cx="85%" cy="80%" r="75%">
    <stop offset="0" stop-color="#06B6D4" stop-opacity="0.28"/>
    <stop offset="0.65" stop-color="#06B6D4" stop-opacity="0.06"/>
    <stop offset="1" stop-color="#06B6D4" stop-opacity="0"/>
  </radialGradient>
  <filter id="softGlow" x="-30%" y="-30%" width="160%" height="160%">
    <feGaussianBlur stdDeviation="12" result="b"/>
    <feMerge>
      <feMergeNode in="b"/>
      <feMergeNode in="SourceGraphic"/>
    </feMerge>
  </filter>
  <filter id="hardGlow" x="-40%" y="-40%" width="180%" height="180%">
    <feGaussianBlur stdDeviation="6" result="b"/>
    <feColorMatrix in="b" type="matrix" values="1 0 0 0 0  0 1 0 0 0  0 0 1 0 0  0 0 0 18 -7" result="c"/>
    <feMerge>
      <feMergeNode in="c"/>
      <feMergeNode in="SourceGraphic"/>
    </feMerge>
  </filter>
  <linearGradient id="strokeA" x1="0" y1="0" x2="1" y2="0">
    <stop offset="0" stop-color="#06B6D4" stop-opacity="0.9"/>
    <stop offset="0.5" stop-color="#FFFFFF" stop-opacity="0.25"/>
    <stop offset="1" stop-color="#06B6D4" stop-opacity="0.7"/>
  </linearGradient>
  <linearGradient id="strokeB" x1="0" y1="0" x2="0" y2="1">
    <stop offset="0" stop-color="#FFFFFF" stop-opacity="0.18"/>
    <stop offset="1" stop-color="#06B6D4" stop-opacity="0.55"/>
  </linearGradient>
</defs>
<rect x="0" y="0" width="1920" height="1080" fill="url(#g0)"/>
<rect x="0" y="0" width="1920" height="1080" fill="url(#g1)"/>
<rect x="0" y="0" width="1920" height="1080" fill="url(#g2)"/>


<defs>
  <radialGradient id="vign" cx="0.5000" cy="0.5093" r="0.85">
    <stop offset="0" stop-color="#000000" stop-opacity="0"/>
    <stop offset="0.55" stop-color="#000000" stop-opacity="0.217"/>
    <stop offset="1" stop-color="#000000" stop-opacity="0.620"/>
  </radialGradient>
</defs>
<rect x="0" y="0" width="1920" height="1080" fill="url(#vign)"/>

<g opacity="0.184" filter="url(#softGlow)"><path d="M 59.4,23.8 L 199.3,23.8 L 199.3,287.3 L 1839.9,287.3 L 1839.9,883.9 " fill="none" stroke="url(#strokeB)" stroke-width="1.83" stroke-linecap="round" stroke-linejoin="round"/><circle cx="1839.9" cy="287.3" r="3.7" fill="#F97316" opacity="0.45"/><circle cx="1839.9" cy="883.9" r="2.3" fill="#F97316" opacity="0.45"/><circle cx="199.3" cy="23.8" r="3.4" fill="#F97316" opacity="0.45"/></g>
<g opacity="0.184" filter="url(#softGlow)"><path d="M 14.2,759.1 L 1496.8,759.1 L 1496.8,50.4 L 143.5,50.4 L 143.5,944.9 " fill="none" stroke="url(#strokeB)" stroke-width="1.77" stroke-linecap="round" stroke-linejoin="round"/><circle cx="1496.8" cy="759.1" r="3.9" fill="#F97316" opacity="0.45"/><circle cx="14.2" cy="759.1" r="3.6" fill="#F97316" opacity="0.45"/><circle cx="143.5" cy="50.4" r="2.4" fill="#F97316" opacity="0.45"/></g>
<g opacity="0.184" filter="url(#softGlow)"><path d="M 109.6,48.6 L 1832.5,48.6 L 1832.5,1041.9 L 121.8,1041.9 L 121.8,174.5 " fill="none" stroke="url(#strokeB)" stroke-width="2.19" stroke-linecap="round" stroke-linejoin="round"/><circle cx="121.8" cy="1041.9" r="3.9" fill="#F97316" opacity="0.45"/><circle cx="1832.5" cy="48.6" r="3.7" fill="#F97316" opacity="0.45"/><circle cx="109.6" cy="48.6" r="4.0" fill="#F97316" opacity="0.45"/></g>
<g opacity="0.184" filter="url(#softGlow)"><path d="M 1898.1,696.1 L 1724.6,696.1 L 1724.6,176.6 L 1801.7,176.6 L 1801.7,1029.4 " fill="none" stroke="url(#strokeB)" stroke-width="1.60" stroke-linecap="round" stroke-linejoin="round"/><circle cx="1801.7" cy="176.6" r="3.6" fill="#F97316" opacity="0.45"/><circle cx="1898.1" cy="696.1" r="2.9" fill="#F97316" opacity="0.45"/><circle cx="1801.7" cy="1029.4" r="3.5" fill="#F97316" opacity="0.45"/></g>
<g opacity="0.184" filter="url(#softGlow)"><path d="M 125.9,503.1 L 1745.5,503.1 L 1745.5,108.4 L 5.5,108.4 L 5.5,996.8 " fill="none" stroke="url(#strokeB)" stroke-width="2.15" stroke-linecap="round" stroke-linejoin="round"/><circle cx="5.5" cy="108.4" r="3.6" fill="#F97316" opacity="0.45"/><circle cx="125.9" cy="503.1" r="2.1" fill="#F97316" opacity="0.45"/><circle cx="1745.5" cy="108.4" r="2.7" fill="#F97316" opacity="0.45"/></g>
<g opacity="0.184" filter="url(#softGlow)"><path d="M 190.2,1051.9 L 795.8,1051.9 L 795.8,1071.2 L 1835.6,1071.2 L 1835.6,803.4 " fill="none" stroke="url(#strokeB)" stroke-width="1.71" stroke-linecap="round" stroke-linejoin="round"/><circle cx="1835.6" cy="1071.2" r="4.2" fill="#F97316" opacity="0.45"/><circle cx="795.8" cy="1051.9" r="2.5" fill="#F97316" opacity="0.45"/><circle cx="190.2" cy="1051.9" r="3.0" fill="#F97316" opacity="0.45"/></g>
<g opacity="0.184" filter="url(#softGlow)"><path d="M 43.8,1017.7 L 733.8,1017.7 L 733.8,22.5 L 1782.3,22.5 L 1782.3,119.4 " fill="none" stroke="url(#strokeB)" stroke-width="2.18" stroke-linecap="round" stroke-linejoin="round"/><circle cx="733.8" cy="1017.7" r="2.4" fill="#F97316" opacity="0.45"/><circle cx="43.8" cy="1017.7" r="3.2" fill="#F97316" opacity="0.45"/><circle cx="1782.3" cy="119.4" r="3.7" fill="#F97316" opacity="0.45"/></g>
<g opacity="0.184" filter="url(#softGlow)"><path d="M 5.5,667.6 L 1899.5,667.6 L 1899.5,943.8 L 77.8,943.8 L 77.8,866.3 " fill="none" stroke="url(#strokeB)" stroke-width="1.92" stroke-linecap="round" stroke-linejoin="round"/><circle cx="5.5" cy="667.6" r="2.6" fill="#F97316" opacity="0.45"/><circle cx="77.8" cy="943.8" r="2.3" fill="#F97316" opacity="0.45"/><circle cx="1899.5" cy="667.6" r="3.6" fill="#F97316" opacity="0.45"/></g>
<g opacity="0.184" filter="url(#softGlow)"><path d="M 1708.4,1008.2 L 1803.6,1008.2 L 1803.6,1.7 L 1850.4,1.7 L 1850.4,102.3 " fill="none" stroke="url(#strokeB)" stroke-width="1.79" stroke-linecap="round" stroke-linejoin="round"/><circle cx="1850.4" cy="102.3" r="2.0" fill="#F97316" opacity="0.45"/><circle cx="1803.6" cy="1.7" r="3.5" fill="#F97316" opacity="0.45"/><circle cx="1850.4" cy="1.7" r="3.6" fill="#F97316" opacity="0.45"/></g>
<g opacity="0.184" filter="url(#softGlow)"><path d="M 1704.1,602.2 L 1912.5,602.2 L 1912.5,42.2 L 1774.1,42.2 L 1774.1,176.0 " fill="none" stroke="url(#strokeB)" stroke-width="1.72" stroke-linecap="round" stroke-linejoin="round"/><circle cx="1912.5" cy="602.2" r="3.9" fill="#F97316" opacity="0.45"/><circle cx="1912.5" cy="42.2" r="3.2" fill="#F97316" opacity="0.45"/><circle cx="1774.1" cy="176.0" r="3.1" fill="#F97316" opacity="0.45"/></g>
<g opacity="0.184" filter="url(#softGlow)"><path d="M 1791.0,6.0 L 1841.7,6.0 L 1841.7,1057.7 L 133.8,1057.7 L 133.8,1008.5 " fill="none" stroke="url(#strokeB)" stroke-width="1.13" stroke-linecap="round" stroke-linejoin="round"/><circle cx="1841.7" cy="1057.7" r="2.9" fill="#F97316" opacity="0.45"/><circle cx="1791.0" cy="6.0" r="2.5" fill="#F97316" opacity="0.45"/><circle cx="133.8" cy="1008.5" r="3.3" fill="#F97316" opacity="0.45"/></g>
<g opacity="0.184" filter="url(#softGlow)"><path d="M 1918.3,879.7 L 1860.2,879.7 L 1860.2,58.5 L 16.2,58.5 L 16.2,996.4 " fill="none" stroke="url(#strokeB)" stroke-width="1.26" stroke-linecap="round" stroke-linejoin="round"/><circle cx="1860.2" cy="879.7" r="4.2" fill="#F97316" opacity="0.45"/><circle cx="16.2" cy="996.4" r="2.6" fill="#F97316" opacity="0.45"/><circle cx="1860.2" cy="58.5" r="3.8" fill="#F97316" opacity="0.45"/></g>
<g opacity="0.184" filter="url(#softGlow)"><path d="M 200.4,899.2 L 34.6,899.2 L 34.6,335.1 L 197.9,335.1 L 197.9,1075.1 " fill="none" stroke="url(#strokeB)" stroke-width="1.50" stroke-linecap="round" stroke-linejoin="round"/><circle cx="197.9" cy="1075.1" r="2.2" fill="#F97316" opacity="0.45"/><circle cx="197.9" cy="335.1" r="2.3" fill="#F97316" opacity="0.45"/><circle cx="34.6" cy="899.2" r="2.6" fill="#F97316" opacity="0.45"/></g>
<g opacity="0.184" filter="url(#softGlow)"><path d="M 1109.6,68.9 L 1706.1,68.9 L 1706.1,168.6 L 968.6,168.6 L 968.6,83.8 " fill="none" stroke="url(#strokeB)" stroke-width="2.19" stroke-linecap="round" stroke-linejoin="round"/><circle cx="1706.1" cy="168.6" r="3.8" fill="#F97316" opacity="0.45"/><circle cx="968.6" cy="83.8" r="3.0" fill="#F97316" opacity="0.45"/><circle cx="1109.6" cy="68.9" r="3.1" fill="#F97316" opacity="0.45"/></g>
<g opacity="0.184" filter="url(#softGlow)"><path d="M 1760.8,949.8 L 1859.8,949.8 L 1859.8,968.8 L 187.6,968.8 L 187.6,61.7 " fill="none" stroke="url(#strokeB)" stroke-width="1.59" stroke-linecap="round" stroke-linejoin="round"/><circle cx="1859.8" cy="949.8" r="4.2" fill="#F97316" opacity="0.45"/><circle cx="187.6" cy="61.7" r="4.1" fill="#F97316" opacity="0.45"/><circle cx="1859.8" cy="968.8" r="4.2" fill="#F97316" opacity="0.45"/></g>
<g opacity="0.184" filter="url(#softGlow)"><path d="M 77.5,169.0 L 1730.0,169.0 L 1730.0,945.3 L 137.7,945.3 L 137.7,118.9 " fill="none" stroke="url(#strokeB)" stroke-width="1.78" stroke-linecap="round" stroke-linejoin="round"/><circle cx="137.7" cy="945.3" r="3.4" fill="#F97316" opacity="0.45"/><circle cx="77.5" cy="169.0" r="2.3" fill="#F97316" opacity="0.45"/><circle cx="137.7" cy="118.9" r="4.0" fill="#F97316" opacity="0.45"/></g>
<g opacity="0.184" filter="url(#softGlow)"><path d="M 188.8,21.9 L 1881.2,21.9 L 1881.2,798.8 L 40.4,798.8 L 40.4,998.0 " fill="none" stroke="url(#strokeB)" stroke-width="1.19" stroke-linecap="round" stroke-linejoin="round"/><circle cx="1881.2" cy="21.9" r="2.1" fill="#F97316" opacity="0.45"/><circle cx="188.8" cy="21.9" r="3.9" fill="#F97316" opacity="0.45"/><circle cx="40.4" cy="998.0" r="3.3" fill="#F97316" opacity="0.45"/></g>
<g opacity="0.184" filter="url(#softGlow)"><path d="M 1743.4,885.4 L 156.0,885.4 L 156.0,1061.7 L 1868.3,1061.7 L 1868.3,918.6 " fill="none" stroke="url(#strokeB)" stroke-width="1.39" stroke-linecap="round" stroke-linejoin="round"/><circle cx="156.0" cy="885.4" r="3.4" fill="#F97316" opacity="0.45"/><circle cx="1743.4" cy="885.4" r="3.4" fill="#F97316" opacity="0.45"/><circle cx="156.0" cy="1061.7" r="4.0" fill="#F97316" opacity="0.45"/></g>
<g opacity="0.184" filter="url(#softGlow)"><path d="M 1855.9,10.4 L 114.5,10.4 L 114.5,255.4 L 1857.3,255.4 L 1857.3,64.6 " fill="none" stroke="url(#strokeB)" stroke-width="2.18" stroke-linecap="round" stroke-linejoin="round"/><circle cx="114.5" cy="255.4" r="3.4" fill="#F97316" opacity="0.45"/><circle cx="1857.3" cy="255.4" r="3.1" fill="#F97316" opacity="0.45"/><circle cx="114.5" cy="10.4" r="2.5" fill="#F97316" opacity="0.45"/></g>
<g opacity="0.184" filter="url(#softGlow)"><path d="M 207.9,1046.1 L 1815.6,1046.1 L 1815.6,995.4 L 66.9,995.4 L 66.9,1040.6 " fill="none" stroke="url(#strokeB)" stroke-width="1.12" stroke-linecap="round" stroke-linejoin="round"/><circle cx="1815.6" cy="1046.1" r="2.1" fill="#F97316" opacity="0.45"/><circle cx="66.9" cy="995.4" r="3.9" fill="#F97316" opacity="0.45"/><circle cx="207.9" cy="1046.1" r="3.8" fill="#F97316" opacity="0.45"/></g>
<g opacity="0.184" filter="url(#softGlow)"><path d="M 485.0,34.9 L 63.4,34.9 L 63.4,1004.7 L 202.3,1004.7 L 202.3,30.7 " fill="none" stroke="url(#strokeB)" stroke-width="1.32" stroke-linecap="round" stroke-linejoin="round"/><circle cx="63.4" cy="34.9" r="3.2" fill="#F97316" opacity="0.45"/><circle cx="202.3" cy="30.7" r="3.2" fill="#F97316" opacity="0.45"/><circle cx="63.4" cy="1004.7" r="4.0" fill="#F97316" opacity="0.45"/></g>
<g opacity="0.184" filter="url(#softGlow)"><path d="M 75.4,899.1 L 1827.4,899.1 L 1827.4,68.8 L 1867.2,68.8 L 1867.2,18.7 " fill="none" stroke="url(#strokeB)" stroke-width="1.60" stroke-linecap="round" stroke-linejoin="round"/><circle cx="75.4" cy="899.1" r="3.4" fill="#F97316" opacity="0.45"/><circle cx="1827.4" cy="899.1" r="2.6" fill="#F97316" opacity="0.45"/><circle cx="1867.2" cy="18.7" r="3.3" fill="#F97316" opacity="0.45"/></g>

<g opacity="0.677" filter="url(#hardGlow)">
  <circle cx="1844.8" cy="144.0" r="52.6" fill="#0A1224" opacity="0.65"/>
  <circle cx="1844.8" cy="144.0" r="52.6" fill="none" stroke="url(#strokeA)" stroke-width="4.2" opacity="0.85"/>
  <circle cx="1844.8" cy="144.0" r="45.3" fill="none" stroke="#A3E635" stroke-width="1.6" opacity="0.35"/>
  <polygon points="1878.4,161.5 1846.5,181.8 1812.8,164.3 1811.2,126.5 1843.2,106.1 1876.8,123.6" fill="none" stroke="url(#strokeB)" stroke-width="1.3" opacity="0.65"/>
  <polygon points="1853.8,153.8 1831.9,146.8 1848.8,131.3" fill="#A3E635" opacity="0.22" filter="url(#softGlow)"/>
</g>


<g opacity="0.444" filter="url(#hardGlow)">
  <circle cx="1811.2" cy="141.5" r="25.6" fill="#0A1224" opacity="0.65"/>
  <circle cx="1811.2" cy="141.5" r="25.6" fill="none" stroke="url(#strokeA)" stroke-width="2.0" opacity="0.85"/>
  <circle cx="1811.2" cy="141.5" r="22.0" fill="none" stroke="#F97316" stroke-width="1.5" opacity="0.35"/>
  <polygon points="1792.8,142.5 1801.1,126.1 1819.5,125.1 1829.6,140.5 1821.2,156.9 1802.8,158.0" fill="none" stroke="url(#strokeB)" stroke-width="1.2" opacity="0.65"/>
  <polygon points="1805.0,139.6 1815.9,137.1 1812.6,147.8" fill="#F97316" opacity="0.22" filter="url(#softGlow)"/>
</g>


<g opacity="0.364" filter="url(#hardGlow)">
  <circle cx="1789.3" cy="117.3" r="22.6" fill="#0A1224" opacity="0.65"/>
  <circle cx="1789.3" cy="117.3" r="22.6" fill="none" stroke="url(#strokeA)" stroke-width="2.0" opacity="0.85"/>
  <circle cx="1789.3" cy="117.3" r="19.5" fill="none" stroke="#F97316" stroke-width="1.5" opacity="0.35"/>
  <polygon points="1782.6,132.2 1773.1,119.0 1779.8,104.1 1796.0,102.4 1805.5,115.6 1798.9,130.5" fill="none" stroke="url(#strokeB)" stroke-width="1.2" opacity="0.65"/>
  
</g>


<g opacity="0.407" filter="url(#hardGlow)">
  <circle cx="1903.7" cy="134.6" r="25.8" fill="#0A1224" opacity="0.65"/>
  <circle cx="1903.7" cy="134.6" r="25.8" fill="none" stroke="url(#strokeA)" stroke-width="2.1" opacity="0.85"/>
  <circle cx="1903.7" cy="134.6" r="22.2" fill="none" stroke="#F97316" stroke-width="1.5" opacity="0.35"/>
  <polygon points="1885.5,131.4 1897.4,117.2 1915.7,120.4 1922.0,137.9 1910.1,152.1 1891.8,148.9" fill="none" stroke="url(#strokeB)" stroke-width="1.2" opacity="0.65"/>
  
</g>


<g opacity="0.843" filter="url(#hardGlow)">
  <circle cx="29.5" cy="8.3" r="44.2" fill="#0A1224" opacity="0.65"/>
  <circle cx="29.5" cy="8.3" r="44.2" fill="none" stroke="url(#strokeA)" stroke-width="3.5" opacity="0.85"/>
  <circle cx="29.5" cy="8.3" r="38.0" fill="none" stroke="#A3E635" stroke-width="1.5" opacity="0.35"/>
  <polygon points="-1.3,0.2 21.2,-22.5 51.9,-14.4 60.3,16.4 37.9,39.0 7.1,30.9" fill="none" stroke="url(#strokeB)" stroke-width="1.2" opacity="0.65"/>
  <polygon points="20.4,1.9 39.6,3.5 28.6,19.4" fill="#A3E635" opacity="0.22" filter="url(#softGlow)"/>
</g>


<g opacity="0.561" filter="url(#hardGlow)">
  <circle cx="-19.6" cy="-32.1" r="20.8" fill="#0A1224" opacity="0.65"/>
  <circle cx="-19.6" cy="-32.1" r="20.8" fill="none" stroke="url(#strokeA)" stroke-width="2.0" opacity="0.85"/>
  <circle cx="-19.6" cy="-32.1" r="17.9" fill="none" stroke="#F97316" stroke-width="1.5" opacity="0.35"/>
  <polygon points="-27.6,-44.8 -12.6,-45.4 -4.6,-32.8 -11.5,-19.5 -26.5,-18.8 -34.6,-31.5" fill="none" stroke="url(#strokeB)" stroke-width="1.2" opacity="0.65"/>
  <polygon points="-20.7,-37.3 -14.5,-30.5 -23.4,-28.6" fill="#F97316" opacity="0.22" filter="url(#softGlow)"/>
</g>


<g opacity="0.421" filter="url(#hardGlow)">
  <circle cx="42.7" cy="15.8" r="19.2" fill="#0A1224" opacity="0.65"/>
  <circle cx="42.7" cy="15.8" r="19.2" fill="none" stroke="url(#strokeA)" stroke-width="2.0" opacity="0.85"/>
  <circle cx="42.7" cy="15.8" r="16.5" fill="none" stroke="#F97316" stroke-width="1.5" opacity="0.35"/>
  <polygon points="31.3,23.6 30.2,9.8 41.6,2.0 54.1,8.0 55.2,21.8 43.8,29.6" fill="none" stroke="url(#strokeB)" stroke-width="1.2" opacity="0.65"/>
  
</g>


<g opacity="0.908" filter="url(#hardGlow)">
  <circle cx="1717.6" cy="88.3" r="45.5" fill="#0A1224" opacity="0.65"/>
  <circle cx="1717.6" cy="88.3" r="45.5" fill="none" stroke="url(#strokeA)" stroke-width="3.6" opacity="0.85"/>
  <circle cx="1717.6" cy="88.3" r="39.1" fill="none" stroke="#A3E635" stroke-width="1.5" opacity="0.35"/>
  <polygon points="1737.3,114.5 1704.8,118.5 1685.1,92.3 1697.9,62.1 1730.4,58.2 1750.1,84.4" fill="none" stroke="url(#strokeB)" stroke-width="1.2" opacity="0.65"/>
  <polygon points="1721.0,99.3 1706.4,85.7 1725.4,79.9" fill="#A3E635" opacity="0.22" filter="url(#softGlow)"/>
</g>


<g opacity="0.649" filter="url(#hardGlow)">
  <circle cx="1736.8" cy="69.0" r="23.8" fill="#0A1224" opacity="0.65"/>
  <circle cx="1736.8" cy="69.0" r="23.8" fill="none" stroke="url(#strokeA)" stroke-width="2.0" opacity="0.85"/>
  <circle cx="1736.8" cy="69.0" r="20.5" fill="none" stroke="#F97316" stroke-width="1.5" opacity="0.35"/>
  <polygon points="1734.6,52.0 1750.5,58.7 1752.6,75.7 1738.9,86.1 1723.1,79.4 1721.0,62.4" fill="none" stroke="url(#strokeB)" stroke-width="1.2" opacity="0.65"/>
  
</g>


<g opacity="0.695" filter="url(#hardGlow)">
  <circle cx="1791.5" cy="157.9" r="57.4" fill="#0A1224" opacity="0.65"/>
  <circle cx="1791.5" cy="157.9" r="57.4" fill="none" stroke="url(#strokeA)" stroke-width="4.6" opacity="0.85"/>
  <circle cx="1791.5" cy="157.9" r="49.4" fill="none" stroke="#A3E635" stroke-width="1.7" opacity="0.35"/>
  <polygon points="1755.0,138.5 1790.1,116.6 1826.6,136.0 1828.0,177.3 1793.0,199.3 1756.4,179.8" fill="none" stroke="url(#strokeB)" stroke-width="1.4" opacity="0.65"/>
  <polygon points="1781.8,147.2 1805.7,154.9 1787.0,171.7" fill="#A3E635" opacity="0.22" filter="url(#softGlow)"/>
</g>


<g opacity="0.380" filter="url(#hardGlow)">
  <circle cx="1872.4" cy="202.8" r="24.0" fill="#0A1224" opacity="0.65"/>
  <circle cx="1872.4" cy="202.8" r="24.0" fill="none" stroke="url(#strokeA)" stroke-width="2.0" opacity="0.85"/>
  <circle cx="1872.4" cy="202.8" r="20.6" fill="none" stroke="#F97316" stroke-width="1.5" opacity="0.35"/>
  <polygon points="1856.1,208.6 1859.3,191.6 1875.5,185.8 1888.6,197.0 1885.5,214.0 1869.3,219.8" fill="none" stroke="url(#strokeB)" stroke-width="1.2" opacity="0.65"/>
  
</g>


<g opacity="0.434" transform="translate(60.7,976.2) rotate(-2.3)" filter="url(#softGlow)">
  <rect x="-87.7" y="-75.1" width="175.5" height="150.1" rx="15.0" fill="#050A12" opacity="0.25"/>
  <rect x="-87.7" y="-75.1" width="175.5" height="150.1" rx="15.0" fill="none" stroke="url(#strokeA)" stroke-width="7.5" opacity="0.85"/>
  <rect x="-75.7" y="-63.0" width="151.5" height="126.1" rx="10.5" fill="none" stroke="#A3E635" stroke-width="3.0" opacity="0.35"/>
</g>


<g opacity="0.362" transform="translate(582.1,1000.4) rotate(3.5)" filter="url(#softGlow)">
  <rect x="-85.5" y="-76.4" width="171.0" height="152.9" rx="15.3" fill="#050A12" opacity="0.25"/>
  <rect x="-85.5" y="-76.4" width="171.0" height="152.9" rx="15.3" fill="none" stroke="url(#strokeA)" stroke-width="7.6" opacity="0.85"/>
  <rect x="-73.3" y="-64.2" width="146.5" height="128.4" rx="10.7" fill="none" stroke="#F97316" stroke-width="3.1" opacity="0.35"/>
</g>


<g opacity="0.408" transform="translate(1813.3,1000.4) rotate(-8.0)" filter="url(#softGlow)">
  <rect x="-118.0" y="-93.0" width="236.0" height="186.0" rx="18.6" fill="#050A12" opacity="0.25"/>
  <rect x="-118.0" y="-93.0" width="236.0" height="186.0" rx="18.6" fill="none" stroke="url(#strokeA)" stroke-width="9.3" opacity="0.85"/>
  <rect x="-103.1" y="-78.1" width="206.2" height="156.2" rx="13.0" fill="none" stroke="#A3E635" stroke-width="3.7" opacity="0.35"/>
</g>


<g opacity="0.371" transform="translate(1756.7,950.1) rotate(-9.8)" filter="url(#softGlow)">
  <rect x="-94.3" y="-65.8" width="188.6" height="131.6" rx="13.2" fill="#050A12" opacity="0.25"/>
  <rect x="-94.3" y="-65.8" width="188.6" height="131.6" rx="13.2" fill="none" stroke="url(#strokeA)" stroke-width="6.6" opacity="0.85"/>
  <rect x="-83.8" y="-55.3" width="167.6" height="110.5" rx="9.2" fill="none" stroke="#F97316" stroke-width="2.6" opacity="0.35"/>
</g>


<g opacity="0.427" transform="translate(1837.3,321.9) rotate(13.0)" filter="url(#softGlow)">
  <rect x="-49.0" y="-28.3" width="98.1" height="56.5" rx="17.3" fill="none" stroke="#A3E635" stroke-width="9.4" opacity="0.55"/>
  <rect x="-21.6" y="-14.1" width="98.1" height="56.5" rx="17.3" fill="none" stroke="url(#strokeA)" stroke-width="7.8" opacity="0.55"/>
</g>


<g opacity="0.223" transform="translate(187.8,993.7) rotate(13.8)" filter="url(#softGlow)">
  <rect x="-34.7" y="-20.0" width="69.3" height="39.9" rx="12.2" fill="none" stroke="#A3E635" stroke-width="6.7" opacity="0.55"/>
  <rect x="-15.3" y="-10.0" width="69.3" height="39.9" rx="12.2" fill="none" stroke="url(#strokeA)" stroke-width="5.5" opacity="0.55"/>
</g>


<g opacity="0.369" transform="translate(22.1,986.5) rotate(-11.7)" filter="url(#softGlow)">
  <rect x="-40.5" y="-23.3" width="81.0" height="46.6" rx="14.2" fill="none" stroke="#A3E635" stroke-width="7.8" opacity="0.55"/>
  <rect x="-17.8" y="-11.7" width="81.0" height="46.6" rx="14.2" fill="none" stroke="url(#strokeA)" stroke-width="6.5" opacity="0.55"/>
</g>


<g opacity="0.460" transform="translate(1902.2,984.9) rotate(-5.6)" filter="url(#softGlow)">
  <rect x="-55.4" y="-31.9" width="110.9" height="63.9" rx="19.5" fill="none" stroke="#A3E635" stroke-width="10.6" opacity="0.55"/>
  <rect x="-24.4" y="-16.0" width="110.9" height="63.9" rx="19.5" fill="none" stroke="url(#strokeA)" stroke-width="8.9" opacity="0.55"/>
</g>


<g opacity="0.470" transform="translate(60.3,52.2) rotate(12.9)" filter="url(#softGlow)">
  <rect x="-60.1" y="-34.6" width="120.1" height="69.2" rx="21.1" fill="none" stroke="#A3E635" stroke-width="11.5" opacity="0.55"/>
  <rect x="-26.4" y="-17.3" width="120.1" height="69.2" rx="21.1" fill="none" stroke="url(#strokeA)" stroke-width="9.6" opacity="0.55"/>
</g>


<g opacity="0.457" transform="translate(44.3,919.6) rotate(-17.7)" filter="url(#softGlow)">
  <rect x="-41.6" y="-23.9" width="83.2" height="47.9" rx="14.6" fill="none" stroke="#A3E635" stroke-width="8.0" opacity="0.55"/>
  <rect x="-18.3" y="-12.0" width="83.2" height="47.9" rx="14.6" fill="none" stroke="url(#strokeA)" stroke-width="6.7" opacity="0.55"/>
</g>


<g opacity="0.340" transform="translate(156.7,178.0) rotate(13.4)" filter="url(#softGlow)">
  <rect x="-52.9" y="-30.4" width="105.7" height="60.9" rx="18.6" fill="none" stroke="#F97316" stroke-width="10.1" opacity="0.55"/>
  <rect x="-23.3" y="-15.2" width="105.7" height="60.9" rx="18.6" fill="none" stroke="url(#strokeA)" stroke-width="8.5" opacity="0.55"/>
</g>


<g opacity="0.232">
  <line x1="1894.8" y1="865.6" x2="1894.8" y2="959.4" stroke="#F97316" stroke-width="1.05" opacity="0.45"/>
  <rect x="1890.6" y="911.0" width="8.4" height="59.2" rx="2.8" fill="#0B1020" opacity="0.55" stroke="url(#strokeA)" stroke-width="1.2"/>
</g>

<g opacity="0.232">
  <line x1="1642.4" y1="867.5" x2="1642.4" y2="958.9" stroke="#F97316" stroke-width="1.40" opacity="0.45"/>
  <rect x="1638.1" y="917.6" width="8.7" height="46.0" rx="2.9" fill="#0B1020" opacity="0.55" stroke="url(#strokeA)" stroke-width="1.2"/>
</g>
<circle cx="1724.7" cy="1017.9" r="2.2" fill="#A3E635" opacity="0.26" filter="url(#softGlow)"/>
<circle cx="125.5" cy="1056.6" r="1.5" fill="#A3E635" opacity="0.12" filter="url(#softGlow)"/>
<circle cx="1778.4" cy="70.2" r="2.3" fill="#A3E635" opacity="0.19" filter="url(#softGlow)"/>
<circle cx="1841.7" cy="1017.7" r="2.5" fill="#A3E635" opacity="0.24" filter="url(#softGlow)"/>
<circle cx="1745.0" cy="4.4" r="2.6" fill="#A3E635" opacity="0.11" filter="url(#softGlow)"/>
<circle cx="146.7" cy="205.2" r="2.3" fill="#A3E635" opacity="0.25" filter="url(#softGlow)"/>
<circle cx="1855.4" cy="1032.6" r="1.4" fill="#A3E635" opacity="0.24" filter="url(#softGlow)"/>
<circle cx="1768.4" cy="1069.5" r="1.4" fill="#A3E635" opacity="0.22" filter="url(#softGlow)"/>
<circle cx="1839.0" cy="35.4" r="2.6" fill="#A3E635" opacity="0.14" filter="url(#softGlow)"/>
<circle cx="1809.9" cy="1038.1" r="1.7" fill="#A3E635" opacity="0.17" filter="url(#softGlow)"/>
<circle cx="1790.9" cy="37.2" r="3.1" fill="#A3E635" opacity="0.28" filter="url(#softGlow)"/>
<circle cx="156.9" cy="10.9" r="2.8" fill="#A3E635" opacity="0.27" filter="url(#softGlow)"/>
<circle cx="1875.9" cy="1005.3" r="2.1" fill="#A3E635" opacity="0.25" filter="url(#softGlow)"/>
<circle cx="1479.5" cy="1030.5" r="2.7" fill="#A3E635" opacity="0.10" filter="url(#softGlow)"/>
<circle cx="29.3" cy="557.7" r="1.6" fill="#A3E635" opacity="0.17" filter="url(#softGlow)"/>
<circle cx="1806.3" cy="50.0" r="2.9" fill="#A3E635" opacity="0.12" filter="url(#softGlow)"/>
<circle cx="1877.0" cy="60.8" r="2.6" fill="#A3E635" opacity="0.23" filter="url(#softGlow)"/>
<circle cx="1704.5" cy="579.2" r="2.6" fill="#A3E635" opacity="0.15" filter="url(#softGlow)"/>
<circle cx="1847.7" cy="465.4" r="2.5" fill="#A3E635" opacity="0.20" filter="url(#softGlow)"/>
<circle cx="1887.6" cy="1043.5" r="2.9" fill="#A3E635" opacity="0.18" filter="url(#softGlow)"/>
<circle cx="1861.7" cy="143.8" r="1.4" fill="#A3E635" opacity="0.17" filter="url(#softGlow)"/>
<circle cx="829.6" cy="1070.5" r="1.9" fill="#A3E635" opacity="0.11" filter="url(#softGlow)"/>
<circle cx="173.1" cy="82.8" r="2.1" fill="#A3E635" opacity="0.16" filter="url(#softGlow)"/>
<circle cx="1127.5" cy="977.6" r="2.6" fill="#A3E635" opacity="0.16" filter="url(#softGlow)"/>
</svg>