<svg xmlns="http://www.w3.org/2000/svg" width="1920" height="1080" viewBox="0 0 1920 1080" preserveAspectRatio="xMidYMid slice">
<defs>
  <linearGradient id="g0" x1="0" y1="0" x2="1" y2="1">
    <stop offset="0" stop-color="#0B0F1A"/>
    <stop offset="0.55" stop-color="#A855F7" stop-opacity="0.9"/>
    <stop offset="1" stop-color="#030712"/>
  </linearGradient>
  <radialGradient id="g1" cx="20%" cy="15%" r="70%">
    <stop offset="0" stop-color="#22D3EE" stop-opacity="0.38"/>
    <stop offset="0.6" stop-color="#22D3EE" stop-opacity="0.08"/>
    <stop offset="1" stop-color="#22D3EE" stop-opacity="0"/>
  </radialGradient>
  <radialGradient id="g2" cx="85%" cy="80%" r="75%">
    <stop offset="0" stop-color="#22D3EE" stop-opacity="0.28"/>
    <stop offset="0.65" stop-color="#22D3EE" stop-opacity="0.06"/>
    <stop offset="1" stop-color="#22D3EE" stop-opacity="0"/>
  </radialGradient>
  <filter id="softGlow" x="-30%" y="-30%" width="160%" height="160%">
    <feGaussianBlur stdDeviation="12" result="b"/>
    <feMerge>
      <feMergeNode in="b"/>
      <feMergeNode in="SourceGraphic"/>
    </feMerge>
  </filter>
  <filter id="hardGlow" x="-40%" y="-40%" width="180%" height="180%">
    <feGaussianBlur stdDeviation="6" result="b"/>
    <feColorMatrix in="b" type="matrix" values="1 0 0 0 0  0 1 0 0 0  0 0 1 0 0  0 0 0 18 -7" result="c"/>
    <feMerge>
      <feMergeNode in="c"/>
      <feMergeNode in="SourceGraphic"/>
    </feMerge>
  </filter>
  <linearGradient id="strokeA" x1="0" y1="0" x2="1" y2="0">
    <stop offset="0" stop-color="#22D3EE" stop-opacity="0.9"/>
    <stop offset="0.5" stop-color="#FFFFFF" stop-opacity="0.25"/>
    <stop offset="1" stop-color="#22D3EE" stop-opacity="0.7"/>
  </linearGradient>
  <linearGradient id="strokeB" x1="0" y1="0" x2="0" y2="1">
    <stop offset="0" stop-color="#FFFFFF" stop-opacity="0.18"/>
    <stop offset="1" stop-color="#22D3EE" stop-opacity="0.55"/>
  </linearGradient>
</defs>
<rect x="0" y="0" width="1920" height="1080" fill="url(#g0)"/>
<rect x="0" y="0" width="1920" height="1080" fill="url(#g1)"/>
<rect x="0" y="0" width="1920" height="1080" fill="url(#g2)"/>


<defs>
  <radialGradient id="vign" cx="0.5000" cy="0.5093" r="0.85">
    <stop offset="0" stop-color="#000000" stop-opacity="0"/>
    <stop offset="0.55" stop-color="#000000" stop-opacity="0.217"/>
    <stop offset="1" stop-color="#000000" stop-opacity="0.620"/>
  </radialGradient>
</defs>
<rect x="0" y="0" width="1920" height="1080" fill="url(#vign)"/>

<g opacity="0.185" filter="url(#softGlow)"><path d="M 109.3,69.9 L 214.6,69.9 L 214.6,1031.2 L 1862.2,1031.2 L 1862.2,987.8 " fill="none" stroke="url(#strokeB)" stroke-width="1.39" stroke-linecap="round" stroke-linejoin="round"/><circle cx="109.3" cy="69.9" r="4.2" fill="#22D3EE" opacity="0.45"/><circle cx="214.6" cy="1031.2" r="2.8" fill="#22D3EE" opacity="0.45"/><circle cx="1862.2" cy="987.8" r="2.7" fill="#22D3EE" opacity="0.45"/></g>
<g opacity="0.185" filter="url(#softGlow)"><path d="M 1778.3,74.4 L 131.5,74.4 L 131.5,1039.0 L 45.7,1039.0 L 45.7,862.2 " fill="none" stroke="url(#strokeB)" stroke-width="1.33" stroke-linecap="round" stroke-linejoin="round"/><circle cx="45.7" cy="1039.0" r="2.0" fill="#22D3EE" opacity="0.45"/><circle cx="131.5" cy="1039.0" r="2.1" fill="#22D3EE" opacity="0.45"/><circle cx="131.5" cy="74.4" r="4.0" fill="#22D3EE" opacity="0.45"/></g>
<g opacity="0.185" filter="url(#softGlow)"><path d="M 62.9,214.8 L 165.2,214.8 L 165.2,83.4 L 124.3,83.4 L 124.3,1027.0 " fill="none" stroke="url(#strokeB)" stroke-width="1.24" stroke-linecap="round" stroke-linejoin="round"/><circle cx="62.9" cy="214.8" r="3.6" fill="#22D3EE" opacity="0.45"/><circle cx="165.2" cy="83.4" r="4.1" fill="#22D3EE" opacity="0.45"/><circle cx="124.3" cy="1027.0" r="3.3" fill="#22D3EE" opacity="0.45"/></g>
<g opacity="0.185" filter="url(#softGlow)"><path d="M 282.5,167.5 L 1857.2,167.5 L 1857.2,151.0 L 388.0,151.0 L 388.0,974.5 " fill="none" stroke="url(#strokeB)" stroke-width="2.03" stroke-linecap="round" stroke-linejoin="round"/><circle cx="388.0" cy="151.0" r="3.9" fill="#22D3EE" opacity="0.45"/><circle cx="1857.2" cy="151.0" r="3.7" fill="#22D3EE" opacity="0.45"/><circle cx="282.5" cy="167.5" r="3.8" fill="#22D3EE" opacity="0.45"/></g>
<g opacity="0.185" filter="url(#softGlow)"><path d="M 1911.8,916.0 L 214.4,916.0 L 214.4,583.4 L 1715.8,583.4 L 1715.8,139.2 " fill="none" stroke="url(#strokeB)" stroke-width="1.49" stroke-linecap="round" stroke-linejoin="round"/><circle cx="1715.8" cy="583.4" r="3.3" fill="#22D3EE" opacity="0.45"/><circle cx="214.4" cy="583.4" r="2.6" fill="#22D3EE" opacity="0.45"/><circle cx="1911.8" cy="916.0" r="3.9" fill="#22D3EE" opacity="0.45"/></g>
<g opacity="0.185" filter="url(#softGlow)"><path d="M 530.7,96.9 L 709.9,96.9 L 709.9,83.2 L 60.0,83.2 L 60.0,126.6 " fill="none" stroke="url(#strokeB)" stroke-width="1.72" stroke-linecap="round" stroke-linejoin="round"/><circle cx="60.0" cy="83.2" r="2.2" fill="#22D3EE" opacity="0.45"/><circle cx="709.9" cy="83.2" r="3.1" fill="#22D3EE" opacity="0.45"/><circle cx="60.0" cy="126.6" r="2.9" fill="#22D3EE" opacity="0.45"/></g>
<g opacity="0.185" filter="url(#softGlow)"><path d="M 58.8,994.1 L 77.5,994.1 L 77.5,38.5 L 1828.7,38.5 L 1828.7,610.8 " fill="none" stroke="url(#strokeB)" stroke-width="1.67" stroke-linecap="round" stroke-linejoin="round"/><circle cx="58.8" cy="994.1" r="3.9" fill="#22D3EE" opacity="0.45"/><circle cx="1828.7" cy="38.5" r="3.0" fill="#22D3EE" opacity="0.45"/><circle cx="77.5" cy="994.1" r="2.8" fill="#22D3EE" opacity="0.45"/></g>
<g opacity="0.185" filter="url(#softGlow)"><path d="M 197.7,556.6 L 1777.4,556.6 L 1777.4,147.4 L 1737.1,147.4 L 1737.1,976.7 " fill="none" stroke="url(#strokeB)" stroke-width="1.97" stroke-linecap="round" stroke-linejoin="round"/><circle cx="1777.4" cy="147.4" r="3.2" fill="#22D3EE" opacity="0.45"/><circle cx="1777.4" cy="556.6" r="3.0" fill="#22D3EE" opacity="0.45"/><circle cx="1737.1" cy="147.4" r="2.9" fill="#22D3EE" opacity="0.45"/></g>
<g opacity="0.185" filter="url(#softGlow)"><path d="M 1831.3,375.7 L 1767.4,375.7 L 1767.4,44.2 L 102.9,44.2 L 102.9,341.7 " fill="none" stroke="url(#strokeB)" stroke-width="1.41" stroke-linecap="round" stroke-linejoin="round"/><circle cx="1767.4" cy="44.2" r="3.9" fill="#22D3EE" opacity="0.45"/><circle cx="102.9" cy="341.7" r="3.7" fill="#22D3EE" opacity="0.45"/><circle cx="1831.3" cy="375.7" r="3.4" fill="#22D3EE" opacity="0.45"/></g>
<g opacity="0.185" filter="url(#softGlow)"><path d="M 179.1,352.3 L 175.4,352.3 L 175.4,976.6 L 1720.0,976.6 L 1720.0,1046.3 " fill="none" stroke="url(#strokeB)" stroke-width="2.05" stroke-linecap="round" stroke-linejoin="round"/><circle cx="1720.0" cy="1046.3" r="2.4" fill="#22D3EE" opacity="0.45"/><circle cx="179.1" cy="352.3" r="2.4" fill="#22D3EE" opacity="0.45"/><circle cx="1720.0" cy="976.6" r="3.8" fill="#22D3EE" opacity="0.45"/></g>
<g opacity="0.185" filter="url(#softGlow)"><path d="M 853.5,1076.1 L 1733.9,1076.1 L 1733.9,904.7 L 113.6,904.7 L 113.6,150.8 " fill="none" stroke="url(#strokeB)" stroke-width="1.25" stroke-linecap="round" stroke-linejoin="round"/><circle cx="1733.9" cy="904.7" r="3.3" fill="#22D3EE" opacity="0.45"/><circle cx="1733.9" cy="1076.1" r="3.4" fill="#22D3EE" opacity="0.45"/><circle cx="113.6" cy="904.7" r="2.9" fill="#22D3EE" opacity="0.45"/></g>
<g opacity="0.185" filter="url(#softGlow)"><path d="M 1761.4,874.0 L 20.1,874.0 L 20.1,893.1 L 1722.0,893.1 L 1722.0,171.2 " fill="none" stroke="url(#strokeB)" stroke-width="1.27" stroke-linecap="round" stroke-linejoin="round"/><circle cx="1722.0" cy="171.2" r="2.5" fill="#22D3EE" opacity="0.45"/><circle cx="1722.0" cy="893.1" r="4.1" fill="#22D3EE" opacity="0.45"/><circle cx="20.1" cy="874.0" r="2.9" fill="#22D3EE" opacity="0.45"/></g>
<g opacity="0.185" filter="url(#softGlow)"><path d="M 68.4,859.8 L 24.5,859.8 L 24.5,15.4 L 1451.6,15.4 L 1451.6,51.7 " fill="none" stroke="url(#strokeB)" stroke-width="1.93" stroke-linecap="round" stroke-linejoin="round"/><circle cx="1451.6" cy="15.4" r="3.3" fill="#22D3EE" opacity="0.45"/><circle cx="68.4" cy="859.8" r="4.1" fill="#22D3EE" opacity="0.45"/><circle cx="24.5" cy="15.4" r="2.1" fill="#22D3EE" opacity="0.45"/></g>
<g opacity="0.185" filter="url(#softGlow)"><path d="M 1755.7,1036.1 L 1903.3,1036.1 L 1903.3,127.8 L 1874.6,127.8 L 1874.6,912.0 " fill="none" stroke="url(#strokeB)" stroke-width="1.65" stroke-linecap="round" stroke-linejoin="round"/><circle cx="1874.6" cy="912.0" r="3.8" fill="#22D3EE" opacity="0.45"/><circle cx="1874.6" cy="127.8" r="3.1" fill="#22D3EE" opacity="0.45"/><circle cx="1903.3" cy="127.8" r="3.2" fill="#22D3EE" opacity="0.45"/></g>
<g opacity="0.185" filter="url(#softGlow)"><path d="M 1900.0,922.8 L 123.7,922.8 L 123.7,617.3 L 1736.9,617.3 L 1736.9,34.0 " fill="none" stroke="url(#strokeB)" stroke-width="1.85" stroke-linecap="round" stroke-linejoin="round"/><circle cx="1736.9" cy="34.0" r="2.5" fill="#22D3EE" opacity="0.45"/><circle cx="1900.0" cy="922.8" r="2.9" fill="#22D3EE" opacity="0.45"/><circle cx="123.7" cy="617.3" r="4.1" fill="#22D3EE" opacity="0.45"/></g>
<g opacity="0.185" filter="url(#softGlow)"><path d="M 1830.2,68.4 L 1304.0,68.4 L 1304.0,1018.6 L 1772.6,1018.6 L 1772.6,925.9 " fill="none" stroke="url(#strokeB)" stroke-width="1.68" stroke-linecap="round" stroke-linejoin="round"/><circle cx="1772.6" cy="925.9" r="3.2" fill="#22D3EE" opacity="0.45"/><circle cx="1304.0" cy="1018.6" r="3.3" fill="#22D3EE" opacity="0.45"/><circle cx="1830.2" cy="68.4" r="2.2" fill="#22D3EE" opacity="0.45"/></g>
<g opacity="0.185" filter="url(#softGlow)"><path d="M 1840.4,926.4 L 1877.5,926.4 L 1877.5,953.3 L 1761.7,953.3 L 1761.7,959.1 " fill="none" stroke="url(#strokeB)" stroke-width="1.86" stroke-linecap="round" stroke-linejoin="round"/><circle cx="1840.4" cy="926.4" r="4.2" fill="#22D3EE" opacity="0.45"/><circle cx="1877.5" cy="953.3" r="2.0" fill="#22D3EE" opacity="0.45"/><circle cx="1877.5" cy="926.4" r="2.7" fill="#22D3EE" opacity="0.45"/></g>
<g opacity="0.185" filter="url(#softGlow)"><path d="M 85.5,13.9 L 1766.1,13.9 L 1766.1,154.4 L 181.6,154.4 L 181.6,3.9 " fill="none" stroke="url(#strokeB)" stroke-width="1.59" stroke-linecap="round" stroke-linejoin="round"/><circle cx="181.6" cy="154.4" r="3.0" fill="#22D3EE" opacity="0.45"/><circle cx="1766.1" cy="13.9" r="2.7" fill="#22D3EE" opacity="0.45"/><circle cx="181.6" cy="3.9" r="3.7" fill="#22D3EE" opacity="0.45"/></g>
<g opacity="0.185" filter="url(#softGlow)"><path d="M 1713.5,968.9 L 1753.7,968.9 L 1753.7,885.0 L 1912.8,885.0 L 1912.8,153.7 " fill="none" stroke="url(#strokeB)" stroke-width="1.47" stroke-linecap="round" stroke-linejoin="round"/><circle cx="1713.5" cy="968.9" r="3.9" fill="#22D3EE" opacity="0.45"/><circle cx="1912.8" cy="153.7" r="3.3" fill="#22D3EE" opacity="0.45"/><circle cx="1753.7" cy="968.9" r="3.1" fill="#22D3EE" opacity="0.45"/></g>
<g opacity="0.185" filter="url(#softGlow)"><path d="M 1726.8,56.8 L 1869.4,56.8 L 1869.4,326.2 L 1914.2,326.2 L 1914.2,131.7 " fill="none" stroke="url(#strokeB)" stroke-width="1.85" stroke-linecap="round" stroke-linejoin="round"/><circle cx="1914.2" cy="131.7" r="2.3" fill="#22D3EE" opacity="0.45"/><circle cx="1914.2" cy="326.2" r="4.1" fill="#22D3EE" opacity="0.45"/><circle cx="1869.4" cy="56.8" r="4.1" fill="#22D3EE" opacity="0.45"/></g>
<g opacity="0.185" filter="url(#softGlow)"><path d="M 1757.0,134.9 L 196.6,134.9 L 196.6,174.5 L 1736.5,174.5 L 1736.5,928.8 " fill="none" stroke="url(#strokeB)" stroke-width="1.83" stroke-linecap="round" stroke-linejoin="round"/><circle cx="1736.5" cy="928.8" r="2.1" fill="#22D3EE" opacity="0.45"/><circle cx="1736.5" cy="174.5" r="2.3" fill="#22D3EE" opacity="0.45"/><circle cx="196.6" cy="174.5" r="2.1" fill="#22D3EE" opacity="0.45"/></g>
<g opacity="0.185" filter="url(#softGlow)"><path d="M 1106.0,987.8 L 1869.0,987.8 L 1869.0,1071.6 L 196.5,1071.6 L 196.5,214.6 " fill="none" stroke="url(#strokeB)" stroke-width="1.62" stroke-linecap="round" stroke-linejoin="round"/><circle cx="196.5" cy="1071.6" r="3.1" fill="#22D3EE" opacity="0.45"/><circle cx="196.5" cy="214.6" r="3.2" fill="#22D3EE" opacity="0.45"/><circle cx="1106.0" cy="987.8" r="4.0" fill="#22D3EE" opacity="0.45"/></g>

<g opacity="0.832" filter="url(#hardGlow)">
  <circle cx="1770.9" cy="140.1" r="53.4" fill="#0A1224" opacity="0.65"/>
  <circle cx="1770.9" cy="140.1" r="53.4" fill="none" stroke="url(#strokeA)" stroke-width="4.3" opacity="0.85"/>
  <circle cx="1770.9" cy="140.1" r="45.9" fill="none" stroke="#F59E0B" stroke-width="1.6" opacity="0.35"/>
  <polygon points="1736.1,156.5 1739.3,118.2 1774.1,101.8 1805.7,123.7 1802.5,162.0 1767.7,178.4" fill="none" stroke="url(#strokeB)" stroke-width="1.3" opacity="0.65"/>
  <polygon points="1757.5,141.3 1776.5,127.9 1778.7,151.1" fill="#F59E0B" opacity="0.22" filter="url(#softGlow)"/>
</g>


<g opacity="0.608" filter="url(#hardGlow)">
  <circle cx="1776.8" cy="112.1" r="27.8" fill="#0A1224" opacity="0.65"/>
  <circle cx="1776.8" cy="112.1" r="27.8" fill="none" stroke="url(#strokeA)" stroke-width="2.2" opacity="0.85"/>
  <circle cx="1776.8" cy="112.1" r="23.9" fill="none" stroke="#22D3EE" stroke-width="1.5" opacity="0.35"/>
  <polygon points="1796.7,113.7 1785.3,130.2 1765.4,128.5 1756.9,110.4 1768.2,94.0 1788.2,95.6" fill="none" stroke="url(#strokeB)" stroke-width="1.2" opacity="0.65"/>
  <polygon points="1783.1,115.0 1771.1,116.1 1776.1,105.1" fill="#22D3EE" opacity="0.22" filter="url(#softGlow)"/>
</g>


<g opacity="0.608" filter="url(#hardGlow)">
  <circle cx="1715.3" cy="193.9" r="25.5" fill="#0A1224" opacity="0.65"/>
  <circle cx="1715.3" cy="193.9" r="25.5" fill="none" stroke="url(#strokeA)" stroke-width="2.0" opacity="0.85"/>
  <circle cx="1715.3" cy="193.9" r="21.9" fill="none" stroke="#22D3EE" stroke-width="1.5" opacity="0.35"/>
  <polygon points="1713.3,175.6 1730.1,183.0 1732.1,201.3 1717.3,212.1 1700.5,204.7 1698.5,186.5" fill="none" stroke="url(#strokeB)" stroke-width="1.2" opacity="0.65"/>
  
</g>


<g opacity="0.435" filter="url(#hardGlow)">
  <circle cx="1785.8" cy="80.0" r="20.4" fill="#0A1224" opacity="0.65"/>
  <circle cx="1785.8" cy="80.0" r="20.4" fill="none" stroke="url(#strokeA)" stroke-width="2.0" opacity="0.85"/>
  <circle cx="1785.8" cy="80.0" r="17.5" fill="none" stroke="#22D3EE" stroke-width="1.5" opacity="0.35"/>
  <polygon points="1800.2,82.7 1790.7,93.8 1776.3,91.2 1771.4,77.4 1780.9,66.2 1795.3,68.8" fill="none" stroke="url(#strokeB)" stroke-width="1.2" opacity="0.65"/>
  
</g>


<g opacity="0.787" filter="url(#hardGlow)">
  <circle cx="1852.9" cy="996.3" r="48.3" fill="#0A1224" opacity="0.65"/>
  <circle cx="1852.9" cy="996.3" r="48.3" fill="none" stroke="url(#strokeA)" stroke-width="3.9" opacity="0.85"/>
  <circle cx="1852.9" cy="996.3" r="41.6" fill="none" stroke="#F59E0B" stroke-width="1.5" opacity="0.35"/>
  <polygon points="1867.5,1027.9 1832.8,1024.7 1818.2,993.1 1838.3,964.7 1873.0,967.9 1887.6,999.5" fill="none" stroke="url(#strokeB)" stroke-width="1.2" opacity="0.65"/>
  <polygon points="1853.9,1008.4 1841.9,991.1 1862.9,989.3" fill="#F59E0B" opacity="0.22" filter="url(#softGlow)"/>
</g>


<g opacity="0.584" filter="url(#hardGlow)">
  <circle cx="1803.5" cy="943.0" r="19.1" fill="#0A1224" opacity="0.65"/>
  <circle cx="1803.5" cy="943.0" r="19.1" fill="none" stroke="url(#strokeA)" stroke-width="2.0" opacity="0.85"/>
  <circle cx="1803.5" cy="943.0" r="16.4" fill="none" stroke="#22D3EE" stroke-width="1.5" opacity="0.35"/>
  <polygon points="1801.5,929.4 1814.3,934.5 1816.3,948.1 1805.5,956.6 1792.7,951.5 1790.7,937.9" fill="none" stroke="url(#strokeB)" stroke-width="1.2" opacity="0.65"/>
  <polygon points="1804.5,938.3 1807.1,946.2 1798.9,944.5" fill="#22D3EE" opacity="0.22" filter="url(#softGlow)"/>
</g>


<g opacity="0.754" filter="url(#hardGlow)">
  <circle cx="13.7" cy="1000.9" r="43.5" fill="#0A1224" opacity="0.65"/>
  <circle cx="13.7" cy="1000.9" r="43.5" fill="none" stroke="url(#strokeA)" stroke-width="3.5" opacity="0.85"/>
  <circle cx="13.7" cy="1000.9" r="37.4" fill="none" stroke="#F59E0B" stroke-width="1.5" opacity="0.35"/>
  <polygon points="15.9,969.7 41.8,987.2 39.7,1018.4 11.5,1032.1 -14.4,1014.7 -12.3,983.4" fill="none" stroke="url(#strokeB)" stroke-width="1.2" opacity="0.65"/>
  <polygon points="18.2,990.9 20.2,1009.8 2.8,1002.1" fill="#F59E0B" opacity="0.22" filter="url(#softGlow)"/>
</g>


<g opacity="0.565" filter="url(#hardGlow)">
  <circle cx="36.1" cy="985.9" r="22.7" fill="#0A1224" opacity="0.65"/>
  <circle cx="36.1" cy="985.9" r="22.7" fill="none" stroke="url(#strokeA)" stroke-width="2.0" opacity="0.85"/>
  <circle cx="36.1" cy="985.9" r="19.5" fill="none" stroke="#22D3EE" stroke-width="1.5" opacity="0.35"/>
  <polygon points="20.5,981.1 32.5,970.0 48.1,974.8 51.7,990.7 39.7,1001.8 24.1,997.0" fill="none" stroke="url(#strokeB)" stroke-width="1.2" opacity="0.65"/>
  <polygon points="31.5,982.4 41.4,983.7 35.4,991.6" fill="#22D3EE" opacity="0.22" filter="url(#softGlow)"/>
</g>


<g opacity="0.802" filter="url(#hardGlow)">
  <circle cx="1271.5" cy="85.5" r="45.5" fill="#0A1224" opacity="0.65"/>
  <circle cx="1271.5" cy="85.5" r="45.5" fill="none" stroke="url(#strokeA)" stroke-width="3.6" opacity="0.85"/>
  <circle cx="1271.5" cy="85.5" r="39.2" fill="none" stroke="#F59E0B" stroke-width="1.5" opacity="0.35"/>
  <polygon points="1254.8,57.3 1287.5,56.9 1304.3,85.1 1288.2,113.7 1255.4,114.1 1238.7,85.9" fill="none" stroke="url(#strokeB)" stroke-width="1.2" opacity="0.65"/>
  <polygon points="1269.4,74.3 1282.3,89.3 1262.8,93.0" fill="#F59E0B" opacity="0.22" filter="url(#softGlow)"/>
</g>


<g opacity="0.590" filter="url(#hardGlow)">
  <circle cx="1219.2" cy="99.2" r="23.9" fill="#0A1224" opacity="0.65"/>
  <circle cx="1219.2" cy="99.2" r="23.9" fill="none" stroke="url(#strokeA)" stroke-width="2.0" opacity="0.85"/>
  <circle cx="1219.2" cy="99.2" r="20.6" fill="none" stroke="#22D3EE" stroke-width="1.5" opacity="0.35"/>
  <polygon points="1228.8,113.5 1211.6,114.7 1202.0,100.4 1209.6,84.9 1226.8,83.8 1236.4,98.1" fill="none" stroke="url(#strokeB)" stroke-width="1.2" opacity="0.65"/>
  <polygon points="1220.6,105.1 1213.4,97.5 1223.5,95.0" fill="#22D3EE" opacity="0.22" filter="url(#softGlow)"/>
</g>


<g opacity="0.377" filter="url(#hardGlow)">
  <circle cx="1333.9" cy="59.9" r="23.7" fill="#0A1224" opacity="0.65"/>
  <circle cx="1333.9" cy="59.9" r="23.7" fill="none" stroke="url(#strokeA)" stroke-width="2.0" opacity="0.85"/>
  <circle cx="1333.9" cy="59.9" r="20.3" fill="none" stroke="#22D3EE" stroke-width="1.5" opacity="0.35"/>
  <polygon points="1317.3,56.0 1328.9,43.6 1345.5,47.4 1350.5,63.7 1338.9,76.2 1322.3,72.3" fill="none" stroke="url(#strokeB)" stroke-width="1.2" opacity="0.65"/>
  
</g>


<g opacity="0.381" filter="url(#hardGlow)">
  <circle cx="1224.9" cy="103.0" r="19.2" fill="#0A1224" opacity="0.65"/>
  <circle cx="1224.9" cy="103.0" r="19.2" fill="none" stroke="url(#strokeA)" stroke-width="2.0" opacity="0.85"/>
  <circle cx="1224.9" cy="103.0" r="16.5" fill="none" stroke="#22D3EE" stroke-width="1.5" opacity="0.35"/>
  <polygon points="1224.6,89.2 1236.7,95.8 1237.0,109.7 1225.2,116.8 1213.1,110.1 1212.8,96.3" fill="none" stroke="url(#strokeB)" stroke-width="1.2" opacity="0.65"/>
  <polygon points="1226.5,98.4 1228.1,106.6 1220.2,103.9" fill="#22D3EE" opacity="0.22" filter="url(#softGlow)"/>
</g>


<g opacity="0.659" filter="url(#hardGlow)">
  <circle cx="101.6" cy="927.4" r="52.6" fill="#0A1224" opacity="0.65"/>
  <circle cx="101.6" cy="927.4" r="52.6" fill="none" stroke="url(#strokeA)" stroke-width="4.2" opacity="0.85"/>
  <circle cx="101.6" cy="927.4" r="45.2" fill="none" stroke="#F59E0B" stroke-width="1.6" opacity="0.35"/>
  <polygon points="76.0,899.4 113.0,891.3 138.6,919.3 127.1,955.4 90.1,963.5 64.6,935.5" fill="none" stroke="url(#strokeB)" stroke-width="1.3" opacity="0.65"/>
  <polygon points="96.5,915.1 114.7,929.2 93.5,937.9" fill="#F59E0B" opacity="0.22" filter="url(#softGlow)"/>
</g>


<g opacity="0.462" filter="url(#hardGlow)">
  <circle cx="21.0" cy="869.3" r="20.5" fill="#0A1224" opacity="0.65"/>
  <circle cx="21.0" cy="869.3" r="20.5" fill="none" stroke="url(#strokeA)" stroke-width="2.0" opacity="0.85"/>
  <circle cx="21.0" cy="869.3" r="17.6" fill="none" stroke="#22D3EE" stroke-width="1.5" opacity="0.35"/>
  <polygon points="28.5,882.0 13.7,882.1 6.2,869.4 13.5,856.5 28.3,856.4 35.8,869.2" fill="none" stroke="url(#strokeB)" stroke-width="1.2" opacity="0.65"/>
  
</g>


<g opacity="0.705" filter="url(#hardGlow)">
  <circle cx="1913.6" cy="18.2" r="43.9" fill="#0A1224" opacity="0.65"/>
  <circle cx="1913.6" cy="18.2" r="43.9" fill="none" stroke="url(#strokeA)" stroke-width="3.5" opacity="0.85"/>
  <circle cx="1913.6" cy="18.2" r="37.8" fill="none" stroke="#F59E0B" stroke-width="1.5" opacity="0.35"/>
  <polygon points="1945.0,22.6 1925.6,47.5 1894.2,43.2 1882.3,13.9 1901.7,-11.0 1933.0,-6.7" fill="none" stroke="url(#strokeB)" stroke-width="1.2" opacity="0.65"/>
  <polygon points="1923.4,23.4 1904.3,24.1 1913.2,7.2" fill="#F59E0B" opacity="0.22" filter="url(#softGlow)"/>
</g>


<g opacity="0.380" filter="url(#hardGlow)">
  <circle cx="1943.8" cy="39.7" r="20.6" fill="#0A1224" opacity="0.65"/>
  <circle cx="1943.8" cy="39.7" r="20.6" fill="none" stroke="url(#strokeA)" stroke-width="2.0" opacity="0.85"/>
  <circle cx="1943.8" cy="39.7" r="17.8" fill="none" stroke="#22D3EE" stroke-width="1.5" opacity="0.35"/>
  <polygon points="1955.8,31.0 1957.3,45.8 1945.3,54.4 1931.7,48.3 1930.2,33.5 1942.3,24.9" fill="none" stroke="url(#strokeB)" stroke-width="1.2" opacity="0.65"/>
  
</g>


<g opacity="0.828" filter="url(#hardGlow)">
  <circle cx="160.7" cy="777.8" r="52.6" fill="#0A1224" opacity="0.65"/>
  <circle cx="160.7" cy="777.8" r="52.6" fill="none" stroke="url(#strokeA)" stroke-width="4.2" opacity="0.85"/>
  <circle cx="160.7" cy="777.8" r="45.3" fill="none" stroke="#F59E0B" stroke-width="1.6" opacity="0.35"/>
  <polygon points="178.0,744.1 198.5,776.0 181.2,809.6 143.3,811.5 122.8,779.6 140.2,745.9" fill="none" stroke="url(#strokeB)" stroke-width="1.3" opacity="0.65"/>
  <polygon points="170.4,768.8 163.6,790.7 148.0,773.8" fill="#F59E0B" opacity="0.22" filter="url(#softGlow)"/>
</g>


<g opacity="0.567" filter="url(#hardGlow)">
  <circle cx="200.5" cy="806.4" r="25.0" fill="#0A1224" opacity="0.65"/>
  <circle cx="200.5" cy="806.4" r="25.0" fill="none" stroke="url(#strokeA)" stroke-width="2.0" opacity="0.85"/>
  <circle cx="200.5" cy="806.4" r="21.5" fill="none" stroke="#22D3EE" stroke-width="1.5" opacity="0.35"/>
  <polygon points="214.4,795.0 217.3,812.8 203.3,824.2 186.5,817.8 183.6,800.0 197.6,788.6" fill="none" stroke="url(#strokeB)" stroke-width="1.2" opacity="0.65"/>
  
</g>


<g opacity="0.407" transform="translate(188.5,1063.4) rotate(-3.4)" filter="url(#softGlow)">
  <rect x="-118.6" y="-110.0" width="237.2" height="220.1" rx="22.0" fill="#050A12" opacity="0.25"/>
  <rect x="-118.6" y="-110.0" width="237.2" height="220.1" rx="22.0" fill="none" stroke="url(#strokeA)" stroke-width="11.0" opacity="0.85"/>
  <rect x="-101.0" y="-92.4" width="201.9" height="184.9" rx="15.4" fill="none" stroke="#F59E0B" stroke-width="4.4" opacity="0.35"/>
</g>


<g opacity="0.410" transform="translate(62.9,626.0) rotate(3.4)" filter="url(#softGlow)">
  <rect x="-117.6" y="-96.1" width="235.3" height="192.2" rx="19.2" fill="#050A12" opacity="0.25"/>
  <rect x="-117.6" y="-96.1" width="235.3" height="192.2" rx="19.2" fill="none" stroke="url(#strokeA)" stroke-width="9.6" opacity="0.85"/>
  <rect x="-102.3" y="-80.7" width="204.5" height="161.5" rx="13.5" fill="none" stroke="#F59E0B" stroke-width="3.8" opacity="0.35"/>
</g>


<g opacity="0.363" transform="translate(597.8,57.6) rotate(-5.8)" filter="url(#softGlow)">
  <rect x="-95.2" y="-71.7" width="190.4" height="143.3" rx="14.3" fill="#050A12" opacity="0.25"/>
  <rect x="-95.2" y="-71.7" width="190.4" height="143.3" rx="14.3" fill="none" stroke="url(#strokeA)" stroke-width="7.2" opacity="0.85"/>
  <rect x="-83.7" y="-60.2" width="167.5" height="120.4" rx="10.0" fill="none" stroke="#F59E0B" stroke-width="2.9" opacity="0.35"/>
</g>


<g opacity="0.321" transform="translate(1909.2,1037.6) rotate(-7.4)" filter="url(#softGlow)">
  <rect x="-114.3" y="-87.9" width="228.7" height="175.7" rx="17.6" fill="#050A12" opacity="0.25"/>
  <rect x="-114.3" y="-87.9" width="228.7" height="175.7" rx="17.6" fill="none" stroke="url(#strokeA)" stroke-width="8.8" opacity="0.85"/>
  <rect x="-100.3" y="-73.8" width="200.6" height="147.6" rx="12.3" fill="none" stroke="#22D3EE" stroke-width="3.5" opacity="0.35"/>
</g>


<g opacity="0.414" transform="translate(1734.7,1059.1) rotate(-9.1)" filter="url(#softGlow)">
  <rect x="-117.9" y="-106.0" width="235.9" height="211.9" rx="21.2" fill="#050A12" opacity="0.25"/>
  <rect x="-117.9" y="-106.0" width="235.9" height="211.9" rx="21.2" fill="none" stroke="url(#strokeA)" stroke-width="10.6" opacity="0.85"/>
  <rect x="-101.0" y="-89.0" width="202.0" height="178.0" rx="14.8" fill="none" stroke="#F59E0B" stroke-width="4.2" opacity="0.35"/>
</g>


<g opacity="0.280" transform="translate(160.6,67.7) rotate(17.7)" filter="url(#softGlow)">
  <rect x="-48.8" y="-28.1" width="97.7" height="56.3" rx="17.2" fill="none" stroke="#22D3EE" stroke-width="9.4" opacity="0.55"/>
  <rect x="-21.5" y="-14.1" width="97.7" height="56.3" rx="17.2" fill="none" stroke="url(#strokeA)" stroke-width="7.8" opacity="0.55"/>
</g>


<g opacity="0.424" transform="translate(1832.1,957.2) rotate(7.7)" filter="url(#softGlow)">
  <rect x="-43.9" y="-25.3" width="87.8" height="50.6" rx="15.4" fill="none" stroke="#22D3EE" stroke-width="8.4" opacity="0.55"/>
  <rect x="-19.3" y="-12.6" width="87.8" height="50.6" rx="15.4" fill="none" stroke="url(#strokeA)" stroke-width="7.0" opacity="0.55"/>
</g>


<g opacity="0.259" transform="translate(124.8,877.3) rotate(11.1)" filter="url(#softGlow)">
  <rect x="-44.5" y="-25.6" width="89.0" height="51.2" rx="15.7" fill="none" stroke="#F59E0B" stroke-width="8.5" opacity="0.55"/>
  <rect x="-19.6" y="-12.8" width="89.0" height="51.2" rx="15.7" fill="none" stroke="url(#strokeA)" stroke-width="7.1" opacity="0.55"/>
</g>


<g opacity="0.344" transform="translate(1764.2,73.7) rotate(2.4)" filter="url(#softGlow)">
  <rect x="-41.3" y="-23.8" width="82.5" height="47.5" rx="14.5" fill="none" stroke="#22D3EE" stroke-width="7.9" opacity="0.55"/>
  <rect x="-18.2" y="-11.9" width="82.5" height="47.5" rx="14.5" fill="none" stroke="url(#strokeA)" stroke-width="6.6" opacity="0.55"/>
</g>


<g opacity="0.363" transform="translate(1706.2,1021.9) rotate(6.5)" filter="url(#softGlow)">
  <rect x="-49.8" y="-28.7" width="99.6" height="57.4" rx="17.5" fill="none" stroke="#22D3EE" stroke-width="9.6" opacity="0.55"/>
  <rect x="-21.9" y="-14.3" width="99.6" height="57.4" rx="17.5" fill="none" stroke="url(#strokeA)" stroke-width="8.0" opacity="0.55"/>
</g>


<g opacity="0.347" transform="translate(1718.1,909.8) rotate(-1.4)" filter="url(#softGlow)">
  <rect x="-37.3" y="-21.5" width="74.6" height="43.0" rx="13.1" fill="none" stroke="#22D3EE" stroke-width="7.2" opacity="0.55"/>
  <rect x="-16.4" y="-10.7" width="74.6" height="43.0" rx="13.1" fill="none" stroke="url(#strokeA)" stroke-width="6.0" opacity="0.55"/>
</g>


<g opacity="0.384" transform="translate(200.9,913.9) rotate(-15.4)" filter="url(#softGlow)">
  <rect x="-43.3" y="-25.0" width="86.7" height="49.9" rx="15.3" fill="none" stroke="#F59E0B" stroke-width="8.3" opacity="0.55"/>
  <rect x="-19.1" y="-12.5" width="86.7" height="49.9" rx="15.3" fill="none" stroke="url(#strokeA)" stroke-width="6.9" opacity="0.55"/>
</g>


<g opacity="0.404" transform="translate(976.1,61.8) rotate(-8.1)" filter="url(#softGlow)">
  <rect x="-45.4" y="-26.2" width="90.8" height="52.3" rx="16.0" fill="none" stroke="#22D3EE" stroke-width="8.7" opacity="0.55"/>
  <rect x="-20.0" y="-13.1" width="90.8" height="52.3" rx="16.0" fill="none" stroke="url(#strokeA)" stroke-width="7.3" opacity="0.55"/>
</g>


<g opacity="0.188">
  <line x1="1726.0" y1="923.3" x2="1726.0" y2="992.5" stroke="#22D3EE" stroke-width="1.76" opacity="0.45"/>
  <rect x="1722.6" y="956.0" width="6.7" height="45.2" rx="2.2" fill="#0B1020" opacity="0.55" stroke="url(#strokeA)" stroke-width="1.2"/>
</g>

<g opacity="0.188">
  <line x1="254.5" y1="940.4" x2="254.5" y2="988.2" stroke="#22D3EE" stroke-width="2.10" opacity="0.45"/>
  <rect x="250.4" y="964.5" width="8.3" height="28.3" rx="2.8" fill="#0B1020" opacity="0.55" stroke="url(#strokeA)" stroke-width="1.2"/>
</g>

<g opacity="0.188">
  <line x1="1435.6" y1="919.1" x2="1435.6" y2="993.6" stroke="#22D3EE" stroke-width="1.56" opacity="0.45"/>
  <rect x="1432.0" y="964.4" width="7.2" height="28.5" rx="2.4" fill="#0B1020" opacity="0.55" stroke="url(#strokeA)" stroke-width="1.2"/>
</g>

<g opacity="0.188">
  <line x1="1731.5" y1="930.6" x2="1731.5" y2="990.7" stroke="#22D3EE" stroke-width="1.31" opacity="0.45"/>
  <rect x="1728.2" y="966.0" width="6.7" height="25.4" rx="2.2" fill="#0B1020" opacity="0.55" stroke="url(#strokeA)" stroke-width="1.2"/>
</g>

<g opacity="0.188">
  <line x1="1871.0" y1="900.0" x2="1871.0" y2="998.3" stroke="#22D3EE" stroke-width="1.36" opacity="0.45"/>
  <rect x="1865.0" y="957.0" width="11.9" height="43.3" rx="4.0" fill="#0B1020" opacity="0.55" stroke="url(#strokeA)" stroke-width="1.2"/>
</g>

<g opacity="0.188">
  <line x1="1158.8" y1="916.2" x2="1158.8" y2="994.3" stroke="#22D3EE" stroke-width="1.94" opacity="0.45"/>
  <rect x="1153.0" y="962.7" width="11.7" height="31.9" rx="3.9" fill="#0B1020" opacity="0.55" stroke="url(#strokeA)" stroke-width="1.2"/>
</g>

<g opacity="0.188">
  <line x1="104.5" y1="925.8" x2="104.5" y2="991.9" stroke="#22D3EE" stroke-width="1.06" opacity="0.45"/>
  <rect x="100.0" y="963.7" width="9.0" height="30.0" rx="3.0" fill="#0B1020" opacity="0.55" stroke="url(#strokeA)" stroke-width="1.2"/>
</g>

<g opacity="0.188">
  <line x1="1101.5" y1="946.3" x2="1101.5" y2="986.7" stroke="#22D3EE" stroke-width="1.13" opacity="0.45"/>
  <rect x="1096.3" y="967.8" width="10.4" height="21.8" rx="3.5" fill="#0B1020" opacity="0.55" stroke="url(#strokeA)" stroke-width="1.2"/>
</g>

<g opacity="0.188">
  <line x1="392.6" y1="926.0" x2="392.6" y2="991.8" stroke="#22D3EE" stroke-width="1.34" opacity="0.45"/>
  <rect x="387.9" y="960.1" width="9.4" height="37.2" rx="3.1" fill="#0B1020" opacity="0.55" stroke="url(#strokeA)" stroke-width="1.2"/>
</g>

<g opacity="0.188">
  <line x1="804.8" y1="903.1" x2="804.8" y2="997.6" stroke="#22D3EE" stroke-width="1.42" opacity="0.45"/>
  <rect x="799.1" y="955.6" width="11.4" height="46.0" rx="3.8" fill="#0B1020" opacity="0.55" stroke="url(#strokeA)" stroke-width="1.2"/>
</g>

<g opacity="0.188">
  <line x1="1807.7" y1="946.5" x2="1807.7" y2="986.7" stroke="#22D3EE" stroke-width="1.65" opacity="0.45"/>
  <rect x="1802.6" y="969.2" width="10.2" height="19.0" rx="3.4" fill="#0B1020" opacity="0.55" stroke="url(#strokeA)" stroke-width="1.2"/>
</g>

<g opacity="0.188">
  <line x1="182.1" y1="910.6" x2="182.1" y2="995.7" stroke="#22D3EE" stroke-width="1.83" opacity="0.45"/>
  <rect x="177.8" y="954.2" width="8.7" height="49.0" rx="2.9" fill="#0B1020" opacity="0.55" stroke="url(#strokeA)" stroke-width="1.2"/>
</g>

<g opacity="0.188">
  <line x1="1414.7" y1="922.3" x2="1414.7" y2="992.8" stroke="#22D3EE" stroke-width="2.04" opacity="0.45"/>
  <rect x="1409.6" y="964.6" width="10.0" height="28.1" rx="3.3" fill="#0B1020" opacity="0.55" stroke="url(#strokeA)" stroke-width="1.2"/>
</g>

<g opacity="0.188">
  <line x1="1300.9" y1="925.0" x2="1300.9" y2="992.1" stroke="#22D3EE" stroke-width="1.74" opacity="0.45"/>
  <rect x="1295.9" y="967.3" width="9.9" height="22.7" rx="3.3" fill="#0B1020" opacity="0.55" stroke="url(#strokeA)" stroke-width="1.2"/>
</g>

<g opacity="0.188">
  <line x1="368.5" y1="947.4" x2="368.5" y2="986.5" stroke="#22D3EE" stroke-width="1.60" opacity="0.45"/>
  <rect x="364.6" y="969.1" width="7.6" height="19.2" rx="2.5" fill="#0B1020" opacity="0.55" stroke="url(#strokeA)" stroke-width="1.2"/>
</g>
<circle cx="102.1" cy="74.2" r="1.5" fill="#F59E0B" opacity="0.21" filter="url(#softGlow)"/>
<circle cx="1672.1" cy="192.7" r="1.3" fill="#F59E0B" opacity="0.19" filter="url(#softGlow)"/>
<circle cx="1879.7" cy="114.5" r="3.1" fill="#F59E0B" opacity="0.20" filter="url(#softGlow)"/>
<circle cx="1717.4" cy="174.5" r="2.0" fill="#F59E0B" opacity="0.14" filter="url(#softGlow)"/>
<circle cx="1778.5" cy="686.9" r="2.6" fill="#F59E0B" opacity="0.22" filter="url(#softGlow)"/>
<circle cx="1912.6" cy="553.4" r="2.7" fill="#F59E0B" opacity="0.27" filter="url(#softGlow)"/>
<circle cx="1855.5" cy="136.4" r="2.5" fill="#F59E0B" opacity="0.18" filter="url(#softGlow)"/>
<circle cx="94.0" cy="664.3" r="2.8" fill="#F59E0B" opacity="0.23" filter="url(#softGlow)"/>
<circle cx="286.9" cy="939.8" r="3.0" fill="#F59E0B" opacity="0.14" filter="url(#softGlow)"/>
<circle cx="116.4" cy="171.7" r="2.5" fill="#F59E0B" opacity="0.25" filter="url(#softGlow)"/>
<circle cx="106.7" cy="1030.3" r="2.5" fill="#F59E0B" opacity="0.24" filter="url(#softGlow)"/>
<circle cx="1251.5" cy="129.6" r="2.1" fill="#F59E0B" opacity="0.24" filter="url(#softGlow)"/>
<circle cx="70.1" cy="17.3" r="1.8" fill="#F59E0B" opacity="0.12" filter="url(#softGlow)"/>
<circle cx="1915.7" cy="958.0" r="3.1" fill="#F59E0B" opacity="0.20" filter="url(#softGlow)"/>
<circle cx="94.4" cy="374.3" r="2.0" fill="#F59E0B" opacity="0.19" filter="url(#softGlow)"/>
<circle cx="1726.2" cy="34.5" r="1.4" fill="#F59E0B" opacity="0.25" filter="url(#softGlow)"/>
<circle cx="146.3" cy="394.2" r="3.0" fill="#F59E0B" opacity="0.26" filter="url(#softGlow)"/>
<circle cx="18.1" cy="1070.3" r="1.4" fill="#F59E0B" opacity="0.28" filter="url(#softGlow)"/>
</svg>