<svg xmlns="http://www.w3.org/2000/svg" width="1920" height="1080" viewBox="0 0 1920 1080" preserveAspectRatio="xMidYMid slice">
<defs>
  <linearGradient id="g0" x1="0" y1="0" x2="1" y2="1">
    <stop offset="0" stop-color="#0B1020"/>
    <stop offset="0.55" stop-color="#F97316" stop-opacity="0.9"/>
    <stop offset="1" stop-color="#020617"/>
  </linearGradient>
  <radialGradient id="g1" cx="20%" cy="15%" r="70%">
    <stop offset="0" stop-color="#06B6D4" stop-opacity="0.38"/>
    <stop offset="0.6" stop-color="#06B6D4" stop-opacity="0.08"/>
    <stop offset="1" stop-color="#06B6D4" stop-opacity="0"/>
  </radialGradient>
  <radialGradient id="g2" cx="85%" cy="80%" r="75%">
    <stop offset="0" stop-color="#06B6D4" stop-opacity="0.28"/>
    <stop offset="0.65" stop-color="#06B6D4" stop-opacity="0.06"/>
    <stop offset="1" stop-color="#06B6D4" stop-opacity="0"/>
  </radialGradient>
  <filter id="softGlow" x="-30%" y="-30%" width="160%" height="160%">
    <feGaussianBlur stdDeviation="12" result="b"/>
    <feMerge>
      <feMergeNode in="b"/>
      <feMergeNode in="SourceGraphic"/>
    </feMerge>
  </filter>
  <filter id="hardGlow" x="-40%" y="-40%" width="180%" height="180%">
    <feGaussianBlur stdDeviation="6" result="b"/>
    <feColorMatrix in="b" type="matrix" values="1 0 0 0 0  0 1 0 0 0  0 0 1 0 0  0 0 0 18 -7" result="c"/>
    <feMerge>
      <feMergeNode in="c"/>
      <feMergeNode in="SourceGraphic"/>
    </feMerge>
  </filter>
  <linearGradient id="strokeA" x1="0" y1="0" x2="1" y2="0">
    <stop offset="0" stop-color="#06B6D4" stop-opacity="0.9"/>
    <stop offset="0.5" stop-color="#FFFFFF" stop-opacity="0.25"/>
    <stop offset="1" stop-color="#06B6D4" stop-opacity="0.7"/>
  </linearGradient>
  <linearGradient id="strokeB" x1="0" y1="0" x2="0" y2="1">
    <stop offset="0" stop-color="#FFFFFF" stop-opacity="0.18"/>
    <stop offset="1" stop-color="#06B6D4" stop-opacity="0.55"/>
  </linearGradient>
</defs>
<rect x="0" y="0" width="1920" height="1080" fill="url(#g0)"/>
<rect x="0" y="0" width="1920" height="1080" fill="url(#g1)"/>
<rect x="0" y="0" width="1920" height="1080" fill="url(#g2)"/>


<defs>
  <radialGradient id="vign" cx="0.5000" cy="0.5093" r="0.85">
    <stop offset="0" stop-color="#000000" stop-opacity="0"/>
    <stop offset="0.55" stop-color="#000000" stop-opacity="0.217"/>
    <stop offset="1" stop-color="#000000" stop-opacity="0.620"/>
  </radialGradient>
</defs>
<rect x="0" y="0" width="1920" height="1080" fill="url(#vign)"/>

<g opacity="0.274" filter="url(#softGlow)"><path d="M 8.7,993.7 L 1839.4,993.7 L 1839.4,864.8 L 74.8,864.8 L 74.8,179.0 " fill="none" stroke="url(#strokeB)" stroke-width="1.13" stroke-linecap="round" stroke-linejoin="round"/><circle cx="1839.4" cy="864.8" r="2.5" fill="#A3E635" opacity="0.45"/><circle cx="8.7" cy="993.7" r="3.5" fill="#A3E635" opacity="0.45"/><circle cx="74.8" cy="179.0" r="3.5" fill="#A3E635" opacity="0.45"/></g>
<g opacity="0.274" filter="url(#softGlow)"><path d="M 810.9,131.4 L 58.4,131.4 L 58.4,204.6 L 59.8,204.6 L 59.8,1079.3 " fill="none" stroke="url(#strokeB)" stroke-width="2.11" stroke-linecap="round" stroke-linejoin="round"/><circle cx="59.8" cy="204.6" r="3.8" fill="#A3E635" opacity="0.45"/><circle cx="58.4" cy="204.6" r="3.4" fill="#A3E635" opacity="0.45"/><circle cx="59.8" cy="1079.3" r="2.6" fill="#A3E635" opacity="0.45"/></g>
<g opacity="0.274" filter="url(#softGlow)"><path d="M 1762.6,1001.2 L 57.7,1001.2 L 57.7,1009.0 L 59.8,1009.0 L 59.8,578.0 " fill="none" stroke="url(#strokeB)" stroke-width="1.43" stroke-linecap="round" stroke-linejoin="round"/><circle cx="1762.6" cy="1001.2" r="2.3" fill="#A3E635" opacity="0.45"/><circle cx="59.8" cy="578.0" r="3.7" fill="#A3E635" opacity="0.45"/><circle cx="57.7" cy="1001.2" r="3.2" fill="#A3E635" opacity="0.45"/></g>
<g opacity="0.274" filter="url(#softGlow)"><path d="M 304.4,85.5 L 138.4,85.5 L 138.4,114.2 L 5.1,114.2 L 5.1,946.6 " fill="none" stroke="url(#strokeB)" stroke-width="1.48" stroke-linecap="round" stroke-linejoin="round"/><circle cx="304.4" cy="85.5" r="2.6" fill="#A3E635" opacity="0.45"/><circle cx="138.4" cy="114.2" r="2.5" fill="#A3E635" opacity="0.45"/><circle cx="5.1" cy="946.6" r="3.5" fill="#A3E635" opacity="0.45"/></g>
<g opacity="0.274" filter="url(#softGlow)"><path d="M 1863.9,906.7 L 1730.4,906.7 L 1730.4,873.8 L 57.1,873.8 L 57.1,1058.9 " fill="none" stroke="url(#strokeB)" stroke-width="1.36" stroke-linecap="round" stroke-linejoin="round"/><circle cx="57.1" cy="1058.9" r="3.1" fill="#A3E635" opacity="0.45"/><circle cx="1730.4" cy="906.7" r="4.0" fill="#A3E635" opacity="0.45"/><circle cx="57.1" cy="873.8" r="3.8" fill="#A3E635" opacity="0.45"/></g>
<g opacity="0.274" filter="url(#softGlow)"><path d="M 75.0,1031.7 L 1723.8,1031.7 L 1723.8,1037.9 L 1683.8,1037.9 L 1683.8,964.5 " fill="none" stroke="url(#strokeB)" stroke-width="1.52" stroke-linecap="round" stroke-linejoin="round"/><circle cx="1723.8" cy="1031.7" r="3.8" fill="#A3E635" opacity="0.45"/><circle cx="1683.8" cy="964.5" r="3.0" fill="#A3E635" opacity="0.45"/><circle cx="1723.8" cy="1037.9" r="2.8" fill="#A3E635" opacity="0.45"/></g>
<g opacity="0.274" filter="url(#softGlow)"><path d="M 719.9,1043.1 L 1114.2,1043.1 L 1114.2,68.8 L 198.6,68.8 L 198.6,142.2 " fill="none" stroke="url(#strokeB)" stroke-width="1.89" stroke-linecap="round" stroke-linejoin="round"/><circle cx="719.9" cy="1043.1" r="3.8" fill="#A3E635" opacity="0.45"/><circle cx="198.6" cy="142.2" r="2.1" fill="#A3E635" opacity="0.45"/><circle cx="198.6" cy="68.8" r="2.1" fill="#A3E635" opacity="0.45"/></g>
<g opacity="0.274" filter="url(#softGlow)"><path d="M 1889.6,86.4 L 197.3,86.4 L 197.3,882.4 L 147.8,882.4 L 147.8,1055.9 " fill="none" stroke="url(#strokeB)" stroke-width="1.49" stroke-linecap="round" stroke-linejoin="round"/><circle cx="1889.6" cy="86.4" r="2.1" fill="#A3E635" opacity="0.45"/><circle cx="197.3" cy="882.4" r="2.4" fill="#A3E635" opacity="0.45"/><circle cx="147.8" cy="1055.9" r="4.0" fill="#A3E635" opacity="0.45"/></g>
<g opacity="0.274" filter="url(#softGlow)"><path d="M 123.8,133.4 L 40.2,133.4 L 40.2,916.8 L 1797.9,916.8 L 1797.9,199.5 " fill="none" stroke="url(#strokeB)" stroke-width="1.13" stroke-linecap="round" stroke-linejoin="round"/><circle cx="1797.9" cy="199.5" r="3.9" fill="#A3E635" opacity="0.45"/><circle cx="1797.9" cy="916.8" r="2.7" fill="#A3E635" opacity="0.45"/><circle cx="40.2" cy="133.4" r="3.9" fill="#A3E635" opacity="0.45"/></g>
<g opacity="0.274" filter="url(#softGlow)"><path d="M 1754.6,1054.1 L 192.1,1054.1 L 192.1,930.1 L 448.6,930.1 L 448.6,53.0 " fill="none" stroke="url(#strokeB)" stroke-width="1.90" stroke-linecap="round" stroke-linejoin="round"/><circle cx="448.6" cy="930.1" r="2.7" fill="#A3E635" opacity="0.45"/><circle cx="192.1" cy="1054.1" r="4.0" fill="#A3E635" opacity="0.45"/><circle cx="1754.6" cy="1054.1" r="2.8" fill="#A3E635" opacity="0.45"/></g>
<g opacity="0.274" filter="url(#softGlow)"><path d="M 603.5,1015.3 L 1724.6,1015.3 L 1724.6,65.3 L 1895.4,65.3 L 1895.4,90.0 " fill="none" stroke="url(#strokeB)" stroke-width="1.57" stroke-linecap="round" stroke-linejoin="round"/><circle cx="603.5" cy="1015.3" r="2.9" fill="#A3E635" opacity="0.45"/><circle cx="1724.6" cy="1015.3" r="3.1" fill="#A3E635" opacity="0.45"/><circle cx="1895.4" cy="65.3" r="3.9" fill="#A3E635" opacity="0.45"/></g>
<g opacity="0.274" filter="url(#softGlow)"><path d="M 73.3,1053.3 L 1908.0,1053.3 L 1908.0,941.5 L 1793.6,941.5 L 1793.6,605.9 " fill="none" stroke="url(#strokeB)" stroke-width="1.27" stroke-linecap="round" stroke-linejoin="round"/><circle cx="1793.6" cy="605.9" r="3.4" fill="#A3E635" opacity="0.45"/><circle cx="1908.0" cy="941.5" r="2.5" fill="#A3E635" opacity="0.45"/><circle cx="1793.6" cy="941.5" r="4.0" fill="#A3E635" opacity="0.45"/></g>
<g opacity="0.274" filter="url(#softGlow)"><path d="M 177.2,930.2 L 7.2,930.2 L 7.2,683.5 L 16.5,683.5 L 16.5,376.6 " fill="none" stroke="url(#strokeB)" stroke-width="1.66" stroke-linecap="round" stroke-linejoin="round"/><circle cx="16.5" cy="376.6" r="2.4" fill="#A3E635" opacity="0.45"/><circle cx="16.5" cy="683.5" r="3.3" fill="#A3E635" opacity="0.45"/><circle cx="7.2" cy="930.2" r="2.9" fill="#A3E635" opacity="0.45"/></g>
<g opacity="0.274" filter="url(#softGlow)"><path d="M 605.5,979.1 L 1870.7,979.1 L 1870.7,1037.8 L 46.1,1037.8 L 46.1,957.0 " fill="none" stroke="url(#strokeB)" stroke-width="1.52" stroke-linecap="round" stroke-linejoin="round"/><circle cx="605.5" cy="979.1" r="2.0" fill="#A3E635" opacity="0.45"/><circle cx="46.1" cy="1037.8" r="3.9" fill="#A3E635" opacity="0.45"/><circle cx="1870.7" cy="979.1" r="3.5" fill="#A3E635" opacity="0.45"/></g>
<g opacity="0.274" filter="url(#softGlow)"><path d="M 1707.2,1010.1 L 1848.3,1010.1 L 1848.3,891.1 L 0.3,891.1 L 0.3,198.7 " fill="none" stroke="url(#strokeB)" stroke-width="1.96" stroke-linecap="round" stroke-linejoin="round"/><circle cx="1707.2" cy="1010.1" r="3.1" fill="#A3E635" opacity="0.45"/><circle cx="1848.3" cy="891.1" r="4.1" fill="#A3E635" opacity="0.45"/><circle cx="1848.3" cy="1010.1" r="3.9" fill="#A3E635" opacity="0.45"/></g>
<g opacity="0.274" filter="url(#softGlow)"><path d="M 1823.1,756.1 L 1910.1,756.1 L 1910.1,559.7 L 1743.6,559.7 L 1743.6,104.4 " fill="none" stroke="url(#strokeB)" stroke-width="1.54" stroke-linecap="round" stroke-linejoin="round"/><circle cx="1910.1" cy="559.7" r="2.1" fill="#A3E635" opacity="0.45"/><circle cx="1743.6" cy="559.7" r="3.4" fill="#A3E635" opacity="0.45"/><circle cx="1910.1" cy="756.1" r="2.4" fill="#A3E635" opacity="0.45"/></g>
<g opacity="0.274" filter="url(#softGlow)"><path d="M 44.5,175.7 L 76.1,175.7 L 76.1,971.7 L 501.7,971.7 L 501.7,1038.0 " fill="none" stroke="url(#strokeB)" stroke-width="2.18" stroke-linecap="round" stroke-linejoin="round"/><circle cx="44.5" cy="175.7" r="2.1" fill="#A3E635" opacity="0.45"/><circle cx="76.1" cy="175.7" r="3.9" fill="#A3E635" opacity="0.45"/><circle cx="501.7" cy="1038.0" r="2.6" fill="#A3E635" opacity="0.45"/></g>
<g opacity="0.274" filter="url(#softGlow)"><path d="M 39.4,47.6 L 65.2,47.6 L 65.2,505.9 L 770.4,505.9 L 770.4,33.6 " fill="none" stroke="url(#strokeB)" stroke-width="1.39" stroke-linecap="round" stroke-linejoin="round"/><circle cx="65.2" cy="505.9" r="2.1" fill="#A3E635" opacity="0.45"/><circle cx="770.4" cy="33.6" r="2.9" fill="#A3E635" opacity="0.45"/><circle cx="39.4" cy="47.6" r="4.1" fill="#A3E635" opacity="0.45"/></g>

<g opacity="0.653" filter="url(#hardGlow)">
  <circle cx="4.7" cy="148.6" r="38.4" fill="#0A1224" opacity="0.65"/>
  <circle cx="4.7" cy="148.6" r="38.4" fill="none" stroke="url(#strokeA)" stroke-width="3.1" opacity="0.85"/>
  <circle cx="4.7" cy="148.6" r="33.0" fill="none" stroke="#06B6D4" stroke-width="1.5" opacity="0.35"/>
  <polygon points="-22.3,154.6 -13.9,128.2 13.1,122.3 31.7,142.7 23.3,169.1 -3.7,175.0" fill="none" stroke="url(#strokeB)" stroke-width="1.2" opacity="0.65"/>
  <polygon points="-4.9,147.4 10.6,141.0 8.4,157.6" fill="#06B6D4" opacity="0.22" filter="url(#softGlow)"/>
</g>


<g opacity="0.404" filter="url(#hardGlow)">
  <circle cx="37.7" cy="109.2" r="17.9" fill="#0A1224" opacity="0.65"/>
  <circle cx="37.7" cy="109.2" r="17.9" fill="none" stroke="url(#strokeA)" stroke-width="2.0" opacity="0.85"/>
  <circle cx="37.7" cy="109.2" r="15.4" fill="none" stroke="#A3E635" stroke-width="1.5" opacity="0.35"/>
  <polygon points="26.8,116.1 26.3,103.2 37.2,96.3 48.6,102.2 49.2,115.1 38.3,122.1" fill="none" stroke="url(#strokeB)" stroke-width="1.2" opacity="0.65"/>
  <polygon points="33.3,110.1 39.1,104.9 40.8,112.5" fill="#A3E635" opacity="0.22" filter="url(#softGlow)"/>
</g>


<g opacity="0.422" filter="url(#hardGlow)">
  <circle cx="8.9" cy="126.2" r="20.0" fill="#0A1224" opacity="0.65"/>
  <circle cx="8.9" cy="126.2" r="20.0" fill="none" stroke="url(#strokeA)" stroke-width="2.0" opacity="0.85"/>
  <circle cx="8.9" cy="126.2" r="17.2" fill="none" stroke="#A3E635" stroke-width="1.5" opacity="0.35"/>
  <polygon points="16.3,113.9 23.3,126.4 15.9,138.8 1.5,138.5 -5.5,126.0 1.9,113.6" fill="none" stroke="url(#strokeB)" stroke-width="1.2" opacity="0.65"/>
  <polygon points="12.8,123.0 9.7,131.2 4.2,124.4" fill="#A3E635" opacity="0.22" filter="url(#softGlow)"/>
</g>


<g opacity="0.695" filter="url(#hardGlow)">
  <circle cx="1750.7" cy="601.4" r="43.5" fill="#0A1224" opacity="0.65"/>
  <circle cx="1750.7" cy="601.4" r="43.5" fill="none" stroke="url(#strokeA)" stroke-width="3.5" opacity="0.85"/>
  <circle cx="1750.7" cy="601.4" r="37.4" fill="none" stroke="#06B6D4" stroke-width="1.5" opacity="0.35"/>
  <polygon points="1758.8,631.6 1728.5,623.5 1720.4,593.3 1742.5,571.1 1772.8,579.2 1780.9,609.4" fill="none" stroke="url(#strokeB)" stroke-width="1.2" opacity="0.65"/>
  <polygon points="1749.7,612.3 1741.7,595.1 1760.6,596.7" fill="#06B6D4" opacity="0.22" filter="url(#softGlow)"/>
</g>


<g opacity="0.594" filter="url(#hardGlow)">
  <circle cx="1771.8" cy="582.0" r="17.2" fill="#0A1224" opacity="0.65"/>
  <circle cx="1771.8" cy="582.0" r="17.2" fill="none" stroke="url(#strokeA)" stroke-width="2.0" opacity="0.85"/>
  <circle cx="1771.8" cy="582.0" r="14.8" fill="none" stroke="#A3E635" stroke-width="1.5" opacity="0.35"/>
  <polygon points="1770.5,569.6 1781.8,574.7 1783.1,587.0 1773.1,594.3 1761.7,589.3 1760.4,576.9" fill="none" stroke="url(#strokeB)" stroke-width="1.2" opacity="0.65"/>
  <polygon points="1772.8,577.8 1774.9,585.0 1767.6,583.2" fill="#A3E635" opacity="0.22" filter="url(#softGlow)"/>
</g>


<g opacity="0.805" filter="url(#hardGlow)">
  <circle cx="102.6" cy="148.3" r="50.4" fill="#0A1224" opacity="0.65"/>
  <circle cx="102.6" cy="148.3" r="50.4" fill="none" stroke="url(#strokeA)" stroke-width="4.0" opacity="0.85"/>
  <circle cx="102.6" cy="148.3" r="43.3" fill="none" stroke="#06B6D4" stroke-width="1.5" opacity="0.35"/>
  <polygon points="120.5,179.9 84.2,179.6 66.4,148.1 84.7,116.8 121.0,117.1 138.9,148.6" fill="none" stroke="url(#strokeB)" stroke-width="1.3" opacity="0.65"/>
  <polygon points="104.7,160.9 90.7,143.9 112.4,140.3" fill="#06B6D4" opacity="0.22" filter="url(#softGlow)"/>
</g>


<g opacity="0.400" filter="url(#hardGlow)">
  <circle cx="87.2" cy="92.0" r="20.8" fill="#0A1224" opacity="0.65"/>
  <circle cx="87.2" cy="92.0" r="20.8" fill="none" stroke="url(#strokeA)" stroke-width="2.0" opacity="0.85"/>
  <circle cx="87.2" cy="92.0" r="17.9" fill="none" stroke="#A3E635" stroke-width="1.5" opacity="0.35"/>
  <polygon points="88.3,77.1 100.7,85.6 99.5,100.5 86.1,106.9 73.7,98.5 74.8,83.6" fill="none" stroke="url(#strokeB)" stroke-width="1.2" opacity="0.65"/>
  
</g>


<g opacity="0.918" filter="url(#hardGlow)">
  <circle cx="80.2" cy="436.6" r="53.1" fill="#0A1224" opacity="0.65"/>
  <circle cx="80.2" cy="436.6" r="53.1" fill="none" stroke="url(#strokeA)" stroke-width="4.3" opacity="0.85"/>
  <circle cx="80.2" cy="436.6" r="45.7" fill="none" stroke="#06B6D4" stroke-width="1.6" opacity="0.35"/>
  <polygon points="43.4,426.0 70.9,399.5 107.7,410.0 116.9,447.1 89.4,473.7 52.6,463.2" fill="none" stroke="url(#strokeB)" stroke-width="1.3" opacity="0.65"/>
  <polygon points="69.3,428.7 92.4,431.1 78.8,449.9" fill="#06B6D4" opacity="0.22" filter="url(#softGlow)"/>
</g>


<g opacity="0.646" filter="url(#hardGlow)">
  <circle cx="5.5" cy="408.7" r="23.3" fill="#0A1224" opacity="0.65"/>
  <circle cx="5.5" cy="408.7" r="23.3" fill="none" stroke="url(#strokeA)" stroke-width="2.0" opacity="0.85"/>
  <circle cx="5.5" cy="408.7" r="20.0" fill="none" stroke="#A3E635" stroke-width="1.5" opacity="0.35"/>
  <polygon points="-11.0,411.4 -5.2,395.7 11.4,393.0 22.0,405.9 16.2,421.6 -0.4,424.4" fill="none" stroke="url(#strokeB)" stroke-width="1.2" opacity="0.65"/>
  <polygon points="-0.3,407.6 9.3,404.2 7.5,414.2" fill="#A3E635" opacity="0.22" filter="url(#softGlow)"/>
</g>


<g opacity="0.445" filter="url(#hardGlow)">
  <circle cx="31.4" cy="451.8" r="19.6" fill="#0A1224" opacity="0.65"/>
  <circle cx="31.4" cy="451.8" r="19.6" fill="none" stroke="url(#strokeA)" stroke-width="2.0" opacity="0.85"/>
  <circle cx="31.4" cy="451.8" r="16.9" fill="none" stroke="#A3E635" stroke-width="1.5" opacity="0.35"/>
  <polygon points="36.5,438.7 45.4,449.7 40.3,462.8 26.3,465.0 17.5,454.0 22.5,440.9" fill="none" stroke="url(#strokeB)" stroke-width="1.2" opacity="0.65"/>
  <polygon points="34.7,448.1 33.0,456.5 26.6,450.9" fill="#A3E635" opacity="0.22" filter="url(#softGlow)"/>
</g>


<g opacity="0.292" transform="translate(169.8,20.9) rotate(9.2)" filter="url(#softGlow)">
  <rect x="-105.0" y="-97.6" width="210.1" height="195.2" rx="19.5" fill="#050A12" opacity="0.25"/>
  <rect x="-105.0" y="-97.6" width="210.1" height="195.2" rx="19.5" fill="none" stroke="url(#strokeA)" stroke-width="9.8" opacity="0.85"/>
  <rect x="-89.4" y="-82.0" width="178.8" height="164.0" rx="13.7" fill="none" stroke="#06B6D4" stroke-width="3.9" opacity="0.35"/>
</g>


<g opacity="0.282" transform="translate(8.9,123.1) rotate(-5.1)" filter="url(#softGlow)">
  <rect x="-78.8" y="-62.1" width="157.6" height="124.1" rx="12.4" fill="#050A12" opacity="0.25"/>
  <rect x="-78.8" y="-62.1" width="157.6" height="124.1" rx="12.4" fill="none" stroke="url(#strokeA)" stroke-width="6.2" opacity="0.85"/>
  <rect x="-68.9" y="-52.1" width="137.8" height="104.3" rx="8.7" fill="none" stroke="#06B6D4" stroke-width="2.5" opacity="0.35"/>
</g>


<g opacity="0.454" transform="translate(1823.0,559.3) rotate(9.1)" filter="url(#softGlow)">
  <rect x="-97.2" y="-81.6" width="194.3" height="163.2" rx="16.3" fill="#050A12" opacity="0.25"/>
  <rect x="-97.2" y="-81.6" width="194.3" height="163.2" rx="16.3" fill="none" stroke="url(#strokeA)" stroke-width="8.2" opacity="0.85"/>
  <rect x="-84.1" y="-68.5" width="168.2" height="137.1" rx="11.4" fill="none" stroke="#A3E635" stroke-width="3.3" opacity="0.35"/>
</g>


<g opacity="0.325" transform="translate(150.0,903.6) rotate(3.6)" filter="url(#softGlow)">
  <rect x="-95.6" y="-75.4" width="191.2" height="150.7" rx="15.1" fill="#050A12" opacity="0.25"/>
  <rect x="-95.6" y="-75.4" width="191.2" height="150.7" rx="15.1" fill="none" stroke="url(#strokeA)" stroke-width="7.5" opacity="0.85"/>
  <rect x="-83.5" y="-63.3" width="167.1" height="126.6" rx="10.6" fill="none" stroke="#06B6D4" stroke-width="3.0" opacity="0.35"/>
</g>


<g opacity="0.268" transform="translate(1127.5,36.4) rotate(-0.6)" filter="url(#softGlow)">
  <rect x="-116.7" y="-107.1" width="233.4" height="214.3" rx="21.4" fill="#050A12" opacity="0.25"/>
  <rect x="-116.7" y="-107.1" width="233.4" height="214.3" rx="21.4" fill="none" stroke="url(#strokeA)" stroke-width="10.7" opacity="0.85"/>
  <rect x="-99.6" y="-90.0" width="199.1" height="180.0" rx="15.0" fill="none" stroke="#A3E635" stroke-width="4.3" opacity="0.35"/>
</g>


<g opacity="0.449" transform="translate(167.3,1063.4) rotate(10.7)" filter="url(#softGlow)">
  <rect x="-47.2" y="-27.2" width="94.4" height="54.4" rx="16.6" fill="none" stroke="#A3E635" stroke-width="9.1" opacity="0.55"/>
  <rect x="-20.8" y="-13.6" width="94.4" height="54.4" rx="16.6" fill="none" stroke="url(#strokeA)" stroke-width="7.6" opacity="0.55"/>
</g>


<g opacity="0.236" transform="translate(33.6,913.4) rotate(-13.0)" filter="url(#softGlow)">
  <rect x="-46.5" y="-26.8" width="93.0" height="53.6" rx="16.4" fill="none" stroke="#06B6D4" stroke-width="8.9" opacity="0.55"/>
  <rect x="-20.5" y="-13.4" width="93.0" height="53.6" rx="16.4" fill="none" stroke="url(#strokeA)" stroke-width="7.4" opacity="0.55"/>
</g>


<g opacity="0.326" transform="translate(34.5,903.2) rotate(15.1)" filter="url(#softGlow)">
  <rect x="-56.3" y="-32.4" width="112.6" height="64.9" rx="19.8" fill="none" stroke="#06B6D4" stroke-width="10.8" opacity="0.55"/>
  <rect x="-24.8" y="-16.2" width="112.6" height="64.9" rx="19.8" fill="none" stroke="url(#strokeA)" stroke-width="9.0" opacity="0.55"/>
</g>


<g opacity="0.315" transform="translate(372.0,74.7) rotate(-16.9)" filter="url(#softGlow)">
  <rect x="-46.1" y="-26.6" width="92.2" height="53.1" rx="16.2" fill="none" stroke="#A3E635" stroke-width="8.9" opacity="0.55"/>
  <rect x="-20.3" y="-13.3" width="92.2" height="53.1" rx="16.2" fill="none" stroke="url(#strokeA)" stroke-width="7.4" opacity="0.55"/>
</g>


<g opacity="0.467" transform="translate(149.2,994.4) rotate(0.6)" filter="url(#softGlow)">
  <rect x="-39.6" y="-22.8" width="79.2" height="45.6" rx="13.9" fill="none" stroke="#A3E635" stroke-width="7.6" opacity="0.55"/>
  <rect x="-17.4" y="-11.4" width="79.2" height="45.6" rx="13.9" fill="none" stroke="url(#strokeA)" stroke-width="6.3" opacity="0.55"/>
</g>


<g opacity="0.438" transform="translate(1823.7,1028.0) rotate(-14.7)" filter="url(#softGlow)">
  <rect x="-44.4" y="-25.6" width="88.7" height="51.1" rx="15.6" fill="none" stroke="#A3E635" stroke-width="8.5" opacity="0.55"/>
  <rect x="-19.5" y="-12.8" width="88.7" height="51.1" rx="15.6" fill="none" stroke="url(#strokeA)" stroke-width="7.1" opacity="0.55"/>
</g>


<g opacity="0.442" transform="translate(82.1,1069.0) rotate(-4.7)" filter="url(#softGlow)">
  <rect x="-45.2" y="-26.0" width="90.4" height="52.1" rx="15.9" fill="none" stroke="#06B6D4" stroke-width="8.7" opacity="0.55"/>
  <rect x="-19.9" y="-13.0" width="90.4" height="52.1" rx="15.9" fill="none" stroke="url(#strokeA)" stroke-width="7.2" opacity="0.55"/>
</g>


<g opacity="0.225" transform="translate(178.8,54.4) rotate(14.8)" filter="url(#softGlow)">
  <rect x="-54.5" y="-31.4" width="109.0" height="62.8" rx="19.2" fill="none" stroke="#06B6D4" stroke-width="10.5" opacity="0.55"/>
  <rect x="-24.0" y="-15.7" width="109.0" height="62.8" rx="19.2" fill="none" stroke="url(#strokeA)" stroke-width="8.7" opacity="0.55"/>
</g>


<g opacity="0.179">
  <line x1="24.1" y1="906.9" x2="24.1" y2="986.0" stroke="#A3E635" stroke-width="1.10" opacity="0.45"/>
  <rect x="19.6" y="953.9" width="9.0" height="32.6" rx="3.0" fill="#0B1020" opacity="0.55" stroke="url(#strokeA)" stroke-width="1.2"/>
</g>

<g opacity="0.179">
  <line x1="1612.6" y1="920.3" x2="1612.6" y2="982.6" stroke="#A3E635" stroke-width="1.53" opacity="0.45"/>
  <rect x="1609.3" y="950.3" width="6.7" height="39.8" rx="2.2" fill="#0B1020" opacity="0.55" stroke="url(#strokeA)" stroke-width="1.2"/>
</g>

<g opacity="0.179">
  <line x1="1211.9" y1="888.1" x2="1211.9" y2="990.7" stroke="#A3E635" stroke-width="1.55" opacity="0.45"/>
  <rect x="1208.3" y="944.8" width="7.1" height="50.8" rx="2.4" fill="#0B1020" opacity="0.55" stroke="url(#strokeA)" stroke-width="1.2"/>
</g>

<g opacity="0.179">
  <line x1="783.6" y1="898.1" x2="783.6" y2="988.2" stroke="#A3E635" stroke-width="2.09" opacity="0.45"/>
  <rect x="778.1" y="941.8" width="10.9" height="56.8" rx="3.6" fill="#0B1020" opacity="0.55" stroke="url(#strokeA)" stroke-width="1.2"/>
</g>

<g opacity="0.179">
  <line x1="1587.4" y1="893.1" x2="1587.4" y2="989.5" stroke="#A3E635" stroke-width="1.51" opacity="0.45"/>
  <rect x="1583.1" y="941.5" width="8.6" height="57.3" rx="2.9" fill="#0B1020" opacity="0.55" stroke="url(#strokeA)" stroke-width="1.2"/>
</g>

<g opacity="0.179">
  <line x1="16.7" y1="909.8" x2="16.7" y2="985.3" stroke="#A3E635" stroke-width="1.50" opacity="0.45"/>
  <rect x="13.6" y="952.0" width="6.2" height="36.3" rx="2.1" fill="#0B1020" opacity="0.55" stroke="url(#strokeA)" stroke-width="1.2"/>
</g>

<g opacity="0.179">
  <line x1="1327.1" y1="904.2" x2="1327.1" y2="986.7" stroke="#A3E635" stroke-width="1.18" opacity="0.45"/>
  <rect x="1323.0" y="945.1" width="8.3" height="50.3" rx="2.8" fill="#0B1020" opacity="0.55" stroke="url(#strokeA)" stroke-width="1.2"/>
</g>

<g opacity="0.179">
  <line x1="362.7" y1="901.8" x2="362.7" y2="987.3" stroke="#A3E635" stroke-width="1.82" opacity="0.45"/>
  <rect x="357.0" y="955.1" width="11.3" height="30.2" rx="3.8" fill="#0B1020" opacity="0.55" stroke="url(#strokeA)" stroke-width="1.2"/>
</g>

<g opacity="0.179">
  <line x1="1391.5" y1="907.7" x2="1391.5" y2="985.8" stroke="#A3E635" stroke-width="1.99" opacity="0.45"/>
  <rect x="1387.7" y="947.2" width="7.5" height="46.0" rx="2.5" fill="#0B1020" opacity="0.55" stroke="url(#strokeA)" stroke-width="1.2"/>
</g>

<g opacity="0.179">
  <line x1="951.2" y1="910.5" x2="951.2" y2="985.1" stroke="#A3E635" stroke-width="1.09" opacity="0.45"/>
  <rect x="946.2" y="959.0" width="10.1" height="22.3" rx="3.4" fill="#0B1020" opacity="0.55" stroke="url(#strokeA)" stroke-width="1.2"/>
</g>

<g opacity="0.179">
  <line x1="309.7" y1="900.7" x2="309.7" y2="987.6" stroke="#A3E635" stroke-width="1.82" opacity="0.45"/>
  <rect x="305.8" y="951.8" width="7.7" height="36.7" rx="2.6" fill="#0B1020" opacity="0.55" stroke="url(#strokeA)" stroke-width="1.2"/>
</g>
<circle cx="57.6" cy="1010.5" r="1.4" fill="#06B6D4" opacity="0.18" filter="url(#softGlow)"/>
<circle cx="9.0" cy="71.5" r="2.0" fill="#06B6D4" opacity="0.23" filter="url(#softGlow)"/>
<circle cx="1841.0" cy="94.1" r="2.7" fill="#06B6D4" opacity="0.10" filter="url(#softGlow)"/>
<circle cx="1851.8" cy="875.9" r="1.8" fill="#06B6D4" opacity="0.17" filter="url(#softGlow)"/>
<circle cx="122.9" cy="1035.7" r="2.6" fill="#06B6D4" opacity="0.27" filter="url(#softGlow)"/>
<circle cx="114.2" cy="981.2" r="1.9" fill="#06B6D4" opacity="0.13" filter="url(#softGlow)"/>
<circle cx="170.2" cy="662.7" r="1.9" fill="#06B6D4" opacity="0.14" filter="url(#softGlow)"/>
<circle cx="1812.5" cy="877.3" r="1.5" fill="#06B6D4" opacity="0.15" filter="url(#softGlow)"/>
<circle cx="1706.4" cy="948.3" r="3.0" fill="#06B6D4" opacity="0.16" filter="url(#softGlow)"/>
<circle cx="1856.4" cy="33.2" r="2.9" fill="#06B6D4" opacity="0.26" filter="url(#softGlow)"/>
<circle cx="171.6" cy="127.1" r="1.3" fill="#06B6D4" opacity="0.19" filter="url(#softGlow)"/>
<circle cx="1830.4" cy="95.1" r="2.2" fill="#06B6D4" opacity="0.19" filter="url(#softGlow)"/>
<circle cx="865.4" cy="1056.3" r="1.5" fill="#06B6D4" opacity="0.11" filter="url(#softGlow)"/>
<circle cx="44.5" cy="188.9" r="1.5" fill="#06B6D4" opacity="0.16" filter="url(#softGlow)"/>
<circle cx="1708.0" cy="254.1" r="3.0" fill="#06B6D4" opacity="0.13" filter="url(#softGlow)"/>
<circle cx="1890.9" cy="597.0" r="2.1" fill="#06B6D4" opacity="0.24" filter="url(#softGlow)"/>
<circle cx="1891.2" cy="79.6" r="2.4" fill="#06B6D4" opacity="0.22" filter="url(#softGlow)"/>
<circle cx="3.1" cy="1079.8" r="2.0" fill="#06B6D4" opacity="0.11" filter="url(#softGlow)"/>
<circle cx="1816.5" cy="111.0" r="1.5" fill="#06B6D4" opacity="0.19" filter="url(#softGlow)"/>
<circle cx="98.0" cy="894.0" r="3.0" fill="#06B6D4" opacity="0.20" filter="url(#softGlow)"/>
<circle cx="1880.7" cy="652.3" r="1.6" fill="#06B6D4" opacity="0.13" filter="url(#softGlow)"/>
<circle cx="171.3" cy="955.3" r="1.3" fill="#06B6D4" opacity="0.11" filter="url(#softGlow)"/>
<circle cx="1747.5" cy="65.9" r="2.6" fill="#06B6D4" opacity="0.24" filter="url(#softGlow)"/>
<circle cx="196.7" cy="82.5" r="2.8" fill="#06B6D4" opacity="0.17" filter="url(#softGlow)"/>
<circle cx="1867.4" cy="20.1" r="2.2" fill="#06B6D4" opacity="0.18" filter="url(#softGlow)"/>
<circle cx="1837.0" cy="22.9" r="2.8" fill="#06B6D4" opacity="0.25" filter="url(#softGlow)"/>
<circle cx="1910.5" cy="142.1" r="2.3" fill="#06B6D4" opacity="0.21" filter="url(#softGlow)"/>
<circle cx="1844.2" cy="911.5" r="2.3" fill="#06B6D4" opacity="0.10" filter="url(#softGlow)"/>
<circle cx="1779.5" cy="136.1" r="2.3" fill="#06B6D4" opacity="0.11" filter="url(#softGlow)"/>
<circle cx="1887.0" cy="610.1" r="2.9" fill="#06B6D4" opacity="0.26" filter="url(#softGlow)"/>
</svg>